{"assets":{"audio":{"byId":{}},"createdWith":"mvmnt/0.13.0","storage":"inline-json"},"format":"mvmnt.scene","metadata":{"author":"Maokus","createdAt":"2025-09-28T10:08:35.688Z","description":"blank scene","format":"scene","id":"blank","modifiedAt":"2025-10-05T01:55:30.913Z","name":"blank"},"scene":{"elements":[],"sceneSettings":{"beatsPerBar":4,"fps":60,"height":1500,"tempo":120,"width":1500}},"schemaVersion":2,"timeline":{"midiCache":{"trk_rcw8w4pl":{"midiData":{"duration":184,"events":[{"channel":0,"nextOffset":67,"note":58,"tick":0,"time":0,"type":"noteOn","velocity":68},{"channel":0,"nextOffset":71,"note":62,"tick":0,"time":0,"type":"noteOn","velocity":68},{"channel":0,"nextOffset":75,"note":65,"tick":0,"time":0,"type":"noteOn","velocity":68},{"channel":0,"nextOffset":79,"note":69,"tick":0,"time":0,"type":"noteOn","velocity":68},{"channel":0,"nextOffset":83,"note":43,"tick":48,"time":0.25,"type":"noteOff","velocity":0},{"channel":0,"nextOffset":87,"note":50,"tick":48,"time":0.25,"type":"noteOn","velocity":68},{"channel":0,"nextOffset":91,"note":43,"tick":96,"time":0.5,"type":"noteOn","velocity":68},{"channel":0,"nextOffset":95,"note":50,"tick":96,"time":0.5,"type":"noteOff","velocity":0},{"channel":0,"nextOffset":99,"note":58,"tick":96,"time":0.5,"type":"noteOff","velocity":0},{"channel":0,"nextOffset":103,"note":62,"tick":96,"time":0.5,"type":"noteOff","velocity":0},{"channel":0,"nextOffset":107,"note":65,"tick":96,"time":0.5,"type":"noteOff","velocity":0},{"channel":0,"nextOffset":111,"note":69,"tick":96,"time":0.5,"type":"noteOff","velocity":0},{"channel":0,"nextOffset":115,"note":43,"tick":144,"time":0.75,"type":"noteOff","velocity":0},{"channel":0,"nextOffset":119,"note":44,"tick":144,"time":0.75,"type":"noteOn","velocity":68},{"channel":0,"nextOffset":123,"note":65,"tick":144,"time":0.75,"type":"noteOn","velocity":68},{"channel":0,"nextOffset":127,"note":65,"tick":168,"time":0.875,"type":"noteOff","velocity":0},{"channel":0,"nextOffset":131,"note":69,"tick":168,"time":0.875,"type":"noteOn","velocity":68},{"channel":0,"nextOffset":135,"note":44,"tick":192,"time":1,"type":"noteOff","velocity":0},{"channel":0,"nextOffset":139,"note":45,"tick":192,"time":1,"type":"noteOn","velocity":68},{"channel":0,"nextOffset":143,"note":60,"tick":192,"time":1,"type":"noteOn","velocity":68},{"channel":0,"nextOffset":147,"note":64,"tick":192,"time":1,"type":"noteOn","velocity":68},{"channel":0,"nextOffset":151,"note":67,"tick":192,"time":1,"type":"noteOn","velocity":68},{"channel":0,"nextOffset":155,"note":69,"tick":192,"time":1,"type":"noteOff","velocity":0},{"channel":0,"nextOffset":159,"note":72,"tick":192,"time":1,"type":"noteOn","velocity":68},{"channel":0,"nextOffset":163,"note":45,"tick":240,"time":1.25,"type":"noteOff","velocity":0},{"channel":0,"nextOffset":167,"note":60,"tick":240,"time":1.25,"type":"noteOff","velocity":0},{"channel":0,"nextOffset":171,"note":64,"tick":240,"time":1.25,"type":"noteOff","velocity":0},{"channel":0,"nextOffset":175,"note":67,"tick":240,"time":1.25,"type":"noteOff","velocity":0},{"channel":0,"nextOffset":179,"note":72,"tick":240,"time":1.25,"type":"noteOff","velocity":0},{"channel":0,"nextOffset":183,"note":45,"tick":264,"time":1.375,"type":"noteOn","velocity":68},{"channel":0,"nextOffset":187,"note":61,"tick":264,"time":1.375,"type":"noteOn","velocity":68},{"channel":0,"nextOffset":191,"note":65,"tick":264,"time":1.375,"type":"noteOn","velocity":68},{"channel":0,"nextOffset":195,"note":67,"tick":264,"time":1.375,"type":"noteOn","velocity":68},{"channel":0,"nextOffset":199,"note":70,"tick":264,"time":1.375,"type":"noteOn","velocity":68},{"channel":0,"nextOffset":203,"note":45,"tick":288,"time":1.5,"type":"noteOff","velocity":0},{"channel":0,"nextOffset":207,"note":61,"tick":312,"time":1.625,"type":"noteOff","velocity":0},{"channel":0,"nextOffset":211,"note":65,"tick":312,"time":1.625,"type":"noteOff","velocity":0},{"channel":0,"nextOffset":215,"note":67,"tick":312,"time":1.625,"type":"noteOff","velocity":0},{"channel":0,"nextOffset":219,"note":70,"tick":312,"time":1.625,"type":"noteOff","velocity":0},{"channel":0,"nextOffset":223,"note":38,"tick":336,"time":1.75,"type":"noteOn","velocity":68},{"channel":0,"nextOffset":227,"note":60,"tick":336,"time":1.75,"type":"noteOn","velocity":68},{"channel":0,"nextOffset":231,"note":64,"tick":336,"time":1.75,"type":"noteOn","velocity":68},{"channel":0,"nextOffset":235,"note":65,"tick":336,"time":1.75,"type":"noteOn","velocity":68},{"channel":0,"nextOffset":239,"note":69,"tick":336,"time":1.75,"type":"noteOn","velocity":68},{"channel":0,"nextOffset":243,"note":38,"tick":384,"time":2,"type":"noteOff","velocity":0},{"channel":0,"nextOffset":247,"note":60,"tick":384,"time":2,"type":"noteOff","velocity":0},{"channel":0,"nextOffset":251,"note":64,"tick":384,"time":2,"type":"noteOff","velocity":0},{"channel":0,"nextOffset":255,"note":65,"tick":384,"time":2,"type":"noteOff","velocity":0},{"channel":0,"nextOffset":259,"note":69,"tick":384,"time":2,"type":"noteOff","velocity":0},{"channel":0,"nextOffset":263,"note":76,"tick":384,"time":2,"type":"noteOn","velocity":68},{"channel":0,"nextOffset":267,"note":76,"tick":408,"time":2.125,"type":"noteOff","velocity":0},{"channel":0,"nextOffset":271,"note":77,"tick":408,"time":2.125,"type":"noteOn","velocity":68},{"channel":0,"nextOffset":275,"note":76,"tick":432,"time":2.25,"type":"noteOn","velocity":68},{"channel":0,"nextOffset":279,"note":77,"tick":432,"time":2.25,"type":"noteOff","velocity":0},{"channel":0,"nextOffset":283,"note":72,"tick":456,"time":2.375,"type":"noteOn","velocity":68},{"channel":0,"nextOffset":287,"note":76,"tick":456,"time":2.375,"type":"noteOff","velocity":0},{"channel":0,"nextOffset":291,"note":72,"tick":480,"time":2.5,"type":"noteOff","velocity":0},{"channel":0,"nextOffset":295,"note":76,"tick":480,"time":2.5,"type":"noteOn","velocity":68},{"channel":0,"nextOffset":299,"note":72,"tick":504,"time":2.625,"type":"noteOn","velocity":68},{"channel":0,"nextOffset":303,"note":76,"tick":504,"time":2.625,"type":"noteOff","velocity":0},{"channel":0,"nextOffset":307,"note":45,"tick":528,"time":2.75,"type":"noteOn","velocity":68},{"channel":0,"nextOffset":311,"note":69,"tick":528,"time":2.75,"type":"noteOn","velocity":68},{"channel":0,"nextOffset":315,"note":72,"tick":528,"time":2.75,"type":"noteOff","velocity":0},{"channel":0,"nextOffset":319,"note":67,"tick":552,"time":2.875,"type":"noteOn","velocity":68},{"channel":0,"nextOffset":323,"note":69,"tick":552,"time":2.875,"type":"noteOff","velocity":0},{"channel":0,"nextOffset":327,"note":45,"tick":576,"time":3,"type":"noteOff","velocity":0},{"channel":0,"nextOffset":331,"note":50,"tick":576,"time":3,"type":"noteOn","velocity":68},{"channel":0,"nextOffset":335,"note":67,"tick":576,"time":3,"type":"noteOff","velocity":0},{"channel":0,"nextOffset":339,"note":69,"tick":576,"time":3,"type":"noteOn","velocity":68},{"channel":0,"nextOffset":343,"note":62,"tick":600,"time":3.125,"type":"noteOn","velocity":68},{"channel":0,"nextOffset":347,"note":69,"tick":600,"time":3.125,"type":"noteOff","velocity":0},{"channel":0,"nextOffset":351,"note":38,"tick":624,"time":3.25,"type":"noteOn","velocity":68},{"channel":0,"nextOffset":355,"note":50,"tick":624,"time":3.25,"type":"noteOff","velocity":0},{"channel":0,"nextOffset":359,"note":60,"tick":624,"time":3.25,"type":"noteOn","velocity":68},{"channel":0,"nextOffset":363,"note":62,"tick":624,"time":3.25,"type":"noteOff","velocity":0},{"channel":0,"nextOffset":367,"note":60,"tick":648,"time":3.375,"type":"noteOff","velocity":0},{"channel":0,"nextOffset":371,"note":65,"tick":648,"time":3.375,"type":"noteOn","velocity":68},{"channel":0,"nextOffset":375,"note":38,"tick":672,"time":3.5,"type":"noteOff","velocity":0},{"channel":0,"nextOffset":379,"note":45,"tick":672,"time":3.5,"type":"noteOn","velocity":68},{"channel":0,"nextOffset":383,"note":60,"tick":672,"time":3.5,"type":"noteOn","velocity":68},{"channel":0,"nextOffset":387,"note":64,"tick":672,"time":3.5,"type":"noteOn","velocity":68},{"channel":0,"nextOffset":391,"note":65,"tick":672,"time":3.5,"type":"noteOff","velocity":0},{"channel":0,"nextOffset":395,"note":69,"tick":672,"time":3.5,"type":"noteOn","velocity":68},{"channel":0,"nextOffset":399,"note":44,"tick":720,"time":3.75,"type":"noteOn","velocity":68},{"channel":0,"nextOffset":403,"note":45,"tick":720,"time":3.75,"type":"noteOff","velocity":0},{"channel":0,"nextOffset":407,"note":59,"tick":720,"time":3.75,"type":"noteOn","velocity":68},{"channel":0,"nextOffset":411,"note":60,"tick":720,"time":3.75,"type":"noteOff","velocity":0},{"channel":0,"nextOffset":415,"note":63,"tick":720,"time":3.75,"type":"noteOn","velocity":68},{"channel":0,"nextOffset":419,"note":64,"tick":720,"time":3.75,"type":"noteOff","velocity":0},{"channel":0,"nextOffset":423,"note":68,"tick":720,"time":3.75,"type":"noteOn","velocity":68},{"channel":0,"nextOffset":427,"note":69,"tick":720,"time":3.75,"type":"noteOff","velocity":0},{"channel":0,"nextOffset":431,"note":43,"tick":768,"time":4,"type":"noteOn","velocity":68},{"channel":0,"nextOffset":435,"note":44,"tick":768,"time":4,"type":"noteOff","velocity":0},{"channel":0,"nextOffset":439,"note":58,"tick":768,"time":4,"type":"noteOn","velocity":68},{"channel":0,"nextOffset":443,"note":59,"tick":768,"time":4,"type":"noteOff","velocity":0},{"channel":0,"nextOffset":447,"note":62,"tick":768,"time":4,"type":"noteOn","velocity":68},{"channel":0,"nextOffset":451,"note":63,"tick":768,"time":4,"type":"noteOff","velocity":0},{"channel":0,"nextOffset":455,"note":65,"tick":768,"time":4,"type":"noteOn","velocity":68},{"channel":0,"nextOffset":459,"note":68,"tick":768,"time":4,"type":"noteOff","velocity":0},{"channel":0,"nextOffset":463,"note":69,"tick":768,"time":4,"type":"noteOn","velocity":68},{"channel":0,"nextOffset":467,"note":43,"tick":816,"time":4.25,"type":"noteOff","velocity":0},{"channel":0,"nextOffset":471,"note":50,"tick":816,"time":4.25,"type":"noteOn","velocity":68},{"channel":0,"nextOffset":475,"note":43,"tick":864,"time":4.5,"type":"noteOn","velocity":68},{"channel":0,"nextOffset":479,"note":50,"tick":864,"time":4.5,"type":"noteOff","velocity":0},{"channel":0,"nextOffset":483,"note":58,"tick":864,"time":4.5,"type":"noteOff","velocity":0},{"channel":0,"nextOffset":487,"note":62,"tick":864,"time":4.5,"type":"noteOff","velocity":0},{"channel":0,"nextOffset":491,"note":65,"tick":864,"time":4.5,"type":"noteOff","velocity":0},{"channel":0,"nextOffset":495,"note":69,"tick":864,"time":4.5,"type":"noteOff","velocity":0},{"channel":0,"nextOffset":499,"note":43,"tick":912,"time":4.75,"type":"noteOff","velocity":0},{"channel":0,"nextOffset":503,"note":44,"tick":912,"time":4.75,"type":"noteOn","velocity":68},{"channel":0,"nextOffset":507,"note":65,"tick":912,"time":4.75,"type":"noteOn","velocity":68},{"channel":0,"nextOffset":511,"note":65,"tick":936,"time":4.875,"type":"noteOff","velocity":0},{"channel":0,"nextOffset":515,"note":69,"tick":936,"time":4.875,"type":"noteOn","velocity":68},{"channel":0,"nextOffset":519,"note":44,"tick":960,"time":5,"type":"noteOff","velocity":0},{"channel":0,"nextOffset":523,"note":45,"tick":960,"time":5,"type":"noteOn","velocity":68},{"channel":0,"nextOffset":527,"note":60,"tick":960,"time":5,"type":"noteOn","velocity":68},{"channel":0,"nextOffset":531,"note":64,"tick":960,"time":5,"type":"noteOn","velocity":68},{"channel":0,"nextOffset":535,"note":67,"tick":960,"time":5,"type":"noteOn","velocity":68},{"channel":0,"nextOffset":539,"note":69,"tick":960,"time":5,"type":"noteOff","velocity":0},{"channel":0,"nextOffset":543,"note":72,"tick":960,"time":5,"type":"noteOn","velocity":68},{"channel":0,"nextOffset":547,"note":45,"tick":1008,"time":5.25,"type":"noteOff","velocity":0},{"channel":0,"nextOffset":551,"note":60,"tick":1008,"time":5.25,"type":"noteOff","velocity":0},{"channel":0,"nextOffset":555,"note":64,"tick":1008,"time":5.25,"type":"noteOff","velocity":0},{"channel":0,"nextOffset":559,"note":67,"tick":1008,"time":5.25,"type":"noteOff","velocity":0},{"channel":0,"nextOffset":563,"note":72,"tick":1008,"time":5.25,"type":"noteOff","velocity":0},{"channel":0,"nextOffset":567,"note":45,"tick":1032,"time":5.375,"type":"noteOn","velocity":68},{"channel":0,"nextOffset":571,"note":61,"tick":1032,"time":5.375,"type":"noteOn","velocity":68},{"channel":0,"nextOffset":575,"note":65,"tick":1032,"time":5.375,"type":"noteOn","velocity":68},{"channel":0,"nextOffset":579,"note":67,"tick":1032,"time":5.375,"type":"noteOn","velocity":68},{"channel":0,"nextOffset":583,"note":70,"tick":1032,"time":5.375,"type":"noteOn","velocity":68},{"channel":0,"nextOffset":587,"note":45,"tick":1056,"time":5.5,"type":"noteOff","velocity":0},{"channel":0,"nextOffset":591,"note":61,"tick":1080,"time":5.625,"type":"noteOff","velocity":0},{"channel":0,"nextOffset":595,"note":65,"tick":1080,"time":5.625,"type":"noteOff","velocity":0},{"channel":0,"nextOffset":599,"note":67,"tick":1080,"time":5.625,"type":"noteOff","velocity":0},{"channel":0,"nextOffset":603,"note":70,"tick":1080,"time":5.625,"type":"noteOff","velocity":0},{"channel":0,"nextOffset":607,"note":38,"tick":1104,"time":5.75,"type":"noteOn","velocity":68},{"channel":0,"nextOffset":611,"note":60,"tick":1104,"time":5.75,"type":"noteOn","velocity":68},{"channel":0,"nextOffset":615,"note":64,"tick":1104,"time":5.75,"type":"noteOn","velocity":68},{"channel":0,"nextOffset":619,"note":65,"tick":1104,"time":5.75,"type":"noteOn","velocity":68},{"channel":0,"nextOffset":623,"note":69,"tick":1104,"time":5.75,"type":"noteOn","velocity":68},{"channel":0,"nextOffset":627,"note":38,"tick":1152,"time":6,"type":"noteOff","velocity":0},{"channel":0,"nextOffset":631,"note":60,"tick":1152,"time":6,"type":"noteOff","velocity":0},{"channel":0,"nextOffset":635,"note":64,"tick":1152,"time":6,"type":"noteOff","velocity":0},{"channel":0,"nextOffset":639,"note":65,"tick":1152,"time":6,"type":"noteOff","velocity":0},{"channel":0,"nextOffset":643,"note":69,"tick":1152,"time":6,"type":"noteOff","velocity":0},{"channel":0,"nextOffset":647,"note":76,"tick":1152,"time":6,"type":"noteOn","velocity":68},{"channel":0,"nextOffset":651,"note":76,"tick":1176,"time":6.125,"type":"noteOff","velocity":0},{"channel":0,"nextOffset":655,"note":77,"tick":1176,"time":6.125,"type":"noteOn","velocity":68},{"channel":0,"nextOffset":659,"note":77,"tick":1200,"time":6.25,"type":"noteOff","velocity":0},{"channel":0,"nextOffset":663,"note":79,"tick":1200,"time":6.25,"type":"noteOn","velocity":68},{"channel":0,"nextOffset":667,"note":77,"tick":1224,"time":6.375,"type":"noteOn","velocity":68},{"channel":0,"nextOffset":671,"note":79,"tick":1224,"time":6.375,"type":"noteOff","velocity":0},{"channel":0,"nextOffset":675,"note":76,"tick":1248,"time":6.5,"type":"noteOn","velocity":68},{"channel":0,"nextOffset":679,"note":77,"tick":1248,"time":6.5,"type":"noteOff","velocity":0},{"channel":0,"nextOffset":683,"note":72,"tick":1272,"time":6.625,"type":"noteOn","velocity":68},{"channel":0,"nextOffset":687,"note":76,"tick":1272,"time":6.625,"type":"noteOff","velocity":0},{"channel":0,"nextOffset":691,"note":45,"tick":1296,"time":6.75,"type":"noteOn","velocity":68},{"channel":0,"nextOffset":695,"note":69,"tick":1296,"time":6.75,"type":"noteOn","velocity":68},{"channel":0,"nextOffset":699,"note":72,"tick":1296,"time":6.75,"type":"noteOff","velocity":0},{"channel":0,"nextOffset":703,"note":67,"tick":1320,"time":6.875,"type":"noteOn","velocity":68},{"channel":0,"nextOffset":707,"note":69,"tick":1320,"time":6.875,"type":"noteOff","velocity":0},{"channel":0,"nextOffset":711,"note":45,"tick":1344,"time":7,"type":"noteOff","velocity":0},{"channel":0,"nextOffset":715,"note":50,"tick":1344,"time":7,"type":"noteOn","velocity":68},{"channel":0,"nextOffset":719,"note":67,"tick":1344,"time":7,"type":"noteOff","velocity":0},{"channel":0,"nextOffset":723,"note":69,"tick":1344,"time":7,"type":"noteOn","velocity":68},{"channel":0,"nextOffset":727,"note":62,"tick":1368,"time":7.125,"type":"noteOn","velocity":68},{"channel":0,"nextOffset":731,"note":69,"tick":1368,"time":7.125,"type":"noteOff","velocity":0},{"channel":0,"nextOffset":735,"note":38,"tick":1392,"time":7.25,"type":"noteOn","velocity":68},{"channel":0,"nextOffset":739,"note":50,"tick":1392,"time":7.25,"type":"noteOff","velocity":0},{"channel":0,"nextOffset":743,"note":60,"tick":1392,"time":7.25,"type":"noteOn","velocity":68},{"channel":0,"nextOffset":747,"note":62,"tick":1392,"time":7.25,"type":"noteOff","velocity":0},{"channel":0,"nextOffset":751,"note":60,"tick":1416,"time":7.375,"type":"noteOff","velocity":0},{"channel":0,"nextOffset":755,"note":65,"tick":1416,"time":7.375,"type":"noteOn","velocity":68},{"channel":0,"nextOffset":759,"note":38,"tick":1440,"time":7.5,"type":"noteOff","velocity":0},{"channel":0,"nextOffset":763,"note":45,"tick":1440,"time":7.5,"type":"noteOn","velocity":68},{"channel":0,"nextOffset":767,"note":60,"tick":1440,"time":7.5,"type":"noteOn","velocity":68},{"channel":0,"nextOffset":771,"note":64,"tick":1440,"time":7.5,"type":"noteOn","velocity":68},{"channel":0,"nextOffset":775,"note":65,"tick":1440,"time":7.5,"type":"noteOff","velocity":0},{"channel":0,"nextOffset":779,"note":69,"tick":1440,"time":7.5,"type":"noteOn","velocity":68},{"channel":0,"nextOffset":783,"note":44,"tick":1488,"time":7.75,"type":"noteOn","velocity":68},{"channel":0,"nextOffset":787,"note":45,"tick":1488,"time":7.75,"type":"noteOff","velocity":0},{"channel":0,"nextOffset":791,"note":59,"tick":1488,"time":7.75,"type":"noteOn","velocity":68},{"channel":0,"nextOffset":795,"note":60,"tick":1488,"time":7.75,"type":"noteOff","velocity":0},{"channel":0,"nextOffset":799,"note":63,"tick":1488,"time":7.75,"type":"noteOn","velocity":68},{"channel":0,"nextOffset":803,"note":64,"tick":1488,"time":7.75,"type":"noteOff","velocity":0},{"channel":0,"nextOffset":807,"note":68,"tick":1488,"time":7.75,"type":"noteOn","velocity":68},{"channel":0,"nextOffset":811,"note":69,"tick":1488,"time":7.75,"type":"noteOff","velocity":0},{"channel":0,"nextOffset":815,"note":43,"tick":1536,"time":8,"type":"noteOn","velocity":68},{"channel":0,"nextOffset":819,"note":44,"tick":1536,"time":8,"type":"noteOff","velocity":0},{"channel":0,"nextOffset":823,"note":58,"tick":1536,"time":8,"type":"noteOn","velocity":68},{"channel":0,"nextOffset":827,"note":59,"tick":1536,"time":8,"type":"noteOff","velocity":0},{"channel":0,"nextOffset":831,"note":62,"tick":1536,"time":8,"type":"noteOn","velocity":68},{"channel":0,"nextOffset":835,"note":63,"tick":1536,"time":8,"type":"noteOff","velocity":0},{"channel":0,"nextOffset":839,"note":65,"tick":1536,"time":8,"type":"noteOn","velocity":68},{"channel":0,"nextOffset":843,"note":68,"tick":1536,"time":8,"type":"noteOff","velocity":0},{"channel":0,"nextOffset":847,"note":69,"tick":1536,"time":8,"type":"noteOn","velocity":68},{"channel":0,"nextOffset":851,"note":43,"tick":1584,"time":8.25,"type":"noteOff","velocity":0},{"channel":0,"nextOffset":855,"note":50,"tick":1584,"time":8.25,"type":"noteOn","velocity":68},{"channel":0,"nextOffset":859,"note":43,"tick":1632,"time":8.5,"type":"noteOn","velocity":68},{"channel":0,"nextOffset":863,"note":50,"tick":1632,"time":8.5,"type":"noteOff","velocity":0},{"channel":0,"nextOffset":867,"note":58,"tick":1632,"time":8.5,"type":"noteOff","velocity":0},{"channel":0,"nextOffset":871,"note":62,"tick":1632,"time":8.5,"type":"noteOff","velocity":0},{"channel":0,"nextOffset":875,"note":65,"tick":1632,"time":8.5,"type":"noteOff","velocity":0},{"channel":0,"nextOffset":879,"note":69,"tick":1632,"time":8.5,"type":"noteOff","velocity":0},{"channel":0,"nextOffset":883,"note":43,"tick":1680,"time":8.75,"type":"noteOff","velocity":0},{"channel":0,"nextOffset":887,"note":44,"tick":1680,"time":8.75,"type":"noteOn","velocity":68},{"channel":0,"nextOffset":891,"note":65,"tick":1680,"time":8.75,"type":"noteOn","velocity":68},{"channel":0,"nextOffset":895,"note":65,"tick":1704,"time":8.875,"type":"noteOff","velocity":0},{"channel":0,"nextOffset":899,"note":69,"tick":1704,"time":8.875,"type":"noteOn","velocity":68},{"channel":0,"nextOffset":903,"note":44,"tick":1728,"time":9,"type":"noteOff","velocity":0},{"channel":0,"nextOffset":907,"note":45,"tick":1728,"time":9,"type":"noteOn","velocity":68},{"channel":0,"nextOffset":911,"note":60,"tick":1728,"time":9,"type":"noteOn","velocity":68},{"channel":0,"nextOffset":915,"note":64,"tick":1728,"time":9,"type":"noteOn","velocity":68},{"channel":0,"nextOffset":919,"note":67,"tick":1728,"time":9,"type":"noteOn","velocity":68},{"channel":0,"nextOffset":923,"note":69,"tick":1728,"time":9,"type":"noteOff","velocity":0},{"channel":0,"nextOffset":927,"note":72,"tick":1728,"time":9,"type":"noteOn","velocity":68},{"channel":0,"nextOffset":931,"note":45,"tick":1776,"time":9.25,"type":"noteOff","velocity":0},{"channel":0,"nextOffset":935,"note":60,"tick":1776,"time":9.25,"type":"noteOff","velocity":0},{"channel":0,"nextOffset":939,"note":64,"tick":1776,"time":9.25,"type":"noteOff","velocity":0},{"channel":0,"nextOffset":943,"note":67,"tick":1776,"time":9.25,"type":"noteOff","velocity":0},{"channel":0,"nextOffset":947,"note":72,"tick":1776,"time":9.25,"type":"noteOff","velocity":0},{"channel":0,"nextOffset":951,"note":45,"tick":1800,"time":9.375,"type":"noteOn","velocity":68},{"channel":0,"nextOffset":955,"note":61,"tick":1800,"time":9.375,"type":"noteOn","velocity":68},{"channel":0,"nextOffset":959,"note":65,"tick":1800,"time":9.375,"type":"noteOn","velocity":68},{"channel":0,"nextOffset":963,"note":67,"tick":1800,"time":9.375,"type":"noteOn","velocity":68},{"channel":0,"nextOffset":967,"note":70,"tick":1800,"time":9.375,"type":"noteOn","velocity":68},{"channel":0,"nextOffset":971,"note":45,"tick":1824,"time":9.5,"type":"noteOff","velocity":0},{"channel":0,"nextOffset":975,"note":61,"tick":1848,"time":9.625,"type":"noteOff","velocity":0},{"channel":0,"nextOffset":979,"note":65,"tick":1848,"time":9.625,"type":"noteOff","velocity":0},{"channel":0,"nextOffset":983,"note":67,"tick":1848,"time":9.625,"type":"noteOff","velocity":0},{"channel":0,"nextOffset":987,"note":70,"tick":1848,"time":9.625,"type":"noteOff","velocity":0},{"channel":0,"nextOffset":991,"note":38,"tick":1872,"time":9.75,"type":"noteOn","velocity":68},{"channel":0,"nextOffset":995,"note":60,"tick":1872,"time":9.75,"type":"noteOn","velocity":68},{"channel":0,"nextOffset":999,"note":64,"tick":1872,"time":9.75,"type":"noteOn","velocity":68},{"channel":0,"nextOffset":1003,"note":65,"tick":1872,"time":9.75,"type":"noteOn","velocity":68},{"channel":0,"nextOffset":1007,"note":69,"tick":1872,"time":9.75,"type":"noteOn","velocity":68},{"channel":0,"nextOffset":1011,"note":38,"tick":1920,"time":10,"type":"noteOff","velocity":0},{"channel":0,"nextOffset":1015,"note":60,"tick":1920,"time":10,"type":"noteOff","velocity":0},{"channel":0,"nextOffset":1019,"note":64,"tick":1920,"time":10,"type":"noteOff","velocity":0},{"channel":0,"nextOffset":1023,"note":65,"tick":1920,"time":10,"type":"noteOff","velocity":0},{"channel":0,"nextOffset":1027,"note":69,"tick":1920,"time":10,"type":"noteOff","velocity":0},{"channel":0,"nextOffset":1031,"note":76,"tick":1920,"time":10,"type":"noteOn","velocity":68},{"channel":0,"nextOffset":1035,"note":76,"tick":1944,"time":10.125,"type":"noteOff","velocity":0},{"channel":0,"nextOffset":1039,"note":77,"tick":1944,"time":10.125,"type":"noteOn","velocity":68},{"channel":0,"nextOffset":1043,"note":76,"tick":1968,"time":10.25,"type":"noteOn","velocity":68},{"channel":0,"nextOffset":1047,"note":77,"tick":1968,"time":10.25,"type":"noteOff","velocity":0},{"channel":0,"nextOffset":1051,"note":72,"tick":1992,"time":10.375,"type":"noteOn","velocity":68},{"channel":0,"nextOffset":1055,"note":76,"tick":1992,"time":10.375,"type":"noteOff","velocity":0},{"channel":0,"nextOffset":1059,"note":38,"tick":2016,"time":10.5,"type":"noteOn","velocity":68},{"channel":0,"nextOffset":1063,"note":72,"tick":2016,"time":10.5,"type":"noteOff","velocity":0},{"channel":0,"nextOffset":1067,"note":76,"tick":2016,"time":10.5,"type":"noteOn","velocity":68},{"channel":0,"nextOffset":1071,"note":72,"tick":2040,"time":10.625,"type":"noteOn","velocity":68},{"channel":0,"nextOffset":1075,"note":76,"tick":2040,"time":10.625,"type":"noteOff","velocity":0},{"channel":0,"nextOffset":1079,"note":38,"tick":2064,"time":10.75,"type":"noteOff","velocity":0},{"channel":0,"nextOffset":1083,"note":45,"tick":2064,"time":10.75,"type":"noteOn","velocity":68},{"channel":0,"nextOffset":1087,"note":69,"tick":2064,"time":10.75,"type":"noteOn","velocity":68},{"channel":0,"nextOffset":1091,"note":72,"tick":2064,"time":10.75,"type":"noteOff","velocity":0},{"channel":0,"nextOffset":1095,"note":67,"tick":2088,"time":10.875,"type":"noteOn","velocity":68},{"channel":0,"nextOffset":1099,"note":69,"tick":2088,"time":10.875,"type":"noteOff","velocity":0},{"channel":0,"nextOffset":1103,"note":45,"tick":2112,"time":11,"type":"noteOff","velocity":0},{"channel":0,"nextOffset":1107,"note":50,"tick":2112,"time":11,"type":"noteOn","velocity":68},{"channel":0,"nextOffset":1111,"note":67,"tick":2112,"time":11,"type":"noteOff","velocity":0},{"channel":0,"nextOffset":1115,"note":69,"tick":2112,"time":11,"type":"noteOn","velocity":68},{"channel":0,"nextOffset":1119,"note":62,"tick":2136,"time":11.125,"type":"noteOn","velocity":68},{"channel":0,"nextOffset":1123,"note":69,"tick":2136,"time":11.125,"type":"noteOff","velocity":0},{"channel":0,"nextOffset":1127,"note":38,"tick":2160,"time":11.25,"type":"noteOn","velocity":68},{"channel":0,"nextOffset":1131,"note":50,"tick":2160,"time":11.25,"type":"noteOff","velocity":0},{"channel":0,"nextOffset":1135,"note":60,"tick":2160,"time":11.25,"type":"noteOn","velocity":68},{"channel":0,"nextOffset":1139,"note":62,"tick":2160,"time":11.25,"type":"noteOff","velocity":0},{"channel":0,"nextOffset":1143,"note":60,"tick":2184,"time":11.375,"type":"noteOff","velocity":0},{"channel":0,"nextOffset":1147,"note":65,"tick":2184,"time":11.375,"type":"noteOn","velocity":68},{"channel":0,"nextOffset":1151,"note":38,"tick":2208,"time":11.5,"type":"noteOff","velocity":0},{"channel":0,"nextOffset":1155,"note":45,"tick":2208,"time":11.5,"type":"noteOn","velocity":68},{"channel":0,"nextOffset":1159,"note":60,"tick":2208,"time":11.5,"type":"noteOn","velocity":68},{"channel":0,"nextOffset":1163,"note":64,"tick":2208,"time":11.5,"type":"noteOn","velocity":68},{"channel":0,"nextOffset":1167,"note":65,"tick":2208,"time":11.5,"type":"noteOff","velocity":0},{"channel":0,"nextOffset":1171,"note":69,"tick":2208,"time":11.5,"type":"noteOn","velocity":68},{"channel":0,"nextOffset":1175,"note":44,"tick":2256,"time":11.75,"type":"noteOn","velocity":68},{"channel":0,"nextOffset":1179,"note":45,"tick":2256,"time":11.75,"type":"noteOff","velocity":0},{"channel":0,"nextOffset":1183,"note":59,"tick":2256,"time":11.75,"type":"noteOn","velocity":68},{"channel":0,"nextOffset":1187,"note":60,"tick":2256,"time":11.75,"type":"noteOff","velocity":0},{"channel":0,"nextOffset":1191,"note":63,"tick":2256,"time":11.75,"type":"noteOn","velocity":68},{"channel":0,"nextOffset":1195,"note":64,"tick":2256,"time":11.75,"type":"noteOff","velocity":0},{"channel":0,"nextOffset":1199,"note":68,"tick":2256,"time":11.75,"type":"noteOn","velocity":68},{"channel":0,"nextOffset":1203,"note":69,"tick":2256,"time":11.75,"type":"noteOff","velocity":0},{"channel":0,"nextOffset":1207,"note":43,"tick":2304,"time":12,"type":"noteOn","velocity":68},{"channel":0,"nextOffset":1211,"note":44,"tick":2304,"time":12,"type":"noteOff","velocity":0},{"channel":0,"nextOffset":1215,"note":58,"tick":2304,"time":12,"type":"noteOn","velocity":68},{"channel":0,"nextOffset":1219,"note":59,"tick":2304,"time":12,"type":"noteOff","velocity":0},{"channel":0,"nextOffset":1223,"note":62,"tick":2304,"time":12,"type":"noteOn","velocity":68},{"channel":0,"nextOffset":1227,"note":63,"tick":2304,"time":12,"type":"noteOff","velocity":0},{"channel":0,"nextOffset":1231,"note":65,"tick":2304,"time":12,"type":"noteOn","velocity":68},{"channel":0,"nextOffset":1235,"note":68,"tick":2304,"time":12,"type":"noteOff","velocity":0},{"channel":0,"nextOffset":1239,"note":69,"tick":2304,"time":12,"type":"noteOn","velocity":68},{"channel":0,"nextOffset":1243,"note":43,"tick":2352,"time":12.25,"type":"noteOff","velocity":0},{"channel":0,"nextOffset":1247,"note":43,"tick":2400,"time":12.5,"type":"noteOn","velocity":68},{"channel":0,"nextOffset":1251,"note":58,"tick":2400,"time":12.5,"type":"noteOff","velocity":0},{"channel":0,"nextOffset":1255,"note":62,"tick":2400,"time":12.5,"type":"noteOff","velocity":0},{"channel":0,"nextOffset":1259,"note":65,"tick":2400,"time":12.5,"type":"noteOff","velocity":0},{"channel":0,"nextOffset":1263,"note":69,"tick":2400,"time":12.5,"type":"noteOff","velocity":0},{"channel":0,"nextOffset":1267,"note":43,"tick":2448,"time":12.75,"type":"noteOff","velocity":0},{"channel":0,"nextOffset":1271,"note":44,"tick":2448,"time":12.75,"type":"noteOn","velocity":68},{"channel":0,"nextOffset":1275,"note":65,"tick":2448,"time":12.75,"type":"noteOn","velocity":68},{"channel":0,"nextOffset":1279,"note":65,"tick":2472,"time":12.875,"type":"noteOff","velocity":0},{"channel":0,"nextOffset":1283,"note":69,"tick":2472,"time":12.875,"type":"noteOn","velocity":68},{"channel":0,"nextOffset":1287,"note":44,"tick":2496,"time":13,"type":"noteOff","velocity":0},{"channel":0,"nextOffset":1291,"note":45,"tick":2496,"time":13,"type":"noteOn","velocity":68},{"channel":0,"nextOffset":1295,"note":60,"tick":2496,"time":13,"type":"noteOn","velocity":68},{"channel":0,"nextOffset":1299,"note":64,"tick":2496,"time":13,"type":"noteOn","velocity":68},{"channel":0,"nextOffset":1303,"note":67,"tick":2496,"time":13,"type":"noteOn","velocity":68},{"channel":0,"nextOffset":1307,"note":69,"tick":2496,"time":13,"type":"noteOff","velocity":0},{"channel":0,"nextOffset":1311,"note":72,"tick":2496,"time":13,"type":"noteOn","velocity":68},{"channel":0,"nextOffset":1315,"note":45,"tick":2544,"time":13.25,"type":"noteOff","velocity":0},{"channel":0,"nextOffset":1319,"note":60,"tick":2544,"time":13.25,"type":"noteOff","velocity":0},{"channel":0,"nextOffset":1323,"note":64,"tick":2544,"time":13.25,"type":"noteOff","velocity":0},{"channel":0,"nextOffset":1327,"note":67,"tick":2544,"time":13.25,"type":"noteOff","velocity":0},{"channel":0,"nextOffset":1331,"note":72,"tick":2544,"time":13.25,"type":"noteOff","velocity":0},{"channel":0,"nextOffset":1335,"note":45,"tick":2568,"time":13.375,"type":"noteOn","velocity":68},{"channel":0,"nextOffset":1339,"note":61,"tick":2568,"time":13.375,"type":"noteOn","velocity":68},{"channel":0,"nextOffset":1343,"note":65,"tick":2568,"time":13.375,"type":"noteOn","velocity":68},{"channel":0,"nextOffset":1347,"note":67,"tick":2568,"time":13.375,"type":"noteOn","velocity":68},{"channel":0,"nextOffset":1351,"note":70,"tick":2568,"time":13.375,"type":"noteOn","velocity":68},{"channel":0,"nextOffset":1355,"note":45,"tick":2592,"time":13.5,"type":"noteOff","velocity":0},{"channel":0,"nextOffset":1359,"note":61,"tick":2616,"time":13.625,"type":"noteOff","velocity":0},{"channel":0,"nextOffset":1363,"note":65,"tick":2616,"time":13.625,"type":"noteOff","velocity":0},{"channel":0,"nextOffset":1367,"note":67,"tick":2616,"time":13.625,"type":"noteOff","velocity":0},{"channel":0,"nextOffset":1371,"note":70,"tick":2616,"time":13.625,"type":"noteOff","velocity":0},{"channel":0,"nextOffset":1375,"note":38,"tick":2640,"time":13.75,"type":"noteOn","velocity":68},{"channel":0,"nextOffset":1379,"note":60,"tick":2640,"time":13.75,"type":"noteOn","velocity":68},{"channel":0,"nextOffset":1383,"note":64,"tick":2640,"time":13.75,"type":"noteOn","velocity":68},{"channel":0,"nextOffset":1387,"note":65,"tick":2640,"time":13.75,"type":"noteOn","velocity":68},{"channel":0,"nextOffset":1391,"note":69,"tick":2640,"time":13.75,"type":"noteOn","velocity":68},{"channel":0,"nextOffset":1395,"note":38,"tick":2688,"time":14,"type":"noteOff","velocity":0},{"channel":0,"nextOffset":1399,"note":50,"tick":2688,"time":14,"type":"noteOn","velocity":68},{"channel":0,"nextOffset":1403,"note":60,"tick":2688,"time":14,"type":"noteOff","velocity":0},{"channel":0,"nextOffset":1407,"note":64,"tick":2688,"time":14,"type":"noteOff","velocity":0},{"channel":0,"nextOffset":1411,"note":65,"tick":2688,"time":14,"type":"noteOff","velocity":0},{"channel":0,"nextOffset":1415,"note":69,"tick":2688,"time":14,"type":"noteOff","velocity":0},{"channel":0,"nextOffset":1419,"note":76,"tick":2688,"time":14,"type":"noteOn","velocity":68},{"channel":0,"nextOffset":1423,"note":76,"tick":2712,"time":14.125,"type":"noteOff","velocity":0},{"channel":0,"nextOffset":1427,"note":77,"tick":2712,"time":14.125,"type":"noteOn","velocity":68},{"channel":0,"nextOffset":1431,"note":38,"tick":2736,"time":14.25,"type":"noteOn","velocity":68},{"channel":0,"nextOffset":1435,"note":50,"tick":2736,"time":14.25,"type":"noteOff","velocity":0},{"channel":0,"nextOffset":1439,"note":77,"tick":2736,"time":14.25,"type":"noteOff","velocity":0},{"channel":0,"nextOffset":1443,"note":79,"tick":2736,"time":14.25,"type":"noteOn","velocity":68},{"channel":0,"nextOffset":1447,"note":77,"tick":2760,"time":14.375,"type":"noteOn","velocity":68},{"channel":0,"nextOffset":1451,"note":79,"tick":2760,"time":14.375,"type":"noteOff","velocity":0},{"channel":0,"nextOffset":1455,"note":38,"tick":2784,"time":14.5,"type":"noteOff","velocity":0},{"channel":0,"nextOffset":1459,"note":45,"tick":2784,"time":14.5,"type":"noteOn","velocity":68},{"channel":0,"nextOffset":1463,"note":76,"tick":2784,"time":14.5,"type":"noteOn","velocity":68},{"channel":0,"nextOffset":1467,"note":77,"tick":2784,"time":14.5,"type":"noteOff","velocity":0},{"channel":0,"nextOffset":1471,"note":72,"tick":2808,"time":14.625,"type":"noteOn","velocity":68},{"channel":0,"nextOffset":1475,"note":76,"tick":2808,"time":14.625,"type":"noteOff","velocity":0},{"channel":0,"nextOffset":1479,"note":38,"tick":2832,"time":14.75,"type":"noteOn","velocity":68},{"channel":0,"nextOffset":1483,"note":45,"tick":2832,"time":14.75,"type":"noteOff","velocity":0},{"channel":0,"nextOffset":1487,"note":69,"tick":2832,"time":14.75,"type":"noteOn","velocity":68},{"channel":0,"nextOffset":1491,"note":72,"tick":2832,"time":14.75,"type":"noteOff","velocity":0},{"channel":0,"nextOffset":1495,"note":67,"tick":2856,"time":14.875,"type":"noteOn","velocity":68},{"channel":0,"nextOffset":1499,"note":69,"tick":2856,"time":14.875,"type":"noteOff","velocity":0},{"channel":0,"nextOffset":1503,"note":38,"tick":2880,"time":15,"type":"noteOff","velocity":0},{"channel":0,"nextOffset":1507,"note":50,"tick":2880,"time":15,"type":"noteOn","velocity":68},{"channel":0,"nextOffset":1511,"note":67,"tick":2880,"time":15,"type":"noteOff","velocity":0},{"channel":0,"nextOffset":1515,"note":69,"tick":2880,"time":15,"type":"noteOn","velocity":68},{"channel":0,"nextOffset":1519,"note":62,"tick":2904,"time":15.125,"type":"noteOn","velocity":68},{"channel":0,"nextOffset":1523,"note":69,"tick":2904,"time":15.125,"type":"noteOff","velocity":0},{"channel":0,"nextOffset":1527,"note":38,"tick":2928,"time":15.25,"type":"noteOn","velocity":68},{"channel":0,"nextOffset":1531,"note":50,"tick":2928,"time":15.25,"type":"noteOff","velocity":0},{"channel":0,"nextOffset":1535,"note":60,"tick":2928,"time":15.25,"type":"noteOn","velocity":68},{"channel":0,"nextOffset":1539,"note":62,"tick":2928,"time":15.25,"type":"noteOff","velocity":0},{"channel":0,"nextOffset":1543,"note":60,"tick":2952,"time":15.375,"type":"noteOff","velocity":0},{"channel":0,"nextOffset":1547,"note":65,"tick":2952,"time":15.375,"type":"noteOn","velocity":68},{"channel":0,"nextOffset":1551,"note":38,"tick":2976,"time":15.5,"type":"noteOff","velocity":0},{"channel":0,"nextOffset":1555,"note":45,"tick":2976,"time":15.5,"type":"noteOn","velocity":68},{"channel":0,"nextOffset":1559,"note":60,"tick":2976,"time":15.5,"type":"noteOn","velocity":68},{"channel":0,"nextOffset":1563,"note":64,"tick":2976,"time":15.5,"type":"noteOn","velocity":68},{"channel":0,"nextOffset":1567,"note":65,"tick":2976,"time":15.5,"type":"noteOff","velocity":0},{"channel":0,"nextOffset":1571,"note":69,"tick":2976,"time":15.5,"type":"noteOn","velocity":68},{"channel":0,"nextOffset":1575,"note":44,"tick":3024,"time":15.75,"type":"noteOn","velocity":68},{"channel":0,"nextOffset":1579,"note":45,"tick":3024,"time":15.75,"type":"noteOff","velocity":0},{"channel":0,"nextOffset":1583,"note":59,"tick":3024,"time":15.75,"type":"noteOn","velocity":68},{"channel":0,"nextOffset":1587,"note":60,"tick":3024,"time":15.75,"type":"noteOff","velocity":0},{"channel":0,"nextOffset":1591,"note":63,"tick":3024,"time":15.75,"type":"noteOn","velocity":68},{"channel":0,"nextOffset":1595,"note":64,"tick":3024,"time":15.75,"type":"noteOff","velocity":0},{"channel":0,"nextOffset":1599,"note":68,"tick":3024,"time":15.75,"type":"noteOn","velocity":68},{"channel":0,"nextOffset":1603,"note":69,"tick":3024,"time":15.75,"type":"noteOff","velocity":0},{"channel":0,"nextOffset":1607,"note":43,"tick":3072,"time":16,"type":"noteOn","velocity":68},{"channel":0,"nextOffset":1611,"note":44,"tick":3072,"time":16,"type":"noteOff","velocity":0},{"channel":0,"nextOffset":1615,"note":58,"tick":3072,"time":16,"type":"noteOn","velocity":68},{"channel":0,"nextOffset":1619,"note":59,"tick":3072,"time":16,"type":"noteOff","velocity":0},{"channel":0,"nextOffset":1623,"note":62,"tick":3072,"time":16,"type":"noteOn","velocity":68},{"channel":0,"nextOffset":1627,"note":63,"tick":3072,"time":16,"type":"noteOff","velocity":0},{"channel":0,"nextOffset":1631,"note":65,"tick":3072,"time":16,"type":"noteOn","velocity":68},{"channel":0,"nextOffset":1635,"note":68,"tick":3072,"time":16,"type":"noteOff","velocity":0},{"channel":0,"nextOffset":1639,"note":69,"tick":3072,"time":16,"type":"noteOn","velocity":68},{"channel":0,"nextOffset":1643,"note":43,"tick":3120,"time":16.25,"type":"noteOff","velocity":0},{"channel":0,"nextOffset":1647,"note":50,"tick":3120,"time":16.25,"type":"noteOn","velocity":68},{"channel":0,"nextOffset":1651,"note":43,"tick":3168,"time":16.5,"type":"noteOn","velocity":68},{"channel":0,"nextOffset":1655,"note":50,"tick":3168,"time":16.5,"type":"noteOff","velocity":0},{"channel":0,"nextOffset":1659,"note":58,"tick":3168,"time":16.5,"type":"noteOff","velocity":0},{"channel":0,"nextOffset":1663,"note":62,"tick":3168,"time":16.5,"type":"noteOff","velocity":0},{"channel":0,"nextOffset":1667,"note":65,"tick":3168,"time":16.5,"type":"noteOff","velocity":0},{"channel":0,"nextOffset":1671,"note":69,"tick":3168,"time":16.5,"type":"noteOff","velocity":0},{"channel":0,"nextOffset":1675,"note":43,"tick":3216,"time":16.75,"type":"noteOff","velocity":0},{"channel":0,"nextOffset":1679,"note":44,"tick":3216,"time":16.75,"type":"noteOn","velocity":68},{"channel":0,"nextOffset":1683,"note":65,"tick":3216,"time":16.75,"type":"noteOn","velocity":68},{"channel":0,"nextOffset":1687,"note":65,"tick":3240,"time":16.875,"type":"noteOff","velocity":0},{"channel":0,"nextOffset":1691,"note":69,"tick":3240,"time":16.875,"type":"noteOn","velocity":68},{"channel":0,"nextOffset":1695,"note":44,"tick":3264,"time":17,"type":"noteOff","velocity":0},{"channel":0,"nextOffset":1699,"note":45,"tick":3264,"time":17,"type":"noteOn","velocity":68},{"channel":0,"nextOffset":1703,"note":60,"tick":3264,"time":17,"type":"noteOn","velocity":68},{"channel":0,"nextOffset":1707,"note":64,"tick":3264,"time":17,"type":"noteOn","velocity":68},{"channel":0,"nextOffset":1711,"note":67,"tick":3264,"time":17,"type":"noteOn","velocity":68},{"channel":0,"nextOffset":1715,"note":69,"tick":3264,"time":17,"type":"noteOff","velocity":0},{"channel":0,"nextOffset":1719,"note":72,"tick":3264,"time":17,"type":"noteOn","velocity":68},{"channel":0,"nextOffset":1723,"note":45,"tick":3312,"time":17.25,"type":"noteOff","velocity":0},{"channel":0,"nextOffset":1727,"note":60,"tick":3312,"time":17.25,"type":"noteOff","velocity":0},{"channel":0,"nextOffset":1731,"note":64,"tick":3312,"time":17.25,"type":"noteOff","velocity":0},{"channel":0,"nextOffset":1735,"note":67,"tick":3312,"time":17.25,"type":"noteOff","velocity":0},{"channel":0,"nextOffset":1739,"note":72,"tick":3312,"time":17.25,"type":"noteOff","velocity":0},{"channel":0,"nextOffset":1743,"note":45,"tick":3336,"time":17.375,"type":"noteOn","velocity":68},{"channel":0,"nextOffset":1747,"note":61,"tick":3336,"time":17.375,"type":"noteOn","velocity":68},{"channel":0,"nextOffset":1751,"note":65,"tick":3336,"time":17.375,"type":"noteOn","velocity":68},{"channel":0,"nextOffset":1755,"note":67,"tick":3336,"time":17.375,"type":"noteOn","velocity":68},{"channel":0,"nextOffset":1759,"note":70,"tick":3336,"time":17.375,"type":"noteOn","velocity":68},{"channel":0,"nextOffset":1763,"note":45,"tick":3360,"time":17.5,"type":"noteOff","velocity":0},{"channel":0,"nextOffset":1767,"note":61,"tick":3384,"time":17.625,"type":"noteOff","velocity":0},{"channel":0,"nextOffset":1771,"note":65,"tick":3384,"time":17.625,"type":"noteOff","velocity":0},{"channel":0,"nextOffset":1775,"note":67,"tick":3384,"time":17.625,"type":"noteOff","velocity":0},{"channel":0,"nextOffset":1779,"note":70,"tick":3384,"time":17.625,"type":"noteOff","velocity":0},{"channel":0,"nextOffset":1783,"note":38,"tick":3408,"time":17.75,"type":"noteOn","velocity":68},{"channel":0,"nextOffset":1787,"note":60,"tick":3408,"time":17.75,"type":"noteOn","velocity":68},{"channel":0,"nextOffset":1791,"note":64,"tick":3408,"time":17.75,"type":"noteOn","velocity":68},{"channel":0,"nextOffset":1795,"note":65,"tick":3408,"time":17.75,"type":"noteOn","velocity":68},{"channel":0,"nextOffset":1799,"note":69,"tick":3408,"time":17.75,"type":"noteOn","velocity":68},{"channel":0,"nextOffset":1803,"note":38,"tick":3456,"time":18,"type":"noteOff","velocity":0},{"channel":0,"nextOffset":1807,"note":60,"tick":3456,"time":18,"type":"noteOff","velocity":0},{"channel":0,"nextOffset":1811,"note":64,"tick":3456,"time":18,"type":"noteOff","velocity":0},{"channel":0,"nextOffset":1815,"note":65,"tick":3456,"time":18,"type":"noteOff","velocity":0},{"channel":0,"nextOffset":1819,"note":69,"tick":3456,"time":18,"type":"noteOff","velocity":0},{"channel":0,"nextOffset":1823,"note":76,"tick":3456,"time":18,"type":"noteOn","velocity":68},{"channel":0,"nextOffset":1827,"note":76,"tick":3480,"time":18.125,"type":"noteOff","velocity":0},{"channel":0,"nextOffset":1831,"note":77,"tick":3480,"time":18.125,"type":"noteOn","velocity":68},{"channel":0,"nextOffset":1835,"note":50,"tick":3504,"time":18.25,"type":"noteOn","velocity":68},{"channel":0,"nextOffset":1839,"note":76,"tick":3504,"time":18.25,"type":"noteOn","velocity":68},{"channel":0,"nextOffset":1843,"note":77,"tick":3504,"time":18.25,"type":"noteOff","velocity":0},{"channel":0,"nextOffset":1847,"note":72,"tick":3528,"time":18.375,"type":"noteOn","velocity":68},{"channel":0,"nextOffset":1851,"note":76,"tick":3528,"time":18.375,"type":"noteOff","velocity":0},{"channel":0,"nextOffset":1855,"note":38,"tick":3552,"time":18.5,"type":"noteOn","velocity":68},{"channel":0,"nextOffset":1859,"note":50,"tick":3552,"time":18.5,"type":"noteOff","velocity":0},{"channel":0,"nextOffset":1863,"note":72,"tick":3552,"time":18.5,"type":"noteOff","velocity":0},{"channel":0,"nextOffset":1867,"note":76,"tick":3552,"time":18.5,"type":"noteOn","velocity":68},{"channel":0,"nextOffset":1871,"note":72,"tick":3576,"time":18.625,"type":"noteOn","velocity":68},{"channel":0,"nextOffset":1875,"note":76,"tick":3576,"time":18.625,"type":"noteOff","velocity":0},{"channel":0,"nextOffset":1879,"note":38,"tick":3600,"time":18.75,"type":"noteOff","velocity":0},{"channel":0,"nextOffset":1883,"note":45,"tick":3600,"time":18.75,"type":"noteOn","velocity":68},{"channel":0,"nextOffset":1887,"note":69,"tick":3600,"time":18.75,"type":"noteOn","velocity":68},{"channel":0,"nextOffset":1891,"note":72,"tick":3600,"time":18.75,"type":"noteOff","velocity":0},{"channel":0,"nextOffset":1895,"note":67,"tick":3624,"time":18.875,"type":"noteOn","velocity":68},{"channel":0,"nextOffset":1899,"note":69,"tick":3624,"time":18.875,"type":"noteOff","velocity":0},{"channel":0,"nextOffset":1903,"note":45,"tick":3648,"time":19,"type":"noteOff","velocity":0},{"channel":0,"nextOffset":1907,"note":50,"tick":3648,"time":19,"type":"noteOn","velocity":68},{"channel":0,"nextOffset":1911,"note":67,"tick":3648,"time":19,"type":"noteOff","velocity":0},{"channel":0,"nextOffset":1915,"note":69,"tick":3648,"time":19,"type":"noteOn","velocity":68},{"channel":0,"nextOffset":1919,"note":62,"tick":3672,"time":19.125,"type":"noteOn","velocity":68},{"channel":0,"nextOffset":1923,"note":69,"tick":3672,"time":19.125,"type":"noteOff","velocity":0},{"channel":0,"nextOffset":1927,"note":38,"tick":3696,"time":19.25,"type":"noteOn","velocity":68},{"channel":0,"nextOffset":1931,"note":50,"tick":3696,"time":19.25,"type":"noteOff","velocity":0},{"channel":0,"nextOffset":1935,"note":60,"tick":3696,"time":19.25,"type":"noteOn","velocity":68},{"channel":0,"nextOffset":1939,"note":62,"tick":3696,"time":19.25,"type":"noteOff","velocity":0},{"channel":0,"nextOffset":1943,"note":60,"tick":3720,"time":19.375,"type":"noteOff","velocity":0},{"channel":0,"nextOffset":1947,"note":65,"tick":3720,"time":19.375,"type":"noteOn","velocity":68},{"channel":0,"nextOffset":1951,"note":38,"tick":3744,"time":19.5,"type":"noteOff","velocity":0},{"channel":0,"nextOffset":1955,"note":45,"tick":3744,"time":19.5,"type":"noteOn","velocity":68},{"channel":0,"nextOffset":1959,"note":60,"tick":3744,"time":19.5,"type":"noteOn","velocity":68},{"channel":0,"nextOffset":1963,"note":64,"tick":3744,"time":19.5,"type":"noteOn","velocity":68},{"channel":0,"nextOffset":1967,"note":65,"tick":3744,"time":19.5,"type":"noteOff","velocity":0},{"channel":0,"nextOffset":1971,"note":69,"tick":3744,"time":19.5,"type":"noteOn","velocity":68},{"channel":0,"nextOffset":1975,"note":44,"tick":3792,"time":19.75,"type":"noteOn","velocity":68},{"channel":0,"nextOffset":1979,"note":45,"tick":3792,"time":19.75,"type":"noteOff","velocity":0},{"channel":0,"nextOffset":1983,"note":59,"tick":3792,"time":19.75,"type":"noteOn","velocity":68},{"channel":0,"nextOffset":1987,"note":60,"tick":3792,"time":19.75,"type":"noteOff","velocity":0},{"channel":0,"nextOffset":1991,"note":63,"tick":3792,"time":19.75,"type":"noteOn","velocity":68},{"channel":0,"nextOffset":1995,"note":64,"tick":3792,"time":19.75,"type":"noteOff","velocity":0},{"channel":0,"nextOffset":1999,"note":68,"tick":3792,"time":19.75,"type":"noteOn","velocity":68},{"channel":0,"nextOffset":2003,"note":69,"tick":3792,"time":19.75,"type":"noteOff","velocity":0},{"channel":0,"nextOffset":2007,"note":43,"tick":3840,"time":20,"type":"noteOn","velocity":68},{"channel":0,"nextOffset":2011,"note":44,"tick":3840,"time":20,"type":"noteOff","velocity":0},{"channel":0,"nextOffset":2015,"note":58,"tick":3840,"time":20,"type":"noteOn","velocity":68},{"channel":0,"nextOffset":2019,"note":59,"tick":3840,"time":20,"type":"noteOff","velocity":0},{"channel":0,"nextOffset":2023,"note":62,"tick":3840,"time":20,"type":"noteOn","velocity":68},{"channel":0,"nextOffset":2027,"note":63,"tick":3840,"time":20,"type":"noteOff","velocity":0},{"channel":0,"nextOffset":2031,"note":65,"tick":3840,"time":20,"type":"noteOn","velocity":68},{"channel":0,"nextOffset":2035,"note":68,"tick":3840,"time":20,"type":"noteOff","velocity":0},{"channel":0,"nextOffset":2039,"note":69,"tick":3840,"time":20,"type":"noteOn","velocity":68},{"channel":0,"nextOffset":2043,"note":43,"tick":3888,"time":20.25,"type":"noteOff","velocity":0},{"channel":0,"nextOffset":2047,"note":43,"tick":3936,"time":20.5,"type":"noteOn","velocity":68},{"channel":0,"nextOffset":2051,"note":58,"tick":3936,"time":20.5,"type":"noteOff","velocity":0},{"channel":0,"nextOffset":2055,"note":62,"tick":3936,"time":20.5,"type":"noteOff","velocity":0},{"channel":0,"nextOffset":2059,"note":65,"tick":3936,"time":20.5,"type":"noteOff","velocity":0},{"channel":0,"nextOffset":2063,"note":69,"tick":3936,"time":20.5,"type":"noteOff","velocity":0},{"channel":0,"nextOffset":2067,"note":43,"tick":3984,"time":20.75,"type":"noteOff","velocity":0},{"channel":0,"nextOffset":2071,"note":44,"tick":3984,"time":20.75,"type":"noteOn","velocity":68},{"channel":0,"nextOffset":2075,"note":65,"tick":3984,"time":20.75,"type":"noteOn","velocity":68},{"channel":0,"nextOffset":2079,"note":65,"tick":4008,"time":20.875,"type":"noteOff","velocity":0},{"channel":0,"nextOffset":2083,"note":69,"tick":4008,"time":20.875,"type":"noteOn","velocity":68},{"channel":0,"nextOffset":2087,"note":44,"tick":4032,"time":21,"type":"noteOff","velocity":0},{"channel":0,"nextOffset":2091,"note":45,"tick":4032,"time":21,"type":"noteOn","velocity":68},{"channel":0,"nextOffset":2095,"note":60,"tick":4032,"time":21,"type":"noteOn","velocity":68},{"channel":0,"nextOffset":2099,"note":64,"tick":4032,"time":21,"type":"noteOn","velocity":68},{"channel":0,"nextOffset":2103,"note":67,"tick":4032,"time":21,"type":"noteOn","velocity":68},{"channel":0,"nextOffset":2107,"note":69,"tick":4032,"time":21,"type":"noteOff","velocity":0},{"channel":0,"nextOffset":2111,"note":72,"tick":4032,"time":21,"type":"noteOn","velocity":68},{"channel":0,"nextOffset":2115,"note":45,"tick":4080,"time":21.25,"type":"noteOff","velocity":0},{"channel":0,"nextOffset":2119,"note":60,"tick":4080,"time":21.25,"type":"noteOff","velocity":0},{"channel":0,"nextOffset":2123,"note":64,"tick":4080,"time":21.25,"type":"noteOff","velocity":0},{"channel":0,"nextOffset":2127,"note":67,"tick":4080,"time":21.25,"type":"noteOff","velocity":0},{"channel":0,"nextOffset":2131,"note":72,"tick":4080,"time":21.25,"type":"noteOff","velocity":0},{"channel":0,"nextOffset":2135,"note":45,"tick":4104,"time":21.375,"type":"noteOn","velocity":68},{"channel":0,"nextOffset":2139,"note":61,"tick":4104,"time":21.375,"type":"noteOn","velocity":68},{"channel":0,"nextOffset":2143,"note":65,"tick":4104,"time":21.375,"type":"noteOn","velocity":68},{"channel":0,"nextOffset":2147,"note":67,"tick":4104,"time":21.375,"type":"noteOn","velocity":68},{"channel":0,"nextOffset":2151,"note":70,"tick":4104,"time":21.375,"type":"noteOn","velocity":68},{"channel":0,"nextOffset":2155,"note":45,"tick":4128,"time":21.5,"type":"noteOff","velocity":0},{"channel":0,"nextOffset":2159,"note":61,"tick":4152,"time":21.625,"type":"noteOff","velocity":0},{"channel":0,"nextOffset":2163,"note":65,"tick":4152,"time":21.625,"type":"noteOff","velocity":0},{"channel":0,"nextOffset":2167,"note":67,"tick":4152,"time":21.625,"type":"noteOff","velocity":0},{"channel":0,"nextOffset":2171,"note":70,"tick":4152,"time":21.625,"type":"noteOff","velocity":0},{"channel":0,"nextOffset":2175,"note":38,"tick":4176,"time":21.75,"type":"noteOn","velocity":68},{"channel":0,"nextOffset":2179,"note":60,"tick":4176,"time":21.75,"type":"noteOn","velocity":68},{"channel":0,"nextOffset":2183,"note":64,"tick":4176,"time":21.75,"type":"noteOn","velocity":68},{"channel":0,"nextOffset":2187,"note":65,"tick":4176,"time":21.75,"type":"noteOn","velocity":68},{"channel":0,"nextOffset":2191,"note":69,"tick":4176,"time":21.75,"type":"noteOn","velocity":68},{"channel":0,"nextOffset":2195,"note":38,"tick":4224,"time":22,"type":"noteOff","velocity":0},{"channel":0,"nextOffset":2199,"note":50,"tick":4224,"time":22,"type":"noteOn","velocity":68},{"channel":0,"nextOffset":2203,"note":60,"tick":4224,"time":22,"type":"noteOff","velocity":0},{"channel":0,"nextOffset":2207,"note":64,"tick":4224,"time":22,"type":"noteOff","velocity":0},{"channel":0,"nextOffset":2211,"note":65,"tick":4224,"time":22,"type":"noteOff","velocity":0},{"channel":0,"nextOffset":2215,"note":69,"tick":4224,"time":22,"type":"noteOff","velocity":0},{"channel":0,"nextOffset":2219,"note":76,"tick":4224,"time":22,"type":"noteOn","velocity":68},{"channel":0,"nextOffset":2223,"note":76,"tick":4248,"time":22.125,"type":"noteOff","velocity":0},{"channel":0,"nextOffset":2227,"note":77,"tick":4248,"time":22.125,"type":"noteOn","velocity":68},{"channel":0,"nextOffset":2231,"note":38,"tick":4272,"time":22.25,"type":"noteOn","velocity":68},{"channel":0,"nextOffset":2235,"note":50,"tick":4272,"time":22.25,"type":"noteOff","velocity":0},{"channel":0,"nextOffset":2239,"note":77,"tick":4272,"time":22.25,"type":"noteOff","velocity":0},{"channel":0,"nextOffset":2243,"note":79,"tick":4272,"time":22.25,"type":"noteOn","velocity":68},{"channel":0,"nextOffset":2247,"note":77,"tick":4296,"time":22.375,"type":"noteOn","velocity":68},{"channel":0,"nextOffset":2251,"note":79,"tick":4296,"time":22.375,"type":"noteOff","velocity":0},{"channel":0,"nextOffset":2255,"note":38,"tick":4320,"time":22.5,"type":"noteOff","velocity":0},{"channel":0,"nextOffset":2259,"note":45,"tick":4320,"time":22.5,"type":"noteOn","velocity":68},{"channel":0,"nextOffset":2263,"note":76,"tick":4320,"time":22.5,"type":"noteOn","velocity":68},{"channel":0,"nextOffset":2267,"note":77,"tick":4320,"time":22.5,"type":"noteOff","velocity":0},{"channel":0,"nextOffset":2271,"note":72,"tick":4344,"time":22.625,"type":"noteOn","velocity":68},{"channel":0,"nextOffset":2275,"note":76,"tick":4344,"time":22.625,"type":"noteOff","velocity":0},{"channel":0,"nextOffset":2279,"note":38,"tick":4368,"time":22.75,"type":"noteOn","velocity":68},{"channel":0,"nextOffset":2283,"note":45,"tick":4368,"time":22.75,"type":"noteOff","velocity":0},{"channel":0,"nextOffset":2287,"note":69,"tick":4368,"time":22.75,"type":"noteOn","velocity":68},{"channel":0,"nextOffset":2291,"note":72,"tick":4368,"time":22.75,"type":"noteOff","velocity":0},{"channel":0,"nextOffset":2295,"note":67,"tick":4392,"time":22.875,"type":"noteOn","velocity":68},{"channel":0,"nextOffset":2299,"note":69,"tick":4392,"time":22.875,"type":"noteOff","velocity":0},{"channel":0,"nextOffset":2303,"note":38,"tick":4416,"time":23,"type":"noteOff","velocity":0},{"channel":0,"nextOffset":2307,"note":50,"tick":4416,"time":23,"type":"noteOn","velocity":68},{"channel":0,"nextOffset":2311,"note":67,"tick":4416,"time":23,"type":"noteOff","velocity":0},{"channel":0,"nextOffset":2315,"note":69,"tick":4416,"time":23,"type":"noteOn","velocity":68},{"channel":0,"nextOffset":2319,"note":62,"tick":4440,"time":23.125,"type":"noteOn","velocity":68},{"channel":0,"nextOffset":2323,"note":69,"tick":4440,"time":23.125,"type":"noteOff","velocity":0},{"channel":0,"nextOffset":2327,"note":38,"tick":4464,"time":23.25,"type":"noteOn","velocity":68},{"channel":0,"nextOffset":2331,"note":50,"tick":4464,"time":23.25,"type":"noteOff","velocity":0},{"channel":0,"nextOffset":2335,"note":60,"tick":4464,"time":23.25,"type":"noteOn","velocity":68},{"channel":0,"nextOffset":2339,"note":62,"tick":4464,"time":23.25,"type":"noteOff","velocity":0},{"channel":0,"nextOffset":2343,"note":60,"tick":4488,"time":23.375,"type":"noteOff","velocity":0},{"channel":0,"nextOffset":2347,"note":65,"tick":4488,"time":23.375,"type":"noteOn","velocity":68},{"channel":0,"nextOffset":2351,"note":38,"tick":4512,"time":23.5,"type":"noteOff","velocity":0},{"channel":0,"nextOffset":2355,"note":45,"tick":4512,"time":23.5,"type":"noteOn","velocity":68},{"channel":0,"nextOffset":2359,"note":60,"tick":4512,"time":23.5,"type":"noteOn","velocity":68},{"channel":0,"nextOffset":2363,"note":64,"tick":4512,"time":23.5,"type":"noteOn","velocity":68},{"channel":0,"nextOffset":2367,"note":65,"tick":4512,"time":23.5,"type":"noteOff","velocity":0},{"channel":0,"nextOffset":2371,"note":69,"tick":4512,"time":23.5,"type":"noteOn","velocity":68},{"channel":0,"nextOffset":2375,"note":44,"tick":4560,"time":23.75,"type":"noteOn","velocity":68},{"channel":0,"nextOffset":2379,"note":45,"tick":4560,"time":23.75,"type":"noteOff","velocity":0},{"channel":0,"nextOffset":2383,"note":59,"tick":4560,"time":23.75,"type":"noteOn","velocity":68},{"channel":0,"nextOffset":2387,"note":60,"tick":4560,"time":23.75,"type":"noteOff","velocity":0},{"channel":0,"nextOffset":2391,"note":63,"tick":4560,"time":23.75,"type":"noteOn","velocity":68},{"channel":0,"nextOffset":2395,"note":64,"tick":4560,"time":23.75,"type":"noteOff","velocity":0},{"channel":0,"nextOffset":2399,"note":68,"tick":4560,"time":23.75,"type":"noteOn","velocity":68},{"channel":0,"nextOffset":2403,"note":69,"tick":4560,"time":23.75,"type":"noteOff","velocity":0},{"channel":0,"nextOffset":2407,"note":43,"tick":4608,"time":24,"type":"noteOn","velocity":68},{"channel":0,"nextOffset":2411,"note":44,"tick":4608,"time":24,"type":"noteOff","velocity":0},{"channel":0,"nextOffset":2415,"note":58,"tick":4608,"time":24,"type":"noteOn","velocity":68},{"channel":0,"nextOffset":2419,"note":59,"tick":4608,"time":24,"type":"noteOff","velocity":0},{"channel":0,"nextOffset":2423,"note":62,"tick":4608,"time":24,"type":"noteOn","velocity":68},{"channel":0,"nextOffset":2427,"note":63,"tick":4608,"time":24,"type":"noteOff","velocity":0},{"channel":0,"nextOffset":2431,"note":65,"tick":4608,"time":24,"type":"noteOn","velocity":68},{"channel":0,"nextOffset":2435,"note":68,"tick":4608,"time":24,"type":"noteOff","velocity":0},{"channel":0,"nextOffset":2439,"note":69,"tick":4608,"time":24,"type":"noteOn","velocity":68},{"channel":0,"nextOffset":2443,"note":43,"tick":4656,"time":24.25,"type":"noteOff","velocity":0},{"channel":0,"nextOffset":2447,"note":50,"tick":4656,"time":24.25,"type":"noteOn","velocity":68},{"channel":0,"nextOffset":2451,"note":43,"tick":4704,"time":24.5,"type":"noteOn","velocity":68},{"channel":0,"nextOffset":2455,"note":50,"tick":4704,"time":24.5,"type":"noteOff","velocity":0},{"channel":0,"nextOffset":2459,"note":58,"tick":4704,"time":24.5,"type":"noteOff","velocity":0},{"channel":0,"nextOffset":2463,"note":62,"tick":4704,"time":24.5,"type":"noteOff","velocity":0},{"channel":0,"nextOffset":2467,"note":65,"tick":4704,"time":24.5,"type":"noteOff","velocity":0},{"channel":0,"nextOffset":2471,"note":69,"tick":4704,"time":24.5,"type":"noteOff","velocity":0},{"channel":0,"nextOffset":2475,"note":43,"tick":4752,"time":24.75,"type":"noteOff","velocity":0},{"channel":0,"nextOffset":2479,"note":44,"tick":4752,"time":24.75,"type":"noteOn","velocity":68},{"channel":0,"nextOffset":2483,"note":65,"tick":4752,"time":24.75,"type":"noteOn","velocity":68},{"channel":0,"nextOffset":2487,"note":65,"tick":4776,"time":24.875,"type":"noteOff","velocity":0},{"channel":0,"nextOffset":2491,"note":69,"tick":4776,"time":24.875,"type":"noteOn","velocity":68},{"channel":0,"nextOffset":2495,"note":44,"tick":4800,"time":25,"type":"noteOff","velocity":0},{"channel":0,"nextOffset":2499,"note":45,"tick":4800,"time":25,"type":"noteOn","velocity":68},{"channel":0,"nextOffset":2503,"note":60,"tick":4800,"time":25,"type":"noteOn","velocity":68},{"channel":0,"nextOffset":2507,"note":64,"tick":4800,"time":25,"type":"noteOn","velocity":68},{"channel":0,"nextOffset":2511,"note":67,"tick":4800,"time":25,"type":"noteOn","velocity":68},{"channel":0,"nextOffset":2515,"note":69,"tick":4800,"time":25,"type":"noteOff","velocity":0},{"channel":0,"nextOffset":2519,"note":72,"tick":4800,"time":25,"type":"noteOn","velocity":68},{"channel":0,"nextOffset":2523,"note":45,"tick":4848,"time":25.25,"type":"noteOff","velocity":0},{"channel":0,"nextOffset":2527,"note":60,"tick":4848,"time":25.25,"type":"noteOff","velocity":0},{"channel":0,"nextOffset":2531,"note":64,"tick":4848,"time":25.25,"type":"noteOff","velocity":0},{"channel":0,"nextOffset":2535,"note":67,"tick":4848,"time":25.25,"type":"noteOff","velocity":0},{"channel":0,"nextOffset":2539,"note":72,"tick":4848,"time":25.25,"type":"noteOff","velocity":0},{"channel":0,"nextOffset":2543,"note":45,"tick":4872,"time":25.375,"type":"noteOn","velocity":68},{"channel":0,"nextOffset":2547,"note":61,"tick":4872,"time":25.375,"type":"noteOn","velocity":68},{"channel":0,"nextOffset":2551,"note":65,"tick":4872,"time":25.375,"type":"noteOn","velocity":68},{"channel":0,"nextOffset":2555,"note":67,"tick":4872,"time":25.375,"type":"noteOn","velocity":68},{"channel":0,"nextOffset":2559,"note":70,"tick":4872,"time":25.375,"type":"noteOn","velocity":68},{"channel":0,"nextOffset":2563,"note":45,"tick":4896,"time":25.5,"type":"noteOff","velocity":0},{"channel":0,"nextOffset":2567,"note":61,"tick":4920,"time":25.625,"type":"noteOff","velocity":0},{"channel":0,"nextOffset":2571,"note":65,"tick":4920,"time":25.625,"type":"noteOff","velocity":0},{"channel":0,"nextOffset":2575,"note":67,"tick":4920,"time":25.625,"type":"noteOff","velocity":0},{"channel":0,"nextOffset":2579,"note":70,"tick":4920,"time":25.625,"type":"noteOff","velocity":0},{"channel":0,"nextOffset":2583,"note":38,"tick":4944,"time":25.75,"type":"noteOn","velocity":68},{"channel":0,"nextOffset":2587,"note":60,"tick":4944,"time":25.75,"type":"noteOn","velocity":68},{"channel":0,"nextOffset":2591,"note":64,"tick":4944,"time":25.75,"type":"noteOn","velocity":68},{"channel":0,"nextOffset":2595,"note":65,"tick":4944,"time":25.75,"type":"noteOn","velocity":68},{"channel":0,"nextOffset":2599,"note":69,"tick":4944,"time":25.75,"type":"noteOn","velocity":68},{"channel":0,"nextOffset":2603,"note":38,"tick":4992,"time":26,"type":"noteOff","velocity":0},{"channel":0,"nextOffset":2607,"note":60,"tick":4992,"time":26,"type":"noteOff","velocity":0},{"channel":0,"nextOffset":2611,"note":64,"tick":4992,"time":26,"type":"noteOff","velocity":0},{"channel":0,"nextOffset":2615,"note":65,"tick":4992,"time":26,"type":"noteOff","velocity":0},{"channel":0,"nextOffset":2619,"note":69,"tick":4992,"time":26,"type":"noteOff","velocity":0},{"channel":0,"nextOffset":2623,"note":76,"tick":4992,"time":26,"type":"noteOn","velocity":68},{"channel":0,"nextOffset":2627,"note":76,"tick":5016,"time":26.125,"type":"noteOff","velocity":0},{"channel":0,"nextOffset":2631,"note":77,"tick":5016,"time":26.125,"type":"noteOn","velocity":68},{"channel":0,"nextOffset":2635,"note":50,"tick":5040,"time":26.25,"type":"noteOn","velocity":68},{"channel":0,"nextOffset":2639,"note":76,"tick":5040,"time":26.25,"type":"noteOn","velocity":68},{"channel":0,"nextOffset":2643,"note":77,"tick":5040,"time":26.25,"type":"noteOff","velocity":0},{"channel":0,"nextOffset":2647,"note":72,"tick":5064,"time":26.375,"type":"noteOn","velocity":68},{"channel":0,"nextOffset":2651,"note":76,"tick":5064,"time":26.375,"type":"noteOff","velocity":0},{"channel":0,"nextOffset":2655,"note":38,"tick":5088,"time":26.5,"type":"noteOn","velocity":68},{"channel":0,"nextOffset":2659,"note":50,"tick":5088,"time":26.5,"type":"noteOff","velocity":0},{"channel":0,"nextOffset":2663,"note":72,"tick":5088,"time":26.5,"type":"noteOff","velocity":0},{"channel":0,"nextOffset":2667,"note":76,"tick":5088,"time":26.5,"type":"noteOn","velocity":68},{"channel":0,"nextOffset":2671,"note":72,"tick":5112,"time":26.625,"type":"noteOn","velocity":68},{"channel":0,"nextOffset":2675,"note":76,"tick":5112,"time":26.625,"type":"noteOff","velocity":0},{"channel":0,"nextOffset":2679,"note":38,"tick":5136,"time":26.75,"type":"noteOff","velocity":0},{"channel":0,"nextOffset":2683,"note":45,"tick":5136,"time":26.75,"type":"noteOn","velocity":68},{"channel":0,"nextOffset":2687,"note":69,"tick":5136,"time":26.75,"type":"noteOn","velocity":68},{"channel":0,"nextOffset":2691,"note":72,"tick":5136,"time":26.75,"type":"noteOff","velocity":0},{"channel":0,"nextOffset":2695,"note":67,"tick":5160,"time":26.875,"type":"noteOn","velocity":68},{"channel":0,"nextOffset":2699,"note":69,"tick":5160,"time":26.875,"type":"noteOff","velocity":0},{"channel":0,"nextOffset":2703,"note":45,"tick":5184,"time":27,"type":"noteOff","velocity":0},{"channel":0,"nextOffset":2707,"note":50,"tick":5184,"time":27,"type":"noteOn","velocity":68},{"channel":0,"nextOffset":2711,"note":67,"tick":5184,"time":27,"type":"noteOff","velocity":0},{"channel":0,"nextOffset":2715,"note":69,"tick":5184,"time":27,"type":"noteOn","velocity":68},{"channel":0,"nextOffset":2719,"note":62,"tick":5208,"time":27.125,"type":"noteOn","velocity":68},{"channel":0,"nextOffset":2723,"note":69,"tick":5208,"time":27.125,"type":"noteOff","velocity":0},{"channel":0,"nextOffset":2727,"note":38,"tick":5232,"time":27.25,"type":"noteOn","velocity":68},{"channel":0,"nextOffset":2731,"note":50,"tick":5232,"time":27.25,"type":"noteOff","velocity":0},{"channel":0,"nextOffset":2735,"note":60,"tick":5232,"time":27.25,"type":"noteOn","velocity":68},{"channel":0,"nextOffset":2739,"note":62,"tick":5232,"time":27.25,"type":"noteOff","velocity":0},{"channel":0,"nextOffset":2743,"note":60,"tick":5256,"time":27.375,"type":"noteOff","velocity":0},{"channel":0,"nextOffset":2747,"note":65,"tick":5256,"time":27.375,"type":"noteOn","velocity":68},{"channel":0,"nextOffset":2751,"note":38,"tick":5280,"time":27.5,"type":"noteOff","velocity":0},{"channel":0,"nextOffset":2755,"note":45,"tick":5280,"time":27.5,"type":"noteOn","velocity":68},{"channel":0,"nextOffset":2759,"note":60,"tick":5280,"time":27.5,"type":"noteOn","velocity":68},{"channel":0,"nextOffset":2763,"note":64,"tick":5280,"time":27.5,"type":"noteOn","velocity":68},{"channel":0,"nextOffset":2767,"note":65,"tick":5280,"time":27.5,"type":"noteOff","velocity":0},{"channel":0,"nextOffset":2771,"note":69,"tick":5280,"time":27.5,"type":"noteOn","velocity":68},{"channel":0,"nextOffset":2775,"note":44,"tick":5328,"time":27.75,"type":"noteOn","velocity":68},{"channel":0,"nextOffset":2779,"note":45,"tick":5328,"time":27.75,"type":"noteOff","velocity":0},{"channel":0,"nextOffset":2783,"note":59,"tick":5328,"time":27.75,"type":"noteOn","velocity":68},{"channel":0,"nextOffset":2787,"note":60,"tick":5328,"time":27.75,"type":"noteOff","velocity":0},{"channel":0,"nextOffset":2791,"note":63,"tick":5328,"time":27.75,"type":"noteOn","velocity":68},{"channel":0,"nextOffset":2795,"note":64,"tick":5328,"time":27.75,"type":"noteOff","velocity":0},{"channel":0,"nextOffset":2799,"note":68,"tick":5328,"time":27.75,"type":"noteOn","velocity":68},{"channel":0,"nextOffset":2803,"note":69,"tick":5328,"time":27.75,"type":"noteOff","velocity":0},{"channel":0,"nextOffset":2807,"note":43,"tick":5376,"time":28,"type":"noteOn","velocity":68},{"channel":0,"nextOffset":2811,"note":44,"tick":5376,"time":28,"type":"noteOff","velocity":0},{"channel":0,"nextOffset":2815,"note":58,"tick":5376,"time":28,"type":"noteOn","velocity":68},{"channel":0,"nextOffset":2819,"note":59,"tick":5376,"time":28,"type":"noteOff","velocity":0},{"channel":0,"nextOffset":2823,"note":62,"tick":5376,"time":28,"type":"noteOn","velocity":68},{"channel":0,"nextOffset":2827,"note":63,"tick":5376,"time":28,"type":"noteOff","velocity":0},{"channel":0,"nextOffset":2831,"note":65,"tick":5376,"time":28,"type":"noteOn","velocity":68},{"channel":0,"nextOffset":2835,"note":68,"tick":5376,"time":28,"type":"noteOff","velocity":0},{"channel":0,"nextOffset":2839,"note":69,"tick":5376,"time":28,"type":"noteOn","velocity":68},{"channel":0,"nextOffset":2843,"note":43,"tick":5424,"time":28.25,"type":"noteOff","velocity":0},{"channel":0,"nextOffset":2847,"note":43,"tick":5472,"time":28.5,"type":"noteOn","velocity":68},{"channel":0,"nextOffset":2851,"note":58,"tick":5472,"time":28.5,"type":"noteOff","velocity":0},{"channel":0,"nextOffset":2855,"note":62,"tick":5472,"time":28.5,"type":"noteOff","velocity":0},{"channel":0,"nextOffset":2859,"note":65,"tick":5472,"time":28.5,"type":"noteOff","velocity":0},{"channel":0,"nextOffset":2863,"note":69,"tick":5472,"time":28.5,"type":"noteOff","velocity":0},{"channel":0,"nextOffset":2867,"note":43,"tick":5520,"time":28.75,"type":"noteOff","velocity":0},{"channel":0,"nextOffset":2871,"note":44,"tick":5520,"time":28.75,"type":"noteOn","velocity":68},{"channel":0,"nextOffset":2875,"note":65,"tick":5520,"time":28.75,"type":"noteOn","velocity":68},{"channel":0,"nextOffset":2879,"note":65,"tick":5544,"time":28.875,"type":"noteOff","velocity":0},{"channel":0,"nextOffset":2883,"note":69,"tick":5544,"time":28.875,"type":"noteOn","velocity":68},{"channel":0,"nextOffset":2887,"note":44,"tick":5568,"time":29,"type":"noteOff","velocity":0},{"channel":0,"nextOffset":2891,"note":45,"tick":5568,"time":29,"type":"noteOn","velocity":68},{"channel":0,"nextOffset":2895,"note":60,"tick":5568,"time":29,"type":"noteOn","velocity":68},{"channel":0,"nextOffset":2899,"note":64,"tick":5568,"time":29,"type":"noteOn","velocity":68},{"channel":0,"nextOffset":2903,"note":67,"tick":5568,"time":29,"type":"noteOn","velocity":68},{"channel":0,"nextOffset":2907,"note":69,"tick":5568,"time":29,"type":"noteOff","velocity":0},{"channel":0,"nextOffset":2911,"note":72,"tick":5568,"time":29,"type":"noteOn","velocity":68},{"channel":0,"nextOffset":2915,"note":45,"tick":5616,"time":29.25,"type":"noteOff","velocity":0},{"channel":0,"nextOffset":2919,"note":60,"tick":5616,"time":29.25,"type":"noteOff","velocity":0},{"channel":0,"nextOffset":2923,"note":64,"tick":5616,"time":29.25,"type":"noteOff","velocity":0},{"channel":0,"nextOffset":2927,"note":67,"tick":5616,"time":29.25,"type":"noteOff","velocity":0},{"channel":0,"nextOffset":2931,"note":72,"tick":5616,"time":29.25,"type":"noteOff","velocity":0},{"channel":0,"nextOffset":2935,"note":45,"tick":5640,"time":29.375,"type":"noteOn","velocity":68},{"channel":0,"nextOffset":2939,"note":61,"tick":5640,"time":29.375,"type":"noteOn","velocity":68},{"channel":0,"nextOffset":2943,"note":65,"tick":5640,"time":29.375,"type":"noteOn","velocity":68},{"channel":0,"nextOffset":2947,"note":67,"tick":5640,"time":29.375,"type":"noteOn","velocity":68},{"channel":0,"nextOffset":2951,"note":70,"tick":5640,"time":29.375,"type":"noteOn","velocity":68},{"channel":0,"nextOffset":2955,"note":45,"tick":5664,"time":29.5,"type":"noteOff","velocity":0},{"channel":0,"nextOffset":2959,"note":61,"tick":5688,"time":29.625,"type":"noteOff","velocity":0},{"channel":0,"nextOffset":2963,"note":65,"tick":5688,"time":29.625,"type":"noteOff","velocity":0},{"channel":0,"nextOffset":2967,"note":67,"tick":5688,"time":29.625,"type":"noteOff","velocity":0},{"channel":0,"nextOffset":2971,"note":70,"tick":5688,"time":29.625,"type":"noteOff","velocity":0},{"channel":0,"nextOffset":2975,"note":38,"tick":5712,"time":29.75,"type":"noteOn","velocity":68},{"channel":0,"nextOffset":2979,"note":60,"tick":5712,"time":29.75,"type":"noteOn","velocity":68},{"channel":0,"nextOffset":2983,"note":64,"tick":5712,"time":29.75,"type":"noteOn","velocity":68},{"channel":0,"nextOffset":2987,"note":65,"tick":5712,"time":29.75,"type":"noteOn","velocity":68},{"channel":0,"nextOffset":2991,"note":69,"tick":5712,"time":29.75,"type":"noteOn","velocity":68},{"channel":0,"nextOffset":2995,"note":38,"tick":5760,"time":30,"type":"noteOff","velocity":0},{"channel":0,"nextOffset":2999,"note":50,"tick":5760,"time":30,"type":"noteOn","velocity":68},{"channel":0,"nextOffset":3003,"note":60,"tick":5760,"time":30,"type":"noteOff","velocity":0},{"channel":0,"nextOffset":3007,"note":64,"tick":5760,"time":30,"type":"noteOff","velocity":0},{"channel":0,"nextOffset":3011,"note":65,"tick":5760,"time":30,"type":"noteOff","velocity":0},{"channel":0,"nextOffset":3015,"note":69,"tick":5760,"time":30,"type":"noteOff","velocity":0},{"channel":0,"nextOffset":3019,"note":76,"tick":5760,"time":30,"type":"noteOn","velocity":68},{"channel":0,"nextOffset":3023,"note":76,"tick":5784,"time":30.125,"type":"noteOff","velocity":0},{"channel":0,"nextOffset":3027,"note":77,"tick":5784,"time":30.125,"type":"noteOn","velocity":68},{"channel":0,"nextOffset":3031,"note":38,"tick":5808,"time":30.25,"type":"noteOn","velocity":68},{"channel":0,"nextOffset":3035,"note":50,"tick":5808,"time":30.25,"type":"noteOff","velocity":0},{"channel":0,"nextOffset":3039,"note":77,"tick":5808,"time":30.25,"type":"noteOff","velocity":0},{"channel":0,"nextOffset":3043,"note":79,"tick":5808,"time":30.25,"type":"noteOn","velocity":68},{"channel":0,"nextOffset":3047,"note":77,"tick":5832,"time":30.375,"type":"noteOn","velocity":68},{"channel":0,"nextOffset":3051,"note":79,"tick":5832,"time":30.375,"type":"noteOff","velocity":0},{"channel":0,"nextOffset":3055,"note":38,"tick":5856,"time":30.5,"type":"noteOff","velocity":0},{"channel":0,"nextOffset":3059,"note":45,"tick":5856,"time":30.5,"type":"noteOn","velocity":68},{"channel":0,"nextOffset":3063,"note":76,"tick":5856,"time":30.5,"type":"noteOn","velocity":68},{"channel":0,"nextOffset":3067,"note":77,"tick":5856,"time":30.5,"type":"noteOff","velocity":0},{"channel":0,"nextOffset":3071,"note":72,"tick":5880,"time":30.625,"type":"noteOn","velocity":68},{"channel":0,"nextOffset":3075,"note":76,"tick":5880,"time":30.625,"type":"noteOff","velocity":0},{"channel":0,"nextOffset":3079,"note":38,"tick":5904,"time":30.75,"type":"noteOn","velocity":68},{"channel":0,"nextOffset":3083,"note":45,"tick":5904,"time":30.75,"type":"noteOff","velocity":0},{"channel":0,"nextOffset":3087,"note":69,"tick":5904,"time":30.75,"type":"noteOn","velocity":68},{"channel":0,"nextOffset":3091,"note":72,"tick":5904,"time":30.75,"type":"noteOff","velocity":0},{"channel":0,"nextOffset":3095,"note":67,"tick":5928,"time":30.875,"type":"noteOn","velocity":68},{"channel":0,"nextOffset":3099,"note":69,"tick":5928,"time":30.875,"type":"noteOff","velocity":0},{"channel":0,"nextOffset":3103,"note":38,"tick":5952,"time":31,"type":"noteOff","velocity":0},{"channel":0,"nextOffset":3107,"note":50,"tick":5952,"time":31,"type":"noteOn","velocity":68},{"channel":0,"nextOffset":3111,"note":67,"tick":5952,"time":31,"type":"noteOff","velocity":0},{"channel":0,"nextOffset":3115,"note":69,"tick":5952,"time":31,"type":"noteOn","velocity":68},{"channel":0,"nextOffset":3119,"note":62,"tick":5976,"time":31.125,"type":"noteOn","velocity":68},{"channel":0,"nextOffset":3123,"note":69,"tick":5976,"time":31.125,"type":"noteOff","velocity":0},{"channel":0,"nextOffset":3127,"note":38,"tick":6000,"time":31.25,"type":"noteOn","velocity":68},{"channel":0,"nextOffset":3131,"note":50,"tick":6000,"time":31.25,"type":"noteOff","velocity":0},{"channel":0,"nextOffset":3135,"note":60,"tick":6000,"time":31.25,"type":"noteOn","velocity":68},{"channel":0,"nextOffset":3139,"note":62,"tick":6000,"time":31.25,"type":"noteOff","velocity":0},{"channel":0,"nextOffset":3143,"note":60,"tick":6024,"time":31.375,"type":"noteOff","velocity":0},{"channel":0,"nextOffset":3147,"note":65,"tick":6024,"time":31.375,"type":"noteOn","velocity":68},{"channel":0,"nextOffset":3151,"note":38,"tick":6048,"time":31.5,"type":"noteOff","velocity":0},{"channel":0,"nextOffset":3155,"note":45,"tick":6048,"time":31.5,"type":"noteOn","velocity":68},{"channel":0,"nextOffset":3159,"note":60,"tick":6048,"time":31.5,"type":"noteOn","velocity":68},{"channel":0,"nextOffset":3163,"note":64,"tick":6048,"time":31.5,"type":"noteOn","velocity":68},{"channel":0,"nextOffset":3167,"note":65,"tick":6048,"time":31.5,"type":"noteOff","velocity":0},{"channel":0,"nextOffset":3171,"note":69,"tick":6048,"time":31.5,"type":"noteOn","velocity":68},{"channel":0,"nextOffset":3175,"note":44,"tick":6096,"time":31.75,"type":"noteOn","velocity":68},{"channel":0,"nextOffset":3179,"note":45,"tick":6096,"time":31.75,"type":"noteOff","velocity":0},{"channel":0,"nextOffset":3183,"note":59,"tick":6096,"time":31.75,"type":"noteOn","velocity":68},{"channel":0,"nextOffset":3187,"note":60,"tick":6096,"time":31.75,"type":"noteOff","velocity":0},{"channel":0,"nextOffset":3191,"note":63,"tick":6096,"time":31.75,"type":"noteOn","velocity":68},{"channel":0,"nextOffset":3195,"note":64,"tick":6096,"time":31.75,"type":"noteOff","velocity":0},{"channel":0,"nextOffset":3199,"note":68,"tick":6096,"time":31.75,"type":"noteOn","velocity":68},{"channel":0,"nextOffset":3203,"note":69,"tick":6096,"time":31.75,"type":"noteOff","velocity":0},{"channel":0,"nextOffset":3207,"note":43,"tick":6144,"time":32,"type":"noteOn","velocity":68},{"channel":0,"nextOffset":3211,"note":44,"tick":6144,"time":32,"type":"noteOff","velocity":0},{"channel":0,"nextOffset":3215,"note":58,"tick":6144,"time":32,"type":"noteOn","velocity":68},{"channel":0,"nextOffset":3219,"note":59,"tick":6144,"time":32,"type":"noteOff","velocity":0},{"channel":0,"nextOffset":3223,"note":62,"tick":6144,"time":32,"type":"noteOn","velocity":68},{"channel":0,"nextOffset":3227,"note":63,"tick":6144,"time":32,"type":"noteOff","velocity":0},{"channel":0,"nextOffset":3231,"note":65,"tick":6144,"time":32,"type":"noteOn","velocity":68},{"channel":0,"nextOffset":3235,"note":68,"tick":6144,"time":32,"type":"noteOff","velocity":0},{"channel":0,"nextOffset":3239,"note":69,"tick":6144,"time":32,"type":"noteOn","velocity":68},{"channel":0,"nextOffset":3243,"note":43,"tick":6192,"time":32.25,"type":"noteOff","velocity":0},{"channel":0,"nextOffset":3247,"note":43,"tick":6240,"time":32.5,"type":"noteOn","velocity":68},{"channel":0,"nextOffset":3251,"note":58,"tick":6240,"time":32.5,"type":"noteOff","velocity":0},{"channel":0,"nextOffset":3255,"note":62,"tick":6240,"time":32.5,"type":"noteOff","velocity":0},{"channel":0,"nextOffset":3259,"note":65,"tick":6240,"time":32.5,"type":"noteOff","velocity":0},{"channel":0,"nextOffset":3263,"note":69,"tick":6240,"time":32.5,"type":"noteOff","velocity":0},{"channel":0,"nextOffset":3267,"note":43,"tick":6288,"time":32.75,"type":"noteOff","velocity":0},{"channel":0,"nextOffset":3271,"note":44,"tick":6288,"time":32.75,"type":"noteOn","velocity":68},{"channel":0,"nextOffset":3275,"note":65,"tick":6288,"time":32.75,"type":"noteOn","velocity":68},{"channel":0,"nextOffset":3279,"note":65,"tick":6312,"time":32.875,"type":"noteOff","velocity":0},{"channel":0,"nextOffset":3283,"note":69,"tick":6312,"time":32.875,"type":"noteOn","velocity":68},{"channel":0,"nextOffset":3287,"note":44,"tick":6336,"time":33,"type":"noteOff","velocity":0},{"channel":0,"nextOffset":3291,"note":45,"tick":6336,"time":33,"type":"noteOn","velocity":68},{"channel":0,"nextOffset":3295,"note":60,"tick":6336,"time":33,"type":"noteOn","velocity":68},{"channel":0,"nextOffset":3299,"note":64,"tick":6336,"time":33,"type":"noteOn","velocity":68},{"channel":0,"nextOffset":3303,"note":67,"tick":6336,"time":33,"type":"noteOn","velocity":68},{"channel":0,"nextOffset":3307,"note":69,"tick":6336,"time":33,"type":"noteOff","velocity":0},{"channel":0,"nextOffset":3311,"note":72,"tick":6336,"time":33,"type":"noteOn","velocity":68},{"channel":0,"nextOffset":3315,"note":45,"tick":6384,"time":33.25,"type":"noteOff","velocity":0},{"channel":0,"nextOffset":3319,"note":60,"tick":6384,"time":33.25,"type":"noteOff","velocity":0},{"channel":0,"nextOffset":3323,"note":64,"tick":6384,"time":33.25,"type":"noteOff","velocity":0},{"channel":0,"nextOffset":3327,"note":67,"tick":6384,"time":33.25,"type":"noteOff","velocity":0},{"channel":0,"nextOffset":3331,"note":72,"tick":6384,"time":33.25,"type":"noteOff","velocity":0},{"channel":0,"nextOffset":3335,"note":39,"tick":6432,"time":33.5,"type":"noteOn","velocity":68},{"channel":0,"nextOffset":3339,"note":67,"tick":6432,"time":33.5,"type":"noteOn","velocity":68},{"channel":0,"nextOffset":3343,"note":70,"tick":6432,"time":33.5,"type":"noteOn","velocity":68},{"channel":0,"nextOffset":3347,"note":73,"tick":6432,"time":33.5,"type":"noteOn","velocity":68},{"channel":0,"nextOffset":3351,"note":77,"tick":6432,"time":33.5,"type":"noteOn","velocity":68},{"channel":0,"nextOffset":3355,"note":39,"tick":6480,"time":33.75,"type":"noteOff","velocity":0},{"channel":0,"nextOffset":3359,"note":67,"tick":6480,"time":33.75,"type":"noteOff","velocity":0},{"channel":0,"nextOffset":3363,"note":70,"tick":6480,"time":33.75,"type":"noteOff","velocity":0},{"channel":0,"nextOffset":3367,"note":73,"tick":6480,"time":33.75,"type":"noteOff","velocity":0},{"channel":0,"nextOffset":3371,"note":77,"tick":6480,"time":33.75,"type":"noteOff","velocity":0},{"channel":0,"nextOffset":3375,"note":38,"tick":6528,"time":34,"type":"noteOn","velocity":68},{"channel":0,"nextOffset":3379,"note":65,"tick":6528,"time":34,"type":"noteOn","velocity":68},{"channel":0,"nextOffset":3383,"note":69,"tick":6528,"time":34,"type":"noteOn","velocity":68},{"channel":0,"nextOffset":3387,"note":72,"tick":6528,"time":34,"type":"noteOn","velocity":68},{"channel":0,"nextOffset":3391,"note":76,"tick":6528,"time":34,"type":"noteOn","velocity":68},{"channel":0,"nextOffset":3395,"note":38,"tick":6576,"time":34.25,"type":"noteOff","velocity":0},{"channel":0,"nextOffset":3399,"note":65,"tick":6576,"time":34.25,"type":"noteOff","velocity":0},{"channel":0,"nextOffset":3403,"note":69,"tick":6576,"time":34.25,"type":"noteOff","velocity":0},{"channel":0,"nextOffset":3407,"note":72,"tick":6576,"time":34.25,"type":"noteOff","velocity":0},{"channel":0,"nextOffset":3411,"note":76,"tick":6576,"time":34.25,"type":"noteOff","velocity":0},{"channel":0,"nextOffset":3415,"note":72,"tick":6624,"time":34.5,"type":"noteOn","velocity":68},{"channel":0,"nextOffset":3419,"note":65,"tick":6672,"time":34.75,"type":"noteOn","velocity":68},{"channel":0,"nextOffset":3423,"note":69,"tick":6672,"time":34.75,"type":"noteOn","velocity":68},{"channel":0,"nextOffset":3427,"note":72,"tick":6672,"time":34.75,"type":"noteOff","velocity":0},{"channel":0,"nextOffset":3431,"note":36,"tick":6720,"time":35,"type":"noteOn","velocity":68},{"channel":0,"nextOffset":3435,"note":64,"tick":6720,"time":35,"type":"noteOn","velocity":68},{"channel":0,"nextOffset":3439,"note":65,"tick":6720,"time":35,"type":"noteOff","velocity":0},{"channel":0,"nextOffset":3443,"note":67,"tick":6720,"time":35,"type":"noteOn","velocity":68},{"channel":0,"nextOffset":3447,"note":69,"tick":6720,"time":35,"type":"noteOff","velocity":0},{"channel":0,"nextOffset":3451,"note":62,"tick":6768,"time":35.25,"type":"noteOn","velocity":68},{"channel":0,"nextOffset":3455,"note":64,"tick":6768,"time":35.25,"type":"noteOff","velocity":0},{"channel":0,"nextOffset":3459,"note":65,"tick":6768,"time":35.25,"type":"noteOn","velocity":68},{"channel":0,"nextOffset":3463,"note":67,"tick":6768,"time":35.25,"type":"noteOff","velocity":0},{"channel":0,"nextOffset":3467,"note":36,"tick":6816,"time":35.5,"type":"noteOff","velocity":0},{"channel":0,"nextOffset":3471,"note":41,"tick":6816,"time":35.5,"type":"noteOn","velocity":68},{"channel":0,"nextOffset":3475,"note":60,"tick":6816,"time":35.5,"type":"noteOn","velocity":68},{"channel":0,"nextOffset":3479,"note":62,"tick":6816,"time":35.5,"type":"noteOff","velocity":0},{"channel":0,"nextOffset":3483,"note":64,"tick":6816,"time":35.5,"type":"noteOn","velocity":68},{"channel":0,"nextOffset":3487,"note":65,"tick":6816,"time":35.5,"type":"noteOff","velocity":0},{"channel":0,"nextOffset":3491,"note":57,"tick":6864,"time":35.75,"type":"noteOn","velocity":68},{"channel":0,"nextOffset":3495,"note":60,"tick":6864,"time":35.75,"type":"noteOff","velocity":0},{"channel":0,"nextOffset":3499,"note":60,"tick":6864,"time":35.75,"type":"noteOn","velocity":68},{"channel":0,"nextOffset":3503,"note":64,"tick":6864,"time":35.75,"type":"noteOff","velocity":0},{"channel":0,"nextOffset":3507,"note":34,"tick":6912,"time":36,"type":"noteOn","velocity":68},{"channel":0,"nextOffset":3511,"note":41,"tick":6912,"time":36,"type":"noteOff","velocity":0},{"channel":0,"nextOffset":3515,"note":57,"tick":6912,"time":36,"type":"noteOff","velocity":0},{"channel":0,"nextOffset":3519,"note":60,"tick":6912,"time":36,"type":"noteOff","velocity":0},{"channel":0,"nextOffset":3523,"note":53,"tick":6960,"time":36.25,"type":"noteOn","velocity":68},{"channel":0,"nextOffset":3527,"note":57,"tick":6960,"time":36.25,"type":"noteOn","velocity":68},{"channel":0,"nextOffset":3531,"note":34,"tick":7008,"time":36.5,"type":"noteOff","velocity":0},{"channel":0,"nextOffset":3535,"note":38,"tick":7008,"time":36.5,"type":"noteOn","velocity":68},{"channel":0,"nextOffset":3539,"note":53,"tick":7008,"time":36.5,"type":"noteOff","velocity":0},{"channel":0,"nextOffset":3543,"note":55,"tick":7008,"time":36.5,"type":"noteOn","velocity":68},{"channel":0,"nextOffset":3547,"note":57,"tick":7008,"time":36.5,"type":"noteOff","velocity":0},{"channel":0,"nextOffset":3551,"note":58,"tick":7008,"time":36.5,"type":"noteOn","velocity":68},{"channel":0,"nextOffset":3555,"note":55,"tick":7056,"time":36.75,"type":"noteOff","velocity":0},{"channel":0,"nextOffset":3559,"note":57,"tick":7056,"time":36.75,"type":"noteOn","velocity":68},{"channel":0,"nextOffset":3563,"note":58,"tick":7056,"time":36.75,"type":"noteOff","velocity":0},{"channel":0,"nextOffset":3567,"note":60,"tick":7056,"time":36.75,"type":"noteOn","velocity":68},{"channel":0,"nextOffset":3571,"note":38,"tick":7104,"time":37,"type":"noteOff","velocity":0},{"channel":0,"nextOffset":3575,"note":40,"tick":7104,"time":37,"type":"noteOn","velocity":68},{"channel":0,"nextOffset":3579,"note":57,"tick":7104,"time":37,"type":"noteOff","velocity":0},{"channel":0,"nextOffset":3583,"note":58,"tick":7104,"time":37,"type":"noteOn","velocity":68},{"channel":0,"nextOffset":3587,"note":60,"tick":7104,"time":37,"type":"noteOff","velocity":0},{"channel":0,"nextOffset":3591,"note":62,"tick":7104,"time":37,"type":"noteOn","velocity":68},{"channel":0,"nextOffset":3595,"note":58,"tick":7152,"time":37.25,"type":"noteOff","velocity":0},{"channel":0,"nextOffset":3599,"note":60,"tick":7152,"time":37.25,"type":"noteOn","velocity":68},{"channel":0,"nextOffset":3603,"note":62,"tick":7152,"time":37.25,"type":"noteOff","velocity":0},{"channel":0,"nextOffset":3607,"note":64,"tick":7152,"time":37.25,"type":"noteOn","velocity":68},{"channel":0,"nextOffset":3611,"note":40,"tick":7200,"time":37.5,"type":"noteOff","velocity":0},{"channel":0,"nextOffset":3615,"note":43,"tick":7200,"time":37.5,"type":"noteOn","velocity":68},{"channel":0,"nextOffset":3619,"note":60,"tick":7200,"time":37.5,"type":"noteOff","velocity":0},{"channel":0,"nextOffset":3623,"note":62,"tick":7200,"time":37.5,"type":"noteOn","velocity":68},{"channel":0,"nextOffset":3627,"note":64,"tick":7200,"time":37.5,"type":"noteOff","velocity":0},{"channel":0,"nextOffset":3631,"note":65,"tick":7200,"time":37.5,"type":"noteOn","velocity":68},{"channel":0,"nextOffset":3635,"note":62,"tick":7248,"time":37.75,"type":"noteOff","velocity":0},{"channel":0,"nextOffset":3639,"note":64,"tick":7248,"time":37.75,"type":"noteOn","velocity":68},{"channel":0,"nextOffset":3643,"note":65,"tick":7248,"time":37.75,"type":"noteOff","velocity":0},{"channel":0,"nextOffset":3647,"note":67,"tick":7248,"time":37.75,"type":"noteOn","velocity":68},{"channel":0,"nextOffset":3651,"note":43,"tick":7296,"time":38,"type":"noteOff","velocity":0},{"channel":0,"nextOffset":3655,"note":45,"tick":7296,"time":38,"type":"noteOn","velocity":68},{"channel":0,"nextOffset":3659,"note":61,"tick":7296,"time":38,"type":"noteOn","velocity":68},{"channel":0,"nextOffset":3663,"note":64,"tick":7296,"time":38,"type":"noteOff","velocity":0},{"channel":0,"nextOffset":3667,"note":64,"tick":7296,"time":38,"type":"noteOn","velocity":68},{"channel":0,"nextOffset":3671,"note":67,"tick":7296,"time":38,"type":"noteOff","velocity":0},{"channel":0,"nextOffset":3675,"note":45,"tick":7344,"time":38.25,"type":"noteOff","velocity":0},{"channel":0,"nextOffset":3679,"note":45,"tick":7344,"time":38.25,"type":"noteOn","velocity":68},{"channel":0,"nextOffset":3683,"note":61,"tick":7344,"time":38.25,"type":"noteOff","velocity":0},{"channel":0,"nextOffset":3687,"note":64,"tick":7344,"time":38.25,"type":"noteOff","velocity":0},{"channel":0,"nextOffset":3691,"note":45,"tick":7356,"time":38.3125,"type":"noteOff","velocity":0},{"channel":0,"nextOffset":3695,"note":45,"tick":7368,"time":38.375,"type":"noteOn","velocity":68},{"channel":0,"nextOffset":3699,"note":45,"tick":7380,"time":38.4375,"type":"noteOff","velocity":0},{"channel":0,"nextOffset":3703,"note":45,"tick":7392,"time":38.5,"type":"noteOn","velocity":68},{"channel":0,"nextOffset":3707,"note":61,"tick":7392,"time":38.5,"type":"noteOn","velocity":68},{"channel":0,"nextOffset":3711,"note":64,"tick":7392,"time":38.5,"type":"noteOn","velocity":68},{"channel":0,"nextOffset":3715,"note":69,"tick":7392,"time":38.5,"type":"noteOn","velocity":68},{"channel":0,"nextOffset":3719,"note":33,"tick":7440,"time":38.75,"type":"noteOn","velocity":68},{"channel":0,"nextOffset":3723,"note":45,"tick":7440,"time":38.75,"type":"noteOff","velocity":0},{"channel":0,"nextOffset":3727,"note":61,"tick":7440,"time":38.75,"type":"noteOff","velocity":0},{"channel":0,"nextOffset":3731,"note":64,"tick":7440,"time":38.75,"type":"noteOff","velocity":0},{"channel":0,"nextOffset":3735,"note":69,"tick":7440,"time":38.75,"type":"noteOff","velocity":0},{"channel":0,"nextOffset":3739,"note":33,"tick":7488,"time":39,"type":"noteOff","velocity":0},{"channel":0,"nextOffset":3743,"note":45,"tick":7488,"time":39,"type":"noteOn","velocity":68},{"channel":0,"nextOffset":3747,"note":73,"tick":7488,"time":39,"type":"noteOn","velocity":68},{"channel":0,"nextOffset":3751,"note":76,"tick":7488,"time":39,"type":"noteOn","velocity":68},{"channel":0,"nextOffset":3755,"note":81,"tick":7488,"time":39,"type":"noteOn","velocity":68},{"channel":0,"nextOffset":3759,"note":33,"tick":7536,"time":39.25,"type":"noteOn","velocity":68},{"channel":0,"nextOffset":3763,"note":45,"tick":7536,"time":39.25,"type":"noteOff","velocity":0},{"channel":0,"nextOffset":3767,"note":45,"tick":7536,"time":39.25,"type":"noteOn","velocity":68},{"channel":0,"nextOffset":3771,"note":73,"tick":7536,"time":39.25,"type":"noteOff","velocity":0},{"channel":0,"nextOffset":3775,"note":76,"tick":7536,"time":39.25,"type":"noteOff","velocity":0},{"channel":0,"nextOffset":3779,"note":81,"tick":7536,"time":39.25,"type":"noteOff","velocity":0},{"channel":0,"nextOffset":3783,"note":33,"tick":7584,"time":39.5,"type":"noteOff","velocity":0},{"channel":0,"nextOffset":3787,"note":33,"tick":7584,"time":39.5,"type":"noteOn","velocity":68},{"channel":0,"nextOffset":3791,"note":45,"tick":7584,"time":39.5,"type":"noteOff","velocity":0},{"channel":0,"nextOffset":3795,"note":45,"tick":7584,"time":39.5,"type":"noteOn","velocity":68},{"channel":0,"nextOffset":3799,"note":61,"tick":7584,"time":39.5,"type":"noteOn","velocity":68},{"channel":0,"nextOffset":3803,"note":67,"tick":7584,"time":39.5,"type":"noteOn","velocity":68},{"channel":0,"nextOffset":3807,"note":72,"tick":7584,"time":39.5,"type":"noteOn","velocity":68},{"channel":0,"nextOffset":3811,"note":33,"tick":7632,"time":39.75,"type":"noteOff","velocity":0},{"channel":0,"nextOffset":3815,"note":33,"tick":7632,"time":39.75,"type":"noteOn","velocity":68},{"channel":0,"nextOffset":3819,"note":45,"tick":7632,"time":39.75,"type":"noteOff","velocity":0},{"channel":0,"nextOffset":3823,"note":61,"tick":7632,"time":39.75,"type":"noteOff","velocity":0},{"channel":0,"nextOffset":3827,"note":67,"tick":7632,"time":39.75,"type":"noteOff","velocity":0},{"channel":0,"nextOffset":3831,"note":71,"tick":7632,"time":39.75,"type":"noteOn","velocity":68},{"channel":0,"nextOffset":3835,"note":72,"tick":7632,"time":39.75,"type":"noteOff","velocity":0},{"channel":0,"nextOffset":3839,"note":70,"tick":7656,"time":39.875,"type":"noteOn","velocity":68},{"channel":0,"nextOffset":3843,"note":71,"tick":7656,"time":39.875,"type":"noteOff","velocity":0},{"channel":0,"nextOffset":3847,"note":31,"tick":7680,"time":40,"type":"noteOn","velocity":68},{"channel":0,"nextOffset":3851,"note":33,"tick":7680,"time":40,"type":"noteOff","velocity":0},{"channel":0,"nextOffset":3855,"note":58,"tick":7680,"time":40,"type":"noteOn","velocity":68},{"channel":0,"nextOffset":3859,"note":62,"tick":7680,"time":40,"type":"noteOn","velocity":68},{"channel":0,"nextOffset":3863,"note":65,"tick":7680,"time":40,"type":"noteOn","velocity":68},{"channel":0,"nextOffset":3867,"note":69,"tick":7680,"time":40,"type":"noteOn","velocity":68},{"channel":0,"nextOffset":3871,"note":70,"tick":7680,"time":40,"type":"noteOff","velocity":0},{"channel":0,"nextOffset":3875,"note":31,"tick":7728,"time":40.25,"type":"noteOff","velocity":0},{"channel":0,"nextOffset":3879,"note":31,"tick":7776,"time":40.5,"type":"noteOn","velocity":68},{"channel":0,"nextOffset":3883,"note":58,"tick":7776,"time":40.5,"type":"noteOff","velocity":0},{"channel":0,"nextOffset":3887,"note":62,"tick":7776,"time":40.5,"type":"noteOff","velocity":0},{"channel":0,"nextOffset":3891,"note":65,"tick":7776,"time":40.5,"type":"noteOff","velocity":0},{"channel":0,"nextOffset":3895,"note":69,"tick":7776,"time":40.5,"type":"noteOff","velocity":0},{"channel":0,"nextOffset":3899,"note":31,"tick":7824,"time":40.75,"type":"noteOff","velocity":0},{"channel":0,"nextOffset":3903,"note":33,"tick":7872,"time":41,"type":"noteOn","velocity":68},{"channel":0,"nextOffset":3907,"note":60,"tick":7872,"time":41,"type":"noteOn","velocity":68},{"channel":0,"nextOffset":3911,"note":64,"tick":7872,"time":41,"type":"noteOn","velocity":68},{"channel":0,"nextOffset":3915,"note":67,"tick":7872,"time":41,"type":"noteOn","velocity":68},{"channel":0,"nextOffset":3919,"note":72,"tick":7872,"time":41,"type":"noteOn","velocity":68},{"channel":0,"nextOffset":3923,"note":33,"tick":7920,"time":41.25,"type":"noteOff","velocity":0},{"channel":0,"nextOffset":3927,"note":60,"tick":7920,"time":41.25,"type":"noteOff","velocity":0},{"channel":0,"nextOffset":3931,"note":64,"tick":7920,"time":41.25,"type":"noteOff","velocity":0},{"channel":0,"nextOffset":3935,"note":67,"tick":7920,"time":41.25,"type":"noteOff","velocity":0},{"channel":0,"nextOffset":3939,"note":72,"tick":7920,"time":41.25,"type":"noteOff","velocity":0},{"channel":0,"nextOffset":3943,"note":33,"tick":7944,"time":41.375,"type":"noteOn","velocity":68},{"channel":0,"nextOffset":3947,"note":61,"tick":7968,"time":41.5,"type":"noteOn","velocity":68},{"channel":0,"nextOffset":3951,"note":65,"tick":7968,"time":41.5,"type":"noteOn","velocity":68},{"channel":0,"nextOffset":3955,"note":67,"tick":7968,"time":41.5,"type":"noteOn","velocity":68},{"channel":0,"nextOffset":3959,"note":70,"tick":7968,"time":41.5,"type":"noteOn","velocity":68},{"channel":0,"nextOffset":3963,"note":33,"tick":7992,"time":41.625,"type":"noteOff","velocity":0},{"channel":0,"nextOffset":3967,"note":33,"tick":8016,"time":41.75,"type":"noteOn","velocity":68},{"channel":0,"nextOffset":3971,"note":61,"tick":8016,"time":41.75,"type":"noteOff","velocity":0},{"channel":0,"nextOffset":3975,"note":65,"tick":8016,"time":41.75,"type":"noteOff","velocity":0},{"channel":0,"nextOffset":3979,"note":67,"tick":8016,"time":41.75,"type":"noteOff","velocity":0},{"channel":0,"nextOffset":3983,"note":70,"tick":8016,"time":41.75,"type":"noteOff","velocity":0},{"channel":0,"nextOffset":3987,"note":26,"tick":8064,"time":42,"type":"noteOn","velocity":68},{"channel":0,"nextOffset":3991,"note":33,"tick":8064,"time":42,"type":"noteOff","velocity":0},{"channel":0,"nextOffset":3995,"note":60,"tick":8064,"time":42,"type":"noteOn","velocity":68},{"channel":0,"nextOffset":3999,"note":64,"tick":8064,"time":42,"type":"noteOn","velocity":68},{"channel":0,"nextOffset":4003,"note":65,"tick":8064,"time":42,"type":"noteOn","velocity":68},{"channel":0,"nextOffset":4007,"note":69,"tick":8064,"time":42,"type":"noteOn","velocity":68},{"channel":0,"nextOffset":4011,"note":26,"tick":8112,"time":42.25,"type":"noteOff","velocity":0},{"channel":0,"nextOffset":4015,"note":60,"tick":8112,"time":42.25,"type":"noteOff","velocity":0},{"channel":0,"nextOffset":4019,"note":64,"tick":8112,"time":42.25,"type":"noteOff","velocity":0},{"channel":0,"nextOffset":4023,"note":65,"tick":8112,"time":42.25,"type":"noteOff","velocity":0},{"channel":0,"nextOffset":4027,"note":69,"tick":8112,"time":42.25,"type":"noteOff","velocity":0},{"channel":0,"nextOffset":4031,"note":26,"tick":8160,"time":42.5,"type":"noteOn","velocity":68},{"channel":0,"nextOffset":4035,"note":26,"tick":8208,"time":42.75,"type":"noteOff","velocity":0},{"channel":0,"nextOffset":4039,"note":38,"tick":8256,"time":43,"type":"noteOn","velocity":68},{"channel":0,"nextOffset":4043,"note":60,"tick":8256,"time":43,"type":"noteOn","velocity":68},{"channel":0,"nextOffset":4047,"note":64,"tick":8256,"time":43,"type":"noteOn","velocity":68},{"channel":0,"nextOffset":4051,"note":65,"tick":8256,"time":43,"type":"noteOn","velocity":68},{"channel":0,"nextOffset":4055,"note":69,"tick":8256,"time":43,"type":"noteOn","velocity":68},{"channel":0,"nextOffset":4059,"note":38,"tick":8304,"time":43.25,"type":"noteOff","velocity":0},{"channel":0,"nextOffset":4063,"note":60,"tick":8304,"time":43.25,"type":"noteOff","velocity":0},{"channel":0,"nextOffset":4067,"note":64,"tick":8304,"time":43.25,"type":"noteOff","velocity":0},{"channel":0,"nextOffset":4071,"note":65,"tick":8304,"time":43.25,"type":"noteOff","velocity":0},{"channel":0,"nextOffset":4075,"note":69,"tick":8304,"time":43.25,"type":"noteOff","velocity":0},{"channel":0,"nextOffset":4079,"note":33,"tick":8328,"time":43.375,"type":"noteOn","velocity":68},{"channel":0,"nextOffset":4083,"note":59,"tick":8352,"time":43.5,"type":"noteOn","velocity":68},{"channel":0,"nextOffset":4087,"note":63,"tick":8352,"time":43.5,"type":"noteOn","velocity":68},{"channel":0,"nextOffset":4091,"note":68,"tick":8352,"time":43.5,"type":"noteOn","velocity":68},{"channel":0,"nextOffset":4095,"note":33,"tick":8376,"time":43.625,"type":"noteOff","velocity":0},{"channel":0,"nextOffset":4099,"note":32,"tick":8400,"time":43.75,"type":"noteOn","velocity":68},{"channel":0,"nextOffset":4103,"note":59,"tick":8400,"time":43.75,"type":"noteOff","velocity":0},{"channel":0,"nextOffset":4107,"note":63,"tick":8400,"time":43.75,"type":"noteOff","velocity":0},{"channel":0,"nextOffset":4111,"note":68,"tick":8400,"time":43.75,"type":"noteOff","velocity":0},{"channel":0,"nextOffset":4115,"note":31,"tick":8448,"time":44,"type":"noteOn","velocity":68},{"channel":0,"nextOffset":4119,"note":32,"tick":8448,"time":44,"type":"noteOff","velocity":0},{"channel":0,"nextOffset":4123,"note":58,"tick":8448,"time":44,"type":"noteOn","velocity":68},{"channel":0,"nextOffset":4127,"note":62,"tick":8448,"time":44,"type":"noteOn","velocity":68},{"channel":0,"nextOffset":4131,"note":65,"tick":8448,"time":44,"type":"noteOn","velocity":68},{"channel":0,"nextOffset":4135,"note":69,"tick":8448,"time":44,"type":"noteOn","velocity":68},{"channel":0,"nextOffset":4139,"note":31,"tick":8496,"time":44.25,"type":"noteOff","velocity":0},{"channel":0,"nextOffset":4143,"note":31,"tick":8544,"time":44.5,"type":"noteOn","velocity":68},{"channel":0,"nextOffset":4147,"note":58,"tick":8544,"time":44.5,"type":"noteOff","velocity":0},{"channel":0,"nextOffset":4151,"note":62,"tick":8544,"time":44.5,"type":"noteOff","velocity":0},{"channel":0,"nextOffset":4155,"note":65,"tick":8544,"time":44.5,"type":"noteOff","velocity":0},{"channel":0,"nextOffset":4159,"note":69,"tick":8544,"time":44.5,"type":"noteOff","velocity":0},{"channel":0,"nextOffset":4163,"note":31,"tick":8592,"time":44.75,"type":"noteOff","velocity":0},{"channel":0,"nextOffset":4167,"note":33,"tick":8640,"time":45,"type":"noteOn","velocity":68},{"channel":0,"nextOffset":4171,"note":60,"tick":8640,"time":45,"type":"noteOn","velocity":68},{"channel":0,"nextOffset":4175,"note":64,"tick":8640,"time":45,"type":"noteOn","velocity":68},{"channel":0,"nextOffset":4179,"note":67,"tick":8640,"time":45,"type":"noteOn","velocity":68},{"channel":0,"nextOffset":4183,"note":72,"tick":8640,"time":45,"type":"noteOn","velocity":68},{"channel":0,"nextOffset":4187,"note":33,"tick":8688,"time":45.25,"type":"noteOff","velocity":0},{"channel":0,"nextOffset":4191,"note":60,"tick":8688,"time":45.25,"type":"noteOff","velocity":0},{"channel":0,"nextOffset":4195,"note":64,"tick":8688,"time":45.25,"type":"noteOff","velocity":0},{"channel":0,"nextOffset":4199,"note":67,"tick":8688,"time":45.25,"type":"noteOff","velocity":0},{"channel":0,"nextOffset":4203,"note":72,"tick":8688,"time":45.25,"type":"noteOff","velocity":0},{"channel":0,"nextOffset":4207,"note":33,"tick":8712,"time":45.375,"type":"noteOn","velocity":68},{"channel":0,"nextOffset":4211,"note":61,"tick":8736,"time":45.5,"type":"noteOn","velocity":68},{"channel":0,"nextOffset":4215,"note":65,"tick":8736,"time":45.5,"type":"noteOn","velocity":68},{"channel":0,"nextOffset":4219,"note":67,"tick":8736,"time":45.5,"type":"noteOn","velocity":68},{"channel":0,"nextOffset":4223,"note":70,"tick":8736,"time":45.5,"type":"noteOn","velocity":68},{"channel":0,"nextOffset":4227,"note":33,"tick":8760,"time":45.625,"type":"noteOff","velocity":0},{"channel":0,"nextOffset":4231,"note":33,"tick":8784,"time":45.75,"type":"noteOn","velocity":68},{"channel":0,"nextOffset":4235,"note":61,"tick":8784,"time":45.75,"type":"noteOff","velocity":0},{"channel":0,"nextOffset":4239,"note":65,"tick":8784,"time":45.75,"type":"noteOff","velocity":0},{"channel":0,"nextOffset":4243,"note":67,"tick":8784,"time":45.75,"type":"noteOff","velocity":0},{"channel":0,"nextOffset":4247,"note":70,"tick":8784,"time":45.75,"type":"noteOff","velocity":0},{"channel":0,"nextOffset":4251,"note":26,"tick":8832,"time":46,"type":"noteOn","velocity":68},{"channel":0,"nextOffset":4255,"note":33,"tick":8832,"time":46,"type":"noteOff","velocity":0},{"channel":0,"nextOffset":4259,"note":60,"tick":8832,"time":46,"type":"noteOn","velocity":68},{"channel":0,"nextOffset":4263,"note":64,"tick":8832,"time":46,"type":"noteOn","velocity":68},{"channel":0,"nextOffset":4267,"note":65,"tick":8832,"time":46,"type":"noteOn","velocity":68},{"channel":0,"nextOffset":4271,"note":69,"tick":8832,"time":46,"type":"noteOn","velocity":68},{"channel":0,"nextOffset":4275,"note":26,"tick":8880,"time":46.25,"type":"noteOff","velocity":0},{"channel":0,"nextOffset":4279,"note":60,"tick":8880,"time":46.25,"type":"noteOff","velocity":0},{"channel":0,"nextOffset":4283,"note":64,"tick":8880,"time":46.25,"type":"noteOff","velocity":0},{"channel":0,"nextOffset":4287,"note":65,"tick":8880,"time":46.25,"type":"noteOff","velocity":0},{"channel":0,"nextOffset":4291,"note":69,"tick":8880,"time":46.25,"type":"noteOff","velocity":0},{"channel":0,"nextOffset":4295,"note":26,"tick":8928,"time":46.5,"type":"noteOn","velocity":68},{"channel":0,"nextOffset":4299,"note":26,"tick":8976,"time":46.75,"type":"noteOff","velocity":0},{"channel":0,"nextOffset":4303,"note":38,"tick":9024,"time":47,"type":"noteOn","velocity":68},{"channel":0,"nextOffset":4307,"note":60,"tick":9024,"time":47,"type":"noteOn","velocity":68},{"channel":0,"nextOffset":4311,"note":64,"tick":9024,"time":47,"type":"noteOn","velocity":68},{"channel":0,"nextOffset":4315,"note":65,"tick":9024,"time":47,"type":"noteOn","velocity":68},{"channel":0,"nextOffset":4319,"note":69,"tick":9024,"time":47,"type":"noteOn","velocity":68},{"channel":0,"nextOffset":4323,"note":38,"tick":9072,"time":47.25,"type":"noteOff","velocity":0},{"channel":0,"nextOffset":4327,"note":60,"tick":9072,"time":47.25,"type":"noteOff","velocity":0},{"channel":0,"nextOffset":4331,"note":64,"tick":9072,"time":47.25,"type":"noteOff","velocity":0},{"channel":0,"nextOffset":4335,"note":65,"tick":9072,"time":47.25,"type":"noteOff","velocity":0},{"channel":0,"nextOffset":4339,"note":69,"tick":9072,"time":47.25,"type":"noteOff","velocity":0},{"channel":0,"nextOffset":4343,"note":33,"tick":9096,"time":47.375,"type":"noteOn","velocity":68},{"channel":0,"nextOffset":4347,"note":69,"tick":9120,"time":47.5,"type":"noteOn","velocity":68},{"channel":0,"nextOffset":4351,"note":72,"tick":9120,"time":47.5,"type":"noteOn","velocity":68},{"channel":0,"nextOffset":4355,"note":74,"tick":9120,"time":47.5,"type":"noteOn","velocity":68},{"channel":0,"nextOffset":4359,"note":77,"tick":9120,"time":47.5,"type":"noteOn","velocity":68},{"channel":0,"nextOffset":4363,"note":33,"tick":9144,"time":47.625,"type":"noteOff","velocity":0},{"channel":0,"nextOffset":4367,"note":32,"tick":9168,"time":47.75,"type":"noteOn","velocity":68},{"channel":0,"nextOffset":4371,"note":69,"tick":9168,"time":47.75,"type":"noteOff","velocity":0},{"channel":0,"nextOffset":4375,"note":72,"tick":9168,"time":47.75,"type":"noteOff","velocity":0},{"channel":0,"nextOffset":4379,"note":74,"tick":9168,"time":47.75,"type":"noteOff","velocity":0},{"channel":0,"nextOffset":4383,"note":77,"tick":9168,"time":47.75,"type":"noteOff","velocity":0},{"channel":0,"nextOffset":4387,"note":31,"tick":9216,"time":48,"type":"noteOn","velocity":68},{"channel":0,"nextOffset":4391,"note":32,"tick":9216,"time":48,"type":"noteOff","velocity":0},{"channel":0,"nextOffset":4395,"note":58,"tick":9216,"time":48,"type":"noteOn","velocity":68},{"channel":0,"nextOffset":4399,"note":62,"tick":9216,"time":48,"type":"noteOn","velocity":68},{"channel":0,"nextOffset":4403,"note":65,"tick":9216,"time":48,"type":"noteOn","velocity":68},{"channel":0,"nextOffset":4407,"note":69,"tick":9216,"time":48,"type":"noteOn","velocity":68},{"channel":0,"nextOffset":4411,"note":31,"tick":9264,"time":48.25,"type":"noteOff","velocity":0},{"channel":0,"nextOffset":4415,"note":31,"tick":9312,"time":48.5,"type":"noteOn","velocity":68},{"channel":0,"nextOffset":4419,"note":58,"tick":9312,"time":48.5,"type":"noteOff","velocity":0},{"channel":0,"nextOffset":4423,"note":62,"tick":9312,"time":48.5,"type":"noteOff","velocity":0},{"channel":0,"nextOffset":4427,"note":65,"tick":9312,"time":48.5,"type":"noteOff","velocity":0},{"channel":0,"nextOffset":4431,"note":69,"tick":9312,"time":48.5,"type":"noteOff","velocity":0},{"channel":0,"nextOffset":4435,"note":31,"tick":9360,"time":48.75,"type":"noteOff","velocity":0},{"channel":0,"nextOffset":4439,"note":33,"tick":9408,"time":49,"type":"noteOn","velocity":68},{"channel":0,"nextOffset":4443,"note":60,"tick":9408,"time":49,"type":"noteOn","velocity":68},{"channel":0,"nextOffset":4447,"note":64,"tick":9408,"time":49,"type":"noteOn","velocity":68},{"channel":0,"nextOffset":4451,"note":67,"tick":9408,"time":49,"type":"noteOn","velocity":68},{"channel":0,"nextOffset":4455,"note":72,"tick":9408,"time":49,"type":"noteOn","velocity":68},{"channel":0,"nextOffset":4459,"note":33,"tick":9456,"time":49.25,"type":"noteOff","velocity":0},{"channel":0,"nextOffset":4463,"note":60,"tick":9456,"time":49.25,"type":"noteOff","velocity":0},{"channel":0,"nextOffset":4467,"note":64,"tick":9456,"time":49.25,"type":"noteOff","velocity":0},{"channel":0,"nextOffset":4471,"note":67,"tick":9456,"time":49.25,"type":"noteOff","velocity":0},{"channel":0,"nextOffset":4475,"note":72,"tick":9456,"time":49.25,"type":"noteOff","velocity":0},{"channel":0,"nextOffset":4479,"note":33,"tick":9480,"time":49.375,"type":"noteOn","velocity":68},{"channel":0,"nextOffset":4483,"note":61,"tick":9504,"time":49.5,"type":"noteOn","velocity":68},{"channel":0,"nextOffset":4487,"note":65,"tick":9504,"time":49.5,"type":"noteOn","velocity":68},{"channel":0,"nextOffset":4491,"note":67,"tick":9504,"time":49.5,"type":"noteOn","velocity":68},{"channel":0,"nextOffset":4495,"note":70,"tick":9504,"time":49.5,"type":"noteOn","velocity":68},{"channel":0,"nextOffset":4499,"note":33,"tick":9528,"time":49.625,"type":"noteOff","velocity":0},{"channel":0,"nextOffset":4503,"note":33,"tick":9552,"time":49.75,"type":"noteOn","velocity":68},{"channel":0,"nextOffset":4507,"note":61,"tick":9552,"time":49.75,"type":"noteOff","velocity":0},{"channel":0,"nextOffset":4511,"note":65,"tick":9552,"time":49.75,"type":"noteOff","velocity":0},{"channel":0,"nextOffset":4515,"note":67,"tick":9552,"time":49.75,"type":"noteOff","velocity":0},{"channel":0,"nextOffset":4519,"note":70,"tick":9552,"time":49.75,"type":"noteOff","velocity":0},{"channel":0,"nextOffset":4523,"note":26,"tick":9600,"time":50,"type":"noteOn","velocity":68},{"channel":0,"nextOffset":4527,"note":33,"tick":9600,"time":50,"type":"noteOff","velocity":0},{"channel":0,"nextOffset":4531,"note":60,"tick":9600,"time":50,"type":"noteOn","velocity":68},{"channel":0,"nextOffset":4535,"note":64,"tick":9600,"time":50,"type":"noteOn","velocity":68},{"channel":0,"nextOffset":4539,"note":65,"tick":9600,"time":50,"type":"noteOn","velocity":68},{"channel":0,"nextOffset":4543,"note":69,"tick":9600,"time":50,"type":"noteOn","velocity":68},{"channel":0,"nextOffset":4547,"note":26,"tick":9648,"time":50.25,"type":"noteOff","velocity":0},{"channel":0,"nextOffset":4551,"note":60,"tick":9648,"time":50.25,"type":"noteOff","velocity":0},{"channel":0,"nextOffset":4555,"note":64,"tick":9648,"time":50.25,"type":"noteOff","velocity":0},{"channel":0,"nextOffset":4559,"note":65,"tick":9648,"time":50.25,"type":"noteOff","velocity":0},{"channel":0,"nextOffset":4563,"note":69,"tick":9648,"time":50.25,"type":"noteOff","velocity":0},{"channel":0,"nextOffset":4567,"note":26,"tick":9696,"time":50.5,"type":"noteOn","velocity":68},{"channel":0,"nextOffset":4571,"note":26,"tick":9744,"time":50.75,"type":"noteOff","velocity":0},{"channel":0,"nextOffset":4575,"note":38,"tick":9792,"time":51,"type":"noteOn","velocity":68},{"channel":0,"nextOffset":4579,"note":60,"tick":9792,"time":51,"type":"noteOn","velocity":68},{"channel":0,"nextOffset":4583,"note":64,"tick":9792,"time":51,"type":"noteOn","velocity":68},{"channel":0,"nextOffset":4587,"note":65,"tick":9792,"time":51,"type":"noteOn","velocity":68},{"channel":0,"nextOffset":4591,"note":69,"tick":9792,"time":51,"type":"noteOn","velocity":68},{"channel":0,"nextOffset":4595,"note":38,"tick":9840,"time":51.25,"type":"noteOff","velocity":0},{"channel":0,"nextOffset":4599,"note":60,"tick":9840,"time":51.25,"type":"noteOff","velocity":0},{"channel":0,"nextOffset":4603,"note":64,"tick":9840,"time":51.25,"type":"noteOff","velocity":0},{"channel":0,"nextOffset":4607,"note":65,"tick":9840,"time":51.25,"type":"noteOff","velocity":0},{"channel":0,"nextOffset":4611,"note":69,"tick":9840,"time":51.25,"type":"noteOff","velocity":0},{"channel":0,"nextOffset":4615,"note":33,"tick":9864,"time":51.375,"type":"noteOn","velocity":68},{"channel":0,"nextOffset":4619,"note":59,"tick":9888,"time":51.5,"type":"noteOn","velocity":68},{"channel":0,"nextOffset":4623,"note":63,"tick":9888,"time":51.5,"type":"noteOn","velocity":68},{"channel":0,"nextOffset":4627,"note":68,"tick":9888,"time":51.5,"type":"noteOn","velocity":68},{"channel":0,"nextOffset":4631,"note":33,"tick":9912,"time":51.625,"type":"noteOff","velocity":0},{"channel":0,"nextOffset":4635,"note":32,"tick":9936,"time":51.75,"type":"noteOn","velocity":68},{"channel":0,"nextOffset":4639,"note":59,"tick":9936,"time":51.75,"type":"noteOff","velocity":0},{"channel":0,"nextOffset":4643,"note":63,"tick":9936,"time":51.75,"type":"noteOff","velocity":0},{"channel":0,"nextOffset":4647,"note":68,"tick":9936,"time":51.75,"type":"noteOff","velocity":0},{"channel":0,"nextOffset":4651,"note":31,"tick":9984,"time":52,"type":"noteOn","velocity":68},{"channel":0,"nextOffset":4655,"note":32,"tick":9984,"time":52,"type":"noteOff","velocity":0},{"channel":0,"nextOffset":4659,"note":58,"tick":9984,"time":52,"type":"noteOn","velocity":68},{"channel":0,"nextOffset":4663,"note":62,"tick":9984,"time":52,"type":"noteOn","velocity":68},{"channel":0,"nextOffset":4667,"note":65,"tick":9984,"time":52,"type":"noteOn","velocity":68},{"channel":0,"nextOffset":4671,"note":69,"tick":9984,"time":52,"type":"noteOn","velocity":68},{"channel":0,"nextOffset":4675,"note":31,"tick":10032,"time":52.25,"type":"noteOff","velocity":0},{"channel":0,"nextOffset":4679,"note":31,"tick":10080,"time":52.5,"type":"noteOn","velocity":68},{"channel":0,"nextOffset":4683,"note":58,"tick":10080,"time":52.5,"type":"noteOff","velocity":0},{"channel":0,"nextOffset":4687,"note":62,"tick":10080,"time":52.5,"type":"noteOff","velocity":0},{"channel":0,"nextOffset":4691,"note":65,"tick":10080,"time":52.5,"type":"noteOff","velocity":0},{"channel":0,"nextOffset":4695,"note":69,"tick":10080,"time":52.5,"type":"noteOff","velocity":0},{"channel":0,"nextOffset":4699,"note":31,"tick":10128,"time":52.75,"type":"noteOff","velocity":0},{"channel":0,"nextOffset":4703,"note":33,"tick":10176,"time":53,"type":"noteOn","velocity":68},{"channel":0,"nextOffset":4707,"note":60,"tick":10176,"time":53,"type":"noteOn","velocity":68},{"channel":0,"nextOffset":4711,"note":64,"tick":10176,"time":53,"type":"noteOn","velocity":68},{"channel":0,"nextOffset":4715,"note":67,"tick":10176,"time":53,"type":"noteOn","velocity":68},{"channel":0,"nextOffset":4719,"note":72,"tick":10176,"time":53,"type":"noteOn","velocity":68},{"channel":0,"nextOffset":4723,"note":33,"tick":10224,"time":53.25,"type":"noteOff","velocity":0},{"channel":0,"nextOffset":4727,"note":60,"tick":10224,"time":53.25,"type":"noteOff","velocity":0},{"channel":0,"nextOffset":4731,"note":64,"tick":10224,"time":53.25,"type":"noteOff","velocity":0},{"channel":0,"nextOffset":4735,"note":67,"tick":10224,"time":53.25,"type":"noteOff","velocity":0},{"channel":0,"nextOffset":4739,"note":72,"tick":10224,"time":53.25,"type":"noteOff","velocity":0},{"channel":0,"nextOffset":4743,"note":33,"tick":10248,"time":53.375,"type":"noteOn","velocity":68},{"channel":0,"nextOffset":4747,"note":61,"tick":10272,"time":53.5,"type":"noteOn","velocity":68},{"channel":0,"nextOffset":4751,"note":65,"tick":10272,"time":53.5,"type":"noteOn","velocity":68},{"channel":0,"nextOffset":4755,"note":67,"tick":10272,"time":53.5,"type":"noteOn","velocity":68},{"channel":0,"nextOffset":4759,"note":70,"tick":10272,"time":53.5,"type":"noteOn","velocity":68},{"channel":0,"nextOffset":4763,"note":33,"tick":10296,"time":53.625,"type":"noteOff","velocity":0},{"channel":0,"nextOffset":4767,"note":33,"tick":10320,"time":53.75,"type":"noteOn","velocity":68},{"channel":0,"nextOffset":4771,"note":61,"tick":10320,"time":53.75,"type":"noteOff","velocity":0},{"channel":0,"nextOffset":4775,"note":65,"tick":10320,"time":53.75,"type":"noteOff","velocity":0},{"channel":0,"nextOffset":4779,"note":67,"tick":10320,"time":53.75,"type":"noteOff","velocity":0},{"channel":0,"nextOffset":4783,"note":70,"tick":10320,"time":53.75,"type":"noteOff","velocity":0},{"channel":0,"nextOffset":4787,"note":26,"tick":10368,"time":54,"type":"noteOn","velocity":68},{"channel":0,"nextOffset":4791,"note":33,"tick":10368,"time":54,"type":"noteOff","velocity":0},{"channel":0,"nextOffset":4795,"note":60,"tick":10368,"time":54,"type":"noteOn","velocity":68},{"channel":0,"nextOffset":4799,"note":64,"tick":10368,"time":54,"type":"noteOn","velocity":68},{"channel":0,"nextOffset":4803,"note":65,"tick":10368,"time":54,"type":"noteOn","velocity":68},{"channel":0,"nextOffset":4807,"note":69,"tick":10368,"time":54,"type":"noteOn","velocity":68},{"channel":0,"nextOffset":4811,"note":26,"tick":10416,"time":54.25,"type":"noteOff","velocity":0},{"channel":0,"nextOffset":4815,"note":60,"tick":10416,"time":54.25,"type":"noteOff","velocity":0},{"channel":0,"nextOffset":4819,"note":64,"tick":10416,"time":54.25,"type":"noteOff","velocity":0},{"channel":0,"nextOffset":4823,"note":65,"tick":10416,"time":54.25,"type":"noteOff","velocity":0},{"channel":0,"nextOffset":4827,"note":69,"tick":10416,"time":54.25,"type":"noteOff","velocity":0},{"channel":0,"nextOffset":4831,"note":26,"tick":10464,"time":54.5,"type":"noteOn","velocity":68},{"channel":0,"nextOffset":4835,"note":26,"tick":10512,"time":54.75,"type":"noteOff","velocity":0},{"channel":0,"nextOffset":4839,"note":38,"tick":10560,"time":55,"type":"noteOn","velocity":68},{"channel":0,"nextOffset":4843,"note":60,"tick":10560,"time":55,"type":"noteOn","velocity":68},{"channel":0,"nextOffset":4847,"note":64,"tick":10560,"time":55,"type":"noteOn","velocity":68},{"channel":0,"nextOffset":4851,"note":65,"tick":10560,"time":55,"type":"noteOn","velocity":68},{"channel":0,"nextOffset":4855,"note":69,"tick":10560,"time":55,"type":"noteOn","velocity":68},{"channel":0,"nextOffset":4859,"note":38,"tick":10608,"time":55.25,"type":"noteOff","velocity":0},{"channel":0,"nextOffset":4863,"note":60,"tick":10608,"time":55.25,"type":"noteOff","velocity":0},{"channel":0,"nextOffset":4867,"note":64,"tick":10608,"time":55.25,"type":"noteOff","velocity":0},{"channel":0,"nextOffset":4871,"note":65,"tick":10608,"time":55.25,"type":"noteOff","velocity":0},{"channel":0,"nextOffset":4875,"note":69,"tick":10608,"time":55.25,"type":"noteOff","velocity":0},{"channel":0,"nextOffset":4879,"note":33,"tick":10632,"time":55.375,"type":"noteOn","velocity":68},{"channel":0,"nextOffset":4883,"note":59,"tick":10656,"time":55.5,"type":"noteOn","velocity":68},{"channel":0,"nextOffset":4887,"note":63,"tick":10656,"time":55.5,"type":"noteOn","velocity":68},{"channel":0,"nextOffset":4891,"note":68,"tick":10656,"time":55.5,"type":"noteOn","velocity":68},{"channel":0,"nextOffset":4895,"note":33,"tick":10680,"time":55.625,"type":"noteOff","velocity":0},{"channel":0,"nextOffset":4899,"note":32,"tick":10704,"time":55.75,"type":"noteOn","velocity":68},{"channel":0,"nextOffset":4903,"note":59,"tick":10704,"time":55.75,"type":"noteOff","velocity":0},{"channel":0,"nextOffset":4907,"note":63,"tick":10704,"time":55.75,"type":"noteOff","velocity":0},{"channel":0,"nextOffset":4911,"note":68,"tick":10704,"time":55.75,"type":"noteOff","velocity":0},{"channel":0,"nextOffset":4915,"note":31,"tick":10752,"time":56,"type":"noteOn","velocity":68},{"channel":0,"nextOffset":4919,"note":32,"tick":10752,"time":56,"type":"noteOff","velocity":0},{"channel":0,"nextOffset":4923,"note":58,"tick":10752,"time":56,"type":"noteOn","velocity":68},{"channel":0,"nextOffset":4927,"note":62,"tick":10752,"time":56,"type":"noteOn","velocity":68},{"channel":0,"nextOffset":4931,"note":65,"tick":10752,"time":56,"type":"noteOn","velocity":68},{"channel":0,"nextOffset":4935,"note":69,"tick":10752,"time":56,"type":"noteOn","velocity":68},{"channel":0,"nextOffset":4939,"note":31,"tick":10800,"time":56.25,"type":"noteOff","velocity":0},{"channel":0,"nextOffset":4943,"note":31,"tick":10848,"time":56.5,"type":"noteOn","velocity":68},{"channel":0,"nextOffset":4947,"note":58,"tick":10848,"time":56.5,"type":"noteOff","velocity":0},{"channel":0,"nextOffset":4951,"note":62,"tick":10848,"time":56.5,"type":"noteOff","velocity":0},{"channel":0,"nextOffset":4955,"note":65,"tick":10848,"time":56.5,"type":"noteOff","velocity":0},{"channel":0,"nextOffset":4959,"note":69,"tick":10848,"time":56.5,"type":"noteOff","velocity":0},{"channel":0,"nextOffset":4963,"note":31,"tick":10896,"time":56.75,"type":"noteOff","velocity":0},{"channel":0,"nextOffset":4967,"note":33,"tick":10944,"time":57,"type":"noteOn","velocity":68},{"channel":0,"nextOffset":4971,"note":60,"tick":10944,"time":57,"type":"noteOn","velocity":68},{"channel":0,"nextOffset":4975,"note":64,"tick":10944,"time":57,"type":"noteOn","velocity":68},{"channel":0,"nextOffset":4979,"note":67,"tick":10944,"time":57,"type":"noteOn","velocity":68},{"channel":0,"nextOffset":4983,"note":72,"tick":10944,"time":57,"type":"noteOn","velocity":68},{"channel":0,"nextOffset":4987,"note":33,"tick":10992,"time":57.25,"type":"noteOff","velocity":0},{"channel":0,"nextOffset":4991,"note":60,"tick":10992,"time":57.25,"type":"noteOff","velocity":0},{"channel":0,"nextOffset":4995,"note":64,"tick":10992,"time":57.25,"type":"noteOff","velocity":0},{"channel":0,"nextOffset":4999,"note":67,"tick":10992,"time":57.25,"type":"noteOff","velocity":0},{"channel":0,"nextOffset":5003,"note":72,"tick":10992,"time":57.25,"type":"noteOff","velocity":0},{"channel":0,"nextOffset":5007,"note":33,"tick":11016,"time":57.375,"type":"noteOn","velocity":68},{"channel":0,"nextOffset":5011,"note":61,"tick":11040,"time":57.5,"type":"noteOn","velocity":68},{"channel":0,"nextOffset":5015,"note":65,"tick":11040,"time":57.5,"type":"noteOn","velocity":68},{"channel":0,"nextOffset":5019,"note":67,"tick":11040,"time":57.5,"type":"noteOn","velocity":68},{"channel":0,"nextOffset":5023,"note":70,"tick":11040,"time":57.5,"type":"noteOn","velocity":68},{"channel":0,"nextOffset":5027,"note":33,"tick":11064,"time":57.625,"type":"noteOff","velocity":0},{"channel":0,"nextOffset":5031,"note":33,"tick":11088,"time":57.75,"type":"noteOn","velocity":68},{"channel":0,"nextOffset":5035,"note":61,"tick":11088,"time":57.75,"type":"noteOff","velocity":0},{"channel":0,"nextOffset":5039,"note":65,"tick":11088,"time":57.75,"type":"noteOff","velocity":0},{"channel":0,"nextOffset":5043,"note":67,"tick":11088,"time":57.75,"type":"noteOff","velocity":0},{"channel":0,"nextOffset":5047,"note":70,"tick":11088,"time":57.75,"type":"noteOff","velocity":0},{"channel":0,"nextOffset":5051,"note":26,"tick":11136,"time":58,"type":"noteOn","velocity":68},{"channel":0,"nextOffset":5055,"note":33,"tick":11136,"time":58,"type":"noteOff","velocity":0},{"channel":0,"nextOffset":5059,"note":60,"tick":11136,"time":58,"type":"noteOn","velocity":68},{"channel":0,"nextOffset":5063,"note":64,"tick":11136,"time":58,"type":"noteOn","velocity":68},{"channel":0,"nextOffset":5067,"note":65,"tick":11136,"time":58,"type":"noteOn","velocity":68},{"channel":0,"nextOffset":5071,"note":69,"tick":11136,"time":58,"type":"noteOn","velocity":68},{"channel":0,"nextOffset":5075,"note":26,"tick":11184,"time":58.25,"type":"noteOff","velocity":0},{"channel":0,"nextOffset":5079,"note":60,"tick":11184,"time":58.25,"type":"noteOff","velocity":0},{"channel":0,"nextOffset":5083,"note":64,"tick":11184,"time":58.25,"type":"noteOff","velocity":0},{"channel":0,"nextOffset":5087,"note":65,"tick":11184,"time":58.25,"type":"noteOff","velocity":0},{"channel":0,"nextOffset":5091,"note":69,"tick":11184,"time":58.25,"type":"noteOff","velocity":0},{"channel":0,"nextOffset":5095,"note":26,"tick":11232,"time":58.5,"type":"noteOn","velocity":68},{"channel":0,"nextOffset":5099,"note":26,"tick":11280,"time":58.75,"type":"noteOff","velocity":0},{"channel":0,"nextOffset":5103,"note":38,"tick":11328,"time":59,"type":"noteOn","velocity":68},{"channel":0,"nextOffset":5107,"note":60,"tick":11328,"time":59,"type":"noteOn","velocity":68},{"channel":0,"nextOffset":5111,"note":64,"tick":11328,"time":59,"type":"noteOn","velocity":68},{"channel":0,"nextOffset":5115,"note":65,"tick":11328,"time":59,"type":"noteOn","velocity":68},{"channel":0,"nextOffset":5119,"note":69,"tick":11328,"time":59,"type":"noteOn","velocity":68},{"channel":0,"nextOffset":5123,"note":38,"tick":11376,"time":59.25,"type":"noteOff","velocity":0},{"channel":0,"nextOffset":5127,"note":60,"tick":11376,"time":59.25,"type":"noteOff","velocity":0},{"channel":0,"nextOffset":5131,"note":64,"tick":11376,"time":59.25,"type":"noteOff","velocity":0},{"channel":0,"nextOffset":5135,"note":65,"tick":11376,"time":59.25,"type":"noteOff","velocity":0},{"channel":0,"nextOffset":5139,"note":69,"tick":11376,"time":59.25,"type":"noteOff","velocity":0},{"channel":0,"nextOffset":5143,"note":33,"tick":11400,"time":59.375,"type":"noteOn","velocity":68},{"channel":0,"nextOffset":5147,"note":59,"tick":11424,"time":59.5,"type":"noteOn","velocity":68},{"channel":0,"nextOffset":5151,"note":63,"tick":11424,"time":59.5,"type":"noteOn","velocity":68},{"channel":0,"nextOffset":5155,"note":68,"tick":11424,"time":59.5,"type":"noteOn","velocity":68},{"channel":0,"nextOffset":5159,"note":33,"tick":11448,"time":59.625,"type":"noteOff","velocity":0},{"channel":0,"nextOffset":5163,"note":32,"tick":11472,"time":59.75,"type":"noteOn","velocity":68},{"channel":0,"nextOffset":5167,"note":59,"tick":11472,"time":59.75,"type":"noteOff","velocity":0},{"channel":0,"nextOffset":5171,"note":63,"tick":11472,"time":59.75,"type":"noteOff","velocity":0},{"channel":0,"nextOffset":5175,"note":68,"tick":11472,"time":59.75,"type":"noteOff","velocity":0},{"channel":0,"nextOffset":5179,"note":31,"tick":11520,"time":60,"type":"noteOn","velocity":68},{"channel":0,"nextOffset":5183,"note":32,"tick":11520,"time":60,"type":"noteOff","velocity":0},{"channel":0,"nextOffset":5187,"note":58,"tick":11520,"time":60,"type":"noteOn","velocity":68},{"channel":0,"nextOffset":5191,"note":62,"tick":11520,"time":60,"type":"noteOn","velocity":68},{"channel":0,"nextOffset":5195,"note":65,"tick":11520,"time":60,"type":"noteOn","velocity":68},{"channel":0,"nextOffset":5199,"note":69,"tick":11520,"time":60,"type":"noteOn","velocity":68},{"channel":0,"nextOffset":5203,"note":31,"tick":11568,"time":60.25,"type":"noteOff","velocity":0},{"channel":0,"nextOffset":5207,"note":31,"tick":11616,"time":60.5,"type":"noteOn","velocity":68},{"channel":0,"nextOffset":5211,"note":58,"tick":11616,"time":60.5,"type":"noteOff","velocity":0},{"channel":0,"nextOffset":5215,"note":62,"tick":11616,"time":60.5,"type":"noteOff","velocity":0},{"channel":0,"nextOffset":5219,"note":65,"tick":11616,"time":60.5,"type":"noteOff","velocity":0},{"channel":0,"nextOffset":5223,"note":69,"tick":11616,"time":60.5,"type":"noteOff","velocity":0},{"channel":0,"nextOffset":5227,"note":31,"tick":11664,"time":60.75,"type":"noteOff","velocity":0},{"channel":0,"nextOffset":5231,"note":33,"tick":11712,"time":61,"type":"noteOn","velocity":68},{"channel":0,"nextOffset":5235,"note":60,"tick":11712,"time":61,"type":"noteOn","velocity":68},{"channel":0,"nextOffset":5239,"note":64,"tick":11712,"time":61,"type":"noteOn","velocity":68},{"channel":0,"nextOffset":5243,"note":67,"tick":11712,"time":61,"type":"noteOn","velocity":68},{"channel":0,"nextOffset":5247,"note":72,"tick":11712,"time":61,"type":"noteOn","velocity":68},{"channel":0,"nextOffset":5251,"note":33,"tick":11760,"time":61.25,"type":"noteOff","velocity":0},{"channel":0,"nextOffset":5255,"note":60,"tick":11760,"time":61.25,"type":"noteOff","velocity":0},{"channel":0,"nextOffset":5259,"note":64,"tick":11760,"time":61.25,"type":"noteOff","velocity":0},{"channel":0,"nextOffset":5263,"note":67,"tick":11760,"time":61.25,"type":"noteOff","velocity":0},{"channel":0,"nextOffset":5267,"note":72,"tick":11760,"time":61.25,"type":"noteOff","velocity":0},{"channel":0,"nextOffset":5271,"note":33,"tick":11784,"time":61.375,"type":"noteOn","velocity":68},{"channel":0,"nextOffset":5275,"note":61,"tick":11808,"time":61.5,"type":"noteOn","velocity":68},{"channel":0,"nextOffset":5279,"note":65,"tick":11808,"time":61.5,"type":"noteOn","velocity":68},{"channel":0,"nextOffset":5283,"note":67,"tick":11808,"time":61.5,"type":"noteOn","velocity":68},{"channel":0,"nextOffset":5287,"note":70,"tick":11808,"time":61.5,"type":"noteOn","velocity":68},{"channel":0,"nextOffset":5291,"note":33,"tick":11832,"time":61.625,"type":"noteOff","velocity":0},{"channel":0,"nextOffset":5295,"note":33,"tick":11856,"time":61.75,"type":"noteOn","velocity":68},{"channel":0,"nextOffset":5299,"note":61,"tick":11856,"time":61.75,"type":"noteOff","velocity":0},{"channel":0,"nextOffset":5303,"note":65,"tick":11856,"time":61.75,"type":"noteOff","velocity":0},{"channel":0,"nextOffset":5307,"note":67,"tick":11856,"time":61.75,"type":"noteOff","velocity":0},{"channel":0,"nextOffset":5311,"note":70,"tick":11856,"time":61.75,"type":"noteOff","velocity":0},{"channel":0,"nextOffset":5315,"note":26,"tick":11904,"time":62,"type":"noteOn","velocity":68},{"channel":0,"nextOffset":5319,"note":33,"tick":11904,"time":62,"type":"noteOff","velocity":0},{"channel":0,"nextOffset":5323,"note":60,"tick":11904,"time":62,"type":"noteOn","velocity":68},{"channel":0,"nextOffset":5327,"note":64,"tick":11904,"time":62,"type":"noteOn","velocity":68},{"channel":0,"nextOffset":5331,"note":65,"tick":11904,"time":62,"type":"noteOn","velocity":68},{"channel":0,"nextOffset":5335,"note":69,"tick":11904,"time":62,"type":"noteOn","velocity":68},{"channel":0,"nextOffset":5339,"note":26,"tick":11952,"time":62.25,"type":"noteOff","velocity":0},{"channel":0,"nextOffset":5343,"note":60,"tick":11952,"time":62.25,"type":"noteOff","velocity":0},{"channel":0,"nextOffset":5347,"note":64,"tick":11952,"time":62.25,"type":"noteOff","velocity":0},{"channel":0,"nextOffset":5351,"note":65,"tick":11952,"time":62.25,"type":"noteOff","velocity":0},{"channel":0,"nextOffset":5355,"note":69,"tick":11952,"time":62.25,"type":"noteOff","velocity":0},{"channel":0,"nextOffset":5359,"note":26,"tick":12000,"time":62.5,"type":"noteOn","velocity":68},{"channel":0,"nextOffset":5363,"note":26,"tick":12048,"time":62.75,"type":"noteOff","velocity":0},{"channel":0,"nextOffset":5367,"note":38,"tick":12096,"time":63,"type":"noteOn","velocity":68},{"channel":0,"nextOffset":5371,"note":60,"tick":12096,"time":63,"type":"noteOn","velocity":68},{"channel":0,"nextOffset":5375,"note":64,"tick":12096,"time":63,"type":"noteOn","velocity":68},{"channel":0,"nextOffset":5379,"note":65,"tick":12096,"time":63,"type":"noteOn","velocity":68},{"channel":0,"nextOffset":5383,"note":69,"tick":12096,"time":63,"type":"noteOn","velocity":68},{"channel":0,"nextOffset":5387,"note":38,"tick":12144,"time":63.25,"type":"noteOff","velocity":0},{"channel":0,"nextOffset":5391,"note":60,"tick":12144,"time":63.25,"type":"noteOff","velocity":0},{"channel":0,"nextOffset":5395,"note":64,"tick":12144,"time":63.25,"type":"noteOff","velocity":0},{"channel":0,"nextOffset":5399,"note":65,"tick":12144,"time":63.25,"type":"noteOff","velocity":0},{"channel":0,"nextOffset":5403,"note":69,"tick":12144,"time":63.25,"type":"noteOff","velocity":0},{"channel":0,"nextOffset":5407,"note":33,"tick":12168,"time":63.375,"type":"noteOn","velocity":68},{"channel":0,"nextOffset":5411,"note":59,"tick":12192,"time":63.5,"type":"noteOn","velocity":68},{"channel":0,"nextOffset":5415,"note":63,"tick":12192,"time":63.5,"type":"noteOn","velocity":68},{"channel":0,"nextOffset":5419,"note":68,"tick":12192,"time":63.5,"type":"noteOn","velocity":68},{"channel":0,"nextOffset":5423,"note":33,"tick":12216,"time":63.625,"type":"noteOff","velocity":0},{"channel":0,"nextOffset":5427,"note":32,"tick":12240,"time":63.75,"type":"noteOn","velocity":68},{"channel":0,"nextOffset":5431,"note":59,"tick":12240,"time":63.75,"type":"noteOff","velocity":0},{"channel":0,"nextOffset":5435,"note":63,"tick":12240,"time":63.75,"type":"noteOff","velocity":0},{"channel":0,"nextOffset":5439,"note":68,"tick":12240,"time":63.75,"type":"noteOff","velocity":0},{"channel":0,"nextOffset":5443,"note":31,"tick":12288,"time":64,"type":"noteOn","velocity":68},{"channel":0,"nextOffset":5447,"note":32,"tick":12288,"time":64,"type":"noteOff","velocity":0},{"channel":0,"nextOffset":5451,"note":58,"tick":12288,"time":64,"type":"noteOn","velocity":68},{"channel":0,"nextOffset":5455,"note":62,"tick":12288,"time":64,"type":"noteOn","velocity":68},{"channel":0,"nextOffset":5459,"note":65,"tick":12288,"time":64,"type":"noteOn","velocity":68},{"channel":0,"nextOffset":5463,"note":69,"tick":12288,"time":64,"type":"noteOn","velocity":68},{"channel":0,"nextOffset":5467,"note":31,"tick":12336,"time":64.25,"type":"noteOff","velocity":0},{"channel":0,"nextOffset":5471,"note":31,"tick":12384,"time":64.5,"type":"noteOn","velocity":68},{"channel":0,"nextOffset":5475,"note":58,"tick":12384,"time":64.5,"type":"noteOff","velocity":0},{"channel":0,"nextOffset":5479,"note":62,"tick":12384,"time":64.5,"type":"noteOff","velocity":0},{"channel":0,"nextOffset":5483,"note":65,"tick":12384,"time":64.5,"type":"noteOff","velocity":0},{"channel":0,"nextOffset":5487,"note":69,"tick":12384,"time":64.5,"type":"noteOff","velocity":0},{"channel":0,"nextOffset":5491,"note":31,"tick":12432,"time":64.75,"type":"noteOff","velocity":0},{"channel":0,"nextOffset":5495,"note":33,"tick":12480,"time":65,"type":"noteOn","velocity":68},{"channel":0,"nextOffset":5499,"note":60,"tick":12480,"time":65,"type":"noteOn","velocity":68},{"channel":0,"nextOffset":5503,"note":64,"tick":12480,"time":65,"type":"noteOn","velocity":68},{"channel":0,"nextOffset":5507,"note":67,"tick":12480,"time":65,"type":"noteOn","velocity":68},{"channel":0,"nextOffset":5511,"note":72,"tick":12480,"time":65,"type":"noteOn","velocity":68},{"channel":0,"nextOffset":5515,"note":33,"tick":12528,"time":65.25,"type":"noteOff","velocity":0},{"channel":0,"nextOffset":5519,"note":60,"tick":12528,"time":65.25,"type":"noteOff","velocity":0},{"channel":0,"nextOffset":5523,"note":64,"tick":12528,"time":65.25,"type":"noteOff","velocity":0},{"channel":0,"nextOffset":5527,"note":67,"tick":12528,"time":65.25,"type":"noteOff","velocity":0},{"channel":0,"nextOffset":5531,"note":72,"tick":12528,"time":65.25,"type":"noteOff","velocity":0},{"channel":0,"nextOffset":5535,"note":33,"tick":12552,"time":65.375,"type":"noteOn","velocity":68},{"channel":0,"nextOffset":5539,"note":61,"tick":12576,"time":65.5,"type":"noteOn","velocity":68},{"channel":0,"nextOffset":5543,"note":65,"tick":12576,"time":65.5,"type":"noteOn","velocity":68},{"channel":0,"nextOffset":5547,"note":67,"tick":12576,"time":65.5,"type":"noteOn","velocity":68},{"channel":0,"nextOffset":5551,"note":70,"tick":12576,"time":65.5,"type":"noteOn","velocity":68},{"channel":0,"nextOffset":5555,"note":33,"tick":12600,"time":65.625,"type":"noteOff","velocity":0},{"channel":0,"nextOffset":5559,"note":33,"tick":12624,"time":65.75,"type":"noteOn","velocity":68},{"channel":0,"nextOffset":5563,"note":61,"tick":12624,"time":65.75,"type":"noteOff","velocity":0},{"channel":0,"nextOffset":5567,"note":65,"tick":12624,"time":65.75,"type":"noteOff","velocity":0},{"channel":0,"nextOffset":5571,"note":67,"tick":12624,"time":65.75,"type":"noteOff","velocity":0},{"channel":0,"nextOffset":5575,"note":70,"tick":12624,"time":65.75,"type":"noteOff","velocity":0},{"channel":0,"nextOffset":5579,"note":26,"tick":12672,"time":66,"type":"noteOn","velocity":68},{"channel":0,"nextOffset":5583,"note":33,"tick":12672,"time":66,"type":"noteOff","velocity":0},{"channel":0,"nextOffset":5587,"note":60,"tick":12672,"time":66,"type":"noteOn","velocity":68},{"channel":0,"nextOffset":5591,"note":64,"tick":12672,"time":66,"type":"noteOn","velocity":68},{"channel":0,"nextOffset":5595,"note":65,"tick":12672,"time":66,"type":"noteOn","velocity":68},{"channel":0,"nextOffset":5599,"note":69,"tick":12672,"time":66,"type":"noteOn","velocity":68},{"channel":0,"nextOffset":5603,"note":26,"tick":12720,"time":66.25,"type":"noteOff","velocity":0},{"channel":0,"nextOffset":5607,"note":60,"tick":12720,"time":66.25,"type":"noteOff","velocity":0},{"channel":0,"nextOffset":5611,"note":64,"tick":12720,"time":66.25,"type":"noteOff","velocity":0},{"channel":0,"nextOffset":5615,"note":65,"tick":12720,"time":66.25,"type":"noteOff","velocity":0},{"channel":0,"nextOffset":5619,"note":69,"tick":12720,"time":66.25,"type":"noteOff","velocity":0},{"channel":0,"nextOffset":5623,"note":26,"tick":12768,"time":66.5,"type":"noteOn","velocity":68},{"channel":0,"nextOffset":5627,"note":26,"tick":12816,"time":66.75,"type":"noteOff","velocity":0},{"channel":0,"nextOffset":5631,"note":38,"tick":12864,"time":67,"type":"noteOn","velocity":68},{"channel":0,"nextOffset":5635,"note":60,"tick":12864,"time":67,"type":"noteOn","velocity":68},{"channel":0,"nextOffset":5639,"note":64,"tick":12864,"time":67,"type":"noteOn","velocity":68},{"channel":0,"nextOffset":5643,"note":65,"tick":12864,"time":67,"type":"noteOn","velocity":68},{"channel":0,"nextOffset":5647,"note":69,"tick":12864,"time":67,"type":"noteOn","velocity":68},{"channel":0,"nextOffset":5651,"note":38,"tick":12912,"time":67.25,"type":"noteOff","velocity":0},{"channel":0,"nextOffset":5655,"note":60,"tick":12912,"time":67.25,"type":"noteOff","velocity":0},{"channel":0,"nextOffset":5659,"note":64,"tick":12912,"time":67.25,"type":"noteOff","velocity":0},{"channel":0,"nextOffset":5663,"note":65,"tick":12912,"time":67.25,"type":"noteOff","velocity":0},{"channel":0,"nextOffset":5667,"note":69,"tick":12912,"time":67.25,"type":"noteOff","velocity":0},{"channel":0,"nextOffset":5671,"note":33,"tick":12936,"time":67.375,"type":"noteOn","velocity":68},{"channel":0,"nextOffset":5675,"note":59,"tick":12960,"time":67.5,"type":"noteOn","velocity":68},{"channel":0,"nextOffset":5679,"note":63,"tick":12960,"time":67.5,"type":"noteOn","velocity":68},{"channel":0,"nextOffset":5683,"note":68,"tick":12960,"time":67.5,"type":"noteOn","velocity":68},{"channel":0,"nextOffset":5687,"note":33,"tick":12984,"time":67.625,"type":"noteOff","velocity":0},{"channel":0,"nextOffset":5691,"note":32,"tick":13008,"time":67.75,"type":"noteOn","velocity":68},{"channel":0,"nextOffset":5695,"note":59,"tick":13008,"time":67.75,"type":"noteOff","velocity":0},{"channel":0,"nextOffset":5699,"note":63,"tick":13008,"time":67.75,"type":"noteOff","velocity":0},{"channel":0,"nextOffset":5703,"note":68,"tick":13008,"time":67.75,"type":"noteOff","velocity":0},{"channel":0,"nextOffset":5707,"note":31,"tick":13056,"time":68,"type":"noteOn","velocity":68},{"channel":0,"nextOffset":5711,"note":32,"tick":13056,"time":68,"type":"noteOff","velocity":0},{"channel":0,"nextOffset":5715,"note":58,"tick":13056,"time":68,"type":"noteOn","velocity":68},{"channel":0,"nextOffset":5719,"note":62,"tick":13056,"time":68,"type":"noteOn","velocity":68},{"channel":0,"nextOffset":5723,"note":65,"tick":13056,"time":68,"type":"noteOn","velocity":68},{"channel":0,"nextOffset":5727,"note":69,"tick":13056,"time":68,"type":"noteOn","velocity":68},{"channel":0,"nextOffset":5731,"note":31,"tick":13104,"time":68.25,"type":"noteOff","velocity":0},{"channel":0,"nextOffset":5735,"note":31,"tick":13152,"time":68.5,"type":"noteOn","velocity":68},{"channel":0,"nextOffset":5739,"note":58,"tick":13152,"time":68.5,"type":"noteOff","velocity":0},{"channel":0,"nextOffset":5743,"note":62,"tick":13152,"time":68.5,"type":"noteOff","velocity":0},{"channel":0,"nextOffset":5747,"note":65,"tick":13152,"time":68.5,"type":"noteOff","velocity":0},{"channel":0,"nextOffset":5751,"note":69,"tick":13152,"time":68.5,"type":"noteOff","velocity":0},{"channel":0,"nextOffset":5755,"note":31,"tick":13200,"time":68.75,"type":"noteOff","velocity":0},{"channel":0,"nextOffset":5759,"note":33,"tick":13248,"time":69,"type":"noteOn","velocity":68},{"channel":0,"nextOffset":5763,"note":60,"tick":13248,"time":69,"type":"noteOn","velocity":68},{"channel":0,"nextOffset":5767,"note":64,"tick":13248,"time":69,"type":"noteOn","velocity":68},{"channel":0,"nextOffset":5771,"note":67,"tick":13248,"time":69,"type":"noteOn","velocity":68},{"channel":0,"nextOffset":5775,"note":72,"tick":13248,"time":69,"type":"noteOn","velocity":68},{"channel":0,"nextOffset":5779,"note":33,"tick":13296,"time":69.25,"type":"noteOff","velocity":0},{"channel":0,"nextOffset":5783,"note":60,"tick":13296,"time":69.25,"type":"noteOff","velocity":0},{"channel":0,"nextOffset":5787,"note":64,"tick":13296,"time":69.25,"type":"noteOff","velocity":0},{"channel":0,"nextOffset":5791,"note":67,"tick":13296,"time":69.25,"type":"noteOff","velocity":0},{"channel":0,"nextOffset":5795,"note":72,"tick":13296,"time":69.25,"type":"noteOff","velocity":0},{"channel":0,"nextOffset":5799,"note":33,"tick":13320,"time":69.375,"type":"noteOn","velocity":68},{"channel":0,"nextOffset":5803,"note":61,"tick":13344,"time":69.5,"type":"noteOn","velocity":68},{"channel":0,"nextOffset":5807,"note":65,"tick":13344,"time":69.5,"type":"noteOn","velocity":68},{"channel":0,"nextOffset":5811,"note":67,"tick":13344,"time":69.5,"type":"noteOn","velocity":68},{"channel":0,"nextOffset":5815,"note":70,"tick":13344,"time":69.5,"type":"noteOn","velocity":68},{"channel":0,"nextOffset":5819,"note":33,"tick":13368,"time":69.625,"type":"noteOff","velocity":0},{"channel":0,"nextOffset":5823,"note":33,"tick":13392,"time":69.75,"type":"noteOn","velocity":68},{"channel":0,"nextOffset":5827,"note":61,"tick":13392,"time":69.75,"type":"noteOff","velocity":0},{"channel":0,"nextOffset":5831,"note":65,"tick":13392,"time":69.75,"type":"noteOff","velocity":0},{"channel":0,"nextOffset":5835,"note":67,"tick":13392,"time":69.75,"type":"noteOff","velocity":0},{"channel":0,"nextOffset":5839,"note":70,"tick":13392,"time":69.75,"type":"noteOff","velocity":0},{"channel":0,"nextOffset":5843,"note":26,"tick":13440,"time":70,"type":"noteOn","velocity":68},{"channel":0,"nextOffset":5847,"note":33,"tick":13440,"time":70,"type":"noteOff","velocity":0},{"channel":0,"nextOffset":5851,"note":60,"tick":13440,"time":70,"type":"noteOn","velocity":68},{"channel":0,"nextOffset":5855,"note":64,"tick":13440,"time":70,"type":"noteOn","velocity":68},{"channel":0,"nextOffset":5859,"note":65,"tick":13440,"time":70,"type":"noteOn","velocity":68},{"channel":0,"nextOffset":5863,"note":69,"tick":13440,"time":70,"type":"noteOn","velocity":68},{"channel":0,"nextOffset":5867,"note":26,"tick":13488,"time":70.25,"type":"noteOff","velocity":0},{"channel":0,"nextOffset":5871,"note":60,"tick":13488,"time":70.25,"type":"noteOff","velocity":0},{"channel":0,"nextOffset":5875,"note":64,"tick":13488,"time":70.25,"type":"noteOff","velocity":0},{"channel":0,"nextOffset":5879,"note":65,"tick":13488,"time":70.25,"type":"noteOff","velocity":0},{"channel":0,"nextOffset":5883,"note":69,"tick":13488,"time":70.25,"type":"noteOff","velocity":0},{"channel":0,"nextOffset":5887,"note":26,"tick":13536,"time":70.5,"type":"noteOn","velocity":68},{"channel":0,"nextOffset":5891,"note":26,"tick":13584,"time":70.75,"type":"noteOff","velocity":0},{"channel":0,"nextOffset":5895,"note":38,"tick":13632,"time":71,"type":"noteOn","velocity":68},{"channel":0,"nextOffset":5899,"note":60,"tick":13632,"time":71,"type":"noteOn","velocity":68},{"channel":0,"nextOffset":5903,"note":64,"tick":13632,"time":71,"type":"noteOn","velocity":68},{"channel":0,"nextOffset":5907,"note":65,"tick":13632,"time":71,"type":"noteOn","velocity":68},{"channel":0,"nextOffset":5911,"note":69,"tick":13632,"time":71,"type":"noteOn","velocity":68},{"channel":0,"nextOffset":5915,"note":38,"tick":13680,"time":71.25,"type":"noteOff","velocity":0},{"channel":0,"nextOffset":5919,"note":60,"tick":13680,"time":71.25,"type":"noteOff","velocity":0},{"channel":0,"nextOffset":5923,"note":64,"tick":13680,"time":71.25,"type":"noteOff","velocity":0},{"channel":0,"nextOffset":5927,"note":65,"tick":13680,"time":71.25,"type":"noteOff","velocity":0},{"channel":0,"nextOffset":5931,"note":69,"tick":13680,"time":71.25,"type":"noteOff","velocity":0},{"channel":0,"nextOffset":5935,"note":33,"tick":13704,"time":71.375,"type":"noteOn","velocity":68},{"channel":0,"nextOffset":5939,"note":59,"tick":13728,"time":71.5,"type":"noteOn","velocity":68},{"channel":0,"nextOffset":5943,"note":63,"tick":13728,"time":71.5,"type":"noteOn","velocity":68},{"channel":0,"nextOffset":5947,"note":68,"tick":13728,"time":71.5,"type":"noteOn","velocity":68},{"channel":0,"nextOffset":5951,"note":33,"tick":13752,"time":71.625,"type":"noteOff","velocity":0},{"channel":0,"nextOffset":5955,"note":32,"tick":13776,"time":71.75,"type":"noteOn","velocity":68},{"channel":0,"nextOffset":5959,"note":59,"tick":13776,"time":71.75,"type":"noteOff","velocity":0},{"channel":0,"nextOffset":5963,"note":63,"tick":13776,"time":71.75,"type":"noteOff","velocity":0},{"channel":0,"nextOffset":5967,"note":68,"tick":13776,"time":71.75,"type":"noteOff","velocity":0},{"channel":0,"nextOffset":5971,"note":31,"tick":13824,"time":72,"type":"noteOn","velocity":68},{"channel":0,"nextOffset":5975,"note":32,"tick":13824,"time":72,"type":"noteOff","velocity":0},{"channel":0,"nextOffset":5979,"note":58,"tick":13824,"time":72,"type":"noteOn","velocity":68},{"channel":0,"nextOffset":5983,"note":62,"tick":13824,"time":72,"type":"noteOn","velocity":68},{"channel":0,"nextOffset":5987,"note":65,"tick":13824,"time":72,"type":"noteOn","velocity":68},{"channel":0,"nextOffset":5991,"note":69,"tick":13824,"time":72,"type":"noteOn","velocity":68},{"channel":0,"nextOffset":5995,"note":31,"tick":13872,"time":72.25,"type":"noteOff","velocity":0},{"channel":0,"nextOffset":5999,"note":31,"tick":13920,"time":72.5,"type":"noteOn","velocity":68},{"channel":0,"nextOffset":6003,"note":58,"tick":13920,"time":72.5,"type":"noteOff","velocity":0},{"channel":0,"nextOffset":6007,"note":62,"tick":13920,"time":72.5,"type":"noteOff","velocity":0},{"channel":0,"nextOffset":6011,"note":65,"tick":13920,"time":72.5,"type":"noteOff","velocity":0},{"channel":0,"nextOffset":6015,"note":69,"tick":13920,"time":72.5,"type":"noteOff","velocity":0},{"channel":0,"nextOffset":6019,"note":31,"tick":13968,"time":72.75,"type":"noteOff","velocity":0},{"channel":0,"nextOffset":6023,"note":33,"tick":14016,"time":73,"type":"noteOn","velocity":68},{"channel":0,"nextOffset":6027,"note":60,"tick":14016,"time":73,"type":"noteOn","velocity":68},{"channel":0,"nextOffset":6031,"note":64,"tick":14016,"time":73,"type":"noteOn","velocity":68},{"channel":0,"nextOffset":6035,"note":67,"tick":14016,"time":73,"type":"noteOn","velocity":68},{"channel":0,"nextOffset":6039,"note":72,"tick":14016,"time":73,"type":"noteOn","velocity":68},{"channel":0,"nextOffset":6043,"note":33,"tick":14064,"time":73.25,"type":"noteOff","velocity":0},{"channel":0,"nextOffset":6047,"note":60,"tick":14064,"time":73.25,"type":"noteOff","velocity":0},{"channel":0,"nextOffset":6051,"note":64,"tick":14064,"time":73.25,"type":"noteOff","velocity":0},{"channel":0,"nextOffset":6055,"note":67,"tick":14064,"time":73.25,"type":"noteOff","velocity":0},{"channel":0,"nextOffset":6059,"note":72,"tick":14064,"time":73.25,"type":"noteOff","velocity":0},{"channel":0,"nextOffset":6063,"note":33,"tick":14088,"time":73.375,"type":"noteOn","velocity":68},{"channel":0,"nextOffset":6067,"note":61,"tick":14112,"time":73.5,"type":"noteOn","velocity":68},{"channel":0,"nextOffset":6071,"note":65,"tick":14112,"time":73.5,"type":"noteOn","velocity":68},{"channel":0,"nextOffset":6075,"note":67,"tick":14112,"time":73.5,"type":"noteOn","velocity":68},{"channel":0,"nextOffset":6079,"note":70,"tick":14112,"time":73.5,"type":"noteOn","velocity":68},{"channel":0,"nextOffset":6083,"note":33,"tick":14136,"time":73.625,"type":"noteOff","velocity":0},{"channel":0,"nextOffset":6087,"note":33,"tick":14160,"time":73.75,"type":"noteOn","velocity":68},{"channel":0,"nextOffset":6091,"note":61,"tick":14160,"time":73.75,"type":"noteOff","velocity":0},{"channel":0,"nextOffset":6095,"note":65,"tick":14160,"time":73.75,"type":"noteOff","velocity":0},{"channel":0,"nextOffset":6099,"note":67,"tick":14160,"time":73.75,"type":"noteOff","velocity":0},{"channel":0,"nextOffset":6103,"note":70,"tick":14160,"time":73.75,"type":"noteOff","velocity":0},{"channel":0,"nextOffset":6107,"note":26,"tick":14208,"time":74,"type":"noteOn","velocity":68},{"channel":0,"nextOffset":6111,"note":33,"tick":14208,"time":74,"type":"noteOff","velocity":0},{"channel":0,"nextOffset":6115,"note":60,"tick":14208,"time":74,"type":"noteOn","velocity":68},{"channel":0,"nextOffset":6119,"note":64,"tick":14208,"time":74,"type":"noteOn","velocity":68},{"channel":0,"nextOffset":6123,"note":65,"tick":14208,"time":74,"type":"noteOn","velocity":68},{"channel":0,"nextOffset":6127,"note":69,"tick":14208,"time":74,"type":"noteOn","velocity":68},{"channel":0,"nextOffset":6131,"note":26,"tick":14256,"time":74.25,"type":"noteOff","velocity":0},{"channel":0,"nextOffset":6135,"note":60,"tick":14256,"time":74.25,"type":"noteOff","velocity":0},{"channel":0,"nextOffset":6139,"note":64,"tick":14256,"time":74.25,"type":"noteOff","velocity":0},{"channel":0,"nextOffset":6143,"note":65,"tick":14256,"time":74.25,"type":"noteOff","velocity":0},{"channel":0,"nextOffset":6147,"note":69,"tick":14256,"time":74.25,"type":"noteOff","velocity":0},{"channel":0,"nextOffset":6151,"note":26,"tick":14304,"time":74.5,"type":"noteOn","velocity":68},{"channel":0,"nextOffset":6155,"note":26,"tick":14352,"time":74.75,"type":"noteOff","velocity":0},{"channel":0,"nextOffset":6159,"note":38,"tick":14400,"time":75,"type":"noteOn","velocity":68},{"channel":0,"nextOffset":6163,"note":60,"tick":14400,"time":75,"type":"noteOn","velocity":68},{"channel":0,"nextOffset":6167,"note":64,"tick":14400,"time":75,"type":"noteOn","velocity":68},{"channel":0,"nextOffset":6171,"note":65,"tick":14400,"time":75,"type":"noteOn","velocity":68},{"channel":0,"nextOffset":6175,"note":69,"tick":14400,"time":75,"type":"noteOn","velocity":68},{"channel":0,"nextOffset":6179,"note":38,"tick":14448,"time":75.25,"type":"noteOff","velocity":0},{"channel":0,"nextOffset":6183,"note":60,"tick":14448,"time":75.25,"type":"noteOff","velocity":0},{"channel":0,"nextOffset":6187,"note":64,"tick":14448,"time":75.25,"type":"noteOff","velocity":0},{"channel":0,"nextOffset":6191,"note":65,"tick":14448,"time":75.25,"type":"noteOff","velocity":0},{"channel":0,"nextOffset":6195,"note":69,"tick":14448,"time":75.25,"type":"noteOff","velocity":0},{"channel":0,"nextOffset":6199,"note":33,"tick":14472,"time":75.375,"type":"noteOn","velocity":68},{"channel":0,"nextOffset":6203,"note":59,"tick":14496,"time":75.5,"type":"noteOn","velocity":68},{"channel":0,"nextOffset":6207,"note":63,"tick":14496,"time":75.5,"type":"noteOn","velocity":68},{"channel":0,"nextOffset":6211,"note":68,"tick":14496,"time":75.5,"type":"noteOn","velocity":68},{"channel":0,"nextOffset":6215,"note":33,"tick":14520,"time":75.625,"type":"noteOff","velocity":0},{"channel":0,"nextOffset":6219,"note":32,"tick":14544,"time":75.75,"type":"noteOn","velocity":68},{"channel":0,"nextOffset":6223,"note":59,"tick":14544,"time":75.75,"type":"noteOff","velocity":0},{"channel":0,"nextOffset":6227,"note":63,"tick":14544,"time":75.75,"type":"noteOff","velocity":0},{"channel":0,"nextOffset":6231,"note":68,"tick":14544,"time":75.75,"type":"noteOff","velocity":0},{"channel":0,"nextOffset":6235,"note":31,"tick":14592,"time":76,"type":"noteOn","velocity":68},{"channel":0,"nextOffset":6239,"note":32,"tick":14592,"time":76,"type":"noteOff","velocity":0},{"channel":0,"nextOffset":6243,"note":58,"tick":14592,"time":76,"type":"noteOn","velocity":68},{"channel":0,"nextOffset":6247,"note":62,"tick":14592,"time":76,"type":"noteOn","velocity":68},{"channel":0,"nextOffset":6251,"note":65,"tick":14592,"time":76,"type":"noteOn","velocity":68},{"channel":0,"nextOffset":6255,"note":69,"tick":14592,"time":76,"type":"noteOn","velocity":68},{"channel":0,"nextOffset":6259,"note":31,"tick":14640,"time":76.25,"type":"noteOff","velocity":0},{"channel":0,"nextOffset":6263,"note":31,"tick":14688,"time":76.5,"type":"noteOn","velocity":68},{"channel":0,"nextOffset":6267,"note":58,"tick":14688,"time":76.5,"type":"noteOff","velocity":0},{"channel":0,"nextOffset":6271,"note":62,"tick":14688,"time":76.5,"type":"noteOff","velocity":0},{"channel":0,"nextOffset":6275,"note":65,"tick":14688,"time":76.5,"type":"noteOff","velocity":0},{"channel":0,"nextOffset":6279,"note":69,"tick":14688,"time":76.5,"type":"noteOff","velocity":0},{"channel":0,"nextOffset":6283,"note":31,"tick":14736,"time":76.75,"type":"noteOff","velocity":0},{"channel":0,"nextOffset":6287,"note":33,"tick":14784,"time":77,"type":"noteOn","velocity":68},{"channel":0,"nextOffset":6291,"note":60,"tick":14784,"time":77,"type":"noteOn","velocity":68},{"channel":0,"nextOffset":6295,"note":64,"tick":14784,"time":77,"type":"noteOn","velocity":68},{"channel":0,"nextOffset":6299,"note":67,"tick":14784,"time":77,"type":"noteOn","velocity":68},{"channel":0,"nextOffset":6303,"note":72,"tick":14784,"time":77,"type":"noteOn","velocity":68},{"channel":0,"nextOffset":6307,"note":33,"tick":14832,"time":77.25,"type":"noteOff","velocity":0},{"channel":0,"nextOffset":6311,"note":60,"tick":14832,"time":77.25,"type":"noteOff","velocity":0},{"channel":0,"nextOffset":6315,"note":64,"tick":14832,"time":77.25,"type":"noteOff","velocity":0},{"channel":0,"nextOffset":6319,"note":67,"tick":14832,"time":77.25,"type":"noteOff","velocity":0},{"channel":0,"nextOffset":6323,"note":72,"tick":14832,"time":77.25,"type":"noteOff","velocity":0},{"channel":0,"nextOffset":6327,"note":33,"tick":14856,"time":77.375,"type":"noteOn","velocity":68},{"channel":0,"nextOffset":6331,"note":61,"tick":14880,"time":77.5,"type":"noteOn","velocity":68},{"channel":0,"nextOffset":6335,"note":65,"tick":14880,"time":77.5,"type":"noteOn","velocity":68},{"channel":0,"nextOffset":6339,"note":67,"tick":14880,"time":77.5,"type":"noteOn","velocity":68},{"channel":0,"nextOffset":6343,"note":70,"tick":14880,"time":77.5,"type":"noteOn","velocity":68},{"channel":0,"nextOffset":6347,"note":33,"tick":14904,"time":77.625,"type":"noteOff","velocity":0},{"channel":0,"nextOffset":6351,"note":33,"tick":14928,"time":77.75,"type":"noteOn","velocity":68},{"channel":0,"nextOffset":6355,"note":61,"tick":14928,"time":77.75,"type":"noteOff","velocity":0},{"channel":0,"nextOffset":6359,"note":65,"tick":14928,"time":77.75,"type":"noteOff","velocity":0},{"channel":0,"nextOffset":6363,"note":67,"tick":14928,"time":77.75,"type":"noteOff","velocity":0},{"channel":0,"nextOffset":6367,"note":70,"tick":14928,"time":77.75,"type":"noteOff","velocity":0},{"channel":0,"nextOffset":6371,"note":26,"tick":14976,"time":78,"type":"noteOn","velocity":68},{"channel":0,"nextOffset":6375,"note":33,"tick":14976,"time":78,"type":"noteOff","velocity":0},{"channel":0,"nextOffset":6379,"note":60,"tick":14976,"time":78,"type":"noteOn","velocity":68},{"channel":0,"nextOffset":6383,"note":64,"tick":14976,"time":78,"type":"noteOn","velocity":68},{"channel":0,"nextOffset":6387,"note":65,"tick":14976,"time":78,"type":"noteOn","velocity":68},{"channel":0,"nextOffset":6391,"note":69,"tick":14976,"time":78,"type":"noteOn","velocity":68},{"channel":0,"nextOffset":6395,"note":26,"tick":15024,"time":78.25,"type":"noteOff","velocity":0},{"channel":0,"nextOffset":6399,"note":60,"tick":15024,"time":78.25,"type":"noteOff","velocity":0},{"channel":0,"nextOffset":6403,"note":64,"tick":15024,"time":78.25,"type":"noteOff","velocity":0},{"channel":0,"nextOffset":6407,"note":65,"tick":15024,"time":78.25,"type":"noteOff","velocity":0},{"channel":0,"nextOffset":6411,"note":69,"tick":15024,"time":78.25,"type":"noteOff","velocity":0},{"channel":0,"nextOffset":6415,"note":26,"tick":15072,"time":78.5,"type":"noteOn","velocity":68},{"channel":0,"nextOffset":6419,"note":26,"tick":15120,"time":78.75,"type":"noteOff","velocity":0},{"channel":0,"nextOffset":6423,"note":38,"tick":15168,"time":79,"type":"noteOn","velocity":68},{"channel":0,"nextOffset":6427,"note":60,"tick":15168,"time":79,"type":"noteOn","velocity":68},{"channel":0,"nextOffset":6431,"note":64,"tick":15168,"time":79,"type":"noteOn","velocity":68},{"channel":0,"nextOffset":6435,"note":65,"tick":15168,"time":79,"type":"noteOn","velocity":68},{"channel":0,"nextOffset":6439,"note":69,"tick":15168,"time":79,"type":"noteOn","velocity":68},{"channel":0,"nextOffset":6443,"note":38,"tick":15216,"time":79.25,"type":"noteOff","velocity":0},{"channel":0,"nextOffset":6447,"note":60,"tick":15216,"time":79.25,"type":"noteOff","velocity":0},{"channel":0,"nextOffset":6451,"note":64,"tick":15216,"time":79.25,"type":"noteOff","velocity":0},{"channel":0,"nextOffset":6455,"note":65,"tick":15216,"time":79.25,"type":"noteOff","velocity":0},{"channel":0,"nextOffset":6459,"note":69,"tick":15216,"time":79.25,"type":"noteOff","velocity":0},{"channel":0,"nextOffset":6463,"note":33,"tick":15240,"time":79.375,"type":"noteOn","velocity":68},{"channel":0,"nextOffset":6467,"note":59,"tick":15264,"time":79.5,"type":"noteOn","velocity":68},{"channel":0,"nextOffset":6471,"note":63,"tick":15264,"time":79.5,"type":"noteOn","velocity":68},{"channel":0,"nextOffset":6475,"note":68,"tick":15264,"time":79.5,"type":"noteOn","velocity":68},{"channel":0,"nextOffset":6479,"note":33,"tick":15288,"time":79.625,"type":"noteOff","velocity":0},{"channel":0,"nextOffset":6483,"note":59,"tick":15312,"time":79.75,"type":"noteOff","velocity":0},{"channel":0,"nextOffset":6487,"note":63,"tick":15312,"time":79.75,"type":"noteOff","velocity":0},{"channel":0,"nextOffset":6491,"note":68,"tick":15312,"time":79.75,"type":"noteOff","velocity":0},{"channel":0,"nextOffset":6495,"note":70,"tick":15360,"time":80,"type":"noteOn","velocity":68},{"channel":0,"nextOffset":6499,"note":74,"tick":15360,"time":80,"type":"noteOn","velocity":68},{"channel":0,"nextOffset":6503,"note":77,"tick":15360,"time":80,"type":"noteOn","velocity":68},{"channel":0,"nextOffset":6507,"note":81,"tick":15360,"time":80,"type":"noteOn","velocity":68},{"channel":0,"nextOffset":6511,"note":79,"tick":15456,"time":80.5,"type":"noteOn","velocity":68},{"channel":0,"nextOffset":6515,"note":79,"tick":15480,"time":80.625,"type":"noteOff","velocity":0},{"channel":0,"nextOffset":6519,"note":82,"tick":15504,"time":80.75,"type":"noteOn","velocity":68},{"channel":0,"nextOffset":6523,"note":82,"tick":15600,"time":81.25,"type":"noteOff","velocity":0},{"channel":0,"nextOffset":6527,"note":70,"tick":15624,"time":81.375,"type":"noteOff","velocity":0},{"channel":0,"nextOffset":6531,"note":74,"tick":15624,"time":81.375,"type":"noteOff","velocity":0},{"channel":0,"nextOffset":6535,"note":77,"tick":15624,"time":81.375,"type":"noteOff","velocity":0},{"channel":0,"nextOffset":6539,"note":81,"tick":15624,"time":81.375,"type":"noteOff","velocity":0},{"channel":0,"nextOffset":6543,"note":74,"tick":15648,"time":81.5,"type":"noteOn","velocity":68},{"channel":0,"nextOffset":6547,"note":64,"tick":15744,"time":82,"type":"noteOn","velocity":68},{"channel":0,"nextOffset":6551,"note":67,"tick":15744,"time":82,"type":"noteOn","velocity":68},{"channel":0,"nextOffset":6555,"note":69,"tick":15744,"time":82,"type":"noteOn","velocity":68},{"channel":0,"nextOffset":6559,"note":73,"tick":15744,"time":82,"type":"noteOn","velocity":68},{"channel":0,"nextOffset":6563,"note":74,"tick":15744,"time":82,"type":"noteOff","velocity":0},{"channel":0,"nextOffset":6567,"note":64,"tick":15840,"time":82.5,"type":"noteOff","velocity":0},{"channel":0,"nextOffset":6571,"note":69,"tick":15888,"time":82.75,"type":"noteOff","velocity":0},{"channel":0,"nextOffset":6575,"note":69,"tick":15888,"time":82.75,"type":"noteOn","velocity":68},{"channel":0,"nextOffset":6579,"note":69,"tick":15936,"time":83,"type":"noteOff","velocity":0},{"channel":0,"nextOffset":6583,"note":76,"tick":15936,"time":83,"type":"noteOn","velocity":68},{"channel":0,"nextOffset":6587,"note":76,"tick":16032,"time":83.5,"type":"noteOff","velocity":0},{"channel":0,"nextOffset":6591,"note":67,"tick":16128,"time":84,"type":"noteOff","velocity":0},{"channel":0,"nextOffset":6595,"note":67,"tick":16128,"time":84,"type":"noteOn","velocity":68},{"channel":0,"nextOffset":6599,"note":69,"tick":16128,"time":84,"type":"noteOn","velocity":68},{"channel":0,"nextOffset":6603,"note":73,"tick":16128,"time":84,"type":"noteOff","velocity":0},{"channel":0,"nextOffset":6607,"note":73,"tick":16128,"time":84,"type":"noteOn","velocity":68},{"channel":0,"nextOffset":6611,"note":77,"tick":16128,"time":84,"type":"noteOn","velocity":68},{"channel":0,"nextOffset":6615,"note":72,"tick":16176,"time":84.25,"type":"noteOn","velocity":68},{"channel":0,"nextOffset":6619,"note":72,"tick":16224,"time":84.5,"type":"noteOff","velocity":0},{"channel":0,"nextOffset":6623,"note":79,"tick":16224,"time":84.5,"type":"noteOn","velocity":68},{"channel":0,"nextOffset":6627,"note":79,"tick":16272,"time":84.75,"type":"noteOff","velocity":0},{"channel":0,"nextOffset":6631,"note":81,"tick":16272,"time":84.75,"type":"noteOn","velocity":68},{"channel":0,"nextOffset":6635,"note":65,"tick":16320,"time":85,"type":"noteOn","velocity":68},{"channel":0,"nextOffset":6639,"note":67,"tick":16320,"time":85,"type":"noteOff","velocity":0},{"channel":0,"nextOffset":6643,"note":67,"tick":16320,"time":85,"type":"noteOn","velocity":68},{"channel":0,"nextOffset":6647,"note":69,"tick":16320,"time":85,"type":"noteOff","velocity":0},{"channel":0,"nextOffset":6651,"note":69,"tick":16320,"time":85,"type":"noteOn","velocity":68},{"channel":0,"nextOffset":6655,"note":72,"tick":16320,"time":85,"type":"noteOn","velocity":68},{"channel":0,"nextOffset":6659,"note":73,"tick":16320,"time":85,"type":"noteOff","velocity":0},{"channel":0,"nextOffset":6663,"note":77,"tick":16320,"time":85,"type":"noteOff","velocity":0},{"channel":0,"nextOffset":6667,"note":81,"tick":16320,"time":85,"type":"noteOff","velocity":0},{"channel":0,"nextOffset":6671,"note":72,"tick":16416,"time":85.5,"type":"noteOff","velocity":0},{"channel":0,"nextOffset":6675,"note":72,"tick":16416,"time":85.5,"type":"noteOn","velocity":68},{"channel":0,"nextOffset":6679,"note":72,"tick":16464,"time":85.75,"type":"noteOff","velocity":0},{"channel":0,"nextOffset":6683,"note":74,"tick":16464,"time":85.75,"type":"noteOn","velocity":68},{"channel":0,"nextOffset":6687,"note":74,"tick":16488,"time":85.875,"type":"noteOff","velocity":0},{"channel":0,"nextOffset":6691,"note":75,"tick":16488,"time":85.875,"type":"noteOn","velocity":68},{"channel":0,"nextOffset":6695,"note":65,"tick":16512,"time":86,"type":"noteOff","velocity":0},{"channel":0,"nextOffset":6699,"note":67,"tick":16512,"time":86,"type":"noteOff","velocity":0},{"channel":0,"nextOffset":6703,"note":67,"tick":16512,"time":86,"type":"noteOn","velocity":68},{"channel":0,"nextOffset":6707,"note":69,"tick":16512,"time":86,"type":"noteOff","velocity":0},{"channel":0,"nextOffset":6711,"note":69,"tick":16512,"time":86,"type":"noteOn","velocity":68},{"channel":0,"nextOffset":6715,"note":74,"tick":16512,"time":86,"type":"noteOn","velocity":68},{"channel":0,"nextOffset":6719,"note":75,"tick":16512,"time":86,"type":"noteOff","velocity":0},{"channel":0,"nextOffset":6723,"note":76,"tick":16512,"time":86,"type":"noteOn","velocity":68},{"channel":0,"nextOffset":6728,"note":67,"tick":16656,"time":86.75,"type":"noteOff","velocity":0},{"channel":0,"nextOffset":6732,"note":69,"tick":16656,"time":86.75,"type":"noteOff","velocity":0},{"channel":0,"nextOffset":6736,"note":74,"tick":16656,"time":86.75,"type":"noteOff","velocity":0},{"channel":0,"nextOffset":6740,"note":76,"tick":16656,"time":86.75,"type":"noteOff","velocity":0},{"channel":0,"nextOffset":6744,"note":76,"tick":16656,"time":86.75,"type":"noteOn","velocity":68},{"channel":0,"nextOffset":6748,"note":76,"tick":16680,"time":86.875,"type":"noteOff","velocity":0},{"channel":0,"nextOffset":6752,"note":76,"tick":16680,"time":86.875,"type":"noteOn","velocity":68},{"channel":0,"nextOffset":6756,"note":67,"tick":16704,"time":87,"type":"noteOn","velocity":68},{"channel":0,"nextOffset":6760,"note":69,"tick":16704,"time":87,"type":"noteOn","velocity":68},{"channel":0,"nextOffset":6764,"note":73,"tick":16704,"time":87,"type":"noteOn","velocity":68},{"channel":0,"nextOffset":6768,"note":76,"tick":16704,"time":87,"type":"noteOff","velocity":0},{"channel":0,"nextOffset":6772,"note":76,"tick":16704,"time":87,"type":"noteOn","velocity":68},{"channel":0,"nextOffset":6776,"note":76,"tick":16752,"time":87.25,"type":"noteOff","velocity":0},{"channel":0,"nextOffset":6780,"note":76,"tick":16752,"time":87.25,"type":"noteOn","velocity":68},{"channel":0,"nextOffset":6784,"note":67,"tick":16800,"time":87.5,"type":"noteOff","velocity":0},{"channel":0,"nextOffset":6788,"note":69,"tick":16800,"time":87.5,"type":"noteOff","velocity":0},{"channel":0,"nextOffset":6792,"note":73,"tick":16800,"time":87.5,"type":"noteOff","velocity":0},{"channel":0,"nextOffset":6796,"note":73,"tick":16800,"time":87.5,"type":"noteOn","velocity":68},{"channel":0,"nextOffset":6800,"note":76,"tick":16800,"time":87.5,"type":"noteOff","velocity":0},{"channel":0,"nextOffset":6804,"note":77,"tick":16800,"time":87.5,"type":"noteOn","velocity":68},{"channel":0,"nextOffset":6808,"note":69,"tick":16848,"time":87.75,"type":"noteOn","velocity":68},{"channel":0,"nextOffset":6812,"note":73,"tick":16848,"time":87.75,"type":"noteOff","velocity":0},{"channel":0,"nextOffset":6816,"note":76,"tick":16848,"time":87.75,"type":"noteOn","velocity":68},{"channel":0,"nextOffset":6820,"note":77,"tick":16848,"time":87.75,"type":"noteOff","velocity":0},{"channel":0,"nextOffset":6824,"note":43,"tick":16896,"time":88,"type":"noteOn","velocity":68},{"channel":0,"nextOffset":6828,"note":58,"tick":16896,"time":88,"type":"noteOn","velocity":68},{"channel":0,"nextOffset":6832,"note":62,"tick":16896,"time":88,"type":"noteOn","velocity":68},{"channel":0,"nextOffset":6836,"note":65,"tick":16896,"time":88,"type":"noteOn","velocity":68},{"channel":0,"nextOffset":6840,"note":69,"tick":16896,"time":88,"type":"noteOff","velocity":0},{"channel":0,"nextOffset":6844,"note":69,"tick":16896,"time":88,"type":"noteOn","velocity":68},{"channel":0,"nextOffset":6848,"note":76,"tick":16896,"time":88,"type":"noteOff","velocity":0},{"channel":0,"nextOffset":6852,"note":43,"tick":16944,"time":88.25,"type":"noteOff","velocity":0},{"channel":0,"nextOffset":6856,"note":50,"tick":16944,"time":88.25,"type":"noteOn","velocity":68},{"channel":0,"nextOffset":6860,"note":43,"tick":16992,"time":88.5,"type":"noteOn","velocity":68},{"channel":0,"nextOffset":6864,"note":50,"tick":16992,"time":88.5,"type":"noteOff","velocity":0},{"channel":0,"nextOffset":6868,"note":58,"tick":16992,"time":88.5,"type":"noteOff","velocity":0},{"channel":0,"nextOffset":6872,"note":62,"tick":16992,"time":88.5,"type":"noteOff","velocity":0},{"channel":0,"nextOffset":6876,"note":65,"tick":16992,"time":88.5,"type":"noteOff","velocity":0},{"channel":0,"nextOffset":6880,"note":69,"tick":16992,"time":88.5,"type":"noteOff","velocity":0},{"channel":0,"nextOffset":6884,"note":43,"tick":17040,"time":88.75,"type":"noteOff","velocity":0},{"channel":0,"nextOffset":6888,"note":44,"tick":17040,"time":88.75,"type":"noteOn","velocity":68},{"channel":0,"nextOffset":6892,"note":65,"tick":17040,"time":88.75,"type":"noteOn","velocity":68},{"channel":0,"nextOffset":6896,"note":65,"tick":17064,"time":88.875,"type":"noteOff","velocity":0},{"channel":0,"nextOffset":6900,"note":69,"tick":17064,"time":88.875,"type":"noteOn","velocity":68},{"channel":0,"nextOffset":6904,"note":44,"tick":17088,"time":89,"type":"noteOff","velocity":0},{"channel":0,"nextOffset":6908,"note":45,"tick":17088,"time":89,"type":"noteOn","velocity":68},{"channel":0,"nextOffset":6912,"note":60,"tick":17088,"time":89,"type":"noteOn","velocity":68},{"channel":0,"nextOffset":6916,"note":64,"tick":17088,"time":89,"type":"noteOn","velocity":68},{"channel":0,"nextOffset":6920,"note":67,"tick":17088,"time":89,"type":"noteOn","velocity":68},{"channel":0,"nextOffset":6924,"note":69,"tick":17088,"time":89,"type":"noteOff","velocity":0},{"channel":0,"nextOffset":6928,"note":72,"tick":17088,"time":89,"type":"noteOn","velocity":68},{"channel":0,"nextOffset":6932,"note":45,"tick":17136,"time":89.25,"type":"noteOff","velocity":0},{"channel":0,"nextOffset":6936,"note":60,"tick":17136,"time":89.25,"type":"noteOff","velocity":0},{"channel":0,"nextOffset":6940,"note":64,"tick":17136,"time":89.25,"type":"noteOff","velocity":0},{"channel":0,"nextOffset":6944,"note":67,"tick":17136,"time":89.25,"type":"noteOff","velocity":0},{"channel":0,"nextOffset":6948,"note":72,"tick":17136,"time":89.25,"type":"noteOff","velocity":0},{"channel":0,"nextOffset":6952,"note":45,"tick":17160,"time":89.375,"type":"noteOn","velocity":68},{"channel":0,"nextOffset":6956,"note":61,"tick":17160,"time":89.375,"type":"noteOn","velocity":68},{"channel":0,"nextOffset":6960,"note":65,"tick":17160,"time":89.375,"type":"noteOn","velocity":68},{"channel":0,"nextOffset":6964,"note":67,"tick":17160,"time":89.375,"type":"noteOn","velocity":68},{"channel":0,"nextOffset":6968,"note":70,"tick":17160,"time":89.375,"type":"noteOn","velocity":68},{"channel":0,"nextOffset":6972,"note":45,"tick":17184,"time":89.5,"type":"noteOff","velocity":0},{"channel":0,"nextOffset":6976,"note":61,"tick":17208,"time":89.625,"type":"noteOff","velocity":0},{"channel":0,"nextOffset":6980,"note":65,"tick":17208,"time":89.625,"type":"noteOff","velocity":0},{"channel":0,"nextOffset":6984,"note":67,"tick":17208,"time":89.625,"type":"noteOff","velocity":0},{"channel":0,"nextOffset":6988,"note":70,"tick":17208,"time":89.625,"type":"noteOff","velocity":0},{"channel":0,"nextOffset":6992,"note":38,"tick":17232,"time":89.75,"type":"noteOn","velocity":68},{"channel":0,"nextOffset":6996,"note":60,"tick":17232,"time":89.75,"type":"noteOn","velocity":68},{"channel":0,"nextOffset":7000,"note":64,"tick":17232,"time":89.75,"type":"noteOn","velocity":68},{"channel":0,"nextOffset":7004,"note":65,"tick":17232,"time":89.75,"type":"noteOn","velocity":68},{"channel":0,"nextOffset":7008,"note":69,"tick":17232,"time":89.75,"type":"noteOn","velocity":68},{"channel":0,"nextOffset":7012,"note":38,"tick":17280,"time":90,"type":"noteOff","velocity":0},{"channel":0,"nextOffset":7016,"note":60,"tick":17280,"time":90,"type":"noteOff","velocity":0},{"channel":0,"nextOffset":7020,"note":64,"tick":17280,"time":90,"type":"noteOff","velocity":0},{"channel":0,"nextOffset":7024,"note":65,"tick":17280,"time":90,"type":"noteOff","velocity":0},{"channel":0,"nextOffset":7028,"note":69,"tick":17280,"time":90,"type":"noteOff","velocity":0},{"channel":0,"nextOffset":7032,"note":76,"tick":17280,"time":90,"type":"noteOn","velocity":68},{"channel":0,"nextOffset":7036,"note":76,"tick":17304,"time":90.125,"type":"noteOff","velocity":0},{"channel":0,"nextOffset":7040,"note":77,"tick":17304,"time":90.125,"type":"noteOn","velocity":68},{"channel":0,"nextOffset":7044,"note":76,"tick":17328,"time":90.25,"type":"noteOn","velocity":68},{"channel":0,"nextOffset":7048,"note":77,"tick":17328,"time":90.25,"type":"noteOff","velocity":0},{"channel":0,"nextOffset":7052,"note":72,"tick":17352,"time":90.375,"type":"noteOn","velocity":68},{"channel":0,"nextOffset":7056,"note":76,"tick":17352,"time":90.375,"type":"noteOff","velocity":0},{"channel":0,"nextOffset":7060,"note":72,"tick":17376,"time":90.5,"type":"noteOff","velocity":0},{"channel":0,"nextOffset":7064,"note":76,"tick":17376,"time":90.5,"type":"noteOn","velocity":68},{"channel":0,"nextOffset":7068,"note":72,"tick":17400,"time":90.625,"type":"noteOn","velocity":68},{"channel":0,"nextOffset":7072,"note":76,"tick":17400,"time":90.625,"type":"noteOff","velocity":0},{"channel":0,"nextOffset":7076,"note":45,"tick":17424,"time":90.75,"type":"noteOn","velocity":68},{"channel":0,"nextOffset":7080,"note":69,"tick":17424,"time":90.75,"type":"noteOn","velocity":68},{"channel":0,"nextOffset":7084,"note":72,"tick":17424,"time":90.75,"type":"noteOff","velocity":0},{"channel":0,"nextOffset":7088,"note":67,"tick":17448,"time":90.875,"type":"noteOn","velocity":68},{"channel":0,"nextOffset":7092,"note":69,"tick":17448,"time":90.875,"type":"noteOff","velocity":0},{"channel":0,"nextOffset":7096,"note":45,"tick":17472,"time":91,"type":"noteOff","velocity":0},{"channel":0,"nextOffset":7100,"note":50,"tick":17472,"time":91,"type":"noteOn","velocity":68},{"channel":0,"nextOffset":7104,"note":67,"tick":17472,"time":91,"type":"noteOff","velocity":0},{"channel":0,"nextOffset":7108,"note":69,"tick":17472,"time":91,"type":"noteOn","velocity":68},{"channel":0,"nextOffset":7112,"note":62,"tick":17496,"time":91.125,"type":"noteOn","velocity":68},{"channel":0,"nextOffset":7116,"note":69,"tick":17496,"time":91.125,"type":"noteOff","velocity":0},{"channel":0,"nextOffset":7120,"note":38,"tick":17520,"time":91.25,"type":"noteOn","velocity":68},{"channel":0,"nextOffset":7124,"note":50,"tick":17520,"time":91.25,"type":"noteOff","velocity":0},{"channel":0,"nextOffset":7128,"note":60,"tick":17520,"time":91.25,"type":"noteOn","velocity":68},{"channel":0,"nextOffset":7132,"note":62,"tick":17520,"time":91.25,"type":"noteOff","velocity":0},{"channel":0,"nextOffset":7136,"note":60,"tick":17544,"time":91.375,"type":"noteOff","velocity":0},{"channel":0,"nextOffset":7140,"note":65,"tick":17544,"time":91.375,"type":"noteOn","velocity":68},{"channel":0,"nextOffset":7144,"note":38,"tick":17568,"time":91.5,"type":"noteOff","velocity":0},{"channel":0,"nextOffset":7148,"note":45,"tick":17568,"time":91.5,"type":"noteOn","velocity":68},{"channel":0,"nextOffset":7152,"note":60,"tick":17568,"time":91.5,"type":"noteOn","velocity":68},{"channel":0,"nextOffset":7156,"note":64,"tick":17568,"time":91.5,"type":"noteOn","velocity":68},{"channel":0,"nextOffset":7160,"note":65,"tick":17568,"time":91.5,"type":"noteOff","velocity":0},{"channel":0,"nextOffset":7164,"note":69,"tick":17568,"time":91.5,"type":"noteOn","velocity":68},{"channel":0,"nextOffset":7168,"note":44,"tick":17616,"time":91.75,"type":"noteOn","velocity":68},{"channel":0,"nextOffset":7172,"note":45,"tick":17616,"time":91.75,"type":"noteOff","velocity":0},{"channel":0,"nextOffset":7176,"note":59,"tick":17616,"time":91.75,"type":"noteOn","velocity":68},{"channel":0,"nextOffset":7180,"note":60,"tick":17616,"time":91.75,"type":"noteOff","velocity":0},{"channel":0,"nextOffset":7184,"note":63,"tick":17616,"time":91.75,"type":"noteOn","velocity":68},{"channel":0,"nextOffset":7188,"note":64,"tick":17616,"time":91.75,"type":"noteOff","velocity":0},{"channel":0,"nextOffset":7192,"note":68,"tick":17616,"time":91.75,"type":"noteOn","velocity":68},{"channel":0,"nextOffset":7196,"note":69,"tick":17616,"time":91.75,"type":"noteOff","velocity":0},{"channel":0,"nextOffset":7200,"note":43,"tick":17664,"time":92,"type":"noteOn","velocity":68},{"channel":0,"nextOffset":7204,"note":44,"tick":17664,"time":92,"type":"noteOff","velocity":0},{"channel":0,"nextOffset":7208,"note":58,"tick":17664,"time":92,"type":"noteOn","velocity":68},{"channel":0,"nextOffset":7212,"note":59,"tick":17664,"time":92,"type":"noteOff","velocity":0},{"channel":0,"nextOffset":7216,"note":62,"tick":17664,"time":92,"type":"noteOn","velocity":68},{"channel":0,"nextOffset":7220,"note":63,"tick":17664,"time":92,"type":"noteOff","velocity":0},{"channel":0,"nextOffset":7224,"note":65,"tick":17664,"time":92,"type":"noteOn","velocity":68},{"channel":0,"nextOffset":7228,"note":68,"tick":17664,"time":92,"type":"noteOff","velocity":0},{"channel":0,"nextOffset":7232,"note":69,"tick":17664,"time":92,"type":"noteOn","velocity":68},{"channel":0,"nextOffset":7236,"note":43,"tick":17712,"time":92.25,"type":"noteOff","velocity":0},{"channel":0,"nextOffset":7240,"note":50,"tick":17712,"time":92.25,"type":"noteOn","velocity":68},{"channel":0,"nextOffset":7244,"note":43,"tick":17760,"time":92.5,"type":"noteOn","velocity":68},{"channel":0,"nextOffset":7248,"note":50,"tick":17760,"time":92.5,"type":"noteOff","velocity":0},{"channel":0,"nextOffset":7252,"note":58,"tick":17760,"time":92.5,"type":"noteOff","velocity":0},{"channel":0,"nextOffset":7256,"note":62,"tick":17760,"time":92.5,"type":"noteOff","velocity":0},{"channel":0,"nextOffset":7260,"note":65,"tick":17760,"time":92.5,"type":"noteOff","velocity":0},{"channel":0,"nextOffset":7264,"note":69,"tick":17760,"time":92.5,"type":"noteOff","velocity":0},{"channel":0,"nextOffset":7268,"note":43,"tick":17808,"time":92.75,"type":"noteOff","velocity":0},{"channel":0,"nextOffset":7272,"note":44,"tick":17808,"time":92.75,"type":"noteOn","velocity":68},{"channel":0,"nextOffset":7276,"note":65,"tick":17808,"time":92.75,"type":"noteOn","velocity":68},{"channel":0,"nextOffset":7280,"note":65,"tick":17832,"time":92.875,"type":"noteOff","velocity":0},{"channel":0,"nextOffset":7284,"note":69,"tick":17832,"time":92.875,"type":"noteOn","velocity":68},{"channel":0,"nextOffset":7288,"note":44,"tick":17856,"time":93,"type":"noteOff","velocity":0},{"channel":0,"nextOffset":7292,"note":45,"tick":17856,"time":93,"type":"noteOn","velocity":68},{"channel":0,"nextOffset":7296,"note":60,"tick":17856,"time":93,"type":"noteOn","velocity":68},{"channel":0,"nextOffset":7300,"note":64,"tick":17856,"time":93,"type":"noteOn","velocity":68},{"channel":0,"nextOffset":7304,"note":67,"tick":17856,"time":93,"type":"noteOn","velocity":68},{"channel":0,"nextOffset":7308,"note":69,"tick":17856,"time":93,"type":"noteOff","velocity":0},{"channel":0,"nextOffset":7312,"note":72,"tick":17856,"time":93,"type":"noteOn","velocity":68},{"channel":0,"nextOffset":7316,"note":45,"tick":17904,"time":93.25,"type":"noteOff","velocity":0},{"channel":0,"nextOffset":7320,"note":60,"tick":17904,"time":93.25,"type":"noteOff","velocity":0},{"channel":0,"nextOffset":7324,"note":64,"tick":17904,"time":93.25,"type":"noteOff","velocity":0},{"channel":0,"nextOffset":7328,"note":67,"tick":17904,"time":93.25,"type":"noteOff","velocity":0},{"channel":0,"nextOffset":7332,"note":72,"tick":17904,"time":93.25,"type":"noteOff","velocity":0},{"channel":0,"nextOffset":7336,"note":45,"tick":17928,"time":93.375,"type":"noteOn","velocity":68},{"channel":0,"nextOffset":7340,"note":61,"tick":17928,"time":93.375,"type":"noteOn","velocity":68},{"channel":0,"nextOffset":7344,"note":65,"tick":17928,"time":93.375,"type":"noteOn","velocity":68},{"channel":0,"nextOffset":7348,"note":67,"tick":17928,"time":93.375,"type":"noteOn","velocity":68},{"channel":0,"nextOffset":7352,"note":70,"tick":17928,"time":93.375,"type":"noteOn","velocity":68},{"channel":0,"nextOffset":7356,"note":45,"tick":17952,"time":93.5,"type":"noteOff","velocity":0},{"channel":0,"nextOffset":7360,"note":61,"tick":17976,"time":93.625,"type":"noteOff","velocity":0},{"channel":0,"nextOffset":7364,"note":65,"tick":17976,"time":93.625,"type":"noteOff","velocity":0},{"channel":0,"nextOffset":7368,"note":67,"tick":17976,"time":93.625,"type":"noteOff","velocity":0},{"channel":0,"nextOffset":7372,"note":70,"tick":17976,"time":93.625,"type":"noteOff","velocity":0},{"channel":0,"nextOffset":7376,"note":38,"tick":18000,"time":93.75,"type":"noteOn","velocity":68},{"channel":0,"nextOffset":7380,"note":60,"tick":18000,"time":93.75,"type":"noteOn","velocity":68},{"channel":0,"nextOffset":7384,"note":64,"tick":18000,"time":93.75,"type":"noteOn","velocity":68},{"channel":0,"nextOffset":7388,"note":65,"tick":18000,"time":93.75,"type":"noteOn","velocity":68},{"channel":0,"nextOffset":7392,"note":69,"tick":18000,"time":93.75,"type":"noteOn","velocity":68},{"channel":0,"nextOffset":7396,"note":38,"tick":18048,"time":94,"type":"noteOff","velocity":0},{"channel":0,"nextOffset":7400,"note":60,"tick":18048,"time":94,"type":"noteOff","velocity":0},{"channel":0,"nextOffset":7404,"note":64,"tick":18048,"time":94,"type":"noteOff","velocity":0},{"channel":0,"nextOffset":7408,"note":65,"tick":18048,"time":94,"type":"noteOff","velocity":0},{"channel":0,"nextOffset":7412,"note":69,"tick":18048,"time":94,"type":"noteOff","velocity":0},{"channel":0,"nextOffset":7416,"note":76,"tick":18048,"time":94,"type":"noteOn","velocity":68},{"channel":0,"nextOffset":7420,"note":76,"tick":18072,"time":94.125,"type":"noteOff","velocity":0},{"channel":0,"nextOffset":7424,"note":77,"tick":18072,"time":94.125,"type":"noteOn","velocity":68},{"channel":0,"nextOffset":7428,"note":77,"tick":18096,"time":94.25,"type":"noteOff","velocity":0},{"channel":0,"nextOffset":7432,"note":79,"tick":18096,"time":94.25,"type":"noteOn","velocity":68},{"channel":0,"nextOffset":7436,"note":77,"tick":18120,"time":94.375,"type":"noteOn","velocity":68},{"channel":0,"nextOffset":7440,"note":79,"tick":18120,"time":94.375,"type":"noteOff","velocity":0},{"channel":0,"nextOffset":7444,"note":76,"tick":18144,"time":94.5,"type":"noteOn","velocity":68},{"channel":0,"nextOffset":7448,"note":77,"tick":18144,"time":94.5,"type":"noteOff","velocity":0},{"channel":0,"nextOffset":7452,"note":72,"tick":18168,"time":94.625,"type":"noteOn","velocity":68},{"channel":0,"nextOffset":7456,"note":76,"tick":18168,"time":94.625,"type":"noteOff","velocity":0},{"channel":0,"nextOffset":7460,"note":45,"tick":18192,"time":94.75,"type":"noteOn","velocity":68},{"channel":0,"nextOffset":7464,"note":69,"tick":18192,"time":94.75,"type":"noteOn","velocity":68},{"channel":0,"nextOffset":7468,"note":72,"tick":18192,"time":94.75,"type":"noteOff","velocity":0},{"channel":0,"nextOffset":7472,"note":67,"tick":18216,"time":94.875,"type":"noteOn","velocity":68},{"channel":0,"nextOffset":7476,"note":69,"tick":18216,"time":94.875,"type":"noteOff","velocity":0},{"channel":0,"nextOffset":7480,"note":45,"tick":18240,"time":95,"type":"noteOff","velocity":0},{"channel":0,"nextOffset":7484,"note":50,"tick":18240,"time":95,"type":"noteOn","velocity":68},{"channel":0,"nextOffset":7488,"note":67,"tick":18240,"time":95,"type":"noteOff","velocity":0},{"channel":0,"nextOffset":7492,"note":69,"tick":18240,"time":95,"type":"noteOn","velocity":68},{"channel":0,"nextOffset":7496,"note":62,"tick":18264,"time":95.125,"type":"noteOn","velocity":68},{"channel":0,"nextOffset":7500,"note":69,"tick":18264,"time":95.125,"type":"noteOff","velocity":0},{"channel":0,"nextOffset":7504,"note":38,"tick":18288,"time":95.25,"type":"noteOn","velocity":68},{"channel":0,"nextOffset":7508,"note":50,"tick":18288,"time":95.25,"type":"noteOff","velocity":0},{"channel":0,"nextOffset":7512,"note":60,"tick":18288,"time":95.25,"type":"noteOn","velocity":68},{"channel":0,"nextOffset":7516,"note":62,"tick":18288,"time":95.25,"type":"noteOff","velocity":0},{"channel":0,"nextOffset":7520,"note":60,"tick":18312,"time":95.375,"type":"noteOff","velocity":0},{"channel":0,"nextOffset":7524,"note":65,"tick":18312,"time":95.375,"type":"noteOn","velocity":68},{"channel":0,"nextOffset":7528,"note":38,"tick":18336,"time":95.5,"type":"noteOff","velocity":0},{"channel":0,"nextOffset":7532,"note":45,"tick":18336,"time":95.5,"type":"noteOn","velocity":68},{"channel":0,"nextOffset":7536,"note":60,"tick":18336,"time":95.5,"type":"noteOn","velocity":68},{"channel":0,"nextOffset":7540,"note":64,"tick":18336,"time":95.5,"type":"noteOn","velocity":68},{"channel":0,"nextOffset":7544,"note":65,"tick":18336,"time":95.5,"type":"noteOff","velocity":0},{"channel":0,"nextOffset":7548,"note":69,"tick":18336,"time":95.5,"type":"noteOn","velocity":68},{"channel":0,"nextOffset":7552,"note":44,"tick":18384,"time":95.75,"type":"noteOn","velocity":68},{"channel":0,"nextOffset":7556,"note":45,"tick":18384,"time":95.75,"type":"noteOff","velocity":0},{"channel":0,"nextOffset":7560,"note":59,"tick":18384,"time":95.75,"type":"noteOn","velocity":68},{"channel":0,"nextOffset":7564,"note":60,"tick":18384,"time":95.75,"type":"noteOff","velocity":0},{"channel":0,"nextOffset":7568,"note":63,"tick":18384,"time":95.75,"type":"noteOn","velocity":68},{"channel":0,"nextOffset":7572,"note":64,"tick":18384,"time":95.75,"type":"noteOff","velocity":0},{"channel":0,"nextOffset":7576,"note":68,"tick":18384,"time":95.75,"type":"noteOn","velocity":68},{"channel":0,"nextOffset":7580,"note":69,"tick":18384,"time":95.75,"type":"noteOff","velocity":0},{"channel":0,"nextOffset":7584,"note":43,"tick":18432,"time":96,"type":"noteOn","velocity":68},{"channel":0,"nextOffset":7588,"note":44,"tick":18432,"time":96,"type":"noteOff","velocity":0},{"channel":0,"nextOffset":7592,"note":58,"tick":18432,"time":96,"type":"noteOn","velocity":68},{"channel":0,"nextOffset":7596,"note":59,"tick":18432,"time":96,"type":"noteOff","velocity":0},{"channel":0,"nextOffset":7600,"note":62,"tick":18432,"time":96,"type":"noteOn","velocity":68},{"channel":0,"nextOffset":7604,"note":63,"tick":18432,"time":96,"type":"noteOff","velocity":0},{"channel":0,"nextOffset":7608,"note":65,"tick":18432,"time":96,"type":"noteOn","velocity":68},{"channel":0,"nextOffset":7612,"note":68,"tick":18432,"time":96,"type":"noteOff","velocity":0},{"channel":0,"nextOffset":7616,"note":69,"tick":18432,"time":96,"type":"noteOn","velocity":68},{"channel":0,"nextOffset":7620,"note":43,"tick":18480,"time":96.25,"type":"noteOff","velocity":0},{"channel":0,"nextOffset":7624,"note":50,"tick":18480,"time":96.25,"type":"noteOn","velocity":68},{"channel":0,"nextOffset":7628,"note":43,"tick":18528,"time":96.5,"type":"noteOn","velocity":68},{"channel":0,"nextOffset":7632,"note":50,"tick":18528,"time":96.5,"type":"noteOff","velocity":0},{"channel":0,"nextOffset":7636,"note":58,"tick":18528,"time":96.5,"type":"noteOff","velocity":0},{"channel":0,"nextOffset":7640,"note":62,"tick":18528,"time":96.5,"type":"noteOff","velocity":0},{"channel":0,"nextOffset":7644,"note":65,"tick":18528,"time":96.5,"type":"noteOff","velocity":0},{"channel":0,"nextOffset":7648,"note":69,"tick":18528,"time":96.5,"type":"noteOff","velocity":0},{"channel":0,"nextOffset":7652,"note":43,"tick":18576,"time":96.75,"type":"noteOff","velocity":0},{"channel":0,"nextOffset":7656,"note":44,"tick":18576,"time":96.75,"type":"noteOn","velocity":68},{"channel":0,"nextOffset":7660,"note":65,"tick":18576,"time":96.75,"type":"noteOn","velocity":68},{"channel":0,"nextOffset":7664,"note":65,"tick":18600,"time":96.875,"type":"noteOff","velocity":0},{"channel":0,"nextOffset":7668,"note":69,"tick":18600,"time":96.875,"type":"noteOn","velocity":68},{"channel":0,"nextOffset":7672,"note":44,"tick":18624,"time":97,"type":"noteOff","velocity":0},{"channel":0,"nextOffset":7676,"note":45,"tick":18624,"time":97,"type":"noteOn","velocity":68},{"channel":0,"nextOffset":7680,"note":60,"tick":18624,"time":97,"type":"noteOn","velocity":68},{"channel":0,"nextOffset":7684,"note":64,"tick":18624,"time":97,"type":"noteOn","velocity":68},{"channel":0,"nextOffset":7688,"note":67,"tick":18624,"time":97,"type":"noteOn","velocity":68},{"channel":0,"nextOffset":7692,"note":69,"tick":18624,"time":97,"type":"noteOff","velocity":0},{"channel":0,"nextOffset":7696,"note":72,"tick":18624,"time":97,"type":"noteOn","velocity":68},{"channel":0,"nextOffset":7700,"note":45,"tick":18672,"time":97.25,"type":"noteOff","velocity":0},{"channel":0,"nextOffset":7704,"note":60,"tick":18672,"time":97.25,"type":"noteOff","velocity":0},{"channel":0,"nextOffset":7708,"note":64,"tick":18672,"time":97.25,"type":"noteOff","velocity":0},{"channel":0,"nextOffset":7712,"note":67,"tick":18672,"time":97.25,"type":"noteOff","velocity":0},{"channel":0,"nextOffset":7716,"note":72,"tick":18672,"time":97.25,"type":"noteOff","velocity":0},{"channel":0,"nextOffset":7720,"note":45,"tick":18696,"time":97.375,"type":"noteOn","velocity":68},{"channel":0,"nextOffset":7724,"note":61,"tick":18696,"time":97.375,"type":"noteOn","velocity":68},{"channel":0,"nextOffset":7728,"note":65,"tick":18696,"time":97.375,"type":"noteOn","velocity":68},{"channel":0,"nextOffset":7732,"note":67,"tick":18696,"time":97.375,"type":"noteOn","velocity":68},{"channel":0,"nextOffset":7736,"note":70,"tick":18696,"time":97.375,"type":"noteOn","velocity":68},{"channel":0,"nextOffset":7740,"note":45,"tick":18720,"time":97.5,"type":"noteOff","velocity":0},{"channel":0,"nextOffset":7744,"note":61,"tick":18744,"time":97.625,"type":"noteOff","velocity":0},{"channel":0,"nextOffset":7748,"note":65,"tick":18744,"time":97.625,"type":"noteOff","velocity":0},{"channel":0,"nextOffset":7752,"note":67,"tick":18744,"time":97.625,"type":"noteOff","velocity":0},{"channel":0,"nextOffset":7756,"note":70,"tick":18744,"time":97.625,"type":"noteOff","velocity":0},{"channel":0,"nextOffset":7760,"note":38,"tick":18768,"time":97.75,"type":"noteOn","velocity":68},{"channel":0,"nextOffset":7764,"note":60,"tick":18768,"time":97.75,"type":"noteOn","velocity":68},{"channel":0,"nextOffset":7768,"note":64,"tick":18768,"time":97.75,"type":"noteOn","velocity":68},{"channel":0,"nextOffset":7772,"note":65,"tick":18768,"time":97.75,"type":"noteOn","velocity":68},{"channel":0,"nextOffset":7776,"note":69,"tick":18768,"time":97.75,"type":"noteOn","velocity":68},{"channel":0,"nextOffset":7780,"note":38,"tick":18816,"time":98,"type":"noteOff","velocity":0},{"channel":0,"nextOffset":7784,"note":60,"tick":18816,"time":98,"type":"noteOff","velocity":0},{"channel":0,"nextOffset":7788,"note":64,"tick":18816,"time":98,"type":"noteOff","velocity":0},{"channel":0,"nextOffset":7792,"note":65,"tick":18816,"time":98,"type":"noteOff","velocity":0},{"channel":0,"nextOffset":7796,"note":69,"tick":18816,"time":98,"type":"noteOff","velocity":0},{"channel":0,"nextOffset":7800,"note":76,"tick":18816,"time":98,"type":"noteOn","velocity":68},{"channel":0,"nextOffset":7804,"note":76,"tick":18840,"time":98.125,"type":"noteOff","velocity":0},{"channel":0,"nextOffset":7808,"note":77,"tick":18840,"time":98.125,"type":"noteOn","velocity":68},{"channel":0,"nextOffset":7812,"note":76,"tick":18864,"time":98.25,"type":"noteOn","velocity":68},{"channel":0,"nextOffset":7816,"note":77,"tick":18864,"time":98.25,"type":"noteOff","velocity":0},{"channel":0,"nextOffset":7820,"note":72,"tick":18888,"time":98.375,"type":"noteOn","velocity":68},{"channel":0,"nextOffset":7824,"note":76,"tick":18888,"time":98.375,"type":"noteOff","velocity":0},{"channel":0,"nextOffset":7828,"note":38,"tick":18912,"time":98.5,"type":"noteOn","velocity":68},{"channel":0,"nextOffset":7832,"note":72,"tick":18912,"time":98.5,"type":"noteOff","velocity":0},{"channel":0,"nextOffset":7836,"note":76,"tick":18912,"time":98.5,"type":"noteOn","velocity":68},{"channel":0,"nextOffset":7840,"note":72,"tick":18936,"time":98.625,"type":"noteOn","velocity":68},{"channel":0,"nextOffset":7844,"note":76,"tick":18936,"time":98.625,"type":"noteOff","velocity":0},{"channel":0,"nextOffset":7848,"note":38,"tick":18960,"time":98.75,"type":"noteOff","velocity":0},{"channel":0,"nextOffset":7852,"note":45,"tick":18960,"time":98.75,"type":"noteOn","velocity":68},{"channel":0,"nextOffset":7856,"note":69,"tick":18960,"time":98.75,"type":"noteOn","velocity":68},{"channel":0,"nextOffset":7860,"note":72,"tick":18960,"time":98.75,"type":"noteOff","velocity":0},{"channel":0,"nextOffset":7864,"note":67,"tick":18984,"time":98.875,"type":"noteOn","velocity":68},{"channel":0,"nextOffset":7868,"note":69,"tick":18984,"time":98.875,"type":"noteOff","velocity":0},{"channel":0,"nextOffset":7872,"note":45,"tick":19008,"time":99,"type":"noteOff","velocity":0},{"channel":0,"nextOffset":7876,"note":50,"tick":19008,"time":99,"type":"noteOn","velocity":68},{"channel":0,"nextOffset":7880,"note":67,"tick":19008,"time":99,"type":"noteOff","velocity":0},{"channel":0,"nextOffset":7884,"note":69,"tick":19008,"time":99,"type":"noteOn","velocity":68},{"channel":0,"nextOffset":7888,"note":62,"tick":19032,"time":99.125,"type":"noteOn","velocity":68},{"channel":0,"nextOffset":7892,"note":69,"tick":19032,"time":99.125,"type":"noteOff","velocity":0},{"channel":0,"nextOffset":7896,"note":38,"tick":19056,"time":99.25,"type":"noteOn","velocity":68},{"channel":0,"nextOffset":7900,"note":50,"tick":19056,"time":99.25,"type":"noteOff","velocity":0},{"channel":0,"nextOffset":7904,"note":60,"tick":19056,"time":99.25,"type":"noteOn","velocity":68},{"channel":0,"nextOffset":7908,"note":62,"tick":19056,"time":99.25,"type":"noteOff","velocity":0},{"channel":0,"nextOffset":7912,"note":60,"tick":19080,"time":99.375,"type":"noteOff","velocity":0},{"channel":0,"nextOffset":7916,"note":65,"tick":19080,"time":99.375,"type":"noteOn","velocity":68},{"channel":0,"nextOffset":7920,"note":38,"tick":19104,"time":99.5,"type":"noteOff","velocity":0},{"channel":0,"nextOffset":7924,"note":45,"tick":19104,"time":99.5,"type":"noteOn","velocity":68},{"channel":0,"nextOffset":7928,"note":60,"tick":19104,"time":99.5,"type":"noteOn","velocity":68},{"channel":0,"nextOffset":7932,"note":64,"tick":19104,"time":99.5,"type":"noteOn","velocity":68},{"channel":0,"nextOffset":7936,"note":65,"tick":19104,"time":99.5,"type":"noteOff","velocity":0},{"channel":0,"nextOffset":7940,"note":69,"tick":19104,"time":99.5,"type":"noteOn","velocity":68},{"channel":0,"nextOffset":7944,"note":44,"tick":19152,"time":99.75,"type":"noteOn","velocity":68},{"channel":0,"nextOffset":7948,"note":45,"tick":19152,"time":99.75,"type":"noteOff","velocity":0},{"channel":0,"nextOffset":7952,"note":59,"tick":19152,"time":99.75,"type":"noteOn","velocity":68},{"channel":0,"nextOffset":7956,"note":60,"tick":19152,"time":99.75,"type":"noteOff","velocity":0},{"channel":0,"nextOffset":7960,"note":63,"tick":19152,"time":99.75,"type":"noteOn","velocity":68},{"channel":0,"nextOffset":7964,"note":64,"tick":19152,"time":99.75,"type":"noteOff","velocity":0},{"channel":0,"nextOffset":7968,"note":68,"tick":19152,"time":99.75,"type":"noteOn","velocity":68},{"channel":0,"nextOffset":7972,"note":69,"tick":19152,"time":99.75,"type":"noteOff","velocity":0},{"channel":0,"nextOffset":7976,"note":43,"tick":19200,"time":100,"type":"noteOn","velocity":68},{"channel":0,"nextOffset":7980,"note":44,"tick":19200,"time":100,"type":"noteOff","velocity":0},{"channel":0,"nextOffset":7984,"note":58,"tick":19200,"time":100,"type":"noteOn","velocity":68},{"channel":0,"nextOffset":7988,"note":59,"tick":19200,"time":100,"type":"noteOff","velocity":0},{"channel":0,"nextOffset":7992,"note":62,"tick":19200,"time":100,"type":"noteOn","velocity":68},{"channel":0,"nextOffset":7996,"note":63,"tick":19200,"time":100,"type":"noteOff","velocity":0},{"channel":0,"nextOffset":8000,"note":65,"tick":19200,"time":100,"type":"noteOn","velocity":68},{"channel":0,"nextOffset":8004,"note":68,"tick":19200,"time":100,"type":"noteOff","velocity":0},{"channel":0,"nextOffset":8008,"note":69,"tick":19200,"time":100,"type":"noteOn","velocity":68},{"channel":0,"nextOffset":8012,"note":43,"tick":19248,"time":100.25,"type":"noteOff","velocity":0},{"channel":0,"nextOffset":8016,"note":43,"tick":19296,"time":100.5,"type":"noteOn","velocity":68},{"channel":0,"nextOffset":8020,"note":58,"tick":19296,"time":100.5,"type":"noteOff","velocity":0},{"channel":0,"nextOffset":8024,"note":62,"tick":19296,"time":100.5,"type":"noteOff","velocity":0},{"channel":0,"nextOffset":8028,"note":65,"tick":19296,"time":100.5,"type":"noteOff","velocity":0},{"channel":0,"nextOffset":8032,"note":69,"tick":19296,"time":100.5,"type":"noteOff","velocity":0},{"channel":0,"nextOffset":8036,"note":43,"tick":19344,"time":100.75,"type":"noteOff","velocity":0},{"channel":0,"nextOffset":8040,"note":44,"tick":19344,"time":100.75,"type":"noteOn","velocity":68},{"channel":0,"nextOffset":8044,"note":65,"tick":19344,"time":100.75,"type":"noteOn","velocity":68},{"channel":0,"nextOffset":8048,"note":65,"tick":19368,"time":100.875,"type":"noteOff","velocity":0},{"channel":0,"nextOffset":8052,"note":69,"tick":19368,"time":100.875,"type":"noteOn","velocity":68},{"channel":0,"nextOffset":8056,"note":44,"tick":19392,"time":101,"type":"noteOff","velocity":0},{"channel":0,"nextOffset":8060,"note":45,"tick":19392,"time":101,"type":"noteOn","velocity":68},{"channel":0,"nextOffset":8064,"note":60,"tick":19392,"time":101,"type":"noteOn","velocity":68},{"channel":0,"nextOffset":8068,"note":64,"tick":19392,"time":101,"type":"noteOn","velocity":68},{"channel":0,"nextOffset":8072,"note":67,"tick":19392,"time":101,"type":"noteOn","velocity":68},{"channel":0,"nextOffset":8076,"note":69,"tick":19392,"time":101,"type":"noteOff","velocity":0},{"channel":0,"nextOffset":8080,"note":72,"tick":19392,"time":101,"type":"noteOn","velocity":68},{"channel":0,"nextOffset":8084,"note":45,"tick":19440,"time":101.25,"type":"noteOff","velocity":0},{"channel":0,"nextOffset":8088,"note":60,"tick":19440,"time":101.25,"type":"noteOff","velocity":0},{"channel":0,"nextOffset":8092,"note":64,"tick":19440,"time":101.25,"type":"noteOff","velocity":0},{"channel":0,"nextOffset":8096,"note":67,"tick":19440,"time":101.25,"type":"noteOff","velocity":0},{"channel":0,"nextOffset":8100,"note":72,"tick":19440,"time":101.25,"type":"noteOff","velocity":0},{"channel":0,"nextOffset":8104,"note":45,"tick":19464,"time":101.375,"type":"noteOn","velocity":68},{"channel":0,"nextOffset":8108,"note":61,"tick":19464,"time":101.375,"type":"noteOn","velocity":68},{"channel":0,"nextOffset":8112,"note":65,"tick":19464,"time":101.375,"type":"noteOn","velocity":68},{"channel":0,"nextOffset":8116,"note":67,"tick":19464,"time":101.375,"type":"noteOn","velocity":68},{"channel":0,"nextOffset":8120,"note":70,"tick":19464,"time":101.375,"type":"noteOn","velocity":68},{"channel":0,"nextOffset":8124,"note":45,"tick":19488,"time":101.5,"type":"noteOff","velocity":0},{"channel":0,"nextOffset":8128,"note":61,"tick":19512,"time":101.625,"type":"noteOff","velocity":0},{"channel":0,"nextOffset":8132,"note":65,"tick":19512,"time":101.625,"type":"noteOff","velocity":0},{"channel":0,"nextOffset":8136,"note":67,"tick":19512,"time":101.625,"type":"noteOff","velocity":0},{"channel":0,"nextOffset":8140,"note":70,"tick":19512,"time":101.625,"type":"noteOff","velocity":0},{"channel":0,"nextOffset":8144,"note":38,"tick":19536,"time":101.75,"type":"noteOn","velocity":68},{"channel":0,"nextOffset":8148,"note":60,"tick":19536,"time":101.75,"type":"noteOn","velocity":68},{"channel":0,"nextOffset":8152,"note":64,"tick":19536,"time":101.75,"type":"noteOn","velocity":68},{"channel":0,"nextOffset":8156,"note":65,"tick":19536,"time":101.75,"type":"noteOn","velocity":68},{"channel":0,"nextOffset":8160,"note":69,"tick":19536,"time":101.75,"type":"noteOn","velocity":68},{"channel":0,"nextOffset":8164,"note":38,"tick":19584,"time":102,"type":"noteOff","velocity":0},{"channel":0,"nextOffset":8168,"note":50,"tick":19584,"time":102,"type":"noteOn","velocity":68},{"channel":0,"nextOffset":8172,"note":60,"tick":19584,"time":102,"type":"noteOff","velocity":0},{"channel":0,"nextOffset":8176,"note":64,"tick":19584,"time":102,"type":"noteOff","velocity":0},{"channel":0,"nextOffset":8180,"note":65,"tick":19584,"time":102,"type":"noteOff","velocity":0},{"channel":0,"nextOffset":8184,"note":69,"tick":19584,"time":102,"type":"noteOff","velocity":0},{"channel":0,"nextOffset":8188,"note":76,"tick":19584,"time":102,"type":"noteOn","velocity":68},{"channel":0,"nextOffset":8192,"note":76,"tick":19608,"time":102.125,"type":"noteOff","velocity":0},{"channel":0,"nextOffset":8196,"note":77,"tick":19608,"time":102.125,"type":"noteOn","velocity":68},{"channel":0,"nextOffset":8200,"note":38,"tick":19632,"time":102.25,"type":"noteOn","velocity":68},{"channel":0,"nextOffset":8204,"note":50,"tick":19632,"time":102.25,"type":"noteOff","velocity":0},{"channel":0,"nextOffset":8208,"note":77,"tick":19632,"time":102.25,"type":"noteOff","velocity":0},{"channel":0,"nextOffset":8212,"note":79,"tick":19632,"time":102.25,"type":"noteOn","velocity":68},{"channel":0,"nextOffset":8216,"note":77,"tick":19656,"time":102.375,"type":"noteOn","velocity":68},{"channel":0,"nextOffset":8220,"note":79,"tick":19656,"time":102.375,"type":"noteOff","velocity":0},{"channel":0,"nextOffset":8224,"note":38,"tick":19680,"time":102.5,"type":"noteOff","velocity":0},{"channel":0,"nextOffset":8228,"note":45,"tick":19680,"time":102.5,"type":"noteOn","velocity":68},{"channel":0,"nextOffset":8232,"note":76,"tick":19680,"time":102.5,"type":"noteOn","velocity":68},{"channel":0,"nextOffset":8236,"note":77,"tick":19680,"time":102.5,"type":"noteOff","velocity":0},{"channel":0,"nextOffset":8240,"note":72,"tick":19704,"time":102.625,"type":"noteOn","velocity":68},{"channel":0,"nextOffset":8244,"note":76,"tick":19704,"time":102.625,"type":"noteOff","velocity":0},{"channel":0,"nextOffset":8248,"note":38,"tick":19728,"time":102.75,"type":"noteOn","velocity":68},{"channel":0,"nextOffset":8252,"note":45,"tick":19728,"time":102.75,"type":"noteOff","velocity":0},{"channel":0,"nextOffset":8256,"note":69,"tick":19728,"time":102.75,"type":"noteOn","velocity":68},{"channel":0,"nextOffset":8260,"note":72,"tick":19728,"time":102.75,"type":"noteOff","velocity":0},{"channel":0,"nextOffset":8264,"note":67,"tick":19752,"time":102.875,"type":"noteOn","velocity":68},{"channel":0,"nextOffset":8268,"note":69,"tick":19752,"time":102.875,"type":"noteOff","velocity":0},{"channel":0,"nextOffset":8272,"note":38,"tick":19776,"time":103,"type":"noteOff","velocity":0},{"channel":0,"nextOffset":8276,"note":50,"tick":19776,"time":103,"type":"noteOn","velocity":68},{"channel":0,"nextOffset":8280,"note":67,"tick":19776,"time":103,"type":"noteOff","velocity":0},{"channel":0,"nextOffset":8284,"note":69,"tick":19776,"time":103,"type":"noteOn","velocity":68},{"channel":0,"nextOffset":8288,"note":62,"tick":19800,"time":103.125,"type":"noteOn","velocity":68},{"channel":0,"nextOffset":8292,"note":69,"tick":19800,"time":103.125,"type":"noteOff","velocity":0},{"channel":0,"nextOffset":8296,"note":38,"tick":19824,"time":103.25,"type":"noteOn","velocity":68},{"channel":0,"nextOffset":8300,"note":50,"tick":19824,"time":103.25,"type":"noteOff","velocity":0},{"channel":0,"nextOffset":8304,"note":60,"tick":19824,"time":103.25,"type":"noteOn","velocity":68},{"channel":0,"nextOffset":8308,"note":62,"tick":19824,"time":103.25,"type":"noteOff","velocity":0},{"channel":0,"nextOffset":8312,"note":60,"tick":19848,"time":103.375,"type":"noteOff","velocity":0},{"channel":0,"nextOffset":8316,"note":65,"tick":19848,"time":103.375,"type":"noteOn","velocity":68},{"channel":0,"nextOffset":8320,"note":38,"tick":19872,"time":103.5,"type":"noteOff","velocity":0},{"channel":0,"nextOffset":8324,"note":45,"tick":19872,"time":103.5,"type":"noteOn","velocity":68},{"channel":0,"nextOffset":8328,"note":60,"tick":19872,"time":103.5,"type":"noteOn","velocity":68},{"channel":0,"nextOffset":8332,"note":64,"tick":19872,"time":103.5,"type":"noteOn","velocity":68},{"channel":0,"nextOffset":8336,"note":65,"tick":19872,"time":103.5,"type":"noteOff","velocity":0},{"channel":0,"nextOffset":8340,"note":69,"tick":19872,"time":103.5,"type":"noteOn","velocity":68},{"channel":0,"nextOffset":8344,"note":44,"tick":19920,"time":103.75,"type":"noteOn","velocity":68},{"channel":0,"nextOffset":8348,"note":45,"tick":19920,"time":103.75,"type":"noteOff","velocity":0},{"channel":0,"nextOffset":8352,"note":59,"tick":19920,"time":103.75,"type":"noteOn","velocity":68},{"channel":0,"nextOffset":8356,"note":60,"tick":19920,"time":103.75,"type":"noteOff","velocity":0},{"channel":0,"nextOffset":8360,"note":63,"tick":19920,"time":103.75,"type":"noteOn","velocity":68},{"channel":0,"nextOffset":8364,"note":64,"tick":19920,"time":103.75,"type":"noteOff","velocity":0},{"channel":0,"nextOffset":8368,"note":68,"tick":19920,"time":103.75,"type":"noteOn","velocity":68},{"channel":0,"nextOffset":8372,"note":69,"tick":19920,"time":103.75,"type":"noteOff","velocity":0},{"channel":0,"nextOffset":8376,"note":43,"tick":19968,"time":104,"type":"noteOn","velocity":68},{"channel":0,"nextOffset":8380,"note":44,"tick":19968,"time":104,"type":"noteOff","velocity":0},{"channel":0,"nextOffset":8384,"note":58,"tick":19968,"time":104,"type":"noteOn","velocity":68},{"channel":0,"nextOffset":8388,"note":59,"tick":19968,"time":104,"type":"noteOff","velocity":0},{"channel":0,"nextOffset":8392,"note":62,"tick":19968,"time":104,"type":"noteOn","velocity":68},{"channel":0,"nextOffset":8396,"note":63,"tick":19968,"time":104,"type":"noteOff","velocity":0},{"channel":0,"nextOffset":8400,"note":65,"tick":19968,"time":104,"type":"noteOn","velocity":68},{"channel":0,"nextOffset":8404,"note":68,"tick":19968,"time":104,"type":"noteOff","velocity":0},{"channel":0,"nextOffset":8408,"note":69,"tick":19968,"time":104,"type":"noteOn","velocity":68},{"channel":0,"nextOffset":8412,"note":43,"tick":20016,"time":104.25,"type":"noteOff","velocity":0},{"channel":0,"nextOffset":8416,"note":50,"tick":20016,"time":104.25,"type":"noteOn","velocity":68},{"channel":0,"nextOffset":8420,"note":43,"tick":20064,"time":104.5,"type":"noteOn","velocity":68},{"channel":0,"nextOffset":8424,"note":50,"tick":20064,"time":104.5,"type":"noteOff","velocity":0},{"channel":0,"nextOffset":8428,"note":58,"tick":20064,"time":104.5,"type":"noteOff","velocity":0},{"channel":0,"nextOffset":8432,"note":62,"tick":20064,"time":104.5,"type":"noteOff","velocity":0},{"channel":0,"nextOffset":8436,"note":65,"tick":20064,"time":104.5,"type":"noteOff","velocity":0},{"channel":0,"nextOffset":8440,"note":69,"tick":20064,"time":104.5,"type":"noteOff","velocity":0},{"channel":0,"nextOffset":8444,"note":43,"tick":20112,"time":104.75,"type":"noteOff","velocity":0},{"channel":0,"nextOffset":8448,"note":44,"tick":20112,"time":104.75,"type":"noteOn","velocity":68},{"channel":0,"nextOffset":8452,"note":65,"tick":20112,"time":104.75,"type":"noteOn","velocity":68},{"channel":0,"nextOffset":8456,"note":65,"tick":20136,"time":104.875,"type":"noteOff","velocity":0},{"channel":0,"nextOffset":8460,"note":69,"tick":20136,"time":104.875,"type":"noteOn","velocity":68},{"channel":0,"nextOffset":8464,"note":44,"tick":20160,"time":105,"type":"noteOff","velocity":0},{"channel":0,"nextOffset":8468,"note":45,"tick":20160,"time":105,"type":"noteOn","velocity":68},{"channel":0,"nextOffset":8472,"note":60,"tick":20160,"time":105,"type":"noteOn","velocity":68},{"channel":0,"nextOffset":8476,"note":64,"tick":20160,"time":105,"type":"noteOn","velocity":68},{"channel":0,"nextOffset":8480,"note":67,"tick":20160,"time":105,"type":"noteOn","velocity":68},{"channel":0,"nextOffset":8484,"note":69,"tick":20160,"time":105,"type":"noteOff","velocity":0},{"channel":0,"nextOffset":8488,"note":72,"tick":20160,"time":105,"type":"noteOn","velocity":68},{"channel":0,"nextOffset":8492,"note":45,"tick":20208,"time":105.25,"type":"noteOff","velocity":0},{"channel":0,"nextOffset":8496,"note":60,"tick":20208,"time":105.25,"type":"noteOff","velocity":0},{"channel":0,"nextOffset":8500,"note":64,"tick":20208,"time":105.25,"type":"noteOff","velocity":0},{"channel":0,"nextOffset":8504,"note":67,"tick":20208,"time":105.25,"type":"noteOff","velocity":0},{"channel":0,"nextOffset":8508,"note":72,"tick":20208,"time":105.25,"type":"noteOff","velocity":0},{"channel":0,"nextOffset":8512,"note":45,"tick":20232,"time":105.375,"type":"noteOn","velocity":68},{"channel":0,"nextOffset":8516,"note":61,"tick":20232,"time":105.375,"type":"noteOn","velocity":68},{"channel":0,"nextOffset":8520,"note":65,"tick":20232,"time":105.375,"type":"noteOn","velocity":68},{"channel":0,"nextOffset":8524,"note":67,"tick":20232,"time":105.375,"type":"noteOn","velocity":68},{"channel":0,"nextOffset":8528,"note":70,"tick":20232,"time":105.375,"type":"noteOn","velocity":68},{"channel":0,"nextOffset":8532,"note":45,"tick":20256,"time":105.5,"type":"noteOff","velocity":0},{"channel":0,"nextOffset":8536,"note":61,"tick":20280,"time":105.625,"type":"noteOff","velocity":0},{"channel":0,"nextOffset":8540,"note":65,"tick":20280,"time":105.625,"type":"noteOff","velocity":0},{"channel":0,"nextOffset":8544,"note":67,"tick":20280,"time":105.625,"type":"noteOff","velocity":0},{"channel":0,"nextOffset":8548,"note":70,"tick":20280,"time":105.625,"type":"noteOff","velocity":0},{"channel":0,"nextOffset":8552,"note":38,"tick":20304,"time":105.75,"type":"noteOn","velocity":68},{"channel":0,"nextOffset":8556,"note":60,"tick":20304,"time":105.75,"type":"noteOn","velocity":68},{"channel":0,"nextOffset":8560,"note":64,"tick":20304,"time":105.75,"type":"noteOn","velocity":68},{"channel":0,"nextOffset":8564,"note":65,"tick":20304,"time":105.75,"type":"noteOn","velocity":68},{"channel":0,"nextOffset":8568,"note":69,"tick":20304,"time":105.75,"type":"noteOn","velocity":68},{"channel":0,"nextOffset":8572,"note":38,"tick":20352,"time":106,"type":"noteOff","velocity":0},{"channel":0,"nextOffset":8576,"note":60,"tick":20352,"time":106,"type":"noteOff","velocity":0},{"channel":0,"nextOffset":8580,"note":64,"tick":20352,"time":106,"type":"noteOff","velocity":0},{"channel":0,"nextOffset":8584,"note":65,"tick":20352,"time":106,"type":"noteOff","velocity":0},{"channel":0,"nextOffset":8588,"note":69,"tick":20352,"time":106,"type":"noteOff","velocity":0},{"channel":0,"nextOffset":8592,"note":76,"tick":20352,"time":106,"type":"noteOn","velocity":68},{"channel":0,"nextOffset":8596,"note":76,"tick":20376,"time":106.125,"type":"noteOff","velocity":0},{"channel":0,"nextOffset":8600,"note":77,"tick":20376,"time":106.125,"type":"noteOn","velocity":68},{"channel":0,"nextOffset":8604,"note":50,"tick":20400,"time":106.25,"type":"noteOn","velocity":68},{"channel":0,"nextOffset":8608,"note":76,"tick":20400,"time":106.25,"type":"noteOn","velocity":68},{"channel":0,"nextOffset":8612,"note":77,"tick":20400,"time":106.25,"type":"noteOff","velocity":0},{"channel":0,"nextOffset":8616,"note":72,"tick":20424,"time":106.375,"type":"noteOn","velocity":68},{"channel":0,"nextOffset":8620,"note":76,"tick":20424,"time":106.375,"type":"noteOff","velocity":0},{"channel":0,"nextOffset":8624,"note":38,"tick":20448,"time":106.5,"type":"noteOn","velocity":68},{"channel":0,"nextOffset":8628,"note":50,"tick":20448,"time":106.5,"type":"noteOff","velocity":0},{"channel":0,"nextOffset":8632,"note":72,"tick":20448,"time":106.5,"type":"noteOff","velocity":0},{"channel":0,"nextOffset":8636,"note":76,"tick":20448,"time":106.5,"type":"noteOn","velocity":68},{"channel":0,"nextOffset":8640,"note":72,"tick":20472,"time":106.625,"type":"noteOn","velocity":68},{"channel":0,"nextOffset":8644,"note":76,"tick":20472,"time":106.625,"type":"noteOff","velocity":0},{"channel":0,"nextOffset":8648,"note":38,"tick":20496,"time":106.75,"type":"noteOff","velocity":0},{"channel":0,"nextOffset":8652,"note":45,"tick":20496,"time":106.75,"type":"noteOn","velocity":68},{"channel":0,"nextOffset":8656,"note":69,"tick":20496,"time":106.75,"type":"noteOn","velocity":68},{"channel":0,"nextOffset":8660,"note":72,"tick":20496,"time":106.75,"type":"noteOff","velocity":0},{"channel":0,"nextOffset":8664,"note":67,"tick":20520,"time":106.875,"type":"noteOn","velocity":68},{"channel":0,"nextOffset":8668,"note":69,"tick":20520,"time":106.875,"type":"noteOff","velocity":0},{"channel":0,"nextOffset":8672,"note":45,"tick":20544,"time":107,"type":"noteOff","velocity":0},{"channel":0,"nextOffset":8676,"note":50,"tick":20544,"time":107,"type":"noteOn","velocity":68},{"channel":0,"nextOffset":8680,"note":67,"tick":20544,"time":107,"type":"noteOff","velocity":0},{"channel":0,"nextOffset":8684,"note":69,"tick":20544,"time":107,"type":"noteOn","velocity":68},{"channel":0,"nextOffset":8688,"note":62,"tick":20568,"time":107.125,"type":"noteOn","velocity":68},{"channel":0,"nextOffset":8692,"note":69,"tick":20568,"time":107.125,"type":"noteOff","velocity":0},{"channel":0,"nextOffset":8696,"note":38,"tick":20592,"time":107.25,"type":"noteOn","velocity":68},{"channel":0,"nextOffset":8700,"note":50,"tick":20592,"time":107.25,"type":"noteOff","velocity":0},{"channel":0,"nextOffset":8704,"note":60,"tick":20592,"time":107.25,"type":"noteOn","velocity":68},{"channel":0,"nextOffset":8708,"note":62,"tick":20592,"time":107.25,"type":"noteOff","velocity":0},{"channel":0,"nextOffset":8712,"note":60,"tick":20616,"time":107.375,"type":"noteOff","velocity":0},{"channel":0,"nextOffset":8716,"note":65,"tick":20616,"time":107.375,"type":"noteOn","velocity":68},{"channel":0,"nextOffset":8720,"note":38,"tick":20640,"time":107.5,"type":"noteOff","velocity":0},{"channel":0,"nextOffset":8724,"note":45,"tick":20640,"time":107.5,"type":"noteOn","velocity":68},{"channel":0,"nextOffset":8728,"note":60,"tick":20640,"time":107.5,"type":"noteOn","velocity":68},{"channel":0,"nextOffset":8732,"note":64,"tick":20640,"time":107.5,"type":"noteOn","velocity":68},{"channel":0,"nextOffset":8736,"note":65,"tick":20640,"time":107.5,"type":"noteOff","velocity":0},{"channel":0,"nextOffset":8740,"note":69,"tick":20640,"time":107.5,"type":"noteOn","velocity":68},{"channel":0,"nextOffset":8744,"note":44,"tick":20688,"time":107.75,"type":"noteOn","velocity":68},{"channel":0,"nextOffset":8748,"note":45,"tick":20688,"time":107.75,"type":"noteOff","velocity":0},{"channel":0,"nextOffset":8752,"note":59,"tick":20688,"time":107.75,"type":"noteOn","velocity":68},{"channel":0,"nextOffset":8756,"note":60,"tick":20688,"time":107.75,"type":"noteOff","velocity":0},{"channel":0,"nextOffset":8760,"note":63,"tick":20688,"time":107.75,"type":"noteOn","velocity":68},{"channel":0,"nextOffset":8764,"note":64,"tick":20688,"time":107.75,"type":"noteOff","velocity":0},{"channel":0,"nextOffset":8768,"note":68,"tick":20688,"time":107.75,"type":"noteOn","velocity":68},{"channel":0,"nextOffset":8772,"note":69,"tick":20688,"time":107.75,"type":"noteOff","velocity":0},{"channel":0,"nextOffset":8776,"note":43,"tick":20736,"time":108,"type":"noteOn","velocity":68},{"channel":0,"nextOffset":8780,"note":44,"tick":20736,"time":108,"type":"noteOff","velocity":0},{"channel":0,"nextOffset":8784,"note":58,"tick":20736,"time":108,"type":"noteOn","velocity":68},{"channel":0,"nextOffset":8788,"note":59,"tick":20736,"time":108,"type":"noteOff","velocity":0},{"channel":0,"nextOffset":8792,"note":62,"tick":20736,"time":108,"type":"noteOn","velocity":68},{"channel":0,"nextOffset":8796,"note":63,"tick":20736,"time":108,"type":"noteOff","velocity":0},{"channel":0,"nextOffset":8800,"note":65,"tick":20736,"time":108,"type":"noteOn","velocity":68},{"channel":0,"nextOffset":8804,"note":68,"tick":20736,"time":108,"type":"noteOff","velocity":0},{"channel":0,"nextOffset":8808,"note":69,"tick":20736,"time":108,"type":"noteOn","velocity":68},{"channel":0,"nextOffset":8812,"note":43,"tick":20784,"time":108.25,"type":"noteOff","velocity":0},{"channel":0,"nextOffset":8816,"note":43,"tick":20832,"time":108.5,"type":"noteOn","velocity":68},{"channel":0,"nextOffset":8820,"note":58,"tick":20832,"time":108.5,"type":"noteOff","velocity":0},{"channel":0,"nextOffset":8824,"note":62,"tick":20832,"time":108.5,"type":"noteOff","velocity":0},{"channel":0,"nextOffset":8828,"note":65,"tick":20832,"time":108.5,"type":"noteOff","velocity":0},{"channel":0,"nextOffset":8832,"note":69,"tick":20832,"time":108.5,"type":"noteOff","velocity":0},{"channel":0,"nextOffset":8836,"note":43,"tick":20880,"time":108.75,"type":"noteOff","velocity":0},{"channel":0,"nextOffset":8840,"note":44,"tick":20880,"time":108.75,"type":"noteOn","velocity":68},{"channel":0,"nextOffset":8844,"note":65,"tick":20880,"time":108.75,"type":"noteOn","velocity":68},{"channel":0,"nextOffset":8848,"note":65,"tick":20904,"time":108.875,"type":"noteOff","velocity":0},{"channel":0,"nextOffset":8852,"note":69,"tick":20904,"time":108.875,"type":"noteOn","velocity":68},{"channel":0,"nextOffset":8856,"note":44,"tick":20928,"time":109,"type":"noteOff","velocity":0},{"channel":0,"nextOffset":8860,"note":45,"tick":20928,"time":109,"type":"noteOn","velocity":68},{"channel":0,"nextOffset":8864,"note":60,"tick":20928,"time":109,"type":"noteOn","velocity":68},{"channel":0,"nextOffset":8868,"note":64,"tick":20928,"time":109,"type":"noteOn","velocity":68},{"channel":0,"nextOffset":8872,"note":67,"tick":20928,"time":109,"type":"noteOn","velocity":68},{"channel":0,"nextOffset":8876,"note":69,"tick":20928,"time":109,"type":"noteOff","velocity":0},{"channel":0,"nextOffset":8880,"note":72,"tick":20928,"time":109,"type":"noteOn","velocity":68},{"channel":0,"nextOffset":8884,"note":45,"tick":20976,"time":109.25,"type":"noteOff","velocity":0},{"channel":0,"nextOffset":8888,"note":60,"tick":20976,"time":109.25,"type":"noteOff","velocity":0},{"channel":0,"nextOffset":8892,"note":64,"tick":20976,"time":109.25,"type":"noteOff","velocity":0},{"channel":0,"nextOffset":8896,"note":67,"tick":20976,"time":109.25,"type":"noteOff","velocity":0},{"channel":0,"nextOffset":8900,"note":72,"tick":20976,"time":109.25,"type":"noteOff","velocity":0},{"channel":0,"nextOffset":8904,"note":45,"tick":21000,"time":109.375,"type":"noteOn","velocity":68},{"channel":0,"nextOffset":8908,"note":61,"tick":21000,"time":109.375,"type":"noteOn","velocity":68},{"channel":0,"nextOffset":8912,"note":65,"tick":21000,"time":109.375,"type":"noteOn","velocity":68},{"channel":0,"nextOffset":8916,"note":67,"tick":21000,"time":109.375,"type":"noteOn","velocity":68},{"channel":0,"nextOffset":8920,"note":70,"tick":21000,"time":109.375,"type":"noteOn","velocity":68},{"channel":0,"nextOffset":8924,"note":45,"tick":21024,"time":109.5,"type":"noteOff","velocity":0},{"channel":0,"nextOffset":8928,"note":61,"tick":21048,"time":109.625,"type":"noteOff","velocity":0},{"channel":0,"nextOffset":8932,"note":65,"tick":21048,"time":109.625,"type":"noteOff","velocity":0},{"channel":0,"nextOffset":8936,"note":67,"tick":21048,"time":109.625,"type":"noteOff","velocity":0},{"channel":0,"nextOffset":8940,"note":70,"tick":21048,"time":109.625,"type":"noteOff","velocity":0},{"channel":0,"nextOffset":8944,"note":38,"tick":21072,"time":109.75,"type":"noteOn","velocity":68},{"channel":0,"nextOffset":8948,"note":60,"tick":21072,"time":109.75,"type":"noteOn","velocity":68},{"channel":0,"nextOffset":8952,"note":64,"tick":21072,"time":109.75,"type":"noteOn","velocity":68},{"channel":0,"nextOffset":8956,"note":65,"tick":21072,"time":109.75,"type":"noteOn","velocity":68},{"channel":0,"nextOffset":8960,"note":69,"tick":21072,"time":109.75,"type":"noteOn","velocity":68},{"channel":0,"nextOffset":8964,"note":38,"tick":21120,"time":110,"type":"noteOff","velocity":0},{"channel":0,"nextOffset":8968,"note":50,"tick":21120,"time":110,"type":"noteOn","velocity":68},{"channel":0,"nextOffset":8972,"note":60,"tick":21120,"time":110,"type":"noteOff","velocity":0},{"channel":0,"nextOffset":8976,"note":64,"tick":21120,"time":110,"type":"noteOff","velocity":0},{"channel":0,"nextOffset":8980,"note":65,"tick":21120,"time":110,"type":"noteOff","velocity":0},{"channel":0,"nextOffset":8984,"note":69,"tick":21120,"time":110,"type":"noteOff","velocity":0},{"channel":0,"nextOffset":8988,"note":76,"tick":21120,"time":110,"type":"noteOn","velocity":68},{"channel":0,"nextOffset":8992,"note":76,"tick":21144,"time":110.125,"type":"noteOff","velocity":0},{"channel":0,"nextOffset":8996,"note":77,"tick":21144,"time":110.125,"type":"noteOn","velocity":68},{"channel":0,"nextOffset":9000,"note":38,"tick":21168,"time":110.25,"type":"noteOn","velocity":68},{"channel":0,"nextOffset":9004,"note":50,"tick":21168,"time":110.25,"type":"noteOff","velocity":0},{"channel":0,"nextOffset":9008,"note":77,"tick":21168,"time":110.25,"type":"noteOff","velocity":0},{"channel":0,"nextOffset":9012,"note":79,"tick":21168,"time":110.25,"type":"noteOn","velocity":68},{"channel":0,"nextOffset":9016,"note":77,"tick":21192,"time":110.375,"type":"noteOn","velocity":68},{"channel":0,"nextOffset":9020,"note":79,"tick":21192,"time":110.375,"type":"noteOff","velocity":0},{"channel":0,"nextOffset":9024,"note":38,"tick":21216,"time":110.5,"type":"noteOff","velocity":0},{"channel":0,"nextOffset":9028,"note":45,"tick":21216,"time":110.5,"type":"noteOn","velocity":68},{"channel":0,"nextOffset":9032,"note":76,"tick":21216,"time":110.5,"type":"noteOn","velocity":68},{"channel":0,"nextOffset":9036,"note":77,"tick":21216,"time":110.5,"type":"noteOff","velocity":0},{"channel":0,"nextOffset":9040,"note":72,"tick":21240,"time":110.625,"type":"noteOn","velocity":68},{"channel":0,"nextOffset":9044,"note":76,"tick":21240,"time":110.625,"type":"noteOff","velocity":0},{"channel":0,"nextOffset":9048,"note":38,"tick":21264,"time":110.75,"type":"noteOn","velocity":68},{"channel":0,"nextOffset":9052,"note":45,"tick":21264,"time":110.75,"type":"noteOff","velocity":0},{"channel":0,"nextOffset":9056,"note":69,"tick":21264,"time":110.75,"type":"noteOn","velocity":68},{"channel":0,"nextOffset":9060,"note":72,"tick":21264,"time":110.75,"type":"noteOff","velocity":0},{"channel":0,"nextOffset":9064,"note":67,"tick":21288,"time":110.875,"type":"noteOn","velocity":68},{"channel":0,"nextOffset":9068,"note":69,"tick":21288,"time":110.875,"type":"noteOff","velocity":0},{"channel":0,"nextOffset":9072,"note":38,"tick":21312,"time":111,"type":"noteOff","velocity":0},{"channel":0,"nextOffset":9076,"note":50,"tick":21312,"time":111,"type":"noteOn","velocity":68},{"channel":0,"nextOffset":9080,"note":67,"tick":21312,"time":111,"type":"noteOff","velocity":0},{"channel":0,"nextOffset":9084,"note":69,"tick":21312,"time":111,"type":"noteOn","velocity":68},{"channel":0,"nextOffset":9088,"note":62,"tick":21336,"time":111.125,"type":"noteOn","velocity":68},{"channel":0,"nextOffset":9092,"note":69,"tick":21336,"time":111.125,"type":"noteOff","velocity":0},{"channel":0,"nextOffset":9096,"note":38,"tick":21360,"time":111.25,"type":"noteOn","velocity":68},{"channel":0,"nextOffset":9100,"note":50,"tick":21360,"time":111.25,"type":"noteOff","velocity":0},{"channel":0,"nextOffset":9104,"note":60,"tick":21360,"time":111.25,"type":"noteOn","velocity":68},{"channel":0,"nextOffset":9108,"note":62,"tick":21360,"time":111.25,"type":"noteOff","velocity":0},{"channel":0,"nextOffset":9112,"note":60,"tick":21384,"time":111.375,"type":"noteOff","velocity":0},{"channel":0,"nextOffset":9116,"note":65,"tick":21384,"time":111.375,"type":"noteOn","velocity":68},{"channel":0,"nextOffset":9120,"note":38,"tick":21408,"time":111.5,"type":"noteOff","velocity":0},{"channel":0,"nextOffset":9124,"note":45,"tick":21408,"time":111.5,"type":"noteOn","velocity":68},{"channel":0,"nextOffset":9128,"note":60,"tick":21408,"time":111.5,"type":"noteOn","velocity":68},{"channel":0,"nextOffset":9132,"note":64,"tick":21408,"time":111.5,"type":"noteOn","velocity":68},{"channel":0,"nextOffset":9136,"note":65,"tick":21408,"time":111.5,"type":"noteOff","velocity":0},{"channel":0,"nextOffset":9140,"note":69,"tick":21408,"time":111.5,"type":"noteOn","velocity":68},{"channel":0,"nextOffset":9144,"note":44,"tick":21456,"time":111.75,"type":"noteOn","velocity":68},{"channel":0,"nextOffset":9148,"note":45,"tick":21456,"time":111.75,"type":"noteOff","velocity":0},{"channel":0,"nextOffset":9152,"note":59,"tick":21456,"time":111.75,"type":"noteOn","velocity":68},{"channel":0,"nextOffset":9156,"note":60,"tick":21456,"time":111.75,"type":"noteOff","velocity":0},{"channel":0,"nextOffset":9160,"note":63,"tick":21456,"time":111.75,"type":"noteOn","velocity":68},{"channel":0,"nextOffset":9164,"note":64,"tick":21456,"time":111.75,"type":"noteOff","velocity":0},{"channel":0,"nextOffset":9168,"note":68,"tick":21456,"time":111.75,"type":"noteOn","velocity":68},{"channel":0,"nextOffset":9172,"note":69,"tick":21456,"time":111.75,"type":"noteOff","velocity":0},{"channel":0,"nextOffset":9176,"note":43,"tick":21504,"time":112,"type":"noteOn","velocity":68},{"channel":0,"nextOffset":9180,"note":44,"tick":21504,"time":112,"type":"noteOff","velocity":0},{"channel":0,"nextOffset":9184,"note":58,"tick":21504,"time":112,"type":"noteOn","velocity":68},{"channel":0,"nextOffset":9188,"note":59,"tick":21504,"time":112,"type":"noteOff","velocity":0},{"channel":0,"nextOffset":9192,"note":62,"tick":21504,"time":112,"type":"noteOn","velocity":68},{"channel":0,"nextOffset":9196,"note":63,"tick":21504,"time":112,"type":"noteOff","velocity":0},{"channel":0,"nextOffset":9200,"note":65,"tick":21504,"time":112,"type":"noteOn","velocity":68},{"channel":0,"nextOffset":9204,"note":68,"tick":21504,"time":112,"type":"noteOff","velocity":0},{"channel":0,"nextOffset":9208,"note":69,"tick":21504,"time":112,"type":"noteOn","velocity":68},{"channel":0,"nextOffset":9212,"note":43,"tick":21552,"time":112.25,"type":"noteOff","velocity":0},{"channel":0,"nextOffset":9216,"note":50,"tick":21552,"time":112.25,"type":"noteOn","velocity":68},{"channel":0,"nextOffset":9220,"note":43,"tick":21600,"time":112.5,"type":"noteOn","velocity":68},{"channel":0,"nextOffset":9224,"note":50,"tick":21600,"time":112.5,"type":"noteOff","velocity":0},{"channel":0,"nextOffset":9228,"note":58,"tick":21600,"time":112.5,"type":"noteOff","velocity":0},{"channel":0,"nextOffset":9232,"note":62,"tick":21600,"time":112.5,"type":"noteOff","velocity":0},{"channel":0,"nextOffset":9236,"note":65,"tick":21600,"time":112.5,"type":"noteOff","velocity":0},{"channel":0,"nextOffset":9240,"note":69,"tick":21600,"time":112.5,"type":"noteOff","velocity":0},{"channel":0,"nextOffset":9244,"note":43,"tick":21648,"time":112.75,"type":"noteOff","velocity":0},{"channel":0,"nextOffset":9248,"note":44,"tick":21648,"time":112.75,"type":"noteOn","velocity":68},{"channel":0,"nextOffset":9252,"note":65,"tick":21648,"time":112.75,"type":"noteOn","velocity":68},{"channel":0,"nextOffset":9256,"note":65,"tick":21672,"time":112.875,"type":"noteOff","velocity":0},{"channel":0,"nextOffset":9260,"note":69,"tick":21672,"time":112.875,"type":"noteOn","velocity":68},{"channel":0,"nextOffset":9264,"note":44,"tick":21696,"time":113,"type":"noteOff","velocity":0},{"channel":0,"nextOffset":9268,"note":45,"tick":21696,"time":113,"type":"noteOn","velocity":68},{"channel":0,"nextOffset":9272,"note":60,"tick":21696,"time":113,"type":"noteOn","velocity":68},{"channel":0,"nextOffset":9276,"note":64,"tick":21696,"time":113,"type":"noteOn","velocity":68},{"channel":0,"nextOffset":9280,"note":67,"tick":21696,"time":113,"type":"noteOn","velocity":68},{"channel":0,"nextOffset":9284,"note":69,"tick":21696,"time":113,"type":"noteOff","velocity":0},{"channel":0,"nextOffset":9288,"note":72,"tick":21696,"time":113,"type":"noteOn","velocity":68},{"channel":0,"nextOffset":9292,"note":45,"tick":21744,"time":113.25,"type":"noteOff","velocity":0},{"channel":0,"nextOffset":9296,"note":60,"tick":21744,"time":113.25,"type":"noteOff","velocity":0},{"channel":0,"nextOffset":9300,"note":64,"tick":21744,"time":113.25,"type":"noteOff","velocity":0},{"channel":0,"nextOffset":9304,"note":67,"tick":21744,"time":113.25,"type":"noteOff","velocity":0},{"channel":0,"nextOffset":9308,"note":72,"tick":21744,"time":113.25,"type":"noteOff","velocity":0},{"channel":0,"nextOffset":9312,"note":45,"tick":21768,"time":113.375,"type":"noteOn","velocity":68},{"channel":0,"nextOffset":9316,"note":61,"tick":21768,"time":113.375,"type":"noteOn","velocity":68},{"channel":0,"nextOffset":9320,"note":65,"tick":21768,"time":113.375,"type":"noteOn","velocity":68},{"channel":0,"nextOffset":9324,"note":67,"tick":21768,"time":113.375,"type":"noteOn","velocity":68},{"channel":0,"nextOffset":9328,"note":70,"tick":21768,"time":113.375,"type":"noteOn","velocity":68},{"channel":0,"nextOffset":9332,"note":45,"tick":21792,"time":113.5,"type":"noteOff","velocity":0},{"channel":0,"nextOffset":9336,"note":61,"tick":21816,"time":113.625,"type":"noteOff","velocity":0},{"channel":0,"nextOffset":9340,"note":65,"tick":21816,"time":113.625,"type":"noteOff","velocity":0},{"channel":0,"nextOffset":9344,"note":67,"tick":21816,"time":113.625,"type":"noteOff","velocity":0},{"channel":0,"nextOffset":9348,"note":70,"tick":21816,"time":113.625,"type":"noteOff","velocity":0},{"channel":0,"nextOffset":9352,"note":38,"tick":21840,"time":113.75,"type":"noteOn","velocity":68},{"channel":0,"nextOffset":9356,"note":60,"tick":21840,"time":113.75,"type":"noteOn","velocity":68},{"channel":0,"nextOffset":9360,"note":64,"tick":21840,"time":113.75,"type":"noteOn","velocity":68},{"channel":0,"nextOffset":9364,"note":65,"tick":21840,"time":113.75,"type":"noteOn","velocity":68},{"channel":0,"nextOffset":9368,"note":69,"tick":21840,"time":113.75,"type":"noteOn","velocity":68},{"channel":0,"nextOffset":9372,"note":38,"tick":21888,"time":114,"type":"noteOff","velocity":0},{"channel":0,"nextOffset":9376,"note":60,"tick":21888,"time":114,"type":"noteOff","velocity":0},{"channel":0,"nextOffset":9380,"note":64,"tick":21888,"time":114,"type":"noteOff","velocity":0},{"channel":0,"nextOffset":9384,"note":65,"tick":21888,"time":114,"type":"noteOff","velocity":0},{"channel":0,"nextOffset":9388,"note":69,"tick":21888,"time":114,"type":"noteOff","velocity":0},{"channel":0,"nextOffset":9392,"note":76,"tick":21888,"time":114,"type":"noteOn","velocity":68},{"channel":0,"nextOffset":9396,"note":76,"tick":21912,"time":114.125,"type":"noteOff","velocity":0},{"channel":0,"nextOffset":9400,"note":77,"tick":21912,"time":114.125,"type":"noteOn","velocity":68},{"channel":0,"nextOffset":9404,"note":50,"tick":21936,"time":114.25,"type":"noteOn","velocity":68},{"channel":0,"nextOffset":9408,"note":76,"tick":21936,"time":114.25,"type":"noteOn","velocity":68},{"channel":0,"nextOffset":9412,"note":77,"tick":21936,"time":114.25,"type":"noteOff","velocity":0},{"channel":0,"nextOffset":9416,"note":72,"tick":21960,"time":114.375,"type":"noteOn","velocity":68},{"channel":0,"nextOffset":9420,"note":76,"tick":21960,"time":114.375,"type":"noteOff","velocity":0},{"channel":0,"nextOffset":9424,"note":38,"tick":21984,"time":114.5,"type":"noteOn","velocity":68},{"channel":0,"nextOffset":9428,"note":50,"tick":21984,"time":114.5,"type":"noteOff","velocity":0},{"channel":0,"nextOffset":9432,"note":72,"tick":21984,"time":114.5,"type":"noteOff","velocity":0},{"channel":0,"nextOffset":9436,"note":76,"tick":21984,"time":114.5,"type":"noteOn","velocity":68},{"channel":0,"nextOffset":9440,"note":72,"tick":22008,"time":114.625,"type":"noteOn","velocity":68},{"channel":0,"nextOffset":9444,"note":76,"tick":22008,"time":114.625,"type":"noteOff","velocity":0},{"channel":0,"nextOffset":9448,"note":38,"tick":22032,"time":114.75,"type":"noteOff","velocity":0},{"channel":0,"nextOffset":9452,"note":45,"tick":22032,"time":114.75,"type":"noteOn","velocity":68},{"channel":0,"nextOffset":9456,"note":69,"tick":22032,"time":114.75,"type":"noteOn","velocity":68},{"channel":0,"nextOffset":9460,"note":72,"tick":22032,"time":114.75,"type":"noteOff","velocity":0},{"channel":0,"nextOffset":9464,"note":67,"tick":22056,"time":114.875,"type":"noteOn","velocity":68},{"channel":0,"nextOffset":9468,"note":69,"tick":22056,"time":114.875,"type":"noteOff","velocity":0},{"channel":0,"nextOffset":9472,"note":45,"tick":22080,"time":115,"type":"noteOff","velocity":0},{"channel":0,"nextOffset":9476,"note":50,"tick":22080,"time":115,"type":"noteOn","velocity":68},{"channel":0,"nextOffset":9480,"note":67,"tick":22080,"time":115,"type":"noteOff","velocity":0},{"channel":0,"nextOffset":9484,"note":69,"tick":22080,"time":115,"type":"noteOn","velocity":68},{"channel":0,"nextOffset":9488,"note":62,"tick":22104,"time":115.125,"type":"noteOn","velocity":68},{"channel":0,"nextOffset":9492,"note":69,"tick":22104,"time":115.125,"type":"noteOff","velocity":0},{"channel":0,"nextOffset":9496,"note":38,"tick":22128,"time":115.25,"type":"noteOn","velocity":68},{"channel":0,"nextOffset":9500,"note":50,"tick":22128,"time":115.25,"type":"noteOff","velocity":0},{"channel":0,"nextOffset":9504,"note":60,"tick":22128,"time":115.25,"type":"noteOn","velocity":68},{"channel":0,"nextOffset":9508,"note":62,"tick":22128,"time":115.25,"type":"noteOff","velocity":0},{"channel":0,"nextOffset":9512,"note":60,"tick":22152,"time":115.375,"type":"noteOff","velocity":0},{"channel":0,"nextOffset":9516,"note":65,"tick":22152,"time":115.375,"type":"noteOn","velocity":68},{"channel":0,"nextOffset":9520,"note":38,"tick":22176,"time":115.5,"type":"noteOff","velocity":0},{"channel":0,"nextOffset":9524,"note":45,"tick":22176,"time":115.5,"type":"noteOn","velocity":68},{"channel":0,"nextOffset":9528,"note":60,"tick":22176,"time":115.5,"type":"noteOn","velocity":68},{"channel":0,"nextOffset":9532,"note":64,"tick":22176,"time":115.5,"type":"noteOn","velocity":68},{"channel":0,"nextOffset":9536,"note":65,"tick":22176,"time":115.5,"type":"noteOff","velocity":0},{"channel":0,"nextOffset":9540,"note":69,"tick":22176,"time":115.5,"type":"noteOn","velocity":68},{"channel":0,"nextOffset":9544,"note":44,"tick":22224,"time":115.75,"type":"noteOn","velocity":68},{"channel":0,"nextOffset":9548,"note":45,"tick":22224,"time":115.75,"type":"noteOff","velocity":0},{"channel":0,"nextOffset":9552,"note":59,"tick":22224,"time":115.75,"type":"noteOn","velocity":68},{"channel":0,"nextOffset":9556,"note":60,"tick":22224,"time":115.75,"type":"noteOff","velocity":0},{"channel":0,"nextOffset":9560,"note":63,"tick":22224,"time":115.75,"type":"noteOn","velocity":68},{"channel":0,"nextOffset":9564,"note":64,"tick":22224,"time":115.75,"type":"noteOff","velocity":0},{"channel":0,"nextOffset":9568,"note":68,"tick":22224,"time":115.75,"type":"noteOn","velocity":68},{"channel":0,"nextOffset":9572,"note":69,"tick":22224,"time":115.75,"type":"noteOff","velocity":0},{"channel":0,"nextOffset":9576,"note":43,"tick":22272,"time":116,"type":"noteOn","velocity":68},{"channel":0,"nextOffset":9580,"note":44,"tick":22272,"time":116,"type":"noteOff","velocity":0},{"channel":0,"nextOffset":9584,"note":58,"tick":22272,"time":116,"type":"noteOn","velocity":68},{"channel":0,"nextOffset":9588,"note":59,"tick":22272,"time":116,"type":"noteOff","velocity":0},{"channel":0,"nextOffset":9592,"note":62,"tick":22272,"time":116,"type":"noteOn","velocity":68},{"channel":0,"nextOffset":9596,"note":63,"tick":22272,"time":116,"type":"noteOff","velocity":0},{"channel":0,"nextOffset":9600,"note":65,"tick":22272,"time":116,"type":"noteOn","velocity":68},{"channel":0,"nextOffset":9604,"note":68,"tick":22272,"time":116,"type":"noteOff","velocity":0},{"channel":0,"nextOffset":9608,"note":69,"tick":22272,"time":116,"type":"noteOn","velocity":68},{"channel":0,"nextOffset":9612,"note":43,"tick":22320,"time":116.25,"type":"noteOff","velocity":0},{"channel":0,"nextOffset":9616,"note":43,"tick":22368,"time":116.5,"type":"noteOn","velocity":68},{"channel":0,"nextOffset":9620,"note":58,"tick":22368,"time":116.5,"type":"noteOff","velocity":0},{"channel":0,"nextOffset":9624,"note":62,"tick":22368,"time":116.5,"type":"noteOff","velocity":0},{"channel":0,"nextOffset":9628,"note":65,"tick":22368,"time":116.5,"type":"noteOff","velocity":0},{"channel":0,"nextOffset":9632,"note":69,"tick":22368,"time":116.5,"type":"noteOff","velocity":0},{"channel":0,"nextOffset":9636,"note":43,"tick":22416,"time":116.75,"type":"noteOff","velocity":0},{"channel":0,"nextOffset":9640,"note":44,"tick":22416,"time":116.75,"type":"noteOn","velocity":68},{"channel":0,"nextOffset":9644,"note":65,"tick":22416,"time":116.75,"type":"noteOn","velocity":68},{"channel":0,"nextOffset":9648,"note":65,"tick":22440,"time":116.875,"type":"noteOff","velocity":0},{"channel":0,"nextOffset":9652,"note":69,"tick":22440,"time":116.875,"type":"noteOn","velocity":68},{"channel":0,"nextOffset":9656,"note":44,"tick":22464,"time":117,"type":"noteOff","velocity":0},{"channel":0,"nextOffset":9660,"note":45,"tick":22464,"time":117,"type":"noteOn","velocity":68},{"channel":0,"nextOffset":9664,"note":60,"tick":22464,"time":117,"type":"noteOn","velocity":68},{"channel":0,"nextOffset":9668,"note":64,"tick":22464,"time":117,"type":"noteOn","velocity":68},{"channel":0,"nextOffset":9672,"note":67,"tick":22464,"time":117,"type":"noteOn","velocity":68},{"channel":0,"nextOffset":9676,"note":69,"tick":22464,"time":117,"type":"noteOff","velocity":0},{"channel":0,"nextOffset":9680,"note":72,"tick":22464,"time":117,"type":"noteOn","velocity":68},{"channel":0,"nextOffset":9684,"note":45,"tick":22512,"time":117.25,"type":"noteOff","velocity":0},{"channel":0,"nextOffset":9688,"note":60,"tick":22512,"time":117.25,"type":"noteOff","velocity":0},{"channel":0,"nextOffset":9692,"note":64,"tick":22512,"time":117.25,"type":"noteOff","velocity":0},{"channel":0,"nextOffset":9696,"note":67,"tick":22512,"time":117.25,"type":"noteOff","velocity":0},{"channel":0,"nextOffset":9700,"note":72,"tick":22512,"time":117.25,"type":"noteOff","velocity":0},{"channel":0,"nextOffset":9704,"note":45,"tick":22536,"time":117.375,"type":"noteOn","velocity":68},{"channel":0,"nextOffset":9708,"note":61,"tick":22536,"time":117.375,"type":"noteOn","velocity":68},{"channel":0,"nextOffset":9712,"note":65,"tick":22536,"time":117.375,"type":"noteOn","velocity":68},{"channel":0,"nextOffset":9716,"note":67,"tick":22536,"time":117.375,"type":"noteOn","velocity":68},{"channel":0,"nextOffset":9720,"note":70,"tick":22536,"time":117.375,"type":"noteOn","velocity":68},{"channel":0,"nextOffset":9724,"note":45,"tick":22560,"time":117.5,"type":"noteOff","velocity":0},{"channel":0,"nextOffset":9728,"note":61,"tick":22584,"time":117.625,"type":"noteOff","velocity":0},{"channel":0,"nextOffset":9732,"note":65,"tick":22584,"time":117.625,"type":"noteOff","velocity":0},{"channel":0,"nextOffset":9736,"note":67,"tick":22584,"time":117.625,"type":"noteOff","velocity":0},{"channel":0,"nextOffset":9740,"note":70,"tick":22584,"time":117.625,"type":"noteOff","velocity":0},{"channel":0,"nextOffset":9744,"note":38,"tick":22608,"time":117.75,"type":"noteOn","velocity":68},{"channel":0,"nextOffset":9748,"note":60,"tick":22608,"time":117.75,"type":"noteOn","velocity":68},{"channel":0,"nextOffset":9752,"note":64,"tick":22608,"time":117.75,"type":"noteOn","velocity":68},{"channel":0,"nextOffset":9756,"note":65,"tick":22608,"time":117.75,"type":"noteOn","velocity":68},{"channel":0,"nextOffset":9760,"note":69,"tick":22608,"time":117.75,"type":"noteOn","velocity":68},{"channel":0,"nextOffset":9764,"note":38,"tick":22656,"time":118,"type":"noteOff","velocity":0},{"channel":0,"nextOffset":9768,"note":50,"tick":22656,"time":118,"type":"noteOn","velocity":68},{"channel":0,"nextOffset":9772,"note":60,"tick":22656,"time":118,"type":"noteOff","velocity":0},{"channel":0,"nextOffset":9776,"note":64,"tick":22656,"time":118,"type":"noteOff","velocity":0},{"channel":0,"nextOffset":9780,"note":65,"tick":22656,"time":118,"type":"noteOff","velocity":0},{"channel":0,"nextOffset":9784,"note":69,"tick":22656,"time":118,"type":"noteOff","velocity":0},{"channel":0,"nextOffset":9788,"note":76,"tick":22656,"time":118,"type":"noteOn","velocity":68},{"channel":0,"nextOffset":9792,"note":76,"tick":22680,"time":118.125,"type":"noteOff","velocity":0},{"channel":0,"nextOffset":9796,"note":77,"tick":22680,"time":118.125,"type":"noteOn","velocity":68},{"channel":0,"nextOffset":9800,"note":38,"tick":22704,"time":118.25,"type":"noteOn","velocity":68},{"channel":0,"nextOffset":9804,"note":50,"tick":22704,"time":118.25,"type":"noteOff","velocity":0},{"channel":0,"nextOffset":9808,"note":77,"tick":22704,"time":118.25,"type":"noteOff","velocity":0},{"channel":0,"nextOffset":9812,"note":79,"tick":22704,"time":118.25,"type":"noteOn","velocity":68},{"channel":0,"nextOffset":9816,"note":77,"tick":22728,"time":118.375,"type":"noteOn","velocity":68},{"channel":0,"nextOffset":9820,"note":79,"tick":22728,"time":118.375,"type":"noteOff","velocity":0},{"channel":0,"nextOffset":9824,"note":38,"tick":22752,"time":118.5,"type":"noteOff","velocity":0},{"channel":0,"nextOffset":9828,"note":45,"tick":22752,"time":118.5,"type":"noteOn","velocity":68},{"channel":0,"nextOffset":9832,"note":76,"tick":22752,"time":118.5,"type":"noteOn","velocity":68},{"channel":0,"nextOffset":9836,"note":77,"tick":22752,"time":118.5,"type":"noteOff","velocity":0},{"channel":0,"nextOffset":9840,"note":72,"tick":22776,"time":118.625,"type":"noteOn","velocity":68},{"channel":0,"nextOffset":9844,"note":76,"tick":22776,"time":118.625,"type":"noteOff","velocity":0},{"channel":0,"nextOffset":9848,"note":38,"tick":22800,"time":118.75,"type":"noteOn","velocity":68},{"channel":0,"nextOffset":9852,"note":45,"tick":22800,"time":118.75,"type":"noteOff","velocity":0},{"channel":0,"nextOffset":9856,"note":69,"tick":22800,"time":118.75,"type":"noteOn","velocity":68},{"channel":0,"nextOffset":9860,"note":72,"tick":22800,"time":118.75,"type":"noteOff","velocity":0},{"channel":0,"nextOffset":9864,"note":67,"tick":22824,"time":118.875,"type":"noteOn","velocity":68},{"channel":0,"nextOffset":9868,"note":69,"tick":22824,"time":118.875,"type":"noteOff","velocity":0},{"channel":0,"nextOffset":9872,"note":38,"tick":22848,"time":119,"type":"noteOff","velocity":0},{"channel":0,"nextOffset":9876,"note":50,"tick":22848,"time":119,"type":"noteOn","velocity":68},{"channel":0,"nextOffset":9880,"note":67,"tick":22848,"time":119,"type":"noteOff","velocity":0},{"channel":0,"nextOffset":9884,"note":69,"tick":22848,"time":119,"type":"noteOn","velocity":68},{"channel":0,"nextOffset":9888,"note":62,"tick":22872,"time":119.125,"type":"noteOn","velocity":68},{"channel":0,"nextOffset":9892,"note":69,"tick":22872,"time":119.125,"type":"noteOff","velocity":0},{"channel":0,"nextOffset":9896,"note":38,"tick":22896,"time":119.25,"type":"noteOn","velocity":68},{"channel":0,"nextOffset":9900,"note":50,"tick":22896,"time":119.25,"type":"noteOff","velocity":0},{"channel":0,"nextOffset":9904,"note":60,"tick":22896,"time":119.25,"type":"noteOn","velocity":68},{"channel":0,"nextOffset":9908,"note":62,"tick":22896,"time":119.25,"type":"noteOff","velocity":0},{"channel":0,"nextOffset":9912,"note":60,"tick":22920,"time":119.375,"type":"noteOff","velocity":0},{"channel":0,"nextOffset":9916,"note":65,"tick":22920,"time":119.375,"type":"noteOn","velocity":68},{"channel":0,"nextOffset":9920,"note":38,"tick":22944,"time":119.5,"type":"noteOff","velocity":0},{"channel":0,"nextOffset":9924,"note":45,"tick":22944,"time":119.5,"type":"noteOn","velocity":68},{"channel":0,"nextOffset":9928,"note":60,"tick":22944,"time":119.5,"type":"noteOn","velocity":68},{"channel":0,"nextOffset":9932,"note":64,"tick":22944,"time":119.5,"type":"noteOn","velocity":68},{"channel":0,"nextOffset":9936,"note":65,"tick":22944,"time":119.5,"type":"noteOff","velocity":0},{"channel":0,"nextOffset":9940,"note":69,"tick":22944,"time":119.5,"type":"noteOn","velocity":68},{"channel":0,"nextOffset":9944,"note":44,"tick":22992,"time":119.75,"type":"noteOn","velocity":68},{"channel":0,"nextOffset":9948,"note":45,"tick":22992,"time":119.75,"type":"noteOff","velocity":0},{"channel":0,"nextOffset":9952,"note":59,"tick":22992,"time":119.75,"type":"noteOn","velocity":68},{"channel":0,"nextOffset":9956,"note":60,"tick":22992,"time":119.75,"type":"noteOff","velocity":0},{"channel":0,"nextOffset":9960,"note":63,"tick":22992,"time":119.75,"type":"noteOn","velocity":68},{"channel":0,"nextOffset":9964,"note":64,"tick":22992,"time":119.75,"type":"noteOff","velocity":0},{"channel":0,"nextOffset":9968,"note":68,"tick":22992,"time":119.75,"type":"noteOn","velocity":68},{"channel":0,"nextOffset":9972,"note":69,"tick":22992,"time":119.75,"type":"noteOff","velocity":0},{"channel":0,"nextOffset":9976,"note":43,"tick":23040,"time":120,"type":"noteOn","velocity":68},{"channel":0,"nextOffset":9980,"note":44,"tick":23040,"time":120,"type":"noteOff","velocity":0},{"channel":0,"nextOffset":9984,"note":58,"tick":23040,"time":120,"type":"noteOn","velocity":68},{"channel":0,"nextOffset":9988,"note":59,"tick":23040,"time":120,"type":"noteOff","velocity":0},{"channel":0,"nextOffset":9992,"note":62,"tick":23040,"time":120,"type":"noteOn","velocity":68},{"channel":0,"nextOffset":9996,"note":63,"tick":23040,"time":120,"type":"noteOff","velocity":0},{"channel":0,"nextOffset":10000,"note":65,"tick":23040,"time":120,"type":"noteOn","velocity":68},{"channel":0,"nextOffset":10004,"note":68,"tick":23040,"time":120,"type":"noteOff","velocity":0},{"channel":0,"nextOffset":10008,"note":69,"tick":23040,"time":120,"type":"noteOn","velocity":68},{"channel":0,"nextOffset":10012,"note":43,"tick":23088,"time":120.25,"type":"noteOff","velocity":0},{"channel":0,"nextOffset":10016,"note":43,"tick":23136,"time":120.5,"type":"noteOn","velocity":68},{"channel":0,"nextOffset":10020,"note":58,"tick":23136,"time":120.5,"type":"noteOff","velocity":0},{"channel":0,"nextOffset":10024,"note":62,"tick":23136,"time":120.5,"type":"noteOff","velocity":0},{"channel":0,"nextOffset":10028,"note":65,"tick":23136,"time":120.5,"type":"noteOff","velocity":0},{"channel":0,"nextOffset":10032,"note":69,"tick":23136,"time":120.5,"type":"noteOff","velocity":0},{"channel":0,"nextOffset":10036,"note":43,"tick":23184,"time":120.75,"type":"noteOff","velocity":0},{"channel":0,"nextOffset":10040,"note":44,"tick":23184,"time":120.75,"type":"noteOn","velocity":68},{"channel":0,"nextOffset":10044,"note":65,"tick":23184,"time":120.75,"type":"noteOn","velocity":68},{"channel":0,"nextOffset":10048,"note":65,"tick":23208,"time":120.875,"type":"noteOff","velocity":0},{"channel":0,"nextOffset":10052,"note":69,"tick":23208,"time":120.875,"type":"noteOn","velocity":68},{"channel":0,"nextOffset":10056,"note":44,"tick":23232,"time":121,"type":"noteOff","velocity":0},{"channel":0,"nextOffset":10060,"note":45,"tick":23232,"time":121,"type":"noteOn","velocity":68},{"channel":0,"nextOffset":10064,"note":60,"tick":23232,"time":121,"type":"noteOn","velocity":68},{"channel":0,"nextOffset":10068,"note":64,"tick":23232,"time":121,"type":"noteOn","velocity":68},{"channel":0,"nextOffset":10072,"note":67,"tick":23232,"time":121,"type":"noteOn","velocity":68},{"channel":0,"nextOffset":10076,"note":69,"tick":23232,"time":121,"type":"noteOff","velocity":0},{"channel":0,"nextOffset":10080,"note":72,"tick":23232,"time":121,"type":"noteOn","velocity":68},{"channel":0,"nextOffset":10084,"note":45,"tick":23280,"time":121.25,"type":"noteOff","velocity":0},{"channel":0,"nextOffset":10088,"note":60,"tick":23280,"time":121.25,"type":"noteOff","velocity":0},{"channel":0,"nextOffset":10092,"note":64,"tick":23280,"time":121.25,"type":"noteOff","velocity":0},{"channel":0,"nextOffset":10096,"note":67,"tick":23280,"time":121.25,"type":"noteOff","velocity":0},{"channel":0,"nextOffset":10100,"note":72,"tick":23280,"time":121.25,"type":"noteOff","velocity":0},{"channel":0,"nextOffset":10104,"note":39,"tick":23328,"time":121.5,"type":"noteOn","velocity":68},{"channel":0,"nextOffset":10108,"note":67,"tick":23328,"time":121.5,"type":"noteOn","velocity":68},{"channel":0,"nextOffset":10112,"note":70,"tick":23328,"time":121.5,"type":"noteOn","velocity":68},{"channel":0,"nextOffset":10116,"note":73,"tick":23328,"time":121.5,"type":"noteOn","velocity":68},{"channel":0,"nextOffset":10120,"note":77,"tick":23328,"time":121.5,"type":"noteOn","velocity":68},{"channel":0,"nextOffset":10124,"note":39,"tick":23376,"time":121.75,"type":"noteOff","velocity":0},{"channel":0,"nextOffset":10128,"note":67,"tick":23376,"time":121.75,"type":"noteOff","velocity":0},{"channel":0,"nextOffset":10132,"note":70,"tick":23376,"time":121.75,"type":"noteOff","velocity":0},{"channel":0,"nextOffset":10136,"note":73,"tick":23376,"time":121.75,"type":"noteOff","velocity":0},{"channel":0,"nextOffset":10140,"note":77,"tick":23376,"time":121.75,"type":"noteOff","velocity":0},{"channel":0,"nextOffset":10144,"note":38,"tick":23424,"time":122,"type":"noteOn","velocity":68},{"channel":0,"nextOffset":10148,"note":65,"tick":23424,"time":122,"type":"noteOn","velocity":68},{"channel":0,"nextOffset":10152,"note":69,"tick":23424,"time":122,"type":"noteOn","velocity":68},{"channel":0,"nextOffset":10156,"note":72,"tick":23424,"time":122,"type":"noteOn","velocity":68},{"channel":0,"nextOffset":10160,"note":76,"tick":23424,"time":122,"type":"noteOn","velocity":68},{"channel":0,"nextOffset":10164,"note":38,"tick":23472,"time":122.25,"type":"noteOff","velocity":0},{"channel":0,"nextOffset":10168,"note":65,"tick":23472,"time":122.25,"type":"noteOff","velocity":0},{"channel":0,"nextOffset":10172,"note":69,"tick":23472,"time":122.25,"type":"noteOff","velocity":0},{"channel":0,"nextOffset":10176,"note":72,"tick":23472,"time":122.25,"type":"noteOff","velocity":0},{"channel":0,"nextOffset":10180,"note":76,"tick":23472,"time":122.25,"type":"noteOff","velocity":0},{"channel":0,"nextOffset":10184,"note":72,"tick":23520,"time":122.5,"type":"noteOn","velocity":68},{"channel":0,"nextOffset":10188,"note":65,"tick":23568,"time":122.75,"type":"noteOn","velocity":68},{"channel":0,"nextOffset":10192,"note":69,"tick":23568,"time":122.75,"type":"noteOn","velocity":68},{"channel":0,"nextOffset":10196,"note":72,"tick":23568,"time":122.75,"type":"noteOff","velocity":0},{"channel":0,"nextOffset":10200,"note":36,"tick":23616,"time":123,"type":"noteOn","velocity":68},{"channel":0,"nextOffset":10204,"note":64,"tick":23616,"time":123,"type":"noteOn","velocity":68},{"channel":0,"nextOffset":10208,"note":65,"tick":23616,"time":123,"type":"noteOff","velocity":0},{"channel":0,"nextOffset":10212,"note":67,"tick":23616,"time":123,"type":"noteOn","velocity":68},{"channel":0,"nextOffset":10216,"note":69,"tick":23616,"time":123,"type":"noteOff","velocity":0},{"channel":0,"nextOffset":10220,"note":62,"tick":23664,"time":123.25,"type":"noteOn","velocity":68},{"channel":0,"nextOffset":10224,"note":64,"tick":23664,"time":123.25,"type":"noteOff","velocity":0},{"channel":0,"nextOffset":10228,"note":65,"tick":23664,"time":123.25,"type":"noteOn","velocity":68},{"channel":0,"nextOffset":10232,"note":67,"tick":23664,"time":123.25,"type":"noteOff","velocity":0},{"channel":0,"nextOffset":10236,"note":36,"tick":23712,"time":123.5,"type":"noteOff","velocity":0},{"channel":0,"nextOffset":10240,"note":41,"tick":23712,"time":123.5,"type":"noteOn","velocity":68},{"channel":0,"nextOffset":10244,"note":60,"tick":23712,"time":123.5,"type":"noteOn","velocity":68},{"channel":0,"nextOffset":10248,"note":62,"tick":23712,"time":123.5,"type":"noteOff","velocity":0},{"channel":0,"nextOffset":10252,"note":64,"tick":23712,"time":123.5,"type":"noteOn","velocity":68},{"channel":0,"nextOffset":10256,"note":65,"tick":23712,"time":123.5,"type":"noteOff","velocity":0},{"channel":0,"nextOffset":10260,"note":57,"tick":23760,"time":123.75,"type":"noteOn","velocity":68},{"channel":0,"nextOffset":10264,"note":60,"tick":23760,"time":123.75,"type":"noteOff","velocity":0},{"channel":0,"nextOffset":10268,"note":60,"tick":23760,"time":123.75,"type":"noteOn","velocity":68},{"channel":0,"nextOffset":10272,"note":64,"tick":23760,"time":123.75,"type":"noteOff","velocity":0},{"channel":0,"nextOffset":10276,"note":34,"tick":23808,"time":124,"type":"noteOn","velocity":68},{"channel":0,"nextOffset":10280,"note":41,"tick":23808,"time":124,"type":"noteOff","velocity":0},{"channel":0,"nextOffset":10284,"note":57,"tick":23808,"time":124,"type":"noteOff","velocity":0},{"channel":0,"nextOffset":10288,"note":60,"tick":23808,"time":124,"type":"noteOff","velocity":0},{"channel":0,"nextOffset":10292,"note":53,"tick":23856,"time":124.25,"type":"noteOn","velocity":68},{"channel":0,"nextOffset":10296,"note":57,"tick":23856,"time":124.25,"type":"noteOn","velocity":68},{"channel":0,"nextOffset":10300,"note":34,"tick":23904,"time":124.5,"type":"noteOff","velocity":0},{"channel":0,"nextOffset":10304,"note":38,"tick":23904,"time":124.5,"type":"noteOn","velocity":68},{"channel":0,"nextOffset":10308,"note":50,"tick":23904,"time":124.5,"type":"noteOn","velocity":68},{"channel":0,"nextOffset":10312,"note":53,"tick":23904,"time":124.5,"type":"noteOff","velocity":0},{"channel":0,"nextOffset":10316,"note":57,"tick":23904,"time":124.5,"type":"noteOff","velocity":0},{"channel":0,"nextOffset":10320,"note":58,"tick":23904,"time":124.5,"type":"noteOn","velocity":68},{"channel":0,"nextOffset":10324,"note":57,"tick":23952,"time":124.75,"type":"noteOn","velocity":68},{"channel":0,"nextOffset":10328,"note":58,"tick":23952,"time":124.75,"type":"noteOff","velocity":0},{"channel":0,"nextOffset":10332,"note":60,"tick":23952,"time":124.75,"type":"noteOn","velocity":68},{"channel":0,"nextOffset":10336,"note":38,"tick":24000,"time":125,"type":"noteOff","velocity":0},{"channel":0,"nextOffset":10340,"note":40,"tick":24000,"time":125,"type":"noteOn","velocity":68},{"channel":0,"nextOffset":10344,"note":50,"tick":24000,"time":125,"type":"noteOff","velocity":0},{"channel":0,"nextOffset":10348,"note":57,"tick":24000,"time":125,"type":"noteOff","velocity":0},{"channel":0,"nextOffset":10352,"note":58,"tick":24000,"time":125,"type":"noteOn","velocity":68},{"channel":0,"nextOffset":10356,"note":60,"tick":24000,"time":125,"type":"noteOff","velocity":0},{"channel":0,"nextOffset":10360,"note":62,"tick":24000,"time":125,"type":"noteOn","velocity":68},{"channel":0,"nextOffset":10364,"note":58,"tick":24048,"time":125.25,"type":"noteOff","velocity":0},{"channel":0,"nextOffset":10368,"note":60,"tick":24048,"time":125.25,"type":"noteOn","velocity":68},{"channel":0,"nextOffset":10372,"note":62,"tick":24048,"time":125.25,"type":"noteOff","velocity":0},{"channel":0,"nextOffset":10376,"note":64,"tick":24048,"time":125.25,"type":"noteOn","velocity":68},{"channel":0,"nextOffset":10380,"note":40,"tick":24096,"time":125.5,"type":"noteOff","velocity":0},{"channel":0,"nextOffset":10384,"note":43,"tick":24096,"time":125.5,"type":"noteOn","velocity":68},{"channel":0,"nextOffset":10388,"note":60,"tick":24096,"time":125.5,"type":"noteOff","velocity":0},{"channel":0,"nextOffset":10392,"note":62,"tick":24096,"time":125.5,"type":"noteOn","velocity":68},{"channel":0,"nextOffset":10396,"note":64,"tick":24096,"time":125.5,"type":"noteOff","velocity":0},{"channel":0,"nextOffset":10400,"note":65,"tick":24096,"time":125.5,"type":"noteOn","velocity":68},{"channel":0,"nextOffset":10404,"note":62,"tick":24144,"time":125.75,"type":"noteOff","velocity":0},{"channel":0,"nextOffset":10408,"note":64,"tick":24144,"time":125.75,"type":"noteOn","velocity":68},{"channel":0,"nextOffset":10412,"note":65,"tick":24144,"time":125.75,"type":"noteOff","velocity":0},{"channel":0,"nextOffset":10416,"note":67,"tick":24144,"time":125.75,"type":"noteOn","velocity":68},{"channel":0,"nextOffset":10420,"note":43,"tick":24192,"time":126,"type":"noteOff","velocity":0},{"channel":0,"nextOffset":10424,"note":45,"tick":24192,"time":126,"type":"noteOn","velocity":68},{"channel":0,"nextOffset":10428,"note":61,"tick":24192,"time":126,"type":"noteOn","velocity":68},{"channel":0,"nextOffset":10432,"note":64,"tick":24192,"time":126,"type":"noteOff","velocity":0},{"channel":0,"nextOffset":10436,"note":64,"tick":24192,"time":126,"type":"noteOn","velocity":68},{"channel":0,"nextOffset":10440,"note":67,"tick":24192,"time":126,"type":"noteOff","velocity":0},{"channel":0,"nextOffset":10444,"note":45,"tick":24240,"time":126.25,"type":"noteOff","velocity":0},{"channel":0,"nextOffset":10448,"note":45,"tick":24240,"time":126.25,"type":"noteOn","velocity":68},{"channel":0,"nextOffset":10452,"note":61,"tick":24240,"time":126.25,"type":"noteOff","velocity":0},{"channel":0,"nextOffset":10456,"note":64,"tick":24240,"time":126.25,"type":"noteOff","velocity":0},{"channel":0,"nextOffset":10460,"note":45,"tick":24252,"time":126.3125,"type":"noteOff","velocity":0},{"channel":0,"nextOffset":10464,"note":45,"tick":24264,"time":126.375,"type":"noteOn","velocity":68},{"channel":0,"nextOffset":10468,"note":45,"tick":24276,"time":126.4375,"type":"noteOff","velocity":0},{"channel":0,"nextOffset":10472,"note":45,"tick":24288,"time":126.5,"type":"noteOn","velocity":68},{"channel":0,"nextOffset":10476,"note":61,"tick":24288,"time":126.5,"type":"noteOn","velocity":68},{"channel":0,"nextOffset":10480,"note":64,"tick":24288,"time":126.5,"type":"noteOn","velocity":68},{"channel":0,"nextOffset":10484,"note":69,"tick":24288,"time":126.5,"type":"noteOn","velocity":68},{"channel":0,"nextOffset":10488,"note":33,"tick":24336,"time":126.75,"type":"noteOn","velocity":68},{"channel":0,"nextOffset":10492,"note":45,"tick":24336,"time":126.75,"type":"noteOff","velocity":0},{"channel":0,"nextOffset":10496,"note":61,"tick":24336,"time":126.75,"type":"noteOff","velocity":0},{"channel":0,"nextOffset":10500,"note":64,"tick":24336,"time":126.75,"type":"noteOff","velocity":0},{"channel":0,"nextOffset":10504,"note":69,"tick":24336,"time":126.75,"type":"noteOff","velocity":0},{"channel":0,"nextOffset":10508,"note":33,"tick":24384,"time":127,"type":"noteOff","velocity":0},{"channel":0,"nextOffset":10512,"note":45,"tick":24384,"time":127,"type":"noteOn","velocity":68},{"channel":0,"nextOffset":10516,"note":73,"tick":24384,"time":127,"type":"noteOn","velocity":68},{"channel":0,"nextOffset":10520,"note":76,"tick":24384,"time":127,"type":"noteOn","velocity":68},{"channel":0,"nextOffset":10524,"note":81,"tick":24384,"time":127,"type":"noteOn","velocity":68},{"channel":0,"nextOffset":10528,"note":33,"tick":24432,"time":127.25,"type":"noteOn","velocity":68},{"channel":0,"nextOffset":10532,"note":45,"tick":24432,"time":127.25,"type":"noteOff","velocity":0},{"channel":0,"nextOffset":10536,"note":45,"tick":24432,"time":127.25,"type":"noteOn","velocity":68},{"channel":0,"nextOffset":10540,"note":73,"tick":24432,"time":127.25,"type":"noteOff","velocity":0},{"channel":0,"nextOffset":10544,"note":76,"tick":24432,"time":127.25,"type":"noteOff","velocity":0},{"channel":0,"nextOffset":10548,"note":81,"tick":24432,"time":127.25,"type":"noteOff","velocity":0},{"channel":0,"nextOffset":10552,"note":33,"tick":24480,"time":127.5,"type":"noteOff","velocity":0},{"channel":0,"nextOffset":10556,"note":33,"tick":24480,"time":127.5,"type":"noteOn","velocity":68},{"channel":0,"nextOffset":10560,"note":45,"tick":24480,"time":127.5,"type":"noteOff","velocity":0},{"channel":0,"nextOffset":10564,"note":45,"tick":24480,"time":127.5,"type":"noteOn","velocity":68},{"channel":0,"nextOffset":10568,"note":61,"tick":24480,"time":127.5,"type":"noteOn","velocity":68},{"channel":0,"nextOffset":10572,"note":67,"tick":24480,"time":127.5,"type":"noteOn","velocity":68},{"channel":0,"nextOffset":10576,"note":72,"tick":24480,"time":127.5,"type":"noteOn","velocity":68},{"channel":0,"nextOffset":10580,"note":33,"tick":24528,"time":127.75,"type":"noteOff","velocity":0},{"channel":0,"nextOffset":10584,"note":33,"tick":24528,"time":127.75,"type":"noteOn","velocity":68},{"channel":0,"nextOffset":10588,"note":45,"tick":24528,"time":127.75,"type":"noteOff","velocity":0},{"channel":0,"nextOffset":10592,"note":45,"tick":24528,"time":127.75,"type":"noteOn","velocity":68},{"channel":0,"nextOffset":10596,"note":61,"tick":24528,"time":127.75,"type":"noteOff","velocity":0},{"channel":0,"nextOffset":10600,"note":67,"tick":24528,"time":127.75,"type":"noteOff","velocity":0},{"channel":0,"nextOffset":10604,"note":71,"tick":24528,"time":127.75,"type":"noteOn","velocity":68},{"channel":0,"nextOffset":10608,"note":72,"tick":24528,"time":127.75,"type":"noteOff","velocity":0},{"channel":0,"nextOffset":10612,"note":70,"tick":24552,"time":127.875,"type":"noteOn","velocity":68},{"channel":0,"nextOffset":10616,"note":71,"tick":24552,"time":127.875,"type":"noteOff","velocity":0},{"channel":0,"nextOffset":10620,"note":31,"tick":24576,"time":128,"type":"noteOn","velocity":68},{"channel":0,"nextOffset":10624,"note":33,"tick":24576,"time":128,"type":"noteOff","velocity":0},{"channel":0,"nextOffset":10628,"note":45,"tick":24576,"time":128,"type":"noteOff","velocity":0},{"channel":0,"nextOffset":10632,"note":58,"tick":24576,"time":128,"type":"noteOn","velocity":68},{"channel":0,"nextOffset":10636,"note":62,"tick":24576,"time":128,"type":"noteOn","velocity":68},{"channel":0,"nextOffset":10640,"note":65,"tick":24576,"time":128,"type":"noteOn","velocity":68},{"channel":0,"nextOffset":10644,"note":69,"tick":24576,"time":128,"type":"noteOn","velocity":68},{"channel":0,"nextOffset":10648,"note":70,"tick":24576,"time":128,"type":"noteOff","velocity":0},{"channel":0,"nextOffset":10652,"note":31,"tick":24624,"time":128.25,"type":"noteOff","velocity":0},{"channel":0,"nextOffset":10656,"note":31,"tick":24672,"time":128.5,"type":"noteOn","velocity":68},{"channel":0,"nextOffset":10660,"note":58,"tick":24672,"time":128.5,"type":"noteOff","velocity":0},{"channel":0,"nextOffset":10664,"note":62,"tick":24672,"time":128.5,"type":"noteOff","velocity":0},{"channel":0,"nextOffset":10668,"note":65,"tick":24672,"time":128.5,"type":"noteOff","velocity":0},{"channel":0,"nextOffset":10672,"note":69,"tick":24672,"time":128.5,"type":"noteOff","velocity":0},{"channel":0,"nextOffset":10676,"note":31,"tick":24720,"time":128.75,"type":"noteOff","velocity":0},{"channel":0,"nextOffset":10680,"note":33,"tick":24768,"time":129,"type":"noteOn","velocity":68},{"channel":0,"nextOffset":10684,"note":60,"tick":24768,"time":129,"type":"noteOn","velocity":68},{"channel":0,"nextOffset":10688,"note":64,"tick":24768,"time":129,"type":"noteOn","velocity":68},{"channel":0,"nextOffset":10692,"note":67,"tick":24768,"time":129,"type":"noteOn","velocity":68},{"channel":0,"nextOffset":10696,"note":72,"tick":24768,"time":129,"type":"noteOn","velocity":68},{"channel":0,"nextOffset":10700,"note":33,"tick":24816,"time":129.25,"type":"noteOff","velocity":0},{"channel":0,"nextOffset":10704,"note":60,"tick":24816,"time":129.25,"type":"noteOff","velocity":0},{"channel":0,"nextOffset":10708,"note":64,"tick":24816,"time":129.25,"type":"noteOff","velocity":0},{"channel":0,"nextOffset":10712,"note":67,"tick":24816,"time":129.25,"type":"noteOff","velocity":0},{"channel":0,"nextOffset":10716,"note":72,"tick":24816,"time":129.25,"type":"noteOff","velocity":0},{"channel":0,"nextOffset":10720,"note":33,"tick":24840,"time":129.375,"type":"noteOn","velocity":68},{"channel":0,"nextOffset":10724,"note":61,"tick":24864,"time":129.5,"type":"noteOn","velocity":68},{"channel":0,"nextOffset":10728,"note":65,"tick":24864,"time":129.5,"type":"noteOn","velocity":68},{"channel":0,"nextOffset":10732,"note":67,"tick":24864,"time":129.5,"type":"noteOn","velocity":68},{"channel":0,"nextOffset":10736,"note":70,"tick":24864,"time":129.5,"type":"noteOn","velocity":68},{"channel":0,"nextOffset":10740,"note":33,"tick":24888,"time":129.625,"type":"noteOff","velocity":0},{"channel":0,"nextOffset":10744,"note":33,"tick":24912,"time":129.75,"type":"noteOn","velocity":68},{"channel":0,"nextOffset":10748,"note":61,"tick":24912,"time":129.75,"type":"noteOff","velocity":0},{"channel":0,"nextOffset":10752,"note":65,"tick":24912,"time":129.75,"type":"noteOff","velocity":0},{"channel":0,"nextOffset":10756,"note":67,"tick":24912,"time":129.75,"type":"noteOff","velocity":0},{"channel":0,"nextOffset":10760,"note":70,"tick":24912,"time":129.75,"type":"noteOff","velocity":0},{"channel":0,"nextOffset":10764,"note":26,"tick":24960,"time":130,"type":"noteOn","velocity":68},{"channel":0,"nextOffset":10768,"note":33,"tick":24960,"time":130,"type":"noteOff","velocity":0},{"channel":0,"nextOffset":10772,"note":60,"tick":24960,"time":130,"type":"noteOn","velocity":68},{"channel":0,"nextOffset":10776,"note":64,"tick":24960,"time":130,"type":"noteOn","velocity":68},{"channel":0,"nextOffset":10780,"note":65,"tick":24960,"time":130,"type":"noteOn","velocity":68},{"channel":0,"nextOffset":10784,"note":69,"tick":24960,"time":130,"type":"noteOn","velocity":68},{"channel":0,"nextOffset":10788,"note":26,"tick":25008,"time":130.25,"type":"noteOff","velocity":0},{"channel":0,"nextOffset":10792,"note":60,"tick":25008,"time":130.25,"type":"noteOff","velocity":0},{"channel":0,"nextOffset":10796,"note":64,"tick":25008,"time":130.25,"type":"noteOff","velocity":0},{"channel":0,"nextOffset":10800,"note":65,"tick":25008,"time":130.25,"type":"noteOff","velocity":0},{"channel":0,"nextOffset":10804,"note":69,"tick":25008,"time":130.25,"type":"noteOff","velocity":0},{"channel":0,"nextOffset":10808,"note":26,"tick":25056,"time":130.5,"type":"noteOn","velocity":68},{"channel":0,"nextOffset":10812,"note":26,"tick":25104,"time":130.75,"type":"noteOff","velocity":0},{"channel":0,"nextOffset":10816,"note":38,"tick":25152,"time":131,"type":"noteOn","velocity":68},{"channel":0,"nextOffset":10820,"note":60,"tick":25152,"time":131,"type":"noteOn","velocity":68},{"channel":0,"nextOffset":10824,"note":64,"tick":25152,"time":131,"type":"noteOn","velocity":68},{"channel":0,"nextOffset":10828,"note":65,"tick":25152,"time":131,"type":"noteOn","velocity":68},{"channel":0,"nextOffset":10832,"note":69,"tick":25152,"time":131,"type":"noteOn","velocity":68},{"channel":0,"nextOffset":10836,"note":38,"tick":25200,"time":131.25,"type":"noteOff","velocity":0},{"channel":0,"nextOffset":10840,"note":60,"tick":25200,"time":131.25,"type":"noteOff","velocity":0},{"channel":0,"nextOffset":10844,"note":64,"tick":25200,"time":131.25,"type":"noteOff","velocity":0},{"channel":0,"nextOffset":10848,"note":65,"tick":25200,"time":131.25,"type":"noteOff","velocity":0},{"channel":0,"nextOffset":10852,"note":69,"tick":25200,"time":131.25,"type":"noteOff","velocity":0},{"channel":0,"nextOffset":10856,"note":33,"tick":25224,"time":131.375,"type":"noteOn","velocity":68},{"channel":0,"nextOffset":10860,"note":59,"tick":25248,"time":131.5,"type":"noteOn","velocity":68},{"channel":0,"nextOffset":10864,"note":63,"tick":25248,"time":131.5,"type":"noteOn","velocity":68},{"channel":0,"nextOffset":10868,"note":68,"tick":25248,"time":131.5,"type":"noteOn","velocity":68},{"channel":0,"nextOffset":10872,"note":33,"tick":25272,"time":131.625,"type":"noteOff","velocity":0},{"channel":0,"nextOffset":10876,"note":32,"tick":25296,"time":131.75,"type":"noteOn","velocity":68},{"channel":0,"nextOffset":10880,"note":59,"tick":25296,"time":131.75,"type":"noteOff","velocity":0},{"channel":0,"nextOffset":10884,"note":63,"tick":25296,"time":131.75,"type":"noteOff","velocity":0},{"channel":0,"nextOffset":10888,"note":68,"tick":25296,"time":131.75,"type":"noteOff","velocity":0},{"channel":0,"nextOffset":10892,"note":31,"tick":25344,"time":132,"type":"noteOn","velocity":68},{"channel":0,"nextOffset":10896,"note":32,"tick":25344,"time":132,"type":"noteOff","velocity":0},{"channel":0,"nextOffset":10900,"note":58,"tick":25344,"time":132,"type":"noteOn","velocity":68},{"channel":0,"nextOffset":10904,"note":62,"tick":25344,"time":132,"type":"noteOn","velocity":68},{"channel":0,"nextOffset":10908,"note":65,"tick":25344,"time":132,"type":"noteOn","velocity":68},{"channel":0,"nextOffset":10912,"note":69,"tick":25344,"time":132,"type":"noteOn","velocity":68},{"channel":0,"nextOffset":10916,"note":31,"tick":25392,"time":132.25,"type":"noteOff","velocity":0},{"channel":0,"nextOffset":10920,"note":31,"tick":25440,"time":132.5,"type":"noteOn","velocity":68},{"channel":0,"nextOffset":10924,"note":58,"tick":25440,"time":132.5,"type":"noteOff","velocity":0},{"channel":0,"nextOffset":10928,"note":62,"tick":25440,"time":132.5,"type":"noteOff","velocity":0},{"channel":0,"nextOffset":10932,"note":65,"tick":25440,"time":132.5,"type":"noteOff","velocity":0},{"channel":0,"nextOffset":10936,"note":69,"tick":25440,"time":132.5,"type":"noteOff","velocity":0},{"channel":0,"nextOffset":10940,"note":31,"tick":25488,"time":132.75,"type":"noteOff","velocity":0},{"channel":0,"nextOffset":10944,"note":33,"tick":25536,"time":133,"type":"noteOn","velocity":68},{"channel":0,"nextOffset":10948,"note":60,"tick":25536,"time":133,"type":"noteOn","velocity":68},{"channel":0,"nextOffset":10952,"note":64,"tick":25536,"time":133,"type":"noteOn","velocity":68},{"channel":0,"nextOffset":10956,"note":67,"tick":25536,"time":133,"type":"noteOn","velocity":68},{"channel":0,"nextOffset":10960,"note":72,"tick":25536,"time":133,"type":"noteOn","velocity":68},{"channel":0,"nextOffset":10964,"note":33,"tick":25584,"time":133.25,"type":"noteOff","velocity":0},{"channel":0,"nextOffset":10968,"note":60,"tick":25584,"time":133.25,"type":"noteOff","velocity":0},{"channel":0,"nextOffset":10972,"note":64,"tick":25584,"time":133.25,"type":"noteOff","velocity":0},{"channel":0,"nextOffset":10976,"note":67,"tick":25584,"time":133.25,"type":"noteOff","velocity":0},{"channel":0,"nextOffset":10980,"note":72,"tick":25584,"time":133.25,"type":"noteOff","velocity":0},{"channel":0,"nextOffset":10984,"note":33,"tick":25608,"time":133.375,"type":"noteOn","velocity":68},{"channel":0,"nextOffset":10988,"note":61,"tick":25632,"time":133.5,"type":"noteOn","velocity":68},{"channel":0,"nextOffset":10992,"note":65,"tick":25632,"time":133.5,"type":"noteOn","velocity":68},{"channel":0,"nextOffset":10996,"note":67,"tick":25632,"time":133.5,"type":"noteOn","velocity":68},{"channel":0,"nextOffset":11000,"note":70,"tick":25632,"time":133.5,"type":"noteOn","velocity":68},{"channel":0,"nextOffset":11004,"note":33,"tick":25656,"time":133.625,"type":"noteOff","velocity":0},{"channel":0,"nextOffset":11008,"note":33,"tick":25680,"time":133.75,"type":"noteOn","velocity":68},{"channel":0,"nextOffset":11012,"note":61,"tick":25680,"time":133.75,"type":"noteOff","velocity":0},{"channel":0,"nextOffset":11016,"note":65,"tick":25680,"time":133.75,"type":"noteOff","velocity":0},{"channel":0,"nextOffset":11020,"note":67,"tick":25680,"time":133.75,"type":"noteOff","velocity":0},{"channel":0,"nextOffset":11024,"note":70,"tick":25680,"time":133.75,"type":"noteOff","velocity":0},{"channel":0,"nextOffset":11028,"note":26,"tick":25728,"time":134,"type":"noteOn","velocity":68},{"channel":0,"nextOffset":11032,"note":33,"tick":25728,"time":134,"type":"noteOff","velocity":0},{"channel":0,"nextOffset":11036,"note":60,"tick":25728,"time":134,"type":"noteOn","velocity":68},{"channel":0,"nextOffset":11040,"note":64,"tick":25728,"time":134,"type":"noteOn","velocity":68},{"channel":0,"nextOffset":11044,"note":65,"tick":25728,"time":134,"type":"noteOn","velocity":68},{"channel":0,"nextOffset":11048,"note":69,"tick":25728,"time":134,"type":"noteOn","velocity":68},{"channel":0,"nextOffset":11052,"note":26,"tick":25776,"time":134.25,"type":"noteOff","velocity":0},{"channel":0,"nextOffset":11056,"note":60,"tick":25776,"time":134.25,"type":"noteOff","velocity":0},{"channel":0,"nextOffset":11060,"note":64,"tick":25776,"time":134.25,"type":"noteOff","velocity":0},{"channel":0,"nextOffset":11064,"note":65,"tick":25776,"time":134.25,"type":"noteOff","velocity":0},{"channel":0,"nextOffset":11068,"note":69,"tick":25776,"time":134.25,"type":"noteOff","velocity":0},{"channel":0,"nextOffset":11072,"note":26,"tick":25824,"time":134.5,"type":"noteOn","velocity":68},{"channel":0,"nextOffset":11076,"note":26,"tick":25872,"time":134.75,"type":"noteOff","velocity":0},{"channel":0,"nextOffset":11080,"note":38,"tick":25920,"time":135,"type":"noteOn","velocity":68},{"channel":0,"nextOffset":11084,"note":60,"tick":25920,"time":135,"type":"noteOn","velocity":68},{"channel":0,"nextOffset":11088,"note":64,"tick":25920,"time":135,"type":"noteOn","velocity":68},{"channel":0,"nextOffset":11092,"note":65,"tick":25920,"time":135,"type":"noteOn","velocity":68},{"channel":0,"nextOffset":11096,"note":69,"tick":25920,"time":135,"type":"noteOn","velocity":68},{"channel":0,"nextOffset":11100,"note":38,"tick":25968,"time":135.25,"type":"noteOff","velocity":0},{"channel":0,"nextOffset":11104,"note":60,"tick":25968,"time":135.25,"type":"noteOff","velocity":0},{"channel":0,"nextOffset":11108,"note":64,"tick":25968,"time":135.25,"type":"noteOff","velocity":0},{"channel":0,"nextOffset":11112,"note":65,"tick":25968,"time":135.25,"type":"noteOff","velocity":0},{"channel":0,"nextOffset":11116,"note":69,"tick":25968,"time":135.25,"type":"noteOff","velocity":0},{"channel":0,"nextOffset":11120,"note":33,"tick":25992,"time":135.375,"type":"noteOn","velocity":68},{"channel":0,"nextOffset":11124,"note":69,"tick":26016,"time":135.5,"type":"noteOn","velocity":68},{"channel":0,"nextOffset":11128,"note":72,"tick":26016,"time":135.5,"type":"noteOn","velocity":68},{"channel":0,"nextOffset":11132,"note":74,"tick":26016,"time":135.5,"type":"noteOn","velocity":68},{"channel":0,"nextOffset":11136,"note":77,"tick":26016,"time":135.5,"type":"noteOn","velocity":68},{"channel":0,"nextOffset":11140,"note":33,"tick":26040,"time":135.625,"type":"noteOff","velocity":0},{"channel":0,"nextOffset":11144,"note":32,"tick":26064,"time":135.75,"type":"noteOn","velocity":68},{"channel":0,"nextOffset":11148,"note":69,"tick":26064,"time":135.75,"type":"noteOff","velocity":0},{"channel":0,"nextOffset":11152,"note":72,"tick":26064,"time":135.75,"type":"noteOff","velocity":0},{"channel":0,"nextOffset":11156,"note":74,"tick":26064,"time":135.75,"type":"noteOff","velocity":0},{"channel":0,"nextOffset":11160,"note":77,"tick":26064,"time":135.75,"type":"noteOff","velocity":0},{"channel":0,"nextOffset":11164,"note":31,"tick":26112,"time":136,"type":"noteOn","velocity":68},{"channel":0,"nextOffset":11168,"note":32,"tick":26112,"time":136,"type":"noteOff","velocity":0},{"channel":0,"nextOffset":11172,"note":58,"tick":26112,"time":136,"type":"noteOn","velocity":68},{"channel":0,"nextOffset":11176,"note":62,"tick":26112,"time":136,"type":"noteOn","velocity":68},{"channel":0,"nextOffset":11180,"note":65,"tick":26112,"time":136,"type":"noteOn","velocity":68},{"channel":0,"nextOffset":11184,"note":69,"tick":26112,"time":136,"type":"noteOn","velocity":68},{"channel":0,"nextOffset":11188,"note":31,"tick":26160,"time":136.25,"type":"noteOff","velocity":0},{"channel":0,"nextOffset":11192,"note":31,"tick":26208,"time":136.5,"type":"noteOn","velocity":68},{"channel":0,"nextOffset":11196,"note":58,"tick":26208,"time":136.5,"type":"noteOff","velocity":0},{"channel":0,"nextOffset":11200,"note":62,"tick":26208,"time":136.5,"type":"noteOff","velocity":0},{"channel":0,"nextOffset":11204,"note":65,"tick":26208,"time":136.5,"type":"noteOff","velocity":0},{"channel":0,"nextOffset":11208,"note":69,"tick":26208,"time":136.5,"type":"noteOff","velocity":0},{"channel":0,"nextOffset":11212,"note":31,"tick":26256,"time":136.75,"type":"noteOff","velocity":0},{"channel":0,"nextOffset":11216,"note":33,"tick":26304,"time":137,"type":"noteOn","velocity":68},{"channel":0,"nextOffset":11220,"note":60,"tick":26304,"time":137,"type":"noteOn","velocity":68},{"channel":0,"nextOffset":11224,"note":64,"tick":26304,"time":137,"type":"noteOn","velocity":68},{"channel":0,"nextOffset":11228,"note":67,"tick":26304,"time":137,"type":"noteOn","velocity":68},{"channel":0,"nextOffset":11232,"note":72,"tick":26304,"time":137,"type":"noteOn","velocity":68},{"channel":0,"nextOffset":11236,"note":33,"tick":26352,"time":137.25,"type":"noteOff","velocity":0},{"channel":0,"nextOffset":11240,"note":60,"tick":26352,"time":137.25,"type":"noteOff","velocity":0},{"channel":0,"nextOffset":11244,"note":64,"tick":26352,"time":137.25,"type":"noteOff","velocity":0},{"channel":0,"nextOffset":11248,"note":67,"tick":26352,"time":137.25,"type":"noteOff","velocity":0},{"channel":0,"nextOffset":11252,"note":72,"tick":26352,"time":137.25,"type":"noteOff","velocity":0},{"channel":0,"nextOffset":11256,"note":33,"tick":26376,"time":137.375,"type":"noteOn","velocity":68},{"channel":0,"nextOffset":11260,"note":61,"tick":26400,"time":137.5,"type":"noteOn","velocity":68},{"channel":0,"nextOffset":11264,"note":65,"tick":26400,"time":137.5,"type":"noteOn","velocity":68},{"channel":0,"nextOffset":11268,"note":67,"tick":26400,"time":137.5,"type":"noteOn","velocity":68},{"channel":0,"nextOffset":11272,"note":70,"tick":26400,"time":137.5,"type":"noteOn","velocity":68},{"channel":0,"nextOffset":11276,"note":33,"tick":26424,"time":137.625,"type":"noteOff","velocity":0},{"channel":0,"nextOffset":11280,"note":33,"tick":26448,"time":137.75,"type":"noteOn","velocity":68},{"channel":0,"nextOffset":11284,"note":61,"tick":26448,"time":137.75,"type":"noteOff","velocity":0},{"channel":0,"nextOffset":11288,"note":65,"tick":26448,"time":137.75,"type":"noteOff","velocity":0},{"channel":0,"nextOffset":11292,"note":67,"tick":26448,"time":137.75,"type":"noteOff","velocity":0},{"channel":0,"nextOffset":11296,"note":70,"tick":26448,"time":137.75,"type":"noteOff","velocity":0},{"channel":0,"nextOffset":11300,"note":26,"tick":26496,"time":138,"type":"noteOn","velocity":68},{"channel":0,"nextOffset":11304,"note":33,"tick":26496,"time":138,"type":"noteOff","velocity":0},{"channel":0,"nextOffset":11308,"note":60,"tick":26496,"time":138,"type":"noteOn","velocity":68},{"channel":0,"nextOffset":11312,"note":64,"tick":26496,"time":138,"type":"noteOn","velocity":68},{"channel":0,"nextOffset":11316,"note":65,"tick":26496,"time":138,"type":"noteOn","velocity":68},{"channel":0,"nextOffset":11320,"note":69,"tick":26496,"time":138,"type":"noteOn","velocity":68},{"channel":0,"nextOffset":11324,"note":26,"tick":26544,"time":138.25,"type":"noteOff","velocity":0},{"channel":0,"nextOffset":11328,"note":60,"tick":26544,"time":138.25,"type":"noteOff","velocity":0},{"channel":0,"nextOffset":11332,"note":64,"tick":26544,"time":138.25,"type":"noteOff","velocity":0},{"channel":0,"nextOffset":11336,"note":65,"tick":26544,"time":138.25,"type":"noteOff","velocity":0},{"channel":0,"nextOffset":11340,"note":69,"tick":26544,"time":138.25,"type":"noteOff","velocity":0},{"channel":0,"nextOffset":11344,"note":26,"tick":26592,"time":138.5,"type":"noteOn","velocity":68},{"channel":0,"nextOffset":11348,"note":26,"tick":26640,"time":138.75,"type":"noteOff","velocity":0},{"channel":0,"nextOffset":11352,"note":38,"tick":26688,"time":139,"type":"noteOn","velocity":68},{"channel":0,"nextOffset":11356,"note":60,"tick":26688,"time":139,"type":"noteOn","velocity":68},{"channel":0,"nextOffset":11360,"note":64,"tick":26688,"time":139,"type":"noteOn","velocity":68},{"channel":0,"nextOffset":11364,"note":65,"tick":26688,"time":139,"type":"noteOn","velocity":68},{"channel":0,"nextOffset":11368,"note":69,"tick":26688,"time":139,"type":"noteOn","velocity":68},{"channel":0,"nextOffset":11372,"note":38,"tick":26736,"time":139.25,"type":"noteOff","velocity":0},{"channel":0,"nextOffset":11376,"note":60,"tick":26736,"time":139.25,"type":"noteOff","velocity":0},{"channel":0,"nextOffset":11380,"note":64,"tick":26736,"time":139.25,"type":"noteOff","velocity":0},{"channel":0,"nextOffset":11384,"note":65,"tick":26736,"time":139.25,"type":"noteOff","velocity":0},{"channel":0,"nextOffset":11388,"note":69,"tick":26736,"time":139.25,"type":"noteOff","velocity":0},{"channel":0,"nextOffset":11392,"note":33,"tick":26760,"time":139.375,"type":"noteOn","velocity":68},{"channel":0,"nextOffset":11396,"note":59,"tick":26784,"time":139.5,"type":"noteOn","velocity":68},{"channel":0,"nextOffset":11400,"note":63,"tick":26784,"time":139.5,"type":"noteOn","velocity":68},{"channel":0,"nextOffset":11404,"note":68,"tick":26784,"time":139.5,"type":"noteOn","velocity":68},{"channel":0,"nextOffset":11408,"note":33,"tick":26808,"time":139.625,"type":"noteOff","velocity":0},{"channel":0,"nextOffset":11412,"note":32,"tick":26832,"time":139.75,"type":"noteOn","velocity":68},{"channel":0,"nextOffset":11416,"note":59,"tick":26832,"time":139.75,"type":"noteOff","velocity":0},{"channel":0,"nextOffset":11420,"note":63,"tick":26832,"time":139.75,"type":"noteOff","velocity":0},{"channel":0,"nextOffset":11424,"note":68,"tick":26832,"time":139.75,"type":"noteOff","velocity":0},{"channel":0,"nextOffset":11428,"note":31,"tick":26880,"time":140,"type":"noteOn","velocity":68},{"channel":0,"nextOffset":11432,"note":32,"tick":26880,"time":140,"type":"noteOff","velocity":0},{"channel":0,"nextOffset":11436,"note":58,"tick":26880,"time":140,"type":"noteOn","velocity":68},{"channel":0,"nextOffset":11440,"note":62,"tick":26880,"time":140,"type":"noteOn","velocity":68},{"channel":0,"nextOffset":11444,"note":65,"tick":26880,"time":140,"type":"noteOn","velocity":68},{"channel":0,"nextOffset":11448,"note":69,"tick":26880,"time":140,"type":"noteOn","velocity":68},{"channel":0,"nextOffset":11452,"note":31,"tick":26928,"time":140.25,"type":"noteOff","velocity":0},{"channel":0,"nextOffset":11456,"note":31,"tick":26976,"time":140.5,"type":"noteOn","velocity":68},{"channel":0,"nextOffset":11460,"note":58,"tick":26976,"time":140.5,"type":"noteOff","velocity":0},{"channel":0,"nextOffset":11464,"note":62,"tick":26976,"time":140.5,"type":"noteOff","velocity":0},{"channel":0,"nextOffset":11468,"note":65,"tick":26976,"time":140.5,"type":"noteOff","velocity":0},{"channel":0,"nextOffset":11472,"note":69,"tick":26976,"time":140.5,"type":"noteOff","velocity":0},{"channel":0,"nextOffset":11476,"note":31,"tick":27024,"time":140.75,"type":"noteOff","velocity":0},{"channel":0,"nextOffset":11480,"note":33,"tick":27072,"time":141,"type":"noteOn","velocity":68},{"channel":0,"nextOffset":11484,"note":60,"tick":27072,"time":141,"type":"noteOn","velocity":68},{"channel":0,"nextOffset":11488,"note":64,"tick":27072,"time":141,"type":"noteOn","velocity":68},{"channel":0,"nextOffset":11492,"note":67,"tick":27072,"time":141,"type":"noteOn","velocity":68},{"channel":0,"nextOffset":11496,"note":72,"tick":27072,"time":141,"type":"noteOn","velocity":68},{"channel":0,"nextOffset":11500,"note":33,"tick":27120,"time":141.25,"type":"noteOff","velocity":0},{"channel":0,"nextOffset":11504,"note":60,"tick":27120,"time":141.25,"type":"noteOff","velocity":0},{"channel":0,"nextOffset":11508,"note":64,"tick":27120,"time":141.25,"type":"noteOff","velocity":0},{"channel":0,"nextOffset":11512,"note":67,"tick":27120,"time":141.25,"type":"noteOff","velocity":0},{"channel":0,"nextOffset":11516,"note":72,"tick":27120,"time":141.25,"type":"noteOff","velocity":0},{"channel":0,"nextOffset":11520,"note":33,"tick":27144,"time":141.375,"type":"noteOn","velocity":68},{"channel":0,"nextOffset":11524,"note":61,"tick":27168,"time":141.5,"type":"noteOn","velocity":68},{"channel":0,"nextOffset":11528,"note":65,"tick":27168,"time":141.5,"type":"noteOn","velocity":68},{"channel":0,"nextOffset":11532,"note":67,"tick":27168,"time":141.5,"type":"noteOn","velocity":68},{"channel":0,"nextOffset":11536,"note":70,"tick":27168,"time":141.5,"type":"noteOn","velocity":68},{"channel":0,"nextOffset":11540,"note":33,"tick":27192,"time":141.625,"type":"noteOff","velocity":0},{"channel":0,"nextOffset":11544,"note":33,"tick":27216,"time":141.75,"type":"noteOn","velocity":68},{"channel":0,"nextOffset":11548,"note":61,"tick":27216,"time":141.75,"type":"noteOff","velocity":0},{"channel":0,"nextOffset":11552,"note":65,"tick":27216,"time":141.75,"type":"noteOff","velocity":0},{"channel":0,"nextOffset":11556,"note":67,"tick":27216,"time":141.75,"type":"noteOff","velocity":0},{"channel":0,"nextOffset":11560,"note":70,"tick":27216,"time":141.75,"type":"noteOff","velocity":0},{"channel":0,"nextOffset":11564,"note":26,"tick":27264,"time":142,"type":"noteOn","velocity":68},{"channel":0,"nextOffset":11568,"note":33,"tick":27264,"time":142,"type":"noteOff","velocity":0},{"channel":0,"nextOffset":11572,"note":60,"tick":27264,"time":142,"type":"noteOn","velocity":68},{"channel":0,"nextOffset":11576,"note":64,"tick":27264,"time":142,"type":"noteOn","velocity":68},{"channel":0,"nextOffset":11580,"note":65,"tick":27264,"time":142,"type":"noteOn","velocity":68},{"channel":0,"nextOffset":11584,"note":69,"tick":27264,"time":142,"type":"noteOn","velocity":68},{"channel":0,"nextOffset":11588,"note":26,"tick":27312,"time":142.25,"type":"noteOff","velocity":0},{"channel":0,"nextOffset":11592,"note":60,"tick":27312,"time":142.25,"type":"noteOff","velocity":0},{"channel":0,"nextOffset":11596,"note":64,"tick":27312,"time":142.25,"type":"noteOff","velocity":0},{"channel":0,"nextOffset":11600,"note":65,"tick":27312,"time":142.25,"type":"noteOff","velocity":0},{"channel":0,"nextOffset":11604,"note":69,"tick":27312,"time":142.25,"type":"noteOff","velocity":0},{"channel":0,"nextOffset":11608,"note":26,"tick":27360,"time":142.5,"type":"noteOn","velocity":68},{"channel":0,"nextOffset":11612,"note":26,"tick":27408,"time":142.75,"type":"noteOff","velocity":0},{"channel":0,"nextOffset":11616,"note":38,"tick":27456,"time":143,"type":"noteOn","velocity":68},{"channel":0,"nextOffset":11620,"note":60,"tick":27456,"time":143,"type":"noteOn","velocity":68},{"channel":0,"nextOffset":11624,"note":64,"tick":27456,"time":143,"type":"noteOn","velocity":68},{"channel":0,"nextOffset":11628,"note":65,"tick":27456,"time":143,"type":"noteOn","velocity":68},{"channel":0,"nextOffset":11632,"note":69,"tick":27456,"time":143,"type":"noteOn","velocity":68},{"channel":0,"nextOffset":11636,"note":38,"tick":27504,"time":143.25,"type":"noteOff","velocity":0},{"channel":0,"nextOffset":11640,"note":60,"tick":27504,"time":143.25,"type":"noteOff","velocity":0},{"channel":0,"nextOffset":11644,"note":64,"tick":27504,"time":143.25,"type":"noteOff","velocity":0},{"channel":0,"nextOffset":11648,"note":65,"tick":27504,"time":143.25,"type":"noteOff","velocity":0},{"channel":0,"nextOffset":11652,"note":69,"tick":27504,"time":143.25,"type":"noteOff","velocity":0},{"channel":0,"nextOffset":11656,"note":33,"tick":27528,"time":143.375,"type":"noteOn","velocity":68},{"channel":0,"nextOffset":11660,"note":59,"tick":27552,"time":143.5,"type":"noteOn","velocity":68},{"channel":0,"nextOffset":11664,"note":63,"tick":27552,"time":143.5,"type":"noteOn","velocity":68},{"channel":0,"nextOffset":11668,"note":68,"tick":27552,"time":143.5,"type":"noteOn","velocity":68},{"channel":0,"nextOffset":11672,"note":33,"tick":27576,"time":143.625,"type":"noteOff","velocity":0},{"channel":0,"nextOffset":11676,"note":32,"tick":27600,"time":143.75,"type":"noteOn","velocity":68},{"channel":0,"nextOffset":11680,"note":59,"tick":27600,"time":143.75,"type":"noteOff","velocity":0},{"channel":0,"nextOffset":11684,"note":63,"tick":27600,"time":143.75,"type":"noteOff","velocity":0},{"channel":0,"nextOffset":11688,"note":68,"tick":27600,"time":143.75,"type":"noteOff","velocity":0},{"channel":0,"nextOffset":11692,"note":31,"tick":27648,"time":144,"type":"noteOn","velocity":68},{"channel":0,"nextOffset":11696,"note":32,"tick":27648,"time":144,"type":"noteOff","velocity":0},{"channel":0,"nextOffset":11700,"note":58,"tick":27648,"time":144,"type":"noteOn","velocity":68},{"channel":0,"nextOffset":11704,"note":62,"tick":27648,"time":144,"type":"noteOn","velocity":68},{"channel":0,"nextOffset":11708,"note":65,"tick":27648,"time":144,"type":"noteOn","velocity":68},{"channel":0,"nextOffset":11712,"note":69,"tick":27648,"time":144,"type":"noteOn","velocity":68},{"channel":0,"nextOffset":11716,"note":31,"tick":27696,"time":144.25,"type":"noteOff","velocity":0},{"channel":0,"nextOffset":11720,"note":31,"tick":27744,"time":144.5,"type":"noteOn","velocity":68},{"channel":0,"nextOffset":11724,"note":58,"tick":27744,"time":144.5,"type":"noteOff","velocity":0},{"channel":0,"nextOffset":11728,"note":62,"tick":27744,"time":144.5,"type":"noteOff","velocity":0},{"channel":0,"nextOffset":11732,"note":65,"tick":27744,"time":144.5,"type":"noteOff","velocity":0},{"channel":0,"nextOffset":11736,"note":69,"tick":27744,"time":144.5,"type":"noteOff","velocity":0},{"channel":0,"nextOffset":11740,"note":31,"tick":27792,"time":144.75,"type":"noteOff","velocity":0},{"channel":0,"nextOffset":11744,"note":33,"tick":27840,"time":145,"type":"noteOn","velocity":68},{"channel":0,"nextOffset":11748,"note":60,"tick":27840,"time":145,"type":"noteOn","velocity":68},{"channel":0,"nextOffset":11752,"note":64,"tick":27840,"time":145,"type":"noteOn","velocity":68},{"channel":0,"nextOffset":11756,"note":67,"tick":27840,"time":145,"type":"noteOn","velocity":68},{"channel":0,"nextOffset":11760,"note":72,"tick":27840,"time":145,"type":"noteOn","velocity":68},{"channel":0,"nextOffset":11764,"note":33,"tick":27888,"time":145.25,"type":"noteOff","velocity":0},{"channel":0,"nextOffset":11768,"note":60,"tick":27888,"time":145.25,"type":"noteOff","velocity":0},{"channel":0,"nextOffset":11772,"note":64,"tick":27888,"time":145.25,"type":"noteOff","velocity":0},{"channel":0,"nextOffset":11776,"note":67,"tick":27888,"time":145.25,"type":"noteOff","velocity":0},{"channel":0,"nextOffset":11780,"note":72,"tick":27888,"time":145.25,"type":"noteOff","velocity":0},{"channel":0,"nextOffset":11784,"note":33,"tick":27912,"time":145.375,"type":"noteOn","velocity":68},{"channel":0,"nextOffset":11788,"note":61,"tick":27936,"time":145.5,"type":"noteOn","velocity":68},{"channel":0,"nextOffset":11792,"note":65,"tick":27936,"time":145.5,"type":"noteOn","velocity":68},{"channel":0,"nextOffset":11796,"note":67,"tick":27936,"time":145.5,"type":"noteOn","velocity":68},{"channel":0,"nextOffset":11800,"note":70,"tick":27936,"time":145.5,"type":"noteOn","velocity":68},{"channel":0,"nextOffset":11804,"note":33,"tick":27960,"time":145.625,"type":"noteOff","velocity":0},{"channel":0,"nextOffset":11808,"note":33,"tick":27984,"time":145.75,"type":"noteOn","velocity":68},{"channel":0,"nextOffset":11812,"note":61,"tick":27984,"time":145.75,"type":"noteOff","velocity":0},{"channel":0,"nextOffset":11816,"note":65,"tick":27984,"time":145.75,"type":"noteOff","velocity":0},{"channel":0,"nextOffset":11820,"note":67,"tick":27984,"time":145.75,"type":"noteOff","velocity":0},{"channel":0,"nextOffset":11824,"note":70,"tick":27984,"time":145.75,"type":"noteOff","velocity":0},{"channel":0,"nextOffset":11828,"note":26,"tick":28032,"time":146,"type":"noteOn","velocity":68},{"channel":0,"nextOffset":11832,"note":33,"tick":28032,"time":146,"type":"noteOff","velocity":0},{"channel":0,"nextOffset":11836,"note":60,"tick":28032,"time":146,"type":"noteOn","velocity":68},{"channel":0,"nextOffset":11840,"note":64,"tick":28032,"time":146,"type":"noteOn","velocity":68},{"channel":0,"nextOffset":11844,"note":65,"tick":28032,"time":146,"type":"noteOn","velocity":68},{"channel":0,"nextOffset":11848,"note":69,"tick":28032,"time":146,"type":"noteOn","velocity":68},{"channel":0,"nextOffset":11852,"note":26,"tick":28080,"time":146.25,"type":"noteOff","velocity":0},{"channel":0,"nextOffset":11856,"note":60,"tick":28080,"time":146.25,"type":"noteOff","velocity":0},{"channel":0,"nextOffset":11860,"note":64,"tick":28080,"time":146.25,"type":"noteOff","velocity":0},{"channel":0,"nextOffset":11864,"note":65,"tick":28080,"time":146.25,"type":"noteOff","velocity":0},{"channel":0,"nextOffset":11868,"note":69,"tick":28080,"time":146.25,"type":"noteOff","velocity":0},{"channel":0,"nextOffset":11872,"note":26,"tick":28128,"time":146.5,"type":"noteOn","velocity":68},{"channel":0,"nextOffset":11876,"note":26,"tick":28176,"time":146.75,"type":"noteOff","velocity":0},{"channel":0,"nextOffset":11880,"note":38,"tick":28224,"time":147,"type":"noteOn","velocity":68},{"channel":0,"nextOffset":11884,"note":60,"tick":28224,"time":147,"type":"noteOn","velocity":68},{"channel":0,"nextOffset":11888,"note":64,"tick":28224,"time":147,"type":"noteOn","velocity":68},{"channel":0,"nextOffset":11892,"note":65,"tick":28224,"time":147,"type":"noteOn","velocity":68},{"channel":0,"nextOffset":11896,"note":69,"tick":28224,"time":147,"type":"noteOn","velocity":68},{"channel":0,"nextOffset":11900,"note":38,"tick":28272,"time":147.25,"type":"noteOff","velocity":0},{"channel":0,"nextOffset":11904,"note":60,"tick":28272,"time":147.25,"type":"noteOff","velocity":0},{"channel":0,"nextOffset":11908,"note":64,"tick":28272,"time":147.25,"type":"noteOff","velocity":0},{"channel":0,"nextOffset":11912,"note":65,"tick":28272,"time":147.25,"type":"noteOff","velocity":0},{"channel":0,"nextOffset":11916,"note":69,"tick":28272,"time":147.25,"type":"noteOff","velocity":0},{"channel":0,"nextOffset":11920,"note":33,"tick":28296,"time":147.375,"type":"noteOn","velocity":68},{"channel":0,"nextOffset":11924,"note":59,"tick":28320,"time":147.5,"type":"noteOn","velocity":68},{"channel":0,"nextOffset":11928,"note":63,"tick":28320,"time":147.5,"type":"noteOn","velocity":68},{"channel":0,"nextOffset":11932,"note":68,"tick":28320,"time":147.5,"type":"noteOn","velocity":68},{"channel":0,"nextOffset":11936,"note":33,"tick":28344,"time":147.625,"type":"noteOff","velocity":0},{"channel":0,"nextOffset":11940,"note":32,"tick":28368,"time":147.75,"type":"noteOn","velocity":68},{"channel":0,"nextOffset":11944,"note":59,"tick":28368,"time":147.75,"type":"noteOff","velocity":0},{"channel":0,"nextOffset":11948,"note":63,"tick":28368,"time":147.75,"type":"noteOff","velocity":0},{"channel":0,"nextOffset":11952,"note":68,"tick":28368,"time":147.75,"type":"noteOff","velocity":0},{"channel":0,"nextOffset":11956,"note":31,"tick":28416,"time":148,"type":"noteOn","velocity":68},{"channel":0,"nextOffset":11960,"note":32,"tick":28416,"time":148,"type":"noteOff","velocity":0},{"channel":0,"nextOffset":11964,"note":58,"tick":28416,"time":148,"type":"noteOn","velocity":68},{"channel":0,"nextOffset":11968,"note":62,"tick":28416,"time":148,"type":"noteOn","velocity":68},{"channel":0,"nextOffset":11972,"note":65,"tick":28416,"time":148,"type":"noteOn","velocity":68},{"channel":0,"nextOffset":11976,"note":69,"tick":28416,"time":148,"type":"noteOn","velocity":68},{"channel":0,"nextOffset":11980,"note":31,"tick":28464,"time":148.25,"type":"noteOff","velocity":0},{"channel":0,"nextOffset":11984,"note":31,"tick":28512,"time":148.5,"type":"noteOn","velocity":68},{"channel":0,"nextOffset":11988,"note":58,"tick":28512,"time":148.5,"type":"noteOff","velocity":0},{"channel":0,"nextOffset":11992,"note":62,"tick":28512,"time":148.5,"type":"noteOff","velocity":0},{"channel":0,"nextOffset":11996,"note":65,"tick":28512,"time":148.5,"type":"noteOff","velocity":0},{"channel":0,"nextOffset":12000,"note":69,"tick":28512,"time":148.5,"type":"noteOff","velocity":0},{"channel":0,"nextOffset":12004,"note":31,"tick":28560,"time":148.75,"type":"noteOff","velocity":0},{"channel":0,"nextOffset":12008,"note":33,"tick":28608,"time":149,"type":"noteOn","velocity":68},{"channel":0,"nextOffset":12012,"note":60,"tick":28608,"time":149,"type":"noteOn","velocity":68},{"channel":0,"nextOffset":12016,"note":64,"tick":28608,"time":149,"type":"noteOn","velocity":68},{"channel":0,"nextOffset":12020,"note":67,"tick":28608,"time":149,"type":"noteOn","velocity":68},{"channel":0,"nextOffset":12024,"note":72,"tick":28608,"time":149,"type":"noteOn","velocity":68},{"channel":0,"nextOffset":12028,"note":33,"tick":28656,"time":149.25,"type":"noteOff","velocity":0},{"channel":0,"nextOffset":12032,"note":60,"tick":28656,"time":149.25,"type":"noteOff","velocity":0},{"channel":0,"nextOffset":12036,"note":64,"tick":28656,"time":149.25,"type":"noteOff","velocity":0},{"channel":0,"nextOffset":12040,"note":67,"tick":28656,"time":149.25,"type":"noteOff","velocity":0},{"channel":0,"nextOffset":12044,"note":72,"tick":28656,"time":149.25,"type":"noteOff","velocity":0},{"channel":0,"nextOffset":12048,"note":33,"tick":28680,"time":149.375,"type":"noteOn","velocity":68},{"channel":0,"nextOffset":12052,"note":61,"tick":28704,"time":149.5,"type":"noteOn","velocity":68},{"channel":0,"nextOffset":12056,"note":65,"tick":28704,"time":149.5,"type":"noteOn","velocity":68},{"channel":0,"nextOffset":12060,"note":67,"tick":28704,"time":149.5,"type":"noteOn","velocity":68},{"channel":0,"nextOffset":12064,"note":70,"tick":28704,"time":149.5,"type":"noteOn","velocity":68},{"channel":0,"nextOffset":12068,"note":33,"tick":28728,"time":149.625,"type":"noteOff","velocity":0},{"channel":0,"nextOffset":12072,"note":33,"tick":28752,"time":149.75,"type":"noteOn","velocity":68},{"channel":0,"nextOffset":12076,"note":61,"tick":28752,"time":149.75,"type":"noteOff","velocity":0},{"channel":0,"nextOffset":12080,"note":65,"tick":28752,"time":149.75,"type":"noteOff","velocity":0},{"channel":0,"nextOffset":12084,"note":67,"tick":28752,"time":149.75,"type":"noteOff","velocity":0},{"channel":0,"nextOffset":12088,"note":70,"tick":28752,"time":149.75,"type":"noteOff","velocity":0},{"channel":0,"nextOffset":12092,"note":26,"tick":28800,"time":150,"type":"noteOn","velocity":68},{"channel":0,"nextOffset":12096,"note":33,"tick":28800,"time":150,"type":"noteOff","velocity":0},{"channel":0,"nextOffset":12100,"note":60,"tick":28800,"time":150,"type":"noteOn","velocity":68},{"channel":0,"nextOffset":12104,"note":64,"tick":28800,"time":150,"type":"noteOn","velocity":68},{"channel":0,"nextOffset":12108,"note":65,"tick":28800,"time":150,"type":"noteOn","velocity":68},{"channel":0,"nextOffset":12112,"note":69,"tick":28800,"time":150,"type":"noteOn","velocity":68},{"channel":0,"nextOffset":12116,"note":26,"tick":28848,"time":150.25,"type":"noteOff","velocity":0},{"channel":0,"nextOffset":12120,"note":60,"tick":28848,"time":150.25,"type":"noteOff","velocity":0},{"channel":0,"nextOffset":12124,"note":64,"tick":28848,"time":150.25,"type":"noteOff","velocity":0},{"channel":0,"nextOffset":12128,"note":65,"tick":28848,"time":150.25,"type":"noteOff","velocity":0},{"channel":0,"nextOffset":12132,"note":69,"tick":28848,"time":150.25,"type":"noteOff","velocity":0},{"channel":0,"nextOffset":12136,"note":26,"tick":28896,"time":150.5,"type":"noteOn","velocity":68},{"channel":0,"nextOffset":12140,"note":26,"tick":28944,"time":150.75,"type":"noteOff","velocity":0},{"channel":0,"nextOffset":12144,"note":38,"tick":28992,"time":151,"type":"noteOn","velocity":68},{"channel":0,"nextOffset":12148,"note":60,"tick":28992,"time":151,"type":"noteOn","velocity":68},{"channel":0,"nextOffset":12152,"note":64,"tick":28992,"time":151,"type":"noteOn","velocity":68},{"channel":0,"nextOffset":12156,"note":65,"tick":28992,"time":151,"type":"noteOn","velocity":68},{"channel":0,"nextOffset":12160,"note":69,"tick":28992,"time":151,"type":"noteOn","velocity":68},{"channel":0,"nextOffset":12164,"note":38,"tick":29040,"time":151.25,"type":"noteOff","velocity":0},{"channel":0,"nextOffset":12168,"note":60,"tick":29040,"time":151.25,"type":"noteOff","velocity":0},{"channel":0,"nextOffset":12172,"note":64,"tick":29040,"time":151.25,"type":"noteOff","velocity":0},{"channel":0,"nextOffset":12176,"note":65,"tick":29040,"time":151.25,"type":"noteOff","velocity":0},{"channel":0,"nextOffset":12180,"note":69,"tick":29040,"time":151.25,"type":"noteOff","velocity":0},{"channel":0,"nextOffset":12184,"note":33,"tick":29064,"time":151.375,"type":"noteOn","velocity":68},{"channel":0,"nextOffset":12188,"note":59,"tick":29088,"time":151.5,"type":"noteOn","velocity":68},{"channel":0,"nextOffset":12192,"note":63,"tick":29088,"time":151.5,"type":"noteOn","velocity":68},{"channel":0,"nextOffset":12196,"note":68,"tick":29088,"time":151.5,"type":"noteOn","velocity":68},{"channel":0,"nextOffset":12200,"note":33,"tick":29112,"time":151.625,"type":"noteOff","velocity":0},{"channel":0,"nextOffset":12204,"note":32,"tick":29136,"time":151.75,"type":"noteOn","velocity":68},{"channel":0,"nextOffset":12208,"note":59,"tick":29136,"time":151.75,"type":"noteOff","velocity":0},{"channel":0,"nextOffset":12212,"note":63,"tick":29136,"time":151.75,"type":"noteOff","velocity":0},{"channel":0,"nextOffset":12216,"note":68,"tick":29136,"time":151.75,"type":"noteOff","velocity":0},{"channel":0,"nextOffset":12220,"note":31,"tick":29184,"time":152,"type":"noteOn","velocity":68},{"channel":0,"nextOffset":12224,"note":32,"tick":29184,"time":152,"type":"noteOff","velocity":0},{"channel":0,"nextOffset":12228,"note":58,"tick":29184,"time":152,"type":"noteOn","velocity":68},{"channel":0,"nextOffset":12232,"note":62,"tick":29184,"time":152,"type":"noteOn","velocity":68},{"channel":0,"nextOffset":12236,"note":65,"tick":29184,"time":152,"type":"noteOn","velocity":68},{"channel":0,"nextOffset":12240,"note":69,"tick":29184,"time":152,"type":"noteOn","velocity":68},{"channel":0,"nextOffset":12244,"note":31,"tick":29232,"time":152.25,"type":"noteOff","velocity":0},{"channel":0,"nextOffset":12248,"note":31,"tick":29280,"time":152.5,"type":"noteOn","velocity":68},{"channel":0,"nextOffset":12252,"note":58,"tick":29280,"time":152.5,"type":"noteOff","velocity":0},{"channel":0,"nextOffset":12256,"note":62,"tick":29280,"time":152.5,"type":"noteOff","velocity":0},{"channel":0,"nextOffset":12260,"note":65,"tick":29280,"time":152.5,"type":"noteOff","velocity":0},{"channel":0,"nextOffset":12264,"note":69,"tick":29280,"time":152.5,"type":"noteOff","velocity":0},{"channel":0,"nextOffset":12268,"note":31,"tick":29328,"time":152.75,"type":"noteOff","velocity":0},{"channel":0,"nextOffset":12272,"note":33,"tick":29376,"time":153,"type":"noteOn","velocity":68},{"channel":0,"nextOffset":12276,"note":60,"tick":29376,"time":153,"type":"noteOn","velocity":68},{"channel":0,"nextOffset":12280,"note":64,"tick":29376,"time":153,"type":"noteOn","velocity":68},{"channel":0,"nextOffset":12284,"note":67,"tick":29376,"time":153,"type":"noteOn","velocity":68},{"channel":0,"nextOffset":12288,"note":72,"tick":29376,"time":153,"type":"noteOn","velocity":68},{"channel":0,"nextOffset":12292,"note":33,"tick":29424,"time":153.25,"type":"noteOff","velocity":0},{"channel":0,"nextOffset":12296,"note":60,"tick":29424,"time":153.25,"type":"noteOff","velocity":0},{"channel":0,"nextOffset":12300,"note":64,"tick":29424,"time":153.25,"type":"noteOff","velocity":0},{"channel":0,"nextOffset":12304,"note":67,"tick":29424,"time":153.25,"type":"noteOff","velocity":0},{"channel":0,"nextOffset":12308,"note":72,"tick":29424,"time":153.25,"type":"noteOff","velocity":0},{"channel":0,"nextOffset":12312,"note":33,"tick":29448,"time":153.375,"type":"noteOn","velocity":68},{"channel":0,"nextOffset":12316,"note":61,"tick":29472,"time":153.5,"type":"noteOn","velocity":68},{"channel":0,"nextOffset":12320,"note":65,"tick":29472,"time":153.5,"type":"noteOn","velocity":68},{"channel":0,"nextOffset":12324,"note":67,"tick":29472,"time":153.5,"type":"noteOn","velocity":68},{"channel":0,"nextOffset":12328,"note":70,"tick":29472,"time":153.5,"type":"noteOn","velocity":68},{"channel":0,"nextOffset":12332,"note":33,"tick":29496,"time":153.625,"type":"noteOff","velocity":0},{"channel":0,"nextOffset":12336,"note":33,"tick":29520,"time":153.75,"type":"noteOn","velocity":68},{"channel":0,"nextOffset":12340,"note":61,"tick":29520,"time":153.75,"type":"noteOff","velocity":0},{"channel":0,"nextOffset":12344,"note":65,"tick":29520,"time":153.75,"type":"noteOff","velocity":0},{"channel":0,"nextOffset":12348,"note":67,"tick":29520,"time":153.75,"type":"noteOff","velocity":0},{"channel":0,"nextOffset":12352,"note":70,"tick":29520,"time":153.75,"type":"noteOff","velocity":0},{"channel":0,"nextOffset":12356,"note":26,"tick":29568,"time":154,"type":"noteOn","velocity":68},{"channel":0,"nextOffset":12360,"note":33,"tick":29568,"time":154,"type":"noteOff","velocity":0},{"channel":0,"nextOffset":12364,"note":60,"tick":29568,"time":154,"type":"noteOn","velocity":68},{"channel":0,"nextOffset":12368,"note":64,"tick":29568,"time":154,"type":"noteOn","velocity":68},{"channel":0,"nextOffset":12372,"note":65,"tick":29568,"time":154,"type":"noteOn","velocity":68},{"channel":0,"nextOffset":12376,"note":69,"tick":29568,"time":154,"type":"noteOn","velocity":68},{"channel":0,"nextOffset":12380,"note":26,"tick":29616,"time":154.25,"type":"noteOff","velocity":0},{"channel":0,"nextOffset":12384,"note":60,"tick":29616,"time":154.25,"type":"noteOff","velocity":0},{"channel":0,"nextOffset":12388,"note":64,"tick":29616,"time":154.25,"type":"noteOff","velocity":0},{"channel":0,"nextOffset":12392,"note":65,"tick":29616,"time":154.25,"type":"noteOff","velocity":0},{"channel":0,"nextOffset":12396,"note":69,"tick":29616,"time":154.25,"type":"noteOff","velocity":0},{"channel":0,"nextOffset":12400,"note":26,"tick":29664,"time":154.5,"type":"noteOn","velocity":68},{"channel":0,"nextOffset":12404,"note":26,"tick":29712,"time":154.75,"type":"noteOff","velocity":0},{"channel":0,"nextOffset":12408,"note":38,"tick":29760,"time":155,"type":"noteOn","velocity":68},{"channel":0,"nextOffset":12412,"note":60,"tick":29760,"time":155,"type":"noteOn","velocity":68},{"channel":0,"nextOffset":12416,"note":64,"tick":29760,"time":155,"type":"noteOn","velocity":68},{"channel":0,"nextOffset":12420,"note":65,"tick":29760,"time":155,"type":"noteOn","velocity":68},{"channel":0,"nextOffset":12424,"note":69,"tick":29760,"time":155,"type":"noteOn","velocity":68},{"channel":0,"nextOffset":12428,"note":38,"tick":29808,"time":155.25,"type":"noteOff","velocity":0},{"channel":0,"nextOffset":12432,"note":60,"tick":29808,"time":155.25,"type":"noteOff","velocity":0},{"channel":0,"nextOffset":12436,"note":64,"tick":29808,"time":155.25,"type":"noteOff","velocity":0},{"channel":0,"nextOffset":12440,"note":65,"tick":29808,"time":155.25,"type":"noteOff","velocity":0},{"channel":0,"nextOffset":12444,"note":69,"tick":29808,"time":155.25,"type":"noteOff","velocity":0},{"channel":0,"nextOffset":12448,"note":33,"tick":29832,"time":155.375,"type":"noteOn","velocity":68},{"channel":0,"nextOffset":12452,"note":59,"tick":29856,"time":155.5,"type":"noteOn","velocity":68},{"channel":0,"nextOffset":12456,"note":63,"tick":29856,"time":155.5,"type":"noteOn","velocity":68},{"channel":0,"nextOffset":12460,"note":68,"tick":29856,"time":155.5,"type":"noteOn","velocity":68},{"channel":0,"nextOffset":12464,"note":33,"tick":29880,"time":155.625,"type":"noteOff","velocity":0},{"channel":0,"nextOffset":12468,"note":32,"tick":29904,"time":155.75,"type":"noteOn","velocity":68},{"channel":0,"nextOffset":12472,"note":59,"tick":29904,"time":155.75,"type":"noteOff","velocity":0},{"channel":0,"nextOffset":12476,"note":63,"tick":29904,"time":155.75,"type":"noteOff","velocity":0},{"channel":0,"nextOffset":12480,"note":68,"tick":29904,"time":155.75,"type":"noteOff","velocity":0},{"channel":0,"nextOffset":12484,"note":31,"tick":29952,"time":156,"type":"noteOn","velocity":68},{"channel":0,"nextOffset":12488,"note":32,"tick":29952,"time":156,"type":"noteOff","velocity":0},{"channel":0,"nextOffset":12492,"note":58,"tick":29952,"time":156,"type":"noteOn","velocity":68},{"channel":0,"nextOffset":12496,"note":62,"tick":29952,"time":156,"type":"noteOn","velocity":68},{"channel":0,"nextOffset":12500,"note":65,"tick":29952,"time":156,"type":"noteOn","velocity":68},{"channel":0,"nextOffset":12504,"note":69,"tick":29952,"time":156,"type":"noteOn","velocity":68},{"channel":0,"nextOffset":12508,"note":31,"tick":30000,"time":156.25,"type":"noteOff","velocity":0},{"channel":0,"nextOffset":12512,"note":31,"tick":30048,"time":156.5,"type":"noteOn","velocity":68},{"channel":0,"nextOffset":12516,"note":58,"tick":30048,"time":156.5,"type":"noteOff","velocity":0},{"channel":0,"nextOffset":12520,"note":62,"tick":30048,"time":156.5,"type":"noteOff","velocity":0},{"channel":0,"nextOffset":12524,"note":65,"tick":30048,"time":156.5,"type":"noteOff","velocity":0},{"channel":0,"nextOffset":12528,"note":69,"tick":30048,"time":156.5,"type":"noteOff","velocity":0},{"channel":0,"nextOffset":12532,"note":31,"tick":30096,"time":156.75,"type":"noteOff","velocity":0},{"channel":0,"nextOffset":12536,"note":33,"tick":30144,"time":157,"type":"noteOn","velocity":68},{"channel":0,"nextOffset":12540,"note":60,"tick":30144,"time":157,"type":"noteOn","velocity":68},{"channel":0,"nextOffset":12544,"note":64,"tick":30144,"time":157,"type":"noteOn","velocity":68},{"channel":0,"nextOffset":12548,"note":67,"tick":30144,"time":157,"type":"noteOn","velocity":68},{"channel":0,"nextOffset":12552,"note":72,"tick":30144,"time":157,"type":"noteOn","velocity":68},{"channel":0,"nextOffset":12556,"note":33,"tick":30192,"time":157.25,"type":"noteOff","velocity":0},{"channel":0,"nextOffset":12560,"note":60,"tick":30192,"time":157.25,"type":"noteOff","velocity":0},{"channel":0,"nextOffset":12564,"note":64,"tick":30192,"time":157.25,"type":"noteOff","velocity":0},{"channel":0,"nextOffset":12568,"note":67,"tick":30192,"time":157.25,"type":"noteOff","velocity":0},{"channel":0,"nextOffset":12572,"note":72,"tick":30192,"time":157.25,"type":"noteOff","velocity":0},{"channel":0,"nextOffset":12576,"note":33,"tick":30216,"time":157.375,"type":"noteOn","velocity":68},{"channel":0,"nextOffset":12580,"note":61,"tick":30240,"time":157.5,"type":"noteOn","velocity":68},{"channel":0,"nextOffset":12584,"note":65,"tick":30240,"time":157.5,"type":"noteOn","velocity":68},{"channel":0,"nextOffset":12588,"note":67,"tick":30240,"time":157.5,"type":"noteOn","velocity":68},{"channel":0,"nextOffset":12592,"note":70,"tick":30240,"time":157.5,"type":"noteOn","velocity":68},{"channel":0,"nextOffset":12596,"note":33,"tick":30264,"time":157.625,"type":"noteOff","velocity":0},{"channel":0,"nextOffset":12600,"note":33,"tick":30288,"time":157.75,"type":"noteOn","velocity":68},{"channel":0,"nextOffset":12604,"note":61,"tick":30288,"time":157.75,"type":"noteOff","velocity":0},{"channel":0,"nextOffset":12608,"note":65,"tick":30288,"time":157.75,"type":"noteOff","velocity":0},{"channel":0,"nextOffset":12612,"note":67,"tick":30288,"time":157.75,"type":"noteOff","velocity":0},{"channel":0,"nextOffset":12616,"note":70,"tick":30288,"time":157.75,"type":"noteOff","velocity":0},{"channel":0,"nextOffset":12620,"note":26,"tick":30336,"time":158,"type":"noteOn","velocity":68},{"channel":0,"nextOffset":12624,"note":33,"tick":30336,"time":158,"type":"noteOff","velocity":0},{"channel":0,"nextOffset":12628,"note":60,"tick":30336,"time":158,"type":"noteOn","velocity":68},{"channel":0,"nextOffset":12632,"note":64,"tick":30336,"time":158,"type":"noteOn","velocity":68},{"channel":0,"nextOffset":12636,"note":65,"tick":30336,"time":158,"type":"noteOn","velocity":68},{"channel":0,"nextOffset":12640,"note":69,"tick":30336,"time":158,"type":"noteOn","velocity":68},{"channel":0,"nextOffset":12644,"note":26,"tick":30384,"time":158.25,"type":"noteOff","velocity":0},{"channel":0,"nextOffset":12648,"note":60,"tick":30384,"time":158.25,"type":"noteOff","velocity":0},{"channel":0,"nextOffset":12652,"note":64,"tick":30384,"time":158.25,"type":"noteOff","velocity":0},{"channel":0,"nextOffset":12656,"note":65,"tick":30384,"time":158.25,"type":"noteOff","velocity":0},{"channel":0,"nextOffset":12660,"note":69,"tick":30384,"time":158.25,"type":"noteOff","velocity":0},{"channel":0,"nextOffset":12664,"note":26,"tick":30432,"time":158.5,"type":"noteOn","velocity":68},{"channel":0,"nextOffset":12668,"note":26,"tick":30480,"time":158.75,"type":"noteOff","velocity":0},{"channel":0,"nextOffset":12672,"note":38,"tick":30528,"time":159,"type":"noteOn","velocity":68},{"channel":0,"nextOffset":12676,"note":60,"tick":30528,"time":159,"type":"noteOn","velocity":68},{"channel":0,"nextOffset":12680,"note":64,"tick":30528,"time":159,"type":"noteOn","velocity":68},{"channel":0,"nextOffset":12684,"note":65,"tick":30528,"time":159,"type":"noteOn","velocity":68},{"channel":0,"nextOffset":12688,"note":69,"tick":30528,"time":159,"type":"noteOn","velocity":68},{"channel":0,"nextOffset":12692,"note":38,"tick":30576,"time":159.25,"type":"noteOff","velocity":0},{"channel":0,"nextOffset":12696,"note":60,"tick":30576,"time":159.25,"type":"noteOff","velocity":0},{"channel":0,"nextOffset":12700,"note":64,"tick":30576,"time":159.25,"type":"noteOff","velocity":0},{"channel":0,"nextOffset":12704,"note":65,"tick":30576,"time":159.25,"type":"noteOff","velocity":0},{"channel":0,"nextOffset":12708,"note":69,"tick":30576,"time":159.25,"type":"noteOff","velocity":0},{"channel":0,"nextOffset":12712,"note":33,"tick":30600,"time":159.375,"type":"noteOn","velocity":68},{"channel":0,"nextOffset":12716,"note":59,"tick":30624,"time":159.5,"type":"noteOn","velocity":68},{"channel":0,"nextOffset":12720,"note":63,"tick":30624,"time":159.5,"type":"noteOn","velocity":68},{"channel":0,"nextOffset":12724,"note":68,"tick":30624,"time":159.5,"type":"noteOn","velocity":68},{"channel":0,"nextOffset":12728,"note":33,"tick":30648,"time":159.625,"type":"noteOff","velocity":0},{"channel":0,"nextOffset":12732,"note":32,"tick":30672,"time":159.75,"type":"noteOn","velocity":68},{"channel":0,"nextOffset":12736,"note":59,"tick":30672,"time":159.75,"type":"noteOff","velocity":0},{"channel":0,"nextOffset":12740,"note":63,"tick":30672,"time":159.75,"type":"noteOff","velocity":0},{"channel":0,"nextOffset":12744,"note":68,"tick":30672,"time":159.75,"type":"noteOff","velocity":0},{"channel":0,"nextOffset":12748,"note":31,"tick":30720,"time":160,"type":"noteOn","velocity":68},{"channel":0,"nextOffset":12752,"note":32,"tick":30720,"time":160,"type":"noteOff","velocity":0},{"channel":0,"nextOffset":12756,"note":58,"tick":30720,"time":160,"type":"noteOn","velocity":68},{"channel":0,"nextOffset":12760,"note":62,"tick":30720,"time":160,"type":"noteOn","velocity":68},{"channel":0,"nextOffset":12764,"note":65,"tick":30720,"time":160,"type":"noteOn","velocity":68},{"channel":0,"nextOffset":12768,"note":69,"tick":30720,"time":160,"type":"noteOn","velocity":68},{"channel":0,"nextOffset":12772,"note":31,"tick":30768,"time":160.25,"type":"noteOff","velocity":0},{"channel":0,"nextOffset":12776,"note":31,"tick":30816,"time":160.5,"type":"noteOn","velocity":68},{"channel":0,"nextOffset":12780,"note":58,"tick":30816,"time":160.5,"type":"noteOff","velocity":0},{"channel":0,"nextOffset":12784,"note":62,"tick":30816,"time":160.5,"type":"noteOff","velocity":0},{"channel":0,"nextOffset":12788,"note":65,"tick":30816,"time":160.5,"type":"noteOff","velocity":0},{"channel":0,"nextOffset":12792,"note":69,"tick":30816,"time":160.5,"type":"noteOff","velocity":0},{"channel":0,"nextOffset":12796,"note":31,"tick":30864,"time":160.75,"type":"noteOff","velocity":0},{"channel":0,"nextOffset":12800,"note":33,"tick":30912,"time":161,"type":"noteOn","velocity":68},{"channel":0,"nextOffset":12804,"note":60,"tick":30912,"time":161,"type":"noteOn","velocity":68},{"channel":0,"nextOffset":12808,"note":64,"tick":30912,"time":161,"type":"noteOn","velocity":68},{"channel":0,"nextOffset":12812,"note":67,"tick":30912,"time":161,"type":"noteOn","velocity":68},{"channel":0,"nextOffset":12816,"note":72,"tick":30912,"time":161,"type":"noteOn","velocity":68},{"channel":0,"nextOffset":12820,"note":33,"tick":30960,"time":161.25,"type":"noteOff","velocity":0},{"channel":0,"nextOffset":12824,"note":60,"tick":30960,"time":161.25,"type":"noteOff","velocity":0},{"channel":0,"nextOffset":12828,"note":64,"tick":30960,"time":161.25,"type":"noteOff","velocity":0},{"channel":0,"nextOffset":12832,"note":67,"tick":30960,"time":161.25,"type":"noteOff","velocity":0},{"channel":0,"nextOffset":12836,"note":72,"tick":30960,"time":161.25,"type":"noteOff","velocity":0},{"channel":0,"nextOffset":12840,"note":33,"tick":30984,"time":161.375,"type":"noteOn","velocity":68},{"channel":0,"nextOffset":12844,"note":61,"tick":31008,"time":161.5,"type":"noteOn","velocity":68},{"channel":0,"nextOffset":12848,"note":65,"tick":31008,"time":161.5,"type":"noteOn","velocity":68},{"channel":0,"nextOffset":12852,"note":67,"tick":31008,"time":161.5,"type":"noteOn","velocity":68},{"channel":0,"nextOffset":12856,"note":70,"tick":31008,"time":161.5,"type":"noteOn","velocity":68},{"channel":0,"nextOffset":12860,"note":33,"tick":31032,"time":161.625,"type":"noteOff","velocity":0},{"channel":0,"nextOffset":12864,"note":33,"tick":31056,"time":161.75,"type":"noteOn","velocity":68},{"channel":0,"nextOffset":12868,"note":61,"tick":31056,"time":161.75,"type":"noteOff","velocity":0},{"channel":0,"nextOffset":12872,"note":65,"tick":31056,"time":161.75,"type":"noteOff","velocity":0},{"channel":0,"nextOffset":12876,"note":67,"tick":31056,"time":161.75,"type":"noteOff","velocity":0},{"channel":0,"nextOffset":12880,"note":70,"tick":31056,"time":161.75,"type":"noteOff","velocity":0},{"channel":0,"nextOffset":12884,"note":26,"tick":31104,"time":162,"type":"noteOn","velocity":68},{"channel":0,"nextOffset":12888,"note":33,"tick":31104,"time":162,"type":"noteOff","velocity":0},{"channel":0,"nextOffset":12892,"note":60,"tick":31104,"time":162,"type":"noteOn","velocity":68},{"channel":0,"nextOffset":12896,"note":64,"tick":31104,"time":162,"type":"noteOn","velocity":68},{"channel":0,"nextOffset":12900,"note":65,"tick":31104,"time":162,"type":"noteOn","velocity":68},{"channel":0,"nextOffset":12904,"note":69,"tick":31104,"time":162,"type":"noteOn","velocity":68},{"channel":0,"nextOffset":12908,"note":26,"tick":31152,"time":162.25,"type":"noteOff","velocity":0},{"channel":0,"nextOffset":12912,"note":60,"tick":31152,"time":162.25,"type":"noteOff","velocity":0},{"channel":0,"nextOffset":12916,"note":64,"tick":31152,"time":162.25,"type":"noteOff","velocity":0},{"channel":0,"nextOffset":12920,"note":65,"tick":31152,"time":162.25,"type":"noteOff","velocity":0},{"channel":0,"nextOffset":12924,"note":69,"tick":31152,"time":162.25,"type":"noteOff","velocity":0},{"channel":0,"nextOffset":12928,"note":26,"tick":31200,"time":162.5,"type":"noteOn","velocity":68},{"channel":0,"nextOffset":12932,"note":26,"tick":31248,"time":162.75,"type":"noteOff","velocity":0},{"channel":0,"nextOffset":12936,"note":38,"tick":31296,"time":163,"type":"noteOn","velocity":68},{"channel":0,"nextOffset":12940,"note":60,"tick":31296,"time":163,"type":"noteOn","velocity":68},{"channel":0,"nextOffset":12944,"note":64,"tick":31296,"time":163,"type":"noteOn","velocity":68},{"channel":0,"nextOffset":12948,"note":65,"tick":31296,"time":163,"type":"noteOn","velocity":68},{"channel":0,"nextOffset":12952,"note":69,"tick":31296,"time":163,"type":"noteOn","velocity":68},{"channel":0,"nextOffset":12956,"note":38,"tick":31344,"time":163.25,"type":"noteOff","velocity":0},{"channel":0,"nextOffset":12960,"note":60,"tick":31344,"time":163.25,"type":"noteOff","velocity":0},{"channel":0,"nextOffset":12964,"note":64,"tick":31344,"time":163.25,"type":"noteOff","velocity":0},{"channel":0,"nextOffset":12968,"note":65,"tick":31344,"time":163.25,"type":"noteOff","velocity":0},{"channel":0,"nextOffset":12972,"note":69,"tick":31344,"time":163.25,"type":"noteOff","velocity":0},{"channel":0,"nextOffset":12976,"note":33,"tick":31368,"time":163.375,"type":"noteOn","velocity":68},{"channel":0,"nextOffset":12980,"note":59,"tick":31392,"time":163.5,"type":"noteOn","velocity":68},{"channel":0,"nextOffset":12984,"note":63,"tick":31392,"time":163.5,"type":"noteOn","velocity":68},{"channel":0,"nextOffset":12988,"note":68,"tick":31392,"time":163.5,"type":"noteOn","velocity":68},{"channel":0,"nextOffset":12992,"note":33,"tick":31416,"time":163.625,"type":"noteOff","velocity":0},{"channel":0,"nextOffset":12996,"note":32,"tick":31440,"time":163.75,"type":"noteOn","velocity":68},{"channel":0,"nextOffset":13000,"note":59,"tick":31440,"time":163.75,"type":"noteOff","velocity":0},{"channel":0,"nextOffset":13004,"note":63,"tick":31440,"time":163.75,"type":"noteOff","velocity":0},{"channel":0,"nextOffset":13008,"note":68,"tick":31440,"time":163.75,"type":"noteOff","velocity":0},{"channel":0,"nextOffset":13012,"note":31,"tick":31488,"time":164,"type":"noteOn","velocity":68},{"channel":0,"nextOffset":13016,"note":32,"tick":31488,"time":164,"type":"noteOff","velocity":0},{"channel":0,"nextOffset":13020,"note":58,"tick":31488,"time":164,"type":"noteOn","velocity":68},{"channel":0,"nextOffset":13024,"note":62,"tick":31488,"time":164,"type":"noteOn","velocity":68},{"channel":0,"nextOffset":13028,"note":65,"tick":31488,"time":164,"type":"noteOn","velocity":68},{"channel":0,"nextOffset":13032,"note":69,"tick":31488,"time":164,"type":"noteOn","velocity":68},{"channel":0,"nextOffset":13036,"note":31,"tick":31536,"time":164.25,"type":"noteOff","velocity":0},{"channel":0,"nextOffset":13040,"note":31,"tick":31584,"time":164.5,"type":"noteOn","velocity":68},{"channel":0,"nextOffset":13044,"note":58,"tick":31584,"time":164.5,"type":"noteOff","velocity":0},{"channel":0,"nextOffset":13048,"note":62,"tick":31584,"time":164.5,"type":"noteOff","velocity":0},{"channel":0,"nextOffset":13052,"note":65,"tick":31584,"time":164.5,"type":"noteOff","velocity":0},{"channel":0,"nextOffset":13056,"note":69,"tick":31584,"time":164.5,"type":"noteOff","velocity":0},{"channel":0,"nextOffset":13060,"note":31,"tick":31632,"time":164.75,"type":"noteOff","velocity":0},{"channel":0,"nextOffset":13064,"note":33,"tick":31680,"time":165,"type":"noteOn","velocity":68},{"channel":0,"nextOffset":13068,"note":60,"tick":31680,"time":165,"type":"noteOn","velocity":68},{"channel":0,"nextOffset":13072,"note":64,"tick":31680,"time":165,"type":"noteOn","velocity":68},{"channel":0,"nextOffset":13076,"note":67,"tick":31680,"time":165,"type":"noteOn","velocity":68},{"channel":0,"nextOffset":13080,"note":72,"tick":31680,"time":165,"type":"noteOn","velocity":68},{"channel":0,"nextOffset":13084,"note":33,"tick":31728,"time":165.25,"type":"noteOff","velocity":0},{"channel":0,"nextOffset":13088,"note":60,"tick":31728,"time":165.25,"type":"noteOff","velocity":0},{"channel":0,"nextOffset":13092,"note":64,"tick":31728,"time":165.25,"type":"noteOff","velocity":0},{"channel":0,"nextOffset":13096,"note":67,"tick":31728,"time":165.25,"type":"noteOff","velocity":0},{"channel":0,"nextOffset":13100,"note":72,"tick":31728,"time":165.25,"type":"noteOff","velocity":0},{"channel":0,"nextOffset":13104,"note":33,"tick":31752,"time":165.375,"type":"noteOn","velocity":68},{"channel":0,"nextOffset":13108,"note":61,"tick":31776,"time":165.5,"type":"noteOn","velocity":68},{"channel":0,"nextOffset":13112,"note":65,"tick":31776,"time":165.5,"type":"noteOn","velocity":68},{"channel":0,"nextOffset":13116,"note":67,"tick":31776,"time":165.5,"type":"noteOn","velocity":68},{"channel":0,"nextOffset":13120,"note":70,"tick":31776,"time":165.5,"type":"noteOn","velocity":68},{"channel":0,"nextOffset":13124,"note":33,"tick":31800,"time":165.625,"type":"noteOff","velocity":0},{"channel":0,"nextOffset":13128,"note":33,"tick":31824,"time":165.75,"type":"noteOn","velocity":68},{"channel":0,"nextOffset":13132,"note":61,"tick":31824,"time":165.75,"type":"noteOff","velocity":0},{"channel":0,"nextOffset":13136,"note":65,"tick":31824,"time":165.75,"type":"noteOff","velocity":0},{"channel":0,"nextOffset":13140,"note":67,"tick":31824,"time":165.75,"type":"noteOff","velocity":0},{"channel":0,"nextOffset":13144,"note":70,"tick":31824,"time":165.75,"type":"noteOff","velocity":0},{"channel":0,"nextOffset":13148,"note":26,"tick":31872,"time":166,"type":"noteOn","velocity":68},{"channel":0,"nextOffset":13152,"note":33,"tick":31872,"time":166,"type":"noteOff","velocity":0},{"channel":0,"nextOffset":13156,"note":60,"tick":31872,"time":166,"type":"noteOn","velocity":68},{"channel":0,"nextOffset":13160,"note":64,"tick":31872,"time":166,"type":"noteOn","velocity":68},{"channel":0,"nextOffset":13164,"note":65,"tick":31872,"time":166,"type":"noteOn","velocity":68},{"channel":0,"nextOffset":13168,"note":69,"tick":31872,"time":166,"type":"noteOn","velocity":68},{"channel":0,"nextOffset":13172,"note":26,"tick":31920,"time":166.25,"type":"noteOff","velocity":0},{"channel":0,"nextOffset":13176,"note":60,"tick":31920,"time":166.25,"type":"noteOff","velocity":0},{"channel":0,"nextOffset":13180,"note":64,"tick":31920,"time":166.25,"type":"noteOff","velocity":0},{"channel":0,"nextOffset":13184,"note":65,"tick":31920,"time":166.25,"type":"noteOff","velocity":0},{"channel":0,"nextOffset":13188,"note":69,"tick":31920,"time":166.25,"type":"noteOff","velocity":0},{"channel":0,"nextOffset":13192,"note":26,"tick":31968,"time":166.5,"type":"noteOn","velocity":68},{"channel":0,"nextOffset":13196,"note":26,"tick":32016,"time":166.75,"type":"noteOff","velocity":0},{"channel":0,"nextOffset":13200,"note":38,"tick":32064,"time":167,"type":"noteOn","velocity":68},{"channel":0,"nextOffset":13204,"note":60,"tick":32064,"time":167,"type":"noteOn","velocity":68},{"channel":0,"nextOffset":13208,"note":64,"tick":32064,"time":167,"type":"noteOn","velocity":68},{"channel":0,"nextOffset":13212,"note":65,"tick":32064,"time":167,"type":"noteOn","velocity":68},{"channel":0,"nextOffset":13216,"note":69,"tick":32064,"time":167,"type":"noteOn","velocity":68},{"channel":0,"nextOffset":13220,"note":38,"tick":32112,"time":167.25,"type":"noteOff","velocity":0},{"channel":0,"nextOffset":13224,"note":60,"tick":32112,"time":167.25,"type":"noteOff","velocity":0},{"channel":0,"nextOffset":13228,"note":64,"tick":32112,"time":167.25,"type":"noteOff","velocity":0},{"channel":0,"nextOffset":13232,"note":65,"tick":32112,"time":167.25,"type":"noteOff","velocity":0},{"channel":0,"nextOffset":13236,"note":69,"tick":32112,"time":167.25,"type":"noteOff","velocity":0},{"channel":0,"nextOffset":13240,"note":33,"tick":32136,"time":167.375,"type":"noteOn","velocity":68},{"channel":0,"nextOffset":13244,"note":59,"tick":32160,"time":167.5,"type":"noteOn","velocity":68},{"channel":0,"nextOffset":13248,"note":63,"tick":32160,"time":167.5,"type":"noteOn","velocity":68},{"channel":0,"nextOffset":13252,"note":68,"tick":32160,"time":167.5,"type":"noteOn","velocity":68},{"channel":0,"nextOffset":13256,"note":33,"tick":32184,"time":167.625,"type":"noteOff","velocity":0},{"channel":0,"nextOffset":13260,"note":59,"tick":32208,"time":167.75,"type":"noteOff","velocity":0},{"channel":0,"nextOffset":13264,"note":63,"tick":32208,"time":167.75,"type":"noteOff","velocity":0},{"channel":0,"nextOffset":13268,"note":68,"tick":32208,"time":167.75,"type":"noteOff","velocity":0},{"channel":0,"nextOffset":13272,"note":43,"tick":32256,"time":168,"type":"noteOn","velocity":68},{"channel":0,"nextOffset":13276,"note":58,"tick":32256,"time":168,"type":"noteOn","velocity":68},{"channel":0,"nextOffset":13280,"note":62,"tick":32256,"time":168,"type":"noteOn","velocity":68},{"channel":0,"nextOffset":13284,"note":65,"tick":32256,"time":168,"type":"noteOn","velocity":68},{"channel":0,"nextOffset":13288,"note":69,"tick":32256,"time":168,"type":"noteOn","velocity":68},{"channel":0,"nextOffset":13292,"note":43,"tick":32304,"time":168.25,"type":"noteOff","velocity":0},{"channel":0,"nextOffset":13296,"note":50,"tick":32304,"time":168.25,"type":"noteOn","velocity":68},{"channel":0,"nextOffset":13300,"note":43,"tick":32352,"time":168.5,"type":"noteOn","velocity":68},{"channel":0,"nextOffset":13304,"note":50,"tick":32352,"time":168.5,"type":"noteOff","velocity":0},{"channel":0,"nextOffset":13308,"note":58,"tick":32352,"time":168.5,"type":"noteOff","velocity":0},{"channel":0,"nextOffset":13312,"note":62,"tick":32352,"time":168.5,"type":"noteOff","velocity":0},{"channel":0,"nextOffset":13316,"note":65,"tick":32352,"time":168.5,"type":"noteOff","velocity":0},{"channel":0,"nextOffset":13320,"note":69,"tick":32352,"time":168.5,"type":"noteOff","velocity":0},{"channel":0,"nextOffset":13324,"note":43,"tick":32400,"time":168.75,"type":"noteOff","velocity":0},{"channel":0,"nextOffset":13328,"note":44,"tick":32400,"time":168.75,"type":"noteOn","velocity":68},{"channel":0,"nextOffset":13332,"note":65,"tick":32400,"time":168.75,"type":"noteOn","velocity":68},{"channel":0,"nextOffset":13336,"note":65,"tick":32424,"time":168.875,"type":"noteOff","velocity":0},{"channel":0,"nextOffset":13340,"note":69,"tick":32424,"time":168.875,"type":"noteOn","velocity":68},{"channel":0,"nextOffset":13344,"note":44,"tick":32448,"time":169,"type":"noteOff","velocity":0},{"channel":0,"nextOffset":13348,"note":45,"tick":32448,"time":169,"type":"noteOn","velocity":68},{"channel":0,"nextOffset":13352,"note":60,"tick":32448,"time":169,"type":"noteOn","velocity":68},{"channel":0,"nextOffset":13356,"note":64,"tick":32448,"time":169,"type":"noteOn","velocity":68},{"channel":0,"nextOffset":13360,"note":67,"tick":32448,"time":169,"type":"noteOn","velocity":68},{"channel":0,"nextOffset":13364,"note":69,"tick":32448,"time":169,"type":"noteOff","velocity":0},{"channel":0,"nextOffset":13368,"note":72,"tick":32448,"time":169,"type":"noteOn","velocity":68},{"channel":0,"nextOffset":13372,"note":45,"tick":32496,"time":169.25,"type":"noteOff","velocity":0},{"channel":0,"nextOffset":13376,"note":60,"tick":32496,"time":169.25,"type":"noteOff","velocity":0},{"channel":0,"nextOffset":13380,"note":64,"tick":32496,"time":169.25,"type":"noteOff","velocity":0},{"channel":0,"nextOffset":13384,"note":67,"tick":32496,"time":169.25,"type":"noteOff","velocity":0},{"channel":0,"nextOffset":13388,"note":72,"tick":32496,"time":169.25,"type":"noteOff","velocity":0},{"channel":0,"nextOffset":13392,"note":45,"tick":32520,"time":169.375,"type":"noteOn","velocity":68},{"channel":0,"nextOffset":13396,"note":61,"tick":32520,"time":169.375,"type":"noteOn","velocity":68},{"channel":0,"nextOffset":13400,"note":65,"tick":32520,"time":169.375,"type":"noteOn","velocity":68},{"channel":0,"nextOffset":13404,"note":67,"tick":32520,"time":169.375,"type":"noteOn","velocity":68},{"channel":0,"nextOffset":13408,"note":70,"tick":32520,"time":169.375,"type":"noteOn","velocity":68},{"channel":0,"nextOffset":13412,"note":45,"tick":32544,"time":169.5,"type":"noteOff","velocity":0},{"channel":0,"nextOffset":13416,"note":61,"tick":32568,"time":169.625,"type":"noteOff","velocity":0},{"channel":0,"nextOffset":13420,"note":65,"tick":32568,"time":169.625,"type":"noteOff","velocity":0},{"channel":0,"nextOffset":13424,"note":67,"tick":32568,"time":169.625,"type":"noteOff","velocity":0},{"channel":0,"nextOffset":13428,"note":70,"tick":32568,"time":169.625,"type":"noteOff","velocity":0},{"channel":0,"nextOffset":13432,"note":38,"tick":32592,"time":169.75,"type":"noteOn","velocity":68},{"channel":0,"nextOffset":13436,"note":60,"tick":32592,"time":169.75,"type":"noteOn","velocity":68},{"channel":0,"nextOffset":13440,"note":64,"tick":32592,"time":169.75,"type":"noteOn","velocity":68},{"channel":0,"nextOffset":13444,"note":65,"tick":32592,"time":169.75,"type":"noteOn","velocity":68},{"channel":0,"nextOffset":13448,"note":69,"tick":32592,"time":169.75,"type":"noteOn","velocity":68},{"channel":0,"nextOffset":13452,"note":38,"tick":32640,"time":170,"type":"noteOff","velocity":0},{"channel":0,"nextOffset":13456,"note":60,"tick":32640,"time":170,"type":"noteOff","velocity":0},{"channel":0,"nextOffset":13460,"note":64,"tick":32640,"time":170,"type":"noteOff","velocity":0},{"channel":0,"nextOffset":13464,"note":65,"tick":32640,"time":170,"type":"noteOff","velocity":0},{"channel":0,"nextOffset":13468,"note":69,"tick":32640,"time":170,"type":"noteOff","velocity":0},{"channel":0,"nextOffset":13472,"note":76,"tick":32640,"time":170,"type":"noteOn","velocity":68},{"channel":0,"nextOffset":13476,"note":76,"tick":32664,"time":170.125,"type":"noteOff","velocity":0},{"channel":0,"nextOffset":13480,"note":77,"tick":32664,"time":170.125,"type":"noteOn","velocity":68},{"channel":0,"nextOffset":13484,"note":76,"tick":32688,"time":170.25,"type":"noteOn","velocity":68},{"channel":0,"nextOffset":13488,"note":77,"tick":32688,"time":170.25,"type":"noteOff","velocity":0},{"channel":0,"nextOffset":13492,"note":72,"tick":32712,"time":170.375,"type":"noteOn","velocity":68},{"channel":0,"nextOffset":13496,"note":76,"tick":32712,"time":170.375,"type":"noteOff","velocity":0},{"channel":0,"nextOffset":13500,"note":72,"tick":32736,"time":170.5,"type":"noteOff","velocity":0},{"channel":0,"nextOffset":13504,"note":76,"tick":32736,"time":170.5,"type":"noteOn","velocity":68},{"channel":0,"nextOffset":13508,"note":72,"tick":32760,"time":170.625,"type":"noteOn","velocity":68},{"channel":0,"nextOffset":13512,"note":76,"tick":32760,"time":170.625,"type":"noteOff","velocity":0},{"channel":0,"nextOffset":13516,"note":45,"tick":32784,"time":170.75,"type":"noteOn","velocity":68},{"channel":0,"nextOffset":13520,"note":69,"tick":32784,"time":170.75,"type":"noteOn","velocity":68},{"channel":0,"nextOffset":13524,"note":72,"tick":32784,"time":170.75,"type":"noteOff","velocity":0},{"channel":0,"nextOffset":13528,"note":67,"tick":32808,"time":170.875,"type":"noteOn","velocity":68},{"channel":0,"nextOffset":13532,"note":69,"tick":32808,"time":170.875,"type":"noteOff","velocity":0},{"channel":0,"nextOffset":13536,"note":45,"tick":32832,"time":171,"type":"noteOff","velocity":0},{"channel":0,"nextOffset":13540,"note":50,"tick":32832,"time":171,"type":"noteOn","velocity":68},{"channel":0,"nextOffset":13544,"note":67,"tick":32832,"time":171,"type":"noteOff","velocity":0},{"channel":0,"nextOffset":13548,"note":69,"tick":32832,"time":171,"type":"noteOn","velocity":68},{"channel":0,"nextOffset":13552,"note":62,"tick":32856,"time":171.125,"type":"noteOn","velocity":68},{"channel":0,"nextOffset":13556,"note":69,"tick":32856,"time":171.125,"type":"noteOff","velocity":0},{"channel":0,"nextOffset":13560,"note":38,"tick":32880,"time":171.25,"type":"noteOn","velocity":68},{"channel":0,"nextOffset":13564,"note":50,"tick":32880,"time":171.25,"type":"noteOff","velocity":0},{"channel":0,"nextOffset":13568,"note":60,"tick":32880,"time":171.25,"type":"noteOn","velocity":68},{"channel":0,"nextOffset":13572,"note":62,"tick":32880,"time":171.25,"type":"noteOff","velocity":0},{"channel":0,"nextOffset":13576,"note":60,"tick":32904,"time":171.375,"type":"noteOff","velocity":0},{"channel":0,"nextOffset":13580,"note":65,"tick":32904,"time":171.375,"type":"noteOn","velocity":68},{"channel":0,"nextOffset":13584,"note":38,"tick":32928,"time":171.5,"type":"noteOff","velocity":0},{"channel":0,"nextOffset":13588,"note":45,"tick":32928,"time":171.5,"type":"noteOn","velocity":68},{"channel":0,"nextOffset":13592,"note":60,"tick":32928,"time":171.5,"type":"noteOn","velocity":68},{"channel":0,"nextOffset":13596,"note":64,"tick":32928,"time":171.5,"type":"noteOn","velocity":68},{"channel":0,"nextOffset":13600,"note":65,"tick":32928,"time":171.5,"type":"noteOff","velocity":0},{"channel":0,"nextOffset":13604,"note":69,"tick":32928,"time":171.5,"type":"noteOn","velocity":68},{"channel":0,"nextOffset":13608,"note":44,"tick":32976,"time":171.75,"type":"noteOn","velocity":68},{"channel":0,"nextOffset":13612,"note":45,"tick":32976,"time":171.75,"type":"noteOff","velocity":0},{"channel":0,"nextOffset":13616,"note":59,"tick":32976,"time":171.75,"type":"noteOn","velocity":68},{"channel":0,"nextOffset":13620,"note":60,"tick":32976,"time":171.75,"type":"noteOff","velocity":0},{"channel":0,"nextOffset":13624,"note":63,"tick":32976,"time":171.75,"type":"noteOn","velocity":68},{"channel":0,"nextOffset":13628,"note":64,"tick":32976,"time":171.75,"type":"noteOff","velocity":0},{"channel":0,"nextOffset":13632,"note":68,"tick":32976,"time":171.75,"type":"noteOn","velocity":68},{"channel":0,"nextOffset":13636,"note":69,"tick":32976,"time":171.75,"type":"noteOff","velocity":0},{"channel":0,"nextOffset":13640,"note":43,"tick":33024,"time":172,"type":"noteOn","velocity":68},{"channel":0,"nextOffset":13644,"note":44,"tick":33024,"time":172,"type":"noteOff","velocity":0},{"channel":0,"nextOffset":13648,"note":58,"tick":33024,"time":172,"type":"noteOn","velocity":68},{"channel":0,"nextOffset":13652,"note":59,"tick":33024,"time":172,"type":"noteOff","velocity":0},{"channel":0,"nextOffset":13656,"note":62,"tick":33024,"time":172,"type":"noteOn","velocity":68},{"channel":0,"nextOffset":13660,"note":63,"tick":33024,"time":172,"type":"noteOff","velocity":0},{"channel":0,"nextOffset":13664,"note":65,"tick":33024,"time":172,"type":"noteOn","velocity":68},{"channel":0,"nextOffset":13668,"note":68,"tick":33024,"time":172,"type":"noteOff","velocity":0},{"channel":0,"nextOffset":13672,"note":69,"tick":33024,"time":172,"type":"noteOn","velocity":68},{"channel":0,"nextOffset":13676,"note":43,"tick":33072,"time":172.25,"type":"noteOff","velocity":0},{"channel":0,"nextOffset":13680,"note":50,"tick":33072,"time":172.25,"type":"noteOn","velocity":68},{"channel":0,"nextOffset":13684,"note":43,"tick":33120,"time":172.5,"type":"noteOn","velocity":68},{"channel":0,"nextOffset":13688,"note":50,"tick":33120,"time":172.5,"type":"noteOff","velocity":0},{"channel":0,"nextOffset":13692,"note":58,"tick":33120,"time":172.5,"type":"noteOff","velocity":0},{"channel":0,"nextOffset":13696,"note":62,"tick":33120,"time":172.5,"type":"noteOff","velocity":0},{"channel":0,"nextOffset":13700,"note":65,"tick":33120,"time":172.5,"type":"noteOff","velocity":0},{"channel":0,"nextOffset":13704,"note":69,"tick":33120,"time":172.5,"type":"noteOff","velocity":0},{"channel":0,"nextOffset":13708,"note":43,"tick":33168,"time":172.75,"type":"noteOff","velocity":0},{"channel":0,"nextOffset":13712,"note":44,"tick":33168,"time":172.75,"type":"noteOn","velocity":68},{"channel":0,"nextOffset":13716,"note":65,"tick":33168,"time":172.75,"type":"noteOn","velocity":68},{"channel":0,"nextOffset":13720,"note":65,"tick":33192,"time":172.875,"type":"noteOff","velocity":0},{"channel":0,"nextOffset":13724,"note":69,"tick":33192,"time":172.875,"type":"noteOn","velocity":68},{"channel":0,"nextOffset":13728,"note":44,"tick":33216,"time":173,"type":"noteOff","velocity":0},{"channel":0,"nextOffset":13732,"note":45,"tick":33216,"time":173,"type":"noteOn","velocity":68},{"channel":0,"nextOffset":13736,"note":60,"tick":33216,"time":173,"type":"noteOn","velocity":68},{"channel":0,"nextOffset":13740,"note":64,"tick":33216,"time":173,"type":"noteOn","velocity":68},{"channel":0,"nextOffset":13744,"note":67,"tick":33216,"time":173,"type":"noteOn","velocity":68},{"channel":0,"nextOffset":13748,"note":69,"tick":33216,"time":173,"type":"noteOff","velocity":0},{"channel":0,"nextOffset":13752,"note":72,"tick":33216,"time":173,"type":"noteOn","velocity":68},{"channel":0,"nextOffset":13756,"note":45,"tick":33264,"time":173.25,"type":"noteOff","velocity":0},{"channel":0,"nextOffset":13760,"note":60,"tick":33264,"time":173.25,"type":"noteOff","velocity":0},{"channel":0,"nextOffset":13764,"note":64,"tick":33264,"time":173.25,"type":"noteOff","velocity":0},{"channel":0,"nextOffset":13768,"note":67,"tick":33264,"time":173.25,"type":"noteOff","velocity":0},{"channel":0,"nextOffset":13772,"note":72,"tick":33264,"time":173.25,"type":"noteOff","velocity":0},{"channel":0,"nextOffset":13776,"note":45,"tick":33288,"time":173.375,"type":"noteOn","velocity":68},{"channel":0,"nextOffset":13780,"note":61,"tick":33288,"time":173.375,"type":"noteOn","velocity":68},{"channel":0,"nextOffset":13784,"note":65,"tick":33288,"time":173.375,"type":"noteOn","velocity":68},{"channel":0,"nextOffset":13788,"note":67,"tick":33288,"time":173.375,"type":"noteOn","velocity":68},{"channel":0,"nextOffset":13792,"note":70,"tick":33288,"time":173.375,"type":"noteOn","velocity":68},{"channel":0,"nextOffset":13796,"note":45,"tick":33312,"time":173.5,"type":"noteOff","velocity":0},{"channel":0,"nextOffset":13800,"note":61,"tick":33336,"time":173.625,"type":"noteOff","velocity":0},{"channel":0,"nextOffset":13804,"note":65,"tick":33336,"time":173.625,"type":"noteOff","velocity":0},{"channel":0,"nextOffset":13808,"note":67,"tick":33336,"time":173.625,"type":"noteOff","velocity":0},{"channel":0,"nextOffset":13812,"note":70,"tick":33336,"time":173.625,"type":"noteOff","velocity":0},{"channel":0,"nextOffset":13816,"note":38,"tick":33360,"time":173.75,"type":"noteOn","velocity":68},{"channel":0,"nextOffset":13820,"note":60,"tick":33360,"time":173.75,"type":"noteOn","velocity":68},{"channel":0,"nextOffset":13824,"note":64,"tick":33360,"time":173.75,"type":"noteOn","velocity":68},{"channel":0,"nextOffset":13828,"note":65,"tick":33360,"time":173.75,"type":"noteOn","velocity":68},{"channel":0,"nextOffset":13832,"note":69,"tick":33360,"time":173.75,"type":"noteOn","velocity":68},{"channel":0,"nextOffset":13836,"note":38,"tick":33408,"time":174,"type":"noteOff","velocity":0},{"channel":0,"nextOffset":13840,"note":60,"tick":33408,"time":174,"type":"noteOff","velocity":0},{"channel":0,"nextOffset":13844,"note":64,"tick":33408,"time":174,"type":"noteOff","velocity":0},{"channel":0,"nextOffset":13848,"note":65,"tick":33408,"time":174,"type":"noteOff","velocity":0},{"channel":0,"nextOffset":13852,"note":69,"tick":33408,"time":174,"type":"noteOff","velocity":0},{"channel":0,"nextOffset":13856,"note":76,"tick":33408,"time":174,"type":"noteOn","velocity":68},{"channel":0,"nextOffset":13860,"note":76,"tick":33432,"time":174.125,"type":"noteOff","velocity":0},{"channel":0,"nextOffset":13864,"note":77,"tick":33432,"time":174.125,"type":"noteOn","velocity":68},{"channel":0,"nextOffset":13868,"note":77,"tick":33456,"time":174.25,"type":"noteOff","velocity":0},{"channel":0,"nextOffset":13872,"note":79,"tick":33456,"time":174.25,"type":"noteOn","velocity":68},{"channel":0,"nextOffset":13876,"note":77,"tick":33480,"time":174.375,"type":"noteOn","velocity":68},{"channel":0,"nextOffset":13880,"note":79,"tick":33480,"time":174.375,"type":"noteOff","velocity":0},{"channel":0,"nextOffset":13884,"note":76,"tick":33504,"time":174.5,"type":"noteOn","velocity":68},{"channel":0,"nextOffset":13888,"note":77,"tick":33504,"time":174.5,"type":"noteOff","velocity":0},{"channel":0,"nextOffset":13892,"note":72,"tick":33528,"time":174.625,"type":"noteOn","velocity":68},{"channel":0,"nextOffset":13896,"note":76,"tick":33528,"time":174.625,"type":"noteOff","velocity":0},{"channel":0,"nextOffset":13900,"note":45,"tick":33552,"time":174.75,"type":"noteOn","velocity":68},{"channel":0,"nextOffset":13904,"note":69,"tick":33552,"time":174.75,"type":"noteOn","velocity":68},{"channel":0,"nextOffset":13908,"note":72,"tick":33552,"time":174.75,"type":"noteOff","velocity":0},{"channel":0,"nextOffset":13912,"note":67,"tick":33576,"time":174.875,"type":"noteOn","velocity":68},{"channel":0,"nextOffset":13916,"note":69,"tick":33576,"time":174.875,"type":"noteOff","velocity":0},{"channel":0,"nextOffset":13920,"note":45,"tick":33600,"time":175,"type":"noteOff","velocity":0},{"channel":0,"nextOffset":13924,"note":50,"tick":33600,"time":175,"type":"noteOn","velocity":68},{"channel":0,"nextOffset":13928,"note":67,"tick":33600,"time":175,"type":"noteOff","velocity":0},{"channel":0,"nextOffset":13932,"note":69,"tick":33600,"time":175,"type":"noteOn","velocity":68},{"channel":0,"nextOffset":13936,"note":62,"tick":33624,"time":175.125,"type":"noteOn","velocity":68},{"channel":0,"nextOffset":13940,"note":69,"tick":33624,"time":175.125,"type":"noteOff","velocity":0},{"channel":0,"nextOffset":13944,"note":38,"tick":33648,"time":175.25,"type":"noteOn","velocity":68},{"channel":0,"nextOffset":13948,"note":50,"tick":33648,"time":175.25,"type":"noteOff","velocity":0},{"channel":0,"nextOffset":13952,"note":60,"tick":33648,"time":175.25,"type":"noteOn","velocity":68},{"channel":0,"nextOffset":13956,"note":62,"tick":33648,"time":175.25,"type":"noteOff","velocity":0},{"channel":0,"nextOffset":13960,"note":60,"tick":33672,"time":175.375,"type":"noteOff","velocity":0},{"channel":0,"nextOffset":13964,"note":65,"tick":33672,"time":175.375,"type":"noteOn","velocity":68},{"channel":0,"nextOffset":13968,"note":38,"tick":33696,"time":175.5,"type":"noteOff","velocity":0},{"channel":0,"nextOffset":13972,"note":45,"tick":33696,"time":175.5,"type":"noteOn","velocity":68},{"channel":0,"nextOffset":13976,"note":60,"tick":33696,"time":175.5,"type":"noteOn","velocity":68},{"channel":0,"nextOffset":13980,"note":64,"tick":33696,"time":175.5,"type":"noteOn","velocity":68},{"channel":0,"nextOffset":13984,"note":65,"tick":33696,"time":175.5,"type":"noteOff","velocity":0},{"channel":0,"nextOffset":13988,"note":69,"tick":33696,"time":175.5,"type":"noteOn","velocity":68},{"channel":0,"nextOffset":13992,"note":44,"tick":33744,"time":175.75,"type":"noteOn","velocity":68},{"channel":0,"nextOffset":13996,"note":45,"tick":33744,"time":175.75,"type":"noteOff","velocity":0},{"channel":0,"nextOffset":14000,"note":59,"tick":33744,"time":175.75,"type":"noteOn","velocity":68},{"channel":0,"nextOffset":14004,"note":60,"tick":33744,"time":175.75,"type":"noteOff","velocity":0},{"channel":0,"nextOffset":14008,"note":63,"tick":33744,"time":175.75,"type":"noteOn","velocity":68},{"channel":0,"nextOffset":14012,"note":64,"tick":33744,"time":175.75,"type":"noteOff","velocity":0},{"channel":0,"nextOffset":14016,"note":68,"tick":33744,"time":175.75,"type":"noteOn","velocity":68},{"channel":0,"nextOffset":14020,"note":69,"tick":33744,"time":175.75,"type":"noteOff","velocity":0},{"channel":0,"nextOffset":14024,"note":43,"tick":33792,"time":176,"type":"noteOn","velocity":68},{"channel":0,"nextOffset":14028,"note":44,"tick":33792,"time":176,"type":"noteOff","velocity":0},{"channel":0,"nextOffset":14032,"note":58,"tick":33792,"time":176,"type":"noteOn","velocity":68},{"channel":0,"nextOffset":14036,"note":59,"tick":33792,"time":176,"type":"noteOff","velocity":0},{"channel":0,"nextOffset":14040,"note":62,"tick":33792,"time":176,"type":"noteOn","velocity":68},{"channel":0,"nextOffset":14044,"note":63,"tick":33792,"time":176,"type":"noteOff","velocity":0},{"channel":0,"nextOffset":14048,"note":65,"tick":33792,"time":176,"type":"noteOn","velocity":68},{"channel":0,"nextOffset":14052,"note":68,"tick":33792,"time":176,"type":"noteOff","velocity":0},{"channel":0,"nextOffset":14056,"note":69,"tick":33792,"time":176,"type":"noteOn","velocity":68},{"channel":0,"nextOffset":14060,"note":43,"tick":33840,"time":176.25,"type":"noteOff","velocity":0},{"channel":0,"nextOffset":14064,"note":50,"tick":33840,"time":176.25,"type":"noteOn","velocity":68},{"channel":0,"nextOffset":14068,"note":43,"tick":33888,"time":176.5,"type":"noteOn","velocity":68},{"channel":0,"nextOffset":14072,"note":50,"tick":33888,"time":176.5,"type":"noteOff","velocity":0},{"channel":0,"nextOffset":14076,"note":58,"tick":33888,"time":176.5,"type":"noteOff","velocity":0},{"channel":0,"nextOffset":14080,"note":62,"tick":33888,"time":176.5,"type":"noteOff","velocity":0},{"channel":0,"nextOffset":14084,"note":65,"tick":33888,"time":176.5,"type":"noteOff","velocity":0},{"channel":0,"nextOffset":14088,"note":69,"tick":33888,"time":176.5,"type":"noteOff","velocity":0},{"channel":0,"nextOffset":14092,"note":43,"tick":33936,"time":176.75,"type":"noteOff","velocity":0},{"channel":0,"nextOffset":14096,"note":44,"tick":33936,"time":176.75,"type":"noteOn","velocity":68},{"channel":0,"nextOffset":14100,"note":65,"tick":33936,"time":176.75,"type":"noteOn","velocity":68},{"channel":0,"nextOffset":14104,"note":65,"tick":33960,"time":176.875,"type":"noteOff","velocity":0},{"channel":0,"nextOffset":14108,"note":69,"tick":33960,"time":176.875,"type":"noteOn","velocity":68},{"channel":0,"nextOffset":14112,"note":44,"tick":33984,"time":177,"type":"noteOff","velocity":0},{"channel":0,"nextOffset":14116,"note":45,"tick":33984,"time":177,"type":"noteOn","velocity":68},{"channel":0,"nextOffset":14120,"note":60,"tick":33984,"time":177,"type":"noteOn","velocity":68},{"channel":0,"nextOffset":14124,"note":64,"tick":33984,"time":177,"type":"noteOn","velocity":68},{"channel":0,"nextOffset":14128,"note":67,"tick":33984,"time":177,"type":"noteOn","velocity":68},{"channel":0,"nextOffset":14132,"note":69,"tick":33984,"time":177,"type":"noteOff","velocity":0},{"channel":0,"nextOffset":14136,"note":72,"tick":33984,"time":177,"type":"noteOn","velocity":68},{"channel":0,"nextOffset":14140,"note":45,"tick":34032,"time":177.25,"type":"noteOff","velocity":0},{"channel":0,"nextOffset":14144,"note":60,"tick":34032,"time":177.25,"type":"noteOff","velocity":0},{"channel":0,"nextOffset":14148,"note":64,"tick":34032,"time":177.25,"type":"noteOff","velocity":0},{"channel":0,"nextOffset":14152,"note":67,"tick":34032,"time":177.25,"type":"noteOff","velocity":0},{"channel":0,"nextOffset":14156,"note":72,"tick":34032,"time":177.25,"type":"noteOff","velocity":0},{"channel":0,"nextOffset":14160,"note":45,"tick":34056,"time":177.375,"type":"noteOn","velocity":68},{"channel":0,"nextOffset":14164,"note":61,"tick":34056,"time":177.375,"type":"noteOn","velocity":68},{"channel":0,"nextOffset":14168,"note":65,"tick":34056,"time":177.375,"type":"noteOn","velocity":68},{"channel":0,"nextOffset":14172,"note":67,"tick":34056,"time":177.375,"type":"noteOn","velocity":68},{"channel":0,"nextOffset":14176,"note":70,"tick":34056,"time":177.375,"type":"noteOn","velocity":68},{"channel":0,"nextOffset":14180,"note":45,"tick":34080,"time":177.5,"type":"noteOff","velocity":0},{"channel":0,"nextOffset":14184,"note":61,"tick":34104,"time":177.625,"type":"noteOff","velocity":0},{"channel":0,"nextOffset":14188,"note":65,"tick":34104,"time":177.625,"type":"noteOff","velocity":0},{"channel":0,"nextOffset":14192,"note":67,"tick":34104,"time":177.625,"type":"noteOff","velocity":0},{"channel":0,"nextOffset":14196,"note":70,"tick":34104,"time":177.625,"type":"noteOff","velocity":0},{"channel":0,"nextOffset":14200,"note":38,"tick":34128,"time":177.75,"type":"noteOn","velocity":68},{"channel":0,"nextOffset":14204,"note":60,"tick":34128,"time":177.75,"type":"noteOn","velocity":68},{"channel":0,"nextOffset":14208,"note":64,"tick":34128,"time":177.75,"type":"noteOn","velocity":68},{"channel":0,"nextOffset":14212,"note":65,"tick":34128,"time":177.75,"type":"noteOn","velocity":68},{"channel":0,"nextOffset":14216,"note":69,"tick":34128,"time":177.75,"type":"noteOn","velocity":68},{"channel":0,"nextOffset":14220,"note":38,"tick":34176,"time":178,"type":"noteOff","velocity":0},{"channel":0,"nextOffset":14224,"note":60,"tick":34176,"time":178,"type":"noteOff","velocity":0},{"channel":0,"nextOffset":14228,"note":64,"tick":34176,"time":178,"type":"noteOff","velocity":0},{"channel":0,"nextOffset":14232,"note":65,"tick":34176,"time":178,"type":"noteOff","velocity":0},{"channel":0,"nextOffset":14236,"note":69,"tick":34176,"time":178,"type":"noteOff","velocity":0},{"channel":0,"nextOffset":14240,"note":76,"tick":34176,"time":178,"type":"noteOn","velocity":68},{"channel":0,"nextOffset":14244,"note":76,"tick":34200,"time":178.125,"type":"noteOff","velocity":0},{"channel":0,"nextOffset":14248,"note":77,"tick":34200,"time":178.125,"type":"noteOn","velocity":68},{"channel":0,"nextOffset":14252,"note":76,"tick":34224,"time":178.25,"type":"noteOn","velocity":68},{"channel":0,"nextOffset":14256,"note":77,"tick":34224,"time":178.25,"type":"noteOff","velocity":0},{"channel":0,"nextOffset":14260,"note":72,"tick":34248,"time":178.375,"type":"noteOn","velocity":68},{"channel":0,"nextOffset":14264,"note":76,"tick":34248,"time":178.375,"type":"noteOff","velocity":0},{"channel":0,"nextOffset":14268,"note":72,"tick":34272,"time":178.5,"type":"noteOff","velocity":0},{"channel":0,"nextOffset":14272,"note":76,"tick":34272,"time":178.5,"type":"noteOn","velocity":68},{"channel":0,"nextOffset":14276,"note":72,"tick":34296,"time":178.625,"type":"noteOn","velocity":68},{"channel":0,"nextOffset":14280,"note":76,"tick":34296,"time":178.625,"type":"noteOff","velocity":0},{"channel":0,"nextOffset":14284,"note":45,"tick":34320,"time":178.75,"type":"noteOn","velocity":68},{"channel":0,"nextOffset":14288,"note":69,"tick":34320,"time":178.75,"type":"noteOn","velocity":68},{"channel":0,"nextOffset":14292,"note":72,"tick":34320,"time":178.75,"type":"noteOff","velocity":0},{"channel":0,"nextOffset":14296,"note":67,"tick":34344,"time":178.875,"type":"noteOn","velocity":68},{"channel":0,"nextOffset":14300,"note":69,"tick":34344,"time":178.875,"type":"noteOff","velocity":0},{"channel":0,"nextOffset":14304,"note":45,"tick":34368,"time":179,"type":"noteOff","velocity":0},{"channel":0,"nextOffset":14308,"note":50,"tick":34368,"time":179,"type":"noteOn","velocity":68},{"channel":0,"nextOffset":14312,"note":67,"tick":34368,"time":179,"type":"noteOff","velocity":0},{"channel":0,"nextOffset":14316,"note":69,"tick":34368,"time":179,"type":"noteOn","velocity":68},{"channel":0,"nextOffset":14320,"note":62,"tick":34392,"time":179.125,"type":"noteOn","velocity":68},{"channel":0,"nextOffset":14324,"note":69,"tick":34392,"time":179.125,"type":"noteOff","velocity":0},{"channel":0,"nextOffset":14328,"note":38,"tick":34416,"time":179.25,"type":"noteOn","velocity":68},{"channel":0,"nextOffset":14332,"note":50,"tick":34416,"time":179.25,"type":"noteOff","velocity":0},{"channel":0,"nextOffset":14336,"note":60,"tick":34416,"time":179.25,"type":"noteOn","velocity":68},{"channel":0,"nextOffset":14340,"note":62,"tick":34416,"time":179.25,"type":"noteOff","velocity":0},{"channel":0,"nextOffset":14344,"note":60,"tick":34440,"time":179.375,"type":"noteOff","velocity":0},{"channel":0,"nextOffset":14348,"note":65,"tick":34440,"time":179.375,"type":"noteOn","velocity":68},{"channel":0,"nextOffset":14352,"note":38,"tick":34464,"time":179.5,"type":"noteOff","velocity":0},{"channel":0,"nextOffset":14356,"note":45,"tick":34464,"time":179.5,"type":"noteOn","velocity":68},{"channel":0,"nextOffset":14360,"note":60,"tick":34464,"time":179.5,"type":"noteOn","velocity":68},{"channel":0,"nextOffset":14364,"note":64,"tick":34464,"time":179.5,"type":"noteOn","velocity":68},{"channel":0,"nextOffset":14368,"note":65,"tick":34464,"time":179.5,"type":"noteOff","velocity":0},{"channel":0,"nextOffset":14372,"note":69,"tick":34464,"time":179.5,"type":"noteOn","velocity":68},{"channel":0,"nextOffset":14376,"note":44,"tick":34512,"time":179.75,"type":"noteOn","velocity":68},{"channel":0,"nextOffset":14380,"note":45,"tick":34512,"time":179.75,"type":"noteOff","velocity":0},{"channel":0,"nextOffset":14384,"note":59,"tick":34512,"time":179.75,"type":"noteOn","velocity":68},{"channel":0,"nextOffset":14388,"note":60,"tick":34512,"time":179.75,"type":"noteOff","velocity":0},{"channel":0,"nextOffset":14392,"note":63,"tick":34512,"time":179.75,"type":"noteOn","velocity":68},{"channel":0,"nextOffset":14396,"note":64,"tick":34512,"time":179.75,"type":"noteOff","velocity":0},{"channel":0,"nextOffset":14400,"note":68,"tick":34512,"time":179.75,"type":"noteOn","velocity":68},{"channel":0,"nextOffset":14404,"note":69,"tick":34512,"time":179.75,"type":"noteOff","velocity":0},{"channel":0,"nextOffset":14408,"note":43,"tick":34560,"time":180,"type":"noteOn","velocity":68},{"channel":0,"nextOffset":14412,"note":44,"tick":34560,"time":180,"type":"noteOff","velocity":0},{"channel":0,"nextOffset":14416,"note":58,"tick":34560,"time":180,"type":"noteOn","velocity":68},{"channel":0,"nextOffset":14420,"note":59,"tick":34560,"time":180,"type":"noteOff","velocity":0},{"channel":0,"nextOffset":14424,"note":62,"tick":34560,"time":180,"type":"noteOn","velocity":68},{"channel":0,"nextOffset":14428,"note":63,"tick":34560,"time":180,"type":"noteOff","velocity":0},{"channel":0,"nextOffset":14432,"note":65,"tick":34560,"time":180,"type":"noteOn","velocity":68},{"channel":0,"nextOffset":14436,"note":68,"tick":34560,"time":180,"type":"noteOff","velocity":0},{"channel":0,"nextOffset":14440,"note":69,"tick":34560,"time":180,"type":"noteOn","velocity":68},{"channel":0,"nextOffset":14444,"note":43,"tick":34608,"time":180.25,"type":"noteOff","velocity":0},{"channel":0,"nextOffset":14448,"note":50,"tick":34608,"time":180.25,"type":"noteOn","velocity":68},{"channel":0,"nextOffset":14452,"note":43,"tick":34656,"time":180.5,"type":"noteOn","velocity":68},{"channel":0,"nextOffset":14456,"note":50,"tick":34656,"time":180.5,"type":"noteOff","velocity":0},{"channel":0,"nextOffset":14460,"note":58,"tick":34656,"time":180.5,"type":"noteOff","velocity":0},{"channel":0,"nextOffset":14464,"note":62,"tick":34656,"time":180.5,"type":"noteOff","velocity":0},{"channel":0,"nextOffset":14468,"note":65,"tick":34656,"time":180.5,"type":"noteOff","velocity":0},{"channel":0,"nextOffset":14472,"note":69,"tick":34656,"time":180.5,"type":"noteOff","velocity":0},{"channel":0,"nextOffset":14476,"note":43,"tick":34704,"time":180.75,"type":"noteOff","velocity":0},{"channel":0,"nextOffset":14480,"note":44,"tick":34704,"time":180.75,"type":"noteOn","velocity":68},{"channel":0,"nextOffset":14484,"note":65,"tick":34704,"time":180.75,"type":"noteOn","velocity":68},{"channel":0,"nextOffset":14488,"note":65,"tick":34728,"time":180.875,"type":"noteOff","velocity":0},{"channel":0,"nextOffset":14492,"note":69,"tick":34728,"time":180.875,"type":"noteOn","velocity":68},{"channel":0,"nextOffset":14496,"note":44,"tick":34752,"time":181,"type":"noteOff","velocity":0},{"channel":0,"nextOffset":14500,"note":45,"tick":34752,"time":181,"type":"noteOn","velocity":68},{"channel":0,"nextOffset":14504,"note":60,"tick":34752,"time":181,"type":"noteOn","velocity":68},{"channel":0,"nextOffset":14508,"note":64,"tick":34752,"time":181,"type":"noteOn","velocity":68},{"channel":0,"nextOffset":14512,"note":67,"tick":34752,"time":181,"type":"noteOn","velocity":68},{"channel":0,"nextOffset":14516,"note":69,"tick":34752,"time":181,"type":"noteOff","velocity":0},{"channel":0,"nextOffset":14520,"note":72,"tick":34752,"time":181,"type":"noteOn","velocity":68},{"channel":0,"nextOffset":14524,"note":45,"tick":34800,"time":181.25,"type":"noteOff","velocity":0},{"channel":0,"nextOffset":14528,"note":60,"tick":34800,"time":181.25,"type":"noteOff","velocity":0},{"channel":0,"nextOffset":14532,"note":64,"tick":34800,"time":181.25,"type":"noteOff","velocity":0},{"channel":0,"nextOffset":14536,"note":67,"tick":34800,"time":181.25,"type":"noteOff","velocity":0},{"channel":0,"nextOffset":14540,"note":72,"tick":34800,"time":181.25,"type":"noteOff","velocity":0},{"channel":0,"nextOffset":14544,"note":45,"tick":34824,"time":181.375,"type":"noteOn","velocity":68},{"channel":0,"nextOffset":14548,"note":61,"tick":34824,"time":181.375,"type":"noteOn","velocity":68},{"channel":0,"nextOffset":14552,"note":67,"tick":34824,"time":181.375,"type":"noteOn","velocity":68},{"channel":0,"nextOffset":14556,"note":72,"tick":34824,"time":181.375,"type":"noteOn","velocity":68},{"channel":0,"nextOffset":14560,"note":75,"tick":34824,"time":181.375,"type":"noteOn","velocity":68},{"channel":0,"nextOffset":14564,"note":45,"tick":34848,"time":181.5,"type":"noteOff","velocity":0},{"channel":0,"nextOffset":14568,"note":61,"tick":34872,"time":181.625,"type":"noteOff","velocity":0},{"channel":0,"nextOffset":14572,"note":67,"tick":34872,"time":181.625,"type":"noteOff","velocity":0},{"channel":0,"nextOffset":14576,"note":72,"tick":34872,"time":181.625,"type":"noteOff","velocity":0},{"channel":0,"nextOffset":14580,"note":75,"tick":34872,"time":181.625,"type":"noteOff","velocity":0},{"channel":0,"nextOffset":14584,"note":64,"tick":34896,"time":181.75,"type":"noteOn","velocity":68},{"channel":0,"nextOffset":14588,"note":65,"tick":34896,"time":181.75,"type":"noteOn","velocity":68},{"channel":0,"nextOffset":14592,"note":69,"tick":34896,"time":181.75,"type":"noteOn","velocity":68},{"channel":0,"nextOffset":14596,"note":74,"tick":34896,"time":181.75,"type":"noteOn","velocity":68},{"channel":0,"nextOffset":14600,"note":64,"tick":34944,"time":182,"type":"noteOff","velocity":0},{"channel":0,"nextOffset":14604,"note":65,"tick":34944,"time":182,"type":"noteOff","velocity":0},{"channel":0,"nextOffset":14608,"note":69,"tick":34944,"time":182,"type":"noteOff","velocity":0},{"channel":0,"nextOffset":14612,"note":74,"tick":34944,"time":182,"type":"noteOff","velocity":0},{"channel":0,"nextOffset":14616,"note":74,"tick":34944,"time":182,"type":"noteOn","velocity":68},{"channel":0,"nextOffset":14620,"note":74,"tick":34968,"time":182.125,"type":"noteOff","velocity":0},{"channel":0,"nextOffset":14624,"note":76,"tick":34968,"time":182.125,"type":"noteOn","velocity":68},{"channel":0,"nextOffset":14628,"note":38,"tick":34992,"time":182.25,"type":"noteOn","velocity":68},{"channel":0,"nextOffset":14632,"note":76,"tick":34992,"time":182.25,"type":"noteOff","velocity":0},{"channel":0,"nextOffset":14636,"note":77,"tick":34992,"time":182.25,"type":"noteOn","velocity":68},{"channel":0,"nextOffset":14640,"note":77,"tick":35016,"time":182.375,"type":"noteOff","velocity":0},{"channel":0,"nextOffset":14644,"note":79,"tick":35016,"time":182.375,"type":"noteOn","velocity":68},{"channel":0,"nextOffset":14648,"note":38,"tick":35040,"time":182.5,"type":"noteOff","velocity":0},{"channel":0,"nextOffset":14652,"note":74,"tick":35040,"time":182.5,"type":"noteOn","velocity":68},{"channel":0,"nextOffset":14656,"note":79,"tick":35040,"time":182.5,"type":"noteOff","velocity":0},{"channel":0,"nextOffset":14660,"note":74,"tick":35052,"time":182.5625,"type":"noteOff","velocity":0},{"channel":0,"nextOffset":14664,"note":76,"tick":35052,"time":182.5625,"type":"noteOn","velocity":68},{"channel":0,"nextOffset":14668,"note":50,"tick":35088,"time":182.75,"type":"noteOn","velocity":68},{"channel":0,"nextOffset":14672,"note":72,"tick":35088,"time":182.75,"type":"noteOn","velocity":68},{"channel":0,"nextOffset":14676,"note":76,"tick":35088,"time":182.75,"type":"noteOff","velocity":0},{"channel":0,"nextOffset":14680,"note":72,"tick":35112,"time":182.875,"type":"noteOff","velocity":0},{"channel":0,"nextOffset":14684,"note":74,"tick":35112,"time":182.875,"type":"noteOn","velocity":68},{"channel":0,"nextOffset":14688,"note":50,"tick":35136,"time":183,"type":"noteOff","velocity":0},{"channel":0,"nextOffset":14692,"note":74,"tick":35136,"time":183,"type":"noteOff","velocity":0},{"channel":0,"nextOffset":14696,"note":45,"tick":35184,"time":183.25,"type":"noteOn","velocity":68},{"channel":0,"nextOffset":14700,"note":45,"tick":35232,"time":183.5,"type":"noteOff","velocity":0},{"channel":0,"nextOffset":14704,"note":77,"tick":35232,"time":183.5,"type":"noteOn","velocity":68},{"channel":0,"nextOffset":14708,"note":81,"tick":35232,"time":183.5,"type":"noteOn","velocity":68},{"channel":0,"nextOffset":14712,"note":84,"tick":35232,"time":183.5,"type":"noteOn","velocity":68},{"channel":0,"nextOffset":14716,"note":88,"tick":35232,"time":183.5,"type":"noteOn","velocity":68},{"channel":0,"nextOffset":14720,"note":77,"tick":35328,"time":184,"type":"noteOff","velocity":0},{"channel":0,"nextOffset":14724,"note":81,"tick":35328,"time":184,"type":"noteOff","velocity":0},{"channel":0,"nextOffset":14728,"note":84,"tick":35328,"time":184,"type":"noteOff","velocity":0},{"channel":0,"nextOffset":14732,"note":88,"tick":35328,"time":184,"type":"noteOff","velocity":0}],"tempo":500000,"tempoMap":[{"tempo":500000,"time":0}],"ticksPerQuarter":96,"timeSignature":{"clocksPerClick":24,"denominator":4,"numerator":4,"thirtysecondNotesPerBeat":8},"trimmedTicks":27403},"notesRaw":[{"channel":0,"duration":0.1875,"durationBeats":0.5,"durationTicks":480,"endBeat":1,"endTick":960,"endTime":0.375,"note":50,"startBeat":0.5,"startTick":480,"startTime":0.1875,"velocity":68},{"channel":0,"duration":0.375,"durationBeats":1,"durationTicks":960,"endBeat":1,"endTick":960,"endTime":0.375,"note":58,"startBeat":0,"startTick":0,"startTime":0,"velocity":68},{"channel":0,"duration":0.375,"durationBeats":1,"durationTicks":960,"endBeat":1,"endTick":960,"endTime":0.375,"note":62,"startBeat":0,"startTick":0,"startTime":0,"velocity":68},{"channel":0,"duration":0.375,"durationBeats":1,"durationTicks":960,"endBeat":1,"endTick":960,"endTime":0.375,"note":65,"startBeat":0,"startTick":0,"startTime":0,"velocity":68},{"channel":0,"duration":0.375,"durationBeats":1,"durationTicks":960,"endBeat":1,"endTick":960,"endTime":0.375,"note":69,"startBeat":0,"startTick":0,"startTime":0,"velocity":68},{"channel":0,"duration":0.1875,"durationBeats":0.5,"durationTicks":480,"endBeat":1.5,"endTick":1440,"endTime":0.5625,"note":43,"startBeat":1,"startTick":960,"startTime":0.375,"velocity":68},{"channel":0,"duration":0.09375,"durationBeats":0.25,"durationTicks":240,"endBeat":1.75,"endTick":1680,"endTime":0.65625,"note":65,"startBeat":1.5,"startTick":1440,"startTime":0.5625,"velocity":68},{"channel":0,"duration":0.1875,"durationBeats":0.5,"durationTicks":480,"endBeat":2,"endTick":1920,"endTime":0.75,"note":44,"startBeat":1.5,"startTick":1440,"startTime":0.5625,"velocity":68},{"channel":0,"duration":0.09375,"durationBeats":0.25,"durationTicks":240,"endBeat":2,"endTick":1920,"endTime":0.75,"note":69,"startBeat":1.75,"startTick":1680,"startTime":0.65625,"velocity":68},{"channel":0,"duration":0.1875,"durationBeats":0.5,"durationTicks":480,"endBeat":2.5,"endTick":2400,"endTime":0.9375,"note":45,"startBeat":2,"startTick":1920,"startTime":0.75,"velocity":68},{"channel":0,"duration":0.1875,"durationBeats":0.5,"durationTicks":480,"endBeat":2.5,"endTick":2400,"endTime":0.9375,"note":60,"startBeat":2,"startTick":1920,"startTime":0.75,"velocity":68},{"channel":0,"duration":0.1875,"durationBeats":0.5,"durationTicks":480,"endBeat":2.5,"endTick":2400,"endTime":0.9375,"note":64,"startBeat":2,"startTick":1920,"startTime":0.75,"velocity":68},{"channel":0,"duration":0.1875,"durationBeats":0.5,"durationTicks":480,"endBeat":2.5,"endTick":2400,"endTime":0.9375,"note":67,"startBeat":2,"startTick":1920,"startTime":0.75,"velocity":68},{"channel":0,"duration":0.1875,"durationBeats":0.5,"durationTicks":480,"endBeat":2.5,"endTick":2400,"endTime":0.9375,"note":72,"startBeat":2,"startTick":1920,"startTime":0.75,"velocity":68},{"channel":0,"duration":0.09375,"durationBeats":0.25,"durationTicks":240,"endBeat":3,"endTick":2880,"endTime":1.125,"note":45,"startBeat":2.75,"startTick":2640,"startTime":1.03125,"velocity":68},{"channel":0,"duration":0.1875,"durationBeats":0.5,"durationTicks":480,"endBeat":3.25,"endTick":3120,"endTime":1.21875,"note":61,"startBeat":2.75,"startTick":2640,"startTime":1.03125,"velocity":68},{"channel":0,"duration":0.1875,"durationBeats":0.5,"durationTicks":480,"endBeat":3.25,"endTick":3120,"endTime":1.21875,"note":65,"startBeat":2.75,"startTick":2640,"startTime":1.03125,"velocity":68},{"channel":0,"duration":0.1875,"durationBeats":0.5,"durationTicks":480,"endBeat":3.25,"endTick":3120,"endTime":1.21875,"note":67,"startBeat":2.75,"startTick":2640,"startTime":1.03125,"velocity":68},{"channel":0,"duration":0.1875,"durationBeats":0.5,"durationTicks":480,"endBeat":3.25,"endTick":3120,"endTime":1.21875,"note":70,"startBeat":2.75,"startTick":2640,"startTime":1.03125,"velocity":68},{"channel":0,"duration":0.1875,"durationBeats":0.5,"durationTicks":480,"endBeat":4,"endTick":3840,"endTime":1.5,"note":38,"startBeat":3.5,"startTick":3360,"startTime":1.3125,"velocity":68},{"channel":0,"duration":0.1875,"durationBeats":0.5,"durationTicks":480,"endBeat":4,"endTick":3840,"endTime":1.5,"note":60,"startBeat":3.5,"startTick":3360,"startTime":1.3125,"velocity":68},{"channel":0,"duration":0.1875,"durationBeats":0.5,"durationTicks":480,"endBeat":4,"endTick":3840,"endTime":1.5,"note":64,"startBeat":3.5,"startTick":3360,"startTime":1.3125,"velocity":68},{"channel":0,"duration":0.1875,"durationBeats":0.5,"durationTicks":480,"endBeat":4,"endTick":3840,"endTime":1.5,"note":65,"startBeat":3.5,"startTick":3360,"startTime":1.3125,"velocity":68},{"channel":0,"duration":0.1875,"durationBeats":0.5,"durationTicks":480,"endBeat":4,"endTick":3840,"endTime":1.5,"note":69,"startBeat":3.5,"startTick":3360,"startTime":1.3125,"velocity":68},{"channel":0,"duration":0.09375,"durationBeats":0.25,"durationTicks":240,"endBeat":4.25,"endTick":4080,"endTime":1.59375,"note":76,"startBeat":4,"startTick":3840,"startTime":1.5,"velocity":68},{"channel":0,"duration":0.09375,"durationBeats":0.25,"durationTicks":240,"endBeat":4.5,"endTick":4320,"endTime":1.6875,"note":77,"startBeat":4.25,"startTick":4080,"startTime":1.59375,"velocity":68},{"channel":0,"duration":0.09375,"durationBeats":0.25,"durationTicks":240,"endBeat":4.75,"endTick":4560,"endTime":1.78125,"note":76,"startBeat":4.5,"startTick":4320,"startTime":1.6875,"velocity":68},{"channel":0,"duration":0.09375,"durationBeats":0.25,"durationTicks":240,"endBeat":5,"endTick":4800,"endTime":1.875,"note":72,"startBeat":4.75,"startTick":4560,"startTime":1.78125,"velocity":68},{"channel":0,"duration":0.09375,"durationBeats":0.25,"durationTicks":240,"endBeat":5.25,"endTick":5040,"endTime":1.96875,"note":76,"startBeat":5,"startTick":4800,"startTime":1.875,"velocity":68},{"channel":0,"duration":0.09375,"durationBeats":0.25,"durationTicks":240,"endBeat":5.5,"endTick":5280,"endTime":2.0625,"note":72,"startBeat":5.25,"startTick":5040,"startTime":1.96875,"velocity":68},{"channel":0,"duration":0.09375,"durationBeats":0.25,"durationTicks":240,"endBeat":5.75,"endTick":5520,"endTime":2.15625,"note":69,"startBeat":5.5,"startTick":5280,"startTime":2.0625,"velocity":68},{"channel":0,"duration":0.1875,"durationBeats":0.5,"durationTicks":480,"endBeat":6,"endTick":5760,"endTime":2.25,"note":45,"startBeat":5.5,"startTick":5280,"startTime":2.0625,"velocity":68},{"channel":0,"duration":0.09375,"durationBeats":0.25,"durationTicks":240,"endBeat":6,"endTick":5760,"endTime":2.25,"note":67,"startBeat":5.75,"startTick":5520,"startTime":2.15625,"velocity":68},{"channel":0,"duration":0.09375,"durationBeats":0.25,"durationTicks":240,"endBeat":6.25,"endTick":6000,"endTime":2.34375,"note":69,"startBeat":6,"startTick":5760,"startTime":2.25,"velocity":68},{"channel":0,"duration":0.1875,"durationBeats":0.5,"durationTicks":480,"endBeat":6.5,"endTick":6240,"endTime":2.4375,"note":50,"startBeat":6,"startTick":5760,"startTime":2.25,"velocity":68},{"channel":0,"duration":0.09375,"durationBeats":0.25,"durationTicks":240,"endBeat":6.5,"endTick":6240,"endTime":2.4375,"note":62,"startBeat":6.25,"startTick":6000,"startTime":2.34375,"velocity":68},{"channel":0,"duration":0.09375,"durationBeats":0.25,"durationTicks":240,"endBeat":6.75,"endTick":6480,"endTime":2.53125,"note":60,"startBeat":6.5,"startTick":6240,"startTime":2.4375,"velocity":68},{"channel":0,"duration":0.1875,"durationBeats":0.5,"durationTicks":480,"endBeat":7,"endTick":6720,"endTime":2.625,"note":38,"startBeat":6.5,"startTick":6240,"startTime":2.4375,"velocity":68},{"channel":0,"duration":0.09375,"durationBeats":0.25,"durationTicks":240,"endBeat":7,"endTick":6720,"endTime":2.625,"note":65,"startBeat":6.75,"startTick":6480,"startTime":2.53125,"velocity":68},{"channel":0,"duration":0.1875,"durationBeats":0.5,"durationTicks":480,"endBeat":7.5,"endTick":7200,"endTime":2.8125,"note":45,"startBeat":7,"startTick":6720,"startTime":2.625,"velocity":68},{"channel":0,"duration":0.1875,"durationBeats":0.5,"durationTicks":480,"endBeat":7.5,"endTick":7200,"endTime":2.8125,"note":60,"startBeat":7,"startTick":6720,"startTime":2.625,"velocity":68},{"channel":0,"duration":0.1875,"durationBeats":0.5,"durationTicks":480,"endBeat":7.5,"endTick":7200,"endTime":2.8125,"note":64,"startBeat":7,"startTick":6720,"startTime":2.625,"velocity":68},{"channel":0,"duration":0.1875,"durationBeats":0.5,"durationTicks":480,"endBeat":7.5,"endTick":7200,"endTime":2.8125,"note":69,"startBeat":7,"startTick":6720,"startTime":2.625,"velocity":68},{"channel":0,"duration":0.1875,"durationBeats":0.5,"durationTicks":480,"endBeat":8,"endTick":7680,"endTime":3,"note":44,"startBeat":7.5,"startTick":7200,"startTime":2.8125,"velocity":68},{"channel":0,"duration":0.1875,"durationBeats":0.5,"durationTicks":480,"endBeat":8,"endTick":7680,"endTime":3,"note":59,"startBeat":7.5,"startTick":7200,"startTime":2.8125,"velocity":68},{"channel":0,"duration":0.1875,"durationBeats":0.5,"durationTicks":480,"endBeat":8,"endTick":7680,"endTime":3,"note":63,"startBeat":7.5,"startTick":7200,"startTime":2.8125,"velocity":68},{"channel":0,"duration":0.1875,"durationBeats":0.5,"durationTicks":480,"endBeat":8,"endTick":7680,"endTime":3,"note":68,"startBeat":7.5,"startTick":7200,"startTime":2.8125,"velocity":68},{"channel":0,"duration":0.1875,"durationBeats":0.5,"durationTicks":480,"endBeat":8.5,"endTick":8160,"endTime":3.1875,"note":43,"startBeat":8,"startTick":7680,"startTime":3,"velocity":68},{"channel":0,"duration":0.1875,"durationBeats":0.5,"durationTicks":480,"endBeat":9,"endTick":8640,"endTime":3.375,"note":50,"startBeat":8.5,"startTick":8160,"startTime":3.1875,"velocity":68},{"channel":0,"duration":0.375,"durationBeats":1,"durationTicks":960,"endBeat":9,"endTick":8640,"endTime":3.375,"note":58,"startBeat":8,"startTick":7680,"startTime":3,"velocity":68},{"channel":0,"duration":0.375,"durationBeats":1,"durationTicks":960,"endBeat":9,"endTick":8640,"endTime":3.375,"note":62,"startBeat":8,"startTick":7680,"startTime":3,"velocity":68},{"channel":0,"duration":0.375,"durationBeats":1,"durationTicks":960,"endBeat":9,"endTick":8640,"endTime":3.375,"note":65,"startBeat":8,"startTick":7680,"startTime":3,"velocity":68},{"channel":0,"duration":0.375,"durationBeats":1,"durationTicks":960,"endBeat":9,"endTick":8640,"endTime":3.375,"note":69,"startBeat":8,"startTick":7680,"startTime":3,"velocity":68},{"channel":0,"duration":0.1875,"durationBeats":0.5,"durationTicks":480,"endBeat":9.5,"endTick":9120,"endTime":3.5625,"note":43,"startBeat":9,"startTick":8640,"startTime":3.375,"velocity":68},{"channel":0,"duration":0.09375,"durationBeats":0.25,"durationTicks":240,"endBeat":9.75,"endTick":9360,"endTime":3.65625,"note":65,"startBeat":9.5,"startTick":9120,"startTime":3.5625,"velocity":68},{"channel":0,"duration":0.1875,"durationBeats":0.5,"durationTicks":480,"endBeat":10,"endTick":9600,"endTime":3.75,"note":44,"startBeat":9.5,"startTick":9120,"startTime":3.5625,"velocity":68},{"channel":0,"duration":0.09375,"durationBeats":0.25,"durationTicks":240,"endBeat":10,"endTick":9600,"endTime":3.75,"note":69,"startBeat":9.75,"startTick":9360,"startTime":3.65625,"velocity":68},{"channel":0,"duration":0.1875,"durationBeats":0.5,"durationTicks":480,"endBeat":10.5,"endTick":10080,"endTime":3.9375,"note":45,"startBeat":10,"startTick":9600,"startTime":3.75,"velocity":68},{"channel":0,"duration":0.1875,"durationBeats":0.5,"durationTicks":480,"endBeat":10.5,"endTick":10080,"endTime":3.9375,"note":60,"startBeat":10,"startTick":9600,"startTime":3.75,"velocity":68},{"channel":0,"duration":0.1875,"durationBeats":0.5,"durationTicks":480,"endBeat":10.5,"endTick":10080,"endTime":3.9375,"note":64,"startBeat":10,"startTick":9600,"startTime":3.75,"velocity":68},{"channel":0,"duration":0.1875,"durationBeats":0.5,"durationTicks":480,"endBeat":10.5,"endTick":10080,"endTime":3.9375,"note":67,"startBeat":10,"startTick":9600,"startTime":3.75,"velocity":68},{"channel":0,"duration":0.1875,"durationBeats":0.5,"durationTicks":480,"endBeat":10.5,"endTick":10080,"endTime":3.9375,"note":72,"startBeat":10,"startTick":9600,"startTime":3.75,"velocity":68},{"channel":0,"duration":0.09375,"durationBeats":0.25,"durationTicks":240,"endBeat":11,"endTick":10560,"endTime":4.125,"note":45,"startBeat":10.75,"startTick":10320,"startTime":4.03125,"velocity":68},{"channel":0,"duration":0.1875,"durationBeats":0.5,"durationTicks":480,"endBeat":11.25,"endTick":10800,"endTime":4.21875,"note":61,"startBeat":10.75,"startTick":10320,"startTime":4.03125,"velocity":68},{"channel":0,"duration":0.1875,"durationBeats":0.5,"durationTicks":480,"endBeat":11.25,"endTick":10800,"endTime":4.21875,"note":65,"startBeat":10.75,"startTick":10320,"startTime":4.03125,"velocity":68},{"channel":0,"duration":0.1875,"durationBeats":0.5,"durationTicks":480,"endBeat":11.25,"endTick":10800,"endTime":4.21875,"note":67,"startBeat":10.75,"startTick":10320,"startTime":4.03125,"velocity":68},{"channel":0,"duration":0.1875,"durationBeats":0.5,"durationTicks":480,"endBeat":11.25,"endTick":10800,"endTime":4.21875,"note":70,"startBeat":10.75,"startTick":10320,"startTime":4.03125,"velocity":68},{"channel":0,"duration":0.1875,"durationBeats":0.5,"durationTicks":480,"endBeat":12,"endTick":11520,"endTime":4.5,"note":38,"startBeat":11.5,"startTick":11040,"startTime":4.3125,"velocity":68},{"channel":0,"duration":0.1875,"durationBeats":0.5,"durationTicks":480,"endBeat":12,"endTick":11520,"endTime":4.5,"note":60,"startBeat":11.5,"startTick":11040,"startTime":4.3125,"velocity":68},{"channel":0,"duration":0.1875,"durationBeats":0.5,"durationTicks":480,"endBeat":12,"endTick":11520,"endTime":4.5,"note":64,"startBeat":11.5,"startTick":11040,"startTime":4.3125,"velocity":68},{"channel":0,"duration":0.1875,"durationBeats":0.5,"durationTicks":480,"endBeat":12,"endTick":11520,"endTime":4.5,"note":65,"startBeat":11.5,"startTick":11040,"startTime":4.3125,"velocity":68},{"channel":0,"duration":0.1875,"durationBeats":0.5,"durationTicks":480,"endBeat":12,"endTick":11520,"endTime":4.5,"note":69,"startBeat":11.5,"startTick":11040,"startTime":4.3125,"velocity":68},{"channel":0,"duration":0.09375,"durationBeats":0.25,"durationTicks":240,"endBeat":12.25,"endTick":11760,"endTime":4.59375,"note":76,"startBeat":12,"startTick":11520,"startTime":4.5,"velocity":68},{"channel":0,"duration":0.09375,"durationBeats":0.25,"durationTicks":240,"endBeat":12.5,"endTick":12000,"endTime":4.6875,"note":77,"startBeat":12.25,"startTick":11760,"startTime":4.59375,"velocity":68},{"channel":0,"duration":0.09375,"durationBeats":0.25,"durationTicks":240,"endBeat":12.75,"endTick":12240,"endTime":4.78125,"note":79,"startBeat":12.5,"startTick":12000,"startTime":4.6875,"velocity":68},{"channel":0,"duration":0.09375,"durationBeats":0.25,"durationTicks":240,"endBeat":13,"endTick":12480,"endTime":4.875,"note":77,"startBeat":12.75,"startTick":12240,"startTime":4.78125,"velocity":68},{"channel":0,"duration":0.09375,"durationBeats":0.25,"durationTicks":240,"endBeat":13.25,"endTick":12720,"endTime":4.96875,"note":76,"startBeat":13,"startTick":12480,"startTime":4.875,"velocity":68},{"channel":0,"duration":0.09375,"durationBeats":0.25,"durationTicks":240,"endBeat":13.5,"endTick":12960,"endTime":5.0625,"note":72,"startBeat":13.25,"startTick":12720,"startTime":4.96875,"velocity":68},{"channel":0,"duration":0.09375,"durationBeats":0.25,"durationTicks":240,"endBeat":13.75,"endTick":13200,"endTime":5.15625,"note":69,"startBeat":13.5,"startTick":12960,"startTime":5.0625,"velocity":68},{"channel":0,"duration":0.1875,"durationBeats":0.5,"durationTicks":480,"endBeat":14,"endTick":13440,"endTime":5.25,"note":45,"startBeat":13.5,"startTick":12960,"startTime":5.0625,"velocity":68},{"channel":0,"duration":0.09375,"durationBeats":0.25,"durationTicks":240,"endBeat":14,"endTick":13440,"endTime":5.25,"note":67,"startBeat":13.75,"startTick":13200,"startTime":5.15625,"velocity":68},{"channel":0,"duration":0.09375,"durationBeats":0.25,"durationTicks":240,"endBeat":14.25,"endTick":13680,"endTime":5.34375,"note":69,"startBeat":14,"startTick":13440,"startTime":5.25,"velocity":68},{"channel":0,"duration":0.1875,"durationBeats":0.5,"durationTicks":480,"endBeat":14.5,"endTick":13920,"endTime":5.4375,"note":50,"startBeat":14,"startTick":13440,"startTime":5.25,"velocity":68},{"channel":0,"duration":0.09375,"durationBeats":0.25,"durationTicks":240,"endBeat":14.5,"endTick":13920,"endTime":5.4375,"note":62,"startBeat":14.25,"startTick":13680,"startTime":5.34375,"velocity":68},{"channel":0,"duration":0.09375,"durationBeats":0.25,"durationTicks":240,"endBeat":14.75,"endTick":14160,"endTime":5.53125,"note":60,"startBeat":14.5,"startTick":13920,"startTime":5.4375,"velocity":68},{"channel":0,"duration":0.1875,"durationBeats":0.5,"durationTicks":480,"endBeat":15,"endTick":14400,"endTime":5.625,"note":38,"startBeat":14.5,"startTick":13920,"startTime":5.4375,"velocity":68},{"channel":0,"duration":0.09375,"durationBeats":0.25,"durationTicks":240,"endBeat":15,"endTick":14400,"endTime":5.625,"note":65,"startBeat":14.75,"startTick":14160,"startTime":5.53125,"velocity":68},{"channel":0,"duration":0.1875,"durationBeats":0.5,"durationTicks":480,"endBeat":15.5,"endTick":14880,"endTime":5.8125,"note":45,"startBeat":15,"startTick":14400,"startTime":5.625,"velocity":68},{"channel":0,"duration":0.1875,"durationBeats":0.5,"durationTicks":480,"endBeat":15.5,"endTick":14880,"endTime":5.8125,"note":60,"startBeat":15,"startTick":14400,"startTime":5.625,"velocity":68},{"channel":0,"duration":0.1875,"durationBeats":0.5,"durationTicks":480,"endBeat":15.5,"endTick":14880,"endTime":5.8125,"note":64,"startBeat":15,"startTick":14400,"startTime":5.625,"velocity":68},{"channel":0,"duration":0.1875,"durationBeats":0.5,"durationTicks":480,"endBeat":15.5,"endTick":14880,"endTime":5.8125,"note":69,"startBeat":15,"startTick":14400,"startTime":5.625,"velocity":68},{"channel":0,"duration":0.1875,"durationBeats":0.5,"durationTicks":480,"endBeat":16,"endTick":15360,"endTime":6,"note":44,"startBeat":15.5,"startTick":14880,"startTime":5.8125,"velocity":68},{"channel":0,"duration":0.1875,"durationBeats":0.5,"durationTicks":480,"endBeat":16,"endTick":15360,"endTime":6,"note":59,"startBeat":15.5,"startTick":14880,"startTime":5.8125,"velocity":68},{"channel":0,"duration":0.1875,"durationBeats":0.5,"durationTicks":480,"endBeat":16,"endTick":15360,"endTime":6,"note":63,"startBeat":15.5,"startTick":14880,"startTime":5.8125,"velocity":68},{"channel":0,"duration":0.1875,"durationBeats":0.5,"durationTicks":480,"endBeat":16,"endTick":15360,"endTime":6,"note":68,"startBeat":15.5,"startTick":14880,"startTime":5.8125,"velocity":68},{"channel":0,"duration":0.1875,"durationBeats":0.5,"durationTicks":480,"endBeat":16.5,"endTick":15840,"endTime":6.1875,"note":43,"startBeat":16,"startTick":15360,"startTime":6,"velocity":68},{"channel":0,"duration":0.1875,"durationBeats":0.5,"durationTicks":480,"endBeat":17,"endTick":16320,"endTime":6.375,"note":50,"startBeat":16.5,"startTick":15840,"startTime":6.1875,"velocity":68},{"channel":0,"duration":0.375,"durationBeats":1,"durationTicks":960,"endBeat":17,"endTick":16320,"endTime":6.375,"note":58,"startBeat":16,"startTick":15360,"startTime":6,"velocity":68},{"channel":0,"duration":0.375,"durationBeats":1,"durationTicks":960,"endBeat":17,"endTick":16320,"endTime":6.375,"note":62,"startBeat":16,"startTick":15360,"startTime":6,"velocity":68},{"channel":0,"duration":0.375,"durationBeats":1,"durationTicks":960,"endBeat":17,"endTick":16320,"endTime":6.375,"note":65,"startBeat":16,"startTick":15360,"startTime":6,"velocity":68},{"channel":0,"duration":0.375,"durationBeats":1,"durationTicks":960,"endBeat":17,"endTick":16320,"endTime":6.375,"note":69,"startBeat":16,"startTick":15360,"startTime":6,"velocity":68},{"channel":0,"duration":0.1875,"durationBeats":0.5,"durationTicks":480,"endBeat":17.5,"endTick":16800,"endTime":6.5625,"note":43,"startBeat":17,"startTick":16320,"startTime":6.375,"velocity":68},{"channel":0,"duration":0.09375,"durationBeats":0.25,"durationTicks":240,"endBeat":17.75,"endTick":17040,"endTime":6.65625,"note":65,"startBeat":17.5,"startTick":16800,"startTime":6.5625,"velocity":68},{"channel":0,"duration":0.1875,"durationBeats":0.5,"durationTicks":480,"endBeat":18,"endTick":17280,"endTime":6.75,"note":44,"startBeat":17.5,"startTick":16800,"startTime":6.5625,"velocity":68},{"channel":0,"duration":0.09375,"durationBeats":0.25,"durationTicks":240,"endBeat":18,"endTick":17280,"endTime":6.75,"note":69,"startBeat":17.75,"startTick":17040,"startTime":6.65625,"velocity":68},{"channel":0,"duration":0.1875,"durationBeats":0.5,"durationTicks":480,"endBeat":18.5,"endTick":17760,"endTime":6.9375,"note":45,"startBeat":18,"startTick":17280,"startTime":6.75,"velocity":68},{"channel":0,"duration":0.1875,"durationBeats":0.5,"durationTicks":480,"endBeat":18.5,"endTick":17760,"endTime":6.9375,"note":60,"startBeat":18,"startTick":17280,"startTime":6.75,"velocity":68},{"channel":0,"duration":0.1875,"durationBeats":0.5,"durationTicks":480,"endBeat":18.5,"endTick":17760,"endTime":6.9375,"note":64,"startBeat":18,"startTick":17280,"startTime":6.75,"velocity":68},{"channel":0,"duration":0.1875,"durationBeats":0.5,"durationTicks":480,"endBeat":18.5,"endTick":17760,"endTime":6.9375,"note":67,"startBeat":18,"startTick":17280,"startTime":6.75,"velocity":68},{"channel":0,"duration":0.1875,"durationBeats":0.5,"durationTicks":480,"endBeat":18.5,"endTick":17760,"endTime":6.9375,"note":72,"startBeat":18,"startTick":17280,"startTime":6.75,"velocity":68},{"channel":0,"duration":0.09375,"durationBeats":0.25,"durationTicks":240,"endBeat":19,"endTick":18240,"endTime":7.125,"note":45,"startBeat":18.75,"startTick":18000,"startTime":7.03125,"velocity":68},{"channel":0,"duration":0.1875,"durationBeats":0.5,"durationTicks":480,"endBeat":19.25,"endTick":18480,"endTime":7.21875,"note":61,"startBeat":18.75,"startTick":18000,"startTime":7.03125,"velocity":68},{"channel":0,"duration":0.1875,"durationBeats":0.5,"durationTicks":480,"endBeat":19.25,"endTick":18480,"endTime":7.21875,"note":65,"startBeat":18.75,"startTick":18000,"startTime":7.03125,"velocity":68},{"channel":0,"duration":0.1875,"durationBeats":0.5,"durationTicks":480,"endBeat":19.25,"endTick":18480,"endTime":7.21875,"note":67,"startBeat":18.75,"startTick":18000,"startTime":7.03125,"velocity":68},{"channel":0,"duration":0.1875,"durationBeats":0.5,"durationTicks":480,"endBeat":19.25,"endTick":18480,"endTime":7.21875,"note":70,"startBeat":18.75,"startTick":18000,"startTime":7.03125,"velocity":68},{"channel":0,"duration":0.1875,"durationBeats":0.5,"durationTicks":480,"endBeat":20,"endTick":19200,"endTime":7.5,"note":38,"startBeat":19.5,"startTick":18720,"startTime":7.3125,"velocity":68},{"channel":0,"duration":0.1875,"durationBeats":0.5,"durationTicks":480,"endBeat":20,"endTick":19200,"endTime":7.5,"note":60,"startBeat":19.5,"startTick":18720,"startTime":7.3125,"velocity":68},{"channel":0,"duration":0.1875,"durationBeats":0.5,"durationTicks":480,"endBeat":20,"endTick":19200,"endTime":7.5,"note":64,"startBeat":19.5,"startTick":18720,"startTime":7.3125,"velocity":68},{"channel":0,"duration":0.1875,"durationBeats":0.5,"durationTicks":480,"endBeat":20,"endTick":19200,"endTime":7.5,"note":65,"startBeat":19.5,"startTick":18720,"startTime":7.3125,"velocity":68},{"channel":0,"duration":0.1875,"durationBeats":0.5,"durationTicks":480,"endBeat":20,"endTick":19200,"endTime":7.5,"note":69,"startBeat":19.5,"startTick":18720,"startTime":7.3125,"velocity":68},{"channel":0,"duration":0.09375,"durationBeats":0.25,"durationTicks":240,"endBeat":20.25,"endTick":19440,"endTime":7.59375,"note":76,"startBeat":20,"startTick":19200,"startTime":7.5,"velocity":68},{"channel":0,"duration":0.09375,"durationBeats":0.25,"durationTicks":240,"endBeat":20.5,"endTick":19680,"endTime":7.6875,"note":77,"startBeat":20.25,"startTick":19440,"startTime":7.59375,"velocity":68},{"channel":0,"duration":0.09375,"durationBeats":0.25,"durationTicks":240,"endBeat":20.75,"endTick":19920,"endTime":7.78125,"note":76,"startBeat":20.5,"startTick":19680,"startTime":7.6875,"velocity":68},{"channel":0,"duration":0.09375,"durationBeats":0.25,"durationTicks":240,"endBeat":21,"endTick":20160,"endTime":7.875,"note":72,"startBeat":20.75,"startTick":19920,"startTime":7.78125,"velocity":68},{"channel":0,"duration":0.09375,"durationBeats":0.25,"durationTicks":240,"endBeat":21.25,"endTick":20400,"endTime":7.96875,"note":76,"startBeat":21,"startTick":20160,"startTime":7.875,"velocity":68},{"channel":0,"duration":0.1875,"durationBeats":0.5,"durationTicks":480,"endBeat":21.5,"endTick":20640,"endTime":8.0625,"note":38,"startBeat":21,"startTick":20160,"startTime":7.875,"velocity":68},{"channel":0,"duration":0.09375,"durationBeats":0.25,"durationTicks":240,"endBeat":21.5,"endTick":20640,"endTime":8.0625,"note":72,"startBeat":21.25,"startTick":20400,"startTime":7.96875,"velocity":68},{"channel":0,"duration":0.09375,"durationBeats":0.25,"durationTicks":240,"endBeat":21.75,"endTick":20880,"endTime":8.15625,"note":69,"startBeat":21.5,"startTick":20640,"startTime":8.0625,"velocity":68},{"channel":0,"duration":0.1875,"durationBeats":0.5,"durationTicks":480,"endBeat":22,"endTick":21120,"endTime":8.25,"note":45,"startBeat":21.5,"startTick":20640,"startTime":8.0625,"velocity":68},{"channel":0,"duration":0.09375,"durationBeats":0.25,"durationTicks":240,"endBeat":22,"endTick":21120,"endTime":8.25,"note":67,"startBeat":21.75,"startTick":20880,"startTime":8.15625,"velocity":68},{"channel":0,"duration":0.09375,"durationBeats":0.25,"durationTicks":240,"endBeat":22.25,"endTick":21360,"endTime":8.34375,"note":69,"startBeat":22,"startTick":21120,"startTime":8.25,"velocity":68},{"channel":0,"duration":0.1875,"durationBeats":0.5,"durationTicks":480,"endBeat":22.5,"endTick":21600,"endTime":8.4375,"note":50,"startBeat":22,"startTick":21120,"startTime":8.25,"velocity":68},{"channel":0,"duration":0.09375,"durationBeats":0.25,"durationTicks":240,"endBeat":22.5,"endTick":21600,"endTime":8.4375,"note":62,"startBeat":22.25,"startTick":21360,"startTime":8.34375,"velocity":68},{"channel":0,"duration":0.09375,"durationBeats":0.25,"durationTicks":240,"endBeat":22.75,"endTick":21840,"endTime":8.53125,"note":60,"startBeat":22.5,"startTick":21600,"startTime":8.4375,"velocity":68},{"channel":0,"duration":0.1875,"durationBeats":0.5,"durationTicks":480,"endBeat":23,"endTick":22080,"endTime":8.625,"note":38,"startBeat":22.5,"startTick":21600,"startTime":8.4375,"velocity":68},{"channel":0,"duration":0.09375,"durationBeats":0.25,"durationTicks":240,"endBeat":23,"endTick":22080,"endTime":8.625,"note":65,"startBeat":22.75,"startTick":21840,"startTime":8.53125,"velocity":68},{"channel":0,"duration":0.1875,"durationBeats":0.5,"durationTicks":480,"endBeat":23.5,"endTick":22560,"endTime":8.8125,"note":45,"startBeat":23,"startTick":22080,"startTime":8.625,"velocity":68},{"channel":0,"duration":0.1875,"durationBeats":0.5,"durationTicks":480,"endBeat":23.5,"endTick":22560,"endTime":8.8125,"note":60,"startBeat":23,"startTick":22080,"startTime":8.625,"velocity":68},{"channel":0,"duration":0.1875,"durationBeats":0.5,"durationTicks":480,"endBeat":23.5,"endTick":22560,"endTime":8.8125,"note":64,"startBeat":23,"startTick":22080,"startTime":8.625,"velocity":68},{"channel":0,"duration":0.1875,"durationBeats":0.5,"durationTicks":480,"endBeat":23.5,"endTick":22560,"endTime":8.8125,"note":69,"startBeat":23,"startTick":22080,"startTime":8.625,"velocity":68},{"channel":0,"duration":0.1875,"durationBeats":0.5,"durationTicks":480,"endBeat":24,"endTick":23040,"endTime":9,"note":44,"startBeat":23.5,"startTick":22560,"startTime":8.8125,"velocity":68},{"channel":0,"duration":0.1875,"durationBeats":0.5,"durationTicks":480,"endBeat":24,"endTick":23040,"endTime":9,"note":59,"startBeat":23.5,"startTick":22560,"startTime":8.8125,"velocity":68},{"channel":0,"duration":0.1875,"durationBeats":0.5,"durationTicks":480,"endBeat":24,"endTick":23040,"endTime":9,"note":63,"startBeat":23.5,"startTick":22560,"startTime":8.8125,"velocity":68},{"channel":0,"duration":0.1875,"durationBeats":0.5,"durationTicks":480,"endBeat":24,"endTick":23040,"endTime":9,"note":68,"startBeat":23.5,"startTick":22560,"startTime":8.8125,"velocity":68},{"channel":0,"duration":0.1875,"durationBeats":0.5,"durationTicks":480,"endBeat":24.5,"endTick":23520,"endTime":9.1875,"note":43,"startBeat":24,"startTick":23040,"startTime":9,"velocity":68},{"channel":0,"duration":0.375,"durationBeats":1,"durationTicks":960,"endBeat":25,"endTick":24000,"endTime":9.375,"note":58,"startBeat":24,"startTick":23040,"startTime":9,"velocity":68},{"channel":0,"duration":0.375,"durationBeats":1,"durationTicks":960,"endBeat":25,"endTick":24000,"endTime":9.375,"note":62,"startBeat":24,"startTick":23040,"startTime":9,"velocity":68},{"channel":0,"duration":0.375,"durationBeats":1,"durationTicks":960,"endBeat":25,"endTick":24000,"endTime":9.375,"note":65,"startBeat":24,"startTick":23040,"startTime":9,"velocity":68},{"channel":0,"duration":0.375,"durationBeats":1,"durationTicks":960,"endBeat":25,"endTick":24000,"endTime":9.375,"note":69,"startBeat":24,"startTick":23040,"startTime":9,"velocity":68},{"channel":0,"duration":0.1875,"durationBeats":0.5,"durationTicks":480,"endBeat":25.5,"endTick":24480,"endTime":9.5625,"note":43,"startBeat":25,"startTick":24000,"startTime":9.375,"velocity":68},{"channel":0,"duration":0.09375,"durationBeats":0.25,"durationTicks":240,"endBeat":25.75,"endTick":24720,"endTime":9.65625,"note":65,"startBeat":25.5,"startTick":24480,"startTime":9.5625,"velocity":68},{"channel":0,"duration":0.1875,"durationBeats":0.5,"durationTicks":480,"endBeat":26,"endTick":24960,"endTime":9.75,"note":44,"startBeat":25.5,"startTick":24480,"startTime":9.5625,"velocity":68},{"channel":0,"duration":0.09375,"durationBeats":0.25,"durationTicks":240,"endBeat":26,"endTick":24960,"endTime":9.75,"note":69,"startBeat":25.75,"startTick":24720,"startTime":9.65625,"velocity":68},{"channel":0,"duration":0.1875,"durationBeats":0.5,"durationTicks":480,"endBeat":26.5,"endTick":25440,"endTime":9.9375,"note":45,"startBeat":26,"startTick":24960,"startTime":9.75,"velocity":68},{"channel":0,"duration":0.1875,"durationBeats":0.5,"durationTicks":480,"endBeat":26.5,"endTick":25440,"endTime":9.9375,"note":60,"startBeat":26,"startTick":24960,"startTime":9.75,"velocity":68},{"channel":0,"duration":0.1875,"durationBeats":0.5,"durationTicks":480,"endBeat":26.5,"endTick":25440,"endTime":9.9375,"note":64,"startBeat":26,"startTick":24960,"startTime":9.75,"velocity":68},{"channel":0,"duration":0.1875,"durationBeats":0.5,"durationTicks":480,"endBeat":26.5,"endTick":25440,"endTime":9.9375,"note":67,"startBeat":26,"startTick":24960,"startTime":9.75,"velocity":68},{"channel":0,"duration":0.1875,"durationBeats":0.5,"durationTicks":480,"endBeat":26.5,"endTick":25440,"endTime":9.9375,"note":72,"startBeat":26,"startTick":24960,"startTime":9.75,"velocity":68},{"channel":0,"duration":0.09375,"durationBeats":0.25,"durationTicks":240,"endBeat":27,"endTick":25920,"endTime":10.125,"note":45,"startBeat":26.75,"startTick":25680,"startTime":10.03125,"velocity":68},{"channel":0,"duration":0.1875,"durationBeats":0.5,"durationTicks":480,"endBeat":27.25,"endTick":26160,"endTime":10.21875,"note":61,"startBeat":26.75,"startTick":25680,"startTime":10.03125,"velocity":68},{"channel":0,"duration":0.1875,"durationBeats":0.5,"durationTicks":480,"endBeat":27.25,"endTick":26160,"endTime":10.21875,"note":65,"startBeat":26.75,"startTick":25680,"startTime":10.03125,"velocity":68},{"channel":0,"duration":0.1875,"durationBeats":0.5,"durationTicks":480,"endBeat":27.25,"endTick":26160,"endTime":10.21875,"note":67,"startBeat":26.75,"startTick":25680,"startTime":10.03125,"velocity":68},{"channel":0,"duration":0.1875,"durationBeats":0.5,"durationTicks":480,"endBeat":27.25,"endTick":26160,"endTime":10.21875,"note":70,"startBeat":26.75,"startTick":25680,"startTime":10.03125,"velocity":68},{"channel":0,"duration":0.1875,"durationBeats":0.5,"durationTicks":480,"endBeat":28,"endTick":26880,"endTime":10.5,"note":38,"startBeat":27.5,"startTick":26400,"startTime":10.3125,"velocity":68},{"channel":0,"duration":0.1875,"durationBeats":0.5,"durationTicks":480,"endBeat":28,"endTick":26880,"endTime":10.5,"note":60,"startBeat":27.5,"startTick":26400,"startTime":10.3125,"velocity":68},{"channel":0,"duration":0.1875,"durationBeats":0.5,"durationTicks":480,"endBeat":28,"endTick":26880,"endTime":10.5,"note":64,"startBeat":27.5,"startTick":26400,"startTime":10.3125,"velocity":68},{"channel":0,"duration":0.1875,"durationBeats":0.5,"durationTicks":480,"endBeat":28,"endTick":26880,"endTime":10.5,"note":65,"startBeat":27.5,"startTick":26400,"startTime":10.3125,"velocity":68},{"channel":0,"duration":0.1875,"durationBeats":0.5,"durationTicks":480,"endBeat":28,"endTick":26880,"endTime":10.5,"note":69,"startBeat":27.5,"startTick":26400,"startTime":10.3125,"velocity":68},{"channel":0,"duration":0.09375,"durationBeats":0.25,"durationTicks":240,"endBeat":28.25,"endTick":27120,"endTime":10.59375,"note":76,"startBeat":28,"startTick":26880,"startTime":10.5,"velocity":68},{"channel":0,"duration":0.1875,"durationBeats":0.5,"durationTicks":480,"endBeat":28.5,"endTick":27360,"endTime":10.6875,"note":50,"startBeat":28,"startTick":26880,"startTime":10.5,"velocity":68},{"channel":0,"duration":0.09375,"durationBeats":0.25,"durationTicks":240,"endBeat":28.5,"endTick":27360,"endTime":10.6875,"note":77,"startBeat":28.25,"startTick":27120,"startTime":10.59375,"velocity":68},{"channel":0,"duration":0.09375,"durationBeats":0.25,"durationTicks":240,"endBeat":28.75,"endTick":27600,"endTime":10.78125,"note":79,"startBeat":28.5,"startTick":27360,"startTime":10.6875,"velocity":68},{"channel":0,"duration":0.1875,"durationBeats":0.5,"durationTicks":480,"endBeat":29,"endTick":27840,"endTime":10.875,"note":38,"startBeat":28.5,"startTick":27360,"startTime":10.6875,"velocity":68},{"channel":0,"duration":0.09375,"durationBeats":0.25,"durationTicks":240,"endBeat":29,"endTick":27840,"endTime":10.875,"note":77,"startBeat":28.75,"startTick":27600,"startTime":10.78125,"velocity":68},{"channel":0,"duration":0.09375,"durationBeats":0.25,"durationTicks":240,"endBeat":29.25,"endTick":28080,"endTime":10.96875,"note":76,"startBeat":29,"startTick":27840,"startTime":10.875,"velocity":68},{"channel":0,"duration":0.1875,"durationBeats":0.5,"durationTicks":480,"endBeat":29.5,"endTick":28320,"endTime":11.0625,"note":45,"startBeat":29,"startTick":27840,"startTime":10.875,"velocity":68},{"channel":0,"duration":0.09375,"durationBeats":0.25,"durationTicks":240,"endBeat":29.5,"endTick":28320,"endTime":11.0625,"note":72,"startBeat":29.25,"startTick":28080,"startTime":10.96875,"velocity":68},{"channel":0,"duration":0.09375,"durationBeats":0.25,"durationTicks":240,"endBeat":29.75,"endTick":28560,"endTime":11.15625,"note":69,"startBeat":29.5,"startTick":28320,"startTime":11.0625,"velocity":68},{"channel":0,"duration":0.1875,"durationBeats":0.5,"durationTicks":480,"endBeat":30,"endTick":28800,"endTime":11.25,"note":38,"startBeat":29.5,"startTick":28320,"startTime":11.0625,"velocity":68},{"channel":0,"duration":0.09375,"durationBeats":0.25,"durationTicks":240,"endBeat":30,"endTick":28800,"endTime":11.25,"note":67,"startBeat":29.75,"startTick":28560,"startTime":11.15625,"velocity":68},{"channel":0,"duration":0.09375,"durationBeats":0.25,"durationTicks":240,"endBeat":30.25,"endTick":29040,"endTime":11.34375,"note":69,"startBeat":30,"startTick":28800,"startTime":11.25,"velocity":68},{"channel":0,"duration":0.1875,"durationBeats":0.5,"durationTicks":480,"endBeat":30.5,"endTick":29280,"endTime":11.4375,"note":50,"startBeat":30,"startTick":28800,"startTime":11.25,"velocity":68},{"channel":0,"duration":0.09375,"durationBeats":0.25,"durationTicks":240,"endBeat":30.5,"endTick":29280,"endTime":11.4375,"note":62,"startBeat":30.25,"startTick":29040,"startTime":11.34375,"velocity":68},{"channel":0,"duration":0.09375,"durationBeats":0.25,"durationTicks":240,"endBeat":30.75,"endTick":29520,"endTime":11.53125,"note":60,"startBeat":30.5,"startTick":29280,"startTime":11.4375,"velocity":68},{"channel":0,"duration":0.1875,"durationBeats":0.5,"durationTicks":480,"endBeat":31,"endTick":29760,"endTime":11.625,"note":38,"startBeat":30.5,"startTick":29280,"startTime":11.4375,"velocity":68},{"channel":0,"duration":0.09375,"durationBeats":0.25,"durationTicks":240,"endBeat":31,"endTick":29760,"endTime":11.625,"note":65,"startBeat":30.75,"startTick":29520,"startTime":11.53125,"velocity":68},{"channel":0,"duration":0.1875,"durationBeats":0.5,"durationTicks":480,"endBeat":31.5,"endTick":30240,"endTime":11.8125,"note":45,"startBeat":31,"startTick":29760,"startTime":11.625,"velocity":68},{"channel":0,"duration":0.1875,"durationBeats":0.5,"durationTicks":480,"endBeat":31.5,"endTick":30240,"endTime":11.8125,"note":60,"startBeat":31,"startTick":29760,"startTime":11.625,"velocity":68},{"channel":0,"duration":0.1875,"durationBeats":0.5,"durationTicks":480,"endBeat":31.5,"endTick":30240,"endTime":11.8125,"note":64,"startBeat":31,"startTick":29760,"startTime":11.625,"velocity":68},{"channel":0,"duration":0.1875,"durationBeats":0.5,"durationTicks":480,"endBeat":31.5,"endTick":30240,"endTime":11.8125,"note":69,"startBeat":31,"startTick":29760,"startTime":11.625,"velocity":68},{"channel":0,"duration":0.1875,"durationBeats":0.5,"durationTicks":480,"endBeat":32,"endTick":30720,"endTime":12,"note":44,"startBeat":31.5,"startTick":30240,"startTime":11.8125,"velocity":68},{"channel":0,"duration":0.1875,"durationBeats":0.5,"durationTicks":480,"endBeat":32,"endTick":30720,"endTime":12,"note":59,"startBeat":31.5,"startTick":30240,"startTime":11.8125,"velocity":68},{"channel":0,"duration":0.1875,"durationBeats":0.5,"durationTicks":480,"endBeat":32,"endTick":30720,"endTime":12,"note":63,"startBeat":31.5,"startTick":30240,"startTime":11.8125,"velocity":68},{"channel":0,"duration":0.1875,"durationBeats":0.5,"durationTicks":480,"endBeat":32,"endTick":30720,"endTime":12,"note":68,"startBeat":31.5,"startTick":30240,"startTime":11.8125,"velocity":68},{"channel":0,"duration":0.1875,"durationBeats":0.5,"durationTicks":480,"endBeat":32.5,"endTick":31200,"endTime":12.1875,"note":43,"startBeat":32,"startTick":30720,"startTime":12,"velocity":68},{"channel":0,"duration":0.1875,"durationBeats":0.5,"durationTicks":480,"endBeat":33,"endTick":31680,"endTime":12.375,"note":50,"startBeat":32.5,"startTick":31200,"startTime":12.1875,"velocity":68},{"channel":0,"duration":0.375,"durationBeats":1,"durationTicks":960,"endBeat":33,"endTick":31680,"endTime":12.375,"note":58,"startBeat":32,"startTick":30720,"startTime":12,"velocity":68},{"channel":0,"duration":0.375,"durationBeats":1,"durationTicks":960,"endBeat":33,"endTick":31680,"endTime":12.375,"note":62,"startBeat":32,"startTick":30720,"startTime":12,"velocity":68},{"channel":0,"duration":0.375,"durationBeats":1,"durationTicks":960,"endBeat":33,"endTick":31680,"endTime":12.375,"note":65,"startBeat":32,"startTick":30720,"startTime":12,"velocity":68},{"channel":0,"duration":0.375,"durationBeats":1,"durationTicks":960,"endBeat":33,"endTick":31680,"endTime":12.375,"note":69,"startBeat":32,"startTick":30720,"startTime":12,"velocity":68},{"channel":0,"duration":0.1875,"durationBeats":0.5,"durationTicks":480,"endBeat":33.5,"endTick":32160,"endTime":12.5625,"note":43,"startBeat":33,"startTick":31680,"startTime":12.375,"velocity":68},{"channel":0,"duration":0.09375,"durationBeats":0.25,"durationTicks":240,"endBeat":33.75,"endTick":32400,"endTime":12.65625,"note":65,"startBeat":33.5,"startTick":32160,"startTime":12.5625,"velocity":68},{"channel":0,"duration":0.1875,"durationBeats":0.5,"durationTicks":480,"endBeat":34,"endTick":32640,"endTime":12.75,"note":44,"startBeat":33.5,"startTick":32160,"startTime":12.5625,"velocity":68},{"channel":0,"duration":0.09375,"durationBeats":0.25,"durationTicks":240,"endBeat":34,"endTick":32640,"endTime":12.75,"note":69,"startBeat":33.75,"startTick":32400,"startTime":12.65625,"velocity":68},{"channel":0,"duration":0.1875,"durationBeats":0.5,"durationTicks":480,"endBeat":34.5,"endTick":33120,"endTime":12.9375,"note":45,"startBeat":34,"startTick":32640,"startTime":12.75,"velocity":68},{"channel":0,"duration":0.1875,"durationBeats":0.5,"durationTicks":480,"endBeat":34.5,"endTick":33120,"endTime":12.9375,"note":60,"startBeat":34,"startTick":32640,"startTime":12.75,"velocity":68},{"channel":0,"duration":0.1875,"durationBeats":0.5,"durationTicks":480,"endBeat":34.5,"endTick":33120,"endTime":12.9375,"note":64,"startBeat":34,"startTick":32640,"startTime":12.75,"velocity":68},{"channel":0,"duration":0.1875,"durationBeats":0.5,"durationTicks":480,"endBeat":34.5,"endTick":33120,"endTime":12.9375,"note":67,"startBeat":34,"startTick":32640,"startTime":12.75,"velocity":68},{"channel":0,"duration":0.1875,"durationBeats":0.5,"durationTicks":480,"endBeat":34.5,"endTick":33120,"endTime":12.9375,"note":72,"startBeat":34,"startTick":32640,"startTime":12.75,"velocity":68},{"channel":0,"duration":0.09375,"durationBeats":0.25,"durationTicks":240,"endBeat":35,"endTick":33600,"endTime":13.125,"note":45,"startBeat":34.75,"startTick":33360,"startTime":13.03125,"velocity":68},{"channel":0,"duration":0.1875,"durationBeats":0.5,"durationTicks":480,"endBeat":35.25,"endTick":33840,"endTime":13.21875,"note":61,"startBeat":34.75,"startTick":33360,"startTime":13.03125,"velocity":68},{"channel":0,"duration":0.1875,"durationBeats":0.5,"durationTicks":480,"endBeat":35.25,"endTick":33840,"endTime":13.21875,"note":65,"startBeat":34.75,"startTick":33360,"startTime":13.03125,"velocity":68},{"channel":0,"duration":0.1875,"durationBeats":0.5,"durationTicks":480,"endBeat":35.25,"endTick":33840,"endTime":13.21875,"note":67,"startBeat":34.75,"startTick":33360,"startTime":13.03125,"velocity":68},{"channel":0,"duration":0.1875,"durationBeats":0.5,"durationTicks":480,"endBeat":35.25,"endTick":33840,"endTime":13.21875,"note":70,"startBeat":34.75,"startTick":33360,"startTime":13.03125,"velocity":68},{"channel":0,"duration":0.1875,"durationBeats":0.5,"durationTicks":480,"endBeat":36,"endTick":34560,"endTime":13.5,"note":38,"startBeat":35.5,"startTick":34080,"startTime":13.3125,"velocity":68},{"channel":0,"duration":0.1875,"durationBeats":0.5,"durationTicks":480,"endBeat":36,"endTick":34560,"endTime":13.5,"note":60,"startBeat":35.5,"startTick":34080,"startTime":13.3125,"velocity":68},{"channel":0,"duration":0.1875,"durationBeats":0.5,"durationTicks":480,"endBeat":36,"endTick":34560,"endTime":13.5,"note":64,"startBeat":35.5,"startTick":34080,"startTime":13.3125,"velocity":68},{"channel":0,"duration":0.1875,"durationBeats":0.5,"durationTicks":480,"endBeat":36,"endTick":34560,"endTime":13.5,"note":65,"startBeat":35.5,"startTick":34080,"startTime":13.3125,"velocity":68},{"channel":0,"duration":0.1875,"durationBeats":0.5,"durationTicks":480,"endBeat":36,"endTick":34560,"endTime":13.5,"note":69,"startBeat":35.5,"startTick":34080,"startTime":13.3125,"velocity":68},{"channel":0,"duration":0.09375,"durationBeats":0.25,"durationTicks":240,"endBeat":36.25,"endTick":34800,"endTime":13.59375,"note":76,"startBeat":36,"startTick":34560,"startTime":13.5,"velocity":68},{"channel":0,"duration":0.09375,"durationBeats":0.25,"durationTicks":240,"endBeat":36.5,"endTick":35040,"endTime":13.6875,"note":77,"startBeat":36.25,"startTick":34800,"startTime":13.59375,"velocity":68},{"channel":0,"duration":0.09375,"durationBeats":0.25,"durationTicks":240,"endBeat":36.75,"endTick":35280,"endTime":13.78125,"note":76,"startBeat":36.5,"startTick":35040,"startTime":13.6875,"velocity":68},{"channel":0,"duration":0.1875,"durationBeats":0.5,"durationTicks":480,"endBeat":37,"endTick":35520,"endTime":13.875,"note":50,"startBeat":36.5,"startTick":35040,"startTime":13.6875,"velocity":68},{"channel":0,"duration":0.09375,"durationBeats":0.25,"durationTicks":240,"endBeat":37,"endTick":35520,"endTime":13.875,"note":72,"startBeat":36.75,"startTick":35280,"startTime":13.78125,"velocity":68},{"channel":0,"duration":0.09375,"durationBeats":0.25,"durationTicks":240,"endBeat":37.25,"endTick":35760,"endTime":13.96875,"note":76,"startBeat":37,"startTick":35520,"startTime":13.875,"velocity":68},{"channel":0,"duration":0.1875,"durationBeats":0.5,"durationTicks":480,"endBeat":37.5,"endTick":36000,"endTime":14.0625,"note":38,"startBeat":37,"startTick":35520,"startTime":13.875,"velocity":68},{"channel":0,"duration":0.09375,"durationBeats":0.25,"durationTicks":240,"endBeat":37.5,"endTick":36000,"endTime":14.0625,"note":72,"startBeat":37.25,"startTick":35760,"startTime":13.96875,"velocity":68},{"channel":0,"duration":0.09375,"durationBeats":0.25,"durationTicks":240,"endBeat":37.75,"endTick":36240,"endTime":14.15625,"note":69,"startBeat":37.5,"startTick":36000,"startTime":14.0625,"velocity":68},{"channel":0,"duration":0.1875,"durationBeats":0.5,"durationTicks":480,"endBeat":38,"endTick":36480,"endTime":14.25,"note":45,"startBeat":37.5,"startTick":36000,"startTime":14.0625,"velocity":68},{"channel":0,"duration":0.09375,"durationBeats":0.25,"durationTicks":240,"endBeat":38,"endTick":36480,"endTime":14.25,"note":67,"startBeat":37.75,"startTick":36240,"startTime":14.15625,"velocity":68},{"channel":0,"duration":0.09375,"durationBeats":0.25,"durationTicks":240,"endBeat":38.25,"endTick":36720,"endTime":14.34375,"note":69,"startBeat":38,"startTick":36480,"startTime":14.25,"velocity":68},{"channel":0,"duration":0.1875,"durationBeats":0.5,"durationTicks":480,"endBeat":38.5,"endTick":36960,"endTime":14.4375,"note":50,"startBeat":38,"startTick":36480,"startTime":14.25,"velocity":68},{"channel":0,"duration":0.09375,"durationBeats":0.25,"durationTicks":240,"endBeat":38.5,"endTick":36960,"endTime":14.4375,"note":62,"startBeat":38.25,"startTick":36720,"startTime":14.34375,"velocity":68},{"channel":0,"duration":0.09375,"durationBeats":0.25,"durationTicks":240,"endBeat":38.75,"endTick":37200,"endTime":14.53125,"note":60,"startBeat":38.5,"startTick":36960,"startTime":14.4375,"velocity":68},{"channel":0,"duration":0.1875,"durationBeats":0.5,"durationTicks":480,"endBeat":39,"endTick":37440,"endTime":14.625,"note":38,"startBeat":38.5,"startTick":36960,"startTime":14.4375,"velocity":68},{"channel":0,"duration":0.09375,"durationBeats":0.25,"durationTicks":240,"endBeat":39,"endTick":37440,"endTime":14.625,"note":65,"startBeat":38.75,"startTick":37200,"startTime":14.53125,"velocity":68},{"channel":0,"duration":0.1875,"durationBeats":0.5,"durationTicks":480,"endBeat":39.5,"endTick":37920,"endTime":14.8125,"note":45,"startBeat":39,"startTick":37440,"startTime":14.625,"velocity":68},{"channel":0,"duration":0.1875,"durationBeats":0.5,"durationTicks":480,"endBeat":39.5,"endTick":37920,"endTime":14.8125,"note":60,"startBeat":39,"startTick":37440,"startTime":14.625,"velocity":68},{"channel":0,"duration":0.1875,"durationBeats":0.5,"durationTicks":480,"endBeat":39.5,"endTick":37920,"endTime":14.8125,"note":64,"startBeat":39,"startTick":37440,"startTime":14.625,"velocity":68},{"channel":0,"duration":0.1875,"durationBeats":0.5,"durationTicks":480,"endBeat":39.5,"endTick":37920,"endTime":14.8125,"note":69,"startBeat":39,"startTick":37440,"startTime":14.625,"velocity":68},{"channel":0,"duration":0.1875,"durationBeats":0.5,"durationTicks":480,"endBeat":40,"endTick":38400,"endTime":15,"note":44,"startBeat":39.5,"startTick":37920,"startTime":14.8125,"velocity":68},{"channel":0,"duration":0.1875,"durationBeats":0.5,"durationTicks":480,"endBeat":40,"endTick":38400,"endTime":15,"note":59,"startBeat":39.5,"startTick":37920,"startTime":14.8125,"velocity":68},{"channel":0,"duration":0.1875,"durationBeats":0.5,"durationTicks":480,"endBeat":40,"endTick":38400,"endTime":15,"note":63,"startBeat":39.5,"startTick":37920,"startTime":14.8125,"velocity":68},{"channel":0,"duration":0.1875,"durationBeats":0.5,"durationTicks":480,"endBeat":40,"endTick":38400,"endTime":15,"note":68,"startBeat":39.5,"startTick":37920,"startTime":14.8125,"velocity":68},{"channel":0,"duration":0.1875,"durationBeats":0.5,"durationTicks":480,"endBeat":40.5,"endTick":38880,"endTime":15.1875,"note":43,"startBeat":40,"startTick":38400,"startTime":15,"velocity":68},{"channel":0,"duration":0.375,"durationBeats":1,"durationTicks":960,"endBeat":41,"endTick":39360,"endTime":15.375,"note":58,"startBeat":40,"startTick":38400,"startTime":15,"velocity":68},{"channel":0,"duration":0.375,"durationBeats":1,"durationTicks":960,"endBeat":41,"endTick":39360,"endTime":15.375,"note":62,"startBeat":40,"startTick":38400,"startTime":15,"velocity":68},{"channel":0,"duration":0.375,"durationBeats":1,"durationTicks":960,"endBeat":41,"endTick":39360,"endTime":15.375,"note":65,"startBeat":40,"startTick":38400,"startTime":15,"velocity":68},{"channel":0,"duration":0.375,"durationBeats":1,"durationTicks":960,"endBeat":41,"endTick":39360,"endTime":15.375,"note":69,"startBeat":40,"startTick":38400,"startTime":15,"velocity":68},{"channel":0,"duration":0.1875,"durationBeats":0.5,"durationTicks":480,"endBeat":41.5,"endTick":39840,"endTime":15.5625,"note":43,"startBeat":41,"startTick":39360,"startTime":15.375,"velocity":68},{"channel":0,"duration":0.09375,"durationBeats":0.25,"durationTicks":240,"endBeat":41.75,"endTick":40080,"endTime":15.65625,"note":65,"startBeat":41.5,"startTick":39840,"startTime":15.5625,"velocity":68},{"channel":0,"duration":0.1875,"durationBeats":0.5,"durationTicks":480,"endBeat":42,"endTick":40320,"endTime":15.75,"note":44,"startBeat":41.5,"startTick":39840,"startTime":15.5625,"velocity":68},{"channel":0,"duration":0.09375,"durationBeats":0.25,"durationTicks":240,"endBeat":42,"endTick":40320,"endTime":15.75,"note":69,"startBeat":41.75,"startTick":40080,"startTime":15.65625,"velocity":68},{"channel":0,"duration":0.1875,"durationBeats":0.5,"durationTicks":480,"endBeat":42.5,"endTick":40800,"endTime":15.9375,"note":45,"startBeat":42,"startTick":40320,"startTime":15.75,"velocity":68},{"channel":0,"duration":0.1875,"durationBeats":0.5,"durationTicks":480,"endBeat":42.5,"endTick":40800,"endTime":15.9375,"note":60,"startBeat":42,"startTick":40320,"startTime":15.75,"velocity":68},{"channel":0,"duration":0.1875,"durationBeats":0.5,"durationTicks":480,"endBeat":42.5,"endTick":40800,"endTime":15.9375,"note":64,"startBeat":42,"startTick":40320,"startTime":15.75,"velocity":68},{"channel":0,"duration":0.1875,"durationBeats":0.5,"durationTicks":480,"endBeat":42.5,"endTick":40800,"endTime":15.9375,"note":67,"startBeat":42,"startTick":40320,"startTime":15.75,"velocity":68},{"channel":0,"duration":0.1875,"durationBeats":0.5,"durationTicks":480,"endBeat":42.5,"endTick":40800,"endTime":15.9375,"note":72,"startBeat":42,"startTick":40320,"startTime":15.75,"velocity":68},{"channel":0,"duration":0.09375,"durationBeats":0.25,"durationTicks":240,"endBeat":43,"endTick":41280,"endTime":16.125,"note":45,"startBeat":42.75,"startTick":41040,"startTime":16.03125,"velocity":68},{"channel":0,"duration":0.1875,"durationBeats":0.5,"durationTicks":480,"endBeat":43.25,"endTick":41520,"endTime":16.21875,"note":61,"startBeat":42.75,"startTick":41040,"startTime":16.03125,"velocity":68},{"channel":0,"duration":0.1875,"durationBeats":0.5,"durationTicks":480,"endBeat":43.25,"endTick":41520,"endTime":16.21875,"note":65,"startBeat":42.75,"startTick":41040,"startTime":16.03125,"velocity":68},{"channel":0,"duration":0.1875,"durationBeats":0.5,"durationTicks":480,"endBeat":43.25,"endTick":41520,"endTime":16.21875,"note":67,"startBeat":42.75,"startTick":41040,"startTime":16.03125,"velocity":68},{"channel":0,"duration":0.1875,"durationBeats":0.5,"durationTicks":480,"endBeat":43.25,"endTick":41520,"endTime":16.21875,"note":70,"startBeat":42.75,"startTick":41040,"startTime":16.03125,"velocity":68},{"channel":0,"duration":0.1875,"durationBeats":0.5,"durationTicks":480,"endBeat":44,"endTick":42240,"endTime":16.5,"note":38,"startBeat":43.5,"startTick":41760,"startTime":16.3125,"velocity":68},{"channel":0,"duration":0.1875,"durationBeats":0.5,"durationTicks":480,"endBeat":44,"endTick":42240,"endTime":16.5,"note":60,"startBeat":43.5,"startTick":41760,"startTime":16.3125,"velocity":68},{"channel":0,"duration":0.1875,"durationBeats":0.5,"durationTicks":480,"endBeat":44,"endTick":42240,"endTime":16.5,"note":64,"startBeat":43.5,"startTick":41760,"startTime":16.3125,"velocity":68},{"channel":0,"duration":0.1875,"durationBeats":0.5,"durationTicks":480,"endBeat":44,"endTick":42240,"endTime":16.5,"note":65,"startBeat":43.5,"startTick":41760,"startTime":16.3125,"velocity":68},{"channel":0,"duration":0.1875,"durationBeats":0.5,"durationTicks":480,"endBeat":44,"endTick":42240,"endTime":16.5,"note":69,"startBeat":43.5,"startTick":41760,"startTime":16.3125,"velocity":68},{"channel":0,"duration":0.09375,"durationBeats":0.25,"durationTicks":240,"endBeat":44.25,"endTick":42480,"endTime":16.59375,"note":76,"startBeat":44,"startTick":42240,"startTime":16.5,"velocity":68},{"channel":0,"duration":0.1875,"durationBeats":0.5,"durationTicks":480,"endBeat":44.5,"endTick":42720,"endTime":16.6875,"note":50,"startBeat":44,"startTick":42240,"startTime":16.5,"velocity":68},{"channel":0,"duration":0.09375,"durationBeats":0.25,"durationTicks":240,"endBeat":44.5,"endTick":42720,"endTime":16.6875,"note":77,"startBeat":44.25,"startTick":42480,"startTime":16.59375,"velocity":68},{"channel":0,"duration":0.09375,"durationBeats":0.25,"durationTicks":240,"endBeat":44.75,"endTick":42960,"endTime":16.78125,"note":79,"startBeat":44.5,"startTick":42720,"startTime":16.6875,"velocity":68},{"channel":0,"duration":0.1875,"durationBeats":0.5,"durationTicks":480,"endBeat":45,"endTick":43200,"endTime":16.875,"note":38,"startBeat":44.5,"startTick":42720,"startTime":16.6875,"velocity":68},{"channel":0,"duration":0.09375,"durationBeats":0.25,"durationTicks":240,"endBeat":45,"endTick":43200,"endTime":16.875,"note":77,"startBeat":44.75,"startTick":42960,"startTime":16.78125,"velocity":68},{"channel":0,"duration":0.09375,"durationBeats":0.25,"durationTicks":240,"endBeat":45.25,"endTick":43440,"endTime":16.96875,"note":76,"startBeat":45,"startTick":43200,"startTime":16.875,"velocity":68},{"channel":0,"duration":0.1875,"durationBeats":0.5,"durationTicks":480,"endBeat":45.5,"endTick":43680,"endTime":17.0625,"note":45,"startBeat":45,"startTick":43200,"startTime":16.875,"velocity":68},{"channel":0,"duration":0.09375,"durationBeats":0.25,"durationTicks":240,"endBeat":45.5,"endTick":43680,"endTime":17.0625,"note":72,"startBeat":45.25,"startTick":43440,"startTime":16.96875,"velocity":68},{"channel":0,"duration":0.09375,"durationBeats":0.25,"durationTicks":240,"endBeat":45.75,"endTick":43920,"endTime":17.15625,"note":69,"startBeat":45.5,"startTick":43680,"startTime":17.0625,"velocity":68},{"channel":0,"duration":0.1875,"durationBeats":0.5,"durationTicks":480,"endBeat":46,"endTick":44160,"endTime":17.25,"note":38,"startBeat":45.5,"startTick":43680,"startTime":17.0625,"velocity":68},{"channel":0,"duration":0.09375,"durationBeats":0.25,"durationTicks":240,"endBeat":46,"endTick":44160,"endTime":17.25,"note":67,"startBeat":45.75,"startTick":43920,"startTime":17.15625,"velocity":68},{"channel":0,"duration":0.09375,"durationBeats":0.25,"durationTicks":240,"endBeat":46.25,"endTick":44400,"endTime":17.34375,"note":69,"startBeat":46,"startTick":44160,"startTime":17.25,"velocity":68},{"channel":0,"duration":0.1875,"durationBeats":0.5,"durationTicks":480,"endBeat":46.5,"endTick":44640,"endTime":17.4375,"note":50,"startBeat":46,"startTick":44160,"startTime":17.25,"velocity":68},{"channel":0,"duration":0.09375,"durationBeats":0.25,"durationTicks":240,"endBeat":46.5,"endTick":44640,"endTime":17.4375,"note":62,"startBeat":46.25,"startTick":44400,"startTime":17.34375,"velocity":68},{"channel":0,"duration":0.09375,"durationBeats":0.25,"durationTicks":240,"endBeat":46.75,"endTick":44880,"endTime":17.53125,"note":60,"startBeat":46.5,"startTick":44640,"startTime":17.4375,"velocity":68},{"channel":0,"duration":0.1875,"durationBeats":0.5,"durationTicks":480,"endBeat":47,"endTick":45120,"endTime":17.625,"note":38,"startBeat":46.5,"startTick":44640,"startTime":17.4375,"velocity":68},{"channel":0,"duration":0.09375,"durationBeats":0.25,"durationTicks":240,"endBeat":47,"endTick":45120,"endTime":17.625,"note":65,"startBeat":46.75,"startTick":44880,"startTime":17.53125,"velocity":68},{"channel":0,"duration":0.1875,"durationBeats":0.5,"durationTicks":480,"endBeat":47.5,"endTick":45600,"endTime":17.8125,"note":45,"startBeat":47,"startTick":45120,"startTime":17.625,"velocity":68},{"channel":0,"duration":0.1875,"durationBeats":0.5,"durationTicks":480,"endBeat":47.5,"endTick":45600,"endTime":17.8125,"note":60,"startBeat":47,"startTick":45120,"startTime":17.625,"velocity":68},{"channel":0,"duration":0.1875,"durationBeats":0.5,"durationTicks":480,"endBeat":47.5,"endTick":45600,"endTime":17.8125,"note":64,"startBeat":47,"startTick":45120,"startTime":17.625,"velocity":68},{"channel":0,"duration":0.1875,"durationBeats":0.5,"durationTicks":480,"endBeat":47.5,"endTick":45600,"endTime":17.8125,"note":69,"startBeat":47,"startTick":45120,"startTime":17.625,"velocity":68},{"channel":0,"duration":0.1875,"durationBeats":0.5,"durationTicks":480,"endBeat":48,"endTick":46080,"endTime":18,"note":44,"startBeat":47.5,"startTick":45600,"startTime":17.8125,"velocity":68},{"channel":0,"duration":0.1875,"durationBeats":0.5,"durationTicks":480,"endBeat":48,"endTick":46080,"endTime":18,"note":59,"startBeat":47.5,"startTick":45600,"startTime":17.8125,"velocity":68},{"channel":0,"duration":0.1875,"durationBeats":0.5,"durationTicks":480,"endBeat":48,"endTick":46080,"endTime":18,"note":63,"startBeat":47.5,"startTick":45600,"startTime":17.8125,"velocity":68},{"channel":0,"duration":0.1875,"durationBeats":0.5,"durationTicks":480,"endBeat":48,"endTick":46080,"endTime":18,"note":68,"startBeat":47.5,"startTick":45600,"startTime":17.8125,"velocity":68},{"channel":0,"duration":0.1875,"durationBeats":0.5,"durationTicks":480,"endBeat":48.5,"endTick":46560,"endTime":18.1875,"note":43,"startBeat":48,"startTick":46080,"startTime":18,"velocity":68},{"channel":0,"duration":0.1875,"durationBeats":0.5,"durationTicks":480,"endBeat":49,"endTick":47040,"endTime":18.375,"note":50,"startBeat":48.5,"startTick":46560,"startTime":18.1875,"velocity":68},{"channel":0,"duration":0.375,"durationBeats":1,"durationTicks":960,"endBeat":49,"endTick":47040,"endTime":18.375,"note":58,"startBeat":48,"startTick":46080,"startTime":18,"velocity":68},{"channel":0,"duration":0.375,"durationBeats":1,"durationTicks":960,"endBeat":49,"endTick":47040,"endTime":18.375,"note":62,"startBeat":48,"startTick":46080,"startTime":18,"velocity":68},{"channel":0,"duration":0.375,"durationBeats":1,"durationTicks":960,"endBeat":49,"endTick":47040,"endTime":18.375,"note":65,"startBeat":48,"startTick":46080,"startTime":18,"velocity":68},{"channel":0,"duration":0.375,"durationBeats":1,"durationTicks":960,"endBeat":49,"endTick":47040,"endTime":18.375,"note":69,"startBeat":48,"startTick":46080,"startTime":18,"velocity":68},{"channel":0,"duration":0.1875,"durationBeats":0.5,"durationTicks":480,"endBeat":49.5,"endTick":47520,"endTime":18.5625,"note":43,"startBeat":49,"startTick":47040,"startTime":18.375,"velocity":68},{"channel":0,"duration":0.09375,"durationBeats":0.25,"durationTicks":240,"endBeat":49.75,"endTick":47760,"endTime":18.65625,"note":65,"startBeat":49.5,"startTick":47520,"startTime":18.5625,"velocity":68},{"channel":0,"duration":0.1875,"durationBeats":0.5,"durationTicks":480,"endBeat":50,"endTick":48000,"endTime":18.75,"note":44,"startBeat":49.5,"startTick":47520,"startTime":18.5625,"velocity":68},{"channel":0,"duration":0.09375,"durationBeats":0.25,"durationTicks":240,"endBeat":50,"endTick":48000,"endTime":18.75,"note":69,"startBeat":49.75,"startTick":47760,"startTime":18.65625,"velocity":68},{"channel":0,"duration":0.1875,"durationBeats":0.5,"durationTicks":480,"endBeat":50.5,"endTick":48480,"endTime":18.9375,"note":45,"startBeat":50,"startTick":48000,"startTime":18.75,"velocity":68},{"channel":0,"duration":0.1875,"durationBeats":0.5,"durationTicks":480,"endBeat":50.5,"endTick":48480,"endTime":18.9375,"note":60,"startBeat":50,"startTick":48000,"startTime":18.75,"velocity":68},{"channel":0,"duration":0.1875,"durationBeats":0.5,"durationTicks":480,"endBeat":50.5,"endTick":48480,"endTime":18.9375,"note":64,"startBeat":50,"startTick":48000,"startTime":18.75,"velocity":68},{"channel":0,"duration":0.1875,"durationBeats":0.5,"durationTicks":480,"endBeat":50.5,"endTick":48480,"endTime":18.9375,"note":67,"startBeat":50,"startTick":48000,"startTime":18.75,"velocity":68},{"channel":0,"duration":0.1875,"durationBeats":0.5,"durationTicks":480,"endBeat":50.5,"endTick":48480,"endTime":18.9375,"note":72,"startBeat":50,"startTick":48000,"startTime":18.75,"velocity":68},{"channel":0,"duration":0.09375,"durationBeats":0.25,"durationTicks":240,"endBeat":51,"endTick":48960,"endTime":19.125,"note":45,"startBeat":50.75,"startTick":48720,"startTime":19.03125,"velocity":68},{"channel":0,"duration":0.1875,"durationBeats":0.5,"durationTicks":480,"endBeat":51.25,"endTick":49200,"endTime":19.21875,"note":61,"startBeat":50.75,"startTick":48720,"startTime":19.03125,"velocity":68},{"channel":0,"duration":0.1875,"durationBeats":0.5,"durationTicks":480,"endBeat":51.25,"endTick":49200,"endTime":19.21875,"note":65,"startBeat":50.75,"startTick":48720,"startTime":19.03125,"velocity":68},{"channel":0,"duration":0.1875,"durationBeats":0.5,"durationTicks":480,"endBeat":51.25,"endTick":49200,"endTime":19.21875,"note":67,"startBeat":50.75,"startTick":48720,"startTime":19.03125,"velocity":68},{"channel":0,"duration":0.1875,"durationBeats":0.5,"durationTicks":480,"endBeat":51.25,"endTick":49200,"endTime":19.21875,"note":70,"startBeat":50.75,"startTick":48720,"startTime":19.03125,"velocity":68},{"channel":0,"duration":0.1875,"durationBeats":0.5,"durationTicks":480,"endBeat":52,"endTick":49920,"endTime":19.5,"note":38,"startBeat":51.5,"startTick":49440,"startTime":19.3125,"velocity":68},{"channel":0,"duration":0.1875,"durationBeats":0.5,"durationTicks":480,"endBeat":52,"endTick":49920,"endTime":19.5,"note":60,"startBeat":51.5,"startTick":49440,"startTime":19.3125,"velocity":68},{"channel":0,"duration":0.1875,"durationBeats":0.5,"durationTicks":480,"endBeat":52,"endTick":49920,"endTime":19.5,"note":64,"startBeat":51.5,"startTick":49440,"startTime":19.3125,"velocity":68},{"channel":0,"duration":0.1875,"durationBeats":0.5,"durationTicks":480,"endBeat":52,"endTick":49920,"endTime":19.5,"note":65,"startBeat":51.5,"startTick":49440,"startTime":19.3125,"velocity":68},{"channel":0,"duration":0.1875,"durationBeats":0.5,"durationTicks":480,"endBeat":52,"endTick":49920,"endTime":19.5,"note":69,"startBeat":51.5,"startTick":49440,"startTime":19.3125,"velocity":68},{"channel":0,"duration":0.09375,"durationBeats":0.25,"durationTicks":240,"endBeat":52.25,"endTick":50160,"endTime":19.59375,"note":76,"startBeat":52,"startTick":49920,"startTime":19.5,"velocity":68},{"channel":0,"duration":0.09375,"durationBeats":0.25,"durationTicks":240,"endBeat":52.5,"endTick":50400,"endTime":19.6875,"note":77,"startBeat":52.25,"startTick":50160,"startTime":19.59375,"velocity":68},{"channel":0,"duration":0.09375,"durationBeats":0.25,"durationTicks":240,"endBeat":52.75,"endTick":50640,"endTime":19.78125,"note":76,"startBeat":52.5,"startTick":50400,"startTime":19.6875,"velocity":68},{"channel":0,"duration":0.1875,"durationBeats":0.5,"durationTicks":480,"endBeat":53,"endTick":50880,"endTime":19.875,"note":50,"startBeat":52.5,"startTick":50400,"startTime":19.6875,"velocity":68},{"channel":0,"duration":0.09375,"durationBeats":0.25,"durationTicks":240,"endBeat":53,"endTick":50880,"endTime":19.875,"note":72,"startBeat":52.75,"startTick":50640,"startTime":19.78125,"velocity":68},{"channel":0,"duration":0.09375,"durationBeats":0.25,"durationTicks":240,"endBeat":53.25,"endTick":51120,"endTime":19.96875,"note":76,"startBeat":53,"startTick":50880,"startTime":19.875,"velocity":68},{"channel":0,"duration":0.1875,"durationBeats":0.5,"durationTicks":480,"endBeat":53.5,"endTick":51360,"endTime":20.0625,"note":38,"startBeat":53,"startTick":50880,"startTime":19.875,"velocity":68},{"channel":0,"duration":0.09375,"durationBeats":0.25,"durationTicks":240,"endBeat":53.5,"endTick":51360,"endTime":20.0625,"note":72,"startBeat":53.25,"startTick":51120,"startTime":19.96875,"velocity":68},{"channel":0,"duration":0.09375,"durationBeats":0.25,"durationTicks":240,"endBeat":53.75,"endTick":51600,"endTime":20.15625,"note":69,"startBeat":53.5,"startTick":51360,"startTime":20.0625,"velocity":68},{"channel":0,"duration":0.1875,"durationBeats":0.5,"durationTicks":480,"endBeat":54,"endTick":51840,"endTime":20.25,"note":45,"startBeat":53.5,"startTick":51360,"startTime":20.0625,"velocity":68},{"channel":0,"duration":0.09375,"durationBeats":0.25,"durationTicks":240,"endBeat":54,"endTick":51840,"endTime":20.25,"note":67,"startBeat":53.75,"startTick":51600,"startTime":20.15625,"velocity":68},{"channel":0,"duration":0.09375,"durationBeats":0.25,"durationTicks":240,"endBeat":54.25,"endTick":52080,"endTime":20.34375,"note":69,"startBeat":54,"startTick":51840,"startTime":20.25,"velocity":68},{"channel":0,"duration":0.1875,"durationBeats":0.5,"durationTicks":480,"endBeat":54.5,"endTick":52320,"endTime":20.4375,"note":50,"startBeat":54,"startTick":51840,"startTime":20.25,"velocity":68},{"channel":0,"duration":0.09375,"durationBeats":0.25,"durationTicks":240,"endBeat":54.5,"endTick":52320,"endTime":20.4375,"note":62,"startBeat":54.25,"startTick":52080,"startTime":20.34375,"velocity":68},{"channel":0,"duration":0.09375,"durationBeats":0.25,"durationTicks":240,"endBeat":54.75,"endTick":52560,"endTime":20.53125,"note":60,"startBeat":54.5,"startTick":52320,"startTime":20.4375,"velocity":68},{"channel":0,"duration":0.1875,"durationBeats":0.5,"durationTicks":480,"endBeat":55,"endTick":52800,"endTime":20.625,"note":38,"startBeat":54.5,"startTick":52320,"startTime":20.4375,"velocity":68},{"channel":0,"duration":0.09375,"durationBeats":0.25,"durationTicks":240,"endBeat":55,"endTick":52800,"endTime":20.625,"note":65,"startBeat":54.75,"startTick":52560,"startTime":20.53125,"velocity":68},{"channel":0,"duration":0.1875,"durationBeats":0.5,"durationTicks":480,"endBeat":55.5,"endTick":53280,"endTime":20.8125,"note":45,"startBeat":55,"startTick":52800,"startTime":20.625,"velocity":68},{"channel":0,"duration":0.1875,"durationBeats":0.5,"durationTicks":480,"endBeat":55.5,"endTick":53280,"endTime":20.8125,"note":60,"startBeat":55,"startTick":52800,"startTime":20.625,"velocity":68},{"channel":0,"duration":0.1875,"durationBeats":0.5,"durationTicks":480,"endBeat":55.5,"endTick":53280,"endTime":20.8125,"note":64,"startBeat":55,"startTick":52800,"startTime":20.625,"velocity":68},{"channel":0,"duration":0.1875,"durationBeats":0.5,"durationTicks":480,"endBeat":55.5,"endTick":53280,"endTime":20.8125,"note":69,"startBeat":55,"startTick":52800,"startTime":20.625,"velocity":68},{"channel":0,"duration":0.1875,"durationBeats":0.5,"durationTicks":480,"endBeat":56,"endTick":53760,"endTime":21,"note":44,"startBeat":55.5,"startTick":53280,"startTime":20.8125,"velocity":68},{"channel":0,"duration":0.1875,"durationBeats":0.5,"durationTicks":480,"endBeat":56,"endTick":53760,"endTime":21,"note":59,"startBeat":55.5,"startTick":53280,"startTime":20.8125,"velocity":68},{"channel":0,"duration":0.1875,"durationBeats":0.5,"durationTicks":480,"endBeat":56,"endTick":53760,"endTime":21,"note":63,"startBeat":55.5,"startTick":53280,"startTime":20.8125,"velocity":68},{"channel":0,"duration":0.1875,"durationBeats":0.5,"durationTicks":480,"endBeat":56,"endTick":53760,"endTime":21,"note":68,"startBeat":55.5,"startTick":53280,"startTime":20.8125,"velocity":68},{"channel":0,"duration":0.1875,"durationBeats":0.5,"durationTicks":480,"endBeat":56.5,"endTick":54240,"endTime":21.1875,"note":43,"startBeat":56,"startTick":53760,"startTime":21,"velocity":68},{"channel":0,"duration":0.375,"durationBeats":1,"durationTicks":960,"endBeat":57,"endTick":54720,"endTime":21.375,"note":58,"startBeat":56,"startTick":53760,"startTime":21,"velocity":68},{"channel":0,"duration":0.375,"durationBeats":1,"durationTicks":960,"endBeat":57,"endTick":54720,"endTime":21.375,"note":62,"startBeat":56,"startTick":53760,"startTime":21,"velocity":68},{"channel":0,"duration":0.375,"durationBeats":1,"durationTicks":960,"endBeat":57,"endTick":54720,"endTime":21.375,"note":65,"startBeat":56,"startTick":53760,"startTime":21,"velocity":68},{"channel":0,"duration":0.375,"durationBeats":1,"durationTicks":960,"endBeat":57,"endTick":54720,"endTime":21.375,"note":69,"startBeat":56,"startTick":53760,"startTime":21,"velocity":68},{"channel":0,"duration":0.1875,"durationBeats":0.5,"durationTicks":480,"endBeat":57.5,"endTick":55200,"endTime":21.5625,"note":43,"startBeat":57,"startTick":54720,"startTime":21.375,"velocity":68},{"channel":0,"duration":0.09375,"durationBeats":0.25,"durationTicks":240,"endBeat":57.75,"endTick":55440,"endTime":21.65625,"note":65,"startBeat":57.5,"startTick":55200,"startTime":21.5625,"velocity":68},{"channel":0,"duration":0.1875,"durationBeats":0.5,"durationTicks":480,"endBeat":58,"endTick":55680,"endTime":21.75,"note":44,"startBeat":57.5,"startTick":55200,"startTime":21.5625,"velocity":68},{"channel":0,"duration":0.09375,"durationBeats":0.25,"durationTicks":240,"endBeat":58,"endTick":55680,"endTime":21.75,"note":69,"startBeat":57.75,"startTick":55440,"startTime":21.65625,"velocity":68},{"channel":0,"duration":0.1875,"durationBeats":0.5,"durationTicks":480,"endBeat":58.5,"endTick":56160,"endTime":21.9375,"note":45,"startBeat":58,"startTick":55680,"startTime":21.75,"velocity":68},{"channel":0,"duration":0.1875,"durationBeats":0.5,"durationTicks":480,"endBeat":58.5,"endTick":56160,"endTime":21.9375,"note":60,"startBeat":58,"startTick":55680,"startTime":21.75,"velocity":68},{"channel":0,"duration":0.1875,"durationBeats":0.5,"durationTicks":480,"endBeat":58.5,"endTick":56160,"endTime":21.9375,"note":64,"startBeat":58,"startTick":55680,"startTime":21.75,"velocity":68},{"channel":0,"duration":0.1875,"durationBeats":0.5,"durationTicks":480,"endBeat":58.5,"endTick":56160,"endTime":21.9375,"note":67,"startBeat":58,"startTick":55680,"startTime":21.75,"velocity":68},{"channel":0,"duration":0.1875,"durationBeats":0.5,"durationTicks":480,"endBeat":58.5,"endTick":56160,"endTime":21.9375,"note":72,"startBeat":58,"startTick":55680,"startTime":21.75,"velocity":68},{"channel":0,"duration":0.09375,"durationBeats":0.25,"durationTicks":240,"endBeat":59,"endTick":56640,"endTime":22.125,"note":45,"startBeat":58.75,"startTick":56400,"startTime":22.03125,"velocity":68},{"channel":0,"duration":0.1875,"durationBeats":0.5,"durationTicks":480,"endBeat":59.25,"endTick":56880,"endTime":22.21875,"note":61,"startBeat":58.75,"startTick":56400,"startTime":22.03125,"velocity":68},{"channel":0,"duration":0.1875,"durationBeats":0.5,"durationTicks":480,"endBeat":59.25,"endTick":56880,"endTime":22.21875,"note":65,"startBeat":58.75,"startTick":56400,"startTime":22.03125,"velocity":68},{"channel":0,"duration":0.1875,"durationBeats":0.5,"durationTicks":480,"endBeat":59.25,"endTick":56880,"endTime":22.21875,"note":67,"startBeat":58.75,"startTick":56400,"startTime":22.03125,"velocity":68},{"channel":0,"duration":0.1875,"durationBeats":0.5,"durationTicks":480,"endBeat":59.25,"endTick":56880,"endTime":22.21875,"note":70,"startBeat":58.75,"startTick":56400,"startTime":22.03125,"velocity":68},{"channel":0,"duration":0.1875,"durationBeats":0.5,"durationTicks":480,"endBeat":60,"endTick":57600,"endTime":22.5,"note":38,"startBeat":59.5,"startTick":57120,"startTime":22.3125,"velocity":68},{"channel":0,"duration":0.1875,"durationBeats":0.5,"durationTicks":480,"endBeat":60,"endTick":57600,"endTime":22.5,"note":60,"startBeat":59.5,"startTick":57120,"startTime":22.3125,"velocity":68},{"channel":0,"duration":0.1875,"durationBeats":0.5,"durationTicks":480,"endBeat":60,"endTick":57600,"endTime":22.5,"note":64,"startBeat":59.5,"startTick":57120,"startTime":22.3125,"velocity":68},{"channel":0,"duration":0.1875,"durationBeats":0.5,"durationTicks":480,"endBeat":60,"endTick":57600,"endTime":22.5,"note":65,"startBeat":59.5,"startTick":57120,"startTime":22.3125,"velocity":68},{"channel":0,"duration":0.1875,"durationBeats":0.5,"durationTicks":480,"endBeat":60,"endTick":57600,"endTime":22.5,"note":69,"startBeat":59.5,"startTick":57120,"startTime":22.3125,"velocity":68},{"channel":0,"duration":0.09375,"durationBeats":0.25,"durationTicks":240,"endBeat":60.25,"endTick":57840,"endTime":22.59375,"note":76,"startBeat":60,"startTick":57600,"startTime":22.5,"velocity":68},{"channel":0,"duration":0.1875,"durationBeats":0.5,"durationTicks":480,"endBeat":60.5,"endTick":58080,"endTime":22.6875,"note":50,"startBeat":60,"startTick":57600,"startTime":22.5,"velocity":68},{"channel":0,"duration":0.09375,"durationBeats":0.25,"durationTicks":240,"endBeat":60.5,"endTick":58080,"endTime":22.6875,"note":77,"startBeat":60.25,"startTick":57840,"startTime":22.59375,"velocity":68},{"channel":0,"duration":0.09375,"durationBeats":0.25,"durationTicks":240,"endBeat":60.75,"endTick":58320,"endTime":22.78125,"note":79,"startBeat":60.5,"startTick":58080,"startTime":22.6875,"velocity":68},{"channel":0,"duration":0.1875,"durationBeats":0.5,"durationTicks":480,"endBeat":61,"endTick":58560,"endTime":22.875,"note":38,"startBeat":60.5,"startTick":58080,"startTime":22.6875,"velocity":68},{"channel":0,"duration":0.09375,"durationBeats":0.25,"durationTicks":240,"endBeat":61,"endTick":58560,"endTime":22.875,"note":77,"startBeat":60.75,"startTick":58320,"startTime":22.78125,"velocity":68},{"channel":0,"duration":0.09375,"durationBeats":0.25,"durationTicks":240,"endBeat":61.25,"endTick":58800,"endTime":22.96875,"note":76,"startBeat":61,"startTick":58560,"startTime":22.875,"velocity":68},{"channel":0,"duration":0.1875,"durationBeats":0.5,"durationTicks":480,"endBeat":61.5,"endTick":59040,"endTime":23.0625,"note":45,"startBeat":61,"startTick":58560,"startTime":22.875,"velocity":68},{"channel":0,"duration":0.09375,"durationBeats":0.25,"durationTicks":240,"endBeat":61.5,"endTick":59040,"endTime":23.0625,"note":72,"startBeat":61.25,"startTick":58800,"startTime":22.96875,"velocity":68},{"channel":0,"duration":0.09375,"durationBeats":0.25,"durationTicks":240,"endBeat":61.75,"endTick":59280,"endTime":23.15625,"note":69,"startBeat":61.5,"startTick":59040,"startTime":23.0625,"velocity":68},{"channel":0,"duration":0.1875,"durationBeats":0.5,"durationTicks":480,"endBeat":62,"endTick":59520,"endTime":23.25,"note":38,"startBeat":61.5,"startTick":59040,"startTime":23.0625,"velocity":68},{"channel":0,"duration":0.09375,"durationBeats":0.25,"durationTicks":240,"endBeat":62,"endTick":59520,"endTime":23.25,"note":67,"startBeat":61.75,"startTick":59280,"startTime":23.15625,"velocity":68},{"channel":0,"duration":0.09375,"durationBeats":0.25,"durationTicks":240,"endBeat":62.25,"endTick":59760,"endTime":23.34375,"note":69,"startBeat":62,"startTick":59520,"startTime":23.25,"velocity":68},{"channel":0,"duration":0.1875,"durationBeats":0.5,"durationTicks":480,"endBeat":62.5,"endTick":60000,"endTime":23.4375,"note":50,"startBeat":62,"startTick":59520,"startTime":23.25,"velocity":68},{"channel":0,"duration":0.09375,"durationBeats":0.25,"durationTicks":240,"endBeat":62.5,"endTick":60000,"endTime":23.4375,"note":62,"startBeat":62.25,"startTick":59760,"startTime":23.34375,"velocity":68},{"channel":0,"duration":0.09375,"durationBeats":0.25,"durationTicks":240,"endBeat":62.75,"endTick":60240,"endTime":23.53125,"note":60,"startBeat":62.5,"startTick":60000,"startTime":23.4375,"velocity":68},{"channel":0,"duration":0.1875,"durationBeats":0.5,"durationTicks":480,"endBeat":63,"endTick":60480,"endTime":23.625,"note":38,"startBeat":62.5,"startTick":60000,"startTime":23.4375,"velocity":68},{"channel":0,"duration":0.09375,"durationBeats":0.25,"durationTicks":240,"endBeat":63,"endTick":60480,"endTime":23.625,"note":65,"startBeat":62.75,"startTick":60240,"startTime":23.53125,"velocity":68},{"channel":0,"duration":0.1875,"durationBeats":0.5,"durationTicks":480,"endBeat":63.5,"endTick":60960,"endTime":23.8125,"note":45,"startBeat":63,"startTick":60480,"startTime":23.625,"velocity":68},{"channel":0,"duration":0.1875,"durationBeats":0.5,"durationTicks":480,"endBeat":63.5,"endTick":60960,"endTime":23.8125,"note":60,"startBeat":63,"startTick":60480,"startTime":23.625,"velocity":68},{"channel":0,"duration":0.1875,"durationBeats":0.5,"durationTicks":480,"endBeat":63.5,"endTick":60960,"endTime":23.8125,"note":64,"startBeat":63,"startTick":60480,"startTime":23.625,"velocity":68},{"channel":0,"duration":0.1875,"durationBeats":0.5,"durationTicks":480,"endBeat":63.5,"endTick":60960,"endTime":23.8125,"note":69,"startBeat":63,"startTick":60480,"startTime":23.625,"velocity":68},{"channel":0,"duration":0.1875,"durationBeats":0.5,"durationTicks":480,"endBeat":64,"endTick":61440,"endTime":24,"note":44,"startBeat":63.5,"startTick":60960,"startTime":23.8125,"velocity":68},{"channel":0,"duration":0.1875,"durationBeats":0.5,"durationTicks":480,"endBeat":64,"endTick":61440,"endTime":24,"note":59,"startBeat":63.5,"startTick":60960,"startTime":23.8125,"velocity":68},{"channel":0,"duration":0.1875,"durationBeats":0.5,"durationTicks":480,"endBeat":64,"endTick":61440,"endTime":24,"note":63,"startBeat":63.5,"startTick":60960,"startTime":23.8125,"velocity":68},{"channel":0,"duration":0.1875,"durationBeats":0.5,"durationTicks":480,"endBeat":64,"endTick":61440,"endTime":24,"note":68,"startBeat":63.5,"startTick":60960,"startTime":23.8125,"velocity":68},{"channel":0,"duration":0.1875,"durationBeats":0.5,"durationTicks":480,"endBeat":64.5,"endTick":61920,"endTime":24.1875,"note":43,"startBeat":64,"startTick":61440,"startTime":24,"velocity":68},{"channel":0,"duration":0.375,"durationBeats":1,"durationTicks":960,"endBeat":65,"endTick":62400,"endTime":24.375,"note":58,"startBeat":64,"startTick":61440,"startTime":24,"velocity":68},{"channel":0,"duration":0.375,"durationBeats":1,"durationTicks":960,"endBeat":65,"endTick":62400,"endTime":24.375,"note":62,"startBeat":64,"startTick":61440,"startTime":24,"velocity":68},{"channel":0,"duration":0.375,"durationBeats":1,"durationTicks":960,"endBeat":65,"endTick":62400,"endTime":24.375,"note":65,"startBeat":64,"startTick":61440,"startTime":24,"velocity":68},{"channel":0,"duration":0.375,"durationBeats":1,"durationTicks":960,"endBeat":65,"endTick":62400,"endTime":24.375,"note":69,"startBeat":64,"startTick":61440,"startTime":24,"velocity":68},{"channel":0,"duration":0.1875,"durationBeats":0.5,"durationTicks":480,"endBeat":65.5,"endTick":62880,"endTime":24.5625,"note":43,"startBeat":65,"startTick":62400,"startTime":24.375,"velocity":68},{"channel":0,"duration":0.09375,"durationBeats":0.25,"durationTicks":240,"endBeat":65.75,"endTick":63120,"endTime":24.65625,"note":65,"startBeat":65.5,"startTick":62880,"startTime":24.5625,"velocity":68},{"channel":0,"duration":0.1875,"durationBeats":0.5,"durationTicks":480,"endBeat":66,"endTick":63360,"endTime":24.75,"note":44,"startBeat":65.5,"startTick":62880,"startTime":24.5625,"velocity":68},{"channel":0,"duration":0.09375,"durationBeats":0.25,"durationTicks":240,"endBeat":66,"endTick":63360,"endTime":24.75,"note":69,"startBeat":65.75,"startTick":63120,"startTime":24.65625,"velocity":68},{"channel":0,"duration":0.1875,"durationBeats":0.5,"durationTicks":480,"endBeat":66.5,"endTick":63840,"endTime":24.9375,"note":45,"startBeat":66,"startTick":63360,"startTime":24.75,"velocity":68},{"channel":0,"duration":0.1875,"durationBeats":0.5,"durationTicks":480,"endBeat":66.5,"endTick":63840,"endTime":24.9375,"note":60,"startBeat":66,"startTick":63360,"startTime":24.75,"velocity":68},{"channel":0,"duration":0.1875,"durationBeats":0.5,"durationTicks":480,"endBeat":66.5,"endTick":63840,"endTime":24.9375,"note":64,"startBeat":66,"startTick":63360,"startTime":24.75,"velocity":68},{"channel":0,"duration":0.1875,"durationBeats":0.5,"durationTicks":480,"endBeat":66.5,"endTick":63840,"endTime":24.9375,"note":67,"startBeat":66,"startTick":63360,"startTime":24.75,"velocity":68},{"channel":0,"duration":0.1875,"durationBeats":0.5,"durationTicks":480,"endBeat":66.5,"endTick":63840,"endTime":24.9375,"note":72,"startBeat":66,"startTick":63360,"startTime":24.75,"velocity":68},{"channel":0,"duration":0.1875,"durationBeats":0.5,"durationTicks":480,"endBeat":67.5,"endTick":64800,"endTime":25.3125,"note":39,"startBeat":67,"startTick":64320,"startTime":25.125,"velocity":68},{"channel":0,"duration":0.1875,"durationBeats":0.5,"durationTicks":480,"endBeat":67.5,"endTick":64800,"endTime":25.3125,"note":67,"startBeat":67,"startTick":64320,"startTime":25.125,"velocity":68},{"channel":0,"duration":0.1875,"durationBeats":0.5,"durationTicks":480,"endBeat":67.5,"endTick":64800,"endTime":25.3125,"note":70,"startBeat":67,"startTick":64320,"startTime":25.125,"velocity":68},{"channel":0,"duration":0.1875,"durationBeats":0.5,"durationTicks":480,"endBeat":67.5,"endTick":64800,"endTime":25.3125,"note":73,"startBeat":67,"startTick":64320,"startTime":25.125,"velocity":68},{"channel":0,"duration":0.1875,"durationBeats":0.5,"durationTicks":480,"endBeat":67.5,"endTick":64800,"endTime":25.3125,"note":77,"startBeat":67,"startTick":64320,"startTime":25.125,"velocity":68},{"channel":0,"duration":0.1875,"durationBeats":0.5,"durationTicks":480,"endBeat":68.5,"endTick":65760,"endTime":25.6875,"note":38,"startBeat":68,"startTick":65280,"startTime":25.5,"velocity":68},{"channel":0,"duration":0.1875,"durationBeats":0.5,"durationTicks":480,"endBeat":68.5,"endTick":65760,"endTime":25.6875,"note":65,"startBeat":68,"startTick":65280,"startTime":25.5,"velocity":68},{"channel":0,"duration":0.1875,"durationBeats":0.5,"durationTicks":480,"endBeat":68.5,"endTick":65760,"endTime":25.6875,"note":69,"startBeat":68,"startTick":65280,"startTime":25.5,"velocity":68},{"channel":0,"duration":0.1875,"durationBeats":0.5,"durationTicks":480,"endBeat":68.5,"endTick":65760,"endTime":25.6875,"note":72,"startBeat":68,"startTick":65280,"startTime":25.5,"velocity":68},{"channel":0,"duration":0.1875,"durationBeats":0.5,"durationTicks":480,"endBeat":68.5,"endTick":65760,"endTime":25.6875,"note":76,"startBeat":68,"startTick":65280,"startTime":25.5,"velocity":68},{"channel":0,"duration":0.1875,"durationBeats":0.5,"durationTicks":480,"endBeat":69.5,"endTick":66720,"endTime":26.0625,"note":72,"startBeat":69,"startTick":66240,"startTime":25.875,"velocity":68},{"channel":0,"duration":0.1875,"durationBeats":0.5,"durationTicks":480,"endBeat":70,"endTick":67200,"endTime":26.25,"note":65,"startBeat":69.5,"startTick":66720,"startTime":26.0625,"velocity":68},{"channel":0,"duration":0.1875,"durationBeats":0.5,"durationTicks":480,"endBeat":70,"endTick":67200,"endTime":26.25,"note":69,"startBeat":69.5,"startTick":66720,"startTime":26.0625,"velocity":68},{"channel":0,"duration":0.1875,"durationBeats":0.5,"durationTicks":480,"endBeat":70.5,"endTick":67680,"endTime":26.4375,"note":64,"startBeat":70,"startTick":67200,"startTime":26.25,"velocity":68},{"channel":0,"duration":0.1875,"durationBeats":0.5,"durationTicks":480,"endBeat":70.5,"endTick":67680,"endTime":26.4375,"note":67,"startBeat":70,"startTick":67200,"startTime":26.25,"velocity":68},{"channel":0,"duration":0.375,"durationBeats":1,"durationTicks":960,"endBeat":71,"endTick":68160,"endTime":26.625,"note":36,"startBeat":70,"startTick":67200,"startTime":26.25,"velocity":68},{"channel":0,"duration":0.1875,"durationBeats":0.5,"durationTicks":480,"endBeat":71,"endTick":68160,"endTime":26.625,"note":62,"startBeat":70.5,"startTick":67680,"startTime":26.4375,"velocity":68},{"channel":0,"duration":0.1875,"durationBeats":0.5,"durationTicks":480,"endBeat":71,"endTick":68160,"endTime":26.625,"note":65,"startBeat":70.5,"startTick":67680,"startTime":26.4375,"velocity":68},{"channel":0,"duration":0.1875,"durationBeats":0.5,"durationTicks":480,"endBeat":71.5,"endTick":68640,"endTime":26.8125,"note":60,"startBeat":71,"startTick":68160,"startTime":26.625,"velocity":68},{"channel":0,"duration":0.1875,"durationBeats":0.5,"durationTicks":480,"endBeat":71.5,"endTick":68640,"endTime":26.8125,"note":64,"startBeat":71,"startTick":68160,"startTime":26.625,"velocity":68},{"channel":0,"duration":0.375,"durationBeats":1,"durationTicks":960,"endBeat":72,"endTick":69120,"endTime":27,"note":41,"startBeat":71,"startTick":68160,"startTime":26.625,"velocity":68},{"channel":0,"duration":0.1875,"durationBeats":0.5,"durationTicks":480,"endBeat":72,"endTick":69120,"endTime":27,"note":57,"startBeat":71.5,"startTick":68640,"startTime":26.8125,"velocity":68},{"channel":0,"duration":0.1875,"durationBeats":0.5,"durationTicks":480,"endBeat":72,"endTick":69120,"endTime":27,"note":60,"startBeat":71.5,"startTick":68640,"startTime":26.8125,"velocity":68},{"channel":0,"duration":0.375,"durationBeats":1,"durationTicks":960,"endBeat":73,"endTick":70080,"endTime":27.375,"note":34,"startBeat":72,"startTick":69120,"startTime":27,"velocity":68},{"channel":0,"duration":0.1875,"durationBeats":0.5,"durationTicks":480,"endBeat":73,"endTick":70080,"endTime":27.375,"note":53,"startBeat":72.5,"startTick":69600,"startTime":27.1875,"velocity":68},{"channel":0,"duration":0.1875,"durationBeats":0.5,"durationTicks":480,"endBeat":73,"endTick":70080,"endTime":27.375,"note":57,"startBeat":72.5,"startTick":69600,"startTime":27.1875,"velocity":68},{"channel":0,"duration":0.1875,"durationBeats":0.5,"durationTicks":480,"endBeat":73.5,"endTick":70560,"endTime":27.5625,"note":55,"startBeat":73,"startTick":70080,"startTime":27.375,"velocity":68},{"channel":0,"duration":0.1875,"durationBeats":0.5,"durationTicks":480,"endBeat":73.5,"endTick":70560,"endTime":27.5625,"note":58,"startBeat":73,"startTick":70080,"startTime":27.375,"velocity":68},{"channel":0,"duration":0.375,"durationBeats":1,"durationTicks":960,"endBeat":74,"endTick":71040,"endTime":27.75,"note":38,"startBeat":73,"startTick":70080,"startTime":27.375,"velocity":68},{"channel":0,"duration":0.1875,"durationBeats":0.5,"durationTicks":480,"endBeat":74,"endTick":71040,"endTime":27.75,"note":57,"startBeat":73.5,"startTick":70560,"startTime":27.5625,"velocity":68},{"channel":0,"duration":0.1875,"durationBeats":0.5,"durationTicks":480,"endBeat":74,"endTick":71040,"endTime":27.75,"note":60,"startBeat":73.5,"startTick":70560,"startTime":27.5625,"velocity":68},{"channel":0,"duration":0.1875,"durationBeats":0.5,"durationTicks":480,"endBeat":74.5,"endTick":71520,"endTime":27.9375,"note":58,"startBeat":74,"startTick":71040,"startTime":27.75,"velocity":68},{"channel":0,"duration":0.1875,"durationBeats":0.5,"durationTicks":480,"endBeat":74.5,"endTick":71520,"endTime":27.9375,"note":62,"startBeat":74,"startTick":71040,"startTime":27.75,"velocity":68},{"channel":0,"duration":0.375,"durationBeats":1,"durationTicks":960,"endBeat":75,"endTick":72000,"endTime":28.125,"note":40,"startBeat":74,"startTick":71040,"startTime":27.75,"velocity":68},{"channel":0,"duration":0.1875,"durationBeats":0.5,"durationTicks":480,"endBeat":75,"endTick":72000,"endTime":28.125,"note":60,"startBeat":74.5,"startTick":71520,"startTime":27.9375,"velocity":68},{"channel":0,"duration":0.1875,"durationBeats":0.5,"durationTicks":480,"endBeat":75,"endTick":72000,"endTime":28.125,"note":64,"startBeat":74.5,"startTick":71520,"startTime":27.9375,"velocity":68},{"channel":0,"duration":0.1875,"durationBeats":0.5,"durationTicks":480,"endBeat":75.5,"endTick":72480,"endTime":28.3125,"note":62,"startBeat":75,"startTick":72000,"startTime":28.125,"velocity":68},{"channel":0,"duration":0.1875,"durationBeats":0.5,"durationTicks":480,"endBeat":75.5,"endTick":72480,"endTime":28.3125,"note":65,"startBeat":75,"startTick":72000,"startTime":28.125,"velocity":68},{"channel":0,"duration":0.375,"durationBeats":1,"durationTicks":960,"endBeat":76,"endTick":72960,"endTime":28.5,"note":43,"startBeat":75,"startTick":72000,"startTime":28.125,"velocity":68},{"channel":0,"duration":0.1875,"durationBeats":0.5,"durationTicks":480,"endBeat":76,"endTick":72960,"endTime":28.5,"note":64,"startBeat":75.5,"startTick":72480,"startTime":28.3125,"velocity":68},{"channel":0,"duration":0.1875,"durationBeats":0.5,"durationTicks":480,"endBeat":76,"endTick":72960,"endTime":28.5,"note":67,"startBeat":75.5,"startTick":72480,"startTime":28.3125,"velocity":68},{"channel":0,"duration":0.1875,"durationBeats":0.5,"durationTicks":480,"endBeat":76.5,"endTick":73440,"endTime":28.6875,"note":45,"startBeat":76,"startTick":72960,"startTime":28.5,"velocity":68},{"channel":0,"duration":0.1875,"durationBeats":0.5,"durationTicks":480,"endBeat":76.5,"endTick":73440,"endTime":28.6875,"note":61,"startBeat":76,"startTick":72960,"startTime":28.5,"velocity":68},{"channel":0,"duration":0.1875,"durationBeats":0.5,"durationTicks":480,"endBeat":76.5,"endTick":73440,"endTime":28.6875,"note":64,"startBeat":76,"startTick":72960,"startTime":28.5,"velocity":68},{"channel":0,"duration":0.046875,"durationBeats":0.125,"durationTicks":120,"endBeat":76.625,"endTick":73560,"endTime":28.734375,"note":45,"startBeat":76.5,"startTick":73440,"startTime":28.6875,"velocity":68},{"channel":0,"duration":0.046875,"durationBeats":0.125,"durationTicks":120,"endBeat":76.875,"endTick":73800,"endTime":28.828125,"note":45,"startBeat":76.75,"startTick":73680,"startTime":28.78125,"velocity":68},{"channel":0,"duration":0.1875,"durationBeats":0.5,"durationTicks":480,"endBeat":77.5,"endTick":74400,"endTime":29.0625,"note":45,"startBeat":77,"startTick":73920,"startTime":28.875,"velocity":68},{"channel":0,"duration":0.1875,"durationBeats":0.5,"durationTicks":480,"endBeat":77.5,"endTick":74400,"endTime":29.0625,"note":61,"startBeat":77,"startTick":73920,"startTime":28.875,"velocity":68},{"channel":0,"duration":0.1875,"durationBeats":0.5,"durationTicks":480,"endBeat":77.5,"endTick":74400,"endTime":29.0625,"note":64,"startBeat":77,"startTick":73920,"startTime":28.875,"velocity":68},{"channel":0,"duration":0.1875,"durationBeats":0.5,"durationTicks":480,"endBeat":77.5,"endTick":74400,"endTime":29.0625,"note":69,"startBeat":77,"startTick":73920,"startTime":28.875,"velocity":68},{"channel":0,"duration":0.1875,"durationBeats":0.5,"durationTicks":480,"endBeat":78,"endTick":74880,"endTime":29.25,"note":33,"startBeat":77.5,"startTick":74400,"startTime":29.0625,"velocity":68},{"channel":0,"duration":0.1875,"durationBeats":0.5,"durationTicks":480,"endBeat":78.5,"endTick":75360,"endTime":29.4375,"note":45,"startBeat":78,"startTick":74880,"startTime":29.25,"velocity":68},{"channel":0,"duration":0.1875,"durationBeats":0.5,"durationTicks":480,"endBeat":78.5,"endTick":75360,"endTime":29.4375,"note":73,"startBeat":78,"startTick":74880,"startTime":29.25,"velocity":68},{"channel":0,"duration":0.1875,"durationBeats":0.5,"durationTicks":480,"endBeat":78.5,"endTick":75360,"endTime":29.4375,"note":76,"startBeat":78,"startTick":74880,"startTime":29.25,"velocity":68},{"channel":0,"duration":0.1875,"durationBeats":0.5,"durationTicks":480,"endBeat":78.5,"endTick":75360,"endTime":29.4375,"note":81,"startBeat":78,"startTick":74880,"startTime":29.25,"velocity":68},{"channel":0,"duration":0.1875,"durationBeats":0.5,"durationTicks":480,"endBeat":79,"endTick":75840,"endTime":29.625,"note":33,"startBeat":78.5,"startTick":75360,"startTime":29.4375,"velocity":68},{"channel":0,"duration":0.1875,"durationBeats":0.5,"durationTicks":480,"endBeat":79,"endTick":75840,"endTime":29.625,"note":45,"startBeat":78.5,"startTick":75360,"startTime":29.4375,"velocity":68},{"channel":0,"duration":0.1875,"durationBeats":0.5,"durationTicks":480,"endBeat":79.5,"endTick":76320,"endTime":29.8125,"note":33,"startBeat":79,"startTick":75840,"startTime":29.625,"velocity":68},{"channel":0,"duration":0.1875,"durationBeats":0.5,"durationTicks":480,"endBeat":79.5,"endTick":76320,"endTime":29.8125,"note":45,"startBeat":79,"startTick":75840,"startTime":29.625,"velocity":68},{"channel":0,"duration":0.1875,"durationBeats":0.5,"durationTicks":480,"endBeat":79.5,"endTick":76320,"endTime":29.8125,"note":61,"startBeat":79,"startTick":75840,"startTime":29.625,"velocity":68},{"channel":0,"duration":0.1875,"durationBeats":0.5,"durationTicks":480,"endBeat":79.5,"endTick":76320,"endTime":29.8125,"note":67,"startBeat":79,"startTick":75840,"startTime":29.625,"velocity":68},{"channel":0,"duration":0.1875,"durationBeats":0.5,"durationTicks":480,"endBeat":79.5,"endTick":76320,"endTime":29.8125,"note":72,"startBeat":79,"startTick":75840,"startTime":29.625,"velocity":68},{"channel":0,"duration":0.09375,"durationBeats":0.25,"durationTicks":240,"endBeat":79.75,"endTick":76560,"endTime":29.90625,"note":71,"startBeat":79.5,"startTick":76320,"startTime":29.8125,"velocity":68},{"channel":0,"duration":0.1875,"durationBeats":0.5,"durationTicks":480,"endBeat":80,"endTick":76800,"endTime":30,"note":33,"startBeat":79.5,"startTick":76320,"startTime":29.8125,"velocity":68},{"channel":0,"duration":0.09375,"durationBeats":0.25,"durationTicks":240,"endBeat":80,"endTick":76800,"endTime":30,"note":70,"startBeat":79.75,"startTick":76560,"startTime":29.90625,"velocity":68},{"channel":0,"duration":0.1875,"durationBeats":0.5,"durationTicks":480,"endBeat":80.5,"endTick":77280,"endTime":30.1875,"note":31,"startBeat":80,"startTick":76800,"startTime":30,"velocity":68},{"channel":0,"duration":0.375,"durationBeats":1,"durationTicks":960,"endBeat":81,"endTick":77760,"endTime":30.375,"note":58,"startBeat":80,"startTick":76800,"startTime":30,"velocity":68},{"channel":0,"duration":0.375,"durationBeats":1,"durationTicks":960,"endBeat":81,"endTick":77760,"endTime":30.375,"note":62,"startBeat":80,"startTick":76800,"startTime":30,"velocity":68},{"channel":0,"duration":0.375,"durationBeats":1,"durationTicks":960,"endBeat":81,"endTick":77760,"endTime":30.375,"note":65,"startBeat":80,"startTick":76800,"startTime":30,"velocity":68},{"channel":0,"duration":0.375,"durationBeats":1,"durationTicks":960,"endBeat":81,"endTick":77760,"endTime":30.375,"note":69,"startBeat":80,"startTick":76800,"startTime":30,"velocity":68},{"channel":0,"duration":0.1875,"durationBeats":0.5,"durationTicks":480,"endBeat":81.5,"endTick":78240,"endTime":30.5625,"note":31,"startBeat":81,"startTick":77760,"startTime":30.375,"velocity":68},{"channel":0,"duration":0.1875,"durationBeats":0.5,"durationTicks":480,"endBeat":82.5,"endTick":79200,"endTime":30.9375,"note":33,"startBeat":82,"startTick":78720,"startTime":30.75,"velocity":68},{"channel":0,"duration":0.1875,"durationBeats":0.5,"durationTicks":480,"endBeat":82.5,"endTick":79200,"endTime":30.9375,"note":60,"startBeat":82,"startTick":78720,"startTime":30.75,"velocity":68},{"channel":0,"duration":0.1875,"durationBeats":0.5,"durationTicks":480,"endBeat":82.5,"endTick":79200,"endTime":30.9375,"note":64,"startBeat":82,"startTick":78720,"startTime":30.75,"velocity":68},{"channel":0,"duration":0.1875,"durationBeats":0.5,"durationTicks":480,"endBeat":82.5,"endTick":79200,"endTime":30.9375,"note":67,"startBeat":82,"startTick":78720,"startTime":30.75,"velocity":68},{"channel":0,"duration":0.1875,"durationBeats":0.5,"durationTicks":480,"endBeat":82.5,"endTick":79200,"endTime":30.9375,"note":72,"startBeat":82,"startTick":78720,"startTime":30.75,"velocity":68},{"channel":0,"duration":0.1875,"durationBeats":0.5,"durationTicks":480,"endBeat":83.25,"endTick":79920,"endTime":31.21875,"note":33,"startBeat":82.75,"startTick":79440,"startTime":31.03125,"velocity":68},{"channel":0,"duration":0.1875,"durationBeats":0.5,"durationTicks":480,"endBeat":83.5,"endTick":80160,"endTime":31.3125,"note":61,"startBeat":83,"startTick":79680,"startTime":31.125,"velocity":68},{"channel":0,"duration":0.1875,"durationBeats":0.5,"durationTicks":480,"endBeat":83.5,"endTick":80160,"endTime":31.3125,"note":65,"startBeat":83,"startTick":79680,"startTime":31.125,"velocity":68},{"channel":0,"duration":0.1875,"durationBeats":0.5,"durationTicks":480,"endBeat":83.5,"endTick":80160,"endTime":31.3125,"note":67,"startBeat":83,"startTick":79680,"startTime":31.125,"velocity":68},{"channel":0,"duration":0.1875,"durationBeats":0.5,"durationTicks":480,"endBeat":83.5,"endTick":80160,"endTime":31.3125,"note":70,"startBeat":83,"startTick":79680,"startTime":31.125,"velocity":68},{"channel":0,"duration":0.1875,"durationBeats":0.5,"durationTicks":480,"endBeat":84,"endTick":80640,"endTime":31.5,"note":33,"startBeat":83.5,"startTick":80160,"startTime":31.3125,"velocity":68},{"channel":0,"duration":0.1875,"durationBeats":0.5,"durationTicks":480,"endBeat":84.5,"endTick":81120,"endTime":31.6875,"note":26,"startBeat":84,"startTick":80640,"startTime":31.5,"velocity":68},{"channel":0,"duration":0.1875,"durationBeats":0.5,"durationTicks":480,"endBeat":84.5,"endTick":81120,"endTime":31.6875,"note":60,"startBeat":84,"startTick":80640,"startTime":31.5,"velocity":68},{"channel":0,"duration":0.1875,"durationBeats":0.5,"durationTicks":480,"endBeat":84.5,"endTick":81120,"endTime":31.6875,"note":64,"startBeat":84,"startTick":80640,"startTime":31.5,"velocity":68},{"channel":0,"duration":0.1875,"durationBeats":0.5,"durationTicks":480,"endBeat":84.5,"endTick":81120,"endTime":31.6875,"note":65,"startBeat":84,"startTick":80640,"startTime":31.5,"velocity":68},{"channel":0,"duration":0.1875,"durationBeats":0.5,"durationTicks":480,"endBeat":84.5,"endTick":81120,"endTime":31.6875,"note":69,"startBeat":84,"startTick":80640,"startTime":31.5,"velocity":68},{"channel":0,"duration":0.1875,"durationBeats":0.5,"durationTicks":480,"endBeat":85.5,"endTick":82080,"endTime":32.0625,"note":26,"startBeat":85,"startTick":81600,"startTime":31.875,"velocity":68},{"channel":0,"duration":0.1875,"durationBeats":0.5,"durationTicks":480,"endBeat":86.5,"endTick":83040,"endTime":32.4375,"note":38,"startBeat":86,"startTick":82560,"startTime":32.25,"velocity":68},{"channel":0,"duration":0.1875,"durationBeats":0.5,"durationTicks":480,"endBeat":86.5,"endTick":83040,"endTime":32.4375,"note":60,"startBeat":86,"startTick":82560,"startTime":32.25,"velocity":68},{"channel":0,"duration":0.1875,"durationBeats":0.5,"durationTicks":480,"endBeat":86.5,"endTick":83040,"endTime":32.4375,"note":64,"startBeat":86,"startTick":82560,"startTime":32.25,"velocity":68},{"channel":0,"duration":0.1875,"durationBeats":0.5,"durationTicks":480,"endBeat":86.5,"endTick":83040,"endTime":32.4375,"note":65,"startBeat":86,"startTick":82560,"startTime":32.25,"velocity":68},{"channel":0,"duration":0.1875,"durationBeats":0.5,"durationTicks":480,"endBeat":86.5,"endTick":83040,"endTime":32.4375,"note":69,"startBeat":86,"startTick":82560,"startTime":32.25,"velocity":68},{"channel":0,"duration":0.1875,"durationBeats":0.5,"durationTicks":480,"endBeat":87.25,"endTick":83760,"endTime":32.71875,"note":33,"startBeat":86.75,"startTick":83280,"startTime":32.53125,"velocity":68},{"channel":0,"duration":0.1875,"durationBeats":0.5,"durationTicks":480,"endBeat":87.5,"endTick":84000,"endTime":32.8125,"note":59,"startBeat":87,"startTick":83520,"startTime":32.625,"velocity":68},{"channel":0,"duration":0.1875,"durationBeats":0.5,"durationTicks":480,"endBeat":87.5,"endTick":84000,"endTime":32.8125,"note":63,"startBeat":87,"startTick":83520,"startTime":32.625,"velocity":68},{"channel":0,"duration":0.1875,"durationBeats":0.5,"durationTicks":480,"endBeat":87.5,"endTick":84000,"endTime":32.8125,"note":68,"startBeat":87,"startTick":83520,"startTime":32.625,"velocity":68},{"channel":0,"duration":0.1875,"durationBeats":0.5,"durationTicks":480,"endBeat":88,"endTick":84480,"endTime":33,"note":32,"startBeat":87.5,"startTick":84000,"startTime":32.8125,"velocity":68},{"channel":0,"duration":0.1875,"durationBeats":0.5,"durationTicks":480,"endBeat":88.5,"endTick":84960,"endTime":33.1875,"note":31,"startBeat":88,"startTick":84480,"startTime":33,"velocity":68},{"channel":0,"duration":0.375,"durationBeats":1,"durationTicks":960,"endBeat":89,"endTick":85440,"endTime":33.375,"note":58,"startBeat":88,"startTick":84480,"startTime":33,"velocity":68},{"channel":0,"duration":0.375,"durationBeats":1,"durationTicks":960,"endBeat":89,"endTick":85440,"endTime":33.375,"note":62,"startBeat":88,"startTick":84480,"startTime":33,"velocity":68},{"channel":0,"duration":0.375,"durationBeats":1,"durationTicks":960,"endBeat":89,"endTick":85440,"endTime":33.375,"note":65,"startBeat":88,"startTick":84480,"startTime":33,"velocity":68},{"channel":0,"duration":0.375,"durationBeats":1,"durationTicks":960,"endBeat":89,"endTick":85440,"endTime":33.375,"note":69,"startBeat":88,"startTick":84480,"startTime":33,"velocity":68},{"channel":0,"duration":0.1875,"durationBeats":0.5,"durationTicks":480,"endBeat":89.5,"endTick":85920,"endTime":33.5625,"note":31,"startBeat":89,"startTick":85440,"startTime":33.375,"velocity":68},{"channel":0,"duration":0.1875,"durationBeats":0.5,"durationTicks":480,"endBeat":90.5,"endTick":86880,"endTime":33.9375,"note":33,"startBeat":90,"startTick":86400,"startTime":33.75,"velocity":68},{"channel":0,"duration":0.1875,"durationBeats":0.5,"durationTicks":480,"endBeat":90.5,"endTick":86880,"endTime":33.9375,"note":60,"startBeat":90,"startTick":86400,"startTime":33.75,"velocity":68},{"channel":0,"duration":0.1875,"durationBeats":0.5,"durationTicks":480,"endBeat":90.5,"endTick":86880,"endTime":33.9375,"note":64,"startBeat":90,"startTick":86400,"startTime":33.75,"velocity":68},{"channel":0,"duration":0.1875,"durationBeats":0.5,"durationTicks":480,"endBeat":90.5,"endTick":86880,"endTime":33.9375,"note":67,"startBeat":90,"startTick":86400,"startTime":33.75,"velocity":68},{"channel":0,"duration":0.1875,"durationBeats":0.5,"durationTicks":480,"endBeat":90.5,"endTick":86880,"endTime":33.9375,"note":72,"startBeat":90,"startTick":86400,"startTime":33.75,"velocity":68},{"channel":0,"duration":0.1875,"durationBeats":0.5,"durationTicks":480,"endBeat":91.25,"endTick":87600,"endTime":34.21875,"note":33,"startBeat":90.75,"startTick":87120,"startTime":34.03125,"velocity":68},{"channel":0,"duration":0.1875,"durationBeats":0.5,"durationTicks":480,"endBeat":91.5,"endTick":87840,"endTime":34.3125,"note":61,"startBeat":91,"startTick":87360,"startTime":34.125,"velocity":68},{"channel":0,"duration":0.1875,"durationBeats":0.5,"durationTicks":480,"endBeat":91.5,"endTick":87840,"endTime":34.3125,"note":65,"startBeat":91,"startTick":87360,"startTime":34.125,"velocity":68},{"channel":0,"duration":0.1875,"durationBeats":0.5,"durationTicks":480,"endBeat":91.5,"endTick":87840,"endTime":34.3125,"note":67,"startBeat":91,"startTick":87360,"startTime":34.125,"velocity":68},{"channel":0,"duration":0.1875,"durationBeats":0.5,"durationTicks":480,"endBeat":91.5,"endTick":87840,"endTime":34.3125,"note":70,"startBeat":91,"startTick":87360,"startTime":34.125,"velocity":68},{"channel":0,"duration":0.1875,"durationBeats":0.5,"durationTicks":480,"endBeat":92,"endTick":88320,"endTime":34.5,"note":33,"startBeat":91.5,"startTick":87840,"startTime":34.3125,"velocity":68},{"channel":0,"duration":0.1875,"durationBeats":0.5,"durationTicks":480,"endBeat":92.5,"endTick":88800,"endTime":34.6875,"note":26,"startBeat":92,"startTick":88320,"startTime":34.5,"velocity":68},{"channel":0,"duration":0.1875,"durationBeats":0.5,"durationTicks":480,"endBeat":92.5,"endTick":88800,"endTime":34.6875,"note":60,"startBeat":92,"startTick":88320,"startTime":34.5,"velocity":68},{"channel":0,"duration":0.1875,"durationBeats":0.5,"durationTicks":480,"endBeat":92.5,"endTick":88800,"endTime":34.6875,"note":64,"startBeat":92,"startTick":88320,"startTime":34.5,"velocity":68},{"channel":0,"duration":0.1875,"durationBeats":0.5,"durationTicks":480,"endBeat":92.5,"endTick":88800,"endTime":34.6875,"note":65,"startBeat":92,"startTick":88320,"startTime":34.5,"velocity":68},{"channel":0,"duration":0.1875,"durationBeats":0.5,"durationTicks":480,"endBeat":92.5,"endTick":88800,"endTime":34.6875,"note":69,"startBeat":92,"startTick":88320,"startTime":34.5,"velocity":68},{"channel":0,"duration":0.1875,"durationBeats":0.5,"durationTicks":480,"endBeat":93.5,"endTick":89760,"endTime":35.0625,"note":26,"startBeat":93,"startTick":89280,"startTime":34.875,"velocity":68},{"channel":0,"duration":0.1875,"durationBeats":0.5,"durationTicks":480,"endBeat":94.5,"endTick":90720,"endTime":35.4375,"note":38,"startBeat":94,"startTick":90240,"startTime":35.25,"velocity":68},{"channel":0,"duration":0.1875,"durationBeats":0.5,"durationTicks":480,"endBeat":94.5,"endTick":90720,"endTime":35.4375,"note":60,"startBeat":94,"startTick":90240,"startTime":35.25,"velocity":68},{"channel":0,"duration":0.1875,"durationBeats":0.5,"durationTicks":480,"endBeat":94.5,"endTick":90720,"endTime":35.4375,"note":64,"startBeat":94,"startTick":90240,"startTime":35.25,"velocity":68},{"channel":0,"duration":0.1875,"durationBeats":0.5,"durationTicks":480,"endBeat":94.5,"endTick":90720,"endTime":35.4375,"note":65,"startBeat":94,"startTick":90240,"startTime":35.25,"velocity":68},{"channel":0,"duration":0.1875,"durationBeats":0.5,"durationTicks":480,"endBeat":94.5,"endTick":90720,"endTime":35.4375,"note":69,"startBeat":94,"startTick":90240,"startTime":35.25,"velocity":68},{"channel":0,"duration":0.1875,"durationBeats":0.5,"durationTicks":480,"endBeat":95.25,"endTick":91440,"endTime":35.71875,"note":33,"startBeat":94.75,"startTick":90960,"startTime":35.53125,"velocity":68},{"channel":0,"duration":0.1875,"durationBeats":0.5,"durationTicks":480,"endBeat":95.5,"endTick":91680,"endTime":35.8125,"note":69,"startBeat":95,"startTick":91200,"startTime":35.625,"velocity":68},{"channel":0,"duration":0.1875,"durationBeats":0.5,"durationTicks":480,"endBeat":95.5,"endTick":91680,"endTime":35.8125,"note":72,"startBeat":95,"startTick":91200,"startTime":35.625,"velocity":68},{"channel":0,"duration":0.1875,"durationBeats":0.5,"durationTicks":480,"endBeat":95.5,"endTick":91680,"endTime":35.8125,"note":74,"startBeat":95,"startTick":91200,"startTime":35.625,"velocity":68},{"channel":0,"duration":0.1875,"durationBeats":0.5,"durationTicks":480,"endBeat":95.5,"endTick":91680,"endTime":35.8125,"note":77,"startBeat":95,"startTick":91200,"startTime":35.625,"velocity":68},{"channel":0,"duration":0.1875,"durationBeats":0.5,"durationTicks":480,"endBeat":96,"endTick":92160,"endTime":36,"note":32,"startBeat":95.5,"startTick":91680,"startTime":35.8125,"velocity":68},{"channel":0,"duration":0.1875,"durationBeats":0.5,"durationTicks":480,"endBeat":96.5,"endTick":92640,"endTime":36.1875,"note":31,"startBeat":96,"startTick":92160,"startTime":36,"velocity":68},{"channel":0,"duration":0.375,"durationBeats":1,"durationTicks":960,"endBeat":97,"endTick":93120,"endTime":36.375,"note":58,"startBeat":96,"startTick":92160,"startTime":36,"velocity":68},{"channel":0,"duration":0.375,"durationBeats":1,"durationTicks":960,"endBeat":97,"endTick":93120,"endTime":36.375,"note":62,"startBeat":96,"startTick":92160,"startTime":36,"velocity":68},{"channel":0,"duration":0.375,"durationBeats":1,"durationTicks":960,"endBeat":97,"endTick":93120,"endTime":36.375,"note":65,"startBeat":96,"startTick":92160,"startTime":36,"velocity":68},{"channel":0,"duration":0.375,"durationBeats":1,"durationTicks":960,"endBeat":97,"endTick":93120,"endTime":36.375,"note":69,"startBeat":96,"startTick":92160,"startTime":36,"velocity":68},{"channel":0,"duration":0.1875,"durationBeats":0.5,"durationTicks":480,"endBeat":97.5,"endTick":93600,"endTime":36.5625,"note":31,"startBeat":97,"startTick":93120,"startTime":36.375,"velocity":68},{"channel":0,"duration":0.1875,"durationBeats":0.5,"durationTicks":480,"endBeat":98.5,"endTick":94560,"endTime":36.9375,"note":33,"startBeat":98,"startTick":94080,"startTime":36.75,"velocity":68},{"channel":0,"duration":0.1875,"durationBeats":0.5,"durationTicks":480,"endBeat":98.5,"endTick":94560,"endTime":36.9375,"note":60,"startBeat":98,"startTick":94080,"startTime":36.75,"velocity":68},{"channel":0,"duration":0.1875,"durationBeats":0.5,"durationTicks":480,"endBeat":98.5,"endTick":94560,"endTime":36.9375,"note":64,"startBeat":98,"startTick":94080,"startTime":36.75,"velocity":68},{"channel":0,"duration":0.1875,"durationBeats":0.5,"durationTicks":480,"endBeat":98.5,"endTick":94560,"endTime":36.9375,"note":67,"startBeat":98,"startTick":94080,"startTime":36.75,"velocity":68},{"channel":0,"duration":0.1875,"durationBeats":0.5,"durationTicks":480,"endBeat":98.5,"endTick":94560,"endTime":36.9375,"note":72,"startBeat":98,"startTick":94080,"startTime":36.75,"velocity":68},{"channel":0,"duration":0.1875,"durationBeats":0.5,"durationTicks":480,"endBeat":99.25,"endTick":95280,"endTime":37.21875,"note":33,"startBeat":98.75,"startTick":94800,"startTime":37.03125,"velocity":68},{"channel":0,"duration":0.1875,"durationBeats":0.5,"durationTicks":480,"endBeat":99.5,"endTick":95520,"endTime":37.3125,"note":61,"startBeat":99,"startTick":95040,"startTime":37.125,"velocity":68},{"channel":0,"duration":0.1875,"durationBeats":0.5,"durationTicks":480,"endBeat":99.5,"endTick":95520,"endTime":37.3125,"note":65,"startBeat":99,"startTick":95040,"startTime":37.125,"velocity":68},{"channel":0,"duration":0.1875,"durationBeats":0.5,"durationTicks":480,"endBeat":99.5,"endTick":95520,"endTime":37.3125,"note":67,"startBeat":99,"startTick":95040,"startTime":37.125,"velocity":68},{"channel":0,"duration":0.1875,"durationBeats":0.5,"durationTicks":480,"endBeat":99.5,"endTick":95520,"endTime":37.3125,"note":70,"startBeat":99,"startTick":95040,"startTime":37.125,"velocity":68},{"channel":0,"duration":0.1875,"durationBeats":0.5,"durationTicks":480,"endBeat":100,"endTick":96000,"endTime":37.5,"note":33,"startBeat":99.5,"startTick":95520,"startTime":37.3125,"velocity":68},{"channel":0,"duration":0.1875,"durationBeats":0.5,"durationTicks":480,"endBeat":100.5,"endTick":96480,"endTime":37.6875,"note":26,"startBeat":100,"startTick":96000,"startTime":37.5,"velocity":68},{"channel":0,"duration":0.1875,"durationBeats":0.5,"durationTicks":480,"endBeat":100.5,"endTick":96480,"endTime":37.6875,"note":60,"startBeat":100,"startTick":96000,"startTime":37.5,"velocity":68},{"channel":0,"duration":0.1875,"durationBeats":0.5,"durationTicks":480,"endBeat":100.5,"endTick":96480,"endTime":37.6875,"note":64,"startBeat":100,"startTick":96000,"startTime":37.5,"velocity":68},{"channel":0,"duration":0.1875,"durationBeats":0.5,"durationTicks":480,"endBeat":100.5,"endTick":96480,"endTime":37.6875,"note":65,"startBeat":100,"startTick":96000,"startTime":37.5,"velocity":68},{"channel":0,"duration":0.1875,"durationBeats":0.5,"durationTicks":480,"endBeat":100.5,"endTick":96480,"endTime":37.6875,"note":69,"startBeat":100,"startTick":96000,"startTime":37.5,"velocity":68},{"channel":0,"duration":0.1875,"durationBeats":0.5,"durationTicks":480,"endBeat":101.5,"endTick":97440,"endTime":38.0625,"note":26,"startBeat":101,"startTick":96960,"startTime":37.875,"velocity":68},{"channel":0,"duration":0.1875,"durationBeats":0.5,"durationTicks":480,"endBeat":102.5,"endTick":98400,"endTime":38.4375,"note":38,"startBeat":102,"startTick":97920,"startTime":38.25,"velocity":68},{"channel":0,"duration":0.1875,"durationBeats":0.5,"durationTicks":480,"endBeat":102.5,"endTick":98400,"endTime":38.4375,"note":60,"startBeat":102,"startTick":97920,"startTime":38.25,"velocity":68},{"channel":0,"duration":0.1875,"durationBeats":0.5,"durationTicks":480,"endBeat":102.5,"endTick":98400,"endTime":38.4375,"note":64,"startBeat":102,"startTick":97920,"startTime":38.25,"velocity":68},{"channel":0,"duration":0.1875,"durationBeats":0.5,"durationTicks":480,"endBeat":102.5,"endTick":98400,"endTime":38.4375,"note":65,"startBeat":102,"startTick":97920,"startTime":38.25,"velocity":68},{"channel":0,"duration":0.1875,"durationBeats":0.5,"durationTicks":480,"endBeat":102.5,"endTick":98400,"endTime":38.4375,"note":69,"startBeat":102,"startTick":97920,"startTime":38.25,"velocity":68},{"channel":0,"duration":0.1875,"durationBeats":0.5,"durationTicks":480,"endBeat":103.25,"endTick":99120,"endTime":38.71875,"note":33,"startBeat":102.75,"startTick":98640,"startTime":38.53125,"velocity":68},{"channel":0,"duration":0.1875,"durationBeats":0.5,"durationTicks":480,"endBeat":103.5,"endTick":99360,"endTime":38.8125,"note":59,"startBeat":103,"startTick":98880,"startTime":38.625,"velocity":68},{"channel":0,"duration":0.1875,"durationBeats":0.5,"durationTicks":480,"endBeat":103.5,"endTick":99360,"endTime":38.8125,"note":63,"startBeat":103,"startTick":98880,"startTime":38.625,"velocity":68},{"channel":0,"duration":0.1875,"durationBeats":0.5,"durationTicks":480,"endBeat":103.5,"endTick":99360,"endTime":38.8125,"note":68,"startBeat":103,"startTick":98880,"startTime":38.625,"velocity":68},{"channel":0,"duration":0.1875,"durationBeats":0.5,"durationTicks":480,"endBeat":104,"endTick":99840,"endTime":39,"note":32,"startBeat":103.5,"startTick":99360,"startTime":38.8125,"velocity":68},{"channel":0,"duration":0.1875,"durationBeats":0.5,"durationTicks":480,"endBeat":104.5,"endTick":100320,"endTime":39.1875,"note":31,"startBeat":104,"startTick":99840,"startTime":39,"velocity":68},{"channel":0,"duration":0.375,"durationBeats":1,"durationTicks":960,"endBeat":105,"endTick":100800,"endTime":39.375,"note":58,"startBeat":104,"startTick":99840,"startTime":39,"velocity":68},{"channel":0,"duration":0.375,"durationBeats":1,"durationTicks":960,"endBeat":105,"endTick":100800,"endTime":39.375,"note":62,"startBeat":104,"startTick":99840,"startTime":39,"velocity":68},{"channel":0,"duration":0.375,"durationBeats":1,"durationTicks":960,"endBeat":105,"endTick":100800,"endTime":39.375,"note":65,"startBeat":104,"startTick":99840,"startTime":39,"velocity":68},{"channel":0,"duration":0.375,"durationBeats":1,"durationTicks":960,"endBeat":105,"endTick":100800,"endTime":39.375,"note":69,"startBeat":104,"startTick":99840,"startTime":39,"velocity":68},{"channel":0,"duration":0.1875,"durationBeats":0.5,"durationTicks":480,"endBeat":105.5,"endTick":101280,"endTime":39.5625,"note":31,"startBeat":105,"startTick":100800,"startTime":39.375,"velocity":68},{"channel":0,"duration":0.1875,"durationBeats":0.5,"durationTicks":480,"endBeat":106.5,"endTick":102240,"endTime":39.9375,"note":33,"startBeat":106,"startTick":101760,"startTime":39.75,"velocity":68},{"channel":0,"duration":0.1875,"durationBeats":0.5,"durationTicks":480,"endBeat":106.5,"endTick":102240,"endTime":39.9375,"note":60,"startBeat":106,"startTick":101760,"startTime":39.75,"velocity":68},{"channel":0,"duration":0.1875,"durationBeats":0.5,"durationTicks":480,"endBeat":106.5,"endTick":102240,"endTime":39.9375,"note":64,"startBeat":106,"startTick":101760,"startTime":39.75,"velocity":68},{"channel":0,"duration":0.1875,"durationBeats":0.5,"durationTicks":480,"endBeat":106.5,"endTick":102240,"endTime":39.9375,"note":67,"startBeat":106,"startTick":101760,"startTime":39.75,"velocity":68},{"channel":0,"duration":0.1875,"durationBeats":0.5,"durationTicks":480,"endBeat":106.5,"endTick":102240,"endTime":39.9375,"note":72,"startBeat":106,"startTick":101760,"startTime":39.75,"velocity":68},{"channel":0,"duration":0.1875,"durationBeats":0.5,"durationTicks":480,"endBeat":107.25,"endTick":102960,"endTime":40.21875,"note":33,"startBeat":106.75,"startTick":102480,"startTime":40.03125,"velocity":68},{"channel":0,"duration":0.1875,"durationBeats":0.5,"durationTicks":480,"endBeat":107.5,"endTick":103200,"endTime":40.3125,"note":61,"startBeat":107,"startTick":102720,"startTime":40.125,"velocity":68},{"channel":0,"duration":0.1875,"durationBeats":0.5,"durationTicks":480,"endBeat":107.5,"endTick":103200,"endTime":40.3125,"note":65,"startBeat":107,"startTick":102720,"startTime":40.125,"velocity":68},{"channel":0,"duration":0.1875,"durationBeats":0.5,"durationTicks":480,"endBeat":107.5,"endTick":103200,"endTime":40.3125,"note":67,"startBeat":107,"startTick":102720,"startTime":40.125,"velocity":68},{"channel":0,"duration":0.1875,"durationBeats":0.5,"durationTicks":480,"endBeat":107.5,"endTick":103200,"endTime":40.3125,"note":70,"startBeat":107,"startTick":102720,"startTime":40.125,"velocity":68},{"channel":0,"duration":0.1875,"durationBeats":0.5,"durationTicks":480,"endBeat":108,"endTick":103680,"endTime":40.5,"note":33,"startBeat":107.5,"startTick":103200,"startTime":40.3125,"velocity":68},{"channel":0,"duration":0.1875,"durationBeats":0.5,"durationTicks":480,"endBeat":108.5,"endTick":104160,"endTime":40.6875,"note":26,"startBeat":108,"startTick":103680,"startTime":40.5,"velocity":68},{"channel":0,"duration":0.1875,"durationBeats":0.5,"durationTicks":480,"endBeat":108.5,"endTick":104160,"endTime":40.6875,"note":60,"startBeat":108,"startTick":103680,"startTime":40.5,"velocity":68},{"channel":0,"duration":0.1875,"durationBeats":0.5,"durationTicks":480,"endBeat":108.5,"endTick":104160,"endTime":40.6875,"note":64,"startBeat":108,"startTick":103680,"startTime":40.5,"velocity":68},{"channel":0,"duration":0.1875,"durationBeats":0.5,"durationTicks":480,"endBeat":108.5,"endTick":104160,"endTime":40.6875,"note":65,"startBeat":108,"startTick":103680,"startTime":40.5,"velocity":68},{"channel":0,"duration":0.1875,"durationBeats":0.5,"durationTicks":480,"endBeat":108.5,"endTick":104160,"endTime":40.6875,"note":69,"startBeat":108,"startTick":103680,"startTime":40.5,"velocity":68},{"channel":0,"duration":0.1875,"durationBeats":0.5,"durationTicks":480,"endBeat":109.5,"endTick":105120,"endTime":41.0625,"note":26,"startBeat":109,"startTick":104640,"startTime":40.875,"velocity":68},{"channel":0,"duration":0.1875,"durationBeats":0.5,"durationTicks":480,"endBeat":110.5,"endTick":106080,"endTime":41.4375,"note":38,"startBeat":110,"startTick":105600,"startTime":41.25,"velocity":68},{"channel":0,"duration":0.1875,"durationBeats":0.5,"durationTicks":480,"endBeat":110.5,"endTick":106080,"endTime":41.4375,"note":60,"startBeat":110,"startTick":105600,"startTime":41.25,"velocity":68},{"channel":0,"duration":0.1875,"durationBeats":0.5,"durationTicks":480,"endBeat":110.5,"endTick":106080,"endTime":41.4375,"note":64,"startBeat":110,"startTick":105600,"startTime":41.25,"velocity":68},{"channel":0,"duration":0.1875,"durationBeats":0.5,"durationTicks":480,"endBeat":110.5,"endTick":106080,"endTime":41.4375,"note":65,"startBeat":110,"startTick":105600,"startTime":41.25,"velocity":68},{"channel":0,"duration":0.1875,"durationBeats":0.5,"durationTicks":480,"endBeat":110.5,"endTick":106080,"endTime":41.4375,"note":69,"startBeat":110,"startTick":105600,"startTime":41.25,"velocity":68},{"channel":0,"duration":0.1875,"durationBeats":0.5,"durationTicks":480,"endBeat":111.25,"endTick":106800,"endTime":41.71875,"note":33,"startBeat":110.75,"startTick":106320,"startTime":41.53125,"velocity":68},{"channel":0,"duration":0.1875,"durationBeats":0.5,"durationTicks":480,"endBeat":111.5,"endTick":107040,"endTime":41.8125,"note":59,"startBeat":111,"startTick":106560,"startTime":41.625,"velocity":68},{"channel":0,"duration":0.1875,"durationBeats":0.5,"durationTicks":480,"endBeat":111.5,"endTick":107040,"endTime":41.8125,"note":63,"startBeat":111,"startTick":106560,"startTime":41.625,"velocity":68},{"channel":0,"duration":0.1875,"durationBeats":0.5,"durationTicks":480,"endBeat":111.5,"endTick":107040,"endTime":41.8125,"note":68,"startBeat":111,"startTick":106560,"startTime":41.625,"velocity":68},{"channel":0,"duration":0.1875,"durationBeats":0.5,"durationTicks":480,"endBeat":112,"endTick":107520,"endTime":42,"note":32,"startBeat":111.5,"startTick":107040,"startTime":41.8125,"velocity":68},{"channel":0,"duration":0.1875,"durationBeats":0.5,"durationTicks":480,"endBeat":112.5,"endTick":108000,"endTime":42.1875,"note":31,"startBeat":112,"startTick":107520,"startTime":42,"velocity":68},{"channel":0,"duration":0.375,"durationBeats":1,"durationTicks":960,"endBeat":113,"endTick":108480,"endTime":42.375,"note":58,"startBeat":112,"startTick":107520,"startTime":42,"velocity":68},{"channel":0,"duration":0.375,"durationBeats":1,"durationTicks":960,"endBeat":113,"endTick":108480,"endTime":42.375,"note":62,"startBeat":112,"startTick":107520,"startTime":42,"velocity":68},{"channel":0,"duration":0.375,"durationBeats":1,"durationTicks":960,"endBeat":113,"endTick":108480,"endTime":42.375,"note":65,"startBeat":112,"startTick":107520,"startTime":42,"velocity":68},{"channel":0,"duration":0.375,"durationBeats":1,"durationTicks":960,"endBeat":113,"endTick":108480,"endTime":42.375,"note":69,"startBeat":112,"startTick":107520,"startTime":42,"velocity":68},{"channel":0,"duration":0.1875,"durationBeats":0.5,"durationTicks":480,"endBeat":113.5,"endTick":108960,"endTime":42.5625,"note":31,"startBeat":113,"startTick":108480,"startTime":42.375,"velocity":68},{"channel":0,"duration":0.1875,"durationBeats":0.5,"durationTicks":480,"endBeat":114.5,"endTick":109920,"endTime":42.9375,"note":33,"startBeat":114,"startTick":109440,"startTime":42.75,"velocity":68},{"channel":0,"duration":0.1875,"durationBeats":0.5,"durationTicks":480,"endBeat":114.5,"endTick":109920,"endTime":42.9375,"note":60,"startBeat":114,"startTick":109440,"startTime":42.75,"velocity":68},{"channel":0,"duration":0.1875,"durationBeats":0.5,"durationTicks":480,"endBeat":114.5,"endTick":109920,"endTime":42.9375,"note":64,"startBeat":114,"startTick":109440,"startTime":42.75,"velocity":68},{"channel":0,"duration":0.1875,"durationBeats":0.5,"durationTicks":480,"endBeat":114.5,"endTick":109920,"endTime":42.9375,"note":67,"startBeat":114,"startTick":109440,"startTime":42.75,"velocity":68},{"channel":0,"duration":0.1875,"durationBeats":0.5,"durationTicks":480,"endBeat":114.5,"endTick":109920,"endTime":42.9375,"note":72,"startBeat":114,"startTick":109440,"startTime":42.75,"velocity":68},{"channel":0,"duration":0.1875,"durationBeats":0.5,"durationTicks":480,"endBeat":115.25,"endTick":110640,"endTime":43.21875,"note":33,"startBeat":114.75,"startTick":110160,"startTime":43.03125,"velocity":68},{"channel":0,"duration":0.1875,"durationBeats":0.5,"durationTicks":480,"endBeat":115.5,"endTick":110880,"endTime":43.3125,"note":61,"startBeat":115,"startTick":110400,"startTime":43.125,"velocity":68},{"channel":0,"duration":0.1875,"durationBeats":0.5,"durationTicks":480,"endBeat":115.5,"endTick":110880,"endTime":43.3125,"note":65,"startBeat":115,"startTick":110400,"startTime":43.125,"velocity":68},{"channel":0,"duration":0.1875,"durationBeats":0.5,"durationTicks":480,"endBeat":115.5,"endTick":110880,"endTime":43.3125,"note":67,"startBeat":115,"startTick":110400,"startTime":43.125,"velocity":68},{"channel":0,"duration":0.1875,"durationBeats":0.5,"durationTicks":480,"endBeat":115.5,"endTick":110880,"endTime":43.3125,"note":70,"startBeat":115,"startTick":110400,"startTime":43.125,"velocity":68},{"channel":0,"duration":0.1875,"durationBeats":0.5,"durationTicks":480,"endBeat":116,"endTick":111360,"endTime":43.5,"note":33,"startBeat":115.5,"startTick":110880,"startTime":43.3125,"velocity":68},{"channel":0,"duration":0.1875,"durationBeats":0.5,"durationTicks":480,"endBeat":116.5,"endTick":111840,"endTime":43.6875,"note":26,"startBeat":116,"startTick":111360,"startTime":43.5,"velocity":68},{"channel":0,"duration":0.1875,"durationBeats":0.5,"durationTicks":480,"endBeat":116.5,"endTick":111840,"endTime":43.6875,"note":60,"startBeat":116,"startTick":111360,"startTime":43.5,"velocity":68},{"channel":0,"duration":0.1875,"durationBeats":0.5,"durationTicks":480,"endBeat":116.5,"endTick":111840,"endTime":43.6875,"note":64,"startBeat":116,"startTick":111360,"startTime":43.5,"velocity":68},{"channel":0,"duration":0.1875,"durationBeats":0.5,"durationTicks":480,"endBeat":116.5,"endTick":111840,"endTime":43.6875,"note":65,"startBeat":116,"startTick":111360,"startTime":43.5,"velocity":68},{"channel":0,"duration":0.1875,"durationBeats":0.5,"durationTicks":480,"endBeat":116.5,"endTick":111840,"endTime":43.6875,"note":69,"startBeat":116,"startTick":111360,"startTime":43.5,"velocity":68},{"channel":0,"duration":0.1875,"durationBeats":0.5,"durationTicks":480,"endBeat":117.5,"endTick":112800,"endTime":44.0625,"note":26,"startBeat":117,"startTick":112320,"startTime":43.875,"velocity":68},{"channel":0,"duration":0.1875,"durationBeats":0.5,"durationTicks":480,"endBeat":118.5,"endTick":113760,"endTime":44.4375,"note":38,"startBeat":118,"startTick":113280,"startTime":44.25,"velocity":68},{"channel":0,"duration":0.1875,"durationBeats":0.5,"durationTicks":480,"endBeat":118.5,"endTick":113760,"endTime":44.4375,"note":60,"startBeat":118,"startTick":113280,"startTime":44.25,"velocity":68},{"channel":0,"duration":0.1875,"durationBeats":0.5,"durationTicks":480,"endBeat":118.5,"endTick":113760,"endTime":44.4375,"note":64,"startBeat":118,"startTick":113280,"startTime":44.25,"velocity":68},{"channel":0,"duration":0.1875,"durationBeats":0.5,"durationTicks":480,"endBeat":118.5,"endTick":113760,"endTime":44.4375,"note":65,"startBeat":118,"startTick":113280,"startTime":44.25,"velocity":68},{"channel":0,"duration":0.1875,"durationBeats":0.5,"durationTicks":480,"endBeat":118.5,"endTick":113760,"endTime":44.4375,"note":69,"startBeat":118,"startTick":113280,"startTime":44.25,"velocity":68},{"channel":0,"duration":0.1875,"durationBeats":0.5,"durationTicks":480,"endBeat":119.25,"endTick":114480,"endTime":44.71875,"note":33,"startBeat":118.75,"startTick":114000,"startTime":44.53125,"velocity":68},{"channel":0,"duration":0.1875,"durationBeats":0.5,"durationTicks":480,"endBeat":119.5,"endTick":114720,"endTime":44.8125,"note":59,"startBeat":119,"startTick":114240,"startTime":44.625,"velocity":68},{"channel":0,"duration":0.1875,"durationBeats":0.5,"durationTicks":480,"endBeat":119.5,"endTick":114720,"endTime":44.8125,"note":63,"startBeat":119,"startTick":114240,"startTime":44.625,"velocity":68},{"channel":0,"duration":0.1875,"durationBeats":0.5,"durationTicks":480,"endBeat":119.5,"endTick":114720,"endTime":44.8125,"note":68,"startBeat":119,"startTick":114240,"startTime":44.625,"velocity":68},{"channel":0,"duration":0.1875,"durationBeats":0.5,"durationTicks":480,"endBeat":120,"endTick":115200,"endTime":45,"note":32,"startBeat":119.5,"startTick":114720,"startTime":44.8125,"velocity":68},{"channel":0,"duration":0.1875,"durationBeats":0.5,"durationTicks":480,"endBeat":120.5,"endTick":115680,"endTime":45.1875,"note":31,"startBeat":120,"startTick":115200,"startTime":45,"velocity":68},{"channel":0,"duration":0.375,"durationBeats":1,"durationTicks":960,"endBeat":121,"endTick":116160,"endTime":45.375,"note":58,"startBeat":120,"startTick":115200,"startTime":45,"velocity":68},{"channel":0,"duration":0.375,"durationBeats":1,"durationTicks":960,"endBeat":121,"endTick":116160,"endTime":45.375,"note":62,"startBeat":120,"startTick":115200,"startTime":45,"velocity":68},{"channel":0,"duration":0.375,"durationBeats":1,"durationTicks":960,"endBeat":121,"endTick":116160,"endTime":45.375,"note":65,"startBeat":120,"startTick":115200,"startTime":45,"velocity":68},{"channel":0,"duration":0.375,"durationBeats":1,"durationTicks":960,"endBeat":121,"endTick":116160,"endTime":45.375,"note":69,"startBeat":120,"startTick":115200,"startTime":45,"velocity":68},{"channel":0,"duration":0.1875,"durationBeats":0.5,"durationTicks":480,"endBeat":121.5,"endTick":116640,"endTime":45.5625,"note":31,"startBeat":121,"startTick":116160,"startTime":45.375,"velocity":68},{"channel":0,"duration":0.1875,"durationBeats":0.5,"durationTicks":480,"endBeat":122.5,"endTick":117600,"endTime":45.9375,"note":33,"startBeat":122,"startTick":117120,"startTime":45.75,"velocity":68},{"channel":0,"duration":0.1875,"durationBeats":0.5,"durationTicks":480,"endBeat":122.5,"endTick":117600,"endTime":45.9375,"note":60,"startBeat":122,"startTick":117120,"startTime":45.75,"velocity":68},{"channel":0,"duration":0.1875,"durationBeats":0.5,"durationTicks":480,"endBeat":122.5,"endTick":117600,"endTime":45.9375,"note":64,"startBeat":122,"startTick":117120,"startTime":45.75,"velocity":68},{"channel":0,"duration":0.1875,"durationBeats":0.5,"durationTicks":480,"endBeat":122.5,"endTick":117600,"endTime":45.9375,"note":67,"startBeat":122,"startTick":117120,"startTime":45.75,"velocity":68},{"channel":0,"duration":0.1875,"durationBeats":0.5,"durationTicks":480,"endBeat":122.5,"endTick":117600,"endTime":45.9375,"note":72,"startBeat":122,"startTick":117120,"startTime":45.75,"velocity":68},{"channel":0,"duration":0.1875,"durationBeats":0.5,"durationTicks":480,"endBeat":123.25,"endTick":118320,"endTime":46.21875,"note":33,"startBeat":122.75,"startTick":117840,"startTime":46.03125,"velocity":68},{"channel":0,"duration":0.1875,"durationBeats":0.5,"durationTicks":480,"endBeat":123.5,"endTick":118560,"endTime":46.3125,"note":61,"startBeat":123,"startTick":118080,"startTime":46.125,"velocity":68},{"channel":0,"duration":0.1875,"durationBeats":0.5,"durationTicks":480,"endBeat":123.5,"endTick":118560,"endTime":46.3125,"note":65,"startBeat":123,"startTick":118080,"startTime":46.125,"velocity":68},{"channel":0,"duration":0.1875,"durationBeats":0.5,"durationTicks":480,"endBeat":123.5,"endTick":118560,"endTime":46.3125,"note":67,"startBeat":123,"startTick":118080,"startTime":46.125,"velocity":68},{"channel":0,"duration":0.1875,"durationBeats":0.5,"durationTicks":480,"endBeat":123.5,"endTick":118560,"endTime":46.3125,"note":70,"startBeat":123,"startTick":118080,"startTime":46.125,"velocity":68},{"channel":0,"duration":0.1875,"durationBeats":0.5,"durationTicks":480,"endBeat":124,"endTick":119040,"endTime":46.5,"note":33,"startBeat":123.5,"startTick":118560,"startTime":46.3125,"velocity":68},{"channel":0,"duration":0.1875,"durationBeats":0.5,"durationTicks":480,"endBeat":124.5,"endTick":119520,"endTime":46.6875,"note":26,"startBeat":124,"startTick":119040,"startTime":46.5,"velocity":68},{"channel":0,"duration":0.1875,"durationBeats":0.5,"durationTicks":480,"endBeat":124.5,"endTick":119520,"endTime":46.6875,"note":60,"startBeat":124,"startTick":119040,"startTime":46.5,"velocity":68},{"channel":0,"duration":0.1875,"durationBeats":0.5,"durationTicks":480,"endBeat":124.5,"endTick":119520,"endTime":46.6875,"note":64,"startBeat":124,"startTick":119040,"startTime":46.5,"velocity":68},{"channel":0,"duration":0.1875,"durationBeats":0.5,"durationTicks":480,"endBeat":124.5,"endTick":119520,"endTime":46.6875,"note":65,"startBeat":124,"startTick":119040,"startTime":46.5,"velocity":68},{"channel":0,"duration":0.1875,"durationBeats":0.5,"durationTicks":480,"endBeat":124.5,"endTick":119520,"endTime":46.6875,"note":69,"startBeat":124,"startTick":119040,"startTime":46.5,"velocity":68},{"channel":0,"duration":0.1875,"durationBeats":0.5,"durationTicks":480,"endBeat":125.5,"endTick":120480,"endTime":47.0625,"note":26,"startBeat":125,"startTick":120000,"startTime":46.875,"velocity":68},{"channel":0,"duration":0.1875,"durationBeats":0.5,"durationTicks":480,"endBeat":126.5,"endTick":121440,"endTime":47.4375,"note":38,"startBeat":126,"startTick":120960,"startTime":47.25,"velocity":68},{"channel":0,"duration":0.1875,"durationBeats":0.5,"durationTicks":480,"endBeat":126.5,"endTick":121440,"endTime":47.4375,"note":60,"startBeat":126,"startTick":120960,"startTime":47.25,"velocity":68},{"channel":0,"duration":0.1875,"durationBeats":0.5,"durationTicks":480,"endBeat":126.5,"endTick":121440,"endTime":47.4375,"note":64,"startBeat":126,"startTick":120960,"startTime":47.25,"velocity":68},{"channel":0,"duration":0.1875,"durationBeats":0.5,"durationTicks":480,"endBeat":126.5,"endTick":121440,"endTime":47.4375,"note":65,"startBeat":126,"startTick":120960,"startTime":47.25,"velocity":68},{"channel":0,"duration":0.1875,"durationBeats":0.5,"durationTicks":480,"endBeat":126.5,"endTick":121440,"endTime":47.4375,"note":69,"startBeat":126,"startTick":120960,"startTime":47.25,"velocity":68},{"channel":0,"duration":0.1875,"durationBeats":0.5,"durationTicks":480,"endBeat":127.25,"endTick":122160,"endTime":47.71875,"note":33,"startBeat":126.75,"startTick":121680,"startTime":47.53125,"velocity":68},{"channel":0,"duration":0.1875,"durationBeats":0.5,"durationTicks":480,"endBeat":127.5,"endTick":122400,"endTime":47.8125,"note":59,"startBeat":127,"startTick":121920,"startTime":47.625,"velocity":68},{"channel":0,"duration":0.1875,"durationBeats":0.5,"durationTicks":480,"endBeat":127.5,"endTick":122400,"endTime":47.8125,"note":63,"startBeat":127,"startTick":121920,"startTime":47.625,"velocity":68},{"channel":0,"duration":0.1875,"durationBeats":0.5,"durationTicks":480,"endBeat":127.5,"endTick":122400,"endTime":47.8125,"note":68,"startBeat":127,"startTick":121920,"startTime":47.625,"velocity":68},{"channel":0,"duration":0.1875,"durationBeats":0.5,"durationTicks":480,"endBeat":128,"endTick":122880,"endTime":48,"note":32,"startBeat":127.5,"startTick":122400,"startTime":47.8125,"velocity":68},{"channel":0,"duration":0.1875,"durationBeats":0.5,"durationTicks":480,"endBeat":128.5,"endTick":123360,"endTime":48.1875,"note":31,"startBeat":128,"startTick":122880,"startTime":48,"velocity":68},{"channel":0,"duration":0.375,"durationBeats":1,"durationTicks":960,"endBeat":129,"endTick":123840,"endTime":48.375,"note":58,"startBeat":128,"startTick":122880,"startTime":48,"velocity":68},{"channel":0,"duration":0.375,"durationBeats":1,"durationTicks":960,"endBeat":129,"endTick":123840,"endTime":48.375,"note":62,"startBeat":128,"startTick":122880,"startTime":48,"velocity":68},{"channel":0,"duration":0.375,"durationBeats":1,"durationTicks":960,"endBeat":129,"endTick":123840,"endTime":48.375,"note":65,"startBeat":128,"startTick":122880,"startTime":48,"velocity":68},{"channel":0,"duration":0.375,"durationBeats":1,"durationTicks":960,"endBeat":129,"endTick":123840,"endTime":48.375,"note":69,"startBeat":128,"startTick":122880,"startTime":48,"velocity":68},{"channel":0,"duration":0.1875,"durationBeats":0.5,"durationTicks":480,"endBeat":129.5,"endTick":124320,"endTime":48.5625,"note":31,"startBeat":129,"startTick":123840,"startTime":48.375,"velocity":68},{"channel":0,"duration":0.1875,"durationBeats":0.5,"durationTicks":480,"endBeat":130.5,"endTick":125280,"endTime":48.9375,"note":33,"startBeat":130,"startTick":124800,"startTime":48.75,"velocity":68},{"channel":0,"duration":0.1875,"durationBeats":0.5,"durationTicks":480,"endBeat":130.5,"endTick":125280,"endTime":48.9375,"note":60,"startBeat":130,"startTick":124800,"startTime":48.75,"velocity":68},{"channel":0,"duration":0.1875,"durationBeats":0.5,"durationTicks":480,"endBeat":130.5,"endTick":125280,"endTime":48.9375,"note":64,"startBeat":130,"startTick":124800,"startTime":48.75,"velocity":68},{"channel":0,"duration":0.1875,"durationBeats":0.5,"durationTicks":480,"endBeat":130.5,"endTick":125280,"endTime":48.9375,"note":67,"startBeat":130,"startTick":124800,"startTime":48.75,"velocity":68},{"channel":0,"duration":0.1875,"durationBeats":0.5,"durationTicks":480,"endBeat":130.5,"endTick":125280,"endTime":48.9375,"note":72,"startBeat":130,"startTick":124800,"startTime":48.75,"velocity":68},{"channel":0,"duration":0.1875,"durationBeats":0.5,"durationTicks":480,"endBeat":131.25,"endTick":126000,"endTime":49.21875,"note":33,"startBeat":130.75,"startTick":125520,"startTime":49.03125,"velocity":68},{"channel":0,"duration":0.1875,"durationBeats":0.5,"durationTicks":480,"endBeat":131.5,"endTick":126240,"endTime":49.3125,"note":61,"startBeat":131,"startTick":125760,"startTime":49.125,"velocity":68},{"channel":0,"duration":0.1875,"durationBeats":0.5,"durationTicks":480,"endBeat":131.5,"endTick":126240,"endTime":49.3125,"note":65,"startBeat":131,"startTick":125760,"startTime":49.125,"velocity":68},{"channel":0,"duration":0.1875,"durationBeats":0.5,"durationTicks":480,"endBeat":131.5,"endTick":126240,"endTime":49.3125,"note":67,"startBeat":131,"startTick":125760,"startTime":49.125,"velocity":68},{"channel":0,"duration":0.1875,"durationBeats":0.5,"durationTicks":480,"endBeat":131.5,"endTick":126240,"endTime":49.3125,"note":70,"startBeat":131,"startTick":125760,"startTime":49.125,"velocity":68},{"channel":0,"duration":0.1875,"durationBeats":0.5,"durationTicks":480,"endBeat":132,"endTick":126720,"endTime":49.5,"note":33,"startBeat":131.5,"startTick":126240,"startTime":49.3125,"velocity":68},{"channel":0,"duration":0.1875,"durationBeats":0.5,"durationTicks":480,"endBeat":132.5,"endTick":127200,"endTime":49.6875,"note":26,"startBeat":132,"startTick":126720,"startTime":49.5,"velocity":68},{"channel":0,"duration":0.1875,"durationBeats":0.5,"durationTicks":480,"endBeat":132.5,"endTick":127200,"endTime":49.6875,"note":60,"startBeat":132,"startTick":126720,"startTime":49.5,"velocity":68},{"channel":0,"duration":0.1875,"durationBeats":0.5,"durationTicks":480,"endBeat":132.5,"endTick":127200,"endTime":49.6875,"note":64,"startBeat":132,"startTick":126720,"startTime":49.5,"velocity":68},{"channel":0,"duration":0.1875,"durationBeats":0.5,"durationTicks":480,"endBeat":132.5,"endTick":127200,"endTime":49.6875,"note":65,"startBeat":132,"startTick":126720,"startTime":49.5,"velocity":68},{"channel":0,"duration":0.1875,"durationBeats":0.5,"durationTicks":480,"endBeat":132.5,"endTick":127200,"endTime":49.6875,"note":69,"startBeat":132,"startTick":126720,"startTime":49.5,"velocity":68},{"channel":0,"duration":0.1875,"durationBeats":0.5,"durationTicks":480,"endBeat":133.5,"endTick":128160,"endTime":50.0625,"note":26,"startBeat":133,"startTick":127680,"startTime":49.875,"velocity":68},{"channel":0,"duration":0.1875,"durationBeats":0.5,"durationTicks":480,"endBeat":134.5,"endTick":129120,"endTime":50.4375,"note":38,"startBeat":134,"startTick":128640,"startTime":50.25,"velocity":68},{"channel":0,"duration":0.1875,"durationBeats":0.5,"durationTicks":480,"endBeat":134.5,"endTick":129120,"endTime":50.4375,"note":60,"startBeat":134,"startTick":128640,"startTime":50.25,"velocity":68},{"channel":0,"duration":0.1875,"durationBeats":0.5,"durationTicks":480,"endBeat":134.5,"endTick":129120,"endTime":50.4375,"note":64,"startBeat":134,"startTick":128640,"startTime":50.25,"velocity":68},{"channel":0,"duration":0.1875,"durationBeats":0.5,"durationTicks":480,"endBeat":134.5,"endTick":129120,"endTime":50.4375,"note":65,"startBeat":134,"startTick":128640,"startTime":50.25,"velocity":68},{"channel":0,"duration":0.1875,"durationBeats":0.5,"durationTicks":480,"endBeat":134.5,"endTick":129120,"endTime":50.4375,"note":69,"startBeat":134,"startTick":128640,"startTime":50.25,"velocity":68},{"channel":0,"duration":0.1875,"durationBeats":0.5,"durationTicks":480,"endBeat":135.25,"endTick":129840,"endTime":50.71875,"note":33,"startBeat":134.75,"startTick":129360,"startTime":50.53125,"velocity":68},{"channel":0,"duration":0.1875,"durationBeats":0.5,"durationTicks":480,"endBeat":135.5,"endTick":130080,"endTime":50.8125,"note":59,"startBeat":135,"startTick":129600,"startTime":50.625,"velocity":68},{"channel":0,"duration":0.1875,"durationBeats":0.5,"durationTicks":480,"endBeat":135.5,"endTick":130080,"endTime":50.8125,"note":63,"startBeat":135,"startTick":129600,"startTime":50.625,"velocity":68},{"channel":0,"duration":0.1875,"durationBeats":0.5,"durationTicks":480,"endBeat":135.5,"endTick":130080,"endTime":50.8125,"note":68,"startBeat":135,"startTick":129600,"startTime":50.625,"velocity":68},{"channel":0,"duration":0.1875,"durationBeats":0.5,"durationTicks":480,"endBeat":136,"endTick":130560,"endTime":51,"note":32,"startBeat":135.5,"startTick":130080,"startTime":50.8125,"velocity":68},{"channel":0,"duration":0.1875,"durationBeats":0.5,"durationTicks":480,"endBeat":136.5,"endTick":131040,"endTime":51.1875,"note":31,"startBeat":136,"startTick":130560,"startTime":51,"velocity":68},{"channel":0,"duration":0.375,"durationBeats":1,"durationTicks":960,"endBeat":137,"endTick":131520,"endTime":51.375,"note":58,"startBeat":136,"startTick":130560,"startTime":51,"velocity":68},{"channel":0,"duration":0.375,"durationBeats":1,"durationTicks":960,"endBeat":137,"endTick":131520,"endTime":51.375,"note":62,"startBeat":136,"startTick":130560,"startTime":51,"velocity":68},{"channel":0,"duration":0.375,"durationBeats":1,"durationTicks":960,"endBeat":137,"endTick":131520,"endTime":51.375,"note":65,"startBeat":136,"startTick":130560,"startTime":51,"velocity":68},{"channel":0,"duration":0.375,"durationBeats":1,"durationTicks":960,"endBeat":137,"endTick":131520,"endTime":51.375,"note":69,"startBeat":136,"startTick":130560,"startTime":51,"velocity":68},{"channel":0,"duration":0.1875,"durationBeats":0.5,"durationTicks":480,"endBeat":137.5,"endTick":132000,"endTime":51.5625,"note":31,"startBeat":137,"startTick":131520,"startTime":51.375,"velocity":68},{"channel":0,"duration":0.1875,"durationBeats":0.5,"durationTicks":480,"endBeat":138.5,"endTick":132960,"endTime":51.9375,"note":33,"startBeat":138,"startTick":132480,"startTime":51.75,"velocity":68},{"channel":0,"duration":0.1875,"durationBeats":0.5,"durationTicks":480,"endBeat":138.5,"endTick":132960,"endTime":51.9375,"note":60,"startBeat":138,"startTick":132480,"startTime":51.75,"velocity":68},{"channel":0,"duration":0.1875,"durationBeats":0.5,"durationTicks":480,"endBeat":138.5,"endTick":132960,"endTime":51.9375,"note":64,"startBeat":138,"startTick":132480,"startTime":51.75,"velocity":68},{"channel":0,"duration":0.1875,"durationBeats":0.5,"durationTicks":480,"endBeat":138.5,"endTick":132960,"endTime":51.9375,"note":67,"startBeat":138,"startTick":132480,"startTime":51.75,"velocity":68},{"channel":0,"duration":0.1875,"durationBeats":0.5,"durationTicks":480,"endBeat":138.5,"endTick":132960,"endTime":51.9375,"note":72,"startBeat":138,"startTick":132480,"startTime":51.75,"velocity":68},{"channel":0,"duration":0.1875,"durationBeats":0.5,"durationTicks":480,"endBeat":139.25,"endTick":133680,"endTime":52.21875,"note":33,"startBeat":138.75,"startTick":133200,"startTime":52.03125,"velocity":68},{"channel":0,"duration":0.1875,"durationBeats":0.5,"durationTicks":480,"endBeat":139.5,"endTick":133920,"endTime":52.3125,"note":61,"startBeat":139,"startTick":133440,"startTime":52.125,"velocity":68},{"channel":0,"duration":0.1875,"durationBeats":0.5,"durationTicks":480,"endBeat":139.5,"endTick":133920,"endTime":52.3125,"note":65,"startBeat":139,"startTick":133440,"startTime":52.125,"velocity":68},{"channel":0,"duration":0.1875,"durationBeats":0.5,"durationTicks":480,"endBeat":139.5,"endTick":133920,"endTime":52.3125,"note":67,"startBeat":139,"startTick":133440,"startTime":52.125,"velocity":68},{"channel":0,"duration":0.1875,"durationBeats":0.5,"durationTicks":480,"endBeat":139.5,"endTick":133920,"endTime":52.3125,"note":70,"startBeat":139,"startTick":133440,"startTime":52.125,"velocity":68},{"channel":0,"duration":0.1875,"durationBeats":0.5,"durationTicks":480,"endBeat":140,"endTick":134400,"endTime":52.5,"note":33,"startBeat":139.5,"startTick":133920,"startTime":52.3125,"velocity":68},{"channel":0,"duration":0.1875,"durationBeats":0.5,"durationTicks":480,"endBeat":140.5,"endTick":134880,"endTime":52.6875,"note":26,"startBeat":140,"startTick":134400,"startTime":52.5,"velocity":68},{"channel":0,"duration":0.1875,"durationBeats":0.5,"durationTicks":480,"endBeat":140.5,"endTick":134880,"endTime":52.6875,"note":60,"startBeat":140,"startTick":134400,"startTime":52.5,"velocity":68},{"channel":0,"duration":0.1875,"durationBeats":0.5,"durationTicks":480,"endBeat":140.5,"endTick":134880,"endTime":52.6875,"note":64,"startBeat":140,"startTick":134400,"startTime":52.5,"velocity":68},{"channel":0,"duration":0.1875,"durationBeats":0.5,"durationTicks":480,"endBeat":140.5,"endTick":134880,"endTime":52.6875,"note":65,"startBeat":140,"startTick":134400,"startTime":52.5,"velocity":68},{"channel":0,"duration":0.1875,"durationBeats":0.5,"durationTicks":480,"endBeat":140.5,"endTick":134880,"endTime":52.6875,"note":69,"startBeat":140,"startTick":134400,"startTime":52.5,"velocity":68},{"channel":0,"duration":0.1875,"durationBeats":0.5,"durationTicks":480,"endBeat":141.5,"endTick":135840,"endTime":53.0625,"note":26,"startBeat":141,"startTick":135360,"startTime":52.875,"velocity":68},{"channel":0,"duration":0.1875,"durationBeats":0.5,"durationTicks":480,"endBeat":142.5,"endTick":136800,"endTime":53.4375,"note":38,"startBeat":142,"startTick":136320,"startTime":53.25,"velocity":68},{"channel":0,"duration":0.1875,"durationBeats":0.5,"durationTicks":480,"endBeat":142.5,"endTick":136800,"endTime":53.4375,"note":60,"startBeat":142,"startTick":136320,"startTime":53.25,"velocity":68},{"channel":0,"duration":0.1875,"durationBeats":0.5,"durationTicks":480,"endBeat":142.5,"endTick":136800,"endTime":53.4375,"note":64,"startBeat":142,"startTick":136320,"startTime":53.25,"velocity":68},{"channel":0,"duration":0.1875,"durationBeats":0.5,"durationTicks":480,"endBeat":142.5,"endTick":136800,"endTime":53.4375,"note":65,"startBeat":142,"startTick":136320,"startTime":53.25,"velocity":68},{"channel":0,"duration":0.1875,"durationBeats":0.5,"durationTicks":480,"endBeat":142.5,"endTick":136800,"endTime":53.4375,"note":69,"startBeat":142,"startTick":136320,"startTime":53.25,"velocity":68},{"channel":0,"duration":0.1875,"durationBeats":0.5,"durationTicks":480,"endBeat":143.25,"endTick":137520,"endTime":53.71875,"note":33,"startBeat":142.75,"startTick":137040,"startTime":53.53125,"velocity":68},{"channel":0,"duration":0.1875,"durationBeats":0.5,"durationTicks":480,"endBeat":143.5,"endTick":137760,"endTime":53.8125,"note":59,"startBeat":143,"startTick":137280,"startTime":53.625,"velocity":68},{"channel":0,"duration":0.1875,"durationBeats":0.5,"durationTicks":480,"endBeat":143.5,"endTick":137760,"endTime":53.8125,"note":63,"startBeat":143,"startTick":137280,"startTime":53.625,"velocity":68},{"channel":0,"duration":0.1875,"durationBeats":0.5,"durationTicks":480,"endBeat":143.5,"endTick":137760,"endTime":53.8125,"note":68,"startBeat":143,"startTick":137280,"startTime":53.625,"velocity":68},{"channel":0,"duration":0.1875,"durationBeats":0.5,"durationTicks":480,"endBeat":144,"endTick":138240,"endTime":54,"note":32,"startBeat":143.5,"startTick":137760,"startTime":53.8125,"velocity":68},{"channel":0,"duration":0.1875,"durationBeats":0.5,"durationTicks":480,"endBeat":144.5,"endTick":138720,"endTime":54.1875,"note":31,"startBeat":144,"startTick":138240,"startTime":54,"velocity":68},{"channel":0,"duration":0.375,"durationBeats":1,"durationTicks":960,"endBeat":145,"endTick":139200,"endTime":54.375,"note":58,"startBeat":144,"startTick":138240,"startTime":54,"velocity":68},{"channel":0,"duration":0.375,"durationBeats":1,"durationTicks":960,"endBeat":145,"endTick":139200,"endTime":54.375,"note":62,"startBeat":144,"startTick":138240,"startTime":54,"velocity":68},{"channel":0,"duration":0.375,"durationBeats":1,"durationTicks":960,"endBeat":145,"endTick":139200,"endTime":54.375,"note":65,"startBeat":144,"startTick":138240,"startTime":54,"velocity":68},{"channel":0,"duration":0.375,"durationBeats":1,"durationTicks":960,"endBeat":145,"endTick":139200,"endTime":54.375,"note":69,"startBeat":144,"startTick":138240,"startTime":54,"velocity":68},{"channel":0,"duration":0.1875,"durationBeats":0.5,"durationTicks":480,"endBeat":145.5,"endTick":139680,"endTime":54.5625,"note":31,"startBeat":145,"startTick":139200,"startTime":54.375,"velocity":68},{"channel":0,"duration":0.1875,"durationBeats":0.5,"durationTicks":480,"endBeat":146.5,"endTick":140640,"endTime":54.9375,"note":33,"startBeat":146,"startTick":140160,"startTime":54.75,"velocity":68},{"channel":0,"duration":0.1875,"durationBeats":0.5,"durationTicks":480,"endBeat":146.5,"endTick":140640,"endTime":54.9375,"note":60,"startBeat":146,"startTick":140160,"startTime":54.75,"velocity":68},{"channel":0,"duration":0.1875,"durationBeats":0.5,"durationTicks":480,"endBeat":146.5,"endTick":140640,"endTime":54.9375,"note":64,"startBeat":146,"startTick":140160,"startTime":54.75,"velocity":68},{"channel":0,"duration":0.1875,"durationBeats":0.5,"durationTicks":480,"endBeat":146.5,"endTick":140640,"endTime":54.9375,"note":67,"startBeat":146,"startTick":140160,"startTime":54.75,"velocity":68},{"channel":0,"duration":0.1875,"durationBeats":0.5,"durationTicks":480,"endBeat":146.5,"endTick":140640,"endTime":54.9375,"note":72,"startBeat":146,"startTick":140160,"startTime":54.75,"velocity":68},{"channel":0,"duration":0.1875,"durationBeats":0.5,"durationTicks":480,"endBeat":147.25,"endTick":141360,"endTime":55.21875,"note":33,"startBeat":146.75,"startTick":140880,"startTime":55.03125,"velocity":68},{"channel":0,"duration":0.1875,"durationBeats":0.5,"durationTicks":480,"endBeat":147.5,"endTick":141600,"endTime":55.3125,"note":61,"startBeat":147,"startTick":141120,"startTime":55.125,"velocity":68},{"channel":0,"duration":0.1875,"durationBeats":0.5,"durationTicks":480,"endBeat":147.5,"endTick":141600,"endTime":55.3125,"note":65,"startBeat":147,"startTick":141120,"startTime":55.125,"velocity":68},{"channel":0,"duration":0.1875,"durationBeats":0.5,"durationTicks":480,"endBeat":147.5,"endTick":141600,"endTime":55.3125,"note":67,"startBeat":147,"startTick":141120,"startTime":55.125,"velocity":68},{"channel":0,"duration":0.1875,"durationBeats":0.5,"durationTicks":480,"endBeat":147.5,"endTick":141600,"endTime":55.3125,"note":70,"startBeat":147,"startTick":141120,"startTime":55.125,"velocity":68},{"channel":0,"duration":0.1875,"durationBeats":0.5,"durationTicks":480,"endBeat":148,"endTick":142080,"endTime":55.5,"note":33,"startBeat":147.5,"startTick":141600,"startTime":55.3125,"velocity":68},{"channel":0,"duration":0.1875,"durationBeats":0.5,"durationTicks":480,"endBeat":148.5,"endTick":142560,"endTime":55.6875,"note":26,"startBeat":148,"startTick":142080,"startTime":55.5,"velocity":68},{"channel":0,"duration":0.1875,"durationBeats":0.5,"durationTicks":480,"endBeat":148.5,"endTick":142560,"endTime":55.6875,"note":60,"startBeat":148,"startTick":142080,"startTime":55.5,"velocity":68},{"channel":0,"duration":0.1875,"durationBeats":0.5,"durationTicks":480,"endBeat":148.5,"endTick":142560,"endTime":55.6875,"note":64,"startBeat":148,"startTick":142080,"startTime":55.5,"velocity":68},{"channel":0,"duration":0.1875,"durationBeats":0.5,"durationTicks":480,"endBeat":148.5,"endTick":142560,"endTime":55.6875,"note":65,"startBeat":148,"startTick":142080,"startTime":55.5,"velocity":68},{"channel":0,"duration":0.1875,"durationBeats":0.5,"durationTicks":480,"endBeat":148.5,"endTick":142560,"endTime":55.6875,"note":69,"startBeat":148,"startTick":142080,"startTime":55.5,"velocity":68},{"channel":0,"duration":0.1875,"durationBeats":0.5,"durationTicks":480,"endBeat":149.5,"endTick":143520,"endTime":56.0625,"note":26,"startBeat":149,"startTick":143040,"startTime":55.875,"velocity":68},{"channel":0,"duration":0.1875,"durationBeats":0.5,"durationTicks":480,"endBeat":150.5,"endTick":144480,"endTime":56.4375,"note":38,"startBeat":150,"startTick":144000,"startTime":56.25,"velocity":68},{"channel":0,"duration":0.1875,"durationBeats":0.5,"durationTicks":480,"endBeat":150.5,"endTick":144480,"endTime":56.4375,"note":60,"startBeat":150,"startTick":144000,"startTime":56.25,"velocity":68},{"channel":0,"duration":0.1875,"durationBeats":0.5,"durationTicks":480,"endBeat":150.5,"endTick":144480,"endTime":56.4375,"note":64,"startBeat":150,"startTick":144000,"startTime":56.25,"velocity":68},{"channel":0,"duration":0.1875,"durationBeats":0.5,"durationTicks":480,"endBeat":150.5,"endTick":144480,"endTime":56.4375,"note":65,"startBeat":150,"startTick":144000,"startTime":56.25,"velocity":68},{"channel":0,"duration":0.1875,"durationBeats":0.5,"durationTicks":480,"endBeat":150.5,"endTick":144480,"endTime":56.4375,"note":69,"startBeat":150,"startTick":144000,"startTime":56.25,"velocity":68},{"channel":0,"duration":0.1875,"durationBeats":0.5,"durationTicks":480,"endBeat":151.25,"endTick":145200,"endTime":56.71875,"note":33,"startBeat":150.75,"startTick":144720,"startTime":56.53125,"velocity":68},{"channel":0,"duration":0.1875,"durationBeats":0.5,"durationTicks":480,"endBeat":151.5,"endTick":145440,"endTime":56.8125,"note":59,"startBeat":151,"startTick":144960,"startTime":56.625,"velocity":68},{"channel":0,"duration":0.1875,"durationBeats":0.5,"durationTicks":480,"endBeat":151.5,"endTick":145440,"endTime":56.8125,"note":63,"startBeat":151,"startTick":144960,"startTime":56.625,"velocity":68},{"channel":0,"duration":0.1875,"durationBeats":0.5,"durationTicks":480,"endBeat":151.5,"endTick":145440,"endTime":56.8125,"note":68,"startBeat":151,"startTick":144960,"startTime":56.625,"velocity":68},{"channel":0,"duration":0.1875,"durationBeats":0.5,"durationTicks":480,"endBeat":152,"endTick":145920,"endTime":57,"note":32,"startBeat":151.5,"startTick":145440,"startTime":56.8125,"velocity":68},{"channel":0,"duration":0.1875,"durationBeats":0.5,"durationTicks":480,"endBeat":152.5,"endTick":146400,"endTime":57.1875,"note":31,"startBeat":152,"startTick":145920,"startTime":57,"velocity":68},{"channel":0,"duration":0.375,"durationBeats":1,"durationTicks":960,"endBeat":153,"endTick":146880,"endTime":57.375,"note":58,"startBeat":152,"startTick":145920,"startTime":57,"velocity":68},{"channel":0,"duration":0.375,"durationBeats":1,"durationTicks":960,"endBeat":153,"endTick":146880,"endTime":57.375,"note":62,"startBeat":152,"startTick":145920,"startTime":57,"velocity":68},{"channel":0,"duration":0.375,"durationBeats":1,"durationTicks":960,"endBeat":153,"endTick":146880,"endTime":57.375,"note":65,"startBeat":152,"startTick":145920,"startTime":57,"velocity":68},{"channel":0,"duration":0.375,"durationBeats":1,"durationTicks":960,"endBeat":153,"endTick":146880,"endTime":57.375,"note":69,"startBeat":152,"startTick":145920,"startTime":57,"velocity":68},{"channel":0,"duration":0.1875,"durationBeats":0.5,"durationTicks":480,"endBeat":153.5,"endTick":147360,"endTime":57.5625,"note":31,"startBeat":153,"startTick":146880,"startTime":57.375,"velocity":68},{"channel":0,"duration":0.1875,"durationBeats":0.5,"durationTicks":480,"endBeat":154.5,"endTick":148320,"endTime":57.9375,"note":33,"startBeat":154,"startTick":147840,"startTime":57.75,"velocity":68},{"channel":0,"duration":0.1875,"durationBeats":0.5,"durationTicks":480,"endBeat":154.5,"endTick":148320,"endTime":57.9375,"note":60,"startBeat":154,"startTick":147840,"startTime":57.75,"velocity":68},{"channel":0,"duration":0.1875,"durationBeats":0.5,"durationTicks":480,"endBeat":154.5,"endTick":148320,"endTime":57.9375,"note":64,"startBeat":154,"startTick":147840,"startTime":57.75,"velocity":68},{"channel":0,"duration":0.1875,"durationBeats":0.5,"durationTicks":480,"endBeat":154.5,"endTick":148320,"endTime":57.9375,"note":67,"startBeat":154,"startTick":147840,"startTime":57.75,"velocity":68},{"channel":0,"duration":0.1875,"durationBeats":0.5,"durationTicks":480,"endBeat":154.5,"endTick":148320,"endTime":57.9375,"note":72,"startBeat":154,"startTick":147840,"startTime":57.75,"velocity":68},{"channel":0,"duration":0.1875,"durationBeats":0.5,"durationTicks":480,"endBeat":155.25,"endTick":149040,"endTime":58.21875,"note":33,"startBeat":154.75,"startTick":148560,"startTime":58.03125,"velocity":68},{"channel":0,"duration":0.1875,"durationBeats":0.5,"durationTicks":480,"endBeat":155.5,"endTick":149280,"endTime":58.3125,"note":61,"startBeat":155,"startTick":148800,"startTime":58.125,"velocity":68},{"channel":0,"duration":0.1875,"durationBeats":0.5,"durationTicks":480,"endBeat":155.5,"endTick":149280,"endTime":58.3125,"note":65,"startBeat":155,"startTick":148800,"startTime":58.125,"velocity":68},{"channel":0,"duration":0.1875,"durationBeats":0.5,"durationTicks":480,"endBeat":155.5,"endTick":149280,"endTime":58.3125,"note":67,"startBeat":155,"startTick":148800,"startTime":58.125,"velocity":68},{"channel":0,"duration":0.1875,"durationBeats":0.5,"durationTicks":480,"endBeat":155.5,"endTick":149280,"endTime":58.3125,"note":70,"startBeat":155,"startTick":148800,"startTime":58.125,"velocity":68},{"channel":0,"duration":0.1875,"durationBeats":0.5,"durationTicks":480,"endBeat":156,"endTick":149760,"endTime":58.5,"note":33,"startBeat":155.5,"startTick":149280,"startTime":58.3125,"velocity":68},{"channel":0,"duration":0.1875,"durationBeats":0.5,"durationTicks":480,"endBeat":156.5,"endTick":150240,"endTime":58.6875,"note":26,"startBeat":156,"startTick":149760,"startTime":58.5,"velocity":68},{"channel":0,"duration":0.1875,"durationBeats":0.5,"durationTicks":480,"endBeat":156.5,"endTick":150240,"endTime":58.6875,"note":60,"startBeat":156,"startTick":149760,"startTime":58.5,"velocity":68},{"channel":0,"duration":0.1875,"durationBeats":0.5,"durationTicks":480,"endBeat":156.5,"endTick":150240,"endTime":58.6875,"note":64,"startBeat":156,"startTick":149760,"startTime":58.5,"velocity":68},{"channel":0,"duration":0.1875,"durationBeats":0.5,"durationTicks":480,"endBeat":156.5,"endTick":150240,"endTime":58.6875,"note":65,"startBeat":156,"startTick":149760,"startTime":58.5,"velocity":68},{"channel":0,"duration":0.1875,"durationBeats":0.5,"durationTicks":480,"endBeat":156.5,"endTick":150240,"endTime":58.6875,"note":69,"startBeat":156,"startTick":149760,"startTime":58.5,"velocity":68},{"channel":0,"duration":0.1875,"durationBeats":0.5,"durationTicks":480,"endBeat":157.5,"endTick":151200,"endTime":59.0625,"note":26,"startBeat":157,"startTick":150720,"startTime":58.875,"velocity":68},{"channel":0,"duration":0.1875,"durationBeats":0.5,"durationTicks":480,"endBeat":158.5,"endTick":152160,"endTime":59.4375,"note":38,"startBeat":158,"startTick":151680,"startTime":59.25,"velocity":68},{"channel":0,"duration":0.1875,"durationBeats":0.5,"durationTicks":480,"endBeat":158.5,"endTick":152160,"endTime":59.4375,"note":60,"startBeat":158,"startTick":151680,"startTime":59.25,"velocity":68},{"channel":0,"duration":0.1875,"durationBeats":0.5,"durationTicks":480,"endBeat":158.5,"endTick":152160,"endTime":59.4375,"note":64,"startBeat":158,"startTick":151680,"startTime":59.25,"velocity":68},{"channel":0,"duration":0.1875,"durationBeats":0.5,"durationTicks":480,"endBeat":158.5,"endTick":152160,"endTime":59.4375,"note":65,"startBeat":158,"startTick":151680,"startTime":59.25,"velocity":68},{"channel":0,"duration":0.1875,"durationBeats":0.5,"durationTicks":480,"endBeat":158.5,"endTick":152160,"endTime":59.4375,"note":69,"startBeat":158,"startTick":151680,"startTime":59.25,"velocity":68},{"channel":0,"duration":0.1875,"durationBeats":0.5,"durationTicks":480,"endBeat":159.25,"endTick":152880,"endTime":59.71875,"note":33,"startBeat":158.75,"startTick":152400,"startTime":59.53125,"velocity":68},{"channel":0,"duration":0.1875,"durationBeats":0.5,"durationTicks":480,"endBeat":159.5,"endTick":153120,"endTime":59.8125,"note":59,"startBeat":159,"startTick":152640,"startTime":59.625,"velocity":68},{"channel":0,"duration":0.1875,"durationBeats":0.5,"durationTicks":480,"endBeat":159.5,"endTick":153120,"endTime":59.8125,"note":63,"startBeat":159,"startTick":152640,"startTime":59.625,"velocity":68},{"channel":0,"duration":0.1875,"durationBeats":0.5,"durationTicks":480,"endBeat":159.5,"endTick":153120,"endTime":59.8125,"note":68,"startBeat":159,"startTick":152640,"startTime":59.625,"velocity":68},{"channel":0,"duration":0.09375,"durationBeats":0.25,"durationTicks":240,"endBeat":161.25,"endTick":154800,"endTime":60.46875,"note":79,"startBeat":161,"startTick":154560,"startTime":60.375,"velocity":68},{"channel":0,"duration":0.375,"durationBeats":1,"durationTicks":960,"endBeat":162.5,"endTick":156000,"endTime":60.9375,"note":82,"startBeat":161.5,"startTick":155040,"startTime":60.5625,"velocity":68},{"channel":0,"duration":1.03125,"durationBeats":2.75,"durationTicks":2640,"endBeat":162.75,"endTick":156240,"endTime":61.03125,"note":70,"startBeat":160,"startTick":153600,"startTime":60,"velocity":68},{"channel":0,"duration":1.03125,"durationBeats":2.75,"durationTicks":2640,"endBeat":162.75,"endTick":156240,"endTime":61.03125,"note":74,"startBeat":160,"startTick":153600,"startTime":60,"velocity":68},{"channel":0,"duration":1.03125,"durationBeats":2.75,"durationTicks":2640,"endBeat":162.75,"endTick":156240,"endTime":61.03125,"note":77,"startBeat":160,"startTick":153600,"startTime":60,"velocity":68},{"channel":0,"duration":1.03125,"durationBeats":2.75,"durationTicks":2640,"endBeat":162.75,"endTick":156240,"endTime":61.03125,"note":81,"startBeat":160,"startTick":153600,"startTime":60,"velocity":68},{"channel":0,"duration":0.375,"durationBeats":1,"durationTicks":960,"endBeat":164,"endTick":157440,"endTime":61.5,"note":74,"startBeat":163,"startTick":156480,"startTime":61.125,"velocity":68},{"channel":0,"duration":0.375,"durationBeats":1,"durationTicks":960,"endBeat":165,"endTick":158400,"endTime":61.875,"note":64,"startBeat":164,"startTick":157440,"startTime":61.5,"velocity":68},{"channel":0,"duration":0.5625,"durationBeats":1.5,"durationTicks":1440,"endBeat":165.5,"endTick":158880,"endTime":62.0625,"note":69,"startBeat":164,"startTick":157440,"startTime":61.5,"velocity":68},{"channel":0,"duration":0.1875,"durationBeats":0.5,"durationTicks":480,"endBeat":166,"endTick":159360,"endTime":62.25,"note":69,"startBeat":165.5,"startTick":158880,"startTime":62.0625,"velocity":68},{"channel":0,"duration":0.375,"durationBeats":1,"durationTicks":960,"endBeat":167,"endTick":160320,"endTime":62.625,"note":76,"startBeat":166,"startTick":159360,"startTime":62.25,"velocity":68},{"channel":0,"duration":1.5,"durationBeats":4,"durationTicks":3840,"endBeat":168,"endTick":161280,"endTime":63,"note":67,"startBeat":164,"startTick":157440,"startTime":61.5,"velocity":68},{"channel":0,"duration":1.5,"durationBeats":4,"durationTicks":3840,"endBeat":168,"endTick":161280,"endTime":63,"note":73,"startBeat":164,"startTick":157440,"startTime":61.5,"velocity":68},{"channel":0,"duration":0.1875,"durationBeats":0.5,"durationTicks":480,"endBeat":169,"endTick":162240,"endTime":63.375,"note":72,"startBeat":168.5,"startTick":161760,"startTime":63.1875,"velocity":68},{"channel":0,"duration":0.1875,"durationBeats":0.5,"durationTicks":480,"endBeat":169.5,"endTick":162720,"endTime":63.5625,"note":79,"startBeat":169,"startTick":162240,"startTime":63.375,"velocity":68},{"channel":0,"duration":0.75,"durationBeats":2,"durationTicks":1920,"endBeat":170,"endTick":163200,"endTime":63.75,"note":67,"startBeat":168,"startTick":161280,"startTime":63,"velocity":68},{"channel":0,"duration":0.75,"durationBeats":2,"durationTicks":1920,"endBeat":170,"endTick":163200,"endTime":63.75,"note":69,"startBeat":168,"startTick":161280,"startTime":63,"velocity":68},{"channel":0,"duration":0.75,"durationBeats":2,"durationTicks":1920,"endBeat":170,"endTick":163200,"endTime":63.75,"note":73,"startBeat":168,"startTick":161280,"startTime":63,"velocity":68},{"channel":0,"duration":0.75,"durationBeats":2,"durationTicks":1920,"endBeat":170,"endTick":163200,"endTime":63.75,"note":77,"startBeat":168,"startTick":161280,"startTime":63,"velocity":68},{"channel":0,"duration":0.1875,"durationBeats":0.5,"durationTicks":480,"endBeat":170,"endTick":163200,"endTime":63.75,"note":81,"startBeat":169.5,"startTick":162720,"startTime":63.5625,"velocity":68},{"channel":0,"duration":0.375,"durationBeats":1,"durationTicks":960,"endBeat":171,"endTick":164160,"endTime":64.125,"note":72,"startBeat":170,"startTick":163200,"startTime":63.75,"velocity":68},{"channel":0,"duration":0.1875,"durationBeats":0.5,"durationTicks":480,"endBeat":171.5,"endTick":164640,"endTime":64.3125,"note":72,"startBeat":171,"startTick":164160,"startTime":64.125,"velocity":68},{"channel":0,"duration":0.09375,"durationBeats":0.25,"durationTicks":240,"endBeat":171.75,"endTick":164880,"endTime":64.40625,"note":74,"startBeat":171.5,"startTick":164640,"startTime":64.3125,"velocity":68},{"channel":0,"duration":0.75,"durationBeats":2,"durationTicks":1920,"endBeat":172,"endTick":165120,"endTime":64.5,"note":65,"startBeat":170,"startTick":163200,"startTime":63.75,"velocity":68},{"channel":0,"duration":0.75,"durationBeats":2,"durationTicks":1920,"endBeat":172,"endTick":165120,"endTime":64.5,"note":67,"startBeat":170,"startTick":163200,"startTime":63.75,"velocity":68},{"channel":0,"duration":0.75,"durationBeats":2,"durationTicks":1920,"endBeat":172,"endTick":165120,"endTime":64.5,"note":69,"startBeat":170,"startTick":163200,"startTime":63.75,"velocity":68},{"channel":0,"duration":0.09375,"durationBeats":0.25,"durationTicks":240,"endBeat":172,"endTick":165120,"endTime":64.5,"note":75,"startBeat":171.75,"startTick":164880,"startTime":64.40625,"velocity":68},{"channel":0,"duration":0.5625,"durationBeats":1.5,"durationTicks":1440,"endBeat":173.5,"endTick":166560,"endTime":65.0625,"note":67,"startBeat":172,"startTick":165120,"startTime":64.5,"velocity":68},{"channel":0,"duration":0.5625,"durationBeats":1.5,"durationTicks":1440,"endBeat":173.5,"endTick":166560,"endTime":65.0625,"note":69,"startBeat":172,"startTick":165120,"startTime":64.5,"velocity":68},{"channel":0,"duration":0.5625,"durationBeats":1.5,"durationTicks":1440,"endBeat":173.5,"endTick":166560,"endTime":65.0625,"note":74,"startBeat":172,"startTick":165120,"startTime":64.5,"velocity":68},{"channel":0,"duration":0.5625,"durationBeats":1.5,"durationTicks":1440,"endBeat":173.5,"endTick":166560,"endTime":65.0625,"note":76,"startBeat":172,"startTick":165120,"startTime":64.5,"velocity":68},{"channel":0,"duration":0.09375,"durationBeats":0.25,"durationTicks":240,"endBeat":173.75,"endTick":166800,"endTime":65.15625,"note":76,"startBeat":173.5,"startTick":166560,"startTime":65.0625,"velocity":68},{"channel":0,"duration":0.09375,"durationBeats":0.25,"durationTicks":240,"endBeat":174,"endTick":167040,"endTime":65.25,"note":76,"startBeat":173.75,"startTick":166800,"startTime":65.15625,"velocity":68},{"channel":0,"duration":0.1875,"durationBeats":0.5,"durationTicks":480,"endBeat":174.5,"endTick":167520,"endTime":65.4375,"note":76,"startBeat":174,"startTick":167040,"startTime":65.25,"velocity":68},{"channel":0,"duration":0.375,"durationBeats":1,"durationTicks":960,"endBeat":175,"endTick":168000,"endTime":65.625,"note":67,"startBeat":174,"startTick":167040,"startTime":65.25,"velocity":68},{"channel":0,"duration":0.375,"durationBeats":1,"durationTicks":960,"endBeat":175,"endTick":168000,"endTime":65.625,"note":69,"startBeat":174,"startTick":167040,"startTime":65.25,"velocity":68},{"channel":0,"duration":0.375,"durationBeats":1,"durationTicks":960,"endBeat":175,"endTick":168000,"endTime":65.625,"note":73,"startBeat":174,"startTick":167040,"startTime":65.25,"velocity":68},{"channel":0,"duration":0.1875,"durationBeats":0.5,"durationTicks":480,"endBeat":175,"endTick":168000,"endTime":65.625,"note":76,"startBeat":174.5,"startTick":167520,"startTime":65.4375,"velocity":68},{"channel":0,"duration":0.1875,"durationBeats":0.5,"durationTicks":480,"endBeat":175.5,"endTick":168480,"endTime":65.8125,"note":73,"startBeat":175,"startTick":168000,"startTime":65.625,"velocity":68},{"channel":0,"duration":0.1875,"durationBeats":0.5,"durationTicks":480,"endBeat":175.5,"endTick":168480,"endTime":65.8125,"note":77,"startBeat":175,"startTick":168000,"startTime":65.625,"velocity":68},{"channel":0,"duration":0.1875,"durationBeats":0.5,"durationTicks":480,"endBeat":176,"endTick":168960,"endTime":66,"note":69,"startBeat":175.5,"startTick":168480,"startTime":65.8125,"velocity":68},{"channel":0,"duration":0.1875,"durationBeats":0.5,"durationTicks":480,"endBeat":176,"endTick":168960,"endTime":66,"note":76,"startBeat":175.5,"startTick":168480,"startTime":65.8125,"velocity":68},{"channel":0,"duration":0.1875,"durationBeats":0.5,"durationTicks":480,"endBeat":176.5,"endTick":169440,"endTime":66.1875,"note":43,"startBeat":176,"startTick":168960,"startTime":66,"velocity":68},{"channel":0,"duration":0.1875,"durationBeats":0.5,"durationTicks":480,"endBeat":177,"endTick":169920,"endTime":66.375,"note":50,"startBeat":176.5,"startTick":169440,"startTime":66.1875,"velocity":68},{"channel":0,"duration":0.375,"durationBeats":1,"durationTicks":960,"endBeat":177,"endTick":169920,"endTime":66.375,"note":58,"startBeat":176,"startTick":168960,"startTime":66,"velocity":68},{"channel":0,"duration":0.375,"durationBeats":1,"durationTicks":960,"endBeat":177,"endTick":169920,"endTime":66.375,"note":62,"startBeat":176,"startTick":168960,"startTime":66,"velocity":68},{"channel":0,"duration":0.375,"durationBeats":1,"durationTicks":960,"endBeat":177,"endTick":169920,"endTime":66.375,"note":65,"startBeat":176,"startTick":168960,"startTime":66,"velocity":68},{"channel":0,"duration":0.375,"durationBeats":1,"durationTicks":960,"endBeat":177,"endTick":169920,"endTime":66.375,"note":69,"startBeat":176,"startTick":168960,"startTime":66,"velocity":68},{"channel":0,"duration":0.1875,"durationBeats":0.5,"durationTicks":480,"endBeat":177.5,"endTick":170400,"endTime":66.5625,"note":43,"startBeat":177,"startTick":169920,"startTime":66.375,"velocity":68},{"channel":0,"duration":0.09375,"durationBeats":0.25,"durationTicks":240,"endBeat":177.75,"endTick":170640,"endTime":66.65625,"note":65,"startBeat":177.5,"startTick":170400,"startTime":66.5625,"velocity":68},{"channel":0,"duration":0.1875,"durationBeats":0.5,"durationTicks":480,"endBeat":178,"endTick":170880,"endTime":66.75,"note":44,"startBeat":177.5,"startTick":170400,"startTime":66.5625,"velocity":68},{"channel":0,"duration":0.09375,"durationBeats":0.25,"durationTicks":240,"endBeat":178,"endTick":170880,"endTime":66.75,"note":69,"startBeat":177.75,"startTick":170640,"startTime":66.65625,"velocity":68},{"channel":0,"duration":0.1875,"durationBeats":0.5,"durationTicks":480,"endBeat":178.5,"endTick":171360,"endTime":66.9375,"note":45,"startBeat":178,"startTick":170880,"startTime":66.75,"velocity":68},{"channel":0,"duration":0.1875,"durationBeats":0.5,"durationTicks":480,"endBeat":178.5,"endTick":171360,"endTime":66.9375,"note":60,"startBeat":178,"startTick":170880,"startTime":66.75,"velocity":68},{"channel":0,"duration":0.1875,"durationBeats":0.5,"durationTicks":480,"endBeat":178.5,"endTick":171360,"endTime":66.9375,"note":64,"startBeat":178,"startTick":170880,"startTime":66.75,"velocity":68},{"channel":0,"duration":0.1875,"durationBeats":0.5,"durationTicks":480,"endBeat":178.5,"endTick":171360,"endTime":66.9375,"note":67,"startBeat":178,"startTick":170880,"startTime":66.75,"velocity":68},{"channel":0,"duration":0.1875,"durationBeats":0.5,"durationTicks":480,"endBeat":178.5,"endTick":171360,"endTime":66.9375,"note":72,"startBeat":178,"startTick":170880,"startTime":66.75,"velocity":68},{"channel":0,"duration":0.09375,"durationBeats":0.25,"durationTicks":240,"endBeat":179,"endTick":171840,"endTime":67.125,"note":45,"startBeat":178.75,"startTick":171600,"startTime":67.03125,"velocity":68},{"channel":0,"duration":0.1875,"durationBeats":0.5,"durationTicks":480,"endBeat":179.25,"endTick":172080,"endTime":67.21875,"note":61,"startBeat":178.75,"startTick":171600,"startTime":67.03125,"velocity":68},{"channel":0,"duration":0.1875,"durationBeats":0.5,"durationTicks":480,"endBeat":179.25,"endTick":172080,"endTime":67.21875,"note":65,"startBeat":178.75,"startTick":171600,"startTime":67.03125,"velocity":68},{"channel":0,"duration":0.1875,"durationBeats":0.5,"durationTicks":480,"endBeat":179.25,"endTick":172080,"endTime":67.21875,"note":67,"startBeat":178.75,"startTick":171600,"startTime":67.03125,"velocity":68},{"channel":0,"duration":0.1875,"durationBeats":0.5,"durationTicks":480,"endBeat":179.25,"endTick":172080,"endTime":67.21875,"note":70,"startBeat":178.75,"startTick":171600,"startTime":67.03125,"velocity":68},{"channel":0,"duration":0.1875,"durationBeats":0.5,"durationTicks":480,"endBeat":180,"endTick":172800,"endTime":67.5,"note":38,"startBeat":179.5,"startTick":172320,"startTime":67.3125,"velocity":68},{"channel":0,"duration":0.1875,"durationBeats":0.5,"durationTicks":480,"endBeat":180,"endTick":172800,"endTime":67.5,"note":60,"startBeat":179.5,"startTick":172320,"startTime":67.3125,"velocity":68},{"channel":0,"duration":0.1875,"durationBeats":0.5,"durationTicks":480,"endBeat":180,"endTick":172800,"endTime":67.5,"note":64,"startBeat":179.5,"startTick":172320,"startTime":67.3125,"velocity":68},{"channel":0,"duration":0.1875,"durationBeats":0.5,"durationTicks":480,"endBeat":180,"endTick":172800,"endTime":67.5,"note":65,"startBeat":179.5,"startTick":172320,"startTime":67.3125,"velocity":68},{"channel":0,"duration":0.1875,"durationBeats":0.5,"durationTicks":480,"endBeat":180,"endTick":172800,"endTime":67.5,"note":69,"startBeat":179.5,"startTick":172320,"startTime":67.3125,"velocity":68},{"channel":0,"duration":0.09375,"durationBeats":0.25,"durationTicks":240,"endBeat":180.25,"endTick":173040,"endTime":67.59375,"note":76,"startBeat":180,"startTick":172800,"startTime":67.5,"velocity":68},{"channel":0,"duration":0.09375,"durationBeats":0.25,"durationTicks":240,"endBeat":180.5,"endTick":173280,"endTime":67.6875,"note":77,"startBeat":180.25,"startTick":173040,"startTime":67.59375,"velocity":68},{"channel":0,"duration":0.09375,"durationBeats":0.25,"durationTicks":240,"endBeat":180.75,"endTick":173520,"endTime":67.78125,"note":76,"startBeat":180.5,"startTick":173280,"startTime":67.6875,"velocity":68},{"channel":0,"duration":0.09375,"durationBeats":0.25,"durationTicks":240,"endBeat":181,"endTick":173760,"endTime":67.875,"note":72,"startBeat":180.75,"startTick":173520,"startTime":67.78125,"velocity":68},{"channel":0,"duration":0.09375,"durationBeats":0.25,"durationTicks":240,"endBeat":181.25,"endTick":174000,"endTime":67.96875,"note":76,"startBeat":181,"startTick":173760,"startTime":67.875,"velocity":68},{"channel":0,"duration":0.09375,"durationBeats":0.25,"durationTicks":240,"endBeat":181.5,"endTick":174240,"endTime":68.0625,"note":72,"startBeat":181.25,"startTick":174000,"startTime":67.96875,"velocity":68},{"channel":0,"duration":0.09375,"durationBeats":0.25,"durationTicks":240,"endBeat":181.75,"endTick":174480,"endTime":68.15625,"note":69,"startBeat":181.5,"startTick":174240,"startTime":68.0625,"velocity":68},{"channel":0,"duration":0.1875,"durationBeats":0.5,"durationTicks":480,"endBeat":182,"endTick":174720,"endTime":68.25,"note":45,"startBeat":181.5,"startTick":174240,"startTime":68.0625,"velocity":68},{"channel":0,"duration":0.09375,"durationBeats":0.25,"durationTicks":240,"endBeat":182,"endTick":174720,"endTime":68.25,"note":67,"startBeat":181.75,"startTick":174480,"startTime":68.15625,"velocity":68},{"channel":0,"duration":0.09375,"durationBeats":0.25,"durationTicks":240,"endBeat":182.25,"endTick":174960,"endTime":68.34375,"note":69,"startBeat":182,"startTick":174720,"startTime":68.25,"velocity":68},{"channel":0,"duration":0.1875,"durationBeats":0.5,"durationTicks":480,"endBeat":182.5,"endTick":175200,"endTime":68.4375,"note":50,"startBeat":182,"startTick":174720,"startTime":68.25,"velocity":68},{"channel":0,"duration":0.09375,"durationBeats":0.25,"durationTicks":240,"endBeat":182.5,"endTick":175200,"endTime":68.4375,"note":62,"startBeat":182.25,"startTick":174960,"startTime":68.34375,"velocity":68},{"channel":0,"duration":0.09375,"durationBeats":0.25,"durationTicks":240,"endBeat":182.75,"endTick":175440,"endTime":68.53125,"note":60,"startBeat":182.5,"startTick":175200,"startTime":68.4375,"velocity":68},{"channel":0,"duration":0.1875,"durationBeats":0.5,"durationTicks":480,"endBeat":183,"endTick":175680,"endTime":68.625,"note":38,"startBeat":182.5,"startTick":175200,"startTime":68.4375,"velocity":68},{"channel":0,"duration":0.09375,"durationBeats":0.25,"durationTicks":240,"endBeat":183,"endTick":175680,"endTime":68.625,"note":65,"startBeat":182.75,"startTick":175440,"startTime":68.53125,"velocity":68},{"channel":0,"duration":0.1875,"durationBeats":0.5,"durationTicks":480,"endBeat":183.5,"endTick":176160,"endTime":68.8125,"note":45,"startBeat":183,"startTick":175680,"startTime":68.625,"velocity":68},{"channel":0,"duration":0.1875,"durationBeats":0.5,"durationTicks":480,"endBeat":183.5,"endTick":176160,"endTime":68.8125,"note":60,"startBeat":183,"startTick":175680,"startTime":68.625,"velocity":68},{"channel":0,"duration":0.1875,"durationBeats":0.5,"durationTicks":480,"endBeat":183.5,"endTick":176160,"endTime":68.8125,"note":64,"startBeat":183,"startTick":175680,"startTime":68.625,"velocity":68},{"channel":0,"duration":0.1875,"durationBeats":0.5,"durationTicks":480,"endBeat":183.5,"endTick":176160,"endTime":68.8125,"note":69,"startBeat":183,"startTick":175680,"startTime":68.625,"velocity":68},{"channel":0,"duration":0.1875,"durationBeats":0.5,"durationTicks":480,"endBeat":184,"endTick":176640,"endTime":69,"note":44,"startBeat":183.5,"startTick":176160,"startTime":68.8125,"velocity":68},{"channel":0,"duration":0.1875,"durationBeats":0.5,"durationTicks":480,"endBeat":184,"endTick":176640,"endTime":69,"note":59,"startBeat":183.5,"startTick":176160,"startTime":68.8125,"velocity":68},{"channel":0,"duration":0.1875,"durationBeats":0.5,"durationTicks":480,"endBeat":184,"endTick":176640,"endTime":69,"note":63,"startBeat":183.5,"startTick":176160,"startTime":68.8125,"velocity":68},{"channel":0,"duration":0.1875,"durationBeats":0.5,"durationTicks":480,"endBeat":184,"endTick":176640,"endTime":69,"note":68,"startBeat":183.5,"startTick":176160,"startTime":68.8125,"velocity":68},{"channel":0,"duration":0.1875,"durationBeats":0.5,"durationTicks":480,"endBeat":184.5,"endTick":177120,"endTime":69.1875,"note":43,"startBeat":184,"startTick":176640,"startTime":69,"velocity":68},{"channel":0,"duration":0.1875,"durationBeats":0.5,"durationTicks":480,"endBeat":185,"endTick":177600,"endTime":69.375,"note":50,"startBeat":184.5,"startTick":177120,"startTime":69.1875,"velocity":68},{"channel":0,"duration":0.375,"durationBeats":1,"durationTicks":960,"endBeat":185,"endTick":177600,"endTime":69.375,"note":58,"startBeat":184,"startTick":176640,"startTime":69,"velocity":68},{"channel":0,"duration":0.375,"durationBeats":1,"durationTicks":960,"endBeat":185,"endTick":177600,"endTime":69.375,"note":62,"startBeat":184,"startTick":176640,"startTime":69,"velocity":68},{"channel":0,"duration":0.375,"durationBeats":1,"durationTicks":960,"endBeat":185,"endTick":177600,"endTime":69.375,"note":65,"startBeat":184,"startTick":176640,"startTime":69,"velocity":68},{"channel":0,"duration":0.375,"durationBeats":1,"durationTicks":960,"endBeat":185,"endTick":177600,"endTime":69.375,"note":69,"startBeat":184,"startTick":176640,"startTime":69,"velocity":68},{"channel":0,"duration":0.1875,"durationBeats":0.5,"durationTicks":480,"endBeat":185.5,"endTick":178080,"endTime":69.5625,"note":43,"startBeat":185,"startTick":177600,"startTime":69.375,"velocity":68},{"channel":0,"duration":0.09375,"durationBeats":0.25,"durationTicks":240,"endBeat":185.75,"endTick":178320,"endTime":69.65625,"note":65,"startBeat":185.5,"startTick":178080,"startTime":69.5625,"velocity":68},{"channel":0,"duration":0.1875,"durationBeats":0.5,"durationTicks":480,"endBeat":186,"endTick":178560,"endTime":69.75,"note":44,"startBeat":185.5,"startTick":178080,"startTime":69.5625,"velocity":68},{"channel":0,"duration":0.09375,"durationBeats":0.25,"durationTicks":240,"endBeat":186,"endTick":178560,"endTime":69.75,"note":69,"startBeat":185.75,"startTick":178320,"startTime":69.65625,"velocity":68},{"channel":0,"duration":0.1875,"durationBeats":0.5,"durationTicks":480,"endBeat":186.5,"endTick":179040,"endTime":69.9375,"note":45,"startBeat":186,"startTick":178560,"startTime":69.75,"velocity":68},{"channel":0,"duration":0.1875,"durationBeats":0.5,"durationTicks":480,"endBeat":186.5,"endTick":179040,"endTime":69.9375,"note":60,"startBeat":186,"startTick":178560,"startTime":69.75,"velocity":68},{"channel":0,"duration":0.1875,"durationBeats":0.5,"durationTicks":480,"endBeat":186.5,"endTick":179040,"endTime":69.9375,"note":64,"startBeat":186,"startTick":178560,"startTime":69.75,"velocity":68},{"channel":0,"duration":0.1875,"durationBeats":0.5,"durationTicks":480,"endBeat":186.5,"endTick":179040,"endTime":69.9375,"note":67,"startBeat":186,"startTick":178560,"startTime":69.75,"velocity":68},{"channel":0,"duration":0.1875,"durationBeats":0.5,"durationTicks":480,"endBeat":186.5,"endTick":179040,"endTime":69.9375,"note":72,"startBeat":186,"startTick":178560,"startTime":69.75,"velocity":68},{"channel":0,"duration":0.09375,"durationBeats":0.25,"durationTicks":240,"endBeat":187,"endTick":179520,"endTime":70.125,"note":45,"startBeat":186.75,"startTick":179280,"startTime":70.03125,"velocity":68},{"channel":0,"duration":0.1875,"durationBeats":0.5,"durationTicks":480,"endBeat":187.25,"endTick":179760,"endTime":70.21875,"note":61,"startBeat":186.75,"startTick":179280,"startTime":70.03125,"velocity":68},{"channel":0,"duration":0.1875,"durationBeats":0.5,"durationTicks":480,"endBeat":187.25,"endTick":179760,"endTime":70.21875,"note":65,"startBeat":186.75,"startTick":179280,"startTime":70.03125,"velocity":68},{"channel":0,"duration":0.1875,"durationBeats":0.5,"durationTicks":480,"endBeat":187.25,"endTick":179760,"endTime":70.21875,"note":67,"startBeat":186.75,"startTick":179280,"startTime":70.03125,"velocity":68},{"channel":0,"duration":0.1875,"durationBeats":0.5,"durationTicks":480,"endBeat":187.25,"endTick":179760,"endTime":70.21875,"note":70,"startBeat":186.75,"startTick":179280,"startTime":70.03125,"velocity":68},{"channel":0,"duration":0.1875,"durationBeats":0.5,"durationTicks":480,"endBeat":188,"endTick":180480,"endTime":70.5,"note":38,"startBeat":187.5,"startTick":180000,"startTime":70.3125,"velocity":68},{"channel":0,"duration":0.1875,"durationBeats":0.5,"durationTicks":480,"endBeat":188,"endTick":180480,"endTime":70.5,"note":60,"startBeat":187.5,"startTick":180000,"startTime":70.3125,"velocity":68},{"channel":0,"duration":0.1875,"durationBeats":0.5,"durationTicks":480,"endBeat":188,"endTick":180480,"endTime":70.5,"note":64,"startBeat":187.5,"startTick":180000,"startTime":70.3125,"velocity":68},{"channel":0,"duration":0.1875,"durationBeats":0.5,"durationTicks":480,"endBeat":188,"endTick":180480,"endTime":70.5,"note":65,"startBeat":187.5,"startTick":180000,"startTime":70.3125,"velocity":68},{"channel":0,"duration":0.1875,"durationBeats":0.5,"durationTicks":480,"endBeat":188,"endTick":180480,"endTime":70.5,"note":69,"startBeat":187.5,"startTick":180000,"startTime":70.3125,"velocity":68},{"channel":0,"duration":0.09375,"durationBeats":0.25,"durationTicks":240,"endBeat":188.25,"endTick":180720,"endTime":70.59375,"note":76,"startBeat":188,"startTick":180480,"startTime":70.5,"velocity":68},{"channel":0,"duration":0.09375,"durationBeats":0.25,"durationTicks":240,"endBeat":188.5,"endTick":180960,"endTime":70.6875,"note":77,"startBeat":188.25,"startTick":180720,"startTime":70.59375,"velocity":68},{"channel":0,"duration":0.09375,"durationBeats":0.25,"durationTicks":240,"endBeat":188.75,"endTick":181200,"endTime":70.78125,"note":79,"startBeat":188.5,"startTick":180960,"startTime":70.6875,"velocity":68},{"channel":0,"duration":0.09375,"durationBeats":0.25,"durationTicks":240,"endBeat":189,"endTick":181440,"endTime":70.875,"note":77,"startBeat":188.75,"startTick":181200,"startTime":70.78125,"velocity":68},{"channel":0,"duration":0.09375,"durationBeats":0.25,"durationTicks":240,"endBeat":189.25,"endTick":181680,"endTime":70.96875,"note":76,"startBeat":189,"startTick":181440,"startTime":70.875,"velocity":68},{"channel":0,"duration":0.09375,"durationBeats":0.25,"durationTicks":240,"endBeat":189.5,"endTick":181920,"endTime":71.0625,"note":72,"startBeat":189.25,"startTick":181680,"startTime":70.96875,"velocity":68},{"channel":0,"duration":0.09375,"durationBeats":0.25,"durationTicks":240,"endBeat":189.75,"endTick":182160,"endTime":71.15625,"note":69,"startBeat":189.5,"startTick":181920,"startTime":71.0625,"velocity":68},{"channel":0,"duration":0.1875,"durationBeats":0.5,"durationTicks":480,"endBeat":190,"endTick":182400,"endTime":71.25,"note":45,"startBeat":189.5,"startTick":181920,"startTime":71.0625,"velocity":68},{"channel":0,"duration":0.09375,"durationBeats":0.25,"durationTicks":240,"endBeat":190,"endTick":182400,"endTime":71.25,"note":67,"startBeat":189.75,"startTick":182160,"startTime":71.15625,"velocity":68},{"channel":0,"duration":0.09375,"durationBeats":0.25,"durationTicks":240,"endBeat":190.25,"endTick":182640,"endTime":71.34375,"note":69,"startBeat":190,"startTick":182400,"startTime":71.25,"velocity":68},{"channel":0,"duration":0.1875,"durationBeats":0.5,"durationTicks":480,"endBeat":190.5,"endTick":182880,"endTime":71.4375,"note":50,"startBeat":190,"startTick":182400,"startTime":71.25,"velocity":68},{"channel":0,"duration":0.09375,"durationBeats":0.25,"durationTicks":240,"endBeat":190.5,"endTick":182880,"endTime":71.4375,"note":62,"startBeat":190.25,"startTick":182640,"startTime":71.34375,"velocity":68},{"channel":0,"duration":0.09375,"durationBeats":0.25,"durationTicks":240,"endBeat":190.75,"endTick":183120,"endTime":71.53125,"note":60,"startBeat":190.5,"startTick":182880,"startTime":71.4375,"velocity":68},{"channel":0,"duration":0.1875,"durationBeats":0.5,"durationTicks":480,"endBeat":191,"endTick":183360,"endTime":71.625,"note":38,"startBeat":190.5,"startTick":182880,"startTime":71.4375,"velocity":68},{"channel":0,"duration":0.09375,"durationBeats":0.25,"durationTicks":240,"endBeat":191,"endTick":183360,"endTime":71.625,"note":65,"startBeat":190.75,"startTick":183120,"startTime":71.53125,"velocity":68},{"channel":0,"duration":0.1875,"durationBeats":0.5,"durationTicks":480,"endBeat":191.5,"endTick":183840,"endTime":71.8125,"note":45,"startBeat":191,"startTick":183360,"startTime":71.625,"velocity":68},{"channel":0,"duration":0.1875,"durationBeats":0.5,"durationTicks":480,"endBeat":191.5,"endTick":183840,"endTime":71.8125,"note":60,"startBeat":191,"startTick":183360,"startTime":71.625,"velocity":68},{"channel":0,"duration":0.1875,"durationBeats":0.5,"durationTicks":480,"endBeat":191.5,"endTick":183840,"endTime":71.8125,"note":64,"startBeat":191,"startTick":183360,"startTime":71.625,"velocity":68},{"channel":0,"duration":0.1875,"durationBeats":0.5,"durationTicks":480,"endBeat":191.5,"endTick":183840,"endTime":71.8125,"note":69,"startBeat":191,"startTick":183360,"startTime":71.625,"velocity":68},{"channel":0,"duration":0.1875,"durationBeats":0.5,"durationTicks":480,"endBeat":192,"endTick":184320,"endTime":72,"note":44,"startBeat":191.5,"startTick":183840,"startTime":71.8125,"velocity":68},{"channel":0,"duration":0.1875,"durationBeats":0.5,"durationTicks":480,"endBeat":192,"endTick":184320,"endTime":72,"note":59,"startBeat":191.5,"startTick":183840,"startTime":71.8125,"velocity":68},{"channel":0,"duration":0.1875,"durationBeats":0.5,"durationTicks":480,"endBeat":192,"endTick":184320,"endTime":72,"note":63,"startBeat":191.5,"startTick":183840,"startTime":71.8125,"velocity":68},{"channel":0,"duration":0.1875,"durationBeats":0.5,"durationTicks":480,"endBeat":192,"endTick":184320,"endTime":72,"note":68,"startBeat":191.5,"startTick":183840,"startTime":71.8125,"velocity":68},{"channel":0,"duration":0.1875,"durationBeats":0.5,"durationTicks":480,"endBeat":192.5,"endTick":184800,"endTime":72.1875,"note":43,"startBeat":192,"startTick":184320,"startTime":72,"velocity":68},{"channel":0,"duration":0.1875,"durationBeats":0.5,"durationTicks":480,"endBeat":193,"endTick":185280,"endTime":72.375,"note":50,"startBeat":192.5,"startTick":184800,"startTime":72.1875,"velocity":68},{"channel":0,"duration":0.375,"durationBeats":1,"durationTicks":960,"endBeat":193,"endTick":185280,"endTime":72.375,"note":58,"startBeat":192,"startTick":184320,"startTime":72,"velocity":68},{"channel":0,"duration":0.375,"durationBeats":1,"durationTicks":960,"endBeat":193,"endTick":185280,"endTime":72.375,"note":62,"startBeat":192,"startTick":184320,"startTime":72,"velocity":68},{"channel":0,"duration":0.375,"durationBeats":1,"durationTicks":960,"endBeat":193,"endTick":185280,"endTime":72.375,"note":65,"startBeat":192,"startTick":184320,"startTime":72,"velocity":68},{"channel":0,"duration":0.375,"durationBeats":1,"durationTicks":960,"endBeat":193,"endTick":185280,"endTime":72.375,"note":69,"startBeat":192,"startTick":184320,"startTime":72,"velocity":68},{"channel":0,"duration":0.1875,"durationBeats":0.5,"durationTicks":480,"endBeat":193.5,"endTick":185760,"endTime":72.5625,"note":43,"startBeat":193,"startTick":185280,"startTime":72.375,"velocity":68},{"channel":0,"duration":0.09375,"durationBeats":0.25,"durationTicks":240,"endBeat":193.75,"endTick":186000,"endTime":72.65625,"note":65,"startBeat":193.5,"startTick":185760,"startTime":72.5625,"velocity":68},{"channel":0,"duration":0.1875,"durationBeats":0.5,"durationTicks":480,"endBeat":194,"endTick":186240,"endTime":72.75,"note":44,"startBeat":193.5,"startTick":185760,"startTime":72.5625,"velocity":68},{"channel":0,"duration":0.09375,"durationBeats":0.25,"durationTicks":240,"endBeat":194,"endTick":186240,"endTime":72.75,"note":69,"startBeat":193.75,"startTick":186000,"startTime":72.65625,"velocity":68},{"channel":0,"duration":0.1875,"durationBeats":0.5,"durationTicks":480,"endBeat":194.5,"endTick":186720,"endTime":72.9375,"note":45,"startBeat":194,"startTick":186240,"startTime":72.75,"velocity":68},{"channel":0,"duration":0.1875,"durationBeats":0.5,"durationTicks":480,"endBeat":194.5,"endTick":186720,"endTime":72.9375,"note":60,"startBeat":194,"startTick":186240,"startTime":72.75,"velocity":68},{"channel":0,"duration":0.1875,"durationBeats":0.5,"durationTicks":480,"endBeat":194.5,"endTick":186720,"endTime":72.9375,"note":64,"startBeat":194,"startTick":186240,"startTime":72.75,"velocity":68},{"channel":0,"duration":0.1875,"durationBeats":0.5,"durationTicks":480,"endBeat":194.5,"endTick":186720,"endTime":72.9375,"note":67,"startBeat":194,"startTick":186240,"startTime":72.75,"velocity":68},{"channel":0,"duration":0.1875,"durationBeats":0.5,"durationTicks":480,"endBeat":194.5,"endTick":186720,"endTime":72.9375,"note":72,"startBeat":194,"startTick":186240,"startTime":72.75,"velocity":68},{"channel":0,"duration":0.09375,"durationBeats":0.25,"durationTicks":240,"endBeat":195,"endTick":187200,"endTime":73.125,"note":45,"startBeat":194.75,"startTick":186960,"startTime":73.03125,"velocity":68},{"channel":0,"duration":0.1875,"durationBeats":0.5,"durationTicks":480,"endBeat":195.25,"endTick":187440,"endTime":73.21875,"note":61,"startBeat":194.75,"startTick":186960,"startTime":73.03125,"velocity":68},{"channel":0,"duration":0.1875,"durationBeats":0.5,"durationTicks":480,"endBeat":195.25,"endTick":187440,"endTime":73.21875,"note":65,"startBeat":194.75,"startTick":186960,"startTime":73.03125,"velocity":68},{"channel":0,"duration":0.1875,"durationBeats":0.5,"durationTicks":480,"endBeat":195.25,"endTick":187440,"endTime":73.21875,"note":67,"startBeat":194.75,"startTick":186960,"startTime":73.03125,"velocity":68},{"channel":0,"duration":0.1875,"durationBeats":0.5,"durationTicks":480,"endBeat":195.25,"endTick":187440,"endTime":73.21875,"note":70,"startBeat":194.75,"startTick":186960,"startTime":73.03125,"velocity":68},{"channel":0,"duration":0.1875,"durationBeats":0.5,"durationTicks":480,"endBeat":196,"endTick":188160,"endTime":73.5,"note":38,"startBeat":195.5,"startTick":187680,"startTime":73.3125,"velocity":68},{"channel":0,"duration":0.1875,"durationBeats":0.5,"durationTicks":480,"endBeat":196,"endTick":188160,"endTime":73.5,"note":60,"startBeat":195.5,"startTick":187680,"startTime":73.3125,"velocity":68},{"channel":0,"duration":0.1875,"durationBeats":0.5,"durationTicks":480,"endBeat":196,"endTick":188160,"endTime":73.5,"note":64,"startBeat":195.5,"startTick":187680,"startTime":73.3125,"velocity":68},{"channel":0,"duration":0.1875,"durationBeats":0.5,"durationTicks":480,"endBeat":196,"endTick":188160,"endTime":73.5,"note":65,"startBeat":195.5,"startTick":187680,"startTime":73.3125,"velocity":68},{"channel":0,"duration":0.1875,"durationBeats":0.5,"durationTicks":480,"endBeat":196,"endTick":188160,"endTime":73.5,"note":69,"startBeat":195.5,"startTick":187680,"startTime":73.3125,"velocity":68},{"channel":0,"duration":0.09375,"durationBeats":0.25,"durationTicks":240,"endBeat":196.25,"endTick":188400,"endTime":73.59375,"note":76,"startBeat":196,"startTick":188160,"startTime":73.5,"velocity":68},{"channel":0,"duration":0.09375,"durationBeats":0.25,"durationTicks":240,"endBeat":196.5,"endTick":188640,"endTime":73.6875,"note":77,"startBeat":196.25,"startTick":188400,"startTime":73.59375,"velocity":68},{"channel":0,"duration":0.09375,"durationBeats":0.25,"durationTicks":240,"endBeat":196.75,"endTick":188880,"endTime":73.78125,"note":76,"startBeat":196.5,"startTick":188640,"startTime":73.6875,"velocity":68},{"channel":0,"duration":0.09375,"durationBeats":0.25,"durationTicks":240,"endBeat":197,"endTick":189120,"endTime":73.875,"note":72,"startBeat":196.75,"startTick":188880,"startTime":73.78125,"velocity":68},{"channel":0,"duration":0.09375,"durationBeats":0.25,"durationTicks":240,"endBeat":197.25,"endTick":189360,"endTime":73.96875,"note":76,"startBeat":197,"startTick":189120,"startTime":73.875,"velocity":68},{"channel":0,"duration":0.1875,"durationBeats":0.5,"durationTicks":480,"endBeat":197.5,"endTick":189600,"endTime":74.0625,"note":38,"startBeat":197,"startTick":189120,"startTime":73.875,"velocity":68},{"channel":0,"duration":0.09375,"durationBeats":0.25,"durationTicks":240,"endBeat":197.5,"endTick":189600,"endTime":74.0625,"note":72,"startBeat":197.25,"startTick":189360,"startTime":73.96875,"velocity":68},{"channel":0,"duration":0.09375,"durationBeats":0.25,"durationTicks":240,"endBeat":197.75,"endTick":189840,"endTime":74.15625,"note":69,"startBeat":197.5,"startTick":189600,"startTime":74.0625,"velocity":68},{"channel":0,"duration":0.1875,"durationBeats":0.5,"durationTicks":480,"endBeat":198,"endTick":190080,"endTime":74.25,"note":45,"startBeat":197.5,"startTick":189600,"startTime":74.0625,"velocity":68},{"channel":0,"duration":0.09375,"durationBeats":0.25,"durationTicks":240,"endBeat":198,"endTick":190080,"endTime":74.25,"note":67,"startBeat":197.75,"startTick":189840,"startTime":74.15625,"velocity":68},{"channel":0,"duration":0.09375,"durationBeats":0.25,"durationTicks":240,"endBeat":198.25,"endTick":190320,"endTime":74.34375,"note":69,"startBeat":198,"startTick":190080,"startTime":74.25,"velocity":68},{"channel":0,"duration":0.1875,"durationBeats":0.5,"durationTicks":480,"endBeat":198.5,"endTick":190560,"endTime":74.4375,"note":50,"startBeat":198,"startTick":190080,"startTime":74.25,"velocity":68},{"channel":0,"duration":0.09375,"durationBeats":0.25,"durationTicks":240,"endBeat":198.5,"endTick":190560,"endTime":74.4375,"note":62,"startBeat":198.25,"startTick":190320,"startTime":74.34375,"velocity":68},{"channel":0,"duration":0.09375,"durationBeats":0.25,"durationTicks":240,"endBeat":198.75,"endTick":190800,"endTime":74.53125,"note":60,"startBeat":198.5,"startTick":190560,"startTime":74.4375,"velocity":68},{"channel":0,"duration":0.1875,"durationBeats":0.5,"durationTicks":480,"endBeat":199,"endTick":191040,"endTime":74.625,"note":38,"startBeat":198.5,"startTick":190560,"startTime":74.4375,"velocity":68},{"channel":0,"duration":0.09375,"durationBeats":0.25,"durationTicks":240,"endBeat":199,"endTick":191040,"endTime":74.625,"note":65,"startBeat":198.75,"startTick":190800,"startTime":74.53125,"velocity":68},{"channel":0,"duration":0.1875,"durationBeats":0.5,"durationTicks":480,"endBeat":199.5,"endTick":191520,"endTime":74.8125,"note":45,"startBeat":199,"startTick":191040,"startTime":74.625,"velocity":68},{"channel":0,"duration":0.1875,"durationBeats":0.5,"durationTicks":480,"endBeat":199.5,"endTick":191520,"endTime":74.8125,"note":60,"startBeat":199,"startTick":191040,"startTime":74.625,"velocity":68},{"channel":0,"duration":0.1875,"durationBeats":0.5,"durationTicks":480,"endBeat":199.5,"endTick":191520,"endTime":74.8125,"note":64,"startBeat":199,"startTick":191040,"startTime":74.625,"velocity":68},{"channel":0,"duration":0.1875,"durationBeats":0.5,"durationTicks":480,"endBeat":199.5,"endTick":191520,"endTime":74.8125,"note":69,"startBeat":199,"startTick":191040,"startTime":74.625,"velocity":68},{"channel":0,"duration":0.1875,"durationBeats":0.5,"durationTicks":480,"endBeat":200,"endTick":192000,"endTime":75,"note":44,"startBeat":199.5,"startTick":191520,"startTime":74.8125,"velocity":68},{"channel":0,"duration":0.1875,"durationBeats":0.5,"durationTicks":480,"endBeat":200,"endTick":192000,"endTime":75,"note":59,"startBeat":199.5,"startTick":191520,"startTime":74.8125,"velocity":68},{"channel":0,"duration":0.1875,"durationBeats":0.5,"durationTicks":480,"endBeat":200,"endTick":192000,"endTime":75,"note":63,"startBeat":199.5,"startTick":191520,"startTime":74.8125,"velocity":68},{"channel":0,"duration":0.1875,"durationBeats":0.5,"durationTicks":480,"endBeat":200,"endTick":192000,"endTime":75,"note":68,"startBeat":199.5,"startTick":191520,"startTime":74.8125,"velocity":68},{"channel":0,"duration":0.1875,"durationBeats":0.5,"durationTicks":480,"endBeat":200.5,"endTick":192480,"endTime":75.1875,"note":43,"startBeat":200,"startTick":192000,"startTime":75,"velocity":68},{"channel":0,"duration":0.375,"durationBeats":1,"durationTicks":960,"endBeat":201,"endTick":192960,"endTime":75.375,"note":58,"startBeat":200,"startTick":192000,"startTime":75,"velocity":68},{"channel":0,"duration":0.375,"durationBeats":1,"durationTicks":960,"endBeat":201,"endTick":192960,"endTime":75.375,"note":62,"startBeat":200,"startTick":192000,"startTime":75,"velocity":68},{"channel":0,"duration":0.375,"durationBeats":1,"durationTicks":960,"endBeat":201,"endTick":192960,"endTime":75.375,"note":65,"startBeat":200,"startTick":192000,"startTime":75,"velocity":68},{"channel":0,"duration":0.375,"durationBeats":1,"durationTicks":960,"endBeat":201,"endTick":192960,"endTime":75.375,"note":69,"startBeat":200,"startTick":192000,"startTime":75,"velocity":68},{"channel":0,"duration":0.1875,"durationBeats":0.5,"durationTicks":480,"endBeat":201.5,"endTick":193440,"endTime":75.5625,"note":43,"startBeat":201,"startTick":192960,"startTime":75.375,"velocity":68},{"channel":0,"duration":0.09375,"durationBeats":0.25,"durationTicks":240,"endBeat":201.75,"endTick":193680,"endTime":75.65625,"note":65,"startBeat":201.5,"startTick":193440,"startTime":75.5625,"velocity":68},{"channel":0,"duration":0.1875,"durationBeats":0.5,"durationTicks":480,"endBeat":202,"endTick":193920,"endTime":75.75,"note":44,"startBeat":201.5,"startTick":193440,"startTime":75.5625,"velocity":68},{"channel":0,"duration":0.09375,"durationBeats":0.25,"durationTicks":240,"endBeat":202,"endTick":193920,"endTime":75.75,"note":69,"startBeat":201.75,"startTick":193680,"startTime":75.65625,"velocity":68},{"channel":0,"duration":0.1875,"durationBeats":0.5,"durationTicks":480,"endBeat":202.5,"endTick":194400,"endTime":75.9375,"note":45,"startBeat":202,"startTick":193920,"startTime":75.75,"velocity":68},{"channel":0,"duration":0.1875,"durationBeats":0.5,"durationTicks":480,"endBeat":202.5,"endTick":194400,"endTime":75.9375,"note":60,"startBeat":202,"startTick":193920,"startTime":75.75,"velocity":68},{"channel":0,"duration":0.1875,"durationBeats":0.5,"durationTicks":480,"endBeat":202.5,"endTick":194400,"endTime":75.9375,"note":64,"startBeat":202,"startTick":193920,"startTime":75.75,"velocity":68},{"channel":0,"duration":0.1875,"durationBeats":0.5,"durationTicks":480,"endBeat":202.5,"endTick":194400,"endTime":75.9375,"note":67,"startBeat":202,"startTick":193920,"startTime":75.75,"velocity":68},{"channel":0,"duration":0.1875,"durationBeats":0.5,"durationTicks":480,"endBeat":202.5,"endTick":194400,"endTime":75.9375,"note":72,"startBeat":202,"startTick":193920,"startTime":75.75,"velocity":68},{"channel":0,"duration":0.09375,"durationBeats":0.25,"durationTicks":240,"endBeat":203,"endTick":194880,"endTime":76.125,"note":45,"startBeat":202.75,"startTick":194640,"startTime":76.03125,"velocity":68},{"channel":0,"duration":0.1875,"durationBeats":0.5,"durationTicks":480,"endBeat":203.25,"endTick":195120,"endTime":76.21875,"note":61,"startBeat":202.75,"startTick":194640,"startTime":76.03125,"velocity":68},{"channel":0,"duration":0.1875,"durationBeats":0.5,"durationTicks":480,"endBeat":203.25,"endTick":195120,"endTime":76.21875,"note":65,"startBeat":202.75,"startTick":194640,"startTime":76.03125,"velocity":68},{"channel":0,"duration":0.1875,"durationBeats":0.5,"durationTicks":480,"endBeat":203.25,"endTick":195120,"endTime":76.21875,"note":67,"startBeat":202.75,"startTick":194640,"startTime":76.03125,"velocity":68},{"channel":0,"duration":0.1875,"durationBeats":0.5,"durationTicks":480,"endBeat":203.25,"endTick":195120,"endTime":76.21875,"note":70,"startBeat":202.75,"startTick":194640,"startTime":76.03125,"velocity":68},{"channel":0,"duration":0.1875,"durationBeats":0.5,"durationTicks":480,"endBeat":204,"endTick":195840,"endTime":76.5,"note":38,"startBeat":203.5,"startTick":195360,"startTime":76.3125,"velocity":68},{"channel":0,"duration":0.1875,"durationBeats":0.5,"durationTicks":480,"endBeat":204,"endTick":195840,"endTime":76.5,"note":60,"startBeat":203.5,"startTick":195360,"startTime":76.3125,"velocity":68},{"channel":0,"duration":0.1875,"durationBeats":0.5,"durationTicks":480,"endBeat":204,"endTick":195840,"endTime":76.5,"note":64,"startBeat":203.5,"startTick":195360,"startTime":76.3125,"velocity":68},{"channel":0,"duration":0.1875,"durationBeats":0.5,"durationTicks":480,"endBeat":204,"endTick":195840,"endTime":76.5,"note":65,"startBeat":203.5,"startTick":195360,"startTime":76.3125,"velocity":68},{"channel":0,"duration":0.1875,"durationBeats":0.5,"durationTicks":480,"endBeat":204,"endTick":195840,"endTime":76.5,"note":69,"startBeat":203.5,"startTick":195360,"startTime":76.3125,"velocity":68},{"channel":0,"duration":0.09375,"durationBeats":0.25,"durationTicks":240,"endBeat":204.25,"endTick":196080,"endTime":76.59375,"note":76,"startBeat":204,"startTick":195840,"startTime":76.5,"velocity":68},{"channel":0,"duration":0.1875,"durationBeats":0.5,"durationTicks":480,"endBeat":204.5,"endTick":196320,"endTime":76.6875,"note":50,"startBeat":204,"startTick":195840,"startTime":76.5,"velocity":68},{"channel":0,"duration":0.09375,"durationBeats":0.25,"durationTicks":240,"endBeat":204.5,"endTick":196320,"endTime":76.6875,"note":77,"startBeat":204.25,"startTick":196080,"startTime":76.59375,"velocity":68},{"channel":0,"duration":0.09375,"durationBeats":0.25,"durationTicks":240,"endBeat":204.75,"endTick":196560,"endTime":76.78125,"note":79,"startBeat":204.5,"startTick":196320,"startTime":76.6875,"velocity":68},{"channel":0,"duration":0.1875,"durationBeats":0.5,"durationTicks":480,"endBeat":205,"endTick":196800,"endTime":76.875,"note":38,"startBeat":204.5,"startTick":196320,"startTime":76.6875,"velocity":68},{"channel":0,"duration":0.09375,"durationBeats":0.25,"durationTicks":240,"endBeat":205,"endTick":196800,"endTime":76.875,"note":77,"startBeat":204.75,"startTick":196560,"startTime":76.78125,"velocity":68},{"channel":0,"duration":0.09375,"durationBeats":0.25,"durationTicks":240,"endBeat":205.25,"endTick":197040,"endTime":76.96875,"note":76,"startBeat":205,"startTick":196800,"startTime":76.875,"velocity":68},{"channel":0,"duration":0.1875,"durationBeats":0.5,"durationTicks":480,"endBeat":205.5,"endTick":197280,"endTime":77.0625,"note":45,"startBeat":205,"startTick":196800,"startTime":76.875,"velocity":68},{"channel":0,"duration":0.09375,"durationBeats":0.25,"durationTicks":240,"endBeat":205.5,"endTick":197280,"endTime":77.0625,"note":72,"startBeat":205.25,"startTick":197040,"startTime":76.96875,"velocity":68},{"channel":0,"duration":0.09375,"durationBeats":0.25,"durationTicks":240,"endBeat":205.75,"endTick":197520,"endTime":77.15625,"note":69,"startBeat":205.5,"startTick":197280,"startTime":77.0625,"velocity":68},{"channel":0,"duration":0.1875,"durationBeats":0.5,"durationTicks":480,"endBeat":206,"endTick":197760,"endTime":77.25,"note":38,"startBeat":205.5,"startTick":197280,"startTime":77.0625,"velocity":68},{"channel":0,"duration":0.09375,"durationBeats":0.25,"durationTicks":240,"endBeat":206,"endTick":197760,"endTime":77.25,"note":67,"startBeat":205.75,"startTick":197520,"startTime":77.15625,"velocity":68},{"channel":0,"duration":0.09375,"durationBeats":0.25,"durationTicks":240,"endBeat":206.25,"endTick":198000,"endTime":77.34375,"note":69,"startBeat":206,"startTick":197760,"startTime":77.25,"velocity":68},{"channel":0,"duration":0.1875,"durationBeats":0.5,"durationTicks":480,"endBeat":206.5,"endTick":198240,"endTime":77.4375,"note":50,"startBeat":206,"startTick":197760,"startTime":77.25,"velocity":68},{"channel":0,"duration":0.09375,"durationBeats":0.25,"durationTicks":240,"endBeat":206.5,"endTick":198240,"endTime":77.4375,"note":62,"startBeat":206.25,"startTick":198000,"startTime":77.34375,"velocity":68},{"channel":0,"duration":0.09375,"durationBeats":0.25,"durationTicks":240,"endBeat":206.75,"endTick":198480,"endTime":77.53125,"note":60,"startBeat":206.5,"startTick":198240,"startTime":77.4375,"velocity":68},{"channel":0,"duration":0.1875,"durationBeats":0.5,"durationTicks":480,"endBeat":207,"endTick":198720,"endTime":77.625,"note":38,"startBeat":206.5,"startTick":198240,"startTime":77.4375,"velocity":68},{"channel":0,"duration":0.09375,"durationBeats":0.25,"durationTicks":240,"endBeat":207,"endTick":198720,"endTime":77.625,"note":65,"startBeat":206.75,"startTick":198480,"startTime":77.53125,"velocity":68},{"channel":0,"duration":0.1875,"durationBeats":0.5,"durationTicks":480,"endBeat":207.5,"endTick":199200,"endTime":77.8125,"note":45,"startBeat":207,"startTick":198720,"startTime":77.625,"velocity":68},{"channel":0,"duration":0.1875,"durationBeats":0.5,"durationTicks":480,"endBeat":207.5,"endTick":199200,"endTime":77.8125,"note":60,"startBeat":207,"startTick":198720,"startTime":77.625,"velocity":68},{"channel":0,"duration":0.1875,"durationBeats":0.5,"durationTicks":480,"endBeat":207.5,"endTick":199200,"endTime":77.8125,"note":64,"startBeat":207,"startTick":198720,"startTime":77.625,"velocity":68},{"channel":0,"duration":0.1875,"durationBeats":0.5,"durationTicks":480,"endBeat":207.5,"endTick":199200,"endTime":77.8125,"note":69,"startBeat":207,"startTick":198720,"startTime":77.625,"velocity":68},{"channel":0,"duration":0.1875,"durationBeats":0.5,"durationTicks":480,"endBeat":208,"endTick":199680,"endTime":78,"note":44,"startBeat":207.5,"startTick":199200,"startTime":77.8125,"velocity":68},{"channel":0,"duration":0.1875,"durationBeats":0.5,"durationTicks":480,"endBeat":208,"endTick":199680,"endTime":78,"note":59,"startBeat":207.5,"startTick":199200,"startTime":77.8125,"velocity":68},{"channel":0,"duration":0.1875,"durationBeats":0.5,"durationTicks":480,"endBeat":208,"endTick":199680,"endTime":78,"note":63,"startBeat":207.5,"startTick":199200,"startTime":77.8125,"velocity":68},{"channel":0,"duration":0.1875,"durationBeats":0.5,"durationTicks":480,"endBeat":208,"endTick":199680,"endTime":78,"note":68,"startBeat":207.5,"startTick":199200,"startTime":77.8125,"velocity":68},{"channel":0,"duration":0.1875,"durationBeats":0.5,"durationTicks":480,"endBeat":208.5,"endTick":200160,"endTime":78.1875,"note":43,"startBeat":208,"startTick":199680,"startTime":78,"velocity":68},{"channel":0,"duration":0.1875,"durationBeats":0.5,"durationTicks":480,"endBeat":209,"endTick":200640,"endTime":78.375,"note":50,"startBeat":208.5,"startTick":200160,"startTime":78.1875,"velocity":68},{"channel":0,"duration":0.375,"durationBeats":1,"durationTicks":960,"endBeat":209,"endTick":200640,"endTime":78.375,"note":58,"startBeat":208,"startTick":199680,"startTime":78,"velocity":68},{"channel":0,"duration":0.375,"durationBeats":1,"durationTicks":960,"endBeat":209,"endTick":200640,"endTime":78.375,"note":62,"startBeat":208,"startTick":199680,"startTime":78,"velocity":68},{"channel":0,"duration":0.375,"durationBeats":1,"durationTicks":960,"endBeat":209,"endTick":200640,"endTime":78.375,"note":65,"startBeat":208,"startTick":199680,"startTime":78,"velocity":68},{"channel":0,"duration":0.375,"durationBeats":1,"durationTicks":960,"endBeat":209,"endTick":200640,"endTime":78.375,"note":69,"startBeat":208,"startTick":199680,"startTime":78,"velocity":68},{"channel":0,"duration":0.1875,"durationBeats":0.5,"durationTicks":480,"endBeat":209.5,"endTick":201120,"endTime":78.5625,"note":43,"startBeat":209,"startTick":200640,"startTime":78.375,"velocity":68},{"channel":0,"duration":0.09375,"durationBeats":0.25,"durationTicks":240,"endBeat":209.75,"endTick":201360,"endTime":78.65625,"note":65,"startBeat":209.5,"startTick":201120,"startTime":78.5625,"velocity":68},{"channel":0,"duration":0.1875,"durationBeats":0.5,"durationTicks":480,"endBeat":210,"endTick":201600,"endTime":78.75,"note":44,"startBeat":209.5,"startTick":201120,"startTime":78.5625,"velocity":68},{"channel":0,"duration":0.09375,"durationBeats":0.25,"durationTicks":240,"endBeat":210,"endTick":201600,"endTime":78.75,"note":69,"startBeat":209.75,"startTick":201360,"startTime":78.65625,"velocity":68},{"channel":0,"duration":0.1875,"durationBeats":0.5,"durationTicks":480,"endBeat":210.5,"endTick":202080,"endTime":78.9375,"note":45,"startBeat":210,"startTick":201600,"startTime":78.75,"velocity":68},{"channel":0,"duration":0.1875,"durationBeats":0.5,"durationTicks":480,"endBeat":210.5,"endTick":202080,"endTime":78.9375,"note":60,"startBeat":210,"startTick":201600,"startTime":78.75,"velocity":68},{"channel":0,"duration":0.1875,"durationBeats":0.5,"durationTicks":480,"endBeat":210.5,"endTick":202080,"endTime":78.9375,"note":64,"startBeat":210,"startTick":201600,"startTime":78.75,"velocity":68},{"channel":0,"duration":0.1875,"durationBeats":0.5,"durationTicks":480,"endBeat":210.5,"endTick":202080,"endTime":78.9375,"note":67,"startBeat":210,"startTick":201600,"startTime":78.75,"velocity":68},{"channel":0,"duration":0.1875,"durationBeats":0.5,"durationTicks":480,"endBeat":210.5,"endTick":202080,"endTime":78.9375,"note":72,"startBeat":210,"startTick":201600,"startTime":78.75,"velocity":68},{"channel":0,"duration":0.09375,"durationBeats":0.25,"durationTicks":240,"endBeat":211,"endTick":202560,"endTime":79.125,"note":45,"startBeat":210.75,"startTick":202320,"startTime":79.03125,"velocity":68},{"channel":0,"duration":0.1875,"durationBeats":0.5,"durationTicks":480,"endBeat":211.25,"endTick":202800,"endTime":79.21875,"note":61,"startBeat":210.75,"startTick":202320,"startTime":79.03125,"velocity":68},{"channel":0,"duration":0.1875,"durationBeats":0.5,"durationTicks":480,"endBeat":211.25,"endTick":202800,"endTime":79.21875,"note":65,"startBeat":210.75,"startTick":202320,"startTime":79.03125,"velocity":68},{"channel":0,"duration":0.1875,"durationBeats":0.5,"durationTicks":480,"endBeat":211.25,"endTick":202800,"endTime":79.21875,"note":67,"startBeat":210.75,"startTick":202320,"startTime":79.03125,"velocity":68},{"channel":0,"duration":0.1875,"durationBeats":0.5,"durationTicks":480,"endBeat":211.25,"endTick":202800,"endTime":79.21875,"note":70,"startBeat":210.75,"startTick":202320,"startTime":79.03125,"velocity":68},{"channel":0,"duration":0.1875,"durationBeats":0.5,"durationTicks":480,"endBeat":212,"endTick":203520,"endTime":79.5,"note":38,"startBeat":211.5,"startTick":203040,"startTime":79.3125,"velocity":68},{"channel":0,"duration":0.1875,"durationBeats":0.5,"durationTicks":480,"endBeat":212,"endTick":203520,"endTime":79.5,"note":60,"startBeat":211.5,"startTick":203040,"startTime":79.3125,"velocity":68},{"channel":0,"duration":0.1875,"durationBeats":0.5,"durationTicks":480,"endBeat":212,"endTick":203520,"endTime":79.5,"note":64,"startBeat":211.5,"startTick":203040,"startTime":79.3125,"velocity":68},{"channel":0,"duration":0.1875,"durationBeats":0.5,"durationTicks":480,"endBeat":212,"endTick":203520,"endTime":79.5,"note":65,"startBeat":211.5,"startTick":203040,"startTime":79.3125,"velocity":68},{"channel":0,"duration":0.1875,"durationBeats":0.5,"durationTicks":480,"endBeat":212,"endTick":203520,"endTime":79.5,"note":69,"startBeat":211.5,"startTick":203040,"startTime":79.3125,"velocity":68},{"channel":0,"duration":0.09375,"durationBeats":0.25,"durationTicks":240,"endBeat":212.25,"endTick":203760,"endTime":79.59375,"note":76,"startBeat":212,"startTick":203520,"startTime":79.5,"velocity":68},{"channel":0,"duration":0.09375,"durationBeats":0.25,"durationTicks":240,"endBeat":212.5,"endTick":204000,"endTime":79.6875,"note":77,"startBeat":212.25,"startTick":203760,"startTime":79.59375,"velocity":68},{"channel":0,"duration":0.09375,"durationBeats":0.25,"durationTicks":240,"endBeat":212.75,"endTick":204240,"endTime":79.78125,"note":76,"startBeat":212.5,"startTick":204000,"startTime":79.6875,"velocity":68},{"channel":0,"duration":0.1875,"durationBeats":0.5,"durationTicks":480,"endBeat":213,"endTick":204480,"endTime":79.875,"note":50,"startBeat":212.5,"startTick":204000,"startTime":79.6875,"velocity":68},{"channel":0,"duration":0.09375,"durationBeats":0.25,"durationTicks":240,"endBeat":213,"endTick":204480,"endTime":79.875,"note":72,"startBeat":212.75,"startTick":204240,"startTime":79.78125,"velocity":68},{"channel":0,"duration":0.09375,"durationBeats":0.25,"durationTicks":240,"endBeat":213.25,"endTick":204720,"endTime":79.96875,"note":76,"startBeat":213,"startTick":204480,"startTime":79.875,"velocity":68},{"channel":0,"duration":0.1875,"durationBeats":0.5,"durationTicks":480,"endBeat":213.5,"endTick":204960,"endTime":80.0625,"note":38,"startBeat":213,"startTick":204480,"startTime":79.875,"velocity":68},{"channel":0,"duration":0.09375,"durationBeats":0.25,"durationTicks":240,"endBeat":213.5,"endTick":204960,"endTime":80.0625,"note":72,"startBeat":213.25,"startTick":204720,"startTime":79.96875,"velocity":68},{"channel":0,"duration":0.09375,"durationBeats":0.25,"durationTicks":240,"endBeat":213.75,"endTick":205200,"endTime":80.15625,"note":69,"startBeat":213.5,"startTick":204960,"startTime":80.0625,"velocity":68},{"channel":0,"duration":0.1875,"durationBeats":0.5,"durationTicks":480,"endBeat":214,"endTick":205440,"endTime":80.25,"note":45,"startBeat":213.5,"startTick":204960,"startTime":80.0625,"velocity":68},{"channel":0,"duration":0.09375,"durationBeats":0.25,"durationTicks":240,"endBeat":214,"endTick":205440,"endTime":80.25,"note":67,"startBeat":213.75,"startTick":205200,"startTime":80.15625,"velocity":68},{"channel":0,"duration":0.09375,"durationBeats":0.25,"durationTicks":240,"endBeat":214.25,"endTick":205680,"endTime":80.34375,"note":69,"startBeat":214,"startTick":205440,"startTime":80.25,"velocity":68},{"channel":0,"duration":0.1875,"durationBeats":0.5,"durationTicks":480,"endBeat":214.5,"endTick":205920,"endTime":80.4375,"note":50,"startBeat":214,"startTick":205440,"startTime":80.25,"velocity":68},{"channel":0,"duration":0.09375,"durationBeats":0.25,"durationTicks":240,"endBeat":214.5,"endTick":205920,"endTime":80.4375,"note":62,"startBeat":214.25,"startTick":205680,"startTime":80.34375,"velocity":68},{"channel":0,"duration":0.09375,"durationBeats":0.25,"durationTicks":240,"endBeat":214.75,"endTick":206160,"endTime":80.53125,"note":60,"startBeat":214.5,"startTick":205920,"startTime":80.4375,"velocity":68},{"channel":0,"duration":0.1875,"durationBeats":0.5,"durationTicks":480,"endBeat":215,"endTick":206400,"endTime":80.625,"note":38,"startBeat":214.5,"startTick":205920,"startTime":80.4375,"velocity":68},{"channel":0,"duration":0.09375,"durationBeats":0.25,"durationTicks":240,"endBeat":215,"endTick":206400,"endTime":80.625,"note":65,"startBeat":214.75,"startTick":206160,"startTime":80.53125,"velocity":68},{"channel":0,"duration":0.1875,"durationBeats":0.5,"durationTicks":480,"endBeat":215.5,"endTick":206880,"endTime":80.8125,"note":45,"startBeat":215,"startTick":206400,"startTime":80.625,"velocity":68},{"channel":0,"duration":0.1875,"durationBeats":0.5,"durationTicks":480,"endBeat":215.5,"endTick":206880,"endTime":80.8125,"note":60,"startBeat":215,"startTick":206400,"startTime":80.625,"velocity":68},{"channel":0,"duration":0.1875,"durationBeats":0.5,"durationTicks":480,"endBeat":215.5,"endTick":206880,"endTime":80.8125,"note":64,"startBeat":215,"startTick":206400,"startTime":80.625,"velocity":68},{"channel":0,"duration":0.1875,"durationBeats":0.5,"durationTicks":480,"endBeat":215.5,"endTick":206880,"endTime":80.8125,"note":69,"startBeat":215,"startTick":206400,"startTime":80.625,"velocity":68},{"channel":0,"duration":0.1875,"durationBeats":0.5,"durationTicks":480,"endBeat":216,"endTick":207360,"endTime":81,"note":44,"startBeat":215.5,"startTick":206880,"startTime":80.8125,"velocity":68},{"channel":0,"duration":0.1875,"durationBeats":0.5,"durationTicks":480,"endBeat":216,"endTick":207360,"endTime":81,"note":59,"startBeat":215.5,"startTick":206880,"startTime":80.8125,"velocity":68},{"channel":0,"duration":0.1875,"durationBeats":0.5,"durationTicks":480,"endBeat":216,"endTick":207360,"endTime":81,"note":63,"startBeat":215.5,"startTick":206880,"startTime":80.8125,"velocity":68},{"channel":0,"duration":0.1875,"durationBeats":0.5,"durationTicks":480,"endBeat":216,"endTick":207360,"endTime":81,"note":68,"startBeat":215.5,"startTick":206880,"startTime":80.8125,"velocity":68},{"channel":0,"duration":0.1875,"durationBeats":0.5,"durationTicks":480,"endBeat":216.5,"endTick":207840,"endTime":81.1875,"note":43,"startBeat":216,"startTick":207360,"startTime":81,"velocity":68},{"channel":0,"duration":0.375,"durationBeats":1,"durationTicks":960,"endBeat":217,"endTick":208320,"endTime":81.375,"note":58,"startBeat":216,"startTick":207360,"startTime":81,"velocity":68},{"channel":0,"duration":0.375,"durationBeats":1,"durationTicks":960,"endBeat":217,"endTick":208320,"endTime":81.375,"note":62,"startBeat":216,"startTick":207360,"startTime":81,"velocity":68},{"channel":0,"duration":0.375,"durationBeats":1,"durationTicks":960,"endBeat":217,"endTick":208320,"endTime":81.375,"note":65,"startBeat":216,"startTick":207360,"startTime":81,"velocity":68},{"channel":0,"duration":0.375,"durationBeats":1,"durationTicks":960,"endBeat":217,"endTick":208320,"endTime":81.375,"note":69,"startBeat":216,"startTick":207360,"startTime":81,"velocity":68},{"channel":0,"duration":0.1875,"durationBeats":0.5,"durationTicks":480,"endBeat":217.5,"endTick":208800,"endTime":81.5625,"note":43,"startBeat":217,"startTick":208320,"startTime":81.375,"velocity":68},{"channel":0,"duration":0.09375,"durationBeats":0.25,"durationTicks":240,"endBeat":217.75,"endTick":209040,"endTime":81.65625,"note":65,"startBeat":217.5,"startTick":208800,"startTime":81.5625,"velocity":68},{"channel":0,"duration":0.1875,"durationBeats":0.5,"durationTicks":480,"endBeat":218,"endTick":209280,"endTime":81.75,"note":44,"startBeat":217.5,"startTick":208800,"startTime":81.5625,"velocity":68},{"channel":0,"duration":0.09375,"durationBeats":0.25,"durationTicks":240,"endBeat":218,"endTick":209280,"endTime":81.75,"note":69,"startBeat":217.75,"startTick":209040,"startTime":81.65625,"velocity":68},{"channel":0,"duration":0.1875,"durationBeats":0.5,"durationTicks":480,"endBeat":218.5,"endTick":209760,"endTime":81.9375,"note":45,"startBeat":218,"startTick":209280,"startTime":81.75,"velocity":68},{"channel":0,"duration":0.1875,"durationBeats":0.5,"durationTicks":480,"endBeat":218.5,"endTick":209760,"endTime":81.9375,"note":60,"startBeat":218,"startTick":209280,"startTime":81.75,"velocity":68},{"channel":0,"duration":0.1875,"durationBeats":0.5,"durationTicks":480,"endBeat":218.5,"endTick":209760,"endTime":81.9375,"note":64,"startBeat":218,"startTick":209280,"startTime":81.75,"velocity":68},{"channel":0,"duration":0.1875,"durationBeats":0.5,"durationTicks":480,"endBeat":218.5,"endTick":209760,"endTime":81.9375,"note":67,"startBeat":218,"startTick":209280,"startTime":81.75,"velocity":68},{"channel":0,"duration":0.1875,"durationBeats":0.5,"durationTicks":480,"endBeat":218.5,"endTick":209760,"endTime":81.9375,"note":72,"startBeat":218,"startTick":209280,"startTime":81.75,"velocity":68},{"channel":0,"duration":0.09375,"durationBeats":0.25,"durationTicks":240,"endBeat":219,"endTick":210240,"endTime":82.125,"note":45,"startBeat":218.75,"startTick":210000,"startTime":82.03125,"velocity":68},{"channel":0,"duration":0.1875,"durationBeats":0.5,"durationTicks":480,"endBeat":219.25,"endTick":210480,"endTime":82.21875,"note":61,"startBeat":218.75,"startTick":210000,"startTime":82.03125,"velocity":68},{"channel":0,"duration":0.1875,"durationBeats":0.5,"durationTicks":480,"endBeat":219.25,"endTick":210480,"endTime":82.21875,"note":65,"startBeat":218.75,"startTick":210000,"startTime":82.03125,"velocity":68},{"channel":0,"duration":0.1875,"durationBeats":0.5,"durationTicks":480,"endBeat":219.25,"endTick":210480,"endTime":82.21875,"note":67,"startBeat":218.75,"startTick":210000,"startTime":82.03125,"velocity":68},{"channel":0,"duration":0.1875,"durationBeats":0.5,"durationTicks":480,"endBeat":219.25,"endTick":210480,"endTime":82.21875,"note":70,"startBeat":218.75,"startTick":210000,"startTime":82.03125,"velocity":68},{"channel":0,"duration":0.1875,"durationBeats":0.5,"durationTicks":480,"endBeat":220,"endTick":211200,"endTime":82.5,"note":38,"startBeat":219.5,"startTick":210720,"startTime":82.3125,"velocity":68},{"channel":0,"duration":0.1875,"durationBeats":0.5,"durationTicks":480,"endBeat":220,"endTick":211200,"endTime":82.5,"note":60,"startBeat":219.5,"startTick":210720,"startTime":82.3125,"velocity":68},{"channel":0,"duration":0.1875,"durationBeats":0.5,"durationTicks":480,"endBeat":220,"endTick":211200,"endTime":82.5,"note":64,"startBeat":219.5,"startTick":210720,"startTime":82.3125,"velocity":68},{"channel":0,"duration":0.1875,"durationBeats":0.5,"durationTicks":480,"endBeat":220,"endTick":211200,"endTime":82.5,"note":65,"startBeat":219.5,"startTick":210720,"startTime":82.3125,"velocity":68},{"channel":0,"duration":0.1875,"durationBeats":0.5,"durationTicks":480,"endBeat":220,"endTick":211200,"endTime":82.5,"note":69,"startBeat":219.5,"startTick":210720,"startTime":82.3125,"velocity":68},{"channel":0,"duration":0.09375,"durationBeats":0.25,"durationTicks":240,"endBeat":220.25,"endTick":211440,"endTime":82.59375,"note":76,"startBeat":220,"startTick":211200,"startTime":82.5,"velocity":68},{"channel":0,"duration":0.1875,"durationBeats":0.5,"durationTicks":480,"endBeat":220.5,"endTick":211680,"endTime":82.6875,"note":50,"startBeat":220,"startTick":211200,"startTime":82.5,"velocity":68},{"channel":0,"duration":0.09375,"durationBeats":0.25,"durationTicks":240,"endBeat":220.5,"endTick":211680,"endTime":82.6875,"note":77,"startBeat":220.25,"startTick":211440,"startTime":82.59375,"velocity":68},{"channel":0,"duration":0.09375,"durationBeats":0.25,"durationTicks":240,"endBeat":220.75,"endTick":211920,"endTime":82.78125,"note":79,"startBeat":220.5,"startTick":211680,"startTime":82.6875,"velocity":68},{"channel":0,"duration":0.1875,"durationBeats":0.5,"durationTicks":480,"endBeat":221,"endTick":212160,"endTime":82.875,"note":38,"startBeat":220.5,"startTick":211680,"startTime":82.6875,"velocity":68},{"channel":0,"duration":0.09375,"durationBeats":0.25,"durationTicks":240,"endBeat":221,"endTick":212160,"endTime":82.875,"note":77,"startBeat":220.75,"startTick":211920,"startTime":82.78125,"velocity":68},{"channel":0,"duration":0.09375,"durationBeats":0.25,"durationTicks":240,"endBeat":221.25,"endTick":212400,"endTime":82.96875,"note":76,"startBeat":221,"startTick":212160,"startTime":82.875,"velocity":68},{"channel":0,"duration":0.1875,"durationBeats":0.5,"durationTicks":480,"endBeat":221.5,"endTick":212640,"endTime":83.0625,"note":45,"startBeat":221,"startTick":212160,"startTime":82.875,"velocity":68},{"channel":0,"duration":0.09375,"durationBeats":0.25,"durationTicks":240,"endBeat":221.5,"endTick":212640,"endTime":83.0625,"note":72,"startBeat":221.25,"startTick":212400,"startTime":82.96875,"velocity":68},{"channel":0,"duration":0.09375,"durationBeats":0.25,"durationTicks":240,"endBeat":221.75,"endTick":212880,"endTime":83.15625,"note":69,"startBeat":221.5,"startTick":212640,"startTime":83.0625,"velocity":68},{"channel":0,"duration":0.1875,"durationBeats":0.5,"durationTicks":480,"endBeat":222,"endTick":213120,"endTime":83.25,"note":38,"startBeat":221.5,"startTick":212640,"startTime":83.0625,"velocity":68},{"channel":0,"duration":0.09375,"durationBeats":0.25,"durationTicks":240,"endBeat":222,"endTick":213120,"endTime":83.25,"note":67,"startBeat":221.75,"startTick":212880,"startTime":83.15625,"velocity":68},{"channel":0,"duration":0.09375,"durationBeats":0.25,"durationTicks":240,"endBeat":222.25,"endTick":213360,"endTime":83.34375,"note":69,"startBeat":222,"startTick":213120,"startTime":83.25,"velocity":68},{"channel":0,"duration":0.1875,"durationBeats":0.5,"durationTicks":480,"endBeat":222.5,"endTick":213600,"endTime":83.4375,"note":50,"startBeat":222,"startTick":213120,"startTime":83.25,"velocity":68},{"channel":0,"duration":0.09375,"durationBeats":0.25,"durationTicks":240,"endBeat":222.5,"endTick":213600,"endTime":83.4375,"note":62,"startBeat":222.25,"startTick":213360,"startTime":83.34375,"velocity":68},{"channel":0,"duration":0.09375,"durationBeats":0.25,"durationTicks":240,"endBeat":222.75,"endTick":213840,"endTime":83.53125,"note":60,"startBeat":222.5,"startTick":213600,"startTime":83.4375,"velocity":68},{"channel":0,"duration":0.1875,"durationBeats":0.5,"durationTicks":480,"endBeat":223,"endTick":214080,"endTime":83.625,"note":38,"startBeat":222.5,"startTick":213600,"startTime":83.4375,"velocity":68},{"channel":0,"duration":0.09375,"durationBeats":0.25,"durationTicks":240,"endBeat":223,"endTick":214080,"endTime":83.625,"note":65,"startBeat":222.75,"startTick":213840,"startTime":83.53125,"velocity":68},{"channel":0,"duration":0.1875,"durationBeats":0.5,"durationTicks":480,"endBeat":223.5,"endTick":214560,"endTime":83.8125,"note":45,"startBeat":223,"startTick":214080,"startTime":83.625,"velocity":68},{"channel":0,"duration":0.1875,"durationBeats":0.5,"durationTicks":480,"endBeat":223.5,"endTick":214560,"endTime":83.8125,"note":60,"startBeat":223,"startTick":214080,"startTime":83.625,"velocity":68},{"channel":0,"duration":0.1875,"durationBeats":0.5,"durationTicks":480,"endBeat":223.5,"endTick":214560,"endTime":83.8125,"note":64,"startBeat":223,"startTick":214080,"startTime":83.625,"velocity":68},{"channel":0,"duration":0.1875,"durationBeats":0.5,"durationTicks":480,"endBeat":223.5,"endTick":214560,"endTime":83.8125,"note":69,"startBeat":223,"startTick":214080,"startTime":83.625,"velocity":68},{"channel":0,"duration":0.1875,"durationBeats":0.5,"durationTicks":480,"endBeat":224,"endTick":215040,"endTime":84,"note":44,"startBeat":223.5,"startTick":214560,"startTime":83.8125,"velocity":68},{"channel":0,"duration":0.1875,"durationBeats":0.5,"durationTicks":480,"endBeat":224,"endTick":215040,"endTime":84,"note":59,"startBeat":223.5,"startTick":214560,"startTime":83.8125,"velocity":68},{"channel":0,"duration":0.1875,"durationBeats":0.5,"durationTicks":480,"endBeat":224,"endTick":215040,"endTime":84,"note":63,"startBeat":223.5,"startTick":214560,"startTime":83.8125,"velocity":68},{"channel":0,"duration":0.1875,"durationBeats":0.5,"durationTicks":480,"endBeat":224,"endTick":215040,"endTime":84,"note":68,"startBeat":223.5,"startTick":214560,"startTime":83.8125,"velocity":68},{"channel":0,"duration":0.1875,"durationBeats":0.5,"durationTicks":480,"endBeat":224.5,"endTick":215520,"endTime":84.1875,"note":43,"startBeat":224,"startTick":215040,"startTime":84,"velocity":68},{"channel":0,"duration":0.1875,"durationBeats":0.5,"durationTicks":480,"endBeat":225,"endTick":216000,"endTime":84.375,"note":50,"startBeat":224.5,"startTick":215520,"startTime":84.1875,"velocity":68},{"channel":0,"duration":0.375,"durationBeats":1,"durationTicks":960,"endBeat":225,"endTick":216000,"endTime":84.375,"note":58,"startBeat":224,"startTick":215040,"startTime":84,"velocity":68},{"channel":0,"duration":0.375,"durationBeats":1,"durationTicks":960,"endBeat":225,"endTick":216000,"endTime":84.375,"note":62,"startBeat":224,"startTick":215040,"startTime":84,"velocity":68},{"channel":0,"duration":0.375,"durationBeats":1,"durationTicks":960,"endBeat":225,"endTick":216000,"endTime":84.375,"note":65,"startBeat":224,"startTick":215040,"startTime":84,"velocity":68},{"channel":0,"duration":0.375,"durationBeats":1,"durationTicks":960,"endBeat":225,"endTick":216000,"endTime":84.375,"note":69,"startBeat":224,"startTick":215040,"startTime":84,"velocity":68},{"channel":0,"duration":0.1875,"durationBeats":0.5,"durationTicks":480,"endBeat":225.5,"endTick":216480,"endTime":84.5625,"note":43,"startBeat":225,"startTick":216000,"startTime":84.375,"velocity":68},{"channel":0,"duration":0.09375,"durationBeats":0.25,"durationTicks":240,"endBeat":225.75,"endTick":216720,"endTime":84.65625,"note":65,"startBeat":225.5,"startTick":216480,"startTime":84.5625,"velocity":68},{"channel":0,"duration":0.1875,"durationBeats":0.5,"durationTicks":480,"endBeat":226,"endTick":216960,"endTime":84.75,"note":44,"startBeat":225.5,"startTick":216480,"startTime":84.5625,"velocity":68},{"channel":0,"duration":0.09375,"durationBeats":0.25,"durationTicks":240,"endBeat":226,"endTick":216960,"endTime":84.75,"note":69,"startBeat":225.75,"startTick":216720,"startTime":84.65625,"velocity":68},{"channel":0,"duration":0.1875,"durationBeats":0.5,"durationTicks":480,"endBeat":226.5,"endTick":217440,"endTime":84.9375,"note":45,"startBeat":226,"startTick":216960,"startTime":84.75,"velocity":68},{"channel":0,"duration":0.1875,"durationBeats":0.5,"durationTicks":480,"endBeat":226.5,"endTick":217440,"endTime":84.9375,"note":60,"startBeat":226,"startTick":216960,"startTime":84.75,"velocity":68},{"channel":0,"duration":0.1875,"durationBeats":0.5,"durationTicks":480,"endBeat":226.5,"endTick":217440,"endTime":84.9375,"note":64,"startBeat":226,"startTick":216960,"startTime":84.75,"velocity":68},{"channel":0,"duration":0.1875,"durationBeats":0.5,"durationTicks":480,"endBeat":226.5,"endTick":217440,"endTime":84.9375,"note":67,"startBeat":226,"startTick":216960,"startTime":84.75,"velocity":68},{"channel":0,"duration":0.1875,"durationBeats":0.5,"durationTicks":480,"endBeat":226.5,"endTick":217440,"endTime":84.9375,"note":72,"startBeat":226,"startTick":216960,"startTime":84.75,"velocity":68},{"channel":0,"duration":0.09375,"durationBeats":0.25,"durationTicks":240,"endBeat":227,"endTick":217920,"endTime":85.125,"note":45,"startBeat":226.75,"startTick":217680,"startTime":85.03125,"velocity":68},{"channel":0,"duration":0.1875,"durationBeats":0.5,"durationTicks":480,"endBeat":227.25,"endTick":218160,"endTime":85.21875,"note":61,"startBeat":226.75,"startTick":217680,"startTime":85.03125,"velocity":68},{"channel":0,"duration":0.1875,"durationBeats":0.5,"durationTicks":480,"endBeat":227.25,"endTick":218160,"endTime":85.21875,"note":65,"startBeat":226.75,"startTick":217680,"startTime":85.03125,"velocity":68},{"channel":0,"duration":0.1875,"durationBeats":0.5,"durationTicks":480,"endBeat":227.25,"endTick":218160,"endTime":85.21875,"note":67,"startBeat":226.75,"startTick":217680,"startTime":85.03125,"velocity":68},{"channel":0,"duration":0.1875,"durationBeats":0.5,"durationTicks":480,"endBeat":227.25,"endTick":218160,"endTime":85.21875,"note":70,"startBeat":226.75,"startTick":217680,"startTime":85.03125,"velocity":68},{"channel":0,"duration":0.1875,"durationBeats":0.5,"durationTicks":480,"endBeat":228,"endTick":218880,"endTime":85.5,"note":38,"startBeat":227.5,"startTick":218400,"startTime":85.3125,"velocity":68},{"channel":0,"duration":0.1875,"durationBeats":0.5,"durationTicks":480,"endBeat":228,"endTick":218880,"endTime":85.5,"note":60,"startBeat":227.5,"startTick":218400,"startTime":85.3125,"velocity":68},{"channel":0,"duration":0.1875,"durationBeats":0.5,"durationTicks":480,"endBeat":228,"endTick":218880,"endTime":85.5,"note":64,"startBeat":227.5,"startTick":218400,"startTime":85.3125,"velocity":68},{"channel":0,"duration":0.1875,"durationBeats":0.5,"durationTicks":480,"endBeat":228,"endTick":218880,"endTime":85.5,"note":65,"startBeat":227.5,"startTick":218400,"startTime":85.3125,"velocity":68},{"channel":0,"duration":0.1875,"durationBeats":0.5,"durationTicks":480,"endBeat":228,"endTick":218880,"endTime":85.5,"note":69,"startBeat":227.5,"startTick":218400,"startTime":85.3125,"velocity":68},{"channel":0,"duration":0.09375,"durationBeats":0.25,"durationTicks":240,"endBeat":228.25,"endTick":219120,"endTime":85.59375,"note":76,"startBeat":228,"startTick":218880,"startTime":85.5,"velocity":68},{"channel":0,"duration":0.09375,"durationBeats":0.25,"durationTicks":240,"endBeat":228.5,"endTick":219360,"endTime":85.6875,"note":77,"startBeat":228.25,"startTick":219120,"startTime":85.59375,"velocity":68},{"channel":0,"duration":0.09375,"durationBeats":0.25,"durationTicks":240,"endBeat":228.75,"endTick":219600,"endTime":85.78125,"note":76,"startBeat":228.5,"startTick":219360,"startTime":85.6875,"velocity":68},{"channel":0,"duration":0.1875,"durationBeats":0.5,"durationTicks":480,"endBeat":229,"endTick":219840,"endTime":85.875,"note":50,"startBeat":228.5,"startTick":219360,"startTime":85.6875,"velocity":68},{"channel":0,"duration":0.09375,"durationBeats":0.25,"durationTicks":240,"endBeat":229,"endTick":219840,"endTime":85.875,"note":72,"startBeat":228.75,"startTick":219600,"startTime":85.78125,"velocity":68},{"channel":0,"duration":0.09375,"durationBeats":0.25,"durationTicks":240,"endBeat":229.25,"endTick":220080,"endTime":85.96875,"note":76,"startBeat":229,"startTick":219840,"startTime":85.875,"velocity":68},{"channel":0,"duration":0.1875,"durationBeats":0.5,"durationTicks":480,"endBeat":229.5,"endTick":220320,"endTime":86.0625,"note":38,"startBeat":229,"startTick":219840,"startTime":85.875,"velocity":68},{"channel":0,"duration":0.09375,"durationBeats":0.25,"durationTicks":240,"endBeat":229.5,"endTick":220320,"endTime":86.0625,"note":72,"startBeat":229.25,"startTick":220080,"startTime":85.96875,"velocity":68},{"channel":0,"duration":0.09375,"durationBeats":0.25,"durationTicks":240,"endBeat":229.75,"endTick":220560,"endTime":86.15625,"note":69,"startBeat":229.5,"startTick":220320,"startTime":86.0625,"velocity":68},{"channel":0,"duration":0.1875,"durationBeats":0.5,"durationTicks":480,"endBeat":230,"endTick":220800,"endTime":86.25,"note":45,"startBeat":229.5,"startTick":220320,"startTime":86.0625,"velocity":68},{"channel":0,"duration":0.09375,"durationBeats":0.25,"durationTicks":240,"endBeat":230,"endTick":220800,"endTime":86.25,"note":67,"startBeat":229.75,"startTick":220560,"startTime":86.15625,"velocity":68},{"channel":0,"duration":0.09375,"durationBeats":0.25,"durationTicks":240,"endBeat":230.25,"endTick":221040,"endTime":86.34375,"note":69,"startBeat":230,"startTick":220800,"startTime":86.25,"velocity":68},{"channel":0,"duration":0.1875,"durationBeats":0.5,"durationTicks":480,"endBeat":230.5,"endTick":221280,"endTime":86.4375,"note":50,"startBeat":230,"startTick":220800,"startTime":86.25,"velocity":68},{"channel":0,"duration":0.09375,"durationBeats":0.25,"durationTicks":240,"endBeat":230.5,"endTick":221280,"endTime":86.4375,"note":62,"startBeat":230.25,"startTick":221040,"startTime":86.34375,"velocity":68},{"channel":0,"duration":0.09375,"durationBeats":0.25,"durationTicks":240,"endBeat":230.75,"endTick":221520,"endTime":86.53125,"note":60,"startBeat":230.5,"startTick":221280,"startTime":86.4375,"velocity":68},{"channel":0,"duration":0.1875,"durationBeats":0.5,"durationTicks":480,"endBeat":231,"endTick":221760,"endTime":86.625,"note":38,"startBeat":230.5,"startTick":221280,"startTime":86.4375,"velocity":68},{"channel":0,"duration":0.09375,"durationBeats":0.25,"durationTicks":240,"endBeat":231,"endTick":221760,"endTime":86.625,"note":65,"startBeat":230.75,"startTick":221520,"startTime":86.53125,"velocity":68},{"channel":0,"duration":0.1875,"durationBeats":0.5,"durationTicks":480,"endBeat":231.5,"endTick":222240,"endTime":86.8125,"note":45,"startBeat":231,"startTick":221760,"startTime":86.625,"velocity":68},{"channel":0,"duration":0.1875,"durationBeats":0.5,"durationTicks":480,"endBeat":231.5,"endTick":222240,"endTime":86.8125,"note":60,"startBeat":231,"startTick":221760,"startTime":86.625,"velocity":68},{"channel":0,"duration":0.1875,"durationBeats":0.5,"durationTicks":480,"endBeat":231.5,"endTick":222240,"endTime":86.8125,"note":64,"startBeat":231,"startTick":221760,"startTime":86.625,"velocity":68},{"channel":0,"duration":0.1875,"durationBeats":0.5,"durationTicks":480,"endBeat":231.5,"endTick":222240,"endTime":86.8125,"note":69,"startBeat":231,"startTick":221760,"startTime":86.625,"velocity":68},{"channel":0,"duration":0.1875,"durationBeats":0.5,"durationTicks":480,"endBeat":232,"endTick":222720,"endTime":87,"note":44,"startBeat":231.5,"startTick":222240,"startTime":86.8125,"velocity":68},{"channel":0,"duration":0.1875,"durationBeats":0.5,"durationTicks":480,"endBeat":232,"endTick":222720,"endTime":87,"note":59,"startBeat":231.5,"startTick":222240,"startTime":86.8125,"velocity":68},{"channel":0,"duration":0.1875,"durationBeats":0.5,"durationTicks":480,"endBeat":232,"endTick":222720,"endTime":87,"note":63,"startBeat":231.5,"startTick":222240,"startTime":86.8125,"velocity":68},{"channel":0,"duration":0.1875,"durationBeats":0.5,"durationTicks":480,"endBeat":232,"endTick":222720,"endTime":87,"note":68,"startBeat":231.5,"startTick":222240,"startTime":86.8125,"velocity":68},{"channel":0,"duration":0.1875,"durationBeats":0.5,"durationTicks":480,"endBeat":232.5,"endTick":223200,"endTime":87.1875,"note":43,"startBeat":232,"startTick":222720,"startTime":87,"velocity":68},{"channel":0,"duration":0.375,"durationBeats":1,"durationTicks":960,"endBeat":233,"endTick":223680,"endTime":87.375,"note":58,"startBeat":232,"startTick":222720,"startTime":87,"velocity":68},{"channel":0,"duration":0.375,"durationBeats":1,"durationTicks":960,"endBeat":233,"endTick":223680,"endTime":87.375,"note":62,"startBeat":232,"startTick":222720,"startTime":87,"velocity":68},{"channel":0,"duration":0.375,"durationBeats":1,"durationTicks":960,"endBeat":233,"endTick":223680,"endTime":87.375,"note":65,"startBeat":232,"startTick":222720,"startTime":87,"velocity":68},{"channel":0,"duration":0.375,"durationBeats":1,"durationTicks":960,"endBeat":233,"endTick":223680,"endTime":87.375,"note":69,"startBeat":232,"startTick":222720,"startTime":87,"velocity":68},{"channel":0,"duration":0.1875,"durationBeats":0.5,"durationTicks":480,"endBeat":233.5,"endTick":224160,"endTime":87.5625,"note":43,"startBeat":233,"startTick":223680,"startTime":87.375,"velocity":68},{"channel":0,"duration":0.09375,"durationBeats":0.25,"durationTicks":240,"endBeat":233.75,"endTick":224400,"endTime":87.65625,"note":65,"startBeat":233.5,"startTick":224160,"startTime":87.5625,"velocity":68},{"channel":0,"duration":0.1875,"durationBeats":0.5,"durationTicks":480,"endBeat":234,"endTick":224640,"endTime":87.75,"note":44,"startBeat":233.5,"startTick":224160,"startTime":87.5625,"velocity":68},{"channel":0,"duration":0.09375,"durationBeats":0.25,"durationTicks":240,"endBeat":234,"endTick":224640,"endTime":87.75,"note":69,"startBeat":233.75,"startTick":224400,"startTime":87.65625,"velocity":68},{"channel":0,"duration":0.1875,"durationBeats":0.5,"durationTicks":480,"endBeat":234.5,"endTick":225120,"endTime":87.9375,"note":45,"startBeat":234,"startTick":224640,"startTime":87.75,"velocity":68},{"channel":0,"duration":0.1875,"durationBeats":0.5,"durationTicks":480,"endBeat":234.5,"endTick":225120,"endTime":87.9375,"note":60,"startBeat":234,"startTick":224640,"startTime":87.75,"velocity":68},{"channel":0,"duration":0.1875,"durationBeats":0.5,"durationTicks":480,"endBeat":234.5,"endTick":225120,"endTime":87.9375,"note":64,"startBeat":234,"startTick":224640,"startTime":87.75,"velocity":68},{"channel":0,"duration":0.1875,"durationBeats":0.5,"durationTicks":480,"endBeat":234.5,"endTick":225120,"endTime":87.9375,"note":67,"startBeat":234,"startTick":224640,"startTime":87.75,"velocity":68},{"channel":0,"duration":0.1875,"durationBeats":0.5,"durationTicks":480,"endBeat":234.5,"endTick":225120,"endTime":87.9375,"note":72,"startBeat":234,"startTick":224640,"startTime":87.75,"velocity":68},{"channel":0,"duration":0.09375,"durationBeats":0.25,"durationTicks":240,"endBeat":235,"endTick":225600,"endTime":88.125,"note":45,"startBeat":234.75,"startTick":225360,"startTime":88.03125,"velocity":68},{"channel":0,"duration":0.1875,"durationBeats":0.5,"durationTicks":480,"endBeat":235.25,"endTick":225840,"endTime":88.21875,"note":61,"startBeat":234.75,"startTick":225360,"startTime":88.03125,"velocity":68},{"channel":0,"duration":0.1875,"durationBeats":0.5,"durationTicks":480,"endBeat":235.25,"endTick":225840,"endTime":88.21875,"note":65,"startBeat":234.75,"startTick":225360,"startTime":88.03125,"velocity":68},{"channel":0,"duration":0.1875,"durationBeats":0.5,"durationTicks":480,"endBeat":235.25,"endTick":225840,"endTime":88.21875,"note":67,"startBeat":234.75,"startTick":225360,"startTime":88.03125,"velocity":68},{"channel":0,"duration":0.1875,"durationBeats":0.5,"durationTicks":480,"endBeat":235.25,"endTick":225840,"endTime":88.21875,"note":70,"startBeat":234.75,"startTick":225360,"startTime":88.03125,"velocity":68},{"channel":0,"duration":0.1875,"durationBeats":0.5,"durationTicks":480,"endBeat":236,"endTick":226560,"endTime":88.5,"note":38,"startBeat":235.5,"startTick":226080,"startTime":88.3125,"velocity":68},{"channel":0,"duration":0.1875,"durationBeats":0.5,"durationTicks":480,"endBeat":236,"endTick":226560,"endTime":88.5,"note":60,"startBeat":235.5,"startTick":226080,"startTime":88.3125,"velocity":68},{"channel":0,"duration":0.1875,"durationBeats":0.5,"durationTicks":480,"endBeat":236,"endTick":226560,"endTime":88.5,"note":64,"startBeat":235.5,"startTick":226080,"startTime":88.3125,"velocity":68},{"channel":0,"duration":0.1875,"durationBeats":0.5,"durationTicks":480,"endBeat":236,"endTick":226560,"endTime":88.5,"note":65,"startBeat":235.5,"startTick":226080,"startTime":88.3125,"velocity":68},{"channel":0,"duration":0.1875,"durationBeats":0.5,"durationTicks":480,"endBeat":236,"endTick":226560,"endTime":88.5,"note":69,"startBeat":235.5,"startTick":226080,"startTime":88.3125,"velocity":68},{"channel":0,"duration":0.09375,"durationBeats":0.25,"durationTicks":240,"endBeat":236.25,"endTick":226800,"endTime":88.59375,"note":76,"startBeat":236,"startTick":226560,"startTime":88.5,"velocity":68},{"channel":0,"duration":0.1875,"durationBeats":0.5,"durationTicks":480,"endBeat":236.5,"endTick":227040,"endTime":88.6875,"note":50,"startBeat":236,"startTick":226560,"startTime":88.5,"velocity":68},{"channel":0,"duration":0.09375,"durationBeats":0.25,"durationTicks":240,"endBeat":236.5,"endTick":227040,"endTime":88.6875,"note":77,"startBeat":236.25,"startTick":226800,"startTime":88.59375,"velocity":68},{"channel":0,"duration":0.09375,"durationBeats":0.25,"durationTicks":240,"endBeat":236.75,"endTick":227280,"endTime":88.78125,"note":79,"startBeat":236.5,"startTick":227040,"startTime":88.6875,"velocity":68},{"channel":0,"duration":0.1875,"durationBeats":0.5,"durationTicks":480,"endBeat":237,"endTick":227520,"endTime":88.875,"note":38,"startBeat":236.5,"startTick":227040,"startTime":88.6875,"velocity":68},{"channel":0,"duration":0.09375,"durationBeats":0.25,"durationTicks":240,"endBeat":237,"endTick":227520,"endTime":88.875,"note":77,"startBeat":236.75,"startTick":227280,"startTime":88.78125,"velocity":68},{"channel":0,"duration":0.09375,"durationBeats":0.25,"durationTicks":240,"endBeat":237.25,"endTick":227760,"endTime":88.96875,"note":76,"startBeat":237,"startTick":227520,"startTime":88.875,"velocity":68},{"channel":0,"duration":0.1875,"durationBeats":0.5,"durationTicks":480,"endBeat":237.5,"endTick":228000,"endTime":89.0625,"note":45,"startBeat":237,"startTick":227520,"startTime":88.875,"velocity":68},{"channel":0,"duration":0.09375,"durationBeats":0.25,"durationTicks":240,"endBeat":237.5,"endTick":228000,"endTime":89.0625,"note":72,"startBeat":237.25,"startTick":227760,"startTime":88.96875,"velocity":68},{"channel":0,"duration":0.09375,"durationBeats":0.25,"durationTicks":240,"endBeat":237.75,"endTick":228240,"endTime":89.15625,"note":69,"startBeat":237.5,"startTick":228000,"startTime":89.0625,"velocity":68},{"channel":0,"duration":0.1875,"durationBeats":0.5,"durationTicks":480,"endBeat":238,"endTick":228480,"endTime":89.25,"note":38,"startBeat":237.5,"startTick":228000,"startTime":89.0625,"velocity":68},{"channel":0,"duration":0.09375,"durationBeats":0.25,"durationTicks":240,"endBeat":238,"endTick":228480,"endTime":89.25,"note":67,"startBeat":237.75,"startTick":228240,"startTime":89.15625,"velocity":68},{"channel":0,"duration":0.09375,"durationBeats":0.25,"durationTicks":240,"endBeat":238.25,"endTick":228720,"endTime":89.34375,"note":69,"startBeat":238,"startTick":228480,"startTime":89.25,"velocity":68},{"channel":0,"duration":0.1875,"durationBeats":0.5,"durationTicks":480,"endBeat":238.5,"endTick":228960,"endTime":89.4375,"note":50,"startBeat":238,"startTick":228480,"startTime":89.25,"velocity":68},{"channel":0,"duration":0.09375,"durationBeats":0.25,"durationTicks":240,"endBeat":238.5,"endTick":228960,"endTime":89.4375,"note":62,"startBeat":238.25,"startTick":228720,"startTime":89.34375,"velocity":68},{"channel":0,"duration":0.09375,"durationBeats":0.25,"durationTicks":240,"endBeat":238.75,"endTick":229200,"endTime":89.53125,"note":60,"startBeat":238.5,"startTick":228960,"startTime":89.4375,"velocity":68},{"channel":0,"duration":0.1875,"durationBeats":0.5,"durationTicks":480,"endBeat":239,"endTick":229440,"endTime":89.625,"note":38,"startBeat":238.5,"startTick":228960,"startTime":89.4375,"velocity":68},{"channel":0,"duration":0.09375,"durationBeats":0.25,"durationTicks":240,"endBeat":239,"endTick":229440,"endTime":89.625,"note":65,"startBeat":238.75,"startTick":229200,"startTime":89.53125,"velocity":68},{"channel":0,"duration":0.1875,"durationBeats":0.5,"durationTicks":480,"endBeat":239.5,"endTick":229920,"endTime":89.8125,"note":45,"startBeat":239,"startTick":229440,"startTime":89.625,"velocity":68},{"channel":0,"duration":0.1875,"durationBeats":0.5,"durationTicks":480,"endBeat":239.5,"endTick":229920,"endTime":89.8125,"note":60,"startBeat":239,"startTick":229440,"startTime":89.625,"velocity":68},{"channel":0,"duration":0.1875,"durationBeats":0.5,"durationTicks":480,"endBeat":239.5,"endTick":229920,"endTime":89.8125,"note":64,"startBeat":239,"startTick":229440,"startTime":89.625,"velocity":68},{"channel":0,"duration":0.1875,"durationBeats":0.5,"durationTicks":480,"endBeat":239.5,"endTick":229920,"endTime":89.8125,"note":69,"startBeat":239,"startTick":229440,"startTime":89.625,"velocity":68},{"channel":0,"duration":0.1875,"durationBeats":0.5,"durationTicks":480,"endBeat":240,"endTick":230400,"endTime":90,"note":44,"startBeat":239.5,"startTick":229920,"startTime":89.8125,"velocity":68},{"channel":0,"duration":0.1875,"durationBeats":0.5,"durationTicks":480,"endBeat":240,"endTick":230400,"endTime":90,"note":59,"startBeat":239.5,"startTick":229920,"startTime":89.8125,"velocity":68},{"channel":0,"duration":0.1875,"durationBeats":0.5,"durationTicks":480,"endBeat":240,"endTick":230400,"endTime":90,"note":63,"startBeat":239.5,"startTick":229920,"startTime":89.8125,"velocity":68},{"channel":0,"duration":0.1875,"durationBeats":0.5,"durationTicks":480,"endBeat":240,"endTick":230400,"endTime":90,"note":68,"startBeat":239.5,"startTick":229920,"startTime":89.8125,"velocity":68},{"channel":0,"duration":0.1875,"durationBeats":0.5,"durationTicks":480,"endBeat":240.5,"endTick":230880,"endTime":90.1875,"note":43,"startBeat":240,"startTick":230400,"startTime":90,"velocity":68},{"channel":0,"duration":0.375,"durationBeats":1,"durationTicks":960,"endBeat":241,"endTick":231360,"endTime":90.375,"note":58,"startBeat":240,"startTick":230400,"startTime":90,"velocity":68},{"channel":0,"duration":0.375,"durationBeats":1,"durationTicks":960,"endBeat":241,"endTick":231360,"endTime":90.375,"note":62,"startBeat":240,"startTick":230400,"startTime":90,"velocity":68},{"channel":0,"duration":0.375,"durationBeats":1,"durationTicks":960,"endBeat":241,"endTick":231360,"endTime":90.375,"note":65,"startBeat":240,"startTick":230400,"startTime":90,"velocity":68},{"channel":0,"duration":0.375,"durationBeats":1,"durationTicks":960,"endBeat":241,"endTick":231360,"endTime":90.375,"note":69,"startBeat":240,"startTick":230400,"startTime":90,"velocity":68},{"channel":0,"duration":0.1875,"durationBeats":0.5,"durationTicks":480,"endBeat":241.5,"endTick":231840,"endTime":90.5625,"note":43,"startBeat":241,"startTick":231360,"startTime":90.375,"velocity":68},{"channel":0,"duration":0.09375,"durationBeats":0.25,"durationTicks":240,"endBeat":241.75,"endTick":232080,"endTime":90.65625,"note":65,"startBeat":241.5,"startTick":231840,"startTime":90.5625,"velocity":68},{"channel":0,"duration":0.1875,"durationBeats":0.5,"durationTicks":480,"endBeat":242,"endTick":232320,"endTime":90.75,"note":44,"startBeat":241.5,"startTick":231840,"startTime":90.5625,"velocity":68},{"channel":0,"duration":0.09375,"durationBeats":0.25,"durationTicks":240,"endBeat":242,"endTick":232320,"endTime":90.75,"note":69,"startBeat":241.75,"startTick":232080,"startTime":90.65625,"velocity":68},{"channel":0,"duration":0.1875,"durationBeats":0.5,"durationTicks":480,"endBeat":242.5,"endTick":232800,"endTime":90.9375,"note":45,"startBeat":242,"startTick":232320,"startTime":90.75,"velocity":68},{"channel":0,"duration":0.1875,"durationBeats":0.5,"durationTicks":480,"endBeat":242.5,"endTick":232800,"endTime":90.9375,"note":60,"startBeat":242,"startTick":232320,"startTime":90.75,"velocity":68},{"channel":0,"duration":0.1875,"durationBeats":0.5,"durationTicks":480,"endBeat":242.5,"endTick":232800,"endTime":90.9375,"note":64,"startBeat":242,"startTick":232320,"startTime":90.75,"velocity":68},{"channel":0,"duration":0.1875,"durationBeats":0.5,"durationTicks":480,"endBeat":242.5,"endTick":232800,"endTime":90.9375,"note":67,"startBeat":242,"startTick":232320,"startTime":90.75,"velocity":68},{"channel":0,"duration":0.1875,"durationBeats":0.5,"durationTicks":480,"endBeat":242.5,"endTick":232800,"endTime":90.9375,"note":72,"startBeat":242,"startTick":232320,"startTime":90.75,"velocity":68},{"channel":0,"duration":0.1875,"durationBeats":0.5,"durationTicks":480,"endBeat":243.5,"endTick":233760,"endTime":91.3125,"note":39,"startBeat":243,"startTick":233280,"startTime":91.125,"velocity":68},{"channel":0,"duration":0.1875,"durationBeats":0.5,"durationTicks":480,"endBeat":243.5,"endTick":233760,"endTime":91.3125,"note":67,"startBeat":243,"startTick":233280,"startTime":91.125,"velocity":68},{"channel":0,"duration":0.1875,"durationBeats":0.5,"durationTicks":480,"endBeat":243.5,"endTick":233760,"endTime":91.3125,"note":70,"startBeat":243,"startTick":233280,"startTime":91.125,"velocity":68},{"channel":0,"duration":0.1875,"durationBeats":0.5,"durationTicks":480,"endBeat":243.5,"endTick":233760,"endTime":91.3125,"note":73,"startBeat":243,"startTick":233280,"startTime":91.125,"velocity":68},{"channel":0,"duration":0.1875,"durationBeats":0.5,"durationTicks":480,"endBeat":243.5,"endTick":233760,"endTime":91.3125,"note":77,"startBeat":243,"startTick":233280,"startTime":91.125,"velocity":68},{"channel":0,"duration":0.1875,"durationBeats":0.5,"durationTicks":480,"endBeat":244.5,"endTick":234720,"endTime":91.6875,"note":38,"startBeat":244,"startTick":234240,"startTime":91.5,"velocity":68},{"channel":0,"duration":0.1875,"durationBeats":0.5,"durationTicks":480,"endBeat":244.5,"endTick":234720,"endTime":91.6875,"note":65,"startBeat":244,"startTick":234240,"startTime":91.5,"velocity":68},{"channel":0,"duration":0.1875,"durationBeats":0.5,"durationTicks":480,"endBeat":244.5,"endTick":234720,"endTime":91.6875,"note":69,"startBeat":244,"startTick":234240,"startTime":91.5,"velocity":68},{"channel":0,"duration":0.1875,"durationBeats":0.5,"durationTicks":480,"endBeat":244.5,"endTick":234720,"endTime":91.6875,"note":72,"startBeat":244,"startTick":234240,"startTime":91.5,"velocity":68},{"channel":0,"duration":0.1875,"durationBeats":0.5,"durationTicks":480,"endBeat":244.5,"endTick":234720,"endTime":91.6875,"note":76,"startBeat":244,"startTick":234240,"startTime":91.5,"velocity":68},{"channel":0,"duration":0.1875,"durationBeats":0.5,"durationTicks":480,"endBeat":245.5,"endTick":235680,"endTime":92.0625,"note":72,"startBeat":245,"startTick":235200,"startTime":91.875,"velocity":68},{"channel":0,"duration":0.1875,"durationBeats":0.5,"durationTicks":480,"endBeat":246,"endTick":236160,"endTime":92.25,"note":65,"startBeat":245.5,"startTick":235680,"startTime":92.0625,"velocity":68},{"channel":0,"duration":0.1875,"durationBeats":0.5,"durationTicks":480,"endBeat":246,"endTick":236160,"endTime":92.25,"note":69,"startBeat":245.5,"startTick":235680,"startTime":92.0625,"velocity":68},{"channel":0,"duration":0.1875,"durationBeats":0.5,"durationTicks":480,"endBeat":246.5,"endTick":236640,"endTime":92.4375,"note":64,"startBeat":246,"startTick":236160,"startTime":92.25,"velocity":68},{"channel":0,"duration":0.1875,"durationBeats":0.5,"durationTicks":480,"endBeat":246.5,"endTick":236640,"endTime":92.4375,"note":67,"startBeat":246,"startTick":236160,"startTime":92.25,"velocity":68},{"channel":0,"duration":0.375,"durationBeats":1,"durationTicks":960,"endBeat":247,"endTick":237120,"endTime":92.625,"note":36,"startBeat":246,"startTick":236160,"startTime":92.25,"velocity":68},{"channel":0,"duration":0.1875,"durationBeats":0.5,"durationTicks":480,"endBeat":247,"endTick":237120,"endTime":92.625,"note":62,"startBeat":246.5,"startTick":236640,"startTime":92.4375,"velocity":68},{"channel":0,"duration":0.1875,"durationBeats":0.5,"durationTicks":480,"endBeat":247,"endTick":237120,"endTime":92.625,"note":65,"startBeat":246.5,"startTick":236640,"startTime":92.4375,"velocity":68},{"channel":0,"duration":0.1875,"durationBeats":0.5,"durationTicks":480,"endBeat":247.5,"endTick":237600,"endTime":92.8125,"note":60,"startBeat":247,"startTick":237120,"startTime":92.625,"velocity":68},{"channel":0,"duration":0.1875,"durationBeats":0.5,"durationTicks":480,"endBeat":247.5,"endTick":237600,"endTime":92.8125,"note":64,"startBeat":247,"startTick":237120,"startTime":92.625,"velocity":68},{"channel":0,"duration":0.375,"durationBeats":1,"durationTicks":960,"endBeat":248,"endTick":238080,"endTime":93,"note":41,"startBeat":247,"startTick":237120,"startTime":92.625,"velocity":68},{"channel":0,"duration":0.1875,"durationBeats":0.5,"durationTicks":480,"endBeat":248,"endTick":238080,"endTime":93,"note":57,"startBeat":247.5,"startTick":237600,"startTime":92.8125,"velocity":68},{"channel":0,"duration":0.1875,"durationBeats":0.5,"durationTicks":480,"endBeat":248,"endTick":238080,"endTime":93,"note":60,"startBeat":247.5,"startTick":237600,"startTime":92.8125,"velocity":68},{"channel":0,"duration":0.375,"durationBeats":1,"durationTicks":960,"endBeat":249,"endTick":239040,"endTime":93.375,"note":34,"startBeat":248,"startTick":238080,"startTime":93,"velocity":68},{"channel":0,"duration":0.1875,"durationBeats":0.5,"durationTicks":480,"endBeat":249,"endTick":239040,"endTime":93.375,"note":53,"startBeat":248.5,"startTick":238560,"startTime":93.1875,"velocity":68},{"channel":0,"duration":0.1875,"durationBeats":0.5,"durationTicks":480,"endBeat":249,"endTick":239040,"endTime":93.375,"note":57,"startBeat":248.5,"startTick":238560,"startTime":93.1875,"velocity":68},{"channel":0,"duration":0.1875,"durationBeats":0.5,"durationTicks":480,"endBeat":249.5,"endTick":239520,"endTime":93.5625,"note":58,"startBeat":249,"startTick":239040,"startTime":93.375,"velocity":68},{"channel":0,"duration":0.375,"durationBeats":1,"durationTicks":960,"endBeat":250,"endTick":240000,"endTime":93.75,"note":38,"startBeat":249,"startTick":239040,"startTime":93.375,"velocity":68},{"channel":0,"duration":0.375,"durationBeats":1,"durationTicks":960,"endBeat":250,"endTick":240000,"endTime":93.75,"note":50,"startBeat":249,"startTick":239040,"startTime":93.375,"velocity":68},{"channel":0,"duration":0.1875,"durationBeats":0.5,"durationTicks":480,"endBeat":250,"endTick":240000,"endTime":93.75,"note":57,"startBeat":249.5,"startTick":239520,"startTime":93.5625,"velocity":68},{"channel":0,"duration":0.1875,"durationBeats":0.5,"durationTicks":480,"endBeat":250,"endTick":240000,"endTime":93.75,"note":60,"startBeat":249.5,"startTick":239520,"startTime":93.5625,"velocity":68},{"channel":0,"duration":0.1875,"durationBeats":0.5,"durationTicks":480,"endBeat":250.5,"endTick":240480,"endTime":93.9375,"note":58,"startBeat":250,"startTick":240000,"startTime":93.75,"velocity":68},{"channel":0,"duration":0.1875,"durationBeats":0.5,"durationTicks":480,"endBeat":250.5,"endTick":240480,"endTime":93.9375,"note":62,"startBeat":250,"startTick":240000,"startTime":93.75,"velocity":68},{"channel":0,"duration":0.375,"durationBeats":1,"durationTicks":960,"endBeat":251,"endTick":240960,"endTime":94.125,"note":40,"startBeat":250,"startTick":240000,"startTime":93.75,"velocity":68},{"channel":0,"duration":0.1875,"durationBeats":0.5,"durationTicks":480,"endBeat":251,"endTick":240960,"endTime":94.125,"note":60,"startBeat":250.5,"startTick":240480,"startTime":93.9375,"velocity":68},{"channel":0,"duration":0.1875,"durationBeats":0.5,"durationTicks":480,"endBeat":251,"endTick":240960,"endTime":94.125,"note":64,"startBeat":250.5,"startTick":240480,"startTime":93.9375,"velocity":68},{"channel":0,"duration":0.1875,"durationBeats":0.5,"durationTicks":480,"endBeat":251.5,"endTick":241440,"endTime":94.3125,"note":62,"startBeat":251,"startTick":240960,"startTime":94.125,"velocity":68},{"channel":0,"duration":0.1875,"durationBeats":0.5,"durationTicks":480,"endBeat":251.5,"endTick":241440,"endTime":94.3125,"note":65,"startBeat":251,"startTick":240960,"startTime":94.125,"velocity":68},{"channel":0,"duration":0.375,"durationBeats":1,"durationTicks":960,"endBeat":252,"endTick":241920,"endTime":94.5,"note":43,"startBeat":251,"startTick":240960,"startTime":94.125,"velocity":68},{"channel":0,"duration":0.1875,"durationBeats":0.5,"durationTicks":480,"endBeat":252,"endTick":241920,"endTime":94.5,"note":64,"startBeat":251.5,"startTick":241440,"startTime":94.3125,"velocity":68},{"channel":0,"duration":0.1875,"durationBeats":0.5,"durationTicks":480,"endBeat":252,"endTick":241920,"endTime":94.5,"note":67,"startBeat":251.5,"startTick":241440,"startTime":94.3125,"velocity":68},{"channel":0,"duration":0.1875,"durationBeats":0.5,"durationTicks":480,"endBeat":252.5,"endTick":242400,"endTime":94.6875,"note":45,"startBeat":252,"startTick":241920,"startTime":94.5,"velocity":68},{"channel":0,"duration":0.1875,"durationBeats":0.5,"durationTicks":480,"endBeat":252.5,"endTick":242400,"endTime":94.6875,"note":61,"startBeat":252,"startTick":241920,"startTime":94.5,"velocity":68},{"channel":0,"duration":0.1875,"durationBeats":0.5,"durationTicks":480,"endBeat":252.5,"endTick":242400,"endTime":94.6875,"note":64,"startBeat":252,"startTick":241920,"startTime":94.5,"velocity":68},{"channel":0,"duration":0.046875,"durationBeats":0.125,"durationTicks":120,"endBeat":252.625,"endTick":242520,"endTime":94.734375,"note":45,"startBeat":252.5,"startTick":242400,"startTime":94.6875,"velocity":68},{"channel":0,"duration":0.046875,"durationBeats":0.125,"durationTicks":120,"endBeat":252.875,"endTick":242760,"endTime":94.828125,"note":45,"startBeat":252.75,"startTick":242640,"startTime":94.78125,"velocity":68},{"channel":0,"duration":0.1875,"durationBeats":0.5,"durationTicks":480,"endBeat":253.5,"endTick":243360,"endTime":95.0625,"note":45,"startBeat":253,"startTick":242880,"startTime":94.875,"velocity":68},{"channel":0,"duration":0.1875,"durationBeats":0.5,"durationTicks":480,"endBeat":253.5,"endTick":243360,"endTime":95.0625,"note":61,"startBeat":253,"startTick":242880,"startTime":94.875,"velocity":68},{"channel":0,"duration":0.1875,"durationBeats":0.5,"durationTicks":480,"endBeat":253.5,"endTick":243360,"endTime":95.0625,"note":64,"startBeat":253,"startTick":242880,"startTime":94.875,"velocity":68},{"channel":0,"duration":0.1875,"durationBeats":0.5,"durationTicks":480,"endBeat":253.5,"endTick":243360,"endTime":95.0625,"note":69,"startBeat":253,"startTick":242880,"startTime":94.875,"velocity":68},{"channel":0,"duration":0.1875,"durationBeats":0.5,"durationTicks":480,"endBeat":254,"endTick":243840,"endTime":95.25,"note":33,"startBeat":253.5,"startTick":243360,"startTime":95.0625,"velocity":68},{"channel":0,"duration":0.1875,"durationBeats":0.5,"durationTicks":480,"endBeat":254.5,"endTick":244320,"endTime":95.4375,"note":45,"startBeat":254,"startTick":243840,"startTime":95.25,"velocity":68},{"channel":0,"duration":0.1875,"durationBeats":0.5,"durationTicks":480,"endBeat":254.5,"endTick":244320,"endTime":95.4375,"note":73,"startBeat":254,"startTick":243840,"startTime":95.25,"velocity":68},{"channel":0,"duration":0.1875,"durationBeats":0.5,"durationTicks":480,"endBeat":254.5,"endTick":244320,"endTime":95.4375,"note":76,"startBeat":254,"startTick":243840,"startTime":95.25,"velocity":68},{"channel":0,"duration":0.1875,"durationBeats":0.5,"durationTicks":480,"endBeat":254.5,"endTick":244320,"endTime":95.4375,"note":81,"startBeat":254,"startTick":243840,"startTime":95.25,"velocity":68},{"channel":0,"duration":0.1875,"durationBeats":0.5,"durationTicks":480,"endBeat":255,"endTick":244800,"endTime":95.625,"note":33,"startBeat":254.5,"startTick":244320,"startTime":95.4375,"velocity":68},{"channel":0,"duration":0.1875,"durationBeats":0.5,"durationTicks":480,"endBeat":255,"endTick":244800,"endTime":95.625,"note":45,"startBeat":254.5,"startTick":244320,"startTime":95.4375,"velocity":68},{"channel":0,"duration":0.1875,"durationBeats":0.5,"durationTicks":480,"endBeat":255.5,"endTick":245280,"endTime":95.8125,"note":33,"startBeat":255,"startTick":244800,"startTime":95.625,"velocity":68},{"channel":0,"duration":0.1875,"durationBeats":0.5,"durationTicks":480,"endBeat":255.5,"endTick":245280,"endTime":95.8125,"note":45,"startBeat":255,"startTick":244800,"startTime":95.625,"velocity":68},{"channel":0,"duration":0.1875,"durationBeats":0.5,"durationTicks":480,"endBeat":255.5,"endTick":245280,"endTime":95.8125,"note":61,"startBeat":255,"startTick":244800,"startTime":95.625,"velocity":68},{"channel":0,"duration":0.1875,"durationBeats":0.5,"durationTicks":480,"endBeat":255.5,"endTick":245280,"endTime":95.8125,"note":67,"startBeat":255,"startTick":244800,"startTime":95.625,"velocity":68},{"channel":0,"duration":0.1875,"durationBeats":0.5,"durationTicks":480,"endBeat":255.5,"endTick":245280,"endTime":95.8125,"note":72,"startBeat":255,"startTick":244800,"startTime":95.625,"velocity":68},{"channel":0,"duration":0.09375,"durationBeats":0.25,"durationTicks":240,"endBeat":255.75,"endTick":245520,"endTime":95.90625,"note":71,"startBeat":255.5,"startTick":245280,"startTime":95.8125,"velocity":68},{"channel":0,"duration":0.1875,"durationBeats":0.5,"durationTicks":480,"endBeat":256,"endTick":245760,"endTime":96,"note":33,"startBeat":255.5,"startTick":245280,"startTime":95.8125,"velocity":68},{"channel":0,"duration":0.1875,"durationBeats":0.5,"durationTicks":480,"endBeat":256,"endTick":245760,"endTime":96,"note":45,"startBeat":255.5,"startTick":245280,"startTime":95.8125,"velocity":68},{"channel":0,"duration":0.09375,"durationBeats":0.25,"durationTicks":240,"endBeat":256,"endTick":245760,"endTime":96,"note":70,"startBeat":255.75,"startTick":245520,"startTime":95.90625,"velocity":68},{"channel":0,"duration":0.1875,"durationBeats":0.5,"durationTicks":480,"endBeat":256.5,"endTick":246240,"endTime":96.1875,"note":31,"startBeat":256,"startTick":245760,"startTime":96,"velocity":68},{"channel":0,"duration":0.375,"durationBeats":1,"durationTicks":960,"endBeat":257,"endTick":246720,"endTime":96.375,"note":58,"startBeat":256,"startTick":245760,"startTime":96,"velocity":68},{"channel":0,"duration":0.375,"durationBeats":1,"durationTicks":960,"endBeat":257,"endTick":246720,"endTime":96.375,"note":62,"startBeat":256,"startTick":245760,"startTime":96,"velocity":68},{"channel":0,"duration":0.375,"durationBeats":1,"durationTicks":960,"endBeat":257,"endTick":246720,"endTime":96.375,"note":65,"startBeat":256,"startTick":245760,"startTime":96,"velocity":68},{"channel":0,"duration":0.375,"durationBeats":1,"durationTicks":960,"endBeat":257,"endTick":246720,"endTime":96.375,"note":69,"startBeat":256,"startTick":245760,"startTime":96,"velocity":68},{"channel":0,"duration":0.1875,"durationBeats":0.5,"durationTicks":480,"endBeat":257.5,"endTick":247200,"endTime":96.5625,"note":31,"startBeat":257,"startTick":246720,"startTime":96.375,"velocity":68},{"channel":0,"duration":0.1875,"durationBeats":0.5,"durationTicks":480,"endBeat":258.5,"endTick":248160,"endTime":96.9375,"note":33,"startBeat":258,"startTick":247680,"startTime":96.75,"velocity":68},{"channel":0,"duration":0.1875,"durationBeats":0.5,"durationTicks":480,"endBeat":258.5,"endTick":248160,"endTime":96.9375,"note":60,"startBeat":258,"startTick":247680,"startTime":96.75,"velocity":68},{"channel":0,"duration":0.1875,"durationBeats":0.5,"durationTicks":480,"endBeat":258.5,"endTick":248160,"endTime":96.9375,"note":64,"startBeat":258,"startTick":247680,"startTime":96.75,"velocity":68},{"channel":0,"duration":0.1875,"durationBeats":0.5,"durationTicks":480,"endBeat":258.5,"endTick":248160,"endTime":96.9375,"note":67,"startBeat":258,"startTick":247680,"startTime":96.75,"velocity":68},{"channel":0,"duration":0.1875,"durationBeats":0.5,"durationTicks":480,"endBeat":258.5,"endTick":248160,"endTime":96.9375,"note":72,"startBeat":258,"startTick":247680,"startTime":96.75,"velocity":68},{"channel":0,"duration":0.1875,"durationBeats":0.5,"durationTicks":480,"endBeat":259.25,"endTick":248880,"endTime":97.21875,"note":33,"startBeat":258.75,"startTick":248400,"startTime":97.03125,"velocity":68},{"channel":0,"duration":0.1875,"durationBeats":0.5,"durationTicks":480,"endBeat":259.5,"endTick":249120,"endTime":97.3125,"note":61,"startBeat":259,"startTick":248640,"startTime":97.125,"velocity":68},{"channel":0,"duration":0.1875,"durationBeats":0.5,"durationTicks":480,"endBeat":259.5,"endTick":249120,"endTime":97.3125,"note":65,"startBeat":259,"startTick":248640,"startTime":97.125,"velocity":68},{"channel":0,"duration":0.1875,"durationBeats":0.5,"durationTicks":480,"endBeat":259.5,"endTick":249120,"endTime":97.3125,"note":67,"startBeat":259,"startTick":248640,"startTime":97.125,"velocity":68},{"channel":0,"duration":0.1875,"durationBeats":0.5,"durationTicks":480,"endBeat":259.5,"endTick":249120,"endTime":97.3125,"note":70,"startBeat":259,"startTick":248640,"startTime":97.125,"velocity":68},{"channel":0,"duration":0.1875,"durationBeats":0.5,"durationTicks":480,"endBeat":260,"endTick":249600,"endTime":97.5,"note":33,"startBeat":259.5,"startTick":249120,"startTime":97.3125,"velocity":68},{"channel":0,"duration":0.1875,"durationBeats":0.5,"durationTicks":480,"endBeat":260.5,"endTick":250080,"endTime":97.6875,"note":26,"startBeat":260,"startTick":249600,"startTime":97.5,"velocity":68},{"channel":0,"duration":0.1875,"durationBeats":0.5,"durationTicks":480,"endBeat":260.5,"endTick":250080,"endTime":97.6875,"note":60,"startBeat":260,"startTick":249600,"startTime":97.5,"velocity":68},{"channel":0,"duration":0.1875,"durationBeats":0.5,"durationTicks":480,"endBeat":260.5,"endTick":250080,"endTime":97.6875,"note":64,"startBeat":260,"startTick":249600,"startTime":97.5,"velocity":68},{"channel":0,"duration":0.1875,"durationBeats":0.5,"durationTicks":480,"endBeat":260.5,"endTick":250080,"endTime":97.6875,"note":65,"startBeat":260,"startTick":249600,"startTime":97.5,"velocity":68},{"channel":0,"duration":0.1875,"durationBeats":0.5,"durationTicks":480,"endBeat":260.5,"endTick":250080,"endTime":97.6875,"note":69,"startBeat":260,"startTick":249600,"startTime":97.5,"velocity":68},{"channel":0,"duration":0.1875,"durationBeats":0.5,"durationTicks":480,"endBeat":261.5,"endTick":251040,"endTime":98.0625,"note":26,"startBeat":261,"startTick":250560,"startTime":97.875,"velocity":68},{"channel":0,"duration":0.1875,"durationBeats":0.5,"durationTicks":480,"endBeat":262.5,"endTick":252000,"endTime":98.4375,"note":38,"startBeat":262,"startTick":251520,"startTime":98.25,"velocity":68},{"channel":0,"duration":0.1875,"durationBeats":0.5,"durationTicks":480,"endBeat":262.5,"endTick":252000,"endTime":98.4375,"note":60,"startBeat":262,"startTick":251520,"startTime":98.25,"velocity":68},{"channel":0,"duration":0.1875,"durationBeats":0.5,"durationTicks":480,"endBeat":262.5,"endTick":252000,"endTime":98.4375,"note":64,"startBeat":262,"startTick":251520,"startTime":98.25,"velocity":68},{"channel":0,"duration":0.1875,"durationBeats":0.5,"durationTicks":480,"endBeat":262.5,"endTick":252000,"endTime":98.4375,"note":65,"startBeat":262,"startTick":251520,"startTime":98.25,"velocity":68},{"channel":0,"duration":0.1875,"durationBeats":0.5,"durationTicks":480,"endBeat":262.5,"endTick":252000,"endTime":98.4375,"note":69,"startBeat":262,"startTick":251520,"startTime":98.25,"velocity":68},{"channel":0,"duration":0.1875,"durationBeats":0.5,"durationTicks":480,"endBeat":263.25,"endTick":252720,"endTime":98.71875,"note":33,"startBeat":262.75,"startTick":252240,"startTime":98.53125,"velocity":68},{"channel":0,"duration":0.1875,"durationBeats":0.5,"durationTicks":480,"endBeat":263.5,"endTick":252960,"endTime":98.8125,"note":59,"startBeat":263,"startTick":252480,"startTime":98.625,"velocity":68},{"channel":0,"duration":0.1875,"durationBeats":0.5,"durationTicks":480,"endBeat":263.5,"endTick":252960,"endTime":98.8125,"note":63,"startBeat":263,"startTick":252480,"startTime":98.625,"velocity":68},{"channel":0,"duration":0.1875,"durationBeats":0.5,"durationTicks":480,"endBeat":263.5,"endTick":252960,"endTime":98.8125,"note":68,"startBeat":263,"startTick":252480,"startTime":98.625,"velocity":68},{"channel":0,"duration":0.1875,"durationBeats":0.5,"durationTicks":480,"endBeat":264,"endTick":253440,"endTime":99,"note":32,"startBeat":263.5,"startTick":252960,"startTime":98.8125,"velocity":68},{"channel":0,"duration":0.1875,"durationBeats":0.5,"durationTicks":480,"endBeat":264.5,"endTick":253920,"endTime":99.1875,"note":31,"startBeat":264,"startTick":253440,"startTime":99,"velocity":68},{"channel":0,"duration":0.375,"durationBeats":1,"durationTicks":960,"endBeat":265,"endTick":254400,"endTime":99.375,"note":58,"startBeat":264,"startTick":253440,"startTime":99,"velocity":68},{"channel":0,"duration":0.375,"durationBeats":1,"durationTicks":960,"endBeat":265,"endTick":254400,"endTime":99.375,"note":62,"startBeat":264,"startTick":253440,"startTime":99,"velocity":68},{"channel":0,"duration":0.375,"durationBeats":1,"durationTicks":960,"endBeat":265,"endTick":254400,"endTime":99.375,"note":65,"startBeat":264,"startTick":253440,"startTime":99,"velocity":68},{"channel":0,"duration":0.375,"durationBeats":1,"durationTicks":960,"endBeat":265,"endTick":254400,"endTime":99.375,"note":69,"startBeat":264,"startTick":253440,"startTime":99,"velocity":68},{"channel":0,"duration":0.1875,"durationBeats":0.5,"durationTicks":480,"endBeat":265.5,"endTick":254880,"endTime":99.5625,"note":31,"startBeat":265,"startTick":254400,"startTime":99.375,"velocity":68},{"channel":0,"duration":0.1875,"durationBeats":0.5,"durationTicks":480,"endBeat":266.5,"endTick":255840,"endTime":99.9375,"note":33,"startBeat":266,"startTick":255360,"startTime":99.75,"velocity":68},{"channel":0,"duration":0.1875,"durationBeats":0.5,"durationTicks":480,"endBeat":266.5,"endTick":255840,"endTime":99.9375,"note":60,"startBeat":266,"startTick":255360,"startTime":99.75,"velocity":68},{"channel":0,"duration":0.1875,"durationBeats":0.5,"durationTicks":480,"endBeat":266.5,"endTick":255840,"endTime":99.9375,"note":64,"startBeat":266,"startTick":255360,"startTime":99.75,"velocity":68},{"channel":0,"duration":0.1875,"durationBeats":0.5,"durationTicks":480,"endBeat":266.5,"endTick":255840,"endTime":99.9375,"note":67,"startBeat":266,"startTick":255360,"startTime":99.75,"velocity":68},{"channel":0,"duration":0.1875,"durationBeats":0.5,"durationTicks":480,"endBeat":266.5,"endTick":255840,"endTime":99.9375,"note":72,"startBeat":266,"startTick":255360,"startTime":99.75,"velocity":68},{"channel":0,"duration":0.1875,"durationBeats":0.5,"durationTicks":480,"endBeat":267.25,"endTick":256560,"endTime":100.21875,"note":33,"startBeat":266.75,"startTick":256080,"startTime":100.03125,"velocity":68},{"channel":0,"duration":0.1875,"durationBeats":0.5,"durationTicks":480,"endBeat":267.5,"endTick":256800,"endTime":100.3125,"note":61,"startBeat":267,"startTick":256320,"startTime":100.125,"velocity":68},{"channel":0,"duration":0.1875,"durationBeats":0.5,"durationTicks":480,"endBeat":267.5,"endTick":256800,"endTime":100.3125,"note":65,"startBeat":267,"startTick":256320,"startTime":100.125,"velocity":68},{"channel":0,"duration":0.1875,"durationBeats":0.5,"durationTicks":480,"endBeat":267.5,"endTick":256800,"endTime":100.3125,"note":67,"startBeat":267,"startTick":256320,"startTime":100.125,"velocity":68},{"channel":0,"duration":0.1875,"durationBeats":0.5,"durationTicks":480,"endBeat":267.5,"endTick":256800,"endTime":100.3125,"note":70,"startBeat":267,"startTick":256320,"startTime":100.125,"velocity":68},{"channel":0,"duration":0.1875,"durationBeats":0.5,"durationTicks":480,"endBeat":268,"endTick":257280,"endTime":100.5,"note":33,"startBeat":267.5,"startTick":256800,"startTime":100.3125,"velocity":68},{"channel":0,"duration":0.1875,"durationBeats":0.5,"durationTicks":480,"endBeat":268.5,"endTick":257760,"endTime":100.6875,"note":26,"startBeat":268,"startTick":257280,"startTime":100.5,"velocity":68},{"channel":0,"duration":0.1875,"durationBeats":0.5,"durationTicks":480,"endBeat":268.5,"endTick":257760,"endTime":100.6875,"note":60,"startBeat":268,"startTick":257280,"startTime":100.5,"velocity":68},{"channel":0,"duration":0.1875,"durationBeats":0.5,"durationTicks":480,"endBeat":268.5,"endTick":257760,"endTime":100.6875,"note":64,"startBeat":268,"startTick":257280,"startTime":100.5,"velocity":68},{"channel":0,"duration":0.1875,"durationBeats":0.5,"durationTicks":480,"endBeat":268.5,"endTick":257760,"endTime":100.6875,"note":65,"startBeat":268,"startTick":257280,"startTime":100.5,"velocity":68},{"channel":0,"duration":0.1875,"durationBeats":0.5,"durationTicks":480,"endBeat":268.5,"endTick":257760,"endTime":100.6875,"note":69,"startBeat":268,"startTick":257280,"startTime":100.5,"velocity":68},{"channel":0,"duration":0.1875,"durationBeats":0.5,"durationTicks":480,"endBeat":269.5,"endTick":258720,"endTime":101.0625,"note":26,"startBeat":269,"startTick":258240,"startTime":100.875,"velocity":68},{"channel":0,"duration":0.1875,"durationBeats":0.5,"durationTicks":480,"endBeat":270.5,"endTick":259680,"endTime":101.4375,"note":38,"startBeat":270,"startTick":259200,"startTime":101.25,"velocity":68},{"channel":0,"duration":0.1875,"durationBeats":0.5,"durationTicks":480,"endBeat":270.5,"endTick":259680,"endTime":101.4375,"note":60,"startBeat":270,"startTick":259200,"startTime":101.25,"velocity":68},{"channel":0,"duration":0.1875,"durationBeats":0.5,"durationTicks":480,"endBeat":270.5,"endTick":259680,"endTime":101.4375,"note":64,"startBeat":270,"startTick":259200,"startTime":101.25,"velocity":68},{"channel":0,"duration":0.1875,"durationBeats":0.5,"durationTicks":480,"endBeat":270.5,"endTick":259680,"endTime":101.4375,"note":65,"startBeat":270,"startTick":259200,"startTime":101.25,"velocity":68},{"channel":0,"duration":0.1875,"durationBeats":0.5,"durationTicks":480,"endBeat":270.5,"endTick":259680,"endTime":101.4375,"note":69,"startBeat":270,"startTick":259200,"startTime":101.25,"velocity":68},{"channel":0,"duration":0.1875,"durationBeats":0.5,"durationTicks":480,"endBeat":271.25,"endTick":260400,"endTime":101.71875,"note":33,"startBeat":270.75,"startTick":259920,"startTime":101.53125,"velocity":68},{"channel":0,"duration":0.1875,"durationBeats":0.5,"durationTicks":480,"endBeat":271.5,"endTick":260640,"endTime":101.8125,"note":69,"startBeat":271,"startTick":260160,"startTime":101.625,"velocity":68},{"channel":0,"duration":0.1875,"durationBeats":0.5,"durationTicks":480,"endBeat":271.5,"endTick":260640,"endTime":101.8125,"note":72,"startBeat":271,"startTick":260160,"startTime":101.625,"velocity":68},{"channel":0,"duration":0.1875,"durationBeats":0.5,"durationTicks":480,"endBeat":271.5,"endTick":260640,"endTime":101.8125,"note":74,"startBeat":271,"startTick":260160,"startTime":101.625,"velocity":68},{"channel":0,"duration":0.1875,"durationBeats":0.5,"durationTicks":480,"endBeat":271.5,"endTick":260640,"endTime":101.8125,"note":77,"startBeat":271,"startTick":260160,"startTime":101.625,"velocity":68},{"channel":0,"duration":0.1875,"durationBeats":0.5,"durationTicks":480,"endBeat":272,"endTick":261120,"endTime":102,"note":32,"startBeat":271.5,"startTick":260640,"startTime":101.8125,"velocity":68},{"channel":0,"duration":0.1875,"durationBeats":0.5,"durationTicks":480,"endBeat":272.5,"endTick":261600,"endTime":102.1875,"note":31,"startBeat":272,"startTick":261120,"startTime":102,"velocity":68},{"channel":0,"duration":0.375,"durationBeats":1,"durationTicks":960,"endBeat":273,"endTick":262080,"endTime":102.375,"note":58,"startBeat":272,"startTick":261120,"startTime":102,"velocity":68},{"channel":0,"duration":0.375,"durationBeats":1,"durationTicks":960,"endBeat":273,"endTick":262080,"endTime":102.375,"note":62,"startBeat":272,"startTick":261120,"startTime":102,"velocity":68},{"channel":0,"duration":0.375,"durationBeats":1,"durationTicks":960,"endBeat":273,"endTick":262080,"endTime":102.375,"note":65,"startBeat":272,"startTick":261120,"startTime":102,"velocity":68},{"channel":0,"duration":0.375,"durationBeats":1,"durationTicks":960,"endBeat":273,"endTick":262080,"endTime":102.375,"note":69,"startBeat":272,"startTick":261120,"startTime":102,"velocity":68},{"channel":0,"duration":0.1875,"durationBeats":0.5,"durationTicks":480,"endBeat":273.5,"endTick":262560,"endTime":102.5625,"note":31,"startBeat":273,"startTick":262080,"startTime":102.375,"velocity":68},{"channel":0,"duration":0.1875,"durationBeats":0.5,"durationTicks":480,"endBeat":274.5,"endTick":263520,"endTime":102.9375,"note":33,"startBeat":274,"startTick":263040,"startTime":102.75,"velocity":68},{"channel":0,"duration":0.1875,"durationBeats":0.5,"durationTicks":480,"endBeat":274.5,"endTick":263520,"endTime":102.9375,"note":60,"startBeat":274,"startTick":263040,"startTime":102.75,"velocity":68},{"channel":0,"duration":0.1875,"durationBeats":0.5,"durationTicks":480,"endBeat":274.5,"endTick":263520,"endTime":102.9375,"note":64,"startBeat":274,"startTick":263040,"startTime":102.75,"velocity":68},{"channel":0,"duration":0.1875,"durationBeats":0.5,"durationTicks":480,"endBeat":274.5,"endTick":263520,"endTime":102.9375,"note":67,"startBeat":274,"startTick":263040,"startTime":102.75,"velocity":68},{"channel":0,"duration":0.1875,"durationBeats":0.5,"durationTicks":480,"endBeat":274.5,"endTick":263520,"endTime":102.9375,"note":72,"startBeat":274,"startTick":263040,"startTime":102.75,"velocity":68},{"channel":0,"duration":0.1875,"durationBeats":0.5,"durationTicks":480,"endBeat":275.25,"endTick":264240,"endTime":103.21875,"note":33,"startBeat":274.75,"startTick":263760,"startTime":103.03125,"velocity":68},{"channel":0,"duration":0.1875,"durationBeats":0.5,"durationTicks":480,"endBeat":275.5,"endTick":264480,"endTime":103.3125,"note":61,"startBeat":275,"startTick":264000,"startTime":103.125,"velocity":68},{"channel":0,"duration":0.1875,"durationBeats":0.5,"durationTicks":480,"endBeat":275.5,"endTick":264480,"endTime":103.3125,"note":65,"startBeat":275,"startTick":264000,"startTime":103.125,"velocity":68},{"channel":0,"duration":0.1875,"durationBeats":0.5,"durationTicks":480,"endBeat":275.5,"endTick":264480,"endTime":103.3125,"note":67,"startBeat":275,"startTick":264000,"startTime":103.125,"velocity":68},{"channel":0,"duration":0.1875,"durationBeats":0.5,"durationTicks":480,"endBeat":275.5,"endTick":264480,"endTime":103.3125,"note":70,"startBeat":275,"startTick":264000,"startTime":103.125,"velocity":68},{"channel":0,"duration":0.1875,"durationBeats":0.5,"durationTicks":480,"endBeat":276,"endTick":264960,"endTime":103.5,"note":33,"startBeat":275.5,"startTick":264480,"startTime":103.3125,"velocity":68},{"channel":0,"duration":0.1875,"durationBeats":0.5,"durationTicks":480,"endBeat":276.5,"endTick":265440,"endTime":103.6875,"note":26,"startBeat":276,"startTick":264960,"startTime":103.5,"velocity":68},{"channel":0,"duration":0.1875,"durationBeats":0.5,"durationTicks":480,"endBeat":276.5,"endTick":265440,"endTime":103.6875,"note":60,"startBeat":276,"startTick":264960,"startTime":103.5,"velocity":68},{"channel":0,"duration":0.1875,"durationBeats":0.5,"durationTicks":480,"endBeat":276.5,"endTick":265440,"endTime":103.6875,"note":64,"startBeat":276,"startTick":264960,"startTime":103.5,"velocity":68},{"channel":0,"duration":0.1875,"durationBeats":0.5,"durationTicks":480,"endBeat":276.5,"endTick":265440,"endTime":103.6875,"note":65,"startBeat":276,"startTick":264960,"startTime":103.5,"velocity":68},{"channel":0,"duration":0.1875,"durationBeats":0.5,"durationTicks":480,"endBeat":276.5,"endTick":265440,"endTime":103.6875,"note":69,"startBeat":276,"startTick":264960,"startTime":103.5,"velocity":68},{"channel":0,"duration":0.1875,"durationBeats":0.5,"durationTicks":480,"endBeat":277.5,"endTick":266400,"endTime":104.0625,"note":26,"startBeat":277,"startTick":265920,"startTime":103.875,"velocity":68},{"channel":0,"duration":0.1875,"durationBeats":0.5,"durationTicks":480,"endBeat":278.5,"endTick":267360,"endTime":104.4375,"note":38,"startBeat":278,"startTick":266880,"startTime":104.25,"velocity":68},{"channel":0,"duration":0.1875,"durationBeats":0.5,"durationTicks":480,"endBeat":278.5,"endTick":267360,"endTime":104.4375,"note":60,"startBeat":278,"startTick":266880,"startTime":104.25,"velocity":68},{"channel":0,"duration":0.1875,"durationBeats":0.5,"durationTicks":480,"endBeat":278.5,"endTick":267360,"endTime":104.4375,"note":64,"startBeat":278,"startTick":266880,"startTime":104.25,"velocity":68},{"channel":0,"duration":0.1875,"durationBeats":0.5,"durationTicks":480,"endBeat":278.5,"endTick":267360,"endTime":104.4375,"note":65,"startBeat":278,"startTick":266880,"startTime":104.25,"velocity":68},{"channel":0,"duration":0.1875,"durationBeats":0.5,"durationTicks":480,"endBeat":278.5,"endTick":267360,"endTime":104.4375,"note":69,"startBeat":278,"startTick":266880,"startTime":104.25,"velocity":68},{"channel":0,"duration":0.1875,"durationBeats":0.5,"durationTicks":480,"endBeat":279.25,"endTick":268080,"endTime":104.71875,"note":33,"startBeat":278.75,"startTick":267600,"startTime":104.53125,"velocity":68},{"channel":0,"duration":0.1875,"durationBeats":0.5,"durationTicks":480,"endBeat":279.5,"endTick":268320,"endTime":104.8125,"note":59,"startBeat":279,"startTick":267840,"startTime":104.625,"velocity":68},{"channel":0,"duration":0.1875,"durationBeats":0.5,"durationTicks":480,"endBeat":279.5,"endTick":268320,"endTime":104.8125,"note":63,"startBeat":279,"startTick":267840,"startTime":104.625,"velocity":68},{"channel":0,"duration":0.1875,"durationBeats":0.5,"durationTicks":480,"endBeat":279.5,"endTick":268320,"endTime":104.8125,"note":68,"startBeat":279,"startTick":267840,"startTime":104.625,"velocity":68},{"channel":0,"duration":0.1875,"durationBeats":0.5,"durationTicks":480,"endBeat":280,"endTick":268800,"endTime":105,"note":32,"startBeat":279.5,"startTick":268320,"startTime":104.8125,"velocity":68},{"channel":0,"duration":0.1875,"durationBeats":0.5,"durationTicks":480,"endBeat":280.5,"endTick":269280,"endTime":105.1875,"note":31,"startBeat":280,"startTick":268800,"startTime":105,"velocity":68},{"channel":0,"duration":0.375,"durationBeats":1,"durationTicks":960,"endBeat":281,"endTick":269760,"endTime":105.375,"note":58,"startBeat":280,"startTick":268800,"startTime":105,"velocity":68},{"channel":0,"duration":0.375,"durationBeats":1,"durationTicks":960,"endBeat":281,"endTick":269760,"endTime":105.375,"note":62,"startBeat":280,"startTick":268800,"startTime":105,"velocity":68},{"channel":0,"duration":0.375,"durationBeats":1,"durationTicks":960,"endBeat":281,"endTick":269760,"endTime":105.375,"note":65,"startBeat":280,"startTick":268800,"startTime":105,"velocity":68},{"channel":0,"duration":0.375,"durationBeats":1,"durationTicks":960,"endBeat":281,"endTick":269760,"endTime":105.375,"note":69,"startBeat":280,"startTick":268800,"startTime":105,"velocity":68},{"channel":0,"duration":0.1875,"durationBeats":0.5,"durationTicks":480,"endBeat":281.5,"endTick":270240,"endTime":105.5625,"note":31,"startBeat":281,"startTick":269760,"startTime":105.375,"velocity":68},{"channel":0,"duration":0.1875,"durationBeats":0.5,"durationTicks":480,"endBeat":282.5,"endTick":271200,"endTime":105.9375,"note":33,"startBeat":282,"startTick":270720,"startTime":105.75,"velocity":68},{"channel":0,"duration":0.1875,"durationBeats":0.5,"durationTicks":480,"endBeat":282.5,"endTick":271200,"endTime":105.9375,"note":60,"startBeat":282,"startTick":270720,"startTime":105.75,"velocity":68},{"channel":0,"duration":0.1875,"durationBeats":0.5,"durationTicks":480,"endBeat":282.5,"endTick":271200,"endTime":105.9375,"note":64,"startBeat":282,"startTick":270720,"startTime":105.75,"velocity":68},{"channel":0,"duration":0.1875,"durationBeats":0.5,"durationTicks":480,"endBeat":282.5,"endTick":271200,"endTime":105.9375,"note":67,"startBeat":282,"startTick":270720,"startTime":105.75,"velocity":68},{"channel":0,"duration":0.1875,"durationBeats":0.5,"durationTicks":480,"endBeat":282.5,"endTick":271200,"endTime":105.9375,"note":72,"startBeat":282,"startTick":270720,"startTime":105.75,"velocity":68},{"channel":0,"duration":0.1875,"durationBeats":0.5,"durationTicks":480,"endBeat":283.25,"endTick":271920,"endTime":106.21875,"note":33,"startBeat":282.75,"startTick":271440,"startTime":106.03125,"velocity":68},{"channel":0,"duration":0.1875,"durationBeats":0.5,"durationTicks":480,"endBeat":283.5,"endTick":272160,"endTime":106.3125,"note":61,"startBeat":283,"startTick":271680,"startTime":106.125,"velocity":68},{"channel":0,"duration":0.1875,"durationBeats":0.5,"durationTicks":480,"endBeat":283.5,"endTick":272160,"endTime":106.3125,"note":65,"startBeat":283,"startTick":271680,"startTime":106.125,"velocity":68},{"channel":0,"duration":0.1875,"durationBeats":0.5,"durationTicks":480,"endBeat":283.5,"endTick":272160,"endTime":106.3125,"note":67,"startBeat":283,"startTick":271680,"startTime":106.125,"velocity":68},{"channel":0,"duration":0.1875,"durationBeats":0.5,"durationTicks":480,"endBeat":283.5,"endTick":272160,"endTime":106.3125,"note":70,"startBeat":283,"startTick":271680,"startTime":106.125,"velocity":68},{"channel":0,"duration":0.1875,"durationBeats":0.5,"durationTicks":480,"endBeat":284,"endTick":272640,"endTime":106.5,"note":33,"startBeat":283.5,"startTick":272160,"startTime":106.3125,"velocity":68},{"channel":0,"duration":0.1875,"durationBeats":0.5,"durationTicks":480,"endBeat":284.5,"endTick":273120,"endTime":106.6875,"note":26,"startBeat":284,"startTick":272640,"startTime":106.5,"velocity":68},{"channel":0,"duration":0.1875,"durationBeats":0.5,"durationTicks":480,"endBeat":284.5,"endTick":273120,"endTime":106.6875,"note":60,"startBeat":284,"startTick":272640,"startTime":106.5,"velocity":68},{"channel":0,"duration":0.1875,"durationBeats":0.5,"durationTicks":480,"endBeat":284.5,"endTick":273120,"endTime":106.6875,"note":64,"startBeat":284,"startTick":272640,"startTime":106.5,"velocity":68},{"channel":0,"duration":0.1875,"durationBeats":0.5,"durationTicks":480,"endBeat":284.5,"endTick":273120,"endTime":106.6875,"note":65,"startBeat":284,"startTick":272640,"startTime":106.5,"velocity":68},{"channel":0,"duration":0.1875,"durationBeats":0.5,"durationTicks":480,"endBeat":284.5,"endTick":273120,"endTime":106.6875,"note":69,"startBeat":284,"startTick":272640,"startTime":106.5,"velocity":68},{"channel":0,"duration":0.1875,"durationBeats":0.5,"durationTicks":480,"endBeat":285.5,"endTick":274080,"endTime":107.0625,"note":26,"startBeat":285,"startTick":273600,"startTime":106.875,"velocity":68},{"channel":0,"duration":0.1875,"durationBeats":0.5,"durationTicks":480,"endBeat":286.5,"endTick":275040,"endTime":107.4375,"note":38,"startBeat":286,"startTick":274560,"startTime":107.25,"velocity":68},{"channel":0,"duration":0.1875,"durationBeats":0.5,"durationTicks":480,"endBeat":286.5,"endTick":275040,"endTime":107.4375,"note":60,"startBeat":286,"startTick":274560,"startTime":107.25,"velocity":68},{"channel":0,"duration":0.1875,"durationBeats":0.5,"durationTicks":480,"endBeat":286.5,"endTick":275040,"endTime":107.4375,"note":64,"startBeat":286,"startTick":274560,"startTime":107.25,"velocity":68},{"channel":0,"duration":0.1875,"durationBeats":0.5,"durationTicks":480,"endBeat":286.5,"endTick":275040,"endTime":107.4375,"note":65,"startBeat":286,"startTick":274560,"startTime":107.25,"velocity":68},{"channel":0,"duration":0.1875,"durationBeats":0.5,"durationTicks":480,"endBeat":286.5,"endTick":275040,"endTime":107.4375,"note":69,"startBeat":286,"startTick":274560,"startTime":107.25,"velocity":68},{"channel":0,"duration":0.1875,"durationBeats":0.5,"durationTicks":480,"endBeat":287.25,"endTick":275760,"endTime":107.71875,"note":33,"startBeat":286.75,"startTick":275280,"startTime":107.53125,"velocity":68},{"channel":0,"duration":0.1875,"durationBeats":0.5,"durationTicks":480,"endBeat":287.5,"endTick":276000,"endTime":107.8125,"note":59,"startBeat":287,"startTick":275520,"startTime":107.625,"velocity":68},{"channel":0,"duration":0.1875,"durationBeats":0.5,"durationTicks":480,"endBeat":287.5,"endTick":276000,"endTime":107.8125,"note":63,"startBeat":287,"startTick":275520,"startTime":107.625,"velocity":68},{"channel":0,"duration":0.1875,"durationBeats":0.5,"durationTicks":480,"endBeat":287.5,"endTick":276000,"endTime":107.8125,"note":68,"startBeat":287,"startTick":275520,"startTime":107.625,"velocity":68},{"channel":0,"duration":0.1875,"durationBeats":0.5,"durationTicks":480,"endBeat":288,"endTick":276480,"endTime":108,"note":32,"startBeat":287.5,"startTick":276000,"startTime":107.8125,"velocity":68},{"channel":0,"duration":0.1875,"durationBeats":0.5,"durationTicks":480,"endBeat":288.5,"endTick":276960,"endTime":108.1875,"note":31,"startBeat":288,"startTick":276480,"startTime":108,"velocity":68},{"channel":0,"duration":0.375,"durationBeats":1,"durationTicks":960,"endBeat":289,"endTick":277440,"endTime":108.375,"note":58,"startBeat":288,"startTick":276480,"startTime":108,"velocity":68},{"channel":0,"duration":0.375,"durationBeats":1,"durationTicks":960,"endBeat":289,"endTick":277440,"endTime":108.375,"note":62,"startBeat":288,"startTick":276480,"startTime":108,"velocity":68},{"channel":0,"duration":0.375,"durationBeats":1,"durationTicks":960,"endBeat":289,"endTick":277440,"endTime":108.375,"note":65,"startBeat":288,"startTick":276480,"startTime":108,"velocity":68},{"channel":0,"duration":0.375,"durationBeats":1,"durationTicks":960,"endBeat":289,"endTick":277440,"endTime":108.375,"note":69,"startBeat":288,"startTick":276480,"startTime":108,"velocity":68},{"channel":0,"duration":0.1875,"durationBeats":0.5,"durationTicks":480,"endBeat":289.5,"endTick":277920,"endTime":108.5625,"note":31,"startBeat":289,"startTick":277440,"startTime":108.375,"velocity":68},{"channel":0,"duration":0.1875,"durationBeats":0.5,"durationTicks":480,"endBeat":290.5,"endTick":278880,"endTime":108.9375,"note":33,"startBeat":290,"startTick":278400,"startTime":108.75,"velocity":68},{"channel":0,"duration":0.1875,"durationBeats":0.5,"durationTicks":480,"endBeat":290.5,"endTick":278880,"endTime":108.9375,"note":60,"startBeat":290,"startTick":278400,"startTime":108.75,"velocity":68},{"channel":0,"duration":0.1875,"durationBeats":0.5,"durationTicks":480,"endBeat":290.5,"endTick":278880,"endTime":108.9375,"note":64,"startBeat":290,"startTick":278400,"startTime":108.75,"velocity":68},{"channel":0,"duration":0.1875,"durationBeats":0.5,"durationTicks":480,"endBeat":290.5,"endTick":278880,"endTime":108.9375,"note":67,"startBeat":290,"startTick":278400,"startTime":108.75,"velocity":68},{"channel":0,"duration":0.1875,"durationBeats":0.5,"durationTicks":480,"endBeat":290.5,"endTick":278880,"endTime":108.9375,"note":72,"startBeat":290,"startTick":278400,"startTime":108.75,"velocity":68},{"channel":0,"duration":0.1875,"durationBeats":0.5,"durationTicks":480,"endBeat":291.25,"endTick":279600,"endTime":109.21875,"note":33,"startBeat":290.75,"startTick":279120,"startTime":109.03125,"velocity":68},{"channel":0,"duration":0.1875,"durationBeats":0.5,"durationTicks":480,"endBeat":291.5,"endTick":279840,"endTime":109.3125,"note":61,"startBeat":291,"startTick":279360,"startTime":109.125,"velocity":68},{"channel":0,"duration":0.1875,"durationBeats":0.5,"durationTicks":480,"endBeat":291.5,"endTick":279840,"endTime":109.3125,"note":65,"startBeat":291,"startTick":279360,"startTime":109.125,"velocity":68},{"channel":0,"duration":0.1875,"durationBeats":0.5,"durationTicks":480,"endBeat":291.5,"endTick":279840,"endTime":109.3125,"note":67,"startBeat":291,"startTick":279360,"startTime":109.125,"velocity":68},{"channel":0,"duration":0.1875,"durationBeats":0.5,"durationTicks":480,"endBeat":291.5,"endTick":279840,"endTime":109.3125,"note":70,"startBeat":291,"startTick":279360,"startTime":109.125,"velocity":68},{"channel":0,"duration":0.1875,"durationBeats":0.5,"durationTicks":480,"endBeat":292,"endTick":280320,"endTime":109.5,"note":33,"startBeat":291.5,"startTick":279840,"startTime":109.3125,"velocity":68},{"channel":0,"duration":0.1875,"durationBeats":0.5,"durationTicks":480,"endBeat":292.5,"endTick":280800,"endTime":109.6875,"note":26,"startBeat":292,"startTick":280320,"startTime":109.5,"velocity":68},{"channel":0,"duration":0.1875,"durationBeats":0.5,"durationTicks":480,"endBeat":292.5,"endTick":280800,"endTime":109.6875,"note":60,"startBeat":292,"startTick":280320,"startTime":109.5,"velocity":68},{"channel":0,"duration":0.1875,"durationBeats":0.5,"durationTicks":480,"endBeat":292.5,"endTick":280800,"endTime":109.6875,"note":64,"startBeat":292,"startTick":280320,"startTime":109.5,"velocity":68},{"channel":0,"duration":0.1875,"durationBeats":0.5,"durationTicks":480,"endBeat":292.5,"endTick":280800,"endTime":109.6875,"note":65,"startBeat":292,"startTick":280320,"startTime":109.5,"velocity":68},{"channel":0,"duration":0.1875,"durationBeats":0.5,"durationTicks":480,"endBeat":292.5,"endTick":280800,"endTime":109.6875,"note":69,"startBeat":292,"startTick":280320,"startTime":109.5,"velocity":68},{"channel":0,"duration":0.1875,"durationBeats":0.5,"durationTicks":480,"endBeat":293.5,"endTick":281760,"endTime":110.0625,"note":26,"startBeat":293,"startTick":281280,"startTime":109.875,"velocity":68},{"channel":0,"duration":0.1875,"durationBeats":0.5,"durationTicks":480,"endBeat":294.5,"endTick":282720,"endTime":110.4375,"note":38,"startBeat":294,"startTick":282240,"startTime":110.25,"velocity":68},{"channel":0,"duration":0.1875,"durationBeats":0.5,"durationTicks":480,"endBeat":294.5,"endTick":282720,"endTime":110.4375,"note":60,"startBeat":294,"startTick":282240,"startTime":110.25,"velocity":68},{"channel":0,"duration":0.1875,"durationBeats":0.5,"durationTicks":480,"endBeat":294.5,"endTick":282720,"endTime":110.4375,"note":64,"startBeat":294,"startTick":282240,"startTime":110.25,"velocity":68},{"channel":0,"duration":0.1875,"durationBeats":0.5,"durationTicks":480,"endBeat":294.5,"endTick":282720,"endTime":110.4375,"note":65,"startBeat":294,"startTick":282240,"startTime":110.25,"velocity":68},{"channel":0,"duration":0.1875,"durationBeats":0.5,"durationTicks":480,"endBeat":294.5,"endTick":282720,"endTime":110.4375,"note":69,"startBeat":294,"startTick":282240,"startTime":110.25,"velocity":68},{"channel":0,"duration":0.1875,"durationBeats":0.5,"durationTicks":480,"endBeat":295.25,"endTick":283440,"endTime":110.71875,"note":33,"startBeat":294.75,"startTick":282960,"startTime":110.53125,"velocity":68},{"channel":0,"duration":0.1875,"durationBeats":0.5,"durationTicks":480,"endBeat":295.5,"endTick":283680,"endTime":110.8125,"note":59,"startBeat":295,"startTick":283200,"startTime":110.625,"velocity":68},{"channel":0,"duration":0.1875,"durationBeats":0.5,"durationTicks":480,"endBeat":295.5,"endTick":283680,"endTime":110.8125,"note":63,"startBeat":295,"startTick":283200,"startTime":110.625,"velocity":68},{"channel":0,"duration":0.1875,"durationBeats":0.5,"durationTicks":480,"endBeat":295.5,"endTick":283680,"endTime":110.8125,"note":68,"startBeat":295,"startTick":283200,"startTime":110.625,"velocity":68},{"channel":0,"duration":0.1875,"durationBeats":0.5,"durationTicks":480,"endBeat":296,"endTick":284160,"endTime":111,"note":32,"startBeat":295.5,"startTick":283680,"startTime":110.8125,"velocity":68},{"channel":0,"duration":0.1875,"durationBeats":0.5,"durationTicks":480,"endBeat":296.5,"endTick":284640,"endTime":111.1875,"note":31,"startBeat":296,"startTick":284160,"startTime":111,"velocity":68},{"channel":0,"duration":0.375,"durationBeats":1,"durationTicks":960,"endBeat":297,"endTick":285120,"endTime":111.375,"note":58,"startBeat":296,"startTick":284160,"startTime":111,"velocity":68},{"channel":0,"duration":0.375,"durationBeats":1,"durationTicks":960,"endBeat":297,"endTick":285120,"endTime":111.375,"note":62,"startBeat":296,"startTick":284160,"startTime":111,"velocity":68},{"channel":0,"duration":0.375,"durationBeats":1,"durationTicks":960,"endBeat":297,"endTick":285120,"endTime":111.375,"note":65,"startBeat":296,"startTick":284160,"startTime":111,"velocity":68},{"channel":0,"duration":0.375,"durationBeats":1,"durationTicks":960,"endBeat":297,"endTick":285120,"endTime":111.375,"note":69,"startBeat":296,"startTick":284160,"startTime":111,"velocity":68},{"channel":0,"duration":0.1875,"durationBeats":0.5,"durationTicks":480,"endBeat":297.5,"endTick":285600,"endTime":111.5625,"note":31,"startBeat":297,"startTick":285120,"startTime":111.375,"velocity":68},{"channel":0,"duration":0.1875,"durationBeats":0.5,"durationTicks":480,"endBeat":298.5,"endTick":286560,"endTime":111.9375,"note":33,"startBeat":298,"startTick":286080,"startTime":111.75,"velocity":68},{"channel":0,"duration":0.1875,"durationBeats":0.5,"durationTicks":480,"endBeat":298.5,"endTick":286560,"endTime":111.9375,"note":60,"startBeat":298,"startTick":286080,"startTime":111.75,"velocity":68},{"channel":0,"duration":0.1875,"durationBeats":0.5,"durationTicks":480,"endBeat":298.5,"endTick":286560,"endTime":111.9375,"note":64,"startBeat":298,"startTick":286080,"startTime":111.75,"velocity":68},{"channel":0,"duration":0.1875,"durationBeats":0.5,"durationTicks":480,"endBeat":298.5,"endTick":286560,"endTime":111.9375,"note":67,"startBeat":298,"startTick":286080,"startTime":111.75,"velocity":68},{"channel":0,"duration":0.1875,"durationBeats":0.5,"durationTicks":480,"endBeat":298.5,"endTick":286560,"endTime":111.9375,"note":72,"startBeat":298,"startTick":286080,"startTime":111.75,"velocity":68},{"channel":0,"duration":0.1875,"durationBeats":0.5,"durationTicks":480,"endBeat":299.25,"endTick":287280,"endTime":112.21875,"note":33,"startBeat":298.75,"startTick":286800,"startTime":112.03125,"velocity":68},{"channel":0,"duration":0.1875,"durationBeats":0.5,"durationTicks":480,"endBeat":299.5,"endTick":287520,"endTime":112.3125,"note":61,"startBeat":299,"startTick":287040,"startTime":112.125,"velocity":68},{"channel":0,"duration":0.1875,"durationBeats":0.5,"durationTicks":480,"endBeat":299.5,"endTick":287520,"endTime":112.3125,"note":65,"startBeat":299,"startTick":287040,"startTime":112.125,"velocity":68},{"channel":0,"duration":0.1875,"durationBeats":0.5,"durationTicks":480,"endBeat":299.5,"endTick":287520,"endTime":112.3125,"note":67,"startBeat":299,"startTick":287040,"startTime":112.125,"velocity":68},{"channel":0,"duration":0.1875,"durationBeats":0.5,"durationTicks":480,"endBeat":299.5,"endTick":287520,"endTime":112.3125,"note":70,"startBeat":299,"startTick":287040,"startTime":112.125,"velocity":68},{"channel":0,"duration":0.1875,"durationBeats":0.5,"durationTicks":480,"endBeat":300,"endTick":288000,"endTime":112.5,"note":33,"startBeat":299.5,"startTick":287520,"startTime":112.3125,"velocity":68},{"channel":0,"duration":0.1875,"durationBeats":0.5,"durationTicks":480,"endBeat":300.5,"endTick":288480,"endTime":112.6875,"note":26,"startBeat":300,"startTick":288000,"startTime":112.5,"velocity":68},{"channel":0,"duration":0.1875,"durationBeats":0.5,"durationTicks":480,"endBeat":300.5,"endTick":288480,"endTime":112.6875,"note":60,"startBeat":300,"startTick":288000,"startTime":112.5,"velocity":68},{"channel":0,"duration":0.1875,"durationBeats":0.5,"durationTicks":480,"endBeat":300.5,"endTick":288480,"endTime":112.6875,"note":64,"startBeat":300,"startTick":288000,"startTime":112.5,"velocity":68},{"channel":0,"duration":0.1875,"durationBeats":0.5,"durationTicks":480,"endBeat":300.5,"endTick":288480,"endTime":112.6875,"note":65,"startBeat":300,"startTick":288000,"startTime":112.5,"velocity":68},{"channel":0,"duration":0.1875,"durationBeats":0.5,"durationTicks":480,"endBeat":300.5,"endTick":288480,"endTime":112.6875,"note":69,"startBeat":300,"startTick":288000,"startTime":112.5,"velocity":68},{"channel":0,"duration":0.1875,"durationBeats":0.5,"durationTicks":480,"endBeat":301.5,"endTick":289440,"endTime":113.0625,"note":26,"startBeat":301,"startTick":288960,"startTime":112.875,"velocity":68},{"channel":0,"duration":0.1875,"durationBeats":0.5,"durationTicks":480,"endBeat":302.5,"endTick":290400,"endTime":113.4375,"note":38,"startBeat":302,"startTick":289920,"startTime":113.25,"velocity":68},{"channel":0,"duration":0.1875,"durationBeats":0.5,"durationTicks":480,"endBeat":302.5,"endTick":290400,"endTime":113.4375,"note":60,"startBeat":302,"startTick":289920,"startTime":113.25,"velocity":68},{"channel":0,"duration":0.1875,"durationBeats":0.5,"durationTicks":480,"endBeat":302.5,"endTick":290400,"endTime":113.4375,"note":64,"startBeat":302,"startTick":289920,"startTime":113.25,"velocity":68},{"channel":0,"duration":0.1875,"durationBeats":0.5,"durationTicks":480,"endBeat":302.5,"endTick":290400,"endTime":113.4375,"note":65,"startBeat":302,"startTick":289920,"startTime":113.25,"velocity":68},{"channel":0,"duration":0.1875,"durationBeats":0.5,"durationTicks":480,"endBeat":302.5,"endTick":290400,"endTime":113.4375,"note":69,"startBeat":302,"startTick":289920,"startTime":113.25,"velocity":68},{"channel":0,"duration":0.1875,"durationBeats":0.5,"durationTicks":480,"endBeat":303.25,"endTick":291120,"endTime":113.71875,"note":33,"startBeat":302.75,"startTick":290640,"startTime":113.53125,"velocity":68},{"channel":0,"duration":0.1875,"durationBeats":0.5,"durationTicks":480,"endBeat":303.5,"endTick":291360,"endTime":113.8125,"note":59,"startBeat":303,"startTick":290880,"startTime":113.625,"velocity":68},{"channel":0,"duration":0.1875,"durationBeats":0.5,"durationTicks":480,"endBeat":303.5,"endTick":291360,"endTime":113.8125,"note":63,"startBeat":303,"startTick":290880,"startTime":113.625,"velocity":68},{"channel":0,"duration":0.1875,"durationBeats":0.5,"durationTicks":480,"endBeat":303.5,"endTick":291360,"endTime":113.8125,"note":68,"startBeat":303,"startTick":290880,"startTime":113.625,"velocity":68},{"channel":0,"duration":0.1875,"durationBeats":0.5,"durationTicks":480,"endBeat":304,"endTick":291840,"endTime":114,"note":32,"startBeat":303.5,"startTick":291360,"startTime":113.8125,"velocity":68},{"channel":0,"duration":0.1875,"durationBeats":0.5,"durationTicks":480,"endBeat":304.5,"endTick":292320,"endTime":114.1875,"note":31,"startBeat":304,"startTick":291840,"startTime":114,"velocity":68},{"channel":0,"duration":0.375,"durationBeats":1,"durationTicks":960,"endBeat":305,"endTick":292800,"endTime":114.375,"note":58,"startBeat":304,"startTick":291840,"startTime":114,"velocity":68},{"channel":0,"duration":0.375,"durationBeats":1,"durationTicks":960,"endBeat":305,"endTick":292800,"endTime":114.375,"note":62,"startBeat":304,"startTick":291840,"startTime":114,"velocity":68},{"channel":0,"duration":0.375,"durationBeats":1,"durationTicks":960,"endBeat":305,"endTick":292800,"endTime":114.375,"note":65,"startBeat":304,"startTick":291840,"startTime":114,"velocity":68},{"channel":0,"duration":0.375,"durationBeats":1,"durationTicks":960,"endBeat":305,"endTick":292800,"endTime":114.375,"note":69,"startBeat":304,"startTick":291840,"startTime":114,"velocity":68},{"channel":0,"duration":0.1875,"durationBeats":0.5,"durationTicks":480,"endBeat":305.5,"endTick":293280,"endTime":114.5625,"note":31,"startBeat":305,"startTick":292800,"startTime":114.375,"velocity":68},{"channel":0,"duration":0.1875,"durationBeats":0.5,"durationTicks":480,"endBeat":306.5,"endTick":294240,"endTime":114.9375,"note":33,"startBeat":306,"startTick":293760,"startTime":114.75,"velocity":68},{"channel":0,"duration":0.1875,"durationBeats":0.5,"durationTicks":480,"endBeat":306.5,"endTick":294240,"endTime":114.9375,"note":60,"startBeat":306,"startTick":293760,"startTime":114.75,"velocity":68},{"channel":0,"duration":0.1875,"durationBeats":0.5,"durationTicks":480,"endBeat":306.5,"endTick":294240,"endTime":114.9375,"note":64,"startBeat":306,"startTick":293760,"startTime":114.75,"velocity":68},{"channel":0,"duration":0.1875,"durationBeats":0.5,"durationTicks":480,"endBeat":306.5,"endTick":294240,"endTime":114.9375,"note":67,"startBeat":306,"startTick":293760,"startTime":114.75,"velocity":68},{"channel":0,"duration":0.1875,"durationBeats":0.5,"durationTicks":480,"endBeat":306.5,"endTick":294240,"endTime":114.9375,"note":72,"startBeat":306,"startTick":293760,"startTime":114.75,"velocity":68},{"channel":0,"duration":0.1875,"durationBeats":0.5,"durationTicks":480,"endBeat":307.25,"endTick":294960,"endTime":115.21875,"note":33,"startBeat":306.75,"startTick":294480,"startTime":115.03125,"velocity":68},{"channel":0,"duration":0.1875,"durationBeats":0.5,"durationTicks":480,"endBeat":307.5,"endTick":295200,"endTime":115.3125,"note":61,"startBeat":307,"startTick":294720,"startTime":115.125,"velocity":68},{"channel":0,"duration":0.1875,"durationBeats":0.5,"durationTicks":480,"endBeat":307.5,"endTick":295200,"endTime":115.3125,"note":65,"startBeat":307,"startTick":294720,"startTime":115.125,"velocity":68},{"channel":0,"duration":0.1875,"durationBeats":0.5,"durationTicks":480,"endBeat":307.5,"endTick":295200,"endTime":115.3125,"note":67,"startBeat":307,"startTick":294720,"startTime":115.125,"velocity":68},{"channel":0,"duration":0.1875,"durationBeats":0.5,"durationTicks":480,"endBeat":307.5,"endTick":295200,"endTime":115.3125,"note":70,"startBeat":307,"startTick":294720,"startTime":115.125,"velocity":68},{"channel":0,"duration":0.1875,"durationBeats":0.5,"durationTicks":480,"endBeat":308,"endTick":295680,"endTime":115.5,"note":33,"startBeat":307.5,"startTick":295200,"startTime":115.3125,"velocity":68},{"channel":0,"duration":0.1875,"durationBeats":0.5,"durationTicks":480,"endBeat":308.5,"endTick":296160,"endTime":115.6875,"note":26,"startBeat":308,"startTick":295680,"startTime":115.5,"velocity":68},{"channel":0,"duration":0.1875,"durationBeats":0.5,"durationTicks":480,"endBeat":308.5,"endTick":296160,"endTime":115.6875,"note":60,"startBeat":308,"startTick":295680,"startTime":115.5,"velocity":68},{"channel":0,"duration":0.1875,"durationBeats":0.5,"durationTicks":480,"endBeat":308.5,"endTick":296160,"endTime":115.6875,"note":64,"startBeat":308,"startTick":295680,"startTime":115.5,"velocity":68},{"channel":0,"duration":0.1875,"durationBeats":0.5,"durationTicks":480,"endBeat":308.5,"endTick":296160,"endTime":115.6875,"note":65,"startBeat":308,"startTick":295680,"startTime":115.5,"velocity":68},{"channel":0,"duration":0.1875,"durationBeats":0.5,"durationTicks":480,"endBeat":308.5,"endTick":296160,"endTime":115.6875,"note":69,"startBeat":308,"startTick":295680,"startTime":115.5,"velocity":68},{"channel":0,"duration":0.1875,"durationBeats":0.5,"durationTicks":480,"endBeat":309.5,"endTick":297120,"endTime":116.0625,"note":26,"startBeat":309,"startTick":296640,"startTime":115.875,"velocity":68},{"channel":0,"duration":0.1875,"durationBeats":0.5,"durationTicks":480,"endBeat":310.5,"endTick":298080,"endTime":116.4375,"note":38,"startBeat":310,"startTick":297600,"startTime":116.25,"velocity":68},{"channel":0,"duration":0.1875,"durationBeats":0.5,"durationTicks":480,"endBeat":310.5,"endTick":298080,"endTime":116.4375,"note":60,"startBeat":310,"startTick":297600,"startTime":116.25,"velocity":68},{"channel":0,"duration":0.1875,"durationBeats":0.5,"durationTicks":480,"endBeat":310.5,"endTick":298080,"endTime":116.4375,"note":64,"startBeat":310,"startTick":297600,"startTime":116.25,"velocity":68},{"channel":0,"duration":0.1875,"durationBeats":0.5,"durationTicks":480,"endBeat":310.5,"endTick":298080,"endTime":116.4375,"note":65,"startBeat":310,"startTick":297600,"startTime":116.25,"velocity":68},{"channel":0,"duration":0.1875,"durationBeats":0.5,"durationTicks":480,"endBeat":310.5,"endTick":298080,"endTime":116.4375,"note":69,"startBeat":310,"startTick":297600,"startTime":116.25,"velocity":68},{"channel":0,"duration":0.1875,"durationBeats":0.5,"durationTicks":480,"endBeat":311.25,"endTick":298800,"endTime":116.71875,"note":33,"startBeat":310.75,"startTick":298320,"startTime":116.53125,"velocity":68},{"channel":0,"duration":0.1875,"durationBeats":0.5,"durationTicks":480,"endBeat":311.5,"endTick":299040,"endTime":116.8125,"note":59,"startBeat":311,"startTick":298560,"startTime":116.625,"velocity":68},{"channel":0,"duration":0.1875,"durationBeats":0.5,"durationTicks":480,"endBeat":311.5,"endTick":299040,"endTime":116.8125,"note":63,"startBeat":311,"startTick":298560,"startTime":116.625,"velocity":68},{"channel":0,"duration":0.1875,"durationBeats":0.5,"durationTicks":480,"endBeat":311.5,"endTick":299040,"endTime":116.8125,"note":68,"startBeat":311,"startTick":298560,"startTime":116.625,"velocity":68},{"channel":0,"duration":0.1875,"durationBeats":0.5,"durationTicks":480,"endBeat":312,"endTick":299520,"endTime":117,"note":32,"startBeat":311.5,"startTick":299040,"startTime":116.8125,"velocity":68},{"channel":0,"duration":0.1875,"durationBeats":0.5,"durationTicks":480,"endBeat":312.5,"endTick":300000,"endTime":117.1875,"note":31,"startBeat":312,"startTick":299520,"startTime":117,"velocity":68},{"channel":0,"duration":0.375,"durationBeats":1,"durationTicks":960,"endBeat":313,"endTick":300480,"endTime":117.375,"note":58,"startBeat":312,"startTick":299520,"startTime":117,"velocity":68},{"channel":0,"duration":0.375,"durationBeats":1,"durationTicks":960,"endBeat":313,"endTick":300480,"endTime":117.375,"note":62,"startBeat":312,"startTick":299520,"startTime":117,"velocity":68},{"channel":0,"duration":0.375,"durationBeats":1,"durationTicks":960,"endBeat":313,"endTick":300480,"endTime":117.375,"note":65,"startBeat":312,"startTick":299520,"startTime":117,"velocity":68},{"channel":0,"duration":0.375,"durationBeats":1,"durationTicks":960,"endBeat":313,"endTick":300480,"endTime":117.375,"note":69,"startBeat":312,"startTick":299520,"startTime":117,"velocity":68},{"channel":0,"duration":0.1875,"durationBeats":0.5,"durationTicks":480,"endBeat":313.5,"endTick":300960,"endTime":117.5625,"note":31,"startBeat":313,"startTick":300480,"startTime":117.375,"velocity":68},{"channel":0,"duration":0.1875,"durationBeats":0.5,"durationTicks":480,"endBeat":314.5,"endTick":301920,"endTime":117.9375,"note":33,"startBeat":314,"startTick":301440,"startTime":117.75,"velocity":68},{"channel":0,"duration":0.1875,"durationBeats":0.5,"durationTicks":480,"endBeat":314.5,"endTick":301920,"endTime":117.9375,"note":60,"startBeat":314,"startTick":301440,"startTime":117.75,"velocity":68},{"channel":0,"duration":0.1875,"durationBeats":0.5,"durationTicks":480,"endBeat":314.5,"endTick":301920,"endTime":117.9375,"note":64,"startBeat":314,"startTick":301440,"startTime":117.75,"velocity":68},{"channel":0,"duration":0.1875,"durationBeats":0.5,"durationTicks":480,"endBeat":314.5,"endTick":301920,"endTime":117.9375,"note":67,"startBeat":314,"startTick":301440,"startTime":117.75,"velocity":68},{"channel":0,"duration":0.1875,"durationBeats":0.5,"durationTicks":480,"endBeat":314.5,"endTick":301920,"endTime":117.9375,"note":72,"startBeat":314,"startTick":301440,"startTime":117.75,"velocity":68},{"channel":0,"duration":0.1875,"durationBeats":0.5,"durationTicks":480,"endBeat":315.25,"endTick":302640,"endTime":118.21875,"note":33,"startBeat":314.75,"startTick":302160,"startTime":118.03125,"velocity":68},{"channel":0,"duration":0.1875,"durationBeats":0.5,"durationTicks":480,"endBeat":315.5,"endTick":302880,"endTime":118.3125,"note":61,"startBeat":315,"startTick":302400,"startTime":118.125,"velocity":68},{"channel":0,"duration":0.1875,"durationBeats":0.5,"durationTicks":480,"endBeat":315.5,"endTick":302880,"endTime":118.3125,"note":65,"startBeat":315,"startTick":302400,"startTime":118.125,"velocity":68},{"channel":0,"duration":0.1875,"durationBeats":0.5,"durationTicks":480,"endBeat":315.5,"endTick":302880,"endTime":118.3125,"note":67,"startBeat":315,"startTick":302400,"startTime":118.125,"velocity":68},{"channel":0,"duration":0.1875,"durationBeats":0.5,"durationTicks":480,"endBeat":315.5,"endTick":302880,"endTime":118.3125,"note":70,"startBeat":315,"startTick":302400,"startTime":118.125,"velocity":68},{"channel":0,"duration":0.1875,"durationBeats":0.5,"durationTicks":480,"endBeat":316,"endTick":303360,"endTime":118.5,"note":33,"startBeat":315.5,"startTick":302880,"startTime":118.3125,"velocity":68},{"channel":0,"duration":0.1875,"durationBeats":0.5,"durationTicks":480,"endBeat":316.5,"endTick":303840,"endTime":118.6875,"note":26,"startBeat":316,"startTick":303360,"startTime":118.5,"velocity":68},{"channel":0,"duration":0.1875,"durationBeats":0.5,"durationTicks":480,"endBeat":316.5,"endTick":303840,"endTime":118.6875,"note":60,"startBeat":316,"startTick":303360,"startTime":118.5,"velocity":68},{"channel":0,"duration":0.1875,"durationBeats":0.5,"durationTicks":480,"endBeat":316.5,"endTick":303840,"endTime":118.6875,"note":64,"startBeat":316,"startTick":303360,"startTime":118.5,"velocity":68},{"channel":0,"duration":0.1875,"durationBeats":0.5,"durationTicks":480,"endBeat":316.5,"endTick":303840,"endTime":118.6875,"note":65,"startBeat":316,"startTick":303360,"startTime":118.5,"velocity":68},{"channel":0,"duration":0.1875,"durationBeats":0.5,"durationTicks":480,"endBeat":316.5,"endTick":303840,"endTime":118.6875,"note":69,"startBeat":316,"startTick":303360,"startTime":118.5,"velocity":68},{"channel":0,"duration":0.1875,"durationBeats":0.5,"durationTicks":480,"endBeat":317.5,"endTick":304800,"endTime":119.0625,"note":26,"startBeat":317,"startTick":304320,"startTime":118.875,"velocity":68},{"channel":0,"duration":0.1875,"durationBeats":0.5,"durationTicks":480,"endBeat":318.5,"endTick":305760,"endTime":119.4375,"note":38,"startBeat":318,"startTick":305280,"startTime":119.25,"velocity":68},{"channel":0,"duration":0.1875,"durationBeats":0.5,"durationTicks":480,"endBeat":318.5,"endTick":305760,"endTime":119.4375,"note":60,"startBeat":318,"startTick":305280,"startTime":119.25,"velocity":68},{"channel":0,"duration":0.1875,"durationBeats":0.5,"durationTicks":480,"endBeat":318.5,"endTick":305760,"endTime":119.4375,"note":64,"startBeat":318,"startTick":305280,"startTime":119.25,"velocity":68},{"channel":0,"duration":0.1875,"durationBeats":0.5,"durationTicks":480,"endBeat":318.5,"endTick":305760,"endTime":119.4375,"note":65,"startBeat":318,"startTick":305280,"startTime":119.25,"velocity":68},{"channel":0,"duration":0.1875,"durationBeats":0.5,"durationTicks":480,"endBeat":318.5,"endTick":305760,"endTime":119.4375,"note":69,"startBeat":318,"startTick":305280,"startTime":119.25,"velocity":68},{"channel":0,"duration":0.1875,"durationBeats":0.5,"durationTicks":480,"endBeat":319.25,"endTick":306480,"endTime":119.71875,"note":33,"startBeat":318.75,"startTick":306000,"startTime":119.53125,"velocity":68},{"channel":0,"duration":0.1875,"durationBeats":0.5,"durationTicks":480,"endBeat":319.5,"endTick":306720,"endTime":119.8125,"note":59,"startBeat":319,"startTick":306240,"startTime":119.625,"velocity":68},{"channel":0,"duration":0.1875,"durationBeats":0.5,"durationTicks":480,"endBeat":319.5,"endTick":306720,"endTime":119.8125,"note":63,"startBeat":319,"startTick":306240,"startTime":119.625,"velocity":68},{"channel":0,"duration":0.1875,"durationBeats":0.5,"durationTicks":480,"endBeat":319.5,"endTick":306720,"endTime":119.8125,"note":68,"startBeat":319,"startTick":306240,"startTime":119.625,"velocity":68},{"channel":0,"duration":0.1875,"durationBeats":0.5,"durationTicks":480,"endBeat":320,"endTick":307200,"endTime":120,"note":32,"startBeat":319.5,"startTick":306720,"startTime":119.8125,"velocity":68},{"channel":0,"duration":0.1875,"durationBeats":0.5,"durationTicks":480,"endBeat":320.5,"endTick":307680,"endTime":120.1875,"note":31,"startBeat":320,"startTick":307200,"startTime":120,"velocity":68},{"channel":0,"duration":0.375,"durationBeats":1,"durationTicks":960,"endBeat":321,"endTick":308160,"endTime":120.375,"note":58,"startBeat":320,"startTick":307200,"startTime":120,"velocity":68},{"channel":0,"duration":0.375,"durationBeats":1,"durationTicks":960,"endBeat":321,"endTick":308160,"endTime":120.375,"note":62,"startBeat":320,"startTick":307200,"startTime":120,"velocity":68},{"channel":0,"duration":0.375,"durationBeats":1,"durationTicks":960,"endBeat":321,"endTick":308160,"endTime":120.375,"note":65,"startBeat":320,"startTick":307200,"startTime":120,"velocity":68},{"channel":0,"duration":0.375,"durationBeats":1,"durationTicks":960,"endBeat":321,"endTick":308160,"endTime":120.375,"note":69,"startBeat":320,"startTick":307200,"startTime":120,"velocity":68},{"channel":0,"duration":0.1875,"durationBeats":0.5,"durationTicks":480,"endBeat":321.5,"endTick":308640,"endTime":120.5625,"note":31,"startBeat":321,"startTick":308160,"startTime":120.375,"velocity":68},{"channel":0,"duration":0.1875,"durationBeats":0.5,"durationTicks":480,"endBeat":322.5,"endTick":309600,"endTime":120.9375,"note":33,"startBeat":322,"startTick":309120,"startTime":120.75,"velocity":68},{"channel":0,"duration":0.1875,"durationBeats":0.5,"durationTicks":480,"endBeat":322.5,"endTick":309600,"endTime":120.9375,"note":60,"startBeat":322,"startTick":309120,"startTime":120.75,"velocity":68},{"channel":0,"duration":0.1875,"durationBeats":0.5,"durationTicks":480,"endBeat":322.5,"endTick":309600,"endTime":120.9375,"note":64,"startBeat":322,"startTick":309120,"startTime":120.75,"velocity":68},{"channel":0,"duration":0.1875,"durationBeats":0.5,"durationTicks":480,"endBeat":322.5,"endTick":309600,"endTime":120.9375,"note":67,"startBeat":322,"startTick":309120,"startTime":120.75,"velocity":68},{"channel":0,"duration":0.1875,"durationBeats":0.5,"durationTicks":480,"endBeat":322.5,"endTick":309600,"endTime":120.9375,"note":72,"startBeat":322,"startTick":309120,"startTime":120.75,"velocity":68},{"channel":0,"duration":0.1875,"durationBeats":0.5,"durationTicks":480,"endBeat":323.25,"endTick":310320,"endTime":121.21875,"note":33,"startBeat":322.75,"startTick":309840,"startTime":121.03125,"velocity":68},{"channel":0,"duration":0.1875,"durationBeats":0.5,"durationTicks":480,"endBeat":323.5,"endTick":310560,"endTime":121.3125,"note":61,"startBeat":323,"startTick":310080,"startTime":121.125,"velocity":68},{"channel":0,"duration":0.1875,"durationBeats":0.5,"durationTicks":480,"endBeat":323.5,"endTick":310560,"endTime":121.3125,"note":65,"startBeat":323,"startTick":310080,"startTime":121.125,"velocity":68},{"channel":0,"duration":0.1875,"durationBeats":0.5,"durationTicks":480,"endBeat":323.5,"endTick":310560,"endTime":121.3125,"note":67,"startBeat":323,"startTick":310080,"startTime":121.125,"velocity":68},{"channel":0,"duration":0.1875,"durationBeats":0.5,"durationTicks":480,"endBeat":323.5,"endTick":310560,"endTime":121.3125,"note":70,"startBeat":323,"startTick":310080,"startTime":121.125,"velocity":68},{"channel":0,"duration":0.1875,"durationBeats":0.5,"durationTicks":480,"endBeat":324,"endTick":311040,"endTime":121.5,"note":33,"startBeat":323.5,"startTick":310560,"startTime":121.3125,"velocity":68},{"channel":0,"duration":0.1875,"durationBeats":0.5,"durationTicks":480,"endBeat":324.5,"endTick":311520,"endTime":121.6875,"note":26,"startBeat":324,"startTick":311040,"startTime":121.5,"velocity":68},{"channel":0,"duration":0.1875,"durationBeats":0.5,"durationTicks":480,"endBeat":324.5,"endTick":311520,"endTime":121.6875,"note":60,"startBeat":324,"startTick":311040,"startTime":121.5,"velocity":68},{"channel":0,"duration":0.1875,"durationBeats":0.5,"durationTicks":480,"endBeat":324.5,"endTick":311520,"endTime":121.6875,"note":64,"startBeat":324,"startTick":311040,"startTime":121.5,"velocity":68},{"channel":0,"duration":0.1875,"durationBeats":0.5,"durationTicks":480,"endBeat":324.5,"endTick":311520,"endTime":121.6875,"note":65,"startBeat":324,"startTick":311040,"startTime":121.5,"velocity":68},{"channel":0,"duration":0.1875,"durationBeats":0.5,"durationTicks":480,"endBeat":324.5,"endTick":311520,"endTime":121.6875,"note":69,"startBeat":324,"startTick":311040,"startTime":121.5,"velocity":68},{"channel":0,"duration":0.1875,"durationBeats":0.5,"durationTicks":480,"endBeat":325.5,"endTick":312480,"endTime":122.0625,"note":26,"startBeat":325,"startTick":312000,"startTime":121.875,"velocity":68},{"channel":0,"duration":0.1875,"durationBeats":0.5,"durationTicks":480,"endBeat":326.5,"endTick":313440,"endTime":122.4375,"note":38,"startBeat":326,"startTick":312960,"startTime":122.25,"velocity":68},{"channel":0,"duration":0.1875,"durationBeats":0.5,"durationTicks":480,"endBeat":326.5,"endTick":313440,"endTime":122.4375,"note":60,"startBeat":326,"startTick":312960,"startTime":122.25,"velocity":68},{"channel":0,"duration":0.1875,"durationBeats":0.5,"durationTicks":480,"endBeat":326.5,"endTick":313440,"endTime":122.4375,"note":64,"startBeat":326,"startTick":312960,"startTime":122.25,"velocity":68},{"channel":0,"duration":0.1875,"durationBeats":0.5,"durationTicks":480,"endBeat":326.5,"endTick":313440,"endTime":122.4375,"note":65,"startBeat":326,"startTick":312960,"startTime":122.25,"velocity":68},{"channel":0,"duration":0.1875,"durationBeats":0.5,"durationTicks":480,"endBeat":326.5,"endTick":313440,"endTime":122.4375,"note":69,"startBeat":326,"startTick":312960,"startTime":122.25,"velocity":68},{"channel":0,"duration":0.1875,"durationBeats":0.5,"durationTicks":480,"endBeat":327.25,"endTick":314160,"endTime":122.71875,"note":33,"startBeat":326.75,"startTick":313680,"startTime":122.53125,"velocity":68},{"channel":0,"duration":0.1875,"durationBeats":0.5,"durationTicks":480,"endBeat":327.5,"endTick":314400,"endTime":122.8125,"note":59,"startBeat":327,"startTick":313920,"startTime":122.625,"velocity":68},{"channel":0,"duration":0.1875,"durationBeats":0.5,"durationTicks":480,"endBeat":327.5,"endTick":314400,"endTime":122.8125,"note":63,"startBeat":327,"startTick":313920,"startTime":122.625,"velocity":68},{"channel":0,"duration":0.1875,"durationBeats":0.5,"durationTicks":480,"endBeat":327.5,"endTick":314400,"endTime":122.8125,"note":68,"startBeat":327,"startTick":313920,"startTime":122.625,"velocity":68},{"channel":0,"duration":0.1875,"durationBeats":0.5,"durationTicks":480,"endBeat":328,"endTick":314880,"endTime":123,"note":32,"startBeat":327.5,"startTick":314400,"startTime":122.8125,"velocity":68},{"channel":0,"duration":0.1875,"durationBeats":0.5,"durationTicks":480,"endBeat":328.5,"endTick":315360,"endTime":123.1875,"note":31,"startBeat":328,"startTick":314880,"startTime":123,"velocity":68},{"channel":0,"duration":0.375,"durationBeats":1,"durationTicks":960,"endBeat":329,"endTick":315840,"endTime":123.375,"note":58,"startBeat":328,"startTick":314880,"startTime":123,"velocity":68},{"channel":0,"duration":0.375,"durationBeats":1,"durationTicks":960,"endBeat":329,"endTick":315840,"endTime":123.375,"note":62,"startBeat":328,"startTick":314880,"startTime":123,"velocity":68},{"channel":0,"duration":0.375,"durationBeats":1,"durationTicks":960,"endBeat":329,"endTick":315840,"endTime":123.375,"note":65,"startBeat":328,"startTick":314880,"startTime":123,"velocity":68},{"channel":0,"duration":0.375,"durationBeats":1,"durationTicks":960,"endBeat":329,"endTick":315840,"endTime":123.375,"note":69,"startBeat":328,"startTick":314880,"startTime":123,"velocity":68},{"channel":0,"duration":0.1875,"durationBeats":0.5,"durationTicks":480,"endBeat":329.5,"endTick":316320,"endTime":123.5625,"note":31,"startBeat":329,"startTick":315840,"startTime":123.375,"velocity":68},{"channel":0,"duration":0.1875,"durationBeats":0.5,"durationTicks":480,"endBeat":330.5,"endTick":317280,"endTime":123.9375,"note":33,"startBeat":330,"startTick":316800,"startTime":123.75,"velocity":68},{"channel":0,"duration":0.1875,"durationBeats":0.5,"durationTicks":480,"endBeat":330.5,"endTick":317280,"endTime":123.9375,"note":60,"startBeat":330,"startTick":316800,"startTime":123.75,"velocity":68},{"channel":0,"duration":0.1875,"durationBeats":0.5,"durationTicks":480,"endBeat":330.5,"endTick":317280,"endTime":123.9375,"note":64,"startBeat":330,"startTick":316800,"startTime":123.75,"velocity":68},{"channel":0,"duration":0.1875,"durationBeats":0.5,"durationTicks":480,"endBeat":330.5,"endTick":317280,"endTime":123.9375,"note":67,"startBeat":330,"startTick":316800,"startTime":123.75,"velocity":68},{"channel":0,"duration":0.1875,"durationBeats":0.5,"durationTicks":480,"endBeat":330.5,"endTick":317280,"endTime":123.9375,"note":72,"startBeat":330,"startTick":316800,"startTime":123.75,"velocity":68},{"channel":0,"duration":0.1875,"durationBeats":0.5,"durationTicks":480,"endBeat":331.25,"endTick":318000,"endTime":124.21875,"note":33,"startBeat":330.75,"startTick":317520,"startTime":124.03125,"velocity":68},{"channel":0,"duration":0.1875,"durationBeats":0.5,"durationTicks":480,"endBeat":331.5,"endTick":318240,"endTime":124.3125,"note":61,"startBeat":331,"startTick":317760,"startTime":124.125,"velocity":68},{"channel":0,"duration":0.1875,"durationBeats":0.5,"durationTicks":480,"endBeat":331.5,"endTick":318240,"endTime":124.3125,"note":65,"startBeat":331,"startTick":317760,"startTime":124.125,"velocity":68},{"channel":0,"duration":0.1875,"durationBeats":0.5,"durationTicks":480,"endBeat":331.5,"endTick":318240,"endTime":124.3125,"note":67,"startBeat":331,"startTick":317760,"startTime":124.125,"velocity":68},{"channel":0,"duration":0.1875,"durationBeats":0.5,"durationTicks":480,"endBeat":331.5,"endTick":318240,"endTime":124.3125,"note":70,"startBeat":331,"startTick":317760,"startTime":124.125,"velocity":68},{"channel":0,"duration":0.1875,"durationBeats":0.5,"durationTicks":480,"endBeat":332,"endTick":318720,"endTime":124.5,"note":33,"startBeat":331.5,"startTick":318240,"startTime":124.3125,"velocity":68},{"channel":0,"duration":0.1875,"durationBeats":0.5,"durationTicks":480,"endBeat":332.5,"endTick":319200,"endTime":124.6875,"note":26,"startBeat":332,"startTick":318720,"startTime":124.5,"velocity":68},{"channel":0,"duration":0.1875,"durationBeats":0.5,"durationTicks":480,"endBeat":332.5,"endTick":319200,"endTime":124.6875,"note":60,"startBeat":332,"startTick":318720,"startTime":124.5,"velocity":68},{"channel":0,"duration":0.1875,"durationBeats":0.5,"durationTicks":480,"endBeat":332.5,"endTick":319200,"endTime":124.6875,"note":64,"startBeat":332,"startTick":318720,"startTime":124.5,"velocity":68},{"channel":0,"duration":0.1875,"durationBeats":0.5,"durationTicks":480,"endBeat":332.5,"endTick":319200,"endTime":124.6875,"note":65,"startBeat":332,"startTick":318720,"startTime":124.5,"velocity":68},{"channel":0,"duration":0.1875,"durationBeats":0.5,"durationTicks":480,"endBeat":332.5,"endTick":319200,"endTime":124.6875,"note":69,"startBeat":332,"startTick":318720,"startTime":124.5,"velocity":68},{"channel":0,"duration":0.1875,"durationBeats":0.5,"durationTicks":480,"endBeat":333.5,"endTick":320160,"endTime":125.0625,"note":26,"startBeat":333,"startTick":319680,"startTime":124.875,"velocity":68},{"channel":0,"duration":0.1875,"durationBeats":0.5,"durationTicks":480,"endBeat":334.5,"endTick":321120,"endTime":125.4375,"note":38,"startBeat":334,"startTick":320640,"startTime":125.25,"velocity":68},{"channel":0,"duration":0.1875,"durationBeats":0.5,"durationTicks":480,"endBeat":334.5,"endTick":321120,"endTime":125.4375,"note":60,"startBeat":334,"startTick":320640,"startTime":125.25,"velocity":68},{"channel":0,"duration":0.1875,"durationBeats":0.5,"durationTicks":480,"endBeat":334.5,"endTick":321120,"endTime":125.4375,"note":64,"startBeat":334,"startTick":320640,"startTime":125.25,"velocity":68},{"channel":0,"duration":0.1875,"durationBeats":0.5,"durationTicks":480,"endBeat":334.5,"endTick":321120,"endTime":125.4375,"note":65,"startBeat":334,"startTick":320640,"startTime":125.25,"velocity":68},{"channel":0,"duration":0.1875,"durationBeats":0.5,"durationTicks":480,"endBeat":334.5,"endTick":321120,"endTime":125.4375,"note":69,"startBeat":334,"startTick":320640,"startTime":125.25,"velocity":68},{"channel":0,"duration":0.1875,"durationBeats":0.5,"durationTicks":480,"endBeat":335.25,"endTick":321840,"endTime":125.71875,"note":33,"startBeat":334.75,"startTick":321360,"startTime":125.53125,"velocity":68},{"channel":0,"duration":0.1875,"durationBeats":0.5,"durationTicks":480,"endBeat":335.5,"endTick":322080,"endTime":125.8125,"note":59,"startBeat":335,"startTick":321600,"startTime":125.625,"velocity":68},{"channel":0,"duration":0.1875,"durationBeats":0.5,"durationTicks":480,"endBeat":335.5,"endTick":322080,"endTime":125.8125,"note":63,"startBeat":335,"startTick":321600,"startTime":125.625,"velocity":68},{"channel":0,"duration":0.1875,"durationBeats":0.5,"durationTicks":480,"endBeat":335.5,"endTick":322080,"endTime":125.8125,"note":68,"startBeat":335,"startTick":321600,"startTime":125.625,"velocity":68},{"channel":0,"duration":0.1875,"durationBeats":0.5,"durationTicks":480,"endBeat":336.5,"endTick":323040,"endTime":126.1875,"note":43,"startBeat":336,"startTick":322560,"startTime":126,"velocity":68},{"channel":0,"duration":0.1875,"durationBeats":0.5,"durationTicks":480,"endBeat":337,"endTick":323520,"endTime":126.375,"note":50,"startBeat":336.5,"startTick":323040,"startTime":126.1875,"velocity":68},{"channel":0,"duration":0.375,"durationBeats":1,"durationTicks":960,"endBeat":337,"endTick":323520,"endTime":126.375,"note":58,"startBeat":336,"startTick":322560,"startTime":126,"velocity":68},{"channel":0,"duration":0.375,"durationBeats":1,"durationTicks":960,"endBeat":337,"endTick":323520,"endTime":126.375,"note":62,"startBeat":336,"startTick":322560,"startTime":126,"velocity":68},{"channel":0,"duration":0.375,"durationBeats":1,"durationTicks":960,"endBeat":337,"endTick":323520,"endTime":126.375,"note":65,"startBeat":336,"startTick":322560,"startTime":126,"velocity":68},{"channel":0,"duration":0.375,"durationBeats":1,"durationTicks":960,"endBeat":337,"endTick":323520,"endTime":126.375,"note":69,"startBeat":336,"startTick":322560,"startTime":126,"velocity":68},{"channel":0,"duration":0.1875,"durationBeats":0.5,"durationTicks":480,"endBeat":337.5,"endTick":324000,"endTime":126.5625,"note":43,"startBeat":337,"startTick":323520,"startTime":126.375,"velocity":68},{"channel":0,"duration":0.09375,"durationBeats":0.25,"durationTicks":240,"endBeat":337.75,"endTick":324240,"endTime":126.65625,"note":65,"startBeat":337.5,"startTick":324000,"startTime":126.5625,"velocity":68},{"channel":0,"duration":0.1875,"durationBeats":0.5,"durationTicks":480,"endBeat":338,"endTick":324480,"endTime":126.75,"note":44,"startBeat":337.5,"startTick":324000,"startTime":126.5625,"velocity":68},{"channel":0,"duration":0.09375,"durationBeats":0.25,"durationTicks":240,"endBeat":338,"endTick":324480,"endTime":126.75,"note":69,"startBeat":337.75,"startTick":324240,"startTime":126.65625,"velocity":68},{"channel":0,"duration":0.1875,"durationBeats":0.5,"durationTicks":480,"endBeat":338.5,"endTick":324960,"endTime":126.9375,"note":45,"startBeat":338,"startTick":324480,"startTime":126.75,"velocity":68},{"channel":0,"duration":0.1875,"durationBeats":0.5,"durationTicks":480,"endBeat":338.5,"endTick":324960,"endTime":126.9375,"note":60,"startBeat":338,"startTick":324480,"startTime":126.75,"velocity":68},{"channel":0,"duration":0.1875,"durationBeats":0.5,"durationTicks":480,"endBeat":338.5,"endTick":324960,"endTime":126.9375,"note":64,"startBeat":338,"startTick":324480,"startTime":126.75,"velocity":68},{"channel":0,"duration":0.1875,"durationBeats":0.5,"durationTicks":480,"endBeat":338.5,"endTick":324960,"endTime":126.9375,"note":67,"startBeat":338,"startTick":324480,"startTime":126.75,"velocity":68},{"channel":0,"duration":0.1875,"durationBeats":0.5,"durationTicks":480,"endBeat":338.5,"endTick":324960,"endTime":126.9375,"note":72,"startBeat":338,"startTick":324480,"startTime":126.75,"velocity":68},{"channel":0,"duration":0.09375,"durationBeats":0.25,"durationTicks":240,"endBeat":339,"endTick":325440,"endTime":127.125,"note":45,"startBeat":338.75,"startTick":325200,"startTime":127.03125,"velocity":68},{"channel":0,"duration":0.1875,"durationBeats":0.5,"durationTicks":480,"endBeat":339.25,"endTick":325680,"endTime":127.21875,"note":61,"startBeat":338.75,"startTick":325200,"startTime":127.03125,"velocity":68},{"channel":0,"duration":0.1875,"durationBeats":0.5,"durationTicks":480,"endBeat":339.25,"endTick":325680,"endTime":127.21875,"note":65,"startBeat":338.75,"startTick":325200,"startTime":127.03125,"velocity":68},{"channel":0,"duration":0.1875,"durationBeats":0.5,"durationTicks":480,"endBeat":339.25,"endTick":325680,"endTime":127.21875,"note":67,"startBeat":338.75,"startTick":325200,"startTime":127.03125,"velocity":68},{"channel":0,"duration":0.1875,"durationBeats":0.5,"durationTicks":480,"endBeat":339.25,"endTick":325680,"endTime":127.21875,"note":70,"startBeat":338.75,"startTick":325200,"startTime":127.03125,"velocity":68},{"channel":0,"duration":0.1875,"durationBeats":0.5,"durationTicks":480,"endBeat":340,"endTick":326400,"endTime":127.5,"note":38,"startBeat":339.5,"startTick":325920,"startTime":127.3125,"velocity":68},{"channel":0,"duration":0.1875,"durationBeats":0.5,"durationTicks":480,"endBeat":340,"endTick":326400,"endTime":127.5,"note":60,"startBeat":339.5,"startTick":325920,"startTime":127.3125,"velocity":68},{"channel":0,"duration":0.1875,"durationBeats":0.5,"durationTicks":480,"endBeat":340,"endTick":326400,"endTime":127.5,"note":64,"startBeat":339.5,"startTick":325920,"startTime":127.3125,"velocity":68},{"channel":0,"duration":0.1875,"durationBeats":0.5,"durationTicks":480,"endBeat":340,"endTick":326400,"endTime":127.5,"note":65,"startBeat":339.5,"startTick":325920,"startTime":127.3125,"velocity":68},{"channel":0,"duration":0.1875,"durationBeats":0.5,"durationTicks":480,"endBeat":340,"endTick":326400,"endTime":127.5,"note":69,"startBeat":339.5,"startTick":325920,"startTime":127.3125,"velocity":68},{"channel":0,"duration":0.09375,"durationBeats":0.25,"durationTicks":240,"endBeat":340.25,"endTick":326640,"endTime":127.59375,"note":76,"startBeat":340,"startTick":326400,"startTime":127.5,"velocity":68},{"channel":0,"duration":0.09375,"durationBeats":0.25,"durationTicks":240,"endBeat":340.5,"endTick":326880,"endTime":127.6875,"note":77,"startBeat":340.25,"startTick":326640,"startTime":127.59375,"velocity":68},{"channel":0,"duration":0.09375,"durationBeats":0.25,"durationTicks":240,"endBeat":340.75,"endTick":327120,"endTime":127.78125,"note":76,"startBeat":340.5,"startTick":326880,"startTime":127.6875,"velocity":68},{"channel":0,"duration":0.09375,"durationBeats":0.25,"durationTicks":240,"endBeat":341,"endTick":327360,"endTime":127.875,"note":72,"startBeat":340.75,"startTick":327120,"startTime":127.78125,"velocity":68},{"channel":0,"duration":0.09375,"durationBeats":0.25,"durationTicks":240,"endBeat":341.25,"endTick":327600,"endTime":127.96875,"note":76,"startBeat":341,"startTick":327360,"startTime":127.875,"velocity":68},{"channel":0,"duration":0.09375,"durationBeats":0.25,"durationTicks":240,"endBeat":341.5,"endTick":327840,"endTime":128.0625,"note":72,"startBeat":341.25,"startTick":327600,"startTime":127.96875,"velocity":68},{"channel":0,"duration":0.09375,"durationBeats":0.25,"durationTicks":240,"endBeat":341.75,"endTick":328080,"endTime":128.15625,"note":69,"startBeat":341.5,"startTick":327840,"startTime":128.0625,"velocity":68},{"channel":0,"duration":0.1875,"durationBeats":0.5,"durationTicks":480,"endBeat":342,"endTick":328320,"endTime":128.25,"note":45,"startBeat":341.5,"startTick":327840,"startTime":128.0625,"velocity":68},{"channel":0,"duration":0.09375,"durationBeats":0.25,"durationTicks":240,"endBeat":342,"endTick":328320,"endTime":128.25,"note":67,"startBeat":341.75,"startTick":328080,"startTime":128.15625,"velocity":68},{"channel":0,"duration":0.09375,"durationBeats":0.25,"durationTicks":240,"endBeat":342.25,"endTick":328560,"endTime":128.34375,"note":69,"startBeat":342,"startTick":328320,"startTime":128.25,"velocity":68},{"channel":0,"duration":0.1875,"durationBeats":0.5,"durationTicks":480,"endBeat":342.5,"endTick":328800,"endTime":128.4375,"note":50,"startBeat":342,"startTick":328320,"startTime":128.25,"velocity":68},{"channel":0,"duration":0.09375,"durationBeats":0.25,"durationTicks":240,"endBeat":342.5,"endTick":328800,"endTime":128.4375,"note":62,"startBeat":342.25,"startTick":328560,"startTime":128.34375,"velocity":68},{"channel":0,"duration":0.09375,"durationBeats":0.25,"durationTicks":240,"endBeat":342.75,"endTick":329040,"endTime":128.53125,"note":60,"startBeat":342.5,"startTick":328800,"startTime":128.4375,"velocity":68},{"channel":0,"duration":0.1875,"durationBeats":0.5,"durationTicks":480,"endBeat":343,"endTick":329280,"endTime":128.625,"note":38,"startBeat":342.5,"startTick":328800,"startTime":128.4375,"velocity":68},{"channel":0,"duration":0.09375,"durationBeats":0.25,"durationTicks":240,"endBeat":343,"endTick":329280,"endTime":128.625,"note":65,"startBeat":342.75,"startTick":329040,"startTime":128.53125,"velocity":68},{"channel":0,"duration":0.1875,"durationBeats":0.5,"durationTicks":480,"endBeat":343.5,"endTick":329760,"endTime":128.8125,"note":45,"startBeat":343,"startTick":329280,"startTime":128.625,"velocity":68},{"channel":0,"duration":0.1875,"durationBeats":0.5,"durationTicks":480,"endBeat":343.5,"endTick":329760,"endTime":128.8125,"note":60,"startBeat":343,"startTick":329280,"startTime":128.625,"velocity":68},{"channel":0,"duration":0.1875,"durationBeats":0.5,"durationTicks":480,"endBeat":343.5,"endTick":329760,"endTime":128.8125,"note":64,"startBeat":343,"startTick":329280,"startTime":128.625,"velocity":68},{"channel":0,"duration":0.1875,"durationBeats":0.5,"durationTicks":480,"endBeat":343.5,"endTick":329760,"endTime":128.8125,"note":69,"startBeat":343,"startTick":329280,"startTime":128.625,"velocity":68},{"channel":0,"duration":0.1875,"durationBeats":0.5,"durationTicks":480,"endBeat":344,"endTick":330240,"endTime":129,"note":44,"startBeat":343.5,"startTick":329760,"startTime":128.8125,"velocity":68},{"channel":0,"duration":0.1875,"durationBeats":0.5,"durationTicks":480,"endBeat":344,"endTick":330240,"endTime":129,"note":59,"startBeat":343.5,"startTick":329760,"startTime":128.8125,"velocity":68},{"channel":0,"duration":0.1875,"durationBeats":0.5,"durationTicks":480,"endBeat":344,"endTick":330240,"endTime":129,"note":63,"startBeat":343.5,"startTick":329760,"startTime":128.8125,"velocity":68},{"channel":0,"duration":0.1875,"durationBeats":0.5,"durationTicks":480,"endBeat":344,"endTick":330240,"endTime":129,"note":68,"startBeat":343.5,"startTick":329760,"startTime":128.8125,"velocity":68},{"channel":0,"duration":0.1875,"durationBeats":0.5,"durationTicks":480,"endBeat":344.5,"endTick":330720,"endTime":129.1875,"note":43,"startBeat":344,"startTick":330240,"startTime":129,"velocity":68},{"channel":0,"duration":0.1875,"durationBeats":0.5,"durationTicks":480,"endBeat":345,"endTick":331200,"endTime":129.375,"note":50,"startBeat":344.5,"startTick":330720,"startTime":129.1875,"velocity":68},{"channel":0,"duration":0.375,"durationBeats":1,"durationTicks":960,"endBeat":345,"endTick":331200,"endTime":129.375,"note":58,"startBeat":344,"startTick":330240,"startTime":129,"velocity":68},{"channel":0,"duration":0.375,"durationBeats":1,"durationTicks":960,"endBeat":345,"endTick":331200,"endTime":129.375,"note":62,"startBeat":344,"startTick":330240,"startTime":129,"velocity":68},{"channel":0,"duration":0.375,"durationBeats":1,"durationTicks":960,"endBeat":345,"endTick":331200,"endTime":129.375,"note":65,"startBeat":344,"startTick":330240,"startTime":129,"velocity":68},{"channel":0,"duration":0.375,"durationBeats":1,"durationTicks":960,"endBeat":345,"endTick":331200,"endTime":129.375,"note":69,"startBeat":344,"startTick":330240,"startTime":129,"velocity":68},{"channel":0,"duration":0.1875,"durationBeats":0.5,"durationTicks":480,"endBeat":345.5,"endTick":331680,"endTime":129.5625,"note":43,"startBeat":345,"startTick":331200,"startTime":129.375,"velocity":68},{"channel":0,"duration":0.09375,"durationBeats":0.25,"durationTicks":240,"endBeat":345.75,"endTick":331920,"endTime":129.65625,"note":65,"startBeat":345.5,"startTick":331680,"startTime":129.5625,"velocity":68},{"channel":0,"duration":0.1875,"durationBeats":0.5,"durationTicks":480,"endBeat":346,"endTick":332160,"endTime":129.75,"note":44,"startBeat":345.5,"startTick":331680,"startTime":129.5625,"velocity":68},{"channel":0,"duration":0.09375,"durationBeats":0.25,"durationTicks":240,"endBeat":346,"endTick":332160,"endTime":129.75,"note":69,"startBeat":345.75,"startTick":331920,"startTime":129.65625,"velocity":68},{"channel":0,"duration":0.1875,"durationBeats":0.5,"durationTicks":480,"endBeat":346.5,"endTick":332640,"endTime":129.9375,"note":45,"startBeat":346,"startTick":332160,"startTime":129.75,"velocity":68},{"channel":0,"duration":0.1875,"durationBeats":0.5,"durationTicks":480,"endBeat":346.5,"endTick":332640,"endTime":129.9375,"note":60,"startBeat":346,"startTick":332160,"startTime":129.75,"velocity":68},{"channel":0,"duration":0.1875,"durationBeats":0.5,"durationTicks":480,"endBeat":346.5,"endTick":332640,"endTime":129.9375,"note":64,"startBeat":346,"startTick":332160,"startTime":129.75,"velocity":68},{"channel":0,"duration":0.1875,"durationBeats":0.5,"durationTicks":480,"endBeat":346.5,"endTick":332640,"endTime":129.9375,"note":67,"startBeat":346,"startTick":332160,"startTime":129.75,"velocity":68},{"channel":0,"duration":0.1875,"durationBeats":0.5,"durationTicks":480,"endBeat":346.5,"endTick":332640,"endTime":129.9375,"note":72,"startBeat":346,"startTick":332160,"startTime":129.75,"velocity":68},{"channel":0,"duration":0.09375,"durationBeats":0.25,"durationTicks":240,"endBeat":347,"endTick":333120,"endTime":130.125,"note":45,"startBeat":346.75,"startTick":332880,"startTime":130.03125,"velocity":68},{"channel":0,"duration":0.1875,"durationBeats":0.5,"durationTicks":480,"endBeat":347.25,"endTick":333360,"endTime":130.21875,"note":61,"startBeat":346.75,"startTick":332880,"startTime":130.03125,"velocity":68},{"channel":0,"duration":0.1875,"durationBeats":0.5,"durationTicks":480,"endBeat":347.25,"endTick":333360,"endTime":130.21875,"note":65,"startBeat":346.75,"startTick":332880,"startTime":130.03125,"velocity":68},{"channel":0,"duration":0.1875,"durationBeats":0.5,"durationTicks":480,"endBeat":347.25,"endTick":333360,"endTime":130.21875,"note":67,"startBeat":346.75,"startTick":332880,"startTime":130.03125,"velocity":68},{"channel":0,"duration":0.1875,"durationBeats":0.5,"durationTicks":480,"endBeat":347.25,"endTick":333360,"endTime":130.21875,"note":70,"startBeat":346.75,"startTick":332880,"startTime":130.03125,"velocity":68},{"channel":0,"duration":0.1875,"durationBeats":0.5,"durationTicks":480,"endBeat":348,"endTick":334080,"endTime":130.5,"note":38,"startBeat":347.5,"startTick":333600,"startTime":130.3125,"velocity":68},{"channel":0,"duration":0.1875,"durationBeats":0.5,"durationTicks":480,"endBeat":348,"endTick":334080,"endTime":130.5,"note":60,"startBeat":347.5,"startTick":333600,"startTime":130.3125,"velocity":68},{"channel":0,"duration":0.1875,"durationBeats":0.5,"durationTicks":480,"endBeat":348,"endTick":334080,"endTime":130.5,"note":64,"startBeat":347.5,"startTick":333600,"startTime":130.3125,"velocity":68},{"channel":0,"duration":0.1875,"durationBeats":0.5,"durationTicks":480,"endBeat":348,"endTick":334080,"endTime":130.5,"note":65,"startBeat":347.5,"startTick":333600,"startTime":130.3125,"velocity":68},{"channel":0,"duration":0.1875,"durationBeats":0.5,"durationTicks":480,"endBeat":348,"endTick":334080,"endTime":130.5,"note":69,"startBeat":347.5,"startTick":333600,"startTime":130.3125,"velocity":68},{"channel":0,"duration":0.09375,"durationBeats":0.25,"durationTicks":240,"endBeat":348.25,"endTick":334320,"endTime":130.59375,"note":76,"startBeat":348,"startTick":334080,"startTime":130.5,"velocity":68},{"channel":0,"duration":0.09375,"durationBeats":0.25,"durationTicks":240,"endBeat":348.5,"endTick":334560,"endTime":130.6875,"note":77,"startBeat":348.25,"startTick":334320,"startTime":130.59375,"velocity":68},{"channel":0,"duration":0.09375,"durationBeats":0.25,"durationTicks":240,"endBeat":348.75,"endTick":334800,"endTime":130.78125,"note":79,"startBeat":348.5,"startTick":334560,"startTime":130.6875,"velocity":68},{"channel":0,"duration":0.09375,"durationBeats":0.25,"durationTicks":240,"endBeat":349,"endTick":335040,"endTime":130.875,"note":77,"startBeat":348.75,"startTick":334800,"startTime":130.78125,"velocity":68},{"channel":0,"duration":0.09375,"durationBeats":0.25,"durationTicks":240,"endBeat":349.25,"endTick":335280,"endTime":130.96875,"note":76,"startBeat":349,"startTick":335040,"startTime":130.875,"velocity":68},{"channel":0,"duration":0.09375,"durationBeats":0.25,"durationTicks":240,"endBeat":349.5,"endTick":335520,"endTime":131.0625,"note":72,"startBeat":349.25,"startTick":335280,"startTime":130.96875,"velocity":68},{"channel":0,"duration":0.09375,"durationBeats":0.25,"durationTicks":240,"endBeat":349.75,"endTick":335760,"endTime":131.15625,"note":69,"startBeat":349.5,"startTick":335520,"startTime":131.0625,"velocity":68},{"channel":0,"duration":0.1875,"durationBeats":0.5,"durationTicks":480,"endBeat":350,"endTick":336000,"endTime":131.25,"note":45,"startBeat":349.5,"startTick":335520,"startTime":131.0625,"velocity":68},{"channel":0,"duration":0.09375,"durationBeats":0.25,"durationTicks":240,"endBeat":350,"endTick":336000,"endTime":131.25,"note":67,"startBeat":349.75,"startTick":335760,"startTime":131.15625,"velocity":68},{"channel":0,"duration":0.09375,"durationBeats":0.25,"durationTicks":240,"endBeat":350.25,"endTick":336240,"endTime":131.34375,"note":69,"startBeat":350,"startTick":336000,"startTime":131.25,"velocity":68},{"channel":0,"duration":0.1875,"durationBeats":0.5,"durationTicks":480,"endBeat":350.5,"endTick":336480,"endTime":131.4375,"note":50,"startBeat":350,"startTick":336000,"startTime":131.25,"velocity":68},{"channel":0,"duration":0.09375,"durationBeats":0.25,"durationTicks":240,"endBeat":350.5,"endTick":336480,"endTime":131.4375,"note":62,"startBeat":350.25,"startTick":336240,"startTime":131.34375,"velocity":68},{"channel":0,"duration":0.09375,"durationBeats":0.25,"durationTicks":240,"endBeat":350.75,"endTick":336720,"endTime":131.53125,"note":60,"startBeat":350.5,"startTick":336480,"startTime":131.4375,"velocity":68},{"channel":0,"duration":0.1875,"durationBeats":0.5,"durationTicks":480,"endBeat":351,"endTick":336960,"endTime":131.625,"note":38,"startBeat":350.5,"startTick":336480,"startTime":131.4375,"velocity":68},{"channel":0,"duration":0.09375,"durationBeats":0.25,"durationTicks":240,"endBeat":351,"endTick":336960,"endTime":131.625,"note":65,"startBeat":350.75,"startTick":336720,"startTime":131.53125,"velocity":68},{"channel":0,"duration":0.1875,"durationBeats":0.5,"durationTicks":480,"endBeat":351.5,"endTick":337440,"endTime":131.8125,"note":45,"startBeat":351,"startTick":336960,"startTime":131.625,"velocity":68},{"channel":0,"duration":0.1875,"durationBeats":0.5,"durationTicks":480,"endBeat":351.5,"endTick":337440,"endTime":131.8125,"note":60,"startBeat":351,"startTick":336960,"startTime":131.625,"velocity":68},{"channel":0,"duration":0.1875,"durationBeats":0.5,"durationTicks":480,"endBeat":351.5,"endTick":337440,"endTime":131.8125,"note":64,"startBeat":351,"startTick":336960,"startTime":131.625,"velocity":68},{"channel":0,"duration":0.1875,"durationBeats":0.5,"durationTicks":480,"endBeat":351.5,"endTick":337440,"endTime":131.8125,"note":69,"startBeat":351,"startTick":336960,"startTime":131.625,"velocity":68},{"channel":0,"duration":0.1875,"durationBeats":0.5,"durationTicks":480,"endBeat":352,"endTick":337920,"endTime":132,"note":44,"startBeat":351.5,"startTick":337440,"startTime":131.8125,"velocity":68},{"channel":0,"duration":0.1875,"durationBeats":0.5,"durationTicks":480,"endBeat":352,"endTick":337920,"endTime":132,"note":59,"startBeat":351.5,"startTick":337440,"startTime":131.8125,"velocity":68},{"channel":0,"duration":0.1875,"durationBeats":0.5,"durationTicks":480,"endBeat":352,"endTick":337920,"endTime":132,"note":63,"startBeat":351.5,"startTick":337440,"startTime":131.8125,"velocity":68},{"channel":0,"duration":0.1875,"durationBeats":0.5,"durationTicks":480,"endBeat":352,"endTick":337920,"endTime":132,"note":68,"startBeat":351.5,"startTick":337440,"startTime":131.8125,"velocity":68},{"channel":0,"duration":0.1875,"durationBeats":0.5,"durationTicks":480,"endBeat":352.5,"endTick":338400,"endTime":132.1875,"note":43,"startBeat":352,"startTick":337920,"startTime":132,"velocity":68},{"channel":0,"duration":0.1875,"durationBeats":0.5,"durationTicks":480,"endBeat":353,"endTick":338880,"endTime":132.375,"note":50,"startBeat":352.5,"startTick":338400,"startTime":132.1875,"velocity":68},{"channel":0,"duration":0.375,"durationBeats":1,"durationTicks":960,"endBeat":353,"endTick":338880,"endTime":132.375,"note":58,"startBeat":352,"startTick":337920,"startTime":132,"velocity":68},{"channel":0,"duration":0.375,"durationBeats":1,"durationTicks":960,"endBeat":353,"endTick":338880,"endTime":132.375,"note":62,"startBeat":352,"startTick":337920,"startTime":132,"velocity":68},{"channel":0,"duration":0.375,"durationBeats":1,"durationTicks":960,"endBeat":353,"endTick":338880,"endTime":132.375,"note":65,"startBeat":352,"startTick":337920,"startTime":132,"velocity":68},{"channel":0,"duration":0.375,"durationBeats":1,"durationTicks":960,"endBeat":353,"endTick":338880,"endTime":132.375,"note":69,"startBeat":352,"startTick":337920,"startTime":132,"velocity":68},{"channel":0,"duration":0.1875,"durationBeats":0.5,"durationTicks":480,"endBeat":353.5,"endTick":339360,"endTime":132.5625,"note":43,"startBeat":353,"startTick":338880,"startTime":132.375,"velocity":68},{"channel":0,"duration":0.09375,"durationBeats":0.25,"durationTicks":240,"endBeat":353.75,"endTick":339600,"endTime":132.65625,"note":65,"startBeat":353.5,"startTick":339360,"startTime":132.5625,"velocity":68},{"channel":0,"duration":0.1875,"durationBeats":0.5,"durationTicks":480,"endBeat":354,"endTick":339840,"endTime":132.75,"note":44,"startBeat":353.5,"startTick":339360,"startTime":132.5625,"velocity":68},{"channel":0,"duration":0.09375,"durationBeats":0.25,"durationTicks":240,"endBeat":354,"endTick":339840,"endTime":132.75,"note":69,"startBeat":353.75,"startTick":339600,"startTime":132.65625,"velocity":68},{"channel":0,"duration":0.1875,"durationBeats":0.5,"durationTicks":480,"endBeat":354.5,"endTick":340320,"endTime":132.9375,"note":45,"startBeat":354,"startTick":339840,"startTime":132.75,"velocity":68},{"channel":0,"duration":0.1875,"durationBeats":0.5,"durationTicks":480,"endBeat":354.5,"endTick":340320,"endTime":132.9375,"note":60,"startBeat":354,"startTick":339840,"startTime":132.75,"velocity":68},{"channel":0,"duration":0.1875,"durationBeats":0.5,"durationTicks":480,"endBeat":354.5,"endTick":340320,"endTime":132.9375,"note":64,"startBeat":354,"startTick":339840,"startTime":132.75,"velocity":68},{"channel":0,"duration":0.1875,"durationBeats":0.5,"durationTicks":480,"endBeat":354.5,"endTick":340320,"endTime":132.9375,"note":67,"startBeat":354,"startTick":339840,"startTime":132.75,"velocity":68},{"channel":0,"duration":0.1875,"durationBeats":0.5,"durationTicks":480,"endBeat":354.5,"endTick":340320,"endTime":132.9375,"note":72,"startBeat":354,"startTick":339840,"startTime":132.75,"velocity":68},{"channel":0,"duration":0.09375,"durationBeats":0.25,"durationTicks":240,"endBeat":355,"endTick":340800,"endTime":133.125,"note":45,"startBeat":354.75,"startTick":340560,"startTime":133.03125,"velocity":68},{"channel":0,"duration":0.1875,"durationBeats":0.5,"durationTicks":480,"endBeat":355.25,"endTick":341040,"endTime":133.21875,"note":61,"startBeat":354.75,"startTick":340560,"startTime":133.03125,"velocity":68},{"channel":0,"duration":0.1875,"durationBeats":0.5,"durationTicks":480,"endBeat":355.25,"endTick":341040,"endTime":133.21875,"note":65,"startBeat":354.75,"startTick":340560,"startTime":133.03125,"velocity":68},{"channel":0,"duration":0.1875,"durationBeats":0.5,"durationTicks":480,"endBeat":355.25,"endTick":341040,"endTime":133.21875,"note":67,"startBeat":354.75,"startTick":340560,"startTime":133.03125,"velocity":68},{"channel":0,"duration":0.1875,"durationBeats":0.5,"durationTicks":480,"endBeat":355.25,"endTick":341040,"endTime":133.21875,"note":70,"startBeat":354.75,"startTick":340560,"startTime":133.03125,"velocity":68},{"channel":0,"duration":0.1875,"durationBeats":0.5,"durationTicks":480,"endBeat":356,"endTick":341760,"endTime":133.5,"note":38,"startBeat":355.5,"startTick":341280,"startTime":133.3125,"velocity":68},{"channel":0,"duration":0.1875,"durationBeats":0.5,"durationTicks":480,"endBeat":356,"endTick":341760,"endTime":133.5,"note":60,"startBeat":355.5,"startTick":341280,"startTime":133.3125,"velocity":68},{"channel":0,"duration":0.1875,"durationBeats":0.5,"durationTicks":480,"endBeat":356,"endTick":341760,"endTime":133.5,"note":64,"startBeat":355.5,"startTick":341280,"startTime":133.3125,"velocity":68},{"channel":0,"duration":0.1875,"durationBeats":0.5,"durationTicks":480,"endBeat":356,"endTick":341760,"endTime":133.5,"note":65,"startBeat":355.5,"startTick":341280,"startTime":133.3125,"velocity":68},{"channel":0,"duration":0.1875,"durationBeats":0.5,"durationTicks":480,"endBeat":356,"endTick":341760,"endTime":133.5,"note":69,"startBeat":355.5,"startTick":341280,"startTime":133.3125,"velocity":68},{"channel":0,"duration":0.09375,"durationBeats":0.25,"durationTicks":240,"endBeat":356.25,"endTick":342000,"endTime":133.59375,"note":76,"startBeat":356,"startTick":341760,"startTime":133.5,"velocity":68},{"channel":0,"duration":0.09375,"durationBeats":0.25,"durationTicks":240,"endBeat":356.5,"endTick":342240,"endTime":133.6875,"note":77,"startBeat":356.25,"startTick":342000,"startTime":133.59375,"velocity":68},{"channel":0,"duration":0.09375,"durationBeats":0.25,"durationTicks":240,"endBeat":356.75,"endTick":342480,"endTime":133.78125,"note":76,"startBeat":356.5,"startTick":342240,"startTime":133.6875,"velocity":68},{"channel":0,"duration":0.09375,"durationBeats":0.25,"durationTicks":240,"endBeat":357,"endTick":342720,"endTime":133.875,"note":72,"startBeat":356.75,"startTick":342480,"startTime":133.78125,"velocity":68},{"channel":0,"duration":0.09375,"durationBeats":0.25,"durationTicks":240,"endBeat":357.25,"endTick":342960,"endTime":133.96875,"note":76,"startBeat":357,"startTick":342720,"startTime":133.875,"velocity":68},{"channel":0,"duration":0.09375,"durationBeats":0.25,"durationTicks":240,"endBeat":357.5,"endTick":343200,"endTime":134.0625,"note":72,"startBeat":357.25,"startTick":342960,"startTime":133.96875,"velocity":68},{"channel":0,"duration":0.09375,"durationBeats":0.25,"durationTicks":240,"endBeat":357.75,"endTick":343440,"endTime":134.15625,"note":69,"startBeat":357.5,"startTick":343200,"startTime":134.0625,"velocity":68},{"channel":0,"duration":0.1875,"durationBeats":0.5,"durationTicks":480,"endBeat":358,"endTick":343680,"endTime":134.25,"note":45,"startBeat":357.5,"startTick":343200,"startTime":134.0625,"velocity":68},{"channel":0,"duration":0.09375,"durationBeats":0.25,"durationTicks":240,"endBeat":358,"endTick":343680,"endTime":134.25,"note":67,"startBeat":357.75,"startTick":343440,"startTime":134.15625,"velocity":68},{"channel":0,"duration":0.09375,"durationBeats":0.25,"durationTicks":240,"endBeat":358.25,"endTick":343920,"endTime":134.34375,"note":69,"startBeat":358,"startTick":343680,"startTime":134.25,"velocity":68},{"channel":0,"duration":0.1875,"durationBeats":0.5,"durationTicks":480,"endBeat":358.5,"endTick":344160,"endTime":134.4375,"note":50,"startBeat":358,"startTick":343680,"startTime":134.25,"velocity":68},{"channel":0,"duration":0.09375,"durationBeats":0.25,"durationTicks":240,"endBeat":358.5,"endTick":344160,"endTime":134.4375,"note":62,"startBeat":358.25,"startTick":343920,"startTime":134.34375,"velocity":68},{"channel":0,"duration":0.09375,"durationBeats":0.25,"durationTicks":240,"endBeat":358.75,"endTick":344400,"endTime":134.53125,"note":60,"startBeat":358.5,"startTick":344160,"startTime":134.4375,"velocity":68},{"channel":0,"duration":0.1875,"durationBeats":0.5,"durationTicks":480,"endBeat":359,"endTick":344640,"endTime":134.625,"note":38,"startBeat":358.5,"startTick":344160,"startTime":134.4375,"velocity":68},{"channel":0,"duration":0.09375,"durationBeats":0.25,"durationTicks":240,"endBeat":359,"endTick":344640,"endTime":134.625,"note":65,"startBeat":358.75,"startTick":344400,"startTime":134.53125,"velocity":68},{"channel":0,"duration":0.1875,"durationBeats":0.5,"durationTicks":480,"endBeat":359.5,"endTick":345120,"endTime":134.8125,"note":45,"startBeat":359,"startTick":344640,"startTime":134.625,"velocity":68},{"channel":0,"duration":0.1875,"durationBeats":0.5,"durationTicks":480,"endBeat":359.5,"endTick":345120,"endTime":134.8125,"note":60,"startBeat":359,"startTick":344640,"startTime":134.625,"velocity":68},{"channel":0,"duration":0.1875,"durationBeats":0.5,"durationTicks":480,"endBeat":359.5,"endTick":345120,"endTime":134.8125,"note":64,"startBeat":359,"startTick":344640,"startTime":134.625,"velocity":68},{"channel":0,"duration":0.1875,"durationBeats":0.5,"durationTicks":480,"endBeat":359.5,"endTick":345120,"endTime":134.8125,"note":69,"startBeat":359,"startTick":344640,"startTime":134.625,"velocity":68},{"channel":0,"duration":0.1875,"durationBeats":0.5,"durationTicks":480,"endBeat":360,"endTick":345600,"endTime":135,"note":44,"startBeat":359.5,"startTick":345120,"startTime":134.8125,"velocity":68},{"channel":0,"duration":0.1875,"durationBeats":0.5,"durationTicks":480,"endBeat":360,"endTick":345600,"endTime":135,"note":59,"startBeat":359.5,"startTick":345120,"startTime":134.8125,"velocity":68},{"channel":0,"duration":0.1875,"durationBeats":0.5,"durationTicks":480,"endBeat":360,"endTick":345600,"endTime":135,"note":63,"startBeat":359.5,"startTick":345120,"startTime":134.8125,"velocity":68},{"channel":0,"duration":0.1875,"durationBeats":0.5,"durationTicks":480,"endBeat":360,"endTick":345600,"endTime":135,"note":68,"startBeat":359.5,"startTick":345120,"startTime":134.8125,"velocity":68},{"channel":0,"duration":0.1875,"durationBeats":0.5,"durationTicks":480,"endBeat":360.5,"endTick":346080,"endTime":135.1875,"note":43,"startBeat":360,"startTick":345600,"startTime":135,"velocity":68},{"channel":0,"duration":0.1875,"durationBeats":0.5,"durationTicks":480,"endBeat":361,"endTick":346560,"endTime":135.375,"note":50,"startBeat":360.5,"startTick":346080,"startTime":135.1875,"velocity":68},{"channel":0,"duration":0.375,"durationBeats":1,"durationTicks":960,"endBeat":361,"endTick":346560,"endTime":135.375,"note":58,"startBeat":360,"startTick":345600,"startTime":135,"velocity":68},{"channel":0,"duration":0.375,"durationBeats":1,"durationTicks":960,"endBeat":361,"endTick":346560,"endTime":135.375,"note":62,"startBeat":360,"startTick":345600,"startTime":135,"velocity":68},{"channel":0,"duration":0.375,"durationBeats":1,"durationTicks":960,"endBeat":361,"endTick":346560,"endTime":135.375,"note":65,"startBeat":360,"startTick":345600,"startTime":135,"velocity":68},{"channel":0,"duration":0.375,"durationBeats":1,"durationTicks":960,"endBeat":361,"endTick":346560,"endTime":135.375,"note":69,"startBeat":360,"startTick":345600,"startTime":135,"velocity":68},{"channel":0,"duration":0.1875,"durationBeats":0.5,"durationTicks":480,"endBeat":361.5,"endTick":347040,"endTime":135.5625,"note":43,"startBeat":361,"startTick":346560,"startTime":135.375,"velocity":68},{"channel":0,"duration":0.09375,"durationBeats":0.25,"durationTicks":240,"endBeat":361.75,"endTick":347280,"endTime":135.65625,"note":65,"startBeat":361.5,"startTick":347040,"startTime":135.5625,"velocity":68},{"channel":0,"duration":0.1875,"durationBeats":0.5,"durationTicks":480,"endBeat":362,"endTick":347520,"endTime":135.75,"note":44,"startBeat":361.5,"startTick":347040,"startTime":135.5625,"velocity":68},{"channel":0,"duration":0.09375,"durationBeats":0.25,"durationTicks":240,"endBeat":362,"endTick":347520,"endTime":135.75,"note":69,"startBeat":361.75,"startTick":347280,"startTime":135.65625,"velocity":68},{"channel":0,"duration":0.1875,"durationBeats":0.5,"durationTicks":480,"endBeat":362.5,"endTick":348000,"endTime":135.9375,"note":45,"startBeat":362,"startTick":347520,"startTime":135.75,"velocity":68},{"channel":0,"duration":0.1875,"durationBeats":0.5,"durationTicks":480,"endBeat":362.5,"endTick":348000,"endTime":135.9375,"note":60,"startBeat":362,"startTick":347520,"startTime":135.75,"velocity":68},{"channel":0,"duration":0.1875,"durationBeats":0.5,"durationTicks":480,"endBeat":362.5,"endTick":348000,"endTime":135.9375,"note":64,"startBeat":362,"startTick":347520,"startTime":135.75,"velocity":68},{"channel":0,"duration":0.1875,"durationBeats":0.5,"durationTicks":480,"endBeat":362.5,"endTick":348000,"endTime":135.9375,"note":67,"startBeat":362,"startTick":347520,"startTime":135.75,"velocity":68},{"channel":0,"duration":0.1875,"durationBeats":0.5,"durationTicks":480,"endBeat":362.5,"endTick":348000,"endTime":135.9375,"note":72,"startBeat":362,"startTick":347520,"startTime":135.75,"velocity":68},{"channel":0,"duration":0.09375,"durationBeats":0.25,"durationTicks":240,"endBeat":363,"endTick":348480,"endTime":136.125,"note":45,"startBeat":362.75,"startTick":348240,"startTime":136.03125,"velocity":68},{"channel":0,"duration":0.1875,"durationBeats":0.5,"durationTicks":480,"endBeat":363.25,"endTick":348720,"endTime":136.21875,"note":61,"startBeat":362.75,"startTick":348240,"startTime":136.03125,"velocity":68},{"channel":0,"duration":0.1875,"durationBeats":0.5,"durationTicks":480,"endBeat":363.25,"endTick":348720,"endTime":136.21875,"note":67,"startBeat":362.75,"startTick":348240,"startTime":136.03125,"velocity":68},{"channel":0,"duration":0.1875,"durationBeats":0.5,"durationTicks":480,"endBeat":363.25,"endTick":348720,"endTime":136.21875,"note":72,"startBeat":362.75,"startTick":348240,"startTime":136.03125,"velocity":68},{"channel":0,"duration":0.1875,"durationBeats":0.5,"durationTicks":480,"endBeat":363.25,"endTick":348720,"endTime":136.21875,"note":75,"startBeat":362.75,"startTick":348240,"startTime":136.03125,"velocity":68},{"channel":0,"duration":0.1875,"durationBeats":0.5,"durationTicks":480,"endBeat":364,"endTick":349440,"endTime":136.5,"note":64,"startBeat":363.5,"startTick":348960,"startTime":136.3125,"velocity":68},{"channel":0,"duration":0.1875,"durationBeats":0.5,"durationTicks":480,"endBeat":364,"endTick":349440,"endTime":136.5,"note":65,"startBeat":363.5,"startTick":348960,"startTime":136.3125,"velocity":68},{"channel":0,"duration":0.1875,"durationBeats":0.5,"durationTicks":480,"endBeat":364,"endTick":349440,"endTime":136.5,"note":69,"startBeat":363.5,"startTick":348960,"startTime":136.3125,"velocity":68},{"channel":0,"duration":0.1875,"durationBeats":0.5,"durationTicks":480,"endBeat":364,"endTick":349440,"endTime":136.5,"note":74,"startBeat":363.5,"startTick":348960,"startTime":136.3125,"velocity":68},{"channel":0,"duration":0.09375,"durationBeats":0.25,"durationTicks":240,"endBeat":364.25,"endTick":349680,"endTime":136.59375,"note":74,"startBeat":364,"startTick":349440,"startTime":136.5,"velocity":68},{"channel":0,"duration":0.09375,"durationBeats":0.25,"durationTicks":240,"endBeat":364.5,"endTick":349920,"endTime":136.6875,"note":76,"startBeat":364.25,"startTick":349680,"startTime":136.59375,"velocity":68},{"channel":0,"duration":0.09375,"durationBeats":0.25,"durationTicks":240,"endBeat":364.75,"endTick":350160,"endTime":136.78125,"note":77,"startBeat":364.5,"startTick":349920,"startTime":136.6875,"velocity":68},{"channel":0,"duration":0.1875,"durationBeats":0.5,"durationTicks":480,"endBeat":365,"endTick":350400,"endTime":136.875,"note":38,"startBeat":364.5,"startTick":349920,"startTime":136.6875,"velocity":68},{"channel":0,"duration":0.09375,"durationBeats":0.25,"durationTicks":240,"endBeat":365,"endTick":350400,"endTime":136.875,"note":79,"startBeat":364.75,"startTick":350160,"startTime":136.78125,"velocity":68},{"channel":0,"duration":0.046875,"durationBeats":0.125,"durationTicks":120,"endBeat":365.125,"endTick":350520,"endTime":136.921875,"note":74,"startBeat":365,"startTick":350400,"startTime":136.875,"velocity":68},{"channel":0,"duration":0.140625,"durationBeats":0.375,"durationTicks":360,"endBeat":365.5,"endTick":350880,"endTime":137.0625,"note":76,"startBeat":365.125,"startTick":350520,"startTime":136.921875,"velocity":68},{"channel":0,"duration":0.09375,"durationBeats":0.25,"durationTicks":240,"endBeat":365.75,"endTick":351120,"endTime":137.15625,"note":72,"startBeat":365.5,"startTick":350880,"startTime":137.0625,"velocity":68},{"channel":0,"duration":0.1875,"durationBeats":0.5,"durationTicks":480,"endBeat":366,"endTick":351360,"endTime":137.25,"note":50,"startBeat":365.5,"startTick":350880,"startTime":137.0625,"velocity":68},{"channel":0,"duration":0.09375,"durationBeats":0.25,"durationTicks":240,"endBeat":366,"endTick":351360,"endTime":137.25,"note":74,"startBeat":365.75,"startTick":351120,"startTime":137.15625,"velocity":68},{"channel":0,"duration":0.1875,"durationBeats":0.5,"durationTicks":480,"endBeat":367,"endTick":352320,"endTime":137.625,"note":45,"startBeat":366.5,"startTick":351840,"startTime":137.4375,"velocity":68},{"channel":0,"duration":0.375,"durationBeats":1,"durationTicks":960,"endBeat":368,"endTick":353280,"endTime":138,"note":77,"startBeat":367,"startTick":352320,"startTime":137.625,"velocity":68},{"channel":0,"duration":0.375,"durationBeats":1,"durationTicks":960,"endBeat":368,"endTick":353280,"endTime":138,"note":81,"startBeat":367,"startTick":352320,"startTime":137.625,"velocity":68},{"channel":0,"duration":0.375,"durationBeats":1,"durationTicks":960,"endBeat":368,"endTick":353280,"endTime":138,"note":84,"startBeat":367,"startTick":352320,"startTime":137.625,"velocity":68},{"channel":0,"duration":0.375,"durationBeats":1,"durationTicks":960,"endBeat":368,"endTick":353280,"endTime":138,"note":88,"startBeat":367,"startTick":352320,"startTime":137.625,"velocity":68}],"tempoMap":[{"tempo":500000,"time":0}],"ticksPerQuarter":960},"trk_wnae8cdc":{"midiData":{"duration":237.42838541666666,"events":[{"channel":4,"nextOffset":36629,"note":62,"tick":0,"time":0,"type":"noteOn","velocity":27},{"channel":4,"nextOffset":36633,"note":65,"tick":0,"time":0,"type":"noteOn","velocity":27},{"channel":4,"nextOffset":36637,"note":70,"tick":0,"time":0,"type":"noteOn","velocity":27},{"channel":4,"nextOffset":36641,"note":46,"tick":0,"time":0,"type":"noteOn","velocity":27},{"channel":4,"nextOffset":36645,"note":69,"tick":0,"time":0,"type":"noteOn","velocity":27},{"channel":3,"nextOffset":35706,"note":62,"tick":34,"time":0.04427083333333337,"type":"noteOn","velocity":18},{"channel":3,"nextOffset":35710,"note":65,"tick":34,"time":0.04427083333333337,"type":"noteOn","velocity":18},{"channel":3,"nextOffset":35714,"note":69,"tick":34,"time":0.04427083333333337,"type":"noteOn","velocity":18},{"channel":3,"nextOffset":35718,"note":46,"tick":34,"time":0.04427083333333337,"type":"noteOn","velocity":18},{"channel":3,"nextOffset":35722,"note":74,"tick":34,"time":0.04427083333333337,"type":"noteOn","velocity":18},{"channel":3,"nextOffset":35727,"note":46,"tick":226,"time":0.29427083333333337,"type":"noteOff","velocity":0},{"channel":3,"nextOffset":35731,"note":50,"tick":226,"time":0.29427083333333337,"type":"noteOn","velocity":18},{"channel":4,"nextOffset":36650,"note":69,"tick":384,"time":0.4999999999999999,"type":"noteOff","velocity":0},{"channel":4,"nextOffset":36654,"note":46,"tick":384,"time":0.4999999999999999,"type":"noteOff","velocity":0},{"channel":4,"nextOffset":36658,"note":70,"tick":384,"time":0.4999999999999999,"type":"noteOff","velocity":0},{"channel":4,"nextOffset":36662,"note":65,"tick":384,"time":0.4999999999999999,"type":"noteOff","velocity":0},{"channel":4,"nextOffset":36666,"note":62,"tick":384,"time":0.4999999999999999,"type":"noteOff","velocity":0},{"channel":4,"nextOffset":36670,"note":43,"tick":384,"time":0.4999999999999999,"type":"noteOn","velocity":27},{"channel":4,"nextOffset":36674,"note":65,"tick":384,"time":0.4999999999999999,"type":"noteOn","velocity":27},{"channel":4,"nextOffset":36678,"note":69,"tick":384,"time":0.4999999999999999,"type":"noteOn","velocity":27},{"channel":4,"nextOffset":36682,"note":70,"tick":384,"time":0.4999999999999999,"type":"noteOn","velocity":27},{"channel":4,"nextOffset":36686,"note":62,"tick":384,"time":0.4999999999999999,"type":"noteOn","velocity":27},{"channel":3,"nextOffset":35736,"note":74,"tick":418,"time":0.5442708333333334,"type":"noteOff","velocity":0},{"channel":3,"nextOffset":35740,"note":69,"tick":418,"time":0.5442708333333334,"type":"noteOff","velocity":0},{"channel":3,"nextOffset":35744,"note":65,"tick":418,"time":0.5442708333333334,"type":"noteOff","velocity":0},{"channel":3,"nextOffset":35748,"note":62,"tick":418,"time":0.5442708333333334,"type":"noteOff","velocity":0},{"channel":3,"nextOffset":35752,"note":50,"tick":418,"time":0.5442708333333334,"type":"noteOff","velocity":0},{"channel":3,"nextOffset":35756,"note":41,"tick":418,"time":0.5442708333333334,"type":"noteOn","velocity":18},{"channel":3,"nextOffset":35760,"note":62,"tick":418,"time":0.5442708333333334,"type":"noteOn","velocity":18},{"channel":3,"nextOffset":35764,"note":65,"tick":418,"time":0.5442708333333334,"type":"noteOn","velocity":18},{"channel":3,"nextOffset":35768,"note":69,"tick":418,"time":0.5442708333333334,"type":"noteOn","velocity":18},{"channel":3,"nextOffset":35772,"note":74,"tick":418,"time":0.5442708333333334,"type":"noteOn","velocity":18},{"channel":4,"nextOffset":36691,"note":65,"tick":576,"time":0.7499999999999999,"type":"noteOff","velocity":0},{"channel":4,"nextOffset":36695,"note":43,"tick":576,"time":0.7499999999999999,"type":"noteOff","velocity":0},{"channel":4,"nextOffset":36699,"note":65,"tick":576,"time":0.7499999999999999,"type":"noteOn","velocity":27},{"channel":4,"nextOffset":36703,"note":44,"tick":576,"time":0.7499999999999999,"type":"noteOn","velocity":27},{"channel":3,"nextOffset":35777,"note":41,"tick":610,"time":0.7942708333333334,"type":"noteOff","velocity":0},{"channel":3,"nextOffset":35781,"note":44,"tick":610,"time":0.7942708333333334,"type":"noteOn","velocity":18},{"channel":4,"nextOffset":36707,"note":69,"tick":672,"time":0.8749999999999999,"type":"noteOff","velocity":0},{"channel":4,"nextOffset":36711,"note":65,"tick":672,"time":0.8749999999999999,"type":"noteOff","velocity":0},{"channel":4,"nextOffset":36715,"note":69,"tick":672,"time":0.8749999999999999,"type":"noteOn","velocity":27},{"channel":4,"nextOffset":36719,"note":62,"tick":768,"time":0.9999999999999999,"type":"noteOff","velocity":0},{"channel":4,"nextOffset":36723,"note":70,"tick":768,"time":0.9999999999999999,"type":"noteOff","velocity":0},{"channel":4,"nextOffset":36727,"note":44,"tick":768,"time":0.9999999999999999,"type":"noteOff","velocity":0},{"channel":4,"nextOffset":36731,"note":69,"tick":768,"time":0.9999999999999999,"type":"noteOff","velocity":0},{"channel":4,"nextOffset":36735,"note":61,"tick":768,"time":0.9999999999999999,"type":"noteOn","velocity":27},{"channel":4,"nextOffset":36739,"note":64,"tick":768,"time":0.9999999999999999,"type":"noteOn","velocity":27},{"channel":4,"nextOffset":36743,"note":69,"tick":768,"time":0.9999999999999999,"type":"noteOn","velocity":27},{"channel":4,"nextOffset":36747,"note":45,"tick":768,"time":0.9999999999999999,"type":"noteOn","velocity":27},{"channel":3,"nextOffset":35786,"note":74,"tick":802,"time":1.0442708333333335,"type":"noteOff","velocity":0},{"channel":3,"nextOffset":35790,"note":69,"tick":802,"time":1.0442708333333335,"type":"noteOff","velocity":0},{"channel":3,"nextOffset":35794,"note":65,"tick":802,"time":1.0442708333333335,"type":"noteOff","velocity":0},{"channel":3,"nextOffset":35798,"note":62,"tick":802,"time":1.0442708333333335,"type":"noteOff","velocity":0},{"channel":3,"nextOffset":35802,"note":44,"tick":802,"time":1.0442708333333335,"type":"noteOff","velocity":0},{"channel":3,"nextOffset":35806,"note":61,"tick":802,"time":1.0442708333333335,"type":"noteOn","velocity":18},{"channel":3,"nextOffset":35810,"note":64,"tick":802,"time":1.0442708333333335,"type":"noteOn","velocity":18},{"channel":3,"nextOffset":35814,"note":69,"tick":802,"time":1.0442708333333335,"type":"noteOn","velocity":18},{"channel":3,"nextOffset":35818,"note":45,"tick":802,"time":1.0442708333333335,"type":"noteOn","velocity":18},{"channel":3,"nextOffset":35822,"note":73,"tick":802,"time":1.0442708333333335,"type":"noteOn","velocity":18},{"channel":4,"nextOffset":36752,"note":45,"tick":960,"time":1.25,"type":"noteOff","velocity":0},{"channel":4,"nextOffset":36756,"note":69,"tick":960,"time":1.25,"type":"noteOff","velocity":0},{"channel":4,"nextOffset":36760,"note":64,"tick":960,"time":1.25,"type":"noteOff","velocity":0},{"channel":4,"nextOffset":36764,"note":61,"tick":960,"time":1.25,"type":"noteOff","velocity":0},{"channel":3,"nextOffset":35827,"note":73,"tick":994,"time":1.2942708333333335,"type":"noteOff","velocity":0},{"channel":3,"nextOffset":35831,"note":45,"tick":994,"time":1.2942708333333335,"type":"noteOff","velocity":0},{"channel":3,"nextOffset":35835,"note":69,"tick":994,"time":1.2942708333333335,"type":"noteOff","velocity":0},{"channel":3,"nextOffset":35839,"note":64,"tick":994,"time":1.2942708333333335,"type":"noteOff","velocity":0},{"channel":3,"nextOffset":35843,"note":61,"tick":994,"time":1.2942708333333335,"type":"noteOff","velocity":0},{"channel":4,"nextOffset":36768,"note":61,"tick":1056,"time":1.375,"type":"noteOn","velocity":27},{"channel":4,"nextOffset":36772,"note":64,"tick":1056,"time":1.375,"type":"noteOn","velocity":27},{"channel":4,"nextOffset":36776,"note":69,"tick":1056,"time":1.375,"type":"noteOn","velocity":27},{"channel":4,"nextOffset":36780,"note":67,"tick":1056,"time":1.375,"type":"noteOn","velocity":27},{"channel":4,"nextOffset":36784,"note":70,"tick":1056,"time":1.375,"type":"noteOn","velocity":27},{"channel":4,"nextOffset":36788,"note":40,"tick":1056,"time":1.375,"type":"noteOn","velocity":27},{"channel":4,"nextOffset":36792,"note":73,"tick":1056,"time":1.375,"type":"noteOn","velocity":27},{"channel":3,"nextOffset":35847,"note":61,"tick":1090,"time":1.4192708333333335,"type":"noteOn","velocity":18},{"channel":3,"nextOffset":35851,"note":64,"tick":1090,"time":1.4192708333333335,"type":"noteOn","velocity":18},{"channel":3,"nextOffset":35855,"note":69,"tick":1090,"time":1.4192708333333335,"type":"noteOn","velocity":18},{"channel":3,"nextOffset":35859,"note":67,"tick":1090,"time":1.4192708333333335,"type":"noteOn","velocity":18},{"channel":3,"nextOffset":35863,"note":45,"tick":1090,"time":1.4192708333333335,"type":"noteOn","velocity":18},{"channel":3,"nextOffset":35867,"note":70,"tick":1090,"time":1.4192708333333335,"type":"noteOn","velocity":18},{"channel":4,"nextOffset":36796,"note":40,"tick":1152,"time":1.5,"type":"noteOff","velocity":0},{"channel":3,"nextOffset":35871,"note":45,"tick":1186,"time":1.5442708333333335,"type":"noteOff","velocity":0},{"channel":4,"nextOffset":36800,"note":73,"tick":1248,"time":1.625,"type":"noteOff","velocity":0},{"channel":4,"nextOffset":36804,"note":70,"tick":1248,"time":1.625,"type":"noteOff","velocity":0},{"channel":4,"nextOffset":36808,"note":67,"tick":1248,"time":1.625,"type":"noteOff","velocity":0},{"channel":4,"nextOffset":36812,"note":69,"tick":1248,"time":1.625,"type":"noteOff","velocity":0},{"channel":4,"nextOffset":36816,"note":64,"tick":1248,"time":1.625,"type":"noteOff","velocity":0},{"channel":4,"nextOffset":36820,"note":61,"tick":1248,"time":1.625,"type":"noteOff","velocity":0},{"channel":3,"nextOffset":35875,"note":70,"tick":1282,"time":1.6692708333333335,"type":"noteOff","velocity":0},{"channel":3,"nextOffset":35879,"note":67,"tick":1282,"time":1.6692708333333335,"type":"noteOff","velocity":0},{"channel":3,"nextOffset":35883,"note":69,"tick":1282,"time":1.6692708333333335,"type":"noteOff","velocity":0},{"channel":3,"nextOffset":35887,"note":64,"tick":1282,"time":1.6692708333333335,"type":"noteOff","velocity":0},{"channel":3,"nextOffset":35891,"note":61,"tick":1282,"time":1.6692708333333335,"type":"noteOff","velocity":0},{"channel":4,"nextOffset":36824,"note":62,"tick":1344,"time":1.75,"type":"noteOn","velocity":27},{"channel":4,"nextOffset":36828,"note":65,"tick":1344,"time":1.75,"type":"noteOn","velocity":27},{"channel":4,"nextOffset":36832,"note":69,"tick":1344,"time":1.75,"type":"noteOn","velocity":27},{"channel":4,"nextOffset":36836,"note":38,"tick":1344,"time":1.75,"type":"noteOn","velocity":27},{"channel":4,"nextOffset":36840,"note":74,"tick":1344,"time":1.75,"type":"noteOn","velocity":27},{"channel":4,"nextOffset":36844,"note":72,"tick":1344,"time":1.75,"type":"noteOn","velocity":27},{"channel":3,"nextOffset":35895,"note":62,"tick":1378,"time":1.7942708333333335,"type":"noteOn","velocity":18},{"channel":3,"nextOffset":35899,"note":65,"tick":1378,"time":1.7942708333333335,"type":"noteOn","velocity":18},{"channel":3,"nextOffset":35903,"note":69,"tick":1378,"time":1.7942708333333335,"type":"noteOn","velocity":18},{"channel":3,"nextOffset":35907,"note":38,"tick":1378,"time":1.7942708333333335,"type":"noteOn","velocity":18},{"channel":4,"nextOffset":36849,"note":76,"tick":1536,"time":2,"type":"noteOn","velocity":27},{"channel":3,"nextOffset":35912,"note":69,"tick":1570,"time":2.0442708333333335,"type":"noteOff","velocity":0},{"channel":3,"nextOffset":35916,"note":65,"tick":1570,"time":2.0442708333333335,"type":"noteOff","velocity":0},{"channel":3,"nextOffset":35920,"note":62,"tick":1570,"time":2.0442708333333335,"type":"noteOff","velocity":0},{"channel":4,"nextOffset":36853,"note":76,"tick":1632,"time":2.125,"type":"noteOff","velocity":0},{"channel":4,"nextOffset":36857,"note":77,"tick":1632,"time":2.125,"type":"noteOn","velocity":27},{"channel":4,"nextOffset":36861,"note":77,"tick":1728,"time":2.25,"type":"noteOff","velocity":0},{"channel":4,"nextOffset":36865,"note":76,"tick":1728,"time":2.25,"type":"noteOn","velocity":27},{"channel":3,"nextOffset":35925,"note":65,"tick":1762,"time":2.2942708333333335,"type":"noteOn","velocity":18},{"channel":3,"nextOffset":35929,"note":70,"tick":1762,"time":2.2942708333333335,"type":"noteOn","velocity":18},{"channel":3,"nextOffset":35933,"note":60,"tick":1762,"time":2.2942708333333335,"type":"noteOn","velocity":18},{"channel":3,"nextOffset":35937,"note":72,"tick":1762,"time":2.2942708333333335,"type":"noteOn","velocity":18},{"channel":4,"nextOffset":36869,"note":72,"tick":1824,"time":2.375,"type":"noteOff","velocity":0},{"channel":4,"nextOffset":36873,"note":76,"tick":1824,"time":2.375,"type":"noteOff","velocity":0},{"channel":4,"nextOffset":36877,"note":72,"tick":1824,"time":2.375,"type":"noteOn","velocity":27},{"channel":4,"nextOffset":36881,"note":72,"tick":1920,"time":2.5,"type":"noteOff","velocity":0},{"channel":4,"nextOffset":36885,"note":76,"tick":1920,"time":2.5,"type":"noteOn","velocity":27},{"channel":3,"nextOffset":35942,"note":72,"tick":1954,"time":2.5442708333333335,"type":"noteOff","velocity":0},{"channel":3,"nextOffset":35946,"note":60,"tick":1954,"time":2.5442708333333335,"type":"noteOff","velocity":0},{"channel":3,"nextOffset":35950,"note":70,"tick":1954,"time":2.5442708333333335,"type":"noteOff","velocity":0},{"channel":3,"nextOffset":35954,"note":65,"tick":1954,"time":2.5442708333333335,"type":"noteOff","velocity":0},{"channel":4,"nextOffset":36889,"note":76,"tick":2016,"time":2.625,"type":"noteOff","velocity":0},{"channel":4,"nextOffset":36893,"note":72,"tick":2016,"time":2.625,"type":"noteOn","velocity":27},{"channel":3,"nextOffset":35958,"note":65,"tick":2050,"time":2.6692708333333335,"type":"noteOn","velocity":18},{"channel":3,"nextOffset":35962,"note":70,"tick":2050,"time":2.6692708333333335,"type":"noteOn","velocity":18},{"channel":3,"nextOffset":35966,"note":60,"tick":2050,"time":2.6692708333333335,"type":"noteOn","velocity":18},{"channel":3,"nextOffset":35970,"note":72,"tick":2050,"time":2.6692708333333335,"type":"noteOn","velocity":18},{"channel":4,"nextOffset":36897,"note":38,"tick":2112,"time":2.75,"type":"noteOff","velocity":0},{"channel":4,"nextOffset":36901,"note":69,"tick":2112,"time":2.75,"type":"noteOff","velocity":0},{"channel":4,"nextOffset":36905,"note":72,"tick":2112,"time":2.75,"type":"noteOff","velocity":0},{"channel":4,"nextOffset":36909,"note":45,"tick":2112,"time":2.75,"type":"noteOn","velocity":27},{"channel":4,"nextOffset":36913,"note":69,"tick":2112,"time":2.75,"type":"noteOn","velocity":27},{"channel":3,"nextOffset":35974,"note":38,"tick":2146,"time":2.7942708333333335,"type":"noteOff","velocity":0},{"channel":3,"nextOffset":35978,"note":45,"tick":2146,"time":2.7942708333333335,"type":"noteOn","velocity":18},{"channel":4,"nextOffset":36917,"note":69,"tick":2208,"time":2.875,"type":"noteOff","velocity":0},{"channel":4,"nextOffset":36921,"note":67,"tick":2208,"time":2.875,"type":"noteOn","velocity":27},{"channel":3,"nextOffset":35982,"note":72,"tick":2242,"time":2.9192708333333335,"type":"noteOff","velocity":0},{"channel":3,"nextOffset":35986,"note":60,"tick":2242,"time":2.9192708333333335,"type":"noteOff","velocity":0},{"channel":3,"nextOffset":35990,"note":70,"tick":2242,"time":2.9192708333333335,"type":"noteOff","velocity":0},{"channel":3,"nextOffset":35994,"note":65,"tick":2242,"time":2.9192708333333335,"type":"noteOff","velocity":0},{"channel":4,"nextOffset":36925,"note":45,"tick":2304,"time":3,"type":"noteOff","velocity":0},{"channel":4,"nextOffset":36929,"note":67,"tick":2304,"time":3,"type":"noteOff","velocity":0},{"channel":4,"nextOffset":36933,"note":50,"tick":2304,"time":3,"type":"noteOn","velocity":27},{"channel":4,"nextOffset":36937,"note":69,"tick":2304,"time":3,"type":"noteOn","velocity":27},{"channel":3,"nextOffset":35998,"note":45,"tick":2338,"time":3.0442708333333335,"type":"noteOff","velocity":0},{"channel":3,"nextOffset":36002,"note":50,"tick":2338,"time":3.0442708333333335,"type":"noteOn","velocity":18},{"channel":3,"nextOffset":36006,"note":65,"tick":2338,"time":3.0442708333333335,"type":"noteOn","velocity":18},{"channel":3,"nextOffset":36010,"note":69,"tick":2338,"time":3.0442708333333335,"type":"noteOn","velocity":18},{"channel":3,"nextOffset":36014,"note":60,"tick":2338,"time":3.0442708333333335,"type":"noteOn","velocity":18},{"channel":3,"nextOffset":36018,"note":72,"tick":2338,"time":3.0442708333333335,"type":"noteOn","velocity":18},{"channel":4,"nextOffset":36941,"note":62,"tick":2400,"time":3.125,"type":"noteOff","velocity":0},{"channel":4,"nextOffset":36945,"note":69,"tick":2400,"time":3.125,"type":"noteOff","velocity":0},{"channel":4,"nextOffset":36949,"note":62,"tick":2400,"time":3.125,"type":"noteOn","velocity":27},{"channel":4,"nextOffset":36953,"note":50,"tick":2496,"time":3.25,"type":"noteOff","velocity":0},{"channel":4,"nextOffset":36957,"note":62,"tick":2496,"time":3.25,"type":"noteOff","velocity":0},{"channel":4,"nextOffset":36961,"note":60,"tick":2496,"time":3.25,"type":"noteOn","velocity":27},{"channel":4,"nextOffset":36965,"note":49,"tick":2496,"time":3.25,"type":"noteOn","velocity":27},{"channel":3,"nextOffset":36023,"note":72,"tick":2530,"time":3.2942708333333335,"type":"noteOff","velocity":0},{"channel":3,"nextOffset":36027,"note":60,"tick":2530,"time":3.2942708333333335,"type":"noteOff","velocity":0},{"channel":3,"nextOffset":36031,"note":69,"tick":2530,"time":3.2942708333333335,"type":"noteOff","velocity":0},{"channel":3,"nextOffset":36035,"note":65,"tick":2530,"time":3.2942708333333335,"type":"noteOff","velocity":0},{"channel":3,"nextOffset":36039,"note":50,"tick":2530,"time":3.2942708333333335,"type":"noteOff","velocity":0},{"channel":3,"nextOffset":36043,"note":38,"tick":2530,"time":3.2942708333333335,"type":"noteOn","velocity":18},{"channel":4,"nextOffset":36969,"note":65,"tick":2592,"time":3.3749999999999996,"type":"noteOff","velocity":0},{"channel":4,"nextOffset":36973,"note":60,"tick":2592,"time":3.3749999999999996,"type":"noteOff","velocity":0},{"channel":4,"nextOffset":36977,"note":65,"tick":2592,"time":3.3749999999999996,"type":"noteOn","velocity":27},{"channel":3,"nextOffset":36047,"note":62,"tick":2626,"time":3.4192708333333335,"type":"noteOn","velocity":18},{"channel":3,"nextOffset":36051,"note":65,"tick":2626,"time":3.4192708333333335,"type":"noteOn","velocity":18},{"channel":3,"nextOffset":36055,"note":69,"tick":2626,"time":3.4192708333333335,"type":"noteOn","velocity":18},{"channel":3,"nextOffset":36059,"note":70,"tick":2626,"time":3.4192708333333335,"type":"noteOn","velocity":18},{"channel":4,"nextOffset":36981,"note":49,"tick":2688,"time":3.4999999999999996,"type":"noteOff","velocity":0},{"channel":4,"nextOffset":36985,"note":65,"tick":2688,"time":3.4999999999999996,"type":"noteOff","velocity":0},{"channel":4,"nextOffset":36989,"note":64,"tick":2688,"time":3.4999999999999996,"type":"noteOn","velocity":27},{"channel":4,"nextOffset":36993,"note":69,"tick":2688,"time":3.4999999999999996,"type":"noteOn","velocity":27},{"channel":4,"nextOffset":36997,"note":60,"tick":2688,"time":3.4999999999999996,"type":"noteOn","velocity":27},{"channel":4,"nextOffset":37001,"note":72,"tick":2688,"time":3.4999999999999996,"type":"noteOn","velocity":27},{"channel":4,"nextOffset":37005,"note":45,"tick":2688,"time":3.4999999999999996,"type":"noteOn","velocity":27},{"channel":3,"nextOffset":36063,"note":38,"tick":2722,"time":3.5442708333333335,"type":"noteOff","velocity":0},{"channel":3,"nextOffset":36067,"note":45,"tick":2722,"time":3.5442708333333335,"type":"noteOn","velocity":18},{"channel":3,"nextOffset":36071,"note":70,"tick":2818,"time":3.6692708333333335,"type":"noteOff","velocity":0},{"channel":3,"nextOffset":36075,"note":69,"tick":2818,"time":3.6692708333333335,"type":"noteOff","velocity":0},{"channel":3,"nextOffset":36079,"note":65,"tick":2818,"time":3.6692708333333335,"type":"noteOff","velocity":0},{"channel":3,"nextOffset":36083,"note":62,"tick":2818,"time":3.6692708333333335,"type":"noteOff","velocity":0},{"channel":4,"nextOffset":37010,"note":45,"tick":2880,"time":3.7499999999999996,"type":"noteOff","velocity":0},{"channel":4,"nextOffset":37014,"note":72,"tick":2880,"time":3.7499999999999996,"type":"noteOff","velocity":0},{"channel":4,"nextOffset":37018,"note":60,"tick":2880,"time":3.7499999999999996,"type":"noteOff","velocity":0},{"channel":4,"nextOffset":37022,"note":69,"tick":2880,"time":3.7499999999999996,"type":"noteOff","velocity":0},{"channel":4,"nextOffset":37026,"note":64,"tick":2880,"time":3.7499999999999996,"type":"noteOff","velocity":0},{"channel":4,"nextOffset":37030,"note":44,"tick":2880,"time":3.7499999999999996,"type":"noteOn","velocity":27},{"channel":4,"nextOffset":37034,"note":69,"tick":2880,"time":3.7499999999999996,"type":"noteOn","velocity":27},{"channel":4,"nextOffset":37038,"note":65,"tick":2880,"time":3.7499999999999996,"type":"noteOn","velocity":27},{"channel":4,"nextOffset":37042,"note":60,"tick":2880,"time":3.7499999999999996,"type":"noteOn","velocity":27},{"channel":3,"nextOffset":36087,"note":45,"tick":2914,"time":3.7942708333333335,"type":"noteOff","velocity":0},{"channel":3,"nextOffset":36091,"note":44,"tick":2914,"time":3.7942708333333335,"type":"noteOn","velocity":18},{"channel":3,"nextOffset":36095,"note":62,"tick":2914,"time":3.7942708333333335,"type":"noteOn","velocity":18},{"channel":3,"nextOffset":36099,"note":65,"tick":2914,"time":3.7942708333333335,"type":"noteOn","velocity":18},{"channel":3,"nextOffset":36103,"note":69,"tick":2914,"time":3.7942708333333335,"type":"noteOn","velocity":18},{"channel":3,"nextOffset":36107,"note":70,"tick":2914,"time":3.7942708333333335,"type":"noteOn","velocity":18},{"channel":4,"nextOffset":37047,"note":74,"tick":3072,"time":3.9999999999999996,"type":"noteOff","velocity":0},{"channel":4,"nextOffset":37051,"note":60,"tick":3072,"time":3.9999999999999996,"type":"noteOff","velocity":0},{"channel":4,"nextOffset":37055,"note":65,"tick":3072,"time":3.9999999999999996,"type":"noteOff","velocity":0},{"channel":4,"nextOffset":37059,"note":69,"tick":3072,"time":3.9999999999999996,"type":"noteOff","velocity":0},{"channel":4,"nextOffset":37063,"note":44,"tick":3072,"time":3.9999999999999996,"type":"noteOff","velocity":0},{"channel":4,"nextOffset":37067,"note":43,"tick":3072,"time":3.9999999999999996,"type":"noteOn","velocity":27},{"channel":4,"nextOffset":37071,"note":62,"tick":3072,"time":3.9999999999999996,"type":"noteOn","velocity":27},{"channel":4,"nextOffset":37075,"note":65,"tick":3072,"time":3.9999999999999996,"type":"noteOn","velocity":27},{"channel":4,"nextOffset":37079,"note":69,"tick":3072,"time":3.9999999999999996,"type":"noteOn","velocity":27},{"channel":4,"nextOffset":37083,"note":70,"tick":3072,"time":3.9999999999999996,"type":"noteOn","velocity":27},{"channel":4,"nextOffset":37087,"note":74,"tick":3072,"time":3.9999999999999996,"type":"noteOn","velocity":27},{"channel":3,"nextOffset":36112,"note":70,"tick":3106,"time":4.044270833333333,"type":"noteOff","velocity":0},{"channel":3,"nextOffset":36116,"note":69,"tick":3106,"time":4.044270833333333,"type":"noteOff","velocity":0},{"channel":3,"nextOffset":36120,"note":65,"tick":3106,"time":4.044270833333333,"type":"noteOff","velocity":0},{"channel":3,"nextOffset":36124,"note":62,"tick":3106,"time":4.044270833333333,"type":"noteOff","velocity":0},{"channel":3,"nextOffset":36128,"note":44,"tick":3106,"time":4.044270833333333,"type":"noteOff","velocity":0},{"channel":3,"nextOffset":36132,"note":43,"tick":3106,"time":4.044270833333333,"type":"noteOn","velocity":18},{"channel":3,"nextOffset":36136,"note":62,"tick":3106,"time":4.044270833333333,"type":"noteOn","velocity":18},{"channel":3,"nextOffset":36140,"note":65,"tick":3106,"time":4.044270833333333,"type":"noteOn","velocity":18},{"channel":3,"nextOffset":36144,"note":69,"tick":3106,"time":4.044270833333333,"type":"noteOn","velocity":18},{"channel":3,"nextOffset":36148,"note":70,"tick":3106,"time":4.044270833333333,"type":"noteOn","velocity":18},{"channel":3,"nextOffset":36152,"note":74,"tick":3106,"time":4.044270833333333,"type":"noteOn","velocity":18},{"channel":3,"nextOffset":36157,"note":43,"tick":3298,"time":4.294270833333333,"type":"noteOff","velocity":0},{"channel":3,"nextOffset":36161,"note":50,"tick":3298,"time":4.294270833333333,"type":"noteOn","velocity":18},{"channel":4,"nextOffset":37092,"note":74,"tick":3456,"time":4.499999999999999,"type":"noteOff","velocity":0},{"channel":4,"nextOffset":37096,"note":70,"tick":3456,"time":4.499999999999999,"type":"noteOff","velocity":0},{"channel":4,"nextOffset":37100,"note":69,"tick":3456,"time":4.499999999999999,"type":"noteOff","velocity":0},{"channel":4,"nextOffset":37104,"note":65,"tick":3456,"time":4.499999999999999,"type":"noteOff","velocity":0},{"channel":4,"nextOffset":37108,"note":62,"tick":3456,"time":4.499999999999999,"type":"noteOff","velocity":0},{"channel":4,"nextOffset":37112,"note":43,"tick":3456,"time":4.499999999999999,"type":"noteOff","velocity":0},{"channel":4,"nextOffset":37116,"note":62,"tick":3456,"time":4.499999999999999,"type":"noteOn","velocity":27},{"channel":4,"nextOffset":37120,"note":65,"tick":3456,"time":4.499999999999999,"type":"noteOn","velocity":27},{"channel":4,"nextOffset":37124,"note":69,"tick":3456,"time":4.499999999999999,"type":"noteOn","velocity":27},{"channel":4,"nextOffset":37128,"note":70,"tick":3456,"time":4.499999999999999,"type":"noteOn","velocity":27},{"channel":4,"nextOffset":37132,"note":74,"tick":3456,"time":4.499999999999999,"type":"noteOn","velocity":27},{"channel":4,"nextOffset":37136,"note":43,"tick":3456,"time":4.499999999999999,"type":"noteOn","velocity":27},{"channel":3,"nextOffset":36166,"note":74,"tick":3490,"time":4.544270833333333,"type":"noteOff","velocity":0},{"channel":3,"nextOffset":36170,"note":70,"tick":3490,"time":4.544270833333333,"type":"noteOff","velocity":0},{"channel":3,"nextOffset":36174,"note":69,"tick":3490,"time":4.544270833333333,"type":"noteOff","velocity":0},{"channel":3,"nextOffset":36178,"note":65,"tick":3490,"time":4.544270833333333,"type":"noteOff","velocity":0},{"channel":3,"nextOffset":36182,"note":62,"tick":3490,"time":4.544270833333333,"type":"noteOff","velocity":0},{"channel":3,"nextOffset":36186,"note":50,"tick":3490,"time":4.544270833333333,"type":"noteOff","velocity":0},{"channel":3,"nextOffset":36190,"note":43,"tick":3490,"time":4.544270833333333,"type":"noteOn","velocity":18},{"channel":3,"nextOffset":36194,"note":62,"tick":3490,"time":4.544270833333333,"type":"noteOn","velocity":18},{"channel":3,"nextOffset":36198,"note":65,"tick":3490,"time":4.544270833333333,"type":"noteOn","velocity":18},{"channel":3,"nextOffset":36202,"note":69,"tick":3490,"time":4.544270833333333,"type":"noteOn","velocity":18},{"channel":3,"nextOffset":36206,"note":70,"tick":3490,"time":4.544270833333333,"type":"noteOn","velocity":18},{"channel":3,"nextOffset":36210,"note":74,"tick":3490,"time":4.544270833333333,"type":"noteOn","velocity":18},{"channel":4,"nextOffset":37141,"note":43,"tick":3648,"time":4.749999999999999,"type":"noteOff","velocity":0},{"channel":4,"nextOffset":37145,"note":65,"tick":3648,"time":4.749999999999999,"type":"noteOn","velocity":27},{"channel":4,"nextOffset":37149,"note":44,"tick":3648,"time":4.749999999999999,"type":"noteOn","velocity":27},{"channel":3,"nextOffset":36215,"note":43,"tick":3682,"time":4.794270833333333,"type":"noteOff","velocity":0},{"channel":3,"nextOffset":36219,"note":44,"tick":3682,"time":4.794270833333333,"type":"noteOn","velocity":18},{"channel":4,"nextOffset":37153,"note":65,"tick":3744,"time":4.874999999999999,"type":"noteOff","velocity":0},{"channel":4,"nextOffset":37157,"note":69,"tick":3744,"time":4.874999999999999,"type":"noteOn","velocity":27},{"channel":4,"nextOffset":37161,"note":74,"tick":3840,"time":4.999999999999999,"type":"noteOff","velocity":0},{"channel":4,"nextOffset":37165,"note":70,"tick":3840,"time":4.999999999999999,"type":"noteOff","velocity":0},{"channel":4,"nextOffset":37169,"note":69,"tick":3840,"time":4.999999999999999,"type":"noteOff","velocity":0},{"channel":4,"nextOffset":37173,"note":65,"tick":3840,"time":4.999999999999999,"type":"noteOff","velocity":0},{"channel":4,"nextOffset":37177,"note":62,"tick":3840,"time":4.999999999999999,"type":"noteOff","velocity":0},{"channel":4,"nextOffset":37181,"note":44,"tick":3840,"time":4.999999999999999,"type":"noteOff","velocity":0},{"channel":4,"nextOffset":37185,"note":69,"tick":3840,"time":4.999999999999999,"type":"noteOff","velocity":0},{"channel":4,"nextOffset":37189,"note":45,"tick":3840,"time":4.999999999999999,"type":"noteOn","velocity":27},{"channel":4,"nextOffset":37193,"note":61,"tick":3840,"time":4.999999999999999,"type":"noteOn","velocity":27},{"channel":4,"nextOffset":37197,"note":64,"tick":3840,"time":4.999999999999999,"type":"noteOn","velocity":27},{"channel":4,"nextOffset":37201,"note":69,"tick":3840,"time":4.999999999999999,"type":"noteOn","velocity":27},{"channel":4,"nextOffset":37205,"note":73,"tick":3840,"time":4.999999999999999,"type":"noteOn","velocity":27},{"channel":3,"nextOffset":36224,"note":74,"tick":3874,"time":5.044270833333333,"type":"noteOff","velocity":0},{"channel":3,"nextOffset":36228,"note":70,"tick":3874,"time":5.044270833333333,"type":"noteOff","velocity":0},{"channel":3,"nextOffset":36232,"note":69,"tick":3874,"time":5.044270833333333,"type":"noteOff","velocity":0},{"channel":3,"nextOffset":36236,"note":65,"tick":3874,"time":5.044270833333333,"type":"noteOff","velocity":0},{"channel":3,"nextOffset":36240,"note":62,"tick":3874,"time":5.044270833333333,"type":"noteOff","velocity":0},{"channel":3,"nextOffset":36244,"note":44,"tick":3874,"time":5.044270833333333,"type":"noteOff","velocity":0},{"channel":3,"nextOffset":36248,"note":45,"tick":3874,"time":5.044270833333333,"type":"noteOn","velocity":18},{"channel":3,"nextOffset":36252,"note":61,"tick":3874,"time":5.044270833333333,"type":"noteOn","velocity":18},{"channel":3,"nextOffset":36256,"note":64,"tick":3874,"time":5.044270833333333,"type":"noteOn","velocity":18},{"channel":3,"nextOffset":36260,"note":69,"tick":3874,"time":5.044270833333333,"type":"noteOn","velocity":18},{"channel":3,"nextOffset":36264,"note":73,"tick":3874,"time":5.044270833333333,"type":"noteOn","velocity":18},{"channel":4,"nextOffset":37210,"note":73,"tick":4032,"time":5.249999999999999,"type":"noteOff","velocity":0},{"channel":4,"nextOffset":37214,"note":69,"tick":4032,"time":5.249999999999999,"type":"noteOff","velocity":0},{"channel":4,"nextOffset":37218,"note":64,"tick":4032,"time":5.249999999999999,"type":"noteOff","velocity":0},{"channel":4,"nextOffset":37222,"note":61,"tick":4032,"time":5.249999999999999,"type":"noteOff","velocity":0},{"channel":4,"nextOffset":37226,"note":45,"tick":4032,"time":5.249999999999999,"type":"noteOff","velocity":0},{"channel":3,"nextOffset":36269,"note":73,"tick":4066,"time":5.294270833333333,"type":"noteOff","velocity":0},{"channel":3,"nextOffset":36273,"note":69,"tick":4066,"time":5.294270833333333,"type":"noteOff","velocity":0},{"channel":3,"nextOffset":36277,"note":64,"tick":4066,"time":5.294270833333333,"type":"noteOff","velocity":0},{"channel":3,"nextOffset":36281,"note":61,"tick":4066,"time":5.294270833333333,"type":"noteOff","velocity":0},{"channel":3,"nextOffset":36285,"note":45,"tick":4066,"time":5.294270833333333,"type":"noteOff","velocity":0},{"channel":4,"nextOffset":37230,"note":40,"tick":4128,"time":5.374999999999999,"type":"noteOn","velocity":27},{"channel":4,"nextOffset":37234,"note":61,"tick":4128,"time":5.374999999999999,"type":"noteOn","velocity":27},{"channel":4,"nextOffset":37238,"note":64,"tick":4128,"time":5.374999999999999,"type":"noteOn","velocity":27},{"channel":4,"nextOffset":37242,"note":69,"tick":4128,"time":5.374999999999999,"type":"noteOn","velocity":27},{"channel":4,"nextOffset":37246,"note":67,"tick":4128,"time":5.374999999999999,"type":"noteOn","velocity":27},{"channel":4,"nextOffset":37250,"note":70,"tick":4128,"time":5.374999999999999,"type":"noteOn","velocity":27},{"channel":4,"nextOffset":37254,"note":73,"tick":4128,"time":5.374999999999999,"type":"noteOn","velocity":27},{"channel":3,"nextOffset":36289,"note":45,"tick":4162,"time":5.419270833333333,"type":"noteOn","velocity":18},{"channel":3,"nextOffset":36293,"note":61,"tick":4162,"time":5.419270833333333,"type":"noteOn","velocity":18},{"channel":3,"nextOffset":36297,"note":64,"tick":4162,"time":5.419270833333333,"type":"noteOn","velocity":18},{"channel":3,"nextOffset":36301,"note":69,"tick":4162,"time":5.419270833333333,"type":"noteOn","velocity":18},{"channel":3,"nextOffset":36305,"note":67,"tick":4162,"time":5.419270833333333,"type":"noteOn","velocity":18},{"channel":3,"nextOffset":36309,"note":70,"tick":4162,"time":5.419270833333333,"type":"noteOn","velocity":18},{"channel":3,"nextOffset":36313,"note":73,"tick":4162,"time":5.419270833333333,"type":"noteOn","velocity":18},{"channel":4,"nextOffset":37258,"note":40,"tick":4224,"time":5.499999999999999,"type":"noteOff","velocity":0},{"channel":3,"nextOffset":36317,"note":45,"tick":4258,"time":5.544270833333333,"type":"noteOff","velocity":0},{"channel":4,"nextOffset":37262,"note":73,"tick":4320,"time":5.624999999999999,"type":"noteOff","velocity":0},{"channel":4,"nextOffset":37266,"note":70,"tick":4320,"time":5.624999999999999,"type":"noteOff","velocity":0},{"channel":4,"nextOffset":37270,"note":67,"tick":4320,"time":5.624999999999999,"type":"noteOff","velocity":0},{"channel":4,"nextOffset":37274,"note":69,"tick":4320,"time":5.624999999999999,"type":"noteOff","velocity":0},{"channel":4,"nextOffset":37278,"note":64,"tick":4320,"time":5.624999999999999,"type":"noteOff","velocity":0},{"channel":4,"nextOffset":37282,"note":61,"tick":4320,"time":5.624999999999999,"type":"noteOff","velocity":0},{"channel":3,"nextOffset":36321,"note":73,"tick":4354,"time":5.669270833333333,"type":"noteOff","velocity":0},{"channel":3,"nextOffset":36325,"note":70,"tick":4354,"time":5.669270833333333,"type":"noteOff","velocity":0},{"channel":3,"nextOffset":36329,"note":67,"tick":4354,"time":5.669270833333333,"type":"noteOff","velocity":0},{"channel":3,"nextOffset":36333,"note":69,"tick":4354,"time":5.669270833333333,"type":"noteOff","velocity":0},{"channel":3,"nextOffset":36337,"note":64,"tick":4354,"time":5.669270833333333,"type":"noteOff","velocity":0},{"channel":3,"nextOffset":36341,"note":61,"tick":4354,"time":5.669270833333333,"type":"noteOff","velocity":0},{"channel":4,"nextOffset":37286,"note":38,"tick":4416,"time":5.749999999999999,"type":"noteOn","velocity":27},{"channel":4,"nextOffset":37290,"note":62,"tick":4416,"time":5.749999999999999,"type":"noteOn","velocity":27},{"channel":4,"nextOffset":37294,"note":65,"tick":4416,"time":5.749999999999999,"type":"noteOn","velocity":27},{"channel":4,"nextOffset":37298,"note":69,"tick":4416,"time":5.749999999999999,"type":"noteOn","velocity":27},{"channel":4,"nextOffset":37302,"note":74,"tick":4416,"time":5.749999999999999,"type":"noteOn","velocity":27},{"channel":3,"nextOffset":36345,"note":38,"tick":4450,"time":5.794270833333333,"type":"noteOn","velocity":18},{"channel":3,"nextOffset":36349,"note":62,"tick":4450,"time":5.794270833333333,"type":"noteOn","velocity":18},{"channel":3,"nextOffset":36353,"note":65,"tick":4450,"time":5.794270833333333,"type":"noteOn","velocity":18},{"channel":3,"nextOffset":36357,"note":69,"tick":4450,"time":5.794270833333333,"type":"noteOn","velocity":18},{"channel":3,"nextOffset":36361,"note":74,"tick":4450,"time":5.794270833333333,"type":"noteOn","velocity":18},{"channel":4,"nextOffset":37307,"note":74,"tick":4608,"time":5.999999999999999,"type":"noteOff","velocity":0},{"channel":4,"nextOffset":37311,"note":69,"tick":4608,"time":5.999999999999999,"type":"noteOff","velocity":0},{"channel":4,"nextOffset":37315,"note":65,"tick":4608,"time":5.999999999999999,"type":"noteOff","velocity":0},{"channel":4,"nextOffset":37319,"note":62,"tick":4608,"time":5.999999999999999,"type":"noteOff","velocity":0},{"channel":4,"nextOffset":37323,"note":76,"tick":4608,"time":5.999999999999999,"type":"noteOn","velocity":27},{"channel":3,"nextOffset":36366,"note":74,"tick":4642,"time":6.044270833333333,"type":"noteOff","velocity":0},{"channel":3,"nextOffset":36370,"note":69,"tick":4642,"time":6.044270833333333,"type":"noteOff","velocity":0},{"channel":3,"nextOffset":36374,"note":65,"tick":4642,"time":6.044270833333333,"type":"noteOff","velocity":0},{"channel":3,"nextOffset":36378,"note":62,"tick":4642,"time":6.044270833333333,"type":"noteOff","velocity":0},{"channel":4,"nextOffset":37327,"note":76,"tick":4704,"time":6.124999999999999,"type":"noteOff","velocity":0},{"channel":4,"nextOffset":37331,"note":77,"tick":4704,"time":6.124999999999999,"type":"noteOn","velocity":27},{"channel":4,"nextOffset":37335,"note":77,"tick":4800,"time":6.249999999999999,"type":"noteOff","velocity":0},{"channel":4,"nextOffset":37339,"note":79,"tick":4800,"time":6.249999999999999,"type":"noteOn","velocity":27},{"channel":3,"nextOffset":36383,"note":65,"tick":4834,"time":6.294270833333333,"type":"noteOn","velocity":18},{"channel":3,"nextOffset":36387,"note":70,"tick":4834,"time":6.294270833333333,"type":"noteOn","velocity":18},{"channel":3,"nextOffset":36391,"note":60,"tick":4834,"time":6.294270833333333,"type":"noteOn","velocity":18},{"channel":3,"nextOffset":36395,"note":72,"tick":4834,"time":6.294270833333333,"type":"noteOn","velocity":18},{"channel":4,"nextOffset":37343,"note":79,"tick":4896,"time":6.374999999999999,"type":"noteOff","velocity":0},{"channel":4,"nextOffset":37347,"note":77,"tick":4896,"time":6.374999999999999,"type":"noteOn","velocity":27},{"channel":4,"nextOffset":37351,"note":77,"tick":4992,"time":6.499999999999999,"type":"noteOff","velocity":0},{"channel":4,"nextOffset":37355,"note":76,"tick":4992,"time":6.499999999999999,"type":"noteOn","velocity":27},{"channel":3,"nextOffset":36400,"note":72,"tick":5026,"time":6.544270833333333,"type":"noteOff","velocity":0},{"channel":3,"nextOffset":36404,"note":60,"tick":5026,"time":6.544270833333333,"type":"noteOff","velocity":0},{"channel":3,"nextOffset":36408,"note":70,"tick":5026,"time":6.544270833333333,"type":"noteOff","velocity":0},{"channel":3,"nextOffset":36412,"note":65,"tick":5026,"time":6.544270833333333,"type":"noteOff","velocity":0},{"channel":4,"nextOffset":37359,"note":76,"tick":5088,"time":6.624999999999999,"type":"noteOff","velocity":0},{"channel":4,"nextOffset":37363,"note":72,"tick":5088,"time":6.624999999999999,"type":"noteOn","velocity":27},{"channel":3,"nextOffset":36416,"note":65,"tick":5122,"time":6.669270833333333,"type":"noteOn","velocity":18},{"channel":3,"nextOffset":36420,"note":70,"tick":5122,"time":6.669270833333333,"type":"noteOn","velocity":18},{"channel":3,"nextOffset":36424,"note":60,"tick":5122,"time":6.669270833333333,"type":"noteOn","velocity":18},{"channel":3,"nextOffset":36428,"note":72,"tick":5122,"time":6.669270833333333,"type":"noteOn","velocity":18},{"channel":4,"nextOffset":37367,"note":38,"tick":5184,"time":6.749999999999999,"type":"noteOff","velocity":0},{"channel":4,"nextOffset":37371,"note":72,"tick":5184,"time":6.749999999999999,"type":"noteOff","velocity":0},{"channel":4,"nextOffset":37375,"note":45,"tick":5184,"time":6.749999999999999,"type":"noteOn","velocity":27},{"channel":4,"nextOffset":37379,"note":69,"tick":5184,"time":6.749999999999999,"type":"noteOn","velocity":27},{"channel":3,"nextOffset":36432,"note":38,"tick":5218,"time":6.794270833333333,"type":"noteOff","velocity":0},{"channel":3,"nextOffset":36436,"note":45,"tick":5218,"time":6.794270833333333,"type":"noteOn","velocity":18},{"channel":4,"nextOffset":37383,"note":69,"tick":5280,"time":6.874999999999999,"type":"noteOff","velocity":0},{"channel":4,"nextOffset":37387,"note":67,"tick":5280,"time":6.874999999999999,"type":"noteOn","velocity":27},{"channel":3,"nextOffset":36440,"note":72,"tick":5314,"time":6.919270833333333,"type":"noteOff","velocity":0},{"channel":3,"nextOffset":36444,"note":60,"tick":5314,"time":6.919270833333333,"type":"noteOff","velocity":0},{"channel":3,"nextOffset":36448,"note":70,"tick":5314,"time":6.919270833333333,"type":"noteOff","velocity":0},{"channel":3,"nextOffset":36452,"note":65,"tick":5314,"time":6.919270833333333,"type":"noteOff","velocity":0},{"channel":4,"nextOffset":37391,"note":45,"tick":5376,"time":6.999999999999999,"type":"noteOff","velocity":0},{"channel":4,"nextOffset":37395,"note":67,"tick":5376,"time":6.999999999999999,"type":"noteOff","velocity":0},{"channel":4,"nextOffset":37399,"note":50,"tick":5376,"time":6.999999999999999,"type":"noteOn","velocity":27},{"channel":4,"nextOffset":37403,"note":65,"tick":5376,"time":6.999999999999999,"type":"noteOn","velocity":27},{"channel":4,"nextOffset":37407,"note":70,"tick":5376,"time":6.999999999999999,"type":"noteOn","velocity":27},{"channel":4,"nextOffset":37411,"note":60,"tick":5376,"time":6.999999999999999,"type":"noteOn","velocity":27},{"channel":4,"nextOffset":37415,"note":72,"tick":5376,"time":6.999999999999999,"type":"noteOn","velocity":27},{"channel":4,"nextOffset":37419,"note":69,"tick":5376,"time":6.999999999999999,"type":"noteOn","velocity":27},{"channel":3,"nextOffset":36456,"note":45,"tick":5410,"time":7.044270833333333,"type":"noteOff","velocity":0},{"channel":3,"nextOffset":36460,"note":50,"tick":5410,"time":7.044270833333333,"type":"noteOn","velocity":18},{"channel":3,"nextOffset":36464,"note":65,"tick":5410,"time":7.044270833333333,"type":"noteOn","velocity":18},{"channel":3,"nextOffset":36468,"note":69,"tick":5410,"time":7.044270833333333,"type":"noteOn","velocity":18},{"channel":3,"nextOffset":36472,"note":60,"tick":5410,"time":7.044270833333333,"type":"noteOn","velocity":18},{"channel":3,"nextOffset":36476,"note":72,"tick":5410,"time":7.044270833333333,"type":"noteOn","velocity":18},{"channel":4,"nextOffset":37423,"note":69,"tick":5472,"time":7.124999999999999,"type":"noteOff","velocity":0},{"channel":4,"nextOffset":37427,"note":62,"tick":5472,"time":7.124999999999999,"type":"noteOn","velocity":27},{"channel":4,"nextOffset":37431,"note":50,"tick":5568,"time":7.249999999999999,"type":"noteOff","velocity":0},{"channel":4,"nextOffset":37435,"note":62,"tick":5568,"time":7.249999999999999,"type":"noteOff","velocity":0},{"channel":4,"nextOffset":37439,"note":38,"tick":5568,"time":7.249999999999999,"type":"noteOn","velocity":27},{"channel":4,"nextOffset":37443,"note":60,"tick":5568,"time":7.249999999999999,"type":"noteOn","velocity":27},{"channel":3,"nextOffset":36481,"note":72,"tick":5602,"time":7.294270833333333,"type":"noteOff","velocity":0},{"channel":3,"nextOffset":36485,"note":60,"tick":5602,"time":7.294270833333333,"type":"noteOff","velocity":0},{"channel":3,"nextOffset":36489,"note":69,"tick":5602,"time":7.294270833333333,"type":"noteOff","velocity":0},{"channel":3,"nextOffset":36493,"note":65,"tick":5602,"time":7.294270833333333,"type":"noteOff","velocity":0},{"channel":3,"nextOffset":36497,"note":50,"tick":5602,"time":7.294270833333333,"type":"noteOff","velocity":0},{"channel":3,"nextOffset":36501,"note":38,"tick":5602,"time":7.294270833333333,"type":"noteOn","velocity":18},{"channel":4,"nextOffset":37447,"note":60,"tick":5664,"time":7.374999999999999,"type":"noteOff","velocity":0},{"channel":4,"nextOffset":37451,"note":62,"tick":5664,"time":7.374999999999999,"type":"noteOn","velocity":27},{"channel":3,"nextOffset":36505,"note":62,"tick":5698,"time":7.419270833333333,"type":"noteOn","velocity":18},{"channel":3,"nextOffset":36509,"note":65,"tick":5698,"time":7.419270833333333,"type":"noteOn","velocity":18},{"channel":3,"nextOffset":36513,"note":69,"tick":5698,"time":7.419270833333333,"type":"noteOn","velocity":18},{"channel":3,"nextOffset":36517,"note":70,"tick":5698,"time":7.419270833333333,"type":"noteOn","velocity":18},{"channel":4,"nextOffset":37455,"note":72,"tick":5760,"time":7.499999999999999,"type":"noteOff","velocity":0},{"channel":4,"nextOffset":37459,"note":60,"tick":5760,"time":7.499999999999999,"type":"noteOff","velocity":0},{"channel":4,"nextOffset":37463,"note":70,"tick":5760,"time":7.499999999999999,"type":"noteOff","velocity":0},{"channel":4,"nextOffset":37467,"note":65,"tick":5760,"time":7.499999999999999,"type":"noteOff","velocity":0},{"channel":4,"nextOffset":37471,"note":38,"tick":5760,"time":7.499999999999999,"type":"noteOff","velocity":0},{"channel":4,"nextOffset":37475,"note":62,"tick":5760,"time":7.499999999999999,"type":"noteOff","velocity":0},{"channel":4,"nextOffset":37479,"note":45,"tick":5760,"time":7.499999999999999,"type":"noteOn","velocity":27},{"channel":4,"nextOffset":37483,"note":69,"tick":5760,"time":7.499999999999999,"type":"noteOn","velocity":27},{"channel":4,"nextOffset":37487,"note":60,"tick":5760,"time":7.499999999999999,"type":"noteOn","velocity":27},{"channel":3,"nextOffset":36521,"note":38,"tick":5794,"time":7.544270833333333,"type":"noteOff","velocity":0},{"channel":3,"nextOffset":36525,"note":45,"tick":5794,"time":7.544270833333333,"type":"noteOn","velocity":18},{"channel":4,"nextOffset":37491,"note":60,"tick":5856,"time":7.624999999999999,"type":"noteOff","velocity":0},{"channel":4,"nextOffset":37495,"note":69,"tick":5856,"time":7.624999999999999,"type":"noteOff","velocity":0},{"channel":3,"nextOffset":36529,"note":70,"tick":5890,"time":7.669270833333333,"type":"noteOff","velocity":0},{"channel":3,"nextOffset":36533,"note":69,"tick":5890,"time":7.669270833333333,"type":"noteOff","velocity":0},{"channel":3,"nextOffset":36537,"note":65,"tick":5890,"time":7.669270833333333,"type":"noteOff","velocity":0},{"channel":3,"nextOffset":36541,"note":62,"tick":5890,"time":7.669270833333333,"type":"noteOff","velocity":0},{"channel":4,"nextOffset":37499,"note":45,"tick":5952,"time":7.749999999999999,"type":"noteOff","velocity":0},{"channel":4,"nextOffset":37503,"note":48,"tick":5952,"time":7.749999999999999,"type":"noteOn","velocity":27},{"channel":4,"nextOffset":37507,"note":69,"tick":5952,"time":7.749999999999999,"type":"noteOn","velocity":27},{"channel":4,"nextOffset":37511,"note":60,"tick":5952,"time":7.749999999999999,"type":"noteOn","velocity":27},{"channel":4,"nextOffset":37515,"note":72,"tick":5952,"time":7.749999999999999,"type":"noteOn","velocity":27},{"channel":4,"nextOffset":37519,"note":64,"tick":5952,"time":7.749999999999999,"type":"noteOn","velocity":27},{"channel":3,"nextOffset":36545,"note":45,"tick":5986,"time":7.794270833333333,"type":"noteOff","velocity":0},{"channel":3,"nextOffset":36549,"note":48,"tick":5986,"time":7.794270833333333,"type":"noteOn","velocity":18},{"channel":3,"nextOffset":36553,"note":62,"tick":5986,"time":7.794270833333333,"type":"noteOn","velocity":18},{"channel":3,"nextOffset":36557,"note":65,"tick":5986,"time":7.794270833333333,"type":"noteOn","velocity":18},{"channel":3,"nextOffset":36561,"note":69,"tick":5986,"time":7.794270833333333,"type":"noteOn","velocity":18},{"channel":3,"nextOffset":36565,"note":70,"tick":5986,"time":7.794270833333333,"type":"noteOn","velocity":18},{"channel":9,"nextOffset":37581,"note":69,"tick":6037,"time":7.860677083333333,"type":"noteOn","velocity":64},{"channel":9,"nextOffset":37585,"note":44,"tick":6037,"time":7.860677083333333,"type":"noteOn","velocity":64},{"channel":9,"nextOffset":37589,"note":44,"tick":6061,"time":7.891927083333333,"type":"noteOff","velocity":0},{"channel":9,"nextOffset":37593,"note":69,"tick":6061,"time":7.891927083333333,"type":"noteOff","velocity":0},{"channel":4,"nextOffset":37524,"note":64,"tick":6144,"time":7.999999999999999,"type":"noteOff","velocity":0},{"channel":4,"nextOffset":37528,"note":72,"tick":6144,"time":7.999999999999999,"type":"noteOff","velocity":0},{"channel":4,"nextOffset":37532,"note":60,"tick":6144,"time":7.999999999999999,"type":"noteOff","velocity":0},{"channel":4,"nextOffset":37536,"note":69,"tick":6144,"time":7.999999999999999,"type":"noteOff","velocity":0},{"channel":4,"nextOffset":37540,"note":48,"tick":6144,"time":7.999999999999999,"type":"noteOff","velocity":0},{"channel":3,"nextOffset":36570,"note":70,"tick":6178,"time":8.044270833333334,"type":"noteOff","velocity":0},{"channel":3,"nextOffset":36574,"note":69,"tick":6178,"time":8.044270833333334,"type":"noteOff","velocity":0},{"channel":3,"nextOffset":36578,"note":65,"tick":6178,"time":8.044270833333334,"type":"noteOff","velocity":0},{"channel":3,"nextOffset":36582,"note":62,"tick":6178,"time":8.044270833333334,"type":"noteOff","velocity":0},{"channel":3,"nextOffset":36586,"note":48,"tick":6178,"time":8.044270833333334,"type":"noteOff","velocity":0},{"channel":2,"nextOffset":26800,"note":31,"tick":8309,"time":10.819010416666666,"type":"noteOff","velocity":0},{"channel":1,"nextOffset":15268,"note":31,"tick":8413,"time":10.954427083333334,"type":"noteOff","velocity":0},{"channel":2,"nextOffset":26805,"note":31,"tick":8501,"time":11.069010416666666,"type":"noteOn","velocity":57},{"channel":1,"nextOffset":15273,"note":31,"tick":8605,"time":11.204427083333334,"type":"noteOn","velocity":50},{"channel":2,"nextOffset":26810,"note":31,"tick":8693,"time":11.319010416666666,"type":"noteOff","velocity":0},{"channel":2,"nextOffset":26814,"note":32,"tick":8693,"time":11.319010416666666,"type":"noteOn","velocity":57},{"channel":1,"nextOffset":15278,"note":31,"tick":8797,"time":11.454427083333334,"type":"noteOff","velocity":0},{"channel":1,"nextOffset":15282,"note":32,"tick":8797,"time":11.454427083333334,"type":"noteOn","velocity":50},{"channel":3,"nextOffset":36591,"note":55,"tick":8866,"time":11.544270833333334,"type":"noteOn","velocity":18},{"channel":2,"nextOffset":26819,"note":32,"tick":8885,"time":11.569010416666666,"type":"noteOff","velocity":0},{"channel":2,"nextOffset":26823,"note":33,"tick":8885,"time":11.569010416666666,"type":"noteOn","velocity":57},{"channel":3,"nextOffset":36595,"note":55,"tick":8962,"time":11.669270833333334,"type":"noteOff","velocity":0},{"channel":1,"nextOffset":15287,"note":32,"tick":8989,"time":11.704427083333334,"type":"noteOff","velocity":0},{"channel":1,"nextOffset":15291,"note":33,"tick":8989,"time":11.704427083333334,"type":"noteOn","velocity":50},{"channel":2,"nextOffset":26828,"note":33,"tick":9077,"time":11.819010416666666,"type":"noteOff","velocity":0},{"channel":2,"nextOffset":37685,"note":160,"tick":9124,"time":11.880208333333334,"type":"noteOff","velocity":0},{"channel":2,"nextOffset":26832,"note":33,"tick":9173,"time":11.944010416666666,"type":"noteOn","velocity":57},{"channel":2,"nextOffset":39537,"note":197,"tick":9176,"time":11.947916666666666,"type":"noteOff","velocity":64},{"channel":1,"nextOffset":15296,"note":33,"tick":9181,"time":11.954427083333334,"type":"noteOff","velocity":0},{"channel":2,"nextOffset":26836,"note":33,"tick":9269,"time":12.069010416666666,"type":"noteOff","velocity":0},{"channel":1,"nextOffset":15300,"note":33,"tick":9277,"time":12.079427083333334,"type":"noteOn","velocity":50},{"channel":2,"nextOffset":39832,"note":197,"tick":9311,"time":12.123697916666666,"type":"noteOff","velocity":64},{"channel":1,"nextOffset":15304,"note":33,"tick":9373,"time":12.204427083333334,"type":"noteOff","velocity":0},{"channel":2,"nextOffset":26841,"note":26,"tick":9461,"time":12.319010416666666,"type":"noteOn","velocity":57},{"channel":3,"nextOffset":41706,"note":224,"tick":9487,"time":12.352864583333334,"type":"noteOff","velocity":0},{"channel":2,"nextOffset":40129,"note":160,"tick":9491,"time":12.358072916666666,"type":"noteOff","velocity":0},{"channel":3,"nextOffset":43098,"note":224,"tick":9525,"time":12.40234375,"type":"noteOff","velocity":0},{"channel":3,"nextOffset":43153,"note":225,"tick":9527,"time":12.404947916666666,"type":"noteOff","velocity":64},{"channel":3,"nextOffset":43208,"note":227,"tick":9528,"time":12.40625,"type":"noteOff","velocity":0},{"channel":3,"nextOffset":43263,"note":228,"tick":9529,"time":12.407552083333334,"type":"noteOff","velocity":64},{"channel":3,"nextOffset":43350,"note":233,"tick":9530,"time":12.408854166666666,"type":"noteOff","velocity":0},{"channel":1,"nextOffset":15309,"note":26,"tick":9565,"time":12.454427083333334,"type":"noteOn","velocity":50},{"channel":2,"nextOffset":26846,"note":26,"tick":9653,"time":12.569010416666666,"type":"noteOff","velocity":0},{"channel":1,"nextOffset":15314,"note":26,"tick":9757,"time":12.704427083333334,"type":"noteOff","velocity":0},{"channel":2,"nextOffset":26851,"note":38,"tick":9845,"time":12.819010416666666,"type":"noteOn","velocity":57},{"channel":1,"nextOffset":15319,"note":38,"tick":9949,"time":12.954427083333334,"type":"noteOn","velocity":50},{"channel":2,"nextOffset":41811,"note":162,"tick":10004,"time":13.026041666666666,"type":"noteOff","velocity":80},{"channel":2,"nextOffset":26856,"note":38,"tick":10037,"time":13.069010416666666,"type":"noteOff","velocity":0},{"channel":2,"nextOffset":26860,"note":26,"tick":10037,"time":13.069010416666666,"type":"noteOn","velocity":57},{"channel":1,"nextOffset":15324,"note":38,"tick":10141,"time":13.204427083333334,"type":"noteOff","velocity":0},{"channel":1,"nextOffset":15328,"note":26,"tick":10141,"time":13.204427083333334,"type":"noteOn","velocity":50},{"channel":2,"nextOffset":26865,"note":26,"tick":10229,"time":13.319010416666666,"type":"noteOff","velocity":0},{"channel":2,"nextOffset":26869,"note":33,"tick":10229,"time":13.319010416666666,"type":"noteOn","velocity":57},{"channel":1,"nextOffset":15333,"note":26,"tick":10333,"time":13.454427083333334,"type":"noteOff","velocity":0},{"channel":1,"nextOffset":15337,"note":33,"tick":10333,"time":13.454427083333334,"type":"noteOn","velocity":50},{"channel":2,"nextOffset":26874,"note":91,"tick":10397,"time":13.537760416666666,"type":"noteOn","velocity":57},{"channel":2,"nextOffset":26878,"note":33,"tick":10421,"time":13.569010416666666,"type":"noteOff","velocity":0},{"channel":2,"nextOffset":26882,"note":91,"tick":10421,"time":13.569010416666666,"type":"noteOff","velocity":0},{"channel":1,"nextOffset":15342,"note":33,"tick":10525,"time":13.704427083333334,"type":"noteOff","velocity":0},{"channel":2,"nextOffset":26887,"note":26,"tick":10613,"time":13.819010416666666,"type":"noteOn","velocity":57},{"channel":9,"nextOffset":19944,"note":35,"tick":10622,"time":13.830729166666666,"type":"noteOn","velocity":50},{"channel":9,"nextOffset":43446,"note":42,"tick":10688,"time":13.916666666666666,"type":"noteOn","velocity":50},{"channel":1,"nextOffset":15347,"note":26,"tick":10717,"time":13.954427083333334,"type":"noteOn","velocity":50},{"channel":9,"nextOffset":19948,"note":35,"tick":10718,"time":13.955729166666666,"type":"noteOff","velocity":0},{"channel":9,"nextOffset":23702,"note":35,"tick":10726,"time":13.966145833333334,"type":"noteOn","velocity":50},{"channel":9,"nextOffset":43450,"note":42,"tick":10784,"time":14.041666666666666,"type":"noteOff","velocity":0},{"channel":9,"nextOffset":22947,"note":42,"tick":10792,"time":14.052083333333334,"type":"noteOn","velocity":50},{"channel":2,"nextOffset":26892,"note":26,"tick":10805,"time":14.069010416666666,"type":"noteOff","velocity":0},{"channel":2,"nextOffset":26896,"note":33,"tick":10805,"time":14.069010416666666,"type":"noteOn","velocity":57},{"channel":9,"nextOffset":23706,"note":35,"tick":10822,"time":14.091145833333334,"type":"noteOff","velocity":0},{"channel":9,"nextOffset":22951,"note":42,"tick":10888,"time":14.177083333333334,"type":"noteOff","velocity":0},{"channel":1,"nextOffset":15352,"note":26,"tick":10909,"time":14.204427083333334,"type":"noteOff","velocity":0},{"channel":1,"nextOffset":15356,"note":33,"tick":10909,"time":14.204427083333334,"type":"noteOn","velocity":50},{"channel":2,"nextOffset":26901,"note":33,"tick":10997,"time":14.319010416666666,"type":"noteOff","velocity":0},{"channel":2,"nextOffset":26905,"note":32,"tick":10997,"time":14.319010416666666,"type":"noteOn","velocity":57},{"channel":9,"nextOffset":19953,"note":35,"tick":11006,"time":14.330729166666666,"type":"noteOn","velocity":50},{"channel":9,"nextOffset":43455,"note":42,"tick":11072,"time":14.416666666666666,"type":"noteOn","velocity":50},{"channel":1,"nextOffset":15361,"note":33,"tick":11101,"time":14.454427083333334,"type":"noteOff","velocity":0},{"channel":1,"nextOffset":15365,"note":32,"tick":11101,"time":14.454427083333334,"type":"noteOn","velocity":50},{"channel":9,"nextOffset":19957,"note":35,"tick":11102,"time":14.455729166666666,"type":"noteOff","velocity":0},{"channel":9,"nextOffset":23711,"note":35,"tick":11110,"time":14.466145833333334,"type":"noteOn","velocity":50},{"channel":9,"nextOffset":43459,"note":42,"tick":11168,"time":14.541666666666666,"type":"noteOff","velocity":0},{"channel":9,"nextOffset":22956,"note":42,"tick":11176,"time":14.552083333333334,"type":"noteOn","velocity":50},{"channel":2,"nextOffset":26910,"note":32,"tick":11189,"time":14.569010416666666,"type":"noteOff","velocity":0},{"channel":2,"nextOffset":26914,"note":31,"tick":11189,"time":14.569010416666666,"type":"noteOn","velocity":57},{"channel":9,"nextOffset":23715,"note":35,"tick":11206,"time":14.591145833333334,"type":"noteOff","velocity":0},{"channel":9,"nextOffset":22960,"note":42,"tick":11272,"time":14.677083333333334,"type":"noteOff","velocity":0},{"channel":1,"nextOffset":15370,"note":32,"tick":11293,"time":14.704427083333334,"type":"noteOff","velocity":0},{"channel":1,"nextOffset":15374,"note":31,"tick":11293,"time":14.704427083333334,"type":"noteOn","velocity":50},{"channel":9,"nextOffset":19962,"note":35,"tick":11294,"time":14.705729166666666,"type":"noteOn","velocity":50},{"channel":9,"nextOffset":43464,"note":42,"tick":11360,"time":14.791666666666666,"type":"noteOn","velocity":50},{"channel":2,"nextOffset":26919,"note":31,"tick":11381,"time":14.819010416666666,"type":"noteOff","velocity":0},{"channel":9,"nextOffset":19966,"note":35,"tick":11390,"time":14.830729166666666,"type":"noteOff","velocity":0},{"channel":9,"nextOffset":23720,"note":35,"tick":11398,"time":14.841145833333334,"type":"noteOn","velocity":50},{"channel":9,"nextOffset":43468,"note":42,"tick":11456,"time":14.916666666666666,"type":"noteOff","velocity":0},{"channel":9,"nextOffset":22965,"note":42,"tick":11464,"time":14.927083333333334,"type":"noteOn","velocity":50},{"channel":1,"nextOffset":15379,"note":31,"tick":11485,"time":14.954427083333334,"type":"noteOff","velocity":0},{"channel":9,"nextOffset":23724,"note":35,"tick":11494,"time":14.966145833333334,"type":"noteOff","velocity":0},{"channel":9,"nextOffset":22969,"note":42,"tick":11560,"time":15.052083333333334,"type":"noteOff","velocity":0},{"channel":2,"nextOffset":26924,"note":31,"tick":11573,"time":15.069010416666666,"type":"noteOn","velocity":57},{"channel":9,"nextOffset":19971,"note":35,"tick":11582,"time":15.080729166666666,"type":"noteOn","velocity":50},{"channel":1,"nextOffset":15384,"note":31,"tick":11677,"time":15.204427083333334,"type":"noteOn","velocity":50},{"channel":9,"nextOffset":19975,"note":35,"tick":11678,"time":15.205729166666666,"type":"noteOff","velocity":0},{"channel":9,"nextOffset":23729,"note":35,"tick":11686,"time":15.216145833333334,"type":"noteOn","velocity":50},{"channel":2,"nextOffset":26929,"note":31,"tick":11765,"time":15.319010416666666,"type":"noteOff","velocity":0},{"channel":2,"nextOffset":26933,"note":32,"tick":11765,"time":15.319010416666666,"type":"noteOn","velocity":57},{"channel":9,"nextOffset":19979,"note":35,"tick":11774,"time":15.330729166666666,"type":"noteOn","velocity":50},{"channel":9,"nextOffset":23733,"note":35,"tick":11782,"time":15.341145833333334,"type":"noteOff","velocity":0},{"channel":9,"nextOffset":43473,"note":42,"tick":11840,"time":15.416666666666666,"type":"noteOn","velocity":50},{"channel":1,"nextOffset":15389,"note":31,"tick":11869,"time":15.454427083333334,"type":"noteOff","velocity":0},{"channel":1,"nextOffset":15393,"note":32,"tick":11869,"time":15.454427083333334,"type":"noteOn","velocity":50},{"channel":9,"nextOffset":19983,"note":35,"tick":11870,"time":15.455729166666666,"type":"noteOff","velocity":0},{"channel":9,"nextOffset":23737,"note":35,"tick":11878,"time":15.466145833333334,"type":"noteOn","velocity":50},{"channel":2,"nextOffset":37689,"note":70,"tick":11882,"time":15.471354166666666,"type":"noteOff","velocity":0},{"channel":9,"nextOffset":43477,"note":42,"tick":11936,"time":15.541666666666666,"type":"noteOff","velocity":0},{"channel":9,"nextOffset":22974,"note":42,"tick":11944,"time":15.552083333333334,"type":"noteOn","velocity":50},{"channel":2,"nextOffset":26938,"note":32,"tick":11957,"time":15.569010416666666,"type":"noteOff","velocity":0},{"channel":2,"nextOffset":26942,"note":33,"tick":11957,"time":15.569010416666666,"type":"noteOn","velocity":57},{"channel":2,"nextOffset":26946,"note":33,"tick":11957,"time":15.569010416666666,"type":"noteOn","velocity":57},{"channel":9,"nextOffset":23741,"note":35,"tick":11974,"time":15.591145833333334,"type":"noteOff","velocity":0},{"channel":9,"nextOffset":22978,"note":42,"tick":12040,"time":15.677083333333334,"type":"noteOff","velocity":0},{"channel":1,"nextOffset":15398,"note":32,"tick":12061,"time":15.704427083333334,"type":"noteOff","velocity":0},{"channel":1,"nextOffset":15402,"note":33,"tick":12061,"time":15.704427083333334,"type":"noteOn","velocity":50},{"channel":1,"nextOffset":15406,"note":33,"tick":12061,"time":15.704427083333334,"type":"noteOn","velocity":50},{"channel":2,"nextOffset":39541,"note":50,"tick":12066,"time":15.710937499999998,"type":"noteOff","velocity":96},{"channel":2,"nextOffset":26951,"note":33,"tick":12149,"time":15.819010416666666,"type":"noteOff","velocity":0},{"channel":2,"nextOffset":26955,"note":33,"tick":12149,"time":15.819010416666666,"type":"noteOff","velocity":0},{"channel":9,"nextOffset":19988,"note":35,"tick":12158,"time":15.830729166666666,"type":"noteOn","velocity":50},{"channel":9,"nextOffset":43482,"note":42,"tick":12224,"time":15.916666666666666,"type":"noteOn","velocity":50},{"channel":9,"nextOffset":43486,"note":42,"tick":12224,"time":15.916666666666666,"type":"noteOn","velocity":50},{"channel":2,"nextOffset":26959,"note":33,"tick":12245,"time":15.944010416666666,"type":"noteOn","velocity":57},{"channel":1,"nextOffset":15411,"note":33,"tick":12253,"time":15.954427083333334,"type":"noteOff","velocity":0},{"channel":1,"nextOffset":15415,"note":33,"tick":12253,"time":15.954427083333334,"type":"noteOff","velocity":0},{"channel":9,"nextOffset":19992,"note":35,"tick":12254,"time":15.955729166666666,"type":"noteOff","velocity":0},{"channel":9,"nextOffset":23746,"note":35,"tick":12262,"time":15.966145833333334,"type":"noteOn","velocity":50},{"channel":9,"nextOffset":43490,"note":42,"tick":12320,"time":16.041666666666664,"type":"noteOff","velocity":0},{"channel":9,"nextOffset":43494,"note":42,"tick":12320,"time":16.041666666666664,"type":"noteOff","velocity":0},{"channel":9,"nextOffset":22983,"note":42,"tick":12328,"time":16.052083333333332,"type":"noteOn","velocity":50},{"channel":2,"nextOffset":26963,"note":33,"tick":12341,"time":16.069010416666664,"type":"noteOff","velocity":0},{"channel":2,"nextOffset":39836,"note":50,"tick":12341,"time":16.069010416666664,"type":"noteOff","velocity":96},{"channel":1,"nextOffset":15419,"note":33,"tick":12349,"time":16.079427083333332,"type":"noteOn","velocity":50},{"channel":9,"nextOffset":23750,"note":35,"tick":12358,"time":16.091145833333332,"type":"noteOff","velocity":0},{"channel":9,"nextOffset":22987,"note":42,"tick":12424,"time":16.177083333333332,"type":"noteOff","velocity":0},{"channel":1,"nextOffset":15423,"note":33,"tick":12445,"time":16.204427083333332,"type":"noteOff","velocity":0},{"channel":9,"nextOffset":23754,"note":42,"tick":12454,"time":16.216145833333332,"type":"noteOn","velocity":50},{"channel":2,"nextOffset":26968,"note":26,"tick":12533,"time":16.319010416666664,"type":"noteOn","velocity":57},{"channel":9,"nextOffset":19997,"note":35,"tick":12542,"time":16.330729166666664,"type":"noteOn","velocity":50},{"channel":9,"nextOffset":23758,"note":42,"tick":12550,"time":16.341145833333332,"type":"noteOff","velocity":0},{"channel":9,"nextOffset":43499,"note":42,"tick":12608,"time":16.416666666666664,"type":"noteOn","velocity":50},{"channel":2,"nextOffset":40133,"note":50,"tick":12631,"time":16.446614583333332,"type":"noteOff","velocity":48},{"channel":1,"nextOffset":15428,"note":26,"tick":12637,"time":16.454427083333332,"type":"noteOn","velocity":50},{"channel":9,"nextOffset":20001,"note":35,"tick":12638,"time":16.455729166666664,"type":"noteOff","velocity":0},{"channel":9,"nextOffset":23762,"note":35,"tick":12646,"time":16.466145833333332,"type":"noteOn","velocity":50},{"channel":9,"nextOffset":43503,"note":42,"tick":12704,"time":16.541666666666664,"type":"noteOff","velocity":0},{"channel":9,"nextOffset":22992,"note":42,"tick":12712,"time":16.552083333333332,"type":"noteOn","velocity":50},{"channel":2,"nextOffset":26973,"note":26,"tick":12725,"time":16.569010416666664,"type":"noteOff","velocity":0},{"channel":9,"nextOffset":23766,"note":35,"tick":12742,"time":16.591145833333332,"type":"noteOff","velocity":0},{"channel":3,"nextOffset":43102,"note":50,"tick":12777,"time":16.636718749999996,"type":"noteOff","velocity":96},{"channel":3,"nextOffset":43157,"note":50,"tick":12779,"time":16.639322916666664,"type":"noteOff","velocity":96},{"channel":3,"nextOffset":43212,"note":50,"tick":12780,"time":16.640624999999996,"type":"noteOff","velocity":96},{"channel":3,"nextOffset":43267,"note":50,"tick":12781,"time":16.641927083333332,"type":"noteOff","velocity":96},{"channel":3,"nextOffset":43354,"note":50,"tick":12782,"time":16.643229166666664,"type":"noteOff","velocity":96},{"channel":9,"nextOffset":22996,"note":42,"tick":12808,"time":16.677083333333332,"type":"noteOff","velocity":0},{"channel":1,"nextOffset":15433,"note":26,"tick":12829,"time":16.704427083333332,"type":"noteOff","velocity":0},{"channel":9,"nextOffset":20006,"note":35,"tick":12830,"time":16.705729166666664,"type":"noteOn","velocity":50},{"channel":9,"nextOffset":31499,"note":42,"tick":12864,"time":16.749999999999996,"type":"noteOff","velocity":0},{"channel":9,"nextOffset":31503,"note":42,"tick":12864,"time":16.749999999999996,"type":"noteOn","velocity":50},{"channel":9,"nextOffset":43508,"note":42,"tick":12896,"time":16.791666666666664,"type":"noteOn","velocity":50},{"channel":2,"nextOffset":39545,"note":0,"tick":12908,"time":16.807291666666664,"type":"noteOff","velocity":0},{"channel":2,"nextOffset":26978,"note":26,"tick":12917,"time":16.819010416666664,"type":"noteOn","velocity":57},{"channel":9,"nextOffset":20010,"note":35,"tick":12926,"time":16.830729166666664,"type":"noteOff","velocity":0},{"channel":9,"nextOffset":23771,"note":35,"tick":12934,"time":16.841145833333332,"type":"noteOn","velocity":50},{"channel":9,"nextOffset":31507,"note":42,"tick":12960,"time":16.874999999999996,"type":"noteOff","velocity":0},{"channel":9,"nextOffset":43512,"note":42,"tick":12992,"time":16.916666666666664,"type":"noteOff","velocity":0},{"channel":9,"nextOffset":23001,"note":42,"tick":13000,"time":16.927083333333332,"type":"noteOn","velocity":50},{"channel":3,"nextOffset":41710,"note":50,"tick":13008,"time":16.937499999999996,"type":"noteOff","velocity":0},{"channel":1,"nextOffset":15438,"note":26,"tick":13021,"time":16.954427083333332,"type":"noteOn","velocity":50},{"channel":9,"nextOffset":23775,"note":35,"tick":13030,"time":16.966145833333332,"type":"noteOff","velocity":0},{"channel":9,"nextOffset":23005,"note":42,"tick":13096,"time":17.052083333333332,"type":"noteOff","velocity":0},{"channel":2,"nextOffset":26983,"note":26,"tick":13109,"time":17.069010416666664,"type":"noteOff","velocity":0},{"channel":2,"nextOffset":26987,"note":33,"tick":13109,"time":17.069010416666664,"type":"noteOn","velocity":57},{"channel":9,"nextOffset":20015,"note":35,"tick":13118,"time":17.080729166666664,"type":"noteOn","velocity":50},{"channel":9,"nextOffset":31512,"note":42,"tick":13152,"time":17.124999999999996,"type":"noteOn","velocity":50},{"channel":1,"nextOffset":15443,"note":26,"tick":13213,"time":17.204427083333332,"type":"noteOff","velocity":0},{"channel":1,"nextOffset":15447,"note":33,"tick":13213,"time":17.204427083333332,"type":"noteOn","velocity":50},{"channel":9,"nextOffset":20019,"note":35,"tick":13214,"time":17.205729166666664,"type":"noteOff","velocity":0},{"channel":9,"nextOffset":23780,"note":35,"tick":13222,"time":17.216145833333332,"type":"noteOn","velocity":50},{"channel":9,"nextOffset":31516,"note":42,"tick":13248,"time":17.249999999999996,"type":"noteOff","velocity":0},{"channel":9,"nextOffset":31520,"note":42,"tick":13248,"time":17.249999999999996,"type":"noteOn","velocity":50},{"channel":2,"nextOffset":26992,"note":33,"tick":13301,"time":17.319010416666664,"type":"noteOff","velocity":0},{"channel":2,"nextOffset":26996,"note":26,"tick":13301,"time":17.319010416666664,"type":"noteOn","velocity":57},{"channel":9,"nextOffset":20023,"note":35,"tick":13310,"time":17.330729166666664,"type":"noteOn","velocity":50},{"channel":9,"nextOffset":23784,"note":35,"tick":13318,"time":17.341145833333332,"type":"noteOff","velocity":0},{"channel":2,"nextOffset":39840,"note":0,"tick":13323,"time":17.347656249999996,"type":"noteOff","velocity":0},{"channel":9,"nextOffset":31524,"note":42,"tick":13344,"time":17.374999999999996,"type":"noteOff","velocity":0},{"channel":9,"nextOffset":43517,"note":42,"tick":13376,"time":17.416666666666664,"type":"noteOn","velocity":50},{"channel":1,"nextOffset":15452,"note":33,"tick":13405,"time":17.454427083333332,"type":"noteOff","velocity":0},{"channel":1,"nextOffset":15456,"note":26,"tick":13405,"time":17.454427083333332,"type":"noteOn","velocity":50},{"channel":9,"nextOffset":20027,"note":35,"tick":13406,"time":17.455729166666664,"type":"noteOff","velocity":0},{"channel":9,"nextOffset":23788,"note":35,"tick":13414,"time":17.466145833333332,"type":"noteOn","velocity":50},{"channel":9,"nextOffset":43521,"note":42,"tick":13472,"time":17.541666666666664,"type":"noteOff","velocity":0},{"channel":9,"nextOffset":23010,"note":42,"tick":13480,"time":17.552083333333332,"type":"noteOn","velocity":50},{"channel":2,"nextOffset":27001,"note":26,"tick":13493,"time":17.569010416666664,"type":"noteOff","velocity":0},{"channel":2,"nextOffset":27005,"note":38,"tick":13493,"time":17.569010416666664,"type":"noteOn","velocity":57},{"channel":9,"nextOffset":23792,"note":35,"tick":13510,"time":17.591145833333332,"type":"noteOff","velocity":0},{"channel":9,"nextOffset":31529,"note":42,"tick":13536,"time":17.624999999999996,"type":"noteOn","velocity":50},{"channel":9,"nextOffset":23014,"note":42,"tick":13576,"time":17.677083333333332,"type":"noteOff","velocity":0},{"channel":1,"nextOffset":15461,"note":26,"tick":13597,"time":17.704427083333332,"type":"noteOff","velocity":0},{"channel":1,"nextOffset":15465,"note":38,"tick":13597,"time":17.704427083333332,"type":"noteOn","velocity":50},{"channel":9,"nextOffset":31533,"note":42,"tick":13632,"time":17.749999999999996,"type":"noteOff","velocity":0},{"channel":2,"nextOffset":41815,"note":50,"tick":13657,"time":17.782552083333332,"type":"noteOff","velocity":129},{"channel":12,"nextOffset":41819,"note":69,"tick":13673,"time":17.803385416666664,"type":"noteOff","velocity":0},{"channel":2,"nextOffset":27010,"note":38,"tick":13685,"time":17.819010416666664,"type":"noteOff","velocity":0},{"channel":2,"nextOffset":27014,"note":26,"tick":13685,"time":17.819010416666664,"type":"noteOn","velocity":57},{"channel":9,"nextOffset":20032,"note":35,"tick":13694,"time":17.830729166666664,"type":"noteOn","velocity":50},{"channel":9,"nextOffset":43526,"note":42,"tick":13760,"time":17.916666666666664,"type":"noteOn","velocity":50},{"channel":1,"nextOffset":15470,"note":38,"tick":13789,"time":17.954427083333332,"type":"noteOff","velocity":0},{"channel":1,"nextOffset":15474,"note":26,"tick":13789,"time":17.954427083333332,"type":"noteOn","velocity":50},{"channel":9,"nextOffset":20036,"note":35,"tick":13790,"time":17.955729166666664,"type":"noteOff","velocity":0},{"channel":9,"nextOffset":23797,"note":35,"tick":13798,"time":17.966145833333332,"type":"noteOn","velocity":50},{"channel":9,"nextOffset":31538,"note":42,"tick":13824,"time":17.999999999999996,"type":"noteOn","velocity":50},{"channel":9,"nextOffset":43530,"note":42,"tick":13856,"time":18.041666666666664,"type":"noteOff","velocity":0},{"channel":9,"nextOffset":23019,"note":42,"tick":13864,"time":18.052083333333332,"type":"noteOn","velocity":50},{"channel":12,"nextOffset":41824,"note":67,"tick":13865,"time":18.053385416666664,"type":"noteOn","velocity":50},{"channel":2,"nextOffset":27019,"note":26,"tick":13877,"time":18.069010416666664,"type":"noteOff","velocity":0},{"channel":2,"nextOffset":27023,"note":33,"tick":13877,"time":18.069010416666664,"type":"noteOn","velocity":57},{"channel":9,"nextOffset":23801,"note":35,"tick":13894,"time":18.091145833333332,"type":"noteOff","velocity":0},{"channel":9,"nextOffset":31542,"note":42,"tick":13920,"time":18.124999999999996,"type":"noteOff","velocity":0},{"channel":9,"nextOffset":31546,"note":42,"tick":13920,"time":18.124999999999996,"type":"noteOn","velocity":50},{"channel":9,"nextOffset":31550,"note":42,"tick":13944,"time":18.156249999999996,"type":"noteOff","velocity":0},{"channel":9,"nextOffset":23023,"note":42,"tick":13960,"time":18.177083333333332,"type":"noteOff","velocity":0},{"channel":9,"nextOffset":31554,"note":42,"tick":13968,"time":18.187499999999996,"type":"noteOn","velocity":50},{"channel":1,"nextOffset":15479,"note":26,"tick":13981,"time":18.204427083333332,"type":"noteOff","velocity":0},{"channel":1,"nextOffset":15483,"note":33,"tick":13981,"time":18.204427083333332,"type":"noteOn","velocity":50},{"channel":3,"nextOffset":43106,"note":0,"tick":13981,"time":18.204427083333332,"type":"noteOff","velocity":132},{"channel":3,"nextOffset":43161,"note":0,"tick":13983,"time":18.207031249999996,"type":"noteOff","velocity":132},{"channel":3,"nextOffset":43216,"note":0,"tick":13984,"time":18.208333333333332,"type":"noteOff","velocity":132},{"channel":3,"nextOffset":43271,"note":0,"tick":13985,"time":18.209635416666664,"type":"noteOff","velocity":96},{"channel":3,"nextOffset":43358,"note":0,"tick":13986,"time":18.210937499999996,"type":"noteOff","velocity":96},{"channel":9,"nextOffset":31558,"note":42,"tick":13992,"time":18.218749999999996,"type":"noteOff","velocity":0},{"channel":9,"nextOffset":31562,"note":42,"tick":14016,"time":18.249999999999996,"type":"noteOn","velocity":50},{"channel":9,"nextOffset":31566,"note":42,"tick":14040,"time":18.281249999999996,"type":"noteOff","velocity":0},{"channel":12,"nextOffset":41829,"note":67,"tick":14057,"time":18.303385416666664,"type":"noteOff","velocity":0},{"channel":9,"nextOffset":31570,"note":42,"tick":14064,"time":18.312499999999996,"type":"noteOn","velocity":50},{"channel":2,"nextOffset":27028,"note":33,"tick":14069,"time":18.319010416666664,"type":"noteOff","velocity":0},{"channel":2,"nextOffset":27032,"note":32,"tick":14069,"time":18.319010416666664,"type":"noteOn","velocity":57},{"channel":2,"nextOffset":27036,"note":32,"tick":14069,"time":18.319010416666664,"type":"noteOn","velocity":57},{"channel":9,"nextOffset":20041,"note":35,"tick":14078,"time":18.330729166666664,"type":"noteOn","velocity":50},{"channel":9,"nextOffset":31574,"note":42,"tick":14088,"time":18.343749999999996,"type":"noteOff","velocity":0},{"channel":9,"nextOffset":31578,"note":42,"tick":14112,"time":18.374999999999996,"type":"noteOn","velocity":50},{"channel":9,"nextOffset":31582,"note":42,"tick":14136,"time":18.406249999999996,"type":"noteOff","velocity":0},{"channel":9,"nextOffset":43535,"note":42,"tick":14144,"time":18.416666666666664,"type":"noteOn","velocity":50},{"channel":1,"nextOffset":15488,"note":33,"tick":14173,"time":18.454427083333332,"type":"noteOff","velocity":0},{"channel":1,"nextOffset":15492,"note":32,"tick":14173,"time":18.454427083333332,"type":"noteOn","velocity":50},{"channel":1,"nextOffset":15496,"note":32,"tick":14173,"time":18.454427083333332,"type":"noteOn","velocity":50},{"channel":9,"nextOffset":20045,"note":35,"tick":14174,"time":18.455729166666664,"type":"noteOff","velocity":0},{"channel":9,"nextOffset":23806,"note":35,"tick":14182,"time":18.466145833333332,"type":"noteOn","velocity":50},{"channel":9,"nextOffset":43539,"note":42,"tick":14240,"time":18.541666666666664,"type":"noteOff","velocity":0},{"channel":9,"nextOffset":23028,"note":42,"tick":14248,"time":18.552083333333332,"type":"noteOn","velocity":50},{"channel":12,"nextOffset":41834,"note":65,"tick":14249,"time":18.553385416666664,"type":"noteOn","velocity":50},{"channel":2,"nextOffset":27041,"note":32,"tick":14261,"time":18.569010416666664,"type":"noteOff","velocity":0},{"channel":2,"nextOffset":27045,"note":32,"tick":14261,"time":18.569010416666664,"type":"noteOff","velocity":0},{"channel":2,"nextOffset":27049,"note":31,"tick":14261,"time":18.569010416666664,"type":"noteOn","velocity":57},{"channel":9,"nextOffset":23810,"note":35,"tick":14278,"time":18.591145833333332,"type":"noteOff","velocity":0},{"channel":9,"nextOffset":31587,"note":42,"tick":14304,"time":18.624999999999996,"type":"noteOn","velocity":50},{"channel":9,"nextOffset":23032,"note":42,"tick":14344,"time":18.677083333333332,"type":"noteOff","velocity":0},{"channel":1,"nextOffset":15501,"note":32,"tick":14365,"time":18.704427083333332,"type":"noteOff","velocity":0},{"channel":1,"nextOffset":15505,"note":32,"tick":14365,"time":18.704427083333332,"type":"noteOff","velocity":0},{"channel":1,"nextOffset":15509,"note":31,"tick":14365,"time":18.704427083333332,"type":"noteOn","velocity":50},{"channel":9,"nextOffset":20050,"note":35,"tick":14366,"time":18.705729166666664,"type":"noteOn","velocity":50},{"channel":9,"nextOffset":31591,"note":42,"tick":14400,"time":18.749999999999996,"type":"noteOff","velocity":0},{"channel":9,"nextOffset":31595,"note":42,"tick":14400,"time":18.749999999999996,"type":"noteOn","velocity":50},{"channel":9,"nextOffset":43544,"note":42,"tick":14432,"time":18.791666666666664,"type":"noteOn","velocity":50},{"channel":12,"nextOffset":41839,"note":65,"tick":14441,"time":18.803385416666664,"type":"noteOff","velocity":0},{"channel":2,"nextOffset":27054,"note":31,"tick":14453,"time":18.819010416666664,"type":"noteOff","velocity":0},{"channel":9,"nextOffset":20054,"note":35,"tick":14462,"time":18.830729166666664,"type":"noteOff","velocity":0},{"channel":9,"nextOffset":23815,"note":35,"tick":14470,"time":18.841145833333332,"type":"noteOn","velocity":50},{"channel":9,"nextOffset":31599,"note":42,"tick":14496,"time":18.874999999999996,"type":"noteOff","velocity":0},{"channel":9,"nextOffset":43548,"note":42,"tick":14528,"time":18.916666666666664,"type":"noteOff","velocity":0},{"channel":9,"nextOffset":23037,"note":42,"tick":14536,"time":18.927083333333332,"type":"noteOn","velocity":50},{"channel":1,"nextOffset":15514,"note":31,"tick":14557,"time":18.954427083333332,"type":"noteOff","velocity":0},{"channel":9,"nextOffset":23819,"note":35,"tick":14566,"time":18.966145833333332,"type":"noteOff","velocity":0},{"channel":9,"nextOffset":23041,"note":42,"tick":14632,"time":19.052083333333332,"type":"noteOff","velocity":0},{"channel":12,"nextOffset":41844,"note":64,"tick":14633,"time":19.053385416666664,"type":"noteOn","velocity":50},{"channel":2,"nextOffset":37693,"note":70,"tick":14644,"time":19.067708333333332,"type":"noteOff","velocity":0},{"channel":2,"nextOffset":27059,"note":31,"tick":14645,"time":19.069010416666664,"type":"noteOn","velocity":57},{"channel":9,"nextOffset":20059,"note":35,"tick":14654,"time":19.080729166666664,"type":"noteOn","velocity":50},{"channel":9,"nextOffset":31604,"note":42,"tick":14688,"time":19.124999999999996,"type":"noteOn","velocity":50},{"channel":1,"nextOffset":15519,"note":31,"tick":14749,"time":19.204427083333332,"type":"noteOn","velocity":50},{"channel":9,"nextOffset":20063,"note":35,"tick":14750,"time":19.205729166666664,"type":"noteOff","velocity":0},{"channel":9,"nextOffset":23824,"note":35,"tick":14758,"time":19.216145833333332,"type":"noteOn","velocity":50},{"channel":9,"nextOffset":31608,"note":42,"tick":14784,"time":19.249999999999996,"type":"noteOff","velocity":0},{"channel":9,"nextOffset":31612,"note":42,"tick":14784,"time":19.249999999999996,"type":"noteOn","velocity":50},{"channel":12,"nextOffset":41849,"note":64,"tick":14825,"time":19.303385416666664,"type":"noteOff","velocity":0},{"channel":2,"nextOffset":27064,"note":31,"tick":14837,"time":19.319010416666664,"type":"noteOff","velocity":0},{"channel":2,"nextOffset":27068,"note":32,"tick":14837,"time":19.319010416666664,"type":"noteOn","velocity":57},{"channel":9,"nextOffset":20067,"note":35,"tick":14846,"time":19.330729166666664,"type":"noteOn","velocity":50},{"channel":9,"nextOffset":23828,"note":35,"tick":14854,"time":19.341145833333332,"type":"noteOff","velocity":0},{"channel":9,"nextOffset":31616,"note":42,"tick":14880,"time":19.374999999999996,"type":"noteOff","velocity":0},{"channel":9,"nextOffset":43553,"note":42,"tick":14912,"time":19.416666666666664,"type":"noteOn","velocity":50},{"channel":1,"nextOffset":15524,"note":31,"tick":14941,"time":19.454427083333332,"type":"noteOff","velocity":0},{"channel":1,"nextOffset":15528,"note":32,"tick":14941,"time":19.454427083333332,"type":"noteOn","velocity":50},{"channel":9,"nextOffset":20071,"note":35,"tick":14942,"time":19.455729166666664,"type":"noteOff","velocity":0},{"channel":9,"nextOffset":23832,"note":35,"tick":14950,"time":19.466145833333332,"type":"noteOn","velocity":50},{"channel":9,"nextOffset":43557,"note":42,"tick":15008,"time":19.541666666666664,"type":"noteOff","velocity":0},{"channel":9,"nextOffset":23046,"note":42,"tick":15016,"time":19.552083333333332,"type":"noteOn","velocity":50},{"channel":12,"nextOffset":41854,"note":67,"tick":15017,"time":19.553385416666664,"type":"noteOn","velocity":50},{"channel":2,"nextOffset":27073,"note":32,"tick":15029,"time":19.569010416666664,"type":"noteOff","velocity":0},{"channel":2,"nextOffset":27077,"note":33,"tick":15029,"time":19.569010416666664,"type":"noteOn","velocity":57},{"channel":9,"nextOffset":23836,"note":35,"tick":15046,"time":19.591145833333332,"type":"noteOff","velocity":0},{"channel":9,"nextOffset":31621,"note":42,"tick":15072,"time":19.624999999999996,"type":"noteOn","velocity":50},{"channel":9,"nextOffset":23050,"note":42,"tick":15112,"time":19.677083333333332,"type":"noteOff","velocity":0},{"channel":1,"nextOffset":15533,"note":32,"tick":15133,"time":19.704427083333332,"type":"noteOff","velocity":0},{"channel":1,"nextOffset":15537,"note":33,"tick":15133,"time":19.704427083333332,"type":"noteOn","velocity":50},{"channel":9,"nextOffset":31625,"note":42,"tick":15168,"time":19.749999999999996,"type":"noteOff","velocity":0},{"channel":12,"nextOffset":41859,"note":67,"tick":15209,"time":19.803385416666664,"type":"noteOff","velocity":0},{"channel":2,"nextOffset":27082,"note":33,"tick":15221,"time":19.819010416666664,"type":"noteOff","velocity":0},{"channel":9,"nextOffset":20076,"note":35,"tick":15230,"time":19.830729166666664,"type":"noteOn","velocity":50},{"channel":9,"nextOffset":43562,"note":42,"tick":15296,"time":19.916666666666664,"type":"noteOn","velocity":50},{"channel":2,"nextOffset":27086,"note":33,"tick":15317,"time":19.944010416666664,"type":"noteOn","velocity":57},{"channel":1,"nextOffset":15542,"note":33,"tick":15325,"time":19.954427083333332,"type":"noteOff","velocity":0},{"channel":9,"nextOffset":20080,"note":35,"tick":15326,"time":19.955729166666664,"type":"noteOff","velocity":0},{"channel":9,"nextOffset":23841,"note":35,"tick":15334,"time":19.966145833333332,"type":"noteOn","velocity":50},{"channel":9,"nextOffset":31630,"note":42,"tick":15360,"time":19.999999999999996,"type":"noteOn","velocity":50},{"channel":9,"nextOffset":43566,"note":42,"tick":15392,"time":20.041666666666664,"type":"noteOff","velocity":0},{"channel":9,"nextOffset":23055,"note":42,"tick":15400,"time":20.052083333333332,"type":"noteOn","velocity":50},{"channel":12,"nextOffset":41864,"note":65,"tick":15401,"time":20.053385416666664,"type":"noteOn","velocity":50},{"channel":2,"nextOffset":27090,"note":33,"tick":15413,"time":20.069010416666664,"type":"noteOff","velocity":0},{"channel":1,"nextOffset":15546,"note":33,"tick":15421,"time":20.079427083333332,"type":"noteOn","velocity":50},{"channel":9,"nextOffset":23845,"note":35,"tick":15430,"time":20.091145833333332,"type":"noteOff","velocity":0},{"channel":9,"nextOffset":31634,"note":42,"tick":15456,"time":20.124999999999996,"type":"noteOff","velocity":0},{"channel":9,"nextOffset":31638,"note":42,"tick":15456,"time":20.124999999999996,"type":"noteOn","velocity":50},{"channel":9,"nextOffset":31642,"note":42,"tick":15480,"time":20.156249999999996,"type":"noteOff","velocity":0},{"channel":9,"nextOffset":23059,"note":42,"tick":15496,"time":20.177083333333332,"type":"noteOff","velocity":0},{"channel":9,"nextOffset":31646,"note":42,"tick":15504,"time":20.187499999999996,"type":"noteOn","velocity":50},{"channel":1,"nextOffset":15550,"note":33,"tick":15517,"time":20.204427083333332,"type":"noteOff","velocity":0},{"channel":9,"nextOffset":31650,"note":42,"tick":15528,"time":20.218749999999996,"type":"noteOff","velocity":0},{"channel":9,"nextOffset":31654,"note":42,"tick":15552,"time":20.249999999999996,"type":"noteOn","velocity":50},{"channel":9,"nextOffset":31658,"note":42,"tick":15576,"time":20.281249999999996,"type":"noteOff","velocity":0},{"channel":12,"nextOffset":41869,"note":65,"tick":15593,"time":20.303385416666664,"type":"noteOff","velocity":0},{"channel":9,"nextOffset":31662,"note":42,"tick":15600,"time":20.312499999999996,"type":"noteOn","velocity":50},{"channel":2,"nextOffset":27095,"note":26,"tick":15605,"time":20.319010416666664,"type":"noteOn","velocity":57},{"channel":9,"nextOffset":20085,"note":35,"tick":15614,"time":20.330729166666664,"type":"noteOn","velocity":50},{"channel":9,"nextOffset":31666,"note":42,"tick":15624,"time":20.343749999999996,"type":"noteOff","velocity":0},{"channel":9,"nextOffset":31670,"note":42,"tick":15648,"time":20.374999999999996,"type":"noteOn","velocity":50},{"channel":9,"nextOffset":31674,"note":42,"tick":15672,"time":20.406249999999996,"type":"noteOff","velocity":0},{"channel":9,"nextOffset":43571,"note":42,"tick":15680,"time":20.416666666666664,"type":"noteOn","velocity":50},{"channel":1,"nextOffset":15555,"note":26,"tick":15709,"time":20.454427083333332,"type":"noteOn","velocity":50},{"channel":9,"nextOffset":20089,"note":35,"tick":15710,"time":20.455729166666664,"type":"noteOff","velocity":0},{"channel":9,"nextOffset":23850,"note":35,"tick":15718,"time":20.466145833333332,"type":"noteOn","velocity":50},{"channel":2,"nextOffset":40137,"note":50,"tick":15772,"time":20.536458333333332,"type":"noteOff","velocity":16},{"channel":9,"nextOffset":43575,"note":42,"tick":15776,"time":20.541666666666664,"type":"noteOff","velocity":0},{"channel":9,"nextOffset":23064,"note":42,"tick":15784,"time":20.552083333333332,"type":"noteOn","velocity":50},{"channel":12,"nextOffset":41874,"note":64,"tick":15785,"time":20.553385416666664,"type":"noteOn","velocity":50},{"channel":2,"nextOffset":27100,"note":26,"tick":15797,"time":20.569010416666664,"type":"noteOff","velocity":0},{"channel":2,"nextOffset":39549,"note":50,"tick":15801,"time":20.574218749999996,"type":"noteOff","velocity":96},{"channel":9,"nextOffset":23854,"note":35,"tick":15814,"time":20.591145833333332,"type":"noteOff","velocity":0},{"channel":9,"nextOffset":31679,"note":42,"tick":15840,"time":20.624999999999996,"type":"noteOn","velocity":50},{"channel":9,"nextOffset":23068,"note":42,"tick":15880,"time":20.677083333333332,"type":"noteOff","velocity":0},{"channel":1,"nextOffset":15560,"note":26,"tick":15901,"time":20.704427083333332,"type":"noteOff","velocity":0},{"channel":9,"nextOffset":20094,"note":35,"tick":15902,"time":20.705729166666664,"type":"noteOn","velocity":50},{"channel":9,"nextOffset":43111,"note":52,"tick":15933,"time":20.746093749999996,"type":"noteOn","velocity":50},{"channel":9,"nextOffset":43166,"note":52,"tick":15935,"time":20.748697916666664,"type":"noteOn","velocity":50},{"channel":9,"nextOffset":31683,"note":42,"tick":15936,"time":20.749999999999996,"type":"noteOff","velocity":0},{"channel":9,"nextOffset":31687,"note":42,"tick":15936,"time":20.749999999999996,"type":"noteOn","velocity":50},{"channel":9,"nextOffset":43221,"note":52,"tick":15936,"time":20.749999999999996,"type":"noteOn","velocity":50},{"channel":9,"nextOffset":43580,"note":42,"tick":15968,"time":20.791666666666664,"type":"noteOn","velocity":50},{"channel":12,"nextOffset":41879,"note":64,"tick":15977,"time":20.803385416666664,"type":"noteOff","velocity":0},{"channel":2,"nextOffset":27105,"note":38,"tick":15989,"time":20.819010416666664,"type":"noteOn","velocity":57},{"channel":9,"nextOffset":20098,"note":35,"tick":15998,"time":20.830729166666664,"type":"noteOff","velocity":0},{"channel":9,"nextOffset":23859,"note":35,"tick":16006,"time":20.841145833333332,"type":"noteOn","velocity":50},{"channel":9,"nextOffset":43115,"note":52,"tick":16029,"time":20.871093749999996,"type":"noteOff","velocity":0},{"channel":9,"nextOffset":43170,"note":52,"tick":16031,"time":20.873697916666664,"type":"noteOff","velocity":0},{"channel":9,"nextOffset":31691,"note":42,"tick":16032,"time":20.874999999999996,"type":"noteOff","velocity":0},{"channel":9,"nextOffset":43225,"note":52,"tick":16032,"time":20.874999999999996,"type":"noteOff","velocity":0},{"channel":9,"nextOffset":43584,"note":42,"tick":16064,"time":20.916666666666664,"type":"noteOff","velocity":0},{"channel":9,"nextOffset":23073,"note":42,"tick":16072,"time":20.927083333333332,"type":"noteOn","velocity":50},{"channel":1,"nextOffset":15565,"note":38,"tick":16093,"time":20.954427083333332,"type":"noteOn","velocity":50},{"channel":9,"nextOffset":23863,"note":35,"tick":16102,"time":20.966145833333332,"type":"noteOff","velocity":0},{"channel":9,"nextOffset":23077,"note":42,"tick":16168,"time":21.052083333333332,"type":"noteOff","velocity":0},{"channel":12,"nextOffset":41884,"note":62,"tick":16169,"time":21.053385416666664,"type":"noteOn","velocity":50},{"channel":2,"nextOffset":27110,"note":38,"tick":16181,"time":21.069010416666664,"type":"noteOff","velocity":0},{"channel":2,"nextOffset":27114,"note":26,"tick":16181,"time":21.069010416666664,"type":"noteOn","velocity":57},{"channel":9,"nextOffset":20103,"note":35,"tick":16190,"time":21.080729166666664,"type":"noteOn","velocity":50},{"channel":9,"nextOffset":31696,"note":42,"tick":16224,"time":21.124999999999996,"type":"noteOn","velocity":50},{"channel":1,"nextOffset":15570,"note":38,"tick":16285,"time":21.204427083333332,"type":"noteOff","velocity":0},{"channel":1,"nextOffset":15574,"note":26,"tick":16285,"time":21.204427083333332,"type":"noteOn","velocity":50},{"channel":9,"nextOffset":20107,"note":35,"tick":16286,"time":21.205729166666664,"type":"noteOff","velocity":0},{"channel":9,"nextOffset":23868,"note":35,"tick":16294,"time":21.216145833333332,"type":"noteOn","velocity":50},{"channel":9,"nextOffset":31700,"note":42,"tick":16320,"time":21.249999999999996,"type":"noteOff","velocity":0},{"channel":9,"nextOffset":31704,"note":42,"tick":16320,"time":21.249999999999996,"type":"noteOn","velocity":50},{"channel":2,"nextOffset":39844,"note":50,"tick":16356,"time":21.296874999999996,"type":"noteOff","velocity":96},{"channel":12,"nextOffset":41889,"note":62,"tick":16361,"time":21.303385416666664,"type":"noteOff","velocity":0},{"channel":2,"nextOffset":27119,"note":26,"tick":16373,"time":21.319010416666664,"type":"noteOff","velocity":0},{"channel":2,"nextOffset":27123,"note":33,"tick":16373,"time":21.319010416666664,"type":"noteOn","velocity":57},{"channel":9,"nextOffset":20111,"note":35,"tick":16382,"time":21.330729166666664,"type":"noteOn","velocity":50},{"channel":9,"nextOffset":23872,"note":35,"tick":16390,"time":21.341145833333332,"type":"noteOff","velocity":0},{"channel":9,"nextOffset":31708,"note":42,"tick":16416,"time":21.374999999999996,"type":"noteOff","velocity":0},{"channel":9,"nextOffset":43589,"note":42,"tick":16448,"time":21.416666666666664,"type":"noteOn","velocity":50},{"channel":1,"nextOffset":15579,"note":26,"tick":16477,"time":21.454427083333332,"type":"noteOff","velocity":0},{"channel":1,"nextOffset":15583,"note":33,"tick":16477,"time":21.454427083333332,"type":"noteOn","velocity":50},{"channel":9,"nextOffset":20115,"note":35,"tick":16478,"time":21.455729166666664,"type":"noteOff","velocity":0},{"channel":9,"nextOffset":23876,"note":35,"tick":16486,"time":21.466145833333332,"type":"noteOn","velocity":50},{"channel":3,"nextOffset":41714,"note":50,"tick":16526,"time":21.518229166666664,"type":"noteOff","velocity":140},{"channel":11,"nextOffset":41718,"note":62,"tick":16526,"time":21.518229166666664,"type":"noteOff","velocity":0},{"channel":11,"nextOffset":41722,"note":65,"tick":16526,"time":21.518229166666664,"type":"noteOff","velocity":0},{"channel":11,"nextOffset":41726,"note":64,"tick":16526,"time":21.518229166666664,"type":"noteOn","velocity":50},{"channel":11,"nextOffset":41730,"note":61,"tick":16526,"time":21.518229166666664,"type":"noteOn","velocity":50},{"channel":9,"nextOffset":43593,"note":42,"tick":16544,"time":21.541666666666664,"type":"noteOff","velocity":0},{"channel":9,"nextOffset":43597,"note":42,"tick":16544,"time":21.541666666666664,"type":"noteOn","velocity":50},{"channel":12,"nextOffset":41894,"note":65,"tick":16553,"time":21.553385416666664,"type":"noteOn","velocity":50},{"channel":2,"nextOffset":27128,"note":33,"tick":16565,"time":21.569010416666664,"type":"noteOff","velocity":0},{"channel":9,"nextOffset":23880,"note":35,"tick":16582,"time":21.591145833333332,"type":"noteOff","velocity":0},{"channel":9,"nextOffset":31713,"note":42,"tick":16608,"time":21.624999999999996,"type":"noteOn","velocity":50},{"channel":9,"nextOffset":43601,"note":42,"tick":16640,"time":21.666666666666664,"type":"noteOff","velocity":0},{"channel":2,"nextOffset":39553,"note":0,"tick":16646,"time":21.674479166666664,"type":"noteOff","velocity":0},{"channel":1,"nextOffset":15588,"note":33,"tick":16669,"time":21.704427083333332,"type":"noteOff","velocity":0},{"channel":9,"nextOffset":31717,"note":42,"tick":16704,"time":21.749999999999996,"type":"noteOff","velocity":0},{"channel":12,"nextOffset":41899,"note":65,"tick":16745,"time":21.803385416666664,"type":"noteOff","velocity":0},{"channel":2,"nextOffset":27133,"note":26,"tick":16757,"time":21.819010416666664,"type":"noteOn","velocity":57},{"channel":9,"nextOffset":20120,"note":35,"tick":16766,"time":21.830729166666664,"type":"noteOn","velocity":50},{"channel":9,"nextOffset":43606,"note":42,"tick":16832,"time":21.916666666666664,"type":"noteOn","velocity":50},{"channel":1,"nextOffset":15593,"note":26,"tick":16861,"time":21.954427083333332,"type":"noteOn","velocity":50},{"channel":9,"nextOffset":20124,"note":35,"tick":16862,"time":21.955729166666664,"type":"noteOff","velocity":0},{"channel":2,"nextOffset":40141,"note":0,"tick":16864,"time":21.958333333333332,"type":"noteOff","velocity":129},{"channel":8,"nextOffset":40145,"note":69,"tick":16864,"time":21.958333333333332,"type":"noteOff","velocity":0},{"channel":9,"nextOffset":23885,"note":35,"tick":16870,"time":21.966145833333332,"type":"noteOn","velocity":50},{"channel":9,"nextOffset":31722,"note":42,"tick":16896,"time":21.999999999999996,"type":"noteOn","velocity":50},{"channel":9,"nextOffset":43610,"note":42,"tick":16928,"time":22.041666666666664,"type":"noteOff","velocity":0},{"channel":9,"nextOffset":43614,"note":42,"tick":16928,"time":22.041666666666664,"type":"noteOn","velocity":50},{"channel":12,"nextOffset":41904,"note":64,"tick":16937,"time":22.053385416666664,"type":"noteOn","velocity":50},{"channel":2,"nextOffset":27138,"note":26,"tick":16949,"time":22.069010416666664,"type":"noteOff","velocity":0},{"channel":2,"nextOffset":27142,"note":33,"tick":16949,"time":22.069010416666664,"type":"noteOn","velocity":57},{"channel":9,"nextOffset":23889,"note":35,"tick":16966,"time":22.091145833333332,"type":"noteOff","velocity":0},{"channel":9,"nextOffset":31726,"note":42,"tick":16992,"time":22.124999999999996,"type":"noteOff","velocity":0},{"channel":9,"nextOffset":31730,"note":42,"tick":16992,"time":22.124999999999996,"type":"noteOn","velocity":50},{"channel":9,"nextOffset":31734,"note":42,"tick":17016,"time":22.156249999999996,"type":"noteOff","velocity":0},{"channel":9,"nextOffset":43618,"note":42,"tick":17024,"time":22.166666666666664,"type":"noteOff","velocity":0},{"channel":9,"nextOffset":31738,"note":42,"tick":17040,"time":22.187499999999996,"type":"noteOn","velocity":50},{"channel":1,"nextOffset":15598,"note":26,"tick":17053,"time":22.204427083333332,"type":"noteOff","velocity":0},{"channel":1,"nextOffset":15602,"note":33,"tick":17053,"time":22.204427083333332,"type":"noteOn","velocity":50},{"channel":8,"nextOffset":40150,"note":67,"tick":17056,"time":22.208333333333332,"type":"noteOn","velocity":50},{"channel":9,"nextOffset":31742,"note":42,"tick":17064,"time":22.218749999999996,"type":"noteOff","velocity":0},{"channel":9,"nextOffset":31746,"note":42,"tick":17088,"time":22.249999999999996,"type":"noteOn","velocity":50},{"channel":9,"nextOffset":31750,"note":42,"tick":17112,"time":22.281249999999996,"type":"noteOff","velocity":0},{"channel":12,"nextOffset":41909,"note":64,"tick":17129,"time":22.303385416666664,"type":"noteOff","velocity":0},{"channel":9,"nextOffset":31754,"note":42,"tick":17136,"time":22.312499999999996,"type":"noteOn","velocity":50},{"channel":2,"nextOffset":27147,"note":33,"tick":17141,"time":22.319010416666664,"type":"noteOff","velocity":0},{"channel":2,"nextOffset":27151,"note":32,"tick":17141,"time":22.319010416666664,"type":"noteOn","velocity":57},{"channel":9,"nextOffset":20129,"note":35,"tick":17150,"time":22.330729166666664,"type":"noteOn","velocity":50},{"channel":9,"nextOffset":31758,"note":42,"tick":17160,"time":22.343749999999996,"type":"noteOff","velocity":0},{"channel":9,"nextOffset":31762,"note":42,"tick":17184,"time":22.374999999999996,"type":"noteOn","velocity":50},{"channel":9,"nextOffset":31766,"note":42,"tick":17208,"time":22.406249999999996,"type":"noteOff","velocity":0},{"channel":9,"nextOffset":43623,"note":42,"tick":17216,"time":22.416666666666664,"type":"noteOn","velocity":50},{"channel":3,"nextOffset":43275,"note":50,"tick":17237,"time":22.444010416666664,"type":"noteOff","velocity":96},{"channel":3,"nextOffset":43362,"note":50,"tick":17238,"time":22.445312499999996,"type":"noteOff","velocity":96},{"channel":1,"nextOffset":15607,"note":33,"tick":17245,"time":22.454427083333332,"type":"noteOff","velocity":0},{"channel":1,"nextOffset":15611,"note":32,"tick":17245,"time":22.454427083333332,"type":"noteOn","velocity":50},{"channel":9,"nextOffset":20133,"note":35,"tick":17246,"time":22.455729166666664,"type":"noteOff","velocity":0},{"channel":8,"nextOffset":40155,"note":67,"tick":17248,"time":22.458333333333332,"type":"noteOff","velocity":0},{"channel":9,"nextOffset":23894,"note":35,"tick":17254,"time":22.466145833333332,"type":"noteOn","velocity":50},{"channel":9,"nextOffset":43627,"note":42,"tick":17312,"time":22.541666666666664,"type":"noteOff","velocity":0},{"channel":12,"nextOffset":41914,"note":62,"tick":17321,"time":22.553385416666664,"type":"noteOn","velocity":50},{"channel":2,"nextOffset":27156,"note":32,"tick":17333,"time":22.569010416666664,"type":"noteOff","velocity":0},{"channel":2,"nextOffset":27160,"note":31,"tick":17333,"time":22.569010416666664,"type":"noteOn","velocity":57},{"channel":2,"nextOffset":39848,"note":0,"tick":17341,"time":22.579427083333332,"type":"noteOff","velocity":0},{"channel":9,"nextOffset":23898,"note":35,"tick":17350,"time":22.591145833333332,"type":"noteOff","velocity":0},{"channel":9,"nextOffset":31771,"note":42,"tick":17376,"time":22.624999999999996,"type":"noteOn","velocity":50},{"channel":2,"nextOffset":37697,"note":70,"tick":17409,"time":22.667968749999996,"type":"noteOff","velocity":0},{"channel":1,"nextOffset":15616,"note":32,"tick":17437,"time":22.704427083333332,"type":"noteOff","velocity":0},{"channel":1,"nextOffset":15620,"note":31,"tick":17437,"time":22.704427083333332,"type":"noteOn","velocity":50},{"channel":9,"nextOffset":20138,"note":35,"tick":17438,"time":22.705729166666664,"type":"noteOn","velocity":50},{"channel":8,"nextOffset":40160,"note":65,"tick":17440,"time":22.708333333333332,"type":"noteOn","velocity":50},{"channel":9,"nextOffset":31775,"note":42,"tick":17472,"time":22.749999999999996,"type":"noteOff","velocity":0},{"channel":9,"nextOffset":43632,"note":42,"tick":17504,"time":22.791666666666664,"type":"noteOn","velocity":50},{"channel":12,"nextOffset":41919,"note":62,"tick":17513,"time":22.803385416666664,"type":"noteOff","velocity":0},{"channel":2,"nextOffset":27165,"note":31,"tick":17525,"time":22.819010416666664,"type":"noteOff","velocity":0},{"channel":9,"nextOffset":20142,"note":35,"tick":17534,"time":22.830729166666664,"type":"noteOff","velocity":0},{"channel":9,"nextOffset":23903,"note":35,"tick":17542,"time":22.841145833333332,"type":"noteOn","velocity":50},{"channel":9,"nextOffset":43636,"note":42,"tick":17600,"time":22.916666666666664,"type":"noteOff","velocity":0},{"channel":9,"nextOffset":43640,"note":42,"tick":17600,"time":22.916666666666664,"type":"noteOn","velocity":50},{"channel":9,"nextOffset":43644,"note":42,"tick":17624,"time":22.947916666666664,"type":"noteOff","velocity":0},{"channel":1,"nextOffset":15625,"note":31,"tick":17629,"time":22.954427083333332,"type":"noteOff","velocity":0},{"channel":8,"nextOffset":40165,"note":65,"tick":17632,"time":22.958333333333332,"type":"noteOff","velocity":0},{"channel":9,"nextOffset":23907,"note":35,"tick":17638,"time":22.966145833333332,"type":"noteOff","velocity":0},{"channel":9,"nextOffset":43648,"note":42,"tick":17648,"time":22.979166666666664,"type":"noteOn","velocity":50},{"channel":9,"nextOffset":43652,"note":42,"tick":17672,"time":23.010416666666664,"type":"noteOff","velocity":0},{"channel":9,"nextOffset":43656,"note":42,"tick":17696,"time":23.041666666666664,"type":"noteOn","velocity":50},{"channel":12,"nextOffset":41924,"note":60,"tick":17705,"time":23.053385416666664,"type":"noteOn","velocity":50},{"channel":2,"nextOffset":27170,"note":31,"tick":17717,"time":23.069010416666664,"type":"noteOn","velocity":57},{"channel":9,"nextOffset":43660,"note":42,"tick":17720,"time":23.072916666666664,"type":"noteOff","velocity":0},{"channel":9,"nextOffset":20147,"note":35,"tick":17726,"time":23.080729166666664,"type":"noteOn","velocity":50},{"channel":9,"nextOffset":43664,"note":42,"tick":17744,"time":23.104166666666664,"type":"noteOn","velocity":50},{"channel":9,"nextOffset":31780,"note":42,"tick":17760,"time":23.124999999999996,"type":"noteOn","velocity":50},{"channel":9,"nextOffset":43668,"note":42,"tick":17768,"time":23.135416666666664,"type":"noteOff","velocity":0},{"channel":9,"nextOffset":43672,"note":42,"tick":17792,"time":23.166666666666664,"type":"noteOn","velocity":50},{"channel":9,"nextOffset":43676,"note":42,"tick":17816,"time":23.197916666666664,"type":"noteOff","velocity":0},{"channel":1,"nextOffset":15630,"note":31,"tick":17821,"time":23.204427083333332,"type":"noteOn","velocity":50},{"channel":9,"nextOffset":20151,"note":35,"tick":17822,"time":23.205729166666664,"type":"noteOff","velocity":0},{"channel":8,"nextOffset":40170,"note":64,"tick":17824,"time":23.208333333333332,"type":"noteOn","velocity":50},{"channel":9,"nextOffset":23912,"note":35,"tick":17830,"time":23.216145833333332,"type":"noteOn","velocity":50},{"channel":9,"nextOffset":31784,"note":42,"tick":17856,"time":23.249999999999996,"type":"noteOff","velocity":0},{"channel":9,"nextOffset":31788,"note":42,"tick":17856,"time":23.249999999999996,"type":"noteOn","velocity":50},{"channel":12,"nextOffset":41929,"note":60,"tick":17897,"time":23.303385416666664,"type":"noteOff","velocity":0},{"channel":12,"nextOffset":41933,"note":62,"tick":17897,"time":23.303385416666664,"type":"noteOn","velocity":50},{"channel":2,"nextOffset":27175,"note":31,"tick":17909,"time":23.319010416666664,"type":"noteOff","velocity":0},{"channel":2,"nextOffset":27179,"note":32,"tick":17909,"time":23.319010416666664,"type":"noteOn","velocity":57},{"channel":9,"nextOffset":20155,"note":35,"tick":17918,"time":23.330729166666664,"type":"noteOn","velocity":50},{"channel":9,"nextOffset":23916,"note":35,"tick":17926,"time":23.341145833333332,"type":"noteOff","velocity":0},{"channel":9,"nextOffset":31792,"note":42,"tick":17952,"time":23.374999999999996,"type":"noteOff","velocity":0},{"channel":9,"nextOffset":43681,"note":42,"tick":17984,"time":23.416666666666664,"type":"noteOn","velocity":50},{"channel":1,"nextOffset":15635,"note":31,"tick":18013,"time":23.454427083333332,"type":"noteOff","velocity":0},{"channel":1,"nextOffset":15639,"note":32,"tick":18013,"time":23.454427083333332,"type":"noteOn","velocity":50},{"channel":9,"nextOffset":20159,"note":35,"tick":18014,"time":23.455729166666664,"type":"noteOff","velocity":0},{"channel":8,"nextOffset":40175,"note":64,"tick":18016,"time":23.458333333333332,"type":"noteOff","velocity":0},{"channel":9,"nextOffset":23920,"note":35,"tick":18022,"time":23.466145833333332,"type":"noteOn","velocity":50},{"channel":11,"nextOffset":41735,"note":61,"tick":18062,"time":23.518229166666664,"type":"noteOff","velocity":0},{"channel":11,"nextOffset":41739,"note":64,"tick":18062,"time":23.518229166666664,"type":"noteOff","velocity":0},{"channel":11,"nextOffset":41743,"note":65,"tick":18062,"time":23.518229166666664,"type":"noteOn","velocity":50},{"channel":11,"nextOffset":41747,"note":60,"tick":18062,"time":23.518229166666664,"type":"noteOn","velocity":50},{"channel":9,"nextOffset":43685,"note":42,"tick":18080,"time":23.541666666666664,"type":"noteOff","velocity":0},{"channel":9,"nextOffset":43689,"note":42,"tick":18080,"time":23.541666666666664,"type":"noteOn","velocity":50},{"channel":12,"nextOffset":41938,"note":62,"tick":18089,"time":23.553385416666664,"type":"noteOff","velocity":0},{"channel":2,"nextOffset":27184,"note":32,"tick":18101,"time":23.569010416666664,"type":"noteOff","velocity":0},{"channel":2,"nextOffset":27188,"note":33,"tick":18101,"time":23.569010416666664,"type":"noteOn","velocity":57},{"channel":2,"nextOffset":27192,"note":33,"tick":18101,"time":23.569010416666664,"type":"noteOn","velocity":57},{"channel":9,"nextOffset":23924,"note":35,"tick":18118,"time":23.591145833333332,"type":"noteOff","velocity":0},{"channel":9,"nextOffset":31797,"note":42,"tick":18144,"time":23.624999999999996,"type":"noteOn","velocity":50},{"channel":9,"nextOffset":43693,"note":42,"tick":18176,"time":23.666666666666664,"type":"noteOff","velocity":0},{"channel":1,"nextOffset":15644,"note":32,"tick":18205,"time":23.704427083333332,"type":"noteOff","velocity":0},{"channel":1,"nextOffset":15648,"note":33,"tick":18205,"time":23.704427083333332,"type":"noteOn","velocity":50},{"channel":1,"nextOffset":15652,"note":33,"tick":18205,"time":23.704427083333332,"type":"noteOn","velocity":50},{"channel":8,"nextOffset":40180,"note":67,"tick":18208,"time":23.708333333333332,"type":"noteOn","velocity":50},{"channel":9,"nextOffset":31801,"note":42,"tick":18240,"time":23.749999999999996,"type":"noteOff","velocity":0},{"channel":2,"nextOffset":27197,"note":33,"tick":18293,"time":23.819010416666664,"type":"noteOff","velocity":0},{"channel":2,"nextOffset":27201,"note":33,"tick":18293,"time":23.819010416666664,"type":"noteOff","velocity":0},{"channel":9,"nextOffset":20164,"note":35,"tick":18302,"time":23.830729166666664,"type":"noteOn","velocity":50},{"channel":9,"nextOffset":43698,"note":42,"tick":18368,"time":23.916666666666664,"type":"noteOn","velocity":50},{"channel":9,"nextOffset":43702,"note":42,"tick":18368,"time":23.916666666666664,"type":"noteOn","velocity":50},{"channel":2,"nextOffset":27205,"note":33,"tick":18389,"time":23.944010416666664,"type":"noteOn","velocity":57},{"channel":1,"nextOffset":15657,"note":33,"tick":18397,"time":23.954427083333332,"type":"noteOff","velocity":0},{"channel":1,"nextOffset":15661,"note":33,"tick":18397,"time":23.954427083333332,"type":"noteOff","velocity":0},{"channel":9,"nextOffset":20168,"note":35,"tick":18398,"time":23.955729166666664,"type":"noteOff","velocity":0},{"channel":8,"nextOffset":40185,"note":67,"tick":18400,"time":23.958333333333332,"type":"noteOff","velocity":0},{"channel":9,"nextOffset":23929,"note":35,"tick":18406,"time":23.966145833333332,"type":"noteOn","velocity":50},{"channel":9,"nextOffset":31806,"note":42,"tick":18432,"time":23.999999999999996,"type":"noteOn","velocity":50},{"channel":3,"nextOffset":43279,"note":0,"tick":18441,"time":24.011718749999996,"type":"noteOff","velocity":96},{"channel":3,"nextOffset":43366,"note":0,"tick":18442,"time":24.013020833333332,"type":"noteOff","velocity":96},{"channel":9,"nextOffset":43706,"note":42,"tick":18464,"time":24.041666666666664,"type":"noteOff","velocity":0},{"channel":9,"nextOffset":43710,"note":42,"tick":18464,"time":24.041666666666664,"type":"noteOff","velocity":0},{"channel":9,"nextOffset":43714,"note":42,"tick":18464,"time":24.041666666666664,"type":"noteOn","velocity":50},{"channel":2,"nextOffset":27209,"note":33,"tick":18485,"time":24.069010416666664,"type":"noteOff","velocity":0},{"channel":1,"nextOffset":15665,"note":33,"tick":18493,"time":24.079427083333332,"type":"noteOn","velocity":50},{"channel":9,"nextOffset":23933,"note":35,"tick":18502,"time":24.091145833333332,"type":"noteOff","velocity":0},{"channel":9,"nextOffset":31810,"note":42,"tick":18528,"time":24.124999999999996,"type":"noteOff","velocity":0},{"channel":9,"nextOffset":31814,"note":42,"tick":18528,"time":24.124999999999996,"type":"noteOn","velocity":50},{"channel":9,"nextOffset":31818,"note":42,"tick":18552,"time":24.156249999999996,"type":"noteOff","velocity":0},{"channel":9,"nextOffset":43718,"note":42,"tick":18560,"time":24.166666666666664,"type":"noteOff","velocity":0},{"channel":9,"nextOffset":31822,"note":42,"tick":18576,"time":24.187499999999996,"type":"noteOn","velocity":50},{"channel":1,"nextOffset":15669,"note":33,"tick":18589,"time":24.204427083333332,"type":"noteOff","velocity":0},{"channel":8,"nextOffset":40190,"note":65,"tick":18592,"time":24.208333333333332,"type":"noteOn","velocity":50},{"channel":9,"nextOffset":23937,"note":42,"tick":18598,"time":24.216145833333332,"type":"noteOn","velocity":50},{"channel":9,"nextOffset":31826,"note":42,"tick":18600,"time":24.218749999999996,"type":"noteOff","velocity":0},{"channel":9,"nextOffset":31830,"note":42,"tick":18624,"time":24.249999999999996,"type":"noteOn","velocity":50},{"channel":9,"nextOffset":31834,"note":42,"tick":18648,"time":24.281249999999996,"type":"noteOff","velocity":0},{"channel":9,"nextOffset":31838,"note":42,"tick":18672,"time":24.312499999999996,"type":"noteOn","velocity":50},{"channel":2,"nextOffset":27214,"note":26,"tick":18677,"time":24.319010416666664,"type":"noteOn","velocity":57},{"channel":9,"nextOffset":20173,"note":35,"tick":18686,"time":24.330729166666664,"type":"noteOn","velocity":50},{"channel":9,"nextOffset":23941,"note":42,"tick":18694,"time":24.341145833333332,"type":"noteOff","velocity":0},{"channel":9,"nextOffset":31842,"note":42,"tick":18696,"time":24.343749999999996,"type":"noteOff","velocity":0},{"channel":9,"nextOffset":43723,"note":42,"tick":18752,"time":24.416666666666664,"type":"noteOn","velocity":50},{"channel":1,"nextOffset":15674,"note":26,"tick":18781,"time":24.454427083333332,"type":"noteOn","velocity":50},{"channel":9,"nextOffset":20177,"note":35,"tick":18782,"time":24.455729166666664,"type":"noteOff","velocity":0},{"channel":8,"nextOffset":40195,"note":65,"tick":18784,"time":24.458333333333332,"type":"noteOff","velocity":0},{"channel":9,"nextOffset":23945,"note":35,"tick":18790,"time":24.466145833333332,"type":"noteOn","velocity":50},{"channel":9,"nextOffset":43727,"note":42,"tick":18848,"time":24.541666666666664,"type":"noteOff","velocity":0},{"channel":2,"nextOffset":27219,"note":26,"tick":18869,"time":24.569010416666664,"type":"noteOff","velocity":0},{"channel":9,"nextOffset":23949,"note":35,"tick":18886,"time":24.591145833333332,"type":"noteOff","velocity":0},{"channel":9,"nextOffset":31847,"note":42,"tick":18912,"time":24.624999999999996,"type":"noteOn","velocity":50},{"channel":1,"nextOffset":15679,"note":26,"tick":18973,"time":24.704427083333332,"type":"noteOff","velocity":0},{"channel":9,"nextOffset":20182,"note":35,"tick":18974,"time":24.705729166666664,"type":"noteOn","velocity":50},{"channel":8,"nextOffset":40200,"note":64,"tick":18976,"time":24.708333333333332,"type":"noteOn","velocity":50},{"channel":9,"nextOffset":31851,"note":42,"tick":19008,"time":24.749999999999996,"type":"noteOff","velocity":0},{"channel":9,"nextOffset":31855,"note":42,"tick":19008,"time":24.749999999999996,"type":"noteOn","velocity":50},{"channel":9,"nextOffset":43732,"note":42,"tick":19040,"time":24.791666666666664,"type":"noteOn","velocity":50},{"channel":2,"nextOffset":27224,"note":26,"tick":19061,"time":24.819010416666664,"type":"noteOn","velocity":57},{"channel":9,"nextOffset":20186,"note":35,"tick":19070,"time":24.830729166666664,"type":"noteOff","velocity":0},{"channel":9,"nextOffset":23954,"note":35,"tick":19078,"time":24.841145833333332,"type":"noteOn","velocity":50},{"channel":9,"nextOffset":31859,"note":42,"tick":19104,"time":24.874999999999996,"type":"noteOff","velocity":0},{"channel":9,"nextOffset":43736,"note":42,"tick":19136,"time":24.916666666666664,"type":"noteOff","velocity":0},{"channel":9,"nextOffset":43740,"note":42,"tick":19136,"time":24.916666666666664,"type":"noteOn","velocity":50},{"channel":9,"nextOffset":43744,"note":42,"tick":19160,"time":24.947916666666664,"type":"noteOff","velocity":0},{"channel":1,"nextOffset":15684,"note":26,"tick":19165,"time":24.954427083333332,"type":"noteOn","velocity":50},{"channel":8,"nextOffset":40205,"note":64,"tick":19168,"time":24.958333333333332,"type":"noteOff","velocity":0},{"channel":9,"nextOffset":23958,"note":35,"tick":19174,"time":24.966145833333332,"type":"noteOff","velocity":0},{"channel":9,"nextOffset":43748,"note":42,"tick":19184,"time":24.979166666666664,"type":"noteOn","velocity":50},{"channel":9,"nextOffset":43752,"note":42,"tick":19208,"time":25.010416666666664,"type":"noteOff","velocity":0},{"channel":9,"nextOffset":43756,"note":42,"tick":19232,"time":25.041666666666664,"type":"noteOn","velocity":50},{"channel":2,"nextOffset":27229,"note":26,"tick":19253,"time":25.069010416666664,"type":"noteOff","velocity":0},{"channel":2,"nextOffset":27233,"note":33,"tick":19253,"time":25.069010416666664,"type":"noteOn","velocity":57},{"channel":9,"nextOffset":43760,"note":42,"tick":19256,"time":25.072916666666664,"type":"noteOff","velocity":0},{"channel":9,"nextOffset":20191,"note":35,"tick":19262,"time":25.080729166666664,"type":"noteOn","velocity":50},{"channel":9,"nextOffset":43764,"note":42,"tick":19280,"time":25.104166666666664,"type":"noteOn","velocity":50},{"channel":9,"nextOffset":31864,"note":42,"tick":19296,"time":25.124999999999996,"type":"noteOn","velocity":50},{"channel":9,"nextOffset":43768,"note":42,"tick":19304,"time":25.135416666666664,"type":"noteOff","velocity":0},{"channel":9,"nextOffset":43772,"note":42,"tick":19328,"time":25.166666666666664,"type":"noteOn","velocity":50},{"channel":9,"nextOffset":43776,"note":42,"tick":19352,"time":25.197916666666664,"type":"noteOff","velocity":0},{"channel":1,"nextOffset":15689,"note":26,"tick":19357,"time":25.204427083333332,"type":"noteOff","velocity":0},{"channel":1,"nextOffset":15693,"note":33,"tick":19357,"time":25.204427083333332,"type":"noteOn","velocity":50},{"channel":9,"nextOffset":20195,"note":35,"tick":19358,"time":25.205729166666664,"type":"noteOff","velocity":0},{"channel":8,"nextOffset":40210,"note":62,"tick":19360,"time":25.208333333333332,"type":"noteOn","velocity":50},{"channel":9,"nextOffset":23963,"note":35,"tick":19366,"time":25.216145833333332,"type":"noteOn","velocity":50},{"channel":9,"nextOffset":31868,"note":42,"tick":19392,"time":25.249999999999996,"type":"noteOff","velocity":0},{"channel":9,"nextOffset":31872,"note":42,"tick":19392,"time":25.249999999999996,"type":"noteOn","velocity":50},{"channel":2,"nextOffset":27238,"note":33,"tick":19445,"time":25.319010416666664,"type":"noteOff","velocity":0},{"channel":2,"nextOffset":27242,"note":26,"tick":19445,"time":25.319010416666664,"type":"noteOn","velocity":57},{"channel":9,"nextOffset":20199,"note":35,"tick":19454,"time":25.330729166666664,"type":"noteOn","velocity":50},{"channel":9,"nextOffset":23967,"note":35,"tick":19462,"time":25.341145833333332,"type":"noteOff","velocity":0},{"channel":9,"nextOffset":31876,"note":42,"tick":19488,"time":25.374999999999996,"type":"noteOff","velocity":0},{"channel":9,"nextOffset":43781,"note":42,"tick":19520,"time":25.416666666666664,"type":"noteOn","velocity":50},{"channel":2,"nextOffset":39557,"note":50,"tick":19541,"time":25.444010416666664,"type":"noteOff","velocity":96},{"channel":1,"nextOffset":15698,"note":33,"tick":19549,"time":25.454427083333332,"type":"noteOff","velocity":0},{"channel":1,"nextOffset":15702,"note":26,"tick":19549,"time":25.454427083333332,"type":"noteOn","velocity":50},{"channel":9,"nextOffset":20203,"note":35,"tick":19550,"time":25.455729166666664,"type":"noteOff","velocity":0},{"channel":8,"nextOffset":40215,"note":62,"tick":19552,"time":25.458333333333332,"type":"noteOff","velocity":0},{"channel":9,"nextOffset":23971,"note":35,"tick":19558,"time":25.466145833333332,"type":"noteOn","velocity":50},{"channel":11,"nextOffset":41752,"note":60,"tick":19598,"time":25.518229166666664,"type":"noteOff","velocity":0},{"channel":11,"nextOffset":41756,"note":65,"tick":19598,"time":25.518229166666664,"type":"noteOff","velocity":0},{"channel":11,"nextOffset":41760,"note":64,"tick":19598,"time":25.518229166666664,"type":"noteOn","velocity":50},{"channel":11,"nextOffset":41764,"note":61,"tick":19598,"time":25.518229166666664,"type":"noteOn","velocity":50},{"channel":9,"nextOffset":43785,"note":42,"tick":19616,"time":25.541666666666664,"type":"noteOff","velocity":0},{"channel":9,"nextOffset":43789,"note":42,"tick":19616,"time":25.541666666666664,"type":"noteOn","velocity":50},{"channel":12,"nextOffset":41943,"note":68,"tick":19625,"time":25.553385416666664,"type":"noteOn","velocity":50},{"channel":2,"nextOffset":27247,"note":26,"tick":19637,"time":25.569010416666664,"type":"noteOff","velocity":0},{"channel":9,"nextOffset":23975,"note":35,"tick":19654,"time":25.591145833333332,"type":"noteOff","velocity":0},{"channel":12,"nextOffset":41947,"note":69,"tick":19673,"time":25.615885416666664,"type":"noteOn","velocity":50},{"channel":9,"nextOffset":31881,"note":42,"tick":19680,"time":25.624999999999996,"type":"noteOn","velocity":50},{"channel":12,"nextOffset":41951,"note":68,"tick":19689,"time":25.636718749999996,"type":"noteOff","velocity":0},{"channel":9,"nextOffset":43793,"note":42,"tick":19712,"time":25.666666666666664,"type":"noteOff","velocity":0},{"channel":1,"nextOffset":15707,"note":26,"tick":19741,"time":25.704427083333332,"type":"noteOff","velocity":0},{"channel":8,"nextOffset":40220,"note":65,"tick":19744,"time":25.708333333333332,"type":"noteOn","velocity":50},{"channel":9,"nextOffset":31885,"note":42,"tick":19776,"time":25.749999999999996,"type":"noteOff","velocity":0},{"channel":12,"nextOffset":41956,"note":69,"tick":19817,"time":25.803385416666664,"type":"noteOff","velocity":0},{"channel":2,"nextOffset":27252,"note":26,"tick":19829,"time":25.819010416666664,"type":"noteOn","velocity":57},{"channel":9,"nextOffset":20208,"note":35,"tick":19838,"time":25.830729166666664,"type":"noteOn","velocity":50},{"channel":9,"nextOffset":43798,"note":42,"tick":19904,"time":25.916666666666664,"type":"noteOn","velocity":50},{"channel":1,"nextOffset":15712,"note":26,"tick":19933,"time":25.954427083333332,"type":"noteOn","velocity":50},{"channel":9,"nextOffset":20212,"note":35,"tick":19934,"time":25.955729166666664,"type":"noteOff","velocity":0},{"channel":8,"nextOffset":40225,"note":65,"tick":19936,"time":25.958333333333332,"type":"noteOff","velocity":0},{"channel":9,"nextOffset":23980,"note":35,"tick":19942,"time":25.966145833333332,"type":"noteOn","velocity":50},{"channel":9,"nextOffset":31890,"note":42,"tick":19968,"time":25.999999999999996,"type":"noteOn","velocity":50},{"channel":9,"nextOffset":43802,"note":42,"tick":20000,"time":26.041666666666664,"type":"noteOff","velocity":0},{"channel":9,"nextOffset":43806,"note":42,"tick":20000,"time":26.041666666666664,"type":"noteOn","velocity":50},{"channel":12,"nextOffset":41961,"note":67,"tick":20009,"time":26.053385416666664,"type":"noteOn","velocity":50},{"channel":2,"nextOffset":27257,"note":26,"tick":20021,"time":26.069010416666664,"type":"noteOff","velocity":0},{"channel":2,"nextOffset":27261,"note":33,"tick":20021,"time":26.069010416666664,"type":"noteOn","velocity":57},{"channel":9,"nextOffset":23984,"note":35,"tick":20038,"time":26.091145833333332,"type":"noteOff","velocity":0},{"channel":9,"nextOffset":31894,"note":42,"tick":20064,"time":26.124999999999996,"type":"noteOff","velocity":0},{"channel":9,"nextOffset":31898,"note":42,"tick":20064,"time":26.124999999999996,"type":"noteOn","velocity":50},{"channel":9,"nextOffset":31902,"note":42,"tick":20088,"time":26.156249999999996,"type":"noteOff","velocity":0},{"channel":9,"nextOffset":43810,"note":42,"tick":20096,"time":26.166666666666664,"type":"noteOff","velocity":0},{"channel":9,"nextOffset":31906,"note":42,"tick":20112,"time":26.187499999999996,"type":"noteOn","velocity":50},{"channel":1,"nextOffset":15717,"note":26,"tick":20125,"time":26.204427083333332,"type":"noteOff","velocity":0},{"channel":1,"nextOffset":15721,"note":33,"tick":20125,"time":26.204427083333332,"type":"noteOn","velocity":50},{"channel":8,"nextOffset":40230,"note":64,"tick":20128,"time":26.208333333333332,"type":"noteOn","velocity":50},{"channel":9,"nextOffset":31910,"note":42,"tick":20136,"time":26.218749999999996,"type":"noteOff","velocity":0},{"channel":9,"nextOffset":31914,"note":42,"tick":20160,"time":26.249999999999996,"type":"noteOn","velocity":50},{"channel":2,"nextOffset":37701,"note":70,"tick":20176,"time":26.270833333333332,"type":"noteOff","velocity":0},{"channel":9,"nextOffset":31918,"note":42,"tick":20184,"time":26.281249999999996,"type":"noteOff","velocity":0},{"channel":12,"nextOffset":41966,"note":67,"tick":20201,"time":26.303385416666664,"type":"noteOff","velocity":0},{"channel":9,"nextOffset":31922,"note":42,"tick":20208,"time":26.312499999999996,"type":"noteOn","velocity":50},{"channel":2,"nextOffset":27266,"note":33,"tick":20213,"time":26.319010416666664,"type":"noteOff","velocity":0},{"channel":2,"nextOffset":27270,"note":32,"tick":20213,"time":26.319010416666664,"type":"noteOn","velocity":57},{"channel":2,"nextOffset":27274,"note":32,"tick":20213,"time":26.319010416666664,"type":"noteOn","velocity":57},{"channel":9,"nextOffset":20217,"note":35,"tick":20222,"time":26.330729166666664,"type":"noteOn","velocity":50},{"channel":9,"nextOffset":31926,"note":42,"tick":20232,"time":26.343749999999996,"type":"noteOff","velocity":0},{"channel":9,"nextOffset":31930,"note":42,"tick":20256,"time":26.374999999999996,"type":"noteOn","velocity":50},{"channel":9,"nextOffset":31934,"note":42,"tick":20280,"time":26.406249999999996,"type":"noteOff","velocity":0},{"channel":9,"nextOffset":43815,"note":42,"tick":20288,"time":26.416666666666664,"type":"noteOn","velocity":50},{"channel":1,"nextOffset":15726,"note":33,"tick":20317,"time":26.454427083333332,"type":"noteOff","velocity":0},{"channel":1,"nextOffset":15730,"note":32,"tick":20317,"time":26.454427083333332,"type":"noteOn","velocity":50},{"channel":1,"nextOffset":15734,"note":32,"tick":20317,"time":26.454427083333332,"type":"noteOn","velocity":50},{"channel":9,"nextOffset":20221,"note":35,"tick":20318,"time":26.455729166666664,"type":"noteOff","velocity":0},{"channel":8,"nextOffset":40235,"note":64,"tick":20320,"time":26.458333333333332,"type":"noteOff","velocity":0},{"channel":9,"nextOffset":23989,"note":35,"tick":20326,"time":26.466145833333332,"type":"noteOn","velocity":50},{"channel":2,"nextOffset":39852,"note":50,"tick":20376,"time":26.531249999999996,"type":"noteOff","velocity":96},{"channel":9,"nextOffset":43819,"note":42,"tick":20384,"time":26.541666666666664,"type":"noteOff","velocity":0},{"channel":2,"nextOffset":39561,"note":0,"tick":20388,"time":26.546874999999996,"type":"noteOff","velocity":96},{"channel":12,"nextOffset":41971,"note":65,"tick":20393,"time":26.553385416666664,"type":"noteOn","velocity":50},{"channel":2,"nextOffset":27279,"note":32,"tick":20405,"time":26.569010416666664,"type":"noteOff","velocity":0},{"channel":2,"nextOffset":27283,"note":32,"tick":20405,"time":26.569010416666664,"type":"noteOff","velocity":0},{"channel":2,"nextOffset":27287,"note":31,"tick":20405,"time":26.569010416666664,"type":"noteOn","velocity":57},{"channel":9,"nextOffset":23993,"note":35,"tick":20422,"time":26.591145833333332,"type":"noteOff","velocity":0},{"channel":9,"nextOffset":31939,"note":42,"tick":20448,"time":26.624999999999996,"type":"noteOn","velocity":50},{"channel":1,"nextOffset":15739,"note":32,"tick":20509,"time":26.704427083333332,"type":"noteOff","velocity":0},{"channel":1,"nextOffset":15743,"note":32,"tick":20509,"time":26.704427083333332,"type":"noteOff","velocity":0},{"channel":1,"nextOffset":15747,"note":31,"tick":20509,"time":26.704427083333332,"type":"noteOn","velocity":50},{"channel":9,"nextOffset":20226,"note":35,"tick":20510,"time":26.705729166666664,"type":"noteOn","velocity":50},{"channel":8,"nextOffset":40240,"note":62,"tick":20512,"time":26.708333333333332,"type":"noteOn","velocity":50},{"channel":9,"nextOffset":31943,"note":42,"tick":20544,"time":26.749999999999996,"type":"noteOff","velocity":0},{"channel":9,"nextOffset":31947,"note":42,"tick":20544,"time":26.749999999999996,"type":"noteOn","velocity":50},{"channel":9,"nextOffset":43824,"note":42,"tick":20576,"time":26.791666666666664,"type":"noteOn","velocity":50},{"channel":12,"nextOffset":41976,"note":65,"tick":20585,"time":26.803385416666664,"type":"noteOff","velocity":0},{"channel":2,"nextOffset":27292,"note":31,"tick":20597,"time":26.819010416666664,"type":"noteOff","velocity":0},{"channel":9,"nextOffset":20230,"note":35,"tick":20606,"time":26.830729166666664,"type":"noteOff","velocity":0},{"channel":9,"nextOffset":23998,"note":35,"tick":20614,"time":26.841145833333332,"type":"noteOn","velocity":50},{"channel":9,"nextOffset":31951,"note":42,"tick":20640,"time":26.874999999999996,"type":"noteOff","velocity":0},{"channel":9,"nextOffset":43828,"note":42,"tick":20672,"time":26.916666666666664,"type":"noteOff","velocity":0},{"channel":9,"nextOffset":43832,"note":42,"tick":20672,"time":26.916666666666664,"type":"noteOn","velocity":50},{"channel":9,"nextOffset":43836,"note":42,"tick":20696,"time":26.947916666666664,"type":"noteOff","velocity":0},{"channel":1,"nextOffset":15752,"note":31,"tick":20701,"time":26.954427083333332,"type":"noteOff","velocity":0},{"channel":8,"nextOffset":40245,"note":62,"tick":20704,"time":26.958333333333332,"type":"noteOff","velocity":0},{"channel":9,"nextOffset":24002,"note":35,"tick":20710,"time":26.966145833333332,"type":"noteOff","velocity":0},{"channel":9,"nextOffset":43840,"note":42,"tick":20720,"time":26.979166666666664,"type":"noteOn","velocity":50},{"channel":9,"nextOffset":43844,"note":42,"tick":20744,"time":27.010416666666664,"type":"noteOff","velocity":0},{"channel":9,"nextOffset":43848,"note":42,"tick":20768,"time":27.041666666666664,"type":"noteOn","velocity":50},{"channel":12,"nextOffset":41981,"note":64,"tick":20777,"time":27.053385416666664,"type":"noteOn","velocity":50},{"channel":2,"nextOffset":27297,"note":31,"tick":20789,"time":27.069010416666664,"type":"noteOn","velocity":57},{"channel":9,"nextOffset":43852,"note":42,"tick":20792,"time":27.072916666666664,"type":"noteOff","velocity":0},{"channel":9,"nextOffset":20235,"note":35,"tick":20798,"time":27.080729166666664,"type":"noteOn","velocity":50},{"channel":9,"nextOffset":43856,"note":42,"tick":20816,"time":27.104166666666664,"type":"noteOn","velocity":50},{"channel":9,"nextOffset":31956,"note":42,"tick":20832,"time":27.124999999999996,"type":"noteOn","velocity":50},{"channel":9,"nextOffset":43860,"note":42,"tick":20840,"time":27.135416666666664,"type":"noteOff","velocity":0},{"channel":9,"nextOffset":43864,"note":42,"tick":20864,"time":27.166666666666664,"type":"noteOn","velocity":50},{"channel":9,"nextOffset":43868,"note":42,"tick":20888,"time":27.197916666666664,"type":"noteOff","velocity":0},{"channel":1,"nextOffset":15757,"note":31,"tick":20893,"time":27.204427083333332,"type":"noteOn","velocity":50},{"channel":9,"nextOffset":20239,"note":35,"tick":20894,"time":27.205729166666664,"type":"noteOff","velocity":0},{"channel":8,"nextOffset":40250,"note":60,"tick":20896,"time":27.208333333333332,"type":"noteOn","velocity":50},{"channel":9,"nextOffset":24007,"note":35,"tick":20902,"time":27.216145833333332,"type":"noteOn","velocity":50},{"channel":9,"nextOffset":31960,"note":42,"tick":20928,"time":27.249999999999996,"type":"noteOff","velocity":0},{"channel":9,"nextOffset":31964,"note":42,"tick":20928,"time":27.249999999999996,"type":"noteOn","velocity":50},{"channel":12,"nextOffset":41986,"note":64,"tick":20969,"time":27.303385416666664,"type":"noteOff","velocity":0},{"channel":2,"nextOffset":27302,"note":31,"tick":20981,"time":27.319010416666664,"type":"noteOff","velocity":0},{"channel":2,"nextOffset":27306,"note":32,"tick":20981,"time":27.319010416666664,"type":"noteOn","velocity":57},{"channel":9,"nextOffset":20243,"note":35,"tick":20990,"time":27.330729166666664,"type":"noteOn","velocity":50},{"channel":9,"nextOffset":24011,"note":35,"tick":20998,"time":27.341145833333332,"type":"noteOff","velocity":0},{"channel":9,"nextOffset":31968,"note":42,"tick":21024,"time":27.374999999999996,"type":"noteOff","velocity":0},{"channel":9,"nextOffset":43873,"note":42,"tick":21056,"time":27.416666666666664,"type":"noteOn","velocity":50},{"channel":1,"nextOffset":15762,"note":31,"tick":21085,"time":27.454427083333332,"type":"noteOff","velocity":0},{"channel":1,"nextOffset":15766,"note":32,"tick":21085,"time":27.454427083333332,"type":"noteOn","velocity":50},{"channel":9,"nextOffset":20247,"note":35,"tick":21086,"time":27.455729166666664,"type":"noteOff","velocity":0},{"channel":8,"nextOffset":40255,"note":60,"tick":21088,"time":27.458333333333332,"type":"noteOff","velocity":0},{"channel":8,"nextOffset":40259,"note":62,"tick":21088,"time":27.458333333333332,"type":"noteOn","velocity":50},{"channel":9,"nextOffset":24015,"note":35,"tick":21094,"time":27.466145833333332,"type":"noteOn","velocity":50},{"channel":11,"nextOffset":41769,"note":61,"tick":21134,"time":27.518229166666664,"type":"noteOff","velocity":0},{"channel":11,"nextOffset":41773,"note":64,"tick":21134,"time":27.518229166666664,"type":"noteOff","velocity":0},{"channel":9,"nextOffset":43877,"note":42,"tick":21152,"time":27.541666666666664,"type":"noteOff","velocity":0},{"channel":12,"nextOffset":41991,"note":67,"tick":21161,"time":27.553385416666664,"type":"noteOn","velocity":50},{"channel":2,"nextOffset":27311,"note":32,"tick":21173,"time":27.569010416666664,"type":"noteOff","velocity":0},{"channel":2,"nextOffset":27315,"note":33,"tick":21173,"time":27.569010416666664,"type":"noteOn","velocity":57},{"channel":9,"nextOffset":24019,"note":35,"tick":21190,"time":27.591145833333332,"type":"noteOff","velocity":0},{"channel":9,"nextOffset":31973,"note":42,"tick":21216,"time":27.624999999999996,"type":"noteOn","velocity":50},{"channel":1,"nextOffset":15771,"note":32,"tick":21277,"time":27.704427083333332,"type":"noteOff","velocity":0},{"channel":1,"nextOffset":15775,"note":33,"tick":21277,"time":27.704427083333332,"type":"noteOn","velocity":50},{"channel":8,"nextOffset":40264,"note":62,"tick":21280,"time":27.708333333333332,"type":"noteOff","velocity":0},{"channel":9,"nextOffset":31977,"note":42,"tick":21312,"time":27.749999999999996,"type":"noteOff","velocity":0},{"channel":12,"nextOffset":41996,"note":67,"tick":21353,"time":27.803385416666664,"type":"noteOff","velocity":0},{"channel":2,"nextOffset":39856,"note":0,"tick":21363,"time":27.816406249999996,"type":"noteOff","velocity":96},{"channel":2,"nextOffset":27320,"note":33,"tick":21365,"time":27.819010416666664,"type":"noteOff","velocity":0},{"channel":9,"nextOffset":20252,"note":35,"tick":21374,"time":27.830729166666664,"type":"noteOn","velocity":50},{"channel":9,"nextOffset":43882,"note":42,"tick":21440,"time":27.916666666666664,"type":"noteOn","velocity":50},{"channel":2,"nextOffset":27324,"note":33,"tick":21461,"time":27.944010416666664,"type":"noteOn","velocity":57},{"channel":1,"nextOffset":15780,"note":33,"tick":21469,"time":27.954427083333332,"type":"noteOff","velocity":0},{"channel":9,"nextOffset":20256,"note":35,"tick":21470,"time":27.955729166666664,"type":"noteOff","velocity":0},{"channel":9,"nextOffset":24024,"note":35,"tick":21478,"time":27.966145833333332,"type":"noteOn","velocity":50},{"channel":9,"nextOffset":31982,"note":42,"tick":21504,"time":27.999999999999996,"type":"noteOn","velocity":50},{"channel":9,"nextOffset":43886,"note":42,"tick":21536,"time":28.041666666666664,"type":"noteOff","velocity":0},{"channel":9,"nextOffset":43890,"note":42,"tick":21536,"time":28.041666666666664,"type":"noteOn","velocity":50},{"channel":12,"nextOffset":42001,"note":65,"tick":21545,"time":28.053385416666664,"type":"noteOn","velocity":50},{"channel":2,"nextOffset":27328,"note":33,"tick":21557,"time":28.069010416666664,"type":"noteOff","velocity":0},{"channel":1,"nextOffset":15784,"note":33,"tick":21565,"time":28.079427083333332,"type":"noteOn","velocity":50},{"channel":9,"nextOffset":24028,"note":35,"tick":21574,"time":28.091145833333332,"type":"noteOff","velocity":0},{"channel":9,"nextOffset":31986,"note":42,"tick":21600,"time":28.124999999999996,"type":"noteOff","velocity":0},{"channel":9,"nextOffset":31990,"note":42,"tick":21600,"time":28.124999999999996,"type":"noteOn","velocity":50},{"channel":9,"nextOffset":31994,"note":42,"tick":21624,"time":28.156249999999996,"type":"noteOff","velocity":0},{"channel":9,"nextOffset":43894,"note":42,"tick":21632,"time":28.166666666666664,"type":"noteOff","velocity":0},{"channel":9,"nextOffset":31998,"note":42,"tick":21648,"time":28.187499999999996,"type":"noteOn","velocity":50},{"channel":1,"nextOffset":15788,"note":33,"tick":21661,"time":28.204427083333332,"type":"noteOff","velocity":0},{"channel":9,"nextOffset":32002,"note":42,"tick":21672,"time":28.218749999999996,"type":"noteOff","velocity":0},{"channel":3,"nextOffset":43283,"note":50,"tick":21693,"time":28.246093749999996,"type":"noteOff","velocity":96},{"channel":3,"nextOffset":43370,"note":50,"tick":21694,"time":28.247395833333332,"type":"noteOff","velocity":96},{"channel":9,"nextOffset":32006,"note":42,"tick":21696,"time":28.249999999999996,"type":"noteOn","velocity":50},{"channel":9,"nextOffset":32010,"note":42,"tick":21720,"time":28.281249999999996,"type":"noteOff","velocity":0},{"channel":12,"nextOffset":42006,"note":65,"tick":21737,"time":28.303385416666664,"type":"noteOff","velocity":0},{"channel":9,"nextOffset":32014,"note":42,"tick":21744,"time":28.312499999999996,"type":"noteOn","velocity":50},{"channel":2,"nextOffset":27333,"note":26,"tick":21749,"time":28.319010416666664,"type":"noteOn","velocity":57},{"channel":9,"nextOffset":20261,"note":35,"tick":21758,"time":28.330729166666664,"type":"noteOn","velocity":50},{"channel":9,"nextOffset":32018,"note":42,"tick":21768,"time":28.343749999999996,"type":"noteOff","velocity":0},{"channel":9,"nextOffset":32022,"note":42,"tick":21792,"time":28.374999999999996,"type":"noteOn","velocity":50},{"channel":9,"nextOffset":32026,"note":42,"tick":21816,"time":28.406249999999996,"type":"noteOff","velocity":0},{"channel":9,"nextOffset":43899,"note":42,"tick":21824,"time":28.416666666666664,"type":"noteOn","velocity":50},{"channel":1,"nextOffset":15793,"note":26,"tick":21853,"time":28.454427083333332,"type":"noteOn","velocity":50},{"channel":9,"nextOffset":20265,"note":35,"tick":21854,"time":28.455729166666664,"type":"noteOff","velocity":0},{"channel":9,"nextOffset":24033,"note":35,"tick":21862,"time":28.466145833333332,"type":"noteOn","velocity":50},{"channel":9,"nextOffset":43903,"note":42,"tick":21920,"time":28.541666666666664,"type":"noteOff","velocity":0},{"channel":12,"nextOffset":42011,"note":64,"tick":21929,"time":28.553385416666664,"type":"noteOn","velocity":50},{"channel":2,"nextOffset":27338,"note":26,"tick":21941,"time":28.569010416666664,"type":"noteOff","velocity":0},{"channel":9,"nextOffset":24037,"note":35,"tick":21958,"time":28.591145833333332,"type":"noteOff","velocity":0},{"channel":9,"nextOffset":32031,"note":42,"tick":21984,"time":28.624999999999996,"type":"noteOn","velocity":50},{"channel":1,"nextOffset":15798,"note":26,"tick":22045,"time":28.704427083333332,"type":"noteOff","velocity":0},{"channel":9,"nextOffset":20270,"note":35,"tick":22046,"time":28.705729166666664,"type":"noteOn","velocity":50},{"channel":9,"nextOffset":32035,"note":42,"tick":22080,"time":28.749999999999996,"type":"noteOff","velocity":0},{"channel":9,"nextOffset":32039,"note":42,"tick":22080,"time":28.749999999999996,"type":"noteOn","velocity":50},{"channel":9,"nextOffset":43908,"note":42,"tick":22112,"time":28.791666666666664,"type":"noteOn","velocity":50},{"channel":12,"nextOffset":42016,"note":64,"tick":22121,"time":28.803385416666664,"type":"noteOff","velocity":0},{"channel":2,"nextOffset":27343,"note":38,"tick":22133,"time":28.819010416666664,"type":"noteOn","velocity":57},{"channel":9,"nextOffset":20274,"note":35,"tick":22142,"time":28.830729166666664,"type":"noteOff","velocity":0},{"channel":9,"nextOffset":24042,"note":35,"tick":22150,"time":28.841145833333332,"type":"noteOn","velocity":50},{"channel":9,"nextOffset":32043,"note":42,"tick":22176,"time":28.874999999999996,"type":"noteOff","velocity":0},{"channel":9,"nextOffset":43912,"note":42,"tick":22208,"time":28.916666666666664,"type":"noteOff","velocity":0},{"channel":9,"nextOffset":43916,"note":42,"tick":22208,"time":28.916666666666664,"type":"noteOn","velocity":50},{"channel":9,"nextOffset":43920,"note":42,"tick":22232,"time":28.947916666666664,"type":"noteOff","velocity":0},{"channel":1,"nextOffset":15803,"note":38,"tick":22237,"time":28.954427083333332,"type":"noteOn","velocity":50},{"channel":9,"nextOffset":24046,"note":35,"tick":22246,"time":28.966145833333332,"type":"noteOff","velocity":0},{"channel":9,"nextOffset":43924,"note":42,"tick":22256,"time":28.979166666666664,"type":"noteOn","velocity":50},{"channel":9,"nextOffset":43928,"note":42,"tick":22280,"time":29.010416666666664,"type":"noteOff","velocity":0},{"channel":9,"nextOffset":43932,"note":42,"tick":22304,"time":29.041666666666664,"type":"noteOn","velocity":50},{"channel":12,"nextOffset":42021,"note":62,"tick":22313,"time":29.053385416666664,"type":"noteOn","velocity":50},{"channel":2,"nextOffset":27348,"note":38,"tick":22325,"time":29.069010416666664,"type":"noteOff","velocity":0},{"channel":2,"nextOffset":27352,"note":26,"tick":22325,"time":29.069010416666664,"type":"noteOn","velocity":57},{"channel":9,"nextOffset":43936,"note":42,"tick":22328,"time":29.072916666666664,"type":"noteOff","velocity":0},{"channel":9,"nextOffset":20279,"note":35,"tick":22334,"time":29.080729166666664,"type":"noteOn","velocity":50},{"channel":9,"nextOffset":43940,"note":42,"tick":22352,"time":29.104166666666664,"type":"noteOn","velocity":50},{"channel":9,"nextOffset":32048,"note":42,"tick":22368,"time":29.124999999999996,"type":"noteOn","velocity":50},{"channel":9,"nextOffset":43944,"note":42,"tick":22376,"time":29.135416666666664,"type":"noteOff","velocity":0},{"channel":1,"nextOffset":15808,"note":38,"tick":22429,"time":29.204427083333332,"type":"noteOff","velocity":0},{"channel":1,"nextOffset":15812,"note":26,"tick":22429,"time":29.204427083333332,"type":"noteOn","velocity":50},{"channel":9,"nextOffset":20283,"note":35,"tick":22430,"time":29.205729166666664,"type":"noteOff","velocity":0},{"channel":9,"nextOffset":24051,"note":35,"tick":22438,"time":29.216145833333332,"type":"noteOn","velocity":50},{"channel":9,"nextOffset":32052,"note":42,"tick":22464,"time":29.249999999999996,"type":"noteOff","velocity":0},{"channel":9,"nextOffset":32056,"note":42,"tick":22464,"time":29.249999999999996,"type":"noteOn","velocity":50},{"channel":12,"nextOffset":42026,"note":62,"tick":22505,"time":29.303385416666664,"type":"noteOff","velocity":0},{"channel":2,"nextOffset":27357,"note":26,"tick":22517,"time":29.319010416666664,"type":"noteOff","velocity":0},{"channel":2,"nextOffset":27361,"note":33,"tick":22517,"time":29.319010416666664,"type":"noteOn","velocity":57},{"channel":9,"nextOffset":20287,"note":35,"tick":22526,"time":29.330729166666664,"type":"noteOn","velocity":50},{"channel":9,"nextOffset":24055,"note":35,"tick":22534,"time":29.341145833333332,"type":"noteOff","velocity":0},{"channel":9,"nextOffset":32060,"note":42,"tick":22560,"time":29.374999999999996,"type":"noteOff","velocity":0},{"channel":9,"nextOffset":43949,"note":42,"tick":22592,"time":29.416666666666664,"type":"noteOn","velocity":50},{"channel":1,"nextOffset":15817,"note":26,"tick":22621,"time":29.454427083333332,"type":"noteOff","velocity":0},{"channel":1,"nextOffset":15821,"note":33,"tick":22621,"time":29.454427083333332,"type":"noteOn","velocity":50},{"channel":9,"nextOffset":20291,"note":35,"tick":22622,"time":29.455729166666664,"type":"noteOff","velocity":0},{"channel":9,"nextOffset":24059,"note":35,"tick":22630,"time":29.466145833333332,"type":"noteOn","velocity":50},{"channel":9,"nextOffset":43953,"note":42,"tick":22688,"time":29.541666666666664,"type":"noteOff","velocity":0},{"channel":9,"nextOffset":43957,"note":42,"tick":22688,"time":29.541666666666664,"type":"noteOn","velocity":50},{"channel":12,"nextOffset":42031,"note":65,"tick":22697,"time":29.553385416666664,"type":"noteOn","velocity":50},{"channel":2,"nextOffset":27366,"note":33,"tick":22709,"time":29.569010416666664,"type":"noteOff","velocity":0},{"channel":9,"nextOffset":24063,"note":35,"tick":22726,"time":29.591145833333332,"type":"noteOff","velocity":0},{"channel":9,"nextOffset":32065,"note":42,"tick":22752,"time":29.624999999999996,"type":"noteOn","velocity":50},{"channel":9,"nextOffset":43961,"note":42,"tick":22784,"time":29.666666666666664,"type":"noteOff","velocity":0},{"channel":1,"nextOffset":15826,"note":33,"tick":22813,"time":29.704427083333332,"type":"noteOff","velocity":0},{"channel":8,"nextOffset":40269,"note":68,"tick":22816,"time":29.708333333333332,"type":"noteOn","velocity":50},{"channel":9,"nextOffset":32069,"note":42,"tick":22848,"time":29.749999999999996,"type":"noteOff","velocity":0},{"channel":8,"nextOffset":40273,"note":69,"tick":22864,"time":29.770833333333332,"type":"noteOn","velocity":50},{"channel":8,"nextOffset":40277,"note":68,"tick":22880,"time":29.791666666666664,"type":"noteOff","velocity":0},{"channel":12,"nextOffset":42036,"note":65,"tick":22889,"time":29.803385416666664,"type":"noteOff","velocity":0},{"channel":3,"nextOffset":43287,"note":0,"tick":22897,"time":29.813802083333332,"type":"noteOff","velocity":132},{"channel":3,"nextOffset":43374,"note":0,"tick":22898,"time":29.815104166666664,"type":"noteOff","velocity":132},{"channel":2,"nextOffset":27371,"note":26,"tick":22901,"time":29.819010416666664,"type":"noteOn","velocity":57},{"channel":9,"nextOffset":20296,"note":35,"tick":22910,"time":29.830729166666664,"type":"noteOn","velocity":50},{"channel":2,"nextOffset":37705,"note":70,"tick":22945,"time":29.876302083333332,"type":"noteOff","velocity":96},{"channel":9,"nextOffset":43966,"note":42,"tick":22976,"time":29.916666666666664,"type":"noteOn","velocity":50},{"channel":1,"nextOffset":15831,"note":26,"tick":23005,"time":29.954427083333332,"type":"noteOn","velocity":50},{"channel":9,"nextOffset":20300,"note":35,"tick":23006,"time":29.955729166666664,"type":"noteOff","velocity":0},{"channel":8,"nextOffset":40282,"note":69,"tick":23008,"time":29.958333333333332,"type":"noteOff","velocity":0},{"channel":9,"nextOffset":24068,"note":35,"tick":23014,"time":29.966145833333332,"type":"noteOn","velocity":50},{"channel":9,"nextOffset":32074,"note":42,"tick":23040,"time":29.999999999999996,"type":"noteOn","velocity":50},{"channel":9,"nextOffset":43970,"note":42,"tick":23072,"time":30.041666666666664,"type":"noteOff","velocity":0},{"channel":9,"nextOffset":43974,"note":42,"tick":23072,"time":30.041666666666664,"type":"noteOn","velocity":50},{"channel":12,"nextOffset":42041,"note":64,"tick":23081,"time":30.053385416666664,"type":"noteOn","velocity":50},{"channel":2,"nextOffset":27376,"note":26,"tick":23093,"time":30.069010416666664,"type":"noteOff","velocity":0},{"channel":2,"nextOffset":27380,"note":33,"tick":23093,"time":30.069010416666664,"type":"noteOn","velocity":57},{"channel":9,"nextOffset":24072,"note":35,"tick":23110,"time":30.091145833333332,"type":"noteOff","velocity":0},{"channel":9,"nextOffset":32078,"note":42,"tick":23136,"time":30.124999999999996,"type":"noteOff","velocity":0},{"channel":9,"nextOffset":32082,"note":42,"tick":23136,"time":30.124999999999996,"type":"noteOn","velocity":50},{"channel":9,"nextOffset":32086,"note":42,"tick":23160,"time":30.156249999999996,"type":"noteOff","velocity":0},{"channel":9,"nextOffset":43978,"note":42,"tick":23168,"time":30.166666666666664,"type":"noteOff","velocity":0},{"channel":9,"nextOffset":32090,"note":42,"tick":23184,"time":30.187499999999996,"type":"noteOn","velocity":50},{"channel":1,"nextOffset":15836,"note":26,"tick":23197,"time":30.204427083333332,"type":"noteOff","velocity":0},{"channel":1,"nextOffset":15840,"note":33,"tick":23197,"time":30.204427083333332,"type":"noteOn","velocity":50},{"channel":8,"nextOffset":40287,"note":67,"tick":23200,"time":30.208333333333332,"type":"noteOn","velocity":50},{"channel":9,"nextOffset":32094,"note":42,"tick":23208,"time":30.218749999999996,"type":"noteOff","velocity":0},{"channel":9,"nextOffset":32098,"note":42,"tick":23232,"time":30.249999999999996,"type":"noteOn","velocity":50},{"channel":9,"nextOffset":32102,"note":42,"tick":23256,"time":30.281249999999996,"type":"noteOff","velocity":0},{"channel":12,"nextOffset":42046,"note":64,"tick":23273,"time":30.303385416666664,"type":"noteOff","velocity":0},{"channel":9,"nextOffset":32106,"note":42,"tick":23280,"time":30.312499999999996,"type":"noteOn","velocity":50},{"channel":2,"nextOffset":27385,"note":33,"tick":23285,"time":30.319010416666664,"type":"noteOff","velocity":0},{"channel":2,"nextOffset":27389,"note":32,"tick":23285,"time":30.319010416666664,"type":"noteOn","velocity":57},{"channel":2,"nextOffset":39565,"note":50,"tick":23285,"time":30.319010416666664,"type":"noteOff","velocity":96},{"channel":9,"nextOffset":20305,"note":35,"tick":23294,"time":30.330729166666664,"type":"noteOn","velocity":50},{"channel":9,"nextOffset":32110,"note":42,"tick":23304,"time":30.343749999999996,"type":"noteOff","velocity":0},{"channel":9,"nextOffset":32114,"note":42,"tick":23328,"time":30.374999999999996,"type":"noteOn","velocity":50},{"channel":9,"nextOffset":32118,"note":42,"tick":23352,"time":30.406249999999996,"type":"noteOff","velocity":0},{"channel":9,"nextOffset":43983,"note":42,"tick":23360,"time":30.416666666666664,"type":"noteOn","velocity":50},{"channel":1,"nextOffset":15845,"note":33,"tick":23389,"time":30.454427083333332,"type":"noteOff","velocity":0},{"channel":1,"nextOffset":15849,"note":32,"tick":23389,"time":30.454427083333332,"type":"noteOn","velocity":50},{"channel":9,"nextOffset":20309,"note":35,"tick":23390,"time":30.455729166666664,"type":"noteOff","velocity":0},{"channel":8,"nextOffset":40292,"note":67,"tick":23392,"time":30.458333333333332,"type":"noteOff","velocity":0},{"channel":9,"nextOffset":24077,"note":35,"tick":23398,"time":30.466145833333332,"type":"noteOn","velocity":50},{"channel":9,"nextOffset":43987,"note":42,"tick":23456,"time":30.541666666666664,"type":"noteOff","velocity":0},{"channel":12,"nextOffset":42051,"note":67,"tick":23465,"time":30.553385416666664,"type":"noteOn","velocity":50},{"channel":2,"nextOffset":27394,"note":32,"tick":23477,"time":30.569010416666664,"type":"noteOff","velocity":0},{"channel":2,"nextOffset":27398,"note":31,"tick":23477,"time":30.569010416666664,"type":"noteOn","velocity":57},{"channel":9,"nextOffset":24081,"note":35,"tick":23494,"time":30.591145833333332,"type":"noteOff","velocity":0},{"channel":1,"nextOffset":15854,"note":32,"tick":23581,"time":30.704427083333332,"type":"noteOff","velocity":0},{"channel":1,"nextOffset":15858,"note":31,"tick":23581,"time":30.704427083333332,"type":"noteOn","velocity":50},{"channel":9,"nextOffset":20314,"note":35,"tick":23582,"time":30.705729166666664,"type":"noteOn","velocity":50},{"channel":8,"nextOffset":40297,"note":65,"tick":23584,"time":30.708333333333332,"type":"noteOn","velocity":50},{"channel":9,"nextOffset":43992,"note":42,"tick":23648,"time":30.791666666666664,"type":"noteOn","velocity":50},{"channel":12,"nextOffset":42056,"note":67,"tick":23657,"time":30.803385416666664,"type":"noteOff","velocity":0},{"channel":12,"nextOffset":42060,"note":65,"tick":23657,"time":30.803385416666664,"type":"noteOn","velocity":50},{"channel":2,"nextOffset":37709,"note":0,"tick":23664,"time":30.812499999999996,"type":"noteOff","velocity":96},{"channel":2,"nextOffset":27403,"note":31,"tick":23669,"time":30.819010416666664,"type":"noteOff","velocity":0},{"channel":9,"nextOffset":20318,"note":35,"tick":23678,"time":30.830729166666664,"type":"noteOff","velocity":0},{"channel":9,"nextOffset":24086,"note":35,"tick":23686,"time":30.841145833333332,"type":"noteOn","velocity":50},{"channel":9,"nextOffset":43996,"note":42,"tick":23744,"time":30.916666666666664,"type":"noteOff","velocity":0},{"channel":9,"nextOffset":44000,"note":42,"tick":23744,"time":30.916666666666664,"type":"noteOn","velocity":50},{"channel":12,"nextOffset":42064,"note":65,"tick":23753,"time":30.928385416666664,"type":"noteOff","velocity":0},{"channel":9,"nextOffset":44004,"note":42,"tick":23768,"time":30.947916666666664,"type":"noteOff","velocity":0},{"channel":1,"nextOffset":15863,"note":31,"tick":23773,"time":30.954427083333332,"type":"noteOff","velocity":0},{"channel":8,"nextOffset":40302,"note":65,"tick":23776,"time":30.958333333333332,"type":"noteOff","velocity":0},{"channel":9,"nextOffset":24090,"note":35,"tick":23782,"time":30.966145833333332,"type":"noteOff","velocity":0},{"channel":9,"nextOffset":44008,"note":42,"tick":23792,"time":30.979166666666664,"type":"noteOn","velocity":50},{"channel":9,"nextOffset":44012,"note":42,"tick":23816,"time":31.010416666666664,"type":"noteOff","velocity":0},{"channel":9,"nextOffset":44016,"note":42,"tick":23840,"time":31.041666666666664,"type":"noteOn","velocity":50},{"channel":12,"nextOffset":42068,"note":67,"tick":23849,"time":31.053385416666664,"type":"noteOn","velocity":50},{"channel":2,"nextOffset":27408,"note":31,"tick":23861,"time":31.069010416666664,"type":"noteOn","velocity":57},{"channel":9,"nextOffset":44020,"note":42,"tick":23864,"time":31.072916666666664,"type":"noteOff","velocity":0},{"channel":9,"nextOffset":20323,"note":35,"tick":23870,"time":31.080729166666664,"type":"noteOn","velocity":50},{"channel":9,"nextOffset":44024,"note":42,"tick":23888,"time":31.104166666666664,"type":"noteOn","velocity":50},{"channel":9,"nextOffset":44028,"note":42,"tick":23912,"time":31.135416666666664,"type":"noteOff","velocity":0},{"channel":9,"nextOffset":44032,"note":42,"tick":23936,"time":31.166666666666664,"type":"noteOn","velocity":50},{"channel":9,"nextOffset":44036,"note":42,"tick":23960,"time":31.197916666666664,"type":"noteOff","velocity":0},{"channel":1,"nextOffset":15868,"note":31,"tick":23965,"time":31.204427083333332,"type":"noteOn","velocity":50},{"channel":9,"nextOffset":20327,"note":35,"tick":23966,"time":31.205729166666664,"type":"noteOff","velocity":0},{"channel":8,"nextOffset":40307,"note":64,"tick":23968,"time":31.208333333333332,"type":"noteOn","velocity":50},{"channel":9,"nextOffset":24095,"note":35,"tick":23974,"time":31.216145833333332,"type":"noteOn","velocity":50},{"channel":12,"nextOffset":42073,"note":67,"tick":24041,"time":31.303385416666664,"type":"noteOff","velocity":0},{"channel":12,"nextOffset":42077,"note":67,"tick":24041,"time":31.303385416666664,"type":"noteOn","velocity":50},{"channel":2,"nextOffset":27413,"note":31,"tick":24053,"time":31.319010416666664,"type":"noteOff","velocity":0},{"channel":2,"nextOffset":27417,"note":32,"tick":24053,"time":31.319010416666664,"type":"noteOn","velocity":57},{"channel":9,"nextOffset":20331,"note":35,"tick":24062,"time":31.330729166666664,"type":"noteOn","velocity":50},{"channel":9,"nextOffset":24099,"note":35,"tick":24070,"time":31.341145833333332,"type":"noteOff","velocity":0},{"channel":12,"nextOffset":42081,"note":67,"tick":24089,"time":31.365885416666664,"type":"noteOff","velocity":0},{"channel":12,"nextOffset":42085,"note":69,"tick":24089,"time":31.365885416666664,"type":"noteOn","velocity":50},{"channel":9,"nextOffset":44041,"note":42,"tick":24128,"time":31.41666666666666,"type":"noteOn","velocity":50},{"channel":2,"nextOffset":39569,"note":0,"tick":24134,"time":31.42447916666666,"type":"noteOff","velocity":96},{"channel":1,"nextOffset":15873,"note":31,"tick":24157,"time":31.454427083333332,"type":"noteOff","velocity":0},{"channel":1,"nextOffset":15877,"note":32,"tick":24157,"time":31.454427083333332,"type":"noteOn","velocity":50},{"channel":9,"nextOffset":20335,"note":35,"tick":24158,"time":31.45572916666666,"type":"noteOff","velocity":0},{"channel":8,"nextOffset":40312,"note":64,"tick":24160,"time":31.458333333333332,"type":"noteOff","velocity":0},{"channel":9,"nextOffset":24103,"note":35,"tick":24166,"time":31.466145833333332,"type":"noteOn","velocity":50},{"channel":9,"nextOffset":44045,"note":42,"tick":24224,"time":31.54166666666666,"type":"noteOff","velocity":0},{"channel":9,"nextOffset":44049,"note":42,"tick":24224,"time":31.54166666666666,"type":"noteOn","velocity":50},{"channel":12,"nextOffset":42090,"note":69,"tick":24233,"time":31.55338541666666,"type":"noteOff","velocity":0},{"channel":2,"nextOffset":27422,"note":32,"tick":24245,"time":31.56901041666666,"type":"noteOff","velocity":0},{"channel":2,"nextOffset":27426,"note":33,"tick":24245,"time":31.56901041666666,"type":"noteOn","velocity":57},{"channel":2,"nextOffset":27430,"note":33,"tick":24245,"time":31.56901041666666,"type":"noteOn","velocity":57},{"channel":9,"nextOffset":24107,"note":35,"tick":24262,"time":31.591145833333332,"type":"noteOff","velocity":0},{"channel":9,"nextOffset":44053,"note":42,"tick":24320,"time":31.66666666666666,"type":"noteOff","velocity":0},{"channel":1,"nextOffset":15882,"note":32,"tick":24349,"time":31.704427083333332,"type":"noteOff","velocity":0},{"channel":1,"nextOffset":15886,"note":33,"tick":24349,"time":31.704427083333332,"type":"noteOn","velocity":50},{"channel":1,"nextOffset":15890,"note":33,"tick":24349,"time":31.704427083333332,"type":"noteOn","velocity":50},{"channel":8,"nextOffset":40317,"note":67,"tick":24352,"time":31.708333333333332,"type":"noteOn","velocity":50},{"channel":2,"nextOffset":37713,"note":0,"tick":24385,"time":31.751302083333332,"type":"noteOff","velocity":0},{"channel":2,"nextOffset":39860,"note":50,"tick":24400,"time":31.770833333333332,"type":"noteOff","velocity":96},{"channel":12,"nextOffset":42095,"note":69,"tick":24425,"time":31.80338541666666,"type":"noteOn","velocity":50},{"channel":2,"nextOffset":27435,"note":33,"tick":24437,"time":31.81901041666666,"type":"noteOff","velocity":0},{"channel":2,"nextOffset":27439,"note":33,"tick":24437,"time":31.81901041666666,"type":"noteOff","velocity":0},{"channel":9,"nextOffset":20340,"note":35,"tick":24446,"time":31.83072916666666,"type":"noteOn","velocity":50},{"channel":12,"nextOffset":42099,"note":69,"tick":24449,"time":31.83463541666666,"type":"noteOff","velocity":0},{"channel":12,"nextOffset":42103,"note":70,"tick":24449,"time":31.83463541666666,"type":"noteOn","velocity":50},{"channel":9,"nextOffset":43292,"note":52,"tick":24465,"time":31.855468749999996,"type":"noteOn","velocity":50},{"channel":9,"nextOffset":43379,"note":52,"tick":24466,"time":31.856770833333332,"type":"noteOn","velocity":50},{"channel":9,"nextOffset":44058,"note":42,"tick":24512,"time":31.91666666666666,"type":"noteOn","velocity":50},{"channel":9,"nextOffset":44062,"note":42,"tick":24512,"time":31.91666666666666,"type":"noteOn","velocity":50},{"channel":12,"nextOffset":42107,"note":70,"tick":24521,"time":31.92838541666666,"type":"noteOff","velocity":0},{"channel":1,"nextOffset":15895,"note":33,"tick":24541,"time":31.954427083333332,"type":"noteOff","velocity":0},{"channel":1,"nextOffset":15899,"note":33,"tick":24541,"time":31.954427083333332,"type":"noteOff","velocity":0},{"channel":9,"nextOffset":20344,"note":35,"tick":24542,"time":31.95572916666666,"type":"noteOff","velocity":0},{"channel":8,"nextOffset":40322,"note":67,"tick":24544,"time":31.958333333333332,"type":"noteOff","velocity":0},{"channel":9,"nextOffset":24112,"note":35,"tick":24550,"time":31.966145833333332,"type":"noteOn","velocity":50},{"channel":9,"nextOffset":43296,"note":52,"tick":24561,"time":31.980468749999996,"type":"noteOff","velocity":0},{"channel":9,"nextOffset":43383,"note":52,"tick":24562,"time":31.981770833333332,"type":"noteOff","velocity":0},{"channel":9,"nextOffset":44066,"note":42,"tick":24608,"time":32.041666666666664,"type":"noteOff","velocity":0},{"channel":9,"nextOffset":44070,"note":42,"tick":24608,"time":32.041666666666664,"type":"noteOff","velocity":0},{"channel":9,"nextOffset":44074,"note":42,"tick":24608,"time":32.041666666666664,"type":"noteOn","velocity":50},{"channel":12,"nextOffset":42111,"note":69,"tick":24617,"time":32.053385416666664,"type":"noteOn","velocity":50},{"channel":1,"nextOffset":15903,"note":33,"tick":24637,"time":32.079427083333336,"type":"noteOn","velocity":50},{"channel":9,"nextOffset":24116,"note":35,"tick":24646,"time":32.091145833333336,"type":"noteOff","velocity":0},{"channel":9,"nextOffset":43300,"note":52,"tick":24657,"time":32.10546875,"type":"noteOn","velocity":50},{"channel":9,"nextOffset":43387,"note":52,"tick":24658,"time":32.106770833333336,"type":"noteOn","velocity":50},{"channel":9,"nextOffset":44078,"note":42,"tick":24704,"time":32.166666666666664,"type":"noteOff","velocity":0},{"channel":2,"nextOffset":27444,"note":33,"tick":24725,"time":32.194010416666664,"type":"noteOn","velocity":57},{"channel":1,"nextOffset":15907,"note":33,"tick":24733,"time":32.204427083333336,"type":"noteOff","velocity":0},{"channel":8,"nextOffset":40327,"note":65,"tick":24736,"time":32.208333333333336,"type":"noteOn","velocity":50},{"channel":9,"nextOffset":24120,"note":42,"tick":24742,"time":32.216145833333336,"type":"noteOn","velocity":50},{"channel":9,"nextOffset":43304,"note":52,"tick":24753,"time":32.23046875,"type":"noteOff","velocity":0},{"channel":9,"nextOffset":43391,"note":52,"tick":24754,"time":32.231770833333336,"type":"noteOff","velocity":0},{"channel":2,"nextOffset":27448,"note":33,"tick":24821,"time":32.319010416666664,"type":"noteOff","velocity":0},{"channel":2,"nextOffset":27452,"note":26,"tick":24821,"time":32.319010416666664,"type":"noteOn","velocity":57},{"channel":9,"nextOffset":20349,"note":35,"tick":24830,"time":32.330729166666664,"type":"noteOn","velocity":50},{"channel":9,"nextOffset":24124,"note":42,"tick":24838,"time":32.341145833333336,"type":"noteOff","velocity":0},{"channel":9,"nextOffset":43308,"note":52,"tick":24849,"time":32.35546875,"type":"noteOn","velocity":50},{"channel":9,"nextOffset":43395,"note":52,"tick":24850,"time":32.356770833333336,"type":"noteOn","velocity":50},{"channel":9,"nextOffset":44083,"note":42,"tick":24896,"time":32.416666666666664,"type":"noteOn","velocity":50},{"channel":1,"nextOffset":15912,"note":26,"tick":24925,"time":32.454427083333336,"type":"noteOn","velocity":50},{"channel":9,"nextOffset":20353,"note":35,"tick":24926,"time":32.455729166666664,"type":"noteOff","velocity":0},{"channel":8,"nextOffset":40332,"note":65,"tick":24928,"time":32.458333333333336,"type":"noteOff","velocity":0},{"channel":9,"nextOffset":24128,"note":35,"tick":24934,"time":32.466145833333336,"type":"noteOn","velocity":50},{"channel":9,"nextOffset":43312,"note":52,"tick":24945,"time":32.48046875,"type":"noteOff","velocity":0},{"channel":9,"nextOffset":43399,"note":52,"tick":24946,"time":32.481770833333336,"type":"noteOff","velocity":0},{"channel":9,"nextOffset":44087,"note":42,"tick":24992,"time":32.541666666666664,"type":"noteOff","velocity":0},{"channel":2,"nextOffset":27457,"note":26,"tick":25013,"time":32.569010416666664,"type":"noteOff","velocity":0},{"channel":9,"nextOffset":24132,"note":35,"tick":25030,"time":32.591145833333336,"type":"noteOff","velocity":0},{"channel":2,"nextOffset":37717,"note":0,"tick":25102,"time":32.684895833333336,"type":"noteOff","velocity":0},{"channel":1,"nextOffset":15917,"note":26,"tick":25117,"time":32.704427083333336,"type":"noteOff","velocity":0},{"channel":9,"nextOffset":20358,"note":35,"tick":25118,"time":32.705729166666664,"type":"noteOn","velocity":50},{"channel":8,"nextOffset":40337,"note":64,"tick":25120,"time":32.708333333333336,"type":"noteOn","velocity":50},{"channel":9,"nextOffset":44092,"note":42,"tick":25184,"time":32.791666666666664,"type":"noteOn","velocity":50},{"channel":9,"nextOffset":20362,"note":35,"tick":25214,"time":32.830729166666664,"type":"noteOff","velocity":0},{"channel":9,"nextOffset":24137,"note":35,"tick":25222,"time":32.841145833333336,"type":"noteOn","velocity":50},{"channel":9,"nextOffset":44096,"note":42,"tick":25280,"time":32.916666666666664,"type":"noteOff","velocity":0},{"channel":9,"nextOffset":44100,"note":42,"tick":25280,"time":32.916666666666664,"type":"noteOn","velocity":50},{"channel":9,"nextOffset":44104,"note":42,"tick":25304,"time":32.947916666666664,"type":"noteOff","velocity":0},{"channel":8,"nextOffset":40342,"note":64,"tick":25312,"time":32.958333333333336,"type":"noteOff","velocity":0},{"channel":9,"nextOffset":24141,"note":35,"tick":25318,"time":32.966145833333336,"type":"noteOff","velocity":0},{"channel":9,"nextOffset":44108,"note":42,"tick":25328,"time":32.979166666666664,"type":"noteOn","velocity":50},{"channel":9,"nextOffset":44112,"note":42,"tick":25352,"time":33.010416666666664,"type":"noteOff","velocity":0},{"channel":9,"nextOffset":44116,"note":42,"tick":25376,"time":33.041666666666664,"type":"noteOn","velocity":50},{"channel":2,"nextOffset":39864,"note":0,"tick":25389,"time":33.05859375,"type":"noteOff","velocity":96},{"channel":9,"nextOffset":44120,"note":42,"tick":25400,"time":33.072916666666664,"type":"noteOff","velocity":0},{"channel":9,"nextOffset":20367,"note":35,"tick":25406,"time":33.080729166666664,"type":"noteOn","velocity":50},{"channel":9,"nextOffset":44124,"note":42,"tick":25424,"time":33.104166666666664,"type":"noteOn","velocity":50},{"channel":9,"nextOffset":44128,"note":42,"tick":25448,"time":33.135416666666664,"type":"noteOff","velocity":0},{"channel":9,"nextOffset":44132,"note":42,"tick":25472,"time":33.166666666666664,"type":"noteOn","velocity":50},{"channel":9,"nextOffset":44136,"note":42,"tick":25496,"time":33.197916666666664,"type":"noteOff","velocity":0},{"channel":9,"nextOffset":20371,"note":35,"tick":25502,"time":33.205729166666664,"type":"noteOff","velocity":0},{"channel":8,"nextOffset":40347,"note":62,"tick":25504,"time":33.208333333333336,"type":"noteOn","velocity":50},{"channel":9,"nextOffset":24146,"note":35,"tick":25510,"time":33.216145833333336,"type":"noteOn","velocity":50},{"channel":9,"nextOffset":20375,"note":35,"tick":25598,"time":33.330729166666664,"type":"noteOn","velocity":50},{"channel":9,"nextOffset":24150,"note":35,"tick":25606,"time":33.341145833333336,"type":"noteOff","velocity":0},{"channel":9,"nextOffset":44141,"note":42,"tick":25664,"time":33.416666666666664,"type":"noteOn","velocity":50},{"channel":12,"nextOffset":42116,"note":69,"tick":25673,"time":33.428385416666664,"type":"noteOff","velocity":0},{"channel":9,"nextOffset":20379,"note":35,"tick":25694,"time":33.455729166666664,"type":"noteOff","velocity":0},{"channel":8,"nextOffset":40352,"note":62,"tick":25696,"time":33.458333333333336,"type":"noteOff","velocity":0},{"channel":9,"nextOffset":24154,"note":35,"tick":25702,"time":33.466145833333336,"type":"noteOn","velocity":50},{"channel":9,"nextOffset":44145,"note":42,"tick":25760,"time":33.541666666666664,"type":"noteOff","velocity":0},{"channel":9,"nextOffset":44149,"note":42,"tick":25760,"time":33.541666666666664,"type":"noteOn","velocity":50},{"channel":12,"nextOffset":42120,"note":68,"tick":25769,"time":33.553385416666664,"type":"noteOn","velocity":50},{"channel":9,"nextOffset":24158,"note":35,"tick":25798,"time":33.591145833333336,"type":"noteOff","velocity":0},{"channel":2,"nextOffset":37721,"note":0,"tick":25816,"time":33.614583333333336,"type":"noteOff","velocity":0},{"channel":12,"nextOffset":42124,"note":69,"tick":25817,"time":33.615885416666664,"type":"noteOn","velocity":50},{"channel":12,"nextOffset":42128,"note":68,"tick":25833,"time":33.63671875,"type":"noteOff","velocity":0},{"channel":9,"nextOffset":44153,"note":42,"tick":25856,"time":33.666666666666664,"type":"noteOff","velocity":0},{"channel":8,"nextOffset":40357,"note":65,"tick":25888,"time":33.708333333333336,"type":"noteOn","velocity":50},{"channel":12,"nextOffset":42133,"note":69,"tick":25961,"time":33.803385416666664,"type":"noteOff","velocity":0},{"channel":9,"nextOffset":20384,"note":35,"tick":25982,"time":33.830729166666664,"type":"noteOn","velocity":50},{"channel":9,"nextOffset":44158,"note":42,"tick":26048,"time":33.916666666666664,"type":"noteOn","velocity":50},{"channel":9,"nextOffset":20388,"note":35,"tick":26078,"time":33.955729166666664,"type":"noteOff","velocity":0},{"channel":8,"nextOffset":40362,"note":65,"tick":26080,"time":33.958333333333336,"type":"noteOff","velocity":0},{"channel":9,"nextOffset":24163,"note":35,"tick":26086,"time":33.966145833333336,"type":"noteOn","velocity":50},{"channel":9,"nextOffset":44162,"note":42,"tick":26144,"time":34.041666666666664,"type":"noteOff","velocity":0},{"channel":9,"nextOffset":44166,"note":42,"tick":26144,"time":34.041666666666664,"type":"noteOn","velocity":50},{"channel":12,"nextOffset":42138,"note":67,"tick":26153,"time":34.053385416666664,"type":"noteOn","velocity":50},{"channel":9,"nextOffset":24167,"note":35,"tick":26182,"time":34.091145833333336,"type":"noteOff","velocity":0},{"channel":9,"nextOffset":44170,"note":42,"tick":26240,"time":34.166666666666664,"type":"noteOff","velocity":0},{"channel":8,"nextOffset":40367,"note":64,"tick":26272,"time":34.208333333333336,"type":"noteOn","velocity":50},{"channel":12,"nextOffset":42143,"note":67,"tick":26345,"time":34.303385416666664,"type":"noteOff","velocity":0},{"channel":9,"nextOffset":20393,"note":35,"tick":26366,"time":34.330729166666664,"type":"noteOn","velocity":50},{"channel":9,"nextOffset":44175,"note":42,"tick":26432,"time":34.416666666666664,"type":"noteOn","velocity":50},{"channel":9,"nextOffset":20397,"note":35,"tick":26462,"time":34.455729166666664,"type":"noteOff","velocity":0},{"channel":8,"nextOffset":40372,"note":64,"tick":26464,"time":34.458333333333336,"type":"noteOff","velocity":0},{"channel":9,"nextOffset":24172,"note":35,"tick":26470,"time":34.466145833333336,"type":"noteOn","velocity":50},{"channel":2,"nextOffset":37725,"note":0,"tick":26526,"time":34.5390625,"type":"noteOff","velocity":129},{"channel":9,"nextOffset":44179,"note":42,"tick":26528,"time":34.541666666666664,"type":"noteOff","velocity":0},{"channel":12,"nextOffset":42148,"note":65,"tick":26537,"time":34.553385416666664,"type":"noteOn","velocity":50},{"channel":9,"nextOffset":24176,"note":35,"tick":26566,"time":34.591145833333336,"type":"noteOff","velocity":0},{"channel":5,"nextOffset":37729,"note":70,"tick":26590,"time":34.622395833333336,"type":"noteOn","velocity":70},{"channel":5,"nextOffset":37733,"note":74,"tick":26590,"time":34.622395833333336,"type":"noteOn","velocity":70},{"channel":5,"nextOffset":37737,"note":77,"tick":26590,"time":34.622395833333336,"type":"noteOn","velocity":70},{"channel":5,"nextOffset":37741,"note":81,"tick":26590,"time":34.622395833333336,"type":"noteOn","velocity":70},{"channel":9,"nextOffset":20402,"note":35,"tick":26654,"time":34.705729166666664,"type":"noteOn","velocity":50},{"channel":8,"nextOffset":40377,"note":67,"tick":26656,"time":34.708333333333336,"type":"noteOn","velocity":50},{"channel":9,"nextOffset":44184,"note":42,"tick":26720,"time":34.791666666666664,"type":"noteOn","velocity":50},{"channel":12,"nextOffset":42153,"note":65,"tick":26729,"time":34.803385416666664,"type":"noteOff","velocity":0},{"channel":9,"nextOffset":20406,"note":35,"tick":26750,"time":34.830729166666664,"type":"noteOff","velocity":0},{"channel":9,"nextOffset":24181,"note":35,"tick":26758,"time":34.841145833333336,"type":"noteOn","velocity":50},{"channel":5,"nextOffset":37746,"note":81,"tick":26782,"time":34.872395833333336,"type":"noteOff","velocity":0},{"channel":5,"nextOffset":37750,"note":77,"tick":26782,"time":34.872395833333336,"type":"noteOff","velocity":0},{"channel":5,"nextOffset":37754,"note":74,"tick":26782,"time":34.872395833333336,"type":"noteOff","velocity":0},{"channel":5,"nextOffset":37758,"note":70,"tick":26782,"time":34.872395833333336,"type":"noteOff","velocity":0},{"channel":9,"nextOffset":44188,"note":42,"tick":26816,"time":34.916666666666664,"type":"noteOff","velocity":0},{"channel":9,"nextOffset":44192,"note":42,"tick":26816,"time":34.916666666666664,"type":"noteOn","velocity":50},{"channel":9,"nextOffset":44196,"note":42,"tick":26840,"time":34.947916666666664,"type":"noteOff","velocity":0},{"channel":8,"nextOffset":40382,"note":67,"tick":26848,"time":34.958333333333336,"type":"noteOff","velocity":0},{"channel":8,"nextOffset":40386,"note":65,"tick":26848,"time":34.958333333333336,"type":"noteOn","velocity":50},{"channel":9,"nextOffset":24185,"note":35,"tick":26854,"time":34.966145833333336,"type":"noteOff","velocity":0},{"channel":9,"nextOffset":44200,"note":42,"tick":26864,"time":34.979166666666664,"type":"noteOn","velocity":50},{"channel":9,"nextOffset":44204,"note":42,"tick":26888,"time":35.010416666666664,"type":"noteOff","velocity":0},{"channel":9,"nextOffset":44208,"note":42,"tick":26912,"time":35.041666666666664,"type":"noteOn","velocity":50},{"channel":12,"nextOffset":42158,"note":64,"tick":26921,"time":35.053385416666664,"type":"noteOn","velocity":50},{"channel":9,"nextOffset":44212,"note":42,"tick":26936,"time":35.072916666666664,"type":"noteOff","velocity":0},{"channel":9,"nextOffset":20411,"note":35,"tick":26942,"time":35.080729166666664,"type":"noteOn","velocity":50},{"channel":8,"nextOffset":40390,"note":65,"tick":26944,"time":35.083333333333336,"type":"noteOff","velocity":0},{"channel":9,"nextOffset":44216,"note":42,"tick":26960,"time":35.104166666666664,"type":"noteOn","velocity":50},{"channel":5,"nextOffset":37763,"note":67,"tick":26974,"time":35.122395833333336,"type":"noteOn","velocity":70},{"channel":5,"nextOffset":37767,"note":70,"tick":26974,"time":35.122395833333336,"type":"noteOn","velocity":70},{"channel":5,"nextOffset":37771,"note":73,"tick":26974,"time":35.122395833333336,"type":"noteOn","velocity":70},{"channel":5,"nextOffset":37775,"note":77,"tick":26974,"time":35.122395833333336,"type":"noteOn","velocity":70},{"channel":9,"nextOffset":44220,"note":42,"tick":26984,"time":35.135416666666664,"type":"noteOff","velocity":0},{"channel":9,"nextOffset":44224,"note":42,"tick":27008,"time":35.166666666666664,"type":"noteOn","velocity":50},{"channel":9,"nextOffset":44228,"note":42,"tick":27032,"time":35.197916666666664,"type":"noteOff","velocity":0},{"channel":2,"nextOffset":39573,"note":50,"tick":27034,"time":35.200520833333336,"type":"noteOff","velocity":96},{"channel":9,"nextOffset":20415,"note":35,"tick":27038,"time":35.205729166666664,"type":"noteOff","velocity":0},{"channel":8,"nextOffset":40394,"note":67,"tick":27040,"time":35.208333333333336,"type":"noteOn","velocity":50},{"channel":9,"nextOffset":24190,"note":35,"tick":27046,"time":35.216145833333336,"type":"noteOn","velocity":50},{"channel":12,"nextOffset":42163,"note":64,"tick":27113,"time":35.303385416666664,"type":"noteOff","velocity":0},{"channel":9,"nextOffset":20419,"note":35,"tick":27134,"time":35.330729166666664,"type":"noteOn","velocity":50},{"channel":9,"nextOffset":24194,"note":35,"tick":27142,"time":35.341145833333336,"type":"noteOff","velocity":0},{"channel":5,"nextOffset":37780,"note":77,"tick":27166,"time":35.372395833333336,"type":"noteOff","velocity":0},{"channel":5,"nextOffset":37784,"note":73,"tick":27166,"time":35.372395833333336,"type":"noteOff","velocity":0},{"channel":5,"nextOffset":37788,"note":70,"tick":27166,"time":35.372395833333336,"type":"noteOff","velocity":0},{"channel":5,"nextOffset":37792,"note":67,"tick":27166,"time":35.372395833333336,"type":"noteOff","velocity":0},{"channel":9,"nextOffset":20423,"note":35,"tick":27230,"time":35.455729166666664,"type":"noteOff","velocity":0},{"channel":8,"nextOffset":40399,"note":67,"tick":27232,"time":35.458333333333336,"type":"noteOff","velocity":0},{"channel":8,"nextOffset":40403,"note":67,"tick":27232,"time":35.458333333333336,"type":"noteOn","velocity":50},{"channel":9,"nextOffset":24198,"note":35,"tick":27238,"time":35.466145833333336,"type":"noteOn","velocity":50},{"channel":8,"nextOffset":40407,"note":67,"tick":27280,"time":35.520833333333336,"type":"noteOff","velocity":0},{"channel":8,"nextOffset":40411,"note":69,"tick":27280,"time":35.520833333333336,"type":"noteOn","velocity":50},{"channel":12,"nextOffset":42168,"note":67,"tick":27305,"time":35.553385416666664,"type":"noteOn","velocity":50},{"channel":9,"nextOffset":24202,"note":35,"tick":27334,"time":35.591145833333336,"type":"noteOff","velocity":0},{"channel":5,"nextOffset":37797,"note":70,"tick":27358,"time":35.622395833333336,"type":"noteOn","velocity":70},{"channel":5,"nextOffset":37801,"note":67,"tick":27358,"time":35.622395833333336,"type":"noteOn","velocity":70},{"channel":5,"nextOffset":37805,"note":73,"tick":27358,"time":35.622395833333336,"type":"noteOn","velocity":70},{"channel":5,"nextOffset":37809,"note":76,"tick":27358,"time":35.622395833333336,"type":"noteOn","velocity":70},{"channel":8,"nextOffset":40416,"note":69,"tick":27424,"time":35.708333333333336,"type":"noteOff","velocity":0},{"channel":12,"nextOffset":42173,"note":67,"tick":27497,"time":35.803385416666664,"type":"noteOff","velocity":0},{"channel":5,"nextOffset":37814,"note":76,"tick":27550,"time":35.872395833333336,"type":"noteOff","velocity":0},{"channel":5,"nextOffset":37818,"note":73,"tick":27550,"time":35.872395833333336,"type":"noteOff","velocity":0},{"channel":5,"nextOffset":37822,"note":67,"tick":27550,"time":35.872395833333336,"type":"noteOff","velocity":0},{"channel":5,"nextOffset":37826,"note":70,"tick":27550,"time":35.872395833333336,"type":"noteOff","velocity":0},{"channel":8,"nextOffset":40421,"note":69,"tick":27616,"time":35.958333333333336,"type":"noteOn","velocity":50},{"channel":8,"nextOffset":40425,"note":69,"tick":27640,"time":35.989583333333336,"type":"noteOff","velocity":0},{"channel":8,"nextOffset":40429,"note":70,"tick":27640,"time":35.989583333333336,"type":"noteOn","velocity":50},{"channel":12,"nextOffset":42178,"note":65,"tick":27689,"time":36.053385416666664,"type":"noteOn","velocity":50},{"channel":8,"nextOffset":40433,"note":70,"tick":27712,"time":36.083333333333336,"type":"noteOff","velocity":0},{"channel":5,"nextOffset":37831,"note":72,"tick":27742,"time":36.122395833333336,"type":"noteOn","velocity":70},{"channel":5,"nextOffset":37835,"note":69,"tick":27742,"time":36.122395833333336,"type":"noteOn","velocity":70},{"channel":5,"nextOffset":37839,"note":76,"tick":27742,"time":36.122395833333336,"type":"noteOn","velocity":70},{"channel":5,"nextOffset":37843,"note":79,"tick":27742,"time":36.122395833333336,"type":"noteOn","velocity":70},{"channel":8,"nextOffset":40437,"note":69,"tick":27808,"time":36.208333333333336,"type":"noteOn","velocity":50},{"channel":12,"nextOffset":42183,"note":65,"tick":27881,"time":36.303385416666664,"type":"noteOff","velocity":0},{"channel":2,"nextOffset":39577,"note":0,"tick":27886,"time":36.309895833333336,"type":"noteOff","velocity":96},{"channel":5,"nextOffset":37848,"note":79,"tick":27934,"time":36.372395833333336,"type":"noteOff","velocity":0},{"channel":5,"nextOffset":37852,"note":76,"tick":27934,"time":36.372395833333336,"type":"noteOff","velocity":0},{"channel":5,"nextOffset":37856,"note":69,"tick":27934,"time":36.372395833333336,"type":"noteOff","velocity":0},{"channel":5,"nextOffset":37860,"note":72,"tick":27934,"time":36.372395833333336,"type":"noteOff","velocity":0},{"channel":12,"nextOffset":42188,"note":64,"tick":28073,"time":36.553385416666664,"type":"noteOn","velocity":50},{"channel":5,"nextOffset":37865,"note":72,"tick":28126,"time":36.622395833333336,"type":"noteOn","velocity":70},{"channel":5,"nextOffset":37869,"note":69,"tick":28126,"time":36.622395833333336,"type":"noteOn","velocity":70},{"channel":5,"nextOffset":37873,"note":74,"tick":28126,"time":36.622395833333336,"type":"noteOn","velocity":70},{"channel":5,"nextOffset":37877,"note":77,"tick":28126,"time":36.622395833333336,"type":"noteOn","velocity":70},{"channel":12,"nextOffset":42193,"note":64,"tick":28265,"time":36.803385416666664,"type":"noteOff","velocity":0},{"channel":5,"nextOffset":37882,"note":77,"tick":28318,"time":36.872395833333336,"type":"noteOff","velocity":0},{"channel":5,"nextOffset":37886,"note":74,"tick":28318,"time":36.872395833333336,"type":"noteOff","velocity":0},{"channel":5,"nextOffset":37890,"note":69,"tick":28318,"time":36.872395833333336,"type":"noteOff","velocity":0},{"channel":5,"nextOffset":37894,"note":72,"tick":28318,"time":36.872395833333336,"type":"noteOff","velocity":0},{"channel":2,"nextOffset":39868,"note":50,"tick":28428,"time":37.015625,"type":"noteOff","velocity":96},{"channel":12,"nextOffset":42198,"note":62,"tick":28457,"time":37.053385416666664,"type":"noteOn","velocity":50},{"channel":5,"nextOffset":37899,"note":69,"tick":28510,"time":37.122395833333336,"type":"noteOn","velocity":70},{"channel":5,"nextOffset":37903,"note":67,"tick":28510,"time":37.122395833333336,"type":"noteOn","velocity":70},{"channel":5,"nextOffset":37907,"note":72,"tick":28510,"time":37.122395833333336,"type":"noteOn","velocity":70},{"channel":5,"nextOffset":37911,"note":76,"tick":28510,"time":37.122395833333336,"type":"noteOn","velocity":70},{"channel":12,"nextOffset":42203,"note":62,"tick":28649,"time":37.303385416666664,"type":"noteOff","velocity":0},{"channel":5,"nextOffset":37916,"note":76,"tick":28702,"time":37.372395833333336,"type":"noteOff","velocity":0},{"channel":5,"nextOffset":37920,"note":72,"tick":28702,"time":37.372395833333336,"type":"noteOff","velocity":0},{"channel":5,"nextOffset":37924,"note":67,"tick":28702,"time":37.372395833333336,"type":"noteOff","velocity":0},{"channel":5,"nextOffset":37928,"note":69,"tick":28702,"time":37.372395833333336,"type":"noteOff","velocity":0},{"channel":12,"nextOffset":42208,"note":65,"tick":28841,"time":37.553385416666664,"type":"noteOn","velocity":50},{"channel":8,"nextOffset":40442,"note":69,"tick":28864,"time":37.583333333333336,"type":"noteOff","velocity":0},{"channel":5,"nextOffset":37933,"note":69,"tick":28894,"time":37.622395833333336,"type":"noteOn","velocity":70},{"channel":5,"nextOffset":37937,"note":65,"tick":28894,"time":37.622395833333336,"type":"noteOn","velocity":70},{"channel":5,"nextOffset":37941,"note":72,"tick":28894,"time":37.622395833333336,"type":"noteOn","velocity":70},{"channel":5,"nextOffset":37945,"note":74,"tick":28894,"time":37.622395833333336,"type":"noteOn","velocity":70},{"channel":8,"nextOffset":40446,"note":68,"tick":28960,"time":37.708333333333336,"type":"noteOn","velocity":50},{"channel":8,"nextOffset":40450,"note":69,"tick":29008,"time":37.770833333333336,"type":"noteOn","velocity":50},{"channel":8,"nextOffset":40454,"note":68,"tick":29024,"time":37.791666666666664,"type":"noteOff","velocity":0},{"channel":12,"nextOffset":42213,"note":65,"tick":29033,"time":37.803385416666664,"type":"noteOff","velocity":0},{"channel":5,"nextOffset":37950,"note":74,"tick":29086,"time":37.872395833333336,"type":"noteOff","velocity":0},{"channel":5,"nextOffset":37954,"note":72,"tick":29086,"time":37.872395833333336,"type":"noteOff","velocity":0},{"channel":5,"nextOffset":37958,"note":65,"tick":29086,"time":37.872395833333336,"type":"noteOff","velocity":0},{"channel":5,"nextOffset":37962,"note":69,"tick":29086,"time":37.872395833333336,"type":"noteOff","velocity":0},{"channel":8,"nextOffset":40459,"note":69,"tick":29152,"time":37.958333333333336,"type":"noteOff","velocity":0},{"channel":12,"nextOffset":42218,"note":64,"tick":29225,"time":38.053385416666664,"type":"noteOn","velocity":50},{"channel":5,"nextOffset":37967,"note":67,"tick":29278,"time":38.122395833333336,"type":"noteOn","velocity":70},{"channel":5,"nextOffset":37971,"note":70,"tick":29278,"time":38.122395833333336,"type":"noteOn","velocity":70},{"channel":5,"nextOffset":37975,"note":74,"tick":29278,"time":38.122395833333336,"type":"noteOn","velocity":70},{"channel":5,"nextOffset":37979,"note":77,"tick":29278,"time":38.122395833333336,"type":"noteOn","velocity":70},{"channel":8,"nextOffset":40464,"note":67,"tick":29344,"time":38.208333333333336,"type":"noteOn","velocity":50},{"channel":12,"nextOffset":42223,"note":64,"tick":29417,"time":38.303385416666664,"type":"noteOff","velocity":0},{"channel":2,"nextOffset":39872,"note":0,"tick":29419,"time":38.305989583333336,"type":"noteOff","velocity":96},{"channel":5,"nextOffset":37984,"note":77,"tick":29470,"time":38.372395833333336,"type":"noteOff","velocity":0},{"channel":5,"nextOffset":37988,"note":74,"tick":29470,"time":38.372395833333336,"type":"noteOff","velocity":0},{"channel":5,"nextOffset":37992,"note":70,"tick":29470,"time":38.372395833333336,"type":"noteOff","velocity":0},{"channel":5,"nextOffset":37996,"note":67,"tick":29470,"time":38.372395833333336,"type":"noteOff","velocity":0},{"channel":8,"nextOffset":40469,"note":67,"tick":29536,"time":38.458333333333336,"type":"noteOff","velocity":0},{"channel":12,"nextOffset":42228,"note":62,"tick":29609,"time":38.553385416666664,"type":"noteOn","velocity":50},{"channel":5,"nextOffset":38001,"note":67,"tick":29662,"time":38.622395833333336,"type":"noteOn","velocity":70},{"channel":5,"nextOffset":38005,"note":70,"tick":29662,"time":38.622395833333336,"type":"noteOn","velocity":70},{"channel":5,"nextOffset":38009,"note":74,"tick":29662,"time":38.622395833333336,"type":"noteOn","velocity":70},{"channel":5,"nextOffset":38013,"note":76,"tick":29662,"time":38.622395833333336,"type":"noteOn","velocity":70},{"channel":8,"nextOffset":40474,"note":65,"tick":29728,"time":38.708333333333336,"type":"noteOn","velocity":50},{"channel":12,"nextOffset":42233,"note":62,"tick":29801,"time":38.803385416666664,"type":"noteOff","velocity":0},{"channel":5,"nextOffset":38018,"note":76,"tick":29854,"time":38.872395833333336,"type":"noteOff","velocity":0},{"channel":5,"nextOffset":38022,"note":74,"tick":29854,"time":38.872395833333336,"type":"noteOff","velocity":0},{"channel":5,"nextOffset":38026,"note":70,"tick":29854,"time":38.872395833333336,"type":"noteOff","velocity":0},{"channel":5,"nextOffset":38030,"note":67,"tick":29854,"time":38.872395833333336,"type":"noteOff","velocity":0},{"channel":8,"nextOffset":40479,"note":65,"tick":29920,"time":38.958333333333336,"type":"noteOff","velocity":0},{"channel":12,"nextOffset":42238,"note":60,"tick":29993,"time":39.053385416666664,"type":"noteOn","velocity":50},{"channel":5,"nextOffset":38035,"note":64,"tick":30046,"time":39.122395833333336,"type":"noteOn","velocity":70},{"channel":5,"nextOffset":38039,"note":67,"tick":30046,"time":39.122395833333336,"type":"noteOn","velocity":70},{"channel":5,"nextOffset":38043,"note":69,"tick":30046,"time":39.122395833333336,"type":"noteOn","velocity":70},{"channel":5,"nextOffset":38047,"note":74,"tick":30046,"time":39.122395833333336,"type":"noteOn","velocity":70},{"channel":8,"nextOffset":40484,"note":64,"tick":30112,"time":39.208333333333336,"type":"noteOn","velocity":50},{"channel":12,"nextOffset":42243,"note":60,"tick":30185,"time":39.303385416666664,"type":"noteOff","velocity":0},{"channel":12,"nextOffset":42247,"note":62,"tick":30185,"time":39.303385416666664,"type":"noteOn","velocity":50},{"channel":5,"nextOffset":38052,"note":74,"tick":30238,"time":39.372395833333336,"type":"noteOff","velocity":0},{"channel":5,"nextOffset":38056,"note":69,"tick":30238,"time":39.372395833333336,"type":"noteOff","velocity":0},{"channel":5,"nextOffset":38060,"note":67,"tick":30238,"time":39.372395833333336,"type":"noteOff","velocity":0},{"channel":5,"nextOffset":38064,"note":64,"tick":30238,"time":39.372395833333336,"type":"noteOff","velocity":0},{"channel":8,"nextOffset":40489,"note":64,"tick":30304,"time":39.458333333333336,"type":"noteOff","velocity":0},{"channel":12,"nextOffset":42252,"note":62,"tick":30377,"time":39.553385416666664,"type":"noteOff","velocity":0},{"channel":5,"nextOffset":38069,"note":72,"tick":30430,"time":39.622395833333336,"type":"noteOn","velocity":70},{"channel":8,"nextOffset":40494,"note":67,"tick":30496,"time":39.708333333333336,"type":"noteOn","velocity":50},{"channel":9,"nextOffset":37599,"note":44,"tick":30613,"time":39.860677083333336,"type":"noteOn","velocity":64},{"channel":9,"nextOffset":37603,"note":69,"tick":30613,"time":39.860677083333336,"type":"noteOn","velocity":64},{"channel":5,"nextOffset":38074,"note":72,"tick":30622,"time":39.872395833333336,"type":"noteOff","velocity":0},{"channel":5,"nextOffset":38078,"note":65,"tick":30622,"time":39.872395833333336,"type":"noteOn","velocity":70},{"channel":5,"nextOffset":38082,"note":69,"tick":30622,"time":39.872395833333336,"type":"noteOn","velocity":70},{"channel":5,"nextOffset":38086,"note":72,"tick":30622,"time":39.872395833333336,"type":"noteOn","velocity":70},{"channel":5,"nextOffset":38090,"note":74,"tick":30622,"time":39.872395833333336,"type":"noteOn","velocity":70},{"channel":9,"nextOffset":37607,"note":69,"tick":30637,"time":39.891927083333336,"type":"noteOff","velocity":0},{"channel":9,"nextOffset":37611,"note":44,"tick":30637,"time":39.891927083333336,"type":"noteOff","velocity":0},{"channel":8,"nextOffset":40499,"note":67,"tick":30688,"time":39.958333333333336,"type":"noteOff","velocity":0},{"channel":2,"nextOffset":39581,"note":50,"tick":30784,"time":40.083333333333336,"type":"noteOff","velocity":96},{"channel":5,"nextOffset":38095,"note":74,"tick":30814,"time":40.122395833333336,"type":"noteOff","velocity":0},{"channel":5,"nextOffset":38099,"note":72,"tick":30814,"time":40.122395833333336,"type":"noteOff","velocity":0},{"channel":5,"nextOffset":38103,"note":69,"tick":30814,"time":40.122395833333336,"type":"noteOff","velocity":0},{"channel":5,"nextOffset":38107,"note":65,"tick":30814,"time":40.122395833333336,"type":"noteOff","velocity":0},{"channel":8,"nextOffset":40504,"note":65,"tick":30880,"time":40.208333333333336,"type":"noteOn","velocity":50},{"channel":8,"nextOffset":40509,"note":65,"tick":31072,"time":40.458333333333336,"type":"noteOff","velocity":0},{"channel":8,"nextOffset":40514,"note":64,"tick":31264,"time":40.708333333333336,"type":"noteOn","velocity":50},{"channel":8,"nextOffset":40519,"note":64,"tick":31456,"time":40.958333333333336,"type":"noteOff","velocity":0},{"channel":2,"nextOffset":39585,"note":0,"tick":31634,"time":41.190104166666664,"type":"noteOff","velocity":96},{"channel":8,"nextOffset":40524,"note":62,"tick":31648,"time":41.208333333333336,"type":"noteOn","velocity":50},{"channel":8,"nextOffset":40529,"note":62,"tick":31840,"time":41.458333333333336,"type":"noteOff","velocity":0},{"channel":12,"nextOffset":42257,"note":68,"tick":31913,"time":41.553385416666664,"type":"noteOn","velocity":50},{"channel":12,"nextOffset":42261,"note":69,"tick":31961,"time":41.615885416666664,"type":"noteOn","velocity":50},{"channel":12,"nextOffset":42265,"note":68,"tick":31977,"time":41.63671875,"type":"noteOff","velocity":0},{"channel":8,"nextOffset":40534,"note":65,"tick":32032,"time":41.708333333333336,"type":"noteOn","velocity":50},{"channel":12,"nextOffset":42270,"note":69,"tick":32105,"time":41.803385416666664,"type":"noteOff","velocity":0},{"channel":8,"nextOffset":40539,"note":65,"tick":32224,"time":41.958333333333336,"type":"noteOff","velocity":0},{"channel":12,"nextOffset":42275,"note":67,"tick":32297,"time":42.053385416666664,"type":"noteOn","velocity":50},{"channel":5,"nextOffset":38112,"note":74,"tick":32350,"time":42.122395833333336,"type":"noteOn","velocity":70},{"channel":5,"nextOffset":38116,"note":77,"tick":32350,"time":42.122395833333336,"type":"noteOn","velocity":70},{"channel":5,"nextOffset":38120,"note":79,"tick":32350,"time":42.122395833333336,"type":"noteOn","velocity":70},{"channel":5,"nextOffset":38124,"note":81,"tick":32350,"time":42.122395833333336,"type":"noteOn","velocity":70},{"channel":5,"nextOffset":38128,"note":70,"tick":32350,"time":42.122395833333336,"type":"noteOn","velocity":70},{"channel":8,"nextOffset":40544,"note":64,"tick":32416,"time":42.208333333333336,"type":"noteOn","velocity":50},{"channel":5,"nextOffset":38132,"note":79,"tick":32446,"time":42.247395833333336,"type":"noteOff","velocity":0},{"channel":2,"nextOffset":39876,"note":50,"tick":32457,"time":42.26171875,"type":"noteOff","velocity":96},{"channel":12,"nextOffset":42280,"note":67,"tick":32489,"time":42.303385416666664,"type":"noteOff","velocity":0},{"channel":5,"nextOffset":38136,"note":70,"tick":32542,"time":42.372395833333336,"type":"noteOff","velocity":0},{"channel":5,"nextOffset":38140,"note":81,"tick":32542,"time":42.372395833333336,"type":"noteOff","velocity":0},{"channel":5,"nextOffset":38144,"note":77,"tick":32542,"time":42.372395833333336,"type":"noteOff","velocity":0},{"channel":5,"nextOffset":38148,"note":74,"tick":32542,"time":42.372395833333336,"type":"noteOff","velocity":0},{"channel":8,"nextOffset":40549,"note":64,"tick":32608,"time":42.458333333333336,"type":"noteOff","velocity":0},{"channel":12,"nextOffset":42285,"note":65,"tick":32681,"time":42.553385416666664,"type":"noteOn","velocity":50},{"channel":2,"nextOffset":27462,"note":31,"tick":32693,"time":42.569010416666664,"type":"noteOn","velocity":57},{"channel":5,"nextOffset":38153,"note":74,"tick":32734,"time":42.622395833333336,"type":"noteOn","velocity":70},{"channel":5,"nextOffset":38157,"note":77,"tick":32734,"time":42.622395833333336,"type":"noteOn","velocity":70},{"channel":5,"nextOffset":38161,"note":81,"tick":32734,"time":42.622395833333336,"type":"noteOn","velocity":70},{"channel":5,"nextOffset":38165,"note":70,"tick":32734,"time":42.622395833333336,"type":"noteOn","velocity":70},{"channel":1,"nextOffset":15922,"note":31,"tick":32797,"time":42.704427083333336,"type":"noteOn","velocity":50},{"channel":8,"nextOffset":40554,"note":62,"tick":32800,"time":42.708333333333336,"type":"noteOn","velocity":50},{"channel":12,"nextOffset":42290,"note":65,"tick":32873,"time":42.803385416666664,"type":"noteOff","velocity":0},{"channel":2,"nextOffset":27467,"note":31,"tick":32885,"time":42.819010416666664,"type":"noteOff","velocity":0},{"channel":5,"nextOffset":38170,"note":70,"tick":32926,"time":42.872395833333336,"type":"noteOff","velocity":0},{"channel":5,"nextOffset":38174,"note":81,"tick":32926,"time":42.872395833333336,"type":"noteOff","velocity":0},{"channel":5,"nextOffset":38178,"note":77,"tick":32926,"time":42.872395833333336,"type":"noteOff","velocity":0},{"channel":5,"nextOffset":38182,"note":74,"tick":32926,"time":42.872395833333336,"type":"noteOff","velocity":0},{"channel":1,"nextOffset":15927,"note":31,"tick":32989,"time":42.954427083333336,"type":"noteOff","velocity":0},{"channel":8,"nextOffset":40559,"note":62,"tick":32992,"time":42.958333333333336,"type":"noteOff","velocity":0},{"channel":12,"nextOffset":42295,"note":64,"tick":33065,"time":43.053385416666664,"type":"noteOn","velocity":50},{"channel":2,"nextOffset":27472,"note":31,"tick":33077,"time":43.069010416666664,"type":"noteOn","velocity":57},{"channel":5,"nextOffset":38187,"note":70,"tick":33118,"time":43.122395833333336,"type":"noteOn","velocity":70},{"channel":5,"nextOffset":38191,"note":67,"tick":33118,"time":43.122395833333336,"type":"noteOn","velocity":70},{"channel":5,"nextOffset":38195,"note":73,"tick":33118,"time":43.122395833333336,"type":"noteOn","velocity":70},{"channel":5,"nextOffset":38199,"note":77,"tick":33118,"time":43.122395833333336,"type":"noteOn","velocity":70},{"channel":1,"nextOffset":15932,"note":31,"tick":33181,"time":43.204427083333336,"type":"noteOn","velocity":50},{"channel":8,"nextOffset":40564,"note":60,"tick":33184,"time":43.208333333333336,"type":"noteOn","velocity":50},{"channel":12,"nextOffset":42300,"note":64,"tick":33257,"time":43.303385416666664,"type":"noteOff","velocity":0},{"channel":2,"nextOffset":27477,"note":31,"tick":33269,"time":43.319010416666664,"type":"noteOff","velocity":0},{"channel":2,"nextOffset":27481,"note":32,"tick":33269,"time":43.319010416666664,"type":"noteOn","velocity":57},{"channel":5,"nextOffset":38204,"note":77,"tick":33310,"time":43.372395833333336,"type":"noteOff","velocity":0},{"channel":5,"nextOffset":38208,"note":73,"tick":33310,"time":43.372395833333336,"type":"noteOff","velocity":0},{"channel":5,"nextOffset":38212,"note":67,"tick":33310,"time":43.372395833333336,"type":"noteOff","velocity":0},{"channel":5,"nextOffset":38216,"note":70,"tick":33310,"time":43.372395833333336,"type":"noteOff","velocity":0},{"channel":1,"nextOffset":15937,"note":31,"tick":33373,"time":43.454427083333336,"type":"noteOff","velocity":0},{"channel":1,"nextOffset":15941,"note":32,"tick":33373,"time":43.454427083333336,"type":"noteOn","velocity":50},{"channel":8,"nextOffset":40569,"note":60,"tick":33376,"time":43.458333333333336,"type":"noteOff","velocity":0},{"channel":8,"nextOffset":40573,"note":62,"tick":33376,"time":43.458333333333336,"type":"noteOn","velocity":50},{"channel":2,"nextOffset":39880,"note":0,"tick":33447,"time":43.55078125,"type":"noteOff","velocity":96},{"channel":12,"nextOffset":42305,"note":67,"tick":33449,"time":43.553385416666664,"type":"noteOn","velocity":50},{"channel":2,"nextOffset":27486,"note":32,"tick":33461,"time":43.569010416666664,"type":"noteOff","velocity":0},{"channel":2,"nextOffset":27490,"note":33,"tick":33461,"time":43.569010416666664,"type":"noteOn","velocity":57},{"channel":5,"nextOffset":38221,"note":70,"tick":33502,"time":43.622395833333336,"type":"noteOn","velocity":70},{"channel":5,"nextOffset":38225,"note":67,"tick":33502,"time":43.622395833333336,"type":"noteOn","velocity":70},{"channel":5,"nextOffset":38229,"note":73,"tick":33502,"time":43.622395833333336,"type":"noteOn","velocity":70},{"channel":5,"nextOffset":38233,"note":76,"tick":33502,"time":43.622395833333336,"type":"noteOn","velocity":70},{"channel":1,"nextOffset":15946,"note":32,"tick":33565,"time":43.704427083333336,"type":"noteOff","velocity":0},{"channel":1,"nextOffset":15950,"note":33,"tick":33565,"time":43.704427083333336,"type":"noteOn","velocity":50},{"channel":8,"nextOffset":40578,"note":62,"tick":33568,"time":43.708333333333336,"type":"noteOff","velocity":0},{"channel":12,"nextOffset":42310,"note":67,"tick":33641,"time":43.803385416666664,"type":"noteOff","velocity":0},{"channel":2,"nextOffset":27495,"note":33,"tick":33653,"time":43.819010416666664,"type":"noteOff","velocity":0},{"channel":5,"nextOffset":38238,"note":76,"tick":33694,"time":43.872395833333336,"type":"noteOff","velocity":0},{"channel":5,"nextOffset":38242,"note":73,"tick":33694,"time":43.872395833333336,"type":"noteOff","velocity":0},{"channel":5,"nextOffset":38246,"note":67,"tick":33694,"time":43.872395833333336,"type":"noteOff","velocity":0},{"channel":5,"nextOffset":38250,"note":70,"tick":33694,"time":43.872395833333336,"type":"noteOff","velocity":0},{"channel":2,"nextOffset":27499,"note":33,"tick":33749,"time":43.944010416666664,"type":"noteOn","velocity":57},{"channel":1,"nextOffset":15955,"note":33,"tick":33757,"time":43.954427083333336,"type":"noteOff","velocity":0},{"channel":12,"nextOffset":42315,"note":65,"tick":33833,"time":44.053385416666664,"type":"noteOn","velocity":50},{"channel":2,"nextOffset":27503,"note":33,"tick":33845,"time":44.069010416666664,"type":"noteOff","velocity":0},{"channel":1,"nextOffset":15959,"note":33,"tick":33853,"time":44.079427083333336,"type":"noteOn","velocity":50},{"channel":5,"nextOffset":38255,"note":72,"tick":33886,"time":44.122395833333336,"type":"noteOn","velocity":70},{"channel":5,"nextOffset":38259,"note":69,"tick":33886,"time":44.122395833333336,"type":"noteOn","velocity":70},{"channel":5,"nextOffset":38263,"note":76,"tick":33886,"time":44.122395833333336,"type":"noteOn","velocity":70},{"channel":5,"nextOffset":38267,"note":79,"tick":33886,"time":44.122395833333336,"type":"noteOn","velocity":70},{"channel":1,"nextOffset":15963,"note":33,"tick":33949,"time":44.204427083333336,"type":"noteOff","velocity":0},{"channel":12,"nextOffset":42320,"note":65,"tick":34025,"time":44.303385416666664,"type":"noteOff","velocity":0},{"channel":2,"nextOffset":27508,"note":26,"tick":34037,"time":44.319010416666664,"type":"noteOn","velocity":57},{"channel":5,"nextOffset":38272,"note":79,"tick":34078,"time":44.372395833333336,"type":"noteOff","velocity":0},{"channel":5,"nextOffset":38276,"note":76,"tick":34078,"time":44.372395833333336,"type":"noteOff","velocity":0},{"channel":5,"nextOffset":38280,"note":69,"tick":34078,"time":44.372395833333336,"type":"noteOff","velocity":0},{"channel":5,"nextOffset":38284,"note":72,"tick":34078,"time":44.372395833333336,"type":"noteOff","velocity":0},{"channel":1,"nextOffset":15968,"note":26,"tick":34141,"time":44.454427083333336,"type":"noteOn","velocity":50},{"channel":12,"nextOffset":42325,"note":64,"tick":34217,"time":44.553385416666664,"type":"noteOn","velocity":50},{"channel":2,"nextOffset":27513,"note":26,"tick":34229,"time":44.569010416666664,"type":"noteOff","velocity":0},{"channel":5,"nextOffset":38289,"note":72,"tick":34270,"time":44.622395833333336,"type":"noteOn","velocity":70},{"channel":5,"nextOffset":38293,"note":69,"tick":34270,"time":44.622395833333336,"type":"noteOn","velocity":70},{"channel":5,"nextOffset":38297,"note":74,"tick":34270,"time":44.622395833333336,"type":"noteOn","velocity":70},{"channel":5,"nextOffset":38301,"note":77,"tick":34270,"time":44.622395833333336,"type":"noteOn","velocity":70},{"channel":1,"nextOffset":15973,"note":26,"tick":34333,"time":44.704427083333336,"type":"noteOff","velocity":0},{"channel":12,"nextOffset":42330,"note":64,"tick":34409,"time":44.803385416666664,"type":"noteOff","velocity":0},{"channel":2,"nextOffset":27518,"note":38,"tick":34421,"time":44.819010416666664,"type":"noteOn","velocity":57},{"channel":5,"nextOffset":38306,"note":77,"tick":34462,"time":44.872395833333336,"type":"noteOff","velocity":0},{"channel":5,"nextOffset":38310,"note":74,"tick":34462,"time":44.872395833333336,"type":"noteOff","velocity":0},{"channel":5,"nextOffset":38314,"note":69,"tick":34462,"time":44.872395833333336,"type":"noteOff","velocity":0},{"channel":5,"nextOffset":38318,"note":72,"tick":34462,"time":44.872395833333336,"type":"noteOff","velocity":0},{"channel":1,"nextOffset":15978,"note":38,"tick":34525,"time":44.954427083333336,"type":"noteOn","velocity":50},{"channel":2,"nextOffset":39589,"note":50,"tick":34531,"time":44.962239583333336,"type":"noteOff","velocity":96},{"channel":12,"nextOffset":42335,"note":62,"tick":34601,"time":45.053385416666664,"type":"noteOn","velocity":50},{"channel":2,"nextOffset":27523,"note":38,"tick":34613,"time":45.069010416666664,"type":"noteOff","velocity":0},{"channel":2,"nextOffset":27527,"note":26,"tick":34613,"time":45.069010416666664,"type":"noteOn","velocity":57},{"channel":5,"nextOffset":38323,"note":69,"tick":34654,"time":45.122395833333336,"type":"noteOn","velocity":70},{"channel":5,"nextOffset":38327,"note":67,"tick":34654,"time":45.122395833333336,"type":"noteOn","velocity":70},{"channel":5,"nextOffset":38331,"note":72,"tick":34654,"time":45.122395833333336,"type":"noteOn","velocity":70},{"channel":5,"nextOffset":38335,"note":76,"tick":34654,"time":45.122395833333336,"type":"noteOn","velocity":70},{"channel":1,"nextOffset":15983,"note":38,"tick":34717,"time":45.204427083333336,"type":"noteOff","velocity":0},{"channel":1,"nextOffset":15987,"note":26,"tick":34717,"time":45.204427083333336,"type":"noteOn","velocity":50},{"channel":12,"nextOffset":42340,"note":62,"tick":34793,"time":45.303385416666664,"type":"noteOff","velocity":0},{"channel":2,"nextOffset":27532,"note":26,"tick":34805,"time":45.319010416666664,"type":"noteOff","velocity":0},{"channel":2,"nextOffset":27536,"note":33,"tick":34805,"time":45.319010416666664,"type":"noteOn","velocity":57},{"channel":9,"nextOffset":20428,"note":35,"tick":34814,"time":45.330729166666664,"type":"noteOn","velocity":50},{"channel":5,"nextOffset":38340,"note":76,"tick":34846,"time":45.372395833333336,"type":"noteOff","velocity":0},{"channel":5,"nextOffset":38344,"note":72,"tick":34846,"time":45.372395833333336,"type":"noteOff","velocity":0},{"channel":5,"nextOffset":38348,"note":67,"tick":34846,"time":45.372395833333336,"type":"noteOff","velocity":0},{"channel":5,"nextOffset":38352,"note":69,"tick":34846,"time":45.372395833333336,"type":"noteOff","velocity":0},{"channel":9,"nextOffset":44233,"note":42,"tick":34880,"time":45.416666666666664,"type":"noteOn","velocity":50},{"channel":1,"nextOffset":15992,"note":26,"tick":34909,"time":45.454427083333336,"type":"noteOff","velocity":0},{"channel":1,"nextOffset":15996,"note":33,"tick":34909,"time":45.454427083333336,"type":"noteOn","velocity":50},{"channel":9,"nextOffset":20432,"note":35,"tick":34910,"time":45.455729166666664,"type":"noteOff","velocity":0},{"channel":9,"nextOffset":24207,"note":35,"tick":34918,"time":45.466145833333336,"type":"noteOn","velocity":50},{"channel":9,"nextOffset":44237,"note":42,"tick":34976,"time":45.541666666666664,"type":"noteOff","velocity":0},{"channel":9,"nextOffset":23083,"note":42,"tick":34984,"time":45.552083333333336,"type":"noteOn","velocity":50},{"channel":12,"nextOffset":42345,"note":65,"tick":34985,"time":45.553385416666664,"type":"noteOn","velocity":50},{"channel":2,"nextOffset":27541,"note":33,"tick":34997,"time":45.569010416666664,"type":"noteOff","velocity":0},{"channel":9,"nextOffset":24211,"note":35,"tick":35014,"time":45.591145833333336,"type":"noteOff","velocity":0},{"channel":5,"nextOffset":38357,"note":69,"tick":35038,"time":45.622395833333336,"type":"noteOn","velocity":70},{"channel":5,"nextOffset":38361,"note":65,"tick":35038,"time":45.622395833333336,"type":"noteOn","velocity":70},{"channel":5,"nextOffset":38365,"note":72,"tick":35038,"time":45.622395833333336,"type":"noteOn","velocity":70},{"channel":5,"nextOffset":38369,"note":74,"tick":35038,"time":45.622395833333336,"type":"noteOn","velocity":70},{"channel":9,"nextOffset":23087,"note":42,"tick":35080,"time":45.677083333333336,"type":"noteOff","velocity":0},{"channel":1,"nextOffset":16001,"note":33,"tick":35101,"time":45.704427083333336,"type":"noteOff","velocity":0},{"channel":8,"nextOffset":40583,"note":68,"tick":35104,"time":45.708333333333336,"type":"noteOn","velocity":50},{"channel":8,"nextOffset":40587,"note":69,"tick":35152,"time":45.770833333333336,"type":"noteOn","velocity":50},{"channel":8,"nextOffset":40591,"note":68,"tick":35168,"time":45.791666666666664,"type":"noteOff","velocity":0},{"channel":12,"nextOffset":42350,"note":65,"tick":35177,"time":45.803385416666664,"type":"noteOff","velocity":0},{"channel":2,"nextOffset":27546,"note":26,"tick":35189,"time":45.819010416666664,"type":"noteOn","velocity":57},{"channel":9,"nextOffset":20437,"note":35,"tick":35198,"time":45.830729166666664,"type":"noteOn","velocity":50},{"channel":5,"nextOffset":38374,"note":74,"tick":35230,"time":45.872395833333336,"type":"noteOff","velocity":0},{"channel":5,"nextOffset":38378,"note":72,"tick":35230,"time":45.872395833333336,"type":"noteOff","velocity":0},{"channel":5,"nextOffset":38382,"note":65,"tick":35230,"time":45.872395833333336,"type":"noteOff","velocity":0},{"channel":5,"nextOffset":38386,"note":69,"tick":35230,"time":45.872395833333336,"type":"noteOff","velocity":0},{"channel":9,"nextOffset":44242,"note":42,"tick":35264,"time":45.916666666666664,"type":"noteOn","velocity":50},{"channel":1,"nextOffset":16006,"note":26,"tick":35293,"time":45.954427083333336,"type":"noteOn","velocity":50},{"channel":9,"nextOffset":20441,"note":35,"tick":35294,"time":45.955729166666664,"type":"noteOff","velocity":0},{"channel":8,"nextOffset":40596,"note":69,"tick":35296,"time":45.958333333333336,"type":"noteOff","velocity":0},{"channel":9,"nextOffset":24216,"note":35,"tick":35302,"time":45.966145833333336,"type":"noteOn","velocity":50},{"channel":9,"nextOffset":44246,"note":42,"tick":35360,"time":46.041666666666664,"type":"noteOff","velocity":0},{"channel":9,"nextOffset":23092,"note":42,"tick":35368,"time":46.052083333333336,"type":"noteOn","velocity":50},{"channel":12,"nextOffset":42355,"note":64,"tick":35369,"time":46.053385416666664,"type":"noteOn","velocity":50},{"channel":2,"nextOffset":39593,"note":0,"tick":35380,"time":46.067708333333336,"type":"noteOff","velocity":96},{"channel":2,"nextOffset":27551,"note":26,"tick":35381,"time":46.069010416666664,"type":"noteOff","velocity":0},{"channel":2,"nextOffset":27555,"note":33,"tick":35381,"time":46.069010416666664,"type":"noteOn","velocity":57},{"channel":9,"nextOffset":24220,"note":35,"tick":35398,"time":46.091145833333336,"type":"noteOff","velocity":0},{"channel":5,"nextOffset":38391,"note":67,"tick":35422,"time":46.122395833333336,"type":"noteOn","velocity":70},{"channel":5,"nextOffset":38395,"note":70,"tick":35422,"time":46.122395833333336,"type":"noteOn","velocity":70},{"channel":5,"nextOffset":38399,"note":74,"tick":35422,"time":46.122395833333336,"type":"noteOn","velocity":70},{"channel":5,"nextOffset":38403,"note":77,"tick":35422,"time":46.122395833333336,"type":"noteOn","velocity":70},{"channel":9,"nextOffset":23096,"note":42,"tick":35464,"time":46.177083333333336,"type":"noteOff","velocity":0},{"channel":1,"nextOffset":16011,"note":26,"tick":35485,"time":46.204427083333336,"type":"noteOff","velocity":0},{"channel":1,"nextOffset":16015,"note":33,"tick":35485,"time":46.204427083333336,"type":"noteOn","velocity":50},{"channel":8,"nextOffset":40601,"note":67,"tick":35488,"time":46.208333333333336,"type":"noteOn","velocity":50},{"channel":12,"nextOffset":42360,"note":64,"tick":35561,"time":46.303385416666664,"type":"noteOff","velocity":0},{"channel":2,"nextOffset":27560,"note":33,"tick":35573,"time":46.319010416666664,"type":"noteOff","velocity":0},{"channel":2,"nextOffset":27564,"note":32,"tick":35573,"time":46.319010416666664,"type":"noteOn","velocity":57},{"channel":9,"nextOffset":20446,"note":35,"tick":35582,"time":46.330729166666664,"type":"noteOn","velocity":50},{"channel":5,"nextOffset":38408,"note":77,"tick":35614,"time":46.372395833333336,"type":"noteOff","velocity":0},{"channel":5,"nextOffset":38412,"note":74,"tick":35614,"time":46.372395833333336,"type":"noteOff","velocity":0},{"channel":5,"nextOffset":38416,"note":70,"tick":35614,"time":46.372395833333336,"type":"noteOff","velocity":0},{"channel":5,"nextOffset":38420,"note":67,"tick":35614,"time":46.372395833333336,"type":"noteOff","velocity":0},{"channel":9,"nextOffset":44251,"note":42,"tick":35648,"time":46.416666666666664,"type":"noteOn","velocity":50},{"channel":1,"nextOffset":16020,"note":33,"tick":35677,"time":46.454427083333336,"type":"noteOff","velocity":0},{"channel":1,"nextOffset":16024,"note":32,"tick":35677,"time":46.454427083333336,"type":"noteOn","velocity":50},{"channel":9,"nextOffset":20450,"note":35,"tick":35678,"time":46.455729166666664,"type":"noteOff","velocity":0},{"channel":8,"nextOffset":40606,"note":67,"tick":35680,"time":46.458333333333336,"type":"noteOff","velocity":0},{"channel":9,"nextOffset":24225,"note":35,"tick":35686,"time":46.466145833333336,"type":"noteOn","velocity":50},{"channel":9,"nextOffset":44255,"note":42,"tick":35744,"time":46.541666666666664,"type":"noteOff","velocity":0},{"channel":9,"nextOffset":23101,"note":42,"tick":35752,"time":46.552083333333336,"type":"noteOn","velocity":50},{"channel":12,"nextOffset":42365,"note":67,"tick":35753,"time":46.553385416666664,"type":"noteOn","velocity":50},{"channel":2,"nextOffset":27569,"note":32,"tick":35765,"time":46.569010416666664,"type":"noteOff","velocity":0},{"channel":2,"nextOffset":27573,"note":31,"tick":35765,"time":46.569010416666664,"type":"noteOn","velocity":57},{"channel":9,"nextOffset":24229,"note":35,"tick":35782,"time":46.591145833333336,"type":"noteOff","velocity":0},{"channel":5,"nextOffset":38425,"note":67,"tick":35806,"time":46.622395833333336,"type":"noteOn","velocity":70},{"channel":5,"nextOffset":38429,"note":70,"tick":35806,"time":46.622395833333336,"type":"noteOn","velocity":70},{"channel":5,"nextOffset":38433,"note":74,"tick":35806,"time":46.622395833333336,"type":"noteOn","velocity":70},{"channel":5,"nextOffset":38437,"note":76,"tick":35806,"time":46.622395833333336,"type":"noteOn","velocity":70},{"channel":9,"nextOffset":23105,"note":42,"tick":35848,"time":46.677083333333336,"type":"noteOff","velocity":0},{"channel":1,"nextOffset":16029,"note":32,"tick":35869,"time":46.704427083333336,"type":"noteOff","velocity":0},{"channel":1,"nextOffset":16033,"note":31,"tick":35869,"time":46.704427083333336,"type":"noteOn","velocity":50},{"channel":9,"nextOffset":20455,"note":35,"tick":35870,"time":46.705729166666664,"type":"noteOn","velocity":50},{"channel":8,"nextOffset":40611,"note":65,"tick":35872,"time":46.708333333333336,"type":"noteOn","velocity":50},{"channel":9,"nextOffset":44260,"note":42,"tick":35936,"time":46.791666666666664,"type":"noteOn","velocity":50},{"channel":12,"nextOffset":42370,"note":67,"tick":35945,"time":46.803385416666664,"type":"noteOff","velocity":0},{"channel":12,"nextOffset":42374,"note":65,"tick":35945,"time":46.803385416666664,"type":"noteOn","velocity":50},{"channel":2,"nextOffset":27578,"note":31,"tick":35957,"time":46.819010416666664,"type":"noteOff","velocity":0},{"channel":9,"nextOffset":20459,"note":35,"tick":35966,"time":46.830729166666664,"type":"noteOff","velocity":0},{"channel":9,"nextOffset":24234,"note":35,"tick":35974,"time":46.841145833333336,"type":"noteOn","velocity":50},{"channel":5,"nextOffset":38442,"note":76,"tick":35998,"time":46.872395833333336,"type":"noteOff","velocity":0},{"channel":5,"nextOffset":38446,"note":74,"tick":35998,"time":46.872395833333336,"type":"noteOff","velocity":0},{"channel":5,"nextOffset":38450,"note":70,"tick":35998,"time":46.872395833333336,"type":"noteOff","velocity":0},{"channel":5,"nextOffset":38454,"note":67,"tick":35998,"time":46.872395833333336,"type":"noteOff","velocity":0},{"channel":9,"nextOffset":44264,"note":42,"tick":36032,"time":46.916666666666664,"type":"noteOff","velocity":0},{"channel":9,"nextOffset":23110,"note":42,"tick":36040,"time":46.927083333333336,"type":"noteOn","velocity":50},{"channel":12,"nextOffset":42378,"note":65,"tick":36041,"time":46.928385416666664,"type":"noteOff","velocity":0},{"channel":1,"nextOffset":16038,"note":31,"tick":36061,"time":46.954427083333336,"type":"noteOff","velocity":0},{"channel":8,"nextOffset":40616,"note":65,"tick":36064,"time":46.958333333333336,"type":"noteOff","velocity":0},{"channel":9,"nextOffset":24238,"note":35,"tick":36070,"time":46.966145833333336,"type":"noteOff","velocity":0},{"channel":9,"nextOffset":23114,"note":42,"tick":36136,"time":47.052083333333336,"type":"noteOff","velocity":0},{"channel":12,"nextOffset":42382,"note":67,"tick":36137,"time":47.053385416666664,"type":"noteOn","velocity":50},{"channel":2,"nextOffset":27583,"note":31,"tick":36149,"time":47.069010416666664,"type":"noteOn","velocity":57},{"channel":9,"nextOffset":20464,"note":35,"tick":36158,"time":47.080729166666664,"type":"noteOn","velocity":50},{"channel":5,"nextOffset":38459,"note":69,"tick":36190,"time":47.122395833333336,"type":"noteOn","velocity":70},{"channel":5,"nextOffset":38463,"note":72,"tick":36190,"time":47.122395833333336,"type":"noteOn","velocity":70},{"channel":5,"nextOffset":38467,"note":76,"tick":36190,"time":47.122395833333336,"type":"noteOn","velocity":70},{"channel":5,"nextOffset":38471,"note":79,"tick":36190,"time":47.122395833333336,"type":"noteOn","velocity":70},{"channel":1,"nextOffset":16043,"note":31,"tick":36253,"time":47.204427083333336,"type":"noteOn","velocity":50},{"channel":9,"nextOffset":20468,"note":35,"tick":36254,"time":47.205729166666664,"type":"noteOff","velocity":0},{"channel":8,"nextOffset":40621,"note":64,"tick":36256,"time":47.208333333333336,"type":"noteOn","velocity":50},{"channel":9,"nextOffset":24243,"note":35,"tick":36262,"time":47.216145833333336,"type":"noteOn","velocity":50},{"channel":12,"nextOffset":42387,"note":67,"tick":36329,"time":47.303385416666664,"type":"noteOff","velocity":0},{"channel":12,"nextOffset":42391,"note":67,"tick":36329,"time":47.303385416666664,"type":"noteOn","velocity":50},{"channel":2,"nextOffset":27588,"note":31,"tick":36341,"time":47.319010416666664,"type":"noteOff","velocity":0},{"channel":2,"nextOffset":27592,"note":32,"tick":36341,"time":47.319010416666664,"type":"noteOn","velocity":57},{"channel":9,"nextOffset":20472,"note":35,"tick":36350,"time":47.330729166666664,"type":"noteOn","velocity":50},{"channel":9,"nextOffset":24247,"note":35,"tick":36358,"time":47.341145833333336,"type":"noteOff","velocity":0},{"channel":12,"nextOffset":42395,"note":67,"tick":36377,"time":47.365885416666664,"type":"noteOff","velocity":0},{"channel":12,"nextOffset":42399,"note":69,"tick":36377,"time":47.365885416666664,"type":"noteOn","velocity":50},{"channel":5,"nextOffset":38476,"note":79,"tick":36382,"time":47.372395833333336,"type":"noteOff","velocity":0},{"channel":5,"nextOffset":38480,"note":76,"tick":36382,"time":47.372395833333336,"type":"noteOff","velocity":0},{"channel":5,"nextOffset":38484,"note":72,"tick":36382,"time":47.372395833333336,"type":"noteOff","velocity":0},{"channel":5,"nextOffset":38488,"note":69,"tick":36382,"time":47.372395833333336,"type":"noteOff","velocity":0},{"channel":5,"nextOffset":38492,"note":77,"tick":36382,"time":47.372395833333336,"type":"noteOn","velocity":70},{"channel":9,"nextOffset":44269,"note":42,"tick":36416,"time":47.416666666666664,"type":"noteOn","velocity":50},{"channel":1,"nextOffset":16048,"note":31,"tick":36445,"time":47.454427083333336,"type":"noteOff","velocity":0},{"channel":1,"nextOffset":16052,"note":32,"tick":36445,"time":47.454427083333336,"type":"noteOn","velocity":50},{"channel":9,"nextOffset":20476,"note":35,"tick":36446,"time":47.455729166666664,"type":"noteOff","velocity":0},{"channel":8,"nextOffset":40626,"note":64,"tick":36448,"time":47.458333333333336,"type":"noteOff","velocity":0},{"channel":9,"nextOffset":24251,"note":35,"tick":36454,"time":47.466145833333336,"type":"noteOn","velocity":50},{"channel":5,"nextOffset":38496,"note":77,"tick":36478,"time":47.497395833333336,"type":"noteOff","velocity":0},{"channel":2,"nextOffset":39884,"note":50,"tick":36484,"time":47.505208333333336,"type":"noteOff","velocity":96},{"channel":9,"nextOffset":44273,"note":42,"tick":36512,"time":47.541666666666664,"type":"noteOff","velocity":0},{"channel":9,"nextOffset":23119,"note":42,"tick":36520,"time":47.552083333333336,"type":"noteOn","velocity":50},{"channel":12,"nextOffset":42404,"note":69,"tick":36521,"time":47.553385416666664,"type":"noteOff","velocity":0},{"channel":2,"nextOffset":27597,"note":32,"tick":36533,"time":47.569010416666664,"type":"noteOff","velocity":0},{"channel":2,"nextOffset":27601,"note":33,"tick":36533,"time":47.569010416666664,"type":"noteOn","velocity":57},{"channel":2,"nextOffset":27605,"note":33,"tick":36533,"time":47.569010416666664,"type":"noteOn","velocity":57},{"channel":9,"nextOffset":24255,"note":35,"tick":36550,"time":47.591145833333336,"type":"noteOff","velocity":0},{"channel":5,"nextOffset":38500,"note":69,"tick":36574,"time":47.622395833333336,"type":"noteOn","velocity":70},{"channel":5,"nextOffset":38504,"note":72,"tick":36574,"time":47.622395833333336,"type":"noteOn","velocity":70},{"channel":5,"nextOffset":38508,"note":76,"tick":36574,"time":47.622395833333336,"type":"noteOn","velocity":70},{"channel":5,"nextOffset":38512,"note":79,"tick":36574,"time":47.622395833333336,"type":"noteOn","velocity":70},{"channel":9,"nextOffset":23123,"note":42,"tick":36616,"time":47.677083333333336,"type":"noteOff","velocity":0},{"channel":1,"nextOffset":16057,"note":32,"tick":36637,"time":47.704427083333336,"type":"noteOff","velocity":0},{"channel":1,"nextOffset":16061,"note":33,"tick":36637,"time":47.704427083333336,"type":"noteOn","velocity":50},{"channel":1,"nextOffset":16065,"note":33,"tick":36637,"time":47.704427083333336,"type":"noteOn","velocity":50},{"channel":8,"nextOffset":40631,"note":67,"tick":36640,"time":47.708333333333336,"type":"noteOn","velocity":50},{"channel":12,"nextOffset":42409,"note":69,"tick":36713,"time":47.803385416666664,"type":"noteOn","velocity":50},{"channel":2,"nextOffset":27610,"note":33,"tick":36725,"time":47.819010416666664,"type":"noteOff","velocity":0},{"channel":2,"nextOffset":27614,"note":33,"tick":36725,"time":47.819010416666664,"type":"noteOff","velocity":0},{"channel":9,"nextOffset":20481,"note":35,"tick":36734,"time":47.830729166666664,"type":"noteOn","velocity":50},{"channel":12,"nextOffset":42413,"note":69,"tick":36737,"time":47.834635416666664,"type":"noteOff","velocity":0},{"channel":12,"nextOffset":42417,"note":70,"tick":36737,"time":47.834635416666664,"type":"noteOn","velocity":50},{"channel":5,"nextOffset":38517,"note":79,"tick":36766,"time":47.872395833333336,"type":"noteOff","velocity":0},{"channel":5,"nextOffset":38521,"note":76,"tick":36766,"time":47.872395833333336,"type":"noteOff","velocity":0},{"channel":5,"nextOffset":38525,"note":72,"tick":36766,"time":47.872395833333336,"type":"noteOff","velocity":0},{"channel":5,"nextOffset":38529,"note":69,"tick":36766,"time":47.872395833333336,"type":"noteOff","velocity":0},{"channel":5,"nextOffset":38533,"note":72,"tick":36766,"time":47.872395833333336,"type":"noteOn","velocity":70},{"channel":5,"nextOffset":38537,"note":74,"tick":36766,"time":47.872395833333336,"type":"noteOn","velocity":70},{"channel":5,"nextOffset":38541,"note":77,"tick":36766,"time":47.872395833333336,"type":"noteOn","velocity":70},{"channel":5,"nextOffset":38545,"note":81,"tick":36766,"time":47.872395833333336,"type":"noteOn","velocity":70},{"channel":9,"nextOffset":44278,"note":42,"tick":36800,"time":47.916666666666664,"type":"noteOn","velocity":50},{"channel":12,"nextOffset":42421,"note":70,"tick":36809,"time":47.928385416666664,"type":"noteOff","velocity":0},{"channel":2,"nextOffset":27618,"note":33,"tick":36821,"time":47.944010416666664,"type":"noteOn","velocity":57},{"channel":1,"nextOffset":16070,"note":33,"tick":36829,"time":47.954427083333336,"type":"noteOff","velocity":0},{"channel":1,"nextOffset":16074,"note":33,"tick":36829,"time":47.954427083333336,"type":"noteOff","velocity":0},{"channel":9,"nextOffset":20485,"note":35,"tick":36830,"time":47.955729166666664,"type":"noteOff","velocity":0},{"channel":8,"nextOffset":40636,"note":67,"tick":36832,"time":47.958333333333336,"type":"noteOff","velocity":0},{"channel":9,"nextOffset":24260,"note":35,"tick":36838,"time":47.966145833333336,"type":"noteOn","velocity":50},{"channel":9,"nextOffset":44282,"note":42,"tick":36896,"time":48.041666666666664,"type":"noteOff","velocity":0},{"channel":9,"nextOffset":23128,"note":42,"tick":36904,"time":48.052083333333336,"type":"noteOn","velocity":50},{"channel":12,"nextOffset":42425,"note":69,"tick":36905,"time":48.053385416666664,"type":"noteOn","velocity":50},{"channel":2,"nextOffset":27622,"note":33,"tick":36917,"time":48.069010416666664,"type":"noteOff","velocity":0},{"channel":1,"nextOffset":16078,"note":33,"tick":36925,"time":48.079427083333336,"type":"noteOn","velocity":50},{"channel":9,"nextOffset":24264,"note":35,"tick":36934,"time":48.091145833333336,"type":"noteOff","velocity":0},{"channel":5,"nextOffset":38550,"note":81,"tick":36958,"time":48.122395833333336,"type":"noteOff","velocity":0},{"channel":5,"nextOffset":38554,"note":77,"tick":36958,"time":48.122395833333336,"type":"noteOff","velocity":0},{"channel":5,"nextOffset":38558,"note":74,"tick":36958,"time":48.122395833333336,"type":"noteOff","velocity":0},{"channel":5,"nextOffset":38562,"note":72,"tick":36958,"time":48.122395833333336,"type":"noteOff","velocity":0},{"channel":9,"nextOffset":23132,"note":42,"tick":37000,"time":48.177083333333336,"type":"noteOff","velocity":0},{"channel":1,"nextOffset":16082,"note":33,"tick":37021,"time":48.204427083333336,"type":"noteOff","velocity":0},{"channel":8,"nextOffset":40641,"note":65,"tick":37024,"time":48.208333333333336,"type":"noteOn","velocity":50},{"channel":9,"nextOffset":24268,"note":42,"tick":37030,"time":48.216145833333336,"type":"noteOn","velocity":50},{"channel":2,"nextOffset":27627,"note":26,"tick":37109,"time":48.319010416666664,"type":"noteOn","velocity":57},{"channel":9,"nextOffset":20490,"note":35,"tick":37118,"time":48.330729166666664,"type":"noteOn","velocity":50},{"channel":9,"nextOffset":24272,"note":42,"tick":37126,"time":48.341145833333336,"type":"noteOff","velocity":0},{"channel":9,"nextOffset":44287,"note":42,"tick":37184,"time":48.416666666666664,"type":"noteOn","velocity":50},{"channel":1,"nextOffset":16087,"note":26,"tick":37213,"time":48.454427083333336,"type":"noteOn","velocity":50},{"channel":9,"nextOffset":20494,"note":35,"tick":37214,"time":48.455729166666664,"type":"noteOff","velocity":0},{"channel":8,"nextOffset":40646,"note":65,"tick":37216,"time":48.458333333333336,"type":"noteOff","velocity":0},{"channel":9,"nextOffset":24276,"note":35,"tick":37222,"time":48.466145833333336,"type":"noteOn","velocity":50},{"channel":9,"nextOffset":44291,"note":42,"tick":37280,"time":48.541666666666664,"type":"noteOff","velocity":0},{"channel":9,"nextOffset":23137,"note":42,"tick":37288,"time":48.552083333333336,"type":"noteOn","velocity":50},{"channel":2,"nextOffset":27632,"note":26,"tick":37301,"time":48.569010416666664,"type":"noteOff","velocity":0},{"channel":9,"nextOffset":24280,"note":35,"tick":37318,"time":48.591145833333336,"type":"noteOff","velocity":0},{"channel":5,"nextOffset":38567,"note":81,"tick":37342,"time":48.622395833333336,"type":"noteOn","velocity":70},{"channel":5,"nextOffset":38571,"note":77,"tick":37342,"time":48.622395833333336,"type":"noteOn","velocity":70},{"channel":5,"nextOffset":38575,"note":74,"tick":37342,"time":48.622395833333336,"type":"noteOn","velocity":70},{"channel":5,"nextOffset":38579,"note":72,"tick":37342,"time":48.622395833333336,"type":"noteOn","velocity":70},{"channel":9,"nextOffset":32123,"note":42,"tick":37344,"time":48.625,"type":"noteOn","velocity":50},{"channel":9,"nextOffset":23141,"note":42,"tick":37384,"time":48.677083333333336,"type":"noteOff","velocity":0},{"channel":1,"nextOffset":16092,"note":26,"tick":37405,"time":48.704427083333336,"type":"noteOff","velocity":0},{"channel":9,"nextOffset":20499,"note":35,"tick":37406,"time":48.705729166666664,"type":"noteOn","velocity":50},{"channel":8,"nextOffset":40651,"note":64,"tick":37408,"time":48.708333333333336,"type":"noteOn","velocity":50},{"channel":9,"nextOffset":32127,"note":42,"tick":37440,"time":48.75,"type":"noteOff","velocity":0},{"channel":9,"nextOffset":32131,"note":42,"tick":37440,"time":48.75,"type":"noteOn","velocity":50},{"channel":9,"nextOffset":44296,"note":42,"tick":37472,"time":48.791666666666664,"type":"noteOn","velocity":50},{"channel":2,"nextOffset":39888,"note":0,"tick":37473,"time":48.79296875,"type":"noteOff","velocity":96},{"channel":2,"nextOffset":27637,"note":26,"tick":37493,"time":48.819010416666664,"type":"noteOn","velocity":57},{"channel":9,"nextOffset":20503,"note":35,"tick":37502,"time":48.830729166666664,"type":"noteOff","velocity":0},{"channel":9,"nextOffset":24285,"note":35,"tick":37510,"time":48.841145833333336,"type":"noteOn","velocity":50},{"channel":9,"nextOffset":32135,"note":42,"tick":37536,"time":48.875,"type":"noteOff","velocity":0},{"channel":9,"nextOffset":44300,"note":42,"tick":37568,"time":48.916666666666664,"type":"noteOff","velocity":0},{"channel":9,"nextOffset":23146,"note":42,"tick":37576,"time":48.927083333333336,"type":"noteOn","velocity":50},{"channel":1,"nextOffset":16097,"note":26,"tick":37597,"time":48.954427083333336,"type":"noteOn","velocity":50},{"channel":8,"nextOffset":40656,"note":64,"tick":37600,"time":48.958333333333336,"type":"noteOff","velocity":0},{"channel":9,"nextOffset":24289,"note":35,"tick":37606,"time":48.966145833333336,"type":"noteOff","velocity":0},{"channel":9,"nextOffset":23150,"note":42,"tick":37672,"time":49.052083333333336,"type":"noteOff","velocity":0},{"channel":2,"nextOffset":27642,"note":26,"tick":37685,"time":49.069010416666664,"type":"noteOff","velocity":0},{"channel":2,"nextOffset":27646,"note":33,"tick":37685,"time":49.069010416666664,"type":"noteOn","velocity":57},{"channel":9,"nextOffset":20508,"note":35,"tick":37694,"time":49.080729166666664,"type":"noteOn","velocity":50},{"channel":9,"nextOffset":32140,"note":42,"tick":37728,"time":49.125,"type":"noteOn","velocity":50},{"channel":1,"nextOffset":16102,"note":26,"tick":37789,"time":49.204427083333336,"type":"noteOff","velocity":0},{"channel":1,"nextOffset":16106,"note":33,"tick":37789,"time":49.204427083333336,"type":"noteOn","velocity":50},{"channel":9,"nextOffset":20512,"note":35,"tick":37790,"time":49.205729166666664,"type":"noteOff","velocity":0},{"channel":8,"nextOffset":40661,"note":62,"tick":37792,"time":49.208333333333336,"type":"noteOn","velocity":50},{"channel":9,"nextOffset":24294,"note":35,"tick":37798,"time":49.216145833333336,"type":"noteOn","velocity":50},{"channel":9,"nextOffset":32144,"note":42,"tick":37824,"time":49.25,"type":"noteOff","velocity":0},{"channel":9,"nextOffset":32148,"note":42,"tick":37824,"time":49.25,"type":"noteOn","velocity":50},{"channel":2,"nextOffset":27651,"note":33,"tick":37877,"time":49.319010416666664,"type":"noteOff","velocity":0},{"channel":2,"nextOffset":27655,"note":26,"tick":37877,"time":49.319010416666664,"type":"noteOn","velocity":57},{"channel":9,"nextOffset":20516,"note":35,"tick":37886,"time":49.330729166666664,"type":"noteOn","velocity":50},{"channel":9,"nextOffset":24298,"note":35,"tick":37894,"time":49.341145833333336,"type":"noteOff","velocity":0},{"channel":9,"nextOffset":32152,"note":42,"tick":37920,"time":49.375,"type":"noteOff","velocity":0},{"channel":9,"nextOffset":44305,"note":42,"tick":37952,"time":49.416666666666664,"type":"noteOn","velocity":50},{"channel":12,"nextOffset":42430,"note":69,"tick":37961,"time":49.428385416666664,"type":"noteOff","velocity":0},{"channel":1,"nextOffset":16111,"note":33,"tick":37981,"time":49.454427083333336,"type":"noteOff","velocity":0},{"channel":1,"nextOffset":16115,"note":26,"tick":37981,"time":49.454427083333336,"type":"noteOn","velocity":50},{"channel":9,"nextOffset":20520,"note":35,"tick":37982,"time":49.455729166666664,"type":"noteOff","velocity":0},{"channel":8,"nextOffset":40666,"note":62,"tick":37984,"time":49.458333333333336,"type":"noteOff","velocity":0},{"channel":9,"nextOffset":24302,"note":35,"tick":37990,"time":49.466145833333336,"type":"noteOn","velocity":50},{"channel":9,"nextOffset":44309,"note":42,"tick":38048,"time":49.541666666666664,"type":"noteOff","velocity":0},{"channel":9,"nextOffset":23155,"note":42,"tick":38056,"time":49.552083333333336,"type":"noteOn","velocity":50},{"channel":2,"nextOffset":27660,"note":26,"tick":38069,"time":49.569010416666664,"type":"noteOff","velocity":0},{"channel":2,"nextOffset":27664,"note":38,"tick":38069,"time":49.569010416666664,"type":"noteOn","velocity":57},{"channel":9,"nextOffset":24306,"note":35,"tick":38086,"time":49.591145833333336,"type":"noteOff","velocity":0},{"channel":9,"nextOffset":32157,"note":42,"tick":38112,"time":49.625,"type":"noteOn","velocity":50},{"channel":9,"nextOffset":23159,"note":42,"tick":38152,"time":49.677083333333336,"type":"noteOff","velocity":0},{"channel":1,"nextOffset":16120,"note":26,"tick":38173,"time":49.704427083333336,"type":"noteOff","velocity":0},{"channel":1,"nextOffset":16124,"note":38,"tick":38173,"time":49.704427083333336,"type":"noteOn","velocity":50},{"channel":8,"nextOffset":40671,"note":65,"tick":38176,"time":49.708333333333336,"type":"noteOn","velocity":50},{"channel":9,"nextOffset":32161,"note":42,"tick":38208,"time":49.75,"type":"noteOff","velocity":0},{"channel":2,"nextOffset":27669,"note":38,"tick":38261,"time":49.819010416666664,"type":"noteOff","velocity":0},{"channel":2,"nextOffset":27673,"note":26,"tick":38261,"time":49.819010416666664,"type":"noteOn","velocity":57},{"channel":9,"nextOffset":20525,"note":35,"tick":38270,"time":49.830729166666664,"type":"noteOn","velocity":50},{"channel":2,"nextOffset":39597,"note":50,"tick":38276,"time":49.838541666666664,"type":"noteOff","velocity":96},{"channel":9,"nextOffset":44314,"note":42,"tick":38336,"time":49.916666666666664,"type":"noteOn","velocity":50},{"channel":1,"nextOffset":16129,"note":38,"tick":38365,"time":49.954427083333336,"type":"noteOff","velocity":0},{"channel":1,"nextOffset":16133,"note":26,"tick":38365,"time":49.954427083333336,"type":"noteOn","velocity":50},{"channel":9,"nextOffset":20529,"note":35,"tick":38366,"time":49.955729166666664,"type":"noteOff","velocity":0},{"channel":8,"nextOffset":40676,"note":65,"tick":38368,"time":49.958333333333336,"type":"noteOff","velocity":0},{"channel":9,"nextOffset":24311,"note":35,"tick":38374,"time":49.966145833333336,"type":"noteOn","velocity":50},{"channel":5,"nextOffset":38584,"note":72,"tick":38398,"time":49.997395833333336,"type":"noteOff","velocity":0},{"channel":5,"nextOffset":38588,"note":74,"tick":38398,"time":49.997395833333336,"type":"noteOff","velocity":0},{"channel":5,"nextOffset":38592,"note":77,"tick":38398,"time":49.997395833333336,"type":"noteOff","velocity":0},{"channel":5,"nextOffset":38596,"note":81,"tick":38398,"time":49.997395833333336,"type":"noteOff","velocity":0},{"channel":9,"nextOffset":32166,"note":42,"tick":38400,"time":50,"type":"noteOn","velocity":50},{"channel":9,"nextOffset":44318,"note":42,"tick":38432,"time":50.041666666666664,"type":"noteOff","velocity":0},{"channel":9,"nextOffset":23164,"note":42,"tick":38440,"time":50.052083333333336,"type":"noteOn","velocity":50},{"channel":2,"nextOffset":27678,"note":26,"tick":38453,"time":50.069010416666664,"type":"noteOff","velocity":0},{"channel":2,"nextOffset":27682,"note":33,"tick":38453,"time":50.069010416666664,"type":"noteOn","velocity":57},{"channel":9,"nextOffset":24315,"note":35,"tick":38470,"time":50.091145833333336,"type":"noteOff","velocity":0},{"channel":5,"nextOffset":38600,"note":70,"tick":38494,"time":50.122395833333336,"type":"noteOn","velocity":70},{"channel":5,"nextOffset":38604,"note":74,"tick":38494,"time":50.122395833333336,"type":"noteOn","velocity":70},{"channel":5,"nextOffset":38608,"note":77,"tick":38494,"time":50.122395833333336,"type":"noteOn","velocity":70},{"channel":5,"nextOffset":38612,"note":79,"tick":38494,"time":50.122395833333336,"type":"noteOn","velocity":70},{"channel":5,"nextOffset":38616,"note":81,"tick":38494,"time":50.122395833333336,"type":"noteOn","velocity":70},{"channel":9,"nextOffset":32170,"note":42,"tick":38496,"time":50.125,"type":"noteOff","velocity":0},{"channel":9,"nextOffset":32174,"note":42,"tick":38496,"time":50.125,"type":"noteOn","velocity":50},{"channel":9,"nextOffset":32178,"note":42,"tick":38520,"time":50.15625,"type":"noteOff","velocity":0},{"channel":9,"nextOffset":23168,"note":42,"tick":38536,"time":50.177083333333336,"type":"noteOff","velocity":0},{"channel":9,"nextOffset":32182,"note":42,"tick":38544,"time":50.1875,"type":"noteOn","velocity":50},{"channel":1,"nextOffset":16138,"note":26,"tick":38557,"time":50.204427083333336,"type":"noteOff","velocity":0},{"channel":1,"nextOffset":16142,"note":33,"tick":38557,"time":50.204427083333336,"type":"noteOn","velocity":50},{"channel":8,"nextOffset":40681,"note":64,"tick":38560,"time":50.208333333333336,"type":"noteOn","velocity":50},{"channel":9,"nextOffset":32186,"note":42,"tick":38568,"time":50.21875,"type":"noteOff","velocity":0},{"channel":5,"nextOffset":38620,"note":79,"tick":38590,"time":50.247395833333336,"type":"noteOff","velocity":0},{"channel":9,"nextOffset":32190,"note":42,"tick":38592,"time":50.25,"type":"noteOn","velocity":50},{"channel":9,"nextOffset":32194,"note":42,"tick":38616,"time":50.28125,"type":"noteOff","velocity":0},{"channel":9,"nextOffset":32198,"note":42,"tick":38640,"time":50.3125,"type":"noteOn","velocity":50},{"channel":2,"nextOffset":27687,"note":33,"tick":38645,"time":50.319010416666664,"type":"noteOff","velocity":0},{"channel":2,"nextOffset":27691,"note":32,"tick":38645,"time":50.319010416666664,"type":"noteOn","velocity":57},{"channel":2,"nextOffset":27695,"note":32,"tick":38645,"time":50.319010416666664,"type":"noteOn","velocity":57},{"channel":9,"nextOffset":20534,"note":35,"tick":38654,"time":50.330729166666664,"type":"noteOn","velocity":50},{"channel":9,"nextOffset":32202,"note":42,"tick":38664,"time":50.34375,"type":"noteOff","velocity":0},{"channel":5,"nextOffset":38624,"note":81,"tick":38686,"time":50.372395833333336,"type":"noteOff","velocity":0},{"channel":5,"nextOffset":38628,"note":77,"tick":38686,"time":50.372395833333336,"type":"noteOff","velocity":0},{"channel":5,"nextOffset":38632,"note":74,"tick":38686,"time":50.372395833333336,"type":"noteOff","velocity":0},{"channel":5,"nextOffset":38636,"note":70,"tick":38686,"time":50.372395833333336,"type":"noteOff","velocity":0},{"channel":9,"nextOffset":32206,"note":42,"tick":38688,"time":50.375,"type":"noteOn","velocity":50},{"channel":9,"nextOffset":32210,"note":42,"tick":38712,"time":50.40625,"type":"noteOff","velocity":0},{"channel":9,"nextOffset":44323,"note":42,"tick":38720,"time":50.416666666666664,"type":"noteOn","velocity":50},{"channel":1,"nextOffset":16147,"note":33,"tick":38749,"time":50.454427083333336,"type":"noteOff","velocity":0},{"channel":1,"nextOffset":16151,"note":32,"tick":38749,"time":50.454427083333336,"type":"noteOn","velocity":50},{"channel":1,"nextOffset":16155,"note":32,"tick":38749,"time":50.454427083333336,"type":"noteOn","velocity":50},{"channel":9,"nextOffset":20538,"note":35,"tick":38750,"time":50.455729166666664,"type":"noteOff","velocity":0},{"channel":8,"nextOffset":40686,"note":64,"tick":38752,"time":50.458333333333336,"type":"noteOff","velocity":0},{"channel":9,"nextOffset":24320,"note":35,"tick":38758,"time":50.466145833333336,"type":"noteOn","velocity":50},{"channel":9,"nextOffset":44327,"note":42,"tick":38816,"time":50.541666666666664,"type":"noteOff","velocity":0},{"channel":9,"nextOffset":23173,"note":42,"tick":38824,"time":50.552083333333336,"type":"noteOn","velocity":50},{"channel":2,"nextOffset":27700,"note":32,"tick":38837,"time":50.569010416666664,"type":"noteOff","velocity":0},{"channel":2,"nextOffset":27704,"note":32,"tick":38837,"time":50.569010416666664,"type":"noteOff","velocity":0},{"channel":2,"nextOffset":27708,"note":31,"tick":38837,"time":50.569010416666664,"type":"noteOn","velocity":57},{"channel":9,"nextOffset":24324,"note":35,"tick":38854,"time":50.591145833333336,"type":"noteOff","velocity":0},{"channel":5,"nextOffset":38641,"note":70,"tick":38878,"time":50.622395833333336,"type":"noteOn","velocity":70},{"channel":5,"nextOffset":38645,"note":74,"tick":38878,"time":50.622395833333336,"type":"noteOn","velocity":70},{"channel":5,"nextOffset":38649,"note":77,"tick":38878,"time":50.622395833333336,"type":"noteOn","velocity":70},{"channel":5,"nextOffset":38653,"note":81,"tick":38878,"time":50.622395833333336,"type":"noteOn","velocity":70},{"channel":9,"nextOffset":32215,"note":42,"tick":38880,"time":50.625,"type":"noteOn","velocity":50},{"channel":9,"nextOffset":23177,"note":42,"tick":38920,"time":50.677083333333336,"type":"noteOff","velocity":0},{"channel":1,"nextOffset":16160,"note":32,"tick":38941,"time":50.704427083333336,"type":"noteOff","velocity":0},{"channel":1,"nextOffset":16164,"note":32,"tick":38941,"time":50.704427083333336,"type":"noteOff","velocity":0},{"channel":1,"nextOffset":16168,"note":31,"tick":38941,"time":50.704427083333336,"type":"noteOn","velocity":50},{"channel":9,"nextOffset":20543,"note":35,"tick":38942,"time":50.705729166666664,"type":"noteOn","velocity":50},{"channel":8,"nextOffset":40691,"note":67,"tick":38944,"time":50.708333333333336,"type":"noteOn","velocity":50},{"channel":9,"nextOffset":32219,"note":42,"tick":38976,"time":50.75,"type":"noteOff","velocity":0},{"channel":9,"nextOffset":32223,"note":42,"tick":38976,"time":50.75,"type":"noteOn","velocity":50},{"channel":9,"nextOffset":44332,"note":42,"tick":39008,"time":50.791666666666664,"type":"noteOn","velocity":50},{"channel":2,"nextOffset":27713,"note":31,"tick":39029,"time":50.819010416666664,"type":"noteOff","velocity":0},{"channel":9,"nextOffset":20547,"note":35,"tick":39038,"time":50.830729166666664,"type":"noteOff","velocity":0},{"channel":9,"nextOffset":24329,"note":35,"tick":39046,"time":50.841145833333336,"type":"noteOn","velocity":50},{"channel":5,"nextOffset":38658,"note":81,"tick":39070,"time":50.872395833333336,"type":"noteOff","velocity":0},{"channel":5,"nextOffset":38662,"note":77,"tick":39070,"time":50.872395833333336,"type":"noteOff","velocity":0},{"channel":5,"nextOffset":38666,"note":74,"tick":39070,"time":50.872395833333336,"type":"noteOff","velocity":0},{"channel":5,"nextOffset":38670,"note":70,"tick":39070,"time":50.872395833333336,"type":"noteOff","velocity":0},{"channel":9,"nextOffset":32227,"note":42,"tick":39072,"time":50.875,"type":"noteOff","velocity":0},{"channel":9,"nextOffset":44336,"note":42,"tick":39104,"time":50.916666666666664,"type":"noteOff","velocity":0},{"channel":9,"nextOffset":23182,"note":42,"tick":39112,"time":50.927083333333336,"type":"noteOn","velocity":50},{"channel":2,"nextOffset":39601,"note":0,"tick":39124,"time":50.942708333333336,"type":"noteOff","velocity":214},{"channel":1,"nextOffset":16173,"note":31,"tick":39133,"time":50.954427083333336,"type":"noteOff","velocity":0},{"channel":8,"nextOffset":40696,"note":67,"tick":39136,"time":50.958333333333336,"type":"noteOff","velocity":0},{"channel":8,"nextOffset":40700,"note":65,"tick":39136,"time":50.958333333333336,"type":"noteOn","velocity":50},{"channel":9,"nextOffset":24333,"note":35,"tick":39142,"time":50.966145833333336,"type":"noteOff","velocity":0},{"channel":6,"nextOffset":39605,"note":74,"tick":39156,"time":50.984375,"type":"noteOn","velocity":50},{"channel":9,"nextOffset":23186,"note":42,"tick":39208,"time":51.052083333333336,"type":"noteOff","velocity":0},{"channel":2,"nextOffset":27718,"note":31,"tick":39221,"time":51.069010416666664,"type":"noteOn","velocity":57},{"channel":9,"nextOffset":20552,"note":35,"tick":39230,"time":51.080729166666664,"type":"noteOn","velocity":50},{"channel":8,"nextOffset":40704,"note":65,"tick":39232,"time":51.083333333333336,"type":"noteOff","velocity":0},{"channel":6,"nextOffset":39609,"note":74,"tick":39252,"time":51.109375,"type":"noteOff","velocity":0},{"channel":6,"nextOffset":39613,"note":77,"tick":39252,"time":51.109375,"type":"noteOn","velocity":50},{"channel":5,"nextOffset":38675,"note":70,"tick":39262,"time":51.122395833333336,"type":"noteOn","velocity":70},{"channel":5,"nextOffset":38679,"note":67,"tick":39262,"time":51.122395833333336,"type":"noteOn","velocity":70},{"channel":5,"nextOffset":38683,"note":73,"tick":39262,"time":51.122395833333336,"type":"noteOn","velocity":70},{"channel":5,"nextOffset":38687,"note":77,"tick":39262,"time":51.122395833333336,"type":"noteOn","velocity":70},{"channel":9,"nextOffset":32232,"note":42,"tick":39264,"time":51.125,"type":"noteOn","velocity":50},{"channel":1,"nextOffset":16178,"note":31,"tick":39325,"time":51.204427083333336,"type":"noteOn","velocity":50},{"channel":9,"nextOffset":20556,"note":35,"tick":39326,"time":51.205729166666664,"type":"noteOff","velocity":0},{"channel":8,"nextOffset":40708,"note":67,"tick":39328,"time":51.208333333333336,"type":"noteOn","velocity":50},{"channel":9,"nextOffset":24338,"note":35,"tick":39334,"time":51.216145833333336,"type":"noteOn","velocity":50},{"channel":6,"nextOffset":39617,"note":77,"tick":39348,"time":51.234375,"type":"noteOff","velocity":0},{"channel":6,"nextOffset":39621,"note":79,"tick":39348,"time":51.234375,"type":"noteOn","velocity":50},{"channel":9,"nextOffset":32236,"note":42,"tick":39360,"time":51.25,"type":"noteOff","velocity":0},{"channel":9,"nextOffset":32240,"note":42,"tick":39360,"time":51.25,"type":"noteOn","velocity":50},{"channel":2,"nextOffset":27723,"note":31,"tick":39413,"time":51.319010416666664,"type":"noteOff","velocity":0},{"channel":2,"nextOffset":27727,"note":32,"tick":39413,"time":51.319010416666664,"type":"noteOn","velocity":57},{"channel":9,"nextOffset":20560,"note":35,"tick":39422,"time":51.330729166666664,"type":"noteOn","velocity":50},{"channel":9,"nextOffset":24342,"note":35,"tick":39430,"time":51.341145833333336,"type":"noteOff","velocity":0},{"channel":6,"nextOffset":39625,"note":79,"tick":39444,"time":51.359375,"type":"noteOff","velocity":0},{"channel":5,"nextOffset":38692,"note":77,"tick":39454,"time":51.372395833333336,"type":"noteOff","velocity":0},{"channel":5,"nextOffset":38696,"note":73,"tick":39454,"time":51.372395833333336,"type":"noteOff","velocity":0},{"channel":5,"nextOffset":38700,"note":67,"tick":39454,"time":51.372395833333336,"type":"noteOff","velocity":0},{"channel":5,"nextOffset":38704,"note":70,"tick":39454,"time":51.372395833333336,"type":"noteOff","velocity":0},{"channel":9,"nextOffset":32244,"note":42,"tick":39456,"time":51.375,"type":"noteOff","velocity":0},{"channel":9,"nextOffset":44341,"note":42,"tick":39488,"time":51.416666666666664,"type":"noteOn","velocity":50},{"channel":1,"nextOffset":16183,"note":31,"tick":39517,"time":51.454427083333336,"type":"noteOff","velocity":0},{"channel":1,"nextOffset":16187,"note":32,"tick":39517,"time":51.454427083333336,"type":"noteOn","velocity":50},{"channel":9,"nextOffset":20564,"note":35,"tick":39518,"time":51.455729166666664,"type":"noteOff","velocity":0},{"channel":8,"nextOffset":40713,"note":67,"tick":39520,"time":51.458333333333336,"type":"noteOff","velocity":0},{"channel":8,"nextOffset":40717,"note":67,"tick":39520,"time":51.458333333333336,"type":"noteOn","velocity":50},{"channel":9,"nextOffset":24346,"note":35,"tick":39526,"time":51.466145833333336,"type":"noteOn","velocity":50},{"channel":6,"nextOffset":39629,"note":81,"tick":39540,"time":51.484375,"type":"noteOn","velocity":50},{"channel":8,"nextOffset":40721,"note":67,"tick":39568,"time":51.520833333333336,"type":"noteOff","velocity":0},{"channel":8,"nextOffset":40725,"note":69,"tick":39568,"time":51.520833333333336,"type":"noteOn","velocity":50},{"channel":9,"nextOffset":44345,"note":42,"tick":39584,"time":51.541666666666664,"type":"noteOff","velocity":0},{"channel":9,"nextOffset":23191,"note":42,"tick":39592,"time":51.552083333333336,"type":"noteOn","velocity":50},{"channel":2,"nextOffset":27732,"note":32,"tick":39605,"time":51.569010416666664,"type":"noteOff","velocity":0},{"channel":2,"nextOffset":27736,"note":33,"tick":39605,"time":51.569010416666664,"type":"noteOn","velocity":57},{"channel":9,"nextOffset":24350,"note":35,"tick":39622,"time":51.591145833333336,"type":"noteOff","velocity":0},{"channel":6,"nextOffset":39633,"note":81,"tick":39636,"time":51.609375,"type":"noteOff","velocity":0},{"channel":5,"nextOffset":38709,"note":70,"tick":39646,"time":51.622395833333336,"type":"noteOn","velocity":70},{"channel":5,"nextOffset":38713,"note":67,"tick":39646,"time":51.622395833333336,"type":"noteOn","velocity":70},{"channel":5,"nextOffset":38717,"note":73,"tick":39646,"time":51.622395833333336,"type":"noteOn","velocity":70},{"channel":5,"nextOffset":38721,"note":76,"tick":39646,"time":51.622395833333336,"type":"noteOn","velocity":70},{"channel":9,"nextOffset":32249,"note":42,"tick":39648,"time":51.625,"type":"noteOn","velocity":50},{"channel":9,"nextOffset":23195,"note":42,"tick":39688,"time":51.677083333333336,"type":"noteOff","velocity":0},{"channel":1,"nextOffset":16192,"note":32,"tick":39709,"time":51.704427083333336,"type":"noteOff","velocity":0},{"channel":1,"nextOffset":16196,"note":33,"tick":39709,"time":51.704427083333336,"type":"noteOn","velocity":50},{"channel":8,"nextOffset":40730,"note":69,"tick":39712,"time":51.708333333333336,"type":"noteOff","velocity":0},{"channel":6,"nextOffset":39637,"note":84,"tick":39732,"time":51.734375,"type":"noteOn","velocity":50},{"channel":9,"nextOffset":32253,"note":42,"tick":39744,"time":51.75,"type":"noteOff","velocity":0},{"channel":2,"nextOffset":27741,"note":33,"tick":39797,"time":51.819010416666664,"type":"noteOff","velocity":0},{"channel":9,"nextOffset":20569,"note":35,"tick":39806,"time":51.830729166666664,"type":"noteOn","velocity":50},{"channel":6,"nextOffset":39641,"note":84,"tick":39828,"time":51.859375,"type":"noteOff","velocity":0},{"channel":5,"nextOffset":38726,"note":76,"tick":39838,"time":51.872395833333336,"type":"noteOff","velocity":0},{"channel":5,"nextOffset":38730,"note":73,"tick":39838,"time":51.872395833333336,"type":"noteOff","velocity":0},{"channel":5,"nextOffset":38734,"note":67,"tick":39838,"time":51.872395833333336,"type":"noteOff","velocity":0},{"channel":5,"nextOffset":38738,"note":70,"tick":39838,"time":51.872395833333336,"type":"noteOff","velocity":0},{"channel":9,"nextOffset":44350,"note":42,"tick":39872,"time":51.916666666666664,"type":"noteOn","velocity":50},{"channel":2,"nextOffset":27745,"note":33,"tick":39893,"time":51.944010416666664,"type":"noteOn","velocity":57},{"channel":1,"nextOffset":16201,"note":33,"tick":39901,"time":51.954427083333336,"type":"noteOff","velocity":0},{"channel":9,"nextOffset":20573,"note":35,"tick":39902,"time":51.955729166666664,"type":"noteOff","velocity":0},{"channel":8,"nextOffset":40735,"note":69,"tick":39904,"time":51.958333333333336,"type":"noteOn","velocity":50},{"channel":9,"nextOffset":24355,"note":35,"tick":39910,"time":51.966145833333336,"type":"noteOn","velocity":50},{"channel":6,"nextOffset":39645,"note":82,"tick":39924,"time":51.984375,"type":"noteOn","velocity":50},{"channel":8,"nextOffset":40739,"note":69,"tick":39928,"time":51.989583333333336,"type":"noteOff","velocity":0},{"channel":8,"nextOffset":40743,"note":70,"tick":39928,"time":51.989583333333336,"type":"noteOn","velocity":50},{"channel":9,"nextOffset":32258,"note":42,"tick":39936,"time":52,"type":"noteOn","velocity":50},{"channel":9,"nextOffset":44354,"note":42,"tick":39968,"time":52.041666666666664,"type":"noteOff","velocity":0},{"channel":9,"nextOffset":23200,"note":42,"tick":39976,"time":52.052083333333336,"type":"noteOn","velocity":50},{"channel":2,"nextOffset":27749,"note":33,"tick":39989,"time":52.069010416666664,"type":"noteOff","velocity":0},{"channel":1,"nextOffset":16205,"note":33,"tick":39997,"time":52.079427083333336,"type":"noteOn","velocity":50},{"channel":8,"nextOffset":40747,"note":70,"tick":40000,"time":52.083333333333336,"type":"noteOff","velocity":0},{"channel":9,"nextOffset":24359,"note":35,"tick":40006,"time":52.091145833333336,"type":"noteOff","velocity":0},{"channel":6,"nextOffset":39649,"note":82,"tick":40020,"time":52.109375,"type":"noteOff","velocity":0},{"channel":5,"nextOffset":38743,"note":72,"tick":40030,"time":52.122395833333336,"type":"noteOn","velocity":70},{"channel":5,"nextOffset":38747,"note":69,"tick":40030,"time":52.122395833333336,"type":"noteOn","velocity":70},{"channel":5,"nextOffset":38751,"note":76,"tick":40030,"time":52.122395833333336,"type":"noteOn","velocity":70},{"channel":5,"nextOffset":38755,"note":79,"tick":40030,"time":52.122395833333336,"type":"noteOn","velocity":70},{"channel":9,"nextOffset":32262,"note":42,"tick":40032,"time":52.125,"type":"noteOff","velocity":0},{"channel":9,"nextOffset":32266,"note":42,"tick":40032,"time":52.125,"type":"noteOn","velocity":50},{"channel":9,"nextOffset":32270,"note":42,"tick":40056,"time":52.15625,"type":"noteOff","velocity":0},{"channel":9,"nextOffset":23204,"note":42,"tick":40072,"time":52.177083333333336,"type":"noteOff","velocity":0},{"channel":9,"nextOffset":32274,"note":42,"tick":40080,"time":52.1875,"type":"noteOn","velocity":50},{"channel":1,"nextOffset":16209,"note":33,"tick":40093,"time":52.204427083333336,"type":"noteOff","velocity":0},{"channel":8,"nextOffset":40751,"note":69,"tick":40096,"time":52.208333333333336,"type":"noteOn","velocity":50},{"channel":9,"nextOffset":32278,"note":42,"tick":40104,"time":52.21875,"type":"noteOff","velocity":0},{"channel":6,"nextOffset":39653,"note":81,"tick":40116,"time":52.234375,"type":"noteOn","velocity":50},{"channel":9,"nextOffset":32282,"note":42,"tick":40128,"time":52.25,"type":"noteOn","velocity":50},{"channel":9,"nextOffset":32286,"note":42,"tick":40152,"time":52.28125,"type":"noteOff","velocity":0},{"channel":9,"nextOffset":32290,"note":42,"tick":40176,"time":52.3125,"type":"noteOn","velocity":50},{"channel":2,"nextOffset":27754,"note":26,"tick":40181,"time":52.319010416666664,"type":"noteOn","velocity":57},{"channel":9,"nextOffset":20578,"note":35,"tick":40190,"time":52.330729166666664,"type":"noteOn","velocity":50},{"channel":9,"nextOffset":32294,"note":42,"tick":40200,"time":52.34375,"type":"noteOff","velocity":0},{"channel":6,"nextOffset":39657,"note":81,"tick":40212,"time":52.359375,"type":"noteOff","velocity":0},{"channel":5,"nextOffset":38760,"note":79,"tick":40222,"time":52.372395833333336,"type":"noteOff","velocity":0},{"channel":5,"nextOffset":38764,"note":76,"tick":40222,"time":52.372395833333336,"type":"noteOff","velocity":0},{"channel":5,"nextOffset":38768,"note":69,"tick":40222,"time":52.372395833333336,"type":"noteOff","velocity":0},{"channel":5,"nextOffset":38772,"note":72,"tick":40222,"time":52.372395833333336,"type":"noteOff","velocity":0},{"channel":9,"nextOffset":32298,"note":42,"tick":40224,"time":52.375,"type":"noteOn","velocity":50},{"channel":9,"nextOffset":32302,"note":42,"tick":40248,"time":52.40625,"type":"noteOff","velocity":0},{"channel":9,"nextOffset":44359,"note":42,"tick":40256,"time":52.416666666666664,"type":"noteOn","velocity":50},{"channel":1,"nextOffset":16214,"note":26,"tick":40285,"time":52.454427083333336,"type":"noteOn","velocity":50},{"channel":9,"nextOffset":20582,"note":35,"tick":40286,"time":52.455729166666664,"type":"noteOff","velocity":0},{"channel":9,"nextOffset":24364,"note":35,"tick":40294,"time":52.466145833333336,"type":"noteOn","velocity":50},{"channel":6,"nextOffset":39661,"note":80,"tick":40308,"time":52.484375,"type":"noteOn","velocity":50},{"channel":9,"nextOffset":44363,"note":42,"tick":40352,"time":52.541666666666664,"type":"noteOff","velocity":0},{"channel":9,"nextOffset":23209,"note":42,"tick":40360,"time":52.552083333333336,"type":"noteOn","velocity":50},{"channel":2,"nextOffset":27759,"note":26,"tick":40373,"time":52.569010416666664,"type":"noteOff","velocity":0},{"channel":9,"nextOffset":24368,"note":35,"tick":40390,"time":52.591145833333336,"type":"noteOff","velocity":0},{"channel":6,"nextOffset":39665,"note":80,"tick":40404,"time":52.609375,"type":"noteOff","velocity":0},{"channel":5,"nextOffset":38777,"note":72,"tick":40414,"time":52.622395833333336,"type":"noteOn","velocity":70},{"channel":5,"nextOffset":38781,"note":69,"tick":40414,"time":52.622395833333336,"type":"noteOn","velocity":70},{"channel":5,"nextOffset":38785,"note":74,"tick":40414,"time":52.622395833333336,"type":"noteOn","velocity":70},{"channel":5,"nextOffset":38789,"note":77,"tick":40414,"time":52.622395833333336,"type":"noteOn","velocity":70},{"channel":9,"nextOffset":32307,"note":42,"tick":40416,"time":52.625,"type":"noteOn","velocity":50},{"channel":9,"nextOffset":23213,"note":42,"tick":40456,"time":52.677083333333336,"type":"noteOff","velocity":0},{"channel":1,"nextOffset":16219,"note":26,"tick":40477,"time":52.704427083333336,"type":"noteOff","velocity":0},{"channel":9,"nextOffset":20587,"note":35,"tick":40478,"time":52.705729166666664,"type":"noteOn","velocity":50},{"channel":2,"nextOffset":39892,"note":50,"tick":40509,"time":52.74609375,"type":"noteOff","velocity":96},{"channel":9,"nextOffset":32311,"note":42,"tick":40512,"time":52.75,"type":"noteOff","velocity":0},{"channel":9,"nextOffset":32315,"note":42,"tick":40512,"time":52.75,"type":"noteOn","velocity":50},{"channel":9,"nextOffset":44368,"note":42,"tick":40544,"time":52.791666666666664,"type":"noteOn","velocity":50},{"channel":2,"nextOffset":27764,"note":38,"tick":40565,"time":52.819010416666664,"type":"noteOn","velocity":57},{"channel":9,"nextOffset":20591,"note":35,"tick":40574,"time":52.830729166666664,"type":"noteOff","velocity":0},{"channel":9,"nextOffset":24373,"note":35,"tick":40582,"time":52.841145833333336,"type":"noteOn","velocity":50},{"channel":5,"nextOffset":38794,"note":77,"tick":40606,"time":52.872395833333336,"type":"noteOff","velocity":0},{"channel":5,"nextOffset":38798,"note":74,"tick":40606,"time":52.872395833333336,"type":"noteOff","velocity":0},{"channel":5,"nextOffset":38802,"note":69,"tick":40606,"time":52.872395833333336,"type":"noteOff","velocity":0},{"channel":5,"nextOffset":38806,"note":72,"tick":40606,"time":52.872395833333336,"type":"noteOff","velocity":0},{"channel":9,"nextOffset":32319,"note":42,"tick":40608,"time":52.875,"type":"noteOff","velocity":0},{"channel":9,"nextOffset":44372,"note":42,"tick":40640,"time":52.916666666666664,"type":"noteOff","velocity":0},{"channel":9,"nextOffset":23218,"note":42,"tick":40648,"time":52.927083333333336,"type":"noteOn","velocity":50},{"channel":1,"nextOffset":16224,"note":38,"tick":40669,"time":52.954427083333336,"type":"noteOn","velocity":50},{"channel":9,"nextOffset":24377,"note":35,"tick":40678,"time":52.966145833333336,"type":"noteOff","velocity":0},{"channel":9,"nextOffset":23222,"note":42,"tick":40744,"time":53.052083333333336,"type":"noteOff","velocity":0},{"channel":2,"nextOffset":27769,"note":38,"tick":40757,"time":53.069010416666664,"type":"noteOff","velocity":0},{"channel":2,"nextOffset":27773,"note":26,"tick":40757,"time":53.069010416666664,"type":"noteOn","velocity":57},{"channel":9,"nextOffset":20596,"note":35,"tick":40766,"time":53.080729166666664,"type":"noteOn","velocity":50},{"channel":5,"nextOffset":38811,"note":69,"tick":40798,"time":53.122395833333336,"type":"noteOn","velocity":70},{"channel":5,"nextOffset":38815,"note":67,"tick":40798,"time":53.122395833333336,"type":"noteOn","velocity":70},{"channel":5,"nextOffset":38819,"note":72,"tick":40798,"time":53.122395833333336,"type":"noteOn","velocity":70},{"channel":5,"nextOffset":38823,"note":76,"tick":40798,"time":53.122395833333336,"type":"noteOn","velocity":70},{"channel":9,"nextOffset":32324,"note":42,"tick":40800,"time":53.125,"type":"noteOn","velocity":50},{"channel":1,"nextOffset":16229,"note":38,"tick":40861,"time":53.204427083333336,"type":"noteOff","velocity":0},{"channel":1,"nextOffset":16233,"note":26,"tick":40861,"time":53.204427083333336,"type":"noteOn","velocity":50},{"channel":9,"nextOffset":20600,"note":35,"tick":40862,"time":53.205729166666664,"type":"noteOff","velocity":0},{"channel":9,"nextOffset":24382,"note":35,"tick":40870,"time":53.216145833333336,"type":"noteOn","velocity":50},{"channel":9,"nextOffset":32328,"note":42,"tick":40896,"time":53.25,"type":"noteOff","velocity":0},{"channel":9,"nextOffset":32332,"note":42,"tick":40896,"time":53.25,"type":"noteOn","velocity":50},{"channel":2,"nextOffset":27778,"note":26,"tick":40949,"time":53.319010416666664,"type":"noteOff","velocity":0},{"channel":2,"nextOffset":27782,"note":33,"tick":40949,"time":53.319010416666664,"type":"noteOn","velocity":57},{"channel":9,"nextOffset":20604,"note":35,"tick":40958,"time":53.330729166666664,"type":"noteOn","velocity":50},{"channel":9,"nextOffset":24386,"note":35,"tick":40966,"time":53.341145833333336,"type":"noteOff","velocity":0},{"channel":5,"nextOffset":38828,"note":76,"tick":40990,"time":53.372395833333336,"type":"noteOff","velocity":0},{"channel":5,"nextOffset":38832,"note":72,"tick":40990,"time":53.372395833333336,"type":"noteOff","velocity":0},{"channel":5,"nextOffset":38836,"note":67,"tick":40990,"time":53.372395833333336,"type":"noteOff","velocity":0},{"channel":5,"nextOffset":38840,"note":69,"tick":40990,"time":53.372395833333336,"type":"noteOff","velocity":0},{"channel":9,"nextOffset":32336,"note":42,"tick":40992,"time":53.375,"type":"noteOff","velocity":0},{"channel":9,"nextOffset":44377,"note":42,"tick":41024,"time":53.416666666666664,"type":"noteOn","velocity":50},{"channel":1,"nextOffset":16238,"note":26,"tick":41053,"time":53.454427083333336,"type":"noteOff","velocity":0},{"channel":1,"nextOffset":16242,"note":33,"tick":41053,"time":53.454427083333336,"type":"noteOn","velocity":50},{"channel":9,"nextOffset":20608,"note":35,"tick":41054,"time":53.455729166666664,"type":"noteOff","velocity":0},{"channel":9,"nextOffset":24390,"note":35,"tick":41062,"time":53.466145833333336,"type":"noteOn","velocity":50},{"channel":9,"nextOffset":44381,"note":42,"tick":41120,"time":53.541666666666664,"type":"noteOff","velocity":0},{"channel":9,"nextOffset":44385,"note":42,"tick":41120,"time":53.541666666666664,"type":"noteOn","velocity":50},{"channel":2,"nextOffset":27787,"note":33,"tick":41141,"time":53.569010416666664,"type":"noteOff","velocity":0},{"channel":8,"nextOffset":40756,"note":69,"tick":41152,"time":53.583333333333336,"type":"noteOff","velocity":0},{"channel":9,"nextOffset":24394,"note":35,"tick":41158,"time":53.591145833333336,"type":"noteOff","velocity":0},{"channel":5,"nextOffset":38845,"note":69,"tick":41182,"time":53.622395833333336,"type":"noteOn","velocity":70},{"channel":5,"nextOffset":38849,"note":65,"tick":41182,"time":53.622395833333336,"type":"noteOn","velocity":70},{"channel":5,"nextOffset":38853,"note":72,"tick":41182,"time":53.622395833333336,"type":"noteOn","velocity":70},{"channel":5,"nextOffset":38857,"note":74,"tick":41182,"time":53.622395833333336,"type":"noteOn","velocity":70},{"channel":9,"nextOffset":32341,"note":42,"tick":41184,"time":53.625,"type":"noteOn","velocity":50},{"channel":9,"nextOffset":44389,"note":42,"tick":41216,"time":53.666666666666664,"type":"noteOff","velocity":0},{"channel":0,"nextOffset":83,"note":43,"tick":41225,"time":53.678385416666664,"type":"noteOff","velocity":0},{"channel":0,"nextOffset":87,"note":50,"tick":41225,"time":53.678385416666664,"type":"noteOn","velocity":68},{"channel":1,"nextOffset":16247,"note":33,"tick":41245,"time":53.704427083333336,"type":"noteOff","velocity":0},{"channel":9,"nextOffset":32345,"note":42,"tick":41280,"time":53.75,"type":"noteOff","velocity":0},{"channel":2,"nextOffset":27792,"note":26,"tick":41333,"time":53.819010416666664,"type":"noteOn","velocity":57},{"channel":9,"nextOffset":20613,"note":35,"tick":41342,"time":53.830729166666664,"type":"noteOn","velocity":50},{"channel":5,"nextOffset":38862,"note":74,"tick":41374,"time":53.872395833333336,"type":"noteOff","velocity":0},{"channel":5,"nextOffset":38866,"note":72,"tick":41374,"time":53.872395833333336,"type":"noteOff","velocity":0},{"channel":5,"nextOffset":38870,"note":65,"tick":41374,"time":53.872395833333336,"type":"noteOff","velocity":0},{"channel":5,"nextOffset":38874,"note":69,"tick":41374,"time":53.872395833333336,"type":"noteOff","velocity":0},{"channel":9,"nextOffset":44394,"note":42,"tick":41408,"time":53.916666666666664,"type":"noteOn","velocity":50},{"channel":0,"nextOffset":92,"note":69,"tick":41417,"time":53.928385416666664,"type":"noteOff","velocity":0},{"channel":0,"nextOffset":96,"note":65,"tick":41417,"time":53.928385416666664,"type":"noteOff","velocity":0},{"channel":0,"nextOffset":100,"note":62,"tick":41417,"time":53.928385416666664,"type":"noteOff","velocity":0},{"channel":0,"nextOffset":104,"note":58,"tick":41417,"time":53.928385416666664,"type":"noteOff","velocity":0},{"channel":0,"nextOffset":108,"note":50,"tick":41417,"time":53.928385416666664,"type":"noteOff","velocity":0},{"channel":0,"nextOffset":112,"note":43,"tick":41417,"time":53.928385416666664,"type":"noteOn","velocity":68},{"channel":1,"nextOffset":16252,"note":26,"tick":41437,"time":53.954427083333336,"type":"noteOn","velocity":50},{"channel":9,"nextOffset":20617,"note":35,"tick":41438,"time":53.955729166666664,"type":"noteOff","velocity":0},{"channel":9,"nextOffset":24399,"note":35,"tick":41446,"time":53.966145833333336,"type":"noteOn","velocity":50},{"channel":9,"nextOffset":32350,"note":42,"tick":41472,"time":54,"type":"noteOn","velocity":50},{"channel":2,"nextOffset":39896,"note":0,"tick":41497,"time":54.032552083333336,"type":"noteOff","velocity":214},{"channel":9,"nextOffset":44398,"note":42,"tick":41504,"time":54.041666666666664,"type":"noteOff","velocity":0},{"channel":9,"nextOffset":44402,"note":42,"tick":41504,"time":54.041666666666664,"type":"noteOn","velocity":50},{"channel":2,"nextOffset":27797,"note":26,"tick":41525,"time":54.069010416666664,"type":"noteOff","velocity":0},{"channel":2,"nextOffset":27801,"note":33,"tick":41525,"time":54.069010416666664,"type":"noteOn","velocity":57},{"channel":7,"nextOffset":39900,"note":86,"tick":41529,"time":54.07421875,"type":"noteOn","velocity":50},{"channel":9,"nextOffset":24403,"note":35,"tick":41542,"time":54.091145833333336,"type":"noteOff","velocity":0},{"channel":5,"nextOffset":38879,"note":67,"tick":41566,"time":54.122395833333336,"type":"noteOn","velocity":70},{"channel":5,"nextOffset":38883,"note":70,"tick":41566,"time":54.122395833333336,"type":"noteOn","velocity":70},{"channel":5,"nextOffset":38887,"note":74,"tick":41566,"time":54.122395833333336,"type":"noteOn","velocity":70},{"channel":5,"nextOffset":38891,"note":77,"tick":41566,"time":54.122395833333336,"type":"noteOn","velocity":70},{"channel":9,"nextOffset":32354,"note":42,"tick":41568,"time":54.125,"type":"noteOff","velocity":0},{"channel":9,"nextOffset":32358,"note":42,"tick":41568,"time":54.125,"type":"noteOn","velocity":50},{"channel":9,"nextOffset":32362,"note":42,"tick":41592,"time":54.15625,"type":"noteOff","velocity":0},{"channel":9,"nextOffset":44406,"note":42,"tick":41600,"time":54.166666666666664,"type":"noteOff","velocity":0},{"channel":0,"nextOffset":117,"note":43,"tick":41609,"time":54.178385416666664,"type":"noteOff","velocity":0},{"channel":0,"nextOffset":121,"note":44,"tick":41609,"time":54.178385416666664,"type":"noteOn","velocity":68},{"channel":0,"nextOffset":125,"note":65,"tick":41609,"time":54.178385416666664,"type":"noteOn","velocity":68},{"channel":9,"nextOffset":32366,"note":42,"tick":41616,"time":54.1875,"type":"noteOn","velocity":50},{"channel":7,"nextOffset":39904,"note":86,"tick":41625,"time":54.19921875,"type":"noteOff","velocity":0},{"channel":7,"nextOffset":39908,"note":89,"tick":41625,"time":54.19921875,"type":"noteOn","velocity":50},{"channel":1,"nextOffset":16257,"note":26,"tick":41629,"time":54.204427083333336,"type":"noteOff","velocity":0},{"channel":1,"nextOffset":16261,"note":33,"tick":41629,"time":54.204427083333336,"type":"noteOn","velocity":50},{"channel":9,"nextOffset":32370,"note":42,"tick":41640,"time":54.21875,"type":"noteOff","velocity":0},{"channel":9,"nextOffset":32374,"note":42,"tick":41664,"time":54.25,"type":"noteOn","velocity":50},{"channel":10,"nextOffset":41422,"note":86,"tick":41665,"time":54.251302083333336,"type":"noteOn","velocity":50},{"channel":9,"nextOffset":32378,"note":42,"tick":41688,"time":54.28125,"type":"noteOff","velocity":0},{"channel":0,"nextOffset":129,"note":65,"tick":41705,"time":54.303385416666664,"type":"noteOff","velocity":0},{"channel":0,"nextOffset":133,"note":69,"tick":41705,"time":54.303385416666664,"type":"noteOn","velocity":68},{"channel":9,"nextOffset":32382,"note":42,"tick":41712,"time":54.3125,"type":"noteOn","velocity":50},{"channel":2,"nextOffset":27806,"note":33,"tick":41717,"time":54.319010416666664,"type":"noteOff","velocity":0},{"channel":2,"nextOffset":27810,"note":32,"tick":41717,"time":54.319010416666664,"type":"noteOn","velocity":57},{"channel":7,"nextOffset":39912,"note":89,"tick":41721,"time":54.32421875,"type":"noteOff","velocity":0},{"channel":7,"nextOffset":39916,"note":91,"tick":41721,"time":54.32421875,"type":"noteOn","velocity":50},{"channel":9,"nextOffset":20622,"note":35,"tick":41726,"time":54.330729166666664,"type":"noteOn","velocity":50},{"channel":9,"nextOffset":32386,"note":42,"tick":41736,"time":54.34375,"type":"noteOff","velocity":0},{"channel":5,"nextOffset":38896,"note":77,"tick":41758,"time":54.372395833333336,"type":"noteOff","velocity":0},{"channel":5,"nextOffset":38900,"note":74,"tick":41758,"time":54.372395833333336,"type":"noteOff","velocity":0},{"channel":5,"nextOffset":38904,"note":70,"tick":41758,"time":54.372395833333336,"type":"noteOff","velocity":0},{"channel":5,"nextOffset":38908,"note":67,"tick":41758,"time":54.372395833333336,"type":"noteOff","velocity":0},{"channel":9,"nextOffset":32390,"note":42,"tick":41760,"time":54.375,"type":"noteOn","velocity":50},{"channel":10,"nextOffset":41426,"note":86,"tick":41761,"time":54.376302083333336,"type":"noteOff","velocity":0},{"channel":10,"nextOffset":41430,"note":89,"tick":41761,"time":54.376302083333336,"type":"noteOn","velocity":50},{"channel":9,"nextOffset":32394,"note":42,"tick":41784,"time":54.40625,"type":"noteOff","velocity":0},{"channel":9,"nextOffset":44411,"note":42,"tick":41792,"time":54.416666666666664,"type":"noteOn","velocity":50},{"channel":0,"nextOffset":137,"note":44,"tick":41801,"time":54.428385416666664,"type":"noteOff","velocity":0},{"channel":0,"nextOffset":141,"note":69,"tick":41801,"time":54.428385416666664,"type":"noteOff","velocity":0},{"channel":0,"nextOffset":145,"note":45,"tick":41801,"time":54.428385416666664,"type":"noteOn","velocity":68},{"channel":0,"nextOffset":149,"note":72,"tick":41801,"time":54.428385416666664,"type":"noteOn","velocity":68},{"channel":0,"nextOffset":153,"note":67,"tick":41801,"time":54.428385416666664,"type":"noteOn","velocity":68},{"channel":0,"nextOffset":157,"note":64,"tick":41801,"time":54.428385416666664,"type":"noteOn","velocity":68},{"channel":0,"nextOffset":161,"note":60,"tick":41801,"time":54.428385416666664,"type":"noteOn","velocity":68},{"channel":7,"nextOffset":39920,"note":91,"tick":41817,"time":54.44921875,"type":"noteOff","velocity":0},{"channel":1,"nextOffset":16266,"note":33,"tick":41821,"time":54.454427083333336,"type":"noteOff","velocity":0},{"channel":1,"nextOffset":16270,"note":32,"tick":41821,"time":54.454427083333336,"type":"noteOn","velocity":50},{"channel":9,"nextOffset":20626,"note":35,"tick":41822,"time":54.455729166666664,"type":"noteOff","velocity":0},{"channel":9,"nextOffset":24408,"note":35,"tick":41830,"time":54.466145833333336,"type":"noteOn","velocity":50},{"channel":10,"nextOffset":41434,"note":89,"tick":41857,"time":54.501302083333336,"type":"noteOff","velocity":0},{"channel":10,"nextOffset":41438,"note":91,"tick":41857,"time":54.501302083333336,"type":"noteOn","velocity":50},{"channel":9,"nextOffset":44415,"note":42,"tick":41888,"time":54.541666666666664,"type":"noteOff","velocity":0},{"channel":2,"nextOffset":27815,"note":32,"tick":41909,"time":54.569010416666664,"type":"noteOff","velocity":0},{"channel":2,"nextOffset":27819,"note":31,"tick":41909,"time":54.569010416666664,"type":"noteOn","velocity":57},{"channel":7,"nextOffset":39924,"note":93,"tick":41913,"time":54.57421875,"type":"noteOn","velocity":50},{"channel":9,"nextOffset":24412,"note":35,"tick":41926,"time":54.591145833333336,"type":"noteOff","velocity":0},{"channel":5,"nextOffset":38913,"note":67,"tick":41950,"time":54.622395833333336,"type":"noteOn","velocity":70},{"channel":5,"nextOffset":38917,"note":70,"tick":41950,"time":54.622395833333336,"type":"noteOn","velocity":70},{"channel":5,"nextOffset":38921,"note":74,"tick":41950,"time":54.622395833333336,"type":"noteOn","velocity":70},{"channel":5,"nextOffset":38925,"note":76,"tick":41950,"time":54.622395833333336,"type":"noteOn","velocity":70},{"channel":9,"nextOffset":32399,"note":42,"tick":41952,"time":54.625,"type":"noteOn","velocity":50},{"channel":10,"nextOffset":41442,"note":91,"tick":41953,"time":54.626302083333336,"type":"noteOff","velocity":0},{"channel":0,"nextOffset":166,"note":60,"tick":41993,"time":54.678385416666664,"type":"noteOff","velocity":0},{"channel":0,"nextOffset":170,"note":64,"tick":41993,"time":54.678385416666664,"type":"noteOff","velocity":0},{"channel":0,"nextOffset":174,"note":67,"tick":41993,"time":54.678385416666664,"type":"noteOff","velocity":0},{"channel":0,"nextOffset":178,"note":72,"tick":41993,"time":54.678385416666664,"type":"noteOff","velocity":0},{"channel":0,"nextOffset":182,"note":45,"tick":41993,"time":54.678385416666664,"type":"noteOff","velocity":0},{"channel":7,"nextOffset":39928,"note":93,"tick":42009,"time":54.69921875,"type":"noteOff","velocity":0},{"channel":1,"nextOffset":16275,"note":32,"tick":42013,"time":54.704427083333336,"type":"noteOff","velocity":0},{"channel":1,"nextOffset":16279,"note":31,"tick":42013,"time":54.704427083333336,"type":"noteOn","velocity":50},{"channel":9,"nextOffset":20631,"note":35,"tick":42014,"time":54.705729166666664,"type":"noteOn","velocity":50},{"channel":9,"nextOffset":32403,"note":42,"tick":42048,"time":54.75,"type":"noteOff","velocity":0},{"channel":10,"nextOffset":41446,"note":93,"tick":42049,"time":54.751302083333336,"type":"noteOn","velocity":50},{"channel":9,"nextOffset":44420,"note":42,"tick":42080,"time":54.791666666666664,"type":"noteOn","velocity":50},{"channel":0,"nextOffset":186,"note":45,"tick":42089,"time":54.803385416666664,"type":"noteOn","velocity":68},{"channel":0,"nextOffset":190,"note":61,"tick":42089,"time":54.803385416666664,"type":"noteOn","velocity":68},{"channel":0,"nextOffset":194,"note":65,"tick":42089,"time":54.803385416666664,"type":"noteOn","velocity":68},{"channel":0,"nextOffset":198,"note":67,"tick":42089,"time":54.803385416666664,"type":"noteOn","velocity":68},{"channel":0,"nextOffset":202,"note":70,"tick":42089,"time":54.803385416666664,"type":"noteOn","velocity":68},{"channel":2,"nextOffset":27824,"note":31,"tick":42101,"time":54.819010416666664,"type":"noteOff","velocity":0},{"channel":7,"nextOffset":39932,"note":95,"tick":42105,"time":54.82421875,"type":"noteOn","velocity":50},{"channel":9,"nextOffset":20635,"note":35,"tick":42110,"time":54.830729166666664,"type":"noteOff","velocity":0},{"channel":9,"nextOffset":24417,"note":35,"tick":42118,"time":54.841145833333336,"type":"noteOn","velocity":50},{"channel":5,"nextOffset":38930,"note":76,"tick":42142,"time":54.872395833333336,"type":"noteOff","velocity":0},{"channel":5,"nextOffset":38934,"note":74,"tick":42142,"time":54.872395833333336,"type":"noteOff","velocity":0},{"channel":5,"nextOffset":38938,"note":70,"tick":42142,"time":54.872395833333336,"type":"noteOff","velocity":0},{"channel":5,"nextOffset":38942,"note":67,"tick":42142,"time":54.872395833333336,"type":"noteOff","velocity":0},{"channel":10,"nextOffset":41450,"note":93,"tick":42145,"time":54.876302083333336,"type":"noteOff","velocity":0},{"channel":9,"nextOffset":44424,"note":42,"tick":42176,"time":54.916666666666664,"type":"noteOff","velocity":0},{"channel":9,"nextOffset":44428,"note":42,"tick":42176,"time":54.916666666666664,"type":"noteOn","velocity":50},{"channel":0,"nextOffset":206,"note":45,"tick":42185,"time":54.928385416666664,"type":"noteOff","velocity":0},{"channel":9,"nextOffset":44432,"note":42,"tick":42200,"time":54.947916666666664,"type":"noteOff","velocity":0},{"channel":7,"nextOffset":39936,"note":95,"tick":42201,"time":54.94921875,"type":"noteOff","velocity":0},{"channel":1,"nextOffset":16284,"note":31,"tick":42205,"time":54.954427083333336,"type":"noteOff","velocity":0},{"channel":9,"nextOffset":24421,"note":35,"tick":42214,"time":54.966145833333336,"type":"noteOff","velocity":0},{"channel":9,"nextOffset":44436,"note":42,"tick":42224,"time":54.979166666666664,"type":"noteOn","velocity":50},{"channel":10,"nextOffset":41454,"note":95,"tick":42241,"time":55.001302083333336,"type":"noteOn","velocity":50},{"channel":9,"nextOffset":44440,"note":42,"tick":42248,"time":55.010416666666664,"type":"noteOff","velocity":0},{"channel":9,"nextOffset":44444,"note":42,"tick":42272,"time":55.041666666666664,"type":"noteOn","velocity":50},{"channel":0,"nextOffset":210,"note":70,"tick":42281,"time":55.053385416666664,"type":"noteOff","velocity":0},{"channel":0,"nextOffset":214,"note":67,"tick":42281,"time":55.053385416666664,"type":"noteOff","velocity":0},{"channel":0,"nextOffset":218,"note":65,"tick":42281,"time":55.053385416666664,"type":"noteOff","velocity":0},{"channel":0,"nextOffset":222,"note":61,"tick":42281,"time":55.053385416666664,"type":"noteOff","velocity":0},{"channel":2,"nextOffset":27829,"note":31,"tick":42293,"time":55.069010416666664,"type":"noteOn","velocity":57},{"channel":9,"nextOffset":44448,"note":42,"tick":42296,"time":55.072916666666664,"type":"noteOff","velocity":0},{"channel":7,"nextOffset":39940,"note":94,"tick":42297,"time":55.07421875,"type":"noteOn","velocity":50},{"channel":9,"nextOffset":20640,"note":35,"tick":42302,"time":55.080729166666664,"type":"noteOn","velocity":50},{"channel":9,"nextOffset":44452,"note":42,"tick":42320,"time":55.104166666666664,"type":"noteOn","velocity":50},{"channel":5,"nextOffset":38947,"note":64,"tick":42334,"time":55.122395833333336,"type":"noteOn","velocity":70},{"channel":5,"nextOffset":38951,"note":67,"tick":42334,"time":55.122395833333336,"type":"noteOn","velocity":70},{"channel":5,"nextOffset":38955,"note":69,"tick":42334,"time":55.122395833333336,"type":"noteOn","velocity":70},{"channel":5,"nextOffset":38959,"note":74,"tick":42334,"time":55.122395833333336,"type":"noteOn","velocity":70},{"channel":9,"nextOffset":32408,"note":42,"tick":42336,"time":55.125,"type":"noteOn","velocity":50},{"channel":10,"nextOffset":41458,"note":95,"tick":42337,"time":55.126302083333336,"type":"noteOff","velocity":0},{"channel":9,"nextOffset":44456,"note":42,"tick":42344,"time":55.135416666666664,"type":"noteOff","velocity":0},{"channel":9,"nextOffset":44460,"note":42,"tick":42368,"time":55.166666666666664,"type":"noteOn","velocity":50},{"channel":0,"nextOffset":226,"note":38,"tick":42377,"time":55.178385416666664,"type":"noteOn","velocity":68},{"channel":0,"nextOffset":230,"note":60,"tick":42377,"time":55.178385416666664,"type":"noteOn","velocity":68},{"channel":0,"nextOffset":234,"note":64,"tick":42377,"time":55.178385416666664,"type":"noteOn","velocity":68},{"channel":0,"nextOffset":238,"note":65,"tick":42377,"time":55.178385416666664,"type":"noteOn","velocity":68},{"channel":0,"nextOffset":242,"note":69,"tick":42377,"time":55.178385416666664,"type":"noteOn","velocity":68},{"channel":9,"nextOffset":44464,"note":42,"tick":42392,"time":55.197916666666664,"type":"noteOff","velocity":0},{"channel":7,"nextOffset":39944,"note":94,"tick":42393,"time":55.19921875,"type":"noteOff","velocity":0},{"channel":1,"nextOffset":16289,"note":31,"tick":42397,"time":55.204427083333336,"type":"noteOn","velocity":50},{"channel":9,"nextOffset":20644,"note":35,"tick":42398,"time":55.205729166666664,"type":"noteOff","velocity":0},{"channel":9,"nextOffset":24426,"note":35,"tick":42406,"time":55.216145833333336,"type":"noteOn","velocity":50},{"channel":9,"nextOffset":32412,"note":42,"tick":42432,"time":55.25,"type":"noteOff","velocity":0},{"channel":9,"nextOffset":32416,"note":42,"tick":42432,"time":55.25,"type":"noteOn","velocity":50},{"channel":10,"nextOffset":41462,"note":94,"tick":42433,"time":55.251302083333336,"type":"noteOn","velocity":50},{"channel":2,"nextOffset":27834,"note":31,"tick":42485,"time":55.319010416666664,"type":"noteOff","velocity":0},{"channel":2,"nextOffset":27838,"note":32,"tick":42485,"time":55.319010416666664,"type":"noteOn","velocity":57},{"channel":7,"nextOffset":39948,"note":93,"tick":42489,"time":55.32421875,"type":"noteOn","velocity":50},{"channel":9,"nextOffset":20648,"note":35,"tick":42494,"time":55.330729166666664,"type":"noteOn","velocity":50},{"channel":9,"nextOffset":24430,"note":35,"tick":42502,"time":55.341145833333336,"type":"noteOff","velocity":0},{"channel":5,"nextOffset":38964,"note":74,"tick":42526,"time":55.372395833333336,"type":"noteOff","velocity":0},{"channel":5,"nextOffset":38968,"note":69,"tick":42526,"time":55.372395833333336,"type":"noteOff","velocity":0},{"channel":5,"nextOffset":38972,"note":67,"tick":42526,"time":55.372395833333336,"type":"noteOff","velocity":0},{"channel":5,"nextOffset":38976,"note":64,"tick":42526,"time":55.372395833333336,"type":"noteOff","velocity":0},{"channel":9,"nextOffset":32420,"note":42,"tick":42528,"time":55.375,"type":"noteOff","velocity":0},{"channel":10,"nextOffset":41466,"note":94,"tick":42529,"time":55.376302083333336,"type":"noteOff","velocity":0},{"channel":9,"nextOffset":44469,"note":42,"tick":42560,"time":55.416666666666664,"type":"noteOn","velocity":50},{"channel":0,"nextOffset":247,"note":69,"tick":42569,"time":55.428385416666664,"type":"noteOff","velocity":0},{"channel":0,"nextOffset":251,"note":65,"tick":42569,"time":55.428385416666664,"type":"noteOff","velocity":0},{"channel":0,"nextOffset":255,"note":64,"tick":42569,"time":55.428385416666664,"type":"noteOff","velocity":0},{"channel":0,"nextOffset":259,"note":60,"tick":42569,"time":55.428385416666664,"type":"noteOff","velocity":0},{"channel":0,"nextOffset":263,"note":38,"tick":42569,"time":55.428385416666664,"type":"noteOff","velocity":0},{"channel":0,"nextOffset":267,"note":76,"tick":42569,"time":55.428385416666664,"type":"noteOn","velocity":68},{"channel":7,"nextOffset":39952,"note":93,"tick":42585,"time":55.44921875,"type":"noteOff","velocity":0},{"channel":1,"nextOffset":16294,"note":31,"tick":42589,"time":55.454427083333336,"type":"noteOff","velocity":0},{"channel":1,"nextOffset":16298,"note":32,"tick":42589,"time":55.454427083333336,"type":"noteOn","velocity":50},{"channel":9,"nextOffset":20652,"note":35,"tick":42590,"time":55.455729166666664,"type":"noteOff","velocity":0},{"channel":9,"nextOffset":24434,"note":35,"tick":42598,"time":55.466145833333336,"type":"noteOn","velocity":50},{"channel":10,"nextOffset":41470,"note":93,"tick":42625,"time":55.501302083333336,"type":"noteOn","velocity":50},{"channel":9,"nextOffset":44473,"note":42,"tick":42656,"time":55.541666666666664,"type":"noteOff","velocity":0},{"channel":9,"nextOffset":44477,"note":42,"tick":42656,"time":55.541666666666664,"type":"noteOn","velocity":50},{"channel":0,"nextOffset":271,"note":76,"tick":42665,"time":55.553385416666664,"type":"noteOff","velocity":0},{"channel":0,"nextOffset":275,"note":77,"tick":42665,"time":55.553385416666664,"type":"noteOn","velocity":68},{"channel":2,"nextOffset":27843,"note":32,"tick":42677,"time":55.569010416666664,"type":"noteOff","velocity":0},{"channel":2,"nextOffset":27847,"note":33,"tick":42677,"time":55.569010416666664,"type":"noteOn","velocity":57},{"channel":2,"nextOffset":27851,"note":33,"tick":42677,"time":55.569010416666664,"type":"noteOn","velocity":57},{"channel":7,"nextOffset":39956,"note":92,"tick":42681,"time":55.57421875,"type":"noteOn","velocity":50},{"channel":9,"nextOffset":24438,"note":35,"tick":42694,"time":55.591145833333336,"type":"noteOff","velocity":0},{"channel":5,"nextOffset":38981,"note":72,"tick":42718,"time":55.622395833333336,"type":"noteOn","velocity":70},{"channel":9,"nextOffset":32425,"note":42,"tick":42720,"time":55.625,"type":"noteOn","velocity":50},{"channel":10,"nextOffset":41474,"note":93,"tick":42721,"time":55.626302083333336,"type":"noteOff","velocity":0},{"channel":9,"nextOffset":44481,"note":42,"tick":42752,"time":55.666666666666664,"type":"noteOff","velocity":0},{"channel":0,"nextOffset":279,"note":77,"tick":42761,"time":55.678385416666664,"type":"noteOff","velocity":0},{"channel":0,"nextOffset":283,"note":76,"tick":42761,"time":55.678385416666664,"type":"noteOn","velocity":68},{"channel":7,"nextOffset":39960,"note":92,"tick":42777,"time":55.69921875,"type":"noteOff","velocity":0},{"channel":1,"nextOffset":16303,"note":32,"tick":42781,"time":55.704427083333336,"type":"noteOff","velocity":0},{"channel":1,"nextOffset":16307,"note":33,"tick":42781,"time":55.704427083333336,"type":"noteOn","velocity":50},{"channel":1,"nextOffset":16311,"note":33,"tick":42781,"time":55.704427083333336,"type":"noteOn","velocity":50},{"channel":9,"nextOffset":32429,"note":42,"tick":42816,"time":55.75,"type":"noteOff","velocity":0},{"channel":10,"nextOffset":41478,"note":92,"tick":42817,"time":55.751302083333336,"type":"noteOn","velocity":50},{"channel":0,"nextOffset":287,"note":76,"tick":42857,"time":55.803385416666664,"type":"noteOff","velocity":0},{"channel":0,"nextOffset":291,"note":72,"tick":42857,"time":55.803385416666664,"type":"noteOn","velocity":68},{"channel":2,"nextOffset":27856,"note":33,"tick":42869,"time":55.819010416666664,"type":"noteOff","velocity":0},{"channel":2,"nextOffset":27860,"note":33,"tick":42869,"time":55.819010416666664,"type":"noteOff","velocity":0},{"channel":9,"nextOffset":20657,"note":35,"tick":42878,"time":55.830729166666664,"type":"noteOn","velocity":50},{"channel":5,"nextOffset":38986,"note":72,"tick":42910,"time":55.872395833333336,"type":"noteOff","velocity":0},{"channel":5,"nextOffset":38990,"note":65,"tick":42910,"time":55.872395833333336,"type":"noteOn","velocity":70},{"channel":5,"nextOffset":38994,"note":69,"tick":42910,"time":55.872395833333336,"type":"noteOn","velocity":70},{"channel":5,"nextOffset":38998,"note":72,"tick":42910,"time":55.872395833333336,"type":"noteOn","velocity":70},{"channel":5,"nextOffset":39002,"note":74,"tick":42910,"time":55.872395833333336,"type":"noteOn","velocity":70},{"channel":10,"nextOffset":41482,"note":92,"tick":42913,"time":55.876302083333336,"type":"noteOff","velocity":0},{"channel":9,"nextOffset":44486,"note":42,"tick":42944,"time":55.916666666666664,"type":"noteOn","velocity":50},{"channel":0,"nextOffset":295,"note":72,"tick":42953,"time":55.928385416666664,"type":"noteOff","velocity":0},{"channel":0,"nextOffset":299,"note":76,"tick":42953,"time":55.928385416666664,"type":"noteOn","velocity":68},{"channel":2,"nextOffset":27864,"note":33,"tick":42965,"time":55.944010416666664,"type":"noteOn","velocity":57},{"channel":1,"nextOffset":16316,"note":33,"tick":42973,"time":55.954427083333336,"type":"noteOff","velocity":0},{"channel":1,"nextOffset":16320,"note":33,"tick":42973,"time":55.954427083333336,"type":"noteOff","velocity":0},{"channel":9,"nextOffset":20661,"note":35,"tick":42974,"time":55.955729166666664,"type":"noteOff","velocity":0},{"channel":9,"nextOffset":24443,"note":35,"tick":42982,"time":55.966145833333336,"type":"noteOn","velocity":50},{"channel":9,"nextOffset":32434,"note":42,"tick":43008,"time":56,"type":"noteOn","velocity":50},{"channel":9,"nextOffset":44490,"note":42,"tick":43040,"time":56.041666666666664,"type":"noteOff","velocity":0},{"channel":9,"nextOffset":44494,"note":42,"tick":43040,"time":56.041666666666664,"type":"noteOn","velocity":50},{"channel":0,"nextOffset":303,"note":76,"tick":43049,"time":56.053385416666664,"type":"noteOff","velocity":0},{"channel":0,"nextOffset":307,"note":72,"tick":43049,"time":56.053385416666664,"type":"noteOn","velocity":68},{"channel":2,"nextOffset":27868,"note":33,"tick":43061,"time":56.069010416666664,"type":"noteOff","velocity":0},{"channel":1,"nextOffset":16324,"note":33,"tick":43069,"time":56.079427083333336,"type":"noteOn","velocity":50},{"channel":9,"nextOffset":24447,"note":35,"tick":43078,"time":56.091145833333336,"type":"noteOff","velocity":0},{"channel":5,"nextOffset":39007,"note":74,"tick":43102,"time":56.122395833333336,"type":"noteOff","velocity":0},{"channel":5,"nextOffset":39011,"note":72,"tick":43102,"time":56.122395833333336,"type":"noteOff","velocity":0},{"channel":5,"nextOffset":39015,"note":69,"tick":43102,"time":56.122395833333336,"type":"noteOff","velocity":0},{"channel":5,"nextOffset":39019,"note":65,"tick":43102,"time":56.122395833333336,"type":"noteOff","velocity":0},{"channel":9,"nextOffset":32438,"note":42,"tick":43104,"time":56.125,"type":"noteOff","velocity":0},{"channel":9,"nextOffset":32442,"note":42,"tick":43104,"time":56.125,"type":"noteOn","velocity":50},{"channel":9,"nextOffset":32446,"note":42,"tick":43128,"time":56.15625,"type":"noteOff","velocity":0},{"channel":9,"nextOffset":44498,"note":42,"tick":43136,"time":56.166666666666664,"type":"noteOff","velocity":0},{"channel":0,"nextOffset":311,"note":72,"tick":43145,"time":56.178385416666664,"type":"noteOff","velocity":0},{"channel":0,"nextOffset":315,"note":69,"tick":43145,"time":56.178385416666664,"type":"noteOn","velocity":68},{"channel":0,"nextOffset":319,"note":45,"tick":43145,"time":56.178385416666664,"type":"noteOn","velocity":68},{"channel":9,"nextOffset":32450,"note":42,"tick":43152,"time":56.1875,"type":"noteOn","velocity":50},{"channel":1,"nextOffset":16328,"note":33,"tick":43165,"time":56.204427083333336,"type":"noteOff","velocity":0},{"channel":9,"nextOffset":24451,"note":42,"tick":43174,"time":56.216145833333336,"type":"noteOn","velocity":50},{"channel":9,"nextOffset":32454,"note":42,"tick":43176,"time":56.21875,"type":"noteOff","velocity":0},{"channel":9,"nextOffset":32458,"note":42,"tick":43200,"time":56.25,"type":"noteOn","velocity":50},{"channel":9,"nextOffset":32462,"note":42,"tick":43224,"time":56.28125,"type":"noteOff","velocity":0},{"channel":0,"nextOffset":323,"note":69,"tick":43241,"time":56.303385416666664,"type":"noteOff","velocity":0},{"channel":0,"nextOffset":327,"note":67,"tick":43241,"time":56.303385416666664,"type":"noteOn","velocity":68},{"channel":9,"nextOffset":32466,"note":42,"tick":43248,"time":56.3125,"type":"noteOn","velocity":50},{"channel":2,"nextOffset":27873,"note":26,"tick":43253,"time":56.319010416666664,"type":"noteOn","velocity":57},{"channel":9,"nextOffset":20666,"note":35,"tick":43262,"time":56.330729166666664,"type":"noteOn","velocity":50},{"channel":9,"nextOffset":24455,"note":42,"tick":43270,"time":56.341145833333336,"type":"noteOff","velocity":0},{"channel":9,"nextOffset":32470,"note":42,"tick":43272,"time":56.34375,"type":"noteOff","velocity":0},{"channel":9,"nextOffset":44503,"note":42,"tick":43328,"time":56.416666666666664,"type":"noteOn","velocity":50},{"channel":0,"nextOffset":331,"note":45,"tick":43337,"time":56.428385416666664,"type":"noteOff","velocity":0},{"channel":0,"nextOffset":335,"note":67,"tick":43337,"time":56.428385416666664,"type":"noteOff","velocity":0},{"channel":0,"nextOffset":339,"note":69,"tick":43337,"time":56.428385416666664,"type":"noteOn","velocity":68},{"channel":0,"nextOffset":343,"note":50,"tick":43337,"time":56.428385416666664,"type":"noteOn","velocity":68},{"channel":1,"nextOffset":16333,"note":26,"tick":43357,"time":56.454427083333336,"type":"noteOn","velocity":50},{"channel":9,"nextOffset":20670,"note":35,"tick":43358,"time":56.455729166666664,"type":"noteOff","velocity":0},{"channel":9,"nextOffset":24459,"note":35,"tick":43366,"time":56.466145833333336,"type":"noteOn","velocity":50},{"channel":9,"nextOffset":44507,"note":42,"tick":43424,"time":56.541666666666664,"type":"noteOff","velocity":0},{"channel":0,"nextOffset":347,"note":69,"tick":43433,"time":56.553385416666664,"type":"noteOff","velocity":0},{"channel":0,"nextOffset":351,"note":62,"tick":43433,"time":56.553385416666664,"type":"noteOn","velocity":68},{"channel":2,"nextOffset":27878,"note":26,"tick":43445,"time":56.569010416666664,"type":"noteOff","velocity":0},{"channel":9,"nextOffset":24463,"note":35,"tick":43462,"time":56.591145833333336,"type":"noteOff","velocity":0},{"channel":9,"nextOffset":32475,"note":42,"tick":43488,"time":56.625,"type":"noteOn","velocity":50},{"channel":0,"nextOffset":355,"note":50,"tick":43529,"time":56.678385416666664,"type":"noteOff","velocity":0},{"channel":0,"nextOffset":359,"note":62,"tick":43529,"time":56.678385416666664,"type":"noteOff","velocity":0},{"channel":0,"nextOffset":363,"note":60,"tick":43529,"time":56.678385416666664,"type":"noteOn","velocity":68},{"channel":0,"nextOffset":367,"note":38,"tick":43529,"time":56.678385416666664,"type":"noteOn","velocity":68},{"channel":1,"nextOffset":16338,"note":26,"tick":43549,"time":56.704427083333336,"type":"noteOff","velocity":0},{"channel":9,"nextOffset":20675,"note":35,"tick":43550,"time":56.705729166666664,"type":"noteOn","velocity":50},{"channel":9,"nextOffset":32479,"note":42,"tick":43584,"time":56.75,"type":"noteOff","velocity":0},{"channel":9,"nextOffset":32483,"note":42,"tick":43584,"time":56.75,"type":"noteOn","velocity":50},{"channel":9,"nextOffset":44512,"note":42,"tick":43616,"time":56.791666666666664,"type":"noteOn","velocity":50},{"channel":0,"nextOffset":371,"note":60,"tick":43625,"time":56.803385416666664,"type":"noteOff","velocity":0},{"channel":0,"nextOffset":375,"note":65,"tick":43625,"time":56.803385416666664,"type":"noteOn","velocity":68},{"channel":2,"nextOffset":27883,"note":26,"tick":43637,"time":56.819010416666664,"type":"noteOn","velocity":57},{"channel":9,"nextOffset":20679,"note":35,"tick":43646,"time":56.830729166666664,"type":"noteOff","velocity":0},{"channel":9,"nextOffset":24468,"note":35,"tick":43654,"time":56.841145833333336,"type":"noteOn","velocity":50},{"channel":9,"nextOffset":32487,"note":42,"tick":43680,"time":56.875,"type":"noteOff","velocity":0},{"channel":9,"nextOffset":44516,"note":42,"tick":43712,"time":56.916666666666664,"type":"noteOff","velocity":0},{"channel":9,"nextOffset":44520,"note":42,"tick":43712,"time":56.916666666666664,"type":"noteOn","velocity":50},{"channel":0,"nextOffset":379,"note":38,"tick":43721,"time":56.928385416666664,"type":"noteOff","velocity":0},{"channel":0,"nextOffset":383,"note":65,"tick":43721,"time":56.928385416666664,"type":"noteOff","velocity":0},{"channel":0,"nextOffset":387,"note":64,"tick":43721,"time":56.928385416666664,"type":"noteOn","velocity":68},{"channel":0,"nextOffset":391,"note":60,"tick":43721,"time":56.928385416666664,"type":"noteOn","velocity":68},{"channel":0,"nextOffset":395,"note":69,"tick":43721,"time":56.928385416666664,"type":"noteOn","velocity":68},{"channel":0,"nextOffset":399,"note":45,"tick":43721,"time":56.928385416666664,"type":"noteOn","velocity":68},{"channel":9,"nextOffset":44524,"note":42,"tick":43736,"time":56.947916666666664,"type":"noteOff","velocity":0},{"channel":1,"nextOffset":16343,"note":26,"tick":43741,"time":56.954427083333336,"type":"noteOn","velocity":50},{"channel":9,"nextOffset":24472,"note":35,"tick":43750,"time":56.966145833333336,"type":"noteOff","velocity":0},{"channel":9,"nextOffset":44528,"note":42,"tick":43760,"time":56.979166666666664,"type":"noteOn","velocity":50},{"channel":9,"nextOffset":44532,"note":42,"tick":43784,"time":57.010416666666664,"type":"noteOff","velocity":0},{"channel":9,"nextOffset":44536,"note":42,"tick":43808,"time":57.041666666666664,"type":"noteOn","velocity":50},{"channel":2,"nextOffset":27888,"note":26,"tick":43829,"time":57.069010416666664,"type":"noteOff","velocity":0},{"channel":2,"nextOffset":27892,"note":33,"tick":43829,"time":57.069010416666664,"type":"noteOn","velocity":57},{"channel":9,"nextOffset":44540,"note":42,"tick":43832,"time":57.072916666666664,"type":"noteOff","velocity":0},{"channel":9,"nextOffset":20684,"note":35,"tick":43838,"time":57.080729166666664,"type":"noteOn","velocity":50},{"channel":9,"nextOffset":44544,"note":42,"tick":43856,"time":57.104166666666664,"type":"noteOn","velocity":50},{"channel":9,"nextOffset":32492,"note":42,"tick":43872,"time":57.125,"type":"noteOn","velocity":50},{"channel":9,"nextOffset":44548,"note":42,"tick":43880,"time":57.135416666666664,"type":"noteOff","velocity":0},{"channel":9,"nextOffset":44552,"note":42,"tick":43904,"time":57.166666666666664,"type":"noteOn","velocity":50},{"channel":0,"nextOffset":404,"note":45,"tick":43913,"time":57.178385416666664,"type":"noteOff","velocity":0},{"channel":0,"nextOffset":408,"note":69,"tick":43913,"time":57.178385416666664,"type":"noteOff","velocity":0},{"channel":0,"nextOffset":412,"note":60,"tick":43913,"time":57.178385416666664,"type":"noteOff","velocity":0},{"channel":0,"nextOffset":416,"note":64,"tick":43913,"time":57.178385416666664,"type":"noteOff","velocity":0},{"channel":0,"nextOffset":420,"note":59,"tick":43913,"time":57.178385416666664,"type":"noteOn","velocity":68},{"channel":0,"nextOffset":424,"note":63,"tick":43913,"time":57.178385416666664,"type":"noteOn","velocity":68},{"channel":0,"nextOffset":428,"note":68,"tick":43913,"time":57.178385416666664,"type":"noteOn","velocity":68},{"channel":0,"nextOffset":432,"note":44,"tick":43913,"time":57.178385416666664,"type":"noteOn","velocity":68},{"channel":9,"nextOffset":44556,"note":42,"tick":43928,"time":57.197916666666664,"type":"noteOff","velocity":0},{"channel":1,"nextOffset":16348,"note":26,"tick":43933,"time":57.204427083333336,"type":"noteOff","velocity":0},{"channel":1,"nextOffset":16352,"note":33,"tick":43933,"time":57.204427083333336,"type":"noteOn","velocity":50},{"channel":9,"nextOffset":20688,"note":35,"tick":43934,"time":57.205729166666664,"type":"noteOff","velocity":0},{"channel":9,"nextOffset":24477,"note":35,"tick":43942,"time":57.216145833333336,"type":"noteOn","velocity":50},{"channel":9,"nextOffset":32496,"note":42,"tick":43968,"time":57.25,"type":"noteOff","velocity":0},{"channel":9,"nextOffset":32500,"note":42,"tick":43968,"time":57.25,"type":"noteOn","velocity":50},{"channel":2,"nextOffset":27897,"note":33,"tick":44021,"time":57.319010416666664,"type":"noteOff","velocity":0},{"channel":2,"nextOffset":27901,"note":26,"tick":44021,"time":57.319010416666664,"type":"noteOn","velocity":57},{"channel":9,"nextOffset":20692,"note":35,"tick":44030,"time":57.330729166666664,"type":"noteOn","velocity":50},{"channel":9,"nextOffset":24481,"note":35,"tick":44038,"time":57.341145833333336,"type":"noteOff","velocity":0},{"channel":9,"nextOffset":32504,"note":42,"tick":44064,"time":57.375,"type":"noteOff","velocity":0},{"channel":9,"nextOffset":44561,"note":42,"tick":44096,"time":57.416666666666664,"type":"noteOn","velocity":50},{"channel":0,"nextOffset":437,"note":44,"tick":44105,"time":57.428385416666664,"type":"noteOff","velocity":0},{"channel":0,"nextOffset":441,"note":68,"tick":44105,"time":57.428385416666664,"type":"noteOff","velocity":0},{"channel":0,"nextOffset":445,"note":63,"tick":44105,"time":57.428385416666664,"type":"noteOff","velocity":0},{"channel":0,"nextOffset":449,"note":59,"tick":44105,"time":57.428385416666664,"type":"noteOff","velocity":0},{"channel":0,"nextOffset":453,"note":43,"tick":44105,"time":57.428385416666664,"type":"noteOn","velocity":68},{"channel":0,"nextOffset":457,"note":58,"tick":44105,"time":57.428385416666664,"type":"noteOn","velocity":68},{"channel":0,"nextOffset":461,"note":62,"tick":44105,"time":57.428385416666664,"type":"noteOn","velocity":68},{"channel":0,"nextOffset":465,"note":65,"tick":44105,"time":57.428385416666664,"type":"noteOn","velocity":68},{"channel":0,"nextOffset":469,"note":69,"tick":44105,"time":57.428385416666664,"type":"noteOn","velocity":68},{"channel":1,"nextOffset":16357,"note":33,"tick":44125,"time":57.454427083333336,"type":"noteOff","velocity":0},{"channel":1,"nextOffset":16361,"note":26,"tick":44125,"time":57.454427083333336,"type":"noteOn","velocity":50},{"channel":9,"nextOffset":20696,"note":35,"tick":44126,"time":57.455729166666664,"type":"noteOff","velocity":0},{"channel":9,"nextOffset":24485,"note":35,"tick":44134,"time":57.466145833333336,"type":"noteOn","velocity":50},{"channel":9,"nextOffset":44565,"note":42,"tick":44192,"time":57.541666666666664,"type":"noteOff","velocity":0},{"channel":9,"nextOffset":44569,"note":42,"tick":44192,"time":57.541666666666664,"type":"noteOn","velocity":50},{"channel":2,"nextOffset":27906,"note":26,"tick":44213,"time":57.569010416666664,"type":"noteOff","velocity":0},{"channel":9,"nextOffset":24489,"note":35,"tick":44230,"time":57.591145833333336,"type":"noteOff","velocity":0},{"channel":9,"nextOffset":32509,"note":42,"tick":44256,"time":57.625,"type":"noteOn","velocity":50},{"channel":9,"nextOffset":44573,"note":42,"tick":44288,"time":57.666666666666664,"type":"noteOff","velocity":0},{"channel":0,"nextOffset":474,"note":43,"tick":44297,"time":57.678385416666664,"type":"noteOff","velocity":0},{"channel":0,"nextOffset":478,"note":50,"tick":44297,"time":57.678385416666664,"type":"noteOn","velocity":68},{"channel":1,"nextOffset":16366,"note":26,"tick":44317,"time":57.704427083333336,"type":"noteOff","velocity":0},{"channel":9,"nextOffset":32513,"note":42,"tick":44352,"time":57.75,"type":"noteOff","velocity":0},{"channel":2,"nextOffset":27911,"note":26,"tick":44405,"time":57.819010416666664,"type":"noteOn","velocity":57},{"channel":9,"nextOffset":20701,"note":35,"tick":44414,"time":57.830729166666664,"type":"noteOn","velocity":50},{"channel":9,"nextOffset":44578,"note":42,"tick":44480,"time":57.916666666666664,"type":"noteOn","velocity":50},{"channel":0,"nextOffset":483,"note":69,"tick":44489,"time":57.928385416666664,"type":"noteOff","velocity":0},{"channel":0,"nextOffset":487,"note":65,"tick":44489,"time":57.928385416666664,"type":"noteOff","velocity":0},{"channel":0,"nextOffset":491,"note":62,"tick":44489,"time":57.928385416666664,"type":"noteOff","velocity":0},{"channel":0,"nextOffset":495,"note":58,"tick":44489,"time":57.928385416666664,"type":"noteOff","velocity":0},{"channel":0,"nextOffset":499,"note":50,"tick":44489,"time":57.928385416666664,"type":"noteOff","velocity":0},{"channel":0,"nextOffset":503,"note":43,"tick":44489,"time":57.928385416666664,"type":"noteOn","velocity":68},{"channel":1,"nextOffset":16371,"note":26,"tick":44509,"time":57.954427083333336,"type":"noteOn","velocity":50},{"channel":9,"nextOffset":20705,"note":35,"tick":44510,"time":57.955729166666664,"type":"noteOff","velocity":0},{"channel":9,"nextOffset":24494,"note":35,"tick":44518,"time":57.966145833333336,"type":"noteOn","velocity":50},{"channel":9,"nextOffset":32518,"note":42,"tick":44544,"time":58,"type":"noteOn","velocity":50},{"channel":9,"nextOffset":44582,"note":42,"tick":44576,"time":58.041666666666664,"type":"noteOff","velocity":0},{"channel":9,"nextOffset":44586,"note":42,"tick":44576,"time":58.041666666666664,"type":"noteOn","velocity":50},{"channel":2,"nextOffset":27916,"note":26,"tick":44597,"time":58.069010416666664,"type":"noteOff","velocity":0},{"channel":2,"nextOffset":27920,"note":33,"tick":44597,"time":58.069010416666664,"type":"noteOn","velocity":57},{"channel":9,"nextOffset":24498,"note":35,"tick":44614,"time":58.091145833333336,"type":"noteOff","velocity":0},{"channel":5,"nextOffset":39024,"note":70,"tick":44638,"time":58.122395833333336,"type":"noteOn","velocity":70},{"channel":5,"nextOffset":39028,"note":74,"tick":44638,"time":58.122395833333336,"type":"noteOn","velocity":70},{"channel":5,"nextOffset":39032,"note":77,"tick":44638,"time":58.122395833333336,"type":"noteOn","velocity":70},{"channel":5,"nextOffset":39036,"note":79,"tick":44638,"time":58.122395833333336,"type":"noteOn","velocity":70},{"channel":5,"nextOffset":39040,"note":81,"tick":44638,"time":58.122395833333336,"type":"noteOn","velocity":70},{"channel":9,"nextOffset":32522,"note":42,"tick":44640,"time":58.125,"type":"noteOff","velocity":0},{"channel":9,"nextOffset":32526,"note":42,"tick":44640,"time":58.125,"type":"noteOn","velocity":50},{"channel":9,"nextOffset":32530,"note":42,"tick":44664,"time":58.15625,"type":"noteOff","velocity":0},{"channel":9,"nextOffset":44590,"note":42,"tick":44672,"time":58.166666666666664,"type":"noteOff","velocity":0},{"channel":0,"nextOffset":508,"note":43,"tick":44681,"time":58.178385416666664,"type":"noteOff","velocity":0},{"channel":0,"nextOffset":512,"note":44,"tick":44681,"time":58.178385416666664,"type":"noteOn","velocity":68},{"channel":0,"nextOffset":516,"note":65,"tick":44681,"time":58.178385416666664,"type":"noteOn","velocity":68},{"channel":9,"nextOffset":32534,"note":42,"tick":44688,"time":58.1875,"type":"noteOn","velocity":50},{"channel":1,"nextOffset":16376,"note":26,"tick":44701,"time":58.204427083333336,"type":"noteOff","velocity":0},{"channel":1,"nextOffset":16380,"note":33,"tick":44701,"time":58.204427083333336,"type":"noteOn","velocity":50},{"channel":9,"nextOffset":32538,"note":42,"tick":44712,"time":58.21875,"type":"noteOff","velocity":0},{"channel":5,"nextOffset":39044,"note":79,"tick":44734,"time":58.247395833333336,"type":"noteOff","velocity":0},{"channel":9,"nextOffset":32542,"note":42,"tick":44736,"time":58.25,"type":"noteOn","velocity":50},{"channel":9,"nextOffset":32546,"note":42,"tick":44760,"time":58.28125,"type":"noteOff","velocity":0},{"channel":0,"nextOffset":520,"note":65,"tick":44777,"time":58.303385416666664,"type":"noteOff","velocity":0},{"channel":0,"nextOffset":524,"note":69,"tick":44777,"time":58.303385416666664,"type":"noteOn","velocity":68},{"channel":9,"nextOffset":32550,"note":42,"tick":44784,"time":58.3125,"type":"noteOn","velocity":50},{"channel":2,"nextOffset":27925,"note":33,"tick":44789,"time":58.319010416666664,"type":"noteOff","velocity":0},{"channel":2,"nextOffset":27929,"note":32,"tick":44789,"time":58.319010416666664,"type":"noteOn","velocity":57},{"channel":2,"nextOffset":27933,"note":32,"tick":44789,"time":58.319010416666664,"type":"noteOn","velocity":57},{"channel":9,"nextOffset":20710,"note":35,"tick":44798,"time":58.330729166666664,"type":"noteOn","velocity":50},{"channel":9,"nextOffset":32554,"note":42,"tick":44808,"time":58.34375,"type":"noteOff","velocity":0},{"channel":5,"nextOffset":39048,"note":81,"tick":44830,"time":58.372395833333336,"type":"noteOff","velocity":0},{"channel":5,"nextOffset":39052,"note":77,"tick":44830,"time":58.372395833333336,"type":"noteOff","velocity":0},{"channel":5,"nextOffset":39056,"note":74,"tick":44830,"time":58.372395833333336,"type":"noteOff","velocity":0},{"channel":5,"nextOffset":39060,"note":70,"tick":44830,"time":58.372395833333336,"type":"noteOff","velocity":0},{"channel":9,"nextOffset":32558,"note":42,"tick":44832,"time":58.375,"type":"noteOn","velocity":50},{"channel":9,"nextOffset":32562,"note":42,"tick":44856,"time":58.40625,"type":"noteOff","velocity":0},{"channel":9,"nextOffset":44595,"note":42,"tick":44864,"time":58.416666666666664,"type":"noteOn","velocity":50},{"channel":0,"nextOffset":528,"note":44,"tick":44873,"time":58.428385416666664,"type":"noteOff","velocity":0},{"channel":0,"nextOffset":532,"note":69,"tick":44873,"time":58.428385416666664,"type":"noteOff","velocity":0},{"channel":0,"nextOffset":536,"note":45,"tick":44873,"time":58.428385416666664,"type":"noteOn","velocity":68},{"channel":0,"nextOffset":540,"note":72,"tick":44873,"time":58.428385416666664,"type":"noteOn","velocity":68},{"channel":0,"nextOffset":544,"note":67,"tick":44873,"time":58.428385416666664,"type":"noteOn","velocity":68},{"channel":0,"nextOffset":548,"note":64,"tick":44873,"time":58.428385416666664,"type":"noteOn","velocity":68},{"channel":0,"nextOffset":552,"note":60,"tick":44873,"time":58.428385416666664,"type":"noteOn","velocity":68},{"channel":1,"nextOffset":16385,"note":33,"tick":44893,"time":58.454427083333336,"type":"noteOff","velocity":0},{"channel":1,"nextOffset":16389,"note":32,"tick":44893,"time":58.454427083333336,"type":"noteOn","velocity":50},{"channel":1,"nextOffset":16393,"note":32,"tick":44893,"time":58.454427083333336,"type":"noteOn","velocity":50},{"channel":9,"nextOffset":20714,"note":35,"tick":44894,"time":58.455729166666664,"type":"noteOff","velocity":0},{"channel":9,"nextOffset":24503,"note":35,"tick":44902,"time":58.466145833333336,"type":"noteOn","velocity":50},{"channel":9,"nextOffset":44599,"note":42,"tick":44960,"time":58.541666666666664,"type":"noteOff","velocity":0},{"channel":2,"nextOffset":27938,"note":32,"tick":44981,"time":58.569010416666664,"type":"noteOff","velocity":0},{"channel":2,"nextOffset":27942,"note":32,"tick":44981,"time":58.569010416666664,"type":"noteOff","velocity":0},{"channel":2,"nextOffset":27946,"note":31,"tick":44981,"time":58.569010416666664,"type":"noteOn","velocity":57},{"channel":9,"nextOffset":24507,"note":35,"tick":44998,"time":58.591145833333336,"type":"noteOff","velocity":0},{"channel":5,"nextOffset":39065,"note":70,"tick":45022,"time":58.622395833333336,"type":"noteOn","velocity":70},{"channel":5,"nextOffset":39069,"note":74,"tick":45022,"time":58.622395833333336,"type":"noteOn","velocity":70},{"channel":5,"nextOffset":39073,"note":77,"tick":45022,"time":58.622395833333336,"type":"noteOn","velocity":70},{"channel":5,"nextOffset":39077,"note":81,"tick":45022,"time":58.622395833333336,"type":"noteOn","velocity":70},{"channel":9,"nextOffset":32567,"note":42,"tick":45024,"time":58.625,"type":"noteOn","velocity":50},{"channel":0,"nextOffset":557,"note":60,"tick":45065,"time":58.678385416666664,"type":"noteOff","velocity":0},{"channel":0,"nextOffset":561,"note":64,"tick":45065,"time":58.678385416666664,"type":"noteOff","velocity":0},{"channel":0,"nextOffset":565,"note":67,"tick":45065,"time":58.678385416666664,"type":"noteOff","velocity":0},{"channel":0,"nextOffset":569,"note":72,"tick":45065,"time":58.678385416666664,"type":"noteOff","velocity":0},{"channel":0,"nextOffset":573,"note":45,"tick":45065,"time":58.678385416666664,"type":"noteOff","velocity":0},{"channel":1,"nextOffset":16398,"note":32,"tick":45085,"time":58.704427083333336,"type":"noteOff","velocity":0},{"channel":1,"nextOffset":16402,"note":32,"tick":45085,"time":58.704427083333336,"type":"noteOff","velocity":0},{"channel":1,"nextOffset":16406,"note":31,"tick":45085,"time":58.704427083333336,"type":"noteOn","velocity":50},{"channel":9,"nextOffset":20719,"note":35,"tick":45086,"time":58.705729166666664,"type":"noteOn","velocity":50},{"channel":9,"nextOffset":32571,"note":42,"tick":45120,"time":58.75,"type":"noteOff","velocity":0},{"channel":9,"nextOffset":32575,"note":42,"tick":45120,"time":58.75,"type":"noteOn","velocity":50},{"channel":9,"nextOffset":44604,"note":42,"tick":45152,"time":58.791666666666664,"type":"noteOn","velocity":50},{"channel":0,"nextOffset":577,"note":45,"tick":45161,"time":58.803385416666664,"type":"noteOn","velocity":68},{"channel":0,"nextOffset":581,"note":61,"tick":45161,"time":58.803385416666664,"type":"noteOn","velocity":68},{"channel":0,"nextOffset":585,"note":65,"tick":45161,"time":58.803385416666664,"type":"noteOn","velocity":68},{"channel":0,"nextOffset":589,"note":67,"tick":45161,"time":58.803385416666664,"type":"noteOn","velocity":68},{"channel":0,"nextOffset":593,"note":70,"tick":45161,"time":58.803385416666664,"type":"noteOn","velocity":68},{"channel":2,"nextOffset":27951,"note":31,"tick":45173,"time":58.819010416666664,"type":"noteOff","velocity":0},{"channel":9,"nextOffset":20723,"note":35,"tick":45182,"time":58.830729166666664,"type":"noteOff","velocity":0},{"channel":9,"nextOffset":24512,"note":35,"tick":45190,"time":58.841145833333336,"type":"noteOn","velocity":50},{"channel":5,"nextOffset":39082,"note":81,"tick":45214,"time":58.872395833333336,"type":"noteOff","velocity":0},{"channel":5,"nextOffset":39086,"note":77,"tick":45214,"time":58.872395833333336,"type":"noteOff","velocity":0},{"channel":5,"nextOffset":39090,"note":74,"tick":45214,"time":58.872395833333336,"type":"noteOff","velocity":0},{"channel":5,"nextOffset":39094,"note":70,"tick":45214,"time":58.872395833333336,"type":"noteOff","velocity":0},{"channel":9,"nextOffset":32579,"note":42,"tick":45216,"time":58.875,"type":"noteOff","velocity":0},{"channel":9,"nextOffset":44608,"note":42,"tick":45248,"time":58.916666666666664,"type":"noteOff","velocity":0},{"channel":9,"nextOffset":44612,"note":42,"tick":45248,"time":58.916666666666664,"type":"noteOn","velocity":50},{"channel":0,"nextOffset":597,"note":45,"tick":45257,"time":58.928385416666664,"type":"noteOff","velocity":0},{"channel":9,"nextOffset":44616,"note":42,"tick":45272,"time":58.947916666666664,"type":"noteOff","velocity":0},{"channel":1,"nextOffset":16411,"note":31,"tick":45277,"time":58.954427083333336,"type":"noteOff","velocity":0},{"channel":9,"nextOffset":24516,"note":35,"tick":45286,"time":58.966145833333336,"type":"noteOff","velocity":0},{"channel":9,"nextOffset":44620,"note":42,"tick":45296,"time":58.979166666666664,"type":"noteOn","velocity":50},{"channel":9,"nextOffset":44624,"note":42,"tick":45320,"time":59.010416666666664,"type":"noteOff","velocity":0},{"channel":9,"nextOffset":44628,"note":42,"tick":45344,"time":59.041666666666664,"type":"noteOn","velocity":50},{"channel":0,"nextOffset":601,"note":70,"tick":45353,"time":59.053385416666664,"type":"noteOff","velocity":0},{"channel":0,"nextOffset":605,"note":67,"tick":45353,"time":59.053385416666664,"type":"noteOff","velocity":0},{"channel":0,"nextOffset":609,"note":65,"tick":45353,"time":59.053385416666664,"type":"noteOff","velocity":0},{"channel":0,"nextOffset":613,"note":61,"tick":45353,"time":59.053385416666664,"type":"noteOff","velocity":0},{"channel":2,"nextOffset":27956,"note":31,"tick":45365,"time":59.069010416666664,"type":"noteOn","velocity":57},{"channel":9,"nextOffset":44632,"note":42,"tick":45368,"time":59.072916666666664,"type":"noteOff","velocity":0},{"channel":9,"nextOffset":20728,"note":35,"tick":45374,"time":59.080729166666664,"type":"noteOn","velocity":50},{"channel":9,"nextOffset":44636,"note":42,"tick":45392,"time":59.104166666666664,"type":"noteOn","velocity":50},{"channel":5,"nextOffset":39099,"note":70,"tick":45406,"time":59.122395833333336,"type":"noteOn","velocity":70},{"channel":5,"nextOffset":39103,"note":67,"tick":45406,"time":59.122395833333336,"type":"noteOn","velocity":70},{"channel":5,"nextOffset":39107,"note":73,"tick":45406,"time":59.122395833333336,"type":"noteOn","velocity":70},{"channel":5,"nextOffset":39111,"note":77,"tick":45406,"time":59.122395833333336,"type":"noteOn","velocity":70},{"channel":9,"nextOffset":32584,"note":42,"tick":45408,"time":59.125,"type":"noteOn","velocity":50},{"channel":9,"nextOffset":44640,"note":42,"tick":45416,"time":59.135416666666664,"type":"noteOff","velocity":0},{"channel":9,"nextOffset":44644,"note":42,"tick":45440,"time":59.166666666666664,"type":"noteOn","velocity":50},{"channel":0,"nextOffset":617,"note":38,"tick":45449,"time":59.178385416666664,"type":"noteOn","velocity":68},{"channel":0,"nextOffset":621,"note":60,"tick":45449,"time":59.178385416666664,"type":"noteOn","velocity":68},{"channel":0,"nextOffset":625,"note":64,"tick":45449,"time":59.178385416666664,"type":"noteOn","velocity":68},{"channel":0,"nextOffset":629,"note":65,"tick":45449,"time":59.178385416666664,"type":"noteOn","velocity":68},{"channel":0,"nextOffset":633,"note":69,"tick":45449,"time":59.178385416666664,"type":"noteOn","velocity":68},{"channel":9,"nextOffset":44648,"note":42,"tick":45464,"time":59.197916666666664,"type":"noteOff","velocity":0},{"channel":1,"nextOffset":16416,"note":31,"tick":45469,"time":59.204427083333336,"type":"noteOn","velocity":50},{"channel":9,"nextOffset":20732,"note":35,"tick":45470,"time":59.205729166666664,"type":"noteOff","velocity":0},{"channel":9,"nextOffset":24521,"note":35,"tick":45478,"time":59.216145833333336,"type":"noteOn","velocity":50},{"channel":9,"nextOffset":32588,"note":42,"tick":45504,"time":59.25,"type":"noteOff","velocity":0},{"channel":9,"nextOffset":32592,"note":42,"tick":45504,"time":59.25,"type":"noteOn","velocity":50},{"channel":2,"nextOffset":27961,"note":31,"tick":45557,"time":59.319010416666664,"type":"noteOff","velocity":0},{"channel":2,"nextOffset":27965,"note":32,"tick":45557,"time":59.319010416666664,"type":"noteOn","velocity":57},{"channel":9,"nextOffset":20736,"note":35,"tick":45566,"time":59.330729166666664,"type":"noteOn","velocity":50},{"channel":9,"nextOffset":24525,"note":35,"tick":45574,"time":59.341145833333336,"type":"noteOff","velocity":0},{"channel":5,"nextOffset":39116,"note":77,"tick":45598,"time":59.372395833333336,"type":"noteOff","velocity":0},{"channel":5,"nextOffset":39120,"note":73,"tick":45598,"time":59.372395833333336,"type":"noteOff","velocity":0},{"channel":5,"nextOffset":39124,"note":67,"tick":45598,"time":59.372395833333336,"type":"noteOff","velocity":0},{"channel":5,"nextOffset":39128,"note":70,"tick":45598,"time":59.372395833333336,"type":"noteOff","velocity":0},{"channel":9,"nextOffset":32596,"note":42,"tick":45600,"time":59.375,"type":"noteOff","velocity":0},{"channel":9,"nextOffset":44653,"note":42,"tick":45632,"time":59.416666666666664,"type":"noteOn","velocity":50},{"channel":0,"nextOffset":638,"note":69,"tick":45641,"time":59.428385416666664,"type":"noteOff","velocity":0},{"channel":0,"nextOffset":642,"note":65,"tick":45641,"time":59.428385416666664,"type":"noteOff","velocity":0},{"channel":0,"nextOffset":646,"note":64,"tick":45641,"time":59.428385416666664,"type":"noteOff","velocity":0},{"channel":0,"nextOffset":650,"note":60,"tick":45641,"time":59.428385416666664,"type":"noteOff","velocity":0},{"channel":0,"nextOffset":654,"note":38,"tick":45641,"time":59.428385416666664,"type":"noteOff","velocity":0},{"channel":0,"nextOffset":658,"note":76,"tick":45641,"time":59.428385416666664,"type":"noteOn","velocity":68},{"channel":1,"nextOffset":16421,"note":31,"tick":45661,"time":59.454427083333336,"type":"noteOff","velocity":0},{"channel":1,"nextOffset":16425,"note":32,"tick":45661,"time":59.454427083333336,"type":"noteOn","velocity":50},{"channel":9,"nextOffset":20740,"note":35,"tick":45662,"time":59.455729166666664,"type":"noteOff","velocity":0},{"channel":9,"nextOffset":24529,"note":35,"tick":45670,"time":59.466145833333336,"type":"noteOn","velocity":50},{"channel":9,"nextOffset":44657,"note":42,"tick":45728,"time":59.541666666666664,"type":"noteOff","velocity":0},{"channel":0,"nextOffset":662,"note":76,"tick":45737,"time":59.553385416666664,"type":"noteOff","velocity":0},{"channel":0,"nextOffset":666,"note":77,"tick":45737,"time":59.553385416666664,"type":"noteOn","velocity":68},{"channel":2,"nextOffset":27970,"note":32,"tick":45749,"time":59.569010416666664,"type":"noteOff","velocity":0},{"channel":2,"nextOffset":27974,"note":33,"tick":45749,"time":59.569010416666664,"type":"noteOn","velocity":57},{"channel":9,"nextOffset":24533,"note":35,"tick":45766,"time":59.591145833333336,"type":"noteOff","velocity":0},{"channel":5,"nextOffset":39133,"note":70,"tick":45790,"time":59.622395833333336,"type":"noteOn","velocity":70},{"channel":5,"nextOffset":39137,"note":67,"tick":45790,"time":59.622395833333336,"type":"noteOn","velocity":70},{"channel":5,"nextOffset":39141,"note":73,"tick":45790,"time":59.622395833333336,"type":"noteOn","velocity":70},{"channel":5,"nextOffset":39145,"note":76,"tick":45790,"time":59.622395833333336,"type":"noteOn","velocity":70},{"channel":9,"nextOffset":32601,"note":42,"tick":45792,"time":59.625,"type":"noteOn","velocity":50},{"channel":0,"nextOffset":670,"note":77,"tick":45833,"time":59.678385416666664,"type":"noteOff","velocity":0},{"channel":0,"nextOffset":674,"note":79,"tick":45833,"time":59.678385416666664,"type":"noteOn","velocity":68},{"channel":1,"nextOffset":16430,"note":32,"tick":45853,"time":59.704427083333336,"type":"noteOff","velocity":0},{"channel":1,"nextOffset":16434,"note":33,"tick":45853,"time":59.704427083333336,"type":"noteOn","velocity":50},{"channel":9,"nextOffset":32605,"note":42,"tick":45888,"time":59.75,"type":"noteOff","velocity":0},{"channel":0,"nextOffset":678,"note":79,"tick":45929,"time":59.803385416666664,"type":"noteOff","velocity":0},{"channel":0,"nextOffset":682,"note":77,"tick":45929,"time":59.803385416666664,"type":"noteOn","velocity":68},{"channel":2,"nextOffset":27979,"note":33,"tick":45941,"time":59.819010416666664,"type":"noteOff","velocity":0},{"channel":9,"nextOffset":20745,"note":35,"tick":45950,"time":59.830729166666664,"type":"noteOn","velocity":50},{"channel":5,"nextOffset":39150,"note":76,"tick":45982,"time":59.872395833333336,"type":"noteOff","velocity":0},{"channel":5,"nextOffset":39154,"note":73,"tick":45982,"time":59.872395833333336,"type":"noteOff","velocity":0},{"channel":5,"nextOffset":39158,"note":67,"tick":45982,"time":59.872395833333336,"type":"noteOff","velocity":0},{"channel":5,"nextOffset":39162,"note":70,"tick":45982,"time":59.872395833333336,"type":"noteOff","velocity":0},{"channel":9,"nextOffset":44662,"note":42,"tick":46016,"time":59.916666666666664,"type":"noteOn","velocity":50},{"channel":0,"nextOffset":686,"note":77,"tick":46025,"time":59.928385416666664,"type":"noteOff","velocity":0},{"channel":0,"nextOffset":690,"note":76,"tick":46025,"time":59.928385416666664,"type":"noteOn","velocity":68},{"channel":2,"nextOffset":27983,"note":33,"tick":46037,"time":59.944010416666664,"type":"noteOn","velocity":57},{"channel":1,"nextOffset":16439,"note":33,"tick":46045,"time":59.954427083333336,"type":"noteOff","velocity":0},{"channel":9,"nextOffset":20749,"note":35,"tick":46046,"time":59.955729166666664,"type":"noteOff","velocity":0},{"channel":9,"nextOffset":24538,"note":35,"tick":46054,"time":59.966145833333336,"type":"noteOn","velocity":50},{"channel":9,"nextOffset":32610,"note":42,"tick":46080,"time":60,"type":"noteOn","velocity":50},{"channel":9,"nextOffset":44666,"note":42,"tick":46112,"time":60.041666666666664,"type":"noteOff","velocity":0},{"channel":9,"nextOffset":44670,"note":42,"tick":46112,"time":60.041666666666664,"type":"noteOn","velocity":50},{"channel":0,"nextOffset":694,"note":76,"tick":46121,"time":60.053385416666664,"type":"noteOff","velocity":0},{"channel":0,"nextOffset":698,"note":72,"tick":46121,"time":60.053385416666664,"type":"noteOn","velocity":68},{"channel":2,"nextOffset":27987,"note":33,"tick":46133,"time":60.069010416666664,"type":"noteOff","velocity":0},{"channel":1,"nextOffset":16443,"note":33,"tick":46141,"time":60.079427083333336,"type":"noteOn","velocity":50},{"channel":9,"nextOffset":24542,"note":35,"tick":46150,"time":60.091145833333336,"type":"noteOff","velocity":0},{"channel":5,"nextOffset":39167,"note":72,"tick":46174,"time":60.122395833333336,"type":"noteOn","velocity":70},{"channel":5,"nextOffset":39171,"note":69,"tick":46174,"time":60.122395833333336,"type":"noteOn","velocity":70},{"channel":5,"nextOffset":39175,"note":76,"tick":46174,"time":60.122395833333336,"type":"noteOn","velocity":70},{"channel":5,"nextOffset":39179,"note":79,"tick":46174,"time":60.122395833333336,"type":"noteOn","velocity":70},{"channel":9,"nextOffset":32614,"note":42,"tick":46176,"time":60.125,"type":"noteOff","velocity":0},{"channel":9,"nextOffset":32618,"note":42,"tick":46176,"time":60.125,"type":"noteOn","velocity":50},{"channel":9,"nextOffset":32622,"note":42,"tick":46200,"time":60.15625,"type":"noteOff","velocity":0},{"channel":9,"nextOffset":44674,"note":42,"tick":46208,"time":60.166666666666664,"type":"noteOff","velocity":0},{"channel":0,"nextOffset":702,"note":72,"tick":46217,"time":60.178385416666664,"type":"noteOff","velocity":0},{"channel":0,"nextOffset":706,"note":69,"tick":46217,"time":60.178385416666664,"type":"noteOn","velocity":68},{"channel":0,"nextOffset":710,"note":45,"tick":46217,"time":60.178385416666664,"type":"noteOn","velocity":68},{"channel":9,"nextOffset":32626,"note":42,"tick":46224,"time":60.1875,"type":"noteOn","velocity":50},{"channel":1,"nextOffset":16447,"note":33,"tick":46237,"time":60.204427083333336,"type":"noteOff","velocity":0},{"channel":9,"nextOffset":32630,"note":42,"tick":46248,"time":60.21875,"type":"noteOff","velocity":0},{"channel":9,"nextOffset":32634,"note":42,"tick":46272,"time":60.25,"type":"noteOn","velocity":50},{"channel":9,"nextOffset":32638,"note":42,"tick":46296,"time":60.28125,"type":"noteOff","velocity":0},{"channel":0,"nextOffset":714,"note":69,"tick":46313,"time":60.303385416666664,"type":"noteOff","velocity":0},{"channel":0,"nextOffset":718,"note":67,"tick":46313,"time":60.303385416666664,"type":"noteOn","velocity":68},{"channel":9,"nextOffset":32642,"note":42,"tick":46320,"time":60.3125,"type":"noteOn","velocity":50},{"channel":2,"nextOffset":27992,"note":26,"tick":46325,"time":60.319010416666664,"type":"noteOn","velocity":57},{"channel":9,"nextOffset":20754,"note":35,"tick":46334,"time":60.330729166666664,"type":"noteOn","velocity":50},{"channel":9,"nextOffset":32646,"note":42,"tick":46344,"time":60.34375,"type":"noteOff","velocity":0},{"channel":5,"nextOffset":39184,"note":79,"tick":46366,"time":60.372395833333336,"type":"noteOff","velocity":0},{"channel":5,"nextOffset":39188,"note":76,"tick":46366,"time":60.372395833333336,"type":"noteOff","velocity":0},{"channel":5,"nextOffset":39192,"note":69,"tick":46366,"time":60.372395833333336,"type":"noteOff","velocity":0},{"channel":5,"nextOffset":39196,"note":72,"tick":46366,"time":60.372395833333336,"type":"noteOff","velocity":0},{"channel":9,"nextOffset":32650,"note":42,"tick":46368,"time":60.375,"type":"noteOn","velocity":50},{"channel":9,"nextOffset":32654,"note":42,"tick":46392,"time":60.40625,"type":"noteOff","velocity":0},{"channel":9,"nextOffset":44679,"note":42,"tick":46400,"time":60.416666666666664,"type":"noteOn","velocity":50},{"channel":0,"nextOffset":722,"note":45,"tick":46409,"time":60.428385416666664,"type":"noteOff","velocity":0},{"channel":0,"nextOffset":726,"note":67,"tick":46409,"time":60.428385416666664,"type":"noteOff","velocity":0},{"channel":0,"nextOffset":730,"note":69,"tick":46409,"time":60.428385416666664,"type":"noteOn","velocity":68},{"channel":0,"nextOffset":734,"note":50,"tick":46409,"time":60.428385416666664,"type":"noteOn","velocity":68},{"channel":1,"nextOffset":16452,"note":26,"tick":46429,"time":60.454427083333336,"type":"noteOn","velocity":50},{"channel":9,"nextOffset":20758,"note":35,"tick":46430,"time":60.455729166666664,"type":"noteOff","velocity":0},{"channel":9,"nextOffset":24547,"note":35,"tick":46438,"time":60.466145833333336,"type":"noteOn","velocity":50},{"channel":9,"nextOffset":44683,"note":42,"tick":46496,"time":60.541666666666664,"type":"noteOff","velocity":0},{"channel":0,"nextOffset":738,"note":69,"tick":46505,"time":60.553385416666664,"type":"noteOff","velocity":0},{"channel":0,"nextOffset":742,"note":62,"tick":46505,"time":60.553385416666664,"type":"noteOn","velocity":68},{"channel":2,"nextOffset":27997,"note":26,"tick":46517,"time":60.569010416666664,"type":"noteOff","velocity":0},{"channel":9,"nextOffset":24551,"note":35,"tick":46534,"time":60.591145833333336,"type":"noteOff","velocity":0},{"channel":5,"nextOffset":39201,"note":72,"tick":46558,"time":60.622395833333336,"type":"noteOn","velocity":70},{"channel":5,"nextOffset":39205,"note":69,"tick":46558,"time":60.622395833333336,"type":"noteOn","velocity":70},{"channel":5,"nextOffset":39209,"note":74,"tick":46558,"time":60.622395833333336,"type":"noteOn","velocity":70},{"channel":5,"nextOffset":39213,"note":77,"tick":46558,"time":60.622395833333336,"type":"noteOn","velocity":70},{"channel":9,"nextOffset":32659,"note":42,"tick":46560,"time":60.625,"type":"noteOn","velocity":50},{"channel":0,"nextOffset":746,"note":50,"tick":46601,"time":60.678385416666664,"type":"noteOff","velocity":0},{"channel":0,"nextOffset":750,"note":62,"tick":46601,"time":60.678385416666664,"type":"noteOff","velocity":0},{"channel":0,"nextOffset":754,"note":60,"tick":46601,"time":60.678385416666664,"type":"noteOn","velocity":68},{"channel":0,"nextOffset":758,"note":38,"tick":46601,"time":60.678385416666664,"type":"noteOn","velocity":68},{"channel":1,"nextOffset":16457,"note":26,"tick":46621,"time":60.704427083333336,"type":"noteOff","velocity":0},{"channel":9,"nextOffset":20763,"note":35,"tick":46622,"time":60.705729166666664,"type":"noteOn","velocity":50},{"channel":9,"nextOffset":32663,"note":42,"tick":46656,"time":60.75,"type":"noteOff","velocity":0},{"channel":9,"nextOffset":32667,"note":42,"tick":46656,"time":60.75,"type":"noteOn","velocity":50},{"channel":9,"nextOffset":44688,"note":42,"tick":46688,"time":60.791666666666664,"type":"noteOn","velocity":50},{"channel":0,"nextOffset":762,"note":60,"tick":46697,"time":60.803385416666664,"type":"noteOff","velocity":0},{"channel":0,"nextOffset":766,"note":65,"tick":46697,"time":60.803385416666664,"type":"noteOn","velocity":68},{"channel":2,"nextOffset":28002,"note":38,"tick":46709,"time":60.819010416666664,"type":"noteOn","velocity":57},{"channel":9,"nextOffset":20767,"note":35,"tick":46718,"time":60.830729166666664,"type":"noteOff","velocity":0},{"channel":9,"nextOffset":24556,"note":35,"tick":46726,"time":60.841145833333336,"type":"noteOn","velocity":50},{"channel":5,"nextOffset":39218,"note":77,"tick":46750,"time":60.872395833333336,"type":"noteOff","velocity":0},{"channel":5,"nextOffset":39222,"note":74,"tick":46750,"time":60.872395833333336,"type":"noteOff","velocity":0},{"channel":5,"nextOffset":39226,"note":69,"tick":46750,"time":60.872395833333336,"type":"noteOff","velocity":0},{"channel":5,"nextOffset":39230,"note":72,"tick":46750,"time":60.872395833333336,"type":"noteOff","velocity":0},{"channel":9,"nextOffset":32671,"note":42,"tick":46752,"time":60.875,"type":"noteOff","velocity":0},{"channel":9,"nextOffset":44692,"note":42,"tick":46784,"time":60.916666666666664,"type":"noteOff","velocity":0},{"channel":9,"nextOffset":44696,"note":42,"tick":46784,"time":60.916666666666664,"type":"noteOn","velocity":50},{"channel":0,"nextOffset":770,"note":38,"tick":46793,"time":60.928385416666664,"type":"noteOff","velocity":0},{"channel":0,"nextOffset":774,"note":65,"tick":46793,"time":60.928385416666664,"type":"noteOff","velocity":0},{"channel":0,"nextOffset":778,"note":64,"tick":46793,"time":60.928385416666664,"type":"noteOn","velocity":68},{"channel":0,"nextOffset":782,"note":60,"tick":46793,"time":60.928385416666664,"type":"noteOn","velocity":68},{"channel":0,"nextOffset":786,"note":69,"tick":46793,"time":60.928385416666664,"type":"noteOn","velocity":68},{"channel":0,"nextOffset":790,"note":45,"tick":46793,"time":60.928385416666664,"type":"noteOn","velocity":68},{"channel":9,"nextOffset":44700,"note":42,"tick":46808,"time":60.947916666666664,"type":"noteOff","velocity":0},{"channel":1,"nextOffset":16462,"note":38,"tick":46813,"time":60.954427083333336,"type":"noteOn","velocity":50},{"channel":9,"nextOffset":24560,"note":35,"tick":46822,"time":60.966145833333336,"type":"noteOff","velocity":0},{"channel":9,"nextOffset":44704,"note":42,"tick":46832,"time":60.979166666666664,"type":"noteOn","velocity":50},{"channel":9,"nextOffset":44708,"note":42,"tick":46856,"time":61.010416666666664,"type":"noteOff","velocity":0},{"channel":9,"nextOffset":44712,"note":42,"tick":46880,"time":61.041666666666664,"type":"noteOn","velocity":50},{"channel":2,"nextOffset":28007,"note":38,"tick":46901,"time":61.069010416666664,"type":"noteOff","velocity":0},{"channel":2,"nextOffset":28011,"note":26,"tick":46901,"time":61.069010416666664,"type":"noteOn","velocity":57},{"channel":9,"nextOffset":44716,"note":42,"tick":46904,"time":61.072916666666664,"type":"noteOff","velocity":0},{"channel":9,"nextOffset":20772,"note":35,"tick":46910,"time":61.080729166666664,"type":"noteOn","velocity":50},{"channel":9,"nextOffset":44720,"note":42,"tick":46928,"time":61.104166666666664,"type":"noteOn","velocity":50},{"channel":5,"nextOffset":39235,"note":69,"tick":46942,"time":61.122395833333336,"type":"noteOn","velocity":70},{"channel":5,"nextOffset":39239,"note":67,"tick":46942,"time":61.122395833333336,"type":"noteOn","velocity":70},{"channel":5,"nextOffset":39243,"note":72,"tick":46942,"time":61.122395833333336,"type":"noteOn","velocity":70},{"channel":5,"nextOffset":39247,"note":76,"tick":46942,"time":61.122395833333336,"type":"noteOn","velocity":70},{"channel":9,"nextOffset":32676,"note":42,"tick":46944,"time":61.125,"type":"noteOn","velocity":50},{"channel":9,"nextOffset":44724,"note":42,"tick":46952,"time":61.135416666666664,"type":"noteOff","velocity":0},{"channel":0,"nextOffset":795,"note":45,"tick":46985,"time":61.178385416666664,"type":"noteOff","velocity":0},{"channel":0,"nextOffset":799,"note":69,"tick":46985,"time":61.178385416666664,"type":"noteOff","velocity":0},{"channel":0,"nextOffset":803,"note":60,"tick":46985,"time":61.178385416666664,"type":"noteOff","velocity":0},{"channel":0,"nextOffset":807,"note":64,"tick":46985,"time":61.178385416666664,"type":"noteOff","velocity":0},{"channel":0,"nextOffset":811,"note":59,"tick":46985,"time":61.178385416666664,"type":"noteOn","velocity":68},{"channel":0,"nextOffset":815,"note":63,"tick":46985,"time":61.178385416666664,"type":"noteOn","velocity":68},{"channel":0,"nextOffset":819,"note":68,"tick":46985,"time":61.178385416666664,"type":"noteOn","velocity":68},{"channel":0,"nextOffset":823,"note":44,"tick":46985,"time":61.178385416666664,"type":"noteOn","velocity":68},{"channel":1,"nextOffset":16467,"note":38,"tick":47005,"time":61.204427083333336,"type":"noteOff","velocity":0},{"channel":1,"nextOffset":16471,"note":26,"tick":47005,"time":61.204427083333336,"type":"noteOn","velocity":50},{"channel":9,"nextOffset":20776,"note":35,"tick":47006,"time":61.205729166666664,"type":"noteOff","velocity":0},{"channel":9,"nextOffset":24565,"note":35,"tick":47014,"time":61.216145833333336,"type":"noteOn","velocity":50},{"channel":9,"nextOffset":32680,"note":42,"tick":47040,"time":61.25,"type":"noteOff","velocity":0},{"channel":9,"nextOffset":32684,"note":42,"tick":47040,"time":61.25,"type":"noteOn","velocity":50},{"channel":2,"nextOffset":28016,"note":26,"tick":47093,"time":61.319010416666664,"type":"noteOff","velocity":0},{"channel":2,"nextOffset":28020,"note":33,"tick":47093,"time":61.319010416666664,"type":"noteOn","velocity":57},{"channel":9,"nextOffset":20780,"note":35,"tick":47102,"time":61.330729166666664,"type":"noteOn","velocity":50},{"channel":9,"nextOffset":24569,"note":35,"tick":47110,"time":61.341145833333336,"type":"noteOff","velocity":0},{"channel":5,"nextOffset":39252,"note":76,"tick":47134,"time":61.372395833333336,"type":"noteOff","velocity":0},{"channel":5,"nextOffset":39256,"note":72,"tick":47134,"time":61.372395833333336,"type":"noteOff","velocity":0},{"channel":5,"nextOffset":39260,"note":67,"tick":47134,"time":61.372395833333336,"type":"noteOff","velocity":0},{"channel":5,"nextOffset":39264,"note":69,"tick":47134,"time":61.372395833333336,"type":"noteOff","velocity":0},{"channel":9,"nextOffset":32688,"note":42,"tick":47136,"time":61.375,"type":"noteOff","velocity":0},{"channel":9,"nextOffset":44729,"note":42,"tick":47168,"time":61.416666666666664,"type":"noteOn","velocity":50},{"channel":0,"nextOffset":828,"note":44,"tick":47177,"time":61.428385416666664,"type":"noteOff","velocity":0},{"channel":0,"nextOffset":832,"note":68,"tick":47177,"time":61.428385416666664,"type":"noteOff","velocity":0},{"channel":0,"nextOffset":836,"note":63,"tick":47177,"time":61.428385416666664,"type":"noteOff","velocity":0},{"channel":0,"nextOffset":840,"note":59,"tick":47177,"time":61.428385416666664,"type":"noteOff","velocity":0},{"channel":0,"nextOffset":844,"note":43,"tick":47177,"time":61.428385416666664,"type":"noteOn","velocity":68},{"channel":0,"nextOffset":848,"note":58,"tick":47177,"time":61.428385416666664,"type":"noteOn","velocity":68},{"channel":0,"nextOffset":852,"note":62,"tick":47177,"time":61.428385416666664,"type":"noteOn","velocity":68},{"channel":0,"nextOffset":856,"note":65,"tick":47177,"time":61.428385416666664,"type":"noteOn","velocity":68},{"channel":0,"nextOffset":860,"note":69,"tick":47177,"time":61.428385416666664,"type":"noteOn","velocity":68},{"channel":1,"nextOffset":16476,"note":26,"tick":47197,"time":61.454427083333336,"type":"noteOff","velocity":0},{"channel":1,"nextOffset":16480,"note":33,"tick":47197,"time":61.454427083333336,"type":"noteOn","velocity":50},{"channel":9,"nextOffset":20784,"note":35,"tick":47198,"time":61.455729166666664,"type":"noteOff","velocity":0},{"channel":9,"nextOffset":24573,"note":35,"tick":47206,"time":61.466145833333336,"type":"noteOn","velocity":50},{"channel":9,"nextOffset":44733,"note":42,"tick":47264,"time":61.541666666666664,"type":"noteOff","velocity":0},{"channel":9,"nextOffset":44737,"note":42,"tick":47264,"time":61.541666666666664,"type":"noteOn","velocity":50},{"channel":2,"nextOffset":28025,"note":33,"tick":47285,"time":61.569010416666664,"type":"noteOff","velocity":0},{"channel":9,"nextOffset":24577,"note":35,"tick":47302,"time":61.591145833333336,"type":"noteOff","velocity":0},{"channel":5,"nextOffset":39269,"note":69,"tick":47326,"time":61.622395833333336,"type":"noteOn","velocity":70},{"channel":5,"nextOffset":39273,"note":65,"tick":47326,"time":61.622395833333336,"type":"noteOn","velocity":70},{"channel":5,"nextOffset":39277,"note":72,"tick":47326,"time":61.622395833333336,"type":"noteOn","velocity":70},{"channel":5,"nextOffset":39281,"note":74,"tick":47326,"time":61.622395833333336,"type":"noteOn","velocity":70},{"channel":9,"nextOffset":32693,"note":42,"tick":47328,"time":61.625,"type":"noteOn","velocity":50},{"channel":9,"nextOffset":44741,"note":42,"tick":47360,"time":61.666666666666664,"type":"noteOff","velocity":0},{"channel":0,"nextOffset":865,"note":43,"tick":47369,"time":61.678385416666664,"type":"noteOff","velocity":0},{"channel":0,"nextOffset":869,"note":50,"tick":47369,"time":61.678385416666664,"type":"noteOn","velocity":68},{"channel":1,"nextOffset":16485,"note":33,"tick":47389,"time":61.704427083333336,"type":"noteOff","velocity":0},{"channel":9,"nextOffset":32697,"note":42,"tick":47424,"time":61.75,"type":"noteOff","velocity":0},{"channel":2,"nextOffset":28030,"note":26,"tick":47477,"time":61.819010416666664,"type":"noteOn","velocity":57},{"channel":9,"nextOffset":20789,"note":35,"tick":47486,"time":61.830729166666664,"type":"noteOn","velocity":50},{"channel":5,"nextOffset":39286,"note":74,"tick":47518,"time":61.872395833333336,"type":"noteOff","velocity":0},{"channel":5,"nextOffset":39290,"note":72,"tick":47518,"time":61.872395833333336,"type":"noteOff","velocity":0},{"channel":5,"nextOffset":39294,"note":65,"tick":47518,"time":61.872395833333336,"type":"noteOff","velocity":0},{"channel":5,"nextOffset":39298,"note":69,"tick":47518,"time":61.872395833333336,"type":"noteOff","velocity":0},{"channel":9,"nextOffset":44746,"note":42,"tick":47552,"time":61.916666666666664,"type":"noteOn","velocity":50},{"channel":0,"nextOffset":874,"note":69,"tick":47561,"time":61.928385416666664,"type":"noteOff","velocity":0},{"channel":0,"nextOffset":878,"note":65,"tick":47561,"time":61.928385416666664,"type":"noteOff","velocity":0},{"channel":0,"nextOffset":882,"note":62,"tick":47561,"time":61.928385416666664,"type":"noteOff","velocity":0},{"channel":0,"nextOffset":886,"note":58,"tick":47561,"time":61.928385416666664,"type":"noteOff","velocity":0},{"channel":0,"nextOffset":890,"note":50,"tick":47561,"time":61.928385416666664,"type":"noteOff","velocity":0},{"channel":0,"nextOffset":894,"note":43,"tick":47561,"time":61.928385416666664,"type":"noteOn","velocity":68},{"channel":1,"nextOffset":16490,"note":26,"tick":47581,"time":61.954427083333336,"type":"noteOn","velocity":50},{"channel":9,"nextOffset":20793,"note":35,"tick":47582,"time":61.955729166666664,"type":"noteOff","velocity":0},{"channel":9,"nextOffset":24582,"note":35,"tick":47590,"time":61.966145833333336,"type":"noteOn","velocity":50},{"channel":9,"nextOffset":32702,"note":42,"tick":47616,"time":62,"type":"noteOn","velocity":50},{"channel":9,"nextOffset":44750,"note":42,"tick":47648,"time":62.041666666666664,"type":"noteOff","velocity":0},{"channel":9,"nextOffset":44754,"note":42,"tick":47648,"time":62.041666666666664,"type":"noteOn","velocity":50},{"channel":2,"nextOffset":28035,"note":26,"tick":47669,"time":62.069010416666664,"type":"noteOff","velocity":0},{"channel":2,"nextOffset":28039,"note":33,"tick":47669,"time":62.069010416666664,"type":"noteOn","velocity":57},{"channel":9,"nextOffset":24586,"note":35,"tick":47686,"time":62.091145833333336,"type":"noteOff","velocity":0},{"channel":5,"nextOffset":39303,"note":67,"tick":47710,"time":62.122395833333336,"type":"noteOn","velocity":70},{"channel":5,"nextOffset":39307,"note":70,"tick":47710,"time":62.122395833333336,"type":"noteOn","velocity":70},{"channel":5,"nextOffset":39311,"note":74,"tick":47710,"time":62.122395833333336,"type":"noteOn","velocity":70},{"channel":5,"nextOffset":39315,"note":77,"tick":47710,"time":62.122395833333336,"type":"noteOn","velocity":70},{"channel":9,"nextOffset":32706,"note":42,"tick":47712,"time":62.125,"type":"noteOff","velocity":0},{"channel":9,"nextOffset":32710,"note":42,"tick":47712,"time":62.125,"type":"noteOn","velocity":50},{"channel":9,"nextOffset":32714,"note":42,"tick":47736,"time":62.15625,"type":"noteOff","velocity":0},{"channel":9,"nextOffset":44758,"note":42,"tick":47744,"time":62.166666666666664,"type":"noteOff","velocity":0},{"channel":0,"nextOffset":899,"note":43,"tick":47753,"time":62.178385416666664,"type":"noteOff","velocity":0},{"channel":0,"nextOffset":903,"note":44,"tick":47753,"time":62.178385416666664,"type":"noteOn","velocity":68},{"channel":0,"nextOffset":907,"note":65,"tick":47753,"time":62.178385416666664,"type":"noteOn","velocity":68},{"channel":9,"nextOffset":32718,"note":42,"tick":47760,"time":62.1875,"type":"noteOn","velocity":50},{"channel":1,"nextOffset":16495,"note":26,"tick":47773,"time":62.204427083333336,"type":"noteOff","velocity":0},{"channel":1,"nextOffset":16499,"note":33,"tick":47773,"time":62.204427083333336,"type":"noteOn","velocity":50},{"channel":9,"nextOffset":32722,"note":42,"tick":47784,"time":62.21875,"type":"noteOff","velocity":0},{"channel":9,"nextOffset":32726,"note":42,"tick":47808,"time":62.25,"type":"noteOn","velocity":50},{"channel":9,"nextOffset":32730,"note":42,"tick":47832,"time":62.28125,"type":"noteOff","velocity":0},{"channel":0,"nextOffset":911,"note":65,"tick":47849,"time":62.303385416666664,"type":"noteOff","velocity":0},{"channel":0,"nextOffset":915,"note":69,"tick":47849,"time":62.303385416666664,"type":"noteOn","velocity":68},{"channel":9,"nextOffset":32734,"note":42,"tick":47856,"time":62.3125,"type":"noteOn","velocity":50},{"channel":2,"nextOffset":28044,"note":33,"tick":47861,"time":62.319010416666664,"type":"noteOff","velocity":0},{"channel":2,"nextOffset":28048,"note":32,"tick":47861,"time":62.319010416666664,"type":"noteOn","velocity":57},{"channel":9,"nextOffset":20798,"note":35,"tick":47870,"time":62.330729166666664,"type":"noteOn","velocity":50},{"channel":9,"nextOffset":32738,"note":42,"tick":47880,"time":62.34375,"type":"noteOff","velocity":0},{"channel":5,"nextOffset":39320,"note":77,"tick":47902,"time":62.372395833333336,"type":"noteOff","velocity":0},{"channel":5,"nextOffset":39324,"note":74,"tick":47902,"time":62.372395833333336,"type":"noteOff","velocity":0},{"channel":5,"nextOffset":39328,"note":70,"tick":47902,"time":62.372395833333336,"type":"noteOff","velocity":0},{"channel":5,"nextOffset":39332,"note":67,"tick":47902,"time":62.372395833333336,"type":"noteOff","velocity":0},{"channel":9,"nextOffset":32742,"note":42,"tick":47904,"time":62.375,"type":"noteOn","velocity":50},{"channel":9,"nextOffset":32746,"note":42,"tick":47928,"time":62.40625,"type":"noteOff","velocity":0},{"channel":9,"nextOffset":44763,"note":42,"tick":47936,"time":62.416666666666664,"type":"noteOn","velocity":50},{"channel":0,"nextOffset":919,"note":44,"tick":47945,"time":62.428385416666664,"type":"noteOff","velocity":0},{"channel":0,"nextOffset":923,"note":69,"tick":47945,"time":62.428385416666664,"type":"noteOff","velocity":0},{"channel":0,"nextOffset":927,"note":45,"tick":47945,"time":62.428385416666664,"type":"noteOn","velocity":68},{"channel":0,"nextOffset":931,"note":72,"tick":47945,"time":62.428385416666664,"type":"noteOn","velocity":68},{"channel":0,"nextOffset":935,"note":67,"tick":47945,"time":62.428385416666664,"type":"noteOn","velocity":68},{"channel":0,"nextOffset":939,"note":64,"tick":47945,"time":62.428385416666664,"type":"noteOn","velocity":68},{"channel":0,"nextOffset":943,"note":60,"tick":47945,"time":62.428385416666664,"type":"noteOn","velocity":68},{"channel":1,"nextOffset":16504,"note":33,"tick":47965,"time":62.454427083333336,"type":"noteOff","velocity":0},{"channel":1,"nextOffset":16508,"note":32,"tick":47965,"time":62.454427083333336,"type":"noteOn","velocity":50},{"channel":9,"nextOffset":20802,"note":35,"tick":47966,"time":62.455729166666664,"type":"noteOff","velocity":0},{"channel":9,"nextOffset":24591,"note":35,"tick":47974,"time":62.466145833333336,"type":"noteOn","velocity":50},{"channel":9,"nextOffset":44767,"note":42,"tick":48032,"time":62.541666666666664,"type":"noteOff","velocity":0},{"channel":2,"nextOffset":28053,"note":32,"tick":48053,"time":62.569010416666664,"type":"noteOff","velocity":0},{"channel":2,"nextOffset":28057,"note":31,"tick":48053,"time":62.569010416666664,"type":"noteOn","velocity":57},{"channel":9,"nextOffset":24595,"note":35,"tick":48070,"time":62.591145833333336,"type":"noteOff","velocity":0},{"channel":5,"nextOffset":39337,"note":67,"tick":48094,"time":62.622395833333336,"type":"noteOn","velocity":70},{"channel":5,"nextOffset":39341,"note":70,"tick":48094,"time":62.622395833333336,"type":"noteOn","velocity":70},{"channel":5,"nextOffset":39345,"note":74,"tick":48094,"time":62.622395833333336,"type":"noteOn","velocity":70},{"channel":5,"nextOffset":39349,"note":76,"tick":48094,"time":62.622395833333336,"type":"noteOn","velocity":70},{"channel":9,"nextOffset":32751,"note":42,"tick":48096,"time":62.625,"type":"noteOn","velocity":50},{"channel":0,"nextOffset":948,"note":60,"tick":48137,"time":62.678385416666664,"type":"noteOff","velocity":0},{"channel":0,"nextOffset":952,"note":64,"tick":48137,"time":62.678385416666664,"type":"noteOff","velocity":0},{"channel":0,"nextOffset":956,"note":67,"tick":48137,"time":62.678385416666664,"type":"noteOff","velocity":0},{"channel":0,"nextOffset":960,"note":72,"tick":48137,"time":62.678385416666664,"type":"noteOff","velocity":0},{"channel":0,"nextOffset":964,"note":45,"tick":48137,"time":62.678385416666664,"type":"noteOff","velocity":0},{"channel":1,"nextOffset":16513,"note":32,"tick":48157,"time":62.704427083333336,"type":"noteOff","velocity":0},{"channel":1,"nextOffset":16517,"note":31,"tick":48157,"time":62.704427083333336,"type":"noteOn","velocity":50},{"channel":9,"nextOffset":20807,"note":35,"tick":48158,"time":62.705729166666664,"type":"noteOn","velocity":50},{"channel":9,"nextOffset":32755,"note":42,"tick":48192,"time":62.75,"type":"noteOff","velocity":0},{"channel":9,"nextOffset":32759,"note":42,"tick":48192,"time":62.75,"type":"noteOn","velocity":50},{"channel":9,"nextOffset":44772,"note":42,"tick":48224,"time":62.791666666666664,"type":"noteOn","velocity":50},{"channel":0,"nextOffset":968,"note":45,"tick":48233,"time":62.803385416666664,"type":"noteOn","velocity":68},{"channel":0,"nextOffset":972,"note":61,"tick":48233,"time":62.803385416666664,"type":"noteOn","velocity":68},{"channel":0,"nextOffset":976,"note":65,"tick":48233,"time":62.803385416666664,"type":"noteOn","velocity":68},{"channel":0,"nextOffset":980,"note":67,"tick":48233,"time":62.803385416666664,"type":"noteOn","velocity":68},{"channel":0,"nextOffset":984,"note":70,"tick":48233,"time":62.803385416666664,"type":"noteOn","velocity":68},{"channel":2,"nextOffset":28062,"note":31,"tick":48245,"time":62.819010416666664,"type":"noteOff","velocity":0},{"channel":9,"nextOffset":20811,"note":35,"tick":48254,"time":62.830729166666664,"type":"noteOff","velocity":0},{"channel":9,"nextOffset":24600,"note":35,"tick":48262,"time":62.841145833333336,"type":"noteOn","velocity":50},{"channel":5,"nextOffset":39354,"note":76,"tick":48286,"time":62.872395833333336,"type":"noteOff","velocity":0},{"channel":5,"nextOffset":39358,"note":74,"tick":48286,"time":62.872395833333336,"type":"noteOff","velocity":0},{"channel":5,"nextOffset":39362,"note":70,"tick":48286,"time":62.872395833333336,"type":"noteOff","velocity":0},{"channel":5,"nextOffset":39366,"note":67,"tick":48286,"time":62.872395833333336,"type":"noteOff","velocity":0},{"channel":9,"nextOffset":32763,"note":42,"tick":48288,"time":62.875,"type":"noteOff","velocity":0},{"channel":9,"nextOffset":44776,"note":42,"tick":48320,"time":62.916666666666664,"type":"noteOff","velocity":0},{"channel":9,"nextOffset":44780,"note":42,"tick":48320,"time":62.916666666666664,"type":"noteOn","velocity":50},{"channel":0,"nextOffset":988,"note":45,"tick":48329,"time":62.928385416666664,"type":"noteOff","velocity":0},{"channel":9,"nextOffset":44784,"note":42,"tick":48344,"time":62.947916666666664,"type":"noteOff","velocity":0},{"channel":1,"nextOffset":16522,"note":31,"tick":48349,"time":62.954427083333336,"type":"noteOff","velocity":0},{"channel":9,"nextOffset":24604,"note":35,"tick":48358,"time":62.966145833333336,"type":"noteOff","velocity":0},{"channel":9,"nextOffset":44788,"note":42,"tick":48368,"time":62.979166666666664,"type":"noteOn","velocity":50},{"channel":9,"nextOffset":44792,"note":42,"tick":48392,"time":63.010416666666664,"type":"noteOff","velocity":0},{"channel":9,"nextOffset":44796,"note":42,"tick":48416,"time":63.041666666666664,"type":"noteOn","velocity":50},{"channel":0,"nextOffset":992,"note":70,"tick":48425,"time":63.053385416666664,"type":"noteOff","velocity":0},{"channel":0,"nextOffset":996,"note":67,"tick":48425,"time":63.053385416666664,"type":"noteOff","velocity":0},{"channel":0,"nextOffset":1000,"note":65,"tick":48425,"time":63.053385416666664,"type":"noteOff","velocity":0},{"channel":0,"nextOffset":1004,"note":61,"tick":48425,"time":63.053385416666664,"type":"noteOff","velocity":0},{"channel":2,"nextOffset":28067,"note":31,"tick":48437,"time":63.069010416666664,"type":"noteOn","velocity":57},{"channel":9,"nextOffset":44800,"note":42,"tick":48440,"time":63.072916666666664,"type":"noteOff","velocity":0},{"channel":9,"nextOffset":20816,"note":35,"tick":48446,"time":63.080729166666664,"type":"noteOn","velocity":50},{"channel":9,"nextOffset":44804,"note":42,"tick":48464,"time":63.104166666666664,"type":"noteOn","velocity":50},{"channel":5,"nextOffset":39371,"note":69,"tick":48478,"time":63.122395833333336,"type":"noteOn","velocity":70},{"channel":5,"nextOffset":39375,"note":72,"tick":48478,"time":63.122395833333336,"type":"noteOn","velocity":70},{"channel":5,"nextOffset":39379,"note":76,"tick":48478,"time":63.122395833333336,"type":"noteOn","velocity":70},{"channel":5,"nextOffset":39383,"note":79,"tick":48478,"time":63.122395833333336,"type":"noteOn","velocity":70},{"channel":9,"nextOffset":32768,"note":42,"tick":48480,"time":63.125,"type":"noteOn","velocity":50},{"channel":9,"nextOffset":44808,"note":42,"tick":48488,"time":63.135416666666664,"type":"noteOff","velocity":0},{"channel":9,"nextOffset":44812,"note":42,"tick":48512,"time":63.166666666666664,"type":"noteOn","velocity":50},{"channel":0,"nextOffset":1008,"note":38,"tick":48521,"time":63.178385416666664,"type":"noteOn","velocity":68},{"channel":0,"nextOffset":1012,"note":60,"tick":48521,"time":63.178385416666664,"type":"noteOn","velocity":68},{"channel":0,"nextOffset":1016,"note":64,"tick":48521,"time":63.178385416666664,"type":"noteOn","velocity":68},{"channel":0,"nextOffset":1020,"note":65,"tick":48521,"time":63.178385416666664,"type":"noteOn","velocity":68},{"channel":0,"nextOffset":1024,"note":69,"tick":48521,"time":63.178385416666664,"type":"noteOn","velocity":68},{"channel":9,"nextOffset":44816,"note":42,"tick":48536,"time":63.197916666666664,"type":"noteOff","velocity":0},{"channel":1,"nextOffset":16527,"note":31,"tick":48541,"time":63.204427083333336,"type":"noteOn","velocity":50},{"channel":9,"nextOffset":20820,"note":35,"tick":48542,"time":63.205729166666664,"type":"noteOff","velocity":0},{"channel":9,"nextOffset":24609,"note":35,"tick":48550,"time":63.216145833333336,"type":"noteOn","velocity":50},{"channel":9,"nextOffset":32772,"note":42,"tick":48576,"time":63.25,"type":"noteOff","velocity":0},{"channel":9,"nextOffset":32776,"note":42,"tick":48576,"time":63.25,"type":"noteOn","velocity":50},{"channel":2,"nextOffset":28072,"note":31,"tick":48629,"time":63.319010416666664,"type":"noteOff","velocity":0},{"channel":2,"nextOffset":28076,"note":32,"tick":48629,"time":63.319010416666664,"type":"noteOn","velocity":57},{"channel":9,"nextOffset":20824,"note":35,"tick":48638,"time":63.330729166666664,"type":"noteOn","velocity":50},{"channel":9,"nextOffset":24613,"note":35,"tick":48646,"time":63.341145833333336,"type":"noteOff","velocity":0},{"channel":5,"nextOffset":39388,"note":79,"tick":48670,"time":63.372395833333336,"type":"noteOff","velocity":0},{"channel":5,"nextOffset":39392,"note":76,"tick":48670,"time":63.372395833333336,"type":"noteOff","velocity":0},{"channel":5,"nextOffset":39396,"note":72,"tick":48670,"time":63.372395833333336,"type":"noteOff","velocity":0},{"channel":5,"nextOffset":39400,"note":69,"tick":48670,"time":63.372395833333336,"type":"noteOff","velocity":0},{"channel":9,"nextOffset":32780,"note":42,"tick":48672,"time":63.37499999999999,"type":"noteOff","velocity":0},{"channel":9,"nextOffset":44821,"note":42,"tick":48704,"time":63.416666666666664,"type":"noteOn","velocity":50},{"channel":0,"nextOffset":1029,"note":69,"tick":48713,"time":63.428385416666664,"type":"noteOff","velocity":0},{"channel":0,"nextOffset":1033,"note":65,"tick":48713,"time":63.428385416666664,"type":"noteOff","velocity":0},{"channel":0,"nextOffset":1037,"note":64,"tick":48713,"time":63.428385416666664,"type":"noteOff","velocity":0},{"channel":0,"nextOffset":1041,"note":60,"tick":48713,"time":63.428385416666664,"type":"noteOff","velocity":0},{"channel":0,"nextOffset":1045,"note":38,"tick":48713,"time":63.428385416666664,"type":"noteOff","velocity":0},{"channel":0,"nextOffset":1049,"note":76,"tick":48713,"time":63.428385416666664,"type":"noteOn","velocity":68},{"channel":1,"nextOffset":16532,"note":31,"tick":48733,"time":63.454427083333336,"type":"noteOff","velocity":0},{"channel":1,"nextOffset":16536,"note":32,"tick":48733,"time":63.454427083333336,"type":"noteOn","velocity":50},{"channel":9,"nextOffset":20828,"note":35,"tick":48734,"time":63.455729166666664,"type":"noteOff","velocity":0},{"channel":9,"nextOffset":24617,"note":35,"tick":48742,"time":63.466145833333336,"type":"noteOn","velocity":50},{"channel":9,"nextOffset":44825,"note":42,"tick":48800,"time":63.541666666666664,"type":"noteOff","velocity":0},{"channel":9,"nextOffset":44829,"note":42,"tick":48800,"time":63.541666666666664,"type":"noteOn","velocity":50},{"channel":0,"nextOffset":1053,"note":76,"tick":48809,"time":63.553385416666664,"type":"noteOff","velocity":0},{"channel":0,"nextOffset":1057,"note":77,"tick":48809,"time":63.553385416666664,"type":"noteOn","velocity":68},{"channel":2,"nextOffset":28081,"note":32,"tick":48821,"time":63.569010416666664,"type":"noteOff","velocity":0},{"channel":2,"nextOffset":28085,"note":33,"tick":48821,"time":63.569010416666664,"type":"noteOn","velocity":57},{"channel":2,"nextOffset":28089,"note":33,"tick":48821,"time":63.569010416666664,"type":"noteOn","velocity":57},{"channel":9,"nextOffset":24621,"note":35,"tick":48838,"time":63.591145833333336,"type":"noteOff","velocity":0},{"channel":5,"nextOffset":39405,"note":69,"tick":48862,"time":63.622395833333336,"type":"noteOn","velocity":70},{"channel":5,"nextOffset":39409,"note":72,"tick":48862,"time":63.622395833333336,"type":"noteOn","velocity":70},{"channel":5,"nextOffset":39413,"note":76,"tick":48862,"time":63.622395833333336,"type":"noteOn","velocity":70},{"channel":5,"nextOffset":39417,"note":79,"tick":48862,"time":63.622395833333336,"type":"noteOn","velocity":70},{"channel":9,"nextOffset":32785,"note":42,"tick":48864,"time":63.62499999999999,"type":"noteOn","velocity":50},{"channel":9,"nextOffset":44833,"note":42,"tick":48896,"time":63.666666666666664,"type":"noteOff","velocity":0},{"channel":0,"nextOffset":1061,"note":77,"tick":48905,"time":63.678385416666664,"type":"noteOff","velocity":0},{"channel":0,"nextOffset":1065,"note":76,"tick":48905,"time":63.678385416666664,"type":"noteOn","velocity":68},{"channel":1,"nextOffset":16541,"note":32,"tick":48925,"time":63.704427083333336,"type":"noteOff","velocity":0},{"channel":1,"nextOffset":16545,"note":33,"tick":48925,"time":63.704427083333336,"type":"noteOn","velocity":50},{"channel":1,"nextOffset":16549,"note":33,"tick":48925,"time":63.704427083333336,"type":"noteOn","velocity":50},{"channel":9,"nextOffset":32789,"note":42,"tick":48960,"time":63.74999999999999,"type":"noteOff","velocity":0},{"channel":0,"nextOffset":1069,"note":76,"tick":49001,"time":63.803385416666664,"type":"noteOff","velocity":0},{"channel":0,"nextOffset":1073,"note":72,"tick":49001,"time":63.803385416666664,"type":"noteOn","velocity":68},{"channel":2,"nextOffset":28094,"note":33,"tick":49013,"time":63.819010416666664,"type":"noteOff","velocity":0},{"channel":2,"nextOffset":28098,"note":33,"tick":49013,"time":63.819010416666664,"type":"noteOff","velocity":0},{"channel":9,"nextOffset":20833,"note":35,"tick":49022,"time":63.830729166666664,"type":"noteOn","velocity":50},{"channel":5,"nextOffset":39422,"note":79,"tick":49054,"time":63.872395833333336,"type":"noteOff","velocity":0},{"channel":5,"nextOffset":39426,"note":76,"tick":49054,"time":63.872395833333336,"type":"noteOff","velocity":0},{"channel":5,"nextOffset":39430,"note":72,"tick":49054,"time":63.872395833333336,"type":"noteOff","velocity":0},{"channel":5,"nextOffset":39434,"note":69,"tick":49054,"time":63.872395833333336,"type":"noteOff","velocity":0},{"channel":5,"nextOffset":39438,"note":72,"tick":49054,"time":63.872395833333336,"type":"noteOn","velocity":70},{"channel":5,"nextOffset":39442,"note":74,"tick":49054,"time":63.872395833333336,"type":"noteOn","velocity":70},{"channel":5,"nextOffset":39446,"note":77,"tick":49054,"time":63.872395833333336,"type":"noteOn","velocity":70},{"channel":5,"nextOffset":39450,"note":81,"tick":49054,"time":63.872395833333336,"type":"noteOn","velocity":70},{"channel":9,"nextOffset":44838,"note":42,"tick":49088,"time":63.916666666666664,"type":"noteOn","velocity":50},{"channel":9,"nextOffset":44842,"note":42,"tick":49088,"time":63.916666666666664,"type":"noteOn","velocity":50},{"channel":0,"nextOffset":1077,"note":72,"tick":49097,"time":63.928385416666664,"type":"noteOff","velocity":0},{"channel":0,"nextOffset":1081,"note":76,"tick":49097,"time":63.928385416666664,"type":"noteOn","velocity":68},{"channel":0,"nextOffset":1085,"note":38,"tick":49097,"time":63.928385416666664,"type":"noteOn","velocity":68},{"channel":2,"nextOffset":28102,"note":33,"tick":49109,"time":63.944010416666664,"type":"noteOn","velocity":57},{"channel":1,"nextOffset":16554,"note":33,"tick":49117,"time":63.954427083333336,"type":"noteOff","velocity":0},{"channel":1,"nextOffset":16558,"note":33,"tick":49117,"time":63.954427083333336,"type":"noteOff","velocity":0},{"channel":9,"nextOffset":20837,"note":35,"tick":49118,"time":63.955729166666664,"type":"noteOff","velocity":0},{"channel":9,"nextOffset":24626,"note":35,"tick":49126,"time":63.966145833333336,"type":"noteOn","velocity":50},{"channel":9,"nextOffset":32794,"note":42,"tick":49152,"time":63.99999999999999,"type":"noteOn","velocity":50},{"channel":9,"nextOffset":44846,"note":42,"tick":49184,"time":64.04166666666666,"type":"noteOff","velocity":0},{"channel":9,"nextOffset":44850,"note":42,"tick":49184,"time":64.04166666666666,"type":"noteOff","velocity":0},{"channel":9,"nextOffset":44854,"note":42,"tick":49184,"time":64.04166666666666,"type":"noteOn","velocity":50},{"channel":0,"nextOffset":1089,"note":76,"tick":49193,"time":64.05338541666666,"type":"noteOff","velocity":0},{"channel":0,"nextOffset":1093,"note":72,"tick":49193,"time":64.05338541666666,"type":"noteOn","velocity":68},{"channel":2,"nextOffset":28106,"note":33,"tick":49205,"time":64.06901041666666,"type":"noteOff","velocity":0},{"channel":1,"nextOffset":16562,"note":33,"tick":49213,"time":64.07942708333333,"type":"noteOn","velocity":50},{"channel":9,"nextOffset":24630,"note":35,"tick":49222,"time":64.09114583333333,"type":"noteOff","velocity":0},{"channel":5,"nextOffset":39455,"note":81,"tick":49246,"time":64.12239583333333,"type":"noteOff","velocity":0},{"channel":5,"nextOffset":39459,"note":77,"tick":49246,"time":64.12239583333333,"type":"noteOff","velocity":0},{"channel":5,"nextOffset":39463,"note":74,"tick":49246,"time":64.12239583333333,"type":"noteOff","velocity":0},{"channel":5,"nextOffset":39467,"note":72,"tick":49246,"time":64.12239583333333,"type":"noteOff","velocity":0},{"channel":9,"nextOffset":32798,"note":42,"tick":49248,"time":64.12499999999999,"type":"noteOff","velocity":0},{"channel":9,"nextOffset":32802,"note":42,"tick":49248,"time":64.12499999999999,"type":"noteOn","velocity":50},{"channel":9,"nextOffset":32806,"note":42,"tick":49272,"time":64.15624999999999,"type":"noteOff","velocity":0},{"channel":9,"nextOffset":44858,"note":42,"tick":49280,"time":64.16666666666666,"type":"noteOff","velocity":0},{"channel":0,"nextOffset":1097,"note":38,"tick":49289,"time":64.17838541666666,"type":"noteOff","velocity":0},{"channel":0,"nextOffset":1101,"note":72,"tick":49289,"time":64.17838541666666,"type":"noteOff","velocity":0},{"channel":0,"nextOffset":1105,"note":69,"tick":49289,"time":64.17838541666666,"type":"noteOn","velocity":68},{"channel":0,"nextOffset":1109,"note":45,"tick":49289,"time":64.17838541666666,"type":"noteOn","velocity":68},{"channel":9,"nextOffset":32810,"note":42,"tick":49296,"time":64.18749999999999,"type":"noteOn","velocity":50},{"channel":1,"nextOffset":16566,"note":33,"tick":49309,"time":64.20442708333333,"type":"noteOff","velocity":0},{"channel":9,"nextOffset":24634,"note":42,"tick":49318,"time":64.21614583333333,"type":"noteOn","velocity":50},{"channel":9,"nextOffset":32814,"note":42,"tick":49320,"time":64.21874999999999,"type":"noteOff","velocity":0},{"channel":9,"nextOffset":32818,"note":42,"tick":49344,"time":64.24999999999999,"type":"noteOn","velocity":50},{"channel":9,"nextOffset":32822,"note":42,"tick":49368,"time":64.28124999999999,"type":"noteOff","velocity":0},{"channel":0,"nextOffset":1113,"note":69,"tick":49385,"time":64.30338541666666,"type":"noteOff","velocity":0},{"channel":0,"nextOffset":1117,"note":67,"tick":49385,"time":64.30338541666666,"type":"noteOn","velocity":68},{"channel":9,"nextOffset":32826,"note":42,"tick":49392,"time":64.31249999999999,"type":"noteOn","velocity":50},{"channel":2,"nextOffset":28111,"note":26,"tick":49397,"time":64.31901041666666,"type":"noteOn","velocity":57},{"channel":9,"nextOffset":20842,"note":35,"tick":49406,"time":64.33072916666666,"type":"noteOn","velocity":50},{"channel":9,"nextOffset":24638,"note":42,"tick":49414,"time":64.34114583333333,"type":"noteOff","velocity":0},{"channel":9,"nextOffset":32830,"note":42,"tick":49416,"time":64.34374999999999,"type":"noteOff","velocity":0},{"channel":9,"nextOffset":32834,"note":42,"tick":49440,"time":64.37499999999999,"type":"noteOn","velocity":50},{"channel":9,"nextOffset":32838,"note":42,"tick":49464,"time":64.40624999999999,"type":"noteOff","velocity":0},{"channel":9,"nextOffset":44863,"note":42,"tick":49472,"time":64.41666666666666,"type":"noteOn","velocity":50},{"channel":0,"nextOffset":1121,"note":45,"tick":49481,"time":64.42838541666666,"type":"noteOff","velocity":0},{"channel":0,"nextOffset":1125,"note":67,"tick":49481,"time":64.42838541666666,"type":"noteOff","velocity":0},{"channel":0,"nextOffset":1129,"note":69,"tick":49481,"time":64.42838541666666,"type":"noteOn","velocity":68},{"channel":0,"nextOffset":1133,"note":50,"tick":49481,"time":64.42838541666666,"type":"noteOn","velocity":68},{"channel":1,"nextOffset":16571,"note":26,"tick":49501,"time":64.45442708333333,"type":"noteOn","velocity":50},{"channel":9,"nextOffset":20846,"note":35,"tick":49502,"time":64.45572916666666,"type":"noteOff","velocity":0},{"channel":9,"nextOffset":24642,"note":35,"tick":49510,"time":64.46614583333333,"type":"noteOn","velocity":50},{"channel":9,"nextOffset":44867,"note":42,"tick":49568,"time":64.54166666666666,"type":"noteOff","velocity":0},{"channel":0,"nextOffset":1137,"note":69,"tick":49577,"time":64.55338541666666,"type":"noteOff","velocity":0},{"channel":0,"nextOffset":1141,"note":62,"tick":49577,"time":64.55338541666666,"type":"noteOn","velocity":68},{"channel":2,"nextOffset":28116,"note":26,"tick":49589,"time":64.56901041666666,"type":"noteOff","velocity":0},{"channel":2,"nextOffset":28120,"note":31,"tick":49589,"time":64.56901041666666,"type":"noteOn","velocity":57},{"channel":9,"nextOffset":24646,"note":35,"tick":49606,"time":64.59114583333333,"type":"noteOff","velocity":0},{"channel":5,"nextOffset":39472,"note":81,"tick":49630,"time":64.62239583333333,"type":"noteOn","velocity":70},{"channel":5,"nextOffset":39476,"note":77,"tick":49630,"time":64.62239583333333,"type":"noteOn","velocity":70},{"channel":5,"nextOffset":39480,"note":74,"tick":49630,"time":64.62239583333333,"type":"noteOn","velocity":70},{"channel":5,"nextOffset":39484,"note":72,"tick":49630,"time":64.62239583333333,"type":"noteOn","velocity":70},{"channel":0,"nextOffset":1145,"note":50,"tick":49673,"time":64.67838541666666,"type":"noteOff","velocity":0},{"channel":0,"nextOffset":1149,"note":62,"tick":49673,"time":64.67838541666666,"type":"noteOff","velocity":0},{"channel":0,"nextOffset":1153,"note":60,"tick":49673,"time":64.67838541666666,"type":"noteOn","velocity":68},{"channel":0,"nextOffset":1157,"note":38,"tick":49673,"time":64.67838541666666,"type":"noteOn","velocity":68},{"channel":1,"nextOffset":16576,"note":26,"tick":49693,"time":64.70442708333333,"type":"noteOff","velocity":0},{"channel":1,"nextOffset":16580,"note":31,"tick":49693,"time":64.70442708333333,"type":"noteOn","velocity":50},{"channel":9,"nextOffset":20851,"note":35,"tick":49694,"time":64.70572916666666,"type":"noteOn","velocity":50},{"channel":9,"nextOffset":44872,"note":42,"tick":49760,"time":64.79166666666666,"type":"noteOn","velocity":50},{"channel":0,"nextOffset":1161,"note":60,"tick":49769,"time":64.80338541666666,"type":"noteOff","velocity":0},{"channel":0,"nextOffset":1165,"note":65,"tick":49769,"time":64.80338541666666,"type":"noteOn","velocity":68},{"channel":2,"nextOffset":28125,"note":31,"tick":49781,"time":64.81901041666666,"type":"noteOff","velocity":0},{"channel":9,"nextOffset":20855,"note":35,"tick":49790,"time":64.83072916666666,"type":"noteOff","velocity":0},{"channel":9,"nextOffset":24651,"note":35,"tick":49798,"time":64.84114583333333,"type":"noteOn","velocity":50},{"channel":9,"nextOffset":44876,"note":42,"tick":49856,"time":64.91666666666666,"type":"noteOff","velocity":0},{"channel":9,"nextOffset":44880,"note":42,"tick":49856,"time":64.91666666666666,"type":"noteOn","velocity":50},{"channel":0,"nextOffset":1169,"note":38,"tick":49865,"time":64.92838541666666,"type":"noteOff","velocity":0},{"channel":0,"nextOffset":1173,"note":65,"tick":49865,"time":64.92838541666666,"type":"noteOff","velocity":0},{"channel":0,"nextOffset":1177,"note":64,"tick":49865,"time":64.92838541666666,"type":"noteOn","velocity":68},{"channel":0,"nextOffset":1181,"note":60,"tick":49865,"time":64.92838541666666,"type":"noteOn","velocity":68},{"channel":0,"nextOffset":1185,"note":69,"tick":49865,"time":64.92838541666666,"type":"noteOn","velocity":68},{"channel":0,"nextOffset":1189,"note":45,"tick":49865,"time":64.92838541666666,"type":"noteOn","velocity":68},{"channel":9,"nextOffset":44884,"note":42,"tick":49880,"time":64.94791666666666,"type":"noteOff","velocity":0},{"channel":1,"nextOffset":16585,"note":31,"tick":49885,"time":64.95442708333333,"type":"noteOff","velocity":0},{"channel":9,"nextOffset":24655,"note":35,"tick":49894,"time":64.96614583333333,"type":"noteOff","velocity":0},{"channel":9,"nextOffset":44888,"note":42,"tick":49904,"time":64.97916666666666,"type":"noteOn","velocity":50},{"channel":9,"nextOffset":44892,"note":42,"tick":49928,"time":65.01041666666666,"type":"noteOff","velocity":0},{"channel":9,"nextOffset":44896,"note":42,"tick":49952,"time":65.04166666666666,"type":"noteOn","velocity":50},{"channel":2,"nextOffset":28130,"note":31,"tick":49973,"time":65.06901041666666,"type":"noteOn","velocity":57},{"channel":9,"nextOffset":44900,"note":42,"tick":49976,"time":65.07291666666666,"type":"noteOff","velocity":0},{"channel":9,"nextOffset":20860,"note":35,"tick":49982,"time":65.08072916666666,"type":"noteOn","velocity":50},{"channel":9,"nextOffset":44904,"note":42,"tick":50000,"time":65.10416666666666,"type":"noteOn","velocity":50},{"channel":9,"nextOffset":44908,"note":42,"tick":50024,"time":65.13541666666666,"type":"noteOff","velocity":0},{"channel":9,"nextOffset":44912,"note":42,"tick":50048,"time":65.16666666666666,"type":"noteOn","velocity":50},{"channel":0,"nextOffset":1194,"note":45,"tick":50057,"time":65.17838541666666,"type":"noteOff","velocity":0},{"channel":0,"nextOffset":1198,"note":69,"tick":50057,"time":65.17838541666666,"type":"noteOff","velocity":0},{"channel":0,"nextOffset":1202,"note":60,"tick":50057,"time":65.17838541666666,"type":"noteOff","velocity":0},{"channel":0,"nextOffset":1206,"note":64,"tick":50057,"time":65.17838541666666,"type":"noteOff","velocity":0},{"channel":0,"nextOffset":1210,"note":59,"tick":50057,"time":65.17838541666666,"type":"noteOn","velocity":68},{"channel":0,"nextOffset":1214,"note":63,"tick":50057,"time":65.17838541666666,"type":"noteOn","velocity":68},{"channel":0,"nextOffset":1218,"note":68,"tick":50057,"time":65.17838541666666,"type":"noteOn","velocity":68},{"channel":0,"nextOffset":1222,"note":44,"tick":50057,"time":65.17838541666666,"type":"noteOn","velocity":68},{"channel":9,"nextOffset":44916,"note":42,"tick":50072,"time":65.19791666666666,"type":"noteOff","velocity":0},{"channel":1,"nextOffset":16590,"note":31,"tick":50077,"time":65.20442708333333,"type":"noteOn","velocity":50},{"channel":9,"nextOffset":20864,"note":35,"tick":50078,"time":65.20572916666666,"type":"noteOff","velocity":0},{"channel":9,"nextOffset":24660,"note":35,"tick":50086,"time":65.21614583333333,"type":"noteOn","velocity":50},{"channel":2,"nextOffset":28135,"note":31,"tick":50165,"time":65.31901041666666,"type":"noteOff","velocity":0},{"channel":2,"nextOffset":28139,"note":32,"tick":50165,"time":65.31901041666666,"type":"noteOn","velocity":57},{"channel":9,"nextOffset":20868,"note":35,"tick":50174,"time":65.33072916666666,"type":"noteOn","velocity":50},{"channel":9,"nextOffset":24664,"note":35,"tick":50182,"time":65.34114583333333,"type":"noteOff","velocity":0},{"channel":9,"nextOffset":44921,"note":42,"tick":50240,"time":65.41666666666666,"type":"noteOn","velocity":50},{"channel":0,"nextOffset":1227,"note":44,"tick":50249,"time":65.42838541666666,"type":"noteOff","velocity":0},{"channel":0,"nextOffset":1231,"note":68,"tick":50249,"time":65.42838541666666,"type":"noteOff","velocity":0},{"channel":0,"nextOffset":1235,"note":63,"tick":50249,"time":65.42838541666666,"type":"noteOff","velocity":0},{"channel":0,"nextOffset":1239,"note":59,"tick":50249,"time":65.42838541666666,"type":"noteOff","velocity":0},{"channel":0,"nextOffset":1243,"note":43,"tick":50249,"time":65.42838541666666,"type":"noteOn","velocity":68},{"channel":0,"nextOffset":1247,"note":58,"tick":50249,"time":65.42838541666666,"type":"noteOn","velocity":68},{"channel":0,"nextOffset":1251,"note":62,"tick":50249,"time":65.42838541666666,"type":"noteOn","velocity":68},{"channel":0,"nextOffset":1255,"note":65,"tick":50249,"time":65.42838541666666,"type":"noteOn","velocity":68},{"channel":0,"nextOffset":1259,"note":69,"tick":50249,"time":65.42838541666666,"type":"noteOn","velocity":68},{"channel":1,"nextOffset":16595,"note":31,"tick":50269,"time":65.45442708333333,"type":"noteOff","velocity":0},{"channel":1,"nextOffset":16599,"note":32,"tick":50269,"time":65.45442708333333,"type":"noteOn","velocity":50},{"channel":9,"nextOffset":20872,"note":35,"tick":50270,"time":65.45572916666666,"type":"noteOff","velocity":0},{"channel":9,"nextOffset":24668,"note":35,"tick":50278,"time":65.46614583333333,"type":"noteOn","velocity":50},{"channel":9,"nextOffset":44925,"note":42,"tick":50336,"time":65.54166666666666,"type":"noteOff","velocity":0},{"channel":9,"nextOffset":44929,"note":42,"tick":50336,"time":65.54166666666666,"type":"noteOn","velocity":50},{"channel":2,"nextOffset":28144,"note":32,"tick":50357,"time":65.56901041666666,"type":"noteOff","velocity":0},{"channel":2,"nextOffset":28148,"note":33,"tick":50357,"time":65.56901041666666,"type":"noteOn","velocity":57},{"channel":2,"nextOffset":28152,"note":33,"tick":50357,"time":65.56901041666666,"type":"noteOn","velocity":57},{"channel":9,"nextOffset":24672,"note":35,"tick":50374,"time":65.59114583333333,"type":"noteOff","velocity":0},{"channel":9,"nextOffset":44933,"note":42,"tick":50432,"time":65.66666666666666,"type":"noteOff","velocity":0},{"channel":0,"nextOffset":1264,"note":43,"tick":50441,"time":65.67838541666666,"type":"noteOff","velocity":0},{"channel":1,"nextOffset":16604,"note":32,"tick":50461,"time":65.70442708333333,"type":"noteOff","velocity":0},{"channel":1,"nextOffset":16608,"note":33,"tick":50461,"time":65.70442708333333,"type":"noteOn","velocity":50},{"channel":1,"nextOffset":16612,"note":33,"tick":50461,"time":65.70442708333333,"type":"noteOn","velocity":50},{"channel":2,"nextOffset":28157,"note":33,"tick":50549,"time":65.81901041666666,"type":"noteOff","velocity":0},{"channel":2,"nextOffset":28161,"note":33,"tick":50549,"time":65.81901041666666,"type":"noteOff","velocity":0},{"channel":9,"nextOffset":20877,"note":35,"tick":50558,"time":65.83072916666666,"type":"noteOn","velocity":50},{"channel":9,"nextOffset":44938,"note":42,"tick":50624,"time":65.91666666666666,"type":"noteOn","velocity":50},{"channel":0,"nextOffset":1269,"note":69,"tick":50633,"time":65.92838541666666,"type":"noteOff","velocity":0},{"channel":0,"nextOffset":1273,"note":65,"tick":50633,"time":65.92838541666666,"type":"noteOff","velocity":0},{"channel":0,"nextOffset":1277,"note":62,"tick":50633,"time":65.92838541666666,"type":"noteOff","velocity":0},{"channel":0,"nextOffset":1281,"note":58,"tick":50633,"time":65.92838541666666,"type":"noteOff","velocity":0},{"channel":0,"nextOffset":1285,"note":43,"tick":50633,"time":65.92838541666666,"type":"noteOn","velocity":68},{"channel":2,"nextOffset":28165,"note":33,"tick":50645,"time":65.94401041666666,"type":"noteOn","velocity":57},{"channel":1,"nextOffset":16617,"note":33,"tick":50653,"time":65.95442708333333,"type":"noteOff","velocity":0},{"channel":1,"nextOffset":16621,"note":33,"tick":50653,"time":65.95442708333333,"type":"noteOff","velocity":0},{"channel":9,"nextOffset":20881,"note":35,"tick":50654,"time":65.95572916666666,"type":"noteOff","velocity":0},{"channel":9,"nextOffset":24677,"note":35,"tick":50662,"time":65.96614583333333,"type":"noteOn","velocity":50},{"channel":5,"nextOffset":39489,"note":72,"tick":50686,"time":65.99739583333333,"type":"noteOff","velocity":0},{"channel":5,"nextOffset":39493,"note":74,"tick":50686,"time":65.99739583333333,"type":"noteOff","velocity":0},{"channel":5,"nextOffset":39497,"note":77,"tick":50686,"time":65.99739583333333,"type":"noteOff","velocity":0},{"channel":5,"nextOffset":39501,"note":81,"tick":50686,"time":65.99739583333333,"type":"noteOff","velocity":0},{"channel":9,"nextOffset":44942,"note":42,"tick":50720,"time":66.04166666666666,"type":"noteOff","velocity":0},{"channel":9,"nextOffset":44946,"note":42,"tick":50720,"time":66.04166666666666,"type":"noteOn","velocity":50},{"channel":2,"nextOffset":28169,"note":33,"tick":50741,"time":66.06901041666666,"type":"noteOff","velocity":0},{"channel":1,"nextOffset":16625,"note":33,"tick":50749,"time":66.07942708333333,"type":"noteOn","velocity":50},{"channel":9,"nextOffset":24681,"note":35,"tick":50758,"time":66.09114583333333,"type":"noteOff","velocity":0},{"channel":9,"nextOffset":44950,"note":42,"tick":50816,"time":66.16666666666666,"type":"noteOff","velocity":0},{"channel":0,"nextOffset":1290,"note":43,"tick":50825,"time":66.17838541666666,"type":"noteOff","velocity":0},{"channel":0,"nextOffset":1294,"note":44,"tick":50825,"time":66.17838541666666,"type":"noteOn","velocity":68},{"channel":0,"nextOffset":1298,"note":65,"tick":50825,"time":66.17838541666666,"type":"noteOn","velocity":68},{"channel":1,"nextOffset":16629,"note":33,"tick":50845,"time":66.20442708333333,"type":"noteOff","velocity":0},{"channel":0,"nextOffset":1302,"note":65,"tick":50921,"time":66.30338541666666,"type":"noteOff","velocity":0},{"channel":0,"nextOffset":1306,"note":69,"tick":50921,"time":66.30338541666666,"type":"noteOn","velocity":68},{"channel":2,"nextOffset":28174,"note":26,"tick":50933,"time":66.31901041666666,"type":"noteOn","velocity":57},{"channel":9,"nextOffset":20886,"note":35,"tick":50942,"time":66.33072916666666,"type":"noteOn","velocity":50},{"channel":9,"nextOffset":44955,"note":42,"tick":51008,"time":66.41666666666666,"type":"noteOn","velocity":50},{"channel":0,"nextOffset":1310,"note":44,"tick":51017,"time":66.42838541666666,"type":"noteOff","velocity":0},{"channel":0,"nextOffset":1314,"note":69,"tick":51017,"time":66.42838541666666,"type":"noteOff","velocity":0},{"channel":0,"nextOffset":1318,"note":45,"tick":51017,"time":66.42838541666666,"type":"noteOn","velocity":68},{"channel":0,"nextOffset":1322,"note":72,"tick":51017,"time":66.42838541666666,"type":"noteOn","velocity":68},{"channel":0,"nextOffset":1326,"note":67,"tick":51017,"time":66.42838541666666,"type":"noteOn","velocity":68},{"channel":0,"nextOffset":1330,"note":64,"tick":51017,"time":66.42838541666666,"type":"noteOn","velocity":68},{"channel":0,"nextOffset":1334,"note":60,"tick":51017,"time":66.42838541666666,"type":"noteOn","velocity":68},{"channel":1,"nextOffset":16634,"note":26,"tick":51037,"time":66.45442708333333,"type":"noteOn","velocity":50},{"channel":9,"nextOffset":20890,"note":35,"tick":51038,"time":66.45572916666666,"type":"noteOff","velocity":0},{"channel":9,"nextOffset":24686,"note":35,"tick":51046,"time":66.46614583333333,"type":"noteOn","velocity":50},{"channel":9,"nextOffset":44959,"note":42,"tick":51104,"time":66.54166666666666,"type":"noteOff","velocity":0},{"channel":2,"nextOffset":28179,"note":26,"tick":51125,"time":66.56901041666666,"type":"noteOff","velocity":0},{"channel":2,"nextOffset":28183,"note":31,"tick":51125,"time":66.56901041666666,"type":"noteOn","velocity":57},{"channel":9,"nextOffset":24690,"note":35,"tick":51142,"time":66.59114583333333,"type":"noteOff","velocity":0},{"channel":0,"nextOffset":1339,"note":60,"tick":51209,"time":66.67838541666666,"type":"noteOff","velocity":0},{"channel":0,"nextOffset":1343,"note":64,"tick":51209,"time":66.67838541666666,"type":"noteOff","velocity":0},{"channel":0,"nextOffset":1347,"note":67,"tick":51209,"time":66.67838541666666,"type":"noteOff","velocity":0},{"channel":0,"nextOffset":1351,"note":72,"tick":51209,"time":66.67838541666666,"type":"noteOff","velocity":0},{"channel":0,"nextOffset":1355,"note":45,"tick":51209,"time":66.67838541666666,"type":"noteOff","velocity":0},{"channel":1,"nextOffset":16639,"note":26,"tick":51229,"time":66.70442708333333,"type":"noteOff","velocity":0},{"channel":1,"nextOffset":16643,"note":31,"tick":51229,"time":66.70442708333333,"type":"noteOn","velocity":50},{"channel":9,"nextOffset":20895,"note":35,"tick":51230,"time":66.70572916666666,"type":"noteOn","velocity":50},{"channel":9,"nextOffset":44964,"note":42,"tick":51296,"time":66.79166666666666,"type":"noteOn","velocity":50},{"channel":0,"nextOffset":1359,"note":45,"tick":51305,"time":66.80338541666666,"type":"noteOn","velocity":68},{"channel":0,"nextOffset":1363,"note":61,"tick":51305,"time":66.80338541666666,"type":"noteOn","velocity":68},{"channel":0,"nextOffset":1367,"note":65,"tick":51305,"time":66.80338541666666,"type":"noteOn","velocity":68},{"channel":0,"nextOffset":1371,"note":67,"tick":51305,"time":66.80338541666666,"type":"noteOn","velocity":68},{"channel":0,"nextOffset":1375,"note":70,"tick":51305,"time":66.80338541666666,"type":"noteOn","velocity":68},{"channel":2,"nextOffset":28188,"note":31,"tick":51317,"time":66.81901041666666,"type":"noteOff","velocity":0},{"channel":9,"nextOffset":20899,"note":35,"tick":51326,"time":66.83072916666666,"type":"noteOff","velocity":0},{"channel":9,"nextOffset":24695,"note":35,"tick":51334,"time":66.84114583333333,"type":"noteOn","velocity":50},{"channel":9,"nextOffset":44968,"note":42,"tick":51392,"time":66.91666666666666,"type":"noteOff","velocity":0},{"channel":9,"nextOffset":44972,"note":42,"tick":51392,"time":66.91666666666666,"type":"noteOn","velocity":50},{"channel":0,"nextOffset":1379,"note":45,"tick":51401,"time":66.92838541666666,"type":"noteOff","velocity":0},{"channel":9,"nextOffset":44976,"note":42,"tick":51416,"time":66.94791666666666,"type":"noteOff","velocity":0},{"channel":1,"nextOffset":16648,"note":31,"tick":51421,"time":66.95442708333333,"type":"noteOff","velocity":0},{"channel":9,"nextOffset":24699,"note":35,"tick":51430,"time":66.96614583333333,"type":"noteOff","velocity":0},{"channel":9,"nextOffset":44980,"note":42,"tick":51440,"time":66.97916666666666,"type":"noteOn","velocity":50},{"channel":9,"nextOffset":44984,"note":42,"tick":51464,"time":67.01041666666666,"type":"noteOff","velocity":0},{"channel":9,"nextOffset":44988,"note":42,"tick":51488,"time":67.04166666666666,"type":"noteOn","velocity":50},{"channel":0,"nextOffset":1383,"note":70,"tick":51497,"time":67.05338541666666,"type":"noteOff","velocity":0},{"channel":0,"nextOffset":1387,"note":67,"tick":51497,"time":67.05338541666666,"type":"noteOff","velocity":0},{"channel":0,"nextOffset":1391,"note":65,"tick":51497,"time":67.05338541666666,"type":"noteOff","velocity":0},{"channel":0,"nextOffset":1395,"note":61,"tick":51497,"time":67.05338541666666,"type":"noteOff","velocity":0},{"channel":2,"nextOffset":28193,"note":31,"tick":51509,"time":67.06901041666666,"type":"noteOn","velocity":57},{"channel":9,"nextOffset":44992,"note":42,"tick":51512,"time":67.07291666666666,"type":"noteOff","velocity":0},{"channel":9,"nextOffset":20904,"note":35,"tick":51518,"time":67.08072916666666,"type":"noteOn","velocity":50},{"channel":9,"nextOffset":44996,"note":42,"tick":51536,"time":67.10416666666666,"type":"noteOn","velocity":50},{"channel":9,"nextOffset":45000,"note":42,"tick":51560,"time":67.13541666666666,"type":"noteOff","velocity":0},{"channel":9,"nextOffset":45004,"note":42,"tick":51584,"time":67.16666666666666,"type":"noteOn","velocity":50},{"channel":0,"nextOffset":1399,"note":38,"tick":51593,"time":67.17838541666666,"type":"noteOn","velocity":68},{"channel":0,"nextOffset":1403,"note":60,"tick":51593,"time":67.17838541666666,"type":"noteOn","velocity":68},{"channel":0,"nextOffset":1407,"note":64,"tick":51593,"time":67.17838541666666,"type":"noteOn","velocity":68},{"channel":0,"nextOffset":1411,"note":65,"tick":51593,"time":67.17838541666666,"type":"noteOn","velocity":68},{"channel":0,"nextOffset":1415,"note":69,"tick":51593,"time":67.17838541666666,"type":"noteOn","velocity":68},{"channel":9,"nextOffset":45008,"note":42,"tick":51608,"time":67.19791666666666,"type":"noteOff","velocity":0},{"channel":1,"nextOffset":16653,"note":31,"tick":51613,"time":67.20442708333333,"type":"noteOn","velocity":50},{"channel":9,"nextOffset":20908,"note":35,"tick":51614,"time":67.20572916666666,"type":"noteOff","velocity":0},{"channel":9,"nextOffset":24704,"note":35,"tick":51622,"time":67.21614583333333,"type":"noteOn","velocity":50},{"channel":2,"nextOffset":28198,"note":31,"tick":51701,"time":67.31901041666666,"type":"noteOff","velocity":0},{"channel":2,"nextOffset":28202,"note":32,"tick":51701,"time":67.31901041666666,"type":"noteOn","velocity":57},{"channel":9,"nextOffset":20912,"note":35,"tick":51710,"time":67.33072916666666,"type":"noteOn","velocity":50},{"channel":9,"nextOffset":24708,"note":35,"tick":51718,"time":67.34114583333333,"type":"noteOff","velocity":0},{"channel":9,"nextOffset":45013,"note":42,"tick":51776,"time":67.41666666666666,"type":"noteOn","velocity":50},{"channel":0,"nextOffset":1420,"note":69,"tick":51785,"time":67.42838541666666,"type":"noteOff","velocity":0},{"channel":0,"nextOffset":1424,"note":65,"tick":51785,"time":67.42838541666666,"type":"noteOff","velocity":0},{"channel":0,"nextOffset":1428,"note":64,"tick":51785,"time":67.42838541666666,"type":"noteOff","velocity":0},{"channel":0,"nextOffset":1432,"note":60,"tick":51785,"time":67.42838541666666,"type":"noteOff","velocity":0},{"channel":0,"nextOffset":1436,"note":38,"tick":51785,"time":67.42838541666666,"type":"noteOff","velocity":0},{"channel":0,"nextOffset":1440,"note":76,"tick":51785,"time":67.42838541666666,"type":"noteOn","velocity":68},{"channel":0,"nextOffset":1444,"note":50,"tick":51785,"time":67.42838541666666,"type":"noteOn","velocity":68},{"channel":1,"nextOffset":16658,"note":31,"tick":51805,"time":67.45442708333333,"type":"noteOff","velocity":0},{"channel":1,"nextOffset":16662,"note":32,"tick":51805,"time":67.45442708333333,"type":"noteOn","velocity":50},{"channel":9,"nextOffset":20916,"note":35,"tick":51806,"time":67.45572916666666,"type":"noteOff","velocity":0},{"channel":9,"nextOffset":24712,"note":35,"tick":51814,"time":67.46614583333333,"type":"noteOn","velocity":50},{"channel":9,"nextOffset":45017,"note":42,"tick":51872,"time":67.54166666666666,"type":"noteOff","velocity":0},{"channel":9,"nextOffset":45021,"note":42,"tick":51872,"time":67.54166666666666,"type":"noteOn","velocity":50},{"channel":0,"nextOffset":1448,"note":76,"tick":51881,"time":67.55338541666666,"type":"noteOff","velocity":0},{"channel":0,"nextOffset":1452,"note":77,"tick":51881,"time":67.55338541666666,"type":"noteOn","velocity":68},{"channel":2,"nextOffset":28207,"note":32,"tick":51893,"time":67.56901041666666,"type":"noteOff","velocity":0},{"channel":2,"nextOffset":28211,"note":33,"tick":51893,"time":67.56901041666666,"type":"noteOn","velocity":57},{"channel":9,"nextOffset":24716,"note":35,"tick":51910,"time":67.59114583333333,"type":"noteOff","velocity":0},{"channel":9,"nextOffset":45025,"note":42,"tick":51968,"time":67.66666666666666,"type":"noteOff","velocity":0},{"channel":0,"nextOffset":1456,"note":50,"tick":51977,"time":67.67838541666666,"type":"noteOff","velocity":0},{"channel":0,"nextOffset":1460,"note":77,"tick":51977,"time":67.67838541666666,"type":"noteOff","velocity":0},{"channel":0,"nextOffset":1464,"note":79,"tick":51977,"time":67.67838541666666,"type":"noteOn","velocity":68},{"channel":0,"nextOffset":1468,"note":38,"tick":51977,"time":67.67838541666666,"type":"noteOn","velocity":68},{"channel":1,"nextOffset":16667,"note":32,"tick":51997,"time":67.70442708333333,"type":"noteOff","velocity":0},{"channel":1,"nextOffset":16671,"note":33,"tick":51997,"time":67.70442708333333,"type":"noteOn","velocity":50},{"channel":0,"nextOffset":1472,"note":79,"tick":52073,"time":67.80338541666666,"type":"noteOff","velocity":0},{"channel":0,"nextOffset":1476,"note":77,"tick":52073,"time":67.80338541666666,"type":"noteOn","velocity":68},{"channel":2,"nextOffset":28216,"note":33,"tick":52085,"time":67.81901041666666,"type":"noteOff","velocity":0},{"channel":9,"nextOffset":20921,"note":35,"tick":52094,"time":67.83072916666666,"type":"noteOn","velocity":50},{"channel":9,"nextOffset":45030,"note":42,"tick":52160,"time":67.91666666666666,"type":"noteOn","velocity":50},{"channel":0,"nextOffset":1480,"note":38,"tick":52169,"time":67.92838541666666,"type":"noteOff","velocity":0},{"channel":0,"nextOffset":1484,"note":77,"tick":52169,"time":67.92838541666666,"type":"noteOff","velocity":0},{"channel":0,"nextOffset":1488,"note":76,"tick":52169,"time":67.92838541666666,"type":"noteOn","velocity":68},{"channel":0,"nextOffset":1492,"note":45,"tick":52169,"time":67.92838541666666,"type":"noteOn","velocity":68},{"channel":2,"nextOffset":28220,"note":33,"tick":52181,"time":67.94401041666666,"type":"noteOn","velocity":57},{"channel":1,"nextOffset":16676,"note":33,"tick":52189,"time":67.95442708333333,"type":"noteOff","velocity":0},{"channel":9,"nextOffset":20925,"note":35,"tick":52190,"time":67.95572916666666,"type":"noteOff","velocity":0},{"channel":9,"nextOffset":24721,"note":35,"tick":52198,"time":67.96614583333333,"type":"noteOn","velocity":50},{"channel":9,"nextOffset":45034,"note":42,"tick":52256,"time":68.04166666666666,"type":"noteOff","velocity":0},{"channel":9,"nextOffset":45038,"note":42,"tick":52256,"time":68.04166666666666,"type":"noteOn","velocity":50},{"channel":0,"nextOffset":1496,"note":76,"tick":52265,"time":68.05338541666666,"type":"noteOff","velocity":0},{"channel":0,"nextOffset":1500,"note":72,"tick":52265,"time":68.05338541666666,"type":"noteOn","velocity":68},{"channel":2,"nextOffset":28224,"note":33,"tick":52277,"time":68.06901041666666,"type":"noteOff","velocity":0},{"channel":1,"nextOffset":16680,"note":33,"tick":52285,"time":68.07942708333333,"type":"noteOn","velocity":50},{"channel":9,"nextOffset":24725,"note":35,"tick":52294,"time":68.09114583333333,"type":"noteOff","velocity":0},{"channel":9,"nextOffset":45042,"note":42,"tick":52352,"time":68.16666666666666,"type":"noteOff","velocity":0},{"channel":0,"nextOffset":1504,"note":45,"tick":52361,"time":68.17838541666666,"type":"noteOff","velocity":0},{"channel":0,"nextOffset":1508,"note":72,"tick":52361,"time":68.17838541666666,"type":"noteOff","velocity":0},{"channel":0,"nextOffset":1512,"note":69,"tick":52361,"time":68.17838541666666,"type":"noteOn","velocity":68},{"channel":0,"nextOffset":1516,"note":38,"tick":52361,"time":68.17838541666666,"type":"noteOn","velocity":68},{"channel":1,"nextOffset":16684,"note":33,"tick":52381,"time":68.20442708333333,"type":"noteOff","velocity":0},{"channel":0,"nextOffset":1520,"note":69,"tick":52457,"time":68.30338541666666,"type":"noteOff","velocity":0},{"channel":0,"nextOffset":1524,"note":67,"tick":52457,"time":68.30338541666666,"type":"noteOn","velocity":68},{"channel":2,"nextOffset":28229,"note":26,"tick":52469,"time":68.31901041666666,"type":"noteOn","velocity":57},{"channel":9,"nextOffset":20930,"note":35,"tick":52478,"time":68.33072916666666,"type":"noteOn","velocity":50},{"channel":9,"nextOffset":45047,"note":42,"tick":52544,"time":68.41666666666666,"type":"noteOn","velocity":50},{"channel":0,"nextOffset":1528,"note":38,"tick":52553,"time":68.42838541666666,"type":"noteOff","velocity":0},{"channel":0,"nextOffset":1532,"note":67,"tick":52553,"time":68.42838541666666,"type":"noteOff","velocity":0},{"channel":0,"nextOffset":1536,"note":69,"tick":52553,"time":68.42838541666666,"type":"noteOn","velocity":68},{"channel":0,"nextOffset":1540,"note":50,"tick":52553,"time":68.42838541666666,"type":"noteOn","velocity":68},{"channel":1,"nextOffset":16689,"note":26,"tick":52573,"time":68.45442708333333,"type":"noteOn","velocity":50},{"channel":9,"nextOffset":20934,"note":35,"tick":52574,"time":68.45572916666666,"type":"noteOff","velocity":0},{"channel":9,"nextOffset":24730,"note":35,"tick":52582,"time":68.46614583333333,"type":"noteOn","velocity":50},{"channel":9,"nextOffset":45051,"note":42,"tick":52640,"time":68.54166666666666,"type":"noteOff","velocity":0},{"channel":0,"nextOffset":1544,"note":69,"tick":52649,"time":68.55338541666666,"type":"noteOff","velocity":0},{"channel":0,"nextOffset":1548,"note":62,"tick":52649,"time":68.55338541666666,"type":"noteOn","velocity":68},{"channel":2,"nextOffset":28234,"note":26,"tick":52661,"time":68.56901041666666,"type":"noteOff","velocity":0},{"channel":9,"nextOffset":24734,"note":35,"tick":52678,"time":68.59114583333333,"type":"noteOff","velocity":0},{"channel":0,"nextOffset":1552,"note":50,"tick":52745,"time":68.67838541666666,"type":"noteOff","velocity":0},{"channel":0,"nextOffset":1556,"note":62,"tick":52745,"time":68.67838541666666,"type":"noteOff","velocity":0},{"channel":0,"nextOffset":1560,"note":60,"tick":52745,"time":68.67838541666666,"type":"noteOn","velocity":68},{"channel":0,"nextOffset":1564,"note":38,"tick":52745,"time":68.67838541666666,"type":"noteOn","velocity":68},{"channel":1,"nextOffset":16694,"note":26,"tick":52765,"time":68.70442708333333,"type":"noteOff","velocity":0},{"channel":9,"nextOffset":20939,"note":35,"tick":52766,"time":68.70572916666666,"type":"noteOn","velocity":50},{"channel":9,"nextOffset":45056,"note":42,"tick":52832,"time":68.79166666666666,"type":"noteOn","velocity":50},{"channel":0,"nextOffset":1568,"note":60,"tick":52841,"time":68.80338541666666,"type":"noteOff","velocity":0},{"channel":0,"nextOffset":1572,"note":65,"tick":52841,"time":68.80338541666666,"type":"noteOn","velocity":68},{"channel":2,"nextOffset":28239,"note":38,"tick":52853,"time":68.81901041666666,"type":"noteOn","velocity":57},{"channel":9,"nextOffset":20943,"note":35,"tick":52862,"time":68.83072916666666,"type":"noteOff","velocity":0},{"channel":9,"nextOffset":24739,"note":35,"tick":52870,"time":68.84114583333333,"type":"noteOn","velocity":50},{"channel":9,"nextOffset":45060,"note":42,"tick":52928,"time":68.91666666666666,"type":"noteOff","velocity":0},{"channel":9,"nextOffset":45064,"note":42,"tick":52928,"time":68.91666666666666,"type":"noteOn","velocity":50},{"channel":0,"nextOffset":1576,"note":38,"tick":52937,"time":68.92838541666666,"type":"noteOff","velocity":0},{"channel":0,"nextOffset":1580,"note":65,"tick":52937,"time":68.92838541666666,"type":"noteOff","velocity":0},{"channel":0,"nextOffset":1584,"note":45,"tick":52937,"time":68.92838541666666,"type":"noteOn","velocity":68},{"channel":0,"nextOffset":1588,"note":64,"tick":52937,"time":68.92838541666666,"type":"noteOn","velocity":68},{"channel":0,"nextOffset":1592,"note":60,"tick":52937,"time":68.92838541666666,"type":"noteOn","velocity":68},{"channel":0,"nextOffset":1596,"note":69,"tick":52937,"time":68.92838541666666,"type":"noteOn","velocity":68},{"channel":9,"nextOffset":45068,"note":42,"tick":52952,"time":68.94791666666666,"type":"noteOff","velocity":0},{"channel":1,"nextOffset":16699,"note":38,"tick":52957,"time":68.95442708333333,"type":"noteOn","velocity":50},{"channel":9,"nextOffset":24743,"note":35,"tick":52966,"time":68.96614583333333,"type":"noteOff","velocity":0},{"channel":9,"nextOffset":45072,"note":42,"tick":52976,"time":68.97916666666666,"type":"noteOn","velocity":50},{"channel":9,"nextOffset":45076,"note":42,"tick":53000,"time":69.01041666666666,"type":"noteOff","velocity":0},{"channel":9,"nextOffset":45080,"note":42,"tick":53024,"time":69.04166666666666,"type":"noteOn","velocity":50},{"channel":2,"nextOffset":28244,"note":38,"tick":53045,"time":69.06901041666666,"type":"noteOff","velocity":0},{"channel":2,"nextOffset":28248,"note":26,"tick":53045,"time":69.06901041666666,"type":"noteOn","velocity":57},{"channel":9,"nextOffset":45084,"note":42,"tick":53048,"time":69.07291666666666,"type":"noteOff","velocity":0},{"channel":9,"nextOffset":20948,"note":35,"tick":53054,"time":69.08072916666666,"type":"noteOn","velocity":50},{"channel":9,"nextOffset":45088,"note":42,"tick":53072,"time":69.10416666666666,"type":"noteOn","velocity":50},{"channel":9,"nextOffset":45092,"note":42,"tick":53096,"time":69.13541666666666,"type":"noteOff","velocity":0},{"channel":9,"nextOffset":45096,"note":42,"tick":53120,"time":69.16666666666666,"type":"noteOn","velocity":50},{"channel":0,"nextOffset":1601,"note":69,"tick":53129,"time":69.17838541666666,"type":"noteOff","velocity":0},{"channel":0,"nextOffset":1605,"note":60,"tick":53129,"time":69.17838541666666,"type":"noteOff","velocity":0},{"channel":0,"nextOffset":1609,"note":64,"tick":53129,"time":69.17838541666666,"type":"noteOff","velocity":0},{"channel":0,"nextOffset":1613,"note":45,"tick":53129,"time":69.17838541666666,"type":"noteOff","velocity":0},{"channel":0,"nextOffset":1617,"note":59,"tick":53129,"time":69.17838541666666,"type":"noteOn","velocity":68},{"channel":0,"nextOffset":1621,"note":63,"tick":53129,"time":69.17838541666666,"type":"noteOn","velocity":68},{"channel":0,"nextOffset":1625,"note":68,"tick":53129,"time":69.17838541666666,"type":"noteOn","velocity":68},{"channel":0,"nextOffset":1629,"note":44,"tick":53129,"time":69.17838541666666,"type":"noteOn","velocity":68},{"channel":9,"nextOffset":45100,"note":42,"tick":53144,"time":69.19791666666666,"type":"noteOff","velocity":0},{"channel":1,"nextOffset":16704,"note":38,"tick":53149,"time":69.20442708333333,"type":"noteOff","velocity":0},{"channel":1,"nextOffset":16708,"note":26,"tick":53149,"time":69.20442708333333,"type":"noteOn","velocity":50},{"channel":9,"nextOffset":20952,"note":35,"tick":53150,"time":69.20572916666666,"type":"noteOff","velocity":0},{"channel":9,"nextOffset":24748,"note":35,"tick":53158,"time":69.21614583333333,"type":"noteOn","velocity":50},{"channel":2,"nextOffset":28253,"note":26,"tick":53237,"time":69.31901041666666,"type":"noteOff","velocity":0},{"channel":2,"nextOffset":28257,"note":33,"tick":53237,"time":69.31901041666666,"type":"noteOn","velocity":57},{"channel":9,"nextOffset":20956,"note":35,"tick":53246,"time":69.33072916666666,"type":"noteOn","velocity":50},{"channel":9,"nextOffset":24752,"note":35,"tick":53254,"time":69.34114583333333,"type":"noteOff","velocity":0},{"channel":9,"nextOffset":45105,"note":42,"tick":53312,"time":69.41666666666666,"type":"noteOn","velocity":50},{"channel":0,"nextOffset":1634,"note":44,"tick":53321,"time":69.42838541666666,"type":"noteOff","velocity":0},{"channel":0,"nextOffset":1638,"note":68,"tick":53321,"time":69.42838541666666,"type":"noteOff","velocity":0},{"channel":0,"nextOffset":1642,"note":63,"tick":53321,"time":69.42838541666666,"type":"noteOff","velocity":0},{"channel":0,"nextOffset":1646,"note":59,"tick":53321,"time":69.42838541666666,"type":"noteOff","velocity":0},{"channel":0,"nextOffset":1650,"note":43,"tick":53321,"time":69.42838541666666,"type":"noteOn","velocity":68},{"channel":0,"nextOffset":1654,"note":58,"tick":53321,"time":69.42838541666666,"type":"noteOn","velocity":68},{"channel":0,"nextOffset":1658,"note":62,"tick":53321,"time":69.42838541666666,"type":"noteOn","velocity":68},{"channel":0,"nextOffset":1662,"note":65,"tick":53321,"time":69.42838541666666,"type":"noteOn","velocity":68},{"channel":0,"nextOffset":1666,"note":69,"tick":53321,"time":69.42838541666666,"type":"noteOn","velocity":68},{"channel":1,"nextOffset":16713,"note":26,"tick":53341,"time":69.45442708333333,"type":"noteOff","velocity":0},{"channel":1,"nextOffset":16717,"note":33,"tick":53341,"time":69.45442708333333,"type":"noteOn","velocity":50},{"channel":9,"nextOffset":20960,"note":35,"tick":53342,"time":69.45572916666666,"type":"noteOff","velocity":0},{"channel":9,"nextOffset":24756,"note":35,"tick":53350,"time":69.46614583333333,"type":"noteOn","velocity":50},{"channel":9,"nextOffset":45109,"note":42,"tick":53408,"time":69.54166666666666,"type":"noteOff","velocity":0},{"channel":9,"nextOffset":23227,"note":42,"tick":53416,"time":69.55208333333333,"type":"noteOn","velocity":50},{"channel":2,"nextOffset":28262,"note":33,"tick":53429,"time":69.56901041666666,"type":"noteOff","velocity":0},{"channel":9,"nextOffset":24760,"note":35,"tick":53446,"time":69.59114583333333,"type":"noteOff","velocity":0},{"channel":9,"nextOffset":23231,"note":42,"tick":53512,"time":69.67708333333333,"type":"noteOff","velocity":0},{"channel":0,"nextOffset":1671,"note":43,"tick":53513,"time":69.67838541666666,"type":"noteOff","velocity":0},{"channel":0,"nextOffset":1675,"note":50,"tick":53513,"time":69.67838541666666,"type":"noteOn","velocity":68},{"channel":1,"nextOffset":16722,"note":33,"tick":53533,"time":69.70442708333333,"type":"noteOff","velocity":0},{"channel":2,"nextOffset":28267,"note":26,"tick":53621,"time":69.81901041666666,"type":"noteOn","velocity":57},{"channel":9,"nextOffset":20965,"note":35,"tick":53630,"time":69.83072916666666,"type":"noteOn","velocity":50},{"channel":9,"nextOffset":45114,"note":42,"tick":53696,"time":69.91666666666666,"type":"noteOn","velocity":50},{"channel":0,"nextOffset":1680,"note":69,"tick":53705,"time":69.92838541666666,"type":"noteOff","velocity":0},{"channel":0,"nextOffset":1684,"note":65,"tick":53705,"time":69.92838541666666,"type":"noteOff","velocity":0},{"channel":0,"nextOffset":1688,"note":62,"tick":53705,"time":69.92838541666666,"type":"noteOff","velocity":0},{"channel":0,"nextOffset":1692,"note":58,"tick":53705,"time":69.92838541666666,"type":"noteOff","velocity":0},{"channel":0,"nextOffset":1696,"note":50,"tick":53705,"time":69.92838541666666,"type":"noteOff","velocity":0},{"channel":0,"nextOffset":1700,"note":43,"tick":53705,"time":69.92838541666666,"type":"noteOn","velocity":68},{"channel":1,"nextOffset":16727,"note":26,"tick":53725,"time":69.95442708333333,"type":"noteOn","velocity":50},{"channel":9,"nextOffset":20969,"note":35,"tick":53726,"time":69.95572916666666,"type":"noteOff","velocity":0},{"channel":9,"nextOffset":24765,"note":35,"tick":53734,"time":69.96614583333333,"type":"noteOn","velocity":50},{"channel":9,"nextOffset":45118,"note":42,"tick":53792,"time":70.04166666666666,"type":"noteOff","velocity":0},{"channel":9,"nextOffset":23236,"note":42,"tick":53800,"time":70.05208333333333,"type":"noteOn","velocity":50},{"channel":2,"nextOffset":28272,"note":26,"tick":53813,"time":70.06901041666666,"type":"noteOff","velocity":0},{"channel":2,"nextOffset":28276,"note":33,"tick":53813,"time":70.06901041666666,"type":"noteOn","velocity":57},{"channel":9,"nextOffset":24769,"note":35,"tick":53830,"time":70.09114583333333,"type":"noteOff","velocity":0},{"channel":9,"nextOffset":23240,"note":42,"tick":53896,"time":70.17708333333333,"type":"noteOff","velocity":0},{"channel":0,"nextOffset":1705,"note":43,"tick":53897,"time":70.17838541666666,"type":"noteOff","velocity":0},{"channel":0,"nextOffset":1709,"note":44,"tick":53897,"time":70.17838541666666,"type":"noteOn","velocity":68},{"channel":0,"nextOffset":1713,"note":65,"tick":53897,"time":70.17838541666666,"type":"noteOn","velocity":68},{"channel":1,"nextOffset":16732,"note":26,"tick":53917,"time":70.20442708333333,"type":"noteOff","velocity":0},{"channel":1,"nextOffset":16736,"note":33,"tick":53917,"time":70.20442708333333,"type":"noteOn","velocity":50},{"channel":10,"nextOffset":41487,"note":86,"tick":53953,"time":70.25130208333333,"type":"noteOn","velocity":50},{"channel":0,"nextOffset":1717,"note":65,"tick":53993,"time":70.30338541666666,"type":"noteOff","velocity":0},{"channel":0,"nextOffset":1721,"note":69,"tick":53993,"time":70.30338541666666,"type":"noteOn","velocity":68},{"channel":2,"nextOffset":28281,"note":33,"tick":54005,"time":70.31901041666666,"type":"noteOff","velocity":0},{"channel":2,"nextOffset":28285,"note":32,"tick":54005,"time":70.31901041666666,"type":"noteOn","velocity":57},{"channel":9,"nextOffset":20974,"note":35,"tick":54014,"time":70.33072916666666,"type":"noteOn","velocity":50},{"channel":10,"nextOffset":41491,"note":86,"tick":54049,"time":70.37630208333333,"type":"noteOff","velocity":0},{"channel":10,"nextOffset":41495,"note":89,"tick":54049,"time":70.37630208333333,"type":"noteOn","velocity":50},{"channel":9,"nextOffset":45123,"note":42,"tick":54080,"time":70.41666666666666,"type":"noteOn","velocity":50},{"channel":0,"nextOffset":1725,"note":44,"tick":54089,"time":70.42838541666666,"type":"noteOff","velocity":0},{"channel":0,"nextOffset":1729,"note":69,"tick":54089,"time":70.42838541666666,"type":"noteOff","velocity":0},{"channel":0,"nextOffset":1733,"note":45,"tick":54089,"time":70.42838541666666,"type":"noteOn","velocity":68},{"channel":0,"nextOffset":1737,"note":72,"tick":54089,"time":70.42838541666666,"type":"noteOn","velocity":68},{"channel":0,"nextOffset":1741,"note":67,"tick":54089,"time":70.42838541666666,"type":"noteOn","velocity":68},{"channel":0,"nextOffset":1745,"note":64,"tick":54089,"time":70.42838541666666,"type":"noteOn","velocity":68},{"channel":0,"nextOffset":1749,"note":60,"tick":54089,"time":70.42838541666666,"type":"noteOn","velocity":68},{"channel":1,"nextOffset":16741,"note":33,"tick":54109,"time":70.45442708333333,"type":"noteOff","velocity":0},{"channel":1,"nextOffset":16745,"note":32,"tick":54109,"time":70.45442708333333,"type":"noteOn","velocity":50},{"channel":9,"nextOffset":20978,"note":35,"tick":54110,"time":70.45572916666666,"type":"noteOff","velocity":0},{"channel":9,"nextOffset":24774,"note":35,"tick":54118,"time":70.46614583333333,"type":"noteOn","velocity":50},{"channel":10,"nextOffset":41499,"note":89,"tick":54145,"time":70.50130208333333,"type":"noteOff","velocity":0},{"channel":10,"nextOffset":41503,"note":91,"tick":54145,"time":70.50130208333333,"type":"noteOn","velocity":50},{"channel":9,"nextOffset":45127,"note":42,"tick":54176,"time":70.54166666666666,"type":"noteOff","velocity":0},{"channel":9,"nextOffset":23245,"note":42,"tick":54184,"time":70.55208333333333,"type":"noteOn","velocity":50},{"channel":2,"nextOffset":28290,"note":32,"tick":54197,"time":70.56901041666666,"type":"noteOff","velocity":0},{"channel":2,"nextOffset":28294,"note":31,"tick":54197,"time":70.56901041666666,"type":"noteOn","velocity":57},{"channel":9,"nextOffset":24778,"note":35,"tick":54214,"time":70.59114583333333,"type":"noteOff","velocity":0},{"channel":10,"nextOffset":41507,"note":91,"tick":54241,"time":70.62630208333333,"type":"noteOff","velocity":0},{"channel":9,"nextOffset":23249,"note":42,"tick":54280,"time":70.67708333333333,"type":"noteOff","velocity":0},{"channel":0,"nextOffset":1754,"note":60,"tick":54281,"time":70.67838541666666,"type":"noteOff","velocity":0},{"channel":0,"nextOffset":1758,"note":64,"tick":54281,"time":70.67838541666666,"type":"noteOff","velocity":0},{"channel":0,"nextOffset":1762,"note":67,"tick":54281,"time":70.67838541666666,"type":"noteOff","velocity":0},{"channel":0,"nextOffset":1766,"note":72,"tick":54281,"time":70.67838541666666,"type":"noteOff","velocity":0},{"channel":0,"nextOffset":1770,"note":45,"tick":54281,"time":70.67838541666666,"type":"noteOff","velocity":0},{"channel":1,"nextOffset":16750,"note":32,"tick":54301,"time":70.70442708333333,"type":"noteOff","velocity":0},{"channel":1,"nextOffset":16754,"note":31,"tick":54301,"time":70.70442708333333,"type":"noteOn","velocity":50},{"channel":9,"nextOffset":20983,"note":35,"tick":54302,"time":70.70572916666666,"type":"noteOn","velocity":50},{"channel":10,"nextOffset":41511,"note":93,"tick":54337,"time":70.75130208333333,"type":"noteOn","velocity":50},{"channel":9,"nextOffset":45132,"note":42,"tick":54368,"time":70.79166666666666,"type":"noteOn","velocity":50},{"channel":0,"nextOffset":1774,"note":45,"tick":54377,"time":70.80338541666666,"type":"noteOn","velocity":68},{"channel":0,"nextOffset":1778,"note":61,"tick":54377,"time":70.80338541666666,"type":"noteOn","velocity":68},{"channel":0,"nextOffset":1782,"note":65,"tick":54377,"time":70.80338541666666,"type":"noteOn","velocity":68},{"channel":0,"nextOffset":1786,"note":67,"tick":54377,"time":70.80338541666666,"type":"noteOn","velocity":68},{"channel":0,"nextOffset":1790,"note":70,"tick":54377,"time":70.80338541666666,"type":"noteOn","velocity":68},{"channel":2,"nextOffset":28299,"note":31,"tick":54389,"time":70.81901041666666,"type":"noteOff","velocity":0},{"channel":9,"nextOffset":20987,"note":35,"tick":54398,"time":70.83072916666666,"type":"noteOff","velocity":0},{"channel":9,"nextOffset":24783,"note":35,"tick":54406,"time":70.84114583333333,"type":"noteOn","velocity":50},{"channel":10,"nextOffset":41515,"note":93,"tick":54433,"time":70.87630208333333,"type":"noteOff","velocity":0},{"channel":9,"nextOffset":45136,"note":42,"tick":54464,"time":70.91666666666666,"type":"noteOff","velocity":0},{"channel":9,"nextOffset":23254,"note":42,"tick":54472,"time":70.92708333333333,"type":"noteOn","velocity":50},{"channel":0,"nextOffset":1794,"note":45,"tick":54473,"time":70.92838541666666,"type":"noteOff","velocity":0},{"channel":1,"nextOffset":16759,"note":31,"tick":54493,"time":70.95442708333333,"type":"noteOff","velocity":0},{"channel":9,"nextOffset":24787,"note":35,"tick":54502,"time":70.96614583333333,"type":"noteOff","velocity":0},{"channel":10,"nextOffset":41519,"note":95,"tick":54529,"time":71.00130208333333,"type":"noteOn","velocity":50},{"channel":9,"nextOffset":23258,"note":42,"tick":54568,"time":71.05208333333333,"type":"noteOff","velocity":0},{"channel":0,"nextOffset":1798,"note":70,"tick":54569,"time":71.05338541666666,"type":"noteOff","velocity":0},{"channel":0,"nextOffset":1802,"note":67,"tick":54569,"time":71.05338541666666,"type":"noteOff","velocity":0},{"channel":0,"nextOffset":1806,"note":65,"tick":54569,"time":71.05338541666666,"type":"noteOff","velocity":0},{"channel":0,"nextOffset":1810,"note":61,"tick":54569,"time":71.05338541666666,"type":"noteOff","velocity":0},{"channel":2,"nextOffset":28304,"note":31,"tick":54581,"time":71.06901041666666,"type":"noteOn","velocity":57},{"channel":9,"nextOffset":20992,"note":35,"tick":54590,"time":71.08072916666666,"type":"noteOn","velocity":50},{"channel":10,"nextOffset":41523,"note":95,"tick":54625,"time":71.12630208333333,"type":"noteOff","velocity":0},{"channel":0,"nextOffset":1814,"note":38,"tick":54665,"time":71.17838541666666,"type":"noteOn","velocity":68},{"channel":0,"nextOffset":1818,"note":60,"tick":54665,"time":71.17838541666666,"type":"noteOn","velocity":68},{"channel":0,"nextOffset":1822,"note":64,"tick":54665,"time":71.17838541666666,"type":"noteOn","velocity":68},{"channel":0,"nextOffset":1826,"note":65,"tick":54665,"time":71.17838541666666,"type":"noteOn","velocity":68},{"channel":0,"nextOffset":1830,"note":69,"tick":54665,"time":71.17838541666666,"type":"noteOn","velocity":68},{"channel":1,"nextOffset":16764,"note":31,"tick":54685,"time":71.20442708333333,"type":"noteOn","velocity":50},{"channel":9,"nextOffset":20996,"note":35,"tick":54686,"time":71.20572916666666,"type":"noteOff","velocity":0},{"channel":9,"nextOffset":24792,"note":35,"tick":54694,"time":71.21614583333333,"type":"noteOn","velocity":50},{"channel":10,"nextOffset":41527,"note":94,"tick":54721,"time":71.25130208333333,"type":"noteOn","velocity":50},{"channel":2,"nextOffset":28309,"note":31,"tick":54773,"time":71.31901041666666,"type":"noteOff","velocity":0},{"channel":2,"nextOffset":28313,"note":32,"tick":54773,"time":71.31901041666666,"type":"noteOn","velocity":57},{"channel":9,"nextOffset":21000,"note":35,"tick":54782,"time":71.33072916666666,"type":"noteOn","velocity":50},{"channel":9,"nextOffset":24796,"note":35,"tick":54790,"time":71.34114583333333,"type":"noteOff","velocity":0},{"channel":10,"nextOffset":41531,"note":94,"tick":54817,"time":71.37630208333333,"type":"noteOff","velocity":0},{"channel":9,"nextOffset":45141,"note":42,"tick":54848,"time":71.41666666666666,"type":"noteOn","velocity":50},{"channel":0,"nextOffset":1835,"note":69,"tick":54857,"time":71.42838541666666,"type":"noteOff","velocity":0},{"channel":0,"nextOffset":1839,"note":65,"tick":54857,"time":71.42838541666666,"type":"noteOff","velocity":0},{"channel":0,"nextOffset":1843,"note":64,"tick":54857,"time":71.42838541666666,"type":"noteOff","velocity":0},{"channel":0,"nextOffset":1847,"note":60,"tick":54857,"time":71.42838541666666,"type":"noteOff","velocity":0},{"channel":0,"nextOffset":1851,"note":38,"tick":54857,"time":71.42838541666666,"type":"noteOff","velocity":0},{"channel":0,"nextOffset":1855,"note":76,"tick":54857,"time":71.42838541666666,"type":"noteOn","velocity":68},{"channel":1,"nextOffset":16769,"note":31,"tick":54877,"time":71.45442708333333,"type":"noteOff","velocity":0},{"channel":1,"nextOffset":16773,"note":32,"tick":54877,"time":71.45442708333333,"type":"noteOn","velocity":50},{"channel":9,"nextOffset":21004,"note":35,"tick":54878,"time":71.45572916666666,"type":"noteOff","velocity":0},{"channel":9,"nextOffset":24800,"note":35,"tick":54886,"time":71.46614583333333,"type":"noteOn","velocity":50},{"channel":10,"nextOffset":41535,"note":93,"tick":54913,"time":71.50130208333333,"type":"noteOn","velocity":50},{"channel":9,"nextOffset":45145,"note":42,"tick":54944,"time":71.54166666666666,"type":"noteOff","velocity":0},{"channel":9,"nextOffset":23263,"note":42,"tick":54952,"time":71.55208333333333,"type":"noteOn","velocity":50},{"channel":0,"nextOffset":1859,"note":76,"tick":54953,"time":71.55338541666666,"type":"noteOff","velocity":0},{"channel":0,"nextOffset":1863,"note":77,"tick":54953,"time":71.55338541666666,"type":"noteOn","velocity":68},{"channel":2,"nextOffset":28318,"note":32,"tick":54965,"time":71.56901041666666,"type":"noteOff","velocity":0},{"channel":2,"nextOffset":28322,"note":33,"tick":54965,"time":71.56901041666666,"type":"noteOn","velocity":57},{"channel":2,"nextOffset":28326,"note":33,"tick":54965,"time":71.56901041666666,"type":"noteOn","velocity":57},{"channel":9,"nextOffset":24804,"note":35,"tick":54982,"time":71.59114583333333,"type":"noteOff","velocity":0},{"channel":10,"nextOffset":41539,"note":93,"tick":55009,"time":71.62630208333333,"type":"noteOff","velocity":0},{"channel":9,"nextOffset":23267,"note":42,"tick":55048,"time":71.67708333333333,"type":"noteOff","velocity":0},{"channel":0,"nextOffset":1867,"note":77,"tick":55049,"time":71.67838541666666,"type":"noteOff","velocity":0},{"channel":0,"nextOffset":1871,"note":76,"tick":55049,"time":71.67838541666666,"type":"noteOn","velocity":68},{"channel":0,"nextOffset":1875,"note":50,"tick":55049,"time":71.67838541666666,"type":"noteOn","velocity":68},{"channel":1,"nextOffset":16778,"note":32,"tick":55069,"time":71.70442708333333,"type":"noteOff","velocity":0},{"channel":1,"nextOffset":16782,"note":33,"tick":55069,"time":71.70442708333333,"type":"noteOn","velocity":50},{"channel":1,"nextOffset":16786,"note":33,"tick":55069,"time":71.70442708333333,"type":"noteOn","velocity":50},{"channel":10,"nextOffset":41543,"note":92,"tick":55105,"time":71.75130208333333,"type":"noteOn","velocity":50},{"channel":0,"nextOffset":1879,"note":76,"tick":55145,"time":71.80338541666666,"type":"noteOff","velocity":0},{"channel":0,"nextOffset":1883,"note":72,"tick":55145,"time":71.80338541666666,"type":"noteOn","velocity":68},{"channel":2,"nextOffset":28331,"note":33,"tick":55157,"time":71.81901041666666,"type":"noteOff","velocity":0},{"channel":2,"nextOffset":28335,"note":33,"tick":55157,"time":71.81901041666666,"type":"noteOff","velocity":0},{"channel":9,"nextOffset":21009,"note":35,"tick":55166,"time":71.83072916666666,"type":"noteOn","velocity":50},{"channel":10,"nextOffset":41547,"note":92,"tick":55201,"time":71.87630208333333,"type":"noteOff","velocity":0},{"channel":9,"nextOffset":45150,"note":42,"tick":55232,"time":71.91666666666666,"type":"noteOn","velocity":50},{"channel":0,"nextOffset":1887,"note":50,"tick":55241,"time":71.92838541666666,"type":"noteOff","velocity":0},{"channel":0,"nextOffset":1891,"note":72,"tick":55241,"time":71.92838541666666,"type":"noteOff","velocity":0},{"channel":0,"nextOffset":1895,"note":76,"tick":55241,"time":71.92838541666666,"type":"noteOn","velocity":68},{"channel":0,"nextOffset":1899,"note":38,"tick":55241,"time":71.92838541666666,"type":"noteOn","velocity":68},{"channel":2,"nextOffset":28339,"note":33,"tick":55253,"time":71.94401041666666,"type":"noteOn","velocity":57},{"channel":1,"nextOffset":16791,"note":33,"tick":55261,"time":71.95442708333333,"type":"noteOff","velocity":0},{"channel":1,"nextOffset":16795,"note":33,"tick":55261,"time":71.95442708333333,"type":"noteOff","velocity":0},{"channel":9,"nextOffset":21013,"note":35,"tick":55262,"time":71.95572916666666,"type":"noteOff","velocity":0},{"channel":9,"nextOffset":24809,"note":35,"tick":55270,"time":71.96614583333333,"type":"noteOn","velocity":50},{"channel":9,"nextOffset":45154,"note":42,"tick":55328,"time":72.04166666666666,"type":"noteOff","velocity":0},{"channel":9,"nextOffset":23272,"note":42,"tick":55336,"time":72.05208333333333,"type":"noteOn","velocity":50},{"channel":0,"nextOffset":1903,"note":76,"tick":55337,"time":72.05338541666666,"type":"noteOff","velocity":0},{"channel":0,"nextOffset":1907,"note":72,"tick":55337,"time":72.05338541666666,"type":"noteOn","velocity":68},{"channel":2,"nextOffset":28343,"note":33,"tick":55349,"time":72.06901041666666,"type":"noteOff","velocity":0},{"channel":1,"nextOffset":16799,"note":33,"tick":55357,"time":72.07942708333333,"type":"noteOn","velocity":50},{"channel":9,"nextOffset":24813,"note":35,"tick":55366,"time":72.09114583333333,"type":"noteOff","velocity":0},{"channel":9,"nextOffset":23276,"note":42,"tick":55432,"time":72.17708333333333,"type":"noteOff","velocity":0},{"channel":0,"nextOffset":1911,"note":38,"tick":55433,"time":72.17838541666666,"type":"noteOff","velocity":0},{"channel":0,"nextOffset":1915,"note":72,"tick":55433,"time":72.17838541666666,"type":"noteOff","velocity":0},{"channel":0,"nextOffset":1919,"note":69,"tick":55433,"time":72.17838541666666,"type":"noteOn","velocity":68},{"channel":0,"nextOffset":1923,"note":45,"tick":55433,"time":72.17838541666666,"type":"noteOn","velocity":68},{"channel":1,"nextOffset":16803,"note":33,"tick":55453,"time":72.20442708333333,"type":"noteOff","velocity":0},{"channel":9,"nextOffset":24817,"note":42,"tick":55462,"time":72.21614583333333,"type":"noteOn","velocity":50},{"channel":0,"nextOffset":1927,"note":69,"tick":55529,"time":72.30338541666666,"type":"noteOff","velocity":0},{"channel":0,"nextOffset":1931,"note":67,"tick":55529,"time":72.30338541666666,"type":"noteOn","velocity":68},{"channel":2,"nextOffset":28348,"note":26,"tick":55541,"time":72.31901041666666,"type":"noteOn","velocity":57},{"channel":9,"nextOffset":21018,"note":35,"tick":55550,"time":72.33072916666666,"type":"noteOn","velocity":50},{"channel":9,"nextOffset":24821,"note":42,"tick":55558,"time":72.34114583333333,"type":"noteOff","velocity":0},{"channel":9,"nextOffset":45159,"note":42,"tick":55616,"time":72.41666666666666,"type":"noteOn","velocity":50},{"channel":0,"nextOffset":1935,"note":45,"tick":55625,"time":72.42838541666666,"type":"noteOff","velocity":0},{"channel":0,"nextOffset":1939,"note":67,"tick":55625,"time":72.42838541666666,"type":"noteOff","velocity":0},{"channel":0,"nextOffset":1943,"note":69,"tick":55625,"time":72.42838541666666,"type":"noteOn","velocity":68},{"channel":0,"nextOffset":1947,"note":50,"tick":55625,"time":72.42838541666666,"type":"noteOn","velocity":68},{"channel":1,"nextOffset":16808,"note":26,"tick":55645,"time":72.45442708333333,"type":"noteOn","velocity":50},{"channel":9,"nextOffset":21022,"note":35,"tick":55646,"time":72.45572916666666,"type":"noteOff","velocity":0},{"channel":9,"nextOffset":24825,"note":35,"tick":55654,"time":72.46614583333333,"type":"noteOn","velocity":50},{"channel":9,"nextOffset":45163,"note":42,"tick":55712,"time":72.54166666666666,"type":"noteOff","velocity":0},{"channel":9,"nextOffset":23281,"note":42,"tick":55720,"time":72.55208333333333,"type":"noteOn","velocity":50},{"channel":0,"nextOffset":1951,"note":69,"tick":55721,"time":72.55338541666666,"type":"noteOff","velocity":0},{"channel":0,"nextOffset":1955,"note":62,"tick":55721,"time":72.55338541666666,"type":"noteOn","velocity":68},{"channel":2,"nextOffset":28353,"note":26,"tick":55733,"time":72.56901041666666,"type":"noteOff","velocity":0},{"channel":9,"nextOffset":24829,"note":35,"tick":55750,"time":72.59114583333333,"type":"noteOff","velocity":0},{"channel":9,"nextOffset":32843,"note":42,"tick":55776,"time":72.62499999999999,"type":"noteOn","velocity":50},{"channel":9,"nextOffset":23285,"note":42,"tick":55816,"time":72.67708333333333,"type":"noteOff","velocity":0},{"channel":0,"nextOffset":1959,"note":50,"tick":55817,"time":72.67838541666666,"type":"noteOff","velocity":0},{"channel":0,"nextOffset":1963,"note":62,"tick":55817,"time":72.67838541666666,"type":"noteOff","velocity":0},{"channel":0,"nextOffset":1967,"note":60,"tick":55817,"time":72.67838541666666,"type":"noteOn","velocity":68},{"channel":0,"nextOffset":1971,"note":38,"tick":55817,"time":72.67838541666666,"type":"noteOn","velocity":68},{"channel":1,"nextOffset":16813,"note":26,"tick":55837,"time":72.70442708333333,"type":"noteOff","velocity":0},{"channel":9,"nextOffset":21027,"note":35,"tick":55838,"time":72.70572916666666,"type":"noteOn","velocity":50},{"channel":9,"nextOffset":32847,"note":42,"tick":55872,"time":72.74999999999999,"type":"noteOff","velocity":0},{"channel":9,"nextOffset":32851,"note":42,"tick":55872,"time":72.74999999999999,"type":"noteOn","velocity":50},{"channel":9,"nextOffset":45168,"note":42,"tick":55904,"time":72.79166666666666,"type":"noteOn","velocity":50},{"channel":0,"nextOffset":1975,"note":60,"tick":55913,"time":72.80338541666666,"type":"noteOff","velocity":0},{"channel":0,"nextOffset":1979,"note":65,"tick":55913,"time":72.80338541666666,"type":"noteOn","velocity":68},{"channel":2,"nextOffset":28358,"note":26,"tick":55925,"time":72.81901041666666,"type":"noteOn","velocity":57},{"channel":9,"nextOffset":21031,"note":35,"tick":55934,"time":72.83072916666666,"type":"noteOff","velocity":0},{"channel":9,"nextOffset":24834,"note":35,"tick":55942,"time":72.84114583333333,"type":"noteOn","velocity":50},{"channel":9,"nextOffset":32855,"note":42,"tick":55968,"time":72.87499999999999,"type":"noteOff","velocity":0},{"channel":9,"nextOffset":45172,"note":42,"tick":56000,"time":72.91666666666666,"type":"noteOff","velocity":0},{"channel":9,"nextOffset":23290,"note":42,"tick":56008,"time":72.92708333333333,"type":"noteOn","velocity":50},{"channel":0,"nextOffset":1983,"note":38,"tick":56009,"time":72.92838541666666,"type":"noteOff","velocity":0},{"channel":0,"nextOffset":1987,"note":65,"tick":56009,"time":72.92838541666666,"type":"noteOff","velocity":0},{"channel":0,"nextOffset":1991,"note":64,"tick":56009,"time":72.92838541666666,"type":"noteOn","velocity":68},{"channel":0,"nextOffset":1995,"note":60,"tick":56009,"time":72.92838541666666,"type":"noteOn","velocity":68},{"channel":0,"nextOffset":1999,"note":69,"tick":56009,"time":72.92838541666666,"type":"noteOn","velocity":68},{"channel":0,"nextOffset":2003,"note":45,"tick":56009,"time":72.92838541666666,"type":"noteOn","velocity":68},{"channel":1,"nextOffset":16818,"note":26,"tick":56029,"time":72.95442708333333,"type":"noteOn","velocity":50},{"channel":9,"nextOffset":24838,"note":35,"tick":56038,"time":72.96614583333333,"type":"noteOff","velocity":0},{"channel":9,"nextOffset":23294,"note":42,"tick":56104,"time":73.05208333333333,"type":"noteOff","velocity":0},{"channel":2,"nextOffset":28363,"note":26,"tick":56117,"time":73.06901041666666,"type":"noteOff","velocity":0},{"channel":2,"nextOffset":28367,"note":33,"tick":56117,"time":73.06901041666666,"type":"noteOn","velocity":57},{"channel":9,"nextOffset":21036,"note":35,"tick":56126,"time":73.08072916666666,"type":"noteOn","velocity":50},{"channel":9,"nextOffset":32860,"note":42,"tick":56160,"time":73.12499999999999,"type":"noteOn","velocity":50},{"channel":0,"nextOffset":2008,"note":45,"tick":56201,"time":73.17838541666666,"type":"noteOff","velocity":0},{"channel":0,"nextOffset":2012,"note":69,"tick":56201,"time":73.17838541666666,"type":"noteOff","velocity":0},{"channel":0,"nextOffset":2016,"note":60,"tick":56201,"time":73.17838541666666,"type":"noteOff","velocity":0},{"channel":0,"nextOffset":2020,"note":64,"tick":56201,"time":73.17838541666666,"type":"noteOff","velocity":0},{"channel":0,"nextOffset":2024,"note":59,"tick":56201,"time":73.17838541666666,"type":"noteOn","velocity":68},{"channel":0,"nextOffset":2028,"note":63,"tick":56201,"time":73.17838541666666,"type":"noteOn","velocity":68},{"channel":0,"nextOffset":2032,"note":68,"tick":56201,"time":73.17838541666666,"type":"noteOn","velocity":68},{"channel":0,"nextOffset":2036,"note":44,"tick":56201,"time":73.17838541666666,"type":"noteOn","velocity":68},{"channel":1,"nextOffset":16823,"note":26,"tick":56221,"time":73.20442708333333,"type":"noteOff","velocity":0},{"channel":1,"nextOffset":16827,"note":33,"tick":56221,"time":73.20442708333333,"type":"noteOn","velocity":50},{"channel":9,"nextOffset":21040,"note":35,"tick":56222,"time":73.20572916666666,"type":"noteOff","velocity":0},{"channel":9,"nextOffset":24843,"note":35,"tick":56230,"time":73.21614583333333,"type":"noteOn","velocity":50},{"channel":9,"nextOffset":32864,"note":42,"tick":56256,"time":73.24999999999999,"type":"noteOff","velocity":0},{"channel":9,"nextOffset":32868,"note":42,"tick":56256,"time":73.24999999999999,"type":"noteOn","velocity":50},{"channel":2,"nextOffset":28372,"note":33,"tick":56309,"time":73.31901041666666,"type":"noteOff","velocity":0},{"channel":2,"nextOffset":28376,"note":26,"tick":56309,"time":73.31901041666666,"type":"noteOn","velocity":57},{"channel":9,"nextOffset":21044,"note":35,"tick":56318,"time":73.33072916666666,"type":"noteOn","velocity":50},{"channel":9,"nextOffset":24847,"note":35,"tick":56326,"time":73.34114583333333,"type":"noteOff","velocity":0},{"channel":9,"nextOffset":32872,"note":42,"tick":56352,"time":73.37499999999999,"type":"noteOff","velocity":0},{"channel":9,"nextOffset":45177,"note":42,"tick":56384,"time":73.41666666666666,"type":"noteOn","velocity":50},{"channel":0,"nextOffset":2041,"note":44,"tick":56393,"time":73.42838541666666,"type":"noteOff","velocity":0},{"channel":0,"nextOffset":2045,"note":68,"tick":56393,"time":73.42838541666666,"type":"noteOff","velocity":0},{"channel":0,"nextOffset":2049,"note":63,"tick":56393,"time":73.42838541666666,"type":"noteOff","velocity":0},{"channel":0,"nextOffset":2053,"note":59,"tick":56393,"time":73.42838541666666,"type":"noteOff","velocity":0},{"channel":0,"nextOffset":2057,"note":43,"tick":56393,"time":73.42838541666666,"type":"noteOn","velocity":68},{"channel":0,"nextOffset":2061,"note":58,"tick":56393,"time":73.42838541666666,"type":"noteOn","velocity":68},{"channel":0,"nextOffset":2065,"note":62,"tick":56393,"time":73.42838541666666,"type":"noteOn","velocity":68},{"channel":0,"nextOffset":2069,"note":65,"tick":56393,"time":73.42838541666666,"type":"noteOn","velocity":68},{"channel":0,"nextOffset":2073,"note":69,"tick":56393,"time":73.42838541666666,"type":"noteOn","velocity":68},{"channel":1,"nextOffset":16832,"note":33,"tick":56413,"time":73.45442708333333,"type":"noteOff","velocity":0},{"channel":1,"nextOffset":16836,"note":26,"tick":56413,"time":73.45442708333333,"type":"noteOn","velocity":50},{"channel":9,"nextOffset":21048,"note":35,"tick":56414,"time":73.45572916666666,"type":"noteOff","velocity":0},{"channel":9,"nextOffset":24851,"note":35,"tick":56422,"time":73.46614583333333,"type":"noteOn","velocity":50},{"channel":9,"nextOffset":45181,"note":42,"tick":56480,"time":73.54166666666666,"type":"noteOff","velocity":0},{"channel":9,"nextOffset":23299,"note":42,"tick":56488,"time":73.55208333333333,"type":"noteOn","velocity":50},{"channel":2,"nextOffset":28381,"note":26,"tick":56501,"time":73.56901041666666,"type":"noteOff","velocity":0},{"channel":2,"nextOffset":28385,"note":38,"tick":56501,"time":73.56901041666666,"type":"noteOn","velocity":57},{"channel":9,"nextOffset":24855,"note":35,"tick":56518,"time":73.59114583333333,"type":"noteOff","velocity":0},{"channel":9,"nextOffset":32877,"note":42,"tick":56544,"time":73.62499999999999,"type":"noteOn","velocity":50},{"channel":9,"nextOffset":23303,"note":42,"tick":56584,"time":73.67708333333333,"type":"noteOff","velocity":0},{"channel":0,"nextOffset":2078,"note":43,"tick":56585,"time":73.67838541666666,"type":"noteOff","velocity":0},{"channel":1,"nextOffset":16841,"note":26,"tick":56605,"time":73.70442708333333,"type":"noteOff","velocity":0},{"channel":1,"nextOffset":16845,"note":38,"tick":56605,"time":73.70442708333333,"type":"noteOn","velocity":50},{"channel":9,"nextOffset":32881,"note":42,"tick":56640,"time":73.74999999999999,"type":"noteOff","velocity":0},{"channel":2,"nextOffset":28390,"note":38,"tick":56693,"time":73.81901041666666,"type":"noteOff","velocity":0},{"channel":2,"nextOffset":28394,"note":26,"tick":56693,"time":73.81901041666666,"type":"noteOn","velocity":57},{"channel":9,"nextOffset":21053,"note":35,"tick":56702,"time":73.83072916666666,"type":"noteOn","velocity":50},{"channel":9,"nextOffset":45186,"note":42,"tick":56768,"time":73.91666666666666,"type":"noteOn","velocity":50},{"channel":0,"nextOffset":2083,"note":69,"tick":56777,"time":73.92838541666666,"type":"noteOff","velocity":0},{"channel":0,"nextOffset":2087,"note":65,"tick":56777,"time":73.92838541666666,"type":"noteOff","velocity":0},{"channel":0,"nextOffset":2091,"note":62,"tick":56777,"time":73.92838541666666,"type":"noteOff","velocity":0},{"channel":0,"nextOffset":2095,"note":58,"tick":56777,"time":73.92838541666666,"type":"noteOff","velocity":0},{"channel":0,"nextOffset":2099,"note":43,"tick":56777,"time":73.92838541666666,"type":"noteOn","velocity":68},{"channel":1,"nextOffset":16850,"note":38,"tick":56797,"time":73.95442708333333,"type":"noteOff","velocity":0},{"channel":1,"nextOffset":16854,"note":26,"tick":56797,"time":73.95442708333333,"type":"noteOn","velocity":50},{"channel":9,"nextOffset":21057,"note":35,"tick":56798,"time":73.95572916666666,"type":"noteOff","velocity":0},{"channel":9,"nextOffset":24860,"note":35,"tick":56806,"time":73.96614583333333,"type":"noteOn","velocity":50},{"channel":9,"nextOffset":32886,"note":42,"tick":56832,"time":73.99999999999999,"type":"noteOn","velocity":50},{"channel":9,"nextOffset":45190,"note":42,"tick":56864,"time":74.04166666666666,"type":"noteOff","velocity":0},{"channel":9,"nextOffset":23308,"note":42,"tick":56872,"time":74.05208333333333,"type":"noteOn","velocity":50},{"channel":2,"nextOffset":28399,"note":26,"tick":56885,"time":74.06901041666666,"type":"noteOff","velocity":0},{"channel":2,"nextOffset":28403,"note":33,"tick":56885,"time":74.06901041666666,"type":"noteOn","velocity":57},{"channel":9,"nextOffset":24864,"note":35,"tick":56902,"time":74.09114583333333,"type":"noteOff","velocity":0},{"channel":9,"nextOffset":32890,"note":42,"tick":56928,"time":74.12499999999999,"type":"noteOff","velocity":0},{"channel":9,"nextOffset":32894,"note":42,"tick":56928,"time":74.12499999999999,"type":"noteOn","velocity":50},{"channel":9,"nextOffset":32898,"note":42,"tick":56952,"time":74.15624999999999,"type":"noteOff","velocity":0},{"channel":9,"nextOffset":23312,"note":42,"tick":56968,"time":74.17708333333333,"type":"noteOff","velocity":0},{"channel":0,"nextOffset":2104,"note":43,"tick":56969,"time":74.17838541666666,"type":"noteOff","velocity":0},{"channel":0,"nextOffset":2108,"note":44,"tick":56969,"time":74.17838541666666,"type":"noteOn","velocity":68},{"channel":0,"nextOffset":2112,"note":65,"tick":56969,"time":74.17838541666666,"type":"noteOn","velocity":68},{"channel":9,"nextOffset":32902,"note":42,"tick":56976,"time":74.18749999999999,"type":"noteOn","velocity":50},{"channel":1,"nextOffset":16859,"note":26,"tick":56989,"time":74.20442708333333,"type":"noteOff","velocity":0},{"channel":1,"nextOffset":16863,"note":33,"tick":56989,"time":74.20442708333333,"type":"noteOn","velocity":50},{"channel":9,"nextOffset":32906,"note":42,"tick":57000,"time":74.21874999999999,"type":"noteOff","velocity":0},{"channel":9,"nextOffset":32910,"note":42,"tick":57024,"time":74.24999999999999,"type":"noteOn","velocity":50},{"channel":9,"nextOffset":32914,"note":42,"tick":57048,"time":74.28124999999999,"type":"noteOff","velocity":0},{"channel":0,"nextOffset":2116,"note":65,"tick":57065,"time":74.30338541666666,"type":"noteOff","velocity":0},{"channel":0,"nextOffset":2120,"note":69,"tick":57065,"time":74.30338541666666,"type":"noteOn","velocity":68},{"channel":9,"nextOffset":32918,"note":42,"tick":57072,"time":74.31249999999999,"type":"noteOn","velocity":50},{"channel":2,"nextOffset":28408,"note":33,"tick":57077,"time":74.31901041666666,"type":"noteOff","velocity":0},{"channel":2,"nextOffset":28412,"note":32,"tick":57077,"time":74.31901041666666,"type":"noteOn","velocity":57},{"channel":2,"nextOffset":28416,"note":32,"tick":57077,"time":74.31901041666666,"type":"noteOn","velocity":57},{"channel":9,"nextOffset":21062,"note":35,"tick":57086,"time":74.33072916666666,"type":"noteOn","velocity":50},{"channel":9,"nextOffset":32922,"note":42,"tick":57096,"time":74.34374999999999,"type":"noteOff","velocity":0},{"channel":9,"nextOffset":32926,"note":42,"tick":57120,"time":74.37499999999999,"type":"noteOn","velocity":50},{"channel":9,"nextOffset":32930,"note":42,"tick":57144,"time":74.40624999999999,"type":"noteOff","velocity":0},{"channel":9,"nextOffset":45195,"note":42,"tick":57152,"time":74.41666666666666,"type":"noteOn","velocity":50},{"channel":0,"nextOffset":2124,"note":44,"tick":57161,"time":74.42838541666666,"type":"noteOff","velocity":0},{"channel":0,"nextOffset":2128,"note":69,"tick":57161,"time":74.42838541666666,"type":"noteOff","velocity":0},{"channel":0,"nextOffset":2132,"note":45,"tick":57161,"time":74.42838541666666,"type":"noteOn","velocity":68},{"channel":0,"nextOffset":2136,"note":72,"tick":57161,"time":74.42838541666666,"type":"noteOn","velocity":68},{"channel":0,"nextOffset":2140,"note":67,"tick":57161,"time":74.42838541666666,"type":"noteOn","velocity":68},{"channel":0,"nextOffset":2144,"note":64,"tick":57161,"time":74.42838541666666,"type":"noteOn","velocity":68},{"channel":0,"nextOffset":2148,"note":60,"tick":57161,"time":74.42838541666666,"type":"noteOn","velocity":68},{"channel":1,"nextOffset":16868,"note":33,"tick":57181,"time":74.45442708333333,"type":"noteOff","velocity":0},{"channel":1,"nextOffset":16872,"note":32,"tick":57181,"time":74.45442708333333,"type":"noteOn","velocity":50},{"channel":1,"nextOffset":16876,"note":32,"tick":57181,"time":74.45442708333333,"type":"noteOn","velocity":50},{"channel":9,"nextOffset":21066,"note":35,"tick":57182,"time":74.45572916666666,"type":"noteOff","velocity":0},{"channel":9,"nextOffset":24869,"note":35,"tick":57190,"time":74.46614583333333,"type":"noteOn","velocity":50},{"channel":9,"nextOffset":45199,"note":42,"tick":57248,"time":74.54166666666666,"type":"noteOff","velocity":0},{"channel":9,"nextOffset":23317,"note":42,"tick":57256,"time":74.55208333333333,"type":"noteOn","velocity":50},{"channel":2,"nextOffset":28421,"note":32,"tick":57269,"time":74.56901041666666,"type":"noteOff","velocity":0},{"channel":2,"nextOffset":28425,"note":32,"tick":57269,"time":74.56901041666666,"type":"noteOff","velocity":0},{"channel":2,"nextOffset":28429,"note":31,"tick":57269,"time":74.56901041666666,"type":"noteOn","velocity":57},{"channel":9,"nextOffset":24873,"note":35,"tick":57286,"time":74.59114583333333,"type":"noteOff","velocity":0},{"channel":9,"nextOffset":32935,"note":42,"tick":57312,"time":74.62499999999999,"type":"noteOn","velocity":50},{"channel":9,"nextOffset":23321,"note":42,"tick":57352,"time":74.67708333333333,"type":"noteOff","velocity":0},{"channel":0,"nextOffset":2153,"note":60,"tick":57353,"time":74.67838541666666,"type":"noteOff","velocity":0},{"channel":0,"nextOffset":2157,"note":64,"tick":57353,"time":74.67838541666666,"type":"noteOff","velocity":0},{"channel":0,"nextOffset":2161,"note":67,"tick":57353,"time":74.67838541666666,"type":"noteOff","velocity":0},{"channel":0,"nextOffset":2165,"note":72,"tick":57353,"time":74.67838541666666,"type":"noteOff","velocity":0},{"channel":0,"nextOffset":2169,"note":45,"tick":57353,"time":74.67838541666666,"type":"noteOff","velocity":0},{"channel":1,"nextOffset":16881,"note":32,"tick":57373,"time":74.70442708333333,"type":"noteOff","velocity":0},{"channel":1,"nextOffset":16885,"note":32,"tick":57373,"time":74.70442708333333,"type":"noteOff","velocity":0},{"channel":1,"nextOffset":16889,"note":31,"tick":57373,"time":74.70442708333333,"type":"noteOn","velocity":50},{"channel":9,"nextOffset":21071,"note":35,"tick":57374,"time":74.70572916666666,"type":"noteOn","velocity":50},{"channel":9,"nextOffset":32939,"note":42,"tick":57408,"time":74.74999999999999,"type":"noteOff","velocity":0},{"channel":9,"nextOffset":32943,"note":42,"tick":57408,"time":74.74999999999999,"type":"noteOn","velocity":50},{"channel":9,"nextOffset":45204,"note":42,"tick":57440,"time":74.79166666666666,"type":"noteOn","velocity":50},{"channel":0,"nextOffset":2173,"note":45,"tick":57449,"time":74.80338541666666,"type":"noteOn","velocity":68},{"channel":0,"nextOffset":2177,"note":61,"tick":57449,"time":74.80338541666666,"type":"noteOn","velocity":68},{"channel":0,"nextOffset":2181,"note":65,"tick":57449,"time":74.80338541666666,"type":"noteOn","velocity":68},{"channel":0,"nextOffset":2185,"note":67,"tick":57449,"time":74.80338541666666,"type":"noteOn","velocity":68},{"channel":0,"nextOffset":2189,"note":70,"tick":57449,"time":74.80338541666666,"type":"noteOn","velocity":68},{"channel":2,"nextOffset":28434,"note":31,"tick":57461,"time":74.81901041666666,"type":"noteOff","velocity":0},{"channel":9,"nextOffset":21075,"note":35,"tick":57470,"time":74.83072916666666,"type":"noteOff","velocity":0},{"channel":9,"nextOffset":24878,"note":35,"tick":57478,"time":74.84114583333333,"type":"noteOn","velocity":50},{"channel":9,"nextOffset":32947,"note":42,"tick":57504,"time":74.87499999999999,"type":"noteOff","velocity":0},{"channel":9,"nextOffset":45208,"note":42,"tick":57536,"time":74.91666666666666,"type":"noteOff","velocity":0},{"channel":9,"nextOffset":23326,"note":42,"tick":57544,"time":74.92708333333333,"type":"noteOn","velocity":50},{"channel":0,"nextOffset":2193,"note":45,"tick":57545,"time":74.92838541666666,"type":"noteOff","velocity":0},{"channel":1,"nextOffset":16894,"note":31,"tick":57565,"time":74.95442708333333,"type":"noteOff","velocity":0},{"channel":9,"nextOffset":24882,"note":35,"tick":57574,"time":74.96614583333333,"type":"noteOff","velocity":0},{"channel":9,"nextOffset":23330,"note":42,"tick":57640,"time":75.05208333333333,"type":"noteOff","velocity":0},{"channel":0,"nextOffset":2197,"note":70,"tick":57641,"time":75.05338541666666,"type":"noteOff","velocity":0},{"channel":0,"nextOffset":2201,"note":67,"tick":57641,"time":75.05338541666666,"type":"noteOff","velocity":0},{"channel":0,"nextOffset":2205,"note":65,"tick":57641,"time":75.05338541666666,"type":"noteOff","velocity":0},{"channel":0,"nextOffset":2209,"note":61,"tick":57641,"time":75.05338541666666,"type":"noteOff","velocity":0},{"channel":2,"nextOffset":28439,"note":31,"tick":57653,"time":75.06901041666666,"type":"noteOn","velocity":57},{"channel":9,"nextOffset":21080,"note":35,"tick":57662,"time":75.08072916666666,"type":"noteOn","velocity":50},{"channel":9,"nextOffset":32952,"note":42,"tick":57696,"time":75.12499999999999,"type":"noteOn","velocity":50},{"channel":0,"nextOffset":2213,"note":38,"tick":57737,"time":75.17838541666666,"type":"noteOn","velocity":68},{"channel":0,"nextOffset":2217,"note":60,"tick":57737,"time":75.17838541666666,"type":"noteOn","velocity":68},{"channel":0,"nextOffset":2221,"note":64,"tick":57737,"time":75.17838541666666,"type":"noteOn","velocity":68},{"channel":0,"nextOffset":2225,"note":65,"tick":57737,"time":75.17838541666666,"type":"noteOn","velocity":68},{"channel":0,"nextOffset":2229,"note":69,"tick":57737,"time":75.17838541666666,"type":"noteOn","velocity":68},{"channel":1,"nextOffset":16899,"note":31,"tick":57757,"time":75.20442708333333,"type":"noteOn","velocity":50},{"channel":9,"nextOffset":21084,"note":35,"tick":57758,"time":75.20572916666666,"type":"noteOff","velocity":0},{"channel":9,"nextOffset":24887,"note":35,"tick":57766,"time":75.21614583333333,"type":"noteOn","velocity":50},{"channel":9,"nextOffset":32956,"note":42,"tick":57792,"time":75.24999999999999,"type":"noteOff","velocity":0},{"channel":9,"nextOffset":32960,"note":42,"tick":57792,"time":75.24999999999999,"type":"noteOn","velocity":50},{"channel":2,"nextOffset":28444,"note":31,"tick":57845,"time":75.31901041666666,"type":"noteOff","velocity":0},{"channel":2,"nextOffset":28448,"note":32,"tick":57845,"time":75.31901041666666,"type":"noteOn","velocity":57},{"channel":9,"nextOffset":21088,"note":35,"tick":57854,"time":75.33072916666666,"type":"noteOn","velocity":50},{"channel":9,"nextOffset":24891,"note":35,"tick":57862,"time":75.34114583333333,"type":"noteOff","velocity":0},{"channel":9,"nextOffset":32964,"note":42,"tick":57888,"time":75.37499999999999,"type":"noteOff","velocity":0},{"channel":9,"nextOffset":45213,"note":42,"tick":57920,"time":75.41666666666666,"type":"noteOn","velocity":50},{"channel":0,"nextOffset":2234,"note":69,"tick":57929,"time":75.42838541666666,"type":"noteOff","velocity":0},{"channel":0,"nextOffset":2238,"note":65,"tick":57929,"time":75.42838541666666,"type":"noteOff","velocity":0},{"channel":0,"nextOffset":2242,"note":64,"tick":57929,"time":75.42838541666666,"type":"noteOff","velocity":0},{"channel":0,"nextOffset":2246,"note":60,"tick":57929,"time":75.42838541666666,"type":"noteOff","velocity":0},{"channel":0,"nextOffset":2250,"note":38,"tick":57929,"time":75.42838541666666,"type":"noteOff","velocity":0},{"channel":0,"nextOffset":2254,"note":76,"tick":57929,"time":75.42838541666666,"type":"noteOn","velocity":68},{"channel":0,"nextOffset":2258,"note":50,"tick":57929,"time":75.42838541666666,"type":"noteOn","velocity":68},{"channel":1,"nextOffset":16904,"note":31,"tick":57949,"time":75.45442708333333,"type":"noteOff","velocity":0},{"channel":1,"nextOffset":16908,"note":32,"tick":57949,"time":75.45442708333333,"type":"noteOn","velocity":50},{"channel":9,"nextOffset":21092,"note":35,"tick":57950,"time":75.45572916666666,"type":"noteOff","velocity":0},{"channel":9,"nextOffset":24895,"note":35,"tick":57958,"time":75.46614583333333,"type":"noteOn","velocity":50},{"channel":9,"nextOffset":45217,"note":42,"tick":58016,"time":75.54166666666666,"type":"noteOff","velocity":0},{"channel":9,"nextOffset":23335,"note":42,"tick":58024,"time":75.55208333333333,"type":"noteOn","velocity":50},{"channel":0,"nextOffset":2262,"note":76,"tick":58025,"time":75.55338541666666,"type":"noteOff","velocity":0},{"channel":0,"nextOffset":2266,"note":77,"tick":58025,"time":75.55338541666666,"type":"noteOn","velocity":68},{"channel":2,"nextOffset":28453,"note":32,"tick":58037,"time":75.56901041666666,"type":"noteOff","velocity":0},{"channel":2,"nextOffset":28457,"note":33,"tick":58037,"time":75.56901041666666,"type":"noteOn","velocity":57},{"channel":9,"nextOffset":24899,"note":35,"tick":58054,"time":75.59114583333333,"type":"noteOff","velocity":0},{"channel":9,"nextOffset":32969,"note":42,"tick":58080,"time":75.62499999999999,"type":"noteOn","velocity":50},{"channel":9,"nextOffset":23339,"note":42,"tick":58120,"time":75.67708333333333,"type":"noteOff","velocity":0},{"channel":0,"nextOffset":2270,"note":50,"tick":58121,"time":75.67838541666666,"type":"noteOff","velocity":0},{"channel":0,"nextOffset":2274,"note":77,"tick":58121,"time":75.67838541666666,"type":"noteOff","velocity":0},{"channel":0,"nextOffset":2278,"note":79,"tick":58121,"time":75.67838541666666,"type":"noteOn","velocity":68},{"channel":0,"nextOffset":2282,"note":38,"tick":58121,"time":75.67838541666666,"type":"noteOn","velocity":68},{"channel":1,"nextOffset":16913,"note":32,"tick":58141,"time":75.70442708333333,"type":"noteOff","velocity":0},{"channel":1,"nextOffset":16917,"note":33,"tick":58141,"time":75.70442708333333,"type":"noteOn","velocity":50},{"channel":9,"nextOffset":32973,"note":42,"tick":58176,"time":75.74999999999999,"type":"noteOff","velocity":0},{"channel":0,"nextOffset":2286,"note":79,"tick":58217,"time":75.80338541666666,"type":"noteOff","velocity":0},{"channel":0,"nextOffset":2290,"note":77,"tick":58217,"time":75.80338541666666,"type":"noteOn","velocity":68},{"channel":2,"nextOffset":28462,"note":33,"tick":58229,"time":75.81901041666666,"type":"noteOff","velocity":0},{"channel":9,"nextOffset":21097,"note":35,"tick":58238,"time":75.83072916666666,"type":"noteOn","velocity":50},{"channel":9,"nextOffset":45222,"note":42,"tick":58304,"time":75.91666666666666,"type":"noteOn","velocity":50},{"channel":0,"nextOffset":2294,"note":38,"tick":58313,"time":75.92838541666666,"type":"noteOff","velocity":0},{"channel":0,"nextOffset":2298,"note":77,"tick":58313,"time":75.92838541666666,"type":"noteOff","velocity":0},{"channel":0,"nextOffset":2302,"note":76,"tick":58313,"time":75.92838541666666,"type":"noteOn","velocity":68},{"channel":0,"nextOffset":2306,"note":45,"tick":58313,"time":75.92838541666666,"type":"noteOn","velocity":68},{"channel":2,"nextOffset":28466,"note":33,"tick":58325,"time":75.94401041666666,"type":"noteOn","velocity":57},{"channel":1,"nextOffset":16922,"note":33,"tick":58333,"time":75.95442708333333,"type":"noteOff","velocity":0},{"channel":9,"nextOffset":21101,"note":35,"tick":58334,"time":75.95572916666666,"type":"noteOff","velocity":0},{"channel":9,"nextOffset":24904,"note":35,"tick":58342,"time":75.96614583333333,"type":"noteOn","velocity":50},{"channel":9,"nextOffset":32978,"note":42,"tick":58368,"time":75.99999999999999,"type":"noteOn","velocity":50},{"channel":9,"nextOffset":45226,"note":42,"tick":58400,"time":76.04166666666666,"type":"noteOff","velocity":0},{"channel":9,"nextOffset":23344,"note":42,"tick":58408,"time":76.05208333333333,"type":"noteOn","velocity":50},{"channel":0,"nextOffset":2310,"note":76,"tick":58409,"time":76.05338541666666,"type":"noteOff","velocity":0},{"channel":0,"nextOffset":2314,"note":72,"tick":58409,"time":76.05338541666666,"type":"noteOn","velocity":68},{"channel":2,"nextOffset":28470,"note":33,"tick":58421,"time":76.06901041666666,"type":"noteOff","velocity":0},{"channel":1,"nextOffset":16926,"note":33,"tick":58429,"time":76.07942708333333,"type":"noteOn","velocity":50},{"channel":9,"nextOffset":24908,"note":35,"tick":58438,"time":76.09114583333333,"type":"noteOff","velocity":0},{"channel":9,"nextOffset":32982,"note":42,"tick":58464,"time":76.12499999999999,"type":"noteOff","velocity":0},{"channel":9,"nextOffset":32986,"note":42,"tick":58464,"time":76.12499999999999,"type":"noteOn","velocity":50},{"channel":9,"nextOffset":32990,"note":42,"tick":58488,"time":76.15624999999999,"type":"noteOff","velocity":0},{"channel":9,"nextOffset":23348,"note":42,"tick":58504,"time":76.17708333333333,"type":"noteOff","velocity":0},{"channel":0,"nextOffset":2318,"note":45,"tick":58505,"time":76.17838541666666,"type":"noteOff","velocity":0},{"channel":0,"nextOffset":2322,"note":72,"tick":58505,"time":76.17838541666666,"type":"noteOff","velocity":0},{"channel":0,"nextOffset":2326,"note":69,"tick":58505,"time":76.17838541666666,"type":"noteOn","velocity":68},{"channel":0,"nextOffset":2330,"note":38,"tick":58505,"time":76.17838541666666,"type":"noteOn","velocity":68},{"channel":9,"nextOffset":32994,"note":42,"tick":58512,"time":76.18749999999999,"type":"noteOn","velocity":50},{"channel":1,"nextOffset":16930,"note":33,"tick":58525,"time":76.20442708333333,"type":"noteOff","velocity":0},{"channel":9,"nextOffset":32998,"note":42,"tick":58536,"time":76.21874999999999,"type":"noteOff","velocity":0},{"channel":9,"nextOffset":33002,"note":42,"tick":58560,"time":76.24999999999999,"type":"noteOn","velocity":50},{"channel":9,"nextOffset":33006,"note":42,"tick":58584,"time":76.28124999999999,"type":"noteOff","velocity":0},{"channel":0,"nextOffset":2334,"note":69,"tick":58601,"time":76.30338541666666,"type":"noteOff","velocity":0},{"channel":0,"nextOffset":2338,"note":67,"tick":58601,"time":76.30338541666666,"type":"noteOn","velocity":68},{"channel":9,"nextOffset":33010,"note":42,"tick":58608,"time":76.31249999999999,"type":"noteOn","velocity":50},{"channel":2,"nextOffset":28475,"note":26,"tick":58613,"time":76.31901041666666,"type":"noteOn","velocity":57},{"channel":9,"nextOffset":21106,"note":35,"tick":58622,"time":76.33072916666666,"type":"noteOn","velocity":50},{"channel":9,"nextOffset":33014,"note":42,"tick":58632,"time":76.34374999999999,"type":"noteOff","velocity":0},{"channel":9,"nextOffset":33018,"note":42,"tick":58656,"time":76.37499999999999,"type":"noteOn","velocity":50},{"channel":9,"nextOffset":33022,"note":42,"tick":58680,"time":76.40624999999999,"type":"noteOff","velocity":0},{"channel":9,"nextOffset":45231,"note":42,"tick":58688,"time":76.41666666666666,"type":"noteOn","velocity":50},{"channel":0,"nextOffset":2342,"note":38,"tick":58697,"time":76.42838541666666,"type":"noteOff","velocity":0},{"channel":0,"nextOffset":2346,"note":67,"tick":58697,"time":76.42838541666666,"type":"noteOff","velocity":0},{"channel":0,"nextOffset":2350,"note":69,"tick":58697,"time":76.42838541666666,"type":"noteOn","velocity":68},{"channel":0,"nextOffset":2354,"note":50,"tick":58697,"time":76.42838541666666,"type":"noteOn","velocity":68},{"channel":1,"nextOffset":16935,"note":26,"tick":58717,"time":76.45442708333333,"type":"noteOn","velocity":50},{"channel":9,"nextOffset":21110,"note":35,"tick":58718,"time":76.45572916666666,"type":"noteOff","velocity":0},{"channel":9,"nextOffset":24913,"note":35,"tick":58726,"time":76.46614583333333,"type":"noteOn","velocity":50},{"channel":9,"nextOffset":45235,"note":42,"tick":58784,"time":76.54166666666666,"type":"noteOff","velocity":0},{"channel":9,"nextOffset":23353,"note":42,"tick":58792,"time":76.55208333333333,"type":"noteOn","velocity":50},{"channel":0,"nextOffset":2358,"note":69,"tick":58793,"time":76.55338541666666,"type":"noteOff","velocity":0},{"channel":0,"nextOffset":2362,"note":62,"tick":58793,"time":76.55338541666666,"type":"noteOn","velocity":68},{"channel":2,"nextOffset":28480,"note":26,"tick":58805,"time":76.56901041666666,"type":"noteOff","velocity":0},{"channel":9,"nextOffset":24917,"note":35,"tick":58822,"time":76.59114583333333,"type":"noteOff","velocity":0},{"channel":9,"nextOffset":33027,"note":42,"tick":58848,"time":76.62499999999999,"type":"noteOn","velocity":50},{"channel":9,"nextOffset":23357,"note":42,"tick":58888,"time":76.67708333333333,"type":"noteOff","velocity":0},{"channel":0,"nextOffset":2366,"note":50,"tick":58889,"time":76.67838541666666,"type":"noteOff","velocity":0},{"channel":0,"nextOffset":2370,"note":62,"tick":58889,"time":76.67838541666666,"type":"noteOff","velocity":0},{"channel":0,"nextOffset":2374,"note":60,"tick":58889,"time":76.67838541666666,"type":"noteOn","velocity":68},{"channel":0,"nextOffset":2378,"note":38,"tick":58889,"time":76.67838541666666,"type":"noteOn","velocity":68},{"channel":1,"nextOffset":16940,"note":26,"tick":58909,"time":76.70442708333333,"type":"noteOff","velocity":0},{"channel":9,"nextOffset":21115,"note":35,"tick":58910,"time":76.70572916666666,"type":"noteOn","velocity":50},{"channel":9,"nextOffset":33031,"note":42,"tick":58944,"time":76.74999999999999,"type":"noteOff","velocity":0},{"channel":9,"nextOffset":33035,"note":42,"tick":58944,"time":76.74999999999999,"type":"noteOn","velocity":50},{"channel":9,"nextOffset":45240,"note":42,"tick":58976,"time":76.79166666666666,"type":"noteOn","velocity":50},{"channel":0,"nextOffset":2382,"note":60,"tick":58985,"time":76.80338541666666,"type":"noteOff","velocity":0},{"channel":0,"nextOffset":2386,"note":65,"tick":58985,"time":76.80338541666666,"type":"noteOn","velocity":68},{"channel":2,"nextOffset":28485,"note":38,"tick":58997,"time":76.81901041666666,"type":"noteOn","velocity":57},{"channel":9,"nextOffset":21119,"note":35,"tick":59006,"time":76.83072916666666,"type":"noteOff","velocity":0},{"channel":9,"nextOffset":24922,"note":35,"tick":59014,"time":76.84114583333333,"type":"noteOn","velocity":50},{"channel":9,"nextOffset":33039,"note":42,"tick":59040,"time":76.87499999999999,"type":"noteOff","velocity":0},{"channel":9,"nextOffset":45244,"note":42,"tick":59072,"time":76.91666666666666,"type":"noteOff","velocity":0},{"channel":9,"nextOffset":23362,"note":42,"tick":59080,"time":76.92708333333333,"type":"noteOn","velocity":50},{"channel":0,"nextOffset":2390,"note":38,"tick":59081,"time":76.92838541666666,"type":"noteOff","velocity":0},{"channel":0,"nextOffset":2394,"note":65,"tick":59081,"time":76.92838541666666,"type":"noteOff","velocity":0},{"channel":0,"nextOffset":2398,"note":45,"tick":59081,"time":76.92838541666666,"type":"noteOn","velocity":68},{"channel":0,"nextOffset":2402,"note":64,"tick":59081,"time":76.92838541666666,"type":"noteOn","velocity":68},{"channel":0,"nextOffset":2406,"note":60,"tick":59081,"time":76.92838541666666,"type":"noteOn","velocity":68},{"channel":0,"nextOffset":2410,"note":69,"tick":59081,"time":76.92838541666666,"type":"noteOn","velocity":68},{"channel":1,"nextOffset":16945,"note":38,"tick":59101,"time":76.95442708333333,"type":"noteOn","velocity":50},{"channel":9,"nextOffset":24926,"note":35,"tick":59110,"time":76.96614583333333,"type":"noteOff","velocity":0},{"channel":9,"nextOffset":23366,"note":42,"tick":59176,"time":77.05208333333333,"type":"noteOff","velocity":0},{"channel":2,"nextOffset":28490,"note":38,"tick":59189,"time":77.06901041666666,"type":"noteOff","velocity":0},{"channel":2,"nextOffset":28494,"note":26,"tick":59189,"time":77.06901041666666,"type":"noteOn","velocity":57},{"channel":9,"nextOffset":21124,"note":35,"tick":59198,"time":77.08072916666666,"type":"noteOn","velocity":50},{"channel":9,"nextOffset":33044,"note":42,"tick":59232,"time":77.12499999999999,"type":"noteOn","velocity":50},{"channel":0,"nextOffset":2415,"note":69,"tick":59273,"time":77.17838541666666,"type":"noteOff","velocity":0},{"channel":0,"nextOffset":2419,"note":60,"tick":59273,"time":77.17838541666666,"type":"noteOff","velocity":0},{"channel":0,"nextOffset":2423,"note":64,"tick":59273,"time":77.17838541666666,"type":"noteOff","velocity":0},{"channel":0,"nextOffset":2427,"note":45,"tick":59273,"time":77.17838541666666,"type":"noteOff","velocity":0},{"channel":0,"nextOffset":2431,"note":59,"tick":59273,"time":77.17838541666666,"type":"noteOn","velocity":68},{"channel":0,"nextOffset":2435,"note":63,"tick":59273,"time":77.17838541666666,"type":"noteOn","velocity":68},{"channel":0,"nextOffset":2439,"note":68,"tick":59273,"time":77.17838541666666,"type":"noteOn","velocity":68},{"channel":0,"nextOffset":2443,"note":44,"tick":59273,"time":77.17838541666666,"type":"noteOn","velocity":68},{"channel":1,"nextOffset":16950,"note":38,"tick":59293,"time":77.20442708333333,"type":"noteOff","velocity":0},{"channel":1,"nextOffset":16954,"note":26,"tick":59293,"time":77.20442708333333,"type":"noteOn","velocity":50},{"channel":9,"nextOffset":21128,"note":35,"tick":59294,"time":77.20572916666666,"type":"noteOff","velocity":0},{"channel":9,"nextOffset":24931,"note":35,"tick":59302,"time":77.21614583333333,"type":"noteOn","velocity":50},{"channel":9,"nextOffset":33048,"note":42,"tick":59328,"time":77.24999999999999,"type":"noteOff","velocity":0},{"channel":9,"nextOffset":33052,"note":42,"tick":59328,"time":77.24999999999999,"type":"noteOn","velocity":50},{"channel":2,"nextOffset":28499,"note":26,"tick":59381,"time":77.31901041666666,"type":"noteOff","velocity":0},{"channel":2,"nextOffset":28503,"note":33,"tick":59381,"time":77.31901041666666,"type":"noteOn","velocity":57},{"channel":9,"nextOffset":21132,"note":35,"tick":59390,"time":77.33072916666666,"type":"noteOn","velocity":50},{"channel":9,"nextOffset":24935,"note":35,"tick":59398,"time":77.34114583333333,"type":"noteOff","velocity":0},{"channel":9,"nextOffset":33056,"note":42,"tick":59424,"time":77.37499999999999,"type":"noteOff","velocity":0},{"channel":9,"nextOffset":45249,"note":42,"tick":59456,"time":77.41666666666666,"type":"noteOn","velocity":50},{"channel":0,"nextOffset":2448,"note":44,"tick":59465,"time":77.42838541666666,"type":"noteOff","velocity":0},{"channel":0,"nextOffset":2452,"note":68,"tick":59465,"time":77.42838541666666,"type":"noteOff","velocity":0},{"channel":0,"nextOffset":2456,"note":63,"tick":59465,"time":77.42838541666666,"type":"noteOff","velocity":0},{"channel":0,"nextOffset":2460,"note":59,"tick":59465,"time":77.42838541666666,"type":"noteOff","velocity":0},{"channel":0,"nextOffset":2464,"note":43,"tick":59465,"time":77.42838541666666,"type":"noteOn","velocity":68},{"channel":0,"nextOffset":2468,"note":58,"tick":59465,"time":77.42838541666666,"type":"noteOn","velocity":68},{"channel":0,"nextOffset":2472,"note":62,"tick":59465,"time":77.42838541666666,"type":"noteOn","velocity":68},{"channel":0,"nextOffset":2476,"note":65,"tick":59465,"time":77.42838541666666,"type":"noteOn","velocity":68},{"channel":0,"nextOffset":2480,"note":69,"tick":59465,"time":77.42838541666666,"type":"noteOn","velocity":68},{"channel":1,"nextOffset":16959,"note":26,"tick":59485,"time":77.45442708333333,"type":"noteOff","velocity":0},{"channel":1,"nextOffset":16963,"note":33,"tick":59485,"time":77.45442708333333,"type":"noteOn","velocity":50},{"channel":9,"nextOffset":21136,"note":35,"tick":59486,"time":77.45572916666666,"type":"noteOff","velocity":0},{"channel":9,"nextOffset":24939,"note":35,"tick":59494,"time":77.46614583333333,"type":"noteOn","velocity":50},{"channel":9,"nextOffset":45253,"note":42,"tick":59552,"time":77.54166666666666,"type":"noteOff","velocity":0},{"channel":9,"nextOffset":45257,"note":42,"tick":59552,"time":77.54166666666666,"type":"noteOn","velocity":50},{"channel":2,"nextOffset":28508,"note":33,"tick":59573,"time":77.56901041666666,"type":"noteOff","velocity":0},{"channel":9,"nextOffset":24943,"note":35,"tick":59590,"time":77.59114583333333,"type":"noteOff","velocity":0},{"channel":9,"nextOffset":33061,"note":42,"tick":59616,"time":77.62499999999999,"type":"noteOn","velocity":50},{"channel":9,"nextOffset":45261,"note":42,"tick":59648,"time":77.66666666666666,"type":"noteOff","velocity":0},{"channel":0,"nextOffset":2485,"note":43,"tick":59657,"time":77.67838541666666,"type":"noteOff","velocity":0},{"channel":0,"nextOffset":2489,"note":50,"tick":59657,"time":77.67838541666666,"type":"noteOn","velocity":68},{"channel":1,"nextOffset":16968,"note":33,"tick":59677,"time":77.70442708333333,"type":"noteOff","velocity":0},{"channel":9,"nextOffset":33065,"note":42,"tick":59712,"time":77.74999999999999,"type":"noteOff","velocity":0},{"channel":2,"nextOffset":28513,"note":26,"tick":59765,"time":77.81901041666666,"type":"noteOn","velocity":57},{"channel":9,"nextOffset":21141,"note":35,"tick":59774,"time":77.83072916666666,"type":"noteOn","velocity":50},{"channel":9,"nextOffset":45266,"note":42,"tick":59840,"time":77.91666666666666,"type":"noteOn","velocity":50},{"channel":0,"nextOffset":2494,"note":69,"tick":59849,"time":77.92838541666666,"type":"noteOff","velocity":0},{"channel":0,"nextOffset":2498,"note":65,"tick":59849,"time":77.92838541666666,"type":"noteOff","velocity":0},{"channel":0,"nextOffset":2502,"note":62,"tick":59849,"time":77.92838541666666,"type":"noteOff","velocity":0},{"channel":0,"nextOffset":2506,"note":58,"tick":59849,"time":77.92838541666666,"type":"noteOff","velocity":0},{"channel":0,"nextOffset":2510,"note":50,"tick":59849,"time":77.92838541666666,"type":"noteOff","velocity":0},{"channel":0,"nextOffset":2514,"note":43,"tick":59849,"time":77.92838541666666,"type":"noteOn","velocity":68},{"channel":1,"nextOffset":16973,"note":26,"tick":59869,"time":77.95442708333333,"type":"noteOn","velocity":50},{"channel":9,"nextOffset":21145,"note":35,"tick":59870,"time":77.95572916666666,"type":"noteOff","velocity":0},{"channel":9,"nextOffset":24948,"note":35,"tick":59878,"time":77.96614583333333,"type":"noteOn","velocity":50},{"channel":9,"nextOffset":33070,"note":42,"tick":59904,"time":77.99999999999999,"type":"noteOn","velocity":50},{"channel":9,"nextOffset":45270,"note":42,"tick":59936,"time":78.04166666666666,"type":"noteOff","velocity":0},{"channel":9,"nextOffset":45274,"note":42,"tick":59936,"time":78.04166666666666,"type":"noteOn","velocity":50},{"channel":2,"nextOffset":28518,"note":26,"tick":59957,"time":78.06901041666666,"type":"noteOff","velocity":0},{"channel":2,"nextOffset":28522,"note":33,"tick":59957,"time":78.06901041666666,"type":"noteOn","velocity":57},{"channel":9,"nextOffset":24952,"note":35,"tick":59974,"time":78.09114583333333,"type":"noteOff","velocity":0},{"channel":9,"nextOffset":33074,"note":42,"tick":60000,"time":78.12499999999999,"type":"noteOff","velocity":0},{"channel":9,"nextOffset":33078,"note":42,"tick":60000,"time":78.12499999999999,"type":"noteOn","velocity":50},{"channel":9,"nextOffset":33082,"note":42,"tick":60024,"time":78.15624999999999,"type":"noteOff","velocity":0},{"channel":9,"nextOffset":45278,"note":42,"tick":60032,"time":78.16666666666666,"type":"noteOff","velocity":0},{"channel":0,"nextOffset":2519,"note":43,"tick":60041,"time":78.17838541666666,"type":"noteOff","velocity":0},{"channel":0,"nextOffset":2523,"note":44,"tick":60041,"time":78.17838541666666,"type":"noteOn","velocity":68},{"channel":0,"nextOffset":2527,"note":65,"tick":60041,"time":78.17838541666666,"type":"noteOn","velocity":68},{"channel":9,"nextOffset":33086,"note":42,"tick":60048,"time":78.18749999999999,"type":"noteOn","velocity":50},{"channel":1,"nextOffset":16978,"note":26,"tick":60061,"time":78.20442708333333,"type":"noteOff","velocity":0},{"channel":1,"nextOffset":16982,"note":33,"tick":60061,"time":78.20442708333333,"type":"noteOn","velocity":50},{"channel":9,"nextOffset":33090,"note":42,"tick":60072,"time":78.21874999999999,"type":"noteOff","velocity":0},{"channel":9,"nextOffset":33094,"note":42,"tick":60096,"time":78.24999999999999,"type":"noteOn","velocity":50},{"channel":9,"nextOffset":33098,"note":42,"tick":60120,"time":78.28124999999999,"type":"noteOff","velocity":0},{"channel":0,"nextOffset":2531,"note":65,"tick":60137,"time":78.30338541666666,"type":"noteOff","velocity":0},{"channel":0,"nextOffset":2535,"note":69,"tick":60137,"time":78.30338541666666,"type":"noteOn","velocity":68},{"channel":9,"nextOffset":33102,"note":42,"tick":60144,"time":78.31249999999999,"type":"noteOn","velocity":50},{"channel":2,"nextOffset":28527,"note":33,"tick":60149,"time":78.31901041666666,"type":"noteOff","velocity":0},{"channel":2,"nextOffset":28531,"note":32,"tick":60149,"time":78.31901041666666,"type":"noteOn","velocity":57},{"channel":9,"nextOffset":21150,"note":35,"tick":60158,"time":78.33072916666666,"type":"noteOn","velocity":50},{"channel":9,"nextOffset":33106,"note":42,"tick":60168,"time":78.34374999999999,"type":"noteOff","velocity":0},{"channel":9,"nextOffset":33110,"note":42,"tick":60192,"time":78.37499999999999,"type":"noteOn","velocity":50},{"channel":9,"nextOffset":33114,"note":42,"tick":60216,"time":78.40624999999999,"type":"noteOff","velocity":0},{"channel":9,"nextOffset":45283,"note":42,"tick":60224,"time":78.41666666666666,"type":"noteOn","velocity":50},{"channel":0,"nextOffset":2539,"note":44,"tick":60233,"time":78.42838541666666,"type":"noteOff","velocity":0},{"channel":0,"nextOffset":2543,"note":69,"tick":60233,"time":78.42838541666666,"type":"noteOff","velocity":0},{"channel":0,"nextOffset":2547,"note":45,"tick":60233,"time":78.42838541666666,"type":"noteOn","velocity":68},{"channel":0,"nextOffset":2551,"note":72,"tick":60233,"time":78.42838541666666,"type":"noteOn","velocity":68},{"channel":0,"nextOffset":2555,"note":67,"tick":60233,"time":78.42838541666666,"type":"noteOn","velocity":68},{"channel":0,"nextOffset":2559,"note":64,"tick":60233,"time":78.42838541666666,"type":"noteOn","velocity":68},{"channel":0,"nextOffset":2563,"note":60,"tick":60233,"time":78.42838541666666,"type":"noteOn","velocity":68},{"channel":1,"nextOffset":16987,"note":33,"tick":60253,"time":78.45442708333333,"type":"noteOff","velocity":0},{"channel":1,"nextOffset":16991,"note":32,"tick":60253,"time":78.45442708333333,"type":"noteOn","velocity":50},{"channel":9,"nextOffset":21154,"note":35,"tick":60254,"time":78.45572916666666,"type":"noteOff","velocity":0},{"channel":9,"nextOffset":24957,"note":35,"tick":60262,"time":78.46614583333333,"type":"noteOn","velocity":50},{"channel":9,"nextOffset":45287,"note":42,"tick":60320,"time":78.54166666666666,"type":"noteOff","velocity":0},{"channel":2,"nextOffset":28536,"note":32,"tick":60341,"time":78.56901041666666,"type":"noteOff","velocity":0},{"channel":2,"nextOffset":28540,"note":31,"tick":60341,"time":78.56901041666666,"type":"noteOn","velocity":57},{"channel":9,"nextOffset":24961,"note":35,"tick":60358,"time":78.59114583333333,"type":"noteOff","velocity":0},{"channel":9,"nextOffset":33119,"note":42,"tick":60384,"time":78.62499999999999,"type":"noteOn","velocity":50},{"channel":0,"nextOffset":2568,"note":60,"tick":60425,"time":78.67838541666666,"type":"noteOff","velocity":0},{"channel":0,"nextOffset":2572,"note":64,"tick":60425,"time":78.67838541666666,"type":"noteOff","velocity":0},{"channel":0,"nextOffset":2576,"note":67,"tick":60425,"time":78.67838541666666,"type":"noteOff","velocity":0},{"channel":0,"nextOffset":2580,"note":72,"tick":60425,"time":78.67838541666666,"type":"noteOff","velocity":0},{"channel":0,"nextOffset":2584,"note":45,"tick":60425,"time":78.67838541666666,"type":"noteOff","velocity":0},{"channel":1,"nextOffset":16996,"note":32,"tick":60445,"time":78.70442708333333,"type":"noteOff","velocity":0},{"channel":1,"nextOffset":17000,"note":31,"tick":60445,"time":78.70442708333333,"type":"noteOn","velocity":50},{"channel":9,"nextOffset":21159,"note":35,"tick":60446,"time":78.70572916666666,"type":"noteOn","velocity":50},{"channel":9,"nextOffset":33123,"note":42,"tick":60480,"time":78.74999999999999,"type":"noteOff","velocity":0},{"channel":9,"nextOffset":45292,"note":42,"tick":60512,"time":78.79166666666666,"type":"noteOn","velocity":50},{"channel":0,"nextOffset":2588,"note":45,"tick":60521,"time":78.80338541666666,"type":"noteOn","velocity":68},{"channel":0,"nextOffset":2592,"note":61,"tick":60521,"time":78.80338541666666,"type":"noteOn","velocity":68},{"channel":0,"nextOffset":2596,"note":65,"tick":60521,"time":78.80338541666666,"type":"noteOn","velocity":68},{"channel":0,"nextOffset":2600,"note":67,"tick":60521,"time":78.80338541666666,"type":"noteOn","velocity":68},{"channel":0,"nextOffset":2604,"note":70,"tick":60521,"time":78.80338541666666,"type":"noteOn","velocity":68},{"channel":2,"nextOffset":28545,"note":31,"tick":60533,"time":78.81901041666666,"type":"noteOff","velocity":0},{"channel":9,"nextOffset":21163,"note":35,"tick":60542,"time":78.83072916666666,"type":"noteOff","velocity":0},{"channel":9,"nextOffset":24966,"note":35,"tick":60550,"time":78.84114583333333,"type":"noteOn","velocity":50},{"channel":9,"nextOffset":45296,"note":42,"tick":60608,"time":78.91666666666666,"type":"noteOff","velocity":0},{"channel":9,"nextOffset":45300,"note":42,"tick":60608,"time":78.91666666666666,"type":"noteOn","velocity":50},{"channel":0,"nextOffset":2608,"note":45,"tick":60617,"time":78.92838541666666,"type":"noteOff","velocity":0},{"channel":9,"nextOffset":45304,"note":42,"tick":60632,"time":78.94791666666666,"type":"noteOff","velocity":0},{"channel":1,"nextOffset":17005,"note":31,"tick":60637,"time":78.95442708333333,"type":"noteOff","velocity":0},{"channel":9,"nextOffset":24970,"note":35,"tick":60646,"time":78.96614583333333,"type":"noteOff","velocity":0},{"channel":9,"nextOffset":45308,"note":42,"tick":60656,"time":78.97916666666666,"type":"noteOn","velocity":50},{"channel":9,"nextOffset":45312,"note":42,"tick":60680,"time":79.01041666666666,"type":"noteOff","velocity":0},{"channel":9,"nextOffset":45316,"note":42,"tick":60704,"time":79.04166666666666,"type":"noteOn","velocity":50},{"channel":0,"nextOffset":2612,"note":70,"tick":60713,"time":79.05338541666666,"type":"noteOff","velocity":0},{"channel":0,"nextOffset":2616,"note":67,"tick":60713,"time":79.05338541666666,"type":"noteOff","velocity":0},{"channel":0,"nextOffset":2620,"note":65,"tick":60713,"time":79.05338541666666,"type":"noteOff","velocity":0},{"channel":0,"nextOffset":2624,"note":61,"tick":60713,"time":79.05338541666666,"type":"noteOff","velocity":0},{"channel":2,"nextOffset":28550,"note":31,"tick":60725,"time":79.06901041666666,"type":"noteOn","velocity":57},{"channel":9,"nextOffset":45320,"note":42,"tick":60728,"time":79.07291666666666,"type":"noteOff","velocity":0},{"channel":9,"nextOffset":21168,"note":35,"tick":60734,"time":79.08072916666666,"type":"noteOn","velocity":50},{"channel":9,"nextOffset":45324,"note":42,"tick":60752,"time":79.10416666666666,"type":"noteOn","velocity":50},{"channel":9,"nextOffset":33128,"note":42,"tick":60768,"time":79.12499999999999,"type":"noteOn","velocity":50},{"channel":9,"nextOffset":45328,"note":42,"tick":60776,"time":79.13541666666666,"type":"noteOff","velocity":0},{"channel":9,"nextOffset":45332,"note":42,"tick":60800,"time":79.16666666666666,"type":"noteOn","velocity":50},{"channel":0,"nextOffset":2628,"note":38,"tick":60809,"time":79.17838541666666,"type":"noteOn","velocity":68},{"channel":0,"nextOffset":2632,"note":60,"tick":60809,"time":79.17838541666666,"type":"noteOn","velocity":68},{"channel":0,"nextOffset":2636,"note":64,"tick":60809,"time":79.17838541666666,"type":"noteOn","velocity":68},{"channel":0,"nextOffset":2640,"note":65,"tick":60809,"time":79.17838541666666,"type":"noteOn","velocity":68},{"channel":0,"nextOffset":2644,"note":69,"tick":60809,"time":79.17838541666666,"type":"noteOn","velocity":68},{"channel":9,"nextOffset":45336,"note":42,"tick":60824,"time":79.19791666666666,"type":"noteOff","velocity":0},{"channel":1,"nextOffset":17010,"note":31,"tick":60829,"time":79.20442708333333,"type":"noteOn","velocity":50},{"channel":9,"nextOffset":21172,"note":35,"tick":60830,"time":79.20572916666666,"type":"noteOff","velocity":0},{"channel":9,"nextOffset":24975,"note":35,"tick":60838,"time":79.21614583333333,"type":"noteOn","velocity":50},{"channel":9,"nextOffset":33132,"note":42,"tick":60864,"time":79.24999999999999,"type":"noteOff","velocity":0},{"channel":9,"nextOffset":33136,"note":42,"tick":60864,"time":79.24999999999999,"type":"noteOn","velocity":50},{"channel":2,"nextOffset":28555,"note":31,"tick":60917,"time":79.31901041666666,"type":"noteOff","velocity":0},{"channel":2,"nextOffset":28559,"note":32,"tick":60917,"time":79.31901041666666,"type":"noteOn","velocity":57},{"channel":9,"nextOffset":21176,"note":35,"tick":60926,"time":79.33072916666666,"type":"noteOn","velocity":50},{"channel":9,"nextOffset":24979,"note":35,"tick":60934,"time":79.34114583333333,"type":"noteOff","velocity":0},{"channel":9,"nextOffset":33140,"note":42,"tick":60960,"time":79.37499999999999,"type":"noteOff","velocity":0},{"channel":9,"nextOffset":45341,"note":42,"tick":60992,"time":79.41666666666666,"type":"noteOn","velocity":50},{"channel":0,"nextOffset":2649,"note":69,"tick":61001,"time":79.42838541666666,"type":"noteOff","velocity":0},{"channel":0,"nextOffset":2653,"note":65,"tick":61001,"time":79.42838541666666,"type":"noteOff","velocity":0},{"channel":0,"nextOffset":2657,"note":64,"tick":61001,"time":79.42838541666666,"type":"noteOff","velocity":0},{"channel":0,"nextOffset":2661,"note":60,"tick":61001,"time":79.42838541666666,"type":"noteOff","velocity":0},{"channel":0,"nextOffset":2665,"note":38,"tick":61001,"time":79.42838541666666,"type":"noteOff","velocity":0},{"channel":0,"nextOffset":2669,"note":76,"tick":61001,"time":79.42838541666666,"type":"noteOn","velocity":68},{"channel":1,"nextOffset":17015,"note":31,"tick":61021,"time":79.45442708333333,"type":"noteOff","velocity":0},{"channel":1,"nextOffset":17019,"note":32,"tick":61021,"time":79.45442708333333,"type":"noteOn","velocity":50},{"channel":9,"nextOffset":21180,"note":35,"tick":61022,"time":79.45572916666666,"type":"noteOff","velocity":0},{"channel":9,"nextOffset":24983,"note":35,"tick":61030,"time":79.46614583333333,"type":"noteOn","velocity":50},{"channel":9,"nextOffset":45345,"note":42,"tick":61088,"time":79.54166666666666,"type":"noteOff","velocity":0},{"channel":9,"nextOffset":45349,"note":42,"tick":61088,"time":79.54166666666666,"type":"noteOn","velocity":50},{"channel":0,"nextOffset":2673,"note":76,"tick":61097,"time":79.55338541666666,"type":"noteOff","velocity":0},{"channel":0,"nextOffset":2677,"note":77,"tick":61097,"time":79.55338541666666,"type":"noteOn","velocity":68},{"channel":2,"nextOffset":28564,"note":32,"tick":61109,"time":79.56901041666666,"type":"noteOff","velocity":0},{"channel":2,"nextOffset":28568,"note":33,"tick":61109,"time":79.56901041666666,"type":"noteOn","velocity":57},{"channel":2,"nextOffset":28572,"note":33,"tick":61109,"time":79.56901041666666,"type":"noteOn","velocity":57},{"channel":9,"nextOffset":24987,"note":35,"tick":61126,"time":79.59114583333333,"type":"noteOff","velocity":0},{"channel":9,"nextOffset":33145,"note":42,"tick":61152,"time":79.62499999999999,"type":"noteOn","velocity":50},{"channel":9,"nextOffset":45353,"note":42,"tick":61184,"time":79.66666666666666,"type":"noteOff","velocity":0},{"channel":0,"nextOffset":2681,"note":77,"tick":61193,"time":79.67838541666666,"type":"noteOff","velocity":0},{"channel":0,"nextOffset":2685,"note":76,"tick":61193,"time":79.67838541666666,"type":"noteOn","velocity":68},{"channel":0,"nextOffset":2689,"note":50,"tick":61193,"time":79.67838541666666,"type":"noteOn","velocity":68},{"channel":1,"nextOffset":17024,"note":32,"tick":61213,"time":79.70442708333333,"type":"noteOff","velocity":0},{"channel":1,"nextOffset":17028,"note":33,"tick":61213,"time":79.70442708333333,"type":"noteOn","velocity":50},{"channel":1,"nextOffset":17032,"note":33,"tick":61213,"time":79.70442708333333,"type":"noteOn","velocity":50},{"channel":9,"nextOffset":33149,"note":42,"tick":61248,"time":79.74999999999999,"type":"noteOff","velocity":0},{"channel":0,"nextOffset":2693,"note":76,"tick":61289,"time":79.80338541666666,"type":"noteOff","velocity":0},{"channel":0,"nextOffset":2697,"note":72,"tick":61289,"time":79.80338541666666,"type":"noteOn","velocity":68},{"channel":2,"nextOffset":28577,"note":33,"tick":61301,"time":79.81901041666666,"type":"noteOff","velocity":0},{"channel":2,"nextOffset":28581,"note":33,"tick":61301,"time":79.81901041666666,"type":"noteOff","velocity":0},{"channel":9,"nextOffset":21185,"note":35,"tick":61310,"time":79.83072916666666,"type":"noteOn","velocity":50},{"channel":9,"nextOffset":45358,"note":42,"tick":61376,"time":79.91666666666666,"type":"noteOn","velocity":50},{"channel":0,"nextOffset":2701,"note":50,"tick":61385,"time":79.92838541666666,"type":"noteOff","velocity":0},{"channel":0,"nextOffset":2705,"note":72,"tick":61385,"time":79.92838541666666,"type":"noteOff","velocity":0},{"channel":0,"nextOffset":2709,"note":76,"tick":61385,"time":79.92838541666666,"type":"noteOn","velocity":68},{"channel":0,"nextOffset":2713,"note":38,"tick":61385,"time":79.92838541666666,"type":"noteOn","velocity":68},{"channel":2,"nextOffset":28585,"note":33,"tick":61397,"time":79.94401041666666,"type":"noteOn","velocity":57},{"channel":1,"nextOffset":17037,"note":33,"tick":61405,"time":79.95442708333333,"type":"noteOff","velocity":0},{"channel":1,"nextOffset":17041,"note":33,"tick":61405,"time":79.95442708333333,"type":"noteOff","velocity":0},{"channel":9,"nextOffset":21189,"note":35,"tick":61406,"time":79.95572916666666,"type":"noteOff","velocity":0},{"channel":9,"nextOffset":24992,"note":35,"tick":61414,"time":79.96614583333333,"type":"noteOn","velocity":50},{"channel":9,"nextOffset":33154,"note":42,"tick":61440,"time":79.99999999999999,"type":"noteOn","velocity":50},{"channel":9,"nextOffset":45362,"note":42,"tick":61472,"time":80.04166666666666,"type":"noteOff","velocity":0},{"channel":9,"nextOffset":45366,"note":42,"tick":61472,"time":80.04166666666666,"type":"noteOn","velocity":50},{"channel":0,"nextOffset":2717,"note":76,"tick":61481,"time":80.05338541666666,"type":"noteOff","velocity":0},{"channel":0,"nextOffset":2721,"note":72,"tick":61481,"time":80.05338541666666,"type":"noteOn","velocity":68},{"channel":2,"nextOffset":28589,"note":33,"tick":61493,"time":80.06901041666666,"type":"noteOff","velocity":0},{"channel":1,"nextOffset":17045,"note":33,"tick":61501,"time":80.07942708333333,"type":"noteOn","velocity":50},{"channel":9,"nextOffset":24996,"note":35,"tick":61510,"time":80.09114583333333,"type":"noteOff","velocity":0},{"channel":9,"nextOffset":33158,"note":42,"tick":61536,"time":80.12499999999999,"type":"noteOff","velocity":0},{"channel":9,"nextOffset":33162,"note":42,"tick":61536,"time":80.12499999999999,"type":"noteOn","velocity":50},{"channel":9,"nextOffset":33166,"note":42,"tick":61560,"time":80.15624999999999,"type":"noteOff","velocity":0},{"channel":9,"nextOffset":45370,"note":42,"tick":61568,"time":80.16666666666666,"type":"noteOff","velocity":0},{"channel":0,"nextOffset":2725,"note":38,"tick":61577,"time":80.17838541666666,"type":"noteOff","velocity":0},{"channel":0,"nextOffset":2729,"note":72,"tick":61577,"time":80.17838541666666,"type":"noteOff","velocity":0},{"channel":0,"nextOffset":2733,"note":69,"tick":61577,"time":80.17838541666666,"type":"noteOn","velocity":68},{"channel":0,"nextOffset":2737,"note":45,"tick":61577,"time":80.17838541666666,"type":"noteOn","velocity":68},{"channel":9,"nextOffset":33170,"note":42,"tick":61584,"time":80.18749999999999,"type":"noteOn","velocity":50},{"channel":1,"nextOffset":17049,"note":33,"tick":61597,"time":80.20442708333333,"type":"noteOff","velocity":0},{"channel":9,"nextOffset":25000,"note":42,"tick":61606,"time":80.21614583333333,"type":"noteOn","velocity":50},{"channel":9,"nextOffset":33174,"note":42,"tick":61608,"time":80.21874999999999,"type":"noteOff","velocity":0},{"channel":9,"nextOffset":33178,"note":42,"tick":61632,"time":80.24999999999999,"type":"noteOn","velocity":50},{"channel":9,"nextOffset":33182,"note":42,"tick":61656,"time":80.28124999999999,"type":"noteOff","velocity":0},{"channel":0,"nextOffset":2741,"note":69,"tick":61673,"time":80.30338541666666,"type":"noteOff","velocity":0},{"channel":0,"nextOffset":2745,"note":67,"tick":61673,"time":80.30338541666666,"type":"noteOn","velocity":68},{"channel":9,"nextOffset":33186,"note":42,"tick":61680,"time":80.31249999999999,"type":"noteOn","velocity":50},{"channel":2,"nextOffset":28594,"note":26,"tick":61685,"time":80.31901041666666,"type":"noteOn","velocity":57},{"channel":9,"nextOffset":21194,"note":35,"tick":61694,"time":80.33072916666666,"type":"noteOn","velocity":50},{"channel":9,"nextOffset":25004,"note":42,"tick":61702,"time":80.34114583333333,"type":"noteOff","velocity":0},{"channel":9,"nextOffset":33190,"note":42,"tick":61704,"time":80.34374999999999,"type":"noteOff","velocity":0},{"channel":9,"nextOffset":45375,"note":42,"tick":61760,"time":80.41666666666666,"type":"noteOn","velocity":50},{"channel":0,"nextOffset":2749,"note":45,"tick":61769,"time":80.42838541666666,"type":"noteOff","velocity":0},{"channel":0,"nextOffset":2753,"note":67,"tick":61769,"time":80.42838541666666,"type":"noteOff","velocity":0},{"channel":0,"nextOffset":2757,"note":69,"tick":61769,"time":80.42838541666666,"type":"noteOn","velocity":68},{"channel":0,"nextOffset":2761,"note":50,"tick":61769,"time":80.42838541666666,"type":"noteOn","velocity":68},{"channel":1,"nextOffset":17054,"note":26,"tick":61789,"time":80.45442708333333,"type":"noteOn","velocity":50},{"channel":9,"nextOffset":21198,"note":35,"tick":61790,"time":80.45572916666666,"type":"noteOff","velocity":0},{"channel":9,"nextOffset":25008,"note":35,"tick":61798,"time":80.46614583333333,"type":"noteOn","velocity":50},{"channel":9,"nextOffset":45379,"note":42,"tick":61856,"time":80.54166666666666,"type":"noteOff","velocity":0},{"channel":0,"nextOffset":2765,"note":69,"tick":61865,"time":80.55338541666666,"type":"noteOff","velocity":0},{"channel":0,"nextOffset":2769,"note":62,"tick":61865,"time":80.55338541666666,"type":"noteOn","velocity":68},{"channel":2,"nextOffset":28599,"note":26,"tick":61877,"time":80.56901041666666,"type":"noteOff","velocity":0},{"channel":9,"nextOffset":25012,"note":35,"tick":61894,"time":80.59114583333333,"type":"noteOff","velocity":0},{"channel":0,"nextOffset":2773,"note":50,"tick":61961,"time":80.67838541666666,"type":"noteOff","velocity":0},{"channel":0,"nextOffset":2777,"note":62,"tick":61961,"time":80.67838541666666,"type":"noteOff","velocity":0},{"channel":0,"nextOffset":2781,"note":60,"tick":61961,"time":80.67838541666666,"type":"noteOn","velocity":68},{"channel":0,"nextOffset":2785,"note":38,"tick":61961,"time":80.67838541666666,"type":"noteOn","velocity":68},{"channel":1,"nextOffset":17059,"note":26,"tick":61981,"time":80.70442708333333,"type":"noteOff","velocity":0},{"channel":9,"nextOffset":21203,"note":35,"tick":61982,"time":80.70572916666666,"type":"noteOn","velocity":50},{"channel":9,"nextOffset":45384,"note":42,"tick":62048,"time":80.79166666666666,"type":"noteOn","velocity":50},{"channel":0,"nextOffset":2789,"note":60,"tick":62057,"time":80.80338541666666,"type":"noteOff","velocity":0},{"channel":0,"nextOffset":2793,"note":65,"tick":62057,"time":80.80338541666666,"type":"noteOn","velocity":68},{"channel":2,"nextOffset":28604,"note":26,"tick":62069,"time":80.81901041666666,"type":"noteOn","velocity":57},{"channel":9,"nextOffset":21207,"note":35,"tick":62078,"time":80.83072916666666,"type":"noteOff","velocity":0},{"channel":9,"nextOffset":25017,"note":35,"tick":62086,"time":80.84114583333333,"type":"noteOn","velocity":50},{"channel":9,"nextOffset":45388,"note":42,"tick":62144,"time":80.91666666666666,"type":"noteOff","velocity":0},{"channel":9,"nextOffset":45392,"note":42,"tick":62144,"time":80.91666666666666,"type":"noteOn","velocity":50},{"channel":0,"nextOffset":2797,"note":38,"tick":62153,"time":80.92838541666666,"type":"noteOff","velocity":0},{"channel":0,"nextOffset":2801,"note":65,"tick":62153,"time":80.92838541666666,"type":"noteOff","velocity":0},{"channel":0,"nextOffset":2805,"note":64,"tick":62153,"time":80.92838541666666,"type":"noteOn","velocity":68},{"channel":0,"nextOffset":2809,"note":60,"tick":62153,"time":80.92838541666666,"type":"noteOn","velocity":68},{"channel":0,"nextOffset":2813,"note":69,"tick":62153,"time":80.92838541666666,"type":"noteOn","velocity":68},{"channel":0,"nextOffset":2817,"note":45,"tick":62153,"time":80.92838541666666,"type":"noteOn","velocity":68},{"channel":9,"nextOffset":45396,"note":42,"tick":62168,"time":80.94791666666666,"type":"noteOff","velocity":0},{"channel":1,"nextOffset":17064,"note":26,"tick":62173,"time":80.95442708333333,"type":"noteOn","velocity":50},{"channel":9,"nextOffset":25021,"note":35,"tick":62182,"time":80.96614583333333,"type":"noteOff","velocity":0},{"channel":9,"nextOffset":45400,"note":42,"tick":62192,"time":80.97916666666666,"type":"noteOn","velocity":50},{"channel":9,"nextOffset":45404,"note":42,"tick":62216,"time":81.01041666666666,"type":"noteOff","velocity":0},{"channel":9,"nextOffset":45408,"note":42,"tick":62240,"time":81.04166666666666,"type":"noteOn","velocity":50},{"channel":2,"nextOffset":28609,"note":26,"tick":62261,"time":81.06901041666666,"type":"noteOff","velocity":0},{"channel":2,"nextOffset":28613,"note":33,"tick":62261,"time":81.06901041666666,"type":"noteOn","velocity":57},{"channel":9,"nextOffset":45412,"note":42,"tick":62264,"time":81.07291666666666,"type":"noteOff","velocity":0},{"channel":9,"nextOffset":21212,"note":35,"tick":62270,"time":81.08072916666666,"type":"noteOn","velocity":50},{"channel":9,"nextOffset":45416,"note":42,"tick":62288,"time":81.10416666666666,"type":"noteOn","velocity":50},{"channel":9,"nextOffset":45420,"note":42,"tick":62312,"time":81.13541666666666,"type":"noteOff","velocity":0},{"channel":9,"nextOffset":45424,"note":42,"tick":62336,"time":81.16666666666666,"type":"noteOn","velocity":50},{"channel":0,"nextOffset":2822,"note":45,"tick":62345,"time":81.17838541666666,"type":"noteOff","velocity":0},{"channel":0,"nextOffset":2826,"note":69,"tick":62345,"time":81.17838541666666,"type":"noteOff","velocity":0},{"channel":0,"nextOffset":2830,"note":60,"tick":62345,"time":81.17838541666666,"type":"noteOff","velocity":0},{"channel":0,"nextOffset":2834,"note":64,"tick":62345,"time":81.17838541666666,"type":"noteOff","velocity":0},{"channel":0,"nextOffset":2838,"note":59,"tick":62345,"time":81.17838541666666,"type":"noteOn","velocity":68},{"channel":0,"nextOffset":2842,"note":63,"tick":62345,"time":81.17838541666666,"type":"noteOn","velocity":68},{"channel":0,"nextOffset":2846,"note":68,"tick":62345,"time":81.17838541666666,"type":"noteOn","velocity":68},{"channel":0,"nextOffset":2850,"note":44,"tick":62345,"time":81.17838541666666,"type":"noteOn","velocity":68},{"channel":9,"nextOffset":45428,"note":42,"tick":62360,"time":81.19791666666666,"type":"noteOff","velocity":0},{"channel":1,"nextOffset":17069,"note":26,"tick":62365,"time":81.20442708333333,"type":"noteOff","velocity":0},{"channel":1,"nextOffset":17073,"note":33,"tick":62365,"time":81.20442708333333,"type":"noteOn","velocity":50},{"channel":9,"nextOffset":21216,"note":35,"tick":62366,"time":81.20572916666666,"type":"noteOff","velocity":0},{"channel":9,"nextOffset":25026,"note":35,"tick":62374,"time":81.21614583333333,"type":"noteOn","velocity":50},{"channel":2,"nextOffset":28618,"note":33,"tick":62453,"time":81.31901041666666,"type":"noteOff","velocity":0},{"channel":2,"nextOffset":28622,"note":26,"tick":62453,"time":81.31901041666666,"type":"noteOn","velocity":57},{"channel":9,"nextOffset":21220,"note":35,"tick":62462,"time":81.33072916666666,"type":"noteOn","velocity":50},{"channel":9,"nextOffset":25030,"note":35,"tick":62470,"time":81.34114583333333,"type":"noteOff","velocity":0},{"channel":9,"nextOffset":45433,"note":42,"tick":62528,"time":81.41666666666666,"type":"noteOn","velocity":50},{"channel":0,"nextOffset":2855,"note":44,"tick":62537,"time":81.42838541666666,"type":"noteOff","velocity":0},{"channel":0,"nextOffset":2859,"note":68,"tick":62537,"time":81.42838541666666,"type":"noteOff","velocity":0},{"channel":0,"nextOffset":2863,"note":63,"tick":62537,"time":81.42838541666666,"type":"noteOff","velocity":0},{"channel":0,"nextOffset":2867,"note":59,"tick":62537,"time":81.42838541666666,"type":"noteOff","velocity":0},{"channel":0,"nextOffset":2871,"note":43,"tick":62537,"time":81.42838541666666,"type":"noteOn","velocity":68},{"channel":0,"nextOffset":2875,"note":58,"tick":62537,"time":81.42838541666666,"type":"noteOn","velocity":68},{"channel":0,"nextOffset":2879,"note":62,"tick":62537,"time":81.42838541666666,"type":"noteOn","velocity":68},{"channel":0,"nextOffset":2883,"note":65,"tick":62537,"time":81.42838541666666,"type":"noteOn","velocity":68},{"channel":0,"nextOffset":2887,"note":69,"tick":62537,"time":81.42838541666666,"type":"noteOn","velocity":68},{"channel":1,"nextOffset":17078,"note":33,"tick":62557,"time":81.45442708333333,"type":"noteOff","velocity":0},{"channel":1,"nextOffset":17082,"note":26,"tick":62557,"time":81.45442708333333,"type":"noteOn","velocity":50},{"channel":9,"nextOffset":21224,"note":35,"tick":62558,"time":81.45572916666666,"type":"noteOff","velocity":0},{"channel":9,"nextOffset":25034,"note":35,"tick":62566,"time":81.46614583333333,"type":"noteOn","velocity":50},{"channel":9,"nextOffset":45437,"note":42,"tick":62624,"time":81.54166666666666,"type":"noteOff","velocity":0},{"channel":9,"nextOffset":45441,"note":42,"tick":62624,"time":81.54166666666666,"type":"noteOn","velocity":50},{"channel":2,"nextOffset":28627,"note":26,"tick":62645,"time":81.56901041666666,"type":"noteOff","velocity":0},{"channel":9,"nextOffset":25038,"note":35,"tick":62662,"time":81.59114583333333,"type":"noteOff","velocity":0},{"channel":9,"nextOffset":45445,"note":42,"tick":62720,"time":81.66666666666666,"type":"noteOff","velocity":0},{"channel":0,"nextOffset":2892,"note":43,"tick":62729,"time":81.67838541666666,"type":"noteOff","velocity":0},{"channel":1,"nextOffset":17087,"note":26,"tick":62749,"time":81.70442708333333,"type":"noteOff","velocity":0},{"channel":2,"nextOffset":28632,"note":26,"tick":62837,"time":81.81901041666666,"type":"noteOn","velocity":57},{"channel":9,"nextOffset":21229,"note":35,"tick":62846,"time":81.83072916666666,"type":"noteOn","velocity":50},{"channel":9,"nextOffset":45450,"note":42,"tick":62912,"time":81.91666666666666,"type":"noteOn","velocity":50},{"channel":0,"nextOffset":2897,"note":69,"tick":62921,"time":81.92838541666666,"type":"noteOff","velocity":0},{"channel":0,"nextOffset":2901,"note":65,"tick":62921,"time":81.92838541666666,"type":"noteOff","velocity":0},{"channel":0,"nextOffset":2905,"note":62,"tick":62921,"time":81.92838541666666,"type":"noteOff","velocity":0},{"channel":0,"nextOffset":2909,"note":58,"tick":62921,"time":81.92838541666666,"type":"noteOff","velocity":0},{"channel":0,"nextOffset":2913,"note":43,"tick":62921,"time":81.92838541666666,"type":"noteOn","velocity":68},{"channel":1,"nextOffset":17092,"note":26,"tick":62941,"time":81.95442708333333,"type":"noteOn","velocity":50},{"channel":9,"nextOffset":21233,"note":35,"tick":62942,"time":81.95572916666666,"type":"noteOff","velocity":0},{"channel":9,"nextOffset":25043,"note":35,"tick":62950,"time":81.96614583333333,"type":"noteOn","velocity":50},{"channel":9,"nextOffset":45454,"note":42,"tick":63008,"time":82.04166666666666,"type":"noteOff","velocity":0},{"channel":9,"nextOffset":45458,"note":42,"tick":63008,"time":82.04166666666666,"type":"noteOn","velocity":50},{"channel":2,"nextOffset":28637,"note":26,"tick":63029,"time":82.06901041666666,"type":"noteOff","velocity":0},{"channel":2,"nextOffset":28641,"note":33,"tick":63029,"time":82.06901041666666,"type":"noteOn","velocity":57},{"channel":9,"nextOffset":25047,"note":35,"tick":63046,"time":82.09114583333333,"type":"noteOff","velocity":0},{"channel":9,"nextOffset":45462,"note":42,"tick":63104,"time":82.16666666666666,"type":"noteOff","velocity":0},{"channel":0,"nextOffset":2918,"note":43,"tick":63113,"time":82.17838541666666,"type":"noteOff","velocity":0},{"channel":0,"nextOffset":2922,"note":44,"tick":63113,"time":82.17838541666666,"type":"noteOn","velocity":68},{"channel":0,"nextOffset":2926,"note":65,"tick":63113,"time":82.17838541666666,"type":"noteOn","velocity":68},{"channel":1,"nextOffset":17097,"note":26,"tick":63133,"time":82.20442708333333,"type":"noteOff","velocity":0},{"channel":1,"nextOffset":17101,"note":33,"tick":63133,"time":82.20442708333333,"type":"noteOn","velocity":50},{"channel":0,"nextOffset":2930,"note":65,"tick":63209,"time":82.30338541666666,"type":"noteOff","velocity":0},{"channel":0,"nextOffset":2934,"note":69,"tick":63209,"time":82.30338541666666,"type":"noteOn","velocity":68},{"channel":2,"nextOffset":28646,"note":33,"tick":63221,"time":82.31901041666666,"type":"noteOff","velocity":0},{"channel":2,"nextOffset":28650,"note":32,"tick":63221,"time":82.31901041666666,"type":"noteOn","velocity":57},{"channel":2,"nextOffset":28654,"note":32,"tick":63221,"time":82.31901041666666,"type":"noteOn","velocity":57},{"channel":9,"nextOffset":21238,"note":35,"tick":63230,"time":82.33072916666666,"type":"noteOn","velocity":50},{"channel":9,"nextOffset":45467,"note":42,"tick":63296,"time":82.41666666666666,"type":"noteOn","velocity":50},{"channel":0,"nextOffset":2938,"note":44,"tick":63305,"time":82.42838541666666,"type":"noteOff","velocity":0},{"channel":0,"nextOffset":2942,"note":69,"tick":63305,"time":82.42838541666666,"type":"noteOff","velocity":0},{"channel":0,"nextOffset":2946,"note":45,"tick":63305,"time":82.42838541666666,"type":"noteOn","velocity":68},{"channel":0,"nextOffset":2950,"note":72,"tick":63305,"time":82.42838541666666,"type":"noteOn","velocity":68},{"channel":0,"nextOffset":2954,"note":67,"tick":63305,"time":82.42838541666666,"type":"noteOn","velocity":68},{"channel":0,"nextOffset":2958,"note":64,"tick":63305,"time":82.42838541666666,"type":"noteOn","velocity":68},{"channel":0,"nextOffset":2962,"note":60,"tick":63305,"time":82.42838541666666,"type":"noteOn","velocity":68},{"channel":1,"nextOffset":17106,"note":33,"tick":63325,"time":82.45442708333333,"type":"noteOff","velocity":0},{"channel":1,"nextOffset":17110,"note":32,"tick":63325,"time":82.45442708333333,"type":"noteOn","velocity":50},{"channel":1,"nextOffset":17114,"note":32,"tick":63325,"time":82.45442708333333,"type":"noteOn","velocity":50},{"channel":9,"nextOffset":21242,"note":35,"tick":63326,"time":82.45572916666666,"type":"noteOff","velocity":0},{"channel":9,"nextOffset":25052,"note":35,"tick":63334,"time":82.46614583333333,"type":"noteOn","velocity":50},{"channel":9,"nextOffset":45471,"note":42,"tick":63392,"time":82.54166666666666,"type":"noteOff","velocity":0},{"channel":2,"nextOffset":28659,"note":32,"tick":63413,"time":82.56901041666666,"type":"noteOff","velocity":0},{"channel":2,"nextOffset":28663,"note":32,"tick":63413,"time":82.56901041666666,"type":"noteOff","velocity":0},{"channel":2,"nextOffset":28667,"note":31,"tick":63413,"time":82.56901041666666,"type":"noteOn","velocity":57},{"channel":9,"nextOffset":25056,"note":35,"tick":63430,"time":82.59114583333333,"type":"noteOff","velocity":0},{"channel":0,"nextOffset":2967,"note":60,"tick":63497,"time":82.67838541666666,"type":"noteOff","velocity":0},{"channel":0,"nextOffset":2971,"note":64,"tick":63497,"time":82.67838541666666,"type":"noteOff","velocity":0},{"channel":0,"nextOffset":2975,"note":67,"tick":63497,"time":82.67838541666666,"type":"noteOff","velocity":0},{"channel":0,"nextOffset":2979,"note":72,"tick":63497,"time":82.67838541666666,"type":"noteOff","velocity":0},{"channel":0,"nextOffset":2983,"note":45,"tick":63497,"time":82.67838541666666,"type":"noteOff","velocity":0},{"channel":1,"nextOffset":17119,"note":32,"tick":63517,"time":82.70442708333333,"type":"noteOff","velocity":0},{"channel":1,"nextOffset":17123,"note":32,"tick":63517,"time":82.70442708333333,"type":"noteOff","velocity":0},{"channel":1,"nextOffset":17127,"note":31,"tick":63517,"time":82.70442708333333,"type":"noteOn","velocity":50},{"channel":9,"nextOffset":21247,"note":35,"tick":63518,"time":82.70572916666666,"type":"noteOn","velocity":50},{"channel":9,"nextOffset":45476,"note":42,"tick":63584,"time":82.79166666666666,"type":"noteOn","velocity":50},{"channel":0,"nextOffset":2987,"note":45,"tick":63593,"time":82.80338541666666,"type":"noteOn","velocity":68},{"channel":0,"nextOffset":2991,"note":61,"tick":63593,"time":82.80338541666666,"type":"noteOn","velocity":68},{"channel":0,"nextOffset":2995,"note":65,"tick":63593,"time":82.80338541666666,"type":"noteOn","velocity":68},{"channel":0,"nextOffset":2999,"note":67,"tick":63593,"time":82.80338541666666,"type":"noteOn","velocity":68},{"channel":0,"nextOffset":3003,"note":70,"tick":63593,"time":82.80338541666666,"type":"noteOn","velocity":68},{"channel":2,"nextOffset":28672,"note":31,"tick":63605,"time":82.81901041666666,"type":"noteOff","velocity":0},{"channel":9,"nextOffset":21251,"note":35,"tick":63614,"time":82.83072916666666,"type":"noteOff","velocity":0},{"channel":9,"nextOffset":25061,"note":35,"tick":63622,"time":82.84114583333333,"type":"noteOn","velocity":50},{"channel":9,"nextOffset":45480,"note":42,"tick":63680,"time":82.91666666666666,"type":"noteOff","velocity":0},{"channel":9,"nextOffset":45484,"note":42,"tick":63680,"time":82.91666666666666,"type":"noteOn","velocity":50},{"channel":0,"nextOffset":3007,"note":45,"tick":63689,"time":82.92838541666666,"type":"noteOff","velocity":0},{"channel":9,"nextOffset":45488,"note":42,"tick":63704,"time":82.94791666666666,"type":"noteOff","velocity":0},{"channel":1,"nextOffset":17132,"note":31,"tick":63709,"time":82.95442708333333,"type":"noteOff","velocity":0},{"channel":9,"nextOffset":25065,"note":35,"tick":63718,"time":82.96614583333333,"type":"noteOff","velocity":0},{"channel":9,"nextOffset":45492,"note":42,"tick":63728,"time":82.97916666666666,"type":"noteOn","velocity":50},{"channel":9,"nextOffset":45496,"note":42,"tick":63752,"time":83.01041666666666,"type":"noteOff","velocity":0},{"channel":9,"nextOffset":45500,"note":42,"tick":63776,"time":83.04166666666666,"type":"noteOn","velocity":50},{"channel":0,"nextOffset":3011,"note":70,"tick":63785,"time":83.05338541666666,"type":"noteOff","velocity":0},{"channel":0,"nextOffset":3015,"note":67,"tick":63785,"time":83.05338541666666,"type":"noteOff","velocity":0},{"channel":0,"nextOffset":3019,"note":65,"tick":63785,"time":83.05338541666666,"type":"noteOff","velocity":0},{"channel":0,"nextOffset":3023,"note":61,"tick":63785,"time":83.05338541666666,"type":"noteOff","velocity":0},{"channel":2,"nextOffset":28677,"note":31,"tick":63797,"time":83.06901041666666,"type":"noteOn","velocity":57},{"channel":9,"nextOffset":45504,"note":42,"tick":63800,"time":83.07291666666666,"type":"noteOff","velocity":0},{"channel":9,"nextOffset":21256,"note":35,"tick":63806,"time":83.08072916666666,"type":"noteOn","velocity":50},{"channel":9,"nextOffset":45508,"note":42,"tick":63824,"time":83.10416666666666,"type":"noteOn","velocity":50},{"channel":9,"nextOffset":45512,"note":42,"tick":63848,"time":83.13541666666666,"type":"noteOff","velocity":0},{"channel":9,"nextOffset":45516,"note":42,"tick":63872,"time":83.16666666666666,"type":"noteOn","velocity":50},{"channel":0,"nextOffset":3027,"note":38,"tick":63881,"time":83.17838541666666,"type":"noteOn","velocity":68},{"channel":0,"nextOffset":3031,"note":60,"tick":63881,"time":83.17838541666666,"type":"noteOn","velocity":68},{"channel":0,"nextOffset":3035,"note":64,"tick":63881,"time":83.17838541666666,"type":"noteOn","velocity":68},{"channel":0,"nextOffset":3039,"note":65,"tick":63881,"time":83.17838541666666,"type":"noteOn","velocity":68},{"channel":0,"nextOffset":3043,"note":69,"tick":63881,"time":83.17838541666666,"type":"noteOn","velocity":68},{"channel":9,"nextOffset":45520,"note":42,"tick":63896,"time":83.19791666666666,"type":"noteOff","velocity":0},{"channel":1,"nextOffset":17137,"note":31,"tick":63901,"time":83.20442708333333,"type":"noteOn","velocity":50},{"channel":9,"nextOffset":21260,"note":35,"tick":63902,"time":83.20572916666666,"type":"noteOff","velocity":0},{"channel":9,"nextOffset":25070,"note":35,"tick":63910,"time":83.21614583333333,"type":"noteOn","velocity":50},{"channel":2,"nextOffset":28682,"note":31,"tick":63989,"time":83.31901041666666,"type":"noteOff","velocity":0},{"channel":9,"nextOffset":21264,"note":35,"tick":63998,"time":83.33072916666666,"type":"noteOn","velocity":50},{"channel":9,"nextOffset":25074,"note":35,"tick":64006,"time":83.34114583333333,"type":"noteOff","velocity":0},{"channel":9,"nextOffset":45525,"note":42,"tick":64064,"time":83.41666666666666,"type":"noteOn","velocity":50},{"channel":0,"nextOffset":3048,"note":69,"tick":64073,"time":83.42838541666666,"type":"noteOff","velocity":0},{"channel":0,"nextOffset":3052,"note":65,"tick":64073,"time":83.42838541666666,"type":"noteOff","velocity":0},{"channel":0,"nextOffset":3056,"note":64,"tick":64073,"time":83.42838541666666,"type":"noteOff","velocity":0},{"channel":0,"nextOffset":3060,"note":60,"tick":64073,"time":83.42838541666666,"type":"noteOff","velocity":0},{"channel":0,"nextOffset":3064,"note":38,"tick":64073,"time":83.42838541666666,"type":"noteOff","velocity":0},{"channel":0,"nextOffset":3068,"note":76,"tick":64073,"time":83.42838541666666,"type":"noteOn","velocity":68},{"channel":0,"nextOffset":3072,"note":50,"tick":64073,"time":83.42838541666666,"type":"noteOn","velocity":68},{"channel":1,"nextOffset":17142,"note":31,"tick":64093,"time":83.45442708333333,"type":"noteOff","velocity":0},{"channel":9,"nextOffset":21268,"note":35,"tick":64094,"time":83.45572916666666,"type":"noteOff","velocity":0},{"channel":9,"nextOffset":25078,"note":35,"tick":64102,"time":83.46614583333333,"type":"noteOn","velocity":50},{"channel":9,"nextOffset":45529,"note":42,"tick":64160,"time":83.54166666666666,"type":"noteOff","velocity":0},{"channel":0,"nextOffset":3076,"note":76,"tick":64169,"time":83.55338541666666,"type":"noteOff","velocity":0},{"channel":0,"nextOffset":3080,"note":77,"tick":64169,"time":83.55338541666666,"type":"noteOn","velocity":68},{"channel":2,"nextOffset":28687,"note":31,"tick":64181,"time":83.56901041666666,"type":"noteOn","velocity":57},{"channel":9,"nextOffset":25082,"note":35,"tick":64198,"time":83.59114583333333,"type":"noteOff","velocity":0},{"channel":0,"nextOffset":3084,"note":50,"tick":64265,"time":83.67838541666666,"type":"noteOff","velocity":0},{"channel":0,"nextOffset":3088,"note":77,"tick":64265,"time":83.67838541666666,"type":"noteOff","velocity":0},{"channel":0,"nextOffset":3092,"note":79,"tick":64265,"time":83.67838541666666,"type":"noteOn","velocity":68},{"channel":0,"nextOffset":3096,"note":38,"tick":64265,"time":83.67838541666666,"type":"noteOn","velocity":68},{"channel":1,"nextOffset":17147,"note":31,"tick":64285,"time":83.70442708333333,"type":"noteOn","velocity":50},{"channel":0,"nextOffset":3100,"note":79,"tick":64361,"time":83.80338541666666,"type":"noteOff","velocity":0},{"channel":0,"nextOffset":3104,"note":77,"tick":64361,"time":83.80338541666666,"type":"noteOn","velocity":68},{"channel":2,"nextOffset":28692,"note":31,"tick":64373,"time":83.81901041666666,"type":"noteOff","velocity":0},{"channel":9,"nextOffset":21273,"note":35,"tick":64382,"time":83.83072916666666,"type":"noteOn","velocity":50},{"channel":9,"nextOffset":45534,"note":42,"tick":64448,"time":83.91666666666666,"type":"noteOn","velocity":50},{"channel":0,"nextOffset":3108,"note":38,"tick":64457,"time":83.92838541666666,"type":"noteOff","velocity":0},{"channel":0,"nextOffset":3112,"note":77,"tick":64457,"time":83.92838541666666,"type":"noteOff","velocity":0},{"channel":0,"nextOffset":3116,"note":76,"tick":64457,"time":83.92838541666666,"type":"noteOn","velocity":68},{"channel":0,"nextOffset":3120,"note":45,"tick":64457,"time":83.92838541666666,"type":"noteOn","velocity":68},{"channel":1,"nextOffset":17152,"note":31,"tick":64477,"time":83.95442708333333,"type":"noteOff","velocity":0},{"channel":9,"nextOffset":21277,"note":35,"tick":64478,"time":83.95572916666666,"type":"noteOff","velocity":0},{"channel":9,"nextOffset":25087,"note":35,"tick":64486,"time":83.96614583333333,"type":"noteOn","velocity":50},{"channel":9,"nextOffset":45538,"note":42,"tick":64544,"time":84.04166666666666,"type":"noteOff","velocity":0},{"channel":9,"nextOffset":45542,"note":42,"tick":64544,"time":84.04166666666666,"type":"noteOn","velocity":50},{"channel":0,"nextOffset":3124,"note":76,"tick":64553,"time":84.05338541666666,"type":"noteOff","velocity":0},{"channel":0,"nextOffset":3128,"note":72,"tick":64553,"time":84.05338541666666,"type":"noteOn","velocity":68},{"channel":2,"nextOffset":28697,"note":31,"tick":64565,"time":84.06901041666666,"type":"noteOn","velocity":57},{"channel":9,"nextOffset":25091,"note":35,"tick":64582,"time":84.09114583333333,"type":"noteOff","velocity":0},{"channel":9,"nextOffset":45546,"note":42,"tick":64640,"time":84.16666666666666,"type":"noteOff","velocity":0},{"channel":0,"nextOffset":3132,"note":45,"tick":64649,"time":84.17838541666666,"type":"noteOff","velocity":0},{"channel":0,"nextOffset":3136,"note":72,"tick":64649,"time":84.17838541666666,"type":"noteOff","velocity":0},{"channel":0,"nextOffset":3140,"note":69,"tick":64649,"time":84.17838541666666,"type":"noteOn","velocity":68},{"channel":0,"nextOffset":3144,"note":38,"tick":64649,"time":84.17838541666666,"type":"noteOn","velocity":68},{"channel":1,"nextOffset":17157,"note":31,"tick":64669,"time":84.20442708333333,"type":"noteOn","velocity":50},{"channel":0,"nextOffset":3148,"note":69,"tick":64745,"time":84.30338541666666,"type":"noteOff","velocity":0},{"channel":0,"nextOffset":3152,"note":67,"tick":64745,"time":84.30338541666666,"type":"noteOn","velocity":68},{"channel":2,"nextOffset":28702,"note":31,"tick":64757,"time":84.31901041666666,"type":"noteOff","velocity":0},{"channel":9,"nextOffset":21282,"note":35,"tick":64766,"time":84.33072916666666,"type":"noteOn","velocity":50},{"channel":9,"nextOffset":45551,"note":42,"tick":64832,"time":84.41666666666666,"type":"noteOn","velocity":50},{"channel":0,"nextOffset":3156,"note":38,"tick":64841,"time":84.42838541666666,"type":"noteOff","velocity":0},{"channel":0,"nextOffset":3160,"note":67,"tick":64841,"time":84.42838541666666,"type":"noteOff","velocity":0},{"channel":0,"nextOffset":3164,"note":69,"tick":64841,"time":84.42838541666666,"type":"noteOn","velocity":68},{"channel":0,"nextOffset":3168,"note":50,"tick":64841,"time":84.42838541666666,"type":"noteOn","velocity":68},{"channel":1,"nextOffset":17162,"note":31,"tick":64861,"time":84.45442708333333,"type":"noteOff","velocity":0},{"channel":9,"nextOffset":21286,"note":35,"tick":64862,"time":84.45572916666666,"type":"noteOff","velocity":0},{"channel":9,"nextOffset":25096,"note":35,"tick":64870,"time":84.46614583333333,"type":"noteOn","velocity":50},{"channel":9,"nextOffset":45555,"note":42,"tick":64928,"time":84.54166666666666,"type":"noteOff","velocity":0},{"channel":0,"nextOffset":3172,"note":69,"tick":64937,"time":84.55338541666666,"type":"noteOff","velocity":0},{"channel":0,"nextOffset":3176,"note":62,"tick":64937,"time":84.55338541666666,"type":"noteOn","velocity":68},{"channel":2,"nextOffset":28707,"note":33,"tick":64949,"time":84.56901041666666,"type":"noteOn","velocity":57},{"channel":9,"nextOffset":25100,"note":35,"tick":64966,"time":84.59114583333333,"type":"noteOff","velocity":0},{"channel":0,"nextOffset":3180,"note":50,"tick":65033,"time":84.67838541666666,"type":"noteOff","velocity":0},{"channel":0,"nextOffset":3184,"note":62,"tick":65033,"time":84.67838541666666,"type":"noteOff","velocity":0},{"channel":0,"nextOffset":3188,"note":60,"tick":65033,"time":84.67838541666666,"type":"noteOn","velocity":68},{"channel":0,"nextOffset":3192,"note":38,"tick":65033,"time":84.67838541666666,"type":"noteOn","velocity":68},{"channel":1,"nextOffset":17167,"note":33,"tick":65053,"time":84.70442708333333,"type":"noteOn","velocity":50},{"channel":9,"nextOffset":21291,"note":35,"tick":65054,"time":84.70572916666666,"type":"noteOn","velocity":50},{"channel":9,"nextOffset":45560,"note":42,"tick":65120,"time":84.79166666666666,"type":"noteOn","velocity":50},{"channel":0,"nextOffset":3196,"note":60,"tick":65129,"time":84.80338541666666,"type":"noteOff","velocity":0},{"channel":0,"nextOffset":3200,"note":65,"tick":65129,"time":84.80338541666666,"type":"noteOn","velocity":68},{"channel":2,"nextOffset":28712,"note":33,"tick":65141,"time":84.81901041666666,"type":"noteOff","velocity":0},{"channel":9,"nextOffset":21295,"note":35,"tick":65150,"time":84.83072916666666,"type":"noteOff","velocity":0},{"channel":9,"nextOffset":25105,"note":35,"tick":65158,"time":84.84114583333333,"type":"noteOn","velocity":50},{"channel":9,"nextOffset":45564,"note":42,"tick":65216,"time":84.91666666666666,"type":"noteOff","velocity":0},{"channel":9,"nextOffset":45568,"note":42,"tick":65216,"time":84.91666666666666,"type":"noteOn","velocity":50},{"channel":0,"nextOffset":3204,"note":38,"tick":65225,"time":84.92838541666666,"type":"noteOff","velocity":0},{"channel":0,"nextOffset":3208,"note":65,"tick":65225,"time":84.92838541666666,"type":"noteOff","velocity":0},{"channel":0,"nextOffset":3212,"note":45,"tick":65225,"time":84.92838541666666,"type":"noteOn","velocity":68},{"channel":0,"nextOffset":3216,"note":64,"tick":65225,"time":84.92838541666666,"type":"noteOn","velocity":68},{"channel":0,"nextOffset":3220,"note":60,"tick":65225,"time":84.92838541666666,"type":"noteOn","velocity":68},{"channel":0,"nextOffset":3224,"note":69,"tick":65225,"time":84.92838541666666,"type":"noteOn","velocity":68},{"channel":9,"nextOffset":45572,"note":42,"tick":65240,"time":84.94791666666666,"type":"noteOff","velocity":0},{"channel":1,"nextOffset":17172,"note":33,"tick":65245,"time":84.95442708333333,"type":"noteOff","velocity":0},{"channel":9,"nextOffset":25109,"note":35,"tick":65254,"time":84.96614583333333,"type":"noteOff","velocity":0},{"channel":9,"nextOffset":45576,"note":42,"tick":65264,"time":84.97916666666666,"type":"noteOn","velocity":50},{"channel":9,"nextOffset":45580,"note":42,"tick":65288,"time":85.01041666666666,"type":"noteOff","velocity":0},{"channel":9,"nextOffset":45584,"note":42,"tick":65312,"time":85.04166666666666,"type":"noteOn","velocity":50},{"channel":2,"nextOffset":28717,"note":33,"tick":65333,"time":85.06901041666666,"type":"noteOn","velocity":57},{"channel":9,"nextOffset":45588,"note":42,"tick":65336,"time":85.07291666666666,"type":"noteOff","velocity":0},{"channel":9,"nextOffset":21300,"note":35,"tick":65342,"time":85.08072916666666,"type":"noteOn","velocity":50},{"channel":9,"nextOffset":45592,"note":42,"tick":65360,"time":85.10416666666666,"type":"noteOn","velocity":50},{"channel":9,"nextOffset":45596,"note":42,"tick":65384,"time":85.13541666666666,"type":"noteOff","velocity":0},{"channel":0,"nextOffset":3229,"note":69,"tick":65417,"time":85.17838541666666,"type":"noteOff","velocity":0},{"channel":0,"nextOffset":3233,"note":60,"tick":65417,"time":85.17838541666666,"type":"noteOff","velocity":0},{"channel":0,"nextOffset":3237,"note":64,"tick":65417,"time":85.17838541666666,"type":"noteOff","velocity":0},{"channel":0,"nextOffset":3241,"note":45,"tick":65417,"time":85.17838541666666,"type":"noteOff","velocity":0},{"channel":0,"nextOffset":3245,"note":59,"tick":65417,"time":85.17838541666666,"type":"noteOn","velocity":68},{"channel":0,"nextOffset":3249,"note":63,"tick":65417,"time":85.17838541666666,"type":"noteOn","velocity":68},{"channel":0,"nextOffset":3253,"note":68,"tick":65417,"time":85.17838541666666,"type":"noteOn","velocity":68},{"channel":0,"nextOffset":3257,"note":44,"tick":65417,"time":85.17838541666666,"type":"noteOn","velocity":68},{"channel":1,"nextOffset":17177,"note":33,"tick":65437,"time":85.20442708333333,"type":"noteOn","velocity":50},{"channel":9,"nextOffset":21304,"note":35,"tick":65438,"time":85.20572916666666,"type":"noteOff","velocity":0},{"channel":9,"nextOffset":25114,"note":35,"tick":65446,"time":85.21614583333333,"type":"noteOn","velocity":50},{"channel":2,"nextOffset":28722,"note":33,"tick":65525,"time":85.31901041666666,"type":"noteOff","velocity":0},{"channel":9,"nextOffset":21308,"note":35,"tick":65534,"time":85.33072916666666,"type":"noteOn","velocity":50},{"channel":9,"nextOffset":25118,"note":35,"tick":65542,"time":85.34114583333333,"type":"noteOff","velocity":0},{"channel":0,"nextOffset":3262,"note":44,"tick":65609,"time":85.42838541666666,"type":"noteOff","velocity":0},{"channel":0,"nextOffset":3266,"note":68,"tick":65609,"time":85.42838541666666,"type":"noteOff","velocity":0},{"channel":0,"nextOffset":3270,"note":63,"tick":65609,"time":85.42838541666666,"type":"noteOff","velocity":0},{"channel":0,"nextOffset":3274,"note":59,"tick":65609,"time":85.42838541666666,"type":"noteOff","velocity":0},{"channel":0,"nextOffset":3278,"note":43,"tick":65609,"time":85.42838541666666,"type":"noteOn","velocity":68},{"channel":0,"nextOffset":3282,"note":58,"tick":65609,"time":85.42838541666666,"type":"noteOn","velocity":68},{"channel":0,"nextOffset":3286,"note":62,"tick":65609,"time":85.42838541666666,"type":"noteOn","velocity":68},{"channel":0,"nextOffset":3290,"note":65,"tick":65609,"time":85.42838541666666,"type":"noteOn","velocity":68},{"channel":0,"nextOffset":3294,"note":69,"tick":65609,"time":85.42838541666666,"type":"noteOn","velocity":68},{"channel":1,"nextOffset":17182,"note":33,"tick":65629,"time":85.45442708333333,"type":"noteOff","velocity":0},{"channel":9,"nextOffset":21312,"note":35,"tick":65630,"time":85.45572916666666,"type":"noteOff","velocity":0},{"channel":2,"nextOffset":28727,"note":33,"tick":65717,"time":85.56901041666666,"type":"noteOn","velocity":57},{"channel":0,"nextOffset":3299,"note":43,"tick":65801,"time":85.67838541666666,"type":"noteOff","velocity":0},{"channel":1,"nextOffset":17187,"note":33,"tick":65821,"time":85.70442708333333,"type":"noteOn","velocity":50},{"channel":2,"nextOffset":28732,"note":33,"tick":65909,"time":85.81901041666666,"type":"noteOff","velocity":0},{"channel":0,"nextOffset":3304,"note":69,"tick":65993,"time":85.92838541666666,"type":"noteOff","velocity":0},{"channel":0,"nextOffset":3308,"note":65,"tick":65993,"time":85.92838541666666,"type":"noteOff","velocity":0},{"channel":0,"nextOffset":3312,"note":62,"tick":65993,"time":85.92838541666666,"type":"noteOff","velocity":0},{"channel":0,"nextOffset":3316,"note":58,"tick":65993,"time":85.92838541666666,"type":"noteOff","velocity":0},{"channel":0,"nextOffset":3320,"note":43,"tick":65993,"time":85.92838541666666,"type":"noteOn","velocity":68},{"channel":1,"nextOffset":17192,"note":33,"tick":66013,"time":85.95442708333333,"type":"noteOff","velocity":0},{"channel":2,"nextOffset":28737,"note":33,"tick":66101,"time":86.06901041666666,"type":"noteOn","velocity":57},{"channel":0,"nextOffset":3325,"note":43,"tick":66185,"time":86.17838541666666,"type":"noteOff","velocity":0},{"channel":0,"nextOffset":3329,"note":44,"tick":66185,"time":86.17838541666666,"type":"noteOn","velocity":68},{"channel":0,"nextOffset":3333,"note":65,"tick":66185,"time":86.17838541666666,"type":"noteOn","velocity":68},{"channel":1,"nextOffset":17197,"note":33,"tick":66205,"time":86.20442708333333,"type":"noteOn","velocity":50},{"channel":0,"nextOffset":3337,"note":65,"tick":66281,"time":86.30338541666666,"type":"noteOff","velocity":0},{"channel":0,"nextOffset":3341,"note":69,"tick":66281,"time":86.30338541666666,"type":"noteOn","velocity":68},{"channel":2,"nextOffset":28742,"note":33,"tick":66293,"time":86.31901041666666,"type":"noteOff","velocity":0},{"channel":0,"nextOffset":3345,"note":44,"tick":66377,"time":86.42838541666666,"type":"noteOff","velocity":0},{"channel":0,"nextOffset":3349,"note":69,"tick":66377,"time":86.42838541666666,"type":"noteOff","velocity":0},{"channel":0,"nextOffset":3353,"note":45,"tick":66377,"time":86.42838541666666,"type":"noteOn","velocity":68},{"channel":0,"nextOffset":3357,"note":72,"tick":66377,"time":86.42838541666666,"type":"noteOn","velocity":68},{"channel":0,"nextOffset":3361,"note":67,"tick":66377,"time":86.42838541666666,"type":"noteOn","velocity":68},{"channel":0,"nextOffset":3365,"note":64,"tick":66377,"time":86.42838541666666,"type":"noteOn","velocity":68},{"channel":0,"nextOffset":3369,"note":60,"tick":66377,"time":86.42838541666666,"type":"noteOn","velocity":68},{"channel":1,"nextOffset":17202,"note":33,"tick":66397,"time":86.45442708333333,"type":"noteOff","velocity":0},{"channel":2,"nextOffset":28747,"note":36,"tick":66485,"time":86.56901041666666,"type":"noteOn","velocity":57},{"channel":0,"nextOffset":3374,"note":60,"tick":66569,"time":86.67838541666666,"type":"noteOff","velocity":0},{"channel":0,"nextOffset":3378,"note":64,"tick":66569,"time":86.67838541666666,"type":"noteOff","velocity":0},{"channel":0,"nextOffset":3382,"note":67,"tick":66569,"time":86.67838541666666,"type":"noteOff","velocity":0},{"channel":0,"nextOffset":3386,"note":72,"tick":66569,"time":86.67838541666666,"type":"noteOff","velocity":0},{"channel":0,"nextOffset":3390,"note":45,"tick":66569,"time":86.67838541666666,"type":"noteOff","velocity":0},{"channel":1,"nextOffset":17207,"note":36,"tick":66589,"time":86.70442708333333,"type":"noteOn","velocity":50},{"channel":2,"nextOffset":28752,"note":36,"tick":66677,"time":86.81901041666666,"type":"noteOff","velocity":0},{"channel":0,"nextOffset":3395,"note":67,"tick":66761,"time":86.92838541666666,"type":"noteOn","velocity":68},{"channel":0,"nextOffset":3399,"note":70,"tick":66761,"time":86.92838541666666,"type":"noteOn","velocity":68},{"channel":0,"nextOffset":3403,"note":73,"tick":66761,"time":86.92838541666666,"type":"noteOn","velocity":68},{"channel":0,"nextOffset":3407,"note":77,"tick":66761,"time":86.92838541666666,"type":"noteOn","velocity":68},{"channel":0,"nextOffset":3411,"note":39,"tick":66761,"time":86.92838541666666,"type":"noteOn","velocity":68},{"channel":1,"nextOffset":17212,"note":36,"tick":66781,"time":86.95442708333333,"type":"noteOff","velocity":0},{"channel":2,"nextOffset":28757,"note":33,"tick":66869,"time":87.06901041666666,"type":"noteOn","velocity":57},{"channel":0,"nextOffset":3416,"note":39,"tick":66953,"time":87.17838541666666,"type":"noteOff","velocity":0},{"channel":0,"nextOffset":3420,"note":77,"tick":66953,"time":87.17838541666666,"type":"noteOff","velocity":0},{"channel":0,"nextOffset":3424,"note":73,"tick":66953,"time":87.17838541666666,"type":"noteOff","velocity":0},{"channel":0,"nextOffset":3428,"note":70,"tick":66953,"time":87.17838541666666,"type":"noteOff","velocity":0},{"channel":0,"nextOffset":3432,"note":67,"tick":66953,"time":87.17838541666666,"type":"noteOff","velocity":0},{"channel":1,"nextOffset":17217,"note":33,"tick":66973,"time":87.20442708333333,"type":"noteOn","velocity":50},{"channel":2,"nextOffset":28762,"note":33,"tick":67061,"time":87.31901041666666,"type":"noteOff","velocity":0},{"channel":0,"nextOffset":3437,"note":65,"tick":67145,"time":87.42838541666666,"type":"noteOn","velocity":68},{"channel":0,"nextOffset":3441,"note":69,"tick":67145,"time":87.42838541666666,"type":"noteOn","velocity":68},{"channel":0,"nextOffset":3445,"note":72,"tick":67145,"time":87.42838541666666,"type":"noteOn","velocity":68},{"channel":0,"nextOffset":3449,"note":76,"tick":67145,"time":87.42838541666666,"type":"noteOn","velocity":68},{"channel":0,"nextOffset":3453,"note":38,"tick":67145,"time":87.42838541666666,"type":"noteOn","velocity":68},{"channel":1,"nextOffset":17222,"note":33,"tick":67165,"time":87.45442708333333,"type":"noteOff","velocity":0},{"channel":2,"nextOffset":28767,"note":29,"tick":67253,"time":87.56901041666666,"type":"noteOn","velocity":57},{"channel":0,"nextOffset":3458,"note":38,"tick":67337,"time":87.67838541666666,"type":"noteOff","velocity":0},{"channel":0,"nextOffset":3462,"note":76,"tick":67337,"time":87.67838541666666,"type":"noteOff","velocity":0},{"channel":0,"nextOffset":3466,"note":72,"tick":67337,"time":87.67838541666666,"type":"noteOff","velocity":0},{"channel":0,"nextOffset":3470,"note":69,"tick":67337,"time":87.67838541666666,"type":"noteOff","velocity":0},{"channel":0,"nextOffset":3474,"note":65,"tick":67337,"time":87.67838541666666,"type":"noteOff","velocity":0},{"channel":1,"nextOffset":17227,"note":29,"tick":67357,"time":87.70442708333333,"type":"noteOn","velocity":50},{"channel":2,"nextOffset":28772,"note":29,"tick":67445,"time":87.81901041666666,"type":"noteOff","velocity":0},{"channel":9,"nextOffset":37617,"note":44,"tick":67477,"time":87.86067708333333,"type":"noteOn","velocity":64},{"channel":9,"nextOffset":37621,"note":69,"tick":67477,"time":87.86067708333333,"type":"noteOn","velocity":64},{"channel":9,"nextOffset":37625,"note":69,"tick":67501,"time":87.89192708333333,"type":"noteOff","velocity":0},{"channel":9,"nextOffset":37629,"note":44,"tick":67501,"time":87.89192708333333,"type":"noteOff","velocity":0},{"channel":0,"nextOffset":3479,"note":72,"tick":67529,"time":87.92838541666666,"type":"noteOn","velocity":68},{"channel":1,"nextOffset":17232,"note":29,"tick":67549,"time":87.95442708333333,"type":"noteOff","velocity":0},{"channel":2,"nextOffset":28777,"note":35,"tick":67637,"time":88.06901041666666,"type":"noteOn","velocity":57},{"channel":0,"nextOffset":3484,"note":72,"tick":67721,"time":88.17838541666666,"type":"noteOff","velocity":0},{"channel":0,"nextOffset":3488,"note":69,"tick":67721,"time":88.17838541666666,"type":"noteOn","velocity":68},{"channel":0,"nextOffset":3492,"note":65,"tick":67721,"time":88.17838541666666,"type":"noteOn","velocity":68},{"channel":1,"nextOffset":17237,"note":35,"tick":67741,"time":88.20442708333333,"type":"noteOn","velocity":50},{"channel":2,"nextOffset":28782,"note":35,"tick":67829,"time":88.31901041666666,"type":"noteOff","velocity":0},{"channel":0,"nextOffset":3497,"note":65,"tick":67913,"time":88.42838541666666,"type":"noteOff","velocity":0},{"channel":0,"nextOffset":3501,"note":69,"tick":67913,"time":88.42838541666666,"type":"noteOff","velocity":0},{"channel":0,"nextOffset":3505,"note":67,"tick":67913,"time":88.42838541666666,"type":"noteOn","velocity":68},{"channel":0,"nextOffset":3509,"note":64,"tick":67913,"time":88.42838541666666,"type":"noteOn","velocity":68},{"channel":0,"nextOffset":3513,"note":36,"tick":67913,"time":88.42838541666666,"type":"noteOn","velocity":68},{"channel":1,"nextOffset":17242,"note":35,"tick":67933,"time":88.45442708333333,"type":"noteOff","velocity":0},{"channel":2,"nextOffset":28787,"note":33,"tick":68021,"time":88.56901041666666,"type":"noteOn","velocity":57},{"channel":9,"nextOffset":33195,"note":42,"tick":68064,"time":88.62499999999999,"type":"noteOn","velocity":50},{"channel":0,"nextOffset":3518,"note":64,"tick":68105,"time":88.67838541666666,"type":"noteOff","velocity":0},{"channel":0,"nextOffset":3522,"note":67,"tick":68105,"time":88.67838541666666,"type":"noteOff","velocity":0},{"channel":0,"nextOffset":3526,"note":65,"tick":68105,"time":88.67838541666666,"type":"noteOn","velocity":68},{"channel":0,"nextOffset":3530,"note":62,"tick":68105,"time":88.67838541666666,"type":"noteOn","velocity":68},{"channel":1,"nextOffset":17247,"note":33,"tick":68125,"time":88.70442708333333,"type":"noteOn","velocity":50},{"channel":9,"nextOffset":33199,"note":42,"tick":68160,"time":88.74999999999999,"type":"noteOff","velocity":0},{"channel":9,"nextOffset":33203,"note":42,"tick":68160,"time":88.74999999999999,"type":"noteOn","velocity":50},{"channel":2,"nextOffset":28792,"note":33,"tick":68213,"time":88.81901041666666,"type":"noteOff","velocity":0},{"channel":9,"nextOffset":33207,"note":42,"tick":68256,"time":88.87499999999999,"type":"noteOff","velocity":0},{"channel":0,"nextOffset":3535,"note":36,"tick":68297,"time":88.92838541666666,"type":"noteOff","velocity":0},{"channel":0,"nextOffset":3539,"note":62,"tick":68297,"time":88.92838541666666,"type":"noteOff","velocity":0},{"channel":0,"nextOffset":3543,"note":65,"tick":68297,"time":88.92838541666666,"type":"noteOff","velocity":0},{"channel":0,"nextOffset":3547,"note":64,"tick":68297,"time":88.92838541666666,"type":"noteOn","velocity":68},{"channel":0,"nextOffset":3551,"note":60,"tick":68297,"time":88.92838541666666,"type":"noteOn","velocity":68},{"channel":0,"nextOffset":3555,"note":41,"tick":68297,"time":88.92838541666666,"type":"noteOn","velocity":68},{"channel":1,"nextOffset":17252,"note":33,"tick":68317,"time":88.95442708333333,"type":"noteOff","velocity":0},{"channel":2,"nextOffset":28797,"note":33,"tick":68405,"time":89.06901041666666,"type":"noteOn","velocity":57},{"channel":9,"nextOffset":33212,"note":42,"tick":68448,"time":89.12499999999999,"type":"noteOn","velocity":50},{"channel":0,"nextOffset":3560,"note":60,"tick":68489,"time":89.17838541666666,"type":"noteOff","velocity":0},{"channel":0,"nextOffset":3564,"note":64,"tick":68489,"time":89.17838541666666,"type":"noteOff","velocity":0},{"channel":0,"nextOffset":3568,"note":60,"tick":68489,"time":89.17838541666666,"type":"noteOn","velocity":68},{"channel":0,"nextOffset":3572,"note":57,"tick":68489,"time":89.17838541666666,"type":"noteOn","velocity":68},{"channel":1,"nextOffset":17257,"note":33,"tick":68509,"time":89.20442708333333,"type":"noteOn","velocity":50},{"channel":9,"nextOffset":33216,"note":42,"tick":68544,"time":89.24999999999999,"type":"noteOff","velocity":0},{"channel":9,"nextOffset":33220,"note":42,"tick":68544,"time":89.24999999999999,"type":"noteOn","velocity":50},{"channel":2,"nextOffset":28802,"note":33,"tick":68597,"time":89.31901041666666,"type":"noteOff","velocity":0},{"channel":2,"nextOffset":28806,"note":40,"tick":68597,"time":89.31901041666666,"type":"noteOn","velocity":57},{"channel":9,"nextOffset":33224,"note":42,"tick":68640,"time":89.37499999999999,"type":"noteOff","velocity":0},{"channel":0,"nextOffset":3577,"note":41,"tick":68681,"time":89.42838541666666,"type":"noteOff","velocity":0},{"channel":0,"nextOffset":3581,"note":57,"tick":68681,"time":89.42838541666666,"type":"noteOff","velocity":0},{"channel":0,"nextOffset":3585,"note":60,"tick":68681,"time":89.42838541666666,"type":"noteOff","velocity":0},{"channel":0,"nextOffset":3589,"note":34,"tick":68681,"time":89.42838541666666,"type":"noteOn","velocity":68},{"channel":1,"nextOffset":17262,"note":33,"tick":68701,"time":89.45442708333333,"type":"noteOff","velocity":0},{"channel":1,"nextOffset":17266,"note":40,"tick":68701,"time":89.45442708333333,"type":"noteOn","velocity":50},{"channel":2,"nextOffset":28811,"note":40,"tick":68789,"time":89.56901041666666,"type":"noteOff","velocity":0},{"channel":2,"nextOffset":28815,"note":45,"tick":68789,"time":89.56901041666666,"type":"noteOn","velocity":57},{"channel":9,"nextOffset":33229,"note":42,"tick":68832,"time":89.62499999999999,"type":"noteOn","velocity":50},{"channel":0,"nextOffset":3594,"note":57,"tick":68873,"time":89.67838541666666,"type":"noteOn","velocity":68},{"channel":0,"nextOffset":3598,"note":53,"tick":68873,"time":89.67838541666666,"type":"noteOn","velocity":68},{"channel":1,"nextOffset":17271,"note":40,"tick":68893,"time":89.70442708333333,"type":"noteOff","velocity":0},{"channel":1,"nextOffset":17275,"note":45,"tick":68893,"time":89.70442708333333,"type":"noteOn","velocity":50},{"channel":9,"nextOffset":33233,"note":42,"tick":68928,"time":89.74999999999999,"type":"noteOff","velocity":0},{"channel":2,"nextOffset":28820,"note":45,"tick":68981,"time":89.81901041666666,"type":"noteOff","velocity":0},{"channel":2,"nextOffset":28824,"note":33,"tick":68981,"time":89.81901041666666,"type":"noteOn","velocity":57},{"channel":0,"nextOffset":3603,"note":34,"tick":69065,"time":89.92838541666666,"type":"noteOff","velocity":0},{"channel":0,"nextOffset":3607,"note":53,"tick":69065,"time":89.92838541666666,"type":"noteOff","velocity":0},{"channel":0,"nextOffset":3611,"note":57,"tick":69065,"time":89.92838541666666,"type":"noteOff","velocity":0},{"channel":0,"nextOffset":3615,"note":58,"tick":69065,"time":89.92838541666666,"type":"noteOn","velocity":68},{"channel":0,"nextOffset":3619,"note":55,"tick":69065,"time":89.92838541666666,"type":"noteOn","velocity":68},{"channel":0,"nextOffset":3623,"note":38,"tick":69065,"time":89.92838541666666,"type":"noteOn","velocity":68},{"channel":1,"nextOffset":17280,"note":45,"tick":69085,"time":89.95442708333333,"type":"noteOff","velocity":0},{"channel":1,"nextOffset":17284,"note":33,"tick":69085,"time":89.95442708333333,"type":"noteOn","velocity":50},{"channel":9,"nextOffset":33238,"note":42,"tick":69120,"time":89.99999999999999,"type":"noteOn","velocity":50},{"channel":2,"nextOffset":28829,"note":33,"tick":69173,"time":90.06901041666666,"type":"noteOff","velocity":0},{"channel":2,"nextOffset":28833,"note":36,"tick":69173,"time":90.06901041666666,"type":"noteOn","velocity":57},{"channel":9,"nextOffset":33242,"note":42,"tick":69216,"time":90.12499999999999,"type":"noteOff","velocity":0},{"channel":9,"nextOffset":33246,"note":42,"tick":69216,"time":90.12499999999999,"type":"noteOn","velocity":50},{"channel":9,"nextOffset":33250,"note":42,"tick":69240,"time":90.15624999999999,"type":"noteOff","velocity":0},{"channel":0,"nextOffset":3628,"note":55,"tick":69257,"time":90.17838541666666,"type":"noteOff","velocity":0},{"channel":0,"nextOffset":3632,"note":58,"tick":69257,"time":90.17838541666666,"type":"noteOff","velocity":0},{"channel":0,"nextOffset":3636,"note":60,"tick":69257,"time":90.17838541666666,"type":"noteOn","velocity":68},{"channel":0,"nextOffset":3640,"note":57,"tick":69257,"time":90.17838541666666,"type":"noteOn","velocity":68},{"channel":9,"nextOffset":33254,"note":42,"tick":69264,"time":90.18749999999999,"type":"noteOn","velocity":50},{"channel":1,"nextOffset":17289,"note":33,"tick":69277,"time":90.20442708333333,"type":"noteOff","velocity":0},{"channel":1,"nextOffset":17293,"note":36,"tick":69277,"time":90.20442708333333,"type":"noteOn","velocity":50},{"channel":9,"nextOffset":33258,"note":42,"tick":69288,"time":90.21874999999999,"type":"noteOff","velocity":0},{"channel":9,"nextOffset":33262,"note":42,"tick":69312,"time":90.24999999999999,"type":"noteOn","velocity":50},{"channel":9,"nextOffset":33266,"note":42,"tick":69336,"time":90.28124999999999,"type":"noteOff","velocity":0},{"channel":9,"nextOffset":33270,"note":42,"tick":69360,"time":90.31249999999999,"type":"noteOn","velocity":50},{"channel":2,"nextOffset":28838,"note":36,"tick":69365,"time":90.31901041666666,"type":"noteOff","velocity":0},{"channel":2,"nextOffset":28842,"note":40,"tick":69365,"time":90.31901041666666,"type":"noteOn","velocity":57},{"channel":2,"nextOffset":28846,"note":40,"tick":69365,"time":90.31901041666666,"type":"noteOn","velocity":57},{"channel":9,"nextOffset":33274,"note":42,"tick":69384,"time":90.34374999999999,"type":"noteOff","velocity":0},{"channel":9,"nextOffset":33278,"note":42,"tick":69408,"time":90.37499999999999,"type":"noteOn","velocity":50},{"channel":9,"nextOffset":33282,"note":42,"tick":69432,"time":90.40624999999999,"type":"noteOff","velocity":0},{"channel":0,"nextOffset":3645,"note":38,"tick":69449,"time":90.42838541666666,"type":"noteOff","velocity":0},{"channel":0,"nextOffset":3649,"note":57,"tick":69449,"time":90.42838541666666,"type":"noteOff","velocity":0},{"channel":0,"nextOffset":3653,"note":60,"tick":69449,"time":90.42838541666666,"type":"noteOff","velocity":0},{"channel":0,"nextOffset":3657,"note":62,"tick":69449,"time":90.42838541666666,"type":"noteOn","velocity":68},{"channel":0,"nextOffset":3661,"note":58,"tick":69449,"time":90.42838541666666,"type":"noteOn","velocity":68},{"channel":0,"nextOffset":3665,"note":40,"tick":69449,"time":90.42838541666666,"type":"noteOn","velocity":68},{"channel":1,"nextOffset":17298,"note":36,"tick":69469,"time":90.45442708333333,"type":"noteOff","velocity":0},{"channel":2,"nextOffset":28851,"note":40,"tick":69557,"time":90.56901041666666,"type":"noteOff","velocity":0},{"channel":2,"nextOffset":28855,"note":40,"tick":69557,"time":90.56901041666666,"type":"noteOff","velocity":0},{"channel":2,"nextOffset":28859,"note":31,"tick":69557,"time":90.56901041666666,"type":"noteOn","velocity":57},{"channel":9,"nextOffset":33287,"note":42,"tick":69600,"time":90.62499999999999,"type":"noteOn","velocity":50},{"channel":0,"nextOffset":3670,"note":58,"tick":69641,"time":90.67838541666666,"type":"noteOff","velocity":0},{"channel":0,"nextOffset":3674,"note":62,"tick":69641,"time":90.67838541666666,"type":"noteOff","velocity":0},{"channel":0,"nextOffset":3678,"note":64,"tick":69641,"time":90.67838541666666,"type":"noteOn","velocity":68},{"channel":0,"nextOffset":3682,"note":60,"tick":69641,"time":90.67838541666666,"type":"noteOn","velocity":68},{"channel":1,"nextOffset":17303,"note":31,"tick":69661,"time":90.70442708333333,"type":"noteOn","velocity":50},{"channel":9,"nextOffset":33291,"note":42,"tick":69696,"time":90.74999999999999,"type":"noteOff","velocity":0},{"channel":9,"nextOffset":33295,"note":42,"tick":69696,"time":90.74999999999999,"type":"noteOn","velocity":50},{"channel":2,"nextOffset":28864,"note":31,"tick":69749,"time":90.81901041666666,"type":"noteOff","velocity":0},{"channel":9,"nextOffset":33299,"note":42,"tick":69792,"time":90.87499999999999,"type":"noteOff","velocity":0},{"channel":0,"nextOffset":3687,"note":40,"tick":69833,"time":90.92838541666666,"type":"noteOff","velocity":0},{"channel":0,"nextOffset":3691,"note":60,"tick":69833,"time":90.92838541666666,"type":"noteOff","velocity":0},{"channel":0,"nextOffset":3695,"note":64,"tick":69833,"time":90.92838541666666,"type":"noteOff","velocity":0},{"channel":0,"nextOffset":3699,"note":65,"tick":69833,"time":90.92838541666666,"type":"noteOn","velocity":68},{"channel":0,"nextOffset":3703,"note":62,"tick":69833,"time":90.92838541666666,"type":"noteOn","velocity":68},{"channel":0,"nextOffset":3707,"note":43,"tick":69833,"time":90.92838541666666,"type":"noteOn","velocity":68},{"channel":1,"nextOffset":17308,"note":31,"tick":69853,"time":90.95442708333333,"type":"noteOff","velocity":0},{"channel":2,"nextOffset":28869,"note":31,"tick":69941,"time":91.06901041666666,"type":"noteOn","velocity":57},{"channel":9,"nextOffset":33304,"note":42,"tick":69984,"time":91.12499999999999,"type":"noteOn","velocity":50},{"channel":0,"nextOffset":3712,"note":62,"tick":70025,"time":91.17838541666666,"type":"noteOff","velocity":0},{"channel":0,"nextOffset":3716,"note":65,"tick":70025,"time":91.17838541666666,"type":"noteOff","velocity":0},{"channel":0,"nextOffset":3720,"note":67,"tick":70025,"time":91.17838541666666,"type":"noteOn","velocity":68},{"channel":0,"nextOffset":3724,"note":64,"tick":70025,"time":91.17838541666666,"type":"noteOn","velocity":68},{"channel":1,"nextOffset":17313,"note":31,"tick":70045,"time":91.20442708333333,"type":"noteOn","velocity":50},{"channel":9,"nextOffset":33308,"note":42,"tick":70080,"time":91.24999999999999,"type":"noteOff","velocity":0},{"channel":9,"nextOffset":33312,"note":42,"tick":70080,"time":91.24999999999999,"type":"noteOn","velocity":50},{"channel":2,"nextOffset":28874,"note":31,"tick":70133,"time":91.31901041666666,"type":"noteOff","velocity":0},{"channel":2,"nextOffset":28878,"note":32,"tick":70133,"time":91.31901041666666,"type":"noteOn","velocity":57},{"channel":9,"nextOffset":33316,"note":42,"tick":70176,"time":91.37499999999999,"type":"noteOff","velocity":0},{"channel":0,"nextOffset":3729,"note":43,"tick":70217,"time":91.42838541666666,"type":"noteOff","velocity":0},{"channel":0,"nextOffset":3733,"note":64,"tick":70217,"time":91.42838541666666,"type":"noteOff","velocity":0},{"channel":0,"nextOffset":3737,"note":67,"tick":70217,"time":91.42838541666666,"type":"noteOff","velocity":0},{"channel":0,"nextOffset":3741,"note":64,"tick":70217,"time":91.42838541666666,"type":"noteOn","velocity":68},{"channel":0,"nextOffset":3745,"note":61,"tick":70217,"time":91.42838541666666,"type":"noteOn","velocity":68},{"channel":0,"nextOffset":3749,"note":45,"tick":70217,"time":91.42838541666666,"type":"noteOn","velocity":68},{"channel":1,"nextOffset":17318,"note":31,"tick":70237,"time":91.45442708333333,"type":"noteOff","velocity":0},{"channel":1,"nextOffset":17322,"note":32,"tick":70237,"time":91.45442708333333,"type":"noteOn","velocity":50},{"channel":2,"nextOffset":28883,"note":32,"tick":70325,"time":91.56901041666666,"type":"noteOff","velocity":0},{"channel":2,"nextOffset":28887,"note":33,"tick":70325,"time":91.56901041666666,"type":"noteOn","velocity":57},{"channel":9,"nextOffset":33321,"note":42,"tick":70368,"time":91.62499999999999,"type":"noteOn","velocity":50},{"channel":0,"nextOffset":3754,"note":45,"tick":70409,"time":91.67838541666666,"type":"noteOff","velocity":0},{"channel":0,"nextOffset":3758,"note":61,"tick":70409,"time":91.67838541666666,"type":"noteOff","velocity":0},{"channel":0,"nextOffset":3762,"note":64,"tick":70409,"time":91.67838541666666,"type":"noteOff","velocity":0},{"channel":0,"nextOffset":3766,"note":45,"tick":70409,"time":91.67838541666666,"type":"noteOn","velocity":68},{"channel":1,"nextOffset":17327,"note":32,"tick":70429,"time":91.70442708333333,"type":"noteOff","velocity":0},{"channel":1,"nextOffset":17331,"note":33,"tick":70429,"time":91.70442708333333,"type":"noteOn","velocity":50},{"channel":0,"nextOffset":3770,"note":45,"tick":70457,"time":91.74088541666666,"type":"noteOff","velocity":0},{"channel":9,"nextOffset":33325,"note":42,"tick":70464,"time":91.74999999999999,"type":"noteOff","velocity":0},{"channel":0,"nextOffset":3774,"note":45,"tick":70505,"time":91.80338541666666,"type":"noteOn","velocity":68},{"channel":2,"nextOffset":28892,"note":33,"tick":70517,"time":91.81901041666666,"type":"noteOff","velocity":0},{"channel":0,"nextOffset":3778,"note":45,"tick":70553,"time":91.86588541666666,"type":"noteOff","velocity":0},{"channel":0,"nextOffset":3782,"note":61,"tick":70601,"time":91.92838541666666,"type":"noteOn","velocity":68},{"channel":0,"nextOffset":3786,"note":64,"tick":70601,"time":91.92838541666666,"type":"noteOn","velocity":68},{"channel":0,"nextOffset":3790,"note":69,"tick":70601,"time":91.92838541666666,"type":"noteOn","velocity":68},{"channel":0,"nextOffset":3794,"note":45,"tick":70601,"time":91.92838541666666,"type":"noteOn","velocity":68},{"channel":2,"nextOffset":28896,"note":33,"tick":70613,"time":91.94401041666666,"type":"noteOn","velocity":57},{"channel":1,"nextOffset":17336,"note":33,"tick":70621,"time":91.95442708333333,"type":"noteOff","velocity":0},{"channel":9,"nextOffset":33330,"note":42,"tick":70656,"time":91.99999999999999,"type":"noteOn","velocity":50},{"channel":2,"nextOffset":28900,"note":33,"tick":70709,"time":92.06901041666666,"type":"noteOff","velocity":0},{"channel":1,"nextOffset":17340,"note":33,"tick":70717,"time":92.07942708333333,"type":"noteOn","velocity":50},{"channel":9,"nextOffset":33334,"note":42,"tick":70752,"time":92.12499999999999,"type":"noteOff","velocity":0},{"channel":9,"nextOffset":33338,"note":42,"tick":70752,"time":92.12499999999999,"type":"noteOn","velocity":50},{"channel":9,"nextOffset":33342,"note":42,"tick":70776,"time":92.15624999999999,"type":"noteOff","velocity":0},{"channel":0,"nextOffset":3799,"note":45,"tick":70793,"time":92.17838541666666,"type":"noteOff","velocity":0},{"channel":0,"nextOffset":3803,"note":69,"tick":70793,"time":92.17838541666666,"type":"noteOff","velocity":0},{"channel":0,"nextOffset":3807,"note":64,"tick":70793,"time":92.17838541666666,"type":"noteOff","velocity":0},{"channel":0,"nextOffset":3811,"note":61,"tick":70793,"time":92.17838541666666,"type":"noteOff","velocity":0},{"channel":0,"nextOffset":3815,"note":33,"tick":70793,"time":92.17838541666666,"type":"noteOn","velocity":68},{"channel":9,"nextOffset":33346,"note":42,"tick":70800,"time":92.18749999999999,"type":"noteOn","velocity":50},{"channel":1,"nextOffset":17344,"note":33,"tick":70813,"time":92.20442708333333,"type":"noteOff","velocity":0},{"channel":9,"nextOffset":33350,"note":42,"tick":70824,"time":92.21874999999999,"type":"noteOff","velocity":0},{"channel":9,"nextOffset":33354,"note":42,"tick":70848,"time":92.24999999999999,"type":"noteOn","velocity":50},{"channel":9,"nextOffset":33358,"note":42,"tick":70872,"time":92.28124999999999,"type":"noteOff","velocity":0},{"channel":9,"nextOffset":33362,"note":42,"tick":70896,"time":92.31249999999999,"type":"noteOn","velocity":50},{"channel":2,"nextOffset":28905,"note":26,"tick":70901,"time":92.31901041666666,"type":"noteOn","velocity":57},{"channel":9,"nextOffset":33366,"note":42,"tick":70920,"time":92.34374999999999,"type":"noteOff","velocity":0},{"channel":9,"nextOffset":33370,"note":42,"tick":70944,"time":92.37499999999999,"type":"noteOn","velocity":50},{"channel":9,"nextOffset":33374,"note":42,"tick":70968,"time":92.40624999999999,"type":"noteOff","velocity":0},{"channel":0,"nextOffset":3820,"note":33,"tick":70985,"time":92.42838541666666,"type":"noteOff","velocity":0},{"channel":0,"nextOffset":3824,"note":73,"tick":70985,"time":92.42838541666666,"type":"noteOn","velocity":68},{"channel":0,"nextOffset":3828,"note":76,"tick":70985,"time":92.42838541666666,"type":"noteOn","velocity":68},{"channel":0,"nextOffset":3832,"note":81,"tick":70985,"time":92.42838541666666,"type":"noteOn","velocity":68},{"channel":0,"nextOffset":3836,"note":45,"tick":70985,"time":92.42838541666666,"type":"noteOn","velocity":68},{"channel":1,"nextOffset":17349,"note":26,"tick":71005,"time":92.45442708333333,"type":"noteOn","velocity":50},{"channel":2,"nextOffset":28910,"note":26,"tick":71093,"time":92.56901041666666,"type":"noteOff","velocity":0},{"channel":9,"nextOffset":33379,"note":42,"tick":71136,"time":92.62499999999999,"type":"noteOn","velocity":50},{"channel":0,"nextOffset":3841,"note":45,"tick":71177,"time":92.67838541666666,"type":"noteOff","velocity":0},{"channel":0,"nextOffset":3845,"note":81,"tick":71177,"time":92.67838541666666,"type":"noteOff","velocity":0},{"channel":0,"nextOffset":3849,"note":76,"tick":71177,"time":92.67838541666666,"type":"noteOff","velocity":0},{"channel":0,"nextOffset":3853,"note":73,"tick":71177,"time":92.67838541666666,"type":"noteOff","velocity":0},{"channel":0,"nextOffset":3857,"note":33,"tick":71177,"time":92.67838541666666,"type":"noteOn","velocity":68},{"channel":0,"nextOffset":3861,"note":45,"tick":71177,"time":92.67838541666666,"type":"noteOn","velocity":68},{"channel":1,"nextOffset":17354,"note":26,"tick":71197,"time":92.70442708333333,"type":"noteOff","velocity":0},{"channel":9,"nextOffset":33383,"note":42,"tick":71232,"time":92.74999999999999,"type":"noteOff","velocity":0},{"channel":9,"nextOffset":33387,"note":42,"tick":71232,"time":92.74999999999999,"type":"noteOn","velocity":50},{"channel":2,"nextOffset":28915,"note":38,"tick":71285,"time":92.81901041666666,"type":"noteOn","velocity":57},{"channel":9,"nextOffset":33391,"note":42,"tick":71328,"time":92.87499999999999,"type":"noteOff","velocity":0},{"channel":0,"nextOffset":3866,"note":45,"tick":71369,"time":92.92838541666666,"type":"noteOff","velocity":0},{"channel":0,"nextOffset":3870,"note":33,"tick":71369,"time":92.92838541666666,"type":"noteOff","velocity":0},{"channel":0,"nextOffset":3874,"note":45,"tick":71369,"time":92.92838541666666,"type":"noteOn","velocity":68},{"channel":0,"nextOffset":3878,"note":61,"tick":71369,"time":92.92838541666666,"type":"noteOn","velocity":68},{"channel":0,"nextOffset":3882,"note":67,"tick":71369,"time":92.92838541666666,"type":"noteOn","velocity":68},{"channel":0,"nextOffset":3886,"note":72,"tick":71369,"time":92.92838541666666,"type":"noteOn","velocity":68},{"channel":0,"nextOffset":3890,"note":33,"tick":71369,"time":92.92838541666666,"type":"noteOn","velocity":68},{"channel":1,"nextOffset":17359,"note":38,"tick":71389,"time":92.95442708333333,"type":"noteOn","velocity":50},{"channel":2,"nextOffset":28920,"note":38,"tick":71477,"time":93.06901041666666,"type":"noteOff","velocity":0},{"channel":2,"nextOffset":28924,"note":26,"tick":71477,"time":93.06901041666666,"type":"noteOn","velocity":57},{"channel":9,"nextOffset":33396,"note":42,"tick":71520,"time":93.12499999999999,"type":"noteOn","velocity":50},{"channel":0,"nextOffset":3895,"note":33,"tick":71561,"time":93.17838541666666,"type":"noteOff","velocity":0},{"channel":0,"nextOffset":3899,"note":72,"tick":71561,"time":93.17838541666666,"type":"noteOff","velocity":0},{"channel":0,"nextOffset":3903,"note":67,"tick":71561,"time":93.17838541666666,"type":"noteOff","velocity":0},{"channel":0,"nextOffset":3907,"note":61,"tick":71561,"time":93.17838541666666,"type":"noteOff","velocity":0},{"channel":0,"nextOffset":3911,"note":45,"tick":71561,"time":93.17838541666666,"type":"noteOff","velocity":0},{"channel":0,"nextOffset":3915,"note":71,"tick":71561,"time":93.17838541666666,"type":"noteOn","velocity":68},{"channel":0,"nextOffset":3919,"note":33,"tick":71561,"time":93.17838541666666,"type":"noteOn","velocity":68},{"channel":1,"nextOffset":17364,"note":38,"tick":71581,"time":93.20442708333333,"type":"noteOff","velocity":0},{"channel":1,"nextOffset":17368,"note":26,"tick":71581,"time":93.20442708333333,"type":"noteOn","velocity":50},{"channel":9,"nextOffset":33400,"note":42,"tick":71616,"time":93.24999999999999,"type":"noteOff","velocity":0},{"channel":9,"nextOffset":33404,"note":42,"tick":71616,"time":93.24999999999999,"type":"noteOn","velocity":50},{"channel":0,"nextOffset":3923,"note":71,"tick":71657,"time":93.30338541666666,"type":"noteOff","velocity":0},{"channel":0,"nextOffset":3927,"note":70,"tick":71657,"time":93.30338541666666,"type":"noteOn","velocity":68},{"channel":2,"nextOffset":28929,"note":26,"tick":71669,"time":93.31901041666666,"type":"noteOff","velocity":0},{"channel":2,"nextOffset":28933,"note":33,"tick":71669,"time":93.31901041666666,"type":"noteOn","velocity":57},{"channel":9,"nextOffset":21317,"note":35,"tick":71678,"time":93.33072916666666,"type":"noteOn","velocity":50},{"channel":9,"nextOffset":33408,"note":42,"tick":71712,"time":93.37499999999999,"type":"noteOff","velocity":0},{"channel":9,"nextOffset":45601,"note":42,"tick":71744,"time":93.41666666666666,"type":"noteOn","velocity":50},{"channel":0,"nextOffset":3931,"note":33,"tick":71753,"time":93.42838541666666,"type":"noteOff","velocity":0},{"channel":0,"nextOffset":3935,"note":70,"tick":71753,"time":93.42838541666666,"type":"noteOff","velocity":0},{"channel":0,"nextOffset":3939,"note":58,"tick":71753,"time":93.42838541666666,"type":"noteOn","velocity":68},{"channel":0,"nextOffset":3943,"note":62,"tick":71753,"time":93.42838541666666,"type":"noteOn","velocity":68},{"channel":0,"nextOffset":3947,"note":65,"tick":71753,"time":93.42838541666666,"type":"noteOn","velocity":68},{"channel":0,"nextOffset":3951,"note":69,"tick":71753,"time":93.42838541666666,"type":"noteOn","velocity":68},{"channel":0,"nextOffset":3955,"note":31,"tick":71753,"time":93.42838541666666,"type":"noteOn","velocity":68},{"channel":1,"nextOffset":17373,"note":26,"tick":71773,"time":93.45442708333333,"type":"noteOff","velocity":0},{"channel":1,"nextOffset":17377,"note":33,"tick":71773,"time":93.45442708333333,"type":"noteOn","velocity":50},{"channel":9,"nextOffset":21321,"note":35,"tick":71774,"time":93.45572916666666,"type":"noteOff","velocity":0},{"channel":9,"nextOffset":25123,"note":35,"tick":71782,"time":93.46614583333333,"type":"noteOn","velocity":50},{"channel":9,"nextOffset":45605,"note":42,"tick":71840,"time":93.54166666666666,"type":"noteOff","velocity":0},{"channel":9,"nextOffset":45609,"note":42,"tick":71840,"time":93.54166666666666,"type":"noteOn","velocity":50},{"channel":2,"nextOffset":28938,"note":33,"tick":71861,"time":93.56901041666666,"type":"noteOff","velocity":0},{"channel":9,"nextOffset":25127,"note":35,"tick":71878,"time":93.59114583333333,"type":"noteOff","velocity":0},{"channel":9,"nextOffset":33413,"note":42,"tick":71904,"time":93.62499999999999,"type":"noteOn","velocity":50},{"channel":9,"nextOffset":45613,"note":42,"tick":71936,"time":93.66666666666666,"type":"noteOff","velocity":0},{"channel":0,"nextOffset":3960,"note":31,"tick":71945,"time":93.67838541666666,"type":"noteOff","velocity":0},{"channel":1,"nextOffset":17382,"note":33,"tick":71965,"time":93.70442708333333,"type":"noteOff","velocity":0},{"channel":9,"nextOffset":33417,"note":42,"tick":72000,"time":93.74999999999999,"type":"noteOff","velocity":0},{"channel":2,"nextOffset":28943,"note":26,"tick":72053,"time":93.81901041666666,"type":"noteOn","velocity":57},{"channel":9,"nextOffset":21326,"note":35,"tick":72062,"time":93.83072916666666,"type":"noteOn","velocity":50},{"channel":9,"nextOffset":45618,"note":42,"tick":72128,"time":93.91666666666666,"type":"noteOn","velocity":50},{"channel":0,"nextOffset":3965,"note":69,"tick":72137,"time":93.92838541666666,"type":"noteOff","velocity":0},{"channel":0,"nextOffset":3969,"note":65,"tick":72137,"time":93.92838541666666,"type":"noteOff","velocity":0},{"channel":0,"nextOffset":3973,"note":62,"tick":72137,"time":93.92838541666666,"type":"noteOff","velocity":0},{"channel":0,"nextOffset":3977,"note":58,"tick":72137,"time":93.92838541666666,"type":"noteOff","velocity":0},{"channel":0,"nextOffset":3981,"note":31,"tick":72137,"time":93.92838541666666,"type":"noteOn","velocity":68},{"channel":1,"nextOffset":17387,"note":26,"tick":72157,"time":93.95442708333333,"type":"noteOn","velocity":50},{"channel":9,"nextOffset":21330,"note":35,"tick":72158,"time":93.95572916666666,"type":"noteOff","velocity":0},{"channel":9,"nextOffset":25132,"note":35,"tick":72166,"time":93.96614583333333,"type":"noteOn","velocity":50},{"channel":9,"nextOffset":33422,"note":42,"tick":72192,"time":93.99999999999999,"type":"noteOn","velocity":50},{"channel":9,"nextOffset":45622,"note":42,"tick":72224,"time":94.04166666666666,"type":"noteOff","velocity":0},{"channel":9,"nextOffset":45626,"note":42,"tick":72224,"time":94.04166666666666,"type":"noteOn","velocity":50},{"channel":2,"nextOffset":28948,"note":26,"tick":72245,"time":94.06901041666666,"type":"noteOff","velocity":0},{"channel":2,"nextOffset":28952,"note":33,"tick":72245,"time":94.06901041666666,"type":"noteOn","velocity":57},{"channel":9,"nextOffset":25136,"note":35,"tick":72262,"time":94.09114583333333,"type":"noteOff","velocity":0},{"channel":9,"nextOffset":33426,"note":42,"tick":72288,"time":94.12499999999999,"type":"noteOff","velocity":0},{"channel":9,"nextOffset":33430,"note":42,"tick":72288,"time":94.12499999999999,"type":"noteOn","velocity":50},{"channel":9,"nextOffset":33434,"note":42,"tick":72312,"time":94.15624999999999,"type":"noteOff","velocity":0},{"channel":9,"nextOffset":45630,"note":42,"tick":72320,"time":94.16666666666666,"type":"noteOff","velocity":0},{"channel":0,"nextOffset":3986,"note":31,"tick":72329,"time":94.17838541666666,"type":"noteOff","velocity":0},{"channel":9,"nextOffset":33438,"note":42,"tick":72336,"time":94.18749999999999,"type":"noteOn","velocity":50},{"channel":1,"nextOffset":17392,"note":26,"tick":72349,"time":94.20442708333333,"type":"noteOff","velocity":0},{"channel":1,"nextOffset":17396,"note":33,"tick":72349,"time":94.20442708333333,"type":"noteOn","velocity":50},{"channel":9,"nextOffset":33442,"note":42,"tick":72360,"time":94.21874999999999,"type":"noteOff","velocity":0},{"channel":9,"nextOffset":33446,"note":42,"tick":72384,"time":94.24999999999999,"type":"noteOn","velocity":50},{"channel":9,"nextOffset":33450,"note":42,"tick":72408,"time":94.28124999999999,"type":"noteOff","velocity":0},{"channel":9,"nextOffset":33454,"note":42,"tick":72432,"time":94.31249999999999,"type":"noteOn","velocity":50},{"channel":2,"nextOffset":28957,"note":33,"tick":72437,"time":94.31901041666666,"type":"noteOff","velocity":0},{"channel":2,"nextOffset":28961,"note":32,"tick":72437,"time":94.31901041666666,"type":"noteOn","velocity":57},{"channel":9,"nextOffset":21335,"note":35,"tick":72446,"time":94.33072916666666,"type":"noteOn","velocity":50},{"channel":9,"nextOffset":33458,"note":42,"tick":72456,"time":94.34374999999999,"type":"noteOff","velocity":0},{"channel":9,"nextOffset":33462,"note":42,"tick":72480,"time":94.37499999999999,"type":"noteOn","velocity":50},{"channel":9,"nextOffset":33466,"note":42,"tick":72504,"time":94.40624999999999,"type":"noteOff","velocity":0},{"channel":9,"nextOffset":45635,"note":42,"tick":72512,"time":94.41666666666666,"type":"noteOn","velocity":50},{"channel":0,"nextOffset":3991,"note":72,"tick":72521,"time":94.42838541666666,"type":"noteOn","velocity":68},{"channel":0,"nextOffset":3995,"note":67,"tick":72521,"time":94.42838541666666,"type":"noteOn","velocity":68},{"channel":0,"nextOffset":3999,"note":64,"tick":72521,"time":94.42838541666666,"type":"noteOn","velocity":68},{"channel":0,"nextOffset":4003,"note":60,"tick":72521,"time":94.42838541666666,"type":"noteOn","velocity":68},{"channel":0,"nextOffset":4007,"note":33,"tick":72521,"time":94.42838541666666,"type":"noteOn","velocity":68},{"channel":1,"nextOffset":17401,"note":33,"tick":72541,"time":94.45442708333333,"type":"noteOff","velocity":0},{"channel":1,"nextOffset":17405,"note":32,"tick":72541,"time":94.45442708333333,"type":"noteOn","velocity":50},{"channel":9,"nextOffset":21339,"note":35,"tick":72542,"time":94.45572916666666,"type":"noteOff","velocity":0},{"channel":9,"nextOffset":25141,"note":35,"tick":72550,"time":94.46614583333333,"type":"noteOn","velocity":50},{"channel":9,"nextOffset":45639,"note":42,"tick":72608,"time":94.54166666666666,"type":"noteOff","velocity":0},{"channel":2,"nextOffset":28966,"note":32,"tick":72629,"time":94.56901041666666,"type":"noteOff","velocity":0},{"channel":2,"nextOffset":28970,"note":31,"tick":72629,"time":94.56901041666666,"type":"noteOn","velocity":57},{"channel":9,"nextOffset":25145,"note":35,"tick":72646,"time":94.59114583333333,"type":"noteOff","velocity":0},{"channel":9,"nextOffset":33471,"note":42,"tick":72672,"time":94.62499999999999,"type":"noteOn","velocity":50},{"channel":0,"nextOffset":4012,"note":33,"tick":72713,"time":94.67838541666666,"type":"noteOff","velocity":0},{"channel":0,"nextOffset":4016,"note":60,"tick":72713,"time":94.67838541666666,"type":"noteOff","velocity":0},{"channel":0,"nextOffset":4020,"note":64,"tick":72713,"time":94.67838541666666,"type":"noteOff","velocity":0},{"channel":0,"nextOffset":4024,"note":67,"tick":72713,"time":94.67838541666666,"type":"noteOff","velocity":0},{"channel":0,"nextOffset":4028,"note":72,"tick":72713,"time":94.67838541666666,"type":"noteOff","velocity":0},{"channel":1,"nextOffset":17410,"note":32,"tick":72733,"time":94.70442708333333,"type":"noteOff","velocity":0},{"channel":1,"nextOffset":17414,"note":31,"tick":72733,"time":94.70442708333333,"type":"noteOn","velocity":50},{"channel":9,"nextOffset":21344,"note":35,"tick":72734,"time":94.70572916666666,"type":"noteOn","velocity":50},{"channel":9,"nextOffset":33475,"note":42,"tick":72768,"time":94.74999999999999,"type":"noteOff","velocity":0},{"channel":9,"nextOffset":45644,"note":42,"tick":72800,"time":94.79166666666666,"type":"noteOn","velocity":50},{"channel":0,"nextOffset":4032,"note":33,"tick":72809,"time":94.80338541666666,"type":"noteOn","velocity":68},{"channel":2,"nextOffset":28975,"note":31,"tick":72821,"time":94.81901041666666,"type":"noteOff","velocity":0},{"channel":9,"nextOffset":21348,"note":35,"tick":72830,"time":94.83072916666666,"type":"noteOff","velocity":0},{"channel":9,"nextOffset":25150,"note":35,"tick":72838,"time":94.84114583333333,"type":"noteOn","velocity":50},{"channel":9,"nextOffset":45648,"note":42,"tick":72896,"time":94.91666666666666,"type":"noteOff","velocity":0},{"channel":9,"nextOffset":45652,"note":42,"tick":72896,"time":94.91666666666666,"type":"noteOn","velocity":50},{"channel":0,"nextOffset":4036,"note":61,"tick":72905,"time":94.92838541666666,"type":"noteOn","velocity":68},{"channel":0,"nextOffset":4040,"note":65,"tick":72905,"time":94.92838541666666,"type":"noteOn","velocity":68},{"channel":0,"nextOffset":4044,"note":67,"tick":72905,"time":94.92838541666666,"type":"noteOn","velocity":68},{"channel":0,"nextOffset":4048,"note":70,"tick":72905,"time":94.92838541666666,"type":"noteOn","velocity":68},{"channel":9,"nextOffset":45656,"note":42,"tick":72920,"time":94.94791666666666,"type":"noteOff","velocity":0},{"channel":1,"nextOffset":17419,"note":31,"tick":72925,"time":94.95442708333333,"type":"noteOff","velocity":0},{"channel":9,"nextOffset":25154,"note":35,"tick":72934,"time":94.96614583333333,"type":"noteOff","velocity":0},{"channel":9,"nextOffset":45660,"note":42,"tick":72944,"time":94.97916666666666,"type":"noteOn","velocity":50},{"channel":9,"nextOffset":45664,"note":42,"tick":72968,"time":95.01041666666666,"type":"noteOff","velocity":0},{"channel":9,"nextOffset":45668,"note":42,"tick":72992,"time":95.04166666666666,"type":"noteOn","velocity":50},{"channel":0,"nextOffset":4052,"note":33,"tick":73001,"time":95.05338541666666,"type":"noteOff","velocity":0},{"channel":2,"nextOffset":28980,"note":31,"tick":73013,"time":95.06901041666666,"type":"noteOn","velocity":57},{"channel":9,"nextOffset":45672,"note":42,"tick":73016,"time":95.07291666666666,"type":"noteOff","velocity":0},{"channel":9,"nextOffset":21353,"note":35,"tick":73022,"time":95.08072916666666,"type":"noteOn","velocity":50},{"channel":9,"nextOffset":45676,"note":42,"tick":73040,"time":95.10416666666666,"type":"noteOn","velocity":50},{"channel":9,"nextOffset":33480,"note":42,"tick":73056,"time":95.12499999999999,"type":"noteOn","velocity":50},{"channel":9,"nextOffset":45680,"note":42,"tick":73064,"time":95.13541666666666,"type":"noteOff","velocity":0},{"channel":9,"nextOffset":45684,"note":42,"tick":73088,"time":95.16666666666666,"type":"noteOn","velocity":50},{"channel":0,"nextOffset":4056,"note":70,"tick":73097,"time":95.17838541666666,"type":"noteOff","velocity":0},{"channel":0,"nextOffset":4060,"note":67,"tick":73097,"time":95.17838541666666,"type":"noteOff","velocity":0},{"channel":0,"nextOffset":4064,"note":65,"tick":73097,"time":95.17838541666666,"type":"noteOff","velocity":0},{"channel":0,"nextOffset":4068,"note":61,"tick":73097,"time":95.17838541666666,"type":"noteOff","velocity":0},{"channel":0,"nextOffset":4072,"note":33,"tick":73097,"time":95.17838541666666,"type":"noteOn","velocity":68},{"channel":9,"nextOffset":45688,"note":42,"tick":73112,"time":95.19791666666666,"type":"noteOff","velocity":0},{"channel":1,"nextOffset":17424,"note":31,"tick":73117,"time":95.20442708333333,"type":"noteOn","velocity":50},{"channel":9,"nextOffset":21357,"note":35,"tick":73118,"time":95.20572916666666,"type":"noteOff","velocity":0},{"channel":9,"nextOffset":25159,"note":35,"tick":73126,"time":95.21614583333333,"type":"noteOn","velocity":50},{"channel":9,"nextOffset":33484,"note":42,"tick":73152,"time":95.24999999999999,"type":"noteOff","velocity":0},{"channel":9,"nextOffset":33488,"note":42,"tick":73152,"time":95.24999999999999,"type":"noteOn","velocity":50},{"channel":2,"nextOffset":28985,"note":31,"tick":73205,"time":95.31901041666666,"type":"noteOff","velocity":0},{"channel":2,"nextOffset":28989,"note":32,"tick":73205,"time":95.31901041666666,"type":"noteOn","velocity":57},{"channel":9,"nextOffset":21361,"note":35,"tick":73214,"time":95.33072916666666,"type":"noteOn","velocity":50},{"channel":9,"nextOffset":25163,"note":35,"tick":73222,"time":95.34114583333333,"type":"noteOff","velocity":0},{"channel":9,"nextOffset":33492,"note":42,"tick":73248,"time":95.37499999999999,"type":"noteOff","velocity":0},{"channel":9,"nextOffset":45693,"note":42,"tick":73280,"time":95.41666666666666,"type":"noteOn","velocity":50},{"channel":0,"nextOffset":4077,"note":33,"tick":73289,"time":95.42838541666666,"type":"noteOff","velocity":0},{"channel":0,"nextOffset":4081,"note":60,"tick":73289,"time":95.42838541666666,"type":"noteOn","velocity":68},{"channel":0,"nextOffset":4085,"note":64,"tick":73289,"time":95.42838541666666,"type":"noteOn","velocity":68},{"channel":0,"nextOffset":4089,"note":65,"tick":73289,"time":95.42838541666666,"type":"noteOn","velocity":68},{"channel":0,"nextOffset":4093,"note":69,"tick":73289,"time":95.42838541666666,"type":"noteOn","velocity":68},{"channel":0,"nextOffset":4097,"note":26,"tick":73289,"time":95.42838541666666,"type":"noteOn","velocity":68},{"channel":1,"nextOffset":17429,"note":31,"tick":73309,"time":95.45442708333333,"type":"noteOff","velocity":0},{"channel":1,"nextOffset":17433,"note":32,"tick":73309,"time":95.45442708333333,"type":"noteOn","velocity":50},{"channel":9,"nextOffset":21365,"note":35,"tick":73310,"time":95.45572916666666,"type":"noteOff","velocity":0},{"channel":9,"nextOffset":25167,"note":35,"tick":73318,"time":95.46614583333333,"type":"noteOn","velocity":50},{"channel":9,"nextOffset":45697,"note":42,"tick":73376,"time":95.54166666666666,"type":"noteOff","velocity":0},{"channel":9,"nextOffset":45701,"note":42,"tick":73376,"time":95.54166666666666,"type":"noteOn","velocity":50},{"channel":2,"nextOffset":28994,"note":32,"tick":73397,"time":95.56901041666666,"type":"noteOff","velocity":0},{"channel":2,"nextOffset":28998,"note":33,"tick":73397,"time":95.56901041666666,"type":"noteOn","velocity":57},{"channel":2,"nextOffset":29002,"note":33,"tick":73397,"time":95.56901041666666,"type":"noteOn","velocity":57},{"channel":9,"nextOffset":25171,"note":35,"tick":73414,"time":95.59114583333333,"type":"noteOff","velocity":0},{"channel":9,"nextOffset":33497,"note":42,"tick":73440,"time":95.62499999999999,"type":"noteOn","velocity":50},{"channel":9,"nextOffset":45705,"note":42,"tick":73472,"time":95.66666666666666,"type":"noteOff","velocity":0},{"channel":0,"nextOffset":4102,"note":26,"tick":73481,"time":95.67838541666666,"type":"noteOff","velocity":0},{"channel":0,"nextOffset":4106,"note":69,"tick":73481,"time":95.67838541666666,"type":"noteOff","velocity":0},{"channel":0,"nextOffset":4110,"note":65,"tick":73481,"time":95.67838541666666,"type":"noteOff","velocity":0},{"channel":0,"nextOffset":4114,"note":64,"tick":73481,"time":95.67838541666666,"type":"noteOff","velocity":0},{"channel":0,"nextOffset":4118,"note":60,"tick":73481,"time":95.67838541666666,"type":"noteOff","velocity":0},{"channel":1,"nextOffset":17438,"note":32,"tick":73501,"time":95.70442708333333,"type":"noteOff","velocity":0},{"channel":1,"nextOffset":17442,"note":33,"tick":73501,"time":95.70442708333333,"type":"noteOn","velocity":50},{"channel":1,"nextOffset":17446,"note":33,"tick":73501,"time":95.70442708333333,"type":"noteOn","velocity":50},{"channel":9,"nextOffset":33501,"note":42,"tick":73536,"time":95.74999999999999,"type":"noteOff","velocity":0},{"channel":2,"nextOffset":29007,"note":33,"tick":73589,"time":95.81901041666666,"type":"noteOff","velocity":0},{"channel":2,"nextOffset":29011,"note":33,"tick":73589,"time":95.81901041666666,"type":"noteOff","velocity":0},{"channel":9,"nextOffset":21370,"note":35,"tick":73598,"time":95.83072916666666,"type":"noteOn","velocity":50},{"channel":9,"nextOffset":45710,"note":42,"tick":73664,"time":95.91666666666666,"type":"noteOn","velocity":50},{"channel":9,"nextOffset":45714,"note":42,"tick":73664,"time":95.91666666666666,"type":"noteOn","velocity":50},{"channel":0,"nextOffset":4123,"note":26,"tick":73673,"time":95.92838541666666,"type":"noteOn","velocity":68},{"channel":2,"nextOffset":29015,"note":33,"tick":73685,"time":95.94401041666666,"type":"noteOn","velocity":57},{"channel":1,"nextOffset":17451,"note":33,"tick":73693,"time":95.95442708333333,"type":"noteOff","velocity":0},{"channel":1,"nextOffset":17455,"note":33,"tick":73693,"time":95.95442708333333,"type":"noteOff","velocity":0},{"channel":9,"nextOffset":21374,"note":35,"tick":73694,"time":95.95572916666666,"type":"noteOff","velocity":0},{"channel":9,"nextOffset":25176,"note":35,"tick":73702,"time":95.96614583333333,"type":"noteOn","velocity":50},{"channel":9,"nextOffset":33506,"note":42,"tick":73728,"time":95.99999999999999,"type":"noteOn","velocity":50},{"channel":9,"nextOffset":45718,"note":42,"tick":73760,"time":96.04166666666666,"type":"noteOff","velocity":0},{"channel":9,"nextOffset":45722,"note":42,"tick":73760,"time":96.04166666666666,"type":"noteOff","velocity":0},{"channel":9,"nextOffset":45726,"note":42,"tick":73760,"time":96.04166666666666,"type":"noteOn","velocity":50},{"channel":2,"nextOffset":29019,"note":33,"tick":73781,"time":96.06901041666666,"type":"noteOff","velocity":0},{"channel":1,"nextOffset":17459,"note":33,"tick":73789,"time":96.07942708333333,"type":"noteOn","velocity":50},{"channel":9,"nextOffset":25180,"note":35,"tick":73798,"time":96.09114583333333,"type":"noteOff","velocity":0},{"channel":9,"nextOffset":33510,"note":42,"tick":73824,"time":96.12499999999999,"type":"noteOff","velocity":0},{"channel":9,"nextOffset":33514,"note":42,"tick":73824,"time":96.12499999999999,"type":"noteOn","velocity":50},{"channel":9,"nextOffset":33518,"note":42,"tick":73848,"time":96.15624999999999,"type":"noteOff","velocity":0},{"channel":9,"nextOffset":45730,"note":42,"tick":73856,"time":96.16666666666666,"type":"noteOff","velocity":0},{"channel":0,"nextOffset":4128,"note":26,"tick":73865,"time":96.17838541666666,"type":"noteOff","velocity":0},{"channel":9,"nextOffset":33522,"note":42,"tick":73872,"time":96.18749999999999,"type":"noteOn","velocity":50},{"channel":1,"nextOffset":17463,"note":33,"tick":73885,"time":96.20442708333333,"type":"noteOff","velocity":0},{"channel":9,"nextOffset":25184,"note":42,"tick":73894,"time":96.21614583333333,"type":"noteOn","velocity":50},{"channel":9,"nextOffset":33526,"note":42,"tick":73896,"time":96.21874999999999,"type":"noteOff","velocity":0},{"channel":9,"nextOffset":33530,"note":42,"tick":73920,"time":96.24999999999999,"type":"noteOn","velocity":50},{"channel":9,"nextOffset":33534,"note":42,"tick":73944,"time":96.28124999999999,"type":"noteOff","velocity":0},{"channel":9,"nextOffset":33538,"note":42,"tick":73968,"time":96.31249999999999,"type":"noteOn","velocity":50},{"channel":2,"nextOffset":29024,"note":26,"tick":73973,"time":96.31901041666666,"type":"noteOn","velocity":57},{"channel":9,"nextOffset":21379,"note":35,"tick":73982,"time":96.33072916666666,"type":"noteOn","velocity":50},{"channel":9,"nextOffset":25188,"note":42,"tick":73990,"time":96.34114583333333,"type":"noteOff","velocity":0},{"channel":9,"nextOffset":33542,"note":42,"tick":73992,"time":96.34374999999999,"type":"noteOff","velocity":0},{"channel":9,"nextOffset":45735,"note":42,"tick":74048,"time":96.41666666666666,"type":"noteOn","velocity":50},{"channel":0,"nextOffset":4133,"note":64,"tick":74057,"time":96.42838541666666,"type":"noteOn","velocity":68},{"channel":0,"nextOffset":4137,"note":60,"tick":74057,"time":96.42838541666666,"type":"noteOn","velocity":68},{"channel":0,"nextOffset":4141,"note":69,"tick":74057,"time":96.42838541666666,"type":"noteOn","velocity":68},{"channel":0,"nextOffset":4145,"note":65,"tick":74057,"time":96.42838541666666,"type":"noteOn","velocity":68},{"channel":0,"nextOffset":4149,"note":38,"tick":74057,"time":96.42838541666666,"type":"noteOn","velocity":68},{"channel":1,"nextOffset":17468,"note":26,"tick":74077,"time":96.45442708333333,"type":"noteOn","velocity":50},{"channel":9,"nextOffset":21383,"note":35,"tick":74078,"time":96.45572916666666,"type":"noteOff","velocity":0},{"channel":9,"nextOffset":25192,"note":35,"tick":74086,"time":96.46614583333333,"type":"noteOn","velocity":50},{"channel":9,"nextOffset":45739,"note":42,"tick":74144,"time":96.54166666666666,"type":"noteOff","velocity":0},{"channel":2,"nextOffset":29029,"note":26,"tick":74165,"time":96.56901041666666,"type":"noteOff","velocity":0},{"channel":9,"nextOffset":25196,"note":35,"tick":74182,"time":96.59114583333333,"type":"noteOff","velocity":0},{"channel":9,"nextOffset":33547,"note":42,"tick":74208,"time":96.62499999999999,"type":"noteOn","velocity":50},{"channel":0,"nextOffset":4154,"note":38,"tick":74249,"time":96.67838541666666,"type":"noteOff","velocity":0},{"channel":0,"nextOffset":4158,"note":65,"tick":74249,"time":96.67838541666666,"type":"noteOff","velocity":0},{"channel":0,"nextOffset":4162,"note":69,"tick":74249,"time":96.67838541666666,"type":"noteOff","velocity":0},{"channel":0,"nextOffset":4166,"note":60,"tick":74249,"time":96.67838541666666,"type":"noteOff","velocity":0},{"channel":0,"nextOffset":4170,"note":64,"tick":74249,"time":96.67838541666666,"type":"noteOff","velocity":0},{"channel":1,"nextOffset":17473,"note":26,"tick":74269,"time":96.70442708333333,"type":"noteOff","velocity":0},{"channel":9,"nextOffset":21388,"note":35,"tick":74270,"time":96.70572916666666,"type":"noteOn","velocity":50},{"channel":9,"nextOffset":33551,"note":42,"tick":74304,"time":96.74999999999999,"type":"noteOff","velocity":0},{"channel":9,"nextOffset":33555,"note":42,"tick":74304,"time":96.74999999999999,"type":"noteOn","velocity":50},{"channel":9,"nextOffset":45744,"note":42,"tick":74336,"time":96.79166666666666,"type":"noteOn","velocity":50},{"channel":0,"nextOffset":4174,"note":33,"tick":74345,"time":96.80338541666666,"type":"noteOn","velocity":68},{"channel":2,"nextOffset":29034,"note":26,"tick":74357,"time":96.81901041666666,"type":"noteOn","velocity":57},{"channel":9,"nextOffset":21392,"note":35,"tick":74366,"time":96.83072916666666,"type":"noteOff","velocity":0},{"channel":9,"nextOffset":25201,"note":35,"tick":74374,"time":96.84114583333333,"type":"noteOn","velocity":50},{"channel":9,"nextOffset":33559,"note":42,"tick":74400,"time":96.87499999999999,"type":"noteOff","velocity":0},{"channel":9,"nextOffset":45748,"note":42,"tick":74432,"time":96.91666666666666,"type":"noteOff","velocity":0},{"channel":9,"nextOffset":45752,"note":42,"tick":74432,"time":96.91666666666666,"type":"noteOn","velocity":50},{"channel":0,"nextOffset":4178,"note":59,"tick":74441,"time":96.92838541666666,"type":"noteOn","velocity":68},{"channel":0,"nextOffset":4182,"note":63,"tick":74441,"time":96.92838541666666,"type":"noteOn","velocity":68},{"channel":0,"nextOffset":4186,"note":68,"tick":74441,"time":96.92838541666666,"type":"noteOn","velocity":68},{"channel":9,"nextOffset":45756,"note":42,"tick":74456,"time":96.94791666666666,"type":"noteOff","velocity":0},{"channel":1,"nextOffset":17478,"note":26,"tick":74461,"time":96.95442708333333,"type":"noteOn","velocity":50},{"channel":9,"nextOffset":25205,"note":35,"tick":74470,"time":96.96614583333333,"type":"noteOff","velocity":0},{"channel":9,"nextOffset":45760,"note":42,"tick":74480,"time":96.97916666666666,"type":"noteOn","velocity":50},{"channel":9,"nextOffset":45764,"note":42,"tick":74504,"time":97.01041666666666,"type":"noteOff","velocity":0},{"channel":9,"nextOffset":45768,"note":42,"tick":74528,"time":97.04166666666666,"type":"noteOn","velocity":50},{"channel":0,"nextOffset":4190,"note":33,"tick":74537,"time":97.05338541666666,"type":"noteOff","velocity":0},{"channel":2,"nextOffset":29039,"note":26,"tick":74549,"time":97.06901041666666,"type":"noteOff","velocity":0},{"channel":2,"nextOffset":29043,"note":33,"tick":74549,"time":97.06901041666666,"type":"noteOn","velocity":57},{"channel":9,"nextOffset":45772,"note":42,"tick":74552,"time":97.07291666666666,"type":"noteOff","velocity":0},{"channel":9,"nextOffset":21397,"note":35,"tick":74558,"time":97.08072916666666,"type":"noteOn","velocity":50},{"channel":9,"nextOffset":45776,"note":42,"tick":74576,"time":97.10416666666666,"type":"noteOn","velocity":50},{"channel":9,"nextOffset":33564,"note":42,"tick":74592,"time":97.12499999999999,"type":"noteOn","velocity":50},{"channel":9,"nextOffset":45780,"note":42,"tick":74600,"time":97.13541666666666,"type":"noteOff","velocity":0},{"channel":9,"nextOffset":45784,"note":42,"tick":74624,"time":97.16666666666666,"type":"noteOn","velocity":50},{"channel":0,"nextOffset":4194,"note":68,"tick":74633,"time":97.17838541666666,"type":"noteOff","velocity":0},{"channel":0,"nextOffset":4198,"note":63,"tick":74633,"time":97.17838541666666,"type":"noteOff","velocity":0},{"channel":0,"nextOffset":4202,"note":59,"tick":74633,"time":97.17838541666666,"type":"noteOff","velocity":0},{"channel":0,"nextOffset":4206,"note":32,"tick":74633,"time":97.17838541666666,"type":"noteOn","velocity":68},{"channel":9,"nextOffset":45788,"note":42,"tick":74648,"time":97.19791666666666,"type":"noteOff","velocity":0},{"channel":1,"nextOffset":17483,"note":26,"tick":74653,"time":97.20442708333333,"type":"noteOff","velocity":0},{"channel":1,"nextOffset":17487,"note":33,"tick":74653,"time":97.20442708333333,"type":"noteOn","velocity":50},{"channel":9,"nextOffset":21401,"note":35,"tick":74654,"time":97.20572916666666,"type":"noteOff","velocity":0},{"channel":9,"nextOffset":25210,"note":35,"tick":74662,"time":97.21614583333333,"type":"noteOn","velocity":50},{"channel":9,"nextOffset":33568,"note":42,"tick":74688,"time":97.24999999999999,"type":"noteOff","velocity":0},{"channel":9,"nextOffset":33572,"note":42,"tick":74688,"time":97.24999999999999,"type":"noteOn","velocity":50},{"channel":2,"nextOffset":29048,"note":33,"tick":74741,"time":97.31901041666666,"type":"noteOff","velocity":0},{"channel":2,"nextOffset":29052,"note":26,"tick":74741,"time":97.31901041666666,"type":"noteOn","velocity":57},{"channel":9,"nextOffset":21405,"note":35,"tick":74750,"time":97.33072916666666,"type":"noteOn","velocity":50},{"channel":9,"nextOffset":25214,"note":35,"tick":74758,"time":97.34114583333333,"type":"noteOff","velocity":0},{"channel":9,"nextOffset":33576,"note":42,"tick":74784,"time":97.37499999999999,"type":"noteOff","velocity":0},{"channel":9,"nextOffset":45793,"note":42,"tick":74816,"time":97.41666666666666,"type":"noteOn","velocity":50},{"channel":0,"nextOffset":4211,"note":32,"tick":74825,"time":97.42838541666666,"type":"noteOff","velocity":0},{"channel":0,"nextOffset":4215,"note":58,"tick":74825,"time":97.42838541666666,"type":"noteOn","velocity":68},{"channel":0,"nextOffset":4219,"note":62,"tick":74825,"time":97.42838541666666,"type":"noteOn","velocity":68},{"channel":0,"nextOffset":4223,"note":65,"tick":74825,"time":97.42838541666666,"type":"noteOn","velocity":68},{"channel":0,"nextOffset":4227,"note":69,"tick":74825,"time":97.42838541666666,"type":"noteOn","velocity":68},{"channel":0,"nextOffset":4231,"note":31,"tick":74825,"time":97.42838541666666,"type":"noteOn","velocity":68},{"channel":1,"nextOffset":17492,"note":33,"tick":74845,"time":97.45442708333333,"type":"noteOff","velocity":0},{"channel":1,"nextOffset":17496,"note":26,"tick":74845,"time":97.45442708333333,"type":"noteOn","velocity":50},{"channel":9,"nextOffset":21409,"note":35,"tick":74846,"time":97.45572916666666,"type":"noteOff","velocity":0},{"channel":9,"nextOffset":25218,"note":35,"tick":74854,"time":97.46614583333333,"type":"noteOn","velocity":50},{"channel":9,"nextOffset":45797,"note":42,"tick":74912,"time":97.54166666666666,"type":"noteOff","velocity":0},{"channel":9,"nextOffset":45801,"note":42,"tick":74912,"time":97.54166666666666,"type":"noteOn","velocity":50},{"channel":2,"nextOffset":29057,"note":26,"tick":74933,"time":97.56901041666666,"type":"noteOff","velocity":0},{"channel":9,"nextOffset":25222,"note":35,"tick":74950,"time":97.59114583333333,"type":"noteOff","velocity":0},{"channel":9,"nextOffset":33581,"note":42,"tick":74976,"time":97.62499999999999,"type":"noteOn","velocity":50},{"channel":9,"nextOffset":45805,"note":42,"tick":75008,"time":97.66666666666666,"type":"noteOff","velocity":0},{"channel":0,"nextOffset":4236,"note":31,"tick":75017,"time":97.67838541666666,"type":"noteOff","velocity":0},{"channel":1,"nextOffset":17501,"note":26,"tick":75037,"time":97.70442708333333,"type":"noteOff","velocity":0},{"channel":9,"nextOffset":33585,"note":42,"tick":75072,"time":97.74999999999999,"type":"noteOff","velocity":0},{"channel":2,"nextOffset":29062,"note":26,"tick":75125,"time":97.81901041666666,"type":"noteOn","velocity":57},{"channel":9,"nextOffset":21414,"note":35,"tick":75134,"time":97.83072916666666,"type":"noteOn","velocity":50},{"channel":9,"nextOffset":45810,"note":42,"tick":75200,"time":97.91666666666666,"type":"noteOn","velocity":50},{"channel":0,"nextOffset":4241,"note":69,"tick":75209,"time":97.92838541666666,"type":"noteOff","velocity":0},{"channel":0,"nextOffset":4245,"note":65,"tick":75209,"time":97.92838541666666,"type":"noteOff","velocity":0},{"channel":0,"nextOffset":4249,"note":62,"tick":75209,"time":97.92838541666666,"type":"noteOff","velocity":0},{"channel":0,"nextOffset":4253,"note":58,"tick":75209,"time":97.92838541666666,"type":"noteOff","velocity":0},{"channel":0,"nextOffset":4257,"note":31,"tick":75209,"time":97.92838541666666,"type":"noteOn","velocity":68},{"channel":1,"nextOffset":17506,"note":26,"tick":75229,"time":97.95442708333333,"type":"noteOn","velocity":50},{"channel":9,"nextOffset":21418,"note":35,"tick":75230,"time":97.95572916666666,"type":"noteOff","velocity":0},{"channel":9,"nextOffset":25227,"note":35,"tick":75238,"time":97.96614583333333,"type":"noteOn","velocity":50},{"channel":9,"nextOffset":33590,"note":42,"tick":75264,"time":97.99999999999999,"type":"noteOn","velocity":50},{"channel":9,"nextOffset":45814,"note":42,"tick":75296,"time":98.04166666666666,"type":"noteOff","velocity":0},{"channel":9,"nextOffset":45818,"note":42,"tick":75296,"time":98.04166666666666,"type":"noteOn","velocity":50},{"channel":2,"nextOffset":29067,"note":26,"tick":75317,"time":98.06901041666666,"type":"noteOff","velocity":0},{"channel":2,"nextOffset":29071,"note":33,"tick":75317,"time":98.06901041666666,"type":"noteOn","velocity":57},{"channel":9,"nextOffset":25231,"note":35,"tick":75334,"time":98.09114583333333,"type":"noteOff","velocity":0},{"channel":9,"nextOffset":33594,"note":42,"tick":75360,"time":98.12499999999999,"type":"noteOff","velocity":0},{"channel":9,"nextOffset":33598,"note":42,"tick":75360,"time":98.12499999999999,"type":"noteOn","velocity":50},{"channel":9,"nextOffset":33602,"note":42,"tick":75384,"time":98.15624999999999,"type":"noteOff","velocity":0},{"channel":9,"nextOffset":45822,"note":42,"tick":75392,"time":98.16666666666666,"type":"noteOff","velocity":0},{"channel":0,"nextOffset":4262,"note":31,"tick":75401,"time":98.17838541666666,"type":"noteOff","velocity":0},{"channel":9,"nextOffset":33606,"note":42,"tick":75408,"time":98.18749999999999,"type":"noteOn","velocity":50},{"channel":1,"nextOffset":17511,"note":26,"tick":75421,"time":98.20442708333333,"type":"noteOff","velocity":0},{"channel":1,"nextOffset":17515,"note":33,"tick":75421,"time":98.20442708333333,"type":"noteOn","velocity":50},{"channel":9,"nextOffset":33610,"note":42,"tick":75432,"time":98.21874999999999,"type":"noteOff","velocity":0},{"channel":9,"nextOffset":33614,"note":42,"tick":75456,"time":98.24999999999999,"type":"noteOn","velocity":50},{"channel":9,"nextOffset":33618,"note":42,"tick":75480,"time":98.28124999999999,"type":"noteOff","velocity":0},{"channel":9,"nextOffset":33622,"note":42,"tick":75504,"time":98.31249999999999,"type":"noteOn","velocity":50},{"channel":2,"nextOffset":29076,"note":33,"tick":75509,"time":98.31901041666666,"type":"noteOff","velocity":0},{"channel":2,"nextOffset":29080,"note":32,"tick":75509,"time":98.31901041666666,"type":"noteOn","velocity":57},{"channel":2,"nextOffset":29084,"note":32,"tick":75509,"time":98.31901041666666,"type":"noteOn","velocity":57},{"channel":9,"nextOffset":21423,"note":35,"tick":75518,"time":98.33072916666666,"type":"noteOn","velocity":50},{"channel":9,"nextOffset":33626,"note":42,"tick":75528,"time":98.34374999999999,"type":"noteOff","velocity":0},{"channel":9,"nextOffset":33630,"note":42,"tick":75552,"time":98.37499999999999,"type":"noteOn","velocity":50},{"channel":9,"nextOffset":33634,"note":42,"tick":75576,"time":98.40624999999999,"type":"noteOff","velocity":0},{"channel":9,"nextOffset":45827,"note":42,"tick":75584,"time":98.41666666666666,"type":"noteOn","velocity":50},{"channel":0,"nextOffset":4267,"note":72,"tick":75593,"time":98.42838541666666,"type":"noteOn","velocity":68},{"channel":0,"nextOffset":4271,"note":67,"tick":75593,"time":98.42838541666666,"type":"noteOn","velocity":68},{"channel":0,"nextOffset":4275,"note":64,"tick":75593,"time":98.42838541666666,"type":"noteOn","velocity":68},{"channel":0,"nextOffset":4279,"note":60,"tick":75593,"time":98.42838541666666,"type":"noteOn","velocity":68},{"channel":0,"nextOffset":4283,"note":33,"tick":75593,"time":98.42838541666666,"type":"noteOn","velocity":68},{"channel":1,"nextOffset":17520,"note":33,"tick":75613,"time":98.45442708333333,"type":"noteOff","velocity":0},{"channel":1,"nextOffset":17524,"note":32,"tick":75613,"time":98.45442708333333,"type":"noteOn","velocity":50},{"channel":1,"nextOffset":17528,"note":32,"tick":75613,"time":98.45442708333333,"type":"noteOn","velocity":50},{"channel":9,"nextOffset":21427,"note":35,"tick":75614,"time":98.45572916666666,"type":"noteOff","velocity":0},{"channel":9,"nextOffset":25236,"note":35,"tick":75622,"time":98.46614583333333,"type":"noteOn","velocity":50},{"channel":9,"nextOffset":45831,"note":42,"tick":75680,"time":98.54166666666666,"type":"noteOff","velocity":0},{"channel":2,"nextOffset":29089,"note":32,"tick":75701,"time":98.56901041666666,"type":"noteOff","velocity":0},{"channel":2,"nextOffset":29093,"note":32,"tick":75701,"time":98.56901041666666,"type":"noteOff","velocity":0},{"channel":2,"nextOffset":29097,"note":31,"tick":75701,"time":98.56901041666666,"type":"noteOn","velocity":57},{"channel":9,"nextOffset":25240,"note":35,"tick":75718,"time":98.59114583333333,"type":"noteOff","velocity":0},{"channel":9,"nextOffset":33639,"note":42,"tick":75744,"time":98.62499999999999,"type":"noteOn","velocity":50},{"channel":0,"nextOffset":4288,"note":33,"tick":75785,"time":98.67838541666666,"type":"noteOff","velocity":0},{"channel":0,"nextOffset":4292,"note":60,"tick":75785,"time":98.67838541666666,"type":"noteOff","velocity":0},{"channel":0,"nextOffset":4296,"note":64,"tick":75785,"time":98.67838541666666,"type":"noteOff","velocity":0},{"channel":0,"nextOffset":4300,"note":67,"tick":75785,"time":98.67838541666666,"type":"noteOff","velocity":0},{"channel":0,"nextOffset":4304,"note":72,"tick":75785,"time":98.67838541666666,"type":"noteOff","velocity":0},{"channel":1,"nextOffset":17533,"note":32,"tick":75805,"time":98.70442708333333,"type":"noteOff","velocity":0},{"channel":1,"nextOffset":17537,"note":32,"tick":75805,"time":98.70442708333333,"type":"noteOff","velocity":0},{"channel":1,"nextOffset":17541,"note":31,"tick":75805,"time":98.70442708333333,"type":"noteOn","velocity":50},{"channel":9,"nextOffset":21432,"note":35,"tick":75806,"time":98.70572916666666,"type":"noteOn","velocity":50},{"channel":9,"nextOffset":33643,"note":42,"tick":75840,"time":98.74999999999999,"type":"noteOff","velocity":0},{"channel":9,"nextOffset":33647,"note":42,"tick":75840,"time":98.74999999999999,"type":"noteOn","velocity":50},{"channel":9,"nextOffset":45836,"note":42,"tick":75872,"time":98.79166666666666,"type":"noteOn","velocity":50},{"channel":0,"nextOffset":4308,"note":33,"tick":75881,"time":98.80338541666666,"type":"noteOn","velocity":68},{"channel":2,"nextOffset":29102,"note":31,"tick":75893,"time":98.81901041666666,"type":"noteOff","velocity":0},{"channel":9,"nextOffset":21436,"note":35,"tick":75902,"time":98.83072916666666,"type":"noteOff","velocity":0},{"channel":9,"nextOffset":25245,"note":35,"tick":75910,"time":98.84114583333333,"type":"noteOn","velocity":50},{"channel":9,"nextOffset":33651,"note":42,"tick":75936,"time":98.87499999999999,"type":"noteOff","velocity":0},{"channel":9,"nextOffset":45840,"note":42,"tick":75968,"time":98.91666666666666,"type":"noteOff","velocity":0},{"channel":9,"nextOffset":45844,"note":42,"tick":75968,"time":98.91666666666666,"type":"noteOn","velocity":50},{"channel":0,"nextOffset":4312,"note":61,"tick":75977,"time":98.92838541666666,"type":"noteOn","velocity":68},{"channel":0,"nextOffset":4316,"note":65,"tick":75977,"time":98.92838541666666,"type":"noteOn","velocity":68},{"channel":0,"nextOffset":4320,"note":67,"tick":75977,"time":98.92838541666666,"type":"noteOn","velocity":68},{"channel":0,"nextOffset":4324,"note":70,"tick":75977,"time":98.92838541666666,"type":"noteOn","velocity":68},{"channel":9,"nextOffset":45848,"note":42,"tick":75992,"time":98.94791666666666,"type":"noteOff","velocity":0},{"channel":1,"nextOffset":17546,"note":31,"tick":75997,"time":98.95442708333333,"type":"noteOff","velocity":0},{"channel":9,"nextOffset":25249,"note":35,"tick":76006,"time":98.96614583333333,"type":"noteOff","velocity":0},{"channel":9,"nextOffset":45852,"note":42,"tick":76016,"time":98.97916666666666,"type":"noteOn","velocity":50},{"channel":9,"nextOffset":45856,"note":42,"tick":76040,"time":99.01041666666666,"type":"noteOff","velocity":0},{"channel":9,"nextOffset":45860,"note":42,"tick":76064,"time":99.04166666666666,"type":"noteOn","velocity":50},{"channel":0,"nextOffset":4328,"note":33,"tick":76073,"time":99.05338541666666,"type":"noteOff","velocity":0},{"channel":2,"nextOffset":29107,"note":31,"tick":76085,"time":99.06901041666666,"type":"noteOn","velocity":57},{"channel":9,"nextOffset":45864,"note":42,"tick":76088,"time":99.07291666666666,"type":"noteOff","velocity":0},{"channel":9,"nextOffset":21441,"note":35,"tick":76094,"time":99.08072916666666,"type":"noteOn","velocity":50},{"channel":9,"nextOffset":45868,"note":42,"tick":76112,"time":99.10416666666666,"type":"noteOn","velocity":50},{"channel":9,"nextOffset":33656,"note":42,"tick":76128,"time":99.12499999999999,"type":"noteOn","velocity":50},{"channel":9,"nextOffset":45872,"note":42,"tick":76136,"time":99.13541666666666,"type":"noteOff","velocity":0},{"channel":9,"nextOffset":45876,"note":42,"tick":76160,"time":99.16666666666666,"type":"noteOn","velocity":50},{"channel":0,"nextOffset":4332,"note":70,"tick":76169,"time":99.17838541666666,"type":"noteOff","velocity":0},{"channel":0,"nextOffset":4336,"note":67,"tick":76169,"time":99.17838541666666,"type":"noteOff","velocity":0},{"channel":0,"nextOffset":4340,"note":65,"tick":76169,"time":99.17838541666666,"type":"noteOff","velocity":0},{"channel":0,"nextOffset":4344,"note":61,"tick":76169,"time":99.17838541666666,"type":"noteOff","velocity":0},{"channel":0,"nextOffset":4348,"note":33,"tick":76169,"time":99.17838541666666,"type":"noteOn","velocity":68},{"channel":9,"nextOffset":45880,"note":42,"tick":76184,"time":99.19791666666666,"type":"noteOff","velocity":0},{"channel":1,"nextOffset":17551,"note":31,"tick":76189,"time":99.20442708333333,"type":"noteOn","velocity":50},{"channel":9,"nextOffset":21445,"note":35,"tick":76190,"time":99.20572916666666,"type":"noteOff","velocity":0},{"channel":9,"nextOffset":25254,"note":35,"tick":76198,"time":99.21614583333333,"type":"noteOn","velocity":50},{"channel":9,"nextOffset":33660,"note":42,"tick":76224,"time":99.24999999999999,"type":"noteOff","velocity":0},{"channel":9,"nextOffset":33664,"note":42,"tick":76224,"time":99.24999999999999,"type":"noteOn","velocity":50},{"channel":2,"nextOffset":29112,"note":31,"tick":76277,"time":99.31901041666666,"type":"noteOff","velocity":0},{"channel":2,"nextOffset":29116,"note":32,"tick":76277,"time":99.31901041666666,"type":"noteOn","velocity":57},{"channel":9,"nextOffset":21449,"note":35,"tick":76286,"time":99.33072916666666,"type":"noteOn","velocity":50},{"channel":9,"nextOffset":25258,"note":35,"tick":76294,"time":99.34114583333333,"type":"noteOff","velocity":0},{"channel":9,"nextOffset":33668,"note":42,"tick":76320,"time":99.37499999999999,"type":"noteOff","velocity":0},{"channel":9,"nextOffset":45885,"note":42,"tick":76352,"time":99.41666666666666,"type":"noteOn","velocity":50},{"channel":0,"nextOffset":4353,"note":33,"tick":76361,"time":99.42838541666666,"type":"noteOff","velocity":0},{"channel":0,"nextOffset":4357,"note":60,"tick":76361,"time":99.42838541666666,"type":"noteOn","velocity":68},{"channel":0,"nextOffset":4361,"note":64,"tick":76361,"time":99.42838541666666,"type":"noteOn","velocity":68},{"channel":0,"nextOffset":4365,"note":65,"tick":76361,"time":99.42838541666666,"type":"noteOn","velocity":68},{"channel":0,"nextOffset":4369,"note":69,"tick":76361,"time":99.42838541666666,"type":"noteOn","velocity":68},{"channel":0,"nextOffset":4373,"note":26,"tick":76361,"time":99.42838541666666,"type":"noteOn","velocity":68},{"channel":1,"nextOffset":17556,"note":31,"tick":76381,"time":99.45442708333333,"type":"noteOff","velocity":0},{"channel":1,"nextOffset":17560,"note":32,"tick":76381,"time":99.45442708333333,"type":"noteOn","velocity":50},{"channel":9,"nextOffset":21453,"note":35,"tick":76382,"time":99.45572916666666,"type":"noteOff","velocity":0},{"channel":9,"nextOffset":25262,"note":35,"tick":76390,"time":99.46614583333333,"type":"noteOn","velocity":50},{"channel":9,"nextOffset":45889,"note":42,"tick":76448,"time":99.54166666666666,"type":"noteOff","velocity":0},{"channel":2,"nextOffset":29121,"note":32,"tick":76469,"time":99.56901041666666,"type":"noteOff","velocity":0},{"channel":2,"nextOffset":29125,"note":33,"tick":76469,"time":99.56901041666666,"type":"noteOn","velocity":57},{"channel":9,"nextOffset":25266,"note":35,"tick":76486,"time":99.59114583333333,"type":"noteOff","velocity":0},{"channel":9,"nextOffset":33673,"note":42,"tick":76512,"time":99.62499999999999,"type":"noteOn","velocity":50},{"channel":0,"nextOffset":4378,"note":26,"tick":76553,"time":99.67838541666666,"type":"noteOff","velocity":0},{"channel":0,"nextOffset":4382,"note":69,"tick":76553,"time":99.67838541666666,"type":"noteOff","velocity":0},{"channel":0,"nextOffset":4386,"note":65,"tick":76553,"time":99.67838541666666,"type":"noteOff","velocity":0},{"channel":0,"nextOffset":4390,"note":64,"tick":76553,"time":99.67838541666666,"type":"noteOff","velocity":0},{"channel":0,"nextOffset":4394,"note":60,"tick":76553,"time":99.67838541666666,"type":"noteOff","velocity":0},{"channel":1,"nextOffset":17565,"note":32,"tick":76573,"time":99.70442708333333,"type":"noteOff","velocity":0},{"channel":1,"nextOffset":17569,"note":33,"tick":76573,"time":99.70442708333333,"type":"noteOn","velocity":50},{"channel":9,"nextOffset":33677,"note":42,"tick":76608,"time":99.74999999999999,"type":"noteOff","velocity":0},{"channel":2,"nextOffset":29130,"note":33,"tick":76661,"time":99.81901041666666,"type":"noteOff","velocity":0},{"channel":9,"nextOffset":21458,"note":35,"tick":76670,"time":99.83072916666666,"type":"noteOn","velocity":50},{"channel":9,"nextOffset":45894,"note":42,"tick":76736,"time":99.91666666666666,"type":"noteOn","velocity":50},{"channel":0,"nextOffset":4399,"note":26,"tick":76745,"time":99.92838541666666,"type":"noteOn","velocity":68},{"channel":2,"nextOffset":29134,"note":33,"tick":76757,"time":99.94401041666666,"type":"noteOn","velocity":57},{"channel":1,"nextOffset":17574,"note":33,"tick":76765,"time":99.95442708333333,"type":"noteOff","velocity":0},{"channel":9,"nextOffset":21462,"note":35,"tick":76766,"time":99.95572916666666,"type":"noteOff","velocity":0},{"channel":9,"nextOffset":25271,"note":35,"tick":76774,"time":99.96614583333333,"type":"noteOn","velocity":50},{"channel":9,"nextOffset":33682,"note":42,"tick":76800,"time":99.99999999999999,"type":"noteOn","velocity":50},{"channel":9,"nextOffset":45898,"note":42,"tick":76832,"time":100.04166666666666,"type":"noteOff","velocity":0},{"channel":9,"nextOffset":45902,"note":42,"tick":76832,"time":100.04166666666666,"type":"noteOn","velocity":50},{"channel":2,"nextOffset":29138,"note":33,"tick":76853,"time":100.06901041666666,"type":"noteOff","velocity":0},{"channel":1,"nextOffset":17578,"note":33,"tick":76861,"time":100.07942708333333,"type":"noteOn","velocity":50},{"channel":9,"nextOffset":25275,"note":35,"tick":76870,"time":100.09114583333333,"type":"noteOff","velocity":0},{"channel":9,"nextOffset":33686,"note":42,"tick":76896,"time":100.12499999999999,"type":"noteOff","velocity":0},{"channel":9,"nextOffset":33690,"note":42,"tick":76896,"time":100.12499999999999,"type":"noteOn","velocity":50},{"channel":9,"nextOffset":33694,"note":42,"tick":76920,"time":100.15624999999999,"type":"noteOff","velocity":0},{"channel":9,"nextOffset":45906,"note":42,"tick":76928,"time":100.16666666666666,"type":"noteOff","velocity":0},{"channel":0,"nextOffset":4404,"note":26,"tick":76937,"time":100.17838541666666,"type":"noteOff","velocity":0},{"channel":9,"nextOffset":33698,"note":42,"tick":76944,"time":100.18749999999999,"type":"noteOn","velocity":50},{"channel":1,"nextOffset":17582,"note":33,"tick":76957,"time":100.20442708333333,"type":"noteOff","velocity":0},{"channel":9,"nextOffset":33702,"note":42,"tick":76968,"time":100.21874999999999,"type":"noteOff","velocity":0},{"channel":9,"nextOffset":33706,"note":42,"tick":76992,"time":100.24999999999999,"type":"noteOn","velocity":50},{"channel":9,"nextOffset":33710,"note":42,"tick":77016,"time":100.28124999999999,"type":"noteOff","velocity":0},{"channel":9,"nextOffset":33714,"note":42,"tick":77040,"time":100.31249999999999,"type":"noteOn","velocity":50},{"channel":2,"nextOffset":29143,"note":26,"tick":77045,"time":100.31901041666666,"type":"noteOn","velocity":57},{"channel":9,"nextOffset":21467,"note":35,"tick":77054,"time":100.33072916666666,"type":"noteOn","velocity":50},{"channel":9,"nextOffset":33718,"note":42,"tick":77064,"time":100.34374999999999,"type":"noteOff","velocity":0},{"channel":9,"nextOffset":33722,"note":42,"tick":77088,"time":100.37499999999999,"type":"noteOn","velocity":50},{"channel":9,"nextOffset":33726,"note":42,"tick":77112,"time":100.40624999999999,"type":"noteOff","velocity":0},{"channel":9,"nextOffset":45911,"note":42,"tick":77120,"time":100.41666666666666,"type":"noteOn","velocity":50},{"channel":0,"nextOffset":4409,"note":64,"tick":77129,"time":100.42838541666666,"type":"noteOn","velocity":68},{"channel":0,"nextOffset":4413,"note":60,"tick":77129,"time":100.42838541666666,"type":"noteOn","velocity":68},{"channel":0,"nextOffset":4417,"note":69,"tick":77129,"time":100.42838541666666,"type":"noteOn","velocity":68},{"channel":0,"nextOffset":4421,"note":65,"tick":77129,"time":100.42838541666666,"type":"noteOn","velocity":68},{"channel":0,"nextOffset":4425,"note":38,"tick":77129,"time":100.42838541666666,"type":"noteOn","velocity":68},{"channel":1,"nextOffset":17587,"note":26,"tick":77149,"time":100.45442708333333,"type":"noteOn","velocity":50},{"channel":9,"nextOffset":21471,"note":35,"tick":77150,"time":100.45572916666666,"type":"noteOff","velocity":0},{"channel":9,"nextOffset":25280,"note":35,"tick":77158,"time":100.46614583333333,"type":"noteOn","velocity":50},{"channel":9,"nextOffset":45915,"note":42,"tick":77216,"time":100.54166666666666,"type":"noteOff","velocity":0},{"channel":2,"nextOffset":29148,"note":26,"tick":77237,"time":100.56901041666666,"type":"noteOff","velocity":0},{"channel":9,"nextOffset":25284,"note":35,"tick":77254,"time":100.59114583333333,"type":"noteOff","velocity":0},{"channel":9,"nextOffset":33731,"note":42,"tick":77280,"time":100.62499999999999,"type":"noteOn","velocity":50},{"channel":0,"nextOffset":4430,"note":38,"tick":77321,"time":100.67838541666666,"type":"noteOff","velocity":0},{"channel":0,"nextOffset":4434,"note":65,"tick":77321,"time":100.67838541666666,"type":"noteOff","velocity":0},{"channel":0,"nextOffset":4438,"note":69,"tick":77321,"time":100.67838541666666,"type":"noteOff","velocity":0},{"channel":0,"nextOffset":4442,"note":60,"tick":77321,"time":100.67838541666666,"type":"noteOff","velocity":0},{"channel":0,"nextOffset":4446,"note":64,"tick":77321,"time":100.67838541666666,"type":"noteOff","velocity":0},{"channel":1,"nextOffset":17592,"note":26,"tick":77341,"time":100.70442708333333,"type":"noteOff","velocity":0},{"channel":9,"nextOffset":21476,"note":35,"tick":77342,"time":100.70572916666666,"type":"noteOn","velocity":50},{"channel":9,"nextOffset":33735,"note":42,"tick":77376,"time":100.74999999999999,"type":"noteOff","velocity":0},{"channel":9,"nextOffset":33739,"note":42,"tick":77376,"time":100.74999999999999,"type":"noteOn","velocity":50},{"channel":9,"nextOffset":45920,"note":42,"tick":77408,"time":100.79166666666666,"type":"noteOn","velocity":50},{"channel":0,"nextOffset":4450,"note":33,"tick":77417,"time":100.80338541666666,"type":"noteOn","velocity":68},{"channel":2,"nextOffset":29153,"note":38,"tick":77429,"time":100.81901041666666,"type":"noteOn","velocity":57},{"channel":9,"nextOffset":21480,"note":35,"tick":77438,"time":100.83072916666666,"type":"noteOff","velocity":0},{"channel":9,"nextOffset":25289,"note":35,"tick":77446,"time":100.84114583333333,"type":"noteOn","velocity":50},{"channel":9,"nextOffset":33743,"note":42,"tick":77472,"time":100.87499999999999,"type":"noteOff","velocity":0},{"channel":9,"nextOffset":45924,"note":42,"tick":77504,"time":100.91666666666666,"type":"noteOff","velocity":0},{"channel":9,"nextOffset":45928,"note":42,"tick":77504,"time":100.91666666666666,"type":"noteOn","velocity":50},{"channel":0,"nextOffset":4454,"note":72,"tick":77513,"time":100.92838541666666,"type":"noteOn","velocity":68},{"channel":0,"nextOffset":4458,"note":69,"tick":77513,"time":100.92838541666666,"type":"noteOn","velocity":68},{"channel":0,"nextOffset":4462,"note":77,"tick":77513,"time":100.92838541666666,"type":"noteOn","velocity":68},{"channel":0,"nextOffset":4466,"note":74,"tick":77513,"time":100.92838541666666,"type":"noteOn","velocity":68},{"channel":9,"nextOffset":45932,"note":42,"tick":77528,"time":100.94791666666666,"type":"noteOff","velocity":0},{"channel":1,"nextOffset":17597,"note":38,"tick":77533,"time":100.95442708333333,"type":"noteOn","velocity":50},{"channel":9,"nextOffset":25293,"note":35,"tick":77542,"time":100.96614583333333,"type":"noteOff","velocity":0},{"channel":9,"nextOffset":45936,"note":42,"tick":77552,"time":100.97916666666666,"type":"noteOn","velocity":50},{"channel":9,"nextOffset":45940,"note":42,"tick":77576,"time":101.01041666666666,"type":"noteOff","velocity":0},{"channel":9,"nextOffset":45944,"note":42,"tick":77600,"time":101.04166666666666,"type":"noteOn","velocity":50},{"channel":0,"nextOffset":4470,"note":33,"tick":77609,"time":101.05338541666666,"type":"noteOff","velocity":0},{"channel":2,"nextOffset":29158,"note":38,"tick":77621,"time":101.06901041666666,"type":"noteOff","velocity":0},{"channel":2,"nextOffset":29162,"note":26,"tick":77621,"time":101.06901041666666,"type":"noteOn","velocity":57},{"channel":9,"nextOffset":45948,"note":42,"tick":77624,"time":101.07291666666666,"type":"noteOff","velocity":0},{"channel":9,"nextOffset":21485,"note":35,"tick":77630,"time":101.08072916666666,"type":"noteOn","velocity":50},{"channel":9,"nextOffset":45952,"note":42,"tick":77648,"time":101.10416666666666,"type":"noteOn","velocity":50},{"channel":9,"nextOffset":33748,"note":42,"tick":77664,"time":101.12499999999999,"type":"noteOn","velocity":50},{"channel":9,"nextOffset":45956,"note":42,"tick":77672,"time":101.13541666666666,"type":"noteOff","velocity":0},{"channel":0,"nextOffset":4474,"note":74,"tick":77705,"time":101.17838541666666,"type":"noteOff","velocity":0},{"channel":0,"nextOffset":4478,"note":77,"tick":77705,"time":101.17838541666666,"type":"noteOff","velocity":0},{"channel":0,"nextOffset":4482,"note":69,"tick":77705,"time":101.17838541666666,"type":"noteOff","velocity":0},{"channel":0,"nextOffset":4486,"note":72,"tick":77705,"time":101.17838541666666,"type":"noteOff","velocity":0},{"channel":0,"nextOffset":4490,"note":32,"tick":77705,"time":101.17838541666666,"type":"noteOn","velocity":68},{"channel":1,"nextOffset":17602,"note":38,"tick":77725,"time":101.20442708333333,"type":"noteOff","velocity":0},{"channel":1,"nextOffset":17606,"note":26,"tick":77725,"time":101.20442708333333,"type":"noteOn","velocity":50},{"channel":9,"nextOffset":21489,"note":35,"tick":77726,"time":101.20572916666666,"type":"noteOff","velocity":0},{"channel":9,"nextOffset":25298,"note":35,"tick":77734,"time":101.21614583333333,"type":"noteOn","velocity":50},{"channel":9,"nextOffset":33752,"note":42,"tick":77760,"time":101.24999999999999,"type":"noteOff","velocity":0},{"channel":9,"nextOffset":33756,"note":42,"tick":77760,"time":101.24999999999999,"type":"noteOn","velocity":50},{"channel":2,"nextOffset":29167,"note":26,"tick":77813,"time":101.31901041666666,"type":"noteOff","velocity":0},{"channel":2,"nextOffset":29171,"note":33,"tick":77813,"time":101.31901041666666,"type":"noteOn","velocity":57},{"channel":9,"nextOffset":21493,"note":35,"tick":77822,"time":101.33072916666666,"type":"noteOn","velocity":50},{"channel":9,"nextOffset":25302,"note":35,"tick":77830,"time":101.34114583333333,"type":"noteOff","velocity":0},{"channel":9,"nextOffset":33760,"note":42,"tick":77856,"time":101.37499999999999,"type":"noteOff","velocity":0},{"channel":9,"nextOffset":45961,"note":42,"tick":77888,"time":101.41666666666666,"type":"noteOn","velocity":50},{"channel":0,"nextOffset":4495,"note":32,"tick":77897,"time":101.42838541666666,"type":"noteOff","velocity":0},{"channel":0,"nextOffset":4499,"note":31,"tick":77897,"time":101.42838541666666,"type":"noteOn","velocity":68},{"channel":0,"nextOffset":4503,"note":58,"tick":77897,"time":101.42838541666666,"type":"noteOn","velocity":68},{"channel":0,"nextOffset":4507,"note":62,"tick":77897,"time":101.42838541666666,"type":"noteOn","velocity":68},{"channel":0,"nextOffset":4511,"note":65,"tick":77897,"time":101.42838541666666,"type":"noteOn","velocity":68},{"channel":0,"nextOffset":4515,"note":69,"tick":77897,"time":101.42838541666666,"type":"noteOn","velocity":68},{"channel":1,"nextOffset":17611,"note":26,"tick":77917,"time":101.45442708333333,"type":"noteOff","velocity":0},{"channel":1,"nextOffset":17615,"note":33,"tick":77917,"time":101.45442708333333,"type":"noteOn","velocity":50},{"channel":9,"nextOffset":21497,"note":35,"tick":77918,"time":101.45572916666666,"type":"noteOff","velocity":0},{"channel":9,"nextOffset":25306,"note":35,"tick":77926,"time":101.46614583333333,"type":"noteOn","velocity":50},{"channel":9,"nextOffset":45965,"note":42,"tick":77984,"time":101.54166666666666,"type":"noteOff","velocity":0},{"channel":9,"nextOffset":45969,"note":42,"tick":77984,"time":101.54166666666666,"type":"noteOn","velocity":50},{"channel":2,"nextOffset":29176,"note":33,"tick":78005,"time":101.56901041666666,"type":"noteOff","velocity":0},{"channel":9,"nextOffset":25310,"note":35,"tick":78022,"time":101.59114583333333,"type":"noteOff","velocity":0},{"channel":9,"nextOffset":33765,"note":42,"tick":78048,"time":101.62499999999999,"type":"noteOn","velocity":50},{"channel":9,"nextOffset":45973,"note":42,"tick":78080,"time":101.66666666666666,"type":"noteOff","velocity":0},{"channel":0,"nextOffset":4520,"note":31,"tick":78089,"time":101.67838541666666,"type":"noteOff","velocity":0},{"channel":1,"nextOffset":17620,"note":33,"tick":78109,"time":101.70442708333333,"type":"noteOff","velocity":0},{"channel":9,"nextOffset":33769,"note":42,"tick":78144,"time":101.74999999999999,"type":"noteOff","velocity":0},{"channel":2,"nextOffset":29181,"note":26,"tick":78197,"time":101.81901041666666,"type":"noteOn","velocity":57},{"channel":9,"nextOffset":21502,"note":35,"tick":78206,"time":101.83072916666666,"type":"noteOn","velocity":50},{"channel":9,"nextOffset":45978,"note":42,"tick":78272,"time":101.91666666666666,"type":"noteOn","velocity":50},{"channel":0,"nextOffset":4525,"note":69,"tick":78281,"time":101.92838541666666,"type":"noteOff","velocity":0},{"channel":0,"nextOffset":4529,"note":65,"tick":78281,"time":101.92838541666666,"type":"noteOff","velocity":0},{"channel":0,"nextOffset":4533,"note":62,"tick":78281,"time":101.92838541666666,"type":"noteOff","velocity":0},{"channel":0,"nextOffset":4537,"note":58,"tick":78281,"time":101.92838541666666,"type":"noteOff","velocity":0},{"channel":0,"nextOffset":4541,"note":31,"tick":78281,"time":101.92838541666666,"type":"noteOn","velocity":68},{"channel":1,"nextOffset":17625,"note":26,"tick":78301,"time":101.95442708333333,"type":"noteOn","velocity":50},{"channel":9,"nextOffset":21506,"note":35,"tick":78302,"time":101.95572916666666,"type":"noteOff","velocity":0},{"channel":9,"nextOffset":25315,"note":35,"tick":78310,"time":101.96614583333333,"type":"noteOn","velocity":50},{"channel":9,"nextOffset":33774,"note":42,"tick":78336,"time":101.99999999999999,"type":"noteOn","velocity":50},{"channel":9,"nextOffset":45982,"note":42,"tick":78368,"time":102.04166666666666,"type":"noteOff","velocity":0},{"channel":9,"nextOffset":45986,"note":42,"tick":78368,"time":102.04166666666666,"type":"noteOn","velocity":50},{"channel":2,"nextOffset":29186,"note":26,"tick":78389,"time":102.06901041666666,"type":"noteOff","velocity":0},{"channel":2,"nextOffset":29190,"note":33,"tick":78389,"time":102.06901041666666,"type":"noteOn","velocity":57},{"channel":9,"nextOffset":25319,"note":35,"tick":78406,"time":102.09114583333333,"type":"noteOff","velocity":0},{"channel":9,"nextOffset":33778,"note":42,"tick":78432,"time":102.12499999999999,"type":"noteOff","velocity":0},{"channel":9,"nextOffset":33782,"note":42,"tick":78432,"time":102.12499999999999,"type":"noteOn","velocity":50},{"channel":9,"nextOffset":33786,"note":42,"tick":78456,"time":102.15624999999999,"type":"noteOff","velocity":0},{"channel":9,"nextOffset":45990,"note":42,"tick":78464,"time":102.16666666666666,"type":"noteOff","velocity":0},{"channel":0,"nextOffset":4546,"note":31,"tick":78473,"time":102.17838541666666,"type":"noteOff","velocity":0},{"channel":9,"nextOffset":33790,"note":42,"tick":78480,"time":102.18749999999999,"type":"noteOn","velocity":50},{"channel":1,"nextOffset":17630,"note":26,"tick":78493,"time":102.20442708333333,"type":"noteOff","velocity":0},{"channel":1,"nextOffset":17634,"note":33,"tick":78493,"time":102.20442708333333,"type":"noteOn","velocity":50},{"channel":9,"nextOffset":33794,"note":42,"tick":78504,"time":102.21874999999999,"type":"noteOff","velocity":0},{"channel":9,"nextOffset":33798,"note":42,"tick":78528,"time":102.24999999999999,"type":"noteOn","velocity":50},{"channel":9,"nextOffset":33802,"note":42,"tick":78552,"time":102.28124999999999,"type":"noteOff","velocity":0},{"channel":9,"nextOffset":33806,"note":42,"tick":78576,"time":102.31249999999999,"type":"noteOn","velocity":50},{"channel":2,"nextOffset":29195,"note":33,"tick":78581,"time":102.31901041666666,"type":"noteOff","velocity":0},{"channel":2,"nextOffset":29199,"note":32,"tick":78581,"time":102.31901041666666,"type":"noteOn","velocity":57},{"channel":9,"nextOffset":21511,"note":35,"tick":78590,"time":102.33072916666666,"type":"noteOn","velocity":50},{"channel":9,"nextOffset":33810,"note":42,"tick":78600,"time":102.34374999999999,"type":"noteOff","velocity":0},{"channel":9,"nextOffset":33814,"note":42,"tick":78624,"time":102.37499999999999,"type":"noteOn","velocity":50},{"channel":9,"nextOffset":33818,"note":42,"tick":78648,"time":102.40624999999999,"type":"noteOff","velocity":0},{"channel":9,"nextOffset":45995,"note":42,"tick":78656,"time":102.41666666666666,"type":"noteOn","velocity":50},{"channel":0,"nextOffset":4551,"note":33,"tick":78665,"time":102.42838541666666,"type":"noteOn","velocity":68},{"channel":0,"nextOffset":4555,"note":72,"tick":78665,"time":102.42838541666666,"type":"noteOn","velocity":68},{"channel":0,"nextOffset":4559,"note":67,"tick":78665,"time":102.42838541666666,"type":"noteOn","velocity":68},{"channel":0,"nextOffset":4563,"note":64,"tick":78665,"time":102.42838541666666,"type":"noteOn","velocity":68},{"channel":0,"nextOffset":4567,"note":60,"tick":78665,"time":102.42838541666666,"type":"noteOn","velocity":68},{"channel":1,"nextOffset":17639,"note":33,"tick":78685,"time":102.45442708333333,"type":"noteOff","velocity":0},{"channel":1,"nextOffset":17643,"note":32,"tick":78685,"time":102.45442708333333,"type":"noteOn","velocity":50},{"channel":9,"nextOffset":21515,"note":35,"tick":78686,"time":102.45572916666666,"type":"noteOff","velocity":0},{"channel":9,"nextOffset":25324,"note":35,"tick":78694,"time":102.46614583333333,"type":"noteOn","velocity":50},{"channel":9,"nextOffset":45999,"note":42,"tick":78752,"time":102.54166666666666,"type":"noteOff","velocity":0},{"channel":2,"nextOffset":29204,"note":32,"tick":78773,"time":102.56901041666666,"type":"noteOff","velocity":0},{"channel":2,"nextOffset":29208,"note":31,"tick":78773,"time":102.56901041666666,"type":"noteOn","velocity":57},{"channel":9,"nextOffset":25328,"note":35,"tick":78790,"time":102.59114583333333,"type":"noteOff","velocity":0},{"channel":9,"nextOffset":33823,"note":42,"tick":78816,"time":102.62499999999999,"type":"noteOn","velocity":50},{"channel":0,"nextOffset":4572,"note":60,"tick":78857,"time":102.67838541666666,"type":"noteOff","velocity":0},{"channel":0,"nextOffset":4576,"note":64,"tick":78857,"time":102.67838541666666,"type":"noteOff","velocity":0},{"channel":0,"nextOffset":4580,"note":67,"tick":78857,"time":102.67838541666666,"type":"noteOff","velocity":0},{"channel":0,"nextOffset":4584,"note":72,"tick":78857,"time":102.67838541666666,"type":"noteOff","velocity":0},{"channel":0,"nextOffset":4588,"note":33,"tick":78857,"time":102.67838541666666,"type":"noteOff","velocity":0},{"channel":1,"nextOffset":17648,"note":32,"tick":78877,"time":102.70442708333333,"type":"noteOff","velocity":0},{"channel":1,"nextOffset":17652,"note":31,"tick":78877,"time":102.70442708333333,"type":"noteOn","velocity":50},{"channel":9,"nextOffset":21520,"note":35,"tick":78878,"time":102.70572916666666,"type":"noteOn","velocity":50},{"channel":9,"nextOffset":33827,"note":42,"tick":78912,"time":102.74999999999999,"type":"noteOff","velocity":0},{"channel":9,"nextOffset":46004,"note":42,"tick":78944,"time":102.79166666666666,"type":"noteOn","velocity":50},{"channel":0,"nextOffset":4592,"note":33,"tick":78953,"time":102.80338541666666,"type":"noteOn","velocity":68},{"channel":2,"nextOffset":29213,"note":31,"tick":78965,"time":102.81901041666666,"type":"noteOff","velocity":0},{"channel":9,"nextOffset":21524,"note":35,"tick":78974,"time":102.83072916666666,"type":"noteOff","velocity":0},{"channel":9,"nextOffset":25333,"note":35,"tick":78982,"time":102.84114583333333,"type":"noteOn","velocity":50},{"channel":9,"nextOffset":46008,"note":42,"tick":79040,"time":102.91666666666666,"type":"noteOff","velocity":0},{"channel":9,"nextOffset":46012,"note":42,"tick":79040,"time":102.91666666666666,"type":"noteOn","velocity":50},{"channel":0,"nextOffset":4596,"note":61,"tick":79049,"time":102.92838541666666,"type":"noteOn","velocity":68},{"channel":0,"nextOffset":4600,"note":65,"tick":79049,"time":102.92838541666666,"type":"noteOn","velocity":68},{"channel":0,"nextOffset":4604,"note":67,"tick":79049,"time":102.92838541666666,"type":"noteOn","velocity":68},{"channel":0,"nextOffset":4608,"note":70,"tick":79049,"time":102.92838541666666,"type":"noteOn","velocity":68},{"channel":9,"nextOffset":46016,"note":42,"tick":79064,"time":102.94791666666666,"type":"noteOff","velocity":0},{"channel":1,"nextOffset":17657,"note":31,"tick":79069,"time":102.95442708333333,"type":"noteOff","velocity":0},{"channel":9,"nextOffset":25337,"note":35,"tick":79078,"time":102.96614583333333,"type":"noteOff","velocity":0},{"channel":9,"nextOffset":46020,"note":42,"tick":79088,"time":102.97916666666666,"type":"noteOn","velocity":50},{"channel":9,"nextOffset":46024,"note":42,"tick":79112,"time":103.01041666666666,"type":"noteOff","velocity":0},{"channel":9,"nextOffset":46028,"note":42,"tick":79136,"time":103.04166666666666,"type":"noteOn","velocity":50},{"channel":0,"nextOffset":4612,"note":33,"tick":79145,"time":103.05338541666666,"type":"noteOff","velocity":0},{"channel":2,"nextOffset":29218,"note":31,"tick":79157,"time":103.06901041666666,"type":"noteOn","velocity":57},{"channel":9,"nextOffset":46032,"note":42,"tick":79160,"time":103.07291666666666,"type":"noteOff","velocity":0},{"channel":9,"nextOffset":21529,"note":35,"tick":79166,"time":103.08072916666666,"type":"noteOn","velocity":50},{"channel":9,"nextOffset":46036,"note":42,"tick":79184,"time":103.10416666666666,"type":"noteOn","velocity":50},{"channel":9,"nextOffset":33832,"note":42,"tick":79200,"time":103.12499999999999,"type":"noteOn","velocity":50},{"channel":9,"nextOffset":46040,"note":42,"tick":79208,"time":103.13541666666666,"type":"noteOff","velocity":0},{"channel":9,"nextOffset":46044,"note":42,"tick":79232,"time":103.16666666666666,"type":"noteOn","velocity":50},{"channel":0,"nextOffset":4616,"note":70,"tick":79241,"time":103.17838541666666,"type":"noteOff","velocity":0},{"channel":0,"nextOffset":4620,"note":67,"tick":79241,"time":103.17838541666666,"type":"noteOff","velocity":0},{"channel":0,"nextOffset":4624,"note":65,"tick":79241,"time":103.17838541666666,"type":"noteOff","velocity":0},{"channel":0,"nextOffset":4628,"note":61,"tick":79241,"time":103.17838541666666,"type":"noteOff","velocity":0},{"channel":0,"nextOffset":4632,"note":33,"tick":79241,"time":103.17838541666666,"type":"noteOn","velocity":68},{"channel":9,"nextOffset":46048,"note":42,"tick":79256,"time":103.19791666666666,"type":"noteOff","velocity":0},{"channel":1,"nextOffset":17662,"note":31,"tick":79261,"time":103.20442708333333,"type":"noteOn","velocity":50},{"channel":9,"nextOffset":21533,"note":35,"tick":79262,"time":103.20572916666666,"type":"noteOff","velocity":0},{"channel":9,"nextOffset":25342,"note":35,"tick":79270,"time":103.21614583333333,"type":"noteOn","velocity":50},{"channel":9,"nextOffset":33836,"note":42,"tick":79296,"time":103.24999999999999,"type":"noteOff","velocity":0},{"channel":9,"nextOffset":33840,"note":42,"tick":79296,"time":103.24999999999999,"type":"noteOn","velocity":50},{"channel":2,"nextOffset":29223,"note":31,"tick":79349,"time":103.31901041666666,"type":"noteOff","velocity":0},{"channel":2,"nextOffset":29227,"note":32,"tick":79349,"time":103.31901041666666,"type":"noteOn","velocity":57},{"channel":9,"nextOffset":21537,"note":35,"tick":79358,"time":103.33072916666666,"type":"noteOn","velocity":50},{"channel":9,"nextOffset":25346,"note":35,"tick":79366,"time":103.34114583333333,"type":"noteOff","velocity":0},{"channel":9,"nextOffset":33844,"note":42,"tick":79392,"time":103.37499999999999,"type":"noteOff","velocity":0},{"channel":9,"nextOffset":46053,"note":42,"tick":79424,"time":103.41666666666666,"type":"noteOn","velocity":50},{"channel":0,"nextOffset":4637,"note":33,"tick":79433,"time":103.42838541666666,"type":"noteOff","velocity":0},{"channel":0,"nextOffset":4641,"note":26,"tick":79433,"time":103.42838541666666,"type":"noteOn","velocity":68},{"channel":0,"nextOffset":4645,"note":60,"tick":79433,"time":103.42838541666666,"type":"noteOn","velocity":68},{"channel":0,"nextOffset":4649,"note":64,"tick":79433,"time":103.42838541666666,"type":"noteOn","velocity":68},{"channel":0,"nextOffset":4653,"note":65,"tick":79433,"time":103.42838541666666,"type":"noteOn","velocity":68},{"channel":0,"nextOffset":4657,"note":69,"tick":79433,"time":103.42838541666666,"type":"noteOn","velocity":68},{"channel":1,"nextOffset":17667,"note":31,"tick":79453,"time":103.45442708333333,"type":"noteOff","velocity":0},{"channel":1,"nextOffset":17671,"note":32,"tick":79453,"time":103.45442708333333,"type":"noteOn","velocity":50},{"channel":9,"nextOffset":21541,"note":35,"tick":79454,"time":103.45572916666666,"type":"noteOff","velocity":0},{"channel":9,"nextOffset":25350,"note":35,"tick":79462,"time":103.46614583333333,"type":"noteOn","velocity":50},{"channel":9,"nextOffset":46057,"note":42,"tick":79520,"time":103.54166666666666,"type":"noteOff","velocity":0},{"channel":9,"nextOffset":46061,"note":42,"tick":79520,"time":103.54166666666666,"type":"noteOn","velocity":50},{"channel":2,"nextOffset":29232,"note":32,"tick":79541,"time":103.56901041666666,"type":"noteOff","velocity":0},{"channel":2,"nextOffset":29236,"note":33,"tick":79541,"time":103.56901041666666,"type":"noteOn","velocity":57},{"channel":2,"nextOffset":29240,"note":33,"tick":79541,"time":103.56901041666666,"type":"noteOn","velocity":57},{"channel":9,"nextOffset":25354,"note":35,"tick":79558,"time":103.59114583333333,"type":"noteOff","velocity":0},{"channel":9,"nextOffset":33849,"note":42,"tick":79584,"time":103.62499999999999,"type":"noteOn","velocity":50},{"channel":9,"nextOffset":46065,"note":42,"tick":79616,"time":103.66666666666666,"type":"noteOff","velocity":0},{"channel":0,"nextOffset":4662,"note":69,"tick":79625,"time":103.67838541666666,"type":"noteOff","velocity":0},{"channel":0,"nextOffset":4666,"note":65,"tick":79625,"time":103.67838541666666,"type":"noteOff","velocity":0},{"channel":0,"nextOffset":4670,"note":64,"tick":79625,"time":103.67838541666666,"type":"noteOff","velocity":0},{"channel":0,"nextOffset":4674,"note":60,"tick":79625,"time":103.67838541666666,"type":"noteOff","velocity":0},{"channel":0,"nextOffset":4678,"note":26,"tick":79625,"time":103.67838541666666,"type":"noteOff","velocity":0},{"channel":1,"nextOffset":17676,"note":32,"tick":79645,"time":103.70442708333333,"type":"noteOff","velocity":0},{"channel":1,"nextOffset":17680,"note":33,"tick":79645,"time":103.70442708333333,"type":"noteOn","velocity":50},{"channel":1,"nextOffset":17684,"note":33,"tick":79645,"time":103.70442708333333,"type":"noteOn","velocity":50},{"channel":9,"nextOffset":33853,"note":42,"tick":79680,"time":103.74999999999999,"type":"noteOff","velocity":0},{"channel":2,"nextOffset":29245,"note":33,"tick":79733,"time":103.81901041666666,"type":"noteOff","velocity":0},{"channel":2,"nextOffset":29249,"note":33,"tick":79733,"time":103.81901041666666,"type":"noteOff","velocity":0},{"channel":9,"nextOffset":21546,"note":35,"tick":79742,"time":103.83072916666666,"type":"noteOn","velocity":50},{"channel":9,"nextOffset":46070,"note":42,"tick":79808,"time":103.91666666666666,"type":"noteOn","velocity":50},{"channel":9,"nextOffset":46074,"note":42,"tick":79808,"time":103.91666666666666,"type":"noteOn","velocity":50},{"channel":0,"nextOffset":4683,"note":26,"tick":79817,"time":103.92838541666666,"type":"noteOn","velocity":68},{"channel":2,"nextOffset":29253,"note":33,"tick":79829,"time":103.94401041666666,"type":"noteOn","velocity":57},{"channel":1,"nextOffset":17689,"note":33,"tick":79837,"time":103.95442708333333,"type":"noteOff","velocity":0},{"channel":1,"nextOffset":17693,"note":33,"tick":79837,"time":103.95442708333333,"type":"noteOff","velocity":0},{"channel":9,"nextOffset":21550,"note":35,"tick":79838,"time":103.95572916666666,"type":"noteOff","velocity":0},{"channel":9,"nextOffset":25359,"note":35,"tick":79846,"time":103.96614583333333,"type":"noteOn","velocity":50},{"channel":9,"nextOffset":33858,"note":42,"tick":79872,"time":103.99999999999999,"type":"noteOn","velocity":50},{"channel":9,"nextOffset":46078,"note":42,"tick":79904,"time":104.04166666666666,"type":"noteOff","velocity":0},{"channel":9,"nextOffset":46082,"note":42,"tick":79904,"time":104.04166666666666,"type":"noteOff","velocity":0},{"channel":9,"nextOffset":46086,"note":42,"tick":79904,"time":104.04166666666666,"type":"noteOn","velocity":50},{"channel":2,"nextOffset":29257,"note":33,"tick":79925,"time":104.06901041666666,"type":"noteOff","velocity":0},{"channel":1,"nextOffset":17697,"note":33,"tick":79933,"time":104.07942708333333,"type":"noteOn","velocity":50},{"channel":9,"nextOffset":25363,"note":35,"tick":79942,"time":104.09114583333333,"type":"noteOff","velocity":0},{"channel":9,"nextOffset":33862,"note":42,"tick":79968,"time":104.12499999999999,"type":"noteOff","velocity":0},{"channel":9,"nextOffset":33866,"note":42,"tick":79968,"time":104.12499999999999,"type":"noteOn","velocity":50},{"channel":9,"nextOffset":33870,"note":42,"tick":79992,"time":104.15624999999999,"type":"noteOff","velocity":0},{"channel":9,"nextOffset":46090,"note":42,"tick":80000,"time":104.16666666666666,"type":"noteOff","velocity":0},{"channel":0,"nextOffset":4688,"note":26,"tick":80009,"time":104.17838541666666,"type":"noteOff","velocity":0},{"channel":9,"nextOffset":33874,"note":42,"tick":80016,"time":104.18749999999999,"type":"noteOn","velocity":50},{"channel":1,"nextOffset":17701,"note":33,"tick":80029,"time":104.20442708333333,"type":"noteOff","velocity":0},{"channel":9,"nextOffset":25367,"note":42,"tick":80038,"time":104.21614583333333,"type":"noteOn","velocity":50},{"channel":9,"nextOffset":33878,"note":42,"tick":80040,"time":104.21874999999999,"type":"noteOff","velocity":0},{"channel":9,"nextOffset":33882,"note":42,"tick":80064,"time":104.24999999999999,"type":"noteOn","velocity":50},{"channel":9,"nextOffset":33886,"note":42,"tick":80088,"time":104.28124999999999,"type":"noteOff","velocity":0},{"channel":9,"nextOffset":33890,"note":42,"tick":80112,"time":104.31249999999999,"type":"noteOn","velocity":50},{"channel":2,"nextOffset":29262,"note":26,"tick":80117,"time":104.31901041666666,"type":"noteOn","velocity":57},{"channel":9,"nextOffset":21555,"note":35,"tick":80126,"time":104.33072916666666,"type":"noteOn","velocity":50},{"channel":9,"nextOffset":25371,"note":42,"tick":80134,"time":104.34114583333333,"type":"noteOff","velocity":0},{"channel":9,"nextOffset":33894,"note":42,"tick":80136,"time":104.34374999999999,"type":"noteOff","velocity":0},{"channel":9,"nextOffset":46095,"note":42,"tick":80192,"time":104.41666666666666,"type":"noteOn","velocity":50},{"channel":0,"nextOffset":4693,"note":38,"tick":80201,"time":104.42838541666666,"type":"noteOn","velocity":68},{"channel":0,"nextOffset":4697,"note":64,"tick":80201,"time":104.42838541666666,"type":"noteOn","velocity":68},{"channel":0,"nextOffset":4701,"note":60,"tick":80201,"time":104.42838541666666,"type":"noteOn","velocity":68},{"channel":0,"nextOffset":4705,"note":69,"tick":80201,"time":104.42838541666666,"type":"noteOn","velocity":68},{"channel":0,"nextOffset":4709,"note":65,"tick":80201,"time":104.42838541666666,"type":"noteOn","velocity":68},{"channel":1,"nextOffset":17706,"note":26,"tick":80221,"time":104.45442708333333,"type":"noteOn","velocity":50},{"channel":9,"nextOffset":21559,"note":35,"tick":80222,"time":104.45572916666666,"type":"noteOff","velocity":0},{"channel":9,"nextOffset":25375,"note":35,"tick":80230,"time":104.46614583333333,"type":"noteOn","velocity":50},{"channel":9,"nextOffset":46099,"note":42,"tick":80288,"time":104.54166666666666,"type":"noteOff","velocity":0},{"channel":2,"nextOffset":29267,"note":26,"tick":80309,"time":104.56901041666666,"type":"noteOff","velocity":0},{"channel":9,"nextOffset":25379,"note":35,"tick":80326,"time":104.59114583333333,"type":"noteOff","velocity":0},{"channel":9,"nextOffset":33899,"note":42,"tick":80352,"time":104.62499999999999,"type":"noteOn","velocity":50},{"channel":0,"nextOffset":4714,"note":65,"tick":80393,"time":104.67838541666666,"type":"noteOff","velocity":0},{"channel":0,"nextOffset":4718,"note":69,"tick":80393,"time":104.67838541666666,"type":"noteOff","velocity":0},{"channel":0,"nextOffset":4722,"note":60,"tick":80393,"time":104.67838541666666,"type":"noteOff","velocity":0},{"channel":0,"nextOffset":4726,"note":64,"tick":80393,"time":104.67838541666666,"type":"noteOff","velocity":0},{"channel":0,"nextOffset":4730,"note":38,"tick":80393,"time":104.67838541666666,"type":"noteOff","velocity":0},{"channel":1,"nextOffset":17711,"note":26,"tick":80413,"time":104.70442708333333,"type":"noteOff","velocity":0},{"channel":9,"nextOffset":21564,"note":35,"tick":80414,"time":104.70572916666666,"type":"noteOn","velocity":50},{"channel":9,"nextOffset":33903,"note":42,"tick":80448,"time":104.74999999999999,"type":"noteOff","velocity":0},{"channel":9,"nextOffset":33907,"note":42,"tick":80448,"time":104.74999999999999,"type":"noteOn","velocity":50},{"channel":9,"nextOffset":46104,"note":42,"tick":80480,"time":104.79166666666666,"type":"noteOn","velocity":50},{"channel":0,"nextOffset":4734,"note":33,"tick":80489,"time":104.80338541666666,"type":"noteOn","velocity":68},{"channel":2,"nextOffset":29272,"note":26,"tick":80501,"time":104.81901041666666,"type":"noteOn","velocity":57},{"channel":9,"nextOffset":21568,"note":35,"tick":80510,"time":104.83072916666666,"type":"noteOff","velocity":0},{"channel":9,"nextOffset":25384,"note":35,"tick":80518,"time":104.84114583333333,"type":"noteOn","velocity":50},{"channel":9,"nextOffset":33911,"note":42,"tick":80544,"time":104.87499999999999,"type":"noteOff","velocity":0},{"channel":9,"nextOffset":46108,"note":42,"tick":80576,"time":104.91666666666666,"type":"noteOff","velocity":0},{"channel":9,"nextOffset":46112,"note":42,"tick":80576,"time":104.91666666666666,"type":"noteOn","velocity":50},{"channel":0,"nextOffset":4738,"note":59,"tick":80585,"time":104.92838541666666,"type":"noteOn","velocity":68},{"channel":0,"nextOffset":4742,"note":63,"tick":80585,"time":104.92838541666666,"type":"noteOn","velocity":68},{"channel":0,"nextOffset":4746,"note":68,"tick":80585,"time":104.92838541666666,"type":"noteOn","velocity":68},{"channel":9,"nextOffset":46116,"note":42,"tick":80600,"time":104.94791666666666,"type":"noteOff","velocity":0},{"channel":1,"nextOffset":17716,"note":26,"tick":80605,"time":104.95442708333333,"type":"noteOn","velocity":50},{"channel":9,"nextOffset":25388,"note":35,"tick":80614,"time":104.96614583333333,"type":"noteOff","velocity":0},{"channel":9,"nextOffset":46120,"note":42,"tick":80624,"time":104.97916666666666,"type":"noteOn","velocity":50},{"channel":9,"nextOffset":46124,"note":42,"tick":80648,"time":105.01041666666666,"type":"noteOff","velocity":0},{"channel":9,"nextOffset":46128,"note":42,"tick":80672,"time":105.04166666666666,"type":"noteOn","velocity":50},{"channel":0,"nextOffset":4750,"note":33,"tick":80681,"time":105.05338541666666,"type":"noteOff","velocity":0},{"channel":2,"nextOffset":29277,"note":26,"tick":80693,"time":105.06901041666666,"type":"noteOff","velocity":0},{"channel":2,"nextOffset":29281,"note":33,"tick":80693,"time":105.06901041666666,"type":"noteOn","velocity":57},{"channel":9,"nextOffset":46132,"note":42,"tick":80696,"time":105.07291666666666,"type":"noteOff","velocity":0},{"channel":9,"nextOffset":21573,"note":35,"tick":80702,"time":105.08072916666666,"type":"noteOn","velocity":50},{"channel":9,"nextOffset":46136,"note":42,"tick":80720,"time":105.10416666666666,"type":"noteOn","velocity":50},{"channel":9,"nextOffset":33916,"note":42,"tick":80736,"time":105.12499999999999,"type":"noteOn","velocity":50},{"channel":9,"nextOffset":46140,"note":42,"tick":80744,"time":105.13541666666666,"type":"noteOff","velocity":0},{"channel":9,"nextOffset":46144,"note":42,"tick":80768,"time":105.16666666666666,"type":"noteOn","velocity":50},{"channel":0,"nextOffset":4754,"note":68,"tick":80777,"time":105.17838541666666,"type":"noteOff","velocity":0},{"channel":0,"nextOffset":4758,"note":63,"tick":80777,"time":105.17838541666666,"type":"noteOff","velocity":0},{"channel":0,"nextOffset":4762,"note":59,"tick":80777,"time":105.17838541666666,"type":"noteOff","velocity":0},{"channel":0,"nextOffset":4766,"note":32,"tick":80777,"time":105.17838541666666,"type":"noteOn","velocity":68},{"channel":9,"nextOffset":46148,"note":42,"tick":80792,"time":105.19791666666666,"type":"noteOff","velocity":0},{"channel":1,"nextOffset":17721,"note":26,"tick":80797,"time":105.20442708333333,"type":"noteOff","velocity":0},{"channel":1,"nextOffset":17725,"note":33,"tick":80797,"time":105.20442708333333,"type":"noteOn","velocity":50},{"channel":9,"nextOffset":21577,"note":35,"tick":80798,"time":105.20572916666666,"type":"noteOff","velocity":0},{"channel":9,"nextOffset":25393,"note":35,"tick":80806,"time":105.21614583333333,"type":"noteOn","velocity":50},{"channel":9,"nextOffset":33920,"note":42,"tick":80832,"time":105.24999999999999,"type":"noteOff","velocity":0},{"channel":9,"nextOffset":33924,"note":42,"tick":80832,"time":105.24999999999999,"type":"noteOn","velocity":50},{"channel":2,"nextOffset":29286,"note":33,"tick":80885,"time":105.31901041666666,"type":"noteOff","velocity":0},{"channel":2,"nextOffset":29290,"note":26,"tick":80885,"time":105.31901041666666,"type":"noteOn","velocity":57},{"channel":9,"nextOffset":21581,"note":35,"tick":80894,"time":105.33072916666666,"type":"noteOn","velocity":50},{"channel":9,"nextOffset":25397,"note":35,"tick":80902,"time":105.34114583333333,"type":"noteOff","velocity":0},{"channel":9,"nextOffset":33928,"note":42,"tick":80928,"time":105.37499999999999,"type":"noteOff","velocity":0},{"channel":9,"nextOffset":46153,"note":42,"tick":80960,"time":105.41666666666666,"type":"noteOn","velocity":50},{"channel":0,"nextOffset":4771,"note":32,"tick":80969,"time":105.42838541666666,"type":"noteOff","velocity":0},{"channel":0,"nextOffset":4775,"note":31,"tick":80969,"time":105.42838541666666,"type":"noteOn","velocity":68},{"channel":0,"nextOffset":4779,"note":58,"tick":80969,"time":105.42838541666666,"type":"noteOn","velocity":68},{"channel":0,"nextOffset":4783,"note":62,"tick":80969,"time":105.42838541666666,"type":"noteOn","velocity":68},{"channel":0,"nextOffset":4787,"note":65,"tick":80969,"time":105.42838541666666,"type":"noteOn","velocity":68},{"channel":0,"nextOffset":4791,"note":69,"tick":80969,"time":105.42838541666666,"type":"noteOn","velocity":68},{"channel":1,"nextOffset":17730,"note":33,"tick":80989,"time":105.45442708333333,"type":"noteOff","velocity":0},{"channel":1,"nextOffset":17734,"note":26,"tick":80989,"time":105.45442708333333,"type":"noteOn","velocity":50},{"channel":9,"nextOffset":21585,"note":35,"tick":80990,"time":105.45572916666666,"type":"noteOff","velocity":0},{"channel":9,"nextOffset":25401,"note":35,"tick":80998,"time":105.46614583333333,"type":"noteOn","velocity":50},{"channel":9,"nextOffset":46157,"note":42,"tick":81056,"time":105.54166666666666,"type":"noteOff","velocity":0},{"channel":9,"nextOffset":46161,"note":42,"tick":81056,"time":105.54166666666666,"type":"noteOn","velocity":50},{"channel":12,"nextOffset":42436,"note":68,"tick":81065,"time":105.55338541666666,"type":"noteOn","velocity":50},{"channel":2,"nextOffset":29295,"note":26,"tick":81077,"time":105.56901041666666,"type":"noteOff","velocity":0},{"channel":9,"nextOffset":25405,"note":35,"tick":81094,"time":105.59114583333333,"type":"noteOff","velocity":0},{"channel":12,"nextOffset":42440,"note":69,"tick":81113,"time":105.61588541666666,"type":"noteOn","velocity":50},{"channel":9,"nextOffset":33933,"note":42,"tick":81120,"time":105.62499999999999,"type":"noteOn","velocity":50},{"channel":12,"nextOffset":42444,"note":68,"tick":81129,"time":105.63671874999999,"type":"noteOff","velocity":0},{"channel":9,"nextOffset":46165,"note":42,"tick":81152,"time":105.66666666666666,"type":"noteOff","velocity":0},{"channel":0,"nextOffset":4796,"note":31,"tick":81161,"time":105.67838541666666,"type":"noteOff","velocity":0},{"channel":1,"nextOffset":17739,"note":26,"tick":81181,"time":105.70442708333333,"type":"noteOff","velocity":0},{"channel":9,"nextOffset":33937,"note":42,"tick":81216,"time":105.74999999999999,"type":"noteOff","velocity":0},{"channel":12,"nextOffset":42449,"note":69,"tick":81257,"time":105.80338541666666,"type":"noteOff","velocity":0},{"channel":2,"nextOffset":29300,"note":26,"tick":81269,"time":105.81901041666666,"type":"noteOn","velocity":57},{"channel":9,"nextOffset":21590,"note":35,"tick":81278,"time":105.83072916666666,"type":"noteOn","velocity":50},{"channel":9,"nextOffset":46170,"note":42,"tick":81344,"time":105.91666666666666,"type":"noteOn","velocity":50},{"channel":0,"nextOffset":4801,"note":69,"tick":81353,"time":105.92838541666666,"type":"noteOff","velocity":0},{"channel":0,"nextOffset":4805,"note":65,"tick":81353,"time":105.92838541666666,"type":"noteOff","velocity":0},{"channel":0,"nextOffset":4809,"note":62,"tick":81353,"time":105.92838541666666,"type":"noteOff","velocity":0},{"channel":0,"nextOffset":4813,"note":58,"tick":81353,"time":105.92838541666666,"type":"noteOff","velocity":0},{"channel":0,"nextOffset":4817,"note":31,"tick":81353,"time":105.92838541666666,"type":"noteOn","velocity":68},{"channel":1,"nextOffset":17744,"note":26,"tick":81373,"time":105.95442708333333,"type":"noteOn","velocity":50},{"channel":9,"nextOffset":21594,"note":35,"tick":81374,"time":105.95572916666666,"type":"noteOff","velocity":0},{"channel":9,"nextOffset":25410,"note":35,"tick":81382,"time":105.96614583333333,"type":"noteOn","velocity":50},{"channel":9,"nextOffset":33942,"note":42,"tick":81408,"time":105.99999999999999,"type":"noteOn","velocity":50},{"channel":9,"nextOffset":46174,"note":42,"tick":81440,"time":106.04166666666666,"type":"noteOff","velocity":0},{"channel":9,"nextOffset":46178,"note":42,"tick":81440,"time":106.04166666666666,"type":"noteOn","velocity":50},{"channel":12,"nextOffset":42454,"note":67,"tick":81449,"time":106.05338541666666,"type":"noteOn","velocity":50},{"channel":2,"nextOffset":29305,"note":26,"tick":81461,"time":106.06901041666666,"type":"noteOff","velocity":0},{"channel":2,"nextOffset":29309,"note":33,"tick":81461,"time":106.06901041666666,"type":"noteOn","velocity":57},{"channel":9,"nextOffset":25414,"note":35,"tick":81478,"time":106.09114583333333,"type":"noteOff","velocity":0},{"channel":9,"nextOffset":33946,"note":42,"tick":81504,"time":106.12499999999999,"type":"noteOff","velocity":0},{"channel":9,"nextOffset":33950,"note":42,"tick":81504,"time":106.12499999999999,"type":"noteOn","velocity":50},{"channel":9,"nextOffset":33954,"note":42,"tick":81528,"time":106.15624999999999,"type":"noteOff","velocity":0},{"channel":9,"nextOffset":46182,"note":42,"tick":81536,"time":106.16666666666666,"type":"noteOff","velocity":0},{"channel":0,"nextOffset":4822,"note":31,"tick":81545,"time":106.17838541666666,"type":"noteOff","velocity":0},{"channel":9,"nextOffset":33958,"note":42,"tick":81552,"time":106.18749999999999,"type":"noteOn","velocity":50},{"channel":1,"nextOffset":17749,"note":26,"tick":81565,"time":106.20442708333333,"type":"noteOff","velocity":0},{"channel":1,"nextOffset":17753,"note":33,"tick":81565,"time":106.20442708333333,"type":"noteOn","velocity":50},{"channel":9,"nextOffset":33962,"note":42,"tick":81576,"time":106.21874999999999,"type":"noteOff","velocity":0},{"channel":9,"nextOffset":33966,"note":42,"tick":81600,"time":106.24999999999999,"type":"noteOn","velocity":50},{"channel":9,"nextOffset":33970,"note":42,"tick":81624,"time":106.28124999999999,"type":"noteOff","velocity":0},{"channel":12,"nextOffset":42459,"note":67,"tick":81641,"time":106.30338541666666,"type":"noteOff","velocity":0},{"channel":9,"nextOffset":33974,"note":42,"tick":81648,"time":106.31249999999999,"type":"noteOn","velocity":50},{"channel":2,"nextOffset":29314,"note":33,"tick":81653,"time":106.31901041666666,"type":"noteOff","velocity":0},{"channel":2,"nextOffset":29318,"note":32,"tick":81653,"time":106.31901041666666,"type":"noteOn","velocity":57},{"channel":2,"nextOffset":29322,"note":32,"tick":81653,"time":106.31901041666666,"type":"noteOn","velocity":57},{"channel":9,"nextOffset":21599,"note":35,"tick":81662,"time":106.33072916666666,"type":"noteOn","velocity":50},{"channel":9,"nextOffset":33978,"note":42,"tick":81672,"time":106.34374999999999,"type":"noteOff","velocity":0},{"channel":9,"nextOffset":33982,"note":42,"tick":81696,"time":106.37499999999999,"type":"noteOn","velocity":50},{"channel":9,"nextOffset":33986,"note":42,"tick":81720,"time":106.40624999999999,"type":"noteOff","velocity":0},{"channel":9,"nextOffset":46187,"note":42,"tick":81728,"time":106.41666666666666,"type":"noteOn","velocity":50},{"channel":0,"nextOffset":4827,"note":33,"tick":81737,"time":106.42838541666666,"type":"noteOn","velocity":68},{"channel":0,"nextOffset":4831,"note":72,"tick":81737,"time":106.42838541666666,"type":"noteOn","velocity":68},{"channel":0,"nextOffset":4835,"note":67,"tick":81737,"time":106.42838541666666,"type":"noteOn","velocity":68},{"channel":0,"nextOffset":4839,"note":64,"tick":81737,"time":106.42838541666666,"type":"noteOn","velocity":68},{"channel":0,"nextOffset":4843,"note":60,"tick":81737,"time":106.42838541666666,"type":"noteOn","velocity":68},{"channel":1,"nextOffset":17758,"note":33,"tick":81757,"time":106.45442708333333,"type":"noteOff","velocity":0},{"channel":1,"nextOffset":17762,"note":32,"tick":81757,"time":106.45442708333333,"type":"noteOn","velocity":50},{"channel":1,"nextOffset":17766,"note":32,"tick":81757,"time":106.45442708333333,"type":"noteOn","velocity":50},{"channel":9,"nextOffset":21603,"note":35,"tick":81758,"time":106.45572916666666,"type":"noteOff","velocity":0},{"channel":9,"nextOffset":25419,"note":35,"tick":81766,"time":106.46614583333333,"type":"noteOn","velocity":50},{"channel":9,"nextOffset":46191,"note":42,"tick":81824,"time":106.54166666666666,"type":"noteOff","velocity":0},{"channel":12,"nextOffset":42464,"note":65,"tick":81833,"time":106.55338541666666,"type":"noteOn","velocity":50},{"channel":2,"nextOffset":29327,"note":32,"tick":81845,"time":106.56901041666666,"type":"noteOff","velocity":0},{"channel":2,"nextOffset":29331,"note":32,"tick":81845,"time":106.56901041666666,"type":"noteOff","velocity":0},{"channel":2,"nextOffset":29335,"note":31,"tick":81845,"time":106.56901041666666,"type":"noteOn","velocity":57},{"channel":9,"nextOffset":25423,"note":35,"tick":81862,"time":106.59114583333333,"type":"noteOff","velocity":0},{"channel":9,"nextOffset":33991,"note":42,"tick":81888,"time":106.62499999999999,"type":"noteOn","velocity":50},{"channel":0,"nextOffset":4848,"note":60,"tick":81929,"time":106.67838541666666,"type":"noteOff","velocity":0},{"channel":0,"nextOffset":4852,"note":64,"tick":81929,"time":106.67838541666666,"type":"noteOff","velocity":0},{"channel":0,"nextOffset":4856,"note":67,"tick":81929,"time":106.67838541666666,"type":"noteOff","velocity":0},{"channel":0,"nextOffset":4860,"note":72,"tick":81929,"time":106.67838541666666,"type":"noteOff","velocity":0},{"channel":0,"nextOffset":4864,"note":33,"tick":81929,"time":106.67838541666666,"type":"noteOff","velocity":0},{"channel":1,"nextOffset":17771,"note":32,"tick":81949,"time":106.70442708333333,"type":"noteOff","velocity":0},{"channel":1,"nextOffset":17775,"note":32,"tick":81949,"time":106.70442708333333,"type":"noteOff","velocity":0},{"channel":1,"nextOffset":17779,"note":31,"tick":81949,"time":106.70442708333333,"type":"noteOn","velocity":50},{"channel":9,"nextOffset":21608,"note":35,"tick":81950,"time":106.70572916666666,"type":"noteOn","velocity":50},{"channel":9,"nextOffset":33995,"note":42,"tick":81984,"time":106.74999999999999,"type":"noteOff","velocity":0},{"channel":9,"nextOffset":33999,"note":42,"tick":81984,"time":106.74999999999999,"type":"noteOn","velocity":50},{"channel":9,"nextOffset":46196,"note":42,"tick":82016,"time":106.79166666666666,"type":"noteOn","velocity":50},{"channel":0,"nextOffset":4868,"note":33,"tick":82025,"time":106.80338541666666,"type":"noteOn","velocity":68},{"channel":12,"nextOffset":42469,"note":65,"tick":82025,"time":106.80338541666666,"type":"noteOff","velocity":0},{"channel":2,"nextOffset":29340,"note":31,"tick":82037,"time":106.81901041666666,"type":"noteOff","velocity":0},{"channel":9,"nextOffset":21612,"note":35,"tick":82046,"time":106.83072916666666,"type":"noteOff","velocity":0},{"channel":9,"nextOffset":25428,"note":35,"tick":82054,"time":106.84114583333333,"type":"noteOn","velocity":50},{"channel":9,"nextOffset":34003,"note":42,"tick":82080,"time":106.87499999999999,"type":"noteOff","velocity":0},{"channel":9,"nextOffset":46200,"note":42,"tick":82112,"time":106.91666666666666,"type":"noteOff","velocity":0},{"channel":9,"nextOffset":46204,"note":42,"tick":82112,"time":106.91666666666666,"type":"noteOn","velocity":50},{"channel":0,"nextOffset":4872,"note":61,"tick":82121,"time":106.92838541666666,"type":"noteOn","velocity":68},{"channel":0,"nextOffset":4876,"note":65,"tick":82121,"time":106.92838541666666,"type":"noteOn","velocity":68},{"channel":0,"nextOffset":4880,"note":67,"tick":82121,"time":106.92838541666666,"type":"noteOn","velocity":68},{"channel":0,"nextOffset":4884,"note":70,"tick":82121,"time":106.92838541666666,"type":"noteOn","velocity":68},{"channel":9,"nextOffset":46208,"note":42,"tick":82136,"time":106.94791666666666,"type":"noteOff","velocity":0},{"channel":1,"nextOffset":17784,"note":31,"tick":82141,"time":106.95442708333333,"type":"noteOff","velocity":0},{"channel":9,"nextOffset":25432,"note":35,"tick":82150,"time":106.96614583333333,"type":"noteOff","velocity":0},{"channel":9,"nextOffset":46212,"note":42,"tick":82160,"time":106.97916666666666,"type":"noteOn","velocity":50},{"channel":9,"nextOffset":46216,"note":42,"tick":82184,"time":107.01041666666666,"type":"noteOff","velocity":0},{"channel":9,"nextOffset":46220,"note":42,"tick":82208,"time":107.04166666666666,"type":"noteOn","velocity":50},{"channel":0,"nextOffset":4888,"note":33,"tick":82217,"time":107.05338541666666,"type":"noteOff","velocity":0},{"channel":12,"nextOffset":42474,"note":64,"tick":82217,"time":107.05338541666666,"type":"noteOn","velocity":50},{"channel":2,"nextOffset":29345,"note":31,"tick":82229,"time":107.06901041666666,"type":"noteOn","velocity":57},{"channel":9,"nextOffset":46224,"note":42,"tick":82232,"time":107.07291666666666,"type":"noteOff","velocity":0},{"channel":9,"nextOffset":21617,"note":35,"tick":82238,"time":107.08072916666666,"type":"noteOn","velocity":50},{"channel":9,"nextOffset":46228,"note":42,"tick":82256,"time":107.10416666666666,"type":"noteOn","velocity":50},{"channel":9,"nextOffset":34008,"note":42,"tick":82272,"time":107.12499999999999,"type":"noteOn","velocity":50},{"channel":9,"nextOffset":46232,"note":42,"tick":82280,"time":107.13541666666666,"type":"noteOff","velocity":0},{"channel":9,"nextOffset":46236,"note":42,"tick":82304,"time":107.16666666666666,"type":"noteOn","velocity":50},{"channel":0,"nextOffset":4892,"note":70,"tick":82313,"time":107.17838541666666,"type":"noteOff","velocity":0},{"channel":0,"nextOffset":4896,"note":67,"tick":82313,"time":107.17838541666666,"type":"noteOff","velocity":0},{"channel":0,"nextOffset":4900,"note":65,"tick":82313,"time":107.17838541666666,"type":"noteOff","velocity":0},{"channel":0,"nextOffset":4904,"note":61,"tick":82313,"time":107.17838541666666,"type":"noteOff","velocity":0},{"channel":0,"nextOffset":4908,"note":33,"tick":82313,"time":107.17838541666666,"type":"noteOn","velocity":68},{"channel":9,"nextOffset":46240,"note":42,"tick":82328,"time":107.19791666666666,"type":"noteOff","velocity":0},{"channel":1,"nextOffset":17789,"note":31,"tick":82333,"time":107.20442708333333,"type":"noteOn","velocity":50},{"channel":9,"nextOffset":21621,"note":35,"tick":82334,"time":107.20572916666666,"type":"noteOff","velocity":0},{"channel":9,"nextOffset":25437,"note":35,"tick":82342,"time":107.21614583333333,"type":"noteOn","velocity":50},{"channel":9,"nextOffset":34012,"note":42,"tick":82368,"time":107.24999999999999,"type":"noteOff","velocity":0},{"channel":9,"nextOffset":34016,"note":42,"tick":82368,"time":107.24999999999999,"type":"noteOn","velocity":50},{"channel":12,"nextOffset":42479,"note":64,"tick":82409,"time":107.30338541666666,"type":"noteOff","velocity":0},{"channel":2,"nextOffset":29350,"note":31,"tick":82421,"time":107.31901041666666,"type":"noteOff","velocity":0},{"channel":2,"nextOffset":29354,"note":32,"tick":82421,"time":107.31901041666666,"type":"noteOn","velocity":57},{"channel":9,"nextOffset":21625,"note":35,"tick":82430,"time":107.33072916666666,"type":"noteOn","velocity":50},{"channel":9,"nextOffset":25441,"note":35,"tick":82438,"time":107.34114583333333,"type":"noteOff","velocity":0},{"channel":9,"nextOffset":34020,"note":42,"tick":82464,"time":107.37499999999999,"type":"noteOff","velocity":0},{"channel":9,"nextOffset":46245,"note":42,"tick":82496,"time":107.41666666666666,"type":"noteOn","velocity":50},{"channel":0,"nextOffset":4913,"note":33,"tick":82505,"time":107.42838541666666,"type":"noteOff","velocity":0},{"channel":0,"nextOffset":4917,"note":26,"tick":82505,"time":107.42838541666666,"type":"noteOn","velocity":68},{"channel":0,"nextOffset":4921,"note":60,"tick":82505,"time":107.42838541666666,"type":"noteOn","velocity":68},{"channel":0,"nextOffset":4925,"note":64,"tick":82505,"time":107.42838541666666,"type":"noteOn","velocity":68},{"channel":0,"nextOffset":4929,"note":65,"tick":82505,"time":107.42838541666666,"type":"noteOn","velocity":68},{"channel":0,"nextOffset":4933,"note":69,"tick":82505,"time":107.42838541666666,"type":"noteOn","velocity":68},{"channel":1,"nextOffset":17794,"note":31,"tick":82525,"time":107.45442708333333,"type":"noteOff","velocity":0},{"channel":1,"nextOffset":17798,"note":32,"tick":82525,"time":107.45442708333333,"type":"noteOn","velocity":50},{"channel":9,"nextOffset":21629,"note":35,"tick":82526,"time":107.45572916666666,"type":"noteOff","velocity":0},{"channel":9,"nextOffset":25445,"note":35,"tick":82534,"time":107.46614583333333,"type":"noteOn","velocity":50},{"channel":9,"nextOffset":46249,"note":42,"tick":82592,"time":107.54166666666666,"type":"noteOff","velocity":0},{"channel":12,"nextOffset":42484,"note":67,"tick":82601,"time":107.55338541666666,"type":"noteOn","velocity":50},{"channel":2,"nextOffset":29359,"note":32,"tick":82613,"time":107.56901041666666,"type":"noteOff","velocity":0},{"channel":2,"nextOffset":29363,"note":33,"tick":82613,"time":107.56901041666666,"type":"noteOn","velocity":57},{"channel":9,"nextOffset":25449,"note":35,"tick":82630,"time":107.59114583333333,"type":"noteOff","velocity":0},{"channel":9,"nextOffset":34025,"note":42,"tick":82656,"time":107.62499999999999,"type":"noteOn","velocity":50},{"channel":0,"nextOffset":4938,"note":69,"tick":82697,"time":107.67838541666666,"type":"noteOff","velocity":0},{"channel":0,"nextOffset":4942,"note":65,"tick":82697,"time":107.67838541666666,"type":"noteOff","velocity":0},{"channel":0,"nextOffset":4946,"note":64,"tick":82697,"time":107.67838541666666,"type":"noteOff","velocity":0},{"channel":0,"nextOffset":4950,"note":60,"tick":82697,"time":107.67838541666666,"type":"noteOff","velocity":0},{"channel":0,"nextOffset":4954,"note":26,"tick":82697,"time":107.67838541666666,"type":"noteOff","velocity":0},{"channel":1,"nextOffset":17803,"note":32,"tick":82717,"time":107.70442708333333,"type":"noteOff","velocity":0},{"channel":1,"nextOffset":17807,"note":33,"tick":82717,"time":107.70442708333333,"type":"noteOn","velocity":50},{"channel":9,"nextOffset":34029,"note":42,"tick":82752,"time":107.74999999999999,"type":"noteOff","velocity":0},{"channel":12,"nextOffset":42489,"note":67,"tick":82793,"time":107.80338541666666,"type":"noteOff","velocity":0},{"channel":2,"nextOffset":29368,"note":33,"tick":82805,"time":107.81901041666666,"type":"noteOff","velocity":0},{"channel":9,"nextOffset":21634,"note":35,"tick":82814,"time":107.83072916666666,"type":"noteOn","velocity":50},{"channel":9,"nextOffset":46254,"note":42,"tick":82880,"time":107.91666666666666,"type":"noteOn","velocity":50},{"channel":0,"nextOffset":4959,"note":26,"tick":82889,"time":107.92838541666666,"type":"noteOn","velocity":68},{"channel":2,"nextOffset":29372,"note":33,"tick":82901,"time":107.94401041666666,"type":"noteOn","velocity":57},{"channel":1,"nextOffset":17812,"note":33,"tick":82909,"time":107.95442708333333,"type":"noteOff","velocity":0},{"channel":9,"nextOffset":21638,"note":35,"tick":82910,"time":107.95572916666666,"type":"noteOff","velocity":0},{"channel":9,"nextOffset":25454,"note":35,"tick":82918,"time":107.96614583333333,"type":"noteOn","velocity":50},{"channel":9,"nextOffset":34034,"note":42,"tick":82944,"time":107.99999999999999,"type":"noteOn","velocity":50},{"channel":9,"nextOffset":46258,"note":42,"tick":82976,"time":108.04166666666666,"type":"noteOff","velocity":0},{"channel":9,"nextOffset":46262,"note":42,"tick":82976,"time":108.04166666666666,"type":"noteOn","velocity":50},{"channel":12,"nextOffset":42494,"note":65,"tick":82985,"time":108.05338541666666,"type":"noteOn","velocity":50},{"channel":2,"nextOffset":29376,"note":33,"tick":82997,"time":108.06901041666666,"type":"noteOff","velocity":0},{"channel":1,"nextOffset":17816,"note":33,"tick":83005,"time":108.07942708333333,"type":"noteOn","velocity":50},{"channel":9,"nextOffset":25458,"note":35,"tick":83014,"time":108.09114583333333,"type":"noteOff","velocity":0},{"channel":9,"nextOffset":34038,"note":42,"tick":83040,"time":108.12499999999999,"type":"noteOff","velocity":0},{"channel":9,"nextOffset":34042,"note":42,"tick":83040,"time":108.12499999999999,"type":"noteOn","velocity":50},{"channel":9,"nextOffset":34046,"note":42,"tick":83064,"time":108.15624999999999,"type":"noteOff","velocity":0},{"channel":9,"nextOffset":46266,"note":42,"tick":83072,"time":108.16666666666666,"type":"noteOff","velocity":0},{"channel":0,"nextOffset":4964,"note":26,"tick":83081,"time":108.17838541666666,"type":"noteOff","velocity":0},{"channel":9,"nextOffset":34050,"note":42,"tick":83088,"time":108.18749999999999,"type":"noteOn","velocity":50},{"channel":1,"nextOffset":17820,"note":33,"tick":83101,"time":108.20442708333333,"type":"noteOff","velocity":0},{"channel":9,"nextOffset":34054,"note":42,"tick":83112,"time":108.21874999999999,"type":"noteOff","velocity":0},{"channel":9,"nextOffset":34058,"note":42,"tick":83136,"time":108.24999999999999,"type":"noteOn","velocity":50},{"channel":9,"nextOffset":34062,"note":42,"tick":83160,"time":108.28124999999999,"type":"noteOff","velocity":0},{"channel":12,"nextOffset":42499,"note":65,"tick":83177,"time":108.30338541666666,"type":"noteOff","velocity":0},{"channel":9,"nextOffset":34066,"note":42,"tick":83184,"time":108.31249999999999,"type":"noteOn","velocity":50},{"channel":2,"nextOffset":29381,"note":26,"tick":83189,"time":108.31901041666666,"type":"noteOn","velocity":57},{"channel":9,"nextOffset":21643,"note":35,"tick":83198,"time":108.33072916666666,"type":"noteOn","velocity":50},{"channel":9,"nextOffset":34070,"note":42,"tick":83208,"time":108.34374999999999,"type":"noteOff","velocity":0},{"channel":9,"nextOffset":34074,"note":42,"tick":83232,"time":108.37499999999999,"type":"noteOn","velocity":50},{"channel":9,"nextOffset":34078,"note":42,"tick":83256,"time":108.40624999999999,"type":"noteOff","velocity":0},{"channel":9,"nextOffset":46271,"note":42,"tick":83264,"time":108.41666666666666,"type":"noteOn","velocity":50},{"channel":0,"nextOffset":4969,"note":38,"tick":83273,"time":108.42838541666666,"type":"noteOn","velocity":68},{"channel":0,"nextOffset":4973,"note":64,"tick":83273,"time":108.42838541666666,"type":"noteOn","velocity":68},{"channel":0,"nextOffset":4977,"note":60,"tick":83273,"time":108.42838541666666,"type":"noteOn","velocity":68},{"channel":0,"nextOffset":4981,"note":69,"tick":83273,"time":108.42838541666666,"type":"noteOn","velocity":68},{"channel":0,"nextOffset":4985,"note":65,"tick":83273,"time":108.42838541666666,"type":"noteOn","velocity":68},{"channel":1,"nextOffset":17825,"note":26,"tick":83293,"time":108.45442708333333,"type":"noteOn","velocity":50},{"channel":9,"nextOffset":21647,"note":35,"tick":83294,"time":108.45572916666666,"type":"noteOff","velocity":0},{"channel":9,"nextOffset":25463,"note":35,"tick":83302,"time":108.46614583333333,"type":"noteOn","velocity":50},{"channel":9,"nextOffset":46275,"note":42,"tick":83360,"time":108.54166666666666,"type":"noteOff","velocity":0},{"channel":12,"nextOffset":42504,"note":64,"tick":83369,"time":108.55338541666666,"type":"noteOn","velocity":50},{"channel":2,"nextOffset":29386,"note":26,"tick":83381,"time":108.56901041666666,"type":"noteOff","velocity":0},{"channel":9,"nextOffset":25467,"note":35,"tick":83398,"time":108.59114583333333,"type":"noteOff","velocity":0},{"channel":9,"nextOffset":34083,"note":42,"tick":83424,"time":108.62499999999999,"type":"noteOn","velocity":50},{"channel":0,"nextOffset":4990,"note":65,"tick":83465,"time":108.67838541666666,"type":"noteOff","velocity":0},{"channel":0,"nextOffset":4994,"note":69,"tick":83465,"time":108.67838541666666,"type":"noteOff","velocity":0},{"channel":0,"nextOffset":4998,"note":60,"tick":83465,"time":108.67838541666666,"type":"noteOff","velocity":0},{"channel":0,"nextOffset":5002,"note":64,"tick":83465,"time":108.67838541666666,"type":"noteOff","velocity":0},{"channel":0,"nextOffset":5006,"note":38,"tick":83465,"time":108.67838541666666,"type":"noteOff","velocity":0},{"channel":1,"nextOffset":17830,"note":26,"tick":83485,"time":108.70442708333333,"type":"noteOff","velocity":0},{"channel":9,"nextOffset":21652,"note":35,"tick":83486,"time":108.70572916666666,"type":"noteOn","velocity":50},{"channel":9,"nextOffset":34087,"note":42,"tick":83520,"time":108.74999999999999,"type":"noteOff","velocity":0},{"channel":9,"nextOffset":34091,"note":42,"tick":83520,"time":108.74999999999999,"type":"noteOn","velocity":50},{"channel":9,"nextOffset":46280,"note":42,"tick":83552,"time":108.79166666666666,"type":"noteOn","velocity":50},{"channel":0,"nextOffset":5010,"note":33,"tick":83561,"time":108.80338541666666,"type":"noteOn","velocity":68},{"channel":12,"nextOffset":42509,"note":64,"tick":83561,"time":108.80338541666666,"type":"noteOff","velocity":0},{"channel":2,"nextOffset":29391,"note":38,"tick":83573,"time":108.81901041666666,"type":"noteOn","velocity":57},{"channel":9,"nextOffset":21656,"note":35,"tick":83582,"time":108.83072916666666,"type":"noteOff","velocity":0},{"channel":9,"nextOffset":25472,"note":35,"tick":83590,"time":108.84114583333333,"type":"noteOn","velocity":50},{"channel":9,"nextOffset":34095,"note":42,"tick":83616,"time":108.87499999999999,"type":"noteOff","velocity":0},{"channel":9,"nextOffset":46284,"note":42,"tick":83648,"time":108.91666666666666,"type":"noteOff","velocity":0},{"channel":9,"nextOffset":46288,"note":42,"tick":83648,"time":108.91666666666666,"type":"noteOn","velocity":50},{"channel":0,"nextOffset":5014,"note":59,"tick":83657,"time":108.92838541666666,"type":"noteOn","velocity":68},{"channel":0,"nextOffset":5018,"note":63,"tick":83657,"time":108.92838541666666,"type":"noteOn","velocity":68},{"channel":0,"nextOffset":5022,"note":68,"tick":83657,"time":108.92838541666666,"type":"noteOn","velocity":68},{"channel":9,"nextOffset":46292,"note":42,"tick":83672,"time":108.94791666666666,"type":"noteOff","velocity":0},{"channel":1,"nextOffset":17835,"note":38,"tick":83677,"time":108.95442708333333,"type":"noteOn","velocity":50},{"channel":9,"nextOffset":25476,"note":35,"tick":83686,"time":108.96614583333333,"type":"noteOff","velocity":0},{"channel":9,"nextOffset":46296,"note":42,"tick":83696,"time":108.97916666666666,"type":"noteOn","velocity":50},{"channel":9,"nextOffset":46300,"note":42,"tick":83720,"time":109.01041666666666,"type":"noteOff","velocity":0},{"channel":9,"nextOffset":46304,"note":42,"tick":83744,"time":109.04166666666666,"type":"noteOn","velocity":50},{"channel":0,"nextOffset":5026,"note":33,"tick":83753,"time":109.05338541666666,"type":"noteOff","velocity":0},{"channel":12,"nextOffset":42514,"note":62,"tick":83753,"time":109.05338541666666,"type":"noteOn","velocity":50},{"channel":2,"nextOffset":29396,"note":38,"tick":83765,"time":109.06901041666666,"type":"noteOff","velocity":0},{"channel":2,"nextOffset":29400,"note":26,"tick":83765,"time":109.06901041666666,"type":"noteOn","velocity":57},{"channel":9,"nextOffset":46308,"note":42,"tick":83768,"time":109.07291666666666,"type":"noteOff","velocity":0},{"channel":9,"nextOffset":21661,"note":35,"tick":83774,"time":109.08072916666666,"type":"noteOn","velocity":50},{"channel":9,"nextOffset":46312,"note":42,"tick":83792,"time":109.10416666666666,"type":"noteOn","velocity":50},{"channel":9,"nextOffset":34100,"note":42,"tick":83808,"time":109.12499999999999,"type":"noteOn","velocity":50},{"channel":9,"nextOffset":46316,"note":42,"tick":83816,"time":109.13541666666666,"type":"noteOff","velocity":0},{"channel":0,"nextOffset":5030,"note":68,"tick":83849,"time":109.17838541666666,"type":"noteOff","velocity":0},{"channel":0,"nextOffset":5034,"note":63,"tick":83849,"time":109.17838541666666,"type":"noteOff","velocity":0},{"channel":0,"nextOffset":5038,"note":59,"tick":83849,"time":109.17838541666666,"type":"noteOff","velocity":0},{"channel":0,"nextOffset":5042,"note":32,"tick":83849,"time":109.17838541666666,"type":"noteOn","velocity":68},{"channel":1,"nextOffset":17840,"note":38,"tick":83869,"time":109.20442708333333,"type":"noteOff","velocity":0},{"channel":1,"nextOffset":17844,"note":26,"tick":83869,"time":109.20442708333333,"type":"noteOn","velocity":50},{"channel":9,"nextOffset":21665,"note":35,"tick":83870,"time":109.20572916666666,"type":"noteOff","velocity":0},{"channel":9,"nextOffset":25481,"note":35,"tick":83878,"time":109.21614583333333,"type":"noteOn","velocity":50},{"channel":9,"nextOffset":34104,"note":42,"tick":83904,"time":109.24999999999999,"type":"noteOff","velocity":0},{"channel":9,"nextOffset":34108,"note":42,"tick":83904,"time":109.24999999999999,"type":"noteOn","velocity":50},{"channel":12,"nextOffset":42519,"note":62,"tick":83945,"time":109.30338541666666,"type":"noteOff","velocity":0},{"channel":2,"nextOffset":29405,"note":26,"tick":83957,"time":109.31901041666666,"type":"noteOff","velocity":0},{"channel":2,"nextOffset":29409,"note":33,"tick":83957,"time":109.31901041666666,"type":"noteOn","velocity":57},{"channel":9,"nextOffset":21669,"note":35,"tick":83966,"time":109.33072916666666,"type":"noteOn","velocity":50},{"channel":9,"nextOffset":25485,"note":35,"tick":83974,"time":109.34114583333333,"type":"noteOff","velocity":0},{"channel":9,"nextOffset":34112,"note":42,"tick":84000,"time":109.37499999999999,"type":"noteOff","velocity":0},{"channel":9,"nextOffset":46321,"note":42,"tick":84032,"time":109.41666666666666,"type":"noteOn","velocity":50},{"channel":0,"nextOffset":5047,"note":32,"tick":84041,"time":109.42838541666666,"type":"noteOff","velocity":0},{"channel":0,"nextOffset":5051,"note":31,"tick":84041,"time":109.42838541666666,"type":"noteOn","velocity":68},{"channel":0,"nextOffset":5055,"note":58,"tick":84041,"time":109.42838541666666,"type":"noteOn","velocity":68},{"channel":0,"nextOffset":5059,"note":62,"tick":84041,"time":109.42838541666666,"type":"noteOn","velocity":68},{"channel":0,"nextOffset":5063,"note":65,"tick":84041,"time":109.42838541666666,"type":"noteOn","velocity":68},{"channel":0,"nextOffset":5067,"note":69,"tick":84041,"time":109.42838541666666,"type":"noteOn","velocity":68},{"channel":1,"nextOffset":17849,"note":26,"tick":84061,"time":109.45442708333333,"type":"noteOff","velocity":0},{"channel":1,"nextOffset":17853,"note":33,"tick":84061,"time":109.45442708333333,"type":"noteOn","velocity":50},{"channel":9,"nextOffset":21673,"note":35,"tick":84062,"time":109.45572916666666,"type":"noteOff","velocity":0},{"channel":9,"nextOffset":25489,"note":35,"tick":84070,"time":109.46614583333333,"type":"noteOn","velocity":50},{"channel":9,"nextOffset":46325,"note":42,"tick":84128,"time":109.54166666666666,"type":"noteOff","velocity":0},{"channel":9,"nextOffset":46329,"note":42,"tick":84128,"time":109.54166666666666,"type":"noteOn","velocity":50},{"channel":12,"nextOffset":42524,"note":65,"tick":84137,"time":109.55338541666666,"type":"noteOn","velocity":50},{"channel":2,"nextOffset":29414,"note":33,"tick":84149,"time":109.56901041666666,"type":"noteOff","velocity":0},{"channel":9,"nextOffset":25493,"note":35,"tick":84166,"time":109.59114583333333,"type":"noteOff","velocity":0},{"channel":9,"nextOffset":34117,"note":42,"tick":84192,"time":109.62499999999999,"type":"noteOn","velocity":50},{"channel":9,"nextOffset":46333,"note":42,"tick":84224,"time":109.66666666666666,"type":"noteOff","velocity":0},{"channel":0,"nextOffset":5072,"note":31,"tick":84233,"time":109.67838541666666,"type":"noteOff","velocity":0},{"channel":1,"nextOffset":17858,"note":33,"tick":84253,"time":109.70442708333333,"type":"noteOff","velocity":0},{"channel":8,"nextOffset":40762,"note":68,"tick":84256,"time":109.70833333333333,"type":"noteOn","velocity":50},{"channel":9,"nextOffset":34121,"note":42,"tick":84288,"time":109.74999999999999,"type":"noteOff","velocity":0},{"channel":8,"nextOffset":40766,"note":69,"tick":84304,"time":109.77083333333333,"type":"noteOn","velocity":50},{"channel":8,"nextOffset":40770,"note":68,"tick":84320,"time":109.79166666666666,"type":"noteOff","velocity":0},{"channel":12,"nextOffset":42529,"note":65,"tick":84329,"time":109.80338541666666,"type":"noteOff","velocity":0},{"channel":2,"nextOffset":29419,"note":26,"tick":84341,"time":109.81901041666666,"type":"noteOn","velocity":57},{"channel":9,"nextOffset":21678,"note":35,"tick":84350,"time":109.83072916666666,"type":"noteOn","velocity":50},{"channel":9,"nextOffset":46338,"note":42,"tick":84416,"time":109.91666666666666,"type":"noteOn","velocity":50},{"channel":0,"nextOffset":5077,"note":69,"tick":84425,"time":109.92838541666666,"type":"noteOff","velocity":0},{"channel":0,"nextOffset":5081,"note":65,"tick":84425,"time":109.92838541666666,"type":"noteOff","velocity":0},{"channel":0,"nextOffset":5085,"note":62,"tick":84425,"time":109.92838541666666,"type":"noteOff","velocity":0},{"channel":0,"nextOffset":5089,"note":58,"tick":84425,"time":109.92838541666666,"type":"noteOff","velocity":0},{"channel":0,"nextOffset":5093,"note":31,"tick":84425,"time":109.92838541666666,"type":"noteOn","velocity":68},{"channel":1,"nextOffset":17863,"note":26,"tick":84445,"time":109.95442708333333,"type":"noteOn","velocity":50},{"channel":9,"nextOffset":21682,"note":35,"tick":84446,"time":109.95572916666666,"type":"noteOff","velocity":0},{"channel":8,"nextOffset":40775,"note":69,"tick":84448,"time":109.95833333333333,"type":"noteOff","velocity":0},{"channel":9,"nextOffset":25498,"note":35,"tick":84454,"time":109.96614583333333,"type":"noteOn","velocity":50},{"channel":9,"nextOffset":34126,"note":42,"tick":84480,"time":109.99999999999999,"type":"noteOn","velocity":50},{"channel":9,"nextOffset":46342,"note":42,"tick":84512,"time":110.04166666666666,"type":"noteOff","velocity":0},{"channel":9,"nextOffset":46346,"note":42,"tick":84512,"time":110.04166666666666,"type":"noteOn","velocity":50},{"channel":12,"nextOffset":42534,"note":64,"tick":84521,"time":110.05338541666666,"type":"noteOn","velocity":50},{"channel":2,"nextOffset":29424,"note":26,"tick":84533,"time":110.06901041666666,"type":"noteOff","velocity":0},{"channel":2,"nextOffset":29428,"note":33,"tick":84533,"time":110.06901041666666,"type":"noteOn","velocity":57},{"channel":9,"nextOffset":25502,"note":35,"tick":84550,"time":110.09114583333333,"type":"noteOff","velocity":0},{"channel":9,"nextOffset":34130,"note":42,"tick":84576,"time":110.12499999999999,"type":"noteOff","velocity":0},{"channel":9,"nextOffset":34134,"note":42,"tick":84576,"time":110.12499999999999,"type":"noteOn","velocity":50},{"channel":9,"nextOffset":34138,"note":42,"tick":84600,"time":110.15624999999999,"type":"noteOff","velocity":0},{"channel":9,"nextOffset":46350,"note":42,"tick":84608,"time":110.16666666666666,"type":"noteOff","velocity":0},{"channel":0,"nextOffset":5098,"note":31,"tick":84617,"time":110.17838541666666,"type":"noteOff","velocity":0},{"channel":9,"nextOffset":34142,"note":42,"tick":84624,"time":110.18749999999999,"type":"noteOn","velocity":50},{"channel":1,"nextOffset":17868,"note":26,"tick":84637,"time":110.20442708333333,"type":"noteOff","velocity":0},{"channel":1,"nextOffset":17872,"note":33,"tick":84637,"time":110.20442708333333,"type":"noteOn","velocity":50},{"channel":8,"nextOffset":40780,"note":67,"tick":84640,"time":110.20833333333333,"type":"noteOn","velocity":50},{"channel":9,"nextOffset":34146,"note":42,"tick":84648,"time":110.21874999999999,"type":"noteOff","velocity":0},{"channel":9,"nextOffset":34150,"note":42,"tick":84672,"time":110.24999999999999,"type":"noteOn","velocity":50},{"channel":9,"nextOffset":34154,"note":42,"tick":84696,"time":110.28124999999999,"type":"noteOff","velocity":0},{"channel":12,"nextOffset":42539,"note":64,"tick":84713,"time":110.30338541666666,"type":"noteOff","velocity":0},{"channel":9,"nextOffset":34158,"note":42,"tick":84720,"time":110.31249999999999,"type":"noteOn","velocity":50},{"channel":2,"nextOffset":29433,"note":33,"tick":84725,"time":110.31901041666666,"type":"noteOff","velocity":0},{"channel":2,"nextOffset":29437,"note":32,"tick":84725,"time":110.31901041666666,"type":"noteOn","velocity":57},{"channel":9,"nextOffset":21687,"note":35,"tick":84734,"time":110.33072916666666,"type":"noteOn","velocity":50},{"channel":9,"nextOffset":34162,"note":42,"tick":84744,"time":110.34374999999999,"type":"noteOff","velocity":0},{"channel":9,"nextOffset":34166,"note":42,"tick":84768,"time":110.37499999999999,"type":"noteOn","velocity":50},{"channel":9,"nextOffset":34170,"note":42,"tick":84792,"time":110.40624999999999,"type":"noteOff","velocity":0},{"channel":9,"nextOffset":46355,"note":42,"tick":84800,"time":110.41666666666666,"type":"noteOn","velocity":50},{"channel":0,"nextOffset":5103,"note":33,"tick":84809,"time":110.42838541666666,"type":"noteOn","velocity":68},{"channel":0,"nextOffset":5107,"note":72,"tick":84809,"time":110.42838541666666,"type":"noteOn","velocity":68},{"channel":0,"nextOffset":5111,"note":67,"tick":84809,"time":110.42838541666666,"type":"noteOn","velocity":68},{"channel":0,"nextOffset":5115,"note":64,"tick":84809,"time":110.42838541666666,"type":"noteOn","velocity":68},{"channel":0,"nextOffset":5119,"note":60,"tick":84809,"time":110.42838541666666,"type":"noteOn","velocity":68},{"channel":1,"nextOffset":17877,"note":33,"tick":84829,"time":110.45442708333333,"type":"noteOff","velocity":0},{"channel":1,"nextOffset":17881,"note":32,"tick":84829,"time":110.45442708333333,"type":"noteOn","velocity":50},{"channel":9,"nextOffset":21691,"note":35,"tick":84830,"time":110.45572916666666,"type":"noteOff","velocity":0},{"channel":8,"nextOffset":40785,"note":67,"tick":84832,"time":110.45833333333333,"type":"noteOff","velocity":0},{"channel":9,"nextOffset":25507,"note":35,"tick":84838,"time":110.46614583333333,"type":"noteOn","velocity":50},{"channel":9,"nextOffset":46359,"note":42,"tick":84896,"time":110.54166666666666,"type":"noteOff","velocity":0},{"channel":12,"nextOffset":42544,"note":62,"tick":84905,"time":110.55338541666666,"type":"noteOn","velocity":50},{"channel":2,"nextOffset":29442,"note":32,"tick":84917,"time":110.56901041666666,"type":"noteOff","velocity":0},{"channel":2,"nextOffset":29446,"note":31,"tick":84917,"time":110.56901041666666,"type":"noteOn","velocity":57},{"channel":9,"nextOffset":25511,"note":35,"tick":84934,"time":110.59114583333333,"type":"noteOff","velocity":0},{"channel":9,"nextOffset":34175,"note":42,"tick":84960,"time":110.62499999999999,"type":"noteOn","velocity":50},{"channel":0,"nextOffset":5124,"note":60,"tick":85001,"time":110.67838541666666,"type":"noteOff","velocity":0},{"channel":0,"nextOffset":5128,"note":64,"tick":85001,"time":110.67838541666666,"type":"noteOff","velocity":0},{"channel":0,"nextOffset":5132,"note":67,"tick":85001,"time":110.67838541666666,"type":"noteOff","velocity":0},{"channel":0,"nextOffset":5136,"note":72,"tick":85001,"time":110.67838541666666,"type":"noteOff","velocity":0},{"channel":0,"nextOffset":5140,"note":33,"tick":85001,"time":110.67838541666666,"type":"noteOff","velocity":0},{"channel":1,"nextOffset":17886,"note":32,"tick":85021,"time":110.70442708333333,"type":"noteOff","velocity":0},{"channel":1,"nextOffset":17890,"note":31,"tick":85021,"time":110.70442708333333,"type":"noteOn","velocity":50},{"channel":9,"nextOffset":21696,"note":35,"tick":85022,"time":110.70572916666666,"type":"noteOn","velocity":50},{"channel":8,"nextOffset":40790,"note":65,"tick":85024,"time":110.70833333333333,"type":"noteOn","velocity":50},{"channel":9,"nextOffset":34179,"note":42,"tick":85056,"time":110.74999999999999,"type":"noteOff","velocity":0},{"channel":9,"nextOffset":46364,"note":42,"tick":85088,"time":110.79166666666666,"type":"noteOn","velocity":50},{"channel":0,"nextOffset":5144,"note":33,"tick":85097,"time":110.80338541666666,"type":"noteOn","velocity":68},{"channel":12,"nextOffset":42549,"note":62,"tick":85097,"time":110.80338541666666,"type":"noteOff","velocity":0},{"channel":2,"nextOffset":29451,"note":31,"tick":85109,"time":110.81901041666666,"type":"noteOff","velocity":0},{"channel":9,"nextOffset":21700,"note":35,"tick":85118,"time":110.83072916666666,"type":"noteOff","velocity":0},{"channel":9,"nextOffset":25516,"note":35,"tick":85126,"time":110.84114583333333,"type":"noteOn","velocity":50},{"channel":9,"nextOffset":46368,"note":42,"tick":85184,"time":110.91666666666666,"type":"noteOff","velocity":0},{"channel":9,"nextOffset":46372,"note":42,"tick":85184,"time":110.91666666666666,"type":"noteOn","velocity":50},{"channel":0,"nextOffset":5148,"note":61,"tick":85193,"time":110.92838541666666,"type":"noteOn","velocity":68},{"channel":0,"nextOffset":5152,"note":65,"tick":85193,"time":110.92838541666666,"type":"noteOn","velocity":68},{"channel":0,"nextOffset":5156,"note":67,"tick":85193,"time":110.92838541666666,"type":"noteOn","velocity":68},{"channel":0,"nextOffset":5160,"note":70,"tick":85193,"time":110.92838541666666,"type":"noteOn","velocity":68},{"channel":9,"nextOffset":46376,"note":42,"tick":85208,"time":110.94791666666666,"type":"noteOff","velocity":0},{"channel":1,"nextOffset":17895,"note":31,"tick":85213,"time":110.95442708333333,"type":"noteOff","velocity":0},{"channel":8,"nextOffset":40795,"note":65,"tick":85216,"time":110.95833333333333,"type":"noteOff","velocity":0},{"channel":9,"nextOffset":25520,"note":35,"tick":85222,"time":110.96614583333333,"type":"noteOff","velocity":0},{"channel":9,"nextOffset":46380,"note":42,"tick":85232,"time":110.97916666666666,"type":"noteOn","velocity":50},{"channel":9,"nextOffset":46384,"note":42,"tick":85256,"time":111.01041666666666,"type":"noteOff","velocity":0},{"channel":9,"nextOffset":46388,"note":42,"tick":85280,"time":111.04166666666666,"type":"noteOn","velocity":50},{"channel":0,"nextOffset":5164,"note":33,"tick":85289,"time":111.05338541666666,"type":"noteOff","velocity":0},{"channel":12,"nextOffset":42554,"note":60,"tick":85289,"time":111.05338541666666,"type":"noteOn","velocity":50},{"channel":2,"nextOffset":29456,"note":31,"tick":85301,"time":111.06901041666666,"type":"noteOn","velocity":57},{"channel":9,"nextOffset":46392,"note":42,"tick":85304,"time":111.07291666666666,"type":"noteOff","velocity":0},{"channel":9,"nextOffset":21705,"note":35,"tick":85310,"time":111.08072916666666,"type":"noteOn","velocity":50},{"channel":9,"nextOffset":46396,"note":42,"tick":85328,"time":111.10416666666666,"type":"noteOn","velocity":50},{"channel":9,"nextOffset":34184,"note":42,"tick":85344,"time":111.12499999999999,"type":"noteOn","velocity":50},{"channel":9,"nextOffset":46400,"note":42,"tick":85352,"time":111.13541666666666,"type":"noteOff","velocity":0},{"channel":9,"nextOffset":46404,"note":42,"tick":85376,"time":111.16666666666666,"type":"noteOn","velocity":50},{"channel":0,"nextOffset":5168,"note":70,"tick":85385,"time":111.17838541666666,"type":"noteOff","velocity":0},{"channel":0,"nextOffset":5172,"note":67,"tick":85385,"time":111.17838541666666,"type":"noteOff","velocity":0},{"channel":0,"nextOffset":5176,"note":65,"tick":85385,"time":111.17838541666666,"type":"noteOff","velocity":0},{"channel":0,"nextOffset":5180,"note":61,"tick":85385,"time":111.17838541666666,"type":"noteOff","velocity":0},{"channel":0,"nextOffset":5184,"note":33,"tick":85385,"time":111.17838541666666,"type":"noteOn","velocity":68},{"channel":9,"nextOffset":46408,"note":42,"tick":85400,"time":111.19791666666666,"type":"noteOff","velocity":0},{"channel":1,"nextOffset":17900,"note":31,"tick":85405,"time":111.20442708333333,"type":"noteOn","velocity":50},{"channel":9,"nextOffset":21709,"note":35,"tick":85406,"time":111.20572916666666,"type":"noteOff","velocity":0},{"channel":8,"nextOffset":40800,"note":64,"tick":85408,"time":111.20833333333333,"type":"noteOn","velocity":50},{"channel":9,"nextOffset":25525,"note":35,"tick":85414,"time":111.21614583333333,"type":"noteOn","velocity":50},{"channel":9,"nextOffset":34188,"note":42,"tick":85440,"time":111.24999999999999,"type":"noteOff","velocity":0},{"channel":9,"nextOffset":34192,"note":42,"tick":85440,"time":111.24999999999999,"type":"noteOn","velocity":50},{"channel":12,"nextOffset":42559,"note":60,"tick":85481,"time":111.30338541666666,"type":"noteOff","velocity":0},{"channel":12,"nextOffset":42563,"note":62,"tick":85481,"time":111.30338541666666,"type":"noteOn","velocity":50},{"channel":2,"nextOffset":29461,"note":31,"tick":85493,"time":111.31901041666666,"type":"noteOff","velocity":0},{"channel":2,"nextOffset":29465,"note":32,"tick":85493,"time":111.31901041666666,"type":"noteOn","velocity":57},{"channel":9,"nextOffset":21713,"note":35,"tick":85502,"time":111.33072916666666,"type":"noteOn","velocity":50},{"channel":9,"nextOffset":25529,"note":35,"tick":85510,"time":111.34114583333333,"type":"noteOff","velocity":0},{"channel":9,"nextOffset":34196,"note":42,"tick":85536,"time":111.37499999999999,"type":"noteOff","velocity":0},{"channel":9,"nextOffset":46413,"note":42,"tick":85568,"time":111.41666666666666,"type":"noteOn","velocity":50},{"channel":0,"nextOffset":5189,"note":33,"tick":85577,"time":111.42838541666666,"type":"noteOff","velocity":0},{"channel":0,"nextOffset":5193,"note":26,"tick":85577,"time":111.42838541666666,"type":"noteOn","velocity":68},{"channel":0,"nextOffset":5197,"note":60,"tick":85577,"time":111.42838541666666,"type":"noteOn","velocity":68},{"channel":0,"nextOffset":5201,"note":64,"tick":85577,"time":111.42838541666666,"type":"noteOn","velocity":68},{"channel":0,"nextOffset":5205,"note":65,"tick":85577,"time":111.42838541666666,"type":"noteOn","velocity":68},{"channel":0,"nextOffset":5209,"note":69,"tick":85577,"time":111.42838541666666,"type":"noteOn","velocity":68},{"channel":1,"nextOffset":17905,"note":31,"tick":85597,"time":111.45442708333333,"type":"noteOff","velocity":0},{"channel":1,"nextOffset":17909,"note":32,"tick":85597,"time":111.45442708333333,"type":"noteOn","velocity":50},{"channel":9,"nextOffset":21717,"note":35,"tick":85598,"time":111.45572916666666,"type":"noteOff","velocity":0},{"channel":8,"nextOffset":40805,"note":64,"tick":85600,"time":111.45833333333333,"type":"noteOff","velocity":0},{"channel":9,"nextOffset":25533,"note":35,"tick":85606,"time":111.46614583333333,"type":"noteOn","velocity":50},{"channel":9,"nextOffset":46417,"note":42,"tick":85664,"time":111.54166666666666,"type":"noteOff","velocity":0},{"channel":9,"nextOffset":46421,"note":42,"tick":85664,"time":111.54166666666666,"type":"noteOn","velocity":50},{"channel":12,"nextOffset":42568,"note":62,"tick":85673,"time":111.55338541666666,"type":"noteOff","velocity":0},{"channel":2,"nextOffset":29470,"note":32,"tick":85685,"time":111.56901041666666,"type":"noteOff","velocity":0},{"channel":2,"nextOffset":29474,"note":33,"tick":85685,"time":111.56901041666666,"type":"noteOn","velocity":57},{"channel":2,"nextOffset":29478,"note":33,"tick":85685,"time":111.56901041666666,"type":"noteOn","velocity":57},{"channel":9,"nextOffset":25537,"note":35,"tick":85702,"time":111.59114583333333,"type":"noteOff","velocity":0},{"channel":9,"nextOffset":34201,"note":42,"tick":85728,"time":111.62499999999999,"type":"noteOn","velocity":50},{"channel":9,"nextOffset":46425,"note":42,"tick":85760,"time":111.66666666666666,"type":"noteOff","velocity":0},{"channel":0,"nextOffset":5214,"note":69,"tick":85769,"time":111.67838541666666,"type":"noteOff","velocity":0},{"channel":0,"nextOffset":5218,"note":65,"tick":85769,"time":111.67838541666666,"type":"noteOff","velocity":0},{"channel":0,"nextOffset":5222,"note":64,"tick":85769,"time":111.67838541666666,"type":"noteOff","velocity":0},{"channel":0,"nextOffset":5226,"note":60,"tick":85769,"time":111.67838541666666,"type":"noteOff","velocity":0},{"channel":0,"nextOffset":5230,"note":26,"tick":85769,"time":111.67838541666666,"type":"noteOff","velocity":0},{"channel":1,"nextOffset":17914,"note":32,"tick":85789,"time":111.70442708333333,"type":"noteOff","velocity":0},{"channel":1,"nextOffset":17918,"note":33,"tick":85789,"time":111.70442708333333,"type":"noteOn","velocity":50},{"channel":1,"nextOffset":17922,"note":33,"tick":85789,"time":111.70442708333333,"type":"noteOn","velocity":50},{"channel":8,"nextOffset":40810,"note":67,"tick":85792,"time":111.70833333333333,"type":"noteOn","velocity":50},{"channel":9,"nextOffset":34205,"note":42,"tick":85824,"time":111.74999999999999,"type":"noteOff","velocity":0},{"channel":2,"nextOffset":29483,"note":33,"tick":85877,"time":111.81901041666666,"type":"noteOff","velocity":0},{"channel":2,"nextOffset":29487,"note":33,"tick":85877,"time":111.81901041666666,"type":"noteOff","velocity":0},{"channel":9,"nextOffset":21722,"note":35,"tick":85886,"time":111.83072916666666,"type":"noteOn","velocity":50},{"channel":9,"nextOffset":46430,"note":42,"tick":85952,"time":111.91666666666666,"type":"noteOn","velocity":50},{"channel":9,"nextOffset":46434,"note":42,"tick":85952,"time":111.91666666666666,"type":"noteOn","velocity":50},{"channel":0,"nextOffset":5235,"note":26,"tick":85961,"time":111.92838541666666,"type":"noteOn","velocity":68},{"channel":2,"nextOffset":29491,"note":33,"tick":85973,"time":111.94401041666666,"type":"noteOn","velocity":57},{"channel":1,"nextOffset":17927,"note":33,"tick":85981,"time":111.95442708333333,"type":"noteOff","velocity":0},{"channel":1,"nextOffset":17931,"note":33,"tick":85981,"time":111.95442708333333,"type":"noteOff","velocity":0},{"channel":9,"nextOffset":21726,"note":35,"tick":85982,"time":111.95572916666666,"type":"noteOff","velocity":0},{"channel":8,"nextOffset":40815,"note":67,"tick":85984,"time":111.95833333333333,"type":"noteOff","velocity":0},{"channel":9,"nextOffset":25542,"note":35,"tick":85990,"time":111.96614583333333,"type":"noteOn","velocity":50},{"channel":9,"nextOffset":34210,"note":42,"tick":86016,"time":111.99999999999999,"type":"noteOn","velocity":50},{"channel":9,"nextOffset":46438,"note":42,"tick":86048,"time":112.04166666666666,"type":"noteOff","velocity":0},{"channel":9,"nextOffset":46442,"note":42,"tick":86048,"time":112.04166666666666,"type":"noteOff","velocity":0},{"channel":9,"nextOffset":46446,"note":42,"tick":86048,"time":112.04166666666666,"type":"noteOn","velocity":50},{"channel":2,"nextOffset":29495,"note":33,"tick":86069,"time":112.06901041666666,"type":"noteOff","velocity":0},{"channel":1,"nextOffset":17935,"note":33,"tick":86077,"time":112.07942708333333,"type":"noteOn","velocity":50},{"channel":9,"nextOffset":25546,"note":35,"tick":86086,"time":112.09114583333333,"type":"noteOff","velocity":0},{"channel":9,"nextOffset":34214,"note":42,"tick":86112,"time":112.12499999999999,"type":"noteOff","velocity":0},{"channel":9,"nextOffset":34218,"note":42,"tick":86112,"time":112.12499999999999,"type":"noteOn","velocity":50},{"channel":9,"nextOffset":34222,"note":42,"tick":86136,"time":112.15624999999999,"type":"noteOff","velocity":0},{"channel":9,"nextOffset":46450,"note":42,"tick":86144,"time":112.16666666666666,"type":"noteOff","velocity":0},{"channel":0,"nextOffset":5240,"note":26,"tick":86153,"time":112.17838541666666,"type":"noteOff","velocity":0},{"channel":9,"nextOffset":34226,"note":42,"tick":86160,"time":112.18749999999999,"type":"noteOn","velocity":50},{"channel":1,"nextOffset":17939,"note":33,"tick":86173,"time":112.20442708333333,"type":"noteOff","velocity":0},{"channel":8,"nextOffset":40820,"note":65,"tick":86176,"time":112.20833333333333,"type":"noteOn","velocity":50},{"channel":9,"nextOffset":25550,"note":42,"tick":86182,"time":112.21614583333333,"type":"noteOn","velocity":50},{"channel":9,"nextOffset":34230,"note":42,"tick":86184,"time":112.21874999999999,"type":"noteOff","velocity":0},{"channel":9,"nextOffset":34234,"note":42,"tick":86208,"time":112.24999999999999,"type":"noteOn","velocity":50},{"channel":9,"nextOffset":34238,"note":42,"tick":86232,"time":112.28124999999999,"type":"noteOff","velocity":0},{"channel":9,"nextOffset":34242,"note":42,"tick":86256,"time":112.31249999999999,"type":"noteOn","velocity":50},{"channel":2,"nextOffset":29500,"note":26,"tick":86261,"time":112.31901041666666,"type":"noteOn","velocity":57},{"channel":9,"nextOffset":21731,"note":35,"tick":86270,"time":112.33072916666666,"type":"noteOn","velocity":50},{"channel":9,"nextOffset":25554,"note":42,"tick":86278,"time":112.34114583333333,"type":"noteOff","velocity":0},{"channel":9,"nextOffset":34246,"note":42,"tick":86280,"time":112.34374999999999,"type":"noteOff","velocity":0},{"channel":9,"nextOffset":46455,"note":42,"tick":86336,"time":112.41666666666666,"type":"noteOn","velocity":50},{"channel":0,"nextOffset":5245,"note":38,"tick":86345,"time":112.42838541666666,"type":"noteOn","velocity":68},{"channel":0,"nextOffset":5249,"note":64,"tick":86345,"time":112.42838541666666,"type":"noteOn","velocity":68},{"channel":0,"nextOffset":5253,"note":60,"tick":86345,"time":112.42838541666666,"type":"noteOn","velocity":68},{"channel":0,"nextOffset":5257,"note":69,"tick":86345,"time":112.42838541666666,"type":"noteOn","velocity":68},{"channel":0,"nextOffset":5261,"note":65,"tick":86345,"time":112.42838541666666,"type":"noteOn","velocity":68},{"channel":1,"nextOffset":17944,"note":26,"tick":86365,"time":112.45442708333333,"type":"noteOn","velocity":50},{"channel":9,"nextOffset":21735,"note":35,"tick":86366,"time":112.45572916666666,"type":"noteOff","velocity":0},{"channel":8,"nextOffset":40825,"note":65,"tick":86368,"time":112.45833333333333,"type":"noteOff","velocity":0},{"channel":9,"nextOffset":25558,"note":35,"tick":86374,"time":112.46614583333333,"type":"noteOn","velocity":50},{"channel":9,"nextOffset":46459,"note":42,"tick":86432,"time":112.54166666666666,"type":"noteOff","velocity":0},{"channel":2,"nextOffset":29505,"note":26,"tick":86453,"time":112.56901041666666,"type":"noteOff","velocity":0},{"channel":9,"nextOffset":25562,"note":35,"tick":86470,"time":112.59114583333333,"type":"noteOff","velocity":0},{"channel":9,"nextOffset":34251,"note":42,"tick":86496,"time":112.62499999999999,"type":"noteOn","velocity":50},{"channel":0,"nextOffset":5266,"note":65,"tick":86537,"time":112.67838541666666,"type":"noteOff","velocity":0},{"channel":0,"nextOffset":5270,"note":69,"tick":86537,"time":112.67838541666666,"type":"noteOff","velocity":0},{"channel":0,"nextOffset":5274,"note":60,"tick":86537,"time":112.67838541666666,"type":"noteOff","velocity":0},{"channel":0,"nextOffset":5278,"note":64,"tick":86537,"time":112.67838541666666,"type":"noteOff","velocity":0},{"channel":0,"nextOffset":5282,"note":38,"tick":86537,"time":112.67838541666666,"type":"noteOff","velocity":0},{"channel":1,"nextOffset":17949,"note":26,"tick":86557,"time":112.70442708333333,"type":"noteOff","velocity":0},{"channel":9,"nextOffset":21740,"note":35,"tick":86558,"time":112.70572916666666,"type":"noteOn","velocity":50},{"channel":8,"nextOffset":40830,"note":64,"tick":86560,"time":112.70833333333333,"type":"noteOn","velocity":50},{"channel":9,"nextOffset":34255,"note":42,"tick":86592,"time":112.74999999999999,"type":"noteOff","velocity":0},{"channel":9,"nextOffset":34259,"note":42,"tick":86592,"time":112.74999999999999,"type":"noteOn","velocity":50},{"channel":9,"nextOffset":46464,"note":42,"tick":86624,"time":112.79166666666666,"type":"noteOn","velocity":50},{"channel":0,"nextOffset":5286,"note":33,"tick":86633,"time":112.80338541666666,"type":"noteOn","velocity":68},{"channel":2,"nextOffset":29510,"note":26,"tick":86645,"time":112.81901041666666,"type":"noteOn","velocity":57},{"channel":9,"nextOffset":21744,"note":35,"tick":86654,"time":112.83072916666666,"type":"noteOff","velocity":0},{"channel":9,"nextOffset":25567,"note":35,"tick":86662,"time":112.84114583333333,"type":"noteOn","velocity":50},{"channel":9,"nextOffset":34263,"note":42,"tick":86688,"time":112.87499999999999,"type":"noteOff","velocity":0},{"channel":9,"nextOffset":46468,"note":42,"tick":86720,"time":112.91666666666666,"type":"noteOff","velocity":0},{"channel":9,"nextOffset":46472,"note":42,"tick":86720,"time":112.91666666666666,"type":"noteOn","velocity":50},{"channel":0,"nextOffset":5290,"note":59,"tick":86729,"time":112.92838541666666,"type":"noteOn","velocity":68},{"channel":0,"nextOffset":5294,"note":63,"tick":86729,"time":112.92838541666666,"type":"noteOn","velocity":68},{"channel":0,"nextOffset":5298,"note":68,"tick":86729,"time":112.92838541666666,"type":"noteOn","velocity":68},{"channel":9,"nextOffset":46476,"note":42,"tick":86744,"time":112.94791666666666,"type":"noteOff","velocity":0},{"channel":1,"nextOffset":17954,"note":26,"tick":86749,"time":112.95442708333333,"type":"noteOn","velocity":50},{"channel":8,"nextOffset":40835,"note":64,"tick":86752,"time":112.95833333333333,"type":"noteOff","velocity":0},{"channel":9,"nextOffset":25571,"note":35,"tick":86758,"time":112.96614583333333,"type":"noteOff","velocity":0},{"channel":9,"nextOffset":46480,"note":42,"tick":86768,"time":112.97916666666666,"type":"noteOn","velocity":50},{"channel":9,"nextOffset":46484,"note":42,"tick":86792,"time":113.01041666666666,"type":"noteOff","velocity":0},{"channel":9,"nextOffset":46488,"note":42,"tick":86816,"time":113.04166666666666,"type":"noteOn","velocity":50},{"channel":0,"nextOffset":5302,"note":33,"tick":86825,"time":113.05338541666666,"type":"noteOff","velocity":0},{"channel":2,"nextOffset":29515,"note":26,"tick":86837,"time":113.06901041666666,"type":"noteOff","velocity":0},{"channel":2,"nextOffset":29519,"note":33,"tick":86837,"time":113.06901041666666,"type":"noteOn","velocity":57},{"channel":9,"nextOffset":46492,"note":42,"tick":86840,"time":113.07291666666666,"type":"noteOff","velocity":0},{"channel":9,"nextOffset":21749,"note":35,"tick":86846,"time":113.08072916666666,"type":"noteOn","velocity":50},{"channel":9,"nextOffset":46496,"note":42,"tick":86864,"time":113.10416666666666,"type":"noteOn","velocity":50},{"channel":9,"nextOffset":34268,"note":42,"tick":86880,"time":113.12499999999999,"type":"noteOn","velocity":50},{"channel":9,"nextOffset":46500,"note":42,"tick":86888,"time":113.13541666666666,"type":"noteOff","velocity":0},{"channel":9,"nextOffset":46504,"note":42,"tick":86912,"time":113.16666666666666,"type":"noteOn","velocity":50},{"channel":0,"nextOffset":5306,"note":68,"tick":86921,"time":113.17838541666666,"type":"noteOff","velocity":0},{"channel":0,"nextOffset":5310,"note":63,"tick":86921,"time":113.17838541666666,"type":"noteOff","velocity":0},{"channel":0,"nextOffset":5314,"note":59,"tick":86921,"time":113.17838541666666,"type":"noteOff","velocity":0},{"channel":0,"nextOffset":5318,"note":32,"tick":86921,"time":113.17838541666666,"type":"noteOn","velocity":68},{"channel":9,"nextOffset":46508,"note":42,"tick":86936,"time":113.19791666666666,"type":"noteOff","velocity":0},{"channel":1,"nextOffset":17959,"note":26,"tick":86941,"time":113.20442708333333,"type":"noteOff","velocity":0},{"channel":1,"nextOffset":17963,"note":33,"tick":86941,"time":113.20442708333333,"type":"noteOn","velocity":50},{"channel":9,"nextOffset":21753,"note":35,"tick":86942,"time":113.20572916666666,"type":"noteOff","velocity":0},{"channel":8,"nextOffset":40840,"note":62,"tick":86944,"time":113.20833333333333,"type":"noteOn","velocity":50},{"channel":9,"nextOffset":25576,"note":35,"tick":86950,"time":113.21614583333333,"type":"noteOn","velocity":50},{"channel":9,"nextOffset":34272,"note":42,"tick":86976,"time":113.24999999999999,"type":"noteOff","velocity":0},{"channel":9,"nextOffset":34276,"note":42,"tick":86976,"time":113.24999999999999,"type":"noteOn","velocity":50},{"channel":2,"nextOffset":29524,"note":33,"tick":87029,"time":113.31901041666666,"type":"noteOff","velocity":0},{"channel":2,"nextOffset":29528,"note":26,"tick":87029,"time":113.31901041666666,"type":"noteOn","velocity":57},{"channel":9,"nextOffset":21757,"note":35,"tick":87038,"time":113.33072916666666,"type":"noteOn","velocity":50},{"channel":9,"nextOffset":25580,"note":35,"tick":87046,"time":113.34114583333333,"type":"noteOff","velocity":0},{"channel":9,"nextOffset":34280,"note":42,"tick":87072,"time":113.37499999999999,"type":"noteOff","velocity":0},{"channel":9,"nextOffset":46513,"note":42,"tick":87104,"time":113.41666666666666,"type":"noteOn","velocity":50},{"channel":0,"nextOffset":5323,"note":32,"tick":87113,"time":113.42838541666666,"type":"noteOff","velocity":0},{"channel":0,"nextOffset":5327,"note":31,"tick":87113,"time":113.42838541666666,"type":"noteOn","velocity":68},{"channel":0,"nextOffset":5331,"note":58,"tick":87113,"time":113.42838541666666,"type":"noteOn","velocity":68},{"channel":0,"nextOffset":5335,"note":62,"tick":87113,"time":113.42838541666666,"type":"noteOn","velocity":68},{"channel":0,"nextOffset":5339,"note":65,"tick":87113,"time":113.42838541666666,"type":"noteOn","velocity":68},{"channel":0,"nextOffset":5343,"note":69,"tick":87113,"time":113.42838541666666,"type":"noteOn","velocity":68},{"channel":1,"nextOffset":17968,"note":33,"tick":87133,"time":113.45442708333333,"type":"noteOff","velocity":0},{"channel":1,"nextOffset":17972,"note":26,"tick":87133,"time":113.45442708333333,"type":"noteOn","velocity":50},{"channel":9,"nextOffset":21761,"note":35,"tick":87134,"time":113.45572916666666,"type":"noteOff","velocity":0},{"channel":8,"nextOffset":40845,"note":62,"tick":87136,"time":113.45833333333333,"type":"noteOff","velocity":0},{"channel":9,"nextOffset":25584,"note":35,"tick":87142,"time":113.46614583333333,"type":"noteOn","velocity":50},{"channel":9,"nextOffset":46517,"note":42,"tick":87200,"time":113.54166666666666,"type":"noteOff","velocity":0},{"channel":9,"nextOffset":46521,"note":42,"tick":87200,"time":113.54166666666666,"type":"noteOn","velocity":50},{"channel":12,"nextOffset":42573,"note":68,"tick":87209,"time":113.55338541666666,"type":"noteOn","velocity":50},{"channel":2,"nextOffset":29533,"note":26,"tick":87221,"time":113.56901041666666,"type":"noteOff","velocity":0},{"channel":9,"nextOffset":25588,"note":35,"tick":87238,"time":113.59114583333333,"type":"noteOff","velocity":0},{"channel":12,"nextOffset":42577,"note":69,"tick":87257,"time":113.61588541666666,"type":"noteOn","velocity":50},{"channel":9,"nextOffset":34285,"note":42,"tick":87264,"time":113.62499999999999,"type":"noteOn","velocity":50},{"channel":12,"nextOffset":42581,"note":68,"tick":87273,"time":113.63671874999999,"type":"noteOff","velocity":0},{"channel":9,"nextOffset":46525,"note":42,"tick":87296,"time":113.66666666666666,"type":"noteOff","velocity":0},{"channel":0,"nextOffset":5348,"note":31,"tick":87305,"time":113.67838541666666,"type":"noteOff","velocity":0},{"channel":1,"nextOffset":17977,"note":26,"tick":87325,"time":113.70442708333333,"type":"noteOff","velocity":0},{"channel":8,"nextOffset":40850,"note":65,"tick":87328,"time":113.70833333333333,"type":"noteOn","velocity":50},{"channel":9,"nextOffset":34289,"note":42,"tick":87360,"time":113.74999999999999,"type":"noteOff","velocity":0},{"channel":12,"nextOffset":42586,"note":69,"tick":87401,"time":113.80338541666666,"type":"noteOff","velocity":0},{"channel":2,"nextOffset":29538,"note":26,"tick":87413,"time":113.81901041666666,"type":"noteOn","velocity":57},{"channel":9,"nextOffset":21766,"note":35,"tick":87422,"time":113.83072916666666,"type":"noteOn","velocity":50},{"channel":9,"nextOffset":46530,"note":42,"tick":87488,"time":113.91666666666666,"type":"noteOn","velocity":50},{"channel":0,"nextOffset":5353,"note":69,"tick":87497,"time":113.92838541666666,"type":"noteOff","velocity":0},{"channel":0,"nextOffset":5357,"note":65,"tick":87497,"time":113.92838541666666,"type":"noteOff","velocity":0},{"channel":0,"nextOffset":5361,"note":62,"tick":87497,"time":113.92838541666666,"type":"noteOff","velocity":0},{"channel":0,"nextOffset":5365,"note":58,"tick":87497,"time":113.92838541666666,"type":"noteOff","velocity":0},{"channel":0,"nextOffset":5369,"note":31,"tick":87497,"time":113.92838541666666,"type":"noteOn","velocity":68},{"channel":1,"nextOffset":17982,"note":26,"tick":87517,"time":113.95442708333333,"type":"noteOn","velocity":50},{"channel":9,"nextOffset":21770,"note":35,"tick":87518,"time":113.95572916666666,"type":"noteOff","velocity":0},{"channel":8,"nextOffset":40855,"note":65,"tick":87520,"time":113.95833333333333,"type":"noteOff","velocity":0},{"channel":9,"nextOffset":25593,"note":35,"tick":87526,"time":113.96614583333333,"type":"noteOn","velocity":50},{"channel":9,"nextOffset":34294,"note":42,"tick":87552,"time":113.99999999999999,"type":"noteOn","velocity":50},{"channel":9,"nextOffset":46534,"note":42,"tick":87584,"time":114.04166666666666,"type":"noteOff","velocity":0},{"channel":9,"nextOffset":46538,"note":42,"tick":87584,"time":114.04166666666666,"type":"noteOn","velocity":50},{"channel":12,"nextOffset":42591,"note":67,"tick":87593,"time":114.05338541666666,"type":"noteOn","velocity":50},{"channel":2,"nextOffset":29543,"note":26,"tick":87605,"time":114.06901041666666,"type":"noteOff","velocity":0},{"channel":2,"nextOffset":29547,"note":33,"tick":87605,"time":114.06901041666666,"type":"noteOn","velocity":57},{"channel":9,"nextOffset":25597,"note":35,"tick":87622,"time":114.09114583333333,"type":"noteOff","velocity":0},{"channel":9,"nextOffset":34298,"note":42,"tick":87648,"time":114.12499999999999,"type":"noteOff","velocity":0},{"channel":9,"nextOffset":34302,"note":42,"tick":87648,"time":114.12499999999999,"type":"noteOn","velocity":50},{"channel":9,"nextOffset":34306,"note":42,"tick":87672,"time":114.15624999999999,"type":"noteOff","velocity":0},{"channel":9,"nextOffset":46542,"note":42,"tick":87680,"time":114.16666666666666,"type":"noteOff","velocity":0},{"channel":0,"nextOffset":5374,"note":31,"tick":87689,"time":114.17838541666666,"type":"noteOff","velocity":0},{"channel":9,"nextOffset":34310,"note":42,"tick":87696,"time":114.18749999999999,"type":"noteOn","velocity":50},{"channel":1,"nextOffset":17987,"note":26,"tick":87709,"time":114.20442708333333,"type":"noteOff","velocity":0},{"channel":1,"nextOffset":17991,"note":33,"tick":87709,"time":114.20442708333333,"type":"noteOn","velocity":50},{"channel":8,"nextOffset":40860,"note":64,"tick":87712,"time":114.20833333333333,"type":"noteOn","velocity":50},{"channel":9,"nextOffset":34314,"note":42,"tick":87720,"time":114.21874999999999,"type":"noteOff","velocity":0},{"channel":9,"nextOffset":34318,"note":42,"tick":87744,"time":114.24999999999999,"type":"noteOn","velocity":50},{"channel":9,"nextOffset":34322,"note":42,"tick":87768,"time":114.28124999999999,"type":"noteOff","velocity":0},{"channel":12,"nextOffset":42596,"note":67,"tick":87785,"time":114.30338541666666,"type":"noteOff","velocity":0},{"channel":9,"nextOffset":34326,"note":42,"tick":87792,"time":114.31249999999999,"type":"noteOn","velocity":50},{"channel":2,"nextOffset":29552,"note":33,"tick":87797,"time":114.31901041666666,"type":"noteOff","velocity":0},{"channel":2,"nextOffset":29556,"note":32,"tick":87797,"time":114.31901041666666,"type":"noteOn","velocity":57},{"channel":2,"nextOffset":29560,"note":32,"tick":87797,"time":114.31901041666666,"type":"noteOn","velocity":57},{"channel":9,"nextOffset":21775,"note":35,"tick":87806,"time":114.33072916666666,"type":"noteOn","velocity":50},{"channel":9,"nextOffset":34330,"note":42,"tick":87816,"time":114.34374999999999,"type":"noteOff","velocity":0},{"channel":9,"nextOffset":34334,"note":42,"tick":87840,"time":114.37499999999999,"type":"noteOn","velocity":50},{"channel":9,"nextOffset":34338,"note":42,"tick":87864,"time":114.40624999999999,"type":"noteOff","velocity":0},{"channel":9,"nextOffset":46547,"note":42,"tick":87872,"time":114.41666666666666,"type":"noteOn","velocity":50},{"channel":0,"nextOffset":5379,"note":33,"tick":87881,"time":114.42838541666666,"type":"noteOn","velocity":68},{"channel":0,"nextOffset":5383,"note":72,"tick":87881,"time":114.42838541666666,"type":"noteOn","velocity":68},{"channel":0,"nextOffset":5387,"note":67,"tick":87881,"time":114.42838541666666,"type":"noteOn","velocity":68},{"channel":0,"nextOffset":5391,"note":64,"tick":87881,"time":114.42838541666666,"type":"noteOn","velocity":68},{"channel":0,"nextOffset":5395,"note":60,"tick":87881,"time":114.42838541666666,"type":"noteOn","velocity":68},{"channel":1,"nextOffset":17996,"note":33,"tick":87901,"time":114.45442708333333,"type":"noteOff","velocity":0},{"channel":1,"nextOffset":18000,"note":32,"tick":87901,"time":114.45442708333333,"type":"noteOn","velocity":50},{"channel":1,"nextOffset":18004,"note":32,"tick":87901,"time":114.45442708333333,"type":"noteOn","velocity":50},{"channel":9,"nextOffset":21779,"note":35,"tick":87902,"time":114.45572916666666,"type":"noteOff","velocity":0},{"channel":8,"nextOffset":40865,"note":64,"tick":87904,"time":114.45833333333333,"type":"noteOff","velocity":0},{"channel":9,"nextOffset":25602,"note":35,"tick":87910,"time":114.46614583333333,"type":"noteOn","velocity":50},{"channel":9,"nextOffset":46551,"note":42,"tick":87968,"time":114.54166666666666,"type":"noteOff","velocity":0},{"channel":12,"nextOffset":42601,"note":65,"tick":87977,"time":114.55338541666666,"type":"noteOn","velocity":50},{"channel":2,"nextOffset":29565,"note":32,"tick":87989,"time":114.56901041666666,"type":"noteOff","velocity":0},{"channel":2,"nextOffset":29569,"note":32,"tick":87989,"time":114.56901041666666,"type":"noteOff","velocity":0},{"channel":2,"nextOffset":29573,"note":31,"tick":87989,"time":114.56901041666666,"type":"noteOn","velocity":57},{"channel":9,"nextOffset":25606,"note":35,"tick":88006,"time":114.59114583333333,"type":"noteOff","velocity":0},{"channel":9,"nextOffset":34343,"note":42,"tick":88032,"time":114.62499999999999,"type":"noteOn","velocity":50},{"channel":0,"nextOffset":5400,"note":60,"tick":88073,"time":114.67838541666666,"type":"noteOff","velocity":0},{"channel":0,"nextOffset":5404,"note":64,"tick":88073,"time":114.67838541666666,"type":"noteOff","velocity":0},{"channel":0,"nextOffset":5408,"note":67,"tick":88073,"time":114.67838541666666,"type":"noteOff","velocity":0},{"channel":0,"nextOffset":5412,"note":72,"tick":88073,"time":114.67838541666666,"type":"noteOff","velocity":0},{"channel":0,"nextOffset":5416,"note":33,"tick":88073,"time":114.67838541666666,"type":"noteOff","velocity":0},{"channel":1,"nextOffset":18009,"note":32,"tick":88093,"time":114.70442708333333,"type":"noteOff","velocity":0},{"channel":1,"nextOffset":18013,"note":32,"tick":88093,"time":114.70442708333333,"type":"noteOff","velocity":0},{"channel":1,"nextOffset":18017,"note":31,"tick":88093,"time":114.70442708333333,"type":"noteOn","velocity":50},{"channel":9,"nextOffset":21784,"note":35,"tick":88094,"time":114.70572916666666,"type":"noteOn","velocity":50},{"channel":8,"nextOffset":40870,"note":62,"tick":88096,"time":114.70833333333333,"type":"noteOn","velocity":50},{"channel":9,"nextOffset":34347,"note":42,"tick":88128,"time":114.74999999999999,"type":"noteOff","velocity":0},{"channel":9,"nextOffset":34351,"note":42,"tick":88128,"time":114.74999999999999,"type":"noteOn","velocity":50},{"channel":9,"nextOffset":46556,"note":42,"tick":88160,"time":114.79166666666666,"type":"noteOn","velocity":50},{"channel":0,"nextOffset":5420,"note":33,"tick":88169,"time":114.80338541666666,"type":"noteOn","velocity":68},{"channel":12,"nextOffset":42606,"note":65,"tick":88169,"time":114.80338541666666,"type":"noteOff","velocity":0},{"channel":2,"nextOffset":29578,"note":31,"tick":88181,"time":114.81901041666666,"type":"noteOff","velocity":0},{"channel":9,"nextOffset":21788,"note":35,"tick":88190,"time":114.83072916666666,"type":"noteOff","velocity":0},{"channel":9,"nextOffset":25611,"note":35,"tick":88198,"time":114.84114583333333,"type":"noteOn","velocity":50},{"channel":9,"nextOffset":34355,"note":42,"tick":88224,"time":114.87499999999999,"type":"noteOff","velocity":0},{"channel":9,"nextOffset":46560,"note":42,"tick":88256,"time":114.91666666666666,"type":"noteOff","velocity":0},{"channel":9,"nextOffset":46564,"note":42,"tick":88256,"time":114.91666666666666,"type":"noteOn","velocity":50},{"channel":0,"nextOffset":5424,"note":61,"tick":88265,"time":114.92838541666666,"type":"noteOn","velocity":68},{"channel":0,"nextOffset":5428,"note":65,"tick":88265,"time":114.92838541666666,"type":"noteOn","velocity":68},{"channel":0,"nextOffset":5432,"note":67,"tick":88265,"time":114.92838541666666,"type":"noteOn","velocity":68},{"channel":0,"nextOffset":5436,"note":70,"tick":88265,"time":114.92838541666666,"type":"noteOn","velocity":68},{"channel":9,"nextOffset":46568,"note":42,"tick":88280,"time":114.94791666666666,"type":"noteOff","velocity":0},{"channel":1,"nextOffset":18022,"note":31,"tick":88285,"time":114.95442708333333,"type":"noteOff","velocity":0},{"channel":8,"nextOffset":40875,"note":62,"tick":88288,"time":114.95833333333333,"type":"noteOff","velocity":0},{"channel":9,"nextOffset":25615,"note":35,"tick":88294,"time":114.96614583333333,"type":"noteOff","velocity":0},{"channel":9,"nextOffset":46572,"note":42,"tick":88304,"time":114.97916666666666,"type":"noteOn","velocity":50},{"channel":9,"nextOffset":46576,"note":42,"tick":88328,"time":115.01041666666666,"type":"noteOff","velocity":0},{"channel":9,"nextOffset":46580,"note":42,"tick":88352,"time":115.04166666666666,"type":"noteOn","velocity":50},{"channel":0,"nextOffset":5440,"note":33,"tick":88361,"time":115.05338541666666,"type":"noteOff","velocity":0},{"channel":12,"nextOffset":42611,"note":64,"tick":88361,"time":115.05338541666666,"type":"noteOn","velocity":50},{"channel":2,"nextOffset":29583,"note":31,"tick":88373,"time":115.06901041666666,"type":"noteOn","velocity":57},{"channel":9,"nextOffset":46584,"note":42,"tick":88376,"time":115.07291666666666,"type":"noteOff","velocity":0},{"channel":9,"nextOffset":21793,"note":35,"tick":88382,"time":115.08072916666666,"type":"noteOn","velocity":50},{"channel":9,"nextOffset":46588,"note":42,"tick":88400,"time":115.10416666666666,"type":"noteOn","velocity":50},{"channel":9,"nextOffset":34360,"note":42,"tick":88416,"time":115.12499999999999,"type":"noteOn","velocity":50},{"channel":9,"nextOffset":46592,"note":42,"tick":88424,"time":115.13541666666666,"type":"noteOff","velocity":0},{"channel":9,"nextOffset":46596,"note":42,"tick":88448,"time":115.16666666666666,"type":"noteOn","velocity":50},{"channel":0,"nextOffset":5444,"note":70,"tick":88457,"time":115.17838541666666,"type":"noteOff","velocity":0},{"channel":0,"nextOffset":5448,"note":67,"tick":88457,"time":115.17838541666666,"type":"noteOff","velocity":0},{"channel":0,"nextOffset":5452,"note":65,"tick":88457,"time":115.17838541666666,"type":"noteOff","velocity":0},{"channel":0,"nextOffset":5456,"note":61,"tick":88457,"time":115.17838541666666,"type":"noteOff","velocity":0},{"channel":0,"nextOffset":5460,"note":33,"tick":88457,"time":115.17838541666666,"type":"noteOn","velocity":68},{"channel":9,"nextOffset":46600,"note":42,"tick":88472,"time":115.19791666666666,"type":"noteOff","velocity":0},{"channel":1,"nextOffset":18027,"note":31,"tick":88477,"time":115.20442708333333,"type":"noteOn","velocity":50},{"channel":9,"nextOffset":21797,"note":35,"tick":88478,"time":115.20572916666666,"type":"noteOff","velocity":0},{"channel":8,"nextOffset":40880,"note":60,"tick":88480,"time":115.20833333333333,"type":"noteOn","velocity":50},{"channel":9,"nextOffset":25620,"note":35,"tick":88486,"time":115.21614583333333,"type":"noteOn","velocity":50},{"channel":9,"nextOffset":34364,"note":42,"tick":88512,"time":115.24999999999999,"type":"noteOff","velocity":0},{"channel":9,"nextOffset":34368,"note":42,"tick":88512,"time":115.24999999999999,"type":"noteOn","velocity":50},{"channel":12,"nextOffset":42616,"note":64,"tick":88553,"time":115.30338541666666,"type":"noteOff","velocity":0},{"channel":2,"nextOffset":29588,"note":31,"tick":88565,"time":115.31901041666666,"type":"noteOff","velocity":0},{"channel":2,"nextOffset":29592,"note":32,"tick":88565,"time":115.31901041666666,"type":"noteOn","velocity":57},{"channel":9,"nextOffset":21801,"note":35,"tick":88574,"time":115.33072916666666,"type":"noteOn","velocity":50},{"channel":9,"nextOffset":25624,"note":35,"tick":88582,"time":115.34114583333333,"type":"noteOff","velocity":0},{"channel":9,"nextOffset":34372,"note":42,"tick":88608,"time":115.37499999999999,"type":"noteOff","velocity":0},{"channel":9,"nextOffset":46605,"note":42,"tick":88640,"time":115.41666666666666,"type":"noteOn","velocity":50},{"channel":0,"nextOffset":5465,"note":33,"tick":88649,"time":115.42838541666666,"type":"noteOff","velocity":0},{"channel":0,"nextOffset":5469,"note":26,"tick":88649,"time":115.42838541666666,"type":"noteOn","velocity":68},{"channel":0,"nextOffset":5473,"note":60,"tick":88649,"time":115.42838541666666,"type":"noteOn","velocity":68},{"channel":0,"nextOffset":5477,"note":64,"tick":88649,"time":115.42838541666666,"type":"noteOn","velocity":68},{"channel":0,"nextOffset":5481,"note":65,"tick":88649,"time":115.42838541666666,"type":"noteOn","velocity":68},{"channel":0,"nextOffset":5485,"note":69,"tick":88649,"time":115.42838541666666,"type":"noteOn","velocity":68},{"channel":1,"nextOffset":18032,"note":31,"tick":88669,"time":115.45442708333333,"type":"noteOff","velocity":0},{"channel":1,"nextOffset":18036,"note":32,"tick":88669,"time":115.45442708333333,"type":"noteOn","velocity":50},{"channel":9,"nextOffset":21805,"note":35,"tick":88670,"time":115.45572916666666,"type":"noteOff","velocity":0},{"channel":8,"nextOffset":40885,"note":60,"tick":88672,"time":115.45833333333333,"type":"noteOff","velocity":0},{"channel":8,"nextOffset":40889,"note":62,"tick":88672,"time":115.45833333333333,"type":"noteOn","velocity":50},{"channel":9,"nextOffset":25628,"note":35,"tick":88678,"time":115.46614583333333,"type":"noteOn","velocity":50},{"channel":9,"nextOffset":46609,"note":42,"tick":88736,"time":115.54166666666666,"type":"noteOff","velocity":0},{"channel":12,"nextOffset":42621,"note":67,"tick":88745,"time":115.55338541666666,"type":"noteOn","velocity":50},{"channel":2,"nextOffset":29597,"note":32,"tick":88757,"time":115.56901041666666,"type":"noteOff","velocity":0},{"channel":2,"nextOffset":29601,"note":33,"tick":88757,"time":115.56901041666666,"type":"noteOn","velocity":57},{"channel":9,"nextOffset":25632,"note":35,"tick":88774,"time":115.59114583333333,"type":"noteOff","velocity":0},{"channel":9,"nextOffset":34377,"note":42,"tick":88800,"time":115.62499999999999,"type":"noteOn","velocity":50},{"channel":0,"nextOffset":5490,"note":69,"tick":88841,"time":115.67838541666666,"type":"noteOff","velocity":0},{"channel":0,"nextOffset":5494,"note":65,"tick":88841,"time":115.67838541666666,"type":"noteOff","velocity":0},{"channel":0,"nextOffset":5498,"note":64,"tick":88841,"time":115.67838541666666,"type":"noteOff","velocity":0},{"channel":0,"nextOffset":5502,"note":60,"tick":88841,"time":115.67838541666666,"type":"noteOff","velocity":0},{"channel":0,"nextOffset":5506,"note":26,"tick":88841,"time":115.67838541666666,"type":"noteOff","velocity":0},{"channel":1,"nextOffset":18041,"note":32,"tick":88861,"time":115.70442708333333,"type":"noteOff","velocity":0},{"channel":1,"nextOffset":18045,"note":33,"tick":88861,"time":115.70442708333333,"type":"noteOn","velocity":50},{"channel":8,"nextOffset":40894,"note":62,"tick":88864,"time":115.70833333333333,"type":"noteOff","velocity":0},{"channel":9,"nextOffset":34381,"note":42,"tick":88896,"time":115.74999999999999,"type":"noteOff","velocity":0},{"channel":12,"nextOffset":42626,"note":67,"tick":88937,"time":115.80338541666666,"type":"noteOff","velocity":0},{"channel":2,"nextOffset":29606,"note":33,"tick":88949,"time":115.81901041666666,"type":"noteOff","velocity":0},{"channel":9,"nextOffset":21810,"note":35,"tick":88958,"time":115.83072916666666,"type":"noteOn","velocity":50},{"channel":9,"nextOffset":46614,"note":42,"tick":89024,"time":115.91666666666666,"type":"noteOn","velocity":50},{"channel":0,"nextOffset":5511,"note":26,"tick":89033,"time":115.92838541666666,"type":"noteOn","velocity":68},{"channel":2,"nextOffset":29610,"note":33,"tick":89045,"time":115.94401041666666,"type":"noteOn","velocity":57},{"channel":1,"nextOffset":18050,"note":33,"tick":89053,"time":115.95442708333333,"type":"noteOff","velocity":0},{"channel":9,"nextOffset":21814,"note":35,"tick":89054,"time":115.95572916666666,"type":"noteOff","velocity":0},{"channel":9,"nextOffset":25637,"note":35,"tick":89062,"time":115.96614583333333,"type":"noteOn","velocity":50},{"channel":9,"nextOffset":34386,"note":42,"tick":89088,"time":115.99999999999999,"type":"noteOn","velocity":50},{"channel":9,"nextOffset":46618,"note":42,"tick":89120,"time":116.04166666666666,"type":"noteOff","velocity":0},{"channel":9,"nextOffset":46622,"note":42,"tick":89120,"time":116.04166666666666,"type":"noteOn","velocity":50},{"channel":12,"nextOffset":42631,"note":65,"tick":89129,"time":116.05338541666666,"type":"noteOn","velocity":50},{"channel":2,"nextOffset":29614,"note":33,"tick":89141,"time":116.06901041666666,"type":"noteOff","velocity":0},{"channel":1,"nextOffset":18054,"note":33,"tick":89149,"time":116.07942708333333,"type":"noteOn","velocity":50},{"channel":9,"nextOffset":25641,"note":35,"tick":89158,"time":116.09114583333333,"type":"noteOff","velocity":0},{"channel":9,"nextOffset":34390,"note":42,"tick":89184,"time":116.12499999999999,"type":"noteOff","velocity":0},{"channel":9,"nextOffset":34394,"note":42,"tick":89184,"time":116.12499999999999,"type":"noteOn","velocity":50},{"channel":9,"nextOffset":34398,"note":42,"tick":89208,"time":116.15624999999999,"type":"noteOff","velocity":0},{"channel":9,"nextOffset":46626,"note":42,"tick":89216,"time":116.16666666666666,"type":"noteOff","velocity":0},{"channel":0,"nextOffset":5516,"note":26,"tick":89225,"time":116.17838541666666,"type":"noteOff","velocity":0},{"channel":9,"nextOffset":34402,"note":42,"tick":89232,"time":116.18749999999999,"type":"noteOn","velocity":50},{"channel":1,"nextOffset":18058,"note":33,"tick":89245,"time":116.20442708333333,"type":"noteOff","velocity":0},{"channel":9,"nextOffset":34406,"note":42,"tick":89256,"time":116.21874999999999,"type":"noteOff","velocity":0},{"channel":9,"nextOffset":34410,"note":42,"tick":89280,"time":116.24999999999999,"type":"noteOn","velocity":50},{"channel":9,"nextOffset":34414,"note":42,"tick":89304,"time":116.28124999999999,"type":"noteOff","velocity":0},{"channel":12,"nextOffset":42636,"note":65,"tick":89321,"time":116.30338541666666,"type":"noteOff","velocity":0},{"channel":9,"nextOffset":34418,"note":42,"tick":89328,"time":116.31249999999999,"type":"noteOn","velocity":50},{"channel":2,"nextOffset":29619,"note":26,"tick":89333,"time":116.31901041666666,"type":"noteOn","velocity":57},{"channel":9,"nextOffset":21819,"note":35,"tick":89342,"time":116.33072916666666,"type":"noteOn","velocity":50},{"channel":9,"nextOffset":34422,"note":42,"tick":89352,"time":116.34374999999999,"type":"noteOff","velocity":0},{"channel":9,"nextOffset":34426,"note":42,"tick":89376,"time":116.37499999999999,"type":"noteOn","velocity":50},{"channel":9,"nextOffset":34430,"note":42,"tick":89400,"time":116.40624999999999,"type":"noteOff","velocity":0},{"channel":9,"nextOffset":46631,"note":42,"tick":89408,"time":116.41666666666666,"type":"noteOn","velocity":50},{"channel":0,"nextOffset":5521,"note":38,"tick":89417,"time":116.42838541666666,"type":"noteOn","velocity":68},{"channel":0,"nextOffset":5525,"note":64,"tick":89417,"time":116.42838541666666,"type":"noteOn","velocity":68},{"channel":0,"nextOffset":5529,"note":60,"tick":89417,"time":116.42838541666666,"type":"noteOn","velocity":68},{"channel":0,"nextOffset":5533,"note":69,"tick":89417,"time":116.42838541666666,"type":"noteOn","velocity":68},{"channel":0,"nextOffset":5537,"note":65,"tick":89417,"time":116.42838541666666,"type":"noteOn","velocity":68},{"channel":1,"nextOffset":18063,"note":26,"tick":89437,"time":116.45442708333333,"type":"noteOn","velocity":50},{"channel":9,"nextOffset":21823,"note":35,"tick":89438,"time":116.45572916666666,"type":"noteOff","velocity":0},{"channel":9,"nextOffset":25646,"note":35,"tick":89446,"time":116.46614583333333,"type":"noteOn","velocity":50},{"channel":9,"nextOffset":46635,"note":42,"tick":89504,"time":116.54166666666666,"type":"noteOff","velocity":0},{"channel":12,"nextOffset":42641,"note":64,"tick":89513,"time":116.55338541666666,"type":"noteOn","velocity":50},{"channel":2,"nextOffset":29624,"note":26,"tick":89525,"time":116.56901041666666,"type":"noteOff","velocity":0},{"channel":9,"nextOffset":25650,"note":35,"tick":89542,"time":116.59114583333333,"type":"noteOff","velocity":0},{"channel":9,"nextOffset":34435,"note":42,"tick":89568,"time":116.62499999999999,"type":"noteOn","velocity":50},{"channel":0,"nextOffset":5542,"note":65,"tick":89609,"time":116.67838541666666,"type":"noteOff","velocity":0},{"channel":0,"nextOffset":5546,"note":69,"tick":89609,"time":116.67838541666666,"type":"noteOff","velocity":0},{"channel":0,"nextOffset":5550,"note":60,"tick":89609,"time":116.67838541666666,"type":"noteOff","velocity":0},{"channel":0,"nextOffset":5554,"note":64,"tick":89609,"time":116.67838541666666,"type":"noteOff","velocity":0},{"channel":0,"nextOffset":5558,"note":38,"tick":89609,"time":116.67838541666666,"type":"noteOff","velocity":0},{"channel":1,"nextOffset":18068,"note":26,"tick":89629,"time":116.70442708333333,"type":"noteOff","velocity":0},{"channel":9,"nextOffset":21828,"note":35,"tick":89630,"time":116.70572916666666,"type":"noteOn","velocity":50},{"channel":9,"nextOffset":34439,"note":42,"tick":89664,"time":116.74999999999999,"type":"noteOff","velocity":0},{"channel":9,"nextOffset":34443,"note":42,"tick":89664,"time":116.74999999999999,"type":"noteOn","velocity":50},{"channel":9,"nextOffset":46640,"note":42,"tick":89696,"time":116.79166666666666,"type":"noteOn","velocity":50},{"channel":0,"nextOffset":5562,"note":33,"tick":89705,"time":116.80338541666666,"type":"noteOn","velocity":68},{"channel":12,"nextOffset":42646,"note":64,"tick":89705,"time":116.80338541666666,"type":"noteOff","velocity":0},{"channel":2,"nextOffset":29629,"note":38,"tick":89717,"time":116.81901041666666,"type":"noteOn","velocity":57},{"channel":9,"nextOffset":21832,"note":35,"tick":89726,"time":116.83072916666666,"type":"noteOff","velocity":0},{"channel":9,"nextOffset":25655,"note":35,"tick":89734,"time":116.84114583333333,"type":"noteOn","velocity":50},{"channel":9,"nextOffset":34447,"note":42,"tick":89760,"time":116.87499999999999,"type":"noteOff","velocity":0},{"channel":9,"nextOffset":46644,"note":42,"tick":89792,"time":116.91666666666666,"type":"noteOff","velocity":0},{"channel":9,"nextOffset":46648,"note":42,"tick":89792,"time":116.91666666666666,"type":"noteOn","velocity":50},{"channel":0,"nextOffset":5566,"note":59,"tick":89801,"time":116.92838541666666,"type":"noteOn","velocity":68},{"channel":0,"nextOffset":5570,"note":63,"tick":89801,"time":116.92838541666666,"type":"noteOn","velocity":68},{"channel":0,"nextOffset":5574,"note":68,"tick":89801,"time":116.92838541666666,"type":"noteOn","velocity":68},{"channel":9,"nextOffset":46652,"note":42,"tick":89816,"time":116.94791666666666,"type":"noteOff","velocity":0},{"channel":1,"nextOffset":18073,"note":38,"tick":89821,"time":116.95442708333333,"type":"noteOn","velocity":50},{"channel":9,"nextOffset":25659,"note":35,"tick":89830,"time":116.96614583333333,"type":"noteOff","velocity":0},{"channel":9,"nextOffset":46656,"note":42,"tick":89840,"time":116.97916666666666,"type":"noteOn","velocity":50},{"channel":9,"nextOffset":46660,"note":42,"tick":89864,"time":117.01041666666666,"type":"noteOff","velocity":0},{"channel":9,"nextOffset":46664,"note":42,"tick":89888,"time":117.04166666666666,"type":"noteOn","velocity":50},{"channel":0,"nextOffset":5578,"note":33,"tick":89897,"time":117.05338541666666,"type":"noteOff","velocity":0},{"channel":12,"nextOffset":42651,"note":62,"tick":89897,"time":117.05338541666666,"type":"noteOn","velocity":50},{"channel":2,"nextOffset":29634,"note":38,"tick":89909,"time":117.06901041666666,"type":"noteOff","velocity":0},{"channel":2,"nextOffset":29638,"note":26,"tick":89909,"time":117.06901041666666,"type":"noteOn","velocity":57},{"channel":9,"nextOffset":46668,"note":42,"tick":89912,"time":117.07291666666666,"type":"noteOff","velocity":0},{"channel":9,"nextOffset":21837,"note":35,"tick":89918,"time":117.08072916666666,"type":"noteOn","velocity":50},{"channel":9,"nextOffset":46672,"note":42,"tick":89936,"time":117.10416666666666,"type":"noteOn","velocity":50},{"channel":9,"nextOffset":34452,"note":42,"tick":89952,"time":117.12499999999999,"type":"noteOn","velocity":50},{"channel":9,"nextOffset":46676,"note":42,"tick":89960,"time":117.13541666666666,"type":"noteOff","velocity":0},{"channel":0,"nextOffset":5582,"note":68,"tick":89993,"time":117.17838541666666,"type":"noteOff","velocity":0},{"channel":0,"nextOffset":5586,"note":63,"tick":89993,"time":117.17838541666666,"type":"noteOff","velocity":0},{"channel":0,"nextOffset":5590,"note":59,"tick":89993,"time":117.17838541666666,"type":"noteOff","velocity":0},{"channel":0,"nextOffset":5594,"note":32,"tick":89993,"time":117.17838541666666,"type":"noteOn","velocity":68},{"channel":1,"nextOffset":18078,"note":38,"tick":90013,"time":117.20442708333333,"type":"noteOff","velocity":0},{"channel":1,"nextOffset":18082,"note":26,"tick":90013,"time":117.20442708333333,"type":"noteOn","velocity":50},{"channel":9,"nextOffset":21841,"note":35,"tick":90014,"time":117.20572916666666,"type":"noteOff","velocity":0},{"channel":9,"nextOffset":25664,"note":35,"tick":90022,"time":117.21614583333333,"type":"noteOn","velocity":50},{"channel":9,"nextOffset":34456,"note":42,"tick":90048,"time":117.24999999999999,"type":"noteOff","velocity":0},{"channel":9,"nextOffset":34460,"note":42,"tick":90048,"time":117.24999999999999,"type":"noteOn","velocity":50},{"channel":12,"nextOffset":42656,"note":62,"tick":90089,"time":117.30338541666666,"type":"noteOff","velocity":0},{"channel":2,"nextOffset":29643,"note":26,"tick":90101,"time":117.31901041666666,"type":"noteOff","velocity":0},{"channel":2,"nextOffset":29647,"note":33,"tick":90101,"time":117.31901041666666,"type":"noteOn","velocity":57},{"channel":9,"nextOffset":21845,"note":35,"tick":90110,"time":117.33072916666666,"type":"noteOn","velocity":50},{"channel":9,"nextOffset":25668,"note":35,"tick":90118,"time":117.34114583333333,"type":"noteOff","velocity":0},{"channel":9,"nextOffset":34464,"note":42,"tick":90144,"time":117.37499999999999,"type":"noteOff","velocity":0},{"channel":9,"nextOffset":46681,"note":42,"tick":90176,"time":117.41666666666666,"type":"noteOn","velocity":50},{"channel":0,"nextOffset":5599,"note":32,"tick":90185,"time":117.42838541666666,"type":"noteOff","velocity":0},{"channel":0,"nextOffset":5603,"note":31,"tick":90185,"time":117.42838541666666,"type":"noteOn","velocity":68},{"channel":0,"nextOffset":5607,"note":58,"tick":90185,"time":117.42838541666666,"type":"noteOn","velocity":68},{"channel":0,"nextOffset":5611,"note":62,"tick":90185,"time":117.42838541666666,"type":"noteOn","velocity":68},{"channel":0,"nextOffset":5615,"note":65,"tick":90185,"time":117.42838541666666,"type":"noteOn","velocity":68},{"channel":0,"nextOffset":5619,"note":69,"tick":90185,"time":117.42838541666666,"type":"noteOn","velocity":68},{"channel":1,"nextOffset":18087,"note":26,"tick":90205,"time":117.45442708333333,"type":"noteOff","velocity":0},{"channel":1,"nextOffset":18091,"note":33,"tick":90205,"time":117.45442708333333,"type":"noteOn","velocity":50},{"channel":9,"nextOffset":21849,"note":35,"tick":90206,"time":117.45572916666666,"type":"noteOff","velocity":0},{"channel":9,"nextOffset":25672,"note":35,"tick":90214,"time":117.46614583333333,"type":"noteOn","velocity":50},{"channel":9,"nextOffset":46685,"note":42,"tick":90272,"time":117.54166666666666,"type":"noteOff","velocity":0},{"channel":9,"nextOffset":46689,"note":42,"tick":90272,"time":117.54166666666666,"type":"noteOn","velocity":50},{"channel":12,"nextOffset":42661,"note":65,"tick":90281,"time":117.55338541666666,"type":"noteOn","velocity":50},{"channel":2,"nextOffset":29652,"note":33,"tick":90293,"time":117.56901041666666,"type":"noteOff","velocity":0},{"channel":9,"nextOffset":25676,"note":35,"tick":90310,"time":117.59114583333333,"type":"noteOff","velocity":0},{"channel":9,"nextOffset":34469,"note":42,"tick":90336,"time":117.62499999999999,"type":"noteOn","velocity":50},{"channel":9,"nextOffset":46693,"note":42,"tick":90368,"time":117.66666666666666,"type":"noteOff","velocity":0},{"channel":0,"nextOffset":5624,"note":31,"tick":90377,"time":117.67838541666666,"type":"noteOff","velocity":0},{"channel":1,"nextOffset":18096,"note":33,"tick":90397,"time":117.70442708333333,"type":"noteOff","velocity":0},{"channel":8,"nextOffset":40899,"note":68,"tick":90400,"time":117.70833333333333,"type":"noteOn","velocity":50},{"channel":9,"nextOffset":34473,"note":42,"tick":90432,"time":117.74999999999999,"type":"noteOff","velocity":0},{"channel":8,"nextOffset":40903,"note":69,"tick":90448,"time":117.77083333333333,"type":"noteOn","velocity":50},{"channel":8,"nextOffset":40907,"note":68,"tick":90464,"time":117.79166666666666,"type":"noteOff","velocity":0},{"channel":12,"nextOffset":42666,"note":65,"tick":90473,"time":117.80338541666666,"type":"noteOff","velocity":0},{"channel":2,"nextOffset":29657,"note":26,"tick":90485,"time":117.81901041666666,"type":"noteOn","velocity":57},{"channel":9,"nextOffset":21854,"note":35,"tick":90494,"time":117.83072916666666,"type":"noteOn","velocity":50},{"channel":9,"nextOffset":46698,"note":42,"tick":90560,"time":117.91666666666666,"type":"noteOn","velocity":50},{"channel":0,"nextOffset":5629,"note":69,"tick":90569,"time":117.92838541666666,"type":"noteOff","velocity":0},{"channel":0,"nextOffset":5633,"note":65,"tick":90569,"time":117.92838541666666,"type":"noteOff","velocity":0},{"channel":0,"nextOffset":5637,"note":62,"tick":90569,"time":117.92838541666666,"type":"noteOff","velocity":0},{"channel":0,"nextOffset":5641,"note":58,"tick":90569,"time":117.92838541666666,"type":"noteOff","velocity":0},{"channel":0,"nextOffset":5645,"note":31,"tick":90569,"time":117.92838541666666,"type":"noteOn","velocity":68},{"channel":1,"nextOffset":18101,"note":26,"tick":90589,"time":117.95442708333333,"type":"noteOn","velocity":50},{"channel":9,"nextOffset":21858,"note":35,"tick":90590,"time":117.95572916666666,"type":"noteOff","velocity":0},{"channel":8,"nextOffset":40912,"note":69,"tick":90592,"time":117.95833333333333,"type":"noteOff","velocity":0},{"channel":9,"nextOffset":25681,"note":35,"tick":90598,"time":117.96614583333333,"type":"noteOn","velocity":50},{"channel":9,"nextOffset":34478,"note":42,"tick":90624,"time":117.99999999999999,"type":"noteOn","velocity":50},{"channel":9,"nextOffset":46702,"note":42,"tick":90656,"time":118.04166666666666,"type":"noteOff","velocity":0},{"channel":9,"nextOffset":46706,"note":42,"tick":90656,"time":118.04166666666666,"type":"noteOn","velocity":50},{"channel":12,"nextOffset":42671,"note":64,"tick":90665,"time":118.05338541666666,"type":"noteOn","velocity":50},{"channel":2,"nextOffset":29662,"note":26,"tick":90677,"time":118.06901041666666,"type":"noteOff","velocity":0},{"channel":2,"nextOffset":29666,"note":33,"tick":90677,"time":118.06901041666666,"type":"noteOn","velocity":57},{"channel":9,"nextOffset":25685,"note":35,"tick":90694,"time":118.09114583333333,"type":"noteOff","velocity":0},{"channel":9,"nextOffset":34482,"note":42,"tick":90720,"time":118.12499999999999,"type":"noteOff","velocity":0},{"channel":9,"nextOffset":34486,"note":42,"tick":90720,"time":118.12499999999999,"type":"noteOn","velocity":50},{"channel":9,"nextOffset":34490,"note":42,"tick":90744,"time":118.15624999999999,"type":"noteOff","velocity":0},{"channel":9,"nextOffset":46710,"note":42,"tick":90752,"time":118.16666666666666,"type":"noteOff","velocity":0},{"channel":0,"nextOffset":5650,"note":31,"tick":90761,"time":118.17838541666666,"type":"noteOff","velocity":0},{"channel":9,"nextOffset":34494,"note":42,"tick":90768,"time":118.18749999999999,"type":"noteOn","velocity":50},{"channel":1,"nextOffset":18106,"note":26,"tick":90781,"time":118.20442708333333,"type":"noteOff","velocity":0},{"channel":1,"nextOffset":18110,"note":33,"tick":90781,"time":118.20442708333333,"type":"noteOn","velocity":50},{"channel":8,"nextOffset":40917,"note":67,"tick":90784,"time":118.20833333333333,"type":"noteOn","velocity":50},{"channel":9,"nextOffset":34498,"note":42,"tick":90792,"time":118.21874999999999,"type":"noteOff","velocity":0},{"channel":9,"nextOffset":34502,"note":42,"tick":90816,"time":118.24999999999999,"type":"noteOn","velocity":50},{"channel":9,"nextOffset":34506,"note":42,"tick":90840,"time":118.28124999999999,"type":"noteOff","velocity":0},{"channel":12,"nextOffset":42676,"note":64,"tick":90857,"time":118.30338541666666,"type":"noteOff","velocity":0},{"channel":9,"nextOffset":34510,"note":42,"tick":90864,"time":118.31249999999999,"type":"noteOn","velocity":50},{"channel":2,"nextOffset":29671,"note":33,"tick":90869,"time":118.31901041666666,"type":"noteOff","velocity":0},{"channel":2,"nextOffset":29675,"note":32,"tick":90869,"time":118.31901041666666,"type":"noteOn","velocity":57},{"channel":9,"nextOffset":21863,"note":35,"tick":90878,"time":118.33072916666666,"type":"noteOn","velocity":50},{"channel":9,"nextOffset":34514,"note":42,"tick":90888,"time":118.34374999999999,"type":"noteOff","velocity":0},{"channel":9,"nextOffset":34518,"note":42,"tick":90912,"time":118.37499999999999,"type":"noteOn","velocity":50},{"channel":9,"nextOffset":34522,"note":42,"tick":90936,"time":118.40624999999999,"type":"noteOff","velocity":0},{"channel":9,"nextOffset":46715,"note":42,"tick":90944,"time":118.41666666666666,"type":"noteOn","velocity":50},{"channel":0,"nextOffset":5655,"note":33,"tick":90953,"time":118.42838541666666,"type":"noteOn","velocity":68},{"channel":0,"nextOffset":5659,"note":72,"tick":90953,"time":118.42838541666666,"type":"noteOn","velocity":68},{"channel":0,"nextOffset":5663,"note":67,"tick":90953,"time":118.42838541666666,"type":"noteOn","velocity":68},{"channel":0,"nextOffset":5667,"note":64,"tick":90953,"time":118.42838541666666,"type":"noteOn","velocity":68},{"channel":0,"nextOffset":5671,"note":60,"tick":90953,"time":118.42838541666666,"type":"noteOn","velocity":68},{"channel":1,"nextOffset":18115,"note":33,"tick":90973,"time":118.45442708333333,"type":"noteOff","velocity":0},{"channel":1,"nextOffset":18119,"note":32,"tick":90973,"time":118.45442708333333,"type":"noteOn","velocity":50},{"channel":9,"nextOffset":21867,"note":35,"tick":90974,"time":118.45572916666666,"type":"noteOff","velocity":0},{"channel":8,"nextOffset":40922,"note":67,"tick":90976,"time":118.45833333333333,"type":"noteOff","velocity":0},{"channel":9,"nextOffset":25690,"note":35,"tick":90982,"time":118.46614583333333,"type":"noteOn","velocity":50},{"channel":9,"nextOffset":46719,"note":42,"tick":91040,"time":118.54166666666666,"type":"noteOff","velocity":0},{"channel":12,"nextOffset":42681,"note":67,"tick":91049,"time":118.55338541666666,"type":"noteOn","velocity":50},{"channel":2,"nextOffset":29680,"note":32,"tick":91061,"time":118.56901041666666,"type":"noteOff","velocity":0},{"channel":2,"nextOffset":29684,"note":31,"tick":91061,"time":118.56901041666666,"type":"noteOn","velocity":57},{"channel":9,"nextOffset":25694,"note":35,"tick":91078,"time":118.59114583333333,"type":"noteOff","velocity":0},{"channel":9,"nextOffset":34527,"note":42,"tick":91104,"time":118.62499999999999,"type":"noteOn","velocity":50},{"channel":0,"nextOffset":5676,"note":60,"tick":91145,"time":118.67838541666666,"type":"noteOff","velocity":0},{"channel":0,"nextOffset":5680,"note":64,"tick":91145,"time":118.67838541666666,"type":"noteOff","velocity":0},{"channel":0,"nextOffset":5684,"note":67,"tick":91145,"time":118.67838541666666,"type":"noteOff","velocity":0},{"channel":0,"nextOffset":5688,"note":72,"tick":91145,"time":118.67838541666666,"type":"noteOff","velocity":0},{"channel":0,"nextOffset":5692,"note":33,"tick":91145,"time":118.67838541666666,"type":"noteOff","velocity":0},{"channel":1,"nextOffset":18124,"note":32,"tick":91165,"time":118.70442708333333,"type":"noteOff","velocity":0},{"channel":1,"nextOffset":18128,"note":31,"tick":91165,"time":118.70442708333333,"type":"noteOn","velocity":50},{"channel":9,"nextOffset":21872,"note":35,"tick":91166,"time":118.70572916666666,"type":"noteOn","velocity":50},{"channel":8,"nextOffset":40927,"note":65,"tick":91168,"time":118.70833333333333,"type":"noteOn","velocity":50},{"channel":9,"nextOffset":34531,"note":42,"tick":91200,"time":118.74999999999999,"type":"noteOff","velocity":0},{"channel":9,"nextOffset":46724,"note":42,"tick":91232,"time":118.79166666666666,"type":"noteOn","velocity":50},{"channel":0,"nextOffset":5696,"note":33,"tick":91241,"time":118.80338541666666,"type":"noteOn","velocity":68},{"channel":12,"nextOffset":42686,"note":67,"tick":91241,"time":118.80338541666666,"type":"noteOff","velocity":0},{"channel":12,"nextOffset":42690,"note":65,"tick":91241,"time":118.80338541666666,"type":"noteOn","velocity":50},{"channel":2,"nextOffset":29689,"note":31,"tick":91253,"time":118.81901041666666,"type":"noteOff","velocity":0},{"channel":9,"nextOffset":21876,"note":35,"tick":91262,"time":118.83072916666666,"type":"noteOff","velocity":0},{"channel":9,"nextOffset":25699,"note":35,"tick":91270,"time":118.84114583333333,"type":"noteOn","velocity":50},{"channel":9,"nextOffset":46728,"note":42,"tick":91328,"time":118.91666666666666,"type":"noteOff","velocity":0},{"channel":9,"nextOffset":46732,"note":42,"tick":91328,"time":118.91666666666666,"type":"noteOn","velocity":50},{"channel":0,"nextOffset":5700,"note":61,"tick":91337,"time":118.92838541666666,"type":"noteOn","velocity":68},{"channel":0,"nextOffset":5704,"note":65,"tick":91337,"time":118.92838541666666,"type":"noteOn","velocity":68},{"channel":0,"nextOffset":5708,"note":67,"tick":91337,"time":118.92838541666666,"type":"noteOn","velocity":68},{"channel":0,"nextOffset":5712,"note":70,"tick":91337,"time":118.92838541666666,"type":"noteOn","velocity":68},{"channel":12,"nextOffset":42694,"note":65,"tick":91337,"time":118.92838541666666,"type":"noteOff","velocity":0},{"channel":9,"nextOffset":46736,"note":42,"tick":91352,"time":118.94791666666666,"type":"noteOff","velocity":0},{"channel":1,"nextOffset":18133,"note":31,"tick":91357,"time":118.95442708333333,"type":"noteOff","velocity":0},{"channel":8,"nextOffset":40932,"note":65,"tick":91360,"time":118.95833333333333,"type":"noteOff","velocity":0},{"channel":9,"nextOffset":25703,"note":35,"tick":91366,"time":118.96614583333333,"type":"noteOff","velocity":0},{"channel":9,"nextOffset":46740,"note":42,"tick":91376,"time":118.97916666666666,"type":"noteOn","velocity":50},{"channel":9,"nextOffset":46744,"note":42,"tick":91400,"time":119.01041666666666,"type":"noteOff","velocity":0},{"channel":9,"nextOffset":46748,"note":42,"tick":91424,"time":119.04166666666666,"type":"noteOn","velocity":50},{"channel":0,"nextOffset":5716,"note":33,"tick":91433,"time":119.05338541666666,"type":"noteOff","velocity":0},{"channel":12,"nextOffset":42698,"note":67,"tick":91433,"time":119.05338541666666,"type":"noteOn","velocity":50},{"channel":2,"nextOffset":29694,"note":31,"tick":91445,"time":119.06901041666666,"type":"noteOn","velocity":57},{"channel":9,"nextOffset":46752,"note":42,"tick":91448,"time":119.07291666666666,"type":"noteOff","velocity":0},{"channel":9,"nextOffset":21881,"note":35,"tick":91454,"time":119.08072916666666,"type":"noteOn","velocity":50},{"channel":9,"nextOffset":46756,"note":42,"tick":91472,"time":119.10416666666666,"type":"noteOn","velocity":50},{"channel":9,"nextOffset":34536,"note":42,"tick":91488,"time":119.12499999999999,"type":"noteOn","velocity":50},{"channel":9,"nextOffset":46760,"note":42,"tick":91496,"time":119.13541666666666,"type":"noteOff","velocity":0},{"channel":9,"nextOffset":46764,"note":42,"tick":91520,"time":119.16666666666666,"type":"noteOn","velocity":50},{"channel":0,"nextOffset":5720,"note":70,"tick":91529,"time":119.17838541666666,"type":"noteOff","velocity":0},{"channel":0,"nextOffset":5724,"note":67,"tick":91529,"time":119.17838541666666,"type":"noteOff","velocity":0},{"channel":0,"nextOffset":5728,"note":65,"tick":91529,"time":119.17838541666666,"type":"noteOff","velocity":0},{"channel":0,"nextOffset":5732,"note":61,"tick":91529,"time":119.17838541666666,"type":"noteOff","velocity":0},{"channel":0,"nextOffset":5736,"note":33,"tick":91529,"time":119.17838541666666,"type":"noteOn","velocity":68},{"channel":9,"nextOffset":46768,"note":42,"tick":91544,"time":119.19791666666666,"type":"noteOff","velocity":0},{"channel":1,"nextOffset":18138,"note":31,"tick":91549,"time":119.20442708333333,"type":"noteOn","velocity":50},{"channel":9,"nextOffset":21885,"note":35,"tick":91550,"time":119.20572916666666,"type":"noteOff","velocity":0},{"channel":8,"nextOffset":40937,"note":64,"tick":91552,"time":119.20833333333333,"type":"noteOn","velocity":50},{"channel":9,"nextOffset":25708,"note":35,"tick":91558,"time":119.21614583333333,"type":"noteOn","velocity":50},{"channel":9,"nextOffset":34540,"note":42,"tick":91584,"time":119.24999999999999,"type":"noteOff","velocity":0},{"channel":9,"nextOffset":34544,"note":42,"tick":91584,"time":119.24999999999999,"type":"noteOn","velocity":50},{"channel":12,"nextOffset":42703,"note":67,"tick":91625,"time":119.30338541666666,"type":"noteOff","velocity":0},{"channel":12,"nextOffset":42707,"note":67,"tick":91625,"time":119.30338541666666,"type":"noteOn","velocity":50},{"channel":2,"nextOffset":29699,"note":31,"tick":91637,"time":119.31901041666666,"type":"noteOff","velocity":0},{"channel":2,"nextOffset":29703,"note":32,"tick":91637,"time":119.31901041666666,"type":"noteOn","velocity":57},{"channel":9,"nextOffset":21889,"note":35,"tick":91646,"time":119.33072916666666,"type":"noteOn","velocity":50},{"channel":9,"nextOffset":25712,"note":35,"tick":91654,"time":119.34114583333333,"type":"noteOff","velocity":0},{"channel":12,"nextOffset":42711,"note":67,"tick":91673,"time":119.36588541666666,"type":"noteOff","velocity":0},{"channel":12,"nextOffset":42715,"note":69,"tick":91673,"time":119.36588541666666,"type":"noteOn","velocity":50},{"channel":9,"nextOffset":34548,"note":42,"tick":91680,"time":119.37499999999999,"type":"noteOff","velocity":0},{"channel":9,"nextOffset":46773,"note":42,"tick":91712,"time":119.41666666666666,"type":"noteOn","velocity":50},{"channel":0,"nextOffset":5741,"note":33,"tick":91721,"time":119.42838541666666,"type":"noteOff","velocity":0},{"channel":0,"nextOffset":5745,"note":26,"tick":91721,"time":119.42838541666666,"type":"noteOn","velocity":68},{"channel":0,"nextOffset":5749,"note":60,"tick":91721,"time":119.42838541666666,"type":"noteOn","velocity":68},{"channel":0,"nextOffset":5753,"note":64,"tick":91721,"time":119.42838541666666,"type":"noteOn","velocity":68},{"channel":0,"nextOffset":5757,"note":65,"tick":91721,"time":119.42838541666666,"type":"noteOn","velocity":68},{"channel":0,"nextOffset":5761,"note":69,"tick":91721,"time":119.42838541666666,"type":"noteOn","velocity":68},{"channel":1,"nextOffset":18143,"note":31,"tick":91741,"time":119.45442708333333,"type":"noteOff","velocity":0},{"channel":1,"nextOffset":18147,"note":32,"tick":91741,"time":119.45442708333333,"type":"noteOn","velocity":50},{"channel":9,"nextOffset":21893,"note":35,"tick":91742,"time":119.45572916666666,"type":"noteOff","velocity":0},{"channel":8,"nextOffset":40942,"note":64,"tick":91744,"time":119.45833333333333,"type":"noteOff","velocity":0},{"channel":9,"nextOffset":25716,"note":35,"tick":91750,"time":119.46614583333333,"type":"noteOn","velocity":50},{"channel":9,"nextOffset":46777,"note":42,"tick":91808,"time":119.54166666666666,"type":"noteOff","velocity":0},{"channel":9,"nextOffset":46781,"note":42,"tick":91808,"time":119.54166666666666,"type":"noteOn","velocity":50},{"channel":12,"nextOffset":42720,"note":69,"tick":91817,"time":119.55338541666666,"type":"noteOff","velocity":0},{"channel":2,"nextOffset":29708,"note":32,"tick":91829,"time":119.56901041666666,"type":"noteOff","velocity":0},{"channel":2,"nextOffset":29712,"note":33,"tick":91829,"time":119.56901041666666,"type":"noteOn","velocity":57},{"channel":2,"nextOffset":29716,"note":33,"tick":91829,"time":119.56901041666666,"type":"noteOn","velocity":57},{"channel":9,"nextOffset":25720,"note":35,"tick":91846,"time":119.59114583333333,"type":"noteOff","velocity":0},{"channel":9,"nextOffset":34553,"note":42,"tick":91872,"time":119.62499999999999,"type":"noteOn","velocity":50},{"channel":9,"nextOffset":46785,"note":42,"tick":91904,"time":119.66666666666666,"type":"noteOff","velocity":0},{"channel":0,"nextOffset":5766,"note":69,"tick":91913,"time":119.67838541666666,"type":"noteOff","velocity":0},{"channel":0,"nextOffset":5770,"note":65,"tick":91913,"time":119.67838541666666,"type":"noteOff","velocity":0},{"channel":0,"nextOffset":5774,"note":64,"tick":91913,"time":119.67838541666666,"type":"noteOff","velocity":0},{"channel":0,"nextOffset":5778,"note":60,"tick":91913,"time":119.67838541666666,"type":"noteOff","velocity":0},{"channel":0,"nextOffset":5782,"note":26,"tick":91913,"time":119.67838541666666,"type":"noteOff","velocity":0},{"channel":1,"nextOffset":18152,"note":32,"tick":91933,"time":119.70442708333333,"type":"noteOff","velocity":0},{"channel":1,"nextOffset":18156,"note":33,"tick":91933,"time":119.70442708333333,"type":"noteOn","velocity":50},{"channel":1,"nextOffset":18160,"note":33,"tick":91933,"time":119.70442708333333,"type":"noteOn","velocity":50},{"channel":8,"nextOffset":40947,"note":67,"tick":91936,"time":119.70833333333333,"type":"noteOn","velocity":50},{"channel":9,"nextOffset":34557,"note":42,"tick":91968,"time":119.74999999999999,"type":"noteOff","velocity":0},{"channel":12,"nextOffset":42725,"note":69,"tick":92009,"time":119.80338541666666,"type":"noteOn","velocity":50},{"channel":2,"nextOffset":29721,"note":33,"tick":92021,"time":119.81901041666666,"type":"noteOff","velocity":0},{"channel":2,"nextOffset":29725,"note":33,"tick":92021,"time":119.81901041666666,"type":"noteOff","velocity":0},{"channel":9,"nextOffset":21898,"note":35,"tick":92030,"time":119.83072916666666,"type":"noteOn","velocity":50},{"channel":12,"nextOffset":42729,"note":69,"tick":92033,"time":119.83463541666666,"type":"noteOff","velocity":0},{"channel":12,"nextOffset":42733,"note":70,"tick":92033,"time":119.83463541666666,"type":"noteOn","velocity":50},{"channel":9,"nextOffset":46790,"note":42,"tick":92096,"time":119.91666666666666,"type":"noteOn","velocity":50},{"channel":9,"nextOffset":46794,"note":42,"tick":92096,"time":119.91666666666666,"type":"noteOn","velocity":50},{"channel":0,"nextOffset":5787,"note":26,"tick":92105,"time":119.92838541666666,"type":"noteOn","velocity":68},{"channel":12,"nextOffset":42737,"note":70,"tick":92105,"time":119.92838541666666,"type":"noteOff","velocity":0},{"channel":2,"nextOffset":29729,"note":33,"tick":92117,"time":119.94401041666666,"type":"noteOn","velocity":57},{"channel":1,"nextOffset":18165,"note":33,"tick":92125,"time":119.95442708333333,"type":"noteOff","velocity":0},{"channel":1,"nextOffset":18169,"note":33,"tick":92125,"time":119.95442708333333,"type":"noteOff","velocity":0},{"channel":9,"nextOffset":21902,"note":35,"tick":92126,"time":119.95572916666666,"type":"noteOff","velocity":0},{"channel":8,"nextOffset":40952,"note":67,"tick":92128,"time":119.95833333333333,"type":"noteOff","velocity":0},{"channel":9,"nextOffset":25725,"note":35,"tick":92134,"time":119.96614583333333,"type":"noteOn","velocity":50},{"channel":9,"nextOffset":34562,"note":42,"tick":92160,"time":119.99999999999999,"type":"noteOn","velocity":50},{"channel":9,"nextOffset":46798,"note":42,"tick":92192,"time":120.04166666666666,"type":"noteOff","velocity":0},{"channel":9,"nextOffset":46802,"note":42,"tick":92192,"time":120.04166666666666,"type":"noteOff","velocity":0},{"channel":9,"nextOffset":46806,"note":42,"tick":92192,"time":120.04166666666666,"type":"noteOn","velocity":50},{"channel":12,"nextOffset":42741,"note":69,"tick":92201,"time":120.05338541666666,"type":"noteOn","velocity":50},{"channel":2,"nextOffset":29733,"note":33,"tick":92213,"time":120.06901041666666,"type":"noteOff","velocity":0},{"channel":1,"nextOffset":18173,"note":33,"tick":92221,"time":120.07942708333333,"type":"noteOn","velocity":50},{"channel":9,"nextOffset":25729,"note":35,"tick":92230,"time":120.09114583333333,"type":"noteOff","velocity":0},{"channel":9,"nextOffset":34566,"note":42,"tick":92256,"time":120.12499999999999,"type":"noteOff","velocity":0},{"channel":9,"nextOffset":34570,"note":42,"tick":92256,"time":120.12499999999999,"type":"noteOn","velocity":50},{"channel":9,"nextOffset":34574,"note":42,"tick":92280,"time":120.15624999999999,"type":"noteOff","velocity":0},{"channel":9,"nextOffset":46810,"note":42,"tick":92288,"time":120.16666666666666,"type":"noteOff","velocity":0},{"channel":0,"nextOffset":5792,"note":26,"tick":92297,"time":120.17838541666666,"type":"noteOff","velocity":0},{"channel":9,"nextOffset":34578,"note":42,"tick":92304,"time":120.18749999999999,"type":"noteOn","velocity":50},{"channel":1,"nextOffset":18177,"note":33,"tick":92317,"time":120.20442708333333,"type":"noteOff","velocity":0},{"channel":8,"nextOffset":40957,"note":65,"tick":92320,"time":120.20833333333333,"type":"noteOn","velocity":50},{"channel":9,"nextOffset":25733,"note":42,"tick":92326,"time":120.21614583333333,"type":"noteOn","velocity":50},{"channel":9,"nextOffset":34582,"note":42,"tick":92328,"time":120.21874999999999,"type":"noteOff","velocity":0},{"channel":9,"nextOffset":34586,"note":42,"tick":92352,"time":120.24999999999999,"type":"noteOn","velocity":50},{"channel":9,"nextOffset":34590,"note":42,"tick":92376,"time":120.28124999999999,"type":"noteOff","velocity":0},{"channel":9,"nextOffset":34594,"note":42,"tick":92400,"time":120.31249999999999,"type":"noteOn","velocity":50},{"channel":2,"nextOffset":29738,"note":26,"tick":92405,"time":120.31901041666666,"type":"noteOn","velocity":57},{"channel":9,"nextOffset":21907,"note":35,"tick":92414,"time":120.33072916666666,"type":"noteOn","velocity":50},{"channel":9,"nextOffset":25737,"note":42,"tick":92422,"time":120.34114583333333,"type":"noteOff","velocity":0},{"channel":9,"nextOffset":34598,"note":42,"tick":92424,"time":120.34374999999999,"type":"noteOff","velocity":0},{"channel":9,"nextOffset":46815,"note":42,"tick":92480,"time":120.41666666666666,"type":"noteOn","velocity":50},{"channel":0,"nextOffset":5797,"note":38,"tick":92489,"time":120.42838541666666,"type":"noteOn","velocity":68},{"channel":0,"nextOffset":5801,"note":64,"tick":92489,"time":120.42838541666666,"type":"noteOn","velocity":68},{"channel":0,"nextOffset":5805,"note":60,"tick":92489,"time":120.42838541666666,"type":"noteOn","velocity":68},{"channel":0,"nextOffset":5809,"note":69,"tick":92489,"time":120.42838541666666,"type":"noteOn","velocity":68},{"channel":0,"nextOffset":5813,"note":65,"tick":92489,"time":120.42838541666666,"type":"noteOn","velocity":68},{"channel":1,"nextOffset":18182,"note":26,"tick":92509,"time":120.45442708333333,"type":"noteOn","velocity":50},{"channel":9,"nextOffset":21911,"note":35,"tick":92510,"time":120.45572916666666,"type":"noteOff","velocity":0},{"channel":8,"nextOffset":40962,"note":65,"tick":92512,"time":120.45833333333333,"type":"noteOff","velocity":0},{"channel":9,"nextOffset":25741,"note":35,"tick":92518,"time":120.46614583333333,"type":"noteOn","velocity":50},{"channel":9,"nextOffset":46819,"note":42,"tick":92576,"time":120.54166666666666,"type":"noteOff","velocity":0},{"channel":2,"nextOffset":29743,"note":26,"tick":92597,"time":120.56901041666666,"type":"noteOff","velocity":0},{"channel":9,"nextOffset":25745,"note":35,"tick":92614,"time":120.59114583333333,"type":"noteOff","velocity":0},{"channel":0,"nextOffset":5818,"note":65,"tick":92681,"time":120.67838541666666,"type":"noteOff","velocity":0},{"channel":0,"nextOffset":5822,"note":69,"tick":92681,"time":120.67838541666666,"type":"noteOff","velocity":0},{"channel":0,"nextOffset":5826,"note":60,"tick":92681,"time":120.67838541666666,"type":"noteOff","velocity":0},{"channel":0,"nextOffset":5830,"note":64,"tick":92681,"time":120.67838541666666,"type":"noteOff","velocity":0},{"channel":0,"nextOffset":5834,"note":38,"tick":92681,"time":120.67838541666666,"type":"noteOff","velocity":0},{"channel":1,"nextOffset":18187,"note":26,"tick":92701,"time":120.70442708333333,"type":"noteOff","velocity":0},{"channel":9,"nextOffset":21916,"note":35,"tick":92702,"time":120.70572916666666,"type":"noteOn","velocity":50},{"channel":8,"nextOffset":40967,"note":64,"tick":92704,"time":120.70833333333333,"type":"noteOn","velocity":50},{"channel":9,"nextOffset":46824,"note":42,"tick":92768,"time":120.79166666666666,"type":"noteOn","velocity":50},{"channel":0,"nextOffset":5838,"note":33,"tick":92777,"time":120.80338541666666,"type":"noteOn","velocity":68},{"channel":2,"nextOffset":29748,"note":26,"tick":92789,"time":120.81901041666666,"type":"noteOn","velocity":57},{"channel":9,"nextOffset":21920,"note":35,"tick":92798,"time":120.83072916666666,"type":"noteOff","velocity":0},{"channel":9,"nextOffset":25750,"note":35,"tick":92806,"time":120.84114583333333,"type":"noteOn","velocity":50},{"channel":9,"nextOffset":46828,"note":42,"tick":92864,"time":120.91666666666666,"type":"noteOff","velocity":0},{"channel":9,"nextOffset":46832,"note":42,"tick":92864,"time":120.91666666666666,"type":"noteOn","velocity":50},{"channel":0,"nextOffset":5842,"note":59,"tick":92873,"time":120.92838541666666,"type":"noteOn","velocity":68},{"channel":0,"nextOffset":5846,"note":63,"tick":92873,"time":120.92838541666666,"type":"noteOn","velocity":68},{"channel":0,"nextOffset":5850,"note":68,"tick":92873,"time":120.92838541666666,"type":"noteOn","velocity":68},{"channel":9,"nextOffset":46836,"note":42,"tick":92888,"time":120.94791666666666,"type":"noteOff","velocity":0},{"channel":1,"nextOffset":18192,"note":26,"tick":92893,"time":120.95442708333333,"type":"noteOn","velocity":50},{"channel":8,"nextOffset":40972,"note":64,"tick":92896,"time":120.95833333333333,"type":"noteOff","velocity":0},{"channel":9,"nextOffset":25754,"note":35,"tick":92902,"time":120.96614583333333,"type":"noteOff","velocity":0},{"channel":9,"nextOffset":46840,"note":42,"tick":92912,"time":120.97916666666666,"type":"noteOn","velocity":50},{"channel":9,"nextOffset":46844,"note":42,"tick":92936,"time":121.01041666666666,"type":"noteOff","velocity":0},{"channel":9,"nextOffset":46848,"note":42,"tick":92960,"time":121.04166666666666,"type":"noteOn","velocity":50},{"channel":0,"nextOffset":5854,"note":33,"tick":92969,"time":121.05338541666666,"type":"noteOff","velocity":0},{"channel":2,"nextOffset":29753,"note":26,"tick":92981,"time":121.06901041666666,"type":"noteOff","velocity":0},{"channel":2,"nextOffset":29757,"note":33,"tick":92981,"time":121.06901041666666,"type":"noteOn","velocity":57},{"channel":9,"nextOffset":46852,"note":42,"tick":92984,"time":121.07291666666666,"type":"noteOff","velocity":0},{"channel":9,"nextOffset":21925,"note":35,"tick":92990,"time":121.08072916666666,"type":"noteOn","velocity":50},{"channel":9,"nextOffset":46856,"note":42,"tick":93008,"time":121.10416666666666,"type":"noteOn","velocity":50},{"channel":9,"nextOffset":46860,"note":42,"tick":93032,"time":121.13541666666666,"type":"noteOff","velocity":0},{"channel":9,"nextOffset":46864,"note":42,"tick":93056,"time":121.16666666666666,"type":"noteOn","velocity":50},{"channel":0,"nextOffset":5858,"note":68,"tick":93065,"time":121.17838541666666,"type":"noteOff","velocity":0},{"channel":0,"nextOffset":5862,"note":63,"tick":93065,"time":121.17838541666666,"type":"noteOff","velocity":0},{"channel":0,"nextOffset":5866,"note":59,"tick":93065,"time":121.17838541666666,"type":"noteOff","velocity":0},{"channel":0,"nextOffset":5870,"note":32,"tick":93065,"time":121.17838541666666,"type":"noteOn","velocity":68},{"channel":9,"nextOffset":46868,"note":42,"tick":93080,"time":121.19791666666666,"type":"noteOff","velocity":0},{"channel":1,"nextOffset":18197,"note":26,"tick":93085,"time":121.20442708333333,"type":"noteOff","velocity":0},{"channel":1,"nextOffset":18201,"note":33,"tick":93085,"time":121.20442708333333,"type":"noteOn","velocity":50},{"channel":9,"nextOffset":21929,"note":35,"tick":93086,"time":121.20572916666666,"type":"noteOff","velocity":0},{"channel":8,"nextOffset":40977,"note":62,"tick":93088,"time":121.20833333333333,"type":"noteOn","velocity":50},{"channel":9,"nextOffset":25759,"note":35,"tick":93094,"time":121.21614583333333,"type":"noteOn","velocity":50},{"channel":2,"nextOffset":29762,"note":33,"tick":93173,"time":121.31901041666666,"type":"noteOff","velocity":0},{"channel":2,"nextOffset":29766,"note":26,"tick":93173,"time":121.31901041666666,"type":"noteOn","velocity":57},{"channel":9,"nextOffset":21933,"note":35,"tick":93182,"time":121.33072916666666,"type":"noteOn","velocity":50},{"channel":9,"nextOffset":25763,"note":35,"tick":93190,"time":121.34114583333333,"type":"noteOff","velocity":0},{"channel":9,"nextOffset":46873,"note":42,"tick":93248,"time":121.41666666666666,"type":"noteOn","velocity":50},{"channel":0,"nextOffset":5875,"note":32,"tick":93257,"time":121.42838541666666,"type":"noteOff","velocity":0},{"channel":0,"nextOffset":5879,"note":31,"tick":93257,"time":121.42838541666666,"type":"noteOn","velocity":68},{"channel":0,"nextOffset":5883,"note":58,"tick":93257,"time":121.42838541666666,"type":"noteOn","velocity":68},{"channel":0,"nextOffset":5887,"note":62,"tick":93257,"time":121.42838541666666,"type":"noteOn","velocity":68},{"channel":0,"nextOffset":5891,"note":65,"tick":93257,"time":121.42838541666666,"type":"noteOn","velocity":68},{"channel":0,"nextOffset":5895,"note":69,"tick":93257,"time":121.42838541666666,"type":"noteOn","velocity":68},{"channel":12,"nextOffset":42746,"note":69,"tick":93257,"time":121.42838541666666,"type":"noteOff","velocity":0},{"channel":1,"nextOffset":18206,"note":33,"tick":93277,"time":121.45442708333333,"type":"noteOff","velocity":0},{"channel":1,"nextOffset":18210,"note":26,"tick":93277,"time":121.45442708333333,"type":"noteOn","velocity":50},{"channel":9,"nextOffset":21937,"note":35,"tick":93278,"time":121.45572916666666,"type":"noteOff","velocity":0},{"channel":8,"nextOffset":40982,"note":62,"tick":93280,"time":121.45833333333333,"type":"noteOff","velocity":0},{"channel":9,"nextOffset":25767,"note":35,"tick":93286,"time":121.46614583333333,"type":"noteOn","velocity":50},{"channel":9,"nextOffset":46877,"note":42,"tick":93344,"time":121.54166666666666,"type":"noteOff","velocity":0},{"channel":9,"nextOffset":46881,"note":42,"tick":93344,"time":121.54166666666666,"type":"noteOn","velocity":50},{"channel":12,"nextOffset":42750,"note":68,"tick":93353,"time":121.55338541666666,"type":"noteOn","velocity":50},{"channel":2,"nextOffset":29771,"note":26,"tick":93365,"time":121.56901041666666,"type":"noteOff","velocity":0},{"channel":9,"nextOffset":25771,"note":35,"tick":93382,"time":121.59114583333333,"type":"noteOff","velocity":0},{"channel":12,"nextOffset":42754,"note":69,"tick":93401,"time":121.61588541666666,"type":"noteOn","velocity":50},{"channel":12,"nextOffset":42758,"note":68,"tick":93417,"time":121.63671874999999,"type":"noteOff","velocity":0},{"channel":9,"nextOffset":46885,"note":42,"tick":93440,"time":121.66666666666666,"type":"noteOff","velocity":0},{"channel":0,"nextOffset":5900,"note":31,"tick":93449,"time":121.67838541666666,"type":"noteOff","velocity":0},{"channel":1,"nextOffset":18215,"note":26,"tick":93469,"time":121.70442708333333,"type":"noteOff","velocity":0},{"channel":8,"nextOffset":40987,"note":65,"tick":93472,"time":121.70833333333333,"type":"noteOn","velocity":50},{"channel":12,"nextOffset":42763,"note":69,"tick":93545,"time":121.80338541666666,"type":"noteOff","velocity":0},{"channel":2,"nextOffset":29776,"note":26,"tick":93557,"time":121.81901041666666,"type":"noteOn","velocity":57},{"channel":9,"nextOffset":21942,"note":35,"tick":93566,"time":121.83072916666666,"type":"noteOn","velocity":50},{"channel":9,"nextOffset":46890,"note":42,"tick":93632,"time":121.91666666666666,"type":"noteOn","velocity":50},{"channel":0,"nextOffset":5905,"note":69,"tick":93641,"time":121.92838541666666,"type":"noteOff","velocity":0},{"channel":0,"nextOffset":5909,"note":65,"tick":93641,"time":121.92838541666666,"type":"noteOff","velocity":0},{"channel":0,"nextOffset":5913,"note":62,"tick":93641,"time":121.92838541666666,"type":"noteOff","velocity":0},{"channel":0,"nextOffset":5917,"note":58,"tick":93641,"time":121.92838541666666,"type":"noteOff","velocity":0},{"channel":0,"nextOffset":5921,"note":31,"tick":93641,"time":121.92838541666666,"type":"noteOn","velocity":68},{"channel":1,"nextOffset":18220,"note":26,"tick":93661,"time":121.95442708333333,"type":"noteOn","velocity":50},{"channel":9,"nextOffset":21946,"note":35,"tick":93662,"time":121.95572916666666,"type":"noteOff","velocity":0},{"channel":8,"nextOffset":40992,"note":65,"tick":93664,"time":121.95833333333333,"type":"noteOff","velocity":0},{"channel":9,"nextOffset":25776,"note":35,"tick":93670,"time":121.96614583333333,"type":"noteOn","velocity":50},{"channel":9,"nextOffset":46894,"note":42,"tick":93728,"time":122.04166666666666,"type":"noteOff","velocity":0},{"channel":9,"nextOffset":46898,"note":42,"tick":93728,"time":122.04166666666666,"type":"noteOn","velocity":50},{"channel":12,"nextOffset":42768,"note":67,"tick":93737,"time":122.05338541666666,"type":"noteOn","velocity":50},{"channel":2,"nextOffset":29781,"note":26,"tick":93749,"time":122.06901041666666,"type":"noteOff","velocity":0},{"channel":2,"nextOffset":29785,"note":33,"tick":93749,"time":122.06901041666666,"type":"noteOn","velocity":57},{"channel":9,"nextOffset":25780,"note":35,"tick":93766,"time":122.09114583333333,"type":"noteOff","velocity":0},{"channel":9,"nextOffset":46902,"note":42,"tick":93824,"time":122.16666666666666,"type":"noteOff","velocity":0},{"channel":0,"nextOffset":5926,"note":31,"tick":93833,"time":122.17838541666666,"type":"noteOff","velocity":0},{"channel":1,"nextOffset":18225,"note":26,"tick":93853,"time":122.20442708333333,"type":"noteOff","velocity":0},{"channel":1,"nextOffset":18229,"note":33,"tick":93853,"time":122.20442708333333,"type":"noteOn","velocity":50},{"channel":8,"nextOffset":40997,"note":64,"tick":93856,"time":122.20833333333333,"type":"noteOn","velocity":50},{"channel":12,"nextOffset":42773,"note":67,"tick":93929,"time":122.30338541666666,"type":"noteOff","velocity":0},{"channel":2,"nextOffset":29790,"note":33,"tick":93941,"time":122.31901041666666,"type":"noteOff","velocity":0},{"channel":2,"nextOffset":29794,"note":32,"tick":93941,"time":122.31901041666666,"type":"noteOn","velocity":57},{"channel":2,"nextOffset":29798,"note":32,"tick":93941,"time":122.31901041666666,"type":"noteOn","velocity":57},{"channel":9,"nextOffset":21951,"note":35,"tick":93950,"time":122.33072916666666,"type":"noteOn","velocity":50},{"channel":9,"nextOffset":46907,"note":42,"tick":94016,"time":122.41666666666666,"type":"noteOn","velocity":50},{"channel":0,"nextOffset":5931,"note":33,"tick":94025,"time":122.42838541666666,"type":"noteOn","velocity":68},{"channel":0,"nextOffset":5935,"note":72,"tick":94025,"time":122.42838541666666,"type":"noteOn","velocity":68},{"channel":0,"nextOffset":5939,"note":67,"tick":94025,"time":122.42838541666666,"type":"noteOn","velocity":68},{"channel":0,"nextOffset":5943,"note":64,"tick":94025,"time":122.42838541666666,"type":"noteOn","velocity":68},{"channel":0,"nextOffset":5947,"note":60,"tick":94025,"time":122.42838541666666,"type":"noteOn","velocity":68},{"channel":1,"nextOffset":18234,"note":33,"tick":94045,"time":122.45442708333333,"type":"noteOff","velocity":0},{"channel":1,"nextOffset":18238,"note":32,"tick":94045,"time":122.45442708333333,"type":"noteOn","velocity":50},{"channel":1,"nextOffset":18242,"note":32,"tick":94045,"time":122.45442708333333,"type":"noteOn","velocity":50},{"channel":9,"nextOffset":21955,"note":35,"tick":94046,"time":122.45572916666666,"type":"noteOff","velocity":0},{"channel":8,"nextOffset":41002,"note":64,"tick":94048,"time":122.45833333333333,"type":"noteOff","velocity":0},{"channel":9,"nextOffset":25785,"note":35,"tick":94054,"time":122.46614583333333,"type":"noteOn","velocity":50},{"channel":9,"nextOffset":46911,"note":42,"tick":94112,"time":122.54166666666666,"type":"noteOff","velocity":0},{"channel":12,"nextOffset":42778,"note":65,"tick":94121,"time":122.55338541666666,"type":"noteOn","velocity":50},{"channel":2,"nextOffset":29803,"note":32,"tick":94133,"time":122.56901041666666,"type":"noteOff","velocity":0},{"channel":2,"nextOffset":29807,"note":32,"tick":94133,"time":122.56901041666666,"type":"noteOff","velocity":0},{"channel":9,"nextOffset":25789,"note":35,"tick":94150,"time":122.59114583333333,"type":"noteOff","velocity":0},{"channel":0,"nextOffset":5952,"note":60,"tick":94217,"time":122.67838541666666,"type":"noteOff","velocity":0},{"channel":0,"nextOffset":5956,"note":64,"tick":94217,"time":122.67838541666666,"type":"noteOff","velocity":0},{"channel":0,"nextOffset":5960,"note":67,"tick":94217,"time":122.67838541666666,"type":"noteOff","velocity":0},{"channel":0,"nextOffset":5964,"note":72,"tick":94217,"time":122.67838541666666,"type":"noteOff","velocity":0},{"channel":0,"nextOffset":5968,"note":33,"tick":94217,"time":122.67838541666666,"type":"noteOff","velocity":0},{"channel":1,"nextOffset":18247,"note":32,"tick":94237,"time":122.70442708333333,"type":"noteOff","velocity":0},{"channel":1,"nextOffset":18251,"note":32,"tick":94237,"time":122.70442708333333,"type":"noteOff","velocity":0},{"channel":9,"nextOffset":21960,"note":35,"tick":94238,"time":122.70572916666666,"type":"noteOn","velocity":50},{"channel":8,"nextOffset":41007,"note":67,"tick":94240,"time":122.70833333333333,"type":"noteOn","velocity":50},{"channel":9,"nextOffset":46916,"note":42,"tick":94304,"time":122.79166666666666,"type":"noteOn","velocity":50},{"channel":0,"nextOffset":5972,"note":33,"tick":94313,"time":122.80338541666666,"type":"noteOn","velocity":68},{"channel":12,"nextOffset":42783,"note":65,"tick":94313,"time":122.80338541666666,"type":"noteOff","velocity":0},{"channel":9,"nextOffset":21964,"note":35,"tick":94334,"time":122.83072916666666,"type":"noteOff","velocity":0},{"channel":9,"nextOffset":25794,"note":35,"tick":94342,"time":122.84114583333333,"type":"noteOn","velocity":50},{"channel":9,"nextOffset":46920,"note":42,"tick":94400,"time":122.91666666666666,"type":"noteOff","velocity":0},{"channel":9,"nextOffset":46924,"note":42,"tick":94400,"time":122.91666666666666,"type":"noteOn","velocity":50},{"channel":0,"nextOffset":5976,"note":61,"tick":94409,"time":122.92838541666666,"type":"noteOn","velocity":68},{"channel":0,"nextOffset":5980,"note":65,"tick":94409,"time":122.92838541666666,"type":"noteOn","velocity":68},{"channel":0,"nextOffset":5984,"note":67,"tick":94409,"time":122.92838541666666,"type":"noteOn","velocity":68},{"channel":0,"nextOffset":5988,"note":70,"tick":94409,"time":122.92838541666666,"type":"noteOn","velocity":68},{"channel":9,"nextOffset":46928,"note":42,"tick":94424,"time":122.94791666666666,"type":"noteOff","velocity":0},{"channel":8,"nextOffset":41012,"note":67,"tick":94432,"time":122.95833333333333,"type":"noteOff","velocity":0},{"channel":8,"nextOffset":41016,"note":65,"tick":94432,"time":122.95833333333333,"type":"noteOn","velocity":50},{"channel":9,"nextOffset":25798,"note":35,"tick":94438,"time":122.96614583333333,"type":"noteOff","velocity":0},{"channel":9,"nextOffset":46932,"note":42,"tick":94448,"time":122.97916666666666,"type":"noteOn","velocity":50},{"channel":6,"nextOffset":39671,"note":74,"tick":94452,"time":122.98437499999999,"type":"noteOn","velocity":50},{"channel":9,"nextOffset":46936,"note":42,"tick":94472,"time":123.01041666666666,"type":"noteOff","velocity":0},{"channel":9,"nextOffset":46940,"note":42,"tick":94496,"time":123.04166666666666,"type":"noteOn","velocity":50},{"channel":0,"nextOffset":5992,"note":33,"tick":94505,"time":123.05338541666666,"type":"noteOff","velocity":0},{"channel":12,"nextOffset":42788,"note":64,"tick":94505,"time":123.05338541666666,"type":"noteOn","velocity":50},{"channel":9,"nextOffset":46944,"note":42,"tick":94520,"time":123.07291666666666,"type":"noteOff","velocity":0},{"channel":9,"nextOffset":21969,"note":35,"tick":94526,"time":123.08072916666666,"type":"noteOn","velocity":50},{"channel":8,"nextOffset":41020,"note":65,"tick":94528,"time":123.08333333333333,"type":"noteOff","velocity":0},{"channel":9,"nextOffset":46948,"note":42,"tick":94544,"time":123.10416666666666,"type":"noteOn","velocity":50},{"channel":6,"nextOffset":39675,"note":74,"tick":94548,"time":123.10937499999999,"type":"noteOff","velocity":0},{"channel":6,"nextOffset":39679,"note":77,"tick":94548,"time":123.10937499999999,"type":"noteOn","velocity":50},{"channel":9,"nextOffset":46952,"note":42,"tick":94568,"time":123.13541666666666,"type":"noteOff","velocity":0},{"channel":9,"nextOffset":46956,"note":42,"tick":94592,"time":123.16666666666666,"type":"noteOn","velocity":50},{"channel":0,"nextOffset":5996,"note":70,"tick":94601,"time":123.17838541666666,"type":"noteOff","velocity":0},{"channel":0,"nextOffset":6000,"note":67,"tick":94601,"time":123.17838541666666,"type":"noteOff","velocity":0},{"channel":0,"nextOffset":6004,"note":65,"tick":94601,"time":123.17838541666666,"type":"noteOff","velocity":0},{"channel":0,"nextOffset":6008,"note":61,"tick":94601,"time":123.17838541666666,"type":"noteOff","velocity":0},{"channel":0,"nextOffset":6012,"note":33,"tick":94601,"time":123.17838541666666,"type":"noteOn","velocity":68},{"channel":9,"nextOffset":46960,"note":42,"tick":94616,"time":123.19791666666666,"type":"noteOff","velocity":0},{"channel":9,"nextOffset":21973,"note":35,"tick":94622,"time":123.20572916666666,"type":"noteOff","velocity":0},{"channel":8,"nextOffset":41024,"note":67,"tick":94624,"time":123.20833333333333,"type":"noteOn","velocity":50},{"channel":9,"nextOffset":25803,"note":35,"tick":94630,"time":123.21614583333333,"type":"noteOn","velocity":50},{"channel":6,"nextOffset":39683,"note":77,"tick":94644,"time":123.23437499999999,"type":"noteOff","velocity":0},{"channel":6,"nextOffset":39687,"note":79,"tick":94644,"time":123.23437499999999,"type":"noteOn","velocity":50},{"channel":12,"nextOffset":42793,"note":64,"tick":94697,"time":123.30338541666666,"type":"noteOff","velocity":0},{"channel":9,"nextOffset":21977,"note":35,"tick":94718,"time":123.33072916666666,"type":"noteOn","velocity":50},{"channel":9,"nextOffset":25807,"note":35,"tick":94726,"time":123.34114583333333,"type":"noteOff","velocity":0},{"channel":6,"nextOffset":39691,"note":79,"tick":94740,"time":123.35937499999999,"type":"noteOff","velocity":0},{"channel":9,"nextOffset":46965,"note":42,"tick":94784,"time":123.41666666666666,"type":"noteOn","velocity":50},{"channel":0,"nextOffset":6017,"note":33,"tick":94793,"time":123.42838541666666,"type":"noteOff","velocity":0},{"channel":0,"nextOffset":6021,"note":26,"tick":94793,"time":123.42838541666666,"type":"noteOn","velocity":68},{"channel":0,"nextOffset":6025,"note":60,"tick":94793,"time":123.42838541666666,"type":"noteOn","velocity":68},{"channel":0,"nextOffset":6029,"note":64,"tick":94793,"time":123.42838541666666,"type":"noteOn","velocity":68},{"channel":0,"nextOffset":6033,"note":65,"tick":94793,"time":123.42838541666666,"type":"noteOn","velocity":68},{"channel":0,"nextOffset":6037,"note":69,"tick":94793,"time":123.42838541666666,"type":"noteOn","velocity":68},{"channel":9,"nextOffset":21981,"note":35,"tick":94814,"time":123.45572916666666,"type":"noteOff","velocity":0},{"channel":8,"nextOffset":41029,"note":67,"tick":94816,"time":123.45833333333333,"type":"noteOff","velocity":0},{"channel":8,"nextOffset":41033,"note":67,"tick":94816,"time":123.45833333333333,"type":"noteOn","velocity":50},{"channel":9,"nextOffset":25811,"note":35,"tick":94822,"time":123.46614583333333,"type":"noteOn","velocity":50},{"channel":6,"nextOffset":39695,"note":81,"tick":94836,"time":123.48437499999999,"type":"noteOn","velocity":50},{"channel":8,"nextOffset":41037,"note":67,"tick":94864,"time":123.52083333333333,"type":"noteOff","velocity":0},{"channel":8,"nextOffset":41041,"note":69,"tick":94864,"time":123.52083333333333,"type":"noteOn","velocity":50},{"channel":9,"nextOffset":46969,"note":42,"tick":94880,"time":123.54166666666666,"type":"noteOff","velocity":0},{"channel":12,"nextOffset":42798,"note":67,"tick":94889,"time":123.55338541666666,"type":"noteOn","velocity":50},{"channel":9,"nextOffset":25815,"note":35,"tick":94918,"time":123.59114583333333,"type":"noteOff","velocity":0},{"channel":6,"nextOffset":39699,"note":81,"tick":94932,"time":123.60937499999999,"type":"noteOff","velocity":0},{"channel":0,"nextOffset":6042,"note":69,"tick":94985,"time":123.67838541666666,"type":"noteOff","velocity":0},{"channel":0,"nextOffset":6046,"note":65,"tick":94985,"time":123.67838541666666,"type":"noteOff","velocity":0},{"channel":0,"nextOffset":6050,"note":64,"tick":94985,"time":123.67838541666666,"type":"noteOff","velocity":0},{"channel":0,"nextOffset":6054,"note":60,"tick":94985,"time":123.67838541666666,"type":"noteOff","velocity":0},{"channel":0,"nextOffset":6058,"note":26,"tick":94985,"time":123.67838541666666,"type":"noteOff","velocity":0},{"channel":8,"nextOffset":41046,"note":69,"tick":95008,"time":123.70833333333333,"type":"noteOff","velocity":0},{"channel":6,"nextOffset":39703,"note":84,"tick":95028,"time":123.73437499999999,"type":"noteOn","velocity":50},{"channel":12,"nextOffset":42803,"note":67,"tick":95081,"time":123.80338541666666,"type":"noteOff","velocity":0},{"channel":9,"nextOffset":21986,"note":35,"tick":95102,"time":123.83072916666666,"type":"noteOn","velocity":50},{"channel":6,"nextOffset":39707,"note":84,"tick":95124,"time":123.85937499999999,"type":"noteOff","velocity":0},{"channel":9,"nextOffset":46974,"note":42,"tick":95168,"time":123.91666666666666,"type":"noteOn","velocity":50},{"channel":0,"nextOffset":6063,"note":26,"tick":95177,"time":123.92838541666666,"type":"noteOn","velocity":68},{"channel":9,"nextOffset":21990,"note":35,"tick":95198,"time":123.95572916666666,"type":"noteOff","velocity":0},{"channel":8,"nextOffset":41051,"note":69,"tick":95200,"time":123.95833333333333,"type":"noteOn","velocity":50},{"channel":9,"nextOffset":25820,"note":35,"tick":95206,"time":123.96614583333333,"type":"noteOn","velocity":50},{"channel":6,"nextOffset":39711,"note":82,"tick":95220,"time":123.98437499999999,"type":"noteOn","velocity":50},{"channel":8,"nextOffset":41055,"note":69,"tick":95224,"time":123.98958333333333,"type":"noteOff","velocity":0},{"channel":8,"nextOffset":41059,"note":70,"tick":95224,"time":123.98958333333333,"type":"noteOn","velocity":50},{"channel":9,"nextOffset":46978,"note":42,"tick":95264,"time":124.04166666666666,"type":"noteOff","velocity":0},{"channel":9,"nextOffset":46982,"note":42,"tick":95264,"time":124.04166666666666,"type":"noteOn","velocity":50},{"channel":12,"nextOffset":42808,"note":65,"tick":95273,"time":124.05338541666666,"type":"noteOn","velocity":50},{"channel":8,"nextOffset":41063,"note":70,"tick":95296,"time":124.08333333333333,"type":"noteOff","velocity":0},{"channel":9,"nextOffset":25824,"note":35,"tick":95302,"time":124.09114583333333,"type":"noteOff","velocity":0},{"channel":6,"nextOffset":39715,"note":82,"tick":95316,"time":124.10937499999999,"type":"noteOff","velocity":0},{"channel":9,"nextOffset":46986,"note":42,"tick":95360,"time":124.16666666666666,"type":"noteOff","velocity":0},{"channel":0,"nextOffset":6068,"note":26,"tick":95369,"time":124.17838541666666,"type":"noteOff","velocity":0},{"channel":8,"nextOffset":41067,"note":69,"tick":95392,"time":124.20833333333333,"type":"noteOn","velocity":50},{"channel":6,"nextOffset":39719,"note":81,"tick":95412,"time":124.23437499999999,"type":"noteOn","velocity":50},{"channel":12,"nextOffset":42813,"note":65,"tick":95465,"time":124.30338541666666,"type":"noteOff","velocity":0},{"channel":9,"nextOffset":21995,"note":35,"tick":95486,"time":124.33072916666666,"type":"noteOn","velocity":50},{"channel":6,"nextOffset":39723,"note":81,"tick":95508,"time":124.35937499999999,"type":"noteOff","velocity":0},{"channel":9,"nextOffset":46991,"note":42,"tick":95552,"time":124.41666666666666,"type":"noteOn","velocity":50},{"channel":0,"nextOffset":6073,"note":38,"tick":95561,"time":124.42838541666666,"type":"noteOn","velocity":68},{"channel":0,"nextOffset":6077,"note":64,"tick":95561,"time":124.42838541666666,"type":"noteOn","velocity":68},{"channel":0,"nextOffset":6081,"note":60,"tick":95561,"time":124.42838541666666,"type":"noteOn","velocity":68},{"channel":0,"nextOffset":6085,"note":69,"tick":95561,"time":124.42838541666666,"type":"noteOn","velocity":68},{"channel":0,"nextOffset":6089,"note":65,"tick":95561,"time":124.42838541666666,"type":"noteOn","velocity":68},{"channel":9,"nextOffset":21999,"note":35,"tick":95582,"time":124.45572916666666,"type":"noteOff","velocity":0},{"channel":9,"nextOffset":25829,"note":35,"tick":95590,"time":124.46614583333333,"type":"noteOn","velocity":50},{"channel":6,"nextOffset":39727,"note":80,"tick":95604,"time":124.48437499999999,"type":"noteOn","velocity":50},{"channel":9,"nextOffset":46995,"note":42,"tick":95648,"time":124.54166666666666,"type":"noteOff","velocity":0},{"channel":12,"nextOffset":42818,"note":64,"tick":95657,"time":124.55338541666666,"type":"noteOn","velocity":50},{"channel":9,"nextOffset":25833,"note":35,"tick":95686,"time":124.59114583333333,"type":"noteOff","velocity":0},{"channel":6,"nextOffset":39731,"note":80,"tick":95700,"time":124.60937499999999,"type":"noteOff","velocity":0},{"channel":0,"nextOffset":6094,"note":65,"tick":95753,"time":124.67838541666666,"type":"noteOff","velocity":0},{"channel":0,"nextOffset":6098,"note":69,"tick":95753,"time":124.67838541666666,"type":"noteOff","velocity":0},{"channel":0,"nextOffset":6102,"note":60,"tick":95753,"time":124.67838541666666,"type":"noteOff","velocity":0},{"channel":0,"nextOffset":6106,"note":64,"tick":95753,"time":124.67838541666666,"type":"noteOff","velocity":0},{"channel":0,"nextOffset":6110,"note":38,"tick":95753,"time":124.67838541666666,"type":"noteOff","velocity":0},{"channel":9,"nextOffset":22004,"note":35,"tick":95774,"time":124.70572916666666,"type":"noteOn","velocity":50},{"channel":9,"nextOffset":47000,"note":42,"tick":95840,"time":124.79166666666666,"type":"noteOn","velocity":50},{"channel":0,"nextOffset":6114,"note":33,"tick":95849,"time":124.80338541666666,"type":"noteOn","velocity":68},{"channel":12,"nextOffset":42823,"note":64,"tick":95849,"time":124.80338541666666,"type":"noteOff","velocity":0},{"channel":9,"nextOffset":22008,"note":35,"tick":95870,"time":124.83072916666666,"type":"noteOff","velocity":0},{"channel":9,"nextOffset":25838,"note":35,"tick":95878,"time":124.84114583333333,"type":"noteOn","velocity":50},{"channel":9,"nextOffset":47004,"note":42,"tick":95936,"time":124.91666666666666,"type":"noteOff","velocity":0},{"channel":9,"nextOffset":47008,"note":42,"tick":95936,"time":124.91666666666666,"type":"noteOn","velocity":50},{"channel":0,"nextOffset":6118,"note":59,"tick":95945,"time":124.92838541666666,"type":"noteOn","velocity":68},{"channel":0,"nextOffset":6122,"note":63,"tick":95945,"time":124.92838541666666,"type":"noteOn","velocity":68},{"channel":0,"nextOffset":6126,"note":68,"tick":95945,"time":124.92838541666666,"type":"noteOn","velocity":68},{"channel":9,"nextOffset":47012,"note":42,"tick":95960,"time":124.94791666666666,"type":"noteOff","velocity":0},{"channel":9,"nextOffset":25842,"note":35,"tick":95974,"time":124.96614583333333,"type":"noteOff","velocity":0},{"channel":9,"nextOffset":47016,"note":42,"tick":95984,"time":124.97916666666666,"type":"noteOn","velocity":50},{"channel":9,"nextOffset":47020,"note":42,"tick":96008,"time":125.01041666666666,"type":"noteOff","velocity":0},{"channel":9,"nextOffset":47024,"note":42,"tick":96032,"time":125.04166666666666,"type":"noteOn","velocity":50},{"channel":0,"nextOffset":6130,"note":33,"tick":96041,"time":125.05338541666666,"type":"noteOff","velocity":0},{"channel":12,"nextOffset":42828,"note":62,"tick":96041,"time":125.05338541666666,"type":"noteOn","velocity":50},{"channel":9,"nextOffset":47028,"note":42,"tick":96056,"time":125.07291666666666,"type":"noteOff","velocity":0},{"channel":9,"nextOffset":22013,"note":35,"tick":96062,"time":125.08072916666666,"type":"noteOn","velocity":50},{"channel":9,"nextOffset":47032,"note":42,"tick":96080,"time":125.10416666666666,"type":"noteOn","velocity":50},{"channel":9,"nextOffset":47036,"note":42,"tick":96104,"time":125.13541666666666,"type":"noteOff","velocity":0},{"channel":0,"nextOffset":6134,"note":68,"tick":96137,"time":125.17838541666666,"type":"noteOff","velocity":0},{"channel":0,"nextOffset":6138,"note":63,"tick":96137,"time":125.17838541666666,"type":"noteOff","velocity":0},{"channel":0,"nextOffset":6142,"note":59,"tick":96137,"time":125.17838541666666,"type":"noteOff","velocity":0},{"channel":0,"nextOffset":6146,"note":32,"tick":96137,"time":125.17838541666666,"type":"noteOn","velocity":68},{"channel":9,"nextOffset":22017,"note":35,"tick":96158,"time":125.20572916666666,"type":"noteOff","velocity":0},{"channel":9,"nextOffset":25847,"note":35,"tick":96166,"time":125.21614583333333,"type":"noteOn","velocity":50},{"channel":12,"nextOffset":42833,"note":62,"tick":96233,"time":125.30338541666666,"type":"noteOff","velocity":0},{"channel":9,"nextOffset":25851,"note":35,"tick":96262,"time":125.34114583333333,"type":"noteOff","velocity":0},{"channel":0,"nextOffset":6151,"note":32,"tick":96329,"time":125.42838541666666,"type":"noteOff","velocity":0},{"channel":0,"nextOffset":6155,"note":31,"tick":96329,"time":125.42838541666666,"type":"noteOn","velocity":68},{"channel":0,"nextOffset":6159,"note":58,"tick":96329,"time":125.42838541666666,"type":"noteOn","velocity":68},{"channel":0,"nextOffset":6163,"note":62,"tick":96329,"time":125.42838541666666,"type":"noteOn","velocity":68},{"channel":0,"nextOffset":6167,"note":65,"tick":96329,"time":125.42838541666666,"type":"noteOn","velocity":68},{"channel":0,"nextOffset":6171,"note":69,"tick":96329,"time":125.42838541666666,"type":"noteOn","velocity":68},{"channel":12,"nextOffset":42838,"note":65,"tick":96425,"time":125.55338541666666,"type":"noteOn","velocity":50},{"channel":8,"nextOffset":41072,"note":69,"tick":96448,"time":125.58333333333333,"type":"noteOff","velocity":0},{"channel":0,"nextOffset":6176,"note":31,"tick":96521,"time":125.67838541666666,"type":"noteOff","velocity":0},{"channel":8,"nextOffset":41076,"note":68,"tick":96544,"time":125.70833333333333,"type":"noteOn","velocity":50},{"channel":8,"nextOffset":41080,"note":69,"tick":96592,"time":125.77083333333333,"type":"noteOn","velocity":50},{"channel":8,"nextOffset":41084,"note":68,"tick":96608,"time":125.79166666666666,"type":"noteOff","velocity":0},{"channel":12,"nextOffset":42843,"note":65,"tick":96617,"time":125.80338541666666,"type":"noteOff","velocity":0},{"channel":0,"nextOffset":6181,"note":69,"tick":96713,"time":125.92838541666666,"type":"noteOff","velocity":0},{"channel":0,"nextOffset":6185,"note":65,"tick":96713,"time":125.92838541666666,"type":"noteOff","velocity":0},{"channel":0,"nextOffset":6189,"note":62,"tick":96713,"time":125.92838541666666,"type":"noteOff","velocity":0},{"channel":0,"nextOffset":6193,"note":58,"tick":96713,"time":125.92838541666666,"type":"noteOff","velocity":0},{"channel":0,"nextOffset":6197,"note":31,"tick":96713,"time":125.92838541666666,"type":"noteOn","velocity":68},{"channel":8,"nextOffset":41089,"note":69,"tick":96736,"time":125.95833333333333,"type":"noteOff","velocity":0},{"channel":12,"nextOffset":42848,"note":64,"tick":96809,"time":126.05338541666666,"type":"noteOn","velocity":50},{"channel":7,"nextOffset":39966,"note":86,"tick":96825,"time":126.07421874999999,"type":"noteOn","velocity":50},{"channel":0,"nextOffset":6202,"note":31,"tick":96905,"time":126.17838541666666,"type":"noteOff","velocity":0},{"channel":7,"nextOffset":39970,"note":86,"tick":96921,"time":126.19921874999999,"type":"noteOff","velocity":0},{"channel":7,"nextOffset":39974,"note":89,"tick":96921,"time":126.19921874999999,"type":"noteOn","velocity":50},{"channel":8,"nextOffset":41094,"note":67,"tick":96928,"time":126.20833333333333,"type":"noteOn","velocity":50},{"channel":12,"nextOffset":42853,"note":64,"tick":97001,"time":126.30338541666666,"type":"noteOff","velocity":0},{"channel":7,"nextOffset":39978,"note":89,"tick":97017,"time":126.32421874999999,"type":"noteOff","velocity":0},{"channel":7,"nextOffset":39982,"note":91,"tick":97017,"time":126.32421874999999,"type":"noteOn","velocity":50},{"channel":0,"nextOffset":6207,"note":33,"tick":97097,"time":126.42838541666666,"type":"noteOn","velocity":68},{"channel":0,"nextOffset":6211,"note":72,"tick":97097,"time":126.42838541666666,"type":"noteOn","velocity":68},{"channel":0,"nextOffset":6215,"note":67,"tick":97097,"time":126.42838541666666,"type":"noteOn","velocity":68},{"channel":0,"nextOffset":6219,"note":64,"tick":97097,"time":126.42838541666666,"type":"noteOn","velocity":68},{"channel":0,"nextOffset":6223,"note":60,"tick":97097,"time":126.42838541666666,"type":"noteOn","velocity":68},{"channel":7,"nextOffset":39986,"note":91,"tick":97113,"time":126.44921874999999,"type":"noteOff","velocity":0},{"channel":8,"nextOffset":41099,"note":67,"tick":97120,"time":126.45833333333333,"type":"noteOff","velocity":0},{"channel":12,"nextOffset":42858,"note":62,"tick":97193,"time":126.55338541666666,"type":"noteOn","velocity":50},{"channel":7,"nextOffset":39990,"note":93,"tick":97209,"time":126.57421874999999,"type":"noteOn","velocity":50},{"channel":0,"nextOffset":6228,"note":60,"tick":97289,"time":126.67838541666666,"type":"noteOff","velocity":0},{"channel":0,"nextOffset":6232,"note":64,"tick":97289,"time":126.67838541666666,"type":"noteOff","velocity":0},{"channel":0,"nextOffset":6236,"note":67,"tick":97289,"time":126.67838541666666,"type":"noteOff","velocity":0},{"channel":0,"nextOffset":6240,"note":72,"tick":97289,"time":126.67838541666666,"type":"noteOff","velocity":0},{"channel":0,"nextOffset":6244,"note":33,"tick":97289,"time":126.67838541666666,"type":"noteOff","velocity":0},{"channel":7,"nextOffset":39994,"note":93,"tick":97305,"time":126.69921874999999,"type":"noteOff","velocity":0},{"channel":8,"nextOffset":41104,"note":65,"tick":97312,"time":126.70833333333333,"type":"noteOn","velocity":50},{"channel":0,"nextOffset":6248,"note":33,"tick":97385,"time":126.80338541666666,"type":"noteOn","velocity":68},{"channel":12,"nextOffset":42863,"note":62,"tick":97385,"time":126.80338541666666,"type":"noteOff","velocity":0},{"channel":7,"nextOffset":39998,"note":95,"tick":97401,"time":126.82421874999999,"type":"noteOn","velocity":50},{"channel":0,"nextOffset":6252,"note":61,"tick":97481,"time":126.92838541666666,"type":"noteOn","velocity":68},{"channel":0,"nextOffset":6256,"note":65,"tick":97481,"time":126.92838541666666,"type":"noteOn","velocity":68},{"channel":0,"nextOffset":6260,"note":67,"tick":97481,"time":126.92838541666666,"type":"noteOn","velocity":68},{"channel":0,"nextOffset":6264,"note":70,"tick":97481,"time":126.92838541666666,"type":"noteOn","velocity":68},{"channel":7,"nextOffset":40002,"note":95,"tick":97497,"time":126.94921874999999,"type":"noteOff","velocity":0},{"channel":8,"nextOffset":41109,"note":65,"tick":97504,"time":126.95833333333333,"type":"noteOff","velocity":0},{"channel":0,"nextOffset":6268,"note":33,"tick":97577,"time":127.05338541666666,"type":"noteOff","velocity":0},{"channel":12,"nextOffset":42868,"note":60,"tick":97577,"time":127.05338541666666,"type":"noteOn","velocity":50},{"channel":7,"nextOffset":40006,"note":94,"tick":97593,"time":127.07421874999999,"type":"noteOn","velocity":50},{"channel":0,"nextOffset":6272,"note":70,"tick":97673,"time":127.17838541666666,"type":"noteOff","velocity":0},{"channel":0,"nextOffset":6276,"note":67,"tick":97673,"time":127.17838541666666,"type":"noteOff","velocity":0},{"channel":0,"nextOffset":6280,"note":65,"tick":97673,"time":127.17838541666666,"type":"noteOff","velocity":0},{"channel":0,"nextOffset":6284,"note":61,"tick":97673,"time":127.17838541666666,"type":"noteOff","velocity":0},{"channel":0,"nextOffset":6288,"note":33,"tick":97673,"time":127.17838541666666,"type":"noteOn","velocity":68},{"channel":7,"nextOffset":40010,"note":94,"tick":97689,"time":127.19921874999999,"type":"noteOff","velocity":0},{"channel":8,"nextOffset":41114,"note":64,"tick":97696,"time":127.20833333333333,"type":"noteOn","velocity":50},{"channel":12,"nextOffset":42873,"note":60,"tick":97769,"time":127.30338541666666,"type":"noteOff","velocity":0},{"channel":12,"nextOffset":42877,"note":62,"tick":97769,"time":127.30338541666666,"type":"noteOn","velocity":50},{"channel":7,"nextOffset":40014,"note":93,"tick":97785,"time":127.32421874999999,"type":"noteOn","velocity":50},{"channel":0,"nextOffset":6293,"note":33,"tick":97865,"time":127.42838541666664,"type":"noteOff","velocity":0},{"channel":0,"nextOffset":6297,"note":26,"tick":97865,"time":127.42838541666664,"type":"noteOn","velocity":68},{"channel":0,"nextOffset":6301,"note":60,"tick":97865,"time":127.42838541666664,"type":"noteOn","velocity":68},{"channel":0,"nextOffset":6305,"note":64,"tick":97865,"time":127.42838541666664,"type":"noteOn","velocity":68},{"channel":0,"nextOffset":6309,"note":65,"tick":97865,"time":127.42838541666664,"type":"noteOn","velocity":68},{"channel":0,"nextOffset":6313,"note":69,"tick":97865,"time":127.42838541666664,"type":"noteOn","velocity":68},{"channel":7,"nextOffset":40018,"note":93,"tick":97881,"time":127.44921874999999,"type":"noteOff","velocity":0},{"channel":8,"nextOffset":41119,"note":64,"tick":97888,"time":127.45833333333333,"type":"noteOff","velocity":0},{"channel":12,"nextOffset":42882,"note":62,"tick":97961,"time":127.55338541666664,"type":"noteOff","velocity":0},{"channel":7,"nextOffset":40022,"note":92,"tick":97977,"time":127.57421874999999,"type":"noteOn","velocity":50},{"channel":0,"nextOffset":6318,"note":69,"tick":98057,"time":127.67838541666664,"type":"noteOff","velocity":0},{"channel":0,"nextOffset":6322,"note":65,"tick":98057,"time":127.67838541666664,"type":"noteOff","velocity":0},{"channel":0,"nextOffset":6326,"note":64,"tick":98057,"time":127.67838541666664,"type":"noteOff","velocity":0},{"channel":0,"nextOffset":6330,"note":60,"tick":98057,"time":127.67838541666664,"type":"noteOff","velocity":0},{"channel":0,"nextOffset":6334,"note":26,"tick":98057,"time":127.67838541666664,"type":"noteOff","velocity":0},{"channel":7,"nextOffset":40026,"note":92,"tick":98073,"time":127.69921874999999,"type":"noteOff","velocity":0},{"channel":8,"nextOffset":41124,"note":67,"tick":98080,"time":127.70833333333333,"type":"noteOn","velocity":50},{"channel":9,"nextOffset":37635,"note":44,"tick":98197,"time":127.86067708333333,"type":"noteOn","velocity":64},{"channel":9,"nextOffset":37639,"note":69,"tick":98197,"time":127.86067708333333,"type":"noteOn","velocity":64},{"channel":9,"nextOffset":37643,"note":69,"tick":98221,"time":127.89192708333333,"type":"noteOff","velocity":0},{"channel":9,"nextOffset":37647,"note":44,"tick":98221,"time":127.89192708333333,"type":"noteOff","velocity":0},{"channel":0,"nextOffset":6339,"note":26,"tick":98249,"time":127.92838541666664,"type":"noteOn","velocity":68},{"channel":8,"nextOffset":41129,"note":67,"tick":98272,"time":127.95833333333333,"type":"noteOff","velocity":0},{"channel":0,"nextOffset":6344,"note":26,"tick":98441,"time":128.17838541666666,"type":"noteOff","velocity":0},{"channel":8,"nextOffset":41134,"note":65,"tick":98464,"time":128.20833333333334,"type":"noteOn","velocity":50},{"channel":0,"nextOffset":6349,"note":38,"tick":98633,"time":128.42838541666666,"type":"noteOn","velocity":68},{"channel":0,"nextOffset":6353,"note":64,"tick":98633,"time":128.42838541666666,"type":"noteOn","velocity":68},{"channel":0,"nextOffset":6357,"note":60,"tick":98633,"time":128.42838541666666,"type":"noteOn","velocity":68},{"channel":0,"nextOffset":6361,"note":69,"tick":98633,"time":128.42838541666666,"type":"noteOn","velocity":68},{"channel":0,"nextOffset":6365,"note":65,"tick":98633,"time":128.42838541666666,"type":"noteOn","velocity":68},{"channel":8,"nextOffset":41139,"note":65,"tick":98656,"time":128.45833333333334,"type":"noteOff","velocity":0},{"channel":0,"nextOffset":6370,"note":65,"tick":98825,"time":128.67838541666666,"type":"noteOff","velocity":0},{"channel":0,"nextOffset":6374,"note":69,"tick":98825,"time":128.67838541666666,"type":"noteOff","velocity":0},{"channel":0,"nextOffset":6378,"note":60,"tick":98825,"time":128.67838541666666,"type":"noteOff","velocity":0},{"channel":0,"nextOffset":6382,"note":64,"tick":98825,"time":128.67838541666666,"type":"noteOff","velocity":0},{"channel":0,"nextOffset":6386,"note":38,"tick":98825,"time":128.67838541666666,"type":"noteOff","velocity":0},{"channel":8,"nextOffset":41144,"note":64,"tick":98848,"time":128.70833333333334,"type":"noteOn","velocity":50},{"channel":0,"nextOffset":6390,"note":33,"tick":98921,"time":128.80338541666666,"type":"noteOn","velocity":68},{"channel":0,"nextOffset":6394,"note":59,"tick":99017,"time":128.92838541666666,"type":"noteOn","velocity":68},{"channel":0,"nextOffset":6398,"note":63,"tick":99017,"time":128.92838541666666,"type":"noteOn","velocity":68},{"channel":0,"nextOffset":6402,"note":68,"tick":99017,"time":128.92838541666666,"type":"noteOn","velocity":68},{"channel":8,"nextOffset":41149,"note":64,"tick":99040,"time":128.95833333333334,"type":"noteOff","velocity":0},{"channel":0,"nextOffset":6406,"note":33,"tick":99113,"time":129.05338541666666,"type":"noteOff","velocity":0},{"channel":0,"nextOffset":6410,"note":68,"tick":99209,"time":129.17838541666666,"type":"noteOff","velocity":0},{"channel":0,"nextOffset":6414,"note":63,"tick":99209,"time":129.17838541666666,"type":"noteOff","velocity":0},{"channel":0,"nextOffset":6418,"note":59,"tick":99209,"time":129.17838541666666,"type":"noteOff","velocity":0},{"channel":0,"nextOffset":6422,"note":32,"tick":99209,"time":129.17838541666666,"type":"noteOn","velocity":68},{"channel":8,"nextOffset":41154,"note":62,"tick":99232,"time":129.20833333333334,"type":"noteOn","velocity":50},{"channel":0,"nextOffset":6427,"note":32,"tick":99401,"time":129.42838541666666,"type":"noteOff","velocity":0},{"channel":0,"nextOffset":6431,"note":31,"tick":99401,"time":129.42838541666666,"type":"noteOn","velocity":68},{"channel":0,"nextOffset":6435,"note":58,"tick":99401,"time":129.42838541666666,"type":"noteOn","velocity":68},{"channel":0,"nextOffset":6439,"note":62,"tick":99401,"time":129.42838541666666,"type":"noteOn","velocity":68},{"channel":0,"nextOffset":6443,"note":65,"tick":99401,"time":129.42838541666666,"type":"noteOn","velocity":68},{"channel":0,"nextOffset":6447,"note":69,"tick":99401,"time":129.42838541666666,"type":"noteOn","velocity":68},{"channel":8,"nextOffset":41159,"note":62,"tick":99424,"time":129.45833333333334,"type":"noteOff","velocity":0},{"channel":12,"nextOffset":42887,"note":68,"tick":99497,"time":129.55338541666666,"type":"noteOn","velocity":50},{"channel":12,"nextOffset":42891,"note":69,"tick":99545,"time":129.61588541666666,"type":"noteOn","velocity":50},{"channel":12,"nextOffset":42895,"note":68,"tick":99561,"time":129.63671875,"type":"noteOff","velocity":0},{"channel":0,"nextOffset":6452,"note":31,"tick":99593,"time":129.67838541666666,"type":"noteOff","velocity":0},{"channel":8,"nextOffset":41164,"note":65,"tick":99616,"time":129.70833333333334,"type":"noteOn","velocity":50},{"channel":12,"nextOffset":42900,"note":69,"tick":99689,"time":129.80338541666666,"type":"noteOff","velocity":0},{"channel":0,"nextOffset":6457,"note":69,"tick":99785,"time":129.92838541666666,"type":"noteOff","velocity":0},{"channel":0,"nextOffset":6461,"note":65,"tick":99785,"time":129.92838541666666,"type":"noteOff","velocity":0},{"channel":0,"nextOffset":6465,"note":62,"tick":99785,"time":129.92838541666666,"type":"noteOff","velocity":0},{"channel":0,"nextOffset":6469,"note":58,"tick":99785,"time":129.92838541666666,"type":"noteOff","velocity":0},{"channel":0,"nextOffset":6473,"note":31,"tick":99785,"time":129.92838541666666,"type":"noteOn","velocity":68},{"channel":8,"nextOffset":41169,"note":65,"tick":99808,"time":129.95833333333334,"type":"noteOff","velocity":0},{"channel":12,"nextOffset":42905,"note":67,"tick":99881,"time":130.05338541666666,"type":"noteOn","velocity":50},{"channel":0,"nextOffset":6478,"note":31,"tick":99977,"time":130.17838541666666,"type":"noteOff","velocity":0},{"channel":8,"nextOffset":41174,"note":64,"tick":100000,"time":130.20833333333334,"type":"noteOn","velocity":50},{"channel":12,"nextOffset":42910,"note":67,"tick":100073,"time":130.30338541666666,"type":"noteOff","velocity":0},{"channel":0,"nextOffset":6483,"note":33,"tick":100169,"time":130.42838541666666,"type":"noteOn","velocity":68},{"channel":0,"nextOffset":6487,"note":72,"tick":100169,"time":130.42838541666666,"type":"noteOn","velocity":68},{"channel":0,"nextOffset":6491,"note":67,"tick":100169,"time":130.42838541666666,"type":"noteOn","velocity":68},{"channel":0,"nextOffset":6495,"note":64,"tick":100169,"time":130.42838541666666,"type":"noteOn","velocity":68},{"channel":0,"nextOffset":6499,"note":60,"tick":100169,"time":130.42838541666666,"type":"noteOn","velocity":68},{"channel":8,"nextOffset":41179,"note":64,"tick":100192,"time":130.45833333333334,"type":"noteOff","velocity":0},{"channel":12,"nextOffset":42915,"note":65,"tick":100265,"time":130.55338541666666,"type":"noteOn","velocity":50},{"channel":2,"nextOffset":29812,"note":31,"tick":100277,"time":130.56901041666666,"type":"noteOn","velocity":57},{"channel":0,"nextOffset":6504,"note":60,"tick":100361,"time":130.67838541666666,"type":"noteOff","velocity":0},{"channel":0,"nextOffset":6508,"note":64,"tick":100361,"time":130.67838541666666,"type":"noteOff","velocity":0},{"channel":0,"nextOffset":6512,"note":67,"tick":100361,"time":130.67838541666666,"type":"noteOff","velocity":0},{"channel":0,"nextOffset":6516,"note":72,"tick":100361,"time":130.67838541666666,"type":"noteOff","velocity":0},{"channel":0,"nextOffset":6520,"note":33,"tick":100361,"time":130.67838541666666,"type":"noteOff","velocity":0},{"channel":1,"nextOffset":18256,"note":31,"tick":100381,"time":130.70442708333334,"type":"noteOn","velocity":50},{"channel":8,"nextOffset":41184,"note":62,"tick":100384,"time":130.70833333333334,"type":"noteOn","velocity":50},{"channel":0,"nextOffset":6524,"note":33,"tick":100457,"time":130.80338541666666,"type":"noteOn","velocity":68},{"channel":12,"nextOffset":42920,"note":65,"tick":100457,"time":130.80338541666666,"type":"noteOff","velocity":0},{"channel":2,"nextOffset":29817,"note":31,"tick":100469,"time":130.81901041666666,"type":"noteOff","velocity":0},{"channel":0,"nextOffset":6528,"note":61,"tick":100553,"time":130.92838541666666,"type":"noteOn","velocity":68},{"channel":0,"nextOffset":6532,"note":65,"tick":100553,"time":130.92838541666666,"type":"noteOn","velocity":68},{"channel":0,"nextOffset":6536,"note":67,"tick":100553,"time":130.92838541666666,"type":"noteOn","velocity":68},{"channel":0,"nextOffset":6540,"note":70,"tick":100553,"time":130.92838541666666,"type":"noteOn","velocity":68},{"channel":1,"nextOffset":18261,"note":31,"tick":100573,"time":130.95442708333334,"type":"noteOff","velocity":0},{"channel":8,"nextOffset":41189,"note":62,"tick":100576,"time":130.95833333333334,"type":"noteOff","velocity":0},{"channel":0,"nextOffset":6544,"note":33,"tick":100649,"time":131.05338541666666,"type":"noteOff","velocity":0},{"channel":12,"nextOffset":42925,"note":64,"tick":100649,"time":131.05338541666666,"type":"noteOn","velocity":50},{"channel":2,"nextOffset":29822,"note":31,"tick":100661,"time":131.06901041666666,"type":"noteOn","velocity":57},{"channel":0,"nextOffset":6548,"note":70,"tick":100745,"time":131.17838541666666,"type":"noteOff","velocity":0},{"channel":0,"nextOffset":6552,"note":67,"tick":100745,"time":131.17838541666666,"type":"noteOff","velocity":0},{"channel":0,"nextOffset":6556,"note":65,"tick":100745,"time":131.17838541666666,"type":"noteOff","velocity":0},{"channel":0,"nextOffset":6560,"note":61,"tick":100745,"time":131.17838541666666,"type":"noteOff","velocity":0},{"channel":0,"nextOffset":6564,"note":33,"tick":100745,"time":131.17838541666666,"type":"noteOn","velocity":68},{"channel":1,"nextOffset":18266,"note":31,"tick":100765,"time":131.20442708333334,"type":"noteOn","velocity":50},{"channel":8,"nextOffset":41194,"note":60,"tick":100768,"time":131.20833333333334,"type":"noteOn","velocity":50},{"channel":12,"nextOffset":42930,"note":64,"tick":100841,"time":131.30338541666666,"type":"noteOff","velocity":0},{"channel":2,"nextOffset":29827,"note":31,"tick":100853,"time":131.31901041666666,"type":"noteOff","velocity":0},{"channel":2,"nextOffset":29831,"note":32,"tick":100853,"time":131.31901041666666,"type":"noteOn","velocity":57},{"channel":0,"nextOffset":6569,"note":33,"tick":100937,"time":131.42838541666666,"type":"noteOff","velocity":0},{"channel":0,"nextOffset":6573,"note":26,"tick":100937,"time":131.42838541666666,"type":"noteOn","velocity":68},{"channel":0,"nextOffset":6577,"note":60,"tick":100937,"time":131.42838541666666,"type":"noteOn","velocity":68},{"channel":0,"nextOffset":6581,"note":64,"tick":100937,"time":131.42838541666666,"type":"noteOn","velocity":68},{"channel":0,"nextOffset":6585,"note":65,"tick":100937,"time":131.42838541666666,"type":"noteOn","velocity":68},{"channel":0,"nextOffset":6589,"note":69,"tick":100937,"time":131.42838541666666,"type":"noteOn","velocity":68},{"channel":1,"nextOffset":18271,"note":31,"tick":100957,"time":131.45442708333334,"type":"noteOff","velocity":0},{"channel":1,"nextOffset":18275,"note":32,"tick":100957,"time":131.45442708333334,"type":"noteOn","velocity":50},{"channel":8,"nextOffset":41199,"note":60,"tick":100960,"time":131.45833333333334,"type":"noteOff","velocity":0},{"channel":8,"nextOffset":41203,"note":62,"tick":100960,"time":131.45833333333334,"type":"noteOn","velocity":50},{"channel":12,"nextOffset":42935,"note":67,"tick":101033,"time":131.55338541666666,"type":"noteOn","velocity":50},{"channel":2,"nextOffset":29836,"note":32,"tick":101045,"time":131.56901041666666,"type":"noteOff","velocity":0},{"channel":2,"nextOffset":29840,"note":33,"tick":101045,"time":131.56901041666666,"type":"noteOn","velocity":57},{"channel":0,"nextOffset":6594,"note":69,"tick":101129,"time":131.67838541666666,"type":"noteOff","velocity":0},{"channel":0,"nextOffset":6598,"note":65,"tick":101129,"time":131.67838541666666,"type":"noteOff","velocity":0},{"channel":0,"nextOffset":6602,"note":64,"tick":101129,"time":131.67838541666666,"type":"noteOff","velocity":0},{"channel":0,"nextOffset":6606,"note":60,"tick":101129,"time":131.67838541666666,"type":"noteOff","velocity":0},{"channel":0,"nextOffset":6610,"note":26,"tick":101129,"time":131.67838541666666,"type":"noteOff","velocity":0},{"channel":1,"nextOffset":18280,"note":32,"tick":101149,"time":131.70442708333334,"type":"noteOff","velocity":0},{"channel":1,"nextOffset":18284,"note":33,"tick":101149,"time":131.70442708333334,"type":"noteOn","velocity":50},{"channel":8,"nextOffset":41208,"note":62,"tick":101152,"time":131.70833333333334,"type":"noteOff","velocity":0},{"channel":12,"nextOffset":42940,"note":67,"tick":101225,"time":131.80338541666666,"type":"noteOff","velocity":0},{"channel":2,"nextOffset":29845,"note":33,"tick":101237,"time":131.81901041666666,"type":"noteOff","velocity":0},{"channel":0,"nextOffset":6615,"note":26,"tick":101321,"time":131.92838541666666,"type":"noteOn","velocity":68},{"channel":2,"nextOffset":29849,"note":33,"tick":101333,"time":131.94401041666666,"type":"noteOn","velocity":57},{"channel":1,"nextOffset":18289,"note":33,"tick":101341,"time":131.95442708333334,"type":"noteOff","velocity":0},{"channel":12,"nextOffset":42945,"note":65,"tick":101417,"time":132.05338541666666,"type":"noteOn","velocity":50},{"channel":2,"nextOffset":29853,"note":33,"tick":101429,"time":132.06901041666666,"type":"noteOff","velocity":0},{"channel":1,"nextOffset":18293,"note":33,"tick":101437,"time":132.07942708333334,"type":"noteOn","velocity":50},{"channel":0,"nextOffset":6620,"note":26,"tick":101513,"time":132.17838541666666,"type":"noteOff","velocity":0},{"channel":1,"nextOffset":18297,"note":33,"tick":101533,"time":132.20442708333334,"type":"noteOff","velocity":0},{"channel":12,"nextOffset":42950,"note":65,"tick":101609,"time":132.30338541666666,"type":"noteOff","velocity":0},{"channel":2,"nextOffset":29858,"note":26,"tick":101621,"time":132.31901041666666,"type":"noteOn","velocity":57},{"channel":0,"nextOffset":6625,"note":38,"tick":101705,"time":132.42838541666666,"type":"noteOn","velocity":68},{"channel":0,"nextOffset":6629,"note":64,"tick":101705,"time":132.42838541666666,"type":"noteOn","velocity":68},{"channel":0,"nextOffset":6633,"note":60,"tick":101705,"time":132.42838541666666,"type":"noteOn","velocity":68},{"channel":0,"nextOffset":6637,"note":69,"tick":101705,"time":132.42838541666666,"type":"noteOn","velocity":68},{"channel":0,"nextOffset":6641,"note":65,"tick":101705,"time":132.42838541666666,"type":"noteOn","velocity":68},{"channel":1,"nextOffset":18302,"note":26,"tick":101725,"time":132.45442708333334,"type":"noteOn","velocity":50},{"channel":12,"nextOffset":42955,"note":64,"tick":101801,"time":132.55338541666666,"type":"noteOn","velocity":50},{"channel":2,"nextOffset":29863,"note":26,"tick":101813,"time":132.56901041666666,"type":"noteOff","velocity":0},{"channel":0,"nextOffset":6646,"note":65,"tick":101897,"time":132.67838541666666,"type":"noteOff","velocity":0},{"channel":0,"nextOffset":6650,"note":69,"tick":101897,"time":132.67838541666666,"type":"noteOff","velocity":0},{"channel":0,"nextOffset":6654,"note":60,"tick":101897,"time":132.67838541666666,"type":"noteOff","velocity":0},{"channel":0,"nextOffset":6658,"note":64,"tick":101897,"time":132.67838541666666,"type":"noteOff","velocity":0},{"channel":0,"nextOffset":6662,"note":38,"tick":101897,"time":132.67838541666666,"type":"noteOff","velocity":0},{"channel":1,"nextOffset":18307,"note":26,"tick":101917,"time":132.70442708333334,"type":"noteOff","velocity":0},{"channel":0,"nextOffset":6666,"note":33,"tick":101993,"time":132.80338541666666,"type":"noteOn","velocity":68},{"channel":12,"nextOffset":42960,"note":64,"tick":101993,"time":132.80338541666666,"type":"noteOff","velocity":0},{"channel":2,"nextOffset":29868,"note":38,"tick":102005,"time":132.81901041666666,"type":"noteOn","velocity":57},{"channel":0,"nextOffset":6670,"note":59,"tick":102089,"time":132.92838541666666,"type":"noteOn","velocity":68},{"channel":0,"nextOffset":6674,"note":63,"tick":102089,"time":132.92838541666666,"type":"noteOn","velocity":68},{"channel":0,"nextOffset":6678,"note":68,"tick":102089,"time":132.92838541666666,"type":"noteOn","velocity":68},{"channel":1,"nextOffset":18312,"note":38,"tick":102109,"time":132.95442708333334,"type":"noteOn","velocity":50},{"channel":0,"nextOffset":6682,"note":33,"tick":102185,"time":133.05338541666666,"type":"noteOff","velocity":0},{"channel":12,"nextOffset":42965,"note":62,"tick":102185,"time":133.05338541666666,"type":"noteOn","velocity":50},{"channel":2,"nextOffset":29873,"note":38,"tick":102197,"time":133.06901041666666,"type":"noteOff","velocity":0},{"channel":2,"nextOffset":29877,"note":26,"tick":102197,"time":133.06901041666666,"type":"noteOn","velocity":57},{"channel":0,"nextOffset":6686,"note":68,"tick":102281,"time":133.17838541666666,"type":"noteOff","velocity":0},{"channel":0,"nextOffset":6690,"note":63,"tick":102281,"time":133.17838541666666,"type":"noteOff","velocity":0},{"channel":0,"nextOffset":6694,"note":59,"tick":102281,"time":133.17838541666666,"type":"noteOff","velocity":0},{"channel":1,"nextOffset":18317,"note":38,"tick":102301,"time":133.20442708333334,"type":"noteOff","velocity":0},{"channel":1,"nextOffset":18321,"note":26,"tick":102301,"time":133.20442708333334,"type":"noteOn","velocity":50},{"channel":12,"nextOffset":42970,"note":62,"tick":102377,"time":133.30338541666666,"type":"noteOff","velocity":0},{"channel":2,"nextOffset":29882,"note":26,"tick":102389,"time":133.31901041666666,"type":"noteOff","velocity":0},{"channel":2,"nextOffset":29886,"note":33,"tick":102389,"time":133.31901041666666,"type":"noteOn","velocity":57},{"channel":9,"nextOffset":22022,"note":35,"tick":102398,"time":133.33072916666666,"type":"noteOn","velocity":50},{"channel":9,"nextOffset":47041,"note":42,"tick":102464,"time":133.41666666666666,"type":"noteOn","velocity":50},{"channel":0,"nextOffset":6699,"note":70,"tick":102473,"time":133.42838541666666,"type":"noteOn","velocity":68},{"channel":0,"nextOffset":6703,"note":74,"tick":102473,"time":133.42838541666666,"type":"noteOn","velocity":68},{"channel":0,"nextOffset":6707,"note":77,"tick":102473,"time":133.42838541666666,"type":"noteOn","velocity":68},{"channel":0,"nextOffset":6711,"note":81,"tick":102473,"time":133.42838541666666,"type":"noteOn","velocity":68},{"channel":1,"nextOffset":18326,"note":26,"tick":102493,"time":133.45442708333334,"type":"noteOff","velocity":0},{"channel":1,"nextOffset":18330,"note":33,"tick":102493,"time":133.45442708333334,"type":"noteOn","velocity":50},{"channel":9,"nextOffset":22026,"note":35,"tick":102494,"time":133.45572916666666,"type":"noteOff","velocity":0},{"channel":9,"nextOffset":25856,"note":35,"tick":102502,"time":133.46614583333334,"type":"noteOn","velocity":50},{"channel":9,"nextOffset":47045,"note":42,"tick":102560,"time":133.54166666666666,"type":"noteOff","velocity":0},{"channel":9,"nextOffset":23372,"note":42,"tick":102568,"time":133.55208333333334,"type":"noteOn","velocity":50},{"channel":12,"nextOffset":42975,"note":65,"tick":102569,"time":133.55338541666666,"type":"noteOn","velocity":50},{"channel":2,"nextOffset":29891,"note":33,"tick":102581,"time":133.56901041666666,"type":"noteOff","velocity":0},{"channel":9,"nextOffset":25860,"note":35,"tick":102598,"time":133.59114583333334,"type":"noteOff","velocity":0},{"channel":9,"nextOffset":23376,"note":42,"tick":102664,"time":133.67708333333334,"type":"noteOff","velocity":0},{"channel":1,"nextOffset":18335,"note":33,"tick":102685,"time":133.70442708333334,"type":"noteOff","velocity":0},{"channel":8,"nextOffset":41213,"note":68,"tick":102688,"time":133.70833333333334,"type":"noteOn","velocity":50},{"channel":8,"nextOffset":41217,"note":69,"tick":102736,"time":133.77083333333334,"type":"noteOn","velocity":50},{"channel":8,"nextOffset":41221,"note":68,"tick":102752,"time":133.79166666666666,"type":"noteOff","velocity":0},{"channel":12,"nextOffset":42980,"note":65,"tick":102761,"time":133.80338541666666,"type":"noteOff","velocity":0},{"channel":2,"nextOffset":29896,"note":26,"tick":102773,"time":133.81901041666666,"type":"noteOn","velocity":57},{"channel":9,"nextOffset":22031,"note":35,"tick":102782,"time":133.83072916666666,"type":"noteOn","velocity":50},{"channel":9,"nextOffset":47050,"note":42,"tick":102848,"time":133.91666666666666,"type":"noteOn","velocity":50},{"channel":0,"nextOffset":6716,"note":79,"tick":102857,"time":133.92838541666666,"type":"noteOn","velocity":68},{"channel":1,"nextOffset":18340,"note":26,"tick":102877,"time":133.95442708333334,"type":"noteOn","velocity":50},{"channel":9,"nextOffset":22035,"note":35,"tick":102878,"time":133.95572916666666,"type":"noteOff","velocity":0},{"channel":8,"nextOffset":41226,"note":69,"tick":102880,"time":133.95833333333334,"type":"noteOff","velocity":0},{"channel":9,"nextOffset":25865,"note":35,"tick":102886,"time":133.96614583333334,"type":"noteOn","velocity":50},{"channel":9,"nextOffset":47054,"note":42,"tick":102944,"time":134.04166666666666,"type":"noteOff","velocity":0},{"channel":9,"nextOffset":23381,"note":42,"tick":102952,"time":134.05208333333334,"type":"noteOn","velocity":50},{"channel":0,"nextOffset":6720,"note":79,"tick":102953,"time":134.05338541666666,"type":"noteOff","velocity":0},{"channel":12,"nextOffset":42985,"note":64,"tick":102953,"time":134.05338541666666,"type":"noteOn","velocity":50},{"channel":2,"nextOffset":29901,"note":26,"tick":102965,"time":134.06901041666666,"type":"noteOff","velocity":0},{"channel":2,"nextOffset":29905,"note":33,"tick":102965,"time":134.06901041666666,"type":"noteOn","velocity":57},{"channel":9,"nextOffset":25869,"note":35,"tick":102982,"time":134.09114583333334,"type":"noteOff","velocity":0},{"channel":9,"nextOffset":23385,"note":42,"tick":103048,"time":134.17708333333334,"type":"noteOff","velocity":0},{"channel":0,"nextOffset":6724,"note":82,"tick":103049,"time":134.17838541666666,"type":"noteOn","velocity":68},{"channel":1,"nextOffset":18345,"note":26,"tick":103069,"time":134.20442708333334,"type":"noteOff","velocity":0},{"channel":1,"nextOffset":18349,"note":33,"tick":103069,"time":134.20442708333334,"type":"noteOn","velocity":50},{"channel":8,"nextOffset":41231,"note":67,"tick":103072,"time":134.20833333333334,"type":"noteOn","velocity":50},{"channel":12,"nextOffset":42990,"note":64,"tick":103145,"time":134.30338541666666,"type":"noteOff","velocity":0},{"channel":2,"nextOffset":29910,"note":33,"tick":103157,"time":134.31901041666666,"type":"noteOff","velocity":0},{"channel":2,"nextOffset":29914,"note":32,"tick":103157,"time":134.31901041666666,"type":"noteOn","velocity":57},{"channel":9,"nextOffset":22040,"note":35,"tick":103166,"time":134.33072916666666,"type":"noteOn","velocity":50},{"channel":9,"nextOffset":47059,"note":42,"tick":103232,"time":134.41666666666666,"type":"noteOn","velocity":50},{"channel":1,"nextOffset":18354,"note":33,"tick":103261,"time":134.45442708333334,"type":"noteOff","velocity":0},{"channel":1,"nextOffset":18358,"note":32,"tick":103261,"time":134.45442708333334,"type":"noteOn","velocity":50},{"channel":9,"nextOffset":22044,"note":35,"tick":103262,"time":134.45572916666666,"type":"noteOff","velocity":0},{"channel":8,"nextOffset":41236,"note":67,"tick":103264,"time":134.45833333333334,"type":"noteOff","velocity":0},{"channel":9,"nextOffset":25874,"note":35,"tick":103270,"time":134.46614583333334,"type":"noteOn","velocity":50},{"channel":9,"nextOffset":47063,"note":42,"tick":103328,"time":134.54166666666666,"type":"noteOff","velocity":0},{"channel":9,"nextOffset":23390,"note":42,"tick":103336,"time":134.55208333333334,"type":"noteOn","velocity":50},{"channel":12,"nextOffset":42995,"note":67,"tick":103337,"time":134.55338541666666,"type":"noteOn","velocity":50},{"channel":2,"nextOffset":29919,"note":32,"tick":103349,"time":134.56901041666666,"type":"noteOff","velocity":0},{"channel":2,"nextOffset":29923,"note":31,"tick":103349,"time":134.56901041666666,"type":"noteOn","velocity":57},{"channel":9,"nextOffset":25878,"note":35,"tick":103366,"time":134.59114583333334,"type":"noteOff","velocity":0},{"channel":9,"nextOffset":23394,"note":42,"tick":103432,"time":134.67708333333334,"type":"noteOff","velocity":0},{"channel":0,"nextOffset":6729,"note":82,"tick":103433,"time":134.67838541666666,"type":"noteOff","velocity":0},{"channel":1,"nextOffset":18363,"note":32,"tick":103453,"time":134.70442708333334,"type":"noteOff","velocity":0},{"channel":1,"nextOffset":18367,"note":31,"tick":103453,"time":134.70442708333334,"type":"noteOn","velocity":50},{"channel":9,"nextOffset":22049,"note":35,"tick":103454,"time":134.70572916666666,"type":"noteOn","velocity":50},{"channel":8,"nextOffset":41241,"note":65,"tick":103456,"time":134.70833333333334,"type":"noteOn","velocity":50},{"channel":9,"nextOffset":47068,"note":42,"tick":103520,"time":134.79166666666666,"type":"noteOn","velocity":50},{"channel":0,"nextOffset":6733,"note":81,"tick":103529,"time":134.80338541666666,"type":"noteOff","velocity":0},{"channel":0,"nextOffset":6737,"note":77,"tick":103529,"time":134.80338541666666,"type":"noteOff","velocity":0},{"channel":0,"nextOffset":6741,"note":74,"tick":103529,"time":134.80338541666666,"type":"noteOff","velocity":0},{"channel":0,"nextOffset":6745,"note":70,"tick":103529,"time":134.80338541666666,"type":"noteOff","velocity":0},{"channel":12,"nextOffset":43000,"note":67,"tick":103529,"time":134.80338541666666,"type":"noteOff","velocity":0},{"channel":12,"nextOffset":43004,"note":65,"tick":103529,"time":134.80338541666666,"type":"noteOn","velocity":50},{"channel":2,"nextOffset":29928,"note":31,"tick":103541,"time":134.81901041666666,"type":"noteOff","velocity":0},{"channel":9,"nextOffset":22053,"note":35,"tick":103550,"time":134.83072916666666,"type":"noteOff","velocity":0},{"channel":9,"nextOffset":25883,"note":35,"tick":103558,"time":134.84114583333334,"type":"noteOn","velocity":50},{"channel":9,"nextOffset":47072,"note":42,"tick":103616,"time":134.91666666666666,"type":"noteOff","velocity":0},{"channel":9,"nextOffset":23399,"note":42,"tick":103624,"time":134.92708333333334,"type":"noteOn","velocity":50},{"channel":0,"nextOffset":6749,"note":74,"tick":103625,"time":134.92838541666666,"type":"noteOn","velocity":68},{"channel":12,"nextOffset":43008,"note":65,"tick":103625,"time":134.92838541666666,"type":"noteOff","velocity":0},{"channel":1,"nextOffset":18372,"note":31,"tick":103645,"time":134.95442708333334,"type":"noteOff","velocity":0},{"channel":8,"nextOffset":41246,"note":65,"tick":103648,"time":134.95833333333334,"type":"noteOff","velocity":0},{"channel":9,"nextOffset":25887,"note":35,"tick":103654,"time":134.96614583333334,"type":"noteOff","velocity":0},{"channel":9,"nextOffset":23403,"note":42,"tick":103720,"time":135.05208333333334,"type":"noteOff","velocity":0},{"channel":12,"nextOffset":43012,"note":67,"tick":103721,"time":135.05338541666666,"type":"noteOn","velocity":50},{"channel":2,"nextOffset":29933,"note":31,"tick":103733,"time":135.06901041666666,"type":"noteOn","velocity":57},{"channel":9,"nextOffset":22058,"note":35,"tick":103742,"time":135.08072916666666,"type":"noteOn","velocity":50},{"channel":1,"nextOffset":18377,"note":31,"tick":103837,"time":135.20442708333334,"type":"noteOn","velocity":50},{"channel":9,"nextOffset":22062,"note":35,"tick":103838,"time":135.20572916666666,"type":"noteOff","velocity":0},{"channel":8,"nextOffset":41251,"note":64,"tick":103840,"time":135.20833333333334,"type":"noteOn","velocity":50},{"channel":9,"nextOffset":25892,"note":35,"tick":103846,"time":135.21614583333334,"type":"noteOn","velocity":50},{"channel":12,"nextOffset":43017,"note":67,"tick":103913,"time":135.30338541666666,"type":"noteOff","velocity":0},{"channel":12,"nextOffset":43021,"note":67,"tick":103913,"time":135.30338541666666,"type":"noteOn","velocity":50},{"channel":2,"nextOffset":29938,"note":31,"tick":103925,"time":135.31901041666666,"type":"noteOff","velocity":0},{"channel":2,"nextOffset":29942,"note":32,"tick":103925,"time":135.31901041666666,"type":"noteOn","velocity":57},{"channel":9,"nextOffset":22066,"note":35,"tick":103934,"time":135.33072916666666,"type":"noteOn","velocity":50},{"channel":9,"nextOffset":25896,"note":35,"tick":103942,"time":135.34114583333334,"type":"noteOff","velocity":0},{"channel":12,"nextOffset":43025,"note":67,"tick":103961,"time":135.36588541666666,"type":"noteOff","velocity":0},{"channel":12,"nextOffset":43029,"note":69,"tick":103961,"time":135.36588541666666,"type":"noteOn","velocity":50},{"channel":9,"nextOffset":47077,"note":42,"tick":104000,"time":135.41666666666666,"type":"noteOn","velocity":50},{"channel":0,"nextOffset":6754,"note":74,"tick":104009,"time":135.42838541666666,"type":"noteOff","velocity":0},{"channel":0,"nextOffset":6758,"note":73,"tick":104009,"time":135.42838541666666,"type":"noteOn","velocity":68},{"channel":0,"nextOffset":6762,"note":69,"tick":104009,"time":135.42838541666666,"type":"noteOn","velocity":68},{"channel":0,"nextOffset":6766,"note":67,"tick":104009,"time":135.42838541666666,"type":"noteOn","velocity":68},{"channel":0,"nextOffset":6770,"note":64,"tick":104009,"time":135.42838541666666,"type":"noteOn","velocity":68},{"channel":1,"nextOffset":18382,"note":31,"tick":104029,"time":135.45442708333334,"type":"noteOff","velocity":0},{"channel":1,"nextOffset":18386,"note":32,"tick":104029,"time":135.45442708333334,"type":"noteOn","velocity":50},{"channel":9,"nextOffset":22070,"note":35,"tick":104030,"time":135.45572916666666,"type":"noteOff","velocity":0},{"channel":8,"nextOffset":41256,"note":64,"tick":104032,"time":135.45833333333334,"type":"noteOff","velocity":0},{"channel":9,"nextOffset":25900,"note":35,"tick":104038,"time":135.46614583333334,"type":"noteOn","velocity":50},{"channel":9,"nextOffset":47081,"note":42,"tick":104096,"time":135.54166666666666,"type":"noteOff","velocity":0},{"channel":9,"nextOffset":23408,"note":42,"tick":104104,"time":135.55208333333334,"type":"noteOn","velocity":50},{"channel":12,"nextOffset":43034,"note":69,"tick":104105,"time":135.55338541666666,"type":"noteOff","velocity":0},{"channel":2,"nextOffset":29947,"note":32,"tick":104117,"time":135.56901041666666,"type":"noteOff","velocity":0},{"channel":2,"nextOffset":29951,"note":33,"tick":104117,"time":135.56901041666666,"type":"noteOn","velocity":57},{"channel":2,"nextOffset":29955,"note":33,"tick":104117,"time":135.56901041666666,"type":"noteOn","velocity":57},{"channel":9,"nextOffset":25904,"note":35,"tick":104134,"time":135.59114583333334,"type":"noteOff","velocity":0},{"channel":9,"nextOffset":23412,"note":42,"tick":104200,"time":135.67708333333334,"type":"noteOff","velocity":0},{"channel":1,"nextOffset":18391,"note":32,"tick":104221,"time":135.70442708333334,"type":"noteOff","velocity":0},{"channel":1,"nextOffset":18395,"note":33,"tick":104221,"time":135.70442708333334,"type":"noteOn","velocity":50},{"channel":1,"nextOffset":18399,"note":33,"tick":104221,"time":135.70442708333334,"type":"noteOn","velocity":50},{"channel":8,"nextOffset":41261,"note":67,"tick":104224,"time":135.70833333333334,"type":"noteOn","velocity":50},{"channel":12,"nextOffset":43039,"note":69,"tick":104297,"time":135.80338541666666,"type":"noteOn","velocity":50},{"channel":2,"nextOffset":29960,"note":33,"tick":104309,"time":135.81901041666666,"type":"noteOff","velocity":0},{"channel":2,"nextOffset":29964,"note":33,"tick":104309,"time":135.81901041666666,"type":"noteOff","velocity":0},{"channel":9,"nextOffset":22075,"note":35,"tick":104318,"time":135.83072916666666,"type":"noteOn","velocity":50},{"channel":12,"nextOffset":43043,"note":69,"tick":104321,"time":135.83463541666666,"type":"noteOff","velocity":0},{"channel":12,"nextOffset":43047,"note":70,"tick":104321,"time":135.83463541666666,"type":"noteOn","velocity":50},{"channel":9,"nextOffset":47086,"note":42,"tick":104384,"time":135.91666666666666,"type":"noteOn","velocity":50},{"channel":0,"nextOffset":6775,"note":64,"tick":104393,"time":135.92838541666666,"type":"noteOff","velocity":0},{"channel":12,"nextOffset":43051,"note":70,"tick":104393,"time":135.92838541666666,"type":"noteOff","velocity":0},{"channel":2,"nextOffset":29968,"note":33,"tick":104405,"time":135.94401041666666,"type":"noteOn","velocity":57},{"channel":1,"nextOffset":18404,"note":33,"tick":104413,"time":135.95442708333334,"type":"noteOff","velocity":0},{"channel":1,"nextOffset":18408,"note":33,"tick":104413,"time":135.95442708333334,"type":"noteOff","velocity":0},{"channel":9,"nextOffset":22079,"note":35,"tick":104414,"time":135.95572916666666,"type":"noteOff","velocity":0},{"channel":8,"nextOffset":41266,"note":67,"tick":104416,"time":135.95833333333334,"type":"noteOff","velocity":0},{"channel":9,"nextOffset":25909,"note":35,"tick":104422,"time":135.96614583333334,"type":"noteOn","velocity":50},{"channel":9,"nextOffset":47090,"note":42,"tick":104480,"time":136.04166666666666,"type":"noteOff","velocity":0},{"channel":9,"nextOffset":23417,"note":42,"tick":104488,"time":136.05208333333334,"type":"noteOn","velocity":50},{"channel":12,"nextOffset":43055,"note":69,"tick":104489,"time":136.05338541666666,"type":"noteOn","velocity":50},{"channel":2,"nextOffset":29972,"note":33,"tick":104501,"time":136.06901041666666,"type":"noteOff","velocity":0},{"channel":1,"nextOffset":18412,"note":33,"tick":104509,"time":136.07942708333334,"type":"noteOn","velocity":50},{"channel":9,"nextOffset":25913,"note":35,"tick":104518,"time":136.09114583333334,"type":"noteOff","velocity":0},{"channel":9,"nextOffset":23421,"note":42,"tick":104584,"time":136.17708333333334,"type":"noteOff","velocity":0},{"channel":0,"nextOffset":6780,"note":69,"tick":104585,"time":136.17838541666666,"type":"noteOn","velocity":68},{"channel":1,"nextOffset":18416,"note":33,"tick":104605,"time":136.20442708333334,"type":"noteOff","velocity":0},{"channel":8,"nextOffset":41271,"note":65,"tick":104608,"time":136.20833333333334,"type":"noteOn","velocity":50},{"channel":9,"nextOffset":25917,"note":42,"tick":104614,"time":136.21614583333334,"type":"noteOn","velocity":50},{"channel":2,"nextOffset":29977,"note":26,"tick":104693,"time":136.31901041666666,"type":"noteOn","velocity":57},{"channel":9,"nextOffset":22084,"note":35,"tick":104702,"time":136.33072916666666,"type":"noteOn","velocity":50},{"channel":9,"nextOffset":25921,"note":42,"tick":104710,"time":136.34114583333334,"type":"noteOff","velocity":0},{"channel":9,"nextOffset":47095,"note":42,"tick":104768,"time":136.41666666666666,"type":"noteOn","velocity":50},{"channel":0,"nextOffset":6785,"note":69,"tick":104777,"time":136.42838541666666,"type":"noteOff","velocity":0},{"channel":0,"nextOffset":6789,"note":76,"tick":104777,"time":136.42838541666666,"type":"noteOn","velocity":68},{"channel":1,"nextOffset":18421,"note":26,"tick":104797,"time":136.45442708333334,"type":"noteOn","velocity":50},{"channel":9,"nextOffset":22088,"note":35,"tick":104798,"time":136.45572916666666,"type":"noteOff","velocity":0},{"channel":8,"nextOffset":41276,"note":65,"tick":104800,"time":136.45833333333334,"type":"noteOff","velocity":0},{"channel":9,"nextOffset":25925,"note":35,"tick":104806,"time":136.46614583333334,"type":"noteOn","velocity":50},{"channel":9,"nextOffset":47099,"note":42,"tick":104864,"time":136.54166666666666,"type":"noteOff","velocity":0},{"channel":9,"nextOffset":23426,"note":42,"tick":104872,"time":136.55208333333334,"type":"noteOn","velocity":50},{"channel":2,"nextOffset":29982,"note":26,"tick":104885,"time":136.56901041666666,"type":"noteOff","velocity":0},{"channel":9,"nextOffset":25929,"note":35,"tick":104902,"time":136.59114583333334,"type":"noteOff","velocity":0},{"channel":9,"nextOffset":34603,"note":42,"tick":104928,"time":136.625,"type":"noteOn","velocity":50},{"channel":9,"nextOffset":23430,"note":42,"tick":104968,"time":136.67708333333334,"type":"noteOff","velocity":0},{"channel":1,"nextOffset":18426,"note":26,"tick":104989,"time":136.70442708333334,"type":"noteOff","velocity":0},{"channel":9,"nextOffset":22093,"note":35,"tick":104990,"time":136.70572916666666,"type":"noteOn","velocity":50},{"channel":8,"nextOffset":41281,"note":64,"tick":104992,"time":136.70833333333334,"type":"noteOn","velocity":50},{"channel":9,"nextOffset":34607,"note":42,"tick":105024,"time":136.75,"type":"noteOff","velocity":0},{"channel":9,"nextOffset":34611,"note":42,"tick":105024,"time":136.75,"type":"noteOn","velocity":50},{"channel":9,"nextOffset":47104,"note":42,"tick":105056,"time":136.79166666666666,"type":"noteOn","velocity":50},{"channel":2,"nextOffset":29987,"note":26,"tick":105077,"time":136.81901041666666,"type":"noteOn","velocity":57},{"channel":9,"nextOffset":22097,"note":35,"tick":105086,"time":136.83072916666666,"type":"noteOff","velocity":0},{"channel":9,"nextOffset":25934,"note":35,"tick":105094,"time":136.84114583333334,"type":"noteOn","velocity":50},{"channel":9,"nextOffset":34615,"note":42,"tick":105120,"time":136.875,"type":"noteOff","velocity":0},{"channel":9,"nextOffset":47108,"note":42,"tick":105152,"time":136.91666666666666,"type":"noteOff","velocity":0},{"channel":9,"nextOffset":23435,"note":42,"tick":105160,"time":136.92708333333334,"type":"noteOn","velocity":50},{"channel":0,"nextOffset":6794,"note":76,"tick":105161,"time":136.92838541666666,"type":"noteOff","velocity":0},{"channel":1,"nextOffset":18431,"note":26,"tick":105181,"time":136.95442708333334,"type":"noteOn","velocity":50},{"channel":8,"nextOffset":41286,"note":64,"tick":105184,"time":136.95833333333334,"type":"noteOff","velocity":0},{"channel":9,"nextOffset":25938,"note":35,"tick":105190,"time":136.96614583333334,"type":"noteOff","velocity":0},{"channel":9,"nextOffset":23439,"note":42,"tick":105256,"time":137.05208333333334,"type":"noteOff","velocity":0},{"channel":2,"nextOffset":29992,"note":26,"tick":105269,"time":137.06901041666666,"type":"noteOff","velocity":0},{"channel":2,"nextOffset":29996,"note":33,"tick":105269,"time":137.06901041666666,"type":"noteOn","velocity":57},{"channel":9,"nextOffset":22102,"note":35,"tick":105278,"time":137.08072916666666,"type":"noteOn","velocity":50},{"channel":9,"nextOffset":34620,"note":42,"tick":105312,"time":137.125,"type":"noteOn","velocity":50},{"channel":1,"nextOffset":18436,"note":26,"tick":105373,"time":137.20442708333334,"type":"noteOff","velocity":0},{"channel":1,"nextOffset":18440,"note":33,"tick":105373,"time":137.20442708333334,"type":"noteOn","velocity":50},{"channel":9,"nextOffset":22106,"note":35,"tick":105374,"time":137.20572916666666,"type":"noteOff","velocity":0},{"channel":8,"nextOffset":41291,"note":62,"tick":105376,"time":137.20833333333334,"type":"noteOn","velocity":50},{"channel":9,"nextOffset":25943,"note":35,"tick":105382,"time":137.21614583333334,"type":"noteOn","velocity":50},{"channel":9,"nextOffset":34624,"note":42,"tick":105408,"time":137.25,"type":"noteOff","velocity":0},{"channel":9,"nextOffset":34628,"note":42,"tick":105408,"time":137.25,"type":"noteOn","velocity":50},{"channel":2,"nextOffset":30001,"note":33,"tick":105461,"time":137.31901041666666,"type":"noteOff","velocity":0},{"channel":2,"nextOffset":30005,"note":26,"tick":105461,"time":137.31901041666666,"type":"noteOn","velocity":57},{"channel":9,"nextOffset":22110,"note":35,"tick":105470,"time":137.33072916666666,"type":"noteOn","velocity":50},{"channel":9,"nextOffset":25947,"note":35,"tick":105478,"time":137.34114583333334,"type":"noteOff","velocity":0},{"channel":9,"nextOffset":34632,"note":42,"tick":105504,"time":137.375,"type":"noteOff","velocity":0},{"channel":9,"nextOffset":47113,"note":42,"tick":105536,"time":137.41666666666666,"type":"noteOn","velocity":50},{"channel":0,"nextOffset":6799,"note":67,"tick":105545,"time":137.42838541666666,"type":"noteOff","velocity":0},{"channel":0,"nextOffset":6803,"note":69,"tick":105545,"time":137.42838541666666,"type":"noteOff","velocity":0},{"channel":0,"nextOffset":6807,"note":73,"tick":105545,"time":137.42838541666666,"type":"noteOff","velocity":0},{"channel":0,"nextOffset":6811,"note":67,"tick":105545,"time":137.42838541666666,"type":"noteOn","velocity":68},{"channel":0,"nextOffset":6815,"note":69,"tick":105545,"time":137.42838541666666,"type":"noteOn","velocity":68},{"channel":0,"nextOffset":6819,"note":73,"tick":105545,"time":137.42838541666666,"type":"noteOn","velocity":68},{"channel":0,"nextOffset":6823,"note":77,"tick":105545,"time":137.42838541666666,"type":"noteOn","velocity":68},{"channel":12,"nextOffset":43060,"note":69,"tick":105545,"time":137.42838541666666,"type":"noteOff","velocity":0},{"channel":1,"nextOffset":18445,"note":33,"tick":105565,"time":137.45442708333334,"type":"noteOff","velocity":0},{"channel":1,"nextOffset":18449,"note":26,"tick":105565,"time":137.45442708333334,"type":"noteOn","velocity":50},{"channel":9,"nextOffset":22114,"note":35,"tick":105566,"time":137.45572916666666,"type":"noteOff","velocity":0},{"channel":8,"nextOffset":41296,"note":62,"tick":105568,"time":137.45833333333334,"type":"noteOff","velocity":0},{"channel":9,"nextOffset":25951,"note":35,"tick":105574,"time":137.46614583333334,"type":"noteOn","velocity":50},{"channel":9,"nextOffset":47117,"note":42,"tick":105632,"time":137.54166666666666,"type":"noteOff","velocity":0},{"channel":9,"nextOffset":23444,"note":42,"tick":105640,"time":137.55208333333334,"type":"noteOn","velocity":50},{"channel":2,"nextOffset":30010,"note":26,"tick":105653,"time":137.56901041666666,"type":"noteOff","velocity":0},{"channel":2,"nextOffset":30014,"note":38,"tick":105653,"time":137.56901041666666,"type":"noteOn","velocity":57},{"channel":9,"nextOffset":25955,"note":35,"tick":105670,"time":137.59114583333334,"type":"noteOff","velocity":0},{"channel":9,"nextOffset":34637,"note":42,"tick":105696,"time":137.625,"type":"noteOn","velocity":50},{"channel":9,"nextOffset":23448,"note":42,"tick":105736,"time":137.67708333333334,"type":"noteOff","velocity":0},{"channel":0,"nextOffset":6828,"note":72,"tick":105737,"time":137.67838541666666,"type":"noteOn","velocity":68},{"channel":1,"nextOffset":18454,"note":26,"tick":105757,"time":137.70442708333334,"type":"noteOff","velocity":0},{"channel":1,"nextOffset":18458,"note":38,"tick":105757,"time":137.70442708333334,"type":"noteOn","velocity":50},{"channel":8,"nextOffset":41301,"note":65,"tick":105760,"time":137.70833333333334,"type":"noteOn","velocity":50},{"channel":9,"nextOffset":34641,"note":42,"tick":105792,"time":137.75,"type":"noteOff","velocity":0},{"channel":2,"nextOffset":30019,"note":38,"tick":105845,"time":137.81901041666666,"type":"noteOff","velocity":0},{"channel":2,"nextOffset":30023,"note":26,"tick":105845,"time":137.81901041666666,"type":"noteOn","velocity":57},{"channel":9,"nextOffset":22119,"note":35,"tick":105854,"time":137.83072916666666,"type":"noteOn","velocity":50},{"channel":9,"nextOffset":47122,"note":42,"tick":105920,"time":137.91666666666666,"type":"noteOn","velocity":50},{"channel":0,"nextOffset":6833,"note":72,"tick":105929,"time":137.92838541666666,"type":"noteOff","velocity":0},{"channel":0,"nextOffset":6837,"note":79,"tick":105929,"time":137.92838541666666,"type":"noteOn","velocity":68},{"channel":1,"nextOffset":18463,"note":38,"tick":105949,"time":137.95442708333334,"type":"noteOff","velocity":0},{"channel":1,"nextOffset":18467,"note":26,"tick":105949,"time":137.95442708333334,"type":"noteOn","velocity":50},{"channel":9,"nextOffset":22123,"note":35,"tick":105950,"time":137.95572916666666,"type":"noteOff","velocity":0},{"channel":8,"nextOffset":41306,"note":65,"tick":105952,"time":137.95833333333334,"type":"noteOff","velocity":0},{"channel":9,"nextOffset":25960,"note":35,"tick":105958,"time":137.96614583333334,"type":"noteOn","velocity":50},{"channel":9,"nextOffset":34646,"note":42,"tick":105984,"time":138,"type":"noteOn","velocity":50},{"channel":9,"nextOffset":47126,"note":42,"tick":106016,"time":138.04166666666666,"type":"noteOff","velocity":0},{"channel":9,"nextOffset":23453,"note":42,"tick":106024,"time":138.05208333333334,"type":"noteOn","velocity":50},{"channel":2,"nextOffset":30028,"note":26,"tick":106037,"time":138.06901041666666,"type":"noteOff","velocity":0},{"channel":2,"nextOffset":30032,"note":33,"tick":106037,"time":138.06901041666666,"type":"noteOn","velocity":57},{"channel":9,"nextOffset":25964,"note":35,"tick":106054,"time":138.09114583333334,"type":"noteOff","velocity":0},{"channel":9,"nextOffset":34650,"note":42,"tick":106080,"time":138.125,"type":"noteOff","velocity":0},{"channel":9,"nextOffset":34654,"note":42,"tick":106080,"time":138.125,"type":"noteOn","velocity":50},{"channel":9,"nextOffset":34658,"note":42,"tick":106104,"time":138.15625,"type":"noteOff","velocity":0},{"channel":9,"nextOffset":23457,"note":42,"tick":106120,"time":138.17708333333334,"type":"noteOff","velocity":0},{"channel":0,"nextOffset":6842,"note":79,"tick":106121,"time":138.17838541666666,"type":"noteOff","velocity":0},{"channel":0,"nextOffset":6846,"note":81,"tick":106121,"time":138.17838541666666,"type":"noteOn","velocity":68},{"channel":9,"nextOffset":34662,"note":42,"tick":106128,"time":138.1875,"type":"noteOn","velocity":50},{"channel":1,"nextOffset":18472,"note":26,"tick":106141,"time":138.20442708333334,"type":"noteOff","velocity":0},{"channel":1,"nextOffset":18476,"note":33,"tick":106141,"time":138.20442708333334,"type":"noteOn","velocity":50},{"channel":8,"nextOffset":41311,"note":64,"tick":106144,"time":138.20833333333334,"type":"noteOn","velocity":50},{"channel":9,"nextOffset":34666,"note":42,"tick":106152,"time":138.21875,"type":"noteOff","velocity":0},{"channel":9,"nextOffset":34670,"note":42,"tick":106176,"time":138.25,"type":"noteOn","velocity":50},{"channel":9,"nextOffset":34674,"note":42,"tick":106200,"time":138.28125,"type":"noteOff","velocity":0},{"channel":9,"nextOffset":34678,"note":42,"tick":106224,"time":138.3125,"type":"noteOn","velocity":50},{"channel":2,"nextOffset":30037,"note":33,"tick":106229,"time":138.31901041666666,"type":"noteOff","velocity":0},{"channel":2,"nextOffset":30041,"note":32,"tick":106229,"time":138.31901041666666,"type":"noteOn","velocity":57},{"channel":2,"nextOffset":30045,"note":32,"tick":106229,"time":138.31901041666666,"type":"noteOn","velocity":57},{"channel":9,"nextOffset":22128,"note":35,"tick":106238,"time":138.33072916666666,"type":"noteOn","velocity":50},{"channel":9,"nextOffset":34682,"note":42,"tick":106248,"time":138.34375,"type":"noteOff","velocity":0},{"channel":9,"nextOffset":34686,"note":42,"tick":106272,"time":138.375,"type":"noteOn","velocity":50},{"channel":9,"nextOffset":34690,"note":42,"tick":106296,"time":138.40625,"type":"noteOff","velocity":0},{"channel":9,"nextOffset":47131,"note":42,"tick":106304,"time":138.41666666666666,"type":"noteOn","velocity":50},{"channel":0,"nextOffset":6851,"note":77,"tick":106313,"time":138.42838541666666,"type":"noteOff","velocity":0},{"channel":0,"nextOffset":6855,"note":73,"tick":106313,"time":138.42838541666666,"type":"noteOff","velocity":0},{"channel":0,"nextOffset":6859,"note":69,"tick":106313,"time":138.42838541666666,"type":"noteOff","velocity":0},{"channel":0,"nextOffset":6863,"note":67,"tick":106313,"time":138.42838541666666,"type":"noteOff","velocity":0},{"channel":0,"nextOffset":6867,"note":81,"tick":106313,"time":138.42838541666666,"type":"noteOff","velocity":0},{"channel":0,"nextOffset":6871,"note":72,"tick":106313,"time":138.42838541666666,"type":"noteOn","velocity":68},{"channel":0,"nextOffset":6875,"note":69,"tick":106313,"time":138.42838541666666,"type":"noteOn","velocity":68},{"channel":0,"nextOffset":6879,"note":67,"tick":106313,"time":138.42838541666666,"type":"noteOn","velocity":68},{"channel":0,"nextOffset":6883,"note":65,"tick":106313,"time":138.42838541666666,"type":"noteOn","velocity":68},{"channel":1,"nextOffset":18481,"note":33,"tick":106333,"time":138.45442708333334,"type":"noteOff","velocity":0},{"channel":1,"nextOffset":18485,"note":32,"tick":106333,"time":138.45442708333334,"type":"noteOn","velocity":50},{"channel":1,"nextOffset":18489,"note":32,"tick":106333,"time":138.45442708333334,"type":"noteOn","velocity":50},{"channel":9,"nextOffset":22132,"note":35,"tick":106334,"time":138.45572916666666,"type":"noteOff","velocity":0},{"channel":8,"nextOffset":41316,"note":64,"tick":106336,"time":138.45833333333334,"type":"noteOff","velocity":0},{"channel":9,"nextOffset":25969,"note":35,"tick":106342,"time":138.46614583333334,"type":"noteOn","velocity":50},{"channel":9,"nextOffset":47135,"note":42,"tick":106400,"time":138.54166666666666,"type":"noteOff","velocity":0},{"channel":9,"nextOffset":23462,"note":42,"tick":106408,"time":138.55208333333334,"type":"noteOn","velocity":50},{"channel":2,"nextOffset":30050,"note":32,"tick":106421,"time":138.56901041666666,"type":"noteOff","velocity":0},{"channel":2,"nextOffset":30054,"note":32,"tick":106421,"time":138.56901041666666,"type":"noteOff","velocity":0},{"channel":2,"nextOffset":30058,"note":31,"tick":106421,"time":138.56901041666666,"type":"noteOn","velocity":57},{"channel":9,"nextOffset":25973,"note":35,"tick":106438,"time":138.59114583333334,"type":"noteOff","velocity":0},{"channel":9,"nextOffset":34695,"note":42,"tick":106464,"time":138.625,"type":"noteOn","velocity":50},{"channel":9,"nextOffset":23466,"note":42,"tick":106504,"time":138.67708333333334,"type":"noteOff","velocity":0},{"channel":1,"nextOffset":18494,"note":32,"tick":106525,"time":138.70442708333334,"type":"noteOff","velocity":0},{"channel":1,"nextOffset":18498,"note":32,"tick":106525,"time":138.70442708333334,"type":"noteOff","velocity":0},{"channel":1,"nextOffset":18502,"note":31,"tick":106525,"time":138.70442708333334,"type":"noteOn","velocity":50},{"channel":9,"nextOffset":22137,"note":35,"tick":106526,"time":138.70572916666666,"type":"noteOn","velocity":50},{"channel":8,"nextOffset":41321,"note":67,"tick":106528,"time":138.70833333333334,"type":"noteOn","velocity":50},{"channel":9,"nextOffset":34699,"note":42,"tick":106560,"time":138.75,"type":"noteOff","velocity":0},{"channel":9,"nextOffset":34703,"note":42,"tick":106560,"time":138.75,"type":"noteOn","velocity":50},{"channel":9,"nextOffset":47140,"note":42,"tick":106592,"time":138.79166666666666,"type":"noteOn","velocity":50},{"channel":2,"nextOffset":30063,"note":31,"tick":106613,"time":138.81901041666666,"type":"noteOff","velocity":0},{"channel":9,"nextOffset":22141,"note":35,"tick":106622,"time":138.83072916666666,"type":"noteOff","velocity":0},{"channel":9,"nextOffset":25978,"note":35,"tick":106630,"time":138.84114583333334,"type":"noteOn","velocity":50},{"channel":9,"nextOffset":34707,"note":42,"tick":106656,"time":138.875,"type":"noteOff","velocity":0},{"channel":9,"nextOffset":47144,"note":42,"tick":106688,"time":138.91666666666666,"type":"noteOff","velocity":0},{"channel":9,"nextOffset":23471,"note":42,"tick":106696,"time":138.92708333333334,"type":"noteOn","velocity":50},{"channel":0,"nextOffset":6888,"note":72,"tick":106697,"time":138.92838541666666,"type":"noteOn","velocity":68},{"channel":1,"nextOffset":18507,"note":31,"tick":106717,"time":138.95442708333334,"type":"noteOff","velocity":0},{"channel":8,"nextOffset":41326,"note":67,"tick":106720,"time":138.95833333333334,"type":"noteOff","velocity":0},{"channel":8,"nextOffset":41330,"note":65,"tick":106720,"time":138.95833333333334,"type":"noteOn","velocity":50},{"channel":9,"nextOffset":25982,"note":35,"tick":106726,"time":138.96614583333334,"type":"noteOff","velocity":0},{"channel":6,"nextOffset":39736,"note":74,"tick":106740,"time":138.984375,"type":"noteOn","velocity":50},{"channel":9,"nextOffset":23475,"note":42,"tick":106792,"time":139.05208333333334,"type":"noteOff","velocity":0},{"channel":2,"nextOffset":30068,"note":31,"tick":106805,"time":139.06901041666666,"type":"noteOn","velocity":57},{"channel":9,"nextOffset":22146,"note":35,"tick":106814,"time":139.08072916666666,"type":"noteOn","velocity":50},{"channel":8,"nextOffset":41334,"note":65,"tick":106816,"time":139.08333333333334,"type":"noteOff","velocity":0},{"channel":6,"nextOffset":39740,"note":74,"tick":106836,"time":139.109375,"type":"noteOff","velocity":0},{"channel":6,"nextOffset":39744,"note":77,"tick":106836,"time":139.109375,"type":"noteOn","velocity":50},{"channel":9,"nextOffset":34712,"note":42,"tick":106848,"time":139.125,"type":"noteOn","velocity":50},{"channel":0,"nextOffset":6893,"note":72,"tick":106889,"time":139.17838541666666,"type":"noteOff","velocity":0},{"channel":0,"nextOffset":6897,"note":74,"tick":106889,"time":139.17838541666666,"type":"noteOn","velocity":68},{"channel":1,"nextOffset":18512,"note":31,"tick":106909,"time":139.20442708333334,"type":"noteOn","velocity":50},{"channel":9,"nextOffset":22150,"note":35,"tick":106910,"time":139.20572916666666,"type":"noteOff","velocity":0},{"channel":8,"nextOffset":41338,"note":67,"tick":106912,"time":139.20833333333334,"type":"noteOn","velocity":50},{"channel":9,"nextOffset":25987,"note":35,"tick":106918,"time":139.21614583333334,"type":"noteOn","velocity":50},{"channel":6,"nextOffset":39748,"note":77,"tick":106932,"time":139.234375,"type":"noteOff","velocity":0},{"channel":6,"nextOffset":39752,"note":79,"tick":106932,"time":139.234375,"type":"noteOn","velocity":50},{"channel":9,"nextOffset":34716,"note":42,"tick":106944,"time":139.25,"type":"noteOff","velocity":0},{"channel":9,"nextOffset":34720,"note":42,"tick":106944,"time":139.25,"type":"noteOn","velocity":50},{"channel":0,"nextOffset":6901,"note":74,"tick":106985,"time":139.30338541666666,"type":"noteOff","velocity":0},{"channel":0,"nextOffset":6905,"note":75,"tick":106985,"time":139.30338541666666,"type":"noteOn","velocity":68},{"channel":2,"nextOffset":30073,"note":31,"tick":106997,"time":139.31901041666666,"type":"noteOff","velocity":0},{"channel":2,"nextOffset":30077,"note":32,"tick":106997,"time":139.31901041666666,"type":"noteOn","velocity":57},{"channel":9,"nextOffset":22154,"note":35,"tick":107006,"time":139.33072916666666,"type":"noteOn","velocity":50},{"channel":9,"nextOffset":25991,"note":35,"tick":107014,"time":139.34114583333334,"type":"noteOff","velocity":0},{"channel":6,"nextOffset":39756,"note":79,"tick":107028,"time":139.359375,"type":"noteOff","velocity":0},{"channel":9,"nextOffset":34724,"note":42,"tick":107040,"time":139.375,"type":"noteOff","velocity":0},{"channel":9,"nextOffset":47149,"note":42,"tick":107072,"time":139.41666666666666,"type":"noteOn","velocity":50},{"channel":0,"nextOffset":6909,"note":65,"tick":107081,"time":139.42838541666666,"type":"noteOff","velocity":0},{"channel":0,"nextOffset":6913,"note":67,"tick":107081,"time":139.42838541666666,"type":"noteOff","velocity":0},{"channel":0,"nextOffset":6917,"note":69,"tick":107081,"time":139.42838541666666,"type":"noteOff","velocity":0},{"channel":0,"nextOffset":6921,"note":72,"tick":107081,"time":139.42838541666666,"type":"noteOff","velocity":0},{"channel":0,"nextOffset":6925,"note":75,"tick":107081,"time":139.42838541666666,"type":"noteOff","velocity":0},{"channel":0,"nextOffset":6929,"note":69,"tick":107081,"time":139.42838541666666,"type":"noteOn","velocity":68},{"channel":0,"nextOffset":6933,"note":67,"tick":107081,"time":139.42838541666666,"type":"noteOn","velocity":68},{"channel":0,"nextOffset":6937,"note":74,"tick":107081,"time":139.42838541666666,"type":"noteOn","velocity":68},{"channel":0,"nextOffset":6941,"note":76,"tick":107081,"time":139.42838541666666,"type":"noteOn","velocity":68},{"channel":1,"nextOffset":18517,"note":31,"tick":107101,"time":139.45442708333334,"type":"noteOff","velocity":0},{"channel":1,"nextOffset":18521,"note":32,"tick":107101,"time":139.45442708333334,"type":"noteOn","velocity":50},{"channel":9,"nextOffset":22158,"note":35,"tick":107102,"time":139.45572916666666,"type":"noteOff","velocity":0},{"channel":8,"nextOffset":41343,"note":67,"tick":107104,"time":139.45833333333334,"type":"noteOff","velocity":0},{"channel":8,"nextOffset":41347,"note":67,"tick":107104,"time":139.45833333333334,"type":"noteOn","velocity":50},{"channel":9,"nextOffset":25995,"note":35,"tick":107110,"time":139.46614583333334,"type":"noteOn","velocity":50},{"channel":6,"nextOffset":39760,"note":81,"tick":107124,"time":139.484375,"type":"noteOn","velocity":50},{"channel":8,"nextOffset":41351,"note":67,"tick":107152,"time":139.52083333333334,"type":"noteOff","velocity":0},{"channel":8,"nextOffset":41355,"note":69,"tick":107152,"time":139.52083333333334,"type":"noteOn","velocity":50},{"channel":9,"nextOffset":47153,"note":42,"tick":107168,"time":139.54166666666666,"type":"noteOff","velocity":0},{"channel":9,"nextOffset":23480,"note":42,"tick":107176,"time":139.55208333333334,"type":"noteOn","velocity":50},{"channel":2,"nextOffset":30082,"note":32,"tick":107189,"time":139.56901041666666,"type":"noteOff","velocity":0},{"channel":2,"nextOffset":30086,"note":33,"tick":107189,"time":139.56901041666666,"type":"noteOn","velocity":57},{"channel":9,"nextOffset":25999,"note":35,"tick":107206,"time":139.59114583333334,"type":"noteOff","velocity":0},{"channel":6,"nextOffset":39764,"note":81,"tick":107220,"time":139.609375,"type":"noteOff","velocity":0},{"channel":9,"nextOffset":34729,"note":42,"tick":107232,"time":139.625,"type":"noteOn","velocity":50},{"channel":9,"nextOffset":23484,"note":42,"tick":107272,"time":139.67708333333334,"type":"noteOff","velocity":0},{"channel":1,"nextOffset":18526,"note":32,"tick":107293,"time":139.70442708333334,"type":"noteOff","velocity":0},{"channel":1,"nextOffset":18530,"note":33,"tick":107293,"time":139.70442708333334,"type":"noteOn","velocity":50},{"channel":8,"nextOffset":41360,"note":69,"tick":107296,"time":139.70833333333334,"type":"noteOff","velocity":0},{"channel":6,"nextOffset":39768,"note":84,"tick":107316,"time":139.734375,"type":"noteOn","velocity":50},{"channel":9,"nextOffset":34733,"note":42,"tick":107328,"time":139.75,"type":"noteOff","velocity":0},{"channel":2,"nextOffset":30091,"note":33,"tick":107381,"time":139.81901041666666,"type":"noteOff","velocity":0},{"channel":9,"nextOffset":22163,"note":35,"tick":107390,"time":139.83072916666666,"type":"noteOn","velocity":50},{"channel":6,"nextOffset":39772,"note":84,"tick":107412,"time":139.859375,"type":"noteOff","velocity":0},{"channel":9,"nextOffset":47158,"note":42,"tick":107456,"time":139.91666666666666,"type":"noteOn","velocity":50},{"channel":2,"nextOffset":30095,"note":33,"tick":107477,"time":139.94401041666666,"type":"noteOn","velocity":57},{"channel":1,"nextOffset":18535,"note":33,"tick":107485,"time":139.95442708333334,"type":"noteOff","velocity":0},{"channel":9,"nextOffset":22167,"note":35,"tick":107486,"time":139.95572916666666,"type":"noteOff","velocity":0},{"channel":8,"nextOffset":41365,"note":69,"tick":107488,"time":139.95833333333334,"type":"noteOn","velocity":50},{"channel":9,"nextOffset":26004,"note":35,"tick":107494,"time":139.96614583333334,"type":"noteOn","velocity":50},{"channel":6,"nextOffset":39776,"note":82,"tick":107508,"time":139.984375,"type":"noteOn","velocity":50},{"channel":8,"nextOffset":41369,"note":69,"tick":107512,"time":139.98958333333334,"type":"noteOff","velocity":0},{"channel":8,"nextOffset":41373,"note":70,"tick":107512,"time":139.98958333333334,"type":"noteOn","velocity":50},{"channel":9,"nextOffset":34738,"note":42,"tick":107520,"time":140,"type":"noteOn","velocity":50},{"channel":9,"nextOffset":47162,"note":42,"tick":107552,"time":140.04166666666666,"type":"noteOff","velocity":0},{"channel":9,"nextOffset":23489,"note":42,"tick":107560,"time":140.05208333333334,"type":"noteOn","velocity":50},{"channel":2,"nextOffset":30099,"note":33,"tick":107573,"time":140.06901041666666,"type":"noteOff","velocity":0},{"channel":1,"nextOffset":18539,"note":33,"tick":107581,"time":140.07942708333334,"type":"noteOn","velocity":50},{"channel":8,"nextOffset":41377,"note":70,"tick":107584,"time":140.08333333333334,"type":"noteOff","velocity":0},{"channel":9,"nextOffset":26008,"note":35,"tick":107590,"time":140.09114583333334,"type":"noteOff","velocity":0},{"channel":6,"nextOffset":39780,"note":82,"tick":107604,"time":140.109375,"type":"noteOff","velocity":0},{"channel":9,"nextOffset":34742,"note":42,"tick":107616,"time":140.125,"type":"noteOff","velocity":0},{"channel":9,"nextOffset":34746,"note":42,"tick":107616,"time":140.125,"type":"noteOn","velocity":50},{"channel":9,"nextOffset":34750,"note":42,"tick":107640,"time":140.15625,"type":"noteOff","velocity":0},{"channel":9,"nextOffset":23493,"note":42,"tick":107656,"time":140.17708333333334,"type":"noteOff","velocity":0},{"channel":0,"nextOffset":6946,"note":76,"tick":107657,"time":140.17838541666666,"type":"noteOff","velocity":0},{"channel":0,"nextOffset":6950,"note":74,"tick":107657,"time":140.17838541666666,"type":"noteOff","velocity":0},{"channel":0,"nextOffset":6954,"note":67,"tick":107657,"time":140.17838541666666,"type":"noteOff","velocity":0},{"channel":0,"nextOffset":6958,"note":69,"tick":107657,"time":140.17838541666666,"type":"noteOff","velocity":0},{"channel":0,"nextOffset":6962,"note":76,"tick":107657,"time":140.17838541666666,"type":"noteOn","velocity":68},{"channel":9,"nextOffset":34754,"note":42,"tick":107664,"time":140.1875,"type":"noteOn","velocity":50},{"channel":1,"nextOffset":18543,"note":33,"tick":107677,"time":140.20442708333334,"type":"noteOff","velocity":0},{"channel":8,"nextOffset":41381,"note":69,"tick":107680,"time":140.20833333333334,"type":"noteOn","velocity":50},{"channel":9,"nextOffset":34758,"note":42,"tick":107688,"time":140.21875,"type":"noteOff","velocity":0},{"channel":6,"nextOffset":39784,"note":81,"tick":107700,"time":140.234375,"type":"noteOn","velocity":50},{"channel":9,"nextOffset":34762,"note":42,"tick":107712,"time":140.25,"type":"noteOn","velocity":50},{"channel":9,"nextOffset":34766,"note":42,"tick":107736,"time":140.28125,"type":"noteOff","velocity":0},{"channel":0,"nextOffset":6966,"note":76,"tick":107753,"time":140.30338541666666,"type":"noteOff","velocity":0},{"channel":0,"nextOffset":6970,"note":76,"tick":107753,"time":140.30338541666666,"type":"noteOn","velocity":68},{"channel":9,"nextOffset":34770,"note":42,"tick":107760,"time":140.3125,"type":"noteOn","velocity":50},{"channel":2,"nextOffset":30104,"note":26,"tick":107765,"time":140.31901041666666,"type":"noteOn","velocity":57},{"channel":9,"nextOffset":22172,"note":35,"tick":107774,"time":140.33072916666666,"type":"noteOn","velocity":50},{"channel":9,"nextOffset":34774,"note":42,"tick":107784,"time":140.34375,"type":"noteOff","velocity":0},{"channel":6,"nextOffset":39788,"note":81,"tick":107796,"time":140.359375,"type":"noteOff","velocity":0},{"channel":9,"nextOffset":34778,"note":42,"tick":107808,"time":140.375,"type":"noteOn","velocity":50},{"channel":9,"nextOffset":34782,"note":42,"tick":107832,"time":140.40625,"type":"noteOff","velocity":0},{"channel":9,"nextOffset":47167,"note":42,"tick":107840,"time":140.41666666666666,"type":"noteOn","velocity":50},{"channel":0,"nextOffset":6974,"note":76,"tick":107849,"time":140.42838541666666,"type":"noteOff","velocity":0},{"channel":0,"nextOffset":6978,"note":76,"tick":107849,"time":140.42838541666666,"type":"noteOn","velocity":68},{"channel":0,"nextOffset":6982,"note":73,"tick":107849,"time":140.42838541666666,"type":"noteOn","velocity":68},{"channel":0,"nextOffset":6986,"note":69,"tick":107849,"time":140.42838541666666,"type":"noteOn","velocity":68},{"channel":0,"nextOffset":6990,"note":67,"tick":107849,"time":140.42838541666666,"type":"noteOn","velocity":68},{"channel":1,"nextOffset":18548,"note":26,"tick":107869,"time":140.45442708333334,"type":"noteOn","velocity":50},{"channel":9,"nextOffset":22176,"note":35,"tick":107870,"time":140.45572916666666,"type":"noteOff","velocity":0},{"channel":9,"nextOffset":26013,"note":35,"tick":107878,"time":140.46614583333334,"type":"noteOn","velocity":50},{"channel":6,"nextOffset":39792,"note":80,"tick":107892,"time":140.484375,"type":"noteOn","velocity":50},{"channel":9,"nextOffset":47171,"note":42,"tick":107936,"time":140.54166666666666,"type":"noteOff","velocity":0},{"channel":9,"nextOffset":23498,"note":42,"tick":107944,"time":140.55208333333334,"type":"noteOn","velocity":50},{"channel":2,"nextOffset":30109,"note":26,"tick":107957,"time":140.56901041666666,"type":"noteOff","velocity":0},{"channel":9,"nextOffset":26017,"note":35,"tick":107974,"time":140.59114583333334,"type":"noteOff","velocity":0},{"channel":6,"nextOffset":39796,"note":80,"tick":107988,"time":140.609375,"type":"noteOff","velocity":0},{"channel":9,"nextOffset":34787,"note":42,"tick":108000,"time":140.625,"type":"noteOn","velocity":50},{"channel":9,"nextOffset":23502,"note":42,"tick":108040,"time":140.67708333333334,"type":"noteOff","velocity":0},{"channel":0,"nextOffset":6995,"note":76,"tick":108041,"time":140.67838541666666,"type":"noteOff","velocity":0},{"channel":0,"nextOffset":6999,"note":76,"tick":108041,"time":140.67838541666666,"type":"noteOn","velocity":68},{"channel":1,"nextOffset":18553,"note":26,"tick":108061,"time":140.70442708333334,"type":"noteOff","velocity":0},{"channel":9,"nextOffset":22181,"note":35,"tick":108062,"time":140.70572916666666,"type":"noteOn","velocity":50},{"channel":9,"nextOffset":34791,"note":42,"tick":108096,"time":140.75,"type":"noteOff","velocity":0},{"channel":9,"nextOffset":34795,"note":42,"tick":108096,"time":140.75,"type":"noteOn","velocity":50},{"channel":9,"nextOffset":47176,"note":42,"tick":108128,"time":140.79166666666666,"type":"noteOn","velocity":50},{"channel":2,"nextOffset":30114,"note":38,"tick":108149,"time":140.81901041666666,"type":"noteOn","velocity":57},{"channel":9,"nextOffset":22185,"note":35,"tick":108158,"time":140.83072916666666,"type":"noteOff","velocity":0},{"channel":9,"nextOffset":26022,"note":35,"tick":108166,"time":140.84114583333334,"type":"noteOn","velocity":50},{"channel":9,"nextOffset":34799,"note":42,"tick":108192,"time":140.875,"type":"noteOff","velocity":0},{"channel":9,"nextOffset":47180,"note":42,"tick":108224,"time":140.91666666666666,"type":"noteOff","velocity":0},{"channel":9,"nextOffset":23507,"note":42,"tick":108232,"time":140.92708333333334,"type":"noteOn","velocity":50},{"channel":0,"nextOffset":7004,"note":67,"tick":108233,"time":140.92838541666666,"type":"noteOff","velocity":0},{"channel":0,"nextOffset":7008,"note":69,"tick":108233,"time":140.92838541666666,"type":"noteOff","velocity":0},{"channel":0,"nextOffset":7012,"note":73,"tick":108233,"time":140.92838541666666,"type":"noteOff","velocity":0},{"channel":0,"nextOffset":7016,"note":76,"tick":108233,"time":140.92838541666666,"type":"noteOff","velocity":0},{"channel":0,"nextOffset":7020,"note":77,"tick":108233,"time":140.92838541666666,"type":"noteOn","velocity":68},{"channel":0,"nextOffset":7024,"note":73,"tick":108233,"time":140.92838541666666,"type":"noteOn","velocity":68},{"channel":1,"nextOffset":18558,"note":38,"tick":108253,"time":140.95442708333334,"type":"noteOn","velocity":50},{"channel":9,"nextOffset":26026,"note":35,"tick":108262,"time":140.96614583333334,"type":"noteOff","velocity":0},{"channel":9,"nextOffset":23511,"note":42,"tick":108328,"time":141.05208333333334,"type":"noteOff","velocity":0},{"channel":2,"nextOffset":30119,"note":38,"tick":108341,"time":141.06901041666666,"type":"noteOff","velocity":0},{"channel":2,"nextOffset":30123,"note":26,"tick":108341,"time":141.06901041666666,"type":"noteOn","velocity":57},{"channel":9,"nextOffset":22190,"note":35,"tick":108350,"time":141.08072916666666,"type":"noteOn","velocity":50},{"channel":9,"nextOffset":34804,"note":42,"tick":108384,"time":141.125,"type":"noteOn","velocity":50},{"channel":0,"nextOffset":7029,"note":73,"tick":108425,"time":141.17838541666666,"type":"noteOff","velocity":0},{"channel":0,"nextOffset":7033,"note":77,"tick":108425,"time":141.17838541666666,"type":"noteOff","velocity":0},{"channel":0,"nextOffset":7037,"note":76,"tick":108425,"time":141.17838541666666,"type":"noteOn","velocity":68},{"channel":0,"nextOffset":7041,"note":69,"tick":108425,"time":141.17838541666666,"type":"noteOn","velocity":68},{"channel":1,"nextOffset":18563,"note":38,"tick":108445,"time":141.20442708333334,"type":"noteOff","velocity":0},{"channel":1,"nextOffset":18567,"note":26,"tick":108445,"time":141.20442708333334,"type":"noteOn","velocity":50},{"channel":9,"nextOffset":22194,"note":35,"tick":108446,"time":141.20572916666666,"type":"noteOff","velocity":0},{"channel":9,"nextOffset":26031,"note":35,"tick":108454,"time":141.21614583333334,"type":"noteOn","velocity":50},{"channel":9,"nextOffset":34808,"note":42,"tick":108480,"time":141.25,"type":"noteOff","velocity":0},{"channel":9,"nextOffset":34812,"note":42,"tick":108480,"time":141.25,"type":"noteOn","velocity":50},{"channel":2,"nextOffset":30128,"note":26,"tick":108533,"time":141.31901041666666,"type":"noteOff","velocity":0},{"channel":2,"nextOffset":30132,"note":33,"tick":108533,"time":141.31901041666666,"type":"noteOn","velocity":57},{"channel":9,"nextOffset":22198,"note":35,"tick":108542,"time":141.33072916666666,"type":"noteOn","velocity":50},{"channel":9,"nextOffset":26035,"note":35,"tick":108550,"time":141.34114583333334,"type":"noteOff","velocity":0},{"channel":9,"nextOffset":34816,"note":42,"tick":108576,"time":141.375,"type":"noteOff","velocity":0},{"channel":9,"nextOffset":47185,"note":42,"tick":108608,"time":141.41666666666666,"type":"noteOn","velocity":50},{"channel":0,"nextOffset":7046,"note":69,"tick":108617,"time":141.42838541666666,"type":"noteOff","velocity":0},{"channel":0,"nextOffset":7050,"note":76,"tick":108617,"time":141.42838541666666,"type":"noteOff","velocity":0},{"channel":0,"nextOffset":7054,"note":43,"tick":108617,"time":141.42838541666666,"type":"noteOn","velocity":68},{"channel":0,"nextOffset":7058,"note":58,"tick":108617,"time":141.42838541666666,"type":"noteOn","velocity":68},{"channel":0,"nextOffset":7062,"note":62,"tick":108617,"time":141.42838541666666,"type":"noteOn","velocity":68},{"channel":0,"nextOffset":7066,"note":65,"tick":108617,"time":141.42838541666666,"type":"noteOn","velocity":68},{"channel":0,"nextOffset":7070,"note":69,"tick":108617,"time":141.42838541666666,"type":"noteOn","velocity":68},{"channel":1,"nextOffset":18572,"note":26,"tick":108637,"time":141.45442708333334,"type":"noteOff","velocity":0},{"channel":1,"nextOffset":18576,"note":33,"tick":108637,"time":141.45442708333334,"type":"noteOn","velocity":50},{"channel":9,"nextOffset":22202,"note":35,"tick":108638,"time":141.45572916666666,"type":"noteOff","velocity":0},{"channel":9,"nextOffset":26039,"note":35,"tick":108646,"time":141.46614583333334,"type":"noteOn","velocity":50},{"channel":9,"nextOffset":47189,"note":42,"tick":108704,"time":141.54166666666666,"type":"noteOff","velocity":0},{"channel":9,"nextOffset":47193,"note":42,"tick":108704,"time":141.54166666666666,"type":"noteOn","velocity":50},{"channel":2,"nextOffset":30137,"note":33,"tick":108725,"time":141.56901041666666,"type":"noteOff","velocity":0},{"channel":8,"nextOffset":41386,"note":69,"tick":108736,"time":141.58333333333334,"type":"noteOff","velocity":0},{"channel":9,"nextOffset":26043,"note":35,"tick":108742,"time":141.59114583333334,"type":"noteOff","velocity":0},{"channel":9,"nextOffset":34821,"note":42,"tick":108768,"time":141.625,"type":"noteOn","velocity":50},{"channel":9,"nextOffset":47197,"note":42,"tick":108800,"time":141.66666666666666,"type":"noteOff","velocity":0},{"channel":0,"nextOffset":7075,"note":43,"tick":108809,"time":141.67838541666666,"type":"noteOff","velocity":0},{"channel":0,"nextOffset":7079,"note":50,"tick":108809,"time":141.67838541666666,"type":"noteOn","velocity":68},{"channel":1,"nextOffset":18581,"note":33,"tick":108829,"time":141.70442708333334,"type":"noteOff","velocity":0},{"channel":9,"nextOffset":34825,"note":42,"tick":108864,"time":141.75,"type":"noteOff","velocity":0},{"channel":2,"nextOffset":30142,"note":26,"tick":108917,"time":141.81901041666666,"type":"noteOn","velocity":57},{"channel":9,"nextOffset":22207,"note":35,"tick":108926,"time":141.83072916666666,"type":"noteOn","velocity":50},{"channel":9,"nextOffset":47202,"note":42,"tick":108992,"time":141.91666666666666,"type":"noteOn","velocity":50},{"channel":0,"nextOffset":7084,"note":69,"tick":109001,"time":141.92838541666666,"type":"noteOff","velocity":0},{"channel":0,"nextOffset":7088,"note":65,"tick":109001,"time":141.92838541666666,"type":"noteOff","velocity":0},{"channel":0,"nextOffset":7092,"note":62,"tick":109001,"time":141.92838541666666,"type":"noteOff","velocity":0},{"channel":0,"nextOffset":7096,"note":58,"tick":109001,"time":141.92838541666666,"type":"noteOff","velocity":0},{"channel":0,"nextOffset":7100,"note":50,"tick":109001,"time":141.92838541666666,"type":"noteOff","velocity":0},{"channel":0,"nextOffset":7104,"note":43,"tick":109001,"time":141.92838541666666,"type":"noteOn","velocity":68},{"channel":1,"nextOffset":18586,"note":26,"tick":109021,"time":141.95442708333334,"type":"noteOn","velocity":50},{"channel":9,"nextOffset":22211,"note":35,"tick":109022,"time":141.95572916666666,"type":"noteOff","velocity":0},{"channel":9,"nextOffset":26048,"note":35,"tick":109030,"time":141.96614583333334,"type":"noteOn","velocity":50},{"channel":9,"nextOffset":34830,"note":42,"tick":109056,"time":142,"type":"noteOn","velocity":50},{"channel":9,"nextOffset":47206,"note":42,"tick":109088,"time":142.04166666666666,"type":"noteOff","velocity":0},{"channel":9,"nextOffset":47210,"note":42,"tick":109088,"time":142.04166666666666,"type":"noteOn","velocity":50},{"channel":2,"nextOffset":30147,"note":26,"tick":109109,"time":142.06901041666666,"type":"noteOff","velocity":0},{"channel":2,"nextOffset":30151,"note":33,"tick":109109,"time":142.06901041666666,"type":"noteOn","velocity":57},{"channel":7,"nextOffset":40031,"note":86,"tick":109113,"time":142.07421875,"type":"noteOn","velocity":50},{"channel":9,"nextOffset":26052,"note":35,"tick":109126,"time":142.09114583333334,"type":"noteOff","velocity":0},{"channel":9,"nextOffset":34834,"note":42,"tick":109152,"time":142.125,"type":"noteOff","velocity":0},{"channel":9,"nextOffset":34838,"note":42,"tick":109152,"time":142.125,"type":"noteOn","velocity":50},{"channel":9,"nextOffset":34842,"note":42,"tick":109176,"time":142.15625,"type":"noteOff","velocity":0},{"channel":9,"nextOffset":47214,"note":42,"tick":109184,"time":142.16666666666666,"type":"noteOff","velocity":0},{"channel":0,"nextOffset":7109,"note":43,"tick":109193,"time":142.17838541666666,"type":"noteOff","velocity":0},{"channel":0,"nextOffset":7113,"note":44,"tick":109193,"time":142.17838541666666,"type":"noteOn","velocity":68},{"channel":0,"nextOffset":7117,"note":65,"tick":109193,"time":142.17838541666666,"type":"noteOn","velocity":68},{"channel":9,"nextOffset":34846,"note":42,"tick":109200,"time":142.1875,"type":"noteOn","velocity":50},{"channel":7,"nextOffset":40035,"note":86,"tick":109209,"time":142.19921875,"type":"noteOff","velocity":0},{"channel":7,"nextOffset":40039,"note":89,"tick":109209,"time":142.19921875,"type":"noteOn","velocity":50},{"channel":1,"nextOffset":18591,"note":26,"tick":109213,"time":142.20442708333334,"type":"noteOff","velocity":0},{"channel":1,"nextOffset":18595,"note":33,"tick":109213,"time":142.20442708333334,"type":"noteOn","velocity":50},{"channel":9,"nextOffset":34850,"note":42,"tick":109224,"time":142.21875,"type":"noteOff","velocity":0},{"channel":9,"nextOffset":34854,"note":42,"tick":109248,"time":142.25,"type":"noteOn","velocity":50},{"channel":10,"nextOffset":41553,"note":86,"tick":109249,"time":142.25130208333334,"type":"noteOn","velocity":50},{"channel":9,"nextOffset":34858,"note":42,"tick":109272,"time":142.28125,"type":"noteOff","velocity":0},{"channel":0,"nextOffset":7121,"note":65,"tick":109289,"time":142.30338541666666,"type":"noteOff","velocity":0},{"channel":0,"nextOffset":7125,"note":69,"tick":109289,"time":142.30338541666666,"type":"noteOn","velocity":68},{"channel":9,"nextOffset":34862,"note":42,"tick":109296,"time":142.3125,"type":"noteOn","velocity":50},{"channel":2,"nextOffset":30156,"note":33,"tick":109301,"time":142.31901041666666,"type":"noteOff","velocity":0},{"channel":2,"nextOffset":30160,"note":32,"tick":109301,"time":142.31901041666666,"type":"noteOn","velocity":57},{"channel":7,"nextOffset":40043,"note":89,"tick":109305,"time":142.32421875,"type":"noteOff","velocity":0},{"channel":7,"nextOffset":40047,"note":91,"tick":109305,"time":142.32421875,"type":"noteOn","velocity":50},{"channel":9,"nextOffset":22216,"note":35,"tick":109310,"time":142.33072916666666,"type":"noteOn","velocity":50},{"channel":9,"nextOffset":34866,"note":42,"tick":109320,"time":142.34375,"type":"noteOff","velocity":0},{"channel":9,"nextOffset":34870,"note":42,"tick":109344,"time":142.375,"type":"noteOn","velocity":50},{"channel":10,"nextOffset":41557,"note":86,"tick":109345,"time":142.37630208333334,"type":"noteOff","velocity":0},{"channel":10,"nextOffset":41561,"note":89,"tick":109345,"time":142.37630208333334,"type":"noteOn","velocity":50},{"channel":9,"nextOffset":34874,"note":42,"tick":109368,"time":142.40625,"type":"noteOff","velocity":0},{"channel":9,"nextOffset":47219,"note":42,"tick":109376,"time":142.41666666666666,"type":"noteOn","velocity":50},{"channel":0,"nextOffset":7129,"note":44,"tick":109385,"time":142.42838541666666,"type":"noteOff","velocity":0},{"channel":0,"nextOffset":7133,"note":69,"tick":109385,"time":142.42838541666666,"type":"noteOff","velocity":0},{"channel":0,"nextOffset":7137,"note":45,"tick":109385,"time":142.42838541666666,"type":"noteOn","velocity":68},{"channel":0,"nextOffset":7141,"note":72,"tick":109385,"time":142.42838541666666,"type":"noteOn","velocity":68},{"channel":0,"nextOffset":7145,"note":67,"tick":109385,"time":142.42838541666666,"type":"noteOn","velocity":68},{"channel":0,"nextOffset":7149,"note":64,"tick":109385,"time":142.42838541666666,"type":"noteOn","velocity":68},{"channel":0,"nextOffset":7153,"note":60,"tick":109385,"time":142.42838541666666,"type":"noteOn","velocity":68},{"channel":7,"nextOffset":40051,"note":91,"tick":109401,"time":142.44921875,"type":"noteOff","velocity":0},{"channel":1,"nextOffset":18600,"note":33,"tick":109405,"time":142.45442708333334,"type":"noteOff","velocity":0},{"channel":1,"nextOffset":18604,"note":32,"tick":109405,"time":142.45442708333334,"type":"noteOn","velocity":50},{"channel":9,"nextOffset":22220,"note":35,"tick":109406,"time":142.45572916666666,"type":"noteOff","velocity":0},{"channel":9,"nextOffset":26057,"note":35,"tick":109414,"time":142.46614583333334,"type":"noteOn","velocity":50},{"channel":10,"nextOffset":41565,"note":89,"tick":109441,"time":142.50130208333334,"type":"noteOff","velocity":0},{"channel":10,"nextOffset":41569,"note":91,"tick":109441,"time":142.50130208333334,"type":"noteOn","velocity":50},{"channel":9,"nextOffset":47223,"note":42,"tick":109472,"time":142.54166666666666,"type":"noteOff","velocity":0},{"channel":2,"nextOffset":30165,"note":32,"tick":109493,"time":142.56901041666666,"type":"noteOff","velocity":0},{"channel":2,"nextOffset":30169,"note":31,"tick":109493,"time":142.56901041666666,"type":"noteOn","velocity":57},{"channel":7,"nextOffset":40055,"note":93,"tick":109497,"time":142.57421875,"type":"noteOn","velocity":50},{"channel":9,"nextOffset":26061,"note":35,"tick":109510,"time":142.59114583333334,"type":"noteOff","velocity":0},{"channel":9,"nextOffset":34879,"note":42,"tick":109536,"time":142.625,"type":"noteOn","velocity":50},{"channel":10,"nextOffset":41573,"note":91,"tick":109537,"time":142.62630208333334,"type":"noteOff","velocity":0},{"channel":0,"nextOffset":7158,"note":60,"tick":109577,"time":142.67838541666666,"type":"noteOff","velocity":0},{"channel":0,"nextOffset":7162,"note":64,"tick":109577,"time":142.67838541666666,"type":"noteOff","velocity":0},{"channel":0,"nextOffset":7166,"note":67,"tick":109577,"time":142.67838541666666,"type":"noteOff","velocity":0},{"channel":0,"nextOffset":7170,"note":72,"tick":109577,"time":142.67838541666666,"type":"noteOff","velocity":0},{"channel":0,"nextOffset":7174,"note":45,"tick":109577,"time":142.67838541666666,"type":"noteOff","velocity":0},{"channel":7,"nextOffset":40059,"note":93,"tick":109593,"time":142.69921875,"type":"noteOff","velocity":0},{"channel":1,"nextOffset":18609,"note":32,"tick":109597,"time":142.70442708333334,"type":"noteOff","velocity":0},{"channel":1,"nextOffset":18613,"note":31,"tick":109597,"time":142.70442708333334,"type":"noteOn","velocity":50},{"channel":9,"nextOffset":22225,"note":35,"tick":109598,"time":142.70572916666666,"type":"noteOn","velocity":50},{"channel":9,"nextOffset":34883,"note":42,"tick":109632,"time":142.75,"type":"noteOff","velocity":0},{"channel":10,"nextOffset":41577,"note":93,"tick":109633,"time":142.75130208333334,"type":"noteOn","velocity":50},{"channel":9,"nextOffset":47228,"note":42,"tick":109664,"time":142.79166666666666,"type":"noteOn","velocity":50},{"channel":0,"nextOffset":7178,"note":45,"tick":109673,"time":142.80338541666666,"type":"noteOn","velocity":68},{"channel":0,"nextOffset":7182,"note":61,"tick":109673,"time":142.80338541666666,"type":"noteOn","velocity":68},{"channel":0,"nextOffset":7186,"note":65,"tick":109673,"time":142.80338541666666,"type":"noteOn","velocity":68},{"channel":0,"nextOffset":7190,"note":67,"tick":109673,"time":142.80338541666666,"type":"noteOn","velocity":68},{"channel":0,"nextOffset":7194,"note":70,"tick":109673,"time":142.80338541666666,"type":"noteOn","velocity":68},{"channel":2,"nextOffset":30174,"note":31,"tick":109685,"time":142.81901041666666,"type":"noteOff","velocity":0},{"channel":7,"nextOffset":40063,"note":95,"tick":109689,"time":142.82421875,"type":"noteOn","velocity":50},{"channel":9,"nextOffset":22229,"note":35,"tick":109694,"time":142.83072916666666,"type":"noteOff","velocity":0},{"channel":9,"nextOffset":26066,"note":35,"tick":109702,"time":142.84114583333334,"type":"noteOn","velocity":50},{"channel":10,"nextOffset":41581,"note":93,"tick":109729,"time":142.87630208333334,"type":"noteOff","velocity":0},{"channel":9,"nextOffset":47232,"note":42,"tick":109760,"time":142.91666666666666,"type":"noteOff","velocity":0},{"channel":9,"nextOffset":47236,"note":42,"tick":109760,"time":142.91666666666666,"type":"noteOn","velocity":50},{"channel":0,"nextOffset":7198,"note":45,"tick":109769,"time":142.92838541666666,"type":"noteOff","velocity":0},{"channel":9,"nextOffset":47240,"note":42,"tick":109784,"time":142.94791666666666,"type":"noteOff","velocity":0},{"channel":7,"nextOffset":40067,"note":95,"tick":109785,"time":142.94921875,"type":"noteOff","velocity":0},{"channel":1,"nextOffset":18618,"note":31,"tick":109789,"time":142.95442708333334,"type":"noteOff","velocity":0},{"channel":9,"nextOffset":26070,"note":35,"tick":109798,"time":142.96614583333334,"type":"noteOff","velocity":0},{"channel":9,"nextOffset":47244,"note":42,"tick":109808,"time":142.97916666666666,"type":"noteOn","velocity":50},{"channel":10,"nextOffset":41585,"note":95,"tick":109825,"time":143.00130208333334,"type":"noteOn","velocity":50},{"channel":9,"nextOffset":47248,"note":42,"tick":109832,"time":143.01041666666666,"type":"noteOff","velocity":0},{"channel":9,"nextOffset":47252,"note":42,"tick":109856,"time":143.04166666666666,"type":"noteOn","velocity":50},{"channel":0,"nextOffset":7202,"note":70,"tick":109865,"time":143.05338541666666,"type":"noteOff","velocity":0},{"channel":0,"nextOffset":7206,"note":67,"tick":109865,"time":143.05338541666666,"type":"noteOff","velocity":0},{"channel":0,"nextOffset":7210,"note":65,"tick":109865,"time":143.05338541666666,"type":"noteOff","velocity":0},{"channel":0,"nextOffset":7214,"note":61,"tick":109865,"time":143.05338541666666,"type":"noteOff","velocity":0},{"channel":2,"nextOffset":30179,"note":31,"tick":109877,"time":143.06901041666666,"type":"noteOn","velocity":57},{"channel":9,"nextOffset":47256,"note":42,"tick":109880,"time":143.07291666666666,"type":"noteOff","velocity":0},{"channel":7,"nextOffset":40071,"note":94,"tick":109881,"time":143.07421875,"type":"noteOn","velocity":50},{"channel":9,"nextOffset":22234,"note":35,"tick":109886,"time":143.08072916666666,"type":"noteOn","velocity":50},{"channel":9,"nextOffset":47260,"note":42,"tick":109904,"time":143.10416666666666,"type":"noteOn","velocity":50},{"channel":9,"nextOffset":34888,"note":42,"tick":109920,"time":143.125,"type":"noteOn","velocity":50},{"channel":10,"nextOffset":41589,"note":95,"tick":109921,"time":143.12630208333334,"type":"noteOff","velocity":0},{"channel":9,"nextOffset":47264,"note":42,"tick":109928,"time":143.13541666666666,"type":"noteOff","velocity":0},{"channel":9,"nextOffset":47268,"note":42,"tick":109952,"time":143.16666666666666,"type":"noteOn","velocity":50},{"channel":0,"nextOffset":7218,"note":38,"tick":109961,"time":143.17838541666666,"type":"noteOn","velocity":68},{"channel":0,"nextOffset":7222,"note":60,"tick":109961,"time":143.17838541666666,"type":"noteOn","velocity":68},{"channel":0,"nextOffset":7226,"note":64,"tick":109961,"time":143.17838541666666,"type":"noteOn","velocity":68},{"channel":0,"nextOffset":7230,"note":65,"tick":109961,"time":143.17838541666666,"type":"noteOn","velocity":68},{"channel":0,"nextOffset":7234,"note":69,"tick":109961,"time":143.17838541666666,"type":"noteOn","velocity":68},{"channel":9,"nextOffset":47272,"note":42,"tick":109976,"time":143.19791666666666,"type":"noteOff","velocity":0},{"channel":7,"nextOffset":40075,"note":94,"tick":109977,"time":143.19921875,"type":"noteOff","velocity":0},{"channel":1,"nextOffset":18623,"note":31,"tick":109981,"time":143.20442708333334,"type":"noteOn","velocity":50},{"channel":9,"nextOffset":22238,"note":35,"tick":109982,"time":143.20572916666666,"type":"noteOff","velocity":0},{"channel":9,"nextOffset":26075,"note":35,"tick":109990,"time":143.21614583333334,"type":"noteOn","velocity":50},{"channel":9,"nextOffset":34892,"note":42,"tick":110016,"time":143.25,"type":"noteOff","velocity":0},{"channel":9,"nextOffset":34896,"note":42,"tick":110016,"time":143.25,"type":"noteOn","velocity":50},{"channel":10,"nextOffset":41593,"note":94,"tick":110017,"time":143.25130208333334,"type":"noteOn","velocity":50},{"channel":2,"nextOffset":30184,"note":31,"tick":110069,"time":143.31901041666666,"type":"noteOff","velocity":0},{"channel":2,"nextOffset":30188,"note":32,"tick":110069,"time":143.31901041666666,"type":"noteOn","velocity":57},{"channel":7,"nextOffset":40079,"note":93,"tick":110073,"time":143.32421875,"type":"noteOn","velocity":50},{"channel":9,"nextOffset":22242,"note":35,"tick":110078,"time":143.33072916666666,"type":"noteOn","velocity":50},{"channel":9,"nextOffset":26079,"note":35,"tick":110086,"time":143.34114583333334,"type":"noteOff","velocity":0},{"channel":9,"nextOffset":34900,"note":42,"tick":110112,"time":143.375,"type":"noteOff","velocity":0},{"channel":10,"nextOffset":41597,"note":94,"tick":110113,"time":143.37630208333334,"type":"noteOff","velocity":0},{"channel":9,"nextOffset":47277,"note":42,"tick":110144,"time":143.41666666666666,"type":"noteOn","velocity":50},{"channel":0,"nextOffset":7239,"note":69,"tick":110153,"time":143.42838541666666,"type":"noteOff","velocity":0},{"channel":0,"nextOffset":7243,"note":65,"tick":110153,"time":143.42838541666666,"type":"noteOff","velocity":0},{"channel":0,"nextOffset":7247,"note":64,"tick":110153,"time":143.42838541666666,"type":"noteOff","velocity":0},{"channel":0,"nextOffset":7251,"note":60,"tick":110153,"time":143.42838541666666,"type":"noteOff","velocity":0},{"channel":0,"nextOffset":7255,"note":38,"tick":110153,"time":143.42838541666666,"type":"noteOff","velocity":0},{"channel":0,"nextOffset":7259,"note":76,"tick":110153,"time":143.42838541666666,"type":"noteOn","velocity":68},{"channel":7,"nextOffset":40083,"note":93,"tick":110169,"time":143.44921875,"type":"noteOff","velocity":0},{"channel":1,"nextOffset":18628,"note":31,"tick":110173,"time":143.45442708333334,"type":"noteOff","velocity":0},{"channel":1,"nextOffset":18632,"note":32,"tick":110173,"time":143.45442708333334,"type":"noteOn","velocity":50},{"channel":9,"nextOffset":22246,"note":35,"tick":110174,"time":143.45572916666666,"type":"noteOff","velocity":0},{"channel":9,"nextOffset":26083,"note":35,"tick":110182,"time":143.46614583333334,"type":"noteOn","velocity":50},{"channel":10,"nextOffset":41601,"note":93,"tick":110209,"time":143.50130208333334,"type":"noteOn","velocity":50},{"channel":9,"nextOffset":47281,"note":42,"tick":110240,"time":143.54166666666666,"type":"noteOff","velocity":0},{"channel":9,"nextOffset":47285,"note":42,"tick":110240,"time":143.54166666666666,"type":"noteOn","velocity":50},{"channel":0,"nextOffset":7263,"note":76,"tick":110249,"time":143.55338541666666,"type":"noteOff","velocity":0},{"channel":0,"nextOffset":7267,"note":77,"tick":110249,"time":143.55338541666666,"type":"noteOn","velocity":68},{"channel":2,"nextOffset":30193,"note":32,"tick":110261,"time":143.56901041666666,"type":"noteOff","velocity":0},{"channel":2,"nextOffset":30197,"note":33,"tick":110261,"time":143.56901041666666,"type":"noteOn","velocity":57},{"channel":2,"nextOffset":30201,"note":33,"tick":110261,"time":143.56901041666666,"type":"noteOn","velocity":57},{"channel":7,"nextOffset":40087,"note":92,"tick":110265,"time":143.57421875,"type":"noteOn","velocity":50},{"channel":9,"nextOffset":26087,"note":35,"tick":110278,"time":143.59114583333334,"type":"noteOff","velocity":0},{"channel":9,"nextOffset":34905,"note":42,"tick":110304,"time":143.625,"type":"noteOn","velocity":50},{"channel":10,"nextOffset":41605,"note":93,"tick":110305,"time":143.62630208333334,"type":"noteOff","velocity":0},{"channel":9,"nextOffset":47289,"note":42,"tick":110336,"time":143.66666666666666,"type":"noteOff","velocity":0},{"channel":0,"nextOffset":7271,"note":77,"tick":110345,"time":143.67838541666666,"type":"noteOff","velocity":0},{"channel":0,"nextOffset":7275,"note":76,"tick":110345,"time":143.67838541666666,"type":"noteOn","velocity":68},{"channel":7,"nextOffset":40091,"note":92,"tick":110361,"time":143.69921875,"type":"noteOff","velocity":0},{"channel":1,"nextOffset":18637,"note":32,"tick":110365,"time":143.70442708333334,"type":"noteOff","velocity":0},{"channel":1,"nextOffset":18641,"note":33,"tick":110365,"time":143.70442708333334,"type":"noteOn","velocity":50},{"channel":1,"nextOffset":18645,"note":33,"tick":110365,"time":143.70442708333334,"type":"noteOn","velocity":50},{"channel":9,"nextOffset":34909,"note":42,"tick":110400,"time":143.75,"type":"noteOff","velocity":0},{"channel":10,"nextOffset":41609,"note":92,"tick":110401,"time":143.75130208333334,"type":"noteOn","velocity":50},{"channel":0,"nextOffset":7279,"note":76,"tick":110441,"time":143.80338541666666,"type":"noteOff","velocity":0},{"channel":0,"nextOffset":7283,"note":72,"tick":110441,"time":143.80338541666666,"type":"noteOn","velocity":68},{"channel":2,"nextOffset":30206,"note":33,"tick":110453,"time":143.81901041666666,"type":"noteOff","velocity":0},{"channel":2,"nextOffset":30210,"note":33,"tick":110453,"time":143.81901041666666,"type":"noteOff","velocity":0},{"channel":9,"nextOffset":22251,"note":35,"tick":110462,"time":143.83072916666666,"type":"noteOn","velocity":50},{"channel":10,"nextOffset":41613,"note":92,"tick":110497,"time":143.87630208333334,"type":"noteOff","velocity":0},{"channel":9,"nextOffset":47294,"note":42,"tick":110528,"time":143.91666666666666,"type":"noteOn","velocity":50},{"channel":0,"nextOffset":7287,"note":72,"tick":110537,"time":143.92838541666666,"type":"noteOff","velocity":0},{"channel":0,"nextOffset":7291,"note":76,"tick":110537,"time":143.92838541666666,"type":"noteOn","velocity":68},{"channel":2,"nextOffset":30214,"note":33,"tick":110549,"time":143.94401041666666,"type":"noteOn","velocity":57},{"channel":1,"nextOffset":18650,"note":33,"tick":110557,"time":143.95442708333334,"type":"noteOff","velocity":0},{"channel":1,"nextOffset":18654,"note":33,"tick":110557,"time":143.95442708333334,"type":"noteOff","velocity":0},{"channel":9,"nextOffset":22255,"note":35,"tick":110558,"time":143.95572916666666,"type":"noteOff","velocity":0},{"channel":9,"nextOffset":26092,"note":35,"tick":110566,"time":143.96614583333334,"type":"noteOn","velocity":50},{"channel":9,"nextOffset":34914,"note":42,"tick":110592,"time":144,"type":"noteOn","velocity":50},{"channel":9,"nextOffset":47298,"note":42,"tick":110624,"time":144.04166666666666,"type":"noteOff","velocity":0},{"channel":9,"nextOffset":47302,"note":42,"tick":110624,"time":144.04166666666666,"type":"noteOn","velocity":50},{"channel":0,"nextOffset":7295,"note":76,"tick":110633,"time":144.05338541666666,"type":"noteOff","velocity":0},{"channel":0,"nextOffset":7299,"note":72,"tick":110633,"time":144.05338541666666,"type":"noteOn","velocity":68},{"channel":2,"nextOffset":30218,"note":33,"tick":110645,"time":144.06901041666666,"type":"noteOff","velocity":0},{"channel":1,"nextOffset":18658,"note":33,"tick":110653,"time":144.07942708333334,"type":"noteOn","velocity":50},{"channel":9,"nextOffset":26096,"note":35,"tick":110662,"time":144.09114583333334,"type":"noteOff","velocity":0},{"channel":9,"nextOffset":34918,"note":42,"tick":110688,"time":144.125,"type":"noteOff","velocity":0},{"channel":9,"nextOffset":34922,"note":42,"tick":110688,"time":144.125,"type":"noteOn","velocity":50},{"channel":9,"nextOffset":34926,"note":42,"tick":110712,"time":144.15625,"type":"noteOff","velocity":0},{"channel":9,"nextOffset":47306,"note":42,"tick":110720,"time":144.16666666666666,"type":"noteOff","velocity":0},{"channel":0,"nextOffset":7303,"note":72,"tick":110729,"time":144.17838541666666,"type":"noteOff","velocity":0},{"channel":0,"nextOffset":7307,"note":69,"tick":110729,"time":144.17838541666666,"type":"noteOn","velocity":68},{"channel":0,"nextOffset":7311,"note":45,"tick":110729,"time":144.17838541666666,"type":"noteOn","velocity":68},{"channel":9,"nextOffset":34930,"note":42,"tick":110736,"time":144.1875,"type":"noteOn","velocity":50},{"channel":1,"nextOffset":18662,"note":33,"tick":110749,"time":144.20442708333334,"type":"noteOff","velocity":0},{"channel":9,"nextOffset":26100,"note":42,"tick":110758,"time":144.21614583333334,"type":"noteOn","velocity":50},{"channel":9,"nextOffset":34934,"note":42,"tick":110760,"time":144.21875,"type":"noteOff","velocity":0},{"channel":9,"nextOffset":34938,"note":42,"tick":110784,"time":144.25,"type":"noteOn","velocity":50},{"channel":9,"nextOffset":34942,"note":42,"tick":110808,"time":144.28125,"type":"noteOff","velocity":0},{"channel":0,"nextOffset":7315,"note":69,"tick":110825,"time":144.30338541666666,"type":"noteOff","velocity":0},{"channel":0,"nextOffset":7319,"note":67,"tick":110825,"time":144.30338541666666,"type":"noteOn","velocity":68},{"channel":9,"nextOffset":34946,"note":42,"tick":110832,"time":144.3125,"type":"noteOn","velocity":50},{"channel":2,"nextOffset":30223,"note":26,"tick":110837,"time":144.31901041666666,"type":"noteOn","velocity":57},{"channel":9,"nextOffset":22260,"note":35,"tick":110846,"time":144.33072916666666,"type":"noteOn","velocity":50},{"channel":9,"nextOffset":26104,"note":42,"tick":110854,"time":144.34114583333334,"type":"noteOff","velocity":0},{"channel":9,"nextOffset":34950,"note":42,"tick":110856,"time":144.34375,"type":"noteOff","velocity":0},{"channel":9,"nextOffset":47311,"note":42,"tick":110912,"time":144.41666666666666,"type":"noteOn","velocity":50},{"channel":0,"nextOffset":7323,"note":45,"tick":110921,"time":144.42838541666666,"type":"noteOff","velocity":0},{"channel":0,"nextOffset":7327,"note":67,"tick":110921,"time":144.42838541666666,"type":"noteOff","velocity":0},{"channel":0,"nextOffset":7331,"note":69,"tick":110921,"time":144.42838541666666,"type":"noteOn","velocity":68},{"channel":0,"nextOffset":7335,"note":50,"tick":110921,"time":144.42838541666666,"type":"noteOn","velocity":68},{"channel":1,"nextOffset":18667,"note":26,"tick":110941,"time":144.45442708333334,"type":"noteOn","velocity":50},{"channel":9,"nextOffset":22264,"note":35,"tick":110942,"time":144.45572916666666,"type":"noteOff","velocity":0},{"channel":9,"nextOffset":26108,"note":35,"tick":110950,"time":144.46614583333334,"type":"noteOn","velocity":50},{"channel":9,"nextOffset":47315,"note":42,"tick":111008,"time":144.54166666666666,"type":"noteOff","velocity":0},{"channel":0,"nextOffset":7339,"note":69,"tick":111017,"time":144.55338541666666,"type":"noteOff","velocity":0},{"channel":0,"nextOffset":7343,"note":62,"tick":111017,"time":144.55338541666666,"type":"noteOn","velocity":68},{"channel":2,"nextOffset":30228,"note":26,"tick":111029,"time":144.56901041666666,"type":"noteOff","velocity":0},{"channel":9,"nextOffset":26112,"note":35,"tick":111046,"time":144.59114583333334,"type":"noteOff","velocity":0},{"channel":9,"nextOffset":34955,"note":42,"tick":111072,"time":144.625,"type":"noteOn","velocity":50},{"channel":0,"nextOffset":7347,"note":50,"tick":111113,"time":144.67838541666666,"type":"noteOff","velocity":0},{"channel":0,"nextOffset":7351,"note":62,"tick":111113,"time":144.67838541666666,"type":"noteOff","velocity":0},{"channel":0,"nextOffset":7355,"note":60,"tick":111113,"time":144.67838541666666,"type":"noteOn","velocity":68},{"channel":0,"nextOffset":7359,"note":38,"tick":111113,"time":144.67838541666666,"type":"noteOn","velocity":68},{"channel":1,"nextOffset":18672,"note":26,"tick":111133,"time":144.70442708333334,"type":"noteOff","velocity":0},{"channel":9,"nextOffset":22269,"note":35,"tick":111134,"time":144.70572916666666,"type":"noteOn","velocity":50},{"channel":9,"nextOffset":34959,"note":42,"tick":111168,"time":144.75,"type":"noteOff","velocity":0},{"channel":9,"nextOffset":34963,"note":42,"tick":111168,"time":144.75,"type":"noteOn","velocity":50},{"channel":9,"nextOffset":47320,"note":42,"tick":111200,"time":144.79166666666666,"type":"noteOn","velocity":50},{"channel":0,"nextOffset":7363,"note":60,"tick":111209,"time":144.80338541666666,"type":"noteOff","velocity":0},{"channel":0,"nextOffset":7367,"note":65,"tick":111209,"time":144.80338541666666,"type":"noteOn","velocity":68},{"channel":2,"nextOffset":30233,"note":26,"tick":111221,"time":144.81901041666666,"type":"noteOn","velocity":57},{"channel":9,"nextOffset":22273,"note":35,"tick":111230,"time":144.83072916666666,"type":"noteOff","velocity":0},{"channel":9,"nextOffset":26117,"note":35,"tick":111238,"time":144.84114583333334,"type":"noteOn","velocity":50},{"channel":9,"nextOffset":34967,"note":42,"tick":111264,"time":144.875,"type":"noteOff","velocity":0},{"channel":9,"nextOffset":47324,"note":42,"tick":111296,"time":144.91666666666666,"type":"noteOff","velocity":0},{"channel":9,"nextOffset":47328,"note":42,"tick":111296,"time":144.91666666666666,"type":"noteOn","velocity":50},{"channel":0,"nextOffset":7371,"note":38,"tick":111305,"time":144.92838541666666,"type":"noteOff","velocity":0},{"channel":0,"nextOffset":7375,"note":65,"tick":111305,"time":144.92838541666666,"type":"noteOff","velocity":0},{"channel":0,"nextOffset":7379,"note":64,"tick":111305,"time":144.92838541666666,"type":"noteOn","velocity":68},{"channel":0,"nextOffset":7383,"note":60,"tick":111305,"time":144.92838541666666,"type":"noteOn","velocity":68},{"channel":0,"nextOffset":7387,"note":69,"tick":111305,"time":144.92838541666666,"type":"noteOn","velocity":68},{"channel":0,"nextOffset":7391,"note":45,"tick":111305,"time":144.92838541666666,"type":"noteOn","velocity":68},{"channel":9,"nextOffset":47332,"note":42,"tick":111320,"time":144.94791666666666,"type":"noteOff","velocity":0},{"channel":1,"nextOffset":18677,"note":26,"tick":111325,"time":144.95442708333334,"type":"noteOn","velocity":50},{"channel":9,"nextOffset":26121,"note":35,"tick":111334,"time":144.96614583333334,"type":"noteOff","velocity":0},{"channel":9,"nextOffset":47336,"note":42,"tick":111344,"time":144.97916666666666,"type":"noteOn","velocity":50},{"channel":9,"nextOffset":47340,"note":42,"tick":111368,"time":145.01041666666666,"type":"noteOff","velocity":0},{"channel":9,"nextOffset":47344,"note":42,"tick":111392,"time":145.04166666666666,"type":"noteOn","velocity":50},{"channel":2,"nextOffset":30238,"note":26,"tick":111413,"time":145.06901041666666,"type":"noteOff","velocity":0},{"channel":2,"nextOffset":30242,"note":33,"tick":111413,"time":145.06901041666666,"type":"noteOn","velocity":57},{"channel":9,"nextOffset":47348,"note":42,"tick":111416,"time":145.07291666666666,"type":"noteOff","velocity":0},{"channel":9,"nextOffset":22278,"note":35,"tick":111422,"time":145.08072916666666,"type":"noteOn","velocity":50},{"channel":9,"nextOffset":47352,"note":42,"tick":111440,"time":145.10416666666666,"type":"noteOn","velocity":50},{"channel":9,"nextOffset":34972,"note":42,"tick":111456,"time":145.125,"type":"noteOn","velocity":50},{"channel":9,"nextOffset":47356,"note":42,"tick":111464,"time":145.13541666666666,"type":"noteOff","velocity":0},{"channel":9,"nextOffset":47360,"note":42,"tick":111488,"time":145.16666666666666,"type":"noteOn","velocity":50},{"channel":0,"nextOffset":7396,"note":45,"tick":111497,"time":145.17838541666666,"type":"noteOff","velocity":0},{"channel":0,"nextOffset":7400,"note":69,"tick":111497,"time":145.17838541666666,"type":"noteOff","velocity":0},{"channel":0,"nextOffset":7404,"note":60,"tick":111497,"time":145.17838541666666,"type":"noteOff","velocity":0},{"channel":0,"nextOffset":7408,"note":64,"tick":111497,"time":145.17838541666666,"type":"noteOff","velocity":0},{"channel":0,"nextOffset":7412,"note":59,"tick":111497,"time":145.17838541666666,"type":"noteOn","velocity":68},{"channel":0,"nextOffset":7416,"note":63,"tick":111497,"time":145.17838541666666,"type":"noteOn","velocity":68},{"channel":0,"nextOffset":7420,"note":68,"tick":111497,"time":145.17838541666666,"type":"noteOn","velocity":68},{"channel":0,"nextOffset":7424,"note":44,"tick":111497,"time":145.17838541666666,"type":"noteOn","velocity":68},{"channel":9,"nextOffset":47364,"note":42,"tick":111512,"time":145.19791666666666,"type":"noteOff","velocity":0},{"channel":1,"nextOffset":18682,"note":26,"tick":111517,"time":145.20442708333334,"type":"noteOff","velocity":0},{"channel":1,"nextOffset":18686,"note":33,"tick":111517,"time":145.20442708333334,"type":"noteOn","velocity":50},{"channel":9,"nextOffset":22282,"note":35,"tick":111518,"time":145.20572916666666,"type":"noteOff","velocity":0},{"channel":9,"nextOffset":26126,"note":35,"tick":111526,"time":145.21614583333334,"type":"noteOn","velocity":50},{"channel":9,"nextOffset":34976,"note":42,"tick":111552,"time":145.25,"type":"noteOff","velocity":0},{"channel":9,"nextOffset":34980,"note":42,"tick":111552,"time":145.25,"type":"noteOn","velocity":50},{"channel":2,"nextOffset":30247,"note":33,"tick":111605,"time":145.31901041666666,"type":"noteOff","velocity":0},{"channel":2,"nextOffset":30251,"note":26,"tick":111605,"time":145.31901041666666,"type":"noteOn","velocity":57},{"channel":9,"nextOffset":22286,"note":35,"tick":111614,"time":145.33072916666666,"type":"noteOn","velocity":50},{"channel":9,"nextOffset":26130,"note":35,"tick":111622,"time":145.34114583333334,"type":"noteOff","velocity":0},{"channel":9,"nextOffset":34984,"note":42,"tick":111648,"time":145.375,"type":"noteOff","velocity":0},{"channel":9,"nextOffset":47369,"note":42,"tick":111680,"time":145.41666666666666,"type":"noteOn","velocity":50},{"channel":0,"nextOffset":7429,"note":44,"tick":111689,"time":145.42838541666666,"type":"noteOff","velocity":0},{"channel":0,"nextOffset":7433,"note":68,"tick":111689,"time":145.42838541666666,"type":"noteOff","velocity":0},{"channel":0,"nextOffset":7437,"note":63,"tick":111689,"time":145.42838541666666,"type":"noteOff","velocity":0},{"channel":0,"nextOffset":7441,"note":59,"tick":111689,"time":145.42838541666666,"type":"noteOff","velocity":0},{"channel":0,"nextOffset":7445,"note":43,"tick":111689,"time":145.42838541666666,"type":"noteOn","velocity":68},{"channel":0,"nextOffset":7449,"note":58,"tick":111689,"time":145.42838541666666,"type":"noteOn","velocity":68},{"channel":0,"nextOffset":7453,"note":62,"tick":111689,"time":145.42838541666666,"type":"noteOn","velocity":68},{"channel":0,"nextOffset":7457,"note":65,"tick":111689,"time":145.42838541666666,"type":"noteOn","velocity":68},{"channel":0,"nextOffset":7461,"note":69,"tick":111689,"time":145.42838541666666,"type":"noteOn","velocity":68},{"channel":1,"nextOffset":18691,"note":33,"tick":111709,"time":145.45442708333334,"type":"noteOff","velocity":0},{"channel":1,"nextOffset":18695,"note":26,"tick":111709,"time":145.45442708333334,"type":"noteOn","velocity":50},{"channel":9,"nextOffset":22290,"note":35,"tick":111710,"time":145.45572916666666,"type":"noteOff","velocity":0},{"channel":9,"nextOffset":26134,"note":35,"tick":111718,"time":145.46614583333334,"type":"noteOn","velocity":50},{"channel":9,"nextOffset":47373,"note":42,"tick":111776,"time":145.54166666666666,"type":"noteOff","velocity":0},{"channel":9,"nextOffset":47377,"note":42,"tick":111776,"time":145.54166666666666,"type":"noteOn","velocity":50},{"channel":2,"nextOffset":30256,"note":26,"tick":111797,"time":145.56901041666666,"type":"noteOff","velocity":0},{"channel":9,"nextOffset":26138,"note":35,"tick":111814,"time":145.59114583333334,"type":"noteOff","velocity":0},{"channel":9,"nextOffset":34989,"note":42,"tick":111840,"time":145.625,"type":"noteOn","velocity":50},{"channel":9,"nextOffset":47381,"note":42,"tick":111872,"time":145.66666666666666,"type":"noteOff","velocity":0},{"channel":0,"nextOffset":7466,"note":43,"tick":111881,"time":145.67838541666666,"type":"noteOff","velocity":0},{"channel":0,"nextOffset":7470,"note":50,"tick":111881,"time":145.67838541666666,"type":"noteOn","velocity":68},{"channel":1,"nextOffset":18700,"note":26,"tick":111901,"time":145.70442708333334,"type":"noteOff","velocity":0},{"channel":9,"nextOffset":34993,"note":42,"tick":111936,"time":145.75,"type":"noteOff","velocity":0},{"channel":2,"nextOffset":30261,"note":26,"tick":111989,"time":145.81901041666666,"type":"noteOn","velocity":57},{"channel":9,"nextOffset":22295,"note":35,"tick":111998,"time":145.83072916666666,"type":"noteOn","velocity":50},{"channel":9,"nextOffset":47386,"note":42,"tick":112064,"time":145.91666666666666,"type":"noteOn","velocity":50},{"channel":0,"nextOffset":7475,"note":69,"tick":112073,"time":145.92838541666666,"type":"noteOff","velocity":0},{"channel":0,"nextOffset":7479,"note":65,"tick":112073,"time":145.92838541666666,"type":"noteOff","velocity":0},{"channel":0,"nextOffset":7483,"note":62,"tick":112073,"time":145.92838541666666,"type":"noteOff","velocity":0},{"channel":0,"nextOffset":7487,"note":58,"tick":112073,"time":145.92838541666666,"type":"noteOff","velocity":0},{"channel":0,"nextOffset":7491,"note":50,"tick":112073,"time":145.92838541666666,"type":"noteOff","velocity":0},{"channel":0,"nextOffset":7495,"note":43,"tick":112073,"time":145.92838541666666,"type":"noteOn","velocity":68},{"channel":1,"nextOffset":18705,"note":26,"tick":112093,"time":145.95442708333334,"type":"noteOn","velocity":50},{"channel":9,"nextOffset":22299,"note":35,"tick":112094,"time":145.95572916666666,"type":"noteOff","velocity":0},{"channel":9,"nextOffset":26143,"note":35,"tick":112102,"time":145.96614583333334,"type":"noteOn","velocity":50},{"channel":9,"nextOffset":34998,"note":42,"tick":112128,"time":146,"type":"noteOn","velocity":50},{"channel":9,"nextOffset":47390,"note":42,"tick":112160,"time":146.04166666666666,"type":"noteOff","velocity":0},{"channel":9,"nextOffset":47394,"note":42,"tick":112160,"time":146.04166666666666,"type":"noteOn","velocity":50},{"channel":2,"nextOffset":30266,"note":26,"tick":112181,"time":146.06901041666666,"type":"noteOff","velocity":0},{"channel":2,"nextOffset":30270,"note":33,"tick":112181,"time":146.06901041666666,"type":"noteOn","velocity":57},{"channel":9,"nextOffset":26147,"note":35,"tick":112198,"time":146.09114583333334,"type":"noteOff","velocity":0},{"channel":9,"nextOffset":35002,"note":42,"tick":112224,"time":146.125,"type":"noteOff","velocity":0},{"channel":9,"nextOffset":35006,"note":42,"tick":112224,"time":146.125,"type":"noteOn","velocity":50},{"channel":9,"nextOffset":35010,"note":42,"tick":112248,"time":146.15625,"type":"noteOff","velocity":0},{"channel":9,"nextOffset":47398,"note":42,"tick":112256,"time":146.16666666666666,"type":"noteOff","velocity":0},{"channel":0,"nextOffset":7500,"note":43,"tick":112265,"time":146.17838541666666,"type":"noteOff","velocity":0},{"channel":0,"nextOffset":7504,"note":44,"tick":112265,"time":146.17838541666666,"type":"noteOn","velocity":68},{"channel":0,"nextOffset":7508,"note":65,"tick":112265,"time":146.17838541666666,"type":"noteOn","velocity":68},{"channel":9,"nextOffset":35014,"note":42,"tick":112272,"time":146.1875,"type":"noteOn","velocity":50},{"channel":1,"nextOffset":18710,"note":26,"tick":112285,"time":146.20442708333334,"type":"noteOff","velocity":0},{"channel":1,"nextOffset":18714,"note":33,"tick":112285,"time":146.20442708333334,"type":"noteOn","velocity":50},{"channel":9,"nextOffset":35018,"note":42,"tick":112296,"time":146.21875,"type":"noteOff","velocity":0},{"channel":9,"nextOffset":35022,"note":42,"tick":112320,"time":146.25,"type":"noteOn","velocity":50},{"channel":9,"nextOffset":35026,"note":42,"tick":112344,"time":146.28125,"type":"noteOff","velocity":0},{"channel":0,"nextOffset":7512,"note":65,"tick":112361,"time":146.30338541666666,"type":"noteOff","velocity":0},{"channel":0,"nextOffset":7516,"note":69,"tick":112361,"time":146.30338541666666,"type":"noteOn","velocity":68},{"channel":9,"nextOffset":35030,"note":42,"tick":112368,"time":146.3125,"type":"noteOn","velocity":50},{"channel":2,"nextOffset":30275,"note":33,"tick":112373,"time":146.31901041666666,"type":"noteOff","velocity":0},{"channel":2,"nextOffset":30279,"note":32,"tick":112373,"time":146.31901041666666,"type":"noteOn","velocity":57},{"channel":2,"nextOffset":30283,"note":32,"tick":112373,"time":146.31901041666666,"type":"noteOn","velocity":57},{"channel":9,"nextOffset":22304,"note":35,"tick":112382,"time":146.33072916666666,"type":"noteOn","velocity":50},{"channel":9,"nextOffset":35034,"note":42,"tick":112392,"time":146.34375,"type":"noteOff","velocity":0},{"channel":9,"nextOffset":35038,"note":42,"tick":112416,"time":146.375,"type":"noteOn","velocity":50},{"channel":9,"nextOffset":35042,"note":42,"tick":112440,"time":146.40625,"type":"noteOff","velocity":0},{"channel":9,"nextOffset":47403,"note":42,"tick":112448,"time":146.41666666666666,"type":"noteOn","velocity":50},{"channel":0,"nextOffset":7520,"note":44,"tick":112457,"time":146.42838541666666,"type":"noteOff","velocity":0},{"channel":0,"nextOffset":7524,"note":69,"tick":112457,"time":146.42838541666666,"type":"noteOff","velocity":0},{"channel":0,"nextOffset":7528,"note":45,"tick":112457,"time":146.42838541666666,"type":"noteOn","velocity":68},{"channel":0,"nextOffset":7532,"note":72,"tick":112457,"time":146.42838541666666,"type":"noteOn","velocity":68},{"channel":0,"nextOffset":7536,"note":67,"tick":112457,"time":146.42838541666666,"type":"noteOn","velocity":68},{"channel":0,"nextOffset":7540,"note":64,"tick":112457,"time":146.42838541666666,"type":"noteOn","velocity":68},{"channel":0,"nextOffset":7544,"note":60,"tick":112457,"time":146.42838541666666,"type":"noteOn","velocity":68},{"channel":1,"nextOffset":18719,"note":33,"tick":112477,"time":146.45442708333334,"type":"noteOff","velocity":0},{"channel":1,"nextOffset":18723,"note":32,"tick":112477,"time":146.45442708333334,"type":"noteOn","velocity":50},{"channel":1,"nextOffset":18727,"note":32,"tick":112477,"time":146.45442708333334,"type":"noteOn","velocity":50},{"channel":9,"nextOffset":22308,"note":35,"tick":112478,"time":146.45572916666666,"type":"noteOff","velocity":0},{"channel":9,"nextOffset":26152,"note":35,"tick":112486,"time":146.46614583333334,"type":"noteOn","velocity":50},{"channel":9,"nextOffset":47407,"note":42,"tick":112544,"time":146.54166666666666,"type":"noteOff","velocity":0},{"channel":2,"nextOffset":30288,"note":32,"tick":112565,"time":146.56901041666666,"type":"noteOff","velocity":0},{"channel":2,"nextOffset":30292,"note":32,"tick":112565,"time":146.56901041666666,"type":"noteOff","velocity":0},{"channel":2,"nextOffset":30296,"note":31,"tick":112565,"time":146.56901041666666,"type":"noteOn","velocity":57},{"channel":9,"nextOffset":26156,"note":35,"tick":112582,"time":146.59114583333334,"type":"noteOff","velocity":0},{"channel":9,"nextOffset":35047,"note":42,"tick":112608,"time":146.625,"type":"noteOn","velocity":50},{"channel":0,"nextOffset":7549,"note":60,"tick":112649,"time":146.67838541666666,"type":"noteOff","velocity":0},{"channel":0,"nextOffset":7553,"note":64,"tick":112649,"time":146.67838541666666,"type":"noteOff","velocity":0},{"channel":0,"nextOffset":7557,"note":67,"tick":112649,"time":146.67838541666666,"type":"noteOff","velocity":0},{"channel":0,"nextOffset":7561,"note":72,"tick":112649,"time":146.67838541666666,"type":"noteOff","velocity":0},{"channel":0,"nextOffset":7565,"note":45,"tick":112649,"time":146.67838541666666,"type":"noteOff","velocity":0},{"channel":1,"nextOffset":18732,"note":32,"tick":112669,"time":146.70442708333334,"type":"noteOff","velocity":0},{"channel":1,"nextOffset":18736,"note":32,"tick":112669,"time":146.70442708333334,"type":"noteOff","velocity":0},{"channel":1,"nextOffset":18740,"note":31,"tick":112669,"time":146.70442708333334,"type":"noteOn","velocity":50},{"channel":9,"nextOffset":22313,"note":35,"tick":112670,"time":146.70572916666666,"type":"noteOn","velocity":50},{"channel":9,"nextOffset":35051,"note":42,"tick":112704,"time":146.75,"type":"noteOff","velocity":0},{"channel":9,"nextOffset":35055,"note":42,"tick":112704,"time":146.75,"type":"noteOn","velocity":50},{"channel":9,"nextOffset":47412,"note":42,"tick":112736,"time":146.79166666666666,"type":"noteOn","velocity":50},{"channel":0,"nextOffset":7569,"note":45,"tick":112745,"time":146.80338541666666,"type":"noteOn","velocity":68},{"channel":0,"nextOffset":7573,"note":61,"tick":112745,"time":146.80338541666666,"type":"noteOn","velocity":68},{"channel":0,"nextOffset":7577,"note":65,"tick":112745,"time":146.80338541666666,"type":"noteOn","velocity":68},{"channel":0,"nextOffset":7581,"note":67,"tick":112745,"time":146.80338541666666,"type":"noteOn","velocity":68},{"channel":0,"nextOffset":7585,"note":70,"tick":112745,"time":146.80338541666666,"type":"noteOn","velocity":68},{"channel":2,"nextOffset":30301,"note":31,"tick":112757,"time":146.81901041666666,"type":"noteOff","velocity":0},{"channel":9,"nextOffset":22317,"note":35,"tick":112766,"time":146.83072916666666,"type":"noteOff","velocity":0},{"channel":9,"nextOffset":26161,"note":35,"tick":112774,"time":146.84114583333334,"type":"noteOn","velocity":50},{"channel":9,"nextOffset":35059,"note":42,"tick":112800,"time":146.875,"type":"noteOff","velocity":0},{"channel":9,"nextOffset":47416,"note":42,"tick":112832,"time":146.91666666666666,"type":"noteOff","velocity":0},{"channel":9,"nextOffset":47420,"note":42,"tick":112832,"time":146.91666666666666,"type":"noteOn","velocity":50},{"channel":0,"nextOffset":7589,"note":45,"tick":112841,"time":146.92838541666666,"type":"noteOff","velocity":0},{"channel":9,"nextOffset":47424,"note":42,"tick":112856,"time":146.94791666666666,"type":"noteOff","velocity":0},{"channel":1,"nextOffset":18745,"note":31,"tick":112861,"time":146.95442708333334,"type":"noteOff","velocity":0},{"channel":9,"nextOffset":26165,"note":35,"tick":112870,"time":146.96614583333334,"type":"noteOff","velocity":0},{"channel":9,"nextOffset":47428,"note":42,"tick":112880,"time":146.97916666666666,"type":"noteOn","velocity":50},{"channel":9,"nextOffset":47432,"note":42,"tick":112904,"time":147.01041666666666,"type":"noteOff","velocity":0},{"channel":9,"nextOffset":47436,"note":42,"tick":112928,"time":147.04166666666666,"type":"noteOn","velocity":50},{"channel":0,"nextOffset":7593,"note":70,"tick":112937,"time":147.05338541666666,"type":"noteOff","velocity":0},{"channel":0,"nextOffset":7597,"note":67,"tick":112937,"time":147.05338541666666,"type":"noteOff","velocity":0},{"channel":0,"nextOffset":7601,"note":65,"tick":112937,"time":147.05338541666666,"type":"noteOff","velocity":0},{"channel":0,"nextOffset":7605,"note":61,"tick":112937,"time":147.05338541666666,"type":"noteOff","velocity":0},{"channel":2,"nextOffset":30306,"note":31,"tick":112949,"time":147.06901041666666,"type":"noteOn","velocity":57},{"channel":9,"nextOffset":47440,"note":42,"tick":112952,"time":147.07291666666666,"type":"noteOff","velocity":0},{"channel":9,"nextOffset":22322,"note":35,"tick":112958,"time":147.08072916666666,"type":"noteOn","velocity":50},{"channel":9,"nextOffset":47444,"note":42,"tick":112976,"time":147.10416666666666,"type":"noteOn","velocity":50},{"channel":9,"nextOffset":35064,"note":42,"tick":112992,"time":147.125,"type":"noteOn","velocity":50},{"channel":9,"nextOffset":47448,"note":42,"tick":113000,"time":147.13541666666666,"type":"noteOff","velocity":0},{"channel":9,"nextOffset":47452,"note":42,"tick":113024,"time":147.16666666666666,"type":"noteOn","velocity":50},{"channel":0,"nextOffset":7609,"note":38,"tick":113033,"time":147.17838541666666,"type":"noteOn","velocity":68},{"channel":0,"nextOffset":7613,"note":60,"tick":113033,"time":147.17838541666666,"type":"noteOn","velocity":68},{"channel":0,"nextOffset":7617,"note":64,"tick":113033,"time":147.17838541666666,"type":"noteOn","velocity":68},{"channel":0,"nextOffset":7621,"note":65,"tick":113033,"time":147.17838541666666,"type":"noteOn","velocity":68},{"channel":0,"nextOffset":7625,"note":69,"tick":113033,"time":147.17838541666666,"type":"noteOn","velocity":68},{"channel":9,"nextOffset":47456,"note":42,"tick":113048,"time":147.19791666666666,"type":"noteOff","velocity":0},{"channel":1,"nextOffset":18750,"note":31,"tick":113053,"time":147.20442708333334,"type":"noteOn","velocity":50},{"channel":9,"nextOffset":22326,"note":35,"tick":113054,"time":147.20572916666666,"type":"noteOff","velocity":0},{"channel":9,"nextOffset":26170,"note":35,"tick":113062,"time":147.21614583333334,"type":"noteOn","velocity":50},{"channel":9,"nextOffset":35068,"note":42,"tick":113088,"time":147.25,"type":"noteOff","velocity":0},{"channel":9,"nextOffset":35072,"note":42,"tick":113088,"time":147.25,"type":"noteOn","velocity":50},{"channel":2,"nextOffset":30311,"note":31,"tick":113141,"time":147.31901041666666,"type":"noteOff","velocity":0},{"channel":2,"nextOffset":30315,"note":32,"tick":113141,"time":147.31901041666666,"type":"noteOn","velocity":57},{"channel":9,"nextOffset":22330,"note":35,"tick":113150,"time":147.33072916666666,"type":"noteOn","velocity":50},{"channel":9,"nextOffset":26174,"note":35,"tick":113158,"time":147.34114583333334,"type":"noteOff","velocity":0},{"channel":9,"nextOffset":35076,"note":42,"tick":113184,"time":147.375,"type":"noteOff","velocity":0},{"channel":9,"nextOffset":47461,"note":42,"tick":113216,"time":147.41666666666666,"type":"noteOn","velocity":50},{"channel":0,"nextOffset":7630,"note":69,"tick":113225,"time":147.42838541666666,"type":"noteOff","velocity":0},{"channel":0,"nextOffset":7634,"note":65,"tick":113225,"time":147.42838541666666,"type":"noteOff","velocity":0},{"channel":0,"nextOffset":7638,"note":64,"tick":113225,"time":147.42838541666666,"type":"noteOff","velocity":0},{"channel":0,"nextOffset":7642,"note":60,"tick":113225,"time":147.42838541666666,"type":"noteOff","velocity":0},{"channel":0,"nextOffset":7646,"note":38,"tick":113225,"time":147.42838541666666,"type":"noteOff","velocity":0},{"channel":0,"nextOffset":7650,"note":76,"tick":113225,"time":147.42838541666666,"type":"noteOn","velocity":68},{"channel":1,"nextOffset":18755,"note":31,"tick":113245,"time":147.45442708333334,"type":"noteOff","velocity":0},{"channel":1,"nextOffset":18759,"note":32,"tick":113245,"time":147.45442708333334,"type":"noteOn","velocity":50},{"channel":9,"nextOffset":22334,"note":35,"tick":113246,"time":147.45572916666666,"type":"noteOff","velocity":0},{"channel":9,"nextOffset":26178,"note":35,"tick":113254,"time":147.46614583333334,"type":"noteOn","velocity":50},{"channel":9,"nextOffset":47465,"note":42,"tick":113312,"time":147.54166666666666,"type":"noteOff","velocity":0},{"channel":0,"nextOffset":7654,"note":76,"tick":113321,"time":147.55338541666666,"type":"noteOff","velocity":0},{"channel":0,"nextOffset":7658,"note":77,"tick":113321,"time":147.55338541666666,"type":"noteOn","velocity":68},{"channel":2,"nextOffset":30320,"note":32,"tick":113333,"time":147.56901041666666,"type":"noteOff","velocity":0},{"channel":2,"nextOffset":30324,"note":33,"tick":113333,"time":147.56901041666666,"type":"noteOn","velocity":57},{"channel":9,"nextOffset":26182,"note":35,"tick":113350,"time":147.59114583333334,"type":"noteOff","velocity":0},{"channel":9,"nextOffset":35081,"note":42,"tick":113376,"time":147.625,"type":"noteOn","velocity":50},{"channel":0,"nextOffset":7662,"note":77,"tick":113417,"time":147.67838541666666,"type":"noteOff","velocity":0},{"channel":0,"nextOffset":7666,"note":79,"tick":113417,"time":147.67838541666666,"type":"noteOn","velocity":68},{"channel":1,"nextOffset":18764,"note":32,"tick":113437,"time":147.70442708333334,"type":"noteOff","velocity":0},{"channel":1,"nextOffset":18768,"note":33,"tick":113437,"time":147.70442708333334,"type":"noteOn","velocity":50},{"channel":9,"nextOffset":35085,"note":42,"tick":113472,"time":147.75,"type":"noteOff","velocity":0},{"channel":0,"nextOffset":7670,"note":79,"tick":113513,"time":147.80338541666666,"type":"noteOff","velocity":0},{"channel":0,"nextOffset":7674,"note":77,"tick":113513,"time":147.80338541666666,"type":"noteOn","velocity":68},{"channel":2,"nextOffset":30329,"note":33,"tick":113525,"time":147.81901041666666,"type":"noteOff","velocity":0},{"channel":9,"nextOffset":22339,"note":35,"tick":113534,"time":147.83072916666666,"type":"noteOn","velocity":50},{"channel":9,"nextOffset":47470,"note":42,"tick":113600,"time":147.91666666666666,"type":"noteOn","velocity":50},{"channel":0,"nextOffset":7678,"note":77,"tick":113609,"time":147.92838541666666,"type":"noteOff","velocity":0},{"channel":0,"nextOffset":7682,"note":76,"tick":113609,"time":147.92838541666666,"type":"noteOn","velocity":68},{"channel":2,"nextOffset":30333,"note":33,"tick":113621,"time":147.94401041666666,"type":"noteOn","velocity":57},{"channel":1,"nextOffset":18773,"note":33,"tick":113629,"time":147.95442708333334,"type":"noteOff","velocity":0},{"channel":9,"nextOffset":22343,"note":35,"tick":113630,"time":147.95572916666666,"type":"noteOff","velocity":0},{"channel":9,"nextOffset":26187,"note":35,"tick":113638,"time":147.96614583333334,"type":"noteOn","velocity":50},{"channel":9,"nextOffset":35090,"note":42,"tick":113664,"time":148,"type":"noteOn","velocity":50},{"channel":9,"nextOffset":47474,"note":42,"tick":113696,"time":148.04166666666666,"type":"noteOff","velocity":0},{"channel":9,"nextOffset":47478,"note":42,"tick":113696,"time":148.04166666666666,"type":"noteOn","velocity":50},{"channel":0,"nextOffset":7686,"note":76,"tick":113705,"time":148.05338541666666,"type":"noteOff","velocity":0},{"channel":0,"nextOffset":7690,"note":72,"tick":113705,"time":148.05338541666666,"type":"noteOn","velocity":68},{"channel":2,"nextOffset":30337,"note":33,"tick":113717,"time":148.06901041666666,"type":"noteOff","velocity":0},{"channel":1,"nextOffset":18777,"note":33,"tick":113725,"time":148.07942708333334,"type":"noteOn","velocity":50},{"channel":9,"nextOffset":26191,"note":35,"tick":113734,"time":148.09114583333334,"type":"noteOff","velocity":0},{"channel":9,"nextOffset":35094,"note":42,"tick":113760,"time":148.125,"type":"noteOff","velocity":0},{"channel":9,"nextOffset":35098,"note":42,"tick":113760,"time":148.125,"type":"noteOn","velocity":50},{"channel":9,"nextOffset":35102,"note":42,"tick":113784,"time":148.15625,"type":"noteOff","velocity":0},{"channel":9,"nextOffset":47482,"note":42,"tick":113792,"time":148.16666666666666,"type":"noteOff","velocity":0},{"channel":0,"nextOffset":7694,"note":72,"tick":113801,"time":148.17838541666666,"type":"noteOff","velocity":0},{"channel":0,"nextOffset":7698,"note":69,"tick":113801,"time":148.17838541666666,"type":"noteOn","velocity":68},{"channel":0,"nextOffset":7702,"note":45,"tick":113801,"time":148.17838541666666,"type":"noteOn","velocity":68},{"channel":9,"nextOffset":35106,"note":42,"tick":113808,"time":148.1875,"type":"noteOn","velocity":50},{"channel":1,"nextOffset":18781,"note":33,"tick":113821,"time":148.20442708333334,"type":"noteOff","velocity":0},{"channel":9,"nextOffset":35110,"note":42,"tick":113832,"time":148.21875,"type":"noteOff","velocity":0},{"channel":9,"nextOffset":35114,"note":42,"tick":113856,"time":148.25,"type":"noteOn","velocity":50},{"channel":9,"nextOffset":35118,"note":42,"tick":113880,"time":148.28125,"type":"noteOff","velocity":0},{"channel":0,"nextOffset":7706,"note":69,"tick":113897,"time":148.30338541666666,"type":"noteOff","velocity":0},{"channel":0,"nextOffset":7710,"note":67,"tick":113897,"time":148.30338541666666,"type":"noteOn","velocity":68},{"channel":9,"nextOffset":35122,"note":42,"tick":113904,"time":148.3125,"type":"noteOn","velocity":50},{"channel":2,"nextOffset":30342,"note":26,"tick":113909,"time":148.31901041666666,"type":"noteOn","velocity":57},{"channel":9,"nextOffset":22348,"note":35,"tick":113918,"time":148.33072916666666,"type":"noteOn","velocity":50},{"channel":9,"nextOffset":35126,"note":42,"tick":113928,"time":148.34375,"type":"noteOff","velocity":0},{"channel":9,"nextOffset":35130,"note":42,"tick":113952,"time":148.375,"type":"noteOn","velocity":50},{"channel":9,"nextOffset":35134,"note":42,"tick":113976,"time":148.40625,"type":"noteOff","velocity":0},{"channel":9,"nextOffset":47487,"note":42,"tick":113984,"time":148.41666666666666,"type":"noteOn","velocity":50},{"channel":0,"nextOffset":7714,"note":45,"tick":113993,"time":148.42838541666666,"type":"noteOff","velocity":0},{"channel":0,"nextOffset":7718,"note":67,"tick":113993,"time":148.42838541666666,"type":"noteOff","velocity":0},{"channel":0,"nextOffset":7722,"note":69,"tick":113993,"time":148.42838541666666,"type":"noteOn","velocity":68},{"channel":0,"nextOffset":7726,"note":50,"tick":113993,"time":148.42838541666666,"type":"noteOn","velocity":68},{"channel":1,"nextOffset":18786,"note":26,"tick":114013,"time":148.45442708333334,"type":"noteOn","velocity":50},{"channel":9,"nextOffset":22352,"note":35,"tick":114014,"time":148.45572916666666,"type":"noteOff","velocity":0},{"channel":9,"nextOffset":26196,"note":35,"tick":114022,"time":148.46614583333334,"type":"noteOn","velocity":50},{"channel":9,"nextOffset":47491,"note":42,"tick":114080,"time":148.54166666666666,"type":"noteOff","velocity":0},{"channel":0,"nextOffset":7730,"note":69,"tick":114089,"time":148.55338541666666,"type":"noteOff","velocity":0},{"channel":0,"nextOffset":7734,"note":62,"tick":114089,"time":148.55338541666666,"type":"noteOn","velocity":68},{"channel":2,"nextOffset":30347,"note":26,"tick":114101,"time":148.56901041666666,"type":"noteOff","velocity":0},{"channel":9,"nextOffset":26200,"note":35,"tick":114118,"time":148.59114583333334,"type":"noteOff","velocity":0},{"channel":9,"nextOffset":35139,"note":42,"tick":114144,"time":148.625,"type":"noteOn","velocity":50},{"channel":0,"nextOffset":7738,"note":50,"tick":114185,"time":148.67838541666666,"type":"noteOff","velocity":0},{"channel":0,"nextOffset":7742,"note":62,"tick":114185,"time":148.67838541666666,"type":"noteOff","velocity":0},{"channel":0,"nextOffset":7746,"note":60,"tick":114185,"time":148.67838541666666,"type":"noteOn","velocity":68},{"channel":0,"nextOffset":7750,"note":38,"tick":114185,"time":148.67838541666666,"type":"noteOn","velocity":68},{"channel":1,"nextOffset":18791,"note":26,"tick":114205,"time":148.70442708333334,"type":"noteOff","velocity":0},{"channel":9,"nextOffset":22357,"note":35,"tick":114206,"time":148.70572916666666,"type":"noteOn","velocity":50},{"channel":9,"nextOffset":35143,"note":42,"tick":114240,"time":148.75,"type":"noteOff","velocity":0},{"channel":9,"nextOffset":35147,"note":42,"tick":114240,"time":148.75,"type":"noteOn","velocity":50},{"channel":9,"nextOffset":47496,"note":42,"tick":114272,"time":148.79166666666666,"type":"noteOn","velocity":50},{"channel":0,"nextOffset":7754,"note":60,"tick":114281,"time":148.80338541666666,"type":"noteOff","velocity":0},{"channel":0,"nextOffset":7758,"note":65,"tick":114281,"time":148.80338541666666,"type":"noteOn","velocity":68},{"channel":2,"nextOffset":30352,"note":38,"tick":114293,"time":148.81901041666666,"type":"noteOn","velocity":57},{"channel":9,"nextOffset":22361,"note":35,"tick":114302,"time":148.83072916666666,"type":"noteOff","velocity":0},{"channel":9,"nextOffset":26205,"note":35,"tick":114310,"time":148.84114583333334,"type":"noteOn","velocity":50},{"channel":9,"nextOffset":35151,"note":42,"tick":114336,"time":148.875,"type":"noteOff","velocity":0},{"channel":9,"nextOffset":47500,"note":42,"tick":114368,"time":148.91666666666666,"type":"noteOff","velocity":0},{"channel":9,"nextOffset":47504,"note":42,"tick":114368,"time":148.91666666666666,"type":"noteOn","velocity":50},{"channel":0,"nextOffset":7762,"note":38,"tick":114377,"time":148.92838541666666,"type":"noteOff","velocity":0},{"channel":0,"nextOffset":7766,"note":65,"tick":114377,"time":148.92838541666666,"type":"noteOff","velocity":0},{"channel":0,"nextOffset":7770,"note":64,"tick":114377,"time":148.92838541666666,"type":"noteOn","velocity":68},{"channel":0,"nextOffset":7774,"note":60,"tick":114377,"time":148.92838541666666,"type":"noteOn","velocity":68},{"channel":0,"nextOffset":7778,"note":69,"tick":114377,"time":148.92838541666666,"type":"noteOn","velocity":68},{"channel":0,"nextOffset":7782,"note":45,"tick":114377,"time":148.92838541666666,"type":"noteOn","velocity":68},{"channel":9,"nextOffset":47508,"note":42,"tick":114392,"time":148.94791666666666,"type":"noteOff","velocity":0},{"channel":1,"nextOffset":18796,"note":38,"tick":114397,"time":148.95442708333334,"type":"noteOn","velocity":50},{"channel":9,"nextOffset":26209,"note":35,"tick":114406,"time":148.96614583333334,"type":"noteOff","velocity":0},{"channel":9,"nextOffset":47512,"note":42,"tick":114416,"time":148.97916666666666,"type":"noteOn","velocity":50},{"channel":9,"nextOffset":47516,"note":42,"tick":114440,"time":149.01041666666666,"type":"noteOff","velocity":0},{"channel":9,"nextOffset":47520,"note":42,"tick":114464,"time":149.04166666666666,"type":"noteOn","velocity":50},{"channel":2,"nextOffset":30357,"note":38,"tick":114485,"time":149.06901041666666,"type":"noteOff","velocity":0},{"channel":2,"nextOffset":30361,"note":26,"tick":114485,"time":149.06901041666666,"type":"noteOn","velocity":57},{"channel":9,"nextOffset":47524,"note":42,"tick":114488,"time":149.07291666666666,"type":"noteOff","velocity":0},{"channel":9,"nextOffset":22366,"note":35,"tick":114494,"time":149.08072916666666,"type":"noteOn","velocity":50},{"channel":9,"nextOffset":47528,"note":42,"tick":114512,"time":149.10416666666666,"type":"noteOn","velocity":50},{"channel":9,"nextOffset":35156,"note":42,"tick":114528,"time":149.125,"type":"noteOn","velocity":50},{"channel":9,"nextOffset":47532,"note":42,"tick":114536,"time":149.13541666666666,"type":"noteOff","velocity":0},{"channel":0,"nextOffset":7787,"note":45,"tick":114569,"time":149.17838541666666,"type":"noteOff","velocity":0},{"channel":0,"nextOffset":7791,"note":69,"tick":114569,"time":149.17838541666666,"type":"noteOff","velocity":0},{"channel":0,"nextOffset":7795,"note":60,"tick":114569,"time":149.17838541666666,"type":"noteOff","velocity":0},{"channel":0,"nextOffset":7799,"note":64,"tick":114569,"time":149.17838541666666,"type":"noteOff","velocity":0},{"channel":0,"nextOffset":7803,"note":59,"tick":114569,"time":149.17838541666666,"type":"noteOn","velocity":68},{"channel":0,"nextOffset":7807,"note":63,"tick":114569,"time":149.17838541666666,"type":"noteOn","velocity":68},{"channel":0,"nextOffset":7811,"note":68,"tick":114569,"time":149.17838541666666,"type":"noteOn","velocity":68},{"channel":0,"nextOffset":7815,"note":44,"tick":114569,"time":149.17838541666666,"type":"noteOn","velocity":68},{"channel":1,"nextOffset":18801,"note":38,"tick":114589,"time":149.20442708333334,"type":"noteOff","velocity":0},{"channel":1,"nextOffset":18805,"note":26,"tick":114589,"time":149.20442708333334,"type":"noteOn","velocity":50},{"channel":9,"nextOffset":22370,"note":35,"tick":114590,"time":149.20572916666666,"type":"noteOff","velocity":0},{"channel":9,"nextOffset":26214,"note":35,"tick":114598,"time":149.21614583333334,"type":"noteOn","velocity":50},{"channel":9,"nextOffset":35160,"note":42,"tick":114624,"time":149.25,"type":"noteOff","velocity":0},{"channel":9,"nextOffset":35164,"note":42,"tick":114624,"time":149.25,"type":"noteOn","velocity":50},{"channel":2,"nextOffset":30366,"note":26,"tick":114677,"time":149.31901041666666,"type":"noteOff","velocity":0},{"channel":2,"nextOffset":30370,"note":33,"tick":114677,"time":149.31901041666666,"type":"noteOn","velocity":57},{"channel":9,"nextOffset":22374,"note":35,"tick":114686,"time":149.33072916666666,"type":"noteOn","velocity":50},{"channel":9,"nextOffset":26218,"note":35,"tick":114694,"time":149.34114583333334,"type":"noteOff","velocity":0},{"channel":9,"nextOffset":35168,"note":42,"tick":114720,"time":149.375,"type":"noteOff","velocity":0},{"channel":9,"nextOffset":47537,"note":42,"tick":114752,"time":149.41666666666666,"type":"noteOn","velocity":50},{"channel":0,"nextOffset":7820,"note":44,"tick":114761,"time":149.42838541666666,"type":"noteOff","velocity":0},{"channel":0,"nextOffset":7824,"note":68,"tick":114761,"time":149.42838541666666,"type":"noteOff","velocity":0},{"channel":0,"nextOffset":7828,"note":63,"tick":114761,"time":149.42838541666666,"type":"noteOff","velocity":0},{"channel":0,"nextOffset":7832,"note":59,"tick":114761,"time":149.42838541666666,"type":"noteOff","velocity":0},{"channel":0,"nextOffset":7836,"note":43,"tick":114761,"time":149.42838541666666,"type":"noteOn","velocity":68},{"channel":0,"nextOffset":7840,"note":58,"tick":114761,"time":149.42838541666666,"type":"noteOn","velocity":68},{"channel":0,"nextOffset":7844,"note":62,"tick":114761,"time":149.42838541666666,"type":"noteOn","velocity":68},{"channel":0,"nextOffset":7848,"note":65,"tick":114761,"time":149.42838541666666,"type":"noteOn","velocity":68},{"channel":0,"nextOffset":7852,"note":69,"tick":114761,"time":149.42838541666666,"type":"noteOn","velocity":68},{"channel":1,"nextOffset":18810,"note":26,"tick":114781,"time":149.45442708333334,"type":"noteOff","velocity":0},{"channel":1,"nextOffset":18814,"note":33,"tick":114781,"time":149.45442708333334,"type":"noteOn","velocity":50},{"channel":9,"nextOffset":22378,"note":35,"tick":114782,"time":149.45572916666666,"type":"noteOff","velocity":0},{"channel":9,"nextOffset":26222,"note":35,"tick":114790,"time":149.46614583333334,"type":"noteOn","velocity":50},{"channel":9,"nextOffset":47541,"note":42,"tick":114848,"time":149.54166666666666,"type":"noteOff","velocity":0},{"channel":9,"nextOffset":47545,"note":42,"tick":114848,"time":149.54166666666666,"type":"noteOn","velocity":50},{"channel":2,"nextOffset":30375,"note":33,"tick":114869,"time":149.56901041666666,"type":"noteOff","velocity":0},{"channel":9,"nextOffset":26226,"note":35,"tick":114886,"time":149.59114583333334,"type":"noteOff","velocity":0},{"channel":9,"nextOffset":35173,"note":42,"tick":114912,"time":149.625,"type":"noteOn","velocity":50},{"channel":9,"nextOffset":47549,"note":42,"tick":114944,"time":149.66666666666666,"type":"noteOff","velocity":0},{"channel":0,"nextOffset":7857,"note":43,"tick":114953,"time":149.67838541666666,"type":"noteOff","velocity":0},{"channel":0,"nextOffset":7861,"note":50,"tick":114953,"time":149.67838541666666,"type":"noteOn","velocity":68},{"channel":1,"nextOffset":18819,"note":33,"tick":114973,"time":149.70442708333334,"type":"noteOff","velocity":0},{"channel":9,"nextOffset":35177,"note":42,"tick":115008,"time":149.75,"type":"noteOff","velocity":0},{"channel":2,"nextOffset":30380,"note":26,"tick":115061,"time":149.81901041666666,"type":"noteOn","velocity":57},{"channel":9,"nextOffset":22383,"note":35,"tick":115070,"time":149.83072916666666,"type":"noteOn","velocity":50},{"channel":9,"nextOffset":47554,"note":42,"tick":115136,"time":149.91666666666666,"type":"noteOn","velocity":50},{"channel":0,"nextOffset":7866,"note":69,"tick":115145,"time":149.92838541666666,"type":"noteOff","velocity":0},{"channel":0,"nextOffset":7870,"note":65,"tick":115145,"time":149.92838541666666,"type":"noteOff","velocity":0},{"channel":0,"nextOffset":7874,"note":62,"tick":115145,"time":149.92838541666666,"type":"noteOff","velocity":0},{"channel":0,"nextOffset":7878,"note":58,"tick":115145,"time":149.92838541666666,"type":"noteOff","velocity":0},{"channel":0,"nextOffset":7882,"note":50,"tick":115145,"time":149.92838541666666,"type":"noteOff","velocity":0},{"channel":0,"nextOffset":7886,"note":43,"tick":115145,"time":149.92838541666666,"type":"noteOn","velocity":68},{"channel":1,"nextOffset":18824,"note":26,"tick":115165,"time":149.95442708333334,"type":"noteOn","velocity":50},{"channel":9,"nextOffset":22387,"note":35,"tick":115166,"time":149.95572916666666,"type":"noteOff","velocity":0},{"channel":9,"nextOffset":26231,"note":35,"tick":115174,"time":149.96614583333334,"type":"noteOn","velocity":50},{"channel":9,"nextOffset":35182,"note":42,"tick":115200,"time":150,"type":"noteOn","velocity":50},{"channel":9,"nextOffset":47558,"note":42,"tick":115232,"time":150.04166666666666,"type":"noteOff","velocity":0},{"channel":9,"nextOffset":47562,"note":42,"tick":115232,"time":150.04166666666666,"type":"noteOn","velocity":50},{"channel":2,"nextOffset":30385,"note":26,"tick":115253,"time":150.06901041666666,"type":"noteOff","velocity":0},{"channel":2,"nextOffset":30389,"note":33,"tick":115253,"time":150.06901041666666,"type":"noteOn","velocity":57},{"channel":9,"nextOffset":26235,"note":35,"tick":115270,"time":150.09114583333334,"type":"noteOff","velocity":0},{"channel":9,"nextOffset":35186,"note":42,"tick":115296,"time":150.125,"type":"noteOff","velocity":0},{"channel":9,"nextOffset":35190,"note":42,"tick":115296,"time":150.125,"type":"noteOn","velocity":50},{"channel":9,"nextOffset":35194,"note":42,"tick":115320,"time":150.15625,"type":"noteOff","velocity":0},{"channel":9,"nextOffset":47566,"note":42,"tick":115328,"time":150.16666666666666,"type":"noteOff","velocity":0},{"channel":0,"nextOffset":7891,"note":43,"tick":115337,"time":150.17838541666666,"type":"noteOff","velocity":0},{"channel":0,"nextOffset":7895,"note":44,"tick":115337,"time":150.17838541666666,"type":"noteOn","velocity":68},{"channel":0,"nextOffset":7899,"note":65,"tick":115337,"time":150.17838541666666,"type":"noteOn","velocity":68},{"channel":9,"nextOffset":35198,"note":42,"tick":115344,"time":150.1875,"type":"noteOn","velocity":50},{"channel":1,"nextOffset":18829,"note":26,"tick":115357,"time":150.20442708333334,"type":"noteOff","velocity":0},{"channel":1,"nextOffset":18833,"note":33,"tick":115357,"time":150.20442708333334,"type":"noteOn","velocity":50},{"channel":9,"nextOffset":35202,"note":42,"tick":115368,"time":150.21875,"type":"noteOff","velocity":0},{"channel":9,"nextOffset":35206,"note":42,"tick":115392,"time":150.25,"type":"noteOn","velocity":50},{"channel":9,"nextOffset":35210,"note":42,"tick":115416,"time":150.28125,"type":"noteOff","velocity":0},{"channel":0,"nextOffset":7903,"note":65,"tick":115433,"time":150.30338541666666,"type":"noteOff","velocity":0},{"channel":0,"nextOffset":7907,"note":69,"tick":115433,"time":150.30338541666666,"type":"noteOn","velocity":68},{"channel":9,"nextOffset":35214,"note":42,"tick":115440,"time":150.3125,"type":"noteOn","velocity":50},{"channel":2,"nextOffset":30394,"note":33,"tick":115445,"time":150.31901041666666,"type":"noteOff","velocity":0},{"channel":2,"nextOffset":30398,"note":32,"tick":115445,"time":150.31901041666666,"type":"noteOn","velocity":57},{"channel":9,"nextOffset":22392,"note":35,"tick":115454,"time":150.33072916666666,"type":"noteOn","velocity":50},{"channel":9,"nextOffset":35218,"note":42,"tick":115464,"time":150.34375,"type":"noteOff","velocity":0},{"channel":9,"nextOffset":35222,"note":42,"tick":115488,"time":150.375,"type":"noteOn","velocity":50},{"channel":9,"nextOffset":35226,"note":42,"tick":115512,"time":150.40625,"type":"noteOff","velocity":0},{"channel":9,"nextOffset":47571,"note":42,"tick":115520,"time":150.41666666666666,"type":"noteOn","velocity":50},{"channel":0,"nextOffset":7911,"note":44,"tick":115529,"time":150.42838541666666,"type":"noteOff","velocity":0},{"channel":0,"nextOffset":7915,"note":69,"tick":115529,"time":150.42838541666666,"type":"noteOff","velocity":0},{"channel":0,"nextOffset":7919,"note":45,"tick":115529,"time":150.42838541666666,"type":"noteOn","velocity":68},{"channel":0,"nextOffset":7923,"note":72,"tick":115529,"time":150.42838541666666,"type":"noteOn","velocity":68},{"channel":0,"nextOffset":7927,"note":67,"tick":115529,"time":150.42838541666666,"type":"noteOn","velocity":68},{"channel":0,"nextOffset":7931,"note":64,"tick":115529,"time":150.42838541666666,"type":"noteOn","velocity":68},{"channel":0,"nextOffset":7935,"note":60,"tick":115529,"time":150.42838541666666,"type":"noteOn","velocity":68},{"channel":1,"nextOffset":18838,"note":33,"tick":115549,"time":150.45442708333334,"type":"noteOff","velocity":0},{"channel":1,"nextOffset":18842,"note":32,"tick":115549,"time":150.45442708333334,"type":"noteOn","velocity":50},{"channel":9,"nextOffset":22396,"note":35,"tick":115550,"time":150.45572916666666,"type":"noteOff","velocity":0},{"channel":9,"nextOffset":26240,"note":35,"tick":115558,"time":150.46614583333334,"type":"noteOn","velocity":50},{"channel":9,"nextOffset":47575,"note":42,"tick":115616,"time":150.54166666666666,"type":"noteOff","velocity":0},{"channel":2,"nextOffset":30403,"note":32,"tick":115637,"time":150.56901041666666,"type":"noteOff","velocity":0},{"channel":2,"nextOffset":30407,"note":31,"tick":115637,"time":150.56901041666666,"type":"noteOn","velocity":57},{"channel":9,"nextOffset":26244,"note":35,"tick":115654,"time":150.59114583333334,"type":"noteOff","velocity":0},{"channel":9,"nextOffset":35231,"note":42,"tick":115680,"time":150.625,"type":"noteOn","velocity":50},{"channel":0,"nextOffset":7940,"note":60,"tick":115721,"time":150.67838541666666,"type":"noteOff","velocity":0},{"channel":0,"nextOffset":7944,"note":64,"tick":115721,"time":150.67838541666666,"type":"noteOff","velocity":0},{"channel":0,"nextOffset":7948,"note":67,"tick":115721,"time":150.67838541666666,"type":"noteOff","velocity":0},{"channel":0,"nextOffset":7952,"note":72,"tick":115721,"time":150.67838541666666,"type":"noteOff","velocity":0},{"channel":0,"nextOffset":7956,"note":45,"tick":115721,"time":150.67838541666666,"type":"noteOff","velocity":0},{"channel":1,"nextOffset":18847,"note":32,"tick":115741,"time":150.70442708333334,"type":"noteOff","velocity":0},{"channel":1,"nextOffset":18851,"note":31,"tick":115741,"time":150.70442708333334,"type":"noteOn","velocity":50},{"channel":9,"nextOffset":22401,"note":35,"tick":115742,"time":150.70572916666666,"type":"noteOn","velocity":50},{"channel":9,"nextOffset":35235,"note":42,"tick":115776,"time":150.75,"type":"noteOff","velocity":0},{"channel":9,"nextOffset":35239,"note":42,"tick":115776,"time":150.75,"type":"noteOn","velocity":50},{"channel":9,"nextOffset":47580,"note":42,"tick":115808,"time":150.79166666666666,"type":"noteOn","velocity":50},{"channel":0,"nextOffset":7960,"note":45,"tick":115817,"time":150.80338541666666,"type":"noteOn","velocity":68},{"channel":0,"nextOffset":7964,"note":61,"tick":115817,"time":150.80338541666666,"type":"noteOn","velocity":68},{"channel":0,"nextOffset":7968,"note":65,"tick":115817,"time":150.80338541666666,"type":"noteOn","velocity":68},{"channel":0,"nextOffset":7972,"note":67,"tick":115817,"time":150.80338541666666,"type":"noteOn","velocity":68},{"channel":0,"nextOffset":7976,"note":70,"tick":115817,"time":150.80338541666666,"type":"noteOn","velocity":68},{"channel":2,"nextOffset":30412,"note":31,"tick":115829,"time":150.81901041666666,"type":"noteOff","velocity":0},{"channel":9,"nextOffset":22405,"note":35,"tick":115838,"time":150.83072916666666,"type":"noteOff","velocity":0},{"channel":9,"nextOffset":26249,"note":35,"tick":115846,"time":150.84114583333334,"type":"noteOn","velocity":50},{"channel":9,"nextOffset":35243,"note":42,"tick":115872,"time":150.875,"type":"noteOff","velocity":0},{"channel":9,"nextOffset":47584,"note":42,"tick":115904,"time":150.91666666666666,"type":"noteOff","velocity":0},{"channel":9,"nextOffset":47588,"note":42,"tick":115904,"time":150.91666666666666,"type":"noteOn","velocity":50},{"channel":0,"nextOffset":7980,"note":45,"tick":115913,"time":150.92838541666666,"type":"noteOff","velocity":0},{"channel":9,"nextOffset":47592,"note":42,"tick":115928,"time":150.94791666666666,"type":"noteOff","velocity":0},{"channel":1,"nextOffset":18856,"note":31,"tick":115933,"time":150.95442708333334,"type":"noteOff","velocity":0},{"channel":9,"nextOffset":26253,"note":35,"tick":115942,"time":150.96614583333334,"type":"noteOff","velocity":0},{"channel":9,"nextOffset":47596,"note":42,"tick":115952,"time":150.97916666666666,"type":"noteOn","velocity":50},{"channel":9,"nextOffset":47600,"note":42,"tick":115976,"time":151.01041666666666,"type":"noteOff","velocity":0},{"channel":9,"nextOffset":47604,"note":42,"tick":116000,"time":151.04166666666666,"type":"noteOn","velocity":50},{"channel":0,"nextOffset":7984,"note":70,"tick":116009,"time":151.05338541666666,"type":"noteOff","velocity":0},{"channel":0,"nextOffset":7988,"note":67,"tick":116009,"time":151.05338541666666,"type":"noteOff","velocity":0},{"channel":0,"nextOffset":7992,"note":65,"tick":116009,"time":151.05338541666666,"type":"noteOff","velocity":0},{"channel":0,"nextOffset":7996,"note":61,"tick":116009,"time":151.05338541666666,"type":"noteOff","velocity":0},{"channel":2,"nextOffset":30417,"note":31,"tick":116021,"time":151.06901041666666,"type":"noteOn","velocity":57},{"channel":9,"nextOffset":47608,"note":42,"tick":116024,"time":151.07291666666666,"type":"noteOff","velocity":0},{"channel":9,"nextOffset":22410,"note":35,"tick":116030,"time":151.08072916666666,"type":"noteOn","velocity":50},{"channel":9,"nextOffset":47612,"note":42,"tick":116048,"time":151.10416666666666,"type":"noteOn","velocity":50},{"channel":9,"nextOffset":35248,"note":42,"tick":116064,"time":151.125,"type":"noteOn","velocity":50},{"channel":9,"nextOffset":47616,"note":42,"tick":116072,"time":151.13541666666666,"type":"noteOff","velocity":0},{"channel":9,"nextOffset":47620,"note":42,"tick":116096,"time":151.16666666666666,"type":"noteOn","velocity":50},{"channel":0,"nextOffset":8000,"note":38,"tick":116105,"time":151.17838541666666,"type":"noteOn","velocity":68},{"channel":0,"nextOffset":8004,"note":60,"tick":116105,"time":151.17838541666666,"type":"noteOn","velocity":68},{"channel":0,"nextOffset":8008,"note":64,"tick":116105,"time":151.17838541666666,"type":"noteOn","velocity":68},{"channel":0,"nextOffset":8012,"note":65,"tick":116105,"time":151.17838541666666,"type":"noteOn","velocity":68},{"channel":0,"nextOffset":8016,"note":69,"tick":116105,"time":151.17838541666666,"type":"noteOn","velocity":68},{"channel":9,"nextOffset":47624,"note":42,"tick":116120,"time":151.19791666666666,"type":"noteOff","velocity":0},{"channel":1,"nextOffset":18861,"note":31,"tick":116125,"time":151.20442708333334,"type":"noteOn","velocity":50},{"channel":9,"nextOffset":22414,"note":35,"tick":116126,"time":151.20572916666666,"type":"noteOff","velocity":0},{"channel":9,"nextOffset":26258,"note":35,"tick":116134,"time":151.21614583333334,"type":"noteOn","velocity":50},{"channel":9,"nextOffset":35252,"note":42,"tick":116160,"time":151.25,"type":"noteOff","velocity":0},{"channel":9,"nextOffset":35256,"note":42,"tick":116160,"time":151.25,"type":"noteOn","velocity":50},{"channel":2,"nextOffset":30422,"note":31,"tick":116213,"time":151.31901041666666,"type":"noteOff","velocity":0},{"channel":2,"nextOffset":30426,"note":32,"tick":116213,"time":151.31901041666666,"type":"noteOn","velocity":57},{"channel":9,"nextOffset":22418,"note":35,"tick":116222,"time":151.33072916666666,"type":"noteOn","velocity":50},{"channel":9,"nextOffset":26262,"note":35,"tick":116230,"time":151.34114583333334,"type":"noteOff","velocity":0},{"channel":9,"nextOffset":35260,"note":42,"tick":116256,"time":151.375,"type":"noteOff","velocity":0},{"channel":9,"nextOffset":47629,"note":42,"tick":116288,"time":151.41666666666666,"type":"noteOn","velocity":50},{"channel":0,"nextOffset":8021,"note":69,"tick":116297,"time":151.42838541666666,"type":"noteOff","velocity":0},{"channel":0,"nextOffset":8025,"note":65,"tick":116297,"time":151.42838541666666,"type":"noteOff","velocity":0},{"channel":0,"nextOffset":8029,"note":64,"tick":116297,"time":151.42838541666666,"type":"noteOff","velocity":0},{"channel":0,"nextOffset":8033,"note":60,"tick":116297,"time":151.42838541666666,"type":"noteOff","velocity":0},{"channel":0,"nextOffset":8037,"note":38,"tick":116297,"time":151.42838541666666,"type":"noteOff","velocity":0},{"channel":0,"nextOffset":8041,"note":76,"tick":116297,"time":151.42838541666666,"type":"noteOn","velocity":68},{"channel":1,"nextOffset":18866,"note":31,"tick":116317,"time":151.45442708333334,"type":"noteOff","velocity":0},{"channel":1,"nextOffset":18870,"note":32,"tick":116317,"time":151.45442708333334,"type":"noteOn","velocity":50},{"channel":9,"nextOffset":22422,"note":35,"tick":116318,"time":151.45572916666666,"type":"noteOff","velocity":0},{"channel":9,"nextOffset":26266,"note":35,"tick":116326,"time":151.46614583333334,"type":"noteOn","velocity":50},{"channel":9,"nextOffset":47633,"note":42,"tick":116384,"time":151.54166666666666,"type":"noteOff","velocity":0},{"channel":9,"nextOffset":47637,"note":42,"tick":116384,"time":151.54166666666666,"type":"noteOn","velocity":50},{"channel":0,"nextOffset":8045,"note":76,"tick":116393,"time":151.55338541666666,"type":"noteOff","velocity":0},{"channel":0,"nextOffset":8049,"note":77,"tick":116393,"time":151.55338541666666,"type":"noteOn","velocity":68},{"channel":2,"nextOffset":30431,"note":32,"tick":116405,"time":151.56901041666666,"type":"noteOff","velocity":0},{"channel":2,"nextOffset":30435,"note":33,"tick":116405,"time":151.56901041666666,"type":"noteOn","velocity":57},{"channel":2,"nextOffset":30439,"note":33,"tick":116405,"time":151.56901041666666,"type":"noteOn","velocity":57},{"channel":9,"nextOffset":26270,"note":35,"tick":116422,"time":151.59114583333334,"type":"noteOff","velocity":0},{"channel":9,"nextOffset":35265,"note":42,"tick":116448,"time":151.625,"type":"noteOn","velocity":50},{"channel":9,"nextOffset":47641,"note":42,"tick":116480,"time":151.66666666666666,"type":"noteOff","velocity":0},{"channel":0,"nextOffset":8053,"note":77,"tick":116489,"time":151.67838541666666,"type":"noteOff","velocity":0},{"channel":0,"nextOffset":8057,"note":76,"tick":116489,"time":151.67838541666666,"type":"noteOn","velocity":68},{"channel":1,"nextOffset":18875,"note":32,"tick":116509,"time":151.70442708333334,"type":"noteOff","velocity":0},{"channel":1,"nextOffset":18879,"note":33,"tick":116509,"time":151.70442708333334,"type":"noteOn","velocity":50},{"channel":1,"nextOffset":18883,"note":33,"tick":116509,"time":151.70442708333334,"type":"noteOn","velocity":50},{"channel":9,"nextOffset":35269,"note":42,"tick":116544,"time":151.75,"type":"noteOff","velocity":0},{"channel":0,"nextOffset":8061,"note":76,"tick":116585,"time":151.80338541666666,"type":"noteOff","velocity":0},{"channel":0,"nextOffset":8065,"note":72,"tick":116585,"time":151.80338541666666,"type":"noteOn","velocity":68},{"channel":2,"nextOffset":30444,"note":33,"tick":116597,"time":151.81901041666666,"type":"noteOff","velocity":0},{"channel":2,"nextOffset":30448,"note":33,"tick":116597,"time":151.81901041666666,"type":"noteOff","velocity":0},{"channel":9,"nextOffset":22427,"note":35,"tick":116606,"time":151.83072916666666,"type":"noteOn","velocity":50},{"channel":9,"nextOffset":47646,"note":42,"tick":116672,"time":151.91666666666666,"type":"noteOn","velocity":50},{"channel":9,"nextOffset":47650,"note":42,"tick":116672,"time":151.91666666666666,"type":"noteOn","velocity":50},{"channel":0,"nextOffset":8069,"note":72,"tick":116681,"time":151.92838541666666,"type":"noteOff","velocity":0},{"channel":0,"nextOffset":8073,"note":76,"tick":116681,"time":151.92838541666666,"type":"noteOn","velocity":68},{"channel":0,"nextOffset":8077,"note":38,"tick":116681,"time":151.92838541666666,"type":"noteOn","velocity":68},{"channel":2,"nextOffset":30452,"note":33,"tick":116693,"time":151.94401041666666,"type":"noteOn","velocity":57},{"channel":1,"nextOffset":18888,"note":33,"tick":116701,"time":151.95442708333334,"type":"noteOff","velocity":0},{"channel":1,"nextOffset":18892,"note":33,"tick":116701,"time":151.95442708333334,"type":"noteOff","velocity":0},{"channel":9,"nextOffset":22431,"note":35,"tick":116702,"time":151.95572916666666,"type":"noteOff","velocity":0},{"channel":9,"nextOffset":26275,"note":35,"tick":116710,"time":151.96614583333334,"type":"noteOn","velocity":50},{"channel":9,"nextOffset":35274,"note":42,"tick":116736,"time":152,"type":"noteOn","velocity":50},{"channel":9,"nextOffset":47654,"note":42,"tick":116768,"time":152.04166666666666,"type":"noteOff","velocity":0},{"channel":9,"nextOffset":47658,"note":42,"tick":116768,"time":152.04166666666666,"type":"noteOff","velocity":0},{"channel":9,"nextOffset":47662,"note":42,"tick":116768,"time":152.04166666666666,"type":"noteOn","velocity":50},{"channel":0,"nextOffset":8081,"note":76,"tick":116777,"time":152.05338541666666,"type":"noteOff","velocity":0},{"channel":0,"nextOffset":8085,"note":72,"tick":116777,"time":152.05338541666666,"type":"noteOn","velocity":68},{"channel":2,"nextOffset":30456,"note":33,"tick":116789,"time":152.06901041666666,"type":"noteOff","velocity":0},{"channel":1,"nextOffset":18896,"note":33,"tick":116797,"time":152.07942708333334,"type":"noteOn","velocity":50},{"channel":9,"nextOffset":26279,"note":35,"tick":116806,"time":152.09114583333334,"type":"noteOff","velocity":0},{"channel":9,"nextOffset":35278,"note":42,"tick":116832,"time":152.125,"type":"noteOff","velocity":0},{"channel":9,"nextOffset":35282,"note":42,"tick":116832,"time":152.125,"type":"noteOn","velocity":50},{"channel":9,"nextOffset":35286,"note":42,"tick":116856,"time":152.15625,"type":"noteOff","velocity":0},{"channel":9,"nextOffset":47666,"note":42,"tick":116864,"time":152.16666666666666,"type":"noteOff","velocity":0},{"channel":0,"nextOffset":8089,"note":38,"tick":116873,"time":152.17838541666666,"type":"noteOff","velocity":0},{"channel":0,"nextOffset":8093,"note":72,"tick":116873,"time":152.17838541666666,"type":"noteOff","velocity":0},{"channel":0,"nextOffset":8097,"note":69,"tick":116873,"time":152.17838541666666,"type":"noteOn","velocity":68},{"channel":0,"nextOffset":8101,"note":45,"tick":116873,"time":152.17838541666666,"type":"noteOn","velocity":68},{"channel":9,"nextOffset":35290,"note":42,"tick":116880,"time":152.1875,"type":"noteOn","velocity":50},{"channel":1,"nextOffset":18900,"note":33,"tick":116893,"time":152.20442708333334,"type":"noteOff","velocity":0},{"channel":9,"nextOffset":26283,"note":42,"tick":116902,"time":152.21614583333334,"type":"noteOn","velocity":50},{"channel":9,"nextOffset":35294,"note":42,"tick":116904,"time":152.21875,"type":"noteOff","velocity":0},{"channel":9,"nextOffset":35298,"note":42,"tick":116928,"time":152.25,"type":"noteOn","velocity":50},{"channel":9,"nextOffset":35302,"note":42,"tick":116952,"time":152.28125,"type":"noteOff","velocity":0},{"channel":0,"nextOffset":8105,"note":69,"tick":116969,"time":152.30338541666666,"type":"noteOff","velocity":0},{"channel":0,"nextOffset":8109,"note":67,"tick":116969,"time":152.30338541666666,"type":"noteOn","velocity":68},{"channel":9,"nextOffset":35306,"note":42,"tick":116976,"time":152.3125,"type":"noteOn","velocity":50},{"channel":2,"nextOffset":30461,"note":26,"tick":116981,"time":152.31901041666666,"type":"noteOn","velocity":57},{"channel":9,"nextOffset":22436,"note":35,"tick":116990,"time":152.33072916666666,"type":"noteOn","velocity":50},{"channel":9,"nextOffset":26287,"note":42,"tick":116998,"time":152.34114583333334,"type":"noteOff","velocity":0},{"channel":9,"nextOffset":35310,"note":42,"tick":117000,"time":152.34375,"type":"noteOff","velocity":0},{"channel":9,"nextOffset":35314,"note":42,"tick":117024,"time":152.375,"type":"noteOn","velocity":50},{"channel":9,"nextOffset":35318,"note":42,"tick":117048,"time":152.40625,"type":"noteOff","velocity":0},{"channel":9,"nextOffset":47671,"note":42,"tick":117056,"time":152.41666666666666,"type":"noteOn","velocity":50},{"channel":0,"nextOffset":8113,"note":45,"tick":117065,"time":152.42838541666666,"type":"noteOff","velocity":0},{"channel":0,"nextOffset":8117,"note":67,"tick":117065,"time":152.42838541666666,"type":"noteOff","velocity":0},{"channel":0,"nextOffset":8121,"note":69,"tick":117065,"time":152.42838541666666,"type":"noteOn","velocity":68},{"channel":0,"nextOffset":8125,"note":50,"tick":117065,"time":152.42838541666666,"type":"noteOn","velocity":68},{"channel":1,"nextOffset":18905,"note":26,"tick":117085,"time":152.45442708333334,"type":"noteOn","velocity":50},{"channel":9,"nextOffset":22440,"note":35,"tick":117086,"time":152.45572916666666,"type":"noteOff","velocity":0},{"channel":9,"nextOffset":26291,"note":35,"tick":117094,"time":152.46614583333334,"type":"noteOn","velocity":50},{"channel":9,"nextOffset":47675,"note":42,"tick":117152,"time":152.54166666666666,"type":"noteOff","velocity":0},{"channel":0,"nextOffset":8129,"note":69,"tick":117161,"time":152.55338541666666,"type":"noteOff","velocity":0},{"channel":0,"nextOffset":8133,"note":62,"tick":117161,"time":152.55338541666666,"type":"noteOn","velocity":68},{"channel":2,"nextOffset":30466,"note":26,"tick":117173,"time":152.56901041666666,"type":"noteOff","velocity":0},{"channel":2,"nextOffset":30470,"note":31,"tick":117173,"time":152.56901041666666,"type":"noteOn","velocity":57},{"channel":9,"nextOffset":26295,"note":35,"tick":117190,"time":152.59114583333334,"type":"noteOff","velocity":0},{"channel":0,"nextOffset":8137,"note":50,"tick":117257,"time":152.67838541666666,"type":"noteOff","velocity":0},{"channel":0,"nextOffset":8141,"note":62,"tick":117257,"time":152.67838541666666,"type":"noteOff","velocity":0},{"channel":0,"nextOffset":8145,"note":60,"tick":117257,"time":152.67838541666666,"type":"noteOn","velocity":68},{"channel":0,"nextOffset":8149,"note":38,"tick":117257,"time":152.67838541666666,"type":"noteOn","velocity":68},{"channel":1,"nextOffset":18910,"note":26,"tick":117277,"time":152.70442708333334,"type":"noteOff","velocity":0},{"channel":1,"nextOffset":18914,"note":31,"tick":117277,"time":152.70442708333334,"type":"noteOn","velocity":50},{"channel":9,"nextOffset":22445,"note":35,"tick":117278,"time":152.70572916666666,"type":"noteOn","velocity":50},{"channel":9,"nextOffset":47680,"note":42,"tick":117344,"time":152.79166666666666,"type":"noteOn","velocity":50},{"channel":0,"nextOffset":8153,"note":60,"tick":117353,"time":152.80338541666666,"type":"noteOff","velocity":0},{"channel":0,"nextOffset":8157,"note":65,"tick":117353,"time":152.80338541666666,"type":"noteOn","velocity":68},{"channel":2,"nextOffset":30475,"note":31,"tick":117365,"time":152.81901041666666,"type":"noteOff","velocity":0},{"channel":9,"nextOffset":22449,"note":35,"tick":117374,"time":152.83072916666666,"type":"noteOff","velocity":0},{"channel":9,"nextOffset":26300,"note":35,"tick":117382,"time":152.84114583333334,"type":"noteOn","velocity":50},{"channel":9,"nextOffset":47684,"note":42,"tick":117440,"time":152.91666666666666,"type":"noteOff","velocity":0},{"channel":9,"nextOffset":47688,"note":42,"tick":117440,"time":152.91666666666666,"type":"noteOn","velocity":50},{"channel":0,"nextOffset":8161,"note":38,"tick":117449,"time":152.92838541666666,"type":"noteOff","velocity":0},{"channel":0,"nextOffset":8165,"note":65,"tick":117449,"time":152.92838541666666,"type":"noteOff","velocity":0},{"channel":0,"nextOffset":8169,"note":64,"tick":117449,"time":152.92838541666666,"type":"noteOn","velocity":68},{"channel":0,"nextOffset":8173,"note":60,"tick":117449,"time":152.92838541666666,"type":"noteOn","velocity":68},{"channel":0,"nextOffset":8177,"note":69,"tick":117449,"time":152.92838541666666,"type":"noteOn","velocity":68},{"channel":0,"nextOffset":8181,"note":45,"tick":117449,"time":152.92838541666666,"type":"noteOn","velocity":68},{"channel":9,"nextOffset":47692,"note":42,"tick":117464,"time":152.94791666666666,"type":"noteOff","velocity":0},{"channel":1,"nextOffset":18919,"note":31,"tick":117469,"time":152.95442708333334,"type":"noteOff","velocity":0},{"channel":9,"nextOffset":26304,"note":35,"tick":117478,"time":152.96614583333334,"type":"noteOff","velocity":0},{"channel":9,"nextOffset":47696,"note":42,"tick":117488,"time":152.97916666666666,"type":"noteOn","velocity":50},{"channel":9,"nextOffset":47700,"note":42,"tick":117512,"time":153.01041666666666,"type":"noteOff","velocity":0},{"channel":9,"nextOffset":47704,"note":42,"tick":117536,"time":153.04166666666666,"type":"noteOn","velocity":50},{"channel":2,"nextOffset":30480,"note":31,"tick":117557,"time":153.06901041666666,"type":"noteOn","velocity":57},{"channel":9,"nextOffset":47708,"note":42,"tick":117560,"time":153.07291666666666,"type":"noteOff","velocity":0},{"channel":9,"nextOffset":22454,"note":35,"tick":117566,"time":153.08072916666666,"type":"noteOn","velocity":50},{"channel":9,"nextOffset":47712,"note":42,"tick":117584,"time":153.10416666666666,"type":"noteOn","velocity":50},{"channel":9,"nextOffset":47716,"note":42,"tick":117608,"time":153.13541666666666,"type":"noteOff","velocity":0},{"channel":9,"nextOffset":47720,"note":42,"tick":117632,"time":153.16666666666666,"type":"noteOn","velocity":50},{"channel":0,"nextOffset":8186,"note":45,"tick":117641,"time":153.17838541666666,"type":"noteOff","velocity":0},{"channel":0,"nextOffset":8190,"note":69,"tick":117641,"time":153.17838541666666,"type":"noteOff","velocity":0},{"channel":0,"nextOffset":8194,"note":60,"tick":117641,"time":153.17838541666666,"type":"noteOff","velocity":0},{"channel":0,"nextOffset":8198,"note":64,"tick":117641,"time":153.17838541666666,"type":"noteOff","velocity":0},{"channel":0,"nextOffset":8202,"note":59,"tick":117641,"time":153.17838541666666,"type":"noteOn","velocity":68},{"channel":0,"nextOffset":8206,"note":63,"tick":117641,"time":153.17838541666666,"type":"noteOn","velocity":68},{"channel":0,"nextOffset":8210,"note":68,"tick":117641,"time":153.17838541666666,"type":"noteOn","velocity":68},{"channel":0,"nextOffset":8214,"note":44,"tick":117641,"time":153.17838541666666,"type":"noteOn","velocity":68},{"channel":9,"nextOffset":47724,"note":42,"tick":117656,"time":153.19791666666666,"type":"noteOff","velocity":0},{"channel":1,"nextOffset":18924,"note":31,"tick":117661,"time":153.20442708333334,"type":"noteOn","velocity":50},{"channel":9,"nextOffset":22458,"note":35,"tick":117662,"time":153.20572916666666,"type":"noteOff","velocity":0},{"channel":9,"nextOffset":26309,"note":35,"tick":117670,"time":153.21614583333334,"type":"noteOn","velocity":50},{"channel":2,"nextOffset":30485,"note":31,"tick":117749,"time":153.31901041666666,"type":"noteOff","velocity":0},{"channel":2,"nextOffset":30489,"note":32,"tick":117749,"time":153.31901041666666,"type":"noteOn","velocity":57},{"channel":9,"nextOffset":22462,"note":35,"tick":117758,"time":153.33072916666666,"type":"noteOn","velocity":50},{"channel":9,"nextOffset":26313,"note":35,"tick":117766,"time":153.34114583333334,"type":"noteOff","velocity":0},{"channel":9,"nextOffset":47729,"note":42,"tick":117824,"time":153.41666666666666,"type":"noteOn","velocity":50},{"channel":0,"nextOffset":8219,"note":44,"tick":117833,"time":153.42838541666666,"type":"noteOff","velocity":0},{"channel":0,"nextOffset":8223,"note":68,"tick":117833,"time":153.42838541666666,"type":"noteOff","velocity":0},{"channel":0,"nextOffset":8227,"note":63,"tick":117833,"time":153.42838541666666,"type":"noteOff","velocity":0},{"channel":0,"nextOffset":8231,"note":59,"tick":117833,"time":153.42838541666666,"type":"noteOff","velocity":0},{"channel":0,"nextOffset":8235,"note":43,"tick":117833,"time":153.42838541666666,"type":"noteOn","velocity":68},{"channel":0,"nextOffset":8239,"note":58,"tick":117833,"time":153.42838541666666,"type":"noteOn","velocity":68},{"channel":0,"nextOffset":8243,"note":62,"tick":117833,"time":153.42838541666666,"type":"noteOn","velocity":68},{"channel":0,"nextOffset":8247,"note":65,"tick":117833,"time":153.42838541666666,"type":"noteOn","velocity":68},{"channel":0,"nextOffset":8251,"note":69,"tick":117833,"time":153.42838541666666,"type":"noteOn","velocity":68},{"channel":1,"nextOffset":18929,"note":31,"tick":117853,"time":153.45442708333334,"type":"noteOff","velocity":0},{"channel":1,"nextOffset":18933,"note":32,"tick":117853,"time":153.45442708333334,"type":"noteOn","velocity":50},{"channel":9,"nextOffset":22466,"note":35,"tick":117854,"time":153.45572916666666,"type":"noteOff","velocity":0},{"channel":9,"nextOffset":26317,"note":35,"tick":117862,"time":153.46614583333334,"type":"noteOn","velocity":50},{"channel":9,"nextOffset":47733,"note":42,"tick":117920,"time":153.54166666666666,"type":"noteOff","velocity":0},{"channel":9,"nextOffset":47737,"note":42,"tick":117920,"time":153.54166666666666,"type":"noteOn","velocity":50},{"channel":2,"nextOffset":30494,"note":32,"tick":117941,"time":153.56901041666666,"type":"noteOff","velocity":0},{"channel":2,"nextOffset":30498,"note":33,"tick":117941,"time":153.56901041666666,"type":"noteOn","velocity":57},{"channel":2,"nextOffset":30502,"note":33,"tick":117941,"time":153.56901041666666,"type":"noteOn","velocity":57},{"channel":9,"nextOffset":26321,"note":35,"tick":117958,"time":153.59114583333334,"type":"noteOff","velocity":0},{"channel":9,"nextOffset":47741,"note":42,"tick":118016,"time":153.66666666666666,"type":"noteOff","velocity":0},{"channel":0,"nextOffset":8256,"note":43,"tick":118025,"time":153.67838541666666,"type":"noteOff","velocity":0},{"channel":1,"nextOffset":18938,"note":32,"tick":118045,"time":153.70442708333334,"type":"noteOff","velocity":0},{"channel":1,"nextOffset":18942,"note":33,"tick":118045,"time":153.70442708333334,"type":"noteOn","velocity":50},{"channel":1,"nextOffset":18946,"note":33,"tick":118045,"time":153.70442708333334,"type":"noteOn","velocity":50},{"channel":2,"nextOffset":30507,"note":33,"tick":118133,"time":153.81901041666666,"type":"noteOff","velocity":0},{"channel":2,"nextOffset":30511,"note":33,"tick":118133,"time":153.81901041666666,"type":"noteOff","velocity":0},{"channel":9,"nextOffset":22471,"note":35,"tick":118142,"time":153.83072916666666,"type":"noteOn","velocity":50},{"channel":9,"nextOffset":47746,"note":42,"tick":118208,"time":153.91666666666666,"type":"noteOn","velocity":50},{"channel":0,"nextOffset":8261,"note":69,"tick":118217,"time":153.92838541666666,"type":"noteOff","velocity":0},{"channel":0,"nextOffset":8265,"note":65,"tick":118217,"time":153.92838541666666,"type":"noteOff","velocity":0},{"channel":0,"nextOffset":8269,"note":62,"tick":118217,"time":153.92838541666666,"type":"noteOff","velocity":0},{"channel":0,"nextOffset":8273,"note":58,"tick":118217,"time":153.92838541666666,"type":"noteOff","velocity":0},{"channel":0,"nextOffset":8277,"note":43,"tick":118217,"time":153.92838541666666,"type":"noteOn","velocity":68},{"channel":2,"nextOffset":30515,"note":33,"tick":118229,"time":153.94401041666666,"type":"noteOn","velocity":57},{"channel":1,"nextOffset":18951,"note":33,"tick":118237,"time":153.95442708333334,"type":"noteOff","velocity":0},{"channel":1,"nextOffset":18955,"note":33,"tick":118237,"time":153.95442708333334,"type":"noteOff","velocity":0},{"channel":9,"nextOffset":22475,"note":35,"tick":118238,"time":153.95572916666666,"type":"noteOff","velocity":0},{"channel":9,"nextOffset":26326,"note":35,"tick":118246,"time":153.96614583333334,"type":"noteOn","velocity":50},{"channel":9,"nextOffset":47750,"note":42,"tick":118304,"time":154.04166666666666,"type":"noteOff","velocity":0},{"channel":9,"nextOffset":47754,"note":42,"tick":118304,"time":154.04166666666666,"type":"noteOn","velocity":50},{"channel":2,"nextOffset":30519,"note":33,"tick":118325,"time":154.06901041666666,"type":"noteOff","velocity":0},{"channel":1,"nextOffset":18959,"note":33,"tick":118333,"time":154.07942708333334,"type":"noteOn","velocity":50},{"channel":9,"nextOffset":26330,"note":35,"tick":118342,"time":154.09114583333334,"type":"noteOff","velocity":0},{"channel":9,"nextOffset":47758,"note":42,"tick":118400,"time":154.16666666666666,"type":"noteOff","velocity":0},{"channel":0,"nextOffset":8282,"note":43,"tick":118409,"time":154.17838541666666,"type":"noteOff","velocity":0},{"channel":0,"nextOffset":8286,"note":44,"tick":118409,"time":154.17838541666666,"type":"noteOn","velocity":68},{"channel":0,"nextOffset":8290,"note":65,"tick":118409,"time":154.17838541666666,"type":"noteOn","velocity":68},{"channel":1,"nextOffset":18963,"note":33,"tick":118429,"time":154.20442708333334,"type":"noteOff","velocity":0},{"channel":0,"nextOffset":8294,"note":65,"tick":118505,"time":154.30338541666666,"type":"noteOff","velocity":0},{"channel":0,"nextOffset":8298,"note":69,"tick":118505,"time":154.30338541666666,"type":"noteOn","velocity":68},{"channel":2,"nextOffset":30524,"note":26,"tick":118517,"time":154.31901041666666,"type":"noteOn","velocity":57},{"channel":9,"nextOffset":22480,"note":35,"tick":118526,"time":154.33072916666666,"type":"noteOn","velocity":50},{"channel":9,"nextOffset":47763,"note":42,"tick":118592,"time":154.41666666666666,"type":"noteOn","velocity":50},{"channel":0,"nextOffset":8302,"note":44,"tick":118601,"time":154.42838541666666,"type":"noteOff","velocity":0},{"channel":0,"nextOffset":8306,"note":69,"tick":118601,"time":154.42838541666666,"type":"noteOff","velocity":0},{"channel":0,"nextOffset":8310,"note":45,"tick":118601,"time":154.42838541666666,"type":"noteOn","velocity":68},{"channel":0,"nextOffset":8314,"note":72,"tick":118601,"time":154.42838541666666,"type":"noteOn","velocity":68},{"channel":0,"nextOffset":8318,"note":67,"tick":118601,"time":154.42838541666666,"type":"noteOn","velocity":68},{"channel":0,"nextOffset":8322,"note":64,"tick":118601,"time":154.42838541666666,"type":"noteOn","velocity":68},{"channel":0,"nextOffset":8326,"note":60,"tick":118601,"time":154.42838541666666,"type":"noteOn","velocity":68},{"channel":1,"nextOffset":18968,"note":26,"tick":118621,"time":154.45442708333334,"type":"noteOn","velocity":50},{"channel":9,"nextOffset":22484,"note":35,"tick":118622,"time":154.45572916666666,"type":"noteOff","velocity":0},{"channel":9,"nextOffset":26335,"note":35,"tick":118630,"time":154.46614583333334,"type":"noteOn","velocity":50},{"channel":9,"nextOffset":47767,"note":42,"tick":118688,"time":154.54166666666666,"type":"noteOff","velocity":0},{"channel":2,"nextOffset":30529,"note":26,"tick":118709,"time":154.56901041666666,"type":"noteOff","velocity":0},{"channel":2,"nextOffset":30533,"note":31,"tick":118709,"time":154.56901041666666,"type":"noteOn","velocity":57},{"channel":9,"nextOffset":26339,"note":35,"tick":118726,"time":154.59114583333334,"type":"noteOff","velocity":0},{"channel":0,"nextOffset":8331,"note":60,"tick":118793,"time":154.67838541666666,"type":"noteOff","velocity":0},{"channel":0,"nextOffset":8335,"note":64,"tick":118793,"time":154.67838541666666,"type":"noteOff","velocity":0},{"channel":0,"nextOffset":8339,"note":67,"tick":118793,"time":154.67838541666666,"type":"noteOff","velocity":0},{"channel":0,"nextOffset":8343,"note":72,"tick":118793,"time":154.67838541666666,"type":"noteOff","velocity":0},{"channel":0,"nextOffset":8347,"note":45,"tick":118793,"time":154.67838541666666,"type":"noteOff","velocity":0},{"channel":1,"nextOffset":18973,"note":26,"tick":118813,"time":154.70442708333334,"type":"noteOff","velocity":0},{"channel":1,"nextOffset":18977,"note":31,"tick":118813,"time":154.70442708333334,"type":"noteOn","velocity":50},{"channel":9,"nextOffset":22489,"note":35,"tick":118814,"time":154.70572916666666,"type":"noteOn","velocity":50},{"channel":9,"nextOffset":47772,"note":42,"tick":118880,"time":154.79166666666666,"type":"noteOn","velocity":50},{"channel":0,"nextOffset":8351,"note":45,"tick":118889,"time":154.80338541666666,"type":"noteOn","velocity":68},{"channel":0,"nextOffset":8355,"note":61,"tick":118889,"time":154.80338541666666,"type":"noteOn","velocity":68},{"channel":0,"nextOffset":8359,"note":65,"tick":118889,"time":154.80338541666666,"type":"noteOn","velocity":68},{"channel":0,"nextOffset":8363,"note":67,"tick":118889,"time":154.80338541666666,"type":"noteOn","velocity":68},{"channel":0,"nextOffset":8367,"note":70,"tick":118889,"time":154.80338541666666,"type":"noteOn","velocity":68},{"channel":2,"nextOffset":30538,"note":31,"tick":118901,"time":154.81901041666666,"type":"noteOff","velocity":0},{"channel":9,"nextOffset":22493,"note":35,"tick":118910,"time":154.83072916666666,"type":"noteOff","velocity":0},{"channel":9,"nextOffset":26344,"note":35,"tick":118918,"time":154.84114583333334,"type":"noteOn","velocity":50},{"channel":9,"nextOffset":47776,"note":42,"tick":118976,"time":154.91666666666666,"type":"noteOff","velocity":0},{"channel":9,"nextOffset":47780,"note":42,"tick":118976,"time":154.91666666666666,"type":"noteOn","velocity":50},{"channel":0,"nextOffset":8371,"note":45,"tick":118985,"time":154.92838541666666,"type":"noteOff","velocity":0},{"channel":9,"nextOffset":47784,"note":42,"tick":119000,"time":154.94791666666666,"type":"noteOff","velocity":0},{"channel":1,"nextOffset":18982,"note":31,"tick":119005,"time":154.95442708333334,"type":"noteOff","velocity":0},{"channel":9,"nextOffset":26348,"note":35,"tick":119014,"time":154.96614583333334,"type":"noteOff","velocity":0},{"channel":9,"nextOffset":47788,"note":42,"tick":119024,"time":154.97916666666666,"type":"noteOn","velocity":50},{"channel":9,"nextOffset":47792,"note":42,"tick":119048,"time":155.01041666666666,"type":"noteOff","velocity":0},{"channel":9,"nextOffset":47796,"note":42,"tick":119072,"time":155.04166666666666,"type":"noteOn","velocity":50},{"channel":0,"nextOffset":8375,"note":70,"tick":119081,"time":155.05338541666666,"type":"noteOff","velocity":0},{"channel":0,"nextOffset":8379,"note":67,"tick":119081,"time":155.05338541666666,"type":"noteOff","velocity":0},{"channel":0,"nextOffset":8383,"note":65,"tick":119081,"time":155.05338541666666,"type":"noteOff","velocity":0},{"channel":0,"nextOffset":8387,"note":61,"tick":119081,"time":155.05338541666666,"type":"noteOff","velocity":0},{"channel":2,"nextOffset":30543,"note":31,"tick":119093,"time":155.06901041666666,"type":"noteOn","velocity":57},{"channel":9,"nextOffset":47800,"note":42,"tick":119096,"time":155.07291666666666,"type":"noteOff","velocity":0},{"channel":9,"nextOffset":22498,"note":35,"tick":119102,"time":155.08072916666666,"type":"noteOn","velocity":50},{"channel":9,"nextOffset":47804,"note":42,"tick":119120,"time":155.10416666666666,"type":"noteOn","velocity":50},{"channel":9,"nextOffset":47808,"note":42,"tick":119144,"time":155.13541666666666,"type":"noteOff","velocity":0},{"channel":9,"nextOffset":47812,"note":42,"tick":119168,"time":155.16666666666666,"type":"noteOn","velocity":50},{"channel":0,"nextOffset":8391,"note":38,"tick":119177,"time":155.17838541666666,"type":"noteOn","velocity":68},{"channel":0,"nextOffset":8395,"note":60,"tick":119177,"time":155.17838541666666,"type":"noteOn","velocity":68},{"channel":0,"nextOffset":8399,"note":64,"tick":119177,"time":155.17838541666666,"type":"noteOn","velocity":68},{"channel":0,"nextOffset":8403,"note":65,"tick":119177,"time":155.17838541666666,"type":"noteOn","velocity":68},{"channel":0,"nextOffset":8407,"note":69,"tick":119177,"time":155.17838541666666,"type":"noteOn","velocity":68},{"channel":9,"nextOffset":47816,"note":42,"tick":119192,"time":155.19791666666666,"type":"noteOff","velocity":0},{"channel":1,"nextOffset":18987,"note":31,"tick":119197,"time":155.20442708333334,"type":"noteOn","velocity":50},{"channel":9,"nextOffset":22502,"note":35,"tick":119198,"time":155.20572916666666,"type":"noteOff","velocity":0},{"channel":9,"nextOffset":26353,"note":35,"tick":119206,"time":155.21614583333334,"type":"noteOn","velocity":50},{"channel":2,"nextOffset":30548,"note":31,"tick":119285,"time":155.31901041666666,"type":"noteOff","velocity":0},{"channel":2,"nextOffset":30552,"note":32,"tick":119285,"time":155.31901041666666,"type":"noteOn","velocity":57},{"channel":9,"nextOffset":22506,"note":35,"tick":119294,"time":155.33072916666666,"type":"noteOn","velocity":50},{"channel":9,"nextOffset":26357,"note":35,"tick":119302,"time":155.34114583333334,"type":"noteOff","velocity":0},{"channel":9,"nextOffset":47821,"note":42,"tick":119360,"time":155.41666666666666,"type":"noteOn","velocity":50},{"channel":0,"nextOffset":8412,"note":69,"tick":119369,"time":155.42838541666666,"type":"noteOff","velocity":0},{"channel":0,"nextOffset":8416,"note":65,"tick":119369,"time":155.42838541666666,"type":"noteOff","velocity":0},{"channel":0,"nextOffset":8420,"note":64,"tick":119369,"time":155.42838541666666,"type":"noteOff","velocity":0},{"channel":0,"nextOffset":8424,"note":60,"tick":119369,"time":155.42838541666666,"type":"noteOff","velocity":0},{"channel":0,"nextOffset":8428,"note":38,"tick":119369,"time":155.42838541666666,"type":"noteOff","velocity":0},{"channel":0,"nextOffset":8432,"note":76,"tick":119369,"time":155.42838541666666,"type":"noteOn","velocity":68},{"channel":0,"nextOffset":8436,"note":50,"tick":119369,"time":155.42838541666666,"type":"noteOn","velocity":68},{"channel":1,"nextOffset":18992,"note":31,"tick":119389,"time":155.45442708333334,"type":"noteOff","velocity":0},{"channel":1,"nextOffset":18996,"note":32,"tick":119389,"time":155.45442708333334,"type":"noteOn","velocity":50},{"channel":9,"nextOffset":22510,"note":35,"tick":119390,"time":155.45572916666666,"type":"noteOff","velocity":0},{"channel":9,"nextOffset":26361,"note":35,"tick":119398,"time":155.46614583333334,"type":"noteOn","velocity":50},{"channel":9,"nextOffset":47825,"note":42,"tick":119456,"time":155.54166666666666,"type":"noteOff","velocity":0},{"channel":9,"nextOffset":47829,"note":42,"tick":119456,"time":155.54166666666666,"type":"noteOn","velocity":50},{"channel":0,"nextOffset":8440,"note":76,"tick":119465,"time":155.55338541666666,"type":"noteOff","velocity":0},{"channel":0,"nextOffset":8444,"note":77,"tick":119465,"time":155.55338541666666,"type":"noteOn","velocity":68},{"channel":2,"nextOffset":30557,"note":32,"tick":119477,"time":155.56901041666666,"type":"noteOff","velocity":0},{"channel":2,"nextOffset":30561,"note":33,"tick":119477,"time":155.56901041666666,"type":"noteOn","velocity":57},{"channel":9,"nextOffset":26365,"note":35,"tick":119494,"time":155.59114583333334,"type":"noteOff","velocity":0},{"channel":9,"nextOffset":47833,"note":42,"tick":119552,"time":155.66666666666666,"type":"noteOff","velocity":0},{"channel":0,"nextOffset":8448,"note":50,"tick":119561,"time":155.67838541666666,"type":"noteOff","velocity":0},{"channel":0,"nextOffset":8452,"note":77,"tick":119561,"time":155.67838541666666,"type":"noteOff","velocity":0},{"channel":0,"nextOffset":8456,"note":79,"tick":119561,"time":155.67838541666666,"type":"noteOn","velocity":68},{"channel":0,"nextOffset":8460,"note":38,"tick":119561,"time":155.67838541666666,"type":"noteOn","velocity":68},{"channel":1,"nextOffset":19001,"note":32,"tick":119581,"time":155.70442708333334,"type":"noteOff","velocity":0},{"channel":1,"nextOffset":19005,"note":33,"tick":119581,"time":155.70442708333334,"type":"noteOn","velocity":50},{"channel":0,"nextOffset":8464,"note":79,"tick":119657,"time":155.80338541666666,"type":"noteOff","velocity":0},{"channel":0,"nextOffset":8468,"note":77,"tick":119657,"time":155.80338541666666,"type":"noteOn","velocity":68},{"channel":2,"nextOffset":30566,"note":33,"tick":119669,"time":155.81901041666666,"type":"noteOff","velocity":0},{"channel":9,"nextOffset":22515,"note":35,"tick":119678,"time":155.83072916666666,"type":"noteOn","velocity":50},{"channel":9,"nextOffset":47838,"note":42,"tick":119744,"time":155.91666666666666,"type":"noteOn","velocity":50},{"channel":0,"nextOffset":8472,"note":38,"tick":119753,"time":155.92838541666666,"type":"noteOff","velocity":0},{"channel":0,"nextOffset":8476,"note":77,"tick":119753,"time":155.92838541666666,"type":"noteOff","velocity":0},{"channel":0,"nextOffset":8480,"note":76,"tick":119753,"time":155.92838541666666,"type":"noteOn","velocity":68},{"channel":0,"nextOffset":8484,"note":45,"tick":119753,"time":155.92838541666666,"type":"noteOn","velocity":68},{"channel":2,"nextOffset":30570,"note":33,"tick":119765,"time":155.94401041666666,"type":"noteOn","velocity":57},{"channel":1,"nextOffset":19010,"note":33,"tick":119773,"time":155.95442708333334,"type":"noteOff","velocity":0},{"channel":9,"nextOffset":22519,"note":35,"tick":119774,"time":155.95572916666666,"type":"noteOff","velocity":0},{"channel":9,"nextOffset":26370,"note":35,"tick":119782,"time":155.96614583333334,"type":"noteOn","velocity":50},{"channel":9,"nextOffset":47842,"note":42,"tick":119840,"time":156.04166666666666,"type":"noteOff","velocity":0},{"channel":9,"nextOffset":47846,"note":42,"tick":119840,"time":156.04166666666666,"type":"noteOn","velocity":50},{"channel":0,"nextOffset":8488,"note":76,"tick":119849,"time":156.05338541666666,"type":"noteOff","velocity":0},{"channel":0,"nextOffset":8492,"note":72,"tick":119849,"time":156.05338541666666,"type":"noteOn","velocity":68},{"channel":2,"nextOffset":30574,"note":33,"tick":119861,"time":156.06901041666666,"type":"noteOff","velocity":0},{"channel":1,"nextOffset":19014,"note":33,"tick":119869,"time":156.07942708333334,"type":"noteOn","velocity":50},{"channel":9,"nextOffset":26374,"note":35,"tick":119878,"time":156.09114583333334,"type":"noteOff","velocity":0},{"channel":9,"nextOffset":47850,"note":42,"tick":119936,"time":156.16666666666666,"type":"noteOff","velocity":0},{"channel":0,"nextOffset":8496,"note":45,"tick":119945,"time":156.17838541666666,"type":"noteOff","velocity":0},{"channel":0,"nextOffset":8500,"note":72,"tick":119945,"time":156.17838541666666,"type":"noteOff","velocity":0},{"channel":0,"nextOffset":8504,"note":69,"tick":119945,"time":156.17838541666666,"type":"noteOn","velocity":68},{"channel":0,"nextOffset":8508,"note":38,"tick":119945,"time":156.17838541666666,"type":"noteOn","velocity":68},{"channel":1,"nextOffset":19018,"note":33,"tick":119965,"time":156.20442708333334,"type":"noteOff","velocity":0},{"channel":0,"nextOffset":8512,"note":69,"tick":120041,"time":156.30338541666666,"type":"noteOff","velocity":0},{"channel":0,"nextOffset":8516,"note":67,"tick":120041,"time":156.30338541666666,"type":"noteOn","velocity":68},{"channel":2,"nextOffset":30579,"note":26,"tick":120053,"time":156.31901041666666,"type":"noteOn","velocity":57},{"channel":9,"nextOffset":22524,"note":35,"tick":120062,"time":156.33072916666666,"type":"noteOn","velocity":50},{"channel":9,"nextOffset":47855,"note":42,"tick":120128,"time":156.41666666666666,"type":"noteOn","velocity":50},{"channel":0,"nextOffset":8520,"note":38,"tick":120137,"time":156.42838541666666,"type":"noteOff","velocity":0},{"channel":0,"nextOffset":8524,"note":67,"tick":120137,"time":156.42838541666666,"type":"noteOff","velocity":0},{"channel":0,"nextOffset":8528,"note":69,"tick":120137,"time":156.42838541666666,"type":"noteOn","velocity":68},{"channel":0,"nextOffset":8532,"note":50,"tick":120137,"time":156.42838541666666,"type":"noteOn","velocity":68},{"channel":1,"nextOffset":19023,"note":26,"tick":120157,"time":156.45442708333334,"type":"noteOn","velocity":50},{"channel":9,"nextOffset":22528,"note":35,"tick":120158,"time":156.45572916666666,"type":"noteOff","velocity":0},{"channel":9,"nextOffset":26379,"note":35,"tick":120166,"time":156.46614583333334,"type":"noteOn","velocity":50},{"channel":9,"nextOffset":47859,"note":42,"tick":120224,"time":156.54166666666666,"type":"noteOff","velocity":0},{"channel":0,"nextOffset":8536,"note":69,"tick":120233,"time":156.55338541666666,"type":"noteOff","velocity":0},{"channel":0,"nextOffset":8540,"note":62,"tick":120233,"time":156.55338541666666,"type":"noteOn","velocity":68},{"channel":2,"nextOffset":30584,"note":26,"tick":120245,"time":156.56901041666666,"type":"noteOff","velocity":0},{"channel":9,"nextOffset":26383,"note":35,"tick":120262,"time":156.59114583333334,"type":"noteOff","velocity":0},{"channel":0,"nextOffset":8544,"note":50,"tick":120329,"time":156.67838541666666,"type":"noteOff","velocity":0},{"channel":0,"nextOffset":8548,"note":62,"tick":120329,"time":156.67838541666666,"type":"noteOff","velocity":0},{"channel":0,"nextOffset":8552,"note":60,"tick":120329,"time":156.67838541666666,"type":"noteOn","velocity":68},{"channel":0,"nextOffset":8556,"note":38,"tick":120329,"time":156.67838541666666,"type":"noteOn","velocity":68},{"channel":1,"nextOffset":19028,"note":26,"tick":120349,"time":156.70442708333334,"type":"noteOff","velocity":0},{"channel":9,"nextOffset":22533,"note":35,"tick":120350,"time":156.70572916666666,"type":"noteOn","velocity":50},{"channel":9,"nextOffset":47864,"note":42,"tick":120416,"time":156.79166666666666,"type":"noteOn","velocity":50},{"channel":0,"nextOffset":8560,"note":60,"tick":120425,"time":156.80338541666666,"type":"noteOff","velocity":0},{"channel":0,"nextOffset":8564,"note":65,"tick":120425,"time":156.80338541666666,"type":"noteOn","velocity":68},{"channel":2,"nextOffset":30589,"note":38,"tick":120437,"time":156.81901041666666,"type":"noteOn","velocity":57},{"channel":9,"nextOffset":22537,"note":35,"tick":120446,"time":156.83072916666666,"type":"noteOff","velocity":0},{"channel":9,"nextOffset":26388,"note":35,"tick":120454,"time":156.84114583333334,"type":"noteOn","velocity":50},{"channel":9,"nextOffset":47868,"note":42,"tick":120512,"time":156.91666666666666,"type":"noteOff","velocity":0},{"channel":9,"nextOffset":47872,"note":42,"tick":120512,"time":156.91666666666666,"type":"noteOn","velocity":50},{"channel":0,"nextOffset":8568,"note":38,"tick":120521,"time":156.92838541666666,"type":"noteOff","velocity":0},{"channel":0,"nextOffset":8572,"note":65,"tick":120521,"time":156.92838541666666,"type":"noteOff","velocity":0},{"channel":0,"nextOffset":8576,"note":45,"tick":120521,"time":156.92838541666666,"type":"noteOn","velocity":68},{"channel":0,"nextOffset":8580,"note":64,"tick":120521,"time":156.92838541666666,"type":"noteOn","velocity":68},{"channel":0,"nextOffset":8584,"note":60,"tick":120521,"time":156.92838541666666,"type":"noteOn","velocity":68},{"channel":0,"nextOffset":8588,"note":69,"tick":120521,"time":156.92838541666666,"type":"noteOn","velocity":68},{"channel":9,"nextOffset":47876,"note":42,"tick":120536,"time":156.94791666666666,"type":"noteOff","velocity":0},{"channel":1,"nextOffset":19033,"note":38,"tick":120541,"time":156.95442708333334,"type":"noteOn","velocity":50},{"channel":9,"nextOffset":26392,"note":35,"tick":120550,"time":156.96614583333334,"type":"noteOff","velocity":0},{"channel":9,"nextOffset":47880,"note":42,"tick":120560,"time":156.97916666666666,"type":"noteOn","velocity":50},{"channel":9,"nextOffset":47884,"note":42,"tick":120584,"time":157.01041666666666,"type":"noteOff","velocity":0},{"channel":9,"nextOffset":47888,"note":42,"tick":120608,"time":157.04166666666666,"type":"noteOn","velocity":50},{"channel":2,"nextOffset":30594,"note":38,"tick":120629,"time":157.06901041666666,"type":"noteOff","velocity":0},{"channel":2,"nextOffset":30598,"note":26,"tick":120629,"time":157.06901041666666,"type":"noteOn","velocity":57},{"channel":9,"nextOffset":47892,"note":42,"tick":120632,"time":157.07291666666666,"type":"noteOff","velocity":0},{"channel":9,"nextOffset":22542,"note":35,"tick":120638,"time":157.08072916666666,"type":"noteOn","velocity":50},{"channel":9,"nextOffset":47896,"note":42,"tick":120656,"time":157.10416666666666,"type":"noteOn","velocity":50},{"channel":9,"nextOffset":47900,"note":42,"tick":120680,"time":157.13541666666666,"type":"noteOff","velocity":0},{"channel":9,"nextOffset":47904,"note":42,"tick":120704,"time":157.16666666666666,"type":"noteOn","velocity":50},{"channel":0,"nextOffset":8593,"note":69,"tick":120713,"time":157.17838541666666,"type":"noteOff","velocity":0},{"channel":0,"nextOffset":8597,"note":60,"tick":120713,"time":157.17838541666666,"type":"noteOff","velocity":0},{"channel":0,"nextOffset":8601,"note":64,"tick":120713,"time":157.17838541666666,"type":"noteOff","velocity":0},{"channel":0,"nextOffset":8605,"note":45,"tick":120713,"time":157.17838541666666,"type":"noteOff","velocity":0},{"channel":0,"nextOffset":8609,"note":59,"tick":120713,"time":157.17838541666666,"type":"noteOn","velocity":68},{"channel":0,"nextOffset":8613,"note":63,"tick":120713,"time":157.17838541666666,"type":"noteOn","velocity":68},{"channel":0,"nextOffset":8617,"note":68,"tick":120713,"time":157.17838541666666,"type":"noteOn","velocity":68},{"channel":0,"nextOffset":8621,"note":44,"tick":120713,"time":157.17838541666666,"type":"noteOn","velocity":68},{"channel":9,"nextOffset":47908,"note":42,"tick":120728,"time":157.19791666666666,"type":"noteOff","velocity":0},{"channel":1,"nextOffset":19038,"note":38,"tick":120733,"time":157.20442708333334,"type":"noteOff","velocity":0},{"channel":1,"nextOffset":19042,"note":26,"tick":120733,"time":157.20442708333334,"type":"noteOn","velocity":50},{"channel":9,"nextOffset":22546,"note":35,"tick":120734,"time":157.20572916666666,"type":"noteOff","velocity":0},{"channel":9,"nextOffset":26397,"note":35,"tick":120742,"time":157.21614583333334,"type":"noteOn","velocity":50},{"channel":2,"nextOffset":30603,"note":26,"tick":120821,"time":157.31901041666666,"type":"noteOff","velocity":0},{"channel":2,"nextOffset":30607,"note":33,"tick":120821,"time":157.31901041666666,"type":"noteOn","velocity":57},{"channel":9,"nextOffset":22550,"note":35,"tick":120830,"time":157.33072916666666,"type":"noteOn","velocity":50},{"channel":9,"nextOffset":26401,"note":35,"tick":120838,"time":157.34114583333334,"type":"noteOff","velocity":0},{"channel":9,"nextOffset":47913,"note":42,"tick":120896,"time":157.41666666666666,"type":"noteOn","velocity":50},{"channel":0,"nextOffset":8626,"note":44,"tick":120905,"time":157.42838541666666,"type":"noteOff","velocity":0},{"channel":0,"nextOffset":8630,"note":68,"tick":120905,"time":157.42838541666666,"type":"noteOff","velocity":0},{"channel":0,"nextOffset":8634,"note":63,"tick":120905,"time":157.42838541666666,"type":"noteOff","velocity":0},{"channel":0,"nextOffset":8638,"note":59,"tick":120905,"time":157.42838541666666,"type":"noteOff","velocity":0},{"channel":0,"nextOffset":8642,"note":43,"tick":120905,"time":157.42838541666666,"type":"noteOn","velocity":68},{"channel":0,"nextOffset":8646,"note":58,"tick":120905,"time":157.42838541666666,"type":"noteOn","velocity":68},{"channel":0,"nextOffset":8650,"note":62,"tick":120905,"time":157.42838541666666,"type":"noteOn","velocity":68},{"channel":0,"nextOffset":8654,"note":65,"tick":120905,"time":157.42838541666666,"type":"noteOn","velocity":68},{"channel":0,"nextOffset":8658,"note":69,"tick":120905,"time":157.42838541666666,"type":"noteOn","velocity":68},{"channel":1,"nextOffset":19047,"note":26,"tick":120925,"time":157.45442708333334,"type":"noteOff","velocity":0},{"channel":1,"nextOffset":19051,"note":33,"tick":120925,"time":157.45442708333334,"type":"noteOn","velocity":50},{"channel":9,"nextOffset":22554,"note":35,"tick":120926,"time":157.45572916666666,"type":"noteOff","velocity":0},{"channel":9,"nextOffset":26405,"note":35,"tick":120934,"time":157.46614583333334,"type":"noteOn","velocity":50},{"channel":9,"nextOffset":47917,"note":42,"tick":120992,"time":157.54166666666666,"type":"noteOff","velocity":0},{"channel":9,"nextOffset":23516,"note":42,"tick":121000,"time":157.55208333333334,"type":"noteOn","velocity":50},{"channel":2,"nextOffset":30612,"note":33,"tick":121013,"time":157.56901041666666,"type":"noteOff","velocity":0},{"channel":9,"nextOffset":26409,"note":35,"tick":121030,"time":157.59114583333334,"type":"noteOff","velocity":0},{"channel":9,"nextOffset":23520,"note":42,"tick":121096,"time":157.67708333333334,"type":"noteOff","velocity":0},{"channel":0,"nextOffset":8663,"note":43,"tick":121097,"time":157.67838541666666,"type":"noteOff","velocity":0},{"channel":0,"nextOffset":8667,"note":50,"tick":121097,"time":157.67838541666666,"type":"noteOn","velocity":68},{"channel":1,"nextOffset":19056,"note":33,"tick":121117,"time":157.70442708333334,"type":"noteOff","velocity":0},{"channel":2,"nextOffset":30617,"note":26,"tick":121205,"time":157.81901041666666,"type":"noteOn","velocity":57},{"channel":9,"nextOffset":22559,"note":35,"tick":121214,"time":157.83072916666666,"type":"noteOn","velocity":50},{"channel":9,"nextOffset":47922,"note":42,"tick":121280,"time":157.91666666666666,"type":"noteOn","velocity":50},{"channel":0,"nextOffset":8672,"note":69,"tick":121289,"time":157.92838541666666,"type":"noteOff","velocity":0},{"channel":0,"nextOffset":8676,"note":65,"tick":121289,"time":157.92838541666666,"type":"noteOff","velocity":0},{"channel":0,"nextOffset":8680,"note":62,"tick":121289,"time":157.92838541666666,"type":"noteOff","velocity":0},{"channel":0,"nextOffset":8684,"note":58,"tick":121289,"time":157.92838541666666,"type":"noteOff","velocity":0},{"channel":0,"nextOffset":8688,"note":50,"tick":121289,"time":157.92838541666666,"type":"noteOff","velocity":0},{"channel":0,"nextOffset":8692,"note":43,"tick":121289,"time":157.92838541666666,"type":"noteOn","velocity":68},{"channel":1,"nextOffset":19061,"note":26,"tick":121309,"time":157.95442708333334,"type":"noteOn","velocity":50},{"channel":9,"nextOffset":22563,"note":35,"tick":121310,"time":157.95572916666666,"type":"noteOff","velocity":0},{"channel":9,"nextOffset":26414,"note":35,"tick":121318,"time":157.96614583333334,"type":"noteOn","velocity":50},{"channel":9,"nextOffset":47926,"note":42,"tick":121376,"time":158.04166666666666,"type":"noteOff","velocity":0},{"channel":9,"nextOffset":23525,"note":42,"tick":121384,"time":158.05208333333334,"type":"noteOn","velocity":50},{"channel":2,"nextOffset":30622,"note":26,"tick":121397,"time":158.06901041666666,"type":"noteOff","velocity":0},{"channel":2,"nextOffset":30626,"note":33,"tick":121397,"time":158.06901041666666,"type":"noteOn","velocity":57},{"channel":9,"nextOffset":26418,"note":35,"tick":121414,"time":158.09114583333334,"type":"noteOff","velocity":0},{"channel":9,"nextOffset":23529,"note":42,"tick":121480,"time":158.17708333333334,"type":"noteOff","velocity":0},{"channel":0,"nextOffset":8697,"note":43,"tick":121481,"time":158.17838541666666,"type":"noteOff","velocity":0},{"channel":0,"nextOffset":8701,"note":44,"tick":121481,"time":158.17838541666666,"type":"noteOn","velocity":68},{"channel":0,"nextOffset":8705,"note":65,"tick":121481,"time":158.17838541666666,"type":"noteOn","velocity":68},{"channel":1,"nextOffset":19066,"note":26,"tick":121501,"time":158.20442708333334,"type":"noteOff","velocity":0},{"channel":1,"nextOffset":19070,"note":33,"tick":121501,"time":158.20442708333334,"type":"noteOn","velocity":50},{"channel":10,"nextOffset":41618,"note":86,"tick":121537,"time":158.25130208333334,"type":"noteOn","velocity":50},{"channel":0,"nextOffset":8709,"note":65,"tick":121577,"time":158.30338541666666,"type":"noteOff","velocity":0},{"channel":0,"nextOffset":8713,"note":69,"tick":121577,"time":158.30338541666666,"type":"noteOn","velocity":68},{"channel":2,"nextOffset":30631,"note":33,"tick":121589,"time":158.31901041666666,"type":"noteOff","velocity":0},{"channel":2,"nextOffset":30635,"note":32,"tick":121589,"time":158.31901041666666,"type":"noteOn","velocity":57},{"channel":9,"nextOffset":22568,"note":35,"tick":121598,"time":158.33072916666666,"type":"noteOn","velocity":50},{"channel":10,"nextOffset":41622,"note":86,"tick":121633,"time":158.37630208333334,"type":"noteOff","velocity":0},{"channel":10,"nextOffset":41626,"note":89,"tick":121633,"time":158.37630208333334,"type":"noteOn","velocity":50},{"channel":9,"nextOffset":47931,"note":42,"tick":121664,"time":158.41666666666666,"type":"noteOn","velocity":50},{"channel":0,"nextOffset":8717,"note":44,"tick":121673,"time":158.42838541666666,"type":"noteOff","velocity":0},{"channel":0,"nextOffset":8721,"note":69,"tick":121673,"time":158.42838541666666,"type":"noteOff","velocity":0},{"channel":0,"nextOffset":8725,"note":45,"tick":121673,"time":158.42838541666666,"type":"noteOn","velocity":68},{"channel":0,"nextOffset":8729,"note":72,"tick":121673,"time":158.42838541666666,"type":"noteOn","velocity":68},{"channel":0,"nextOffset":8733,"note":67,"tick":121673,"time":158.42838541666666,"type":"noteOn","velocity":68},{"channel":0,"nextOffset":8737,"note":64,"tick":121673,"time":158.42838541666666,"type":"noteOn","velocity":68},{"channel":0,"nextOffset":8741,"note":60,"tick":121673,"time":158.42838541666666,"type":"noteOn","velocity":68},{"channel":1,"nextOffset":19075,"note":33,"tick":121693,"time":158.45442708333334,"type":"noteOff","velocity":0},{"channel":1,"nextOffset":19079,"note":32,"tick":121693,"time":158.45442708333334,"type":"noteOn","velocity":50},{"channel":9,"nextOffset":22572,"note":35,"tick":121694,"time":158.45572916666666,"type":"noteOff","velocity":0},{"channel":9,"nextOffset":26423,"note":35,"tick":121702,"time":158.46614583333334,"type":"noteOn","velocity":50},{"channel":10,"nextOffset":41630,"note":89,"tick":121729,"time":158.50130208333334,"type":"noteOff","velocity":0},{"channel":10,"nextOffset":41634,"note":91,"tick":121729,"time":158.50130208333334,"type":"noteOn","velocity":50},{"channel":9,"nextOffset":47935,"note":42,"tick":121760,"time":158.54166666666666,"type":"noteOff","velocity":0},{"channel":9,"nextOffset":23534,"note":42,"tick":121768,"time":158.55208333333334,"type":"noteOn","velocity":50},{"channel":2,"nextOffset":30640,"note":32,"tick":121781,"time":158.56901041666666,"type":"noteOff","velocity":0},{"channel":2,"nextOffset":30644,"note":31,"tick":121781,"time":158.56901041666666,"type":"noteOn","velocity":57},{"channel":9,"nextOffset":26427,"note":35,"tick":121798,"time":158.59114583333334,"type":"noteOff","velocity":0},{"channel":10,"nextOffset":41638,"note":91,"tick":121825,"time":158.62630208333334,"type":"noteOff","velocity":0},{"channel":9,"nextOffset":23538,"note":42,"tick":121864,"time":158.67708333333334,"type":"noteOff","velocity":0},{"channel":0,"nextOffset":8746,"note":60,"tick":121865,"time":158.67838541666666,"type":"noteOff","velocity":0},{"channel":0,"nextOffset":8750,"note":64,"tick":121865,"time":158.67838541666666,"type":"noteOff","velocity":0},{"channel":0,"nextOffset":8754,"note":67,"tick":121865,"time":158.67838541666666,"type":"noteOff","velocity":0},{"channel":0,"nextOffset":8758,"note":72,"tick":121865,"time":158.67838541666666,"type":"noteOff","velocity":0},{"channel":0,"nextOffset":8762,"note":45,"tick":121865,"time":158.67838541666666,"type":"noteOff","velocity":0},{"channel":1,"nextOffset":19084,"note":32,"tick":121885,"time":158.70442708333334,"type":"noteOff","velocity":0},{"channel":1,"nextOffset":19088,"note":31,"tick":121885,"time":158.70442708333334,"type":"noteOn","velocity":50},{"channel":9,"nextOffset":22577,"note":35,"tick":121886,"time":158.70572916666666,"type":"noteOn","velocity":50},{"channel":10,"nextOffset":41642,"note":93,"tick":121921,"time":158.75130208333334,"type":"noteOn","velocity":50},{"channel":9,"nextOffset":47940,"note":42,"tick":121952,"time":158.79166666666666,"type":"noteOn","velocity":50},{"channel":0,"nextOffset":8766,"note":45,"tick":121961,"time":158.80338541666666,"type":"noteOn","velocity":68},{"channel":0,"nextOffset":8770,"note":61,"tick":121961,"time":158.80338541666666,"type":"noteOn","velocity":68},{"channel":0,"nextOffset":8774,"note":65,"tick":121961,"time":158.80338541666666,"type":"noteOn","velocity":68},{"channel":0,"nextOffset":8778,"note":67,"tick":121961,"time":158.80338541666666,"type":"noteOn","velocity":68},{"channel":0,"nextOffset":8782,"note":70,"tick":121961,"time":158.80338541666666,"type":"noteOn","velocity":68},{"channel":2,"nextOffset":30649,"note":31,"tick":121973,"time":158.81901041666666,"type":"noteOff","velocity":0},{"channel":9,"nextOffset":22581,"note":35,"tick":121982,"time":158.83072916666666,"type":"noteOff","velocity":0},{"channel":9,"nextOffset":26432,"note":35,"tick":121990,"time":158.84114583333334,"type":"noteOn","velocity":50},{"channel":10,"nextOffset":41646,"note":93,"tick":122017,"time":158.87630208333334,"type":"noteOff","velocity":0},{"channel":9,"nextOffset":47944,"note":42,"tick":122048,"time":158.91666666666666,"type":"noteOff","velocity":0},{"channel":9,"nextOffset":23543,"note":42,"tick":122056,"time":158.92708333333334,"type":"noteOn","velocity":50},{"channel":0,"nextOffset":8786,"note":45,"tick":122057,"time":158.92838541666666,"type":"noteOff","velocity":0},{"channel":1,"nextOffset":19093,"note":31,"tick":122077,"time":158.95442708333334,"type":"noteOff","velocity":0},{"channel":9,"nextOffset":26436,"note":35,"tick":122086,"time":158.96614583333334,"type":"noteOff","velocity":0},{"channel":10,"nextOffset":41650,"note":95,"tick":122113,"time":159.00130208333334,"type":"noteOn","velocity":50},{"channel":9,"nextOffset":23547,"note":42,"tick":122152,"time":159.05208333333334,"type":"noteOff","velocity":0},{"channel":0,"nextOffset":8790,"note":70,"tick":122153,"time":159.05338541666666,"type":"noteOff","velocity":0},{"channel":0,"nextOffset":8794,"note":67,"tick":122153,"time":159.05338541666666,"type":"noteOff","velocity":0},{"channel":0,"nextOffset":8798,"note":65,"tick":122153,"time":159.05338541666666,"type":"noteOff","velocity":0},{"channel":0,"nextOffset":8802,"note":61,"tick":122153,"time":159.05338541666666,"type":"noteOff","velocity":0},{"channel":2,"nextOffset":30654,"note":31,"tick":122165,"time":159.06901041666666,"type":"noteOn","velocity":57},{"channel":9,"nextOffset":22586,"note":35,"tick":122174,"time":159.08072916666666,"type":"noteOn","velocity":50},{"channel":10,"nextOffset":41654,"note":95,"tick":122209,"time":159.12630208333334,"type":"noteOff","velocity":0},{"channel":0,"nextOffset":8806,"note":38,"tick":122249,"time":159.17838541666666,"type":"noteOn","velocity":68},{"channel":0,"nextOffset":8810,"note":60,"tick":122249,"time":159.17838541666666,"type":"noteOn","velocity":68},{"channel":0,"nextOffset":8814,"note":64,"tick":122249,"time":159.17838541666666,"type":"noteOn","velocity":68},{"channel":0,"nextOffset":8818,"note":65,"tick":122249,"time":159.17838541666666,"type":"noteOn","velocity":68},{"channel":0,"nextOffset":8822,"note":69,"tick":122249,"time":159.17838541666666,"type":"noteOn","velocity":68},{"channel":1,"nextOffset":19098,"note":31,"tick":122269,"time":159.20442708333334,"type":"noteOn","velocity":50},{"channel":9,"nextOffset":22590,"note":35,"tick":122270,"time":159.20572916666666,"type":"noteOff","velocity":0},{"channel":9,"nextOffset":26441,"note":35,"tick":122278,"time":159.21614583333334,"type":"noteOn","velocity":50},{"channel":10,"nextOffset":41658,"note":94,"tick":122305,"time":159.25130208333334,"type":"noteOn","velocity":50},{"channel":2,"nextOffset":30659,"note":31,"tick":122357,"time":159.31901041666666,"type":"noteOff","velocity":0},{"channel":2,"nextOffset":30663,"note":32,"tick":122357,"time":159.31901041666666,"type":"noteOn","velocity":57},{"channel":9,"nextOffset":22594,"note":35,"tick":122366,"time":159.33072916666666,"type":"noteOn","velocity":50},{"channel":9,"nextOffset":26445,"note":35,"tick":122374,"time":159.34114583333334,"type":"noteOff","velocity":0},{"channel":10,"nextOffset":41662,"note":94,"tick":122401,"time":159.37630208333334,"type":"noteOff","velocity":0},{"channel":9,"nextOffset":47949,"note":42,"tick":122432,"time":159.41666666666666,"type":"noteOn","velocity":50},{"channel":0,"nextOffset":8827,"note":69,"tick":122441,"time":159.42838541666666,"type":"noteOff","velocity":0},{"channel":0,"nextOffset":8831,"note":65,"tick":122441,"time":159.42838541666666,"type":"noteOff","velocity":0},{"channel":0,"nextOffset":8835,"note":64,"tick":122441,"time":159.42838541666666,"type":"noteOff","velocity":0},{"channel":0,"nextOffset":8839,"note":60,"tick":122441,"time":159.42838541666666,"type":"noteOff","velocity":0},{"channel":0,"nextOffset":8843,"note":38,"tick":122441,"time":159.42838541666666,"type":"noteOff","velocity":0},{"channel":0,"nextOffset":8847,"note":76,"tick":122441,"time":159.42838541666666,"type":"noteOn","velocity":68},{"channel":1,"nextOffset":19103,"note":31,"tick":122461,"time":159.45442708333334,"type":"noteOff","velocity":0},{"channel":1,"nextOffset":19107,"note":32,"tick":122461,"time":159.45442708333334,"type":"noteOn","velocity":50},{"channel":9,"nextOffset":22598,"note":35,"tick":122462,"time":159.45572916666666,"type":"noteOff","velocity":0},{"channel":9,"nextOffset":26449,"note":35,"tick":122470,"time":159.46614583333334,"type":"noteOn","velocity":50},{"channel":10,"nextOffset":41666,"note":93,"tick":122497,"time":159.50130208333334,"type":"noteOn","velocity":50},{"channel":9,"nextOffset":47953,"note":42,"tick":122528,"time":159.54166666666666,"type":"noteOff","velocity":0},{"channel":9,"nextOffset":23552,"note":42,"tick":122536,"time":159.55208333333334,"type":"noteOn","velocity":50},{"channel":0,"nextOffset":8851,"note":76,"tick":122537,"time":159.55338541666666,"type":"noteOff","velocity":0},{"channel":0,"nextOffset":8855,"note":77,"tick":122537,"time":159.55338541666666,"type":"noteOn","velocity":68},{"channel":2,"nextOffset":30668,"note":32,"tick":122549,"time":159.56901041666666,"type":"noteOff","velocity":0},{"channel":2,"nextOffset":30672,"note":33,"tick":122549,"time":159.56901041666666,"type":"noteOn","velocity":57},{"channel":2,"nextOffset":30676,"note":33,"tick":122549,"time":159.56901041666666,"type":"noteOn","velocity":57},{"channel":9,"nextOffset":26453,"note":35,"tick":122566,"time":159.59114583333334,"type":"noteOff","velocity":0},{"channel":10,"nextOffset":41670,"note":93,"tick":122593,"time":159.62630208333334,"type":"noteOff","velocity":0},{"channel":9,"nextOffset":23556,"note":42,"tick":122632,"time":159.67708333333334,"type":"noteOff","velocity":0},{"channel":0,"nextOffset":8859,"note":77,"tick":122633,"time":159.67838541666666,"type":"noteOff","velocity":0},{"channel":0,"nextOffset":8863,"note":76,"tick":122633,"time":159.67838541666666,"type":"noteOn","velocity":68},{"channel":0,"nextOffset":8867,"note":50,"tick":122633,"time":159.67838541666666,"type":"noteOn","velocity":68},{"channel":1,"nextOffset":19112,"note":32,"tick":122653,"time":159.70442708333334,"type":"noteOff","velocity":0},{"channel":1,"nextOffset":19116,"note":33,"tick":122653,"time":159.70442708333334,"type":"noteOn","velocity":50},{"channel":1,"nextOffset":19120,"note":33,"tick":122653,"time":159.70442708333334,"type":"noteOn","velocity":50},{"channel":10,"nextOffset":41674,"note":92,"tick":122689,"time":159.75130208333334,"type":"noteOn","velocity":50},{"channel":0,"nextOffset":8871,"note":76,"tick":122729,"time":159.80338541666666,"type":"noteOff","velocity":0},{"channel":0,"nextOffset":8875,"note":72,"tick":122729,"time":159.80338541666666,"type":"noteOn","velocity":68},{"channel":2,"nextOffset":30681,"note":33,"tick":122741,"time":159.81901041666666,"type":"noteOff","velocity":0},{"channel":2,"nextOffset":30685,"note":33,"tick":122741,"time":159.81901041666666,"type":"noteOff","velocity":0},{"channel":9,"nextOffset":22603,"note":35,"tick":122750,"time":159.83072916666666,"type":"noteOn","velocity":50},{"channel":10,"nextOffset":41678,"note":92,"tick":122785,"time":159.87630208333334,"type":"noteOff","velocity":0},{"channel":9,"nextOffset":47958,"note":42,"tick":122816,"time":159.91666666666666,"type":"noteOn","velocity":50},{"channel":0,"nextOffset":8879,"note":50,"tick":122825,"time":159.92838541666666,"type":"noteOff","velocity":0},{"channel":0,"nextOffset":8883,"note":72,"tick":122825,"time":159.92838541666666,"type":"noteOff","velocity":0},{"channel":0,"nextOffset":8887,"note":76,"tick":122825,"time":159.92838541666666,"type":"noteOn","velocity":68},{"channel":0,"nextOffset":8891,"note":38,"tick":122825,"time":159.92838541666666,"type":"noteOn","velocity":68},{"channel":2,"nextOffset":30689,"note":33,"tick":122837,"time":159.94401041666666,"type":"noteOn","velocity":57},{"channel":1,"nextOffset":19125,"note":33,"tick":122845,"time":159.95442708333334,"type":"noteOff","velocity":0},{"channel":1,"nextOffset":19129,"note":33,"tick":122845,"time":159.95442708333334,"type":"noteOff","velocity":0},{"channel":9,"nextOffset":22607,"note":35,"tick":122846,"time":159.95572916666666,"type":"noteOff","velocity":0},{"channel":9,"nextOffset":26458,"note":35,"tick":122854,"time":159.96614583333334,"type":"noteOn","velocity":50},{"channel":9,"nextOffset":47962,"note":42,"tick":122912,"time":160.04166666666666,"type":"noteOff","velocity":0},{"channel":9,"nextOffset":23561,"note":42,"tick":122920,"time":160.05208333333334,"type":"noteOn","velocity":50},{"channel":0,"nextOffset":8895,"note":76,"tick":122921,"time":160.05338541666666,"type":"noteOff","velocity":0},{"channel":0,"nextOffset":8899,"note":72,"tick":122921,"time":160.05338541666666,"type":"noteOn","velocity":68},{"channel":2,"nextOffset":30693,"note":33,"tick":122933,"time":160.06901041666666,"type":"noteOff","velocity":0},{"channel":1,"nextOffset":19133,"note":33,"tick":122941,"time":160.07942708333334,"type":"noteOn","velocity":50},{"channel":9,"nextOffset":26462,"note":35,"tick":122950,"time":160.09114583333334,"type":"noteOff","velocity":0},{"channel":9,"nextOffset":23565,"note":42,"tick":123016,"time":160.17708333333334,"type":"noteOff","velocity":0},{"channel":0,"nextOffset":8903,"note":38,"tick":123017,"time":160.17838541666666,"type":"noteOff","velocity":0},{"channel":0,"nextOffset":8907,"note":72,"tick":123017,"time":160.17838541666666,"type":"noteOff","velocity":0},{"channel":0,"nextOffset":8911,"note":69,"tick":123017,"time":160.17838541666666,"type":"noteOn","velocity":68},{"channel":0,"nextOffset":8915,"note":45,"tick":123017,"time":160.17838541666666,"type":"noteOn","velocity":68},{"channel":1,"nextOffset":19137,"note":33,"tick":123037,"time":160.20442708333334,"type":"noteOff","velocity":0},{"channel":9,"nextOffset":26466,"note":42,"tick":123046,"time":160.21614583333334,"type":"noteOn","velocity":50},{"channel":0,"nextOffset":8919,"note":69,"tick":123113,"time":160.30338541666666,"type":"noteOff","velocity":0},{"channel":0,"nextOffset":8923,"note":67,"tick":123113,"time":160.30338541666666,"type":"noteOn","velocity":68},{"channel":2,"nextOffset":30698,"note":26,"tick":123125,"time":160.31901041666666,"type":"noteOn","velocity":57},{"channel":9,"nextOffset":22612,"note":35,"tick":123134,"time":160.33072916666666,"type":"noteOn","velocity":50},{"channel":9,"nextOffset":26470,"note":42,"tick":123142,"time":160.34114583333334,"type":"noteOff","velocity":0},{"channel":9,"nextOffset":47967,"note":42,"tick":123200,"time":160.41666666666666,"type":"noteOn","velocity":50},{"channel":0,"nextOffset":8927,"note":45,"tick":123209,"time":160.42838541666666,"type":"noteOff","velocity":0},{"channel":0,"nextOffset":8931,"note":67,"tick":123209,"time":160.42838541666666,"type":"noteOff","velocity":0},{"channel":0,"nextOffset":8935,"note":69,"tick":123209,"time":160.42838541666666,"type":"noteOn","velocity":68},{"channel":0,"nextOffset":8939,"note":50,"tick":123209,"time":160.42838541666666,"type":"noteOn","velocity":68},{"channel":1,"nextOffset":19142,"note":26,"tick":123229,"time":160.45442708333334,"type":"noteOn","velocity":50},{"channel":9,"nextOffset":22616,"note":35,"tick":123230,"time":160.45572916666666,"type":"noteOff","velocity":0},{"channel":9,"nextOffset":26474,"note":35,"tick":123238,"time":160.46614583333334,"type":"noteOn","velocity":50},{"channel":9,"nextOffset":47971,"note":42,"tick":123296,"time":160.54166666666666,"type":"noteOff","velocity":0},{"channel":9,"nextOffset":23570,"note":42,"tick":123304,"time":160.55208333333334,"type":"noteOn","velocity":50},{"channel":0,"nextOffset":8943,"note":69,"tick":123305,"time":160.55338541666666,"type":"noteOff","velocity":0},{"channel":0,"nextOffset":8947,"note":62,"tick":123305,"time":160.55338541666666,"type":"noteOn","velocity":68},{"channel":2,"nextOffset":30703,"note":26,"tick":123317,"time":160.56901041666666,"type":"noteOff","velocity":0},{"channel":9,"nextOffset":26478,"note":35,"tick":123334,"time":160.59114583333334,"type":"noteOff","velocity":0},{"channel":9,"nextOffset":35323,"note":42,"tick":123360,"time":160.625,"type":"noteOn","velocity":50},{"channel":9,"nextOffset":23574,"note":42,"tick":123400,"time":160.67708333333334,"type":"noteOff","velocity":0},{"channel":0,"nextOffset":8951,"note":50,"tick":123401,"time":160.67838541666666,"type":"noteOff","velocity":0},{"channel":0,"nextOffset":8955,"note":62,"tick":123401,"time":160.67838541666666,"type":"noteOff","velocity":0},{"channel":0,"nextOffset":8959,"note":60,"tick":123401,"time":160.67838541666666,"type":"noteOn","velocity":68},{"channel":0,"nextOffset":8963,"note":38,"tick":123401,"time":160.67838541666666,"type":"noteOn","velocity":68},{"channel":1,"nextOffset":19147,"note":26,"tick":123421,"time":160.70442708333334,"type":"noteOff","velocity":0},{"channel":9,"nextOffset":22621,"note":35,"tick":123422,"time":160.70572916666666,"type":"noteOn","velocity":50},{"channel":9,"nextOffset":35327,"note":42,"tick":123456,"time":160.75,"type":"noteOff","velocity":0},{"channel":9,"nextOffset":35331,"note":42,"tick":123456,"time":160.75,"type":"noteOn","velocity":50},{"channel":9,"nextOffset":47976,"note":42,"tick":123488,"time":160.79166666666666,"type":"noteOn","velocity":50},{"channel":0,"nextOffset":8967,"note":60,"tick":123497,"time":160.80338541666666,"type":"noteOff","velocity":0},{"channel":0,"nextOffset":8971,"note":65,"tick":123497,"time":160.80338541666666,"type":"noteOn","velocity":68},{"channel":2,"nextOffset":30708,"note":26,"tick":123509,"time":160.81901041666666,"type":"noteOn","velocity":57},{"channel":9,"nextOffset":22625,"note":35,"tick":123518,"time":160.83072916666666,"type":"noteOff","velocity":0},{"channel":9,"nextOffset":26483,"note":35,"tick":123526,"time":160.84114583333334,"type":"noteOn","velocity":50},{"channel":9,"nextOffset":35335,"note":42,"tick":123552,"time":160.875,"type":"noteOff","velocity":0},{"channel":9,"nextOffset":47980,"note":42,"tick":123584,"time":160.91666666666666,"type":"noteOff","velocity":0},{"channel":9,"nextOffset":23579,"note":42,"tick":123592,"time":160.92708333333334,"type":"noteOn","velocity":50},{"channel":0,"nextOffset":8975,"note":38,"tick":123593,"time":160.92838541666666,"type":"noteOff","velocity":0},{"channel":0,"nextOffset":8979,"note":65,"tick":123593,"time":160.92838541666666,"type":"noteOff","velocity":0},{"channel":0,"nextOffset":8983,"note":64,"tick":123593,"time":160.92838541666666,"type":"noteOn","velocity":68},{"channel":0,"nextOffset":8987,"note":60,"tick":123593,"time":160.92838541666666,"type":"noteOn","velocity":68},{"channel":0,"nextOffset":8991,"note":69,"tick":123593,"time":160.92838541666666,"type":"noteOn","velocity":68},{"channel":0,"nextOffset":8995,"note":45,"tick":123593,"time":160.92838541666666,"type":"noteOn","velocity":68},{"channel":1,"nextOffset":19152,"note":26,"tick":123613,"time":160.95442708333334,"type":"noteOn","velocity":50},{"channel":9,"nextOffset":26487,"note":35,"tick":123622,"time":160.96614583333334,"type":"noteOff","velocity":0},{"channel":9,"nextOffset":23583,"note":42,"tick":123688,"time":161.05208333333334,"type":"noteOff","velocity":0},{"channel":2,"nextOffset":30713,"note":26,"tick":123701,"time":161.06901041666666,"type":"noteOff","velocity":0},{"channel":2,"nextOffset":30717,"note":33,"tick":123701,"time":161.06901041666666,"type":"noteOn","velocity":57},{"channel":9,"nextOffset":22630,"note":35,"tick":123710,"time":161.08072916666666,"type":"noteOn","velocity":50},{"channel":9,"nextOffset":35340,"note":42,"tick":123744,"time":161.125,"type":"noteOn","velocity":50},{"channel":0,"nextOffset":9000,"note":45,"tick":123785,"time":161.17838541666666,"type":"noteOff","velocity":0},{"channel":0,"nextOffset":9004,"note":69,"tick":123785,"time":161.17838541666666,"type":"noteOff","velocity":0},{"channel":0,"nextOffset":9008,"note":60,"tick":123785,"time":161.17838541666666,"type":"noteOff","velocity":0},{"channel":0,"nextOffset":9012,"note":64,"tick":123785,"time":161.17838541666666,"type":"noteOff","velocity":0},{"channel":0,"nextOffset":9016,"note":59,"tick":123785,"time":161.17838541666666,"type":"noteOn","velocity":68},{"channel":0,"nextOffset":9020,"note":63,"tick":123785,"time":161.17838541666666,"type":"noteOn","velocity":68},{"channel":0,"nextOffset":9024,"note":68,"tick":123785,"time":161.17838541666666,"type":"noteOn","velocity":68},{"channel":0,"nextOffset":9028,"note":44,"tick":123785,"time":161.17838541666666,"type":"noteOn","velocity":68},{"channel":1,"nextOffset":19157,"note":26,"tick":123805,"time":161.20442708333334,"type":"noteOff","velocity":0},{"channel":1,"nextOffset":19161,"note":33,"tick":123805,"time":161.20442708333334,"type":"noteOn","velocity":50},{"channel":9,"nextOffset":22634,"note":35,"tick":123806,"time":161.20572916666666,"type":"noteOff","velocity":0},{"channel":9,"nextOffset":26492,"note":35,"tick":123814,"time":161.21614583333334,"type":"noteOn","velocity":50},{"channel":9,"nextOffset":35344,"note":42,"tick":123840,"time":161.25,"type":"noteOff","velocity":0},{"channel":9,"nextOffset":35348,"note":42,"tick":123840,"time":161.25,"type":"noteOn","velocity":50},{"channel":2,"nextOffset":30722,"note":33,"tick":123893,"time":161.31901041666666,"type":"noteOff","velocity":0},{"channel":2,"nextOffset":30726,"note":26,"tick":123893,"time":161.31901041666666,"type":"noteOn","velocity":57},{"channel":9,"nextOffset":22638,"note":35,"tick":123902,"time":161.33072916666666,"type":"noteOn","velocity":50},{"channel":9,"nextOffset":26496,"note":35,"tick":123910,"time":161.34114583333334,"type":"noteOff","velocity":0},{"channel":9,"nextOffset":35352,"note":42,"tick":123936,"time":161.375,"type":"noteOff","velocity":0},{"channel":9,"nextOffset":47985,"note":42,"tick":123968,"time":161.41666666666666,"type":"noteOn","velocity":50},{"channel":0,"nextOffset":9033,"note":44,"tick":123977,"time":161.42838541666666,"type":"noteOff","velocity":0},{"channel":0,"nextOffset":9037,"note":68,"tick":123977,"time":161.42838541666666,"type":"noteOff","velocity":0},{"channel":0,"nextOffset":9041,"note":63,"tick":123977,"time":161.42838541666666,"type":"noteOff","velocity":0},{"channel":0,"nextOffset":9045,"note":59,"tick":123977,"time":161.42838541666666,"type":"noteOff","velocity":0},{"channel":0,"nextOffset":9049,"note":43,"tick":123977,"time":161.42838541666666,"type":"noteOn","velocity":68},{"channel":0,"nextOffset":9053,"note":58,"tick":123977,"time":161.42838541666666,"type":"noteOn","velocity":68},{"channel":0,"nextOffset":9057,"note":62,"tick":123977,"time":161.42838541666666,"type":"noteOn","velocity":68},{"channel":0,"nextOffset":9061,"note":65,"tick":123977,"time":161.42838541666666,"type":"noteOn","velocity":68},{"channel":0,"nextOffset":9065,"note":69,"tick":123977,"time":161.42838541666666,"type":"noteOn","velocity":68},{"channel":1,"nextOffset":19166,"note":33,"tick":123997,"time":161.45442708333334,"type":"noteOff","velocity":0},{"channel":1,"nextOffset":19170,"note":26,"tick":123997,"time":161.45442708333334,"type":"noteOn","velocity":50},{"channel":9,"nextOffset":22642,"note":35,"tick":123998,"time":161.45572916666666,"type":"noteOff","velocity":0},{"channel":9,"nextOffset":26500,"note":35,"tick":124006,"time":161.46614583333334,"type":"noteOn","velocity":50},{"channel":9,"nextOffset":47989,"note":42,"tick":124064,"time":161.54166666666666,"type":"noteOff","velocity":0},{"channel":9,"nextOffset":23588,"note":42,"tick":124072,"time":161.55208333333334,"type":"noteOn","velocity":50},{"channel":2,"nextOffset":30731,"note":26,"tick":124085,"time":161.56901041666666,"type":"noteOff","velocity":0},{"channel":2,"nextOffset":30735,"note":38,"tick":124085,"time":161.56901041666666,"type":"noteOn","velocity":57},{"channel":9,"nextOffset":26504,"note":35,"tick":124102,"time":161.59114583333334,"type":"noteOff","velocity":0},{"channel":9,"nextOffset":35357,"note":42,"tick":124128,"time":161.625,"type":"noteOn","velocity":50},{"channel":9,"nextOffset":23592,"note":42,"tick":124168,"time":161.67708333333334,"type":"noteOff","velocity":0},{"channel":0,"nextOffset":9070,"note":43,"tick":124169,"time":161.67838541666666,"type":"noteOff","velocity":0},{"channel":1,"nextOffset":19175,"note":26,"tick":124189,"time":161.70442708333334,"type":"noteOff","velocity":0},{"channel":1,"nextOffset":19179,"note":38,"tick":124189,"time":161.70442708333334,"type":"noteOn","velocity":50},{"channel":9,"nextOffset":35361,"note":42,"tick":124224,"time":161.75,"type":"noteOff","velocity":0},{"channel":2,"nextOffset":30740,"note":38,"tick":124277,"time":161.81901041666666,"type":"noteOff","velocity":0},{"channel":2,"nextOffset":30744,"note":26,"tick":124277,"time":161.81901041666666,"type":"noteOn","velocity":57},{"channel":9,"nextOffset":22647,"note":35,"tick":124286,"time":161.83072916666666,"type":"noteOn","velocity":50},{"channel":9,"nextOffset":47994,"note":42,"tick":124352,"time":161.91666666666666,"type":"noteOn","velocity":50},{"channel":0,"nextOffset":9075,"note":69,"tick":124361,"time":161.92838541666666,"type":"noteOff","velocity":0},{"channel":0,"nextOffset":9079,"note":65,"tick":124361,"time":161.92838541666666,"type":"noteOff","velocity":0},{"channel":0,"nextOffset":9083,"note":62,"tick":124361,"time":161.92838541666666,"type":"noteOff","velocity":0},{"channel":0,"nextOffset":9087,"note":58,"tick":124361,"time":161.92838541666666,"type":"noteOff","velocity":0},{"channel":0,"nextOffset":9091,"note":43,"tick":124361,"time":161.92838541666666,"type":"noteOn","velocity":68},{"channel":1,"nextOffset":19184,"note":38,"tick":124381,"time":161.95442708333334,"type":"noteOff","velocity":0},{"channel":1,"nextOffset":19188,"note":26,"tick":124381,"time":161.95442708333334,"type":"noteOn","velocity":50},{"channel":9,"nextOffset":22651,"note":35,"tick":124382,"time":161.95572916666666,"type":"noteOff","velocity":0},{"channel":9,"nextOffset":26509,"note":35,"tick":124390,"time":161.96614583333334,"type":"noteOn","velocity":50},{"channel":9,"nextOffset":35366,"note":42,"tick":124416,"time":162,"type":"noteOn","velocity":50},{"channel":9,"nextOffset":47998,"note":42,"tick":124448,"time":162.04166666666666,"type":"noteOff","velocity":0},{"channel":9,"nextOffset":23597,"note":42,"tick":124456,"time":162.05208333333334,"type":"noteOn","velocity":50},{"channel":2,"nextOffset":30749,"note":26,"tick":124469,"time":162.06901041666666,"type":"noteOff","velocity":0},{"channel":2,"nextOffset":30753,"note":33,"tick":124469,"time":162.06901041666666,"type":"noteOn","velocity":57},{"channel":9,"nextOffset":26513,"note":35,"tick":124486,"time":162.09114583333334,"type":"noteOff","velocity":0},{"channel":9,"nextOffset":35370,"note":42,"tick":124512,"time":162.125,"type":"noteOff","velocity":0},{"channel":9,"nextOffset":35374,"note":42,"tick":124512,"time":162.125,"type":"noteOn","velocity":50},{"channel":9,"nextOffset":35378,"note":42,"tick":124536,"time":162.15625,"type":"noteOff","velocity":0},{"channel":9,"nextOffset":23601,"note":42,"tick":124552,"time":162.17708333333334,"type":"noteOff","velocity":0},{"channel":0,"nextOffset":9096,"note":43,"tick":124553,"time":162.17838541666666,"type":"noteOff","velocity":0},{"channel":0,"nextOffset":9100,"note":44,"tick":124553,"time":162.17838541666666,"type":"noteOn","velocity":68},{"channel":0,"nextOffset":9104,"note":65,"tick":124553,"time":162.17838541666666,"type":"noteOn","velocity":68},{"channel":9,"nextOffset":35382,"note":42,"tick":124560,"time":162.1875,"type":"noteOn","velocity":50},{"channel":1,"nextOffset":19193,"note":26,"tick":124573,"time":162.20442708333334,"type":"noteOff","velocity":0},{"channel":1,"nextOffset":19197,"note":33,"tick":124573,"time":162.20442708333334,"type":"noteOn","velocity":50},{"channel":9,"nextOffset":35386,"note":42,"tick":124584,"time":162.21875,"type":"noteOff","velocity":0},{"channel":9,"nextOffset":35390,"note":42,"tick":124608,"time":162.25,"type":"noteOn","velocity":50},{"channel":9,"nextOffset":35394,"note":42,"tick":124632,"time":162.28125,"type":"noteOff","velocity":0},{"channel":0,"nextOffset":9108,"note":65,"tick":124649,"time":162.30338541666666,"type":"noteOff","velocity":0},{"channel":0,"nextOffset":9112,"note":69,"tick":124649,"time":162.30338541666666,"type":"noteOn","velocity":68},{"channel":9,"nextOffset":35398,"note":42,"tick":124656,"time":162.3125,"type":"noteOn","velocity":50},{"channel":2,"nextOffset":30758,"note":33,"tick":124661,"time":162.31901041666666,"type":"noteOff","velocity":0},{"channel":2,"nextOffset":30762,"note":32,"tick":124661,"time":162.31901041666666,"type":"noteOn","velocity":57},{"channel":2,"nextOffset":30766,"note":32,"tick":124661,"time":162.31901041666666,"type":"noteOn","velocity":57},{"channel":9,"nextOffset":22656,"note":35,"tick":124670,"time":162.33072916666666,"type":"noteOn","velocity":50},{"channel":9,"nextOffset":35402,"note":42,"tick":124680,"time":162.34375,"type":"noteOff","velocity":0},{"channel":9,"nextOffset":35406,"note":42,"tick":124704,"time":162.375,"type":"noteOn","velocity":50},{"channel":9,"nextOffset":35410,"note":42,"tick":124728,"time":162.40625,"type":"noteOff","velocity":0},{"channel":9,"nextOffset":48003,"note":42,"tick":124736,"time":162.41666666666666,"type":"noteOn","velocity":50},{"channel":0,"nextOffset":9116,"note":44,"tick":124745,"time":162.42838541666666,"type":"noteOff","velocity":0},{"channel":0,"nextOffset":9120,"note":69,"tick":124745,"time":162.42838541666666,"type":"noteOff","velocity":0},{"channel":0,"nextOffset":9124,"note":45,"tick":124745,"time":162.42838541666666,"type":"noteOn","velocity":68},{"channel":0,"nextOffset":9128,"note":72,"tick":124745,"time":162.42838541666666,"type":"noteOn","velocity":68},{"channel":0,"nextOffset":9132,"note":67,"tick":124745,"time":162.42838541666666,"type":"noteOn","velocity":68},{"channel":0,"nextOffset":9136,"note":64,"tick":124745,"time":162.42838541666666,"type":"noteOn","velocity":68},{"channel":0,"nextOffset":9140,"note":60,"tick":124745,"time":162.42838541666666,"type":"noteOn","velocity":68},{"channel":1,"nextOffset":19202,"note":33,"tick":124765,"time":162.45442708333334,"type":"noteOff","velocity":0},{"channel":1,"nextOffset":19206,"note":32,"tick":124765,"time":162.45442708333334,"type":"noteOn","velocity":50},{"channel":1,"nextOffset":19210,"note":32,"tick":124765,"time":162.45442708333334,"type":"noteOn","velocity":50},{"channel":9,"nextOffset":22660,"note":35,"tick":124766,"time":162.45572916666666,"type":"noteOff","velocity":0},{"channel":9,"nextOffset":26518,"note":35,"tick":124774,"time":162.46614583333334,"type":"noteOn","velocity":50},{"channel":9,"nextOffset":48007,"note":42,"tick":124832,"time":162.54166666666666,"type":"noteOff","velocity":0},{"channel":9,"nextOffset":23606,"note":42,"tick":124840,"time":162.55208333333334,"type":"noteOn","velocity":50},{"channel":2,"nextOffset":30771,"note":32,"tick":124853,"time":162.56901041666666,"type":"noteOff","velocity":0},{"channel":2,"nextOffset":30775,"note":32,"tick":124853,"time":162.56901041666666,"type":"noteOff","velocity":0},{"channel":2,"nextOffset":30779,"note":31,"tick":124853,"time":162.56901041666666,"type":"noteOn","velocity":57},{"channel":9,"nextOffset":26522,"note":35,"tick":124870,"time":162.59114583333334,"type":"noteOff","velocity":0},{"channel":9,"nextOffset":35415,"note":42,"tick":124896,"time":162.625,"type":"noteOn","velocity":50},{"channel":9,"nextOffset":23610,"note":42,"tick":124936,"time":162.67708333333334,"type":"noteOff","velocity":0},{"channel":0,"nextOffset":9145,"note":60,"tick":124937,"time":162.67838541666666,"type":"noteOff","velocity":0},{"channel":0,"nextOffset":9149,"note":64,"tick":124937,"time":162.67838541666666,"type":"noteOff","velocity":0},{"channel":0,"nextOffset":9153,"note":67,"tick":124937,"time":162.67838541666666,"type":"noteOff","velocity":0},{"channel":0,"nextOffset":9157,"note":72,"tick":124937,"time":162.67838541666666,"type":"noteOff","velocity":0},{"channel":0,"nextOffset":9161,"note":45,"tick":124937,"time":162.67838541666666,"type":"noteOff","velocity":0},{"channel":1,"nextOffset":19215,"note":32,"tick":124957,"time":162.70442708333334,"type":"noteOff","velocity":0},{"channel":1,"nextOffset":19219,"note":32,"tick":124957,"time":162.70442708333334,"type":"noteOff","velocity":0},{"channel":1,"nextOffset":19223,"note":31,"tick":124957,"time":162.70442708333334,"type":"noteOn","velocity":50},{"channel":9,"nextOffset":22665,"note":35,"tick":124958,"time":162.70572916666666,"type":"noteOn","velocity":50},{"channel":9,"nextOffset":35419,"note":42,"tick":124992,"time":162.75,"type":"noteOff","velocity":0},{"channel":9,"nextOffset":35423,"note":42,"tick":124992,"time":162.75,"type":"noteOn","velocity":50},{"channel":9,"nextOffset":48012,"note":42,"tick":125024,"time":162.79166666666666,"type":"noteOn","velocity":50},{"channel":0,"nextOffset":9165,"note":45,"tick":125033,"time":162.80338541666666,"type":"noteOn","velocity":68},{"channel":0,"nextOffset":9169,"note":61,"tick":125033,"time":162.80338541666666,"type":"noteOn","velocity":68},{"channel":0,"nextOffset":9173,"note":65,"tick":125033,"time":162.80338541666666,"type":"noteOn","velocity":68},{"channel":0,"nextOffset":9177,"note":67,"tick":125033,"time":162.80338541666666,"type":"noteOn","velocity":68},{"channel":0,"nextOffset":9181,"note":70,"tick":125033,"time":162.80338541666666,"type":"noteOn","velocity":68},{"channel":2,"nextOffset":30784,"note":31,"tick":125045,"time":162.81901041666666,"type":"noteOff","velocity":0},{"channel":9,"nextOffset":22669,"note":35,"tick":125054,"time":162.83072916666666,"type":"noteOff","velocity":0},{"channel":9,"nextOffset":26527,"note":35,"tick":125062,"time":162.84114583333334,"type":"noteOn","velocity":50},{"channel":9,"nextOffset":35427,"note":42,"tick":125088,"time":162.875,"type":"noteOff","velocity":0},{"channel":9,"nextOffset":48016,"note":42,"tick":125120,"time":162.91666666666666,"type":"noteOff","velocity":0},{"channel":9,"nextOffset":23615,"note":42,"tick":125128,"time":162.92708333333334,"type":"noteOn","velocity":50},{"channel":0,"nextOffset":9185,"note":45,"tick":125129,"time":162.92838541666666,"type":"noteOff","velocity":0},{"channel":1,"nextOffset":19228,"note":31,"tick":125149,"time":162.95442708333334,"type":"noteOff","velocity":0},{"channel":9,"nextOffset":26531,"note":35,"tick":125158,"time":162.96614583333334,"type":"noteOff","velocity":0},{"channel":9,"nextOffset":23619,"note":42,"tick":125224,"time":163.05208333333334,"type":"noteOff","velocity":0},{"channel":0,"nextOffset":9189,"note":70,"tick":125225,"time":163.05338541666666,"type":"noteOff","velocity":0},{"channel":0,"nextOffset":9193,"note":67,"tick":125225,"time":163.05338541666666,"type":"noteOff","velocity":0},{"channel":0,"nextOffset":9197,"note":65,"tick":125225,"time":163.05338541666666,"type":"noteOff","velocity":0},{"channel":0,"nextOffset":9201,"note":61,"tick":125225,"time":163.05338541666666,"type":"noteOff","velocity":0},{"channel":2,"nextOffset":30789,"note":31,"tick":125237,"time":163.06901041666666,"type":"noteOn","velocity":57},{"channel":9,"nextOffset":22674,"note":35,"tick":125246,"time":163.08072916666666,"type":"noteOn","velocity":50},{"channel":9,"nextOffset":35432,"note":42,"tick":125280,"time":163.125,"type":"noteOn","velocity":50},{"channel":0,"nextOffset":9205,"note":38,"tick":125321,"time":163.17838541666666,"type":"noteOn","velocity":68},{"channel":0,"nextOffset":9209,"note":60,"tick":125321,"time":163.17838541666666,"type":"noteOn","velocity":68},{"channel":0,"nextOffset":9213,"note":64,"tick":125321,"time":163.17838541666666,"type":"noteOn","velocity":68},{"channel":0,"nextOffset":9217,"note":65,"tick":125321,"time":163.17838541666666,"type":"noteOn","velocity":68},{"channel":0,"nextOffset":9221,"note":69,"tick":125321,"time":163.17838541666666,"type":"noteOn","velocity":68},{"channel":1,"nextOffset":19233,"note":31,"tick":125341,"time":163.20442708333334,"type":"noteOn","velocity":50},{"channel":9,"nextOffset":22678,"note":35,"tick":125342,"time":163.20572916666666,"type":"noteOff","velocity":0},{"channel":9,"nextOffset":26536,"note":35,"tick":125350,"time":163.21614583333334,"type":"noteOn","velocity":50},{"channel":9,"nextOffset":35436,"note":42,"tick":125376,"time":163.25,"type":"noteOff","velocity":0},{"channel":9,"nextOffset":35440,"note":42,"tick":125376,"time":163.25,"type":"noteOn","velocity":50},{"channel":2,"nextOffset":30794,"note":31,"tick":125429,"time":163.31901041666666,"type":"noteOff","velocity":0},{"channel":2,"nextOffset":30798,"note":32,"tick":125429,"time":163.31901041666666,"type":"noteOn","velocity":57},{"channel":9,"nextOffset":22682,"note":35,"tick":125438,"time":163.33072916666666,"type":"noteOn","velocity":50},{"channel":9,"nextOffset":26540,"note":35,"tick":125446,"time":163.34114583333334,"type":"noteOff","velocity":0},{"channel":9,"nextOffset":35444,"note":42,"tick":125472,"time":163.375,"type":"noteOff","velocity":0},{"channel":9,"nextOffset":48021,"note":42,"tick":125504,"time":163.41666666666666,"type":"noteOn","velocity":50},{"channel":0,"nextOffset":9226,"note":69,"tick":125513,"time":163.42838541666666,"type":"noteOff","velocity":0},{"channel":0,"nextOffset":9230,"note":65,"tick":125513,"time":163.42838541666666,"type":"noteOff","velocity":0},{"channel":0,"nextOffset":9234,"note":64,"tick":125513,"time":163.42838541666666,"type":"noteOff","velocity":0},{"channel":0,"nextOffset":9238,"note":60,"tick":125513,"time":163.42838541666666,"type":"noteOff","velocity":0},{"channel":0,"nextOffset":9242,"note":38,"tick":125513,"time":163.42838541666666,"type":"noteOff","velocity":0},{"channel":0,"nextOffset":9246,"note":76,"tick":125513,"time":163.42838541666666,"type":"noteOn","velocity":68},{"channel":0,"nextOffset":9250,"note":50,"tick":125513,"time":163.42838541666666,"type":"noteOn","velocity":68},{"channel":1,"nextOffset":19238,"note":31,"tick":125533,"time":163.45442708333334,"type":"noteOff","velocity":0},{"channel":1,"nextOffset":19242,"note":32,"tick":125533,"time":163.45442708333334,"type":"noteOn","velocity":50},{"channel":9,"nextOffset":22686,"note":35,"tick":125534,"time":163.45572916666666,"type":"noteOff","velocity":0},{"channel":9,"nextOffset":26544,"note":35,"tick":125542,"time":163.46614583333334,"type":"noteOn","velocity":50},{"channel":9,"nextOffset":48025,"note":42,"tick":125600,"time":163.54166666666666,"type":"noteOff","velocity":0},{"channel":9,"nextOffset":23624,"note":42,"tick":125608,"time":163.55208333333334,"type":"noteOn","velocity":50},{"channel":0,"nextOffset":9254,"note":76,"tick":125609,"time":163.55338541666666,"type":"noteOff","velocity":0},{"channel":0,"nextOffset":9258,"note":77,"tick":125609,"time":163.55338541666666,"type":"noteOn","velocity":68},{"channel":2,"nextOffset":30803,"note":32,"tick":125621,"time":163.56901041666666,"type":"noteOff","velocity":0},{"channel":2,"nextOffset":30807,"note":33,"tick":125621,"time":163.56901041666666,"type":"noteOn","velocity":57},{"channel":9,"nextOffset":26548,"note":35,"tick":125638,"time":163.59114583333334,"type":"noteOff","velocity":0},{"channel":9,"nextOffset":35449,"note":42,"tick":125664,"time":163.625,"type":"noteOn","velocity":50},{"channel":9,"nextOffset":23628,"note":42,"tick":125704,"time":163.67708333333334,"type":"noteOff","velocity":0},{"channel":0,"nextOffset":9262,"note":50,"tick":125705,"time":163.67838541666666,"type":"noteOff","velocity":0},{"channel":0,"nextOffset":9266,"note":77,"tick":125705,"time":163.67838541666666,"type":"noteOff","velocity":0},{"channel":0,"nextOffset":9270,"note":79,"tick":125705,"time":163.67838541666666,"type":"noteOn","velocity":68},{"channel":0,"nextOffset":9274,"note":38,"tick":125705,"time":163.67838541666666,"type":"noteOn","velocity":68},{"channel":1,"nextOffset":19247,"note":32,"tick":125725,"time":163.70442708333334,"type":"noteOff","velocity":0},{"channel":1,"nextOffset":19251,"note":33,"tick":125725,"time":163.70442708333334,"type":"noteOn","velocity":50},{"channel":9,"nextOffset":35453,"note":42,"tick":125760,"time":163.75,"type":"noteOff","velocity":0},{"channel":0,"nextOffset":9278,"note":79,"tick":125801,"time":163.80338541666666,"type":"noteOff","velocity":0},{"channel":0,"nextOffset":9282,"note":77,"tick":125801,"time":163.80338541666666,"type":"noteOn","velocity":68},{"channel":2,"nextOffset":30812,"note":33,"tick":125813,"time":163.81901041666666,"type":"noteOff","velocity":0},{"channel":9,"nextOffset":22691,"note":35,"tick":125822,"time":163.83072916666666,"type":"noteOn","velocity":50},{"channel":9,"nextOffset":48030,"note":42,"tick":125888,"time":163.91666666666666,"type":"noteOn","velocity":50},{"channel":0,"nextOffset":9286,"note":38,"tick":125897,"time":163.92838541666666,"type":"noteOff","velocity":0},{"channel":0,"nextOffset":9290,"note":77,"tick":125897,"time":163.92838541666666,"type":"noteOff","velocity":0},{"channel":0,"nextOffset":9294,"note":76,"tick":125897,"time":163.92838541666666,"type":"noteOn","velocity":68},{"channel":0,"nextOffset":9298,"note":45,"tick":125897,"time":163.92838541666666,"type":"noteOn","velocity":68},{"channel":2,"nextOffset":30816,"note":33,"tick":125909,"time":163.94401041666666,"type":"noteOn","velocity":57},{"channel":1,"nextOffset":19256,"note":33,"tick":125917,"time":163.95442708333334,"type":"noteOff","velocity":0},{"channel":9,"nextOffset":22695,"note":35,"tick":125918,"time":163.95572916666666,"type":"noteOff","velocity":0},{"channel":9,"nextOffset":26553,"note":35,"tick":125926,"time":163.96614583333334,"type":"noteOn","velocity":50},{"channel":9,"nextOffset":35458,"note":42,"tick":125952,"time":164,"type":"noteOn","velocity":50},{"channel":9,"nextOffset":48034,"note":42,"tick":125984,"time":164.04166666666666,"type":"noteOff","velocity":0},{"channel":9,"nextOffset":23633,"note":42,"tick":125992,"time":164.05208333333334,"type":"noteOn","velocity":50},{"channel":0,"nextOffset":9302,"note":76,"tick":125993,"time":164.05338541666666,"type":"noteOff","velocity":0},{"channel":0,"nextOffset":9306,"note":72,"tick":125993,"time":164.05338541666666,"type":"noteOn","velocity":68},{"channel":2,"nextOffset":30820,"note":33,"tick":126005,"time":164.06901041666666,"type":"noteOff","velocity":0},{"channel":1,"nextOffset":19260,"note":33,"tick":126013,"time":164.07942708333334,"type":"noteOn","velocity":50},{"channel":9,"nextOffset":26557,"note":35,"tick":126022,"time":164.09114583333334,"type":"noteOff","velocity":0},{"channel":9,"nextOffset":35462,"note":42,"tick":126048,"time":164.125,"type":"noteOff","velocity":0},{"channel":9,"nextOffset":35466,"note":42,"tick":126048,"time":164.125,"type":"noteOn","velocity":50},{"channel":9,"nextOffset":35470,"note":42,"tick":126072,"time":164.15625,"type":"noteOff","velocity":0},{"channel":9,"nextOffset":23637,"note":42,"tick":126088,"time":164.17708333333334,"type":"noteOff","velocity":0},{"channel":0,"nextOffset":9310,"note":45,"tick":126089,"time":164.17838541666666,"type":"noteOff","velocity":0},{"channel":0,"nextOffset":9314,"note":72,"tick":126089,"time":164.17838541666666,"type":"noteOff","velocity":0},{"channel":0,"nextOffset":9318,"note":69,"tick":126089,"time":164.17838541666666,"type":"noteOn","velocity":68},{"channel":0,"nextOffset":9322,"note":38,"tick":126089,"time":164.17838541666666,"type":"noteOn","velocity":68},{"channel":9,"nextOffset":35474,"note":42,"tick":126096,"time":164.1875,"type":"noteOn","velocity":50},{"channel":1,"nextOffset":19264,"note":33,"tick":126109,"time":164.20442708333334,"type":"noteOff","velocity":0},{"channel":9,"nextOffset":35478,"note":42,"tick":126120,"time":164.21875,"type":"noteOff","velocity":0},{"channel":9,"nextOffset":35482,"note":42,"tick":126144,"time":164.25,"type":"noteOn","velocity":50},{"channel":9,"nextOffset":35486,"note":42,"tick":126168,"time":164.28125,"type":"noteOff","velocity":0},{"channel":0,"nextOffset":9326,"note":69,"tick":126185,"time":164.30338541666666,"type":"noteOff","velocity":0},{"channel":0,"nextOffset":9330,"note":67,"tick":126185,"time":164.30338541666666,"type":"noteOn","velocity":68},{"channel":9,"nextOffset":35490,"note":42,"tick":126192,"time":164.3125,"type":"noteOn","velocity":50},{"channel":2,"nextOffset":30825,"note":26,"tick":126197,"time":164.31901041666666,"type":"noteOn","velocity":57},{"channel":9,"nextOffset":22700,"note":35,"tick":126206,"time":164.33072916666666,"type":"noteOn","velocity":50},{"channel":9,"nextOffset":35494,"note":42,"tick":126216,"time":164.34375,"type":"noteOff","velocity":0},{"channel":9,"nextOffset":35498,"note":42,"tick":126240,"time":164.375,"type":"noteOn","velocity":50},{"channel":9,"nextOffset":35502,"note":42,"tick":126264,"time":164.40625,"type":"noteOff","velocity":0},{"channel":9,"nextOffset":48039,"note":42,"tick":126272,"time":164.41666666666666,"type":"noteOn","velocity":50},{"channel":0,"nextOffset":9334,"note":38,"tick":126281,"time":164.42838541666666,"type":"noteOff","velocity":0},{"channel":0,"nextOffset":9338,"note":67,"tick":126281,"time":164.42838541666666,"type":"noteOff","velocity":0},{"channel":0,"nextOffset":9342,"note":69,"tick":126281,"time":164.42838541666666,"type":"noteOn","velocity":68},{"channel":0,"nextOffset":9346,"note":50,"tick":126281,"time":164.42838541666666,"type":"noteOn","velocity":68},{"channel":1,"nextOffset":19269,"note":26,"tick":126301,"time":164.45442708333334,"type":"noteOn","velocity":50},{"channel":9,"nextOffset":22704,"note":35,"tick":126302,"time":164.45572916666666,"type":"noteOff","velocity":0},{"channel":9,"nextOffset":26562,"note":35,"tick":126310,"time":164.46614583333334,"type":"noteOn","velocity":50},{"channel":9,"nextOffset":48043,"note":42,"tick":126368,"time":164.54166666666666,"type":"noteOff","velocity":0},{"channel":9,"nextOffset":23642,"note":42,"tick":126376,"time":164.55208333333334,"type":"noteOn","velocity":50},{"channel":0,"nextOffset":9350,"note":69,"tick":126377,"time":164.55338541666666,"type":"noteOff","velocity":0},{"channel":0,"nextOffset":9354,"note":62,"tick":126377,"time":164.55338541666666,"type":"noteOn","velocity":68},{"channel":2,"nextOffset":30830,"note":26,"tick":126389,"time":164.56901041666666,"type":"noteOff","velocity":0},{"channel":9,"nextOffset":26566,"note":35,"tick":126406,"time":164.59114583333334,"type":"noteOff","velocity":0},{"channel":9,"nextOffset":35507,"note":42,"tick":126432,"time":164.625,"type":"noteOn","velocity":50},{"channel":9,"nextOffset":23646,"note":42,"tick":126472,"time":164.67708333333334,"type":"noteOff","velocity":0},{"channel":0,"nextOffset":9358,"note":50,"tick":126473,"time":164.67838541666666,"type":"noteOff","velocity":0},{"channel":0,"nextOffset":9362,"note":62,"tick":126473,"time":164.67838541666666,"type":"noteOff","velocity":0},{"channel":0,"nextOffset":9366,"note":60,"tick":126473,"time":164.67838541666666,"type":"noteOn","velocity":68},{"channel":0,"nextOffset":9370,"note":38,"tick":126473,"time":164.67838541666666,"type":"noteOn","velocity":68},{"channel":1,"nextOffset":19274,"note":26,"tick":126493,"time":164.70442708333334,"type":"noteOff","velocity":0},{"channel":9,"nextOffset":22709,"note":35,"tick":126494,"time":164.70572916666666,"type":"noteOn","velocity":50},{"channel":9,"nextOffset":35511,"note":42,"tick":126528,"time":164.75,"type":"noteOff","velocity":0},{"channel":9,"nextOffset":35515,"note":42,"tick":126528,"time":164.75,"type":"noteOn","velocity":50},{"channel":9,"nextOffset":48048,"note":42,"tick":126560,"time":164.79166666666666,"type":"noteOn","velocity":50},{"channel":0,"nextOffset":9374,"note":60,"tick":126569,"time":164.80338541666666,"type":"noteOff","velocity":0},{"channel":0,"nextOffset":9378,"note":65,"tick":126569,"time":164.80338541666666,"type":"noteOn","velocity":68},{"channel":2,"nextOffset":30835,"note":38,"tick":126581,"time":164.81901041666666,"type":"noteOn","velocity":57},{"channel":9,"nextOffset":22713,"note":35,"tick":126590,"time":164.83072916666666,"type":"noteOff","velocity":0},{"channel":9,"nextOffset":26571,"note":35,"tick":126598,"time":164.84114583333334,"type":"noteOn","velocity":50},{"channel":9,"nextOffset":35519,"note":42,"tick":126624,"time":164.875,"type":"noteOff","velocity":0},{"channel":9,"nextOffset":48052,"note":42,"tick":126656,"time":164.91666666666666,"type":"noteOff","velocity":0},{"channel":9,"nextOffset":23651,"note":42,"tick":126664,"time":164.92708333333334,"type":"noteOn","velocity":50},{"channel":0,"nextOffset":9382,"note":38,"tick":126665,"time":164.92838541666666,"type":"noteOff","velocity":0},{"channel":0,"nextOffset":9386,"note":65,"tick":126665,"time":164.92838541666666,"type":"noteOff","velocity":0},{"channel":0,"nextOffset":9390,"note":45,"tick":126665,"time":164.92838541666666,"type":"noteOn","velocity":68},{"channel":0,"nextOffset":9394,"note":64,"tick":126665,"time":164.92838541666666,"type":"noteOn","velocity":68},{"channel":0,"nextOffset":9398,"note":60,"tick":126665,"time":164.92838541666666,"type":"noteOn","velocity":68},{"channel":0,"nextOffset":9402,"note":69,"tick":126665,"time":164.92838541666666,"type":"noteOn","velocity":68},{"channel":1,"nextOffset":19279,"note":38,"tick":126685,"time":164.95442708333334,"type":"noteOn","velocity":50},{"channel":9,"nextOffset":26575,"note":35,"tick":126694,"time":164.96614583333334,"type":"noteOff","velocity":0},{"channel":9,"nextOffset":23655,"note":42,"tick":126760,"time":165.05208333333334,"type":"noteOff","velocity":0},{"channel":2,"nextOffset":30840,"note":38,"tick":126773,"time":165.06901041666666,"type":"noteOff","velocity":0},{"channel":2,"nextOffset":30844,"note":26,"tick":126773,"time":165.06901041666666,"type":"noteOn","velocity":57},{"channel":9,"nextOffset":22718,"note":35,"tick":126782,"time":165.08072916666666,"type":"noteOn","velocity":50},{"channel":9,"nextOffset":35524,"note":42,"tick":126816,"time":165.125,"type":"noteOn","velocity":50},{"channel":0,"nextOffset":9407,"note":69,"tick":126857,"time":165.17838541666666,"type":"noteOff","velocity":0},{"channel":0,"nextOffset":9411,"note":60,"tick":126857,"time":165.17838541666666,"type":"noteOff","velocity":0},{"channel":0,"nextOffset":9415,"note":64,"tick":126857,"time":165.17838541666666,"type":"noteOff","velocity":0},{"channel":0,"nextOffset":9419,"note":45,"tick":126857,"time":165.17838541666666,"type":"noteOff","velocity":0},{"channel":0,"nextOffset":9423,"note":59,"tick":126857,"time":165.17838541666666,"type":"noteOn","velocity":68},{"channel":0,"nextOffset":9427,"note":63,"tick":126857,"time":165.17838541666666,"type":"noteOn","velocity":68},{"channel":0,"nextOffset":9431,"note":68,"tick":126857,"time":165.17838541666666,"type":"noteOn","velocity":68},{"channel":0,"nextOffset":9435,"note":44,"tick":126857,"time":165.17838541666666,"type":"noteOn","velocity":68},{"channel":1,"nextOffset":19284,"note":38,"tick":126877,"time":165.20442708333334,"type":"noteOff","velocity":0},{"channel":1,"nextOffset":19288,"note":26,"tick":126877,"time":165.20442708333334,"type":"noteOn","velocity":50},{"channel":9,"nextOffset":22722,"note":35,"tick":126878,"time":165.20572916666666,"type":"noteOff","velocity":0},{"channel":9,"nextOffset":26580,"note":35,"tick":126886,"time":165.21614583333334,"type":"noteOn","velocity":50},{"channel":9,"nextOffset":35528,"note":42,"tick":126912,"time":165.25,"type":"noteOff","velocity":0},{"channel":9,"nextOffset":35532,"note":42,"tick":126912,"time":165.25,"type":"noteOn","velocity":50},{"channel":2,"nextOffset":30849,"note":26,"tick":126965,"time":165.31901041666666,"type":"noteOff","velocity":0},{"channel":2,"nextOffset":30853,"note":33,"tick":126965,"time":165.31901041666666,"type":"noteOn","velocity":57},{"channel":9,"nextOffset":22726,"note":35,"tick":126974,"time":165.33072916666666,"type":"noteOn","velocity":50},{"channel":9,"nextOffset":26584,"note":35,"tick":126982,"time":165.34114583333334,"type":"noteOff","velocity":0},{"channel":9,"nextOffset":35536,"note":42,"tick":127008,"time":165.375,"type":"noteOff","velocity":0},{"channel":9,"nextOffset":48057,"note":42,"tick":127040,"time":165.41666666666666,"type":"noteOn","velocity":50},{"channel":0,"nextOffset":9440,"note":44,"tick":127049,"time":165.42838541666666,"type":"noteOff","velocity":0},{"channel":0,"nextOffset":9444,"note":68,"tick":127049,"time":165.42838541666666,"type":"noteOff","velocity":0},{"channel":0,"nextOffset":9448,"note":63,"tick":127049,"time":165.42838541666666,"type":"noteOff","velocity":0},{"channel":0,"nextOffset":9452,"note":59,"tick":127049,"time":165.42838541666666,"type":"noteOff","velocity":0},{"channel":0,"nextOffset":9456,"note":43,"tick":127049,"time":165.42838541666666,"type":"noteOn","velocity":68},{"channel":0,"nextOffset":9460,"note":58,"tick":127049,"time":165.42838541666666,"type":"noteOn","velocity":68},{"channel":0,"nextOffset":9464,"note":62,"tick":127049,"time":165.42838541666666,"type":"noteOn","velocity":68},{"channel":0,"nextOffset":9468,"note":65,"tick":127049,"time":165.42838541666666,"type":"noteOn","velocity":68},{"channel":0,"nextOffset":9472,"note":69,"tick":127049,"time":165.42838541666666,"type":"noteOn","velocity":68},{"channel":1,"nextOffset":19293,"note":26,"tick":127069,"time":165.45442708333334,"type":"noteOff","velocity":0},{"channel":1,"nextOffset":19297,"note":33,"tick":127069,"time":165.45442708333334,"type":"noteOn","velocity":50},{"channel":9,"nextOffset":22730,"note":35,"tick":127070,"time":165.45572916666666,"type":"noteOff","velocity":0},{"channel":9,"nextOffset":26588,"note":35,"tick":127078,"time":165.46614583333334,"type":"noteOn","velocity":50},{"channel":9,"nextOffset":48061,"note":42,"tick":127136,"time":165.54166666666666,"type":"noteOff","velocity":0},{"channel":9,"nextOffset":48065,"note":42,"tick":127136,"time":165.54166666666666,"type":"noteOn","velocity":50},{"channel":2,"nextOffset":30858,"note":33,"tick":127157,"time":165.56901041666666,"type":"noteOff","velocity":0},{"channel":9,"nextOffset":26592,"note":35,"tick":127174,"time":165.59114583333334,"type":"noteOff","velocity":0},{"channel":9,"nextOffset":35541,"note":42,"tick":127200,"time":165.625,"type":"noteOn","velocity":50},{"channel":9,"nextOffset":48069,"note":42,"tick":127232,"time":165.66666666666666,"type":"noteOff","velocity":0},{"channel":0,"nextOffset":9477,"note":43,"tick":127241,"time":165.67838541666666,"type":"noteOff","velocity":0},{"channel":0,"nextOffset":9481,"note":50,"tick":127241,"time":165.67838541666666,"type":"noteOn","velocity":68},{"channel":1,"nextOffset":19302,"note":33,"tick":127261,"time":165.70442708333334,"type":"noteOff","velocity":0},{"channel":9,"nextOffset":35545,"note":42,"tick":127296,"time":165.75,"type":"noteOff","velocity":0},{"channel":2,"nextOffset":30863,"note":26,"tick":127349,"time":165.81901041666666,"type":"noteOn","velocity":57},{"channel":9,"nextOffset":22735,"note":35,"tick":127358,"time":165.83072916666666,"type":"noteOn","velocity":50},{"channel":9,"nextOffset":48074,"note":42,"tick":127424,"time":165.91666666666666,"type":"noteOn","velocity":50},{"channel":0,"nextOffset":9486,"note":69,"tick":127433,"time":165.92838541666666,"type":"noteOff","velocity":0},{"channel":0,"nextOffset":9490,"note":65,"tick":127433,"time":165.92838541666666,"type":"noteOff","velocity":0},{"channel":0,"nextOffset":9494,"note":62,"tick":127433,"time":165.92838541666666,"type":"noteOff","velocity":0},{"channel":0,"nextOffset":9498,"note":58,"tick":127433,"time":165.92838541666666,"type":"noteOff","velocity":0},{"channel":0,"nextOffset":9502,"note":50,"tick":127433,"time":165.92838541666666,"type":"noteOff","velocity":0},{"channel":0,"nextOffset":9506,"note":43,"tick":127433,"time":165.92838541666666,"type":"noteOn","velocity":68},{"channel":1,"nextOffset":19307,"note":26,"tick":127453,"time":165.95442708333334,"type":"noteOn","velocity":50},{"channel":9,"nextOffset":22739,"note":35,"tick":127454,"time":165.95572916666666,"type":"noteOff","velocity":0},{"channel":9,"nextOffset":26597,"note":35,"tick":127462,"time":165.96614583333334,"type":"noteOn","velocity":50},{"channel":9,"nextOffset":35550,"note":42,"tick":127488,"time":166,"type":"noteOn","velocity":50},{"channel":9,"nextOffset":48078,"note":42,"tick":127520,"time":166.04166666666666,"type":"noteOff","velocity":0},{"channel":9,"nextOffset":48082,"note":42,"tick":127520,"time":166.04166666666666,"type":"noteOn","velocity":50},{"channel":2,"nextOffset":30868,"note":26,"tick":127541,"time":166.06901041666666,"type":"noteOff","velocity":0},{"channel":2,"nextOffset":30872,"note":33,"tick":127541,"time":166.06901041666666,"type":"noteOn","velocity":57},{"channel":9,"nextOffset":26601,"note":35,"tick":127558,"time":166.09114583333334,"type":"noteOff","velocity":0},{"channel":9,"nextOffset":35554,"note":42,"tick":127584,"time":166.125,"type":"noteOff","velocity":0},{"channel":9,"nextOffset":35558,"note":42,"tick":127584,"time":166.125,"type":"noteOn","velocity":50},{"channel":9,"nextOffset":35562,"note":42,"tick":127608,"time":166.15625,"type":"noteOff","velocity":0},{"channel":9,"nextOffset":48086,"note":42,"tick":127616,"time":166.16666666666666,"type":"noteOff","velocity":0},{"channel":0,"nextOffset":9511,"note":43,"tick":127625,"time":166.17838541666666,"type":"noteOff","velocity":0},{"channel":0,"nextOffset":9515,"note":44,"tick":127625,"time":166.17838541666666,"type":"noteOn","velocity":68},{"channel":0,"nextOffset":9519,"note":65,"tick":127625,"time":166.17838541666666,"type":"noteOn","velocity":68},{"channel":9,"nextOffset":35566,"note":42,"tick":127632,"time":166.1875,"type":"noteOn","velocity":50},{"channel":1,"nextOffset":19312,"note":26,"tick":127645,"time":166.20442708333334,"type":"noteOff","velocity":0},{"channel":1,"nextOffset":19316,"note":33,"tick":127645,"time":166.20442708333334,"type":"noteOn","velocity":50},{"channel":9,"nextOffset":35570,"note":42,"tick":127656,"time":166.21875,"type":"noteOff","velocity":0},{"channel":9,"nextOffset":35574,"note":42,"tick":127680,"time":166.25,"type":"noteOn","velocity":50},{"channel":9,"nextOffset":35578,"note":42,"tick":127704,"time":166.28125,"type":"noteOff","velocity":0},{"channel":0,"nextOffset":9523,"note":65,"tick":127721,"time":166.30338541666666,"type":"noteOff","velocity":0},{"channel":0,"nextOffset":9527,"note":69,"tick":127721,"time":166.30338541666666,"type":"noteOn","velocity":68},{"channel":9,"nextOffset":35582,"note":42,"tick":127728,"time":166.3125,"type":"noteOn","velocity":50},{"channel":2,"nextOffset":30877,"note":33,"tick":127733,"time":166.31901041666666,"type":"noteOff","velocity":0},{"channel":2,"nextOffset":30881,"note":32,"tick":127733,"time":166.31901041666666,"type":"noteOn","velocity":57},{"channel":9,"nextOffset":22744,"note":35,"tick":127742,"time":166.33072916666666,"type":"noteOn","velocity":50},{"channel":9,"nextOffset":35586,"note":42,"tick":127752,"time":166.34375,"type":"noteOff","velocity":0},{"channel":9,"nextOffset":35590,"note":42,"tick":127776,"time":166.375,"type":"noteOn","velocity":50},{"channel":9,"nextOffset":35594,"note":42,"tick":127800,"time":166.40625,"type":"noteOff","velocity":0},{"channel":9,"nextOffset":48091,"note":42,"tick":127808,"time":166.41666666666666,"type":"noteOn","velocity":50},{"channel":0,"nextOffset":9531,"note":44,"tick":127817,"time":166.42838541666666,"type":"noteOff","velocity":0},{"channel":0,"nextOffset":9535,"note":69,"tick":127817,"time":166.42838541666666,"type":"noteOff","velocity":0},{"channel":0,"nextOffset":9539,"note":45,"tick":127817,"time":166.42838541666666,"type":"noteOn","velocity":68},{"channel":0,"nextOffset":9543,"note":72,"tick":127817,"time":166.42838541666666,"type":"noteOn","velocity":68},{"channel":0,"nextOffset":9547,"note":67,"tick":127817,"time":166.42838541666666,"type":"noteOn","velocity":68},{"channel":0,"nextOffset":9551,"note":64,"tick":127817,"time":166.42838541666666,"type":"noteOn","velocity":68},{"channel":0,"nextOffset":9555,"note":60,"tick":127817,"time":166.42838541666666,"type":"noteOn","velocity":68},{"channel":1,"nextOffset":19321,"note":33,"tick":127837,"time":166.45442708333334,"type":"noteOff","velocity":0},{"channel":1,"nextOffset":19325,"note":32,"tick":127837,"time":166.45442708333334,"type":"noteOn","velocity":50},{"channel":9,"nextOffset":22748,"note":35,"tick":127838,"time":166.45572916666666,"type":"noteOff","velocity":0},{"channel":9,"nextOffset":26606,"note":35,"tick":127846,"time":166.46614583333334,"type":"noteOn","velocity":50},{"channel":9,"nextOffset":48095,"note":42,"tick":127904,"time":166.54166666666666,"type":"noteOff","velocity":0},{"channel":2,"nextOffset":30886,"note":32,"tick":127925,"time":166.56901041666666,"type":"noteOff","velocity":0},{"channel":2,"nextOffset":30890,"note":31,"tick":127925,"time":166.56901041666666,"type":"noteOn","velocity":57},{"channel":9,"nextOffset":26610,"note":35,"tick":127942,"time":166.59114583333334,"type":"noteOff","velocity":0},{"channel":9,"nextOffset":35599,"note":42,"tick":127968,"time":166.625,"type":"noteOn","velocity":50},{"channel":0,"nextOffset":9560,"note":60,"tick":128009,"time":166.67838541666666,"type":"noteOff","velocity":0},{"channel":0,"nextOffset":9564,"note":64,"tick":128009,"time":166.67838541666666,"type":"noteOff","velocity":0},{"channel":0,"nextOffset":9568,"note":67,"tick":128009,"time":166.67838541666666,"type":"noteOff","velocity":0},{"channel":0,"nextOffset":9572,"note":72,"tick":128009,"time":166.67838541666666,"type":"noteOff","velocity":0},{"channel":0,"nextOffset":9576,"note":45,"tick":128009,"time":166.67838541666666,"type":"noteOff","velocity":0},{"channel":1,"nextOffset":19330,"note":32,"tick":128029,"time":166.70442708333334,"type":"noteOff","velocity":0},{"channel":1,"nextOffset":19334,"note":31,"tick":128029,"time":166.70442708333334,"type":"noteOn","velocity":50},{"channel":9,"nextOffset":22753,"note":35,"tick":128030,"time":166.70572916666666,"type":"noteOn","velocity":50},{"channel":9,"nextOffset":35603,"note":42,"tick":128064,"time":166.75,"type":"noteOff","velocity":0},{"channel":9,"nextOffset":48100,"note":42,"tick":128096,"time":166.79166666666666,"type":"noteOn","velocity":50},{"channel":0,"nextOffset":9580,"note":45,"tick":128105,"time":166.80338541666666,"type":"noteOn","velocity":68},{"channel":0,"nextOffset":9584,"note":61,"tick":128105,"time":166.80338541666666,"type":"noteOn","velocity":68},{"channel":0,"nextOffset":9588,"note":65,"tick":128105,"time":166.80338541666666,"type":"noteOn","velocity":68},{"channel":0,"nextOffset":9592,"note":67,"tick":128105,"time":166.80338541666666,"type":"noteOn","velocity":68},{"channel":0,"nextOffset":9596,"note":70,"tick":128105,"time":166.80338541666666,"type":"noteOn","velocity":68},{"channel":2,"nextOffset":30895,"note":31,"tick":128117,"time":166.81901041666666,"type":"noteOff","velocity":0},{"channel":9,"nextOffset":22757,"note":35,"tick":128126,"time":166.83072916666666,"type":"noteOff","velocity":0},{"channel":9,"nextOffset":26615,"note":35,"tick":128134,"time":166.84114583333334,"type":"noteOn","velocity":50},{"channel":9,"nextOffset":48104,"note":42,"tick":128192,"time":166.91666666666666,"type":"noteOff","velocity":0},{"channel":9,"nextOffset":48108,"note":42,"tick":128192,"time":166.91666666666666,"type":"noteOn","velocity":50},{"channel":0,"nextOffset":9600,"note":45,"tick":128201,"time":166.92838541666666,"type":"noteOff","velocity":0},{"channel":9,"nextOffset":48112,"note":42,"tick":128216,"time":166.94791666666666,"type":"noteOff","velocity":0},{"channel":1,"nextOffset":19339,"note":31,"tick":128221,"time":166.95442708333334,"type":"noteOff","velocity":0},{"channel":9,"nextOffset":26619,"note":35,"tick":128230,"time":166.96614583333334,"type":"noteOff","velocity":0},{"channel":9,"nextOffset":48116,"note":42,"tick":128240,"time":166.97916666666666,"type":"noteOn","velocity":50},{"channel":9,"nextOffset":48120,"note":42,"tick":128264,"time":167.01041666666666,"type":"noteOff","velocity":0},{"channel":9,"nextOffset":48124,"note":42,"tick":128288,"time":167.04166666666666,"type":"noteOn","velocity":50},{"channel":0,"nextOffset":9604,"note":70,"tick":128297,"time":167.05338541666666,"type":"noteOff","velocity":0},{"channel":0,"nextOffset":9608,"note":67,"tick":128297,"time":167.05338541666666,"type":"noteOff","velocity":0},{"channel":0,"nextOffset":9612,"note":65,"tick":128297,"time":167.05338541666666,"type":"noteOff","velocity":0},{"channel":0,"nextOffset":9616,"note":61,"tick":128297,"time":167.05338541666666,"type":"noteOff","velocity":0},{"channel":2,"nextOffset":30900,"note":31,"tick":128309,"time":167.06901041666666,"type":"noteOn","velocity":57},{"channel":9,"nextOffset":48128,"note":42,"tick":128312,"time":167.07291666666666,"type":"noteOff","velocity":0},{"channel":9,"nextOffset":22762,"note":35,"tick":128318,"time":167.08072916666666,"type":"noteOn","velocity":50},{"channel":9,"nextOffset":48132,"note":42,"tick":128336,"time":167.10416666666666,"type":"noteOn","velocity":50},{"channel":9,"nextOffset":35608,"note":42,"tick":128352,"time":167.125,"type":"noteOn","velocity":50},{"channel":9,"nextOffset":48136,"note":42,"tick":128360,"time":167.13541666666666,"type":"noteOff","velocity":0},{"channel":9,"nextOffset":48140,"note":42,"tick":128384,"time":167.16666666666666,"type":"noteOn","velocity":50},{"channel":0,"nextOffset":9620,"note":38,"tick":128393,"time":167.17838541666666,"type":"noteOn","velocity":68},{"channel":0,"nextOffset":9624,"note":60,"tick":128393,"time":167.17838541666666,"type":"noteOn","velocity":68},{"channel":0,"nextOffset":9628,"note":64,"tick":128393,"time":167.17838541666666,"type":"noteOn","velocity":68},{"channel":0,"nextOffset":9632,"note":65,"tick":128393,"time":167.17838541666666,"type":"noteOn","velocity":68},{"channel":0,"nextOffset":9636,"note":69,"tick":128393,"time":167.17838541666666,"type":"noteOn","velocity":68},{"channel":9,"nextOffset":48144,"note":42,"tick":128408,"time":167.19791666666666,"type":"noteOff","velocity":0},{"channel":1,"nextOffset":19344,"note":31,"tick":128413,"time":167.20442708333334,"type":"noteOn","velocity":50},{"channel":9,"nextOffset":22766,"note":35,"tick":128414,"time":167.20572916666666,"type":"noteOff","velocity":0},{"channel":9,"nextOffset":26624,"note":35,"tick":128422,"time":167.21614583333334,"type":"noteOn","velocity":50},{"channel":9,"nextOffset":35612,"note":42,"tick":128448,"time":167.25,"type":"noteOff","velocity":0},{"channel":9,"nextOffset":35616,"note":42,"tick":128448,"time":167.25,"type":"noteOn","velocity":50},{"channel":2,"nextOffset":30905,"note":31,"tick":128501,"time":167.31901041666666,"type":"noteOff","velocity":0},{"channel":2,"nextOffset":30909,"note":32,"tick":128501,"time":167.31901041666666,"type":"noteOn","velocity":57},{"channel":9,"nextOffset":22770,"note":35,"tick":128510,"time":167.33072916666666,"type":"noteOn","velocity":50},{"channel":9,"nextOffset":26628,"note":35,"tick":128518,"time":167.34114583333334,"type":"noteOff","velocity":0},{"channel":9,"nextOffset":35620,"note":42,"tick":128544,"time":167.375,"type":"noteOff","velocity":0},{"channel":9,"nextOffset":48149,"note":42,"tick":128576,"time":167.41666666666666,"type":"noteOn","velocity":50},{"channel":0,"nextOffset":9641,"note":69,"tick":128585,"time":167.42838541666666,"type":"noteOff","velocity":0},{"channel":0,"nextOffset":9645,"note":65,"tick":128585,"time":167.42838541666666,"type":"noteOff","velocity":0},{"channel":0,"nextOffset":9649,"note":64,"tick":128585,"time":167.42838541666666,"type":"noteOff","velocity":0},{"channel":0,"nextOffset":9653,"note":60,"tick":128585,"time":167.42838541666666,"type":"noteOff","velocity":0},{"channel":0,"nextOffset":9657,"note":38,"tick":128585,"time":167.42838541666666,"type":"noteOff","velocity":0},{"channel":0,"nextOffset":9661,"note":76,"tick":128585,"time":167.42838541666666,"type":"noteOn","velocity":68},{"channel":1,"nextOffset":19349,"note":31,"tick":128605,"time":167.45442708333334,"type":"noteOff","velocity":0},{"channel":1,"nextOffset":19353,"note":32,"tick":128605,"time":167.45442708333334,"type":"noteOn","velocity":50},{"channel":9,"nextOffset":22774,"note":35,"tick":128606,"time":167.45572916666666,"type":"noteOff","velocity":0},{"channel":9,"nextOffset":26632,"note":35,"tick":128614,"time":167.46614583333334,"type":"noteOn","velocity":50},{"channel":9,"nextOffset":48153,"note":42,"tick":128672,"time":167.54166666666666,"type":"noteOff","velocity":0},{"channel":9,"nextOffset":48157,"note":42,"tick":128672,"time":167.54166666666666,"type":"noteOn","velocity":50},{"channel":0,"nextOffset":9665,"note":76,"tick":128681,"time":167.55338541666666,"type":"noteOff","velocity":0},{"channel":0,"nextOffset":9669,"note":77,"tick":128681,"time":167.55338541666666,"type":"noteOn","velocity":68},{"channel":2,"nextOffset":30914,"note":32,"tick":128693,"time":167.56901041666666,"type":"noteOff","velocity":0},{"channel":2,"nextOffset":30918,"note":33,"tick":128693,"time":167.56901041666666,"type":"noteOn","velocity":57},{"channel":2,"nextOffset":30922,"note":33,"tick":128693,"time":167.56901041666666,"type":"noteOn","velocity":57},{"channel":9,"nextOffset":26636,"note":35,"tick":128710,"time":167.59114583333334,"type":"noteOff","velocity":0},{"channel":9,"nextOffset":35625,"note":42,"tick":128736,"time":167.625,"type":"noteOn","velocity":50},{"channel":9,"nextOffset":48161,"note":42,"tick":128768,"time":167.66666666666666,"type":"noteOff","velocity":0},{"channel":0,"nextOffset":9673,"note":77,"tick":128777,"time":167.67838541666666,"type":"noteOff","velocity":0},{"channel":0,"nextOffset":9677,"note":76,"tick":128777,"time":167.67838541666666,"type":"noteOn","velocity":68},{"channel":0,"nextOffset":9681,"note":50,"tick":128777,"time":167.67838541666666,"type":"noteOn","velocity":68},{"channel":1,"nextOffset":19358,"note":32,"tick":128797,"time":167.70442708333334,"type":"noteOff","velocity":0},{"channel":1,"nextOffset":19362,"note":33,"tick":128797,"time":167.70442708333334,"type":"noteOn","velocity":50},{"channel":1,"nextOffset":19366,"note":33,"tick":128797,"time":167.70442708333334,"type":"noteOn","velocity":50},{"channel":9,"nextOffset":35629,"note":42,"tick":128832,"time":167.75,"type":"noteOff","velocity":0},{"channel":0,"nextOffset":9685,"note":76,"tick":128873,"time":167.80338541666666,"type":"noteOff","velocity":0},{"channel":0,"nextOffset":9689,"note":72,"tick":128873,"time":167.80338541666666,"type":"noteOn","velocity":68},{"channel":2,"nextOffset":30927,"note":33,"tick":128885,"time":167.81901041666666,"type":"noteOff","velocity":0},{"channel":2,"nextOffset":30931,"note":33,"tick":128885,"time":167.81901041666666,"type":"noteOff","velocity":0},{"channel":9,"nextOffset":22779,"note":35,"tick":128894,"time":167.83072916666666,"type":"noteOn","velocity":50},{"channel":9,"nextOffset":48166,"note":42,"tick":128960,"time":167.91666666666666,"type":"noteOn","velocity":50},{"channel":0,"nextOffset":9693,"note":50,"tick":128969,"time":167.92838541666666,"type":"noteOff","velocity":0},{"channel":0,"nextOffset":9697,"note":72,"tick":128969,"time":167.92838541666666,"type":"noteOff","velocity":0},{"channel":0,"nextOffset":9701,"note":76,"tick":128969,"time":167.92838541666666,"type":"noteOn","velocity":68},{"channel":0,"nextOffset":9705,"note":38,"tick":128969,"time":167.92838541666666,"type":"noteOn","velocity":68},{"channel":2,"nextOffset":30935,"note":33,"tick":128981,"time":167.94401041666666,"type":"noteOn","velocity":57},{"channel":1,"nextOffset":19371,"note":33,"tick":128989,"time":167.95442708333334,"type":"noteOff","velocity":0},{"channel":1,"nextOffset":19375,"note":33,"tick":128989,"time":167.95442708333334,"type":"noteOff","velocity":0},{"channel":9,"nextOffset":22783,"note":35,"tick":128990,"time":167.95572916666666,"type":"noteOff","velocity":0},{"channel":9,"nextOffset":26641,"note":35,"tick":128998,"time":167.96614583333334,"type":"noteOn","velocity":50},{"channel":9,"nextOffset":35634,"note":42,"tick":129024,"time":168,"type":"noteOn","velocity":50},{"channel":9,"nextOffset":48170,"note":42,"tick":129056,"time":168.04166666666666,"type":"noteOff","velocity":0},{"channel":9,"nextOffset":48174,"note":42,"tick":129056,"time":168.04166666666666,"type":"noteOn","velocity":50},{"channel":0,"nextOffset":9709,"note":76,"tick":129065,"time":168.05338541666666,"type":"noteOff","velocity":0},{"channel":0,"nextOffset":9713,"note":72,"tick":129065,"time":168.05338541666666,"type":"noteOn","velocity":68},{"channel":2,"nextOffset":30939,"note":33,"tick":129077,"time":168.06901041666666,"type":"noteOff","velocity":0},{"channel":1,"nextOffset":19379,"note":33,"tick":129085,"time":168.07942708333334,"type":"noteOn","velocity":50},{"channel":9,"nextOffset":26645,"note":35,"tick":129094,"time":168.09114583333334,"type":"noteOff","velocity":0},{"channel":9,"nextOffset":35638,"note":42,"tick":129120,"time":168.125,"type":"noteOff","velocity":0},{"channel":9,"nextOffset":35642,"note":42,"tick":129120,"time":168.125,"type":"noteOn","velocity":50},{"channel":9,"nextOffset":35646,"note":42,"tick":129144,"time":168.15625,"type":"noteOff","velocity":0},{"channel":9,"nextOffset":48178,"note":42,"tick":129152,"time":168.16666666666666,"type":"noteOff","velocity":0},{"channel":0,"nextOffset":9717,"note":38,"tick":129161,"time":168.17838541666666,"type":"noteOff","velocity":0},{"channel":0,"nextOffset":9721,"note":72,"tick":129161,"time":168.17838541666666,"type":"noteOff","velocity":0},{"channel":0,"nextOffset":9725,"note":69,"tick":129161,"time":168.17838541666666,"type":"noteOn","velocity":68},{"channel":0,"nextOffset":9729,"note":45,"tick":129161,"time":168.17838541666666,"type":"noteOn","velocity":68},{"channel":9,"nextOffset":35650,"note":42,"tick":129168,"time":168.1875,"type":"noteOn","velocity":50},{"channel":1,"nextOffset":19383,"note":33,"tick":129181,"time":168.20442708333334,"type":"noteOff","velocity":0},{"channel":9,"nextOffset":26649,"note":42,"tick":129190,"time":168.21614583333334,"type":"noteOn","velocity":50},{"channel":9,"nextOffset":35654,"note":42,"tick":129192,"time":168.21875,"type":"noteOff","velocity":0},{"channel":9,"nextOffset":35658,"note":42,"tick":129216,"time":168.25,"type":"noteOn","velocity":50},{"channel":9,"nextOffset":35662,"note":42,"tick":129240,"time":168.28125,"type":"noteOff","velocity":0},{"channel":0,"nextOffset":9733,"note":69,"tick":129257,"time":168.30338541666666,"type":"noteOff","velocity":0},{"channel":0,"nextOffset":9737,"note":67,"tick":129257,"time":168.30338541666666,"type":"noteOn","velocity":68},{"channel":9,"nextOffset":35666,"note":42,"tick":129264,"time":168.3125,"type":"noteOn","velocity":50},{"channel":2,"nextOffset":30944,"note":26,"tick":129269,"time":168.31901041666666,"type":"noteOn","velocity":57},{"channel":9,"nextOffset":22788,"note":35,"tick":129278,"time":168.33072916666666,"type":"noteOn","velocity":50},{"channel":9,"nextOffset":26653,"note":42,"tick":129286,"time":168.34114583333334,"type":"noteOff","velocity":0},{"channel":9,"nextOffset":35670,"note":42,"tick":129288,"time":168.34375,"type":"noteOff","velocity":0},{"channel":9,"nextOffset":48183,"note":42,"tick":129344,"time":168.41666666666666,"type":"noteOn","velocity":50},{"channel":0,"nextOffset":9741,"note":45,"tick":129353,"time":168.42838541666666,"type":"noteOff","velocity":0},{"channel":0,"nextOffset":9745,"note":67,"tick":129353,"time":168.42838541666666,"type":"noteOff","velocity":0},{"channel":0,"nextOffset":9749,"note":69,"tick":129353,"time":168.42838541666666,"type":"noteOn","velocity":68},{"channel":0,"nextOffset":9753,"note":50,"tick":129353,"time":168.42838541666666,"type":"noteOn","velocity":68},{"channel":1,"nextOffset":19388,"note":26,"tick":129373,"time":168.45442708333334,"type":"noteOn","velocity":50},{"channel":9,"nextOffset":22792,"note":35,"tick":129374,"time":168.45572916666666,"type":"noteOff","velocity":0},{"channel":9,"nextOffset":26657,"note":35,"tick":129382,"time":168.46614583333334,"type":"noteOn","velocity":50},{"channel":9,"nextOffset":48187,"note":42,"tick":129440,"time":168.54166666666666,"type":"noteOff","velocity":0},{"channel":0,"nextOffset":9757,"note":69,"tick":129449,"time":168.55338541666666,"type":"noteOff","velocity":0},{"channel":0,"nextOffset":9761,"note":62,"tick":129449,"time":168.55338541666666,"type":"noteOn","velocity":68},{"channel":2,"nextOffset":30949,"note":26,"tick":129461,"time":168.56901041666666,"type":"noteOff","velocity":0},{"channel":9,"nextOffset":26661,"note":35,"tick":129478,"time":168.59114583333334,"type":"noteOff","velocity":0},{"channel":0,"nextOffset":9765,"note":50,"tick":129545,"time":168.67838541666666,"type":"noteOff","velocity":0},{"channel":0,"nextOffset":9769,"note":62,"tick":129545,"time":168.67838541666666,"type":"noteOff","velocity":0},{"channel":0,"nextOffset":9773,"note":60,"tick":129545,"time":168.67838541666666,"type":"noteOn","velocity":68},{"channel":0,"nextOffset":9777,"note":38,"tick":129545,"time":168.67838541666666,"type":"noteOn","velocity":68},{"channel":1,"nextOffset":19393,"note":26,"tick":129565,"time":168.70442708333334,"type":"noteOff","velocity":0},{"channel":9,"nextOffset":22797,"note":35,"tick":129566,"time":168.70572916666666,"type":"noteOn","velocity":50},{"channel":9,"nextOffset":48192,"note":42,"tick":129632,"time":168.79166666666666,"type":"noteOn","velocity":50},{"channel":0,"nextOffset":9781,"note":60,"tick":129641,"time":168.80338541666666,"type":"noteOff","velocity":0},{"channel":0,"nextOffset":9785,"note":65,"tick":129641,"time":168.80338541666666,"type":"noteOn","velocity":68},{"channel":2,"nextOffset":30954,"note":26,"tick":129653,"time":168.81901041666666,"type":"noteOn","velocity":57},{"channel":9,"nextOffset":22801,"note":35,"tick":129662,"time":168.83072916666666,"type":"noteOff","velocity":0},{"channel":9,"nextOffset":26666,"note":35,"tick":129670,"time":168.84114583333334,"type":"noteOn","velocity":50},{"channel":9,"nextOffset":48196,"note":42,"tick":129728,"time":168.91666666666666,"type":"noteOff","velocity":0},{"channel":9,"nextOffset":48200,"note":42,"tick":129728,"time":168.91666666666666,"type":"noteOn","velocity":50},{"channel":0,"nextOffset":9789,"note":38,"tick":129737,"time":168.92838541666666,"type":"noteOff","velocity":0},{"channel":0,"nextOffset":9793,"note":65,"tick":129737,"time":168.92838541666666,"type":"noteOff","velocity":0},{"channel":0,"nextOffset":9797,"note":64,"tick":129737,"time":168.92838541666666,"type":"noteOn","velocity":68},{"channel":0,"nextOffset":9801,"note":60,"tick":129737,"time":168.92838541666666,"type":"noteOn","velocity":68},{"channel":0,"nextOffset":9805,"note":69,"tick":129737,"time":168.92838541666666,"type":"noteOn","velocity":68},{"channel":0,"nextOffset":9809,"note":45,"tick":129737,"time":168.92838541666666,"type":"noteOn","velocity":68},{"channel":9,"nextOffset":48204,"note":42,"tick":129752,"time":168.94791666666666,"type":"noteOff","velocity":0},{"channel":1,"nextOffset":19398,"note":26,"tick":129757,"time":168.95442708333334,"type":"noteOn","velocity":50},{"channel":9,"nextOffset":26670,"note":35,"tick":129766,"time":168.96614583333334,"type":"noteOff","velocity":0},{"channel":9,"nextOffset":48208,"note":42,"tick":129776,"time":168.97916666666666,"type":"noteOn","velocity":50},{"channel":9,"nextOffset":48212,"note":42,"tick":129800,"time":169.01041666666666,"type":"noteOff","velocity":0},{"channel":9,"nextOffset":48216,"note":42,"tick":129824,"time":169.04166666666666,"type":"noteOn","velocity":50},{"channel":2,"nextOffset":30959,"note":26,"tick":129845,"time":169.06901041666666,"type":"noteOff","velocity":0},{"channel":2,"nextOffset":30963,"note":33,"tick":129845,"time":169.06901041666666,"type":"noteOn","velocity":57},{"channel":9,"nextOffset":48220,"note":42,"tick":129848,"time":169.07291666666666,"type":"noteOff","velocity":0},{"channel":9,"nextOffset":22806,"note":35,"tick":129854,"time":169.08072916666666,"type":"noteOn","velocity":50},{"channel":9,"nextOffset":48224,"note":42,"tick":129872,"time":169.10416666666666,"type":"noteOn","velocity":50},{"channel":9,"nextOffset":48228,"note":42,"tick":129896,"time":169.13541666666666,"type":"noteOff","velocity":0},{"channel":9,"nextOffset":48232,"note":42,"tick":129920,"time":169.16666666666666,"type":"noteOn","velocity":50},{"channel":0,"nextOffset":9814,"note":45,"tick":129929,"time":169.17838541666666,"type":"noteOff","velocity":0},{"channel":0,"nextOffset":9818,"note":69,"tick":129929,"time":169.17838541666666,"type":"noteOff","velocity":0},{"channel":0,"nextOffset":9822,"note":60,"tick":129929,"time":169.17838541666666,"type":"noteOff","velocity":0},{"channel":0,"nextOffset":9826,"note":64,"tick":129929,"time":169.17838541666666,"type":"noteOff","velocity":0},{"channel":0,"nextOffset":9830,"note":59,"tick":129929,"time":169.17838541666666,"type":"noteOn","velocity":68},{"channel":0,"nextOffset":9834,"note":63,"tick":129929,"time":169.17838541666666,"type":"noteOn","velocity":68},{"channel":0,"nextOffset":9838,"note":68,"tick":129929,"time":169.17838541666666,"type":"noteOn","velocity":68},{"channel":0,"nextOffset":9842,"note":44,"tick":129929,"time":169.17838541666666,"type":"noteOn","velocity":68},{"channel":9,"nextOffset":48236,"note":42,"tick":129944,"time":169.19791666666666,"type":"noteOff","velocity":0},{"channel":1,"nextOffset":19403,"note":26,"tick":129949,"time":169.20442708333334,"type":"noteOff","velocity":0},{"channel":1,"nextOffset":19407,"note":33,"tick":129949,"time":169.20442708333334,"type":"noteOn","velocity":50},{"channel":9,"nextOffset":22810,"note":35,"tick":129950,"time":169.20572916666666,"type":"noteOff","velocity":0},{"channel":9,"nextOffset":26675,"note":35,"tick":129958,"time":169.21614583333334,"type":"noteOn","velocity":50},{"channel":2,"nextOffset":30968,"note":33,"tick":130037,"time":169.31901041666666,"type":"noteOff","velocity":0},{"channel":2,"nextOffset":30972,"note":26,"tick":130037,"time":169.31901041666666,"type":"noteOn","velocity":57},{"channel":9,"nextOffset":22814,"note":35,"tick":130046,"time":169.33072916666666,"type":"noteOn","velocity":50},{"channel":9,"nextOffset":26679,"note":35,"tick":130054,"time":169.34114583333334,"type":"noteOff","velocity":0},{"channel":9,"nextOffset":48241,"note":42,"tick":130112,"time":169.41666666666666,"type":"noteOn","velocity":50},{"channel":0,"nextOffset":9847,"note":44,"tick":130121,"time":169.42838541666666,"type":"noteOff","velocity":0},{"channel":0,"nextOffset":9851,"note":68,"tick":130121,"time":169.42838541666666,"type":"noteOff","velocity":0},{"channel":0,"nextOffset":9855,"note":63,"tick":130121,"time":169.42838541666666,"type":"noteOff","velocity":0},{"channel":0,"nextOffset":9859,"note":59,"tick":130121,"time":169.42838541666666,"type":"noteOff","velocity":0},{"channel":0,"nextOffset":9863,"note":43,"tick":130121,"time":169.42838541666666,"type":"noteOn","velocity":68},{"channel":0,"nextOffset":9867,"note":58,"tick":130121,"time":169.42838541666666,"type":"noteOn","velocity":68},{"channel":0,"nextOffset":9871,"note":62,"tick":130121,"time":169.42838541666666,"type":"noteOn","velocity":68},{"channel":0,"nextOffset":9875,"note":65,"tick":130121,"time":169.42838541666666,"type":"noteOn","velocity":68},{"channel":0,"nextOffset":9879,"note":69,"tick":130121,"time":169.42838541666666,"type":"noteOn","velocity":68},{"channel":1,"nextOffset":19412,"note":33,"tick":130141,"time":169.45442708333334,"type":"noteOff","velocity":0},{"channel":1,"nextOffset":19416,"note":26,"tick":130141,"time":169.45442708333334,"type":"noteOn","velocity":50},{"channel":9,"nextOffset":22818,"note":35,"tick":130142,"time":169.45572916666666,"type":"noteOff","velocity":0},{"channel":9,"nextOffset":26683,"note":35,"tick":130150,"time":169.46614583333334,"type":"noteOn","velocity":50},{"channel":9,"nextOffset":48245,"note":42,"tick":130208,"time":169.54166666666666,"type":"noteOff","velocity":0},{"channel":9,"nextOffset":48249,"note":42,"tick":130208,"time":169.54166666666666,"type":"noteOn","velocity":50},{"channel":2,"nextOffset":30977,"note":26,"tick":130229,"time":169.56901041666666,"type":"noteOff","velocity":0},{"channel":9,"nextOffset":26687,"note":35,"tick":130246,"time":169.59114583333334,"type":"noteOff","velocity":0},{"channel":9,"nextOffset":48253,"note":42,"tick":130304,"time":169.66666666666666,"type":"noteOff","velocity":0},{"channel":0,"nextOffset":9884,"note":43,"tick":130313,"time":169.67838541666666,"type":"noteOff","velocity":0},{"channel":1,"nextOffset":19421,"note":26,"tick":130333,"time":169.70442708333334,"type":"noteOff","velocity":0},{"channel":2,"nextOffset":30982,"note":26,"tick":130421,"time":169.81901041666666,"type":"noteOn","velocity":57},{"channel":9,"nextOffset":22823,"note":35,"tick":130430,"time":169.83072916666666,"type":"noteOn","velocity":50},{"channel":9,"nextOffset":48258,"note":42,"tick":130496,"time":169.91666666666666,"type":"noteOn","velocity":50},{"channel":0,"nextOffset":9889,"note":69,"tick":130505,"time":169.92838541666666,"type":"noteOff","velocity":0},{"channel":0,"nextOffset":9893,"note":65,"tick":130505,"time":169.92838541666666,"type":"noteOff","velocity":0},{"channel":0,"nextOffset":9897,"note":62,"tick":130505,"time":169.92838541666666,"type":"noteOff","velocity":0},{"channel":0,"nextOffset":9901,"note":58,"tick":130505,"time":169.92838541666666,"type":"noteOff","velocity":0},{"channel":0,"nextOffset":9905,"note":43,"tick":130505,"time":169.92838541666666,"type":"noteOn","velocity":68},{"channel":1,"nextOffset":19426,"note":26,"tick":130525,"time":169.95442708333334,"type":"noteOn","velocity":50},{"channel":9,"nextOffset":22827,"note":35,"tick":130526,"time":169.95572916666666,"type":"noteOff","velocity":0},{"channel":9,"nextOffset":26692,"note":35,"tick":130534,"time":169.96614583333334,"type":"noteOn","velocity":50},{"channel":9,"nextOffset":48262,"note":42,"tick":130592,"time":170.04166666666666,"type":"noteOff","velocity":0},{"channel":9,"nextOffset":48266,"note":42,"tick":130592,"time":170.04166666666666,"type":"noteOn","velocity":50},{"channel":2,"nextOffset":30987,"note":26,"tick":130613,"time":170.06901041666666,"type":"noteOff","velocity":0},{"channel":2,"nextOffset":30991,"note":33,"tick":130613,"time":170.06901041666666,"type":"noteOn","velocity":57},{"channel":9,"nextOffset":26696,"note":35,"tick":130630,"time":170.09114583333334,"type":"noteOff","velocity":0},{"channel":9,"nextOffset":48270,"note":42,"tick":130688,"time":170.16666666666666,"type":"noteOff","velocity":0},{"channel":0,"nextOffset":9910,"note":43,"tick":130697,"time":170.17838541666666,"type":"noteOff","velocity":0},{"channel":0,"nextOffset":9914,"note":44,"tick":130697,"time":170.17838541666666,"type":"noteOn","velocity":68},{"channel":0,"nextOffset":9918,"note":65,"tick":130697,"time":170.17838541666666,"type":"noteOn","velocity":68},{"channel":1,"nextOffset":19431,"note":26,"tick":130717,"time":170.20442708333334,"type":"noteOff","velocity":0},{"channel":1,"nextOffset":19435,"note":33,"tick":130717,"time":170.20442708333334,"type":"noteOn","velocity":50},{"channel":0,"nextOffset":9922,"note":65,"tick":130793,"time":170.30338541666666,"type":"noteOff","velocity":0},{"channel":0,"nextOffset":9926,"note":69,"tick":130793,"time":170.30338541666666,"type":"noteOn","velocity":68},{"channel":2,"nextOffset":30996,"note":33,"tick":130805,"time":170.31901041666666,"type":"noteOff","velocity":0},{"channel":2,"nextOffset":31000,"note":32,"tick":130805,"time":170.31901041666666,"type":"noteOn","velocity":57},{"channel":2,"nextOffset":31004,"note":32,"tick":130805,"time":170.31901041666666,"type":"noteOn","velocity":57},{"channel":9,"nextOffset":22832,"note":35,"tick":130814,"time":170.33072916666666,"type":"noteOn","velocity":50},{"channel":9,"nextOffset":48275,"note":42,"tick":130880,"time":170.41666666666666,"type":"noteOn","velocity":50},{"channel":0,"nextOffset":9930,"note":44,"tick":130889,"time":170.42838541666666,"type":"noteOff","velocity":0},{"channel":0,"nextOffset":9934,"note":69,"tick":130889,"time":170.42838541666666,"type":"noteOff","velocity":0},{"channel":0,"nextOffset":9938,"note":45,"tick":130889,"time":170.42838541666666,"type":"noteOn","velocity":68},{"channel":0,"nextOffset":9942,"note":72,"tick":130889,"time":170.42838541666666,"type":"noteOn","velocity":68},{"channel":0,"nextOffset":9946,"note":67,"tick":130889,"time":170.42838541666666,"type":"noteOn","velocity":68},{"channel":0,"nextOffset":9950,"note":64,"tick":130889,"time":170.42838541666666,"type":"noteOn","velocity":68},{"channel":0,"nextOffset":9954,"note":60,"tick":130889,"time":170.42838541666666,"type":"noteOn","velocity":68},{"channel":1,"nextOffset":19440,"note":33,"tick":130909,"time":170.45442708333334,"type":"noteOff","velocity":0},{"channel":1,"nextOffset":19444,"note":32,"tick":130909,"time":170.45442708333334,"type":"noteOn","velocity":50},{"channel":1,"nextOffset":19448,"note":32,"tick":130909,"time":170.45442708333334,"type":"noteOn","velocity":50},{"channel":9,"nextOffset":22836,"note":35,"tick":130910,"time":170.45572916666666,"type":"noteOff","velocity":0},{"channel":9,"nextOffset":26701,"note":35,"tick":130918,"time":170.46614583333334,"type":"noteOn","velocity":50},{"channel":9,"nextOffset":48279,"note":42,"tick":130976,"time":170.54166666666666,"type":"noteOff","velocity":0},{"channel":2,"nextOffset":31009,"note":32,"tick":130997,"time":170.56901041666666,"type":"noteOff","velocity":0},{"channel":2,"nextOffset":31013,"note":32,"tick":130997,"time":170.56901041666666,"type":"noteOff","velocity":0},{"channel":2,"nextOffset":31017,"note":31,"tick":130997,"time":170.56901041666666,"type":"noteOn","velocity":57},{"channel":9,"nextOffset":26705,"note":35,"tick":131014,"time":170.59114583333334,"type":"noteOff","velocity":0},{"channel":0,"nextOffset":9959,"note":60,"tick":131081,"time":170.67838541666666,"type":"noteOff","velocity":0},{"channel":0,"nextOffset":9963,"note":64,"tick":131081,"time":170.67838541666666,"type":"noteOff","velocity":0},{"channel":0,"nextOffset":9967,"note":67,"tick":131081,"time":170.67838541666666,"type":"noteOff","velocity":0},{"channel":0,"nextOffset":9971,"note":72,"tick":131081,"time":170.67838541666666,"type":"noteOff","velocity":0},{"channel":0,"nextOffset":9975,"note":45,"tick":131081,"time":170.67838541666666,"type":"noteOff","velocity":0},{"channel":1,"nextOffset":19453,"note":32,"tick":131101,"time":170.70442708333334,"type":"noteOff","velocity":0},{"channel":1,"nextOffset":19457,"note":32,"tick":131101,"time":170.70442708333334,"type":"noteOff","velocity":0},{"channel":1,"nextOffset":19461,"note":31,"tick":131101,"time":170.70442708333334,"type":"noteOn","velocity":50},{"channel":9,"nextOffset":22841,"note":35,"tick":131102,"time":170.70572916666666,"type":"noteOn","velocity":50},{"channel":9,"nextOffset":48284,"note":42,"tick":131168,"time":170.79166666666666,"type":"noteOn","velocity":50},{"channel":0,"nextOffset":9979,"note":45,"tick":131177,"time":170.80338541666666,"type":"noteOn","velocity":68},{"channel":0,"nextOffset":9983,"note":61,"tick":131177,"time":170.80338541666666,"type":"noteOn","velocity":68},{"channel":0,"nextOffset":9987,"note":65,"tick":131177,"time":170.80338541666666,"type":"noteOn","velocity":68},{"channel":0,"nextOffset":9991,"note":67,"tick":131177,"time":170.80338541666666,"type":"noteOn","velocity":68},{"channel":0,"nextOffset":9995,"note":70,"tick":131177,"time":170.80338541666666,"type":"noteOn","velocity":68},{"channel":2,"nextOffset":31022,"note":31,"tick":131189,"time":170.81901041666666,"type":"noteOff","velocity":0},{"channel":9,"nextOffset":22845,"note":35,"tick":131198,"time":170.83072916666666,"type":"noteOff","velocity":0},{"channel":9,"nextOffset":26710,"note":35,"tick":131206,"time":170.84114583333334,"type":"noteOn","velocity":50},{"channel":9,"nextOffset":48288,"note":42,"tick":131264,"time":170.91666666666666,"type":"noteOff","velocity":0},{"channel":9,"nextOffset":48292,"note":42,"tick":131264,"time":170.91666666666666,"type":"noteOn","velocity":50},{"channel":0,"nextOffset":9999,"note":45,"tick":131273,"time":170.92838541666666,"type":"noteOff","velocity":0},{"channel":9,"nextOffset":48296,"note":42,"tick":131288,"time":170.94791666666666,"type":"noteOff","velocity":0},{"channel":1,"nextOffset":19466,"note":31,"tick":131293,"time":170.95442708333334,"type":"noteOff","velocity":0},{"channel":9,"nextOffset":26714,"note":35,"tick":131302,"time":170.96614583333334,"type":"noteOff","velocity":0},{"channel":9,"nextOffset":48300,"note":42,"tick":131312,"time":170.97916666666666,"type":"noteOn","velocity":50},{"channel":9,"nextOffset":48304,"note":42,"tick":131336,"time":171.01041666666666,"type":"noteOff","velocity":0},{"channel":9,"nextOffset":48308,"note":42,"tick":131360,"time":171.04166666666666,"type":"noteOn","velocity":50},{"channel":0,"nextOffset":10003,"note":70,"tick":131369,"time":171.05338541666666,"type":"noteOff","velocity":0},{"channel":0,"nextOffset":10007,"note":67,"tick":131369,"time":171.05338541666666,"type":"noteOff","velocity":0},{"channel":0,"nextOffset":10011,"note":65,"tick":131369,"time":171.05338541666666,"type":"noteOff","velocity":0},{"channel":0,"nextOffset":10015,"note":61,"tick":131369,"time":171.05338541666666,"type":"noteOff","velocity":0},{"channel":2,"nextOffset":31027,"note":31,"tick":131381,"time":171.06901041666666,"type":"noteOn","velocity":57},{"channel":9,"nextOffset":48312,"note":42,"tick":131384,"time":171.07291666666666,"type":"noteOff","velocity":0},{"channel":9,"nextOffset":22850,"note":35,"tick":131390,"time":171.08072916666666,"type":"noteOn","velocity":50},{"channel":9,"nextOffset":48316,"note":42,"tick":131408,"time":171.10416666666666,"type":"noteOn","velocity":50},{"channel":9,"nextOffset":48320,"note":42,"tick":131432,"time":171.13541666666666,"type":"noteOff","velocity":0},{"channel":9,"nextOffset":48324,"note":42,"tick":131456,"time":171.16666666666666,"type":"noteOn","velocity":50},{"channel":0,"nextOffset":10019,"note":38,"tick":131465,"time":171.17838541666666,"type":"noteOn","velocity":68},{"channel":0,"nextOffset":10023,"note":60,"tick":131465,"time":171.17838541666666,"type":"noteOn","velocity":68},{"channel":0,"nextOffset":10027,"note":64,"tick":131465,"time":171.17838541666666,"type":"noteOn","velocity":68},{"channel":0,"nextOffset":10031,"note":65,"tick":131465,"time":171.17838541666666,"type":"noteOn","velocity":68},{"channel":0,"nextOffset":10035,"note":69,"tick":131465,"time":171.17838541666666,"type":"noteOn","velocity":68},{"channel":9,"nextOffset":48328,"note":42,"tick":131480,"time":171.19791666666666,"type":"noteOff","velocity":0},{"channel":1,"nextOffset":19471,"note":31,"tick":131485,"time":171.20442708333334,"type":"noteOn","velocity":50},{"channel":9,"nextOffset":22854,"note":35,"tick":131486,"time":171.20572916666666,"type":"noteOff","velocity":0},{"channel":9,"nextOffset":26719,"note":35,"tick":131494,"time":171.21614583333334,"type":"noteOn","velocity":50},{"channel":2,"nextOffset":31032,"note":31,"tick":131573,"time":171.31901041666666,"type":"noteOff","velocity":0},{"channel":2,"nextOffset":31036,"note":32,"tick":131573,"time":171.31901041666666,"type":"noteOn","velocity":57},{"channel":9,"nextOffset":22858,"note":35,"tick":131582,"time":171.33072916666666,"type":"noteOn","velocity":50},{"channel":9,"nextOffset":26723,"note":35,"tick":131590,"time":171.34114583333334,"type":"noteOff","velocity":0},{"channel":9,"nextOffset":48333,"note":42,"tick":131648,"time":171.41666666666666,"type":"noteOn","velocity":50},{"channel":0,"nextOffset":10040,"note":69,"tick":131657,"time":171.42838541666666,"type":"noteOff","velocity":0},{"channel":0,"nextOffset":10044,"note":65,"tick":131657,"time":171.42838541666666,"type":"noteOff","velocity":0},{"channel":0,"nextOffset":10048,"note":64,"tick":131657,"time":171.42838541666666,"type":"noteOff","velocity":0},{"channel":0,"nextOffset":10052,"note":60,"tick":131657,"time":171.42838541666666,"type":"noteOff","velocity":0},{"channel":0,"nextOffset":10056,"note":38,"tick":131657,"time":171.42838541666666,"type":"noteOff","velocity":0},{"channel":0,"nextOffset":10060,"note":76,"tick":131657,"time":171.42838541666666,"type":"noteOn","velocity":68},{"channel":0,"nextOffset":10064,"note":50,"tick":131657,"time":171.42838541666666,"type":"noteOn","velocity":68},{"channel":1,"nextOffset":19476,"note":31,"tick":131677,"time":171.45442708333334,"type":"noteOff","velocity":0},{"channel":1,"nextOffset":19480,"note":32,"tick":131677,"time":171.45442708333334,"type":"noteOn","velocity":50},{"channel":9,"nextOffset":22862,"note":35,"tick":131678,"time":171.45572916666666,"type":"noteOff","velocity":0},{"channel":9,"nextOffset":26727,"note":35,"tick":131686,"time":171.46614583333334,"type":"noteOn","velocity":50},{"channel":9,"nextOffset":48337,"note":42,"tick":131744,"time":171.54166666666666,"type":"noteOff","velocity":0},{"channel":0,"nextOffset":10068,"note":76,"tick":131753,"time":171.55338541666666,"type":"noteOff","velocity":0},{"channel":0,"nextOffset":10072,"note":77,"tick":131753,"time":171.55338541666666,"type":"noteOn","velocity":68},{"channel":2,"nextOffset":31041,"note":32,"tick":131765,"time":171.56901041666666,"type":"noteOff","velocity":0},{"channel":2,"nextOffset":31045,"note":33,"tick":131765,"time":171.56901041666666,"type":"noteOn","velocity":57},{"channel":9,"nextOffset":26731,"note":35,"tick":131782,"time":171.59114583333334,"type":"noteOff","velocity":0},{"channel":0,"nextOffset":10076,"note":50,"tick":131849,"time":171.67838541666666,"type":"noteOff","velocity":0},{"channel":0,"nextOffset":10080,"note":77,"tick":131849,"time":171.67838541666666,"type":"noteOff","velocity":0},{"channel":0,"nextOffset":10084,"note":79,"tick":131849,"time":171.67838541666666,"type":"noteOn","velocity":68},{"channel":0,"nextOffset":10088,"note":38,"tick":131849,"time":171.67838541666666,"type":"noteOn","velocity":68},{"channel":1,"nextOffset":19485,"note":32,"tick":131869,"time":171.70442708333334,"type":"noteOff","velocity":0},{"channel":1,"nextOffset":19489,"note":33,"tick":131869,"time":171.70442708333334,"type":"noteOn","velocity":50},{"channel":0,"nextOffset":10092,"note":79,"tick":131945,"time":171.80338541666666,"type":"noteOff","velocity":0},{"channel":0,"nextOffset":10096,"note":77,"tick":131945,"time":171.80338541666666,"type":"noteOn","velocity":68},{"channel":2,"nextOffset":31050,"note":33,"tick":131957,"time":171.81901041666666,"type":"noteOff","velocity":0},{"channel":9,"nextOffset":22867,"note":35,"tick":131966,"time":171.83072916666666,"type":"noteOn","velocity":50},{"channel":9,"nextOffset":48342,"note":42,"tick":132032,"time":171.91666666666666,"type":"noteOn","velocity":50},{"channel":0,"nextOffset":10100,"note":38,"tick":132041,"time":171.92838541666666,"type":"noteOff","velocity":0},{"channel":0,"nextOffset":10104,"note":77,"tick":132041,"time":171.92838541666666,"type":"noteOff","velocity":0},{"channel":0,"nextOffset":10108,"note":76,"tick":132041,"time":171.92838541666666,"type":"noteOn","velocity":68},{"channel":0,"nextOffset":10112,"note":45,"tick":132041,"time":171.92838541666666,"type":"noteOn","velocity":68},{"channel":2,"nextOffset":31054,"note":33,"tick":132053,"time":171.94401041666666,"type":"noteOn","velocity":57},{"channel":1,"nextOffset":19494,"note":33,"tick":132061,"time":171.95442708333334,"type":"noteOff","velocity":0},{"channel":9,"nextOffset":22871,"note":35,"tick":132062,"time":171.95572916666666,"type":"noteOff","velocity":0},{"channel":9,"nextOffset":26736,"note":35,"tick":132070,"time":171.96614583333334,"type":"noteOn","velocity":50},{"channel":9,"nextOffset":48346,"note":42,"tick":132128,"time":172.04166666666666,"type":"noteOff","velocity":0},{"channel":9,"nextOffset":48350,"note":42,"tick":132128,"time":172.04166666666666,"type":"noteOn","velocity":50},{"channel":0,"nextOffset":10116,"note":76,"tick":132137,"time":172.05338541666666,"type":"noteOff","velocity":0},{"channel":0,"nextOffset":10120,"note":72,"tick":132137,"time":172.05338541666666,"type":"noteOn","velocity":68},{"channel":2,"nextOffset":31058,"note":33,"tick":132149,"time":172.06901041666666,"type":"noteOff","velocity":0},{"channel":1,"nextOffset":19498,"note":33,"tick":132157,"time":172.07942708333334,"type":"noteOn","velocity":50},{"channel":9,"nextOffset":26740,"note":35,"tick":132166,"time":172.09114583333334,"type":"noteOff","velocity":0},{"channel":9,"nextOffset":48354,"note":42,"tick":132224,"time":172.16666666666666,"type":"noteOff","velocity":0},{"channel":0,"nextOffset":10124,"note":45,"tick":132233,"time":172.17838541666666,"type":"noteOff","velocity":0},{"channel":0,"nextOffset":10128,"note":72,"tick":132233,"time":172.17838541666666,"type":"noteOff","velocity":0},{"channel":0,"nextOffset":10132,"note":69,"tick":132233,"time":172.17838541666666,"type":"noteOn","velocity":68},{"channel":0,"nextOffset":10136,"note":38,"tick":132233,"time":172.17838541666666,"type":"noteOn","velocity":68},{"channel":1,"nextOffset":19502,"note":33,"tick":132253,"time":172.20442708333334,"type":"noteOff","velocity":0},{"channel":0,"nextOffset":10140,"note":69,"tick":132329,"time":172.30338541666666,"type":"noteOff","velocity":0},{"channel":0,"nextOffset":10144,"note":67,"tick":132329,"time":172.30338541666666,"type":"noteOn","velocity":68},{"channel":2,"nextOffset":31063,"note":26,"tick":132341,"time":172.31901041666666,"type":"noteOn","velocity":57},{"channel":9,"nextOffset":22876,"note":35,"tick":132350,"time":172.33072916666666,"type":"noteOn","velocity":50},{"channel":9,"nextOffset":48359,"note":42,"tick":132416,"time":172.41666666666666,"type":"noteOn","velocity":50},{"channel":0,"nextOffset":10148,"note":38,"tick":132425,"time":172.42838541666666,"type":"noteOff","velocity":0},{"channel":0,"nextOffset":10152,"note":67,"tick":132425,"time":172.42838541666666,"type":"noteOff","velocity":0},{"channel":0,"nextOffset":10156,"note":69,"tick":132425,"time":172.42838541666666,"type":"noteOn","velocity":68},{"channel":0,"nextOffset":10160,"note":50,"tick":132425,"time":172.42838541666666,"type":"noteOn","velocity":68},{"channel":1,"nextOffset":19507,"note":26,"tick":132445,"time":172.45442708333334,"type":"noteOn","velocity":50},{"channel":9,"nextOffset":22880,"note":35,"tick":132446,"time":172.45572916666666,"type":"noteOff","velocity":0},{"channel":9,"nextOffset":26745,"note":35,"tick":132454,"time":172.46614583333334,"type":"noteOn","velocity":50},{"channel":9,"nextOffset":48363,"note":42,"tick":132512,"time":172.54166666666666,"type":"noteOff","velocity":0},{"channel":0,"nextOffset":10164,"note":69,"tick":132521,"time":172.55338541666666,"type":"noteOff","velocity":0},{"channel":0,"nextOffset":10168,"note":62,"tick":132521,"time":172.55338541666666,"type":"noteOn","velocity":68},{"channel":2,"nextOffset":31068,"note":26,"tick":132533,"time":172.56901041666666,"type":"noteOff","velocity":0},{"channel":9,"nextOffset":26749,"note":35,"tick":132550,"time":172.59114583333334,"type":"noteOff","velocity":0},{"channel":0,"nextOffset":10172,"note":50,"tick":132617,"time":172.67838541666666,"type":"noteOff","velocity":0},{"channel":0,"nextOffset":10176,"note":62,"tick":132617,"time":172.67838541666666,"type":"noteOff","velocity":0},{"channel":0,"nextOffset":10180,"note":60,"tick":132617,"time":172.67838541666666,"type":"noteOn","velocity":68},{"channel":0,"nextOffset":10184,"note":38,"tick":132617,"time":172.67838541666666,"type":"noteOn","velocity":68},{"channel":1,"nextOffset":19512,"note":26,"tick":132637,"time":172.70442708333334,"type":"noteOff","velocity":0},{"channel":9,"nextOffset":22885,"note":35,"tick":132638,"time":172.70572916666666,"type":"noteOn","velocity":50},{"channel":9,"nextOffset":48368,"note":42,"tick":132704,"time":172.79166666666666,"type":"noteOn","velocity":50},{"channel":0,"nextOffset":10188,"note":60,"tick":132713,"time":172.80338541666666,"type":"noteOff","velocity":0},{"channel":0,"nextOffset":10192,"note":65,"tick":132713,"time":172.80338541666666,"type":"noteOn","velocity":68},{"channel":2,"nextOffset":31073,"note":38,"tick":132725,"time":172.81901041666666,"type":"noteOn","velocity":57},{"channel":9,"nextOffset":22889,"note":35,"tick":132734,"time":172.83072916666666,"type":"noteOff","velocity":0},{"channel":9,"nextOffset":26754,"note":35,"tick":132742,"time":172.84114583333334,"type":"noteOn","velocity":50},{"channel":9,"nextOffset":48372,"note":42,"tick":132800,"time":172.91666666666666,"type":"noteOff","velocity":0},{"channel":9,"nextOffset":48376,"note":42,"tick":132800,"time":172.91666666666666,"type":"noteOn","velocity":50},{"channel":0,"nextOffset":10196,"note":38,"tick":132809,"time":172.92838541666666,"type":"noteOff","velocity":0},{"channel":0,"nextOffset":10200,"note":65,"tick":132809,"time":172.92838541666666,"type":"noteOff","velocity":0},{"channel":0,"nextOffset":10204,"note":45,"tick":132809,"time":172.92838541666666,"type":"noteOn","velocity":68},{"channel":0,"nextOffset":10208,"note":64,"tick":132809,"time":172.92838541666666,"type":"noteOn","velocity":68},{"channel":0,"nextOffset":10212,"note":60,"tick":132809,"time":172.92838541666666,"type":"noteOn","velocity":68},{"channel":0,"nextOffset":10216,"note":69,"tick":132809,"time":172.92838541666666,"type":"noteOn","velocity":68},{"channel":9,"nextOffset":48380,"note":42,"tick":132824,"time":172.94791666666666,"type":"noteOff","velocity":0},{"channel":1,"nextOffset":19517,"note":38,"tick":132829,"time":172.95442708333334,"type":"noteOn","velocity":50},{"channel":9,"nextOffset":26758,"note":35,"tick":132838,"time":172.96614583333334,"type":"noteOff","velocity":0},{"channel":9,"nextOffset":48384,"note":42,"tick":132848,"time":172.97916666666666,"type":"noteOn","velocity":50},{"channel":9,"nextOffset":48388,"note":42,"tick":132872,"time":173.01041666666666,"type":"noteOff","velocity":0},{"channel":9,"nextOffset":48392,"note":42,"tick":132896,"time":173.04166666666666,"type":"noteOn","velocity":50},{"channel":2,"nextOffset":31078,"note":38,"tick":132917,"time":173.06901041666666,"type":"noteOff","velocity":0},{"channel":2,"nextOffset":31082,"note":26,"tick":132917,"time":173.06901041666666,"type":"noteOn","velocity":57},{"channel":9,"nextOffset":48396,"note":42,"tick":132920,"time":173.07291666666666,"type":"noteOff","velocity":0},{"channel":9,"nextOffset":22894,"note":35,"tick":132926,"time":173.08072916666666,"type":"noteOn","velocity":50},{"channel":9,"nextOffset":48400,"note":42,"tick":132944,"time":173.10416666666666,"type":"noteOn","velocity":50},{"channel":9,"nextOffset":48404,"note":42,"tick":132968,"time":173.13541666666666,"type":"noteOff","velocity":0},{"channel":0,"nextOffset":10221,"note":69,"tick":133001,"time":173.17838541666666,"type":"noteOff","velocity":0},{"channel":0,"nextOffset":10225,"note":60,"tick":133001,"time":173.17838541666666,"type":"noteOff","velocity":0},{"channel":0,"nextOffset":10229,"note":64,"tick":133001,"time":173.17838541666666,"type":"noteOff","velocity":0},{"channel":0,"nextOffset":10233,"note":45,"tick":133001,"time":173.17838541666666,"type":"noteOff","velocity":0},{"channel":0,"nextOffset":10237,"note":59,"tick":133001,"time":173.17838541666666,"type":"noteOn","velocity":68},{"channel":0,"nextOffset":10241,"note":63,"tick":133001,"time":173.17838541666666,"type":"noteOn","velocity":68},{"channel":0,"nextOffset":10245,"note":68,"tick":133001,"time":173.17838541666666,"type":"noteOn","velocity":68},{"channel":0,"nextOffset":10249,"note":44,"tick":133001,"time":173.17838541666666,"type":"noteOn","velocity":68},{"channel":1,"nextOffset":19522,"note":38,"tick":133021,"time":173.20442708333334,"type":"noteOff","velocity":0},{"channel":1,"nextOffset":19526,"note":26,"tick":133021,"time":173.20442708333334,"type":"noteOn","velocity":50},{"channel":9,"nextOffset":22898,"note":35,"tick":133022,"time":173.20572916666666,"type":"noteOff","velocity":0},{"channel":9,"nextOffset":26763,"note":35,"tick":133030,"time":173.21614583333334,"type":"noteOn","velocity":50},{"channel":2,"nextOffset":31087,"note":26,"tick":133109,"time":173.31901041666666,"type":"noteOff","velocity":0},{"channel":2,"nextOffset":31091,"note":33,"tick":133109,"time":173.31901041666666,"type":"noteOn","velocity":57},{"channel":9,"nextOffset":26767,"note":35,"tick":133126,"time":173.34114583333334,"type":"noteOff","velocity":0},{"channel":0,"nextOffset":10254,"note":44,"tick":133193,"time":173.42838541666666,"type":"noteOff","velocity":0},{"channel":0,"nextOffset":10258,"note":68,"tick":133193,"time":173.42838541666666,"type":"noteOff","velocity":0},{"channel":0,"nextOffset":10262,"note":63,"tick":133193,"time":173.42838541666666,"type":"noteOff","velocity":0},{"channel":0,"nextOffset":10266,"note":59,"tick":133193,"time":173.42838541666666,"type":"noteOff","velocity":0},{"channel":0,"nextOffset":10270,"note":43,"tick":133193,"time":173.42838541666666,"type":"noteOn","velocity":68},{"channel":0,"nextOffset":10274,"note":58,"tick":133193,"time":173.42838541666666,"type":"noteOn","velocity":68},{"channel":0,"nextOffset":10278,"note":62,"tick":133193,"time":173.42838541666666,"type":"noteOn","velocity":68},{"channel":0,"nextOffset":10282,"note":65,"tick":133193,"time":173.42838541666666,"type":"noteOn","velocity":68},{"channel":0,"nextOffset":10286,"note":69,"tick":133193,"time":173.42838541666666,"type":"noteOn","velocity":68},{"channel":1,"nextOffset":19531,"note":26,"tick":133213,"time":173.45442708333334,"type":"noteOff","velocity":0},{"channel":1,"nextOffset":19535,"note":33,"tick":133213,"time":173.45442708333334,"type":"noteOn","velocity":50},{"channel":2,"nextOffset":31096,"note":33,"tick":133301,"time":173.56901041666666,"type":"noteOff","velocity":0},{"channel":0,"nextOffset":10291,"note":43,"tick":133385,"time":173.67838541666666,"type":"noteOff","velocity":0},{"channel":1,"nextOffset":19540,"note":33,"tick":133405,"time":173.70442708333334,"type":"noteOff","velocity":0},{"channel":2,"nextOffset":31101,"note":26,"tick":133493,"time":173.81901041666666,"type":"noteOn","velocity":57},{"channel":0,"nextOffset":10296,"note":69,"tick":133577,"time":173.92838541666666,"type":"noteOff","velocity":0},{"channel":0,"nextOffset":10300,"note":65,"tick":133577,"time":173.92838541666666,"type":"noteOff","velocity":0},{"channel":0,"nextOffset":10304,"note":62,"tick":133577,"time":173.92838541666666,"type":"noteOff","velocity":0},{"channel":0,"nextOffset":10308,"note":58,"tick":133577,"time":173.92838541666666,"type":"noteOff","velocity":0},{"channel":0,"nextOffset":10312,"note":43,"tick":133577,"time":173.92838541666666,"type":"noteOn","velocity":68},{"channel":1,"nextOffset":19545,"note":26,"tick":133597,"time":173.95442708333334,"type":"noteOn","velocity":50},{"channel":2,"nextOffset":31106,"note":26,"tick":133685,"time":174.06901041666666,"type":"noteOff","velocity":0},{"channel":2,"nextOffset":31110,"note":33,"tick":133685,"time":174.06901041666666,"type":"noteOn","velocity":57},{"channel":0,"nextOffset":10317,"note":43,"tick":133769,"time":174.17838541666666,"type":"noteOff","velocity":0},{"channel":0,"nextOffset":10321,"note":44,"tick":133769,"time":174.17838541666666,"type":"noteOn","velocity":68},{"channel":0,"nextOffset":10325,"note":65,"tick":133769,"time":174.17838541666666,"type":"noteOn","velocity":68},{"channel":1,"nextOffset":19550,"note":26,"tick":133789,"time":174.20442708333334,"type":"noteOff","velocity":0},{"channel":1,"nextOffset":19554,"note":33,"tick":133789,"time":174.20442708333334,"type":"noteOn","velocity":50},{"channel":0,"nextOffset":10329,"note":65,"tick":133865,"time":174.30338541666666,"type":"noteOff","velocity":0},{"channel":0,"nextOffset":10333,"note":69,"tick":133865,"time":174.30338541666666,"type":"noteOn","velocity":68},{"channel":2,"nextOffset":31115,"note":33,"tick":133877,"time":174.31901041666666,"type":"noteOff","velocity":0},{"channel":2,"nextOffset":31119,"note":32,"tick":133877,"time":174.31901041666666,"type":"noteOn","velocity":57},{"channel":0,"nextOffset":10337,"note":44,"tick":133961,"time":174.42838541666666,"type":"noteOff","velocity":0},{"channel":0,"nextOffset":10341,"note":69,"tick":133961,"time":174.42838541666666,"type":"noteOff","velocity":0},{"channel":0,"nextOffset":10345,"note":45,"tick":133961,"time":174.42838541666666,"type":"noteOn","velocity":68},{"channel":0,"nextOffset":10349,"note":72,"tick":133961,"time":174.42838541666666,"type":"noteOn","velocity":68},{"channel":0,"nextOffset":10353,"note":67,"tick":133961,"time":174.42838541666666,"type":"noteOn","velocity":68},{"channel":0,"nextOffset":10357,"note":64,"tick":133961,"time":174.42838541666666,"type":"noteOn","velocity":68},{"channel":0,"nextOffset":10361,"note":60,"tick":133961,"time":174.42838541666666,"type":"noteOn","velocity":68},{"channel":1,"nextOffset":19559,"note":33,"tick":133981,"time":174.45442708333334,"type":"noteOff","velocity":0},{"channel":1,"nextOffset":19563,"note":32,"tick":133981,"time":174.45442708333334,"type":"noteOn","velocity":50},{"channel":2,"nextOffset":31124,"note":32,"tick":134069,"time":174.56901041666666,"type":"noteOff","velocity":0},{"channel":2,"nextOffset":31128,"note":31,"tick":134069,"time":174.56901041666666,"type":"noteOn","velocity":57},{"channel":0,"nextOffset":10366,"note":60,"tick":134153,"time":174.67838541666666,"type":"noteOff","velocity":0},{"channel":0,"nextOffset":10370,"note":64,"tick":134153,"time":174.67838541666666,"type":"noteOff","velocity":0},{"channel":0,"nextOffset":10374,"note":67,"tick":134153,"time":174.67838541666666,"type":"noteOff","velocity":0},{"channel":0,"nextOffset":10378,"note":72,"tick":134153,"time":174.67838541666666,"type":"noteOff","velocity":0},{"channel":0,"nextOffset":10382,"note":45,"tick":134153,"time":174.67838541666666,"type":"noteOff","velocity":0},{"channel":1,"nextOffset":19568,"note":32,"tick":134173,"time":174.70442708333334,"type":"noteOff","velocity":0},{"channel":1,"nextOffset":19572,"note":31,"tick":134173,"time":174.70442708333334,"type":"noteOn","velocity":50},{"channel":2,"nextOffset":31133,"note":31,"tick":134261,"time":174.81901041666666,"type":"noteOff","velocity":0},{"channel":0,"nextOffset":10387,"note":67,"tick":134345,"time":174.92838541666666,"type":"noteOn","velocity":68},{"channel":0,"nextOffset":10391,"note":70,"tick":134345,"time":174.92838541666666,"type":"noteOn","velocity":68},{"channel":0,"nextOffset":10395,"note":73,"tick":134345,"time":174.92838541666666,"type":"noteOn","velocity":68},{"channel":0,"nextOffset":10399,"note":77,"tick":134345,"time":174.92838541666666,"type":"noteOn","velocity":68},{"channel":0,"nextOffset":10403,"note":39,"tick":134345,"time":174.92838541666666,"type":"noteOn","velocity":68},{"channel":1,"nextOffset":19577,"note":31,"tick":134365,"time":174.95442708333334,"type":"noteOff","velocity":0},{"channel":2,"nextOffset":31138,"note":31,"tick":134453,"time":175.06901041666666,"type":"noteOn","velocity":57},{"channel":0,"nextOffset":10408,"note":39,"tick":134537,"time":175.17838541666666,"type":"noteOff","velocity":0},{"channel":0,"nextOffset":10412,"note":77,"tick":134537,"time":175.17838541666666,"type":"noteOff","velocity":0},{"channel":0,"nextOffset":10416,"note":73,"tick":134537,"time":175.17838541666666,"type":"noteOff","velocity":0},{"channel":0,"nextOffset":10420,"note":70,"tick":134537,"time":175.17838541666666,"type":"noteOff","velocity":0},{"channel":0,"nextOffset":10424,"note":67,"tick":134537,"time":175.17838541666666,"type":"noteOff","velocity":0},{"channel":1,"nextOffset":19582,"note":31,"tick":134557,"time":175.20442708333334,"type":"noteOn","velocity":50},{"channel":2,"nextOffset":31143,"note":31,"tick":134645,"time":175.31901041666666,"type":"noteOff","velocity":0},{"channel":2,"nextOffset":31147,"note":32,"tick":134645,"time":175.31901041666666,"type":"noteOn","velocity":57},{"channel":0,"nextOffset":10429,"note":65,"tick":134729,"time":175.42838541666666,"type":"noteOn","velocity":68},{"channel":0,"nextOffset":10433,"note":69,"tick":134729,"time":175.42838541666666,"type":"noteOn","velocity":68},{"channel":0,"nextOffset":10437,"note":72,"tick":134729,"time":175.42838541666666,"type":"noteOn","velocity":68},{"channel":0,"nextOffset":10441,"note":76,"tick":134729,"time":175.42838541666666,"type":"noteOn","velocity":68},{"channel":0,"nextOffset":10445,"note":38,"tick":134729,"time":175.42838541666666,"type":"noteOn","velocity":68},{"channel":1,"nextOffset":19587,"note":31,"tick":134749,"time":175.45442708333334,"type":"noteOff","velocity":0},{"channel":1,"nextOffset":19591,"note":32,"tick":134749,"time":175.45442708333334,"type":"noteOn","velocity":50},{"channel":2,"nextOffset":31152,"note":32,"tick":134837,"time":175.56901041666666,"type":"noteOff","velocity":0},{"channel":2,"nextOffset":31156,"note":33,"tick":134837,"time":175.56901041666666,"type":"noteOn","velocity":57},{"channel":0,"nextOffset":10450,"note":38,"tick":134921,"time":175.67838541666666,"type":"noteOff","velocity":0},{"channel":0,"nextOffset":10454,"note":76,"tick":134921,"time":175.67838541666666,"type":"noteOff","velocity":0},{"channel":0,"nextOffset":10458,"note":72,"tick":134921,"time":175.67838541666666,"type":"noteOff","velocity":0},{"channel":0,"nextOffset":10462,"note":69,"tick":134921,"time":175.67838541666666,"type":"noteOff","velocity":0},{"channel":0,"nextOffset":10466,"note":65,"tick":134921,"time":175.67838541666666,"type":"noteOff","velocity":0},{"channel":1,"nextOffset":19596,"note":32,"tick":134941,"time":175.70442708333334,"type":"noteOff","velocity":0},{"channel":1,"nextOffset":19600,"note":33,"tick":134941,"time":175.70442708333334,"type":"noteOn","velocity":50},{"channel":2,"nextOffset":31161,"note":33,"tick":135029,"time":175.81901041666666,"type":"noteOff","velocity":0},{"channel":0,"nextOffset":10471,"note":72,"tick":135113,"time":175.92838541666666,"type":"noteOn","velocity":68},{"channel":2,"nextOffset":31165,"note":33,"tick":135125,"time":175.94401041666666,"type":"noteOn","velocity":57},{"channel":1,"nextOffset":19605,"note":33,"tick":135133,"time":175.95442708333334,"type":"noteOff","velocity":0},{"channel":2,"nextOffset":31169,"note":33,"tick":135221,"time":176.06901041666666,"type":"noteOff","velocity":0},{"channel":1,"nextOffset":19609,"note":33,"tick":135229,"time":176.07942708333334,"type":"noteOn","velocity":50},{"channel":0,"nextOffset":10476,"note":72,"tick":135305,"time":176.17838541666666,"type":"noteOff","velocity":0},{"channel":0,"nextOffset":10480,"note":69,"tick":135305,"time":176.17838541666666,"type":"noteOn","velocity":68},{"channel":0,"nextOffset":10484,"note":65,"tick":135305,"time":176.17838541666666,"type":"noteOn","velocity":68},{"channel":1,"nextOffset":19613,"note":33,"tick":135325,"time":176.20442708333334,"type":"noteOff","velocity":0},{"channel":2,"nextOffset":31174,"note":26,"tick":135413,"time":176.31901041666666,"type":"noteOn","velocity":57},{"channel":2,"nextOffset":31178,"note":38,"tick":135413,"time":176.31901041666666,"type":"noteOn","velocity":57},{"channel":0,"nextOffset":10489,"note":65,"tick":135497,"time":176.42838541666666,"type":"noteOff","velocity":0},{"channel":0,"nextOffset":10493,"note":69,"tick":135497,"time":176.42838541666666,"type":"noteOff","velocity":0},{"channel":0,"nextOffset":10497,"note":67,"tick":135497,"time":176.42838541666666,"type":"noteOn","velocity":68},{"channel":0,"nextOffset":10501,"note":64,"tick":135497,"time":176.42838541666666,"type":"noteOn","velocity":68},{"channel":0,"nextOffset":10505,"note":36,"tick":135497,"time":176.42838541666666,"type":"noteOn","velocity":68},{"channel":1,"nextOffset":19618,"note":26,"tick":135517,"time":176.45442708333334,"type":"noteOn","velocity":50},{"channel":1,"nextOffset":19622,"note":38,"tick":135517,"time":176.45442708333334,"type":"noteOn","velocity":50},{"channel":2,"nextOffset":31183,"note":38,"tick":135605,"time":176.56901041666666,"type":"noteOff","velocity":0},{"channel":2,"nextOffset":31187,"note":26,"tick":135605,"time":176.56901041666666,"type":"noteOff","velocity":0},{"channel":0,"nextOffset":10510,"note":64,"tick":135689,"time":176.67838541666666,"type":"noteOff","velocity":0},{"channel":0,"nextOffset":10514,"note":67,"tick":135689,"time":176.67838541666666,"type":"noteOff","velocity":0},{"channel":0,"nextOffset":10518,"note":65,"tick":135689,"time":176.67838541666666,"type":"noteOn","velocity":68},{"channel":0,"nextOffset":10522,"note":62,"tick":135689,"time":176.67838541666666,"type":"noteOn","velocity":68},{"channel":1,"nextOffset":19627,"note":38,"tick":135709,"time":176.70442708333334,"type":"noteOff","velocity":0},{"channel":1,"nextOffset":19631,"note":26,"tick":135709,"time":176.70442708333334,"type":"noteOff","velocity":0},{"channel":0,"nextOffset":10527,"note":36,"tick":135881,"time":176.92838541666666,"type":"noteOff","velocity":0},{"channel":0,"nextOffset":10531,"note":62,"tick":135881,"time":176.92838541666666,"type":"noteOff","velocity":0},{"channel":0,"nextOffset":10535,"note":65,"tick":135881,"time":176.92838541666666,"type":"noteOff","velocity":0},{"channel":0,"nextOffset":10539,"note":64,"tick":135881,"time":176.92838541666666,"type":"noteOn","velocity":68},{"channel":0,"nextOffset":10543,"note":60,"tick":135881,"time":176.92838541666666,"type":"noteOn","velocity":68},{"channel":0,"nextOffset":10547,"note":41,"tick":135881,"time":176.92838541666666,"type":"noteOn","velocity":68},{"channel":2,"nextOffset":31192,"note":26,"tick":135989,"time":177.06901041666666,"type":"noteOn","velocity":57},{"channel":0,"nextOffset":10552,"note":60,"tick":136073,"time":177.17838541666666,"type":"noteOff","velocity":0},{"channel":0,"nextOffset":10556,"note":64,"tick":136073,"time":177.17838541666666,"type":"noteOff","velocity":0},{"channel":0,"nextOffset":10560,"note":60,"tick":136073,"time":177.17838541666666,"type":"noteOn","velocity":68},{"channel":0,"nextOffset":10564,"note":57,"tick":136073,"time":177.17838541666666,"type":"noteOn","velocity":68},{"channel":1,"nextOffset":19636,"note":26,"tick":136093,"time":177.20442708333334,"type":"noteOn","velocity":50},{"channel":2,"nextOffset":31197,"note":26,"tick":136181,"time":177.31901041666666,"type":"noteOff","velocity":0},{"channel":2,"nextOffset":31201,"note":33,"tick":136181,"time":177.31901041666666,"type":"noteOn","velocity":57},{"channel":0,"nextOffset":10569,"note":41,"tick":136265,"time":177.42838541666666,"type":"noteOff","velocity":0},{"channel":0,"nextOffset":10573,"note":57,"tick":136265,"time":177.42838541666666,"type":"noteOff","velocity":0},{"channel":0,"nextOffset":10577,"note":60,"tick":136265,"time":177.42838541666666,"type":"noteOff","velocity":0},{"channel":0,"nextOffset":10581,"note":34,"tick":136265,"time":177.42838541666666,"type":"noteOn","velocity":68},{"channel":1,"nextOffset":19641,"note":26,"tick":136285,"time":177.45442708333334,"type":"noteOff","velocity":0},{"channel":1,"nextOffset":19645,"note":33,"tick":136285,"time":177.45442708333334,"type":"noteOn","velocity":50},{"channel":2,"nextOffset":31206,"note":33,"tick":136373,"time":177.56901041666666,"type":"noteOff","velocity":0},{"channel":0,"nextOffset":10586,"note":57,"tick":136457,"time":177.67838541666666,"type":"noteOn","velocity":68},{"channel":0,"nextOffset":10590,"note":53,"tick":136457,"time":177.67838541666666,"type":"noteOn","velocity":68},{"channel":1,"nextOffset":19650,"note":33,"tick":136477,"time":177.70442708333334,"type":"noteOff","velocity":0},{"channel":2,"nextOffset":31211,"note":26,"tick":136565,"time":177.81901041666666,"type":"noteOn","velocity":57},{"channel":0,"nextOffset":10595,"note":34,"tick":136649,"time":177.92838541666666,"type":"noteOff","velocity":0},{"channel":0,"nextOffset":10599,"note":53,"tick":136649,"time":177.92838541666666,"type":"noteOff","velocity":0},{"channel":0,"nextOffset":10603,"note":57,"tick":136649,"time":177.92838541666666,"type":"noteOff","velocity":0},{"channel":0,"nextOffset":10607,"note":58,"tick":136649,"time":177.92838541666666,"type":"noteOn","velocity":68},{"channel":0,"nextOffset":10611,"note":38,"tick":136649,"time":177.92838541666666,"type":"noteOn","velocity":68},{"channel":0,"nextOffset":10615,"note":50,"tick":136649,"time":177.92838541666666,"type":"noteOn","velocity":68},{"channel":1,"nextOffset":19655,"note":26,"tick":136669,"time":177.95442708333334,"type":"noteOn","velocity":50},{"channel":2,"nextOffset":31216,"note":26,"tick":136757,"time":178.06901041666666,"type":"noteOff","velocity":0},{"channel":2,"nextOffset":31220,"note":33,"tick":136757,"time":178.06901041666666,"type":"noteOn","velocity":57},{"channel":0,"nextOffset":10620,"note":58,"tick":136841,"time":178.17838541666666,"type":"noteOff","velocity":0},{"channel":0,"nextOffset":10624,"note":60,"tick":136841,"time":178.17838541666666,"type":"noteOn","velocity":68},{"channel":0,"nextOffset":10628,"note":57,"tick":136841,"time":178.17838541666666,"type":"noteOn","velocity":68},{"channel":1,"nextOffset":19660,"note":26,"tick":136861,"time":178.20442708333334,"type":"noteOff","velocity":0},{"channel":1,"nextOffset":19664,"note":33,"tick":136861,"time":178.20442708333334,"type":"noteOn","velocity":50},{"channel":2,"nextOffset":31225,"note":33,"tick":136949,"time":178.31901041666666,"type":"noteOff","velocity":0},{"channel":2,"nextOffset":31229,"note":32,"tick":136949,"time":178.31901041666666,"type":"noteOn","velocity":57},{"channel":0,"nextOffset":10633,"note":50,"tick":137033,"time":178.42838541666666,"type":"noteOff","velocity":0},{"channel":0,"nextOffset":10637,"note":38,"tick":137033,"time":178.42838541666666,"type":"noteOff","velocity":0},{"channel":0,"nextOffset":10641,"note":57,"tick":137033,"time":178.42838541666666,"type":"noteOff","velocity":0},{"channel":0,"nextOffset":10645,"note":60,"tick":137033,"time":178.42838541666666,"type":"noteOff","velocity":0},{"channel":0,"nextOffset":10649,"note":62,"tick":137033,"time":178.42838541666666,"type":"noteOn","velocity":68},{"channel":0,"nextOffset":10653,"note":58,"tick":137033,"time":178.42838541666666,"type":"noteOn","velocity":68},{"channel":0,"nextOffset":10657,"note":40,"tick":137033,"time":178.42838541666666,"type":"noteOn","velocity":68},{"channel":1,"nextOffset":19669,"note":33,"tick":137053,"time":178.45442708333334,"type":"noteOff","velocity":0},{"channel":1,"nextOffset":19673,"note":32,"tick":137053,"time":178.45442708333334,"type":"noteOn","velocity":50},{"channel":2,"nextOffset":31234,"note":32,"tick":137141,"time":178.56901041666666,"type":"noteOff","velocity":0},{"channel":2,"nextOffset":31238,"note":31,"tick":137141,"time":178.56901041666666,"type":"noteOn","velocity":57},{"channel":0,"nextOffset":10662,"note":58,"tick":137225,"time":178.67838541666666,"type":"noteOff","velocity":0},{"channel":0,"nextOffset":10666,"note":62,"tick":137225,"time":178.67838541666666,"type":"noteOff","velocity":0},{"channel":0,"nextOffset":10670,"note":64,"tick":137225,"time":178.67838541666666,"type":"noteOn","velocity":68},{"channel":0,"nextOffset":10674,"note":60,"tick":137225,"time":178.67838541666666,"type":"noteOn","velocity":68},{"channel":1,"nextOffset":19678,"note":32,"tick":137245,"time":178.70442708333334,"type":"noteOff","velocity":0},{"channel":1,"nextOffset":19682,"note":31,"tick":137245,"time":178.70442708333334,"type":"noteOn","velocity":50},{"channel":2,"nextOffset":31243,"note":31,"tick":137333,"time":178.81901041666666,"type":"noteOff","velocity":0},{"channel":0,"nextOffset":10679,"note":40,"tick":137417,"time":178.92838541666666,"type":"noteOff","velocity":0},{"channel":0,"nextOffset":10683,"note":60,"tick":137417,"time":178.92838541666666,"type":"noteOff","velocity":0},{"channel":0,"nextOffset":10687,"note":64,"tick":137417,"time":178.92838541666666,"type":"noteOff","velocity":0},{"channel":0,"nextOffset":10691,"note":65,"tick":137417,"time":178.92838541666666,"type":"noteOn","velocity":68},{"channel":0,"nextOffset":10695,"note":62,"tick":137417,"time":178.92838541666666,"type":"noteOn","velocity":68},{"channel":0,"nextOffset":10699,"note":43,"tick":137417,"time":178.92838541666666,"type":"noteOn","velocity":68},{"channel":1,"nextOffset":19687,"note":31,"tick":137437,"time":178.95442708333334,"type":"noteOff","velocity":0},{"channel":2,"nextOffset":31248,"note":31,"tick":137525,"time":179.06901041666666,"type":"noteOn","velocity":57},{"channel":0,"nextOffset":10704,"note":62,"tick":137609,"time":179.17838541666666,"type":"noteOff","velocity":0},{"channel":0,"nextOffset":10708,"note":65,"tick":137609,"time":179.17838541666666,"type":"noteOff","velocity":0},{"channel":0,"nextOffset":10712,"note":67,"tick":137609,"time":179.17838541666666,"type":"noteOn","velocity":68},{"channel":0,"nextOffset":10716,"note":64,"tick":137609,"time":179.17838541666666,"type":"noteOn","velocity":68},{"channel":1,"nextOffset":19692,"note":31,"tick":137629,"time":179.20442708333334,"type":"noteOn","velocity":50},{"channel":2,"nextOffset":31253,"note":31,"tick":137717,"time":179.31901041666666,"type":"noteOff","velocity":0},{"channel":2,"nextOffset":31257,"note":32,"tick":137717,"time":179.31901041666666,"type":"noteOn","velocity":57},{"channel":0,"nextOffset":10721,"note":43,"tick":137801,"time":179.42838541666666,"type":"noteOff","velocity":0},{"channel":0,"nextOffset":10725,"note":64,"tick":137801,"time":179.42838541666666,"type":"noteOff","velocity":0},{"channel":0,"nextOffset":10729,"note":67,"tick":137801,"time":179.42838541666666,"type":"noteOff","velocity":0},{"channel":0,"nextOffset":10733,"note":64,"tick":137801,"time":179.42838541666666,"type":"noteOn","velocity":68},{"channel":0,"nextOffset":10737,"note":61,"tick":137801,"time":179.42838541666666,"type":"noteOn","velocity":68},{"channel":0,"nextOffset":10741,"note":45,"tick":137801,"time":179.42838541666666,"type":"noteOn","velocity":68},{"channel":1,"nextOffset":19697,"note":31,"tick":137821,"time":179.45442708333334,"type":"noteOff","velocity":0},{"channel":1,"nextOffset":19701,"note":32,"tick":137821,"time":179.45442708333334,"type":"noteOn","velocity":50},{"channel":2,"nextOffset":31262,"note":32,"tick":137909,"time":179.56901041666666,"type":"noteOff","velocity":0},{"channel":2,"nextOffset":31266,"note":33,"tick":137909,"time":179.56901041666666,"type":"noteOn","velocity":57},{"channel":0,"nextOffset":10746,"note":45,"tick":137993,"time":179.67838541666666,"type":"noteOff","velocity":0},{"channel":0,"nextOffset":10750,"note":61,"tick":137993,"time":179.67838541666666,"type":"noteOff","velocity":0},{"channel":0,"nextOffset":10754,"note":64,"tick":137993,"time":179.67838541666666,"type":"noteOff","velocity":0},{"channel":0,"nextOffset":10758,"note":45,"tick":137993,"time":179.67838541666666,"type":"noteOn","velocity":68},{"channel":1,"nextOffset":19706,"note":32,"tick":138013,"time":179.70442708333334,"type":"noteOff","velocity":0},{"channel":1,"nextOffset":19710,"note":33,"tick":138013,"time":179.70442708333334,"type":"noteOn","velocity":50},{"channel":0,"nextOffset":10762,"note":45,"tick":138041,"time":179.74088541666666,"type":"noteOff","velocity":0},{"channel":0,"nextOffset":10766,"note":45,"tick":138089,"time":179.80338541666666,"type":"noteOn","velocity":68},{"channel":2,"nextOffset":31271,"note":33,"tick":138101,"time":179.81901041666666,"type":"noteOff","velocity":0},{"channel":0,"nextOffset":10770,"note":45,"tick":138137,"time":179.86588541666666,"type":"noteOff","velocity":0},{"channel":0,"nextOffset":10774,"note":61,"tick":138185,"time":179.92838541666666,"type":"noteOn","velocity":68},{"channel":0,"nextOffset":10778,"note":64,"tick":138185,"time":179.92838541666666,"type":"noteOn","velocity":68},{"channel":0,"nextOffset":10782,"note":69,"tick":138185,"time":179.92838541666666,"type":"noteOn","velocity":68},{"channel":0,"nextOffset":10786,"note":45,"tick":138185,"time":179.92838541666666,"type":"noteOn","velocity":68},{"channel":2,"nextOffset":31275,"note":33,"tick":138197,"time":179.94401041666666,"type":"noteOn","velocity":57},{"channel":1,"nextOffset":19715,"note":33,"tick":138205,"time":179.95442708333334,"type":"noteOff","velocity":0},{"channel":2,"nextOffset":31279,"note":33,"tick":138293,"time":180.06901041666666,"type":"noteOff","velocity":0},{"channel":1,"nextOffset":19719,"note":33,"tick":138301,"time":180.07942708333334,"type":"noteOn","velocity":50},{"channel":0,"nextOffset":10791,"note":45,"tick":138377,"time":180.17838541666666,"type":"noteOff","velocity":0},{"channel":0,"nextOffset":10795,"note":69,"tick":138377,"time":180.17838541666666,"type":"noteOff","velocity":0},{"channel":0,"nextOffset":10799,"note":64,"tick":138377,"time":180.17838541666666,"type":"noteOff","velocity":0},{"channel":0,"nextOffset":10803,"note":61,"tick":138377,"time":180.17838541666666,"type":"noteOff","velocity":0},{"channel":0,"nextOffset":10807,"note":33,"tick":138377,"time":180.17838541666666,"type":"noteOn","velocity":68},{"channel":1,"nextOffset":19723,"note":33,"tick":138397,"time":180.20442708333334,"type":"noteOff","velocity":0},{"channel":2,"nextOffset":31284,"note":26,"tick":138485,"time":180.31901041666666,"type":"noteOn","velocity":57},{"channel":0,"nextOffset":10812,"note":33,"tick":138569,"time":180.42838541666666,"type":"noteOff","velocity":0},{"channel":0,"nextOffset":10816,"note":73,"tick":138569,"time":180.42838541666666,"type":"noteOn","velocity":68},{"channel":0,"nextOffset":10820,"note":76,"tick":138569,"time":180.42838541666666,"type":"noteOn","velocity":68},{"channel":0,"nextOffset":10824,"note":81,"tick":138569,"time":180.42838541666666,"type":"noteOn","velocity":68},{"channel":0,"nextOffset":10828,"note":45,"tick":138569,"time":180.42838541666666,"type":"noteOn","velocity":68},{"channel":1,"nextOffset":19728,"note":26,"tick":138589,"time":180.45442708333334,"type":"noteOn","velocity":50},{"channel":2,"nextOffset":31289,"note":26,"tick":138677,"time":180.56901041666666,"type":"noteOff","velocity":0},{"channel":0,"nextOffset":10833,"note":45,"tick":138761,"time":180.67838541666666,"type":"noteOff","velocity":0},{"channel":0,"nextOffset":10837,"note":81,"tick":138761,"time":180.67838541666666,"type":"noteOff","velocity":0},{"channel":0,"nextOffset":10841,"note":76,"tick":138761,"time":180.67838541666666,"type":"noteOff","velocity":0},{"channel":0,"nextOffset":10845,"note":73,"tick":138761,"time":180.67838541666666,"type":"noteOff","velocity":0},{"channel":0,"nextOffset":10849,"note":33,"tick":138761,"time":180.67838541666666,"type":"noteOn","velocity":68},{"channel":0,"nextOffset":10853,"note":45,"tick":138761,"time":180.67838541666666,"type":"noteOn","velocity":68},{"channel":1,"nextOffset":19733,"note":26,"tick":138781,"time":180.70442708333334,"type":"noteOff","velocity":0},{"channel":2,"nextOffset":31294,"note":38,"tick":138869,"time":180.81901041666666,"type":"noteOn","velocity":57},{"channel":0,"nextOffset":10858,"note":45,"tick":138953,"time":180.92838541666666,"type":"noteOff","velocity":0},{"channel":0,"nextOffset":10862,"note":33,"tick":138953,"time":180.92838541666666,"type":"noteOff","velocity":0},{"channel":0,"nextOffset":10866,"note":61,"tick":138953,"time":180.92838541666666,"type":"noteOn","velocity":68},{"channel":0,"nextOffset":10870,"note":67,"tick":138953,"time":180.92838541666666,"type":"noteOn","velocity":68},{"channel":0,"nextOffset":10874,"note":72,"tick":138953,"time":180.92838541666666,"type":"noteOn","velocity":68},{"channel":0,"nextOffset":10878,"note":45,"tick":138953,"time":180.92838541666666,"type":"noteOn","velocity":68},{"channel":0,"nextOffset":10882,"note":33,"tick":138953,"time":180.92838541666666,"type":"noteOn","velocity":68},{"channel":1,"nextOffset":19738,"note":38,"tick":138973,"time":180.95442708333334,"type":"noteOn","velocity":50},{"channel":2,"nextOffset":31299,"note":38,"tick":139061,"time":181.06901041666666,"type":"noteOff","velocity":0},{"channel":2,"nextOffset":31303,"note":26,"tick":139061,"time":181.06901041666666,"type":"noteOn","velocity":57},{"channel":0,"nextOffset":10887,"note":33,"tick":139145,"time":181.17838541666666,"type":"noteOff","velocity":0},{"channel":0,"nextOffset":10891,"note":45,"tick":139145,"time":181.17838541666666,"type":"noteOff","velocity":0},{"channel":0,"nextOffset":10895,"note":72,"tick":139145,"time":181.17838541666666,"type":"noteOff","velocity":0},{"channel":0,"nextOffset":10899,"note":67,"tick":139145,"time":181.17838541666666,"type":"noteOff","velocity":0},{"channel":0,"nextOffset":10903,"note":61,"tick":139145,"time":181.17838541666666,"type":"noteOff","velocity":0},{"channel":0,"nextOffset":10907,"note":71,"tick":139145,"time":181.17838541666666,"type":"noteOn","velocity":68},{"channel":0,"nextOffset":10911,"note":33,"tick":139145,"time":181.17838541666666,"type":"noteOn","velocity":68},{"channel":0,"nextOffset":10915,"note":45,"tick":139145,"time":181.17838541666666,"type":"noteOn","velocity":68},{"channel":1,"nextOffset":19743,"note":38,"tick":139165,"time":181.20442708333334,"type":"noteOff","velocity":0},{"channel":1,"nextOffset":19747,"note":26,"tick":139165,"time":181.20442708333334,"type":"noteOn","velocity":50},{"channel":0,"nextOffset":10919,"note":71,"tick":139241,"time":181.30338541666666,"type":"noteOff","velocity":0},{"channel":0,"nextOffset":10923,"note":70,"tick":139241,"time":181.30338541666666,"type":"noteOn","velocity":68},{"channel":2,"nextOffset":31308,"note":26,"tick":139253,"time":181.31901041666666,"type":"noteOff","velocity":0},{"channel":2,"nextOffset":31312,"note":33,"tick":139253,"time":181.31901041666666,"type":"noteOn","velocity":57},{"channel":0,"nextOffset":10927,"note":45,"tick":139337,"time":181.42838541666666,"type":"noteOff","velocity":0},{"channel":0,"nextOffset":10931,"note":33,"tick":139337,"time":181.42838541666666,"type":"noteOff","velocity":0},{"channel":0,"nextOffset":10935,"note":70,"tick":139337,"time":181.42838541666666,"type":"noteOff","velocity":0},{"channel":0,"nextOffset":10939,"note":58,"tick":139337,"time":181.42838541666666,"type":"noteOn","velocity":68},{"channel":0,"nextOffset":10943,"note":62,"tick":139337,"time":181.42838541666666,"type":"noteOn","velocity":68},{"channel":0,"nextOffset":10947,"note":65,"tick":139337,"time":181.42838541666666,"type":"noteOn","velocity":68},{"channel":0,"nextOffset":10951,"note":69,"tick":139337,"time":181.42838541666666,"type":"noteOn","velocity":68},{"channel":0,"nextOffset":10955,"note":31,"tick":139337,"time":181.42838541666666,"type":"noteOn","velocity":68},{"channel":1,"nextOffset":19752,"note":26,"tick":139357,"time":181.45442708333334,"type":"noteOff","velocity":0},{"channel":1,"nextOffset":19756,"note":33,"tick":139357,"time":181.45442708333334,"type":"noteOn","velocity":50},{"channel":2,"nextOffset":31317,"note":33,"tick":139445,"time":181.56901041666666,"type":"noteOff","velocity":0},{"channel":0,"nextOffset":10960,"note":31,"tick":139529,"time":181.67838541666666,"type":"noteOff","velocity":0},{"channel":1,"nextOffset":19761,"note":33,"tick":139549,"time":181.70442708333334,"type":"noteOff","velocity":0},{"channel":2,"nextOffset":31322,"note":26,"tick":139637,"time":181.81901041666666,"type":"noteOn","velocity":57},{"channel":0,"nextOffset":10965,"note":69,"tick":139721,"time":181.92838541666666,"type":"noteOff","velocity":0},{"channel":0,"nextOffset":10969,"note":65,"tick":139721,"time":181.92838541666666,"type":"noteOff","velocity":0},{"channel":0,"nextOffset":10973,"note":62,"tick":139721,"time":181.92838541666666,"type":"noteOff","velocity":0},{"channel":0,"nextOffset":10977,"note":58,"tick":139721,"time":181.92838541666666,"type":"noteOff","velocity":0},{"channel":0,"nextOffset":10981,"note":31,"tick":139721,"time":181.92838541666666,"type":"noteOn","velocity":68},{"channel":1,"nextOffset":19766,"note":26,"tick":139741,"time":181.95442708333334,"type":"noteOn","velocity":50},{"channel":2,"nextOffset":31327,"note":26,"tick":139829,"time":182.06901041666666,"type":"noteOff","velocity":0},{"channel":2,"nextOffset":31331,"note":33,"tick":139829,"time":182.06901041666666,"type":"noteOn","velocity":57},{"channel":0,"nextOffset":10986,"note":31,"tick":139913,"time":182.17838541666666,"type":"noteOff","velocity":0},{"channel":1,"nextOffset":19771,"note":26,"tick":139933,"time":182.20442708333334,"type":"noteOff","velocity":0},{"channel":1,"nextOffset":19775,"note":33,"tick":139933,"time":182.20442708333334,"type":"noteOn","velocity":50},{"channel":2,"nextOffset":31336,"note":33,"tick":140021,"time":182.31901041666666,"type":"noteOff","velocity":0},{"channel":2,"nextOffset":31340,"note":32,"tick":140021,"time":182.31901041666666,"type":"noteOn","velocity":57},{"channel":0,"nextOffset":10991,"note":72,"tick":140105,"time":182.42838541666666,"type":"noteOn","velocity":68},{"channel":0,"nextOffset":10995,"note":67,"tick":140105,"time":182.42838541666666,"type":"noteOn","velocity":68},{"channel":0,"nextOffset":10999,"note":64,"tick":140105,"time":182.42838541666666,"type":"noteOn","velocity":68},{"channel":0,"nextOffset":11003,"note":60,"tick":140105,"time":182.42838541666666,"type":"noteOn","velocity":68},{"channel":0,"nextOffset":11007,"note":33,"tick":140105,"time":182.42838541666666,"type":"noteOn","velocity":68},{"channel":1,"nextOffset":19780,"note":33,"tick":140125,"time":182.45442708333334,"type":"noteOff","velocity":0},{"channel":1,"nextOffset":19784,"note":32,"tick":140125,"time":182.45442708333334,"type":"noteOn","velocity":50},{"channel":2,"nextOffset":31345,"note":32,"tick":140213,"time":182.56901041666666,"type":"noteOff","velocity":0},{"channel":2,"nextOffset":31349,"note":31,"tick":140213,"time":182.56901041666666,"type":"noteOn","velocity":57},{"channel":0,"nextOffset":11012,"note":33,"tick":140297,"time":182.67838541666666,"type":"noteOff","velocity":0},{"channel":0,"nextOffset":11016,"note":60,"tick":140297,"time":182.67838541666666,"type":"noteOff","velocity":0},{"channel":0,"nextOffset":11020,"note":64,"tick":140297,"time":182.67838541666666,"type":"noteOff","velocity":0},{"channel":0,"nextOffset":11024,"note":67,"tick":140297,"time":182.67838541666666,"type":"noteOff","velocity":0},{"channel":0,"nextOffset":11028,"note":72,"tick":140297,"time":182.67838541666666,"type":"noteOff","velocity":0},{"channel":1,"nextOffset":19789,"note":32,"tick":140317,"time":182.70442708333334,"type":"noteOff","velocity":0},{"channel":1,"nextOffset":19793,"note":31,"tick":140317,"time":182.70442708333334,"type":"noteOn","velocity":50},{"channel":0,"nextOffset":11032,"note":33,"tick":140393,"time":182.80338541666666,"type":"noteOn","velocity":68},{"channel":2,"nextOffset":31354,"note":31,"tick":140405,"time":182.81901041666666,"type":"noteOff","velocity":0},{"channel":0,"nextOffset":11036,"note":61,"tick":140489,"time":182.92838541666666,"type":"noteOn","velocity":68},{"channel":0,"nextOffset":11040,"note":65,"tick":140489,"time":182.92838541666666,"type":"noteOn","velocity":68},{"channel":0,"nextOffset":11044,"note":67,"tick":140489,"time":182.92838541666666,"type":"noteOn","velocity":68},{"channel":0,"nextOffset":11048,"note":70,"tick":140489,"time":182.92838541666666,"type":"noteOn","velocity":68},{"channel":1,"nextOffset":19798,"note":31,"tick":140509,"time":182.95442708333334,"type":"noteOff","velocity":0},{"channel":0,"nextOffset":11052,"note":33,"tick":140585,"time":183.05338541666666,"type":"noteOff","velocity":0},{"channel":2,"nextOffset":31359,"note":31,"tick":140597,"time":183.06901041666666,"type":"noteOn","velocity":57},{"channel":0,"nextOffset":11056,"note":70,"tick":140681,"time":183.17838541666666,"type":"noteOff","velocity":0},{"channel":0,"nextOffset":11060,"note":67,"tick":140681,"time":183.17838541666666,"type":"noteOff","velocity":0},{"channel":0,"nextOffset":11064,"note":65,"tick":140681,"time":183.17838541666666,"type":"noteOff","velocity":0},{"channel":0,"nextOffset":11068,"note":61,"tick":140681,"time":183.17838541666666,"type":"noteOff","velocity":0},{"channel":0,"nextOffset":11072,"note":33,"tick":140681,"time":183.17838541666666,"type":"noteOn","velocity":68},{"channel":1,"nextOffset":19803,"note":31,"tick":140701,"time":183.20442708333334,"type":"noteOn","velocity":50},{"channel":2,"nextOffset":31364,"note":31,"tick":140789,"time":183.31901041666666,"type":"noteOff","velocity":0},{"channel":2,"nextOffset":31368,"note":32,"tick":140789,"time":183.31901041666666,"type":"noteOn","velocity":57},{"channel":0,"nextOffset":11077,"note":33,"tick":140873,"time":183.42838541666666,"type":"noteOff","velocity":0},{"channel":0,"nextOffset":11081,"note":60,"tick":140873,"time":183.42838541666666,"type":"noteOn","velocity":68},{"channel":0,"nextOffset":11085,"note":64,"tick":140873,"time":183.42838541666666,"type":"noteOn","velocity":68},{"channel":0,"nextOffset":11089,"note":65,"tick":140873,"time":183.42838541666666,"type":"noteOn","velocity":68},{"channel":0,"nextOffset":11093,"note":69,"tick":140873,"time":183.42838541666666,"type":"noteOn","velocity":68},{"channel":0,"nextOffset":11097,"note":26,"tick":140873,"time":183.42838541666666,"type":"noteOn","velocity":68},{"channel":1,"nextOffset":19808,"note":31,"tick":140893,"time":183.45442708333334,"type":"noteOff","velocity":0},{"channel":1,"nextOffset":19812,"note":32,"tick":140893,"time":183.45442708333334,"type":"noteOn","velocity":50},{"channel":2,"nextOffset":31373,"note":32,"tick":140981,"time":183.56901041666666,"type":"noteOff","velocity":0},{"channel":2,"nextOffset":31377,"note":33,"tick":140981,"time":183.56901041666666,"type":"noteOn","velocity":57},{"channel":0,"nextOffset":11102,"note":26,"tick":141065,"time":183.67838541666666,"type":"noteOff","velocity":0},{"channel":0,"nextOffset":11106,"note":69,"tick":141065,"time":183.67838541666666,"type":"noteOff","velocity":0},{"channel":0,"nextOffset":11110,"note":65,"tick":141065,"time":183.67838541666666,"type":"noteOff","velocity":0},{"channel":0,"nextOffset":11114,"note":64,"tick":141065,"time":183.67838541666666,"type":"noteOff","velocity":0},{"channel":0,"nextOffset":11118,"note":60,"tick":141065,"time":183.67838541666666,"type":"noteOff","velocity":0},{"channel":1,"nextOffset":19817,"note":32,"tick":141085,"time":183.70442708333334,"type":"noteOff","velocity":0},{"channel":1,"nextOffset":19821,"note":33,"tick":141085,"time":183.70442708333334,"type":"noteOn","velocity":50},{"channel":2,"nextOffset":31382,"note":33,"tick":141173,"time":183.81901041666666,"type":"noteOff","velocity":0},{"channel":0,"nextOffset":11123,"note":26,"tick":141257,"time":183.92838541666666,"type":"noteOn","velocity":68},{"channel":2,"nextOffset":31386,"note":33,"tick":141269,"time":183.94401041666666,"type":"noteOn","velocity":57},{"channel":1,"nextOffset":19826,"note":33,"tick":141277,"time":183.95442708333334,"type":"noteOff","velocity":0},{"channel":2,"nextOffset":31390,"note":33,"tick":141365,"time":184.06901041666666,"type":"noteOff","velocity":0},{"channel":1,"nextOffset":19830,"note":33,"tick":141373,"time":184.07942708333334,"type":"noteOn","velocity":50},{"channel":0,"nextOffset":11128,"note":26,"tick":141449,"time":184.17838541666666,"type":"noteOff","velocity":0},{"channel":1,"nextOffset":19834,"note":33,"tick":141469,"time":184.20442708333334,"type":"noteOff","velocity":0},{"channel":2,"nextOffset":31395,"note":26,"tick":141557,"time":184.31901041666666,"type":"noteOn","velocity":57},{"channel":0,"nextOffset":11133,"note":64,"tick":141641,"time":184.42838541666666,"type":"noteOn","velocity":68},{"channel":0,"nextOffset":11137,"note":60,"tick":141641,"time":184.42838541666666,"type":"noteOn","velocity":68},{"channel":0,"nextOffset":11141,"note":69,"tick":141641,"time":184.42838541666666,"type":"noteOn","velocity":68},{"channel":0,"nextOffset":11145,"note":65,"tick":141641,"time":184.42838541666666,"type":"noteOn","velocity":68},{"channel":0,"nextOffset":11149,"note":38,"tick":141641,"time":184.42838541666666,"type":"noteOn","velocity":68},{"channel":1,"nextOffset":19839,"note":26,"tick":141661,"time":184.45442708333334,"type":"noteOn","velocity":50},{"channel":2,"nextOffset":31400,"note":26,"tick":141749,"time":184.56901041666666,"type":"noteOff","velocity":0},{"channel":0,"nextOffset":11154,"note":38,"tick":141833,"time":184.67838541666666,"type":"noteOff","velocity":0},{"channel":0,"nextOffset":11158,"note":65,"tick":141833,"time":184.67838541666666,"type":"noteOff","velocity":0},{"channel":0,"nextOffset":11162,"note":69,"tick":141833,"time":184.67838541666666,"type":"noteOff","velocity":0},{"channel":0,"nextOffset":11166,"note":60,"tick":141833,"time":184.67838541666666,"type":"noteOff","velocity":0},{"channel":0,"nextOffset":11170,"note":64,"tick":141833,"time":184.67838541666666,"type":"noteOff","velocity":0},{"channel":1,"nextOffset":19844,"note":26,"tick":141853,"time":184.70442708333334,"type":"noteOff","velocity":0},{"channel":0,"nextOffset":11174,"note":33,"tick":141929,"time":184.80338541666666,"type":"noteOn","velocity":68},{"channel":2,"nextOffset":31405,"note":38,"tick":141941,"time":184.81901041666666,"type":"noteOn","velocity":57},{"channel":0,"nextOffset":11178,"note":59,"tick":142025,"time":184.92838541666666,"type":"noteOn","velocity":68},{"channel":0,"nextOffset":11182,"note":63,"tick":142025,"time":184.92838541666666,"type":"noteOn","velocity":68},{"channel":0,"nextOffset":11186,"note":68,"tick":142025,"time":184.92838541666666,"type":"noteOn","velocity":68},{"channel":1,"nextOffset":19849,"note":38,"tick":142045,"time":184.95442708333334,"type":"noteOn","velocity":50},{"channel":0,"nextOffset":11190,"note":33,"tick":142121,"time":185.05338541666666,"type":"noteOff","velocity":0},{"channel":2,"nextOffset":31410,"note":38,"tick":142133,"time":185.06901041666666,"type":"noteOff","velocity":0},{"channel":2,"nextOffset":31414,"note":26,"tick":142133,"time":185.06901041666666,"type":"noteOn","velocity":57},{"channel":0,"nextOffset":11194,"note":68,"tick":142217,"time":185.17838541666666,"type":"noteOff","velocity":0},{"channel":0,"nextOffset":11198,"note":63,"tick":142217,"time":185.17838541666666,"type":"noteOff","velocity":0},{"channel":0,"nextOffset":11202,"note":59,"tick":142217,"time":185.17838541666666,"type":"noteOff","velocity":0},{"channel":0,"nextOffset":11206,"note":32,"tick":142217,"time":185.17838541666666,"type":"noteOn","velocity":68},{"channel":1,"nextOffset":19854,"note":38,"tick":142237,"time":185.20442708333334,"type":"noteOff","velocity":0},{"channel":1,"nextOffset":19858,"note":26,"tick":142237,"time":185.20442708333334,"type":"noteOn","velocity":50},{"channel":2,"nextOffset":31419,"note":26,"tick":142325,"time":185.31901041666666,"type":"noteOff","velocity":0},{"channel":2,"nextOffset":31423,"note":38,"tick":142325,"time":185.31901041666666,"type":"noteOn","velocity":57},{"channel":0,"nextOffset":11211,"note":32,"tick":142409,"time":185.42838541666666,"type":"noteOff","velocity":0},{"channel":0,"nextOffset":11215,"note":58,"tick":142409,"time":185.42838541666666,"type":"noteOn","velocity":68},{"channel":0,"nextOffset":11219,"note":62,"tick":142409,"time":185.42838541666666,"type":"noteOn","velocity":68},{"channel":0,"nextOffset":11223,"note":65,"tick":142409,"time":185.42838541666666,"type":"noteOn","velocity":68},{"channel":0,"nextOffset":11227,"note":69,"tick":142409,"time":185.42838541666666,"type":"noteOn","velocity":68},{"channel":0,"nextOffset":11231,"note":31,"tick":142409,"time":185.42838541666666,"type":"noteOn","velocity":68},{"channel":1,"nextOffset":19863,"note":26,"tick":142429,"time":185.45442708333334,"type":"noteOff","velocity":0},{"channel":1,"nextOffset":19867,"note":38,"tick":142429,"time":185.45442708333334,"type":"noteOn","velocity":50},{"channel":2,"nextOffset":31428,"note":38,"tick":142517,"time":185.56901041666666,"type":"noteOff","velocity":0},{"channel":0,"nextOffset":11236,"note":31,"tick":142601,"time":185.67838541666666,"type":"noteOff","velocity":0},{"channel":1,"nextOffset":19872,"note":38,"tick":142621,"time":185.70442708333334,"type":"noteOff","velocity":0},{"channel":2,"nextOffset":31433,"note":33,"tick":142709,"time":185.81901041666666,"type":"noteOn","velocity":57},{"channel":0,"nextOffset":11241,"note":69,"tick":142793,"time":185.92838541666666,"type":"noteOff","velocity":0},{"channel":0,"nextOffset":11245,"note":65,"tick":142793,"time":185.92838541666666,"type":"noteOff","velocity":0},{"channel":0,"nextOffset":11249,"note":62,"tick":142793,"time":185.92838541666666,"type":"noteOff","velocity":0},{"channel":0,"nextOffset":11253,"note":58,"tick":142793,"time":185.92838541666666,"type":"noteOff","velocity":0},{"channel":0,"nextOffset":11257,"note":31,"tick":142793,"time":185.92838541666666,"type":"noteOn","velocity":68},{"channel":1,"nextOffset":19877,"note":33,"tick":142813,"time":185.95442708333334,"type":"noteOn","velocity":50},{"channel":2,"nextOffset":31438,"note":33,"tick":142901,"time":186.06901041666666,"type":"noteOff","velocity":0},{"channel":2,"nextOffset":31442,"note":26,"tick":142901,"time":186.06901041666666,"type":"noteOn","velocity":57},{"channel":2,"nextOffset":31446,"note":38,"tick":142901,"time":186.06901041666666,"type":"noteOn","velocity":57},{"channel":0,"nextOffset":11262,"note":31,"tick":142985,"time":186.17838541666666,"type":"noteOff","velocity":0},{"channel":1,"nextOffset":19882,"note":33,"tick":143005,"time":186.20442708333334,"type":"noteOff","velocity":0},{"channel":1,"nextOffset":19886,"note":26,"tick":143005,"time":186.20442708333334,"type":"noteOn","velocity":50},{"channel":1,"nextOffset":19890,"note":38,"tick":143005,"time":186.20442708333334,"type":"noteOn","velocity":50},{"channel":2,"nextOffset":31451,"note":38,"tick":143093,"time":186.31901041666666,"type":"noteOff","velocity":0},{"channel":2,"nextOffset":31455,"note":26,"tick":143093,"time":186.31901041666666,"type":"noteOff","velocity":0},{"channel":0,"nextOffset":11267,"note":72,"tick":143177,"time":186.42838541666666,"type":"noteOn","velocity":68},{"channel":0,"nextOffset":11271,"note":67,"tick":143177,"time":186.42838541666666,"type":"noteOn","velocity":68},{"channel":0,"nextOffset":11275,"note":64,"tick":143177,"time":186.42838541666666,"type":"noteOn","velocity":68},{"channel":0,"nextOffset":11279,"note":60,"tick":143177,"time":186.42838541666666,"type":"noteOn","velocity":68},{"channel":0,"nextOffset":11283,"note":33,"tick":143177,"time":186.42838541666666,"type":"noteOn","velocity":68},{"channel":1,"nextOffset":19895,"note":38,"tick":143197,"time":186.45442708333334,"type":"noteOff","velocity":0},{"channel":1,"nextOffset":19899,"note":26,"tick":143197,"time":186.45442708333334,"type":"noteOff","velocity":0},{"channel":0,"nextOffset":11288,"note":33,"tick":143369,"time":186.67838541666666,"type":"noteOff","velocity":0},{"channel":0,"nextOffset":11292,"note":60,"tick":143369,"time":186.67838541666666,"type":"noteOff","velocity":0},{"channel":0,"nextOffset":11296,"note":64,"tick":143369,"time":186.67838541666666,"type":"noteOff","velocity":0},{"channel":0,"nextOffset":11300,"note":67,"tick":143369,"time":186.67838541666666,"type":"noteOff","velocity":0},{"channel":0,"nextOffset":11304,"note":72,"tick":143369,"time":186.67838541666666,"type":"noteOff","velocity":0},{"channel":0,"nextOffset":11308,"note":33,"tick":143465,"time":186.80338541666666,"type":"noteOn","velocity":68},{"channel":0,"nextOffset":11312,"note":61,"tick":143561,"time":186.92838541666666,"type":"noteOn","velocity":68},{"channel":0,"nextOffset":11316,"note":65,"tick":143561,"time":186.92838541666666,"type":"noteOn","velocity":68},{"channel":0,"nextOffset":11320,"note":67,"tick":143561,"time":186.92838541666666,"type":"noteOn","velocity":68},{"channel":0,"nextOffset":11324,"note":70,"tick":143561,"time":186.92838541666666,"type":"noteOn","velocity":68},{"channel":0,"nextOffset":11328,"note":33,"tick":143657,"time":187.05338541666666,"type":"noteOff","velocity":0},{"channel":0,"nextOffset":11332,"note":70,"tick":143753,"time":187.17838541666666,"type":"noteOff","velocity":0},{"channel":0,"nextOffset":11336,"note":67,"tick":143753,"time":187.17838541666666,"type":"noteOff","velocity":0},{"channel":0,"nextOffset":11340,"note":65,"tick":143753,"time":187.17838541666666,"type":"noteOff","velocity":0},{"channel":0,"nextOffset":11344,"note":61,"tick":143753,"time":187.17838541666666,"type":"noteOff","velocity":0},{"channel":0,"nextOffset":11348,"note":33,"tick":143753,"time":187.17838541666666,"type":"noteOn","velocity":68},{"channel":0,"nextOffset":11353,"note":33,"tick":143945,"time":187.42838541666666,"type":"noteOff","velocity":0},{"channel":0,"nextOffset":11357,"note":60,"tick":143945,"time":187.42838541666666,"type":"noteOn","velocity":68},{"channel":0,"nextOffset":11361,"note":64,"tick":143945,"time":187.42838541666666,"type":"noteOn","velocity":68},{"channel":0,"nextOffset":11365,"note":65,"tick":143945,"time":187.42838541666666,"type":"noteOn","velocity":68},{"channel":0,"nextOffset":11369,"note":69,"tick":143945,"time":187.42838541666666,"type":"noteOn","velocity":68},{"channel":0,"nextOffset":11373,"note":26,"tick":143945,"time":187.42838541666666,"type":"noteOn","velocity":68},{"channel":0,"nextOffset":11378,"note":26,"tick":144137,"time":187.67838541666666,"type":"noteOff","velocity":0},{"channel":0,"nextOffset":11382,"note":69,"tick":144137,"time":187.67838541666666,"type":"noteOff","velocity":0},{"channel":0,"nextOffset":11386,"note":65,"tick":144137,"time":187.67838541666666,"type":"noteOff","velocity":0},{"channel":0,"nextOffset":11390,"note":64,"tick":144137,"time":187.67838541666666,"type":"noteOff","velocity":0},{"channel":0,"nextOffset":11394,"note":60,"tick":144137,"time":187.67838541666666,"type":"noteOff","velocity":0},{"channel":0,"nextOffset":11399,"note":26,"tick":144329,"time":187.92838541666666,"type":"noteOn","velocity":68},{"channel":0,"nextOffset":11404,"note":26,"tick":144521,"time":188.17838541666666,"type":"noteOff","velocity":0},{"channel":0,"nextOffset":11409,"note":64,"tick":144713,"time":188.42838541666666,"type":"noteOn","velocity":68},{"channel":0,"nextOffset":11413,"note":60,"tick":144713,"time":188.42838541666666,"type":"noteOn","velocity":68},{"channel":0,"nextOffset":11417,"note":69,"tick":144713,"time":188.42838541666666,"type":"noteOn","velocity":68},{"channel":0,"nextOffset":11421,"note":65,"tick":144713,"time":188.42838541666666,"type":"noteOn","velocity":68},{"channel":0,"nextOffset":11425,"note":38,"tick":144713,"time":188.42838541666666,"type":"noteOn","velocity":68},{"channel":0,"nextOffset":11430,"note":38,"tick":144905,"time":188.67838541666666,"type":"noteOff","velocity":0},{"channel":0,"nextOffset":11434,"note":65,"tick":144905,"time":188.67838541666666,"type":"noteOff","velocity":0},{"channel":0,"nextOffset":11438,"note":69,"tick":144905,"time":188.67838541666666,"type":"noteOff","velocity":0},{"channel":0,"nextOffset":11442,"note":60,"tick":144905,"time":188.67838541666666,"type":"noteOff","velocity":0},{"channel":0,"nextOffset":11446,"note":64,"tick":144905,"time":188.67838541666666,"type":"noteOff","velocity":0},{"channel":0,"nextOffset":11450,"note":33,"tick":145001,"time":188.80338541666666,"type":"noteOn","velocity":68},{"channel":0,"nextOffset":11454,"note":72,"tick":145097,"time":188.92838541666666,"type":"noteOn","velocity":68},{"channel":0,"nextOffset":11458,"note":69,"tick":145097,"time":188.92838541666666,"type":"noteOn","velocity":68},{"channel":0,"nextOffset":11462,"note":77,"tick":145097,"time":188.92838541666666,"type":"noteOn","velocity":68},{"channel":0,"nextOffset":11466,"note":74,"tick":145097,"time":188.92838541666666,"type":"noteOn","velocity":68},{"channel":0,"nextOffset":11470,"note":33,"tick":145193,"time":189.05338541666666,"type":"noteOff","velocity":0},{"channel":0,"nextOffset":11474,"note":74,"tick":145289,"time":189.17838541666666,"type":"noteOff","velocity":0},{"channel":0,"nextOffset":11478,"note":77,"tick":145289,"time":189.17838541666666,"type":"noteOff","velocity":0},{"channel":0,"nextOffset":11482,"note":69,"tick":145289,"time":189.17838541666666,"type":"noteOff","velocity":0},{"channel":0,"nextOffset":11486,"note":72,"tick":145289,"time":189.17838541666666,"type":"noteOff","velocity":0},{"channel":0,"nextOffset":11490,"note":32,"tick":145289,"time":189.17838541666666,"type":"noteOn","velocity":68},{"channel":0,"nextOffset":11495,"note":32,"tick":145481,"time":189.42838541666666,"type":"noteOff","velocity":0},{"channel":0,"nextOffset":11499,"note":31,"tick":145481,"time":189.42838541666666,"type":"noteOn","velocity":68},{"channel":0,"nextOffset":11503,"note":58,"tick":145481,"time":189.42838541666666,"type":"noteOn","velocity":68},{"channel":0,"nextOffset":11507,"note":62,"tick":145481,"time":189.42838541666666,"type":"noteOn","velocity":68},{"channel":0,"nextOffset":11511,"note":65,"tick":145481,"time":189.42838541666666,"type":"noteOn","velocity":68},{"channel":0,"nextOffset":11515,"note":69,"tick":145481,"time":189.42838541666666,"type":"noteOn","velocity":68},{"channel":0,"nextOffset":11520,"note":31,"tick":145673,"time":189.67838541666666,"type":"noteOff","velocity":0},{"channel":0,"nextOffset":11525,"note":69,"tick":145865,"time":189.92838541666666,"type":"noteOff","velocity":0},{"channel":0,"nextOffset":11529,"note":65,"tick":145865,"time":189.92838541666666,"type":"noteOff","velocity":0},{"channel":0,"nextOffset":11533,"note":62,"tick":145865,"time":189.92838541666666,"type":"noteOff","velocity":0},{"channel":0,"nextOffset":11537,"note":58,"tick":145865,"time":189.92838541666666,"type":"noteOff","velocity":0},{"channel":0,"nextOffset":11541,"note":31,"tick":145865,"time":189.92838541666666,"type":"noteOn","velocity":68},{"channel":0,"nextOffset":11546,"note":31,"tick":146057,"time":190.17838541666666,"type":"noteOff","velocity":0},{"channel":0,"nextOffset":11551,"note":33,"tick":146249,"time":190.42838541666666,"type":"noteOn","velocity":68},{"channel":0,"nextOffset":11555,"note":72,"tick":146249,"time":190.42838541666666,"type":"noteOn","velocity":68},{"channel":0,"nextOffset":11559,"note":67,"tick":146249,"time":190.42838541666666,"type":"noteOn","velocity":68},{"channel":0,"nextOffset":11563,"note":64,"tick":146249,"time":190.42838541666666,"type":"noteOn","velocity":68},{"channel":0,"nextOffset":11567,"note":60,"tick":146249,"time":190.42838541666666,"type":"noteOn","velocity":68},{"channel":0,"nextOffset":11572,"note":60,"tick":146441,"time":190.67838541666666,"type":"noteOff","velocity":0},{"channel":0,"nextOffset":11576,"note":64,"tick":146441,"time":190.67838541666666,"type":"noteOff","velocity":0},{"channel":0,"nextOffset":11580,"note":67,"tick":146441,"time":190.67838541666666,"type":"noteOff","velocity":0},{"channel":0,"nextOffset":11584,"note":72,"tick":146441,"time":190.67838541666666,"type":"noteOff","velocity":0},{"channel":0,"nextOffset":11588,"note":33,"tick":146441,"time":190.67838541666666,"type":"noteOff","velocity":0},{"channel":0,"nextOffset":11592,"note":33,"tick":146537,"time":190.80338541666666,"type":"noteOn","velocity":68},{"channel":0,"nextOffset":11596,"note":61,"tick":146633,"time":190.92838541666666,"type":"noteOn","velocity":68},{"channel":0,"nextOffset":11600,"note":65,"tick":146633,"time":190.92838541666666,"type":"noteOn","velocity":68},{"channel":0,"nextOffset":11604,"note":67,"tick":146633,"time":190.92838541666666,"type":"noteOn","velocity":68},{"channel":0,"nextOffset":11608,"note":70,"tick":146633,"time":190.92838541666666,"type":"noteOn","velocity":68},{"channel":0,"nextOffset":11612,"note":33,"tick":146729,"time":191.05338541666666,"type":"noteOff","velocity":0},{"channel":0,"nextOffset":11616,"note":70,"tick":146825,"time":191.17838541666666,"type":"noteOff","velocity":0},{"channel":0,"nextOffset":11620,"note":67,"tick":146825,"time":191.17838541666666,"type":"noteOff","velocity":0},{"channel":0,"nextOffset":11624,"note":65,"tick":146825,"time":191.17838541666666,"type":"noteOff","velocity":0},{"channel":0,"nextOffset":11628,"note":61,"tick":146825,"time":191.17838541666666,"type":"noteOff","velocity":0},{"channel":0,"nextOffset":11632,"note":33,"tick":146825,"time":191.17838541666666,"type":"noteOn","velocity":68},{"channel":0,"nextOffset":11637,"note":33,"tick":147017,"time":191.42838541666666,"type":"noteOff","velocity":0},{"channel":0,"nextOffset":11641,"note":26,"tick":147017,"time":191.42838541666666,"type":"noteOn","velocity":68},{"channel":0,"nextOffset":11645,"note":60,"tick":147017,"time":191.42838541666666,"type":"noteOn","velocity":68},{"channel":0,"nextOffset":11649,"note":64,"tick":147017,"time":191.42838541666666,"type":"noteOn","velocity":68},{"channel":0,"nextOffset":11653,"note":65,"tick":147017,"time":191.42838541666666,"type":"noteOn","velocity":68},{"channel":0,"nextOffset":11657,"note":69,"tick":147017,"time":191.42838541666666,"type":"noteOn","velocity":68},{"channel":0,"nextOffset":11662,"note":69,"tick":147209,"time":191.67838541666666,"type":"noteOff","velocity":0},{"channel":0,"nextOffset":11666,"note":65,"tick":147209,"time":191.67838541666666,"type":"noteOff","velocity":0},{"channel":0,"nextOffset":11670,"note":64,"tick":147209,"time":191.67838541666666,"type":"noteOff","velocity":0},{"channel":0,"nextOffset":11674,"note":60,"tick":147209,"time":191.67838541666666,"type":"noteOff","velocity":0},{"channel":0,"nextOffset":11678,"note":26,"tick":147209,"time":191.67838541666666,"type":"noteOff","velocity":0},{"channel":0,"nextOffset":11683,"note":26,"tick":147401,"time":191.92838541666666,"type":"noteOn","velocity":68},{"channel":0,"nextOffset":11688,"note":26,"tick":147593,"time":192.17838541666666,"type":"noteOff","velocity":0},{"channel":0,"nextOffset":11693,"note":38,"tick":147785,"time":192.42838541666666,"type":"noteOn","velocity":68},{"channel":0,"nextOffset":11697,"note":64,"tick":147785,"time":192.42838541666666,"type":"noteOn","velocity":68},{"channel":0,"nextOffset":11701,"note":60,"tick":147785,"time":192.42838541666666,"type":"noteOn","velocity":68},{"channel":0,"nextOffset":11705,"note":69,"tick":147785,"time":192.42838541666666,"type":"noteOn","velocity":68},{"channel":0,"nextOffset":11709,"note":65,"tick":147785,"time":192.42838541666666,"type":"noteOn","velocity":68},{"channel":0,"nextOffset":11714,"note":65,"tick":147977,"time":192.67838541666666,"type":"noteOff","velocity":0},{"channel":0,"nextOffset":11718,"note":69,"tick":147977,"time":192.67838541666666,"type":"noteOff","velocity":0},{"channel":0,"nextOffset":11722,"note":60,"tick":147977,"time":192.67838541666666,"type":"noteOff","velocity":0},{"channel":0,"nextOffset":11726,"note":64,"tick":147977,"time":192.67838541666666,"type":"noteOff","velocity":0},{"channel":0,"nextOffset":11730,"note":38,"tick":147977,"time":192.67838541666666,"type":"noteOff","velocity":0},{"channel":0,"nextOffset":11734,"note":33,"tick":148073,"time":192.80338541666666,"type":"noteOn","velocity":68},{"channel":0,"nextOffset":11738,"note":59,"tick":148169,"time":192.92838541666666,"type":"noteOn","velocity":68},{"channel":0,"nextOffset":11742,"note":63,"tick":148169,"time":192.92838541666666,"type":"noteOn","velocity":68},{"channel":0,"nextOffset":11746,"note":68,"tick":148169,"time":192.92838541666666,"type":"noteOn","velocity":68},{"channel":0,"nextOffset":11750,"note":33,"tick":148265,"time":193.05338541666666,"type":"noteOff","velocity":0},{"channel":0,"nextOffset":11754,"note":68,"tick":148361,"time":193.17838541666666,"type":"noteOff","velocity":0},{"channel":0,"nextOffset":11758,"note":63,"tick":148361,"time":193.17838541666666,"type":"noteOff","velocity":0},{"channel":0,"nextOffset":11762,"note":59,"tick":148361,"time":193.17838541666666,"type":"noteOff","velocity":0},{"channel":0,"nextOffset":11766,"note":32,"tick":148361,"time":193.17838541666666,"type":"noteOn","velocity":68},{"channel":0,"nextOffset":11771,"note":32,"tick":148553,"time":193.42838541666666,"type":"noteOff","velocity":0},{"channel":0,"nextOffset":11775,"note":31,"tick":148553,"time":193.42838541666666,"type":"noteOn","velocity":68},{"channel":0,"nextOffset":11779,"note":58,"tick":148553,"time":193.42838541666666,"type":"noteOn","velocity":68},{"channel":0,"nextOffset":11783,"note":62,"tick":148553,"time":193.42838541666666,"type":"noteOn","velocity":68},{"channel":0,"nextOffset":11787,"note":65,"tick":148553,"time":193.42838541666666,"type":"noteOn","velocity":68},{"channel":0,"nextOffset":11791,"note":69,"tick":148553,"time":193.42838541666666,"type":"noteOn","velocity":68},{"channel":0,"nextOffset":11796,"note":31,"tick":148745,"time":193.67838541666666,"type":"noteOff","velocity":0},{"channel":0,"nextOffset":11801,"note":69,"tick":148937,"time":193.92838541666666,"type":"noteOff","velocity":0},{"channel":0,"nextOffset":11805,"note":65,"tick":148937,"time":193.92838541666666,"type":"noteOff","velocity":0},{"channel":0,"nextOffset":11809,"note":62,"tick":148937,"time":193.92838541666666,"type":"noteOff","velocity":0},{"channel":0,"nextOffset":11813,"note":58,"tick":148937,"time":193.92838541666666,"type":"noteOff","velocity":0},{"channel":0,"nextOffset":11817,"note":31,"tick":148937,"time":193.92838541666666,"type":"noteOn","velocity":68},{"channel":0,"nextOffset":11822,"note":31,"tick":149129,"time":194.17838541666666,"type":"noteOff","velocity":0},{"channel":0,"nextOffset":11827,"note":33,"tick":149321,"time":194.42838541666666,"type":"noteOn","velocity":68},{"channel":0,"nextOffset":11831,"note":72,"tick":149321,"time":194.42838541666666,"type":"noteOn","velocity":68},{"channel":0,"nextOffset":11835,"note":67,"tick":149321,"time":194.42838541666666,"type":"noteOn","velocity":68},{"channel":0,"nextOffset":11839,"note":64,"tick":149321,"time":194.42838541666666,"type":"noteOn","velocity":68},{"channel":0,"nextOffset":11843,"note":60,"tick":149321,"time":194.42838541666666,"type":"noteOn","velocity":68},{"channel":0,"nextOffset":11848,"note":60,"tick":149513,"time":194.67838541666666,"type":"noteOff","velocity":0},{"channel":0,"nextOffset":11852,"note":64,"tick":149513,"time":194.67838541666666,"type":"noteOff","velocity":0},{"channel":0,"nextOffset":11856,"note":67,"tick":149513,"time":194.67838541666666,"type":"noteOff","velocity":0},{"channel":0,"nextOffset":11860,"note":72,"tick":149513,"time":194.67838541666666,"type":"noteOff","velocity":0},{"channel":0,"nextOffset":11864,"note":33,"tick":149513,"time":194.67838541666666,"type":"noteOff","velocity":0},{"channel":0,"nextOffset":11868,"note":33,"tick":149609,"time":194.80338541666666,"type":"noteOn","velocity":68},{"channel":0,"nextOffset":11872,"note":61,"tick":149705,"time":194.92838541666666,"type":"noteOn","velocity":68},{"channel":0,"nextOffset":11876,"note":65,"tick":149705,"time":194.92838541666666,"type":"noteOn","velocity":68},{"channel":0,"nextOffset":11880,"note":67,"tick":149705,"time":194.92838541666666,"type":"noteOn","velocity":68},{"channel":0,"nextOffset":11884,"note":70,"tick":149705,"time":194.92838541666666,"type":"noteOn","velocity":68},{"channel":0,"nextOffset":11888,"note":33,"tick":149801,"time":195.05338541666666,"type":"noteOff","velocity":0},{"channel":0,"nextOffset":11892,"note":70,"tick":149897,"time":195.17838541666666,"type":"noteOff","velocity":0},{"channel":0,"nextOffset":11896,"note":67,"tick":149897,"time":195.17838541666666,"type":"noteOff","velocity":0},{"channel":0,"nextOffset":11900,"note":65,"tick":149897,"time":195.17838541666666,"type":"noteOff","velocity":0},{"channel":0,"nextOffset":11904,"note":61,"tick":149897,"time":195.17838541666666,"type":"noteOff","velocity":0},{"channel":0,"nextOffset":11908,"note":33,"tick":149897,"time":195.17838541666666,"type":"noteOn","velocity":68},{"channel":0,"nextOffset":11913,"note":33,"tick":150089,"time":195.42838541666666,"type":"noteOff","velocity":0},{"channel":0,"nextOffset":11917,"note":26,"tick":150089,"time":195.42838541666666,"type":"noteOn","velocity":68},{"channel":0,"nextOffset":11921,"note":60,"tick":150089,"time":195.42838541666666,"type":"noteOn","velocity":68},{"channel":0,"nextOffset":11925,"note":64,"tick":150089,"time":195.42838541666666,"type":"noteOn","velocity":68},{"channel":0,"nextOffset":11929,"note":65,"tick":150089,"time":195.42838541666666,"type":"noteOn","velocity":68},{"channel":0,"nextOffset":11933,"note":69,"tick":150089,"time":195.42838541666666,"type":"noteOn","velocity":68},{"channel":0,"nextOffset":11938,"note":69,"tick":150281,"time":195.67838541666666,"type":"noteOff","velocity":0},{"channel":0,"nextOffset":11942,"note":65,"tick":150281,"time":195.67838541666666,"type":"noteOff","velocity":0},{"channel":0,"nextOffset":11946,"note":64,"tick":150281,"time":195.67838541666666,"type":"noteOff","velocity":0},{"channel":0,"nextOffset":11950,"note":60,"tick":150281,"time":195.67838541666666,"type":"noteOff","velocity":0},{"channel":0,"nextOffset":11954,"note":26,"tick":150281,"time":195.67838541666666,"type":"noteOff","velocity":0},{"channel":0,"nextOffset":11959,"note":26,"tick":150473,"time":195.92838541666666,"type":"noteOn","velocity":68},{"channel":0,"nextOffset":11964,"note":26,"tick":150665,"time":196.17838541666666,"type":"noteOff","velocity":0},{"channel":0,"nextOffset":11969,"note":38,"tick":150857,"time":196.42838541666666,"type":"noteOn","velocity":68},{"channel":0,"nextOffset":11973,"note":64,"tick":150857,"time":196.42838541666666,"type":"noteOn","velocity":68},{"channel":0,"nextOffset":11977,"note":60,"tick":150857,"time":196.42838541666666,"type":"noteOn","velocity":68},{"channel":0,"nextOffset":11981,"note":69,"tick":150857,"time":196.42838541666666,"type":"noteOn","velocity":68},{"channel":0,"nextOffset":11985,"note":65,"tick":150857,"time":196.42838541666666,"type":"noteOn","velocity":68},{"channel":0,"nextOffset":11990,"note":65,"tick":151049,"time":196.67838541666666,"type":"noteOff","velocity":0},{"channel":0,"nextOffset":11994,"note":69,"tick":151049,"time":196.67838541666666,"type":"noteOff","velocity":0},{"channel":0,"nextOffset":11998,"note":60,"tick":151049,"time":196.67838541666666,"type":"noteOff","velocity":0},{"channel":0,"nextOffset":12002,"note":64,"tick":151049,"time":196.67838541666666,"type":"noteOff","velocity":0},{"channel":0,"nextOffset":12006,"note":38,"tick":151049,"time":196.67838541666666,"type":"noteOff","velocity":0},{"channel":0,"nextOffset":12010,"note":33,"tick":151145,"time":196.80338541666666,"type":"noteOn","velocity":68},{"channel":0,"nextOffset":12014,"note":59,"tick":151241,"time":196.92838541666666,"type":"noteOn","velocity":68},{"channel":0,"nextOffset":12018,"note":63,"tick":151241,"time":196.92838541666666,"type":"noteOn","velocity":68},{"channel":0,"nextOffset":12022,"note":68,"tick":151241,"time":196.92838541666666,"type":"noteOn","velocity":68},{"channel":0,"nextOffset":12026,"note":33,"tick":151337,"time":197.05338541666666,"type":"noteOff","velocity":0},{"channel":0,"nextOffset":12030,"note":68,"tick":151433,"time":197.17838541666666,"type":"noteOff","velocity":0},{"channel":0,"nextOffset":12034,"note":63,"tick":151433,"time":197.17838541666666,"type":"noteOff","velocity":0},{"channel":0,"nextOffset":12038,"note":59,"tick":151433,"time":197.17838541666666,"type":"noteOff","velocity":0},{"channel":0,"nextOffset":12042,"note":32,"tick":151433,"time":197.17838541666666,"type":"noteOn","velocity":68},{"channel":0,"nextOffset":12047,"note":32,"tick":151625,"time":197.42838541666666,"type":"noteOff","velocity":0},{"channel":0,"nextOffset":12051,"note":31,"tick":151625,"time":197.42838541666666,"type":"noteOn","velocity":68},{"channel":0,"nextOffset":12055,"note":58,"tick":151625,"time":197.42838541666666,"type":"noteOn","velocity":68},{"channel":0,"nextOffset":12059,"note":62,"tick":151625,"time":197.42838541666666,"type":"noteOn","velocity":68},{"channel":0,"nextOffset":12063,"note":65,"tick":151625,"time":197.42838541666666,"type":"noteOn","velocity":68},{"channel":0,"nextOffset":12067,"note":69,"tick":151625,"time":197.42838541666666,"type":"noteOn","velocity":68},{"channel":0,"nextOffset":12072,"note":31,"tick":151817,"time":197.67838541666666,"type":"noteOff","velocity":0},{"channel":0,"nextOffset":12077,"note":69,"tick":152009,"time":197.92838541666666,"type":"noteOff","velocity":0},{"channel":0,"nextOffset":12081,"note":65,"tick":152009,"time":197.92838541666666,"type":"noteOff","velocity":0},{"channel":0,"nextOffset":12085,"note":62,"tick":152009,"time":197.92838541666666,"type":"noteOff","velocity":0},{"channel":0,"nextOffset":12089,"note":58,"tick":152009,"time":197.92838541666666,"type":"noteOff","velocity":0},{"channel":0,"nextOffset":12093,"note":31,"tick":152009,"time":197.92838541666666,"type":"noteOn","velocity":68},{"channel":0,"nextOffset":12098,"note":31,"tick":152201,"time":198.17838541666666,"type":"noteOff","velocity":0},{"channel":0,"nextOffset":12103,"note":33,"tick":152393,"time":198.42838541666666,"type":"noteOn","velocity":68},{"channel":0,"nextOffset":12107,"note":72,"tick":152393,"time":198.42838541666666,"type":"noteOn","velocity":68},{"channel":0,"nextOffset":12111,"note":67,"tick":152393,"time":198.42838541666666,"type":"noteOn","velocity":68},{"channel":0,"nextOffset":12115,"note":64,"tick":152393,"time":198.42838541666666,"type":"noteOn","velocity":68},{"channel":0,"nextOffset":12119,"note":60,"tick":152393,"time":198.42838541666666,"type":"noteOn","velocity":68},{"channel":0,"nextOffset":12124,"note":60,"tick":152585,"time":198.67838541666666,"type":"noteOff","velocity":0},{"channel":0,"nextOffset":12128,"note":64,"tick":152585,"time":198.67838541666666,"type":"noteOff","velocity":0},{"channel":0,"nextOffset":12132,"note":67,"tick":152585,"time":198.67838541666666,"type":"noteOff","velocity":0},{"channel":0,"nextOffset":12136,"note":72,"tick":152585,"time":198.67838541666666,"type":"noteOff","velocity":0},{"channel":0,"nextOffset":12140,"note":33,"tick":152585,"time":198.67838541666666,"type":"noteOff","velocity":0},{"channel":0,"nextOffset":12144,"note":33,"tick":152681,"time":198.80338541666666,"type":"noteOn","velocity":68},{"channel":0,"nextOffset":12148,"note":61,"tick":152777,"time":198.92838541666666,"type":"noteOn","velocity":68},{"channel":0,"nextOffset":12152,"note":65,"tick":152777,"time":198.92838541666666,"type":"noteOn","velocity":68},{"channel":0,"nextOffset":12156,"note":67,"tick":152777,"time":198.92838541666666,"type":"noteOn","velocity":68},{"channel":0,"nextOffset":12160,"note":70,"tick":152777,"time":198.92838541666666,"type":"noteOn","velocity":68},{"channel":0,"nextOffset":12164,"note":33,"tick":152873,"time":199.05338541666666,"type":"noteOff","velocity":0},{"channel":0,"nextOffset":12168,"note":70,"tick":152969,"time":199.17838541666666,"type":"noteOff","velocity":0},{"channel":0,"nextOffset":12172,"note":67,"tick":152969,"time":199.17838541666666,"type":"noteOff","velocity":0},{"channel":0,"nextOffset":12176,"note":65,"tick":152969,"time":199.17838541666666,"type":"noteOff","velocity":0},{"channel":0,"nextOffset":12180,"note":61,"tick":152969,"time":199.17838541666666,"type":"noteOff","velocity":0},{"channel":0,"nextOffset":12184,"note":33,"tick":152969,"time":199.17838541666666,"type":"noteOn","velocity":68},{"channel":0,"nextOffset":12189,"note":33,"tick":153161,"time":199.42838541666666,"type":"noteOff","velocity":0},{"channel":0,"nextOffset":12193,"note":26,"tick":153161,"time":199.42838541666666,"type":"noteOn","velocity":68},{"channel":0,"nextOffset":12197,"note":60,"tick":153161,"time":199.42838541666666,"type":"noteOn","velocity":68},{"channel":0,"nextOffset":12201,"note":64,"tick":153161,"time":199.42838541666666,"type":"noteOn","velocity":68},{"channel":0,"nextOffset":12205,"note":65,"tick":153161,"time":199.42838541666666,"type":"noteOn","velocity":68},{"channel":0,"nextOffset":12209,"note":69,"tick":153161,"time":199.42838541666666,"type":"noteOn","velocity":68},{"channel":0,"nextOffset":12214,"note":69,"tick":153353,"time":199.67838541666666,"type":"noteOff","velocity":0},{"channel":0,"nextOffset":12218,"note":65,"tick":153353,"time":199.67838541666666,"type":"noteOff","velocity":0},{"channel":0,"nextOffset":12222,"note":64,"tick":153353,"time":199.67838541666666,"type":"noteOff","velocity":0},{"channel":0,"nextOffset":12226,"note":60,"tick":153353,"time":199.67838541666666,"type":"noteOff","velocity":0},{"channel":0,"nextOffset":12230,"note":26,"tick":153353,"time":199.67838541666666,"type":"noteOff","velocity":0},{"channel":0,"nextOffset":12235,"note":26,"tick":153545,"time":199.92838541666666,"type":"noteOn","velocity":68},{"channel":0,"nextOffset":12240,"note":26,"tick":153737,"time":200.17838541666666,"type":"noteOff","velocity":0},{"channel":0,"nextOffset":12245,"note":38,"tick":153929,"time":200.42838541666666,"type":"noteOn","velocity":68},{"channel":0,"nextOffset":12249,"note":64,"tick":153929,"time":200.42838541666666,"type":"noteOn","velocity":68},{"channel":0,"nextOffset":12253,"note":60,"tick":153929,"time":200.42838541666666,"type":"noteOn","velocity":68},{"channel":0,"nextOffset":12257,"note":69,"tick":153929,"time":200.42838541666666,"type":"noteOn","velocity":68},{"channel":0,"nextOffset":12261,"note":65,"tick":153929,"time":200.42838541666666,"type":"noteOn","velocity":68},{"channel":0,"nextOffset":12266,"note":65,"tick":154121,"time":200.67838541666666,"type":"noteOff","velocity":0},{"channel":0,"nextOffset":12270,"note":69,"tick":154121,"time":200.67838541666666,"type":"noteOff","velocity":0},{"channel":0,"nextOffset":12274,"note":60,"tick":154121,"time":200.67838541666666,"type":"noteOff","velocity":0},{"channel":0,"nextOffset":12278,"note":64,"tick":154121,"time":200.67838541666666,"type":"noteOff","velocity":0},{"channel":0,"nextOffset":12282,"note":38,"tick":154121,"time":200.67838541666666,"type":"noteOff","velocity":0},{"channel":0,"nextOffset":12286,"note":33,"tick":154217,"time":200.80338541666666,"type":"noteOn","velocity":68},{"channel":0,"nextOffset":12290,"note":59,"tick":154313,"time":200.92838541666666,"type":"noteOn","velocity":68},{"channel":0,"nextOffset":12294,"note":63,"tick":154313,"time":200.92838541666666,"type":"noteOn","velocity":68},{"channel":0,"nextOffset":12298,"note":68,"tick":154313,"time":200.92838541666666,"type":"noteOn","velocity":68},{"channel":0,"nextOffset":12302,"note":33,"tick":154409,"time":201.05338541666666,"type":"noteOff","velocity":0},{"channel":0,"nextOffset":12306,"note":68,"tick":154505,"time":201.17838541666666,"type":"noteOff","velocity":0},{"channel":0,"nextOffset":12310,"note":63,"tick":154505,"time":201.17838541666666,"type":"noteOff","velocity":0},{"channel":0,"nextOffset":12314,"note":59,"tick":154505,"time":201.17838541666666,"type":"noteOff","velocity":0},{"channel":0,"nextOffset":12318,"note":32,"tick":154505,"time":201.17838541666666,"type":"noteOn","velocity":68},{"channel":0,"nextOffset":12323,"note":32,"tick":154697,"time":201.42838541666666,"type":"noteOff","velocity":0},{"channel":0,"nextOffset":12327,"note":31,"tick":154697,"time":201.42838541666666,"type":"noteOn","velocity":68},{"channel":0,"nextOffset":12331,"note":58,"tick":154697,"time":201.42838541666666,"type":"noteOn","velocity":68},{"channel":0,"nextOffset":12335,"note":62,"tick":154697,"time":201.42838541666666,"type":"noteOn","velocity":68},{"channel":0,"nextOffset":12339,"note":65,"tick":154697,"time":201.42838541666666,"type":"noteOn","velocity":68},{"channel":0,"nextOffset":12343,"note":69,"tick":154697,"time":201.42838541666666,"type":"noteOn","velocity":68},{"channel":0,"nextOffset":12348,"note":31,"tick":154889,"time":201.67838541666666,"type":"noteOff","velocity":0},{"channel":0,"nextOffset":12353,"note":69,"tick":155081,"time":201.92838541666666,"type":"noteOff","velocity":0},{"channel":0,"nextOffset":12357,"note":65,"tick":155081,"time":201.92838541666666,"type":"noteOff","velocity":0},{"channel":0,"nextOffset":12361,"note":62,"tick":155081,"time":201.92838541666666,"type":"noteOff","velocity":0},{"channel":0,"nextOffset":12365,"note":58,"tick":155081,"time":201.92838541666666,"type":"noteOff","velocity":0},{"channel":0,"nextOffset":12369,"note":31,"tick":155081,"time":201.92838541666666,"type":"noteOn","velocity":68},{"channel":0,"nextOffset":12374,"note":31,"tick":155273,"time":202.17838541666666,"type":"noteOff","velocity":0},{"channel":0,"nextOffset":12379,"note":33,"tick":155465,"time":202.42838541666666,"type":"noteOn","velocity":68},{"channel":0,"nextOffset":12383,"note":72,"tick":155465,"time":202.42838541666666,"type":"noteOn","velocity":68},{"channel":0,"nextOffset":12387,"note":67,"tick":155465,"time":202.42838541666666,"type":"noteOn","velocity":68},{"channel":0,"nextOffset":12391,"note":64,"tick":155465,"time":202.42838541666666,"type":"noteOn","velocity":68},{"channel":0,"nextOffset":12395,"note":60,"tick":155465,"time":202.42838541666666,"type":"noteOn","velocity":68},{"channel":0,"nextOffset":12400,"note":60,"tick":155657,"time":202.67838541666666,"type":"noteOff","velocity":0},{"channel":0,"nextOffset":12404,"note":64,"tick":155657,"time":202.67838541666666,"type":"noteOff","velocity":0},{"channel":0,"nextOffset":12408,"note":67,"tick":155657,"time":202.67838541666666,"type":"noteOff","velocity":0},{"channel":0,"nextOffset":12412,"note":72,"tick":155657,"time":202.67838541666666,"type":"noteOff","velocity":0},{"channel":0,"nextOffset":12416,"note":33,"tick":155657,"time":202.67838541666666,"type":"noteOff","velocity":0},{"channel":0,"nextOffset":12420,"note":33,"tick":155753,"time":202.80338541666666,"type":"noteOn","velocity":68},{"channel":0,"nextOffset":12424,"note":61,"tick":155849,"time":202.92838541666666,"type":"noteOn","velocity":68},{"channel":0,"nextOffset":12428,"note":65,"tick":155849,"time":202.92838541666666,"type":"noteOn","velocity":68},{"channel":0,"nextOffset":12432,"note":67,"tick":155849,"time":202.92838541666666,"type":"noteOn","velocity":68},{"channel":0,"nextOffset":12436,"note":70,"tick":155849,"time":202.92838541666666,"type":"noteOn","velocity":68},{"channel":0,"nextOffset":12440,"note":33,"tick":155945,"time":203.05338541666666,"type":"noteOff","velocity":0},{"channel":0,"nextOffset":12444,"note":70,"tick":156041,"time":203.17838541666666,"type":"noteOff","velocity":0},{"channel":0,"nextOffset":12448,"note":67,"tick":156041,"time":203.17838541666666,"type":"noteOff","velocity":0},{"channel":0,"nextOffset":12452,"note":65,"tick":156041,"time":203.17838541666666,"type":"noteOff","velocity":0},{"channel":0,"nextOffset":12456,"note":61,"tick":156041,"time":203.17838541666666,"type":"noteOff","velocity":0},{"channel":0,"nextOffset":12460,"note":33,"tick":156041,"time":203.17838541666666,"type":"noteOn","velocity":68},{"channel":0,"nextOffset":12465,"note":33,"tick":156233,"time":203.42838541666666,"type":"noteOff","velocity":0},{"channel":0,"nextOffset":12469,"note":26,"tick":156233,"time":203.42838541666666,"type":"noteOn","velocity":68},{"channel":0,"nextOffset":12473,"note":60,"tick":156233,"time":203.42838541666666,"type":"noteOn","velocity":68},{"channel":0,"nextOffset":12477,"note":64,"tick":156233,"time":203.42838541666666,"type":"noteOn","velocity":68},{"channel":0,"nextOffset":12481,"note":65,"tick":156233,"time":203.42838541666666,"type":"noteOn","velocity":68},{"channel":0,"nextOffset":12485,"note":69,"tick":156233,"time":203.42838541666666,"type":"noteOn","velocity":68},{"channel":0,"nextOffset":12490,"note":69,"tick":156425,"time":203.67838541666666,"type":"noteOff","velocity":0},{"channel":0,"nextOffset":12494,"note":65,"tick":156425,"time":203.67838541666666,"type":"noteOff","velocity":0},{"channel":0,"nextOffset":12498,"note":64,"tick":156425,"time":203.67838541666666,"type":"noteOff","velocity":0},{"channel":0,"nextOffset":12502,"note":60,"tick":156425,"time":203.67838541666666,"type":"noteOff","velocity":0},{"channel":0,"nextOffset":12506,"note":26,"tick":156425,"time":203.67838541666666,"type":"noteOff","velocity":0},{"channel":0,"nextOffset":12511,"note":26,"tick":156617,"time":203.92838541666666,"type":"noteOn","velocity":68},{"channel":0,"nextOffset":12516,"note":26,"tick":156809,"time":204.17838541666666,"type":"noteOff","velocity":0},{"channel":0,"nextOffset":12521,"note":38,"tick":157001,"time":204.42838541666666,"type":"noteOn","velocity":68},{"channel":0,"nextOffset":12525,"note":64,"tick":157001,"time":204.42838541666666,"type":"noteOn","velocity":68},{"channel":0,"nextOffset":12529,"note":60,"tick":157001,"time":204.42838541666666,"type":"noteOn","velocity":68},{"channel":0,"nextOffset":12533,"note":69,"tick":157001,"time":204.42838541666666,"type":"noteOn","velocity":68},{"channel":0,"nextOffset":12537,"note":65,"tick":157001,"time":204.42838541666666,"type":"noteOn","velocity":68},{"channel":0,"nextOffset":12542,"note":65,"tick":157193,"time":204.67838541666666,"type":"noteOff","velocity":0},{"channel":0,"nextOffset":12546,"note":69,"tick":157193,"time":204.67838541666666,"type":"noteOff","velocity":0},{"channel":0,"nextOffset":12550,"note":60,"tick":157193,"time":204.67838541666666,"type":"noteOff","velocity":0},{"channel":0,"nextOffset":12554,"note":64,"tick":157193,"time":204.67838541666666,"type":"noteOff","velocity":0},{"channel":0,"nextOffset":12558,"note":38,"tick":157193,"time":204.67838541666666,"type":"noteOff","velocity":0},{"channel":0,"nextOffset":12562,"note":33,"tick":157289,"time":204.80338541666666,"type":"noteOn","velocity":68},{"channel":0,"nextOffset":12566,"note":59,"tick":157385,"time":204.92838541666666,"type":"noteOn","velocity":68},{"channel":0,"nextOffset":12570,"note":63,"tick":157385,"time":204.92838541666666,"type":"noteOn","velocity":68},{"channel":0,"nextOffset":12574,"note":68,"tick":157385,"time":204.92838541666666,"type":"noteOn","velocity":68},{"channel":0,"nextOffset":12578,"note":33,"tick":157481,"time":205.05338541666666,"type":"noteOff","velocity":0},{"channel":0,"nextOffset":12582,"note":68,"tick":157577,"time":205.17838541666666,"type":"noteOff","velocity":0},{"channel":0,"nextOffset":12586,"note":63,"tick":157577,"time":205.17838541666666,"type":"noteOff","velocity":0},{"channel":0,"nextOffset":12590,"note":59,"tick":157577,"time":205.17838541666666,"type":"noteOff","velocity":0},{"channel":0,"nextOffset":12594,"note":32,"tick":157577,"time":205.17838541666666,"type":"noteOn","velocity":68},{"channel":0,"nextOffset":12599,"note":32,"tick":157769,"time":205.42838541666666,"type":"noteOff","velocity":0},{"channel":0,"nextOffset":12603,"note":31,"tick":157769,"time":205.42838541666666,"type":"noteOn","velocity":68},{"channel":0,"nextOffset":12607,"note":58,"tick":157769,"time":205.42838541666666,"type":"noteOn","velocity":68},{"channel":0,"nextOffset":12611,"note":62,"tick":157769,"time":205.42838541666666,"type":"noteOn","velocity":68},{"channel":0,"nextOffset":12615,"note":65,"tick":157769,"time":205.42838541666666,"type":"noteOn","velocity":68},{"channel":0,"nextOffset":12619,"note":69,"tick":157769,"time":205.42838541666666,"type":"noteOn","velocity":68},{"channel":0,"nextOffset":12624,"note":31,"tick":157961,"time":205.67838541666666,"type":"noteOff","velocity":0},{"channel":0,"nextOffset":12629,"note":69,"tick":158153,"time":205.92838541666666,"type":"noteOff","velocity":0},{"channel":0,"nextOffset":12633,"note":65,"tick":158153,"time":205.92838541666666,"type":"noteOff","velocity":0},{"channel":0,"nextOffset":12637,"note":62,"tick":158153,"time":205.92838541666666,"type":"noteOff","velocity":0},{"channel":0,"nextOffset":12641,"note":58,"tick":158153,"time":205.92838541666666,"type":"noteOff","velocity":0},{"channel":0,"nextOffset":12645,"note":31,"tick":158153,"time":205.92838541666666,"type":"noteOn","velocity":68},{"channel":0,"nextOffset":12650,"note":31,"tick":158345,"time":206.17838541666666,"type":"noteOff","velocity":0},{"channel":0,"nextOffset":12655,"note":33,"tick":158537,"time":206.42838541666666,"type":"noteOn","velocity":68},{"channel":0,"nextOffset":12659,"note":72,"tick":158537,"time":206.42838541666666,"type":"noteOn","velocity":68},{"channel":0,"nextOffset":12663,"note":67,"tick":158537,"time":206.42838541666666,"type":"noteOn","velocity":68},{"channel":0,"nextOffset":12667,"note":64,"tick":158537,"time":206.42838541666666,"type":"noteOn","velocity":68},{"channel":0,"nextOffset":12671,"note":60,"tick":158537,"time":206.42838541666666,"type":"noteOn","velocity":68},{"channel":0,"nextOffset":12676,"note":60,"tick":158729,"time":206.67838541666666,"type":"noteOff","velocity":0},{"channel":0,"nextOffset":12680,"note":64,"tick":158729,"time":206.67838541666666,"type":"noteOff","velocity":0},{"channel":0,"nextOffset":12684,"note":67,"tick":158729,"time":206.67838541666666,"type":"noteOff","velocity":0},{"channel":0,"nextOffset":12688,"note":72,"tick":158729,"time":206.67838541666666,"type":"noteOff","velocity":0},{"channel":0,"nextOffset":12692,"note":33,"tick":158729,"time":206.67838541666666,"type":"noteOff","velocity":0},{"channel":0,"nextOffset":12696,"note":33,"tick":158825,"time":206.80338541666666,"type":"noteOn","velocity":68},{"channel":0,"nextOffset":12700,"note":61,"tick":158921,"time":206.92838541666666,"type":"noteOn","velocity":68},{"channel":0,"nextOffset":12704,"note":65,"tick":158921,"time":206.92838541666666,"type":"noteOn","velocity":68},{"channel":0,"nextOffset":12708,"note":67,"tick":158921,"time":206.92838541666666,"type":"noteOn","velocity":68},{"channel":0,"nextOffset":12712,"note":70,"tick":158921,"time":206.92838541666666,"type":"noteOn","velocity":68},{"channel":0,"nextOffset":12716,"note":33,"tick":159017,"time":207.05338541666666,"type":"noteOff","velocity":0},{"channel":0,"nextOffset":12720,"note":70,"tick":159113,"time":207.17838541666666,"type":"noteOff","velocity":0},{"channel":0,"nextOffset":12724,"note":67,"tick":159113,"time":207.17838541666666,"type":"noteOff","velocity":0},{"channel":0,"nextOffset":12728,"note":65,"tick":159113,"time":207.17838541666666,"type":"noteOff","velocity":0},{"channel":0,"nextOffset":12732,"note":61,"tick":159113,"time":207.17838541666666,"type":"noteOff","velocity":0},{"channel":0,"nextOffset":12736,"note":33,"tick":159113,"time":207.17838541666666,"type":"noteOn","velocity":68},{"channel":0,"nextOffset":12741,"note":33,"tick":159305,"time":207.42838541666666,"type":"noteOff","velocity":0},{"channel":0,"nextOffset":12745,"note":26,"tick":159305,"time":207.42838541666666,"type":"noteOn","velocity":68},{"channel":0,"nextOffset":12749,"note":60,"tick":159305,"time":207.42838541666666,"type":"noteOn","velocity":68},{"channel":0,"nextOffset":12753,"note":64,"tick":159305,"time":207.42838541666666,"type":"noteOn","velocity":68},{"channel":0,"nextOffset":12757,"note":65,"tick":159305,"time":207.42838541666666,"type":"noteOn","velocity":68},{"channel":0,"nextOffset":12761,"note":69,"tick":159305,"time":207.42838541666666,"type":"noteOn","velocity":68},{"channel":0,"nextOffset":12766,"note":69,"tick":159497,"time":207.67838541666666,"type":"noteOff","velocity":0},{"channel":0,"nextOffset":12770,"note":65,"tick":159497,"time":207.67838541666666,"type":"noteOff","velocity":0},{"channel":0,"nextOffset":12774,"note":64,"tick":159497,"time":207.67838541666666,"type":"noteOff","velocity":0},{"channel":0,"nextOffset":12778,"note":60,"tick":159497,"time":207.67838541666666,"type":"noteOff","velocity":0},{"channel":0,"nextOffset":12782,"note":26,"tick":159497,"time":207.67838541666666,"type":"noteOff","velocity":0},{"channel":0,"nextOffset":12787,"note":26,"tick":159689,"time":207.92838541666666,"type":"noteOn","velocity":68},{"channel":0,"nextOffset":12792,"note":26,"tick":159881,"time":208.17838541666666,"type":"noteOff","velocity":0},{"channel":0,"nextOffset":12797,"note":38,"tick":160073,"time":208.42838541666666,"type":"noteOn","velocity":68},{"channel":0,"nextOffset":12801,"note":64,"tick":160073,"time":208.42838541666666,"type":"noteOn","velocity":68},{"channel":0,"nextOffset":12805,"note":60,"tick":160073,"time":208.42838541666666,"type":"noteOn","velocity":68},{"channel":0,"nextOffset":12809,"note":69,"tick":160073,"time":208.42838541666666,"type":"noteOn","velocity":68},{"channel":0,"nextOffset":12813,"note":65,"tick":160073,"time":208.42838541666666,"type":"noteOn","velocity":68},{"channel":0,"nextOffset":12818,"note":65,"tick":160265,"time":208.67838541666666,"type":"noteOff","velocity":0},{"channel":0,"nextOffset":12822,"note":69,"tick":160265,"time":208.67838541666666,"type":"noteOff","velocity":0},{"channel":0,"nextOffset":12826,"note":60,"tick":160265,"time":208.67838541666666,"type":"noteOff","velocity":0},{"channel":0,"nextOffset":12830,"note":64,"tick":160265,"time":208.67838541666666,"type":"noteOff","velocity":0},{"channel":0,"nextOffset":12834,"note":38,"tick":160265,"time":208.67838541666666,"type":"noteOff","velocity":0},{"channel":0,"nextOffset":12838,"note":33,"tick":160361,"time":208.80338541666666,"type":"noteOn","velocity":68},{"channel":0,"nextOffset":12842,"note":59,"tick":160457,"time":208.92838541666666,"type":"noteOn","velocity":68},{"channel":0,"nextOffset":12846,"note":63,"tick":160457,"time":208.92838541666666,"type":"noteOn","velocity":68},{"channel":0,"nextOffset":12850,"note":68,"tick":160457,"time":208.92838541666666,"type":"noteOn","velocity":68},{"channel":0,"nextOffset":12854,"note":33,"tick":160553,"time":209.05338541666666,"type":"noteOff","velocity":0},{"channel":0,"nextOffset":12858,"note":68,"tick":160649,"time":209.17838541666666,"type":"noteOff","velocity":0},{"channel":0,"nextOffset":12862,"note":63,"tick":160649,"time":209.17838541666666,"type":"noteOff","velocity":0},{"channel":0,"nextOffset":12866,"note":59,"tick":160649,"time":209.17838541666666,"type":"noteOff","velocity":0},{"channel":0,"nextOffset":12870,"note":32,"tick":160649,"time":209.17838541666666,"type":"noteOn","velocity":68},{"channel":0,"nextOffset":12875,"note":32,"tick":160841,"time":209.42838541666666,"type":"noteOff","velocity":0},{"channel":0,"nextOffset":12879,"note":31,"tick":160841,"time":209.42838541666666,"type":"noteOn","velocity":68},{"channel":0,"nextOffset":12883,"note":58,"tick":160841,"time":209.42838541666666,"type":"noteOn","velocity":68},{"channel":0,"nextOffset":12887,"note":62,"tick":160841,"time":209.42838541666666,"type":"noteOn","velocity":68},{"channel":0,"nextOffset":12891,"note":65,"tick":160841,"time":209.42838541666666,"type":"noteOn","velocity":68},{"channel":0,"nextOffset":12895,"note":69,"tick":160841,"time":209.42838541666666,"type":"noteOn","velocity":68},{"channel":0,"nextOffset":12900,"note":31,"tick":161033,"time":209.67838541666666,"type":"noteOff","velocity":0},{"channel":0,"nextOffset":12905,"note":69,"tick":161225,"time":209.92838541666666,"type":"noteOff","velocity":0},{"channel":0,"nextOffset":12909,"note":65,"tick":161225,"time":209.92838541666666,"type":"noteOff","velocity":0},{"channel":0,"nextOffset":12913,"note":62,"tick":161225,"time":209.92838541666666,"type":"noteOff","velocity":0},{"channel":0,"nextOffset":12917,"note":58,"tick":161225,"time":209.92838541666666,"type":"noteOff","velocity":0},{"channel":0,"nextOffset":12921,"note":31,"tick":161225,"time":209.92838541666666,"type":"noteOn","velocity":68},{"channel":0,"nextOffset":12926,"note":31,"tick":161417,"time":210.17838541666666,"type":"noteOff","velocity":0},{"channel":0,"nextOffset":12931,"note":33,"tick":161609,"time":210.42838541666666,"type":"noteOn","velocity":68},{"channel":0,"nextOffset":12935,"note":72,"tick":161609,"time":210.42838541666666,"type":"noteOn","velocity":68},{"channel":0,"nextOffset":12939,"note":67,"tick":161609,"time":210.42838541666666,"type":"noteOn","velocity":68},{"channel":0,"nextOffset":12943,"note":64,"tick":161609,"time":210.42838541666666,"type":"noteOn","velocity":68},{"channel":0,"nextOffset":12947,"note":60,"tick":161609,"time":210.42838541666666,"type":"noteOn","velocity":68},{"channel":0,"nextOffset":12952,"note":60,"tick":161801,"time":210.67838541666666,"type":"noteOff","velocity":0},{"channel":0,"nextOffset":12956,"note":64,"tick":161801,"time":210.67838541666666,"type":"noteOff","velocity":0},{"channel":0,"nextOffset":12960,"note":67,"tick":161801,"time":210.67838541666666,"type":"noteOff","velocity":0},{"channel":0,"nextOffset":12964,"note":72,"tick":161801,"time":210.67838541666666,"type":"noteOff","velocity":0},{"channel":0,"nextOffset":12968,"note":33,"tick":161801,"time":210.67838541666666,"type":"noteOff","velocity":0},{"channel":0,"nextOffset":12972,"note":33,"tick":161897,"time":210.80338541666666,"type":"noteOn","velocity":68},{"channel":0,"nextOffset":12976,"note":61,"tick":161993,"time":210.92838541666666,"type":"noteOn","velocity":68},{"channel":0,"nextOffset":12980,"note":65,"tick":161993,"time":210.92838541666666,"type":"noteOn","velocity":68},{"channel":0,"nextOffset":12984,"note":67,"tick":161993,"time":210.92838541666666,"type":"noteOn","velocity":68},{"channel":0,"nextOffset":12988,"note":70,"tick":161993,"time":210.92838541666666,"type":"noteOn","velocity":68},{"channel":0,"nextOffset":12992,"note":33,"tick":162089,"time":211.05338541666666,"type":"noteOff","velocity":0},{"channel":0,"nextOffset":12996,"note":70,"tick":162185,"time":211.17838541666666,"type":"noteOff","velocity":0},{"channel":0,"nextOffset":13000,"note":67,"tick":162185,"time":211.17838541666666,"type":"noteOff","velocity":0},{"channel":0,"nextOffset":13004,"note":65,"tick":162185,"time":211.17838541666666,"type":"noteOff","velocity":0},{"channel":0,"nextOffset":13008,"note":61,"tick":162185,"time":211.17838541666666,"type":"noteOff","velocity":0},{"channel":0,"nextOffset":13012,"note":33,"tick":162185,"time":211.17838541666666,"type":"noteOn","velocity":68},{"channel":0,"nextOffset":13017,"note":33,"tick":162377,"time":211.42838541666666,"type":"noteOff","velocity":0},{"channel":0,"nextOffset":13021,"note":26,"tick":162377,"time":211.42838541666666,"type":"noteOn","velocity":68},{"channel":0,"nextOffset":13025,"note":60,"tick":162377,"time":211.42838541666666,"type":"noteOn","velocity":68},{"channel":0,"nextOffset":13029,"note":64,"tick":162377,"time":211.42838541666666,"type":"noteOn","velocity":68},{"channel":0,"nextOffset":13033,"note":65,"tick":162377,"time":211.42838541666666,"type":"noteOn","velocity":68},{"channel":0,"nextOffset":13037,"note":69,"tick":162377,"time":211.42838541666666,"type":"noteOn","velocity":68},{"channel":0,"nextOffset":13042,"note":69,"tick":162569,"time":211.67838541666666,"type":"noteOff","velocity":0},{"channel":0,"nextOffset":13046,"note":65,"tick":162569,"time":211.67838541666666,"type":"noteOff","velocity":0},{"channel":0,"nextOffset":13050,"note":64,"tick":162569,"time":211.67838541666666,"type":"noteOff","velocity":0},{"channel":0,"nextOffset":13054,"note":60,"tick":162569,"time":211.67838541666666,"type":"noteOff","velocity":0},{"channel":0,"nextOffset":13058,"note":26,"tick":162569,"time":211.67838541666666,"type":"noteOff","velocity":0},{"channel":0,"nextOffset":13063,"note":26,"tick":162761,"time":211.92838541666666,"type":"noteOn","velocity":68},{"channel":0,"nextOffset":13068,"note":26,"tick":162953,"time":212.17838541666666,"type":"noteOff","velocity":0},{"channel":0,"nextOffset":13073,"note":38,"tick":163145,"time":212.42838541666666,"type":"noteOn","velocity":68},{"channel":0,"nextOffset":13077,"note":64,"tick":163145,"time":212.42838541666666,"type":"noteOn","velocity":68},{"channel":0,"nextOffset":13081,"note":60,"tick":163145,"time":212.42838541666666,"type":"noteOn","velocity":68},{"channel":0,"nextOffset":13085,"note":69,"tick":163145,"time":212.42838541666666,"type":"noteOn","velocity":68},{"channel":0,"nextOffset":13089,"note":65,"tick":163145,"time":212.42838541666666,"type":"noteOn","velocity":68},{"channel":0,"nextOffset":13094,"note":65,"tick":163337,"time":212.67838541666666,"type":"noteOff","velocity":0},{"channel":0,"nextOffset":13098,"note":69,"tick":163337,"time":212.67838541666666,"type":"noteOff","velocity":0},{"channel":0,"nextOffset":13102,"note":60,"tick":163337,"time":212.67838541666666,"type":"noteOff","velocity":0},{"channel":0,"nextOffset":13106,"note":64,"tick":163337,"time":212.67838541666666,"type":"noteOff","velocity":0},{"channel":0,"nextOffset":13110,"note":38,"tick":163337,"time":212.67838541666666,"type":"noteOff","velocity":0},{"channel":0,"nextOffset":13114,"note":33,"tick":163433,"time":212.80338541666666,"type":"noteOn","velocity":68},{"channel":0,"nextOffset":13118,"note":59,"tick":163529,"time":212.92838541666666,"type":"noteOn","velocity":68},{"channel":0,"nextOffset":13122,"note":63,"tick":163529,"time":212.92838541666666,"type":"noteOn","velocity":68},{"channel":0,"nextOffset":13126,"note":68,"tick":163529,"time":212.92838541666666,"type":"noteOn","velocity":68},{"channel":0,"nextOffset":13130,"note":33,"tick":163625,"time":213.05338541666666,"type":"noteOff","velocity":0},{"channel":0,"nextOffset":13134,"note":68,"tick":163721,"time":213.17838541666666,"type":"noteOff","velocity":0},{"channel":0,"nextOffset":13138,"note":63,"tick":163721,"time":213.17838541666666,"type":"noteOff","velocity":0},{"channel":0,"nextOffset":13142,"note":59,"tick":163721,"time":213.17838541666666,"type":"noteOff","velocity":0},{"channel":0,"nextOffset":13146,"note":32,"tick":163721,"time":213.17838541666666,"type":"noteOn","velocity":68},{"channel":0,"nextOffset":13151,"note":32,"tick":163913,"time":213.42838541666666,"type":"noteOff","velocity":0},{"channel":0,"nextOffset":13155,"note":31,"tick":163913,"time":213.42838541666666,"type":"noteOn","velocity":68},{"channel":0,"nextOffset":13159,"note":58,"tick":163913,"time":213.42838541666666,"type":"noteOn","velocity":68},{"channel":0,"nextOffset":13163,"note":62,"tick":163913,"time":213.42838541666666,"type":"noteOn","velocity":68},{"channel":0,"nextOffset":13167,"note":65,"tick":163913,"time":213.42838541666666,"type":"noteOn","velocity":68},{"channel":0,"nextOffset":13171,"note":69,"tick":163913,"time":213.42838541666666,"type":"noteOn","velocity":68},{"channel":0,"nextOffset":13176,"note":31,"tick":164105,"time":213.67838541666666,"type":"noteOff","velocity":0},{"channel":0,"nextOffset":13181,"note":69,"tick":164297,"time":213.92838541666666,"type":"noteOff","velocity":0},{"channel":0,"nextOffset":13185,"note":65,"tick":164297,"time":213.92838541666666,"type":"noteOff","velocity":0},{"channel":0,"nextOffset":13189,"note":62,"tick":164297,"time":213.92838541666666,"type":"noteOff","velocity":0},{"channel":0,"nextOffset":13193,"note":58,"tick":164297,"time":213.92838541666666,"type":"noteOff","velocity":0},{"channel":0,"nextOffset":13197,"note":31,"tick":164297,"time":213.92838541666666,"type":"noteOn","velocity":68},{"channel":0,"nextOffset":13202,"note":31,"tick":164489,"time":214.17838541666666,"type":"noteOff","velocity":0},{"channel":0,"nextOffset":13207,"note":33,"tick":164681,"time":214.42838541666666,"type":"noteOn","velocity":68},{"channel":0,"nextOffset":13211,"note":72,"tick":164681,"time":214.42838541666666,"type":"noteOn","velocity":68},{"channel":0,"nextOffset":13215,"note":67,"tick":164681,"time":214.42838541666666,"type":"noteOn","velocity":68},{"channel":0,"nextOffset":13219,"note":64,"tick":164681,"time":214.42838541666666,"type":"noteOn","velocity":68},{"channel":0,"nextOffset":13223,"note":60,"tick":164681,"time":214.42838541666666,"type":"noteOn","velocity":68},{"channel":0,"nextOffset":13228,"note":60,"tick":164873,"time":214.67838541666666,"type":"noteOff","velocity":0},{"channel":0,"nextOffset":13232,"note":64,"tick":164873,"time":214.67838541666666,"type":"noteOff","velocity":0},{"channel":0,"nextOffset":13236,"note":67,"tick":164873,"time":214.67838541666666,"type":"noteOff","velocity":0},{"channel":0,"nextOffset":13240,"note":72,"tick":164873,"time":214.67838541666666,"type":"noteOff","velocity":0},{"channel":0,"nextOffset":13244,"note":33,"tick":164873,"time":214.67838541666666,"type":"noteOff","velocity":0},{"channel":0,"nextOffset":13248,"note":33,"tick":164969,"time":214.80338541666666,"type":"noteOn","velocity":68},{"channel":0,"nextOffset":13252,"note":61,"tick":165065,"time":214.92838541666666,"type":"noteOn","velocity":68},{"channel":0,"nextOffset":13256,"note":65,"tick":165065,"time":214.92838541666666,"type":"noteOn","velocity":68},{"channel":0,"nextOffset":13260,"note":67,"tick":165065,"time":214.92838541666666,"type":"noteOn","velocity":68},{"channel":0,"nextOffset":13264,"note":70,"tick":165065,"time":214.92838541666666,"type":"noteOn","velocity":68},{"channel":0,"nextOffset":13268,"note":33,"tick":165161,"time":215.05338541666666,"type":"noteOff","velocity":0},{"channel":0,"nextOffset":13272,"note":70,"tick":165257,"time":215.17838541666666,"type":"noteOff","velocity":0},{"channel":0,"nextOffset":13276,"note":67,"tick":165257,"time":215.17838541666666,"type":"noteOff","velocity":0},{"channel":0,"nextOffset":13280,"note":65,"tick":165257,"time":215.17838541666666,"type":"noteOff","velocity":0},{"channel":0,"nextOffset":13284,"note":61,"tick":165257,"time":215.17838541666666,"type":"noteOff","velocity":0},{"channel":0,"nextOffset":13288,"note":33,"tick":165257,"time":215.17838541666666,"type":"noteOn","velocity":68},{"channel":0,"nextOffset":13293,"note":33,"tick":165449,"time":215.42838541666666,"type":"noteOff","velocity":0},{"channel":0,"nextOffset":13297,"note":26,"tick":165449,"time":215.42838541666666,"type":"noteOn","velocity":68},{"channel":0,"nextOffset":13301,"note":60,"tick":165449,"time":215.42838541666666,"type":"noteOn","velocity":68},{"channel":0,"nextOffset":13305,"note":64,"tick":165449,"time":215.42838541666666,"type":"noteOn","velocity":68},{"channel":0,"nextOffset":13309,"note":65,"tick":165449,"time":215.42838541666666,"type":"noteOn","velocity":68},{"channel":0,"nextOffset":13313,"note":69,"tick":165449,"time":215.42838541666666,"type":"noteOn","velocity":68},{"channel":0,"nextOffset":13318,"note":69,"tick":165641,"time":215.67838541666666,"type":"noteOff","velocity":0},{"channel":0,"nextOffset":13322,"note":65,"tick":165641,"time":215.67838541666666,"type":"noteOff","velocity":0},{"channel":0,"nextOffset":13326,"note":64,"tick":165641,"time":215.67838541666666,"type":"noteOff","velocity":0},{"channel":0,"nextOffset":13330,"note":60,"tick":165641,"time":215.67838541666666,"type":"noteOff","velocity":0},{"channel":0,"nextOffset":13334,"note":26,"tick":165641,"time":215.67838541666666,"type":"noteOff","velocity":0},{"channel":0,"nextOffset":13339,"note":26,"tick":165833,"time":215.92838541666666,"type":"noteOn","velocity":68},{"channel":0,"nextOffset":13344,"note":26,"tick":166025,"time":216.17838541666666,"type":"noteOff","velocity":0},{"channel":0,"nextOffset":13349,"note":38,"tick":166217,"time":216.42838541666666,"type":"noteOn","velocity":68},{"channel":0,"nextOffset":13353,"note":64,"tick":166217,"time":216.42838541666666,"type":"noteOn","velocity":68},{"channel":0,"nextOffset":13357,"note":60,"tick":166217,"time":216.42838541666666,"type":"noteOn","velocity":68},{"channel":0,"nextOffset":13361,"note":69,"tick":166217,"time":216.42838541666666,"type":"noteOn","velocity":68},{"channel":0,"nextOffset":13365,"note":65,"tick":166217,"time":216.42838541666666,"type":"noteOn","velocity":68},{"channel":0,"nextOffset":13370,"note":65,"tick":166409,"time":216.67838541666666,"type":"noteOff","velocity":0},{"channel":0,"nextOffset":13374,"note":69,"tick":166409,"time":216.67838541666666,"type":"noteOff","velocity":0},{"channel":0,"nextOffset":13378,"note":60,"tick":166409,"time":216.67838541666666,"type":"noteOff","velocity":0},{"channel":0,"nextOffset":13382,"note":64,"tick":166409,"time":216.67838541666666,"type":"noteOff","velocity":0},{"channel":0,"nextOffset":13386,"note":38,"tick":166409,"time":216.67838541666666,"type":"noteOff","velocity":0},{"channel":0,"nextOffset":13390,"note":33,"tick":166505,"time":216.80338541666666,"type":"noteOn","velocity":68},{"channel":0,"nextOffset":13394,"note":59,"tick":166601,"time":216.92838541666666,"type":"noteOn","velocity":68},{"channel":0,"nextOffset":13398,"note":63,"tick":166601,"time":216.92838541666666,"type":"noteOn","velocity":68},{"channel":0,"nextOffset":13402,"note":68,"tick":166601,"time":216.92838541666666,"type":"noteOn","velocity":68},{"channel":0,"nextOffset":13406,"note":33,"tick":166697,"time":217.05338541666666,"type":"noteOff","velocity":0},{"channel":0,"nextOffset":13410,"note":68,"tick":166793,"time":217.17838541666666,"type":"noteOff","velocity":0},{"channel":0,"nextOffset":13414,"note":63,"tick":166793,"time":217.17838541666666,"type":"noteOff","velocity":0},{"channel":0,"nextOffset":13418,"note":59,"tick":166793,"time":217.17838541666666,"type":"noteOff","velocity":0},{"channel":0,"nextOffset":13422,"note":32,"tick":166793,"time":217.17838541666666,"type":"noteOn","velocity":68},{"channel":0,"nextOffset":13427,"note":32,"tick":166985,"time":217.42838541666666,"type":"noteOff","velocity":0},{"channel":0,"nextOffset":13431,"note":31,"tick":166985,"time":217.42838541666666,"type":"noteOn","velocity":68},{"channel":0,"nextOffset":13435,"note":58,"tick":166985,"time":217.42838541666666,"type":"noteOn","velocity":68},{"channel":0,"nextOffset":13439,"note":62,"tick":166985,"time":217.42838541666666,"type":"noteOn","velocity":68},{"channel":0,"nextOffset":13443,"note":65,"tick":166985,"time":217.42838541666666,"type":"noteOn","velocity":68},{"channel":0,"nextOffset":13447,"note":69,"tick":166985,"time":217.42838541666666,"type":"noteOn","velocity":68},{"channel":0,"nextOffset":13452,"note":31,"tick":167177,"time":217.67838541666666,"type":"noteOff","velocity":0},{"channel":0,"nextOffset":13457,"note":69,"tick":167369,"time":217.92838541666666,"type":"noteOff","velocity":0},{"channel":0,"nextOffset":13461,"note":65,"tick":167369,"time":217.92838541666666,"type":"noteOff","velocity":0},{"channel":0,"nextOffset":13465,"note":62,"tick":167369,"time":217.92838541666666,"type":"noteOff","velocity":0},{"channel":0,"nextOffset":13469,"note":58,"tick":167369,"time":217.92838541666666,"type":"noteOff","velocity":0},{"channel":0,"nextOffset":13473,"note":31,"tick":167369,"time":217.92838541666666,"type":"noteOn","velocity":68},{"channel":0,"nextOffset":13478,"note":31,"tick":167561,"time":218.17838541666666,"type":"noteOff","velocity":0},{"channel":0,"nextOffset":13483,"note":33,"tick":167753,"time":218.42838541666666,"type":"noteOn","velocity":68},{"channel":0,"nextOffset":13487,"note":72,"tick":167753,"time":218.42838541666666,"type":"noteOn","velocity":68},{"channel":0,"nextOffset":13491,"note":67,"tick":167753,"time":218.42838541666666,"type":"noteOn","velocity":68},{"channel":0,"nextOffset":13495,"note":64,"tick":167753,"time":218.42838541666666,"type":"noteOn","velocity":68},{"channel":0,"nextOffset":13499,"note":60,"tick":167753,"time":218.42838541666666,"type":"noteOn","velocity":68},{"channel":0,"nextOffset":13504,"note":60,"tick":167945,"time":218.67838541666666,"type":"noteOff","velocity":0},{"channel":0,"nextOffset":13508,"note":64,"tick":167945,"time":218.67838541666666,"type":"noteOff","velocity":0},{"channel":0,"nextOffset":13512,"note":67,"tick":167945,"time":218.67838541666666,"type":"noteOff","velocity":0},{"channel":0,"nextOffset":13516,"note":72,"tick":167945,"time":218.67838541666666,"type":"noteOff","velocity":0},{"channel":0,"nextOffset":13520,"note":33,"tick":167945,"time":218.67838541666666,"type":"noteOff","velocity":0},{"channel":0,"nextOffset":13524,"note":33,"tick":168041,"time":218.80338541666666,"type":"noteOn","velocity":68},{"channel":0,"nextOffset":13528,"note":61,"tick":168137,"time":218.92838541666666,"type":"noteOn","velocity":68},{"channel":0,"nextOffset":13532,"note":65,"tick":168137,"time":218.92838541666666,"type":"noteOn","velocity":68},{"channel":0,"nextOffset":13536,"note":67,"tick":168137,"time":218.92838541666666,"type":"noteOn","velocity":68},{"channel":0,"nextOffset":13540,"note":70,"tick":168137,"time":218.92838541666666,"type":"noteOn","velocity":68},{"channel":0,"nextOffset":13544,"note":33,"tick":168233,"time":219.05338541666666,"type":"noteOff","velocity":0},{"channel":0,"nextOffset":13548,"note":70,"tick":168329,"time":219.17838541666666,"type":"noteOff","velocity":0},{"channel":0,"nextOffset":13552,"note":67,"tick":168329,"time":219.17838541666666,"type":"noteOff","velocity":0},{"channel":0,"nextOffset":13556,"note":65,"tick":168329,"time":219.17838541666666,"type":"noteOff","velocity":0},{"channel":0,"nextOffset":13560,"note":61,"tick":168329,"time":219.17838541666666,"type":"noteOff","velocity":0},{"channel":0,"nextOffset":13564,"note":33,"tick":168329,"time":219.17838541666666,"type":"noteOn","velocity":68},{"channel":0,"nextOffset":13569,"note":33,"tick":168521,"time":219.42838541666666,"type":"noteOff","velocity":0},{"channel":0,"nextOffset":13573,"note":26,"tick":168521,"time":219.42838541666666,"type":"noteOn","velocity":68},{"channel":0,"nextOffset":13577,"note":60,"tick":168521,"time":219.42838541666666,"type":"noteOn","velocity":68},{"channel":0,"nextOffset":13581,"note":64,"tick":168521,"time":219.42838541666666,"type":"noteOn","velocity":68},{"channel":0,"nextOffset":13585,"note":65,"tick":168521,"time":219.42838541666666,"type":"noteOn","velocity":68},{"channel":0,"nextOffset":13589,"note":69,"tick":168521,"time":219.42838541666666,"type":"noteOn","velocity":68},{"channel":0,"nextOffset":13594,"note":69,"tick":168713,"time":219.67838541666666,"type":"noteOff","velocity":0},{"channel":0,"nextOffset":13598,"note":65,"tick":168713,"time":219.67838541666666,"type":"noteOff","velocity":0},{"channel":0,"nextOffset":13602,"note":64,"tick":168713,"time":219.67838541666666,"type":"noteOff","velocity":0},{"channel":0,"nextOffset":13606,"note":60,"tick":168713,"time":219.67838541666666,"type":"noteOff","velocity":0},{"channel":0,"nextOffset":13610,"note":26,"tick":168713,"time":219.67838541666666,"type":"noteOff","velocity":0},{"channel":0,"nextOffset":13615,"note":26,"tick":168905,"time":219.92838541666666,"type":"noteOn","velocity":68},{"channel":0,"nextOffset":13620,"note":26,"tick":169097,"time":220.17838541666666,"type":"noteOff","velocity":0},{"channel":0,"nextOffset":13625,"note":38,"tick":169289,"time":220.42838541666666,"type":"noteOn","velocity":68},{"channel":0,"nextOffset":13629,"note":64,"tick":169289,"time":220.42838541666666,"type":"noteOn","velocity":68},{"channel":0,"nextOffset":13633,"note":60,"tick":169289,"time":220.42838541666666,"type":"noteOn","velocity":68},{"channel":0,"nextOffset":13637,"note":69,"tick":169289,"time":220.42838541666666,"type":"noteOn","velocity":68},{"channel":0,"nextOffset":13641,"note":65,"tick":169289,"time":220.42838541666666,"type":"noteOn","velocity":68},{"channel":0,"nextOffset":13646,"note":65,"tick":169481,"time":220.67838541666666,"type":"noteOff","velocity":0},{"channel":0,"nextOffset":13650,"note":69,"tick":169481,"time":220.67838541666666,"type":"noteOff","velocity":0},{"channel":0,"nextOffset":13654,"note":60,"tick":169481,"time":220.67838541666666,"type":"noteOff","velocity":0},{"channel":0,"nextOffset":13658,"note":64,"tick":169481,"time":220.67838541666666,"type":"noteOff","velocity":0},{"channel":0,"nextOffset":13662,"note":38,"tick":169481,"time":220.67838541666666,"type":"noteOff","velocity":0},{"channel":0,"nextOffset":13666,"note":33,"tick":169577,"time":220.80338541666666,"type":"noteOn","velocity":68},{"channel":0,"nextOffset":13670,"note":59,"tick":169673,"time":220.92838541666666,"type":"noteOn","velocity":68},{"channel":0,"nextOffset":13674,"note":63,"tick":169673,"time":220.92838541666666,"type":"noteOn","velocity":68},{"channel":0,"nextOffset":13678,"note":68,"tick":169673,"time":220.92838541666666,"type":"noteOn","velocity":68},{"channel":0,"nextOffset":13682,"note":33,"tick":169769,"time":221.05338541666666,"type":"noteOff","velocity":0},{"channel":0,"nextOffset":13686,"note":68,"tick":169865,"time":221.17838541666666,"type":"noteOff","velocity":0},{"channel":0,"nextOffset":13690,"note":63,"tick":169865,"time":221.17838541666666,"type":"noteOff","velocity":0},{"channel":0,"nextOffset":13694,"note":59,"tick":169865,"time":221.17838541666666,"type":"noteOff","velocity":0},{"channel":0,"nextOffset":13699,"note":43,"tick":170057,"time":221.42838541666666,"type":"noteOn","velocity":68},{"channel":0,"nextOffset":13703,"note":58,"tick":170057,"time":221.42838541666666,"type":"noteOn","velocity":68},{"channel":0,"nextOffset":13707,"note":62,"tick":170057,"time":221.42838541666666,"type":"noteOn","velocity":68},{"channel":0,"nextOffset":13711,"note":65,"tick":170057,"time":221.42838541666666,"type":"noteOn","velocity":68},{"channel":0,"nextOffset":13715,"note":69,"tick":170057,"time":221.42838541666666,"type":"noteOn","velocity":68},{"channel":0,"nextOffset":13720,"note":43,"tick":170249,"time":221.67838541666666,"type":"noteOff","velocity":0},{"channel":0,"nextOffset":13724,"note":50,"tick":170249,"time":221.67838541666666,"type":"noteOn","velocity":68},{"channel":0,"nextOffset":13729,"note":69,"tick":170441,"time":221.92838541666666,"type":"noteOff","velocity":0},{"channel":0,"nextOffset":13733,"note":65,"tick":170441,"time":221.92838541666666,"type":"noteOff","velocity":0},{"channel":0,"nextOffset":13737,"note":62,"tick":170441,"time":221.92838541666666,"type":"noteOff","velocity":0},{"channel":0,"nextOffset":13741,"note":58,"tick":170441,"time":221.92838541666666,"type":"noteOff","velocity":0},{"channel":0,"nextOffset":13745,"note":50,"tick":170441,"time":221.92838541666666,"type":"noteOff","velocity":0},{"channel":0,"nextOffset":13749,"note":43,"tick":170441,"time":221.92838541666666,"type":"noteOn","velocity":68},{"channel":0,"nextOffset":13754,"note":43,"tick":170633,"time":222.17838541666666,"type":"noteOff","velocity":0},{"channel":0,"nextOffset":13758,"note":44,"tick":170633,"time":222.17838541666666,"type":"noteOn","velocity":68},{"channel":0,"nextOffset":13762,"note":65,"tick":170633,"time":222.17838541666666,"type":"noteOn","velocity":68},{"channel":0,"nextOffset":13766,"note":65,"tick":170729,"time":222.30338541666666,"type":"noteOff","velocity":0},{"channel":0,"nextOffset":13770,"note":69,"tick":170729,"time":222.30338541666666,"type":"noteOn","velocity":68},{"channel":0,"nextOffset":13774,"note":44,"tick":170825,"time":222.42838541666666,"type":"noteOff","velocity":0},{"channel":0,"nextOffset":13778,"note":69,"tick":170825,"time":222.42838541666666,"type":"noteOff","velocity":0},{"channel":0,"nextOffset":13782,"note":45,"tick":170825,"time":222.42838541666666,"type":"noteOn","velocity":68},{"channel":0,"nextOffset":13786,"note":72,"tick":170825,"time":222.42838541666666,"type":"noteOn","velocity":68},{"channel":0,"nextOffset":13790,"note":67,"tick":170825,"time":222.42838541666666,"type":"noteOn","velocity":68},{"channel":0,"nextOffset":13794,"note":64,"tick":170825,"time":222.42838541666666,"type":"noteOn","velocity":68},{"channel":0,"nextOffset":13798,"note":60,"tick":170825,"time":222.42838541666666,"type":"noteOn","velocity":68},{"channel":0,"nextOffset":13803,"note":60,"tick":171017,"time":222.67838541666666,"type":"noteOff","velocity":0},{"channel":0,"nextOffset":13807,"note":64,"tick":171017,"time":222.67838541666666,"type":"noteOff","velocity":0},{"channel":0,"nextOffset":13811,"note":67,"tick":171017,"time":222.67838541666666,"type":"noteOff","velocity":0},{"channel":0,"nextOffset":13815,"note":72,"tick":171017,"time":222.67838541666666,"type":"noteOff","velocity":0},{"channel":0,"nextOffset":13819,"note":45,"tick":171017,"time":222.67838541666666,"type":"noteOff","velocity":0},{"channel":0,"nextOffset":13823,"note":45,"tick":171113,"time":222.80338541666666,"type":"noteOn","velocity":68},{"channel":0,"nextOffset":13827,"note":61,"tick":171113,"time":222.80338541666666,"type":"noteOn","velocity":68},{"channel":0,"nextOffset":13831,"note":65,"tick":171113,"time":222.80338541666666,"type":"noteOn","velocity":68},{"channel":0,"nextOffset":13835,"note":67,"tick":171113,"time":222.80338541666666,"type":"noteOn","velocity":68},{"channel":0,"nextOffset":13839,"note":70,"tick":171113,"time":222.80338541666666,"type":"noteOn","velocity":68},{"channel":0,"nextOffset":13843,"note":45,"tick":171209,"time":222.92838541666666,"type":"noteOff","velocity":0},{"channel":0,"nextOffset":13847,"note":70,"tick":171305,"time":223.05338541666666,"type":"noteOff","velocity":0},{"channel":0,"nextOffset":13851,"note":67,"tick":171305,"time":223.05338541666666,"type":"noteOff","velocity":0},{"channel":0,"nextOffset":13855,"note":65,"tick":171305,"time":223.05338541666666,"type":"noteOff","velocity":0},{"channel":0,"nextOffset":13859,"note":61,"tick":171305,"time":223.05338541666666,"type":"noteOff","velocity":0},{"channel":0,"nextOffset":13863,"note":38,"tick":171401,"time":223.17838541666666,"type":"noteOn","velocity":68},{"channel":0,"nextOffset":13867,"note":60,"tick":171401,"time":223.17838541666666,"type":"noteOn","velocity":68},{"channel":0,"nextOffset":13871,"note":64,"tick":171401,"time":223.17838541666666,"type":"noteOn","velocity":68},{"channel":0,"nextOffset":13875,"note":65,"tick":171401,"time":223.17838541666666,"type":"noteOn","velocity":68},{"channel":0,"nextOffset":13879,"note":69,"tick":171401,"time":223.17838541666666,"type":"noteOn","velocity":68},{"channel":0,"nextOffset":13884,"note":69,"tick":171593,"time":223.42838541666666,"type":"noteOff","velocity":0},{"channel":0,"nextOffset":13888,"note":65,"tick":171593,"time":223.42838541666666,"type":"noteOff","velocity":0},{"channel":0,"nextOffset":13892,"note":64,"tick":171593,"time":223.42838541666666,"type":"noteOff","velocity":0},{"channel":0,"nextOffset":13896,"note":60,"tick":171593,"time":223.42838541666666,"type":"noteOff","velocity":0},{"channel":0,"nextOffset":13900,"note":38,"tick":171593,"time":223.42838541666666,"type":"noteOff","velocity":0},{"channel":0,"nextOffset":13904,"note":76,"tick":171593,"time":223.42838541666666,"type":"noteOn","velocity":68},{"channel":0,"nextOffset":13908,"note":76,"tick":171689,"time":223.55338541666666,"type":"noteOff","velocity":0},{"channel":0,"nextOffset":13912,"note":77,"tick":171689,"time":223.55338541666666,"type":"noteOn","velocity":68},{"channel":0,"nextOffset":13916,"note":77,"tick":171785,"time":223.67838541666666,"type":"noteOff","velocity":0},{"channel":0,"nextOffset":13920,"note":76,"tick":171785,"time":223.67838541666666,"type":"noteOn","velocity":68},{"channel":0,"nextOffset":13924,"note":76,"tick":171881,"time":223.80338541666666,"type":"noteOff","velocity":0},{"channel":0,"nextOffset":13928,"note":72,"tick":171881,"time":223.80338541666666,"type":"noteOn","velocity":68},{"channel":0,"nextOffset":13932,"note":72,"tick":171977,"time":223.92838541666666,"type":"noteOff","velocity":0},{"channel":0,"nextOffset":13936,"note":76,"tick":171977,"time":223.92838541666666,"type":"noteOn","velocity":68},{"channel":0,"nextOffset":13940,"note":76,"tick":172073,"time":224.05338541666666,"type":"noteOff","velocity":0},{"channel":0,"nextOffset":13944,"note":72,"tick":172073,"time":224.05338541666666,"type":"noteOn","velocity":68},{"channel":0,"nextOffset":13948,"note":72,"tick":172169,"time":224.17838541666666,"type":"noteOff","velocity":0},{"channel":0,"nextOffset":13952,"note":69,"tick":172169,"time":224.17838541666666,"type":"noteOn","velocity":68},{"channel":0,"nextOffset":13956,"note":45,"tick":172169,"time":224.17838541666666,"type":"noteOn","velocity":68},{"channel":0,"nextOffset":13960,"note":69,"tick":172265,"time":224.30338541666666,"type":"noteOff","velocity":0},{"channel":0,"nextOffset":13964,"note":67,"tick":172265,"time":224.30338541666666,"type":"noteOn","velocity":68},{"channel":0,"nextOffset":13968,"note":45,"tick":172361,"time":224.42838541666666,"type":"noteOff","velocity":0},{"channel":0,"nextOffset":13972,"note":67,"tick":172361,"time":224.42838541666666,"type":"noteOff","velocity":0},{"channel":0,"nextOffset":13976,"note":69,"tick":172361,"time":224.42838541666666,"type":"noteOn","velocity":68},{"channel":0,"nextOffset":13980,"note":50,"tick":172361,"time":224.42838541666666,"type":"noteOn","velocity":68},{"channel":0,"nextOffset":13984,"note":69,"tick":172457,"time":224.55338541666666,"type":"noteOff","velocity":0},{"channel":0,"nextOffset":13988,"note":62,"tick":172457,"time":224.55338541666666,"type":"noteOn","velocity":68},{"channel":0,"nextOffset":13992,"note":50,"tick":172553,"time":224.67838541666666,"type":"noteOff","velocity":0},{"channel":0,"nextOffset":13996,"note":62,"tick":172553,"time":224.67838541666666,"type":"noteOff","velocity":0},{"channel":0,"nextOffset":14000,"note":60,"tick":172553,"time":224.67838541666666,"type":"noteOn","velocity":68},{"channel":0,"nextOffset":14004,"note":38,"tick":172553,"time":224.67838541666666,"type":"noteOn","velocity":68},{"channel":0,"nextOffset":14008,"note":60,"tick":172649,"time":224.80338541666666,"type":"noteOff","velocity":0},{"channel":0,"nextOffset":14012,"note":65,"tick":172649,"time":224.80338541666666,"type":"noteOn","velocity":68},{"channel":0,"nextOffset":14016,"note":38,"tick":172745,"time":224.92838541666666,"type":"noteOff","velocity":0},{"channel":0,"nextOffset":14020,"note":65,"tick":172745,"time":224.92838541666666,"type":"noteOff","velocity":0},{"channel":0,"nextOffset":14024,"note":64,"tick":172745,"time":224.92838541666666,"type":"noteOn","velocity":68},{"channel":0,"nextOffset":14028,"note":60,"tick":172745,"time":224.92838541666666,"type":"noteOn","velocity":68},{"channel":0,"nextOffset":14032,"note":69,"tick":172745,"time":224.92838541666666,"type":"noteOn","velocity":68},{"channel":0,"nextOffset":14036,"note":45,"tick":172745,"time":224.92838541666666,"type":"noteOn","velocity":68},{"channel":0,"nextOffset":14041,"note":45,"tick":172937,"time":225.17838541666666,"type":"noteOff","velocity":0},{"channel":0,"nextOffset":14045,"note":69,"tick":172937,"time":225.17838541666666,"type":"noteOff","velocity":0},{"channel":0,"nextOffset":14049,"note":60,"tick":172937,"time":225.17838541666666,"type":"noteOff","velocity":0},{"channel":0,"nextOffset":14053,"note":64,"tick":172937,"time":225.17838541666666,"type":"noteOff","velocity":0},{"channel":0,"nextOffset":14057,"note":59,"tick":172937,"time":225.17838541666666,"type":"noteOn","velocity":68},{"channel":0,"nextOffset":14061,"note":63,"tick":172937,"time":225.17838541666666,"type":"noteOn","velocity":68},{"channel":0,"nextOffset":14065,"note":68,"tick":172937,"time":225.17838541666666,"type":"noteOn","velocity":68},{"channel":0,"nextOffset":14069,"note":44,"tick":172937,"time":225.17838541666666,"type":"noteOn","velocity":68},{"channel":0,"nextOffset":14074,"note":44,"tick":173129,"time":225.42838541666666,"type":"noteOff","velocity":0},{"channel":0,"nextOffset":14078,"note":68,"tick":173129,"time":225.42838541666666,"type":"noteOff","velocity":0},{"channel":0,"nextOffset":14082,"note":63,"tick":173129,"time":225.42838541666666,"type":"noteOff","velocity":0},{"channel":0,"nextOffset":14086,"note":59,"tick":173129,"time":225.42838541666666,"type":"noteOff","velocity":0},{"channel":0,"nextOffset":14090,"note":43,"tick":173129,"time":225.42838541666666,"type":"noteOn","velocity":68},{"channel":0,"nextOffset":14094,"note":58,"tick":173129,"time":225.42838541666666,"type":"noteOn","velocity":68},{"channel":0,"nextOffset":14098,"note":62,"tick":173129,"time":225.42838541666666,"type":"noteOn","velocity":68},{"channel":0,"nextOffset":14102,"note":65,"tick":173129,"time":225.42838541666666,"type":"noteOn","velocity":68},{"channel":0,"nextOffset":14106,"note":69,"tick":173129,"time":225.42838541666666,"type":"noteOn","velocity":68},{"channel":0,"nextOffset":14111,"note":43,"tick":173321,"time":225.67838541666666,"type":"noteOff","velocity":0},{"channel":0,"nextOffset":14115,"note":50,"tick":173321,"time":225.67838541666666,"type":"noteOn","velocity":68},{"channel":0,"nextOffset":14120,"note":69,"tick":173513,"time":225.92838541666666,"type":"noteOff","velocity":0},{"channel":0,"nextOffset":14124,"note":65,"tick":173513,"time":225.92838541666666,"type":"noteOff","velocity":0},{"channel":0,"nextOffset":14128,"note":62,"tick":173513,"time":225.92838541666666,"type":"noteOff","velocity":0},{"channel":0,"nextOffset":14132,"note":58,"tick":173513,"time":225.92838541666666,"type":"noteOff","velocity":0},{"channel":0,"nextOffset":14136,"note":50,"tick":173513,"time":225.92838541666666,"type":"noteOff","velocity":0},{"channel":0,"nextOffset":14140,"note":43,"tick":173513,"time":225.92838541666666,"type":"noteOn","velocity":68},{"channel":0,"nextOffset":14145,"note":43,"tick":173705,"time":226.17838541666666,"type":"noteOff","velocity":0},{"channel":0,"nextOffset":14149,"note":44,"tick":173705,"time":226.17838541666666,"type":"noteOn","velocity":68},{"channel":0,"nextOffset":14153,"note":65,"tick":173705,"time":226.17838541666666,"type":"noteOn","velocity":68},{"channel":0,"nextOffset":14157,"note":65,"tick":173801,"time":226.30338541666666,"type":"noteOff","velocity":0},{"channel":0,"nextOffset":14161,"note":69,"tick":173801,"time":226.30338541666666,"type":"noteOn","velocity":68},{"channel":0,"nextOffset":14165,"note":44,"tick":173897,"time":226.42838541666666,"type":"noteOff","velocity":0},{"channel":0,"nextOffset":14169,"note":69,"tick":173897,"time":226.42838541666666,"type":"noteOff","velocity":0},{"channel":0,"nextOffset":14173,"note":45,"tick":173897,"time":226.42838541666666,"type":"noteOn","velocity":68},{"channel":0,"nextOffset":14177,"note":72,"tick":173897,"time":226.42838541666666,"type":"noteOn","velocity":68},{"channel":0,"nextOffset":14181,"note":67,"tick":173897,"time":226.42838541666666,"type":"noteOn","velocity":68},{"channel":0,"nextOffset":14185,"note":64,"tick":173897,"time":226.42838541666666,"type":"noteOn","velocity":68},{"channel":0,"nextOffset":14189,"note":60,"tick":173897,"time":226.42838541666666,"type":"noteOn","velocity":68},{"channel":0,"nextOffset":14194,"note":60,"tick":174089,"time":226.67838541666666,"type":"noteOff","velocity":0},{"channel":0,"nextOffset":14198,"note":64,"tick":174089,"time":226.67838541666666,"type":"noteOff","velocity":0},{"channel":0,"nextOffset":14202,"note":67,"tick":174089,"time":226.67838541666666,"type":"noteOff","velocity":0},{"channel":0,"nextOffset":14206,"note":72,"tick":174089,"time":226.67838541666666,"type":"noteOff","velocity":0},{"channel":0,"nextOffset":14210,"note":45,"tick":174089,"time":226.67838541666666,"type":"noteOff","velocity":0},{"channel":0,"nextOffset":14214,"note":45,"tick":174185,"time":226.80338541666666,"type":"noteOn","velocity":68},{"channel":0,"nextOffset":14218,"note":61,"tick":174185,"time":226.80338541666666,"type":"noteOn","velocity":68},{"channel":0,"nextOffset":14222,"note":65,"tick":174185,"time":226.80338541666666,"type":"noteOn","velocity":68},{"channel":0,"nextOffset":14226,"note":67,"tick":174185,"time":226.80338541666666,"type":"noteOn","velocity":68},{"channel":0,"nextOffset":14230,"note":70,"tick":174185,"time":226.80338541666666,"type":"noteOn","velocity":68},{"channel":0,"nextOffset":14234,"note":45,"tick":174281,"time":226.92838541666666,"type":"noteOff","velocity":0},{"channel":0,"nextOffset":14238,"note":70,"tick":174377,"time":227.05338541666666,"type":"noteOff","velocity":0},{"channel":0,"nextOffset":14242,"note":67,"tick":174377,"time":227.05338541666666,"type":"noteOff","velocity":0},{"channel":0,"nextOffset":14246,"note":65,"tick":174377,"time":227.05338541666666,"type":"noteOff","velocity":0},{"channel":0,"nextOffset":14250,"note":61,"tick":174377,"time":227.05338541666666,"type":"noteOff","velocity":0},{"channel":0,"nextOffset":14254,"note":38,"tick":174473,"time":227.17838541666666,"type":"noteOn","velocity":68},{"channel":0,"nextOffset":14258,"note":60,"tick":174473,"time":227.17838541666666,"type":"noteOn","velocity":68},{"channel":0,"nextOffset":14262,"note":64,"tick":174473,"time":227.17838541666666,"type":"noteOn","velocity":68},{"channel":0,"nextOffset":14266,"note":65,"tick":174473,"time":227.17838541666666,"type":"noteOn","velocity":68},{"channel":0,"nextOffset":14270,"note":69,"tick":174473,"time":227.17838541666666,"type":"noteOn","velocity":68},{"channel":0,"nextOffset":14275,"note":69,"tick":174665,"time":227.42838541666666,"type":"noteOff","velocity":0},{"channel":0,"nextOffset":14279,"note":65,"tick":174665,"time":227.42838541666666,"type":"noteOff","velocity":0},{"channel":0,"nextOffset":14283,"note":64,"tick":174665,"time":227.42838541666666,"type":"noteOff","velocity":0},{"channel":0,"nextOffset":14287,"note":60,"tick":174665,"time":227.42838541666666,"type":"noteOff","velocity":0},{"channel":0,"nextOffset":14291,"note":38,"tick":174665,"time":227.42838541666666,"type":"noteOff","velocity":0},{"channel":0,"nextOffset":14295,"note":76,"tick":174665,"time":227.42838541666666,"type":"noteOn","velocity":68},{"channel":0,"nextOffset":14299,"note":76,"tick":174761,"time":227.55338541666666,"type":"noteOff","velocity":0},{"channel":0,"nextOffset":14303,"note":77,"tick":174761,"time":227.55338541666666,"type":"noteOn","velocity":68},{"channel":0,"nextOffset":14307,"note":77,"tick":174857,"time":227.67838541666666,"type":"noteOff","velocity":0},{"channel":0,"nextOffset":14311,"note":79,"tick":174857,"time":227.67838541666666,"type":"noteOn","velocity":68},{"channel":0,"nextOffset":14315,"note":79,"tick":174953,"time":227.80338541666666,"type":"noteOff","velocity":0},{"channel":0,"nextOffset":14319,"note":77,"tick":174953,"time":227.80338541666666,"type":"noteOn","velocity":68},{"channel":0,"nextOffset":14323,"note":77,"tick":175049,"time":227.92838541666666,"type":"noteOff","velocity":0},{"channel":0,"nextOffset":14327,"note":76,"tick":175049,"time":227.92838541666666,"type":"noteOn","velocity":68},{"channel":0,"nextOffset":14331,"note":76,"tick":175145,"time":228.05338541666666,"type":"noteOff","velocity":0},{"channel":0,"nextOffset":14335,"note":72,"tick":175145,"time":228.05338541666666,"type":"noteOn","velocity":68},{"channel":0,"nextOffset":14339,"note":72,"tick":175241,"time":228.17838541666666,"type":"noteOff","velocity":0},{"channel":0,"nextOffset":14343,"note":69,"tick":175241,"time":228.17838541666666,"type":"noteOn","velocity":68},{"channel":0,"nextOffset":14347,"note":45,"tick":175241,"time":228.17838541666666,"type":"noteOn","velocity":68},{"channel":0,"nextOffset":14351,"note":69,"tick":175337,"time":228.30338541666666,"type":"noteOff","velocity":0},{"channel":0,"nextOffset":14355,"note":67,"tick":175337,"time":228.30338541666666,"type":"noteOn","velocity":68},{"channel":0,"nextOffset":14359,"note":45,"tick":175433,"time":228.42838541666666,"type":"noteOff","velocity":0},{"channel":0,"nextOffset":14363,"note":67,"tick":175433,"time":228.42838541666666,"type":"noteOff","velocity":0},{"channel":0,"nextOffset":14367,"note":69,"tick":175433,"time":228.42838541666666,"type":"noteOn","velocity":68},{"channel":0,"nextOffset":14371,"note":50,"tick":175433,"time":228.42838541666666,"type":"noteOn","velocity":68},{"channel":0,"nextOffset":14375,"note":69,"tick":175529,"time":228.55338541666666,"type":"noteOff","velocity":0},{"channel":0,"nextOffset":14379,"note":62,"tick":175529,"time":228.55338541666666,"type":"noteOn","velocity":68},{"channel":0,"nextOffset":14383,"note":50,"tick":175625,"time":228.67838541666666,"type":"noteOff","velocity":0},{"channel":0,"nextOffset":14387,"note":62,"tick":175625,"time":228.67838541666666,"type":"noteOff","velocity":0},{"channel":0,"nextOffset":14391,"note":60,"tick":175625,"time":228.67838541666666,"type":"noteOn","velocity":68},{"channel":0,"nextOffset":14395,"note":38,"tick":175625,"time":228.67838541666666,"type":"noteOn","velocity":68},{"channel":0,"nextOffset":14399,"note":60,"tick":175721,"time":228.80338541666666,"type":"noteOff","velocity":0},{"channel":0,"nextOffset":14403,"note":65,"tick":175721,"time":228.80338541666666,"type":"noteOn","velocity":68},{"channel":0,"nextOffset":14407,"note":38,"tick":175817,"time":228.92838541666666,"type":"noteOff","velocity":0},{"channel":0,"nextOffset":14411,"note":65,"tick":175817,"time":228.92838541666666,"type":"noteOff","velocity":0},{"channel":0,"nextOffset":14415,"note":64,"tick":175817,"time":228.92838541666666,"type":"noteOn","velocity":68},{"channel":0,"nextOffset":14419,"note":60,"tick":175817,"time":228.92838541666666,"type":"noteOn","velocity":68},{"channel":0,"nextOffset":14423,"note":69,"tick":175817,"time":228.92838541666666,"type":"noteOn","velocity":68},{"channel":0,"nextOffset":14427,"note":45,"tick":175817,"time":228.92838541666666,"type":"noteOn","velocity":68},{"channel":0,"nextOffset":14432,"note":45,"tick":176009,"time":229.17838541666666,"type":"noteOff","velocity":0},{"channel":0,"nextOffset":14436,"note":69,"tick":176009,"time":229.17838541666666,"type":"noteOff","velocity":0},{"channel":0,"nextOffset":14440,"note":60,"tick":176009,"time":229.17838541666666,"type":"noteOff","velocity":0},{"channel":0,"nextOffset":14444,"note":64,"tick":176009,"time":229.17838541666666,"type":"noteOff","velocity":0},{"channel":0,"nextOffset":14448,"note":59,"tick":176009,"time":229.17838541666666,"type":"noteOn","velocity":68},{"channel":0,"nextOffset":14452,"note":63,"tick":176009,"time":229.17838541666666,"type":"noteOn","velocity":68},{"channel":0,"nextOffset":14456,"note":68,"tick":176009,"time":229.17838541666666,"type":"noteOn","velocity":68},{"channel":0,"nextOffset":14460,"note":44,"tick":176009,"time":229.17838541666666,"type":"noteOn","velocity":68},{"channel":0,"nextOffset":14465,"note":44,"tick":176201,"time":229.42838541666666,"type":"noteOff","velocity":0},{"channel":0,"nextOffset":14469,"note":68,"tick":176201,"time":229.42838541666666,"type":"noteOff","velocity":0},{"channel":0,"nextOffset":14473,"note":63,"tick":176201,"time":229.42838541666666,"type":"noteOff","velocity":0},{"channel":0,"nextOffset":14477,"note":59,"tick":176201,"time":229.42838541666666,"type":"noteOff","velocity":0},{"channel":0,"nextOffset":14481,"note":43,"tick":176201,"time":229.42838541666666,"type":"noteOn","velocity":68},{"channel":0,"nextOffset":14485,"note":58,"tick":176201,"time":229.42838541666666,"type":"noteOn","velocity":68},{"channel":0,"nextOffset":14489,"note":62,"tick":176201,"time":229.42838541666666,"type":"noteOn","velocity":68},{"channel":0,"nextOffset":14493,"note":65,"tick":176201,"time":229.42838541666666,"type":"noteOn","velocity":68},{"channel":0,"nextOffset":14497,"note":69,"tick":176201,"time":229.42838541666666,"type":"noteOn","velocity":68},{"channel":0,"nextOffset":14502,"note":43,"tick":176393,"time":229.67838541666666,"type":"noteOff","velocity":0},{"channel":0,"nextOffset":14506,"note":50,"tick":176393,"time":229.67838541666666,"type":"noteOn","velocity":68},{"channel":0,"nextOffset":14511,"note":69,"tick":176585,"time":229.92838541666666,"type":"noteOff","velocity":0},{"channel":0,"nextOffset":14515,"note":65,"tick":176585,"time":229.92838541666666,"type":"noteOff","velocity":0},{"channel":0,"nextOffset":14519,"note":62,"tick":176585,"time":229.92838541666666,"type":"noteOff","velocity":0},{"channel":0,"nextOffset":14523,"note":58,"tick":176585,"time":229.92838541666666,"type":"noteOff","velocity":0},{"channel":0,"nextOffset":14527,"note":50,"tick":176585,"time":229.92838541666666,"type":"noteOff","velocity":0},{"channel":0,"nextOffset":14531,"note":43,"tick":176585,"time":229.92838541666666,"type":"noteOn","velocity":68},{"channel":0,"nextOffset":14536,"note":43,"tick":176777,"time":230.17838541666666,"type":"noteOff","velocity":0},{"channel":0,"nextOffset":14540,"note":44,"tick":176777,"time":230.17838541666666,"type":"noteOn","velocity":68},{"channel":0,"nextOffset":14544,"note":65,"tick":176777,"time":230.17838541666666,"type":"noteOn","velocity":68},{"channel":0,"nextOffset":14548,"note":65,"tick":176873,"time":230.30338541666666,"type":"noteOff","velocity":0},{"channel":0,"nextOffset":14552,"note":69,"tick":176873,"time":230.30338541666666,"type":"noteOn","velocity":68},{"channel":0,"nextOffset":14556,"note":44,"tick":176969,"time":230.42838541666666,"type":"noteOff","velocity":0},{"channel":0,"nextOffset":14560,"note":69,"tick":176969,"time":230.42838541666666,"type":"noteOff","velocity":0},{"channel":0,"nextOffset":14564,"note":45,"tick":176969,"time":230.42838541666666,"type":"noteOn","velocity":68},{"channel":0,"nextOffset":14568,"note":72,"tick":176969,"time":230.42838541666666,"type":"noteOn","velocity":68},{"channel":0,"nextOffset":14572,"note":67,"tick":176969,"time":230.42838541666666,"type":"noteOn","velocity":68},{"channel":0,"nextOffset":14576,"note":64,"tick":176969,"time":230.42838541666666,"type":"noteOn","velocity":68},{"channel":0,"nextOffset":14580,"note":60,"tick":176969,"time":230.42838541666666,"type":"noteOn","velocity":68},{"channel":0,"nextOffset":14585,"note":60,"tick":177161,"time":230.67838541666666,"type":"noteOff","velocity":0},{"channel":0,"nextOffset":14589,"note":64,"tick":177161,"time":230.67838541666666,"type":"noteOff","velocity":0},{"channel":0,"nextOffset":14593,"note":67,"tick":177161,"time":230.67838541666666,"type":"noteOff","velocity":0},{"channel":0,"nextOffset":14597,"note":72,"tick":177161,"time":230.67838541666666,"type":"noteOff","velocity":0},{"channel":0,"nextOffset":14601,"note":45,"tick":177161,"time":230.67838541666666,"type":"noteOff","velocity":0},{"channel":0,"nextOffset":14605,"note":45,"tick":177257,"time":230.80338541666666,"type":"noteOn","velocity":68},{"channel":0,"nextOffset":14609,"note":61,"tick":177257,"time":230.80338541666666,"type":"noteOn","velocity":68},{"channel":0,"nextOffset":14613,"note":65,"tick":177257,"time":230.80338541666666,"type":"noteOn","velocity":68},{"channel":0,"nextOffset":14617,"note":67,"tick":177257,"time":230.80338541666666,"type":"noteOn","velocity":68},{"channel":0,"nextOffset":14621,"note":70,"tick":177257,"time":230.80338541666666,"type":"noteOn","velocity":68},{"channel":0,"nextOffset":14625,"note":45,"tick":177353,"time":230.92838541666666,"type":"noteOff","velocity":0},{"channel":0,"nextOffset":14629,"note":70,"tick":177449,"time":231.05338541666666,"type":"noteOff","velocity":0},{"channel":0,"nextOffset":14633,"note":67,"tick":177449,"time":231.05338541666666,"type":"noteOff","velocity":0},{"channel":0,"nextOffset":14637,"note":65,"tick":177449,"time":231.05338541666666,"type":"noteOff","velocity":0},{"channel":0,"nextOffset":14641,"note":61,"tick":177449,"time":231.05338541666666,"type":"noteOff","velocity":0},{"channel":0,"nextOffset":14645,"note":38,"tick":177545,"time":231.17838541666666,"type":"noteOn","velocity":68},{"channel":0,"nextOffset":14649,"note":60,"tick":177545,"time":231.17838541666666,"type":"noteOn","velocity":68},{"channel":0,"nextOffset":14653,"note":64,"tick":177545,"time":231.17838541666666,"type":"noteOn","velocity":68},{"channel":0,"nextOffset":14657,"note":65,"tick":177545,"time":231.17838541666666,"type":"noteOn","velocity":68},{"channel":0,"nextOffset":14661,"note":69,"tick":177545,"time":231.17838541666666,"type":"noteOn","velocity":68},{"channel":0,"nextOffset":14666,"note":69,"tick":177737,"time":231.42838541666666,"type":"noteOff","velocity":0},{"channel":0,"nextOffset":14670,"note":65,"tick":177737,"time":231.42838541666666,"type":"noteOff","velocity":0},{"channel":0,"nextOffset":14674,"note":64,"tick":177737,"time":231.42838541666666,"type":"noteOff","velocity":0},{"channel":0,"nextOffset":14678,"note":60,"tick":177737,"time":231.42838541666666,"type":"noteOff","velocity":0},{"channel":0,"nextOffset":14682,"note":38,"tick":177737,"time":231.42838541666666,"type":"noteOff","velocity":0},{"channel":0,"nextOffset":14686,"note":76,"tick":177737,"time":231.42838541666666,"type":"noteOn","velocity":68},{"channel":0,"nextOffset":14690,"note":76,"tick":177833,"time":231.55338541666666,"type":"noteOff","velocity":0},{"channel":0,"nextOffset":14694,"note":77,"tick":177833,"time":231.55338541666666,"type":"noteOn","velocity":68},{"channel":0,"nextOffset":14698,"note":77,"tick":177929,"time":231.67838541666666,"type":"noteOff","velocity":0},{"channel":0,"nextOffset":14702,"note":76,"tick":177929,"time":231.67838541666666,"type":"noteOn","velocity":68},{"channel":0,"nextOffset":14706,"note":76,"tick":178025,"time":231.80338541666666,"type":"noteOff","velocity":0},{"channel":0,"nextOffset":14710,"note":72,"tick":178025,"time":231.80338541666666,"type":"noteOn","velocity":68},{"channel":0,"nextOffset":14714,"note":72,"tick":178121,"time":231.92838541666666,"type":"noteOff","velocity":0},{"channel":0,"nextOffset":14718,"note":76,"tick":178121,"time":231.92838541666666,"type":"noteOn","velocity":68},{"channel":0,"nextOffset":14722,"note":76,"tick":178217,"time":232.05338541666666,"type":"noteOff","velocity":0},{"channel":0,"nextOffset":14726,"note":72,"tick":178217,"time":232.05338541666666,"type":"noteOn","velocity":68},{"channel":0,"nextOffset":14730,"note":72,"tick":178313,"time":232.17838541666666,"type":"noteOff","velocity":0},{"channel":0,"nextOffset":14734,"note":69,"tick":178313,"time":232.17838541666666,"type":"noteOn","velocity":68},{"channel":0,"nextOffset":14738,"note":45,"tick":178313,"time":232.17838541666666,"type":"noteOn","velocity":68},{"channel":0,"nextOffset":14742,"note":69,"tick":178409,"time":232.30338541666666,"type":"noteOff","velocity":0},{"channel":0,"nextOffset":14746,"note":67,"tick":178409,"time":232.30338541666666,"type":"noteOn","velocity":68},{"channel":0,"nextOffset":14750,"note":45,"tick":178505,"time":232.42838541666666,"type":"noteOff","velocity":0},{"channel":0,"nextOffset":14754,"note":67,"tick":178505,"time":232.42838541666666,"type":"noteOff","velocity":0},{"channel":0,"nextOffset":14758,"note":69,"tick":178505,"time":232.42838541666666,"type":"noteOn","velocity":68},{"channel":0,"nextOffset":14762,"note":50,"tick":178505,"time":232.42838541666666,"type":"noteOn","velocity":68},{"channel":0,"nextOffset":14766,"note":69,"tick":178601,"time":232.55338541666666,"type":"noteOff","velocity":0},{"channel":0,"nextOffset":14770,"note":62,"tick":178601,"time":232.55338541666666,"type":"noteOn","velocity":68},{"channel":0,"nextOffset":14774,"note":50,"tick":178697,"time":232.67838541666666,"type":"noteOff","velocity":0},{"channel":0,"nextOffset":14778,"note":62,"tick":178697,"time":232.67838541666666,"type":"noteOff","velocity":0},{"channel":0,"nextOffset":14782,"note":60,"tick":178697,"time":232.67838541666666,"type":"noteOn","velocity":68},{"channel":0,"nextOffset":14786,"note":38,"tick":178697,"time":232.67838541666666,"type":"noteOn","velocity":68},{"channel":0,"nextOffset":14790,"note":60,"tick":178793,"time":232.80338541666666,"type":"noteOff","velocity":0},{"channel":0,"nextOffset":14794,"note":65,"tick":178793,"time":232.80338541666666,"type":"noteOn","velocity":68},{"channel":0,"nextOffset":14798,"note":38,"tick":178889,"time":232.92838541666666,"type":"noteOff","velocity":0},{"channel":0,"nextOffset":14802,"note":65,"tick":178889,"time":232.92838541666666,"type":"noteOff","velocity":0},{"channel":0,"nextOffset":14806,"note":64,"tick":178889,"time":232.92838541666666,"type":"noteOn","velocity":68},{"channel":0,"nextOffset":14810,"note":60,"tick":178889,"time":232.92838541666666,"type":"noteOn","velocity":68},{"channel":0,"nextOffset":14814,"note":69,"tick":178889,"time":232.92838541666666,"type":"noteOn","velocity":68},{"channel":0,"nextOffset":14818,"note":45,"tick":178889,"time":232.92838541666666,"type":"noteOn","velocity":68},{"channel":0,"nextOffset":14823,"note":45,"tick":179081,"time":233.17838541666666,"type":"noteOff","velocity":0},{"channel":0,"nextOffset":14827,"note":69,"tick":179081,"time":233.17838541666666,"type":"noteOff","velocity":0},{"channel":0,"nextOffset":14831,"note":60,"tick":179081,"time":233.17838541666666,"type":"noteOff","velocity":0},{"channel":0,"nextOffset":14835,"note":64,"tick":179081,"time":233.17838541666666,"type":"noteOff","velocity":0},{"channel":0,"nextOffset":14839,"note":59,"tick":179081,"time":233.17838541666666,"type":"noteOn","velocity":68},{"channel":0,"nextOffset":14843,"note":63,"tick":179081,"time":233.17838541666666,"type":"noteOn","velocity":68},{"channel":0,"nextOffset":14847,"note":68,"tick":179081,"time":233.17838541666666,"type":"noteOn","velocity":68},{"channel":0,"nextOffset":14851,"note":44,"tick":179081,"time":233.17838541666666,"type":"noteOn","velocity":68},{"channel":0,"nextOffset":14856,"note":44,"tick":179273,"time":233.42838541666666,"type":"noteOff","velocity":0},{"channel":0,"nextOffset":14860,"note":68,"tick":179273,"time":233.42838541666666,"type":"noteOff","velocity":0},{"channel":0,"nextOffset":14864,"note":63,"tick":179273,"time":233.42838541666666,"type":"noteOff","velocity":0},{"channel":0,"nextOffset":14868,"note":59,"tick":179273,"time":233.42838541666666,"type":"noteOff","velocity":0},{"channel":0,"nextOffset":14872,"note":43,"tick":179273,"time":233.42838541666666,"type":"noteOn","velocity":68},{"channel":0,"nextOffset":14876,"note":58,"tick":179273,"time":233.42838541666666,"type":"noteOn","velocity":68},{"channel":0,"nextOffset":14880,"note":62,"tick":179273,"time":233.42838541666666,"type":"noteOn","velocity":68},{"channel":0,"nextOffset":14884,"note":65,"tick":179273,"time":233.42838541666666,"type":"noteOn","velocity":68},{"channel":0,"nextOffset":14888,"note":69,"tick":179273,"time":233.42838541666666,"type":"noteOn","velocity":68},{"channel":0,"nextOffset":14893,"note":43,"tick":179465,"time":233.67838541666666,"type":"noteOff","velocity":0},{"channel":0,"nextOffset":14897,"note":50,"tick":179465,"time":233.67838541666666,"type":"noteOn","velocity":68},{"channel":0,"nextOffset":14902,"note":69,"tick":179657,"time":233.92838541666666,"type":"noteOff","velocity":0},{"channel":0,"nextOffset":14906,"note":65,"tick":179657,"time":233.92838541666666,"type":"noteOff","velocity":0},{"channel":0,"nextOffset":14910,"note":62,"tick":179657,"time":233.92838541666666,"type":"noteOff","velocity":0},{"channel":0,"nextOffset":14914,"note":58,"tick":179657,"time":233.92838541666666,"type":"noteOff","velocity":0},{"channel":0,"nextOffset":14918,"note":50,"tick":179657,"time":233.92838541666666,"type":"noteOff","velocity":0},{"channel":0,"nextOffset":14922,"note":43,"tick":179657,"time":233.92838541666666,"type":"noteOn","velocity":68},{"channel":0,"nextOffset":14927,"note":43,"tick":179849,"time":234.17838541666666,"type":"noteOff","velocity":0},{"channel":0,"nextOffset":14931,"note":44,"tick":179849,"time":234.17838541666666,"type":"noteOn","velocity":68},{"channel":0,"nextOffset":14935,"note":65,"tick":179849,"time":234.17838541666666,"type":"noteOn","velocity":68},{"channel":0,"nextOffset":14939,"note":65,"tick":179945,"time":234.30338541666666,"type":"noteOff","velocity":0},{"channel":0,"nextOffset":14943,"note":69,"tick":179945,"time":234.30338541666666,"type":"noteOn","velocity":68},{"channel":0,"nextOffset":14947,"note":44,"tick":180041,"time":234.42838541666666,"type":"noteOff","velocity":0},{"channel":0,"nextOffset":14951,"note":69,"tick":180041,"time":234.42838541666666,"type":"noteOff","velocity":0},{"channel":0,"nextOffset":14955,"note":45,"tick":180041,"time":234.42838541666666,"type":"noteOn","velocity":68},{"channel":0,"nextOffset":14959,"note":72,"tick":180041,"time":234.42838541666666,"type":"noteOn","velocity":68},{"channel":0,"nextOffset":14963,"note":67,"tick":180041,"time":234.42838541666666,"type":"noteOn","velocity":68},{"channel":0,"nextOffset":14967,"note":64,"tick":180041,"time":234.42838541666666,"type":"noteOn","velocity":68},{"channel":0,"nextOffset":14971,"note":60,"tick":180041,"time":234.42838541666666,"type":"noteOn","velocity":68},{"channel":0,"nextOffset":14976,"note":60,"tick":180233,"time":234.67838541666666,"type":"noteOff","velocity":0},{"channel":0,"nextOffset":14980,"note":64,"tick":180233,"time":234.67838541666666,"type":"noteOff","velocity":0},{"channel":0,"nextOffset":14984,"note":67,"tick":180233,"time":234.67838541666666,"type":"noteOff","velocity":0},{"channel":0,"nextOffset":14988,"note":72,"tick":180233,"time":234.67838541666666,"type":"noteOff","velocity":0},{"channel":0,"nextOffset":14992,"note":45,"tick":180233,"time":234.67838541666666,"type":"noteOff","velocity":0},{"channel":0,"nextOffset":14996,"note":45,"tick":180329,"time":234.80338541666666,"type":"noteOn","velocity":68},{"channel":0,"nextOffset":15000,"note":61,"tick":180329,"time":234.80338541666666,"type":"noteOn","velocity":68},{"channel":0,"nextOffset":15004,"note":67,"tick":180329,"time":234.80338541666666,"type":"noteOn","velocity":68},{"channel":0,"nextOffset":15008,"note":72,"tick":180329,"time":234.80338541666666,"type":"noteOn","velocity":68},{"channel":0,"nextOffset":15012,"note":75,"tick":180329,"time":234.80338541666666,"type":"noteOn","velocity":68},{"channel":0,"nextOffset":15016,"note":45,"tick":180425,"time":234.92838541666666,"type":"noteOff","velocity":0},{"channel":0,"nextOffset":15020,"note":75,"tick":180521,"time":235.05338541666666,"type":"noteOff","velocity":0},{"channel":0,"nextOffset":15024,"note":72,"tick":180521,"time":235.05338541666666,"type":"noteOff","velocity":0},{"channel":0,"nextOffset":15028,"note":67,"tick":180521,"time":235.05338541666666,"type":"noteOff","velocity":0},{"channel":0,"nextOffset":15032,"note":61,"tick":180521,"time":235.05338541666666,"type":"noteOff","velocity":0},{"channel":0,"nextOffset":15036,"note":64,"tick":180617,"time":235.17838541666666,"type":"noteOn","velocity":68},{"channel":0,"nextOffset":15040,"note":65,"tick":180617,"time":235.17838541666666,"type":"noteOn","velocity":68},{"channel":0,"nextOffset":15044,"note":69,"tick":180617,"time":235.17838541666666,"type":"noteOn","velocity":68},{"channel":0,"nextOffset":15048,"note":74,"tick":180617,"time":235.17838541666666,"type":"noteOn","velocity":68},{"channel":0,"nextOffset":15053,"note":74,"tick":180809,"time":235.42838541666666,"type":"noteOff","velocity":0},{"channel":0,"nextOffset":15057,"note":69,"tick":180809,"time":235.42838541666666,"type":"noteOff","velocity":0},{"channel":0,"nextOffset":15061,"note":65,"tick":180809,"time":235.42838541666666,"type":"noteOff","velocity":0},{"channel":0,"nextOffset":15065,"note":64,"tick":180809,"time":235.42838541666666,"type":"noteOff","velocity":0},{"channel":0,"nextOffset":15069,"note":74,"tick":180809,"time":235.42838541666666,"type":"noteOn","velocity":68},{"channel":0,"nextOffset":15073,"note":74,"tick":180905,"time":235.55338541666666,"type":"noteOff","velocity":0},{"channel":0,"nextOffset":15077,"note":76,"tick":180905,"time":235.55338541666666,"type":"noteOn","velocity":68},{"channel":0,"nextOffset":15081,"note":76,"tick":181001,"time":235.67838541666666,"type":"noteOff","velocity":0},{"channel":0,"nextOffset":15085,"note":38,"tick":181001,"time":235.67838541666666,"type":"noteOn","velocity":68},{"channel":0,"nextOffset":15089,"note":38,"tick":181001,"time":235.67838541666666,"type":"noteOn","velocity":68},{"channel":0,"nextOffset":15093,"note":77,"tick":181001,"time":235.67838541666666,"type":"noteOn","velocity":68},{"channel":0,"nextOffset":15097,"note":77,"tick":181097,"time":235.80338541666666,"type":"noteOff","velocity":0},{"channel":0,"nextOffset":15101,"note":79,"tick":181097,"time":235.80338541666666,"type":"noteOn","velocity":68},{"channel":0,"nextOffset":15105,"note":38,"tick":181193,"time":235.92838541666666,"type":"noteOff","velocity":0},{"channel":0,"nextOffset":15109,"note":38,"tick":181193,"time":235.92838541666666,"type":"noteOff","velocity":0},{"channel":0,"nextOffset":15113,"note":79,"tick":181193,"time":235.92838541666666,"type":"noteOff","velocity":0},{"channel":0,"nextOffset":15117,"note":74,"tick":181193,"time":235.92838541666666,"type":"noteOn","velocity":68},{"channel":0,"nextOffset":15121,"note":74,"tick":181241,"time":235.99088541666666,"type":"noteOff","velocity":0},{"channel":0,"nextOffset":15125,"note":76,"tick":181241,"time":235.99088541666666,"type":"noteOn","velocity":68},{"channel":0,"nextOffset":15130,"note":76,"tick":181385,"time":236.17838541666666,"type":"noteOff","velocity":0},{"channel":0,"nextOffset":15134,"note":72,"tick":181385,"time":236.17838541666666,"type":"noteOn","velocity":68},{"channel":0,"nextOffset":15138,"note":50,"tick":181385,"time":236.17838541666666,"type":"noteOn","velocity":68},{"channel":0,"nextOffset":15142,"note":72,"tick":181481,"time":236.30338541666666,"type":"noteOff","velocity":0},{"channel":0,"nextOffset":15146,"note":74,"tick":181481,"time":236.30338541666666,"type":"noteOn","velocity":68},{"channel":0,"nextOffset":15150,"note":50,"tick":181577,"time":236.42838541666666,"type":"noteOff","velocity":0},{"channel":0,"nextOffset":15154,"note":74,"tick":181577,"time":236.42838541666666,"type":"noteOff","velocity":0},{"channel":0,"nextOffset":15159,"note":45,"tick":181769,"time":236.67838541666666,"type":"noteOn","velocity":68},{"channel":0,"nextOffset":15164,"note":45,"tick":181961,"time":236.92838541666666,"type":"noteOff","velocity":0},{"channel":0,"nextOffset":15168,"note":77,"tick":181961,"time":236.92838541666666,"type":"noteOn","velocity":68},{"channel":0,"nextOffset":15172,"note":81,"tick":181961,"time":236.92838541666666,"type":"noteOn","velocity":68},{"channel":0,"nextOffset":15176,"note":84,"tick":181961,"time":236.92838541666666,"type":"noteOn","velocity":68},{"channel":0,"nextOffset":15180,"note":88,"tick":181961,"time":236.92838541666666,"type":"noteOn","velocity":68},{"channel":0,"nextOffset":15184,"note":77,"tick":181961,"time":236.92838541666666,"type":"noteOn","velocity":68},{"channel":0,"nextOffset":15188,"note":81,"tick":181961,"time":236.92838541666666,"type":"noteOn","velocity":68},{"channel":0,"nextOffset":15192,"note":84,"tick":181961,"time":236.92838541666666,"type":"noteOn","velocity":68},{"channel":0,"nextOffset":15196,"note":88,"tick":181961,"time":236.92838541666666,"type":"noteOn","velocity":68},{"channel":0,"nextOffset":15201,"note":88,"tick":182345,"time":237.42838541666666,"type":"noteOff","velocity":0},{"channel":0,"nextOffset":15205,"note":84,"tick":182345,"time":237.42838541666666,"type":"noteOff","velocity":0},{"channel":0,"nextOffset":15209,"note":81,"tick":182345,"time":237.42838541666666,"type":"noteOff","velocity":0},{"channel":0,"nextOffset":15213,"note":77,"tick":182345,"time":237.42838541666666,"type":"noteOff","velocity":0},{"channel":0,"nextOffset":15217,"note":88,"tick":182345,"time":237.42838541666666,"type":"noteOff","velocity":0},{"channel":0,"nextOffset":15221,"note":84,"tick":182345,"time":237.42838541666666,"type":"noteOff","velocity":0},{"channel":0,"nextOffset":15225,"note":81,"tick":182345,"time":237.42838541666666,"type":"noteOff","velocity":0},{"channel":0,"nextOffset":15229,"note":77,"tick":182345,"time":237.42838541666666,"type":"noteOff","velocity":0}],"tempo":500000,"tempoMap":[{"tempo":500000,"time":0}],"ticksPerQuarter":384,"timeSignature":{"clocksPerClick":24,"denominator":4,"numerator":4,"thirtysecondNotesPerBeat":8},"trimmedTicks":482},"notesRaw":[{"channel":3,"duration":0.1875,"durationBeats":0.49999999999999994,"durationTicks":480,"endBeat":0.5885416666666666,"endTick":565,"endTime":0.220703125,"note":46,"startBeat":0.08854166666666667,"startTick":85,"startTime":0.033203125,"velocity":18},{"channel":4,"duration":0.375,"durationBeats":1,"durationTicks":960,"endBeat":1,"endTick":960,"endTime":0.375,"note":69,"startBeat":0,"startTick":0,"startTime":0,"velocity":27},{"channel":4,"duration":0.375,"durationBeats":1,"durationTicks":960,"endBeat":1,"endTick":960,"endTime":0.375,"note":46,"startBeat":0,"startTick":0,"startTime":0,"velocity":27},{"channel":4,"duration":0.375,"durationBeats":1,"durationTicks":960,"endBeat":1,"endTick":960,"endTime":0.375,"note":70,"startBeat":0,"startTick":0,"startTime":0,"velocity":27},{"channel":4,"duration":0.375,"durationBeats":1,"durationTicks":960,"endBeat":1,"endTick":960,"endTime":0.375,"note":65,"startBeat":0,"startTick":0,"startTime":0,"velocity":27},{"channel":4,"duration":0.375,"durationBeats":1,"durationTicks":960,"endBeat":1,"endTick":960,"endTime":0.375,"note":62,"startBeat":0,"startTick":0,"startTime":0,"velocity":27},{"channel":3,"duration":0.375,"durationBeats":1,"durationTicks":960,"endBeat":1.0885416666666667,"endTick":1045,"endTime":0.408203125,"note":74,"startBeat":0.08854166666666667,"startTick":85,"startTime":0.033203125,"velocity":18},{"channel":3,"duration":0.375,"durationBeats":1,"durationTicks":960,"endBeat":1.0885416666666667,"endTick":1045,"endTime":0.408203125,"note":69,"startBeat":0.08854166666666667,"startTick":85,"startTime":0.033203125,"velocity":18},{"channel":3,"duration":0.375,"durationBeats":1,"durationTicks":960,"endBeat":1.0885416666666667,"endTick":1045,"endTime":0.408203125,"note":65,"startBeat":0.08854166666666667,"startTick":85,"startTime":0.033203125,"velocity":18},{"channel":3,"duration":0.375,"durationBeats":1,"durationTicks":960,"endBeat":1.0885416666666667,"endTick":1045,"endTime":0.408203125,"note":62,"startBeat":0.08854166666666667,"startTick":85,"startTime":0.033203125,"velocity":18},{"channel":3,"duration":0.1875,"durationBeats":0.5000000000000001,"durationTicks":480,"endBeat":1.0885416666666667,"endTick":1045,"endTime":0.408203125,"note":50,"startBeat":0.5885416666666666,"startTick":565,"startTime":0.220703125,"velocity":18},{"channel":4,"duration":0.1875,"durationBeats":0.5,"durationTicks":480,"endBeat":1.5,"endTick":1440,"endTime":0.5625,"note":65,"startBeat":1,"startTick":960,"startTime":0.375,"velocity":27},{"channel":4,"duration":0.1875,"durationBeats":0.5,"durationTicks":480,"endBeat":1.5,"endTick":1440,"endTime":0.5625,"note":43,"startBeat":1,"startTick":960,"startTime":0.375,"velocity":27},{"channel":3,"duration":0.1875,"durationBeats":0.5,"durationTicks":480,"endBeat":1.5885416666666667,"endTick":1525,"endTime":0.595703125,"note":41,"startBeat":1.0885416666666667,"startTick":1045,"startTime":0.408203125,"velocity":18},{"channel":4,"duration":0.28125,"durationBeats":0.75,"durationTicks":720,"endBeat":1.75,"endTick":1680,"endTime":0.65625,"note":69,"startBeat":1,"startTick":960,"startTime":0.375,"velocity":27},{"channel":4,"duration":0.09375,"durationBeats":0.25,"durationTicks":240,"endBeat":1.75,"endTick":1680,"endTime":0.65625,"note":65,"startBeat":1.5,"startTick":1440,"startTime":0.5625,"velocity":27},{"channel":4,"duration":0.375,"durationBeats":1,"durationTicks":960,"endBeat":2,"endTick":1920,"endTime":0.75,"note":62,"startBeat":1,"startTick":960,"startTime":0.375,"velocity":27},{"channel":4,"duration":0.375,"durationBeats":1,"durationTicks":960,"endBeat":2,"endTick":1920,"endTime":0.75,"note":70,"startBeat":1,"startTick":960,"startTime":0.375,"velocity":27},{"channel":4,"duration":0.1875,"durationBeats":0.5,"durationTicks":480,"endBeat":2,"endTick":1920,"endTime":0.75,"note":44,"startBeat":1.5,"startTick":1440,"startTime":0.5625,"velocity":27},{"channel":4,"duration":0.09375,"durationBeats":0.25,"durationTicks":240,"endBeat":2,"endTick":1920,"endTime":0.75,"note":69,"startBeat":1.75,"startTick":1680,"startTime":0.65625,"velocity":27},{"channel":3,"duration":0.375,"durationBeats":0.9999999999999998,"durationTicks":960,"endBeat":2.0885416666666665,"endTick":2005,"endTime":0.783203125,"note":74,"startBeat":1.0885416666666667,"startTick":1045,"startTime":0.408203125,"velocity":18},{"channel":3,"duration":0.375,"durationBeats":0.9999999999999998,"durationTicks":960,"endBeat":2.0885416666666665,"endTick":2005,"endTime":0.783203125,"note":69,"startBeat":1.0885416666666667,"startTick":1045,"startTime":0.408203125,"velocity":18},{"channel":3,"duration":0.375,"durationBeats":0.9999999999999998,"durationTicks":960,"endBeat":2.0885416666666665,"endTick":2005,"endTime":0.783203125,"note":65,"startBeat":1.0885416666666667,"startTick":1045,"startTime":0.408203125,"velocity":18},{"channel":3,"duration":0.375,"durationBeats":0.9999999999999998,"durationTicks":960,"endBeat":2.0885416666666665,"endTick":2005,"endTime":0.783203125,"note":62,"startBeat":1.0885416666666667,"startTick":1045,"startTime":0.408203125,"velocity":18},{"channel":3,"duration":0.1875,"durationBeats":0.4999999999999998,"durationTicks":480,"endBeat":2.0885416666666665,"endTick":2005,"endTime":0.783203125,"note":44,"startBeat":1.5885416666666667,"startTick":1525,"startTime":0.595703125,"velocity":18},{"channel":4,"duration":0.1875,"durationBeats":0.5,"durationTicks":480,"endBeat":2.5,"endTick":2400,"endTime":0.9375,"note":45,"startBeat":2,"startTick":1920,"startTime":0.75,"velocity":27},{"channel":4,"duration":0.1875,"durationBeats":0.5,"durationTicks":480,"endBeat":2.5,"endTick":2400,"endTime":0.9375,"note":69,"startBeat":2,"startTick":1920,"startTime":0.75,"velocity":27},{"channel":4,"duration":0.1875,"durationBeats":0.5,"durationTicks":480,"endBeat":2.5,"endTick":2400,"endTime":0.9375,"note":64,"startBeat":2,"startTick":1920,"startTime":0.75,"velocity":27},{"channel":4,"duration":0.1875,"durationBeats":0.5,"durationTicks":480,"endBeat":2.5,"endTick":2400,"endTime":0.9375,"note":61,"startBeat":2,"startTick":1920,"startTime":0.75,"velocity":27},{"channel":3,"duration":0.1875,"durationBeats":0.5,"durationTicks":480,"endBeat":2.5885416666666665,"endTick":2485,"endTime":0.970703125,"note":73,"startBeat":2.0885416666666665,"startTick":2005,"startTime":0.783203125,"velocity":18},{"channel":3,"duration":0.1875,"durationBeats":0.5,"durationTicks":480,"endBeat":2.5885416666666665,"endTick":2485,"endTime":0.970703125,"note":45,"startBeat":2.0885416666666665,"startTick":2005,"startTime":0.783203125,"velocity":18},{"channel":3,"duration":0.1875,"durationBeats":0.5,"durationTicks":480,"endBeat":2.5885416666666665,"endTick":2485,"endTime":0.970703125,"note":69,"startBeat":2.0885416666666665,"startTick":2005,"startTime":0.783203125,"velocity":18},{"channel":3,"duration":0.1875,"durationBeats":0.5,"durationTicks":480,"endBeat":2.5885416666666665,"endTick":2485,"endTime":0.970703125,"note":64,"startBeat":2.0885416666666665,"startTick":2005,"startTime":0.783203125,"velocity":18},{"channel":3,"duration":0.1875,"durationBeats":0.5,"durationTicks":480,"endBeat":2.5885416666666665,"endTick":2485,"endTime":0.970703125,"note":61,"startBeat":2.0885416666666665,"startTick":2005,"startTime":0.783203125,"velocity":18},{"channel":4,"duration":0.09375,"durationBeats":0.25,"durationTicks":240,"endBeat":3,"endTick":2880,"endTime":1.125,"note":40,"startBeat":2.75,"startTick":2640,"startTime":1.03125,"velocity":27},{"channel":3,"duration":0.09375,"durationBeats":0.25,"durationTicks":240,"endBeat":3.0885416666666665,"endTick":2965,"endTime":1.158203125,"note":45,"startBeat":2.8385416666666665,"startTick":2725,"startTime":1.064453125,"velocity":18},{"channel":4,"duration":0.1875,"durationBeats":0.5,"durationTicks":480,"endBeat":3.25,"endTick":3120,"endTime":1.21875,"note":73,"startBeat":2.75,"startTick":2640,"startTime":1.03125,"velocity":27},{"channel":4,"duration":0.1875,"durationBeats":0.5,"durationTicks":480,"endBeat":3.25,"endTick":3120,"endTime":1.21875,"note":70,"startBeat":2.75,"startTick":2640,"startTime":1.03125,"velocity":27},{"channel":4,"duration":0.1875,"durationBeats":0.5,"durationTicks":480,"endBeat":3.25,"endTick":3120,"endTime":1.21875,"note":67,"startBeat":2.75,"startTick":2640,"startTime":1.03125,"velocity":27},{"channel":4,"duration":0.1875,"durationBeats":0.5,"durationTicks":480,"endBeat":3.25,"endTick":3120,"endTime":1.21875,"note":69,"startBeat":2.75,"startTick":2640,"startTime":1.03125,"velocity":27},{"channel":4,"duration":0.1875,"durationBeats":0.5,"durationTicks":480,"endBeat":3.25,"endTick":3120,"endTime":1.21875,"note":64,"startBeat":2.75,"startTick":2640,"startTime":1.03125,"velocity":27},{"channel":4,"duration":0.1875,"durationBeats":0.5,"durationTicks":480,"endBeat":3.25,"endTick":3120,"endTime":1.21875,"note":61,"startBeat":2.75,"startTick":2640,"startTime":1.03125,"velocity":27},{"channel":3,"duration":0.1875,"durationBeats":0.5,"durationTicks":480,"endBeat":3.3385416666666665,"endTick":3205,"endTime":1.251953125,"note":70,"startBeat":2.8385416666666665,"startTick":2725,"startTime":1.064453125,"velocity":18},{"channel":3,"duration":0.1875,"durationBeats":0.5,"durationTicks":480,"endBeat":3.3385416666666665,"endTick":3205,"endTime":1.251953125,"note":67,"startBeat":2.8385416666666665,"startTick":2725,"startTime":1.064453125,"velocity":18},{"channel":3,"duration":0.1875,"durationBeats":0.5,"durationTicks":480,"endBeat":3.3385416666666665,"endTick":3205,"endTime":1.251953125,"note":69,"startBeat":2.8385416666666665,"startTick":2725,"startTime":1.064453125,"velocity":18},{"channel":3,"duration":0.1875,"durationBeats":0.5,"durationTicks":480,"endBeat":3.3385416666666665,"endTick":3205,"endTime":1.251953125,"note":64,"startBeat":2.8385416666666665,"startTick":2725,"startTime":1.064453125,"velocity":18},{"channel":3,"duration":0.1875,"durationBeats":0.5,"durationTicks":480,"endBeat":3.3385416666666665,"endTick":3205,"endTime":1.251953125,"note":61,"startBeat":2.8385416666666665,"startTick":2725,"startTime":1.064453125,"velocity":18},{"channel":3,"duration":0.1875,"durationBeats":0.5000000000000004,"durationTicks":480,"endBeat":4.088541666666667,"endTick":3925,"endTime":1.533203125,"note":69,"startBeat":3.5885416666666665,"startTick":3445,"startTime":1.345703125,"velocity":18},{"channel":3,"duration":0.1875,"durationBeats":0.5000000000000004,"durationTicks":480,"endBeat":4.088541666666667,"endTick":3925,"endTime":1.533203125,"note":65,"startBeat":3.5885416666666665,"startTick":3445,"startTime":1.345703125,"velocity":18},{"channel":3,"duration":0.1875,"durationBeats":0.5000000000000004,"durationTicks":480,"endBeat":4.088541666666667,"endTick":3925,"endTime":1.533203125,"note":62,"startBeat":3.5885416666666665,"startTick":3445,"startTime":1.345703125,"velocity":18},{"channel":4,"duration":0.09375,"durationBeats":0.25,"durationTicks":240,"endBeat":4.25,"endTick":4080,"endTime":1.59375,"note":76,"startBeat":4,"startTick":3840,"startTime":1.5,"velocity":27},{"channel":4,"duration":0.09375,"durationBeats":0.25,"durationTicks":240,"endBeat":4.5,"endTick":4320,"endTime":1.6875,"note":77,"startBeat":4.25,"startTick":4080,"startTime":1.59375,"velocity":27},{"channel":4,"duration":0.46875,"durationBeats":1.25,"durationTicks":1200,"endBeat":4.75,"endTick":4560,"endTime":1.78125,"note":72,"startBeat":3.5,"startTick":3360,"startTime":1.3125,"velocity":27},{"channel":4,"duration":0.09375,"durationBeats":0.25,"durationTicks":240,"endBeat":4.75,"endTick":4560,"endTime":1.78125,"note":76,"startBeat":4.5,"startTick":4320,"startTime":1.6875,"velocity":27},{"channel":4,"duration":0.09375,"durationBeats":0.25,"durationTicks":240,"endBeat":5,"endTick":4800,"endTime":1.875,"note":72,"startBeat":4.75,"startTick":4560,"startTime":1.78125,"velocity":27},{"channel":3,"duration":0.1875,"durationBeats":0.5,"durationTicks":480,"endBeat":5.088541666666667,"endTick":4885,"endTime":1.908203125,"note":72,"startBeat":4.588541666666667,"startTick":4405,"startTime":1.720703125,"velocity":18},{"channel":3,"duration":0.1875,"durationBeats":0.5,"durationTicks":480,"endBeat":5.088541666666667,"endTick":4885,"endTime":1.908203125,"note":60,"startBeat":4.588541666666667,"startTick":4405,"startTime":1.720703125,"velocity":18},{"channel":3,"duration":0.1875,"durationBeats":0.5,"durationTicks":480,"endBeat":5.088541666666667,"endTick":4885,"endTime":1.908203125,"note":70,"startBeat":4.588541666666667,"startTick":4405,"startTime":1.720703125,"velocity":18},{"channel":3,"duration":0.1875,"durationBeats":0.5,"durationTicks":480,"endBeat":5.088541666666667,"endTick":4885,"endTime":1.908203125,"note":65,"startBeat":4.588541666666667,"startTick":4405,"startTime":1.720703125,"velocity":18},{"channel":4,"duration":0.09375,"durationBeats":0.25,"durationTicks":240,"endBeat":5.25,"endTick":5040,"endTime":1.96875,"note":76,"startBeat":5,"startTick":4800,"startTime":1.875,"velocity":27},{"channel":4,"duration":0.75,"durationBeats":2,"durationTicks":1920,"endBeat":5.5,"endTick":5280,"endTime":2.0625,"note":38,"startBeat":3.5,"startTick":3360,"startTime":1.3125,"velocity":27},{"channel":4,"duration":0.75,"durationBeats":2,"durationTicks":1920,"endBeat":5.5,"endTick":5280,"endTime":2.0625,"note":69,"startBeat":3.5,"startTick":3360,"startTime":1.3125,"velocity":27},{"channel":4,"duration":0.09375,"durationBeats":0.25,"durationTicks":240,"endBeat":5.5,"endTick":5280,"endTime":2.0625,"note":72,"startBeat":5.25,"startTick":5040,"startTime":1.96875,"velocity":27},{"channel":3,"duration":0.75,"durationBeats":2.0000000000000004,"durationTicks":1920,"endBeat":5.588541666666667,"endTick":5365,"endTime":2.095703125,"note":38,"startBeat":3.5885416666666665,"startTick":3445,"startTime":1.345703125,"velocity":18},{"channel":4,"duration":0.09375,"durationBeats":0.25,"durationTicks":240,"endBeat":5.75,"endTick":5520,"endTime":2.15625,"note":69,"startBeat":5.5,"startTick":5280,"startTime":2.0625,"velocity":27},{"channel":3,"duration":0.1875,"durationBeats":0.5,"durationTicks":480,"endBeat":5.838541666666667,"endTick":5605,"endTime":2.189453125,"note":72,"startBeat":5.338541666666667,"startTick":5125,"startTime":2.001953125,"velocity":18},{"channel":3,"duration":0.1875,"durationBeats":0.5,"durationTicks":480,"endBeat":5.838541666666667,"endTick":5605,"endTime":2.189453125,"note":60,"startBeat":5.338541666666667,"startTick":5125,"startTime":2.001953125,"velocity":18},{"channel":3,"duration":0.1875,"durationBeats":0.5,"durationTicks":480,"endBeat":5.838541666666667,"endTick":5605,"endTime":2.189453125,"note":70,"startBeat":5.338541666666667,"startTick":5125,"startTime":2.001953125,"velocity":18},{"channel":3,"duration":0.1875,"durationBeats":0.5,"durationTicks":480,"endBeat":5.838541666666667,"endTick":5605,"endTime":2.189453125,"note":65,"startBeat":5.338541666666667,"startTick":5125,"startTime":2.001953125,"velocity":18},{"channel":4,"duration":0.1875,"durationBeats":0.5,"durationTicks":480,"endBeat":6,"endTick":5760,"endTime":2.25,"note":45,"startBeat":5.5,"startTick":5280,"startTime":2.0625,"velocity":27},{"channel":4,"duration":0.09375,"durationBeats":0.25,"durationTicks":240,"endBeat":6,"endTick":5760,"endTime":2.25,"note":67,"startBeat":5.75,"startTick":5520,"startTime":2.15625,"velocity":27},{"channel":3,"duration":0.1875,"durationBeats":0.5,"durationTicks":480,"endBeat":6.088541666666667,"endTick":5845,"endTime":2.283203125,"note":45,"startBeat":5.588541666666667,"startTick":5365,"startTime":2.095703125,"velocity":18},{"channel":4,"duration":1.03125,"durationBeats":2.75,"durationTicks":2640,"endBeat":6.25,"endTick":6000,"endTime":2.34375,"note":62,"startBeat":3.5,"startTick":3360,"startTime":1.3125,"velocity":27},{"channel":4,"duration":0.09375,"durationBeats":0.25,"durationTicks":240,"endBeat":6.25,"endTick":6000,"endTime":2.34375,"note":69,"startBeat":6,"startTick":5760,"startTime":2.25,"velocity":27},{"channel":4,"duration":0.1875,"durationBeats":0.5,"durationTicks":480,"endBeat":6.5,"endTick":6240,"endTime":2.4375,"note":50,"startBeat":6,"startTick":5760,"startTime":2.25,"velocity":27},{"channel":4,"duration":0.09375,"durationBeats":0.25,"durationTicks":240,"endBeat":6.5,"endTick":6240,"endTime":2.4375,"note":62,"startBeat":6.25,"startTick":6000,"startTime":2.34375,"velocity":27},{"channel":3,"duration":0.1875,"durationBeats":0.5,"durationTicks":480,"endBeat":6.588541666666667,"endTick":6325,"endTime":2.470703125,"note":72,"startBeat":6.088541666666667,"startTick":5845,"startTime":2.283203125,"velocity":18},{"channel":3,"duration":0.1875,"durationBeats":0.5,"durationTicks":480,"endBeat":6.588541666666667,"endTick":6325,"endTime":2.470703125,"note":60,"startBeat":6.088541666666667,"startTick":5845,"startTime":2.283203125,"velocity":18},{"channel":3,"duration":0.1875,"durationBeats":0.5,"durationTicks":480,"endBeat":6.588541666666667,"endTick":6325,"endTime":2.470703125,"note":69,"startBeat":6.088541666666667,"startTick":5845,"startTime":2.283203125,"velocity":18},{"channel":3,"duration":0.1875,"durationBeats":0.5,"durationTicks":480,"endBeat":6.588541666666667,"endTick":6325,"endTime":2.470703125,"note":65,"startBeat":6.088541666666667,"startTick":5845,"startTime":2.283203125,"velocity":18},{"channel":3,"duration":0.1875,"durationBeats":0.5,"durationTicks":480,"endBeat":6.588541666666667,"endTick":6325,"endTime":2.470703125,"note":50,"startBeat":6.088541666666667,"startTick":5845,"startTime":2.283203125,"velocity":18},{"channel":4,"duration":1.21875,"durationBeats":3.25,"durationTicks":3120,"endBeat":6.75,"endTick":6480,"endTime":2.53125,"note":65,"startBeat":3.5,"startTick":3360,"startTime":1.3125,"velocity":27},{"channel":4,"duration":0.09375,"durationBeats":0.25,"durationTicks":240,"endBeat":6.75,"endTick":6480,"endTime":2.53125,"note":60,"startBeat":6.5,"startTick":6240,"startTime":2.4375,"velocity":27},{"channel":4,"duration":0.1875,"durationBeats":0.5,"durationTicks":480,"endBeat":7,"endTick":6720,"endTime":2.625,"note":49,"startBeat":6.5,"startTick":6240,"startTime":2.4375,"velocity":27},{"channel":4,"duration":0.09375,"durationBeats":0.25,"durationTicks":240,"endBeat":7,"endTick":6720,"endTime":2.625,"note":65,"startBeat":6.75,"startTick":6480,"startTime":2.53125,"velocity":27},{"channel":3,"duration":0.1875,"durationBeats":0.5,"durationTicks":480,"endBeat":7.088541666666667,"endTick":6805,"endTime":2.658203125,"note":38,"startBeat":6.588541666666667,"startTick":6325,"startTime":2.470703125,"velocity":18},{"channel":3,"duration":0.1875,"durationBeats":0.5,"durationTicks":480,"endBeat":7.338541666666667,"endTick":7045,"endTime":2.751953125,"note":70,"startBeat":6.838541666666667,"startTick":6565,"startTime":2.564453125,"velocity":18},{"channel":3,"duration":0.1875,"durationBeats":0.5,"durationTicks":480,"endBeat":7.338541666666667,"endTick":7045,"endTime":2.751953125,"note":69,"startBeat":6.838541666666667,"startTick":6565,"startTime":2.564453125,"velocity":18},{"channel":3,"duration":0.1875,"durationBeats":0.5,"durationTicks":480,"endBeat":7.338541666666667,"endTick":7045,"endTime":2.751953125,"note":65,"startBeat":6.838541666666667,"startTick":6565,"startTime":2.564453125,"velocity":18},{"channel":3,"duration":0.1875,"durationBeats":0.5,"durationTicks":480,"endBeat":7.338541666666667,"endTick":7045,"endTime":2.751953125,"note":62,"startBeat":6.838541666666667,"startTick":6565,"startTime":2.564453125,"velocity":18},{"channel":4,"duration":0.1875,"durationBeats":0.5,"durationTicks":480,"endBeat":7.5,"endTick":7200,"endTime":2.8125,"note":45,"startBeat":7,"startTick":6720,"startTime":2.625,"velocity":27},{"channel":4,"duration":0.1875,"durationBeats":0.5,"durationTicks":480,"endBeat":7.5,"endTick":7200,"endTime":2.8125,"note":72,"startBeat":7,"startTick":6720,"startTime":2.625,"velocity":27},{"channel":4,"duration":0.1875,"durationBeats":0.5,"durationTicks":480,"endBeat":7.5,"endTick":7200,"endTime":2.8125,"note":60,"startBeat":7,"startTick":6720,"startTime":2.625,"velocity":27},{"channel":4,"duration":0.1875,"durationBeats":0.5,"durationTicks":480,"endBeat":7.5,"endTick":7200,"endTime":2.8125,"note":69,"startBeat":7,"startTick":6720,"startTime":2.625,"velocity":27},{"channel":4,"duration":0.1875,"durationBeats":0.5,"durationTicks":480,"endBeat":7.5,"endTick":7200,"endTime":2.8125,"note":64,"startBeat":7,"startTick":6720,"startTime":2.625,"velocity":27},{"channel":3,"duration":0.1875,"durationBeats":0.5,"durationTicks":480,"endBeat":7.588541666666667,"endTick":7285,"endTime":2.845703125,"note":45,"startBeat":7.088541666666667,"startTick":6805,"startTime":2.658203125,"velocity":18},{"channel":4,"duration":1.6875,"durationBeats":4.5,"durationTicks":4320,"endBeat":8,"endTick":7680,"endTime":3,"note":74,"startBeat":3.5,"startTick":3360,"startTime":1.3125,"velocity":27},{"channel":4,"duration":0.1875,"durationBeats":0.5,"durationTicks":480,"endBeat":8,"endTick":7680,"endTime":3,"note":60,"startBeat":7.5,"startTick":7200,"startTime":2.8125,"velocity":27},{"channel":4,"duration":0.1875,"durationBeats":0.5,"durationTicks":480,"endBeat":8,"endTick":7680,"endTime":3,"note":65,"startBeat":7.5,"startTick":7200,"startTime":2.8125,"velocity":27},{"channel":4,"duration":0.1875,"durationBeats":0.5,"durationTicks":480,"endBeat":8,"endTick":7680,"endTime":3,"note":69,"startBeat":7.5,"startTick":7200,"startTime":2.8125,"velocity":27},{"channel":4,"duration":0.1875,"durationBeats":0.5,"durationTicks":480,"endBeat":8,"endTick":7680,"endTime":3,"note":44,"startBeat":7.5,"startTick":7200,"startTime":2.8125,"velocity":27},{"channel":3,"duration":0.1875,"durationBeats":0.4999999999999991,"durationTicks":480,"endBeat":8.088541666666666,"endTick":7765,"endTime":3.033203125,"note":70,"startBeat":7.588541666666667,"startTick":7285,"startTime":2.845703125,"velocity":18},{"channel":3,"duration":0.1875,"durationBeats":0.4999999999999991,"durationTicks":480,"endBeat":8.088541666666666,"endTick":7765,"endTime":3.033203125,"note":69,"startBeat":7.588541666666667,"startTick":7285,"startTime":2.845703125,"velocity":18},{"channel":3,"duration":0.1875,"durationBeats":0.4999999999999991,"durationTicks":480,"endBeat":8.088541666666666,"endTick":7765,"endTime":3.033203125,"note":65,"startBeat":7.588541666666667,"startTick":7285,"startTime":2.845703125,"velocity":18},{"channel":3,"duration":0.1875,"durationBeats":0.4999999999999991,"durationTicks":480,"endBeat":8.088541666666666,"endTick":7765,"endTime":3.033203125,"note":62,"startBeat":7.588541666666667,"startTick":7285,"startTime":2.845703125,"velocity":18},{"channel":3,"duration":0.1875,"durationBeats":0.4999999999999991,"durationTicks":480,"endBeat":8.088541666666666,"endTick":7765,"endTime":3.033203125,"note":44,"startBeat":7.588541666666667,"startTick":7285,"startTime":2.845703125,"velocity":18},{"channel":3,"duration":0.1875,"durationBeats":0.5,"durationTicks":480,"endBeat":8.588541666666666,"endTick":8245,"endTime":3.220703125,"note":43,"startBeat":8.088541666666666,"startTick":7765,"startTime":3.033203125,"velocity":18},{"channel":4,"duration":0.375,"durationBeats":1,"durationTicks":960,"endBeat":9,"endTick":8640,"endTime":3.375,"note":74,"startBeat":8,"startTick":7680,"startTime":3,"velocity":27},{"channel":4,"duration":0.375,"durationBeats":1,"durationTicks":960,"endBeat":9,"endTick":8640,"endTime":3.375,"note":70,"startBeat":8,"startTick":7680,"startTime":3,"velocity":27},{"channel":4,"duration":0.375,"durationBeats":1,"durationTicks":960,"endBeat":9,"endTick":8640,"endTime":3.375,"note":69,"startBeat":8,"startTick":7680,"startTime":3,"velocity":27},{"channel":4,"duration":0.375,"durationBeats":1,"durationTicks":960,"endBeat":9,"endTick":8640,"endTime":3.375,"note":65,"startBeat":8,"startTick":7680,"startTime":3,"velocity":27},{"channel":4,"duration":0.375,"durationBeats":1,"durationTicks":960,"endBeat":9,"endTick":8640,"endTime":3.375,"note":62,"startBeat":8,"startTick":7680,"startTime":3,"velocity":27},{"channel":4,"duration":0.375,"durationBeats":1,"durationTicks":960,"endBeat":9,"endTick":8640,"endTime":3.375,"note":43,"startBeat":8,"startTick":7680,"startTime":3,"velocity":27},{"channel":3,"duration":0.375,"durationBeats":1,"durationTicks":960,"endBeat":9.088541666666666,"endTick":8725,"endTime":3.408203125,"note":74,"startBeat":8.088541666666666,"startTick":7765,"startTime":3.033203125,"velocity":18},{"channel":3,"duration":0.375,"durationBeats":1,"durationTicks":960,"endBeat":9.088541666666666,"endTick":8725,"endTime":3.408203125,"note":70,"startBeat":8.088541666666666,"startTick":7765,"startTime":3.033203125,"velocity":18},{"channel":3,"duration":0.375,"durationBeats":1,"durationTicks":960,"endBeat":9.088541666666666,"endTick":8725,"endTime":3.408203125,"note":69,"startBeat":8.088541666666666,"startTick":7765,"startTime":3.033203125,"velocity":18},{"channel":3,"duration":0.375,"durationBeats":1,"durationTicks":960,"endBeat":9.088541666666666,"endTick":8725,"endTime":3.408203125,"note":65,"startBeat":8.088541666666666,"startTick":7765,"startTime":3.033203125,"velocity":18},{"channel":3,"duration":0.375,"durationBeats":1,"durationTicks":960,"endBeat":9.088541666666666,"endTick":8725,"endTime":3.408203125,"note":62,"startBeat":8.088541666666666,"startTick":7765,"startTime":3.033203125,"velocity":18},{"channel":3,"duration":0.1875,"durationBeats":0.5,"durationTicks":480,"endBeat":9.088541666666666,"endTick":8725,"endTime":3.408203125,"note":50,"startBeat":8.588541666666666,"startTick":8245,"startTime":3.220703125,"velocity":18},{"channel":4,"duration":0.1875,"durationBeats":0.5,"durationTicks":480,"endBeat":9.5,"endTick":9120,"endTime":3.5625,"note":43,"startBeat":9,"startTick":8640,"startTime":3.375,"velocity":27},{"channel":3,"duration":0.1875,"durationBeats":0.5,"durationTicks":480,"endBeat":9.588541666666666,"endTick":9205,"endTime":3.595703125,"note":43,"startBeat":9.088541666666666,"startTick":8725,"startTime":3.408203125,"velocity":18},{"channel":4,"duration":0.09375,"durationBeats":0.25,"durationTicks":240,"endBeat":9.75,"endTick":9360,"endTime":3.65625,"note":65,"startBeat":9.5,"startTick":9120,"startTime":3.5625,"velocity":27},{"channel":4,"duration":0.375,"durationBeats":1,"durationTicks":960,"endBeat":10,"endTick":9600,"endTime":3.75,"note":74,"startBeat":9,"startTick":8640,"startTime":3.375,"velocity":27},{"channel":4,"duration":0.375,"durationBeats":1,"durationTicks":960,"endBeat":10,"endTick":9600,"endTime":3.75,"note":70,"startBeat":9,"startTick":8640,"startTime":3.375,"velocity":27},{"channel":4,"duration":0.09375,"durationBeats":0.25,"durationTicks":240,"endBeat":10,"endTick":9600,"endTime":3.75,"note":69,"startBeat":9.75,"startTick":9360,"startTime":3.65625,"velocity":27},{"channel":4,"duration":0.375,"durationBeats":1,"durationTicks":960,"endBeat":10,"endTick":9600,"endTime":3.75,"note":62,"startBeat":9,"startTick":8640,"startTime":3.375,"velocity":27},{"channel":4,"duration":0.1875,"durationBeats":0.5,"durationTicks":480,"endBeat":10,"endTick":9600,"endTime":3.75,"note":44,"startBeat":9.5,"startTick":9120,"startTime":3.5625,"velocity":27},{"channel":3,"duration":0.375,"durationBeats":1,"durationTicks":960,"endBeat":10.088541666666666,"endTick":9685,"endTime":3.783203125,"note":74,"startBeat":9.088541666666666,"startTick":8725,"startTime":3.408203125,"velocity":18},{"channel":3,"duration":0.375,"durationBeats":1,"durationTicks":960,"endBeat":10.088541666666666,"endTick":9685,"endTime":3.783203125,"note":70,"startBeat":9.088541666666666,"startTick":8725,"startTime":3.408203125,"velocity":18},{"channel":3,"duration":0.375,"durationBeats":1,"durationTicks":960,"endBeat":10.088541666666666,"endTick":9685,"endTime":3.783203125,"note":69,"startBeat":9.088541666666666,"startTick":8725,"startTime":3.408203125,"velocity":18},{"channel":3,"duration":0.375,"durationBeats":1,"durationTicks":960,"endBeat":10.088541666666666,"endTick":9685,"endTime":3.783203125,"note":65,"startBeat":9.088541666666666,"startTick":8725,"startTime":3.408203125,"velocity":18},{"channel":3,"duration":0.375,"durationBeats":1,"durationTicks":960,"endBeat":10.088541666666666,"endTick":9685,"endTime":3.783203125,"note":62,"startBeat":9.088541666666666,"startTick":8725,"startTime":3.408203125,"velocity":18},{"channel":3,"duration":0.1875,"durationBeats":0.5,"durationTicks":480,"endBeat":10.088541666666666,"endTick":9685,"endTime":3.783203125,"note":44,"startBeat":9.588541666666666,"startTick":9205,"startTime":3.595703125,"velocity":18},{"channel":4,"duration":0.1875,"durationBeats":0.5,"durationTicks":480,"endBeat":10.5,"endTick":10080,"endTime":3.9375,"note":73,"startBeat":10,"startTick":9600,"startTime":3.75,"velocity":27},{"channel":4,"duration":0.1875,"durationBeats":0.5,"durationTicks":480,"endBeat":10.5,"endTick":10080,"endTime":3.9375,"note":69,"startBeat":10,"startTick":9600,"startTime":3.75,"velocity":27},{"channel":4,"duration":0.1875,"durationBeats":0.5,"durationTicks":480,"endBeat":10.5,"endTick":10080,"endTime":3.9375,"note":64,"startBeat":10,"startTick":9600,"startTime":3.75,"velocity":27},{"channel":4,"duration":0.1875,"durationBeats":0.5,"durationTicks":480,"endBeat":10.5,"endTick":10080,"endTime":3.9375,"note":61,"startBeat":10,"startTick":9600,"startTime":3.75,"velocity":27},{"channel":4,"duration":0.1875,"durationBeats":0.5,"durationTicks":480,"endBeat":10.5,"endTick":10080,"endTime":3.9375,"note":45,"startBeat":10,"startTick":9600,"startTime":3.75,"velocity":27},{"channel":3,"duration":0.1875,"durationBeats":0.5,"durationTicks":480,"endBeat":10.588541666666666,"endTick":10165,"endTime":3.970703125,"note":73,"startBeat":10.088541666666666,"startTick":9685,"startTime":3.783203125,"velocity":18},{"channel":3,"duration":0.1875,"durationBeats":0.5,"durationTicks":480,"endBeat":10.588541666666666,"endTick":10165,"endTime":3.970703125,"note":69,"startBeat":10.088541666666666,"startTick":9685,"startTime":3.783203125,"velocity":18},{"channel":3,"duration":0.1875,"durationBeats":0.5,"durationTicks":480,"endBeat":10.588541666666666,"endTick":10165,"endTime":3.970703125,"note":64,"startBeat":10.088541666666666,"startTick":9685,"startTime":3.783203125,"velocity":18},{"channel":3,"duration":0.1875,"durationBeats":0.5,"durationTicks":480,"endBeat":10.588541666666666,"endTick":10165,"endTime":3.970703125,"note":61,"startBeat":10.088541666666666,"startTick":9685,"startTime":3.783203125,"velocity":18},{"channel":3,"duration":0.1875,"durationBeats":0.5,"durationTicks":480,"endBeat":10.588541666666666,"endTick":10165,"endTime":3.970703125,"note":45,"startBeat":10.088541666666666,"startTick":9685,"startTime":3.783203125,"velocity":18},{"channel":4,"duration":0.09375,"durationBeats":0.25,"durationTicks":240,"endBeat":11,"endTick":10560,"endTime":4.125,"note":40,"startBeat":10.75,"startTick":10320,"startTime":4.03125,"velocity":27},{"channel":3,"duration":0.09375,"durationBeats":0.25,"durationTicks":240,"endBeat":11.088541666666666,"endTick":10645,"endTime":4.158203125,"note":45,"startBeat":10.838541666666666,"startTick":10405,"startTime":4.064453125,"velocity":18},{"channel":4,"duration":0.1875,"durationBeats":0.5,"durationTicks":480,"endBeat":11.25,"endTick":10800,"endTime":4.21875,"note":73,"startBeat":10.75,"startTick":10320,"startTime":4.03125,"velocity":27},{"channel":4,"duration":0.1875,"durationBeats":0.5,"durationTicks":480,"endBeat":11.25,"endTick":10800,"endTime":4.21875,"note":70,"startBeat":10.75,"startTick":10320,"startTime":4.03125,"velocity":27},{"channel":4,"duration":0.1875,"durationBeats":0.5,"durationTicks":480,"endBeat":11.25,"endTick":10800,"endTime":4.21875,"note":67,"startBeat":10.75,"startTick":10320,"startTime":4.03125,"velocity":27},{"channel":4,"duration":0.1875,"durationBeats":0.5,"durationTicks":480,"endBeat":11.25,"endTick":10800,"endTime":4.21875,"note":69,"startBeat":10.75,"startTick":10320,"startTime":4.03125,"velocity":27},{"channel":4,"duration":0.1875,"durationBeats":0.5,"durationTicks":480,"endBeat":11.25,"endTick":10800,"endTime":4.21875,"note":64,"startBeat":10.75,"startTick":10320,"startTime":4.03125,"velocity":27},{"channel":4,"duration":0.1875,"durationBeats":0.5,"durationTicks":480,"endBeat":11.25,"endTick":10800,"endTime":4.21875,"note":61,"startBeat":10.75,"startTick":10320,"startTime":4.03125,"velocity":27},{"channel":3,"duration":0.1875,"durationBeats":0.5,"durationTicks":480,"endBeat":11.338541666666666,"endTick":10885,"endTime":4.251953125,"note":73,"startBeat":10.838541666666666,"startTick":10405,"startTime":4.064453125,"velocity":18},{"channel":3,"duration":0.1875,"durationBeats":0.5,"durationTicks":480,"endBeat":11.338541666666666,"endTick":10885,"endTime":4.251953125,"note":70,"startBeat":10.838541666666666,"startTick":10405,"startTime":4.064453125,"velocity":18},{"channel":3,"duration":0.1875,"durationBeats":0.5,"durationTicks":480,"endBeat":11.338541666666666,"endTick":10885,"endTime":4.251953125,"note":67,"startBeat":10.838541666666666,"startTick":10405,"startTime":4.064453125,"velocity":18},{"channel":3,"duration":0.1875,"durationBeats":0.5,"durationTicks":480,"endBeat":11.338541666666666,"endTick":10885,"endTime":4.251953125,"note":69,"startBeat":10.838541666666666,"startTick":10405,"startTime":4.064453125,"velocity":18},{"channel":3,"duration":0.1875,"durationBeats":0.5,"durationTicks":480,"endBeat":11.338541666666666,"endTick":10885,"endTime":4.251953125,"note":64,"startBeat":10.838541666666666,"startTick":10405,"startTime":4.064453125,"velocity":18},{"channel":3,"duration":0.1875,"durationBeats":0.5,"durationTicks":480,"endBeat":11.338541666666666,"endTick":10885,"endTime":4.251953125,"note":61,"startBeat":10.838541666666666,"startTick":10405,"startTime":4.064453125,"velocity":18},{"channel":4,"duration":0.1875,"durationBeats":0.5,"durationTicks":480,"endBeat":12,"endTick":11520,"endTime":4.5,"note":74,"startBeat":11.5,"startTick":11040,"startTime":4.3125,"velocity":27},{"channel":4,"duration":0.1875,"durationBeats":0.5,"durationTicks":480,"endBeat":12,"endTick":11520,"endTime":4.5,"note":69,"startBeat":11.5,"startTick":11040,"startTime":4.3125,"velocity":27},{"channel":4,"duration":0.1875,"durationBeats":0.5,"durationTicks":480,"endBeat":12,"endTick":11520,"endTime":4.5,"note":65,"startBeat":11.5,"startTick":11040,"startTime":4.3125,"velocity":27},{"channel":4,"duration":0.1875,"durationBeats":0.5,"durationTicks":480,"endBeat":12,"endTick":11520,"endTime":4.5,"note":62,"startBeat":11.5,"startTick":11040,"startTime":4.3125,"velocity":27},{"channel":3,"duration":0.1875,"durationBeats":0.5,"durationTicks":480,"endBeat":12.088541666666666,"endTick":11605,"endTime":4.533203125,"note":74,"startBeat":11.588541666666666,"startTick":11125,"startTime":4.345703125,"velocity":18},{"channel":3,"duration":0.1875,"durationBeats":0.5,"durationTicks":480,"endBeat":12.088541666666666,"endTick":11605,"endTime":4.533203125,"note":69,"startBeat":11.588541666666666,"startTick":11125,"startTime":4.345703125,"velocity":18},{"channel":3,"duration":0.1875,"durationBeats":0.5,"durationTicks":480,"endBeat":12.088541666666666,"endTick":11605,"endTime":4.533203125,"note":65,"startBeat":11.588541666666666,"startTick":11125,"startTime":4.345703125,"velocity":18},{"channel":3,"duration":0.1875,"durationBeats":0.5,"durationTicks":480,"endBeat":12.088541666666666,"endTick":11605,"endTime":4.533203125,"note":62,"startBeat":11.588541666666666,"startTick":11125,"startTime":4.345703125,"velocity":18},{"channel":4,"duration":0.09375,"durationBeats":0.25,"durationTicks":240,"endBeat":12.25,"endTick":11760,"endTime":4.59375,"note":76,"startBeat":12,"startTick":11520,"startTime":4.5,"velocity":27},{"channel":4,"duration":0.09375,"durationBeats":0.25,"durationTicks":240,"endBeat":12.5,"endTick":12000,"endTime":4.6875,"note":77,"startBeat":12.25,"startTick":11760,"startTime":4.59375,"velocity":27},{"channel":4,"duration":0.09375,"durationBeats":0.25,"durationTicks":240,"endBeat":12.75,"endTick":12240,"endTime":4.78125,"note":79,"startBeat":12.5,"startTick":12000,"startTime":4.6875,"velocity":27},{"channel":4,"duration":0.09375,"durationBeats":0.25,"durationTicks":240,"endBeat":13,"endTick":12480,"endTime":4.875,"note":77,"startBeat":12.75,"startTick":12240,"startTime":4.78125,"velocity":27},{"channel":3,"duration":0.1875,"durationBeats":0.5,"durationTicks":480,"endBeat":13.088541666666666,"endTick":12565,"endTime":4.908203125,"note":72,"startBeat":12.588541666666666,"startTick":12085,"startTime":4.720703125,"velocity":18},{"channel":3,"duration":0.1875,"durationBeats":0.5,"durationTicks":480,"endBeat":13.088541666666666,"endTick":12565,"endTime":4.908203125,"note":60,"startBeat":12.588541666666666,"startTick":12085,"startTime":4.720703125,"velocity":18},{"channel":3,"duration":0.1875,"durationBeats":0.5,"durationTicks":480,"endBeat":13.088541666666666,"endTick":12565,"endTime":4.908203125,"note":70,"startBeat":12.588541666666666,"startTick":12085,"startTime":4.720703125,"velocity":18},{"channel":3,"duration":0.1875,"durationBeats":0.5,"durationTicks":480,"endBeat":13.088541666666666,"endTick":12565,"endTime":4.908203125,"note":65,"startBeat":12.588541666666666,"startTick":12085,"startTime":4.720703125,"velocity":18},{"channel":4,"duration":0.09375,"durationBeats":0.25,"durationTicks":240,"endBeat":13.25,"endTick":12720,"endTime":4.96875,"note":76,"startBeat":13,"startTick":12480,"startTime":4.875,"velocity":27},{"channel":4,"duration":0.75,"durationBeats":2,"durationTicks":1920,"endBeat":13.5,"endTick":12960,"endTime":5.0625,"note":38,"startBeat":11.5,"startTick":11040,"startTime":4.3125,"velocity":27},{"channel":4,"duration":0.09375,"durationBeats":0.25,"durationTicks":240,"endBeat":13.5,"endTick":12960,"endTime":5.0625,"note":72,"startBeat":13.25,"startTick":12720,"startTime":4.96875,"velocity":27},{"channel":3,"duration":0.75,"durationBeats":2,"durationTicks":1920,"endBeat":13.588541666666666,"endTick":13045,"endTime":5.095703125,"note":38,"startBeat":11.588541666666666,"startTick":11125,"startTime":4.345703125,"velocity":18},{"channel":4,"duration":0.09375,"durationBeats":0.25,"durationTicks":240,"endBeat":13.75,"endTick":13200,"endTime":5.15625,"note":69,"startBeat":13.5,"startTick":12960,"startTime":5.0625,"velocity":27},{"channel":3,"duration":0.1875,"durationBeats":0.5,"durationTicks":480,"endBeat":13.838541666666666,"endTick":13285,"endTime":5.189453125,"note":72,"startBeat":13.338541666666666,"startTick":12805,"startTime":5.001953125,"velocity":18},{"channel":3,"duration":0.1875,"durationBeats":0.5,"durationTicks":480,"endBeat":13.838541666666666,"endTick":13285,"endTime":5.189453125,"note":60,"startBeat":13.338541666666666,"startTick":12805,"startTime":5.001953125,"velocity":18},{"channel":3,"duration":0.1875,"durationBeats":0.5,"durationTicks":480,"endBeat":13.838541666666666,"endTick":13285,"endTime":5.189453125,"note":70,"startBeat":13.338541666666666,"startTick":12805,"startTime":5.001953125,"velocity":18},{"channel":3,"duration":0.1875,"durationBeats":0.5,"durationTicks":480,"endBeat":13.838541666666666,"endTick":13285,"endTime":5.189453125,"note":65,"startBeat":13.338541666666666,"startTick":12805,"startTime":5.001953125,"velocity":18},{"channel":4,"duration":0.1875,"durationBeats":0.5,"durationTicks":480,"endBeat":14,"endTick":13440,"endTime":5.25,"note":45,"startBeat":13.5,"startTick":12960,"startTime":5.0625,"velocity":27},{"channel":4,"duration":0.09375,"durationBeats":0.25,"durationTicks":240,"endBeat":14,"endTick":13440,"endTime":5.25,"note":67,"startBeat":13.75,"startTick":13200,"startTime":5.15625,"velocity":27},{"channel":3,"duration":0.1875,"durationBeats":0.5,"durationTicks":480,"endBeat":14.088541666666666,"endTick":13525,"endTime":5.283203125,"note":45,"startBeat":13.588541666666666,"startTick":13045,"startTime":5.095703125,"velocity":18},{"channel":4,"duration":0.09375,"durationBeats":0.25,"durationTicks":240,"endBeat":14.25,"endTick":13680,"endTime":5.34375,"note":69,"startBeat":14,"startTick":13440,"startTime":5.25,"velocity":27},{"channel":4,"duration":0.1875,"durationBeats":0.5,"durationTicks":480,"endBeat":14.5,"endTick":13920,"endTime":5.4375,"note":50,"startBeat":14,"startTick":13440,"startTime":5.25,"velocity":27},{"channel":4,"duration":0.09375,"durationBeats":0.25,"durationTicks":240,"endBeat":14.5,"endTick":13920,"endTime":5.4375,"note":62,"startBeat":14.25,"startTick":13680,"startTime":5.34375,"velocity":27},{"channel":3,"duration":0.1875,"durationBeats":0.5,"durationTicks":480,"endBeat":14.588541666666666,"endTick":14005,"endTime":5.470703125,"note":72,"startBeat":14.088541666666666,"startTick":13525,"startTime":5.283203125,"velocity":18},{"channel":3,"duration":0.1875,"durationBeats":0.5,"durationTicks":480,"endBeat":14.588541666666666,"endTick":14005,"endTime":5.470703125,"note":60,"startBeat":14.088541666666666,"startTick":13525,"startTime":5.283203125,"velocity":18},{"channel":3,"duration":0.1875,"durationBeats":0.5,"durationTicks":480,"endBeat":14.588541666666666,"endTick":14005,"endTime":5.470703125,"note":69,"startBeat":14.088541666666666,"startTick":13525,"startTime":5.283203125,"velocity":18},{"channel":3,"duration":0.1875,"durationBeats":0.5,"durationTicks":480,"endBeat":14.588541666666666,"endTick":14005,"endTime":5.470703125,"note":65,"startBeat":14.088541666666666,"startTick":13525,"startTime":5.283203125,"velocity":18},{"channel":3,"duration":0.1875,"durationBeats":0.5,"durationTicks":480,"endBeat":14.588541666666666,"endTick":14005,"endTime":5.470703125,"note":50,"startBeat":14.088541666666666,"startTick":13525,"startTime":5.283203125,"velocity":18},{"channel":4,"duration":0.09375,"durationBeats":0.25,"durationTicks":240,"endBeat":14.75,"endTick":14160,"endTime":5.53125,"note":60,"startBeat":14.5,"startTick":13920,"startTime":5.4375,"velocity":27},{"channel":4,"duration":0.375,"durationBeats":1,"durationTicks":960,"endBeat":15,"endTick":14400,"endTime":5.625,"note":72,"startBeat":14,"startTick":13440,"startTime":5.25,"velocity":27},{"channel":4,"duration":0.375,"durationBeats":1,"durationTicks":960,"endBeat":15,"endTick":14400,"endTime":5.625,"note":70,"startBeat":14,"startTick":13440,"startTime":5.25,"velocity":27},{"channel":4,"duration":0.375,"durationBeats":1,"durationTicks":960,"endBeat":15,"endTick":14400,"endTime":5.625,"note":65,"startBeat":14,"startTick":13440,"startTime":5.25,"velocity":27},{"channel":4,"duration":0.1875,"durationBeats":0.5,"durationTicks":480,"endBeat":15,"endTick":14400,"endTime":5.625,"note":38,"startBeat":14.5,"startTick":13920,"startTime":5.4375,"velocity":27},{"channel":4,"duration":0.09375,"durationBeats":0.25,"durationTicks":240,"endBeat":15,"endTick":14400,"endTime":5.625,"note":62,"startBeat":14.75,"startTick":14160,"startTime":5.53125,"velocity":27},{"channel":3,"duration":0.1875,"durationBeats":0.5,"durationTicks":480,"endBeat":15.088541666666666,"endTick":14485,"endTime":5.658203125,"note":38,"startBeat":14.588541666666666,"startTick":14005,"startTime":5.470703125,"velocity":18},{"channel":4,"duration":0.09375,"durationBeats":0.25,"durationTicks":240,"endBeat":15.25,"endTick":14640,"endTime":5.71875,"note":60,"startBeat":15,"startTick":14400,"startTime":5.625,"velocity":27},{"channel":4,"duration":0.09375,"durationBeats":0.25,"durationTicks":240,"endBeat":15.25,"endTick":14640,"endTime":5.71875,"note":69,"startBeat":15,"startTick":14400,"startTime":5.625,"velocity":27},{"channel":3,"duration":0.1875,"durationBeats":0.5,"durationTicks":480,"endBeat":15.338541666666666,"endTick":14725,"endTime":5.751953125,"note":70,"startBeat":14.838541666666666,"startTick":14245,"startTime":5.564453125,"velocity":18},{"channel":3,"duration":0.1875,"durationBeats":0.5,"durationTicks":480,"endBeat":15.338541666666666,"endTick":14725,"endTime":5.751953125,"note":69,"startBeat":14.838541666666666,"startTick":14245,"startTime":5.564453125,"velocity":18},{"channel":3,"duration":0.1875,"durationBeats":0.5,"durationTicks":480,"endBeat":15.338541666666666,"endTick":14725,"endTime":5.751953125,"note":65,"startBeat":14.838541666666666,"startTick":14245,"startTime":5.564453125,"velocity":18},{"channel":3,"duration":0.1875,"durationBeats":0.5,"durationTicks":480,"endBeat":15.338541666666666,"endTick":14725,"endTime":5.751953125,"note":62,"startBeat":14.838541666666666,"startTick":14245,"startTime":5.564453125,"velocity":18},{"channel":4,"duration":0.1875,"durationBeats":0.5,"durationTicks":480,"endBeat":15.5,"endTick":14880,"endTime":5.8125,"note":45,"startBeat":15,"startTick":14400,"startTime":5.625,"velocity":27},{"channel":3,"duration":0.1875,"durationBeats":0.5,"durationTicks":480,"endBeat":15.588541666666666,"endTick":14965,"endTime":5.845703125,"note":45,"startBeat":15.088541666666666,"startTick":14485,"startTime":5.658203125,"velocity":18},{"channel":9,"duration":0.0234375,"durationBeats":0.0625,"durationTicks":60,"endBeat":15.784375,"endTick":15153,"endTime":5.919140625000001,"note":44,"startBeat":15.721875,"startTick":15093,"startTime":5.895703125000001,"velocity":64},{"channel":9,"duration":0.0234375,"durationBeats":0.0625,"durationTicks":60,"endBeat":15.784375,"endTick":15153,"endTime":5.919140625000001,"note":69,"startBeat":15.721875,"startTick":15093,"startTime":5.895703125000001,"velocity":64},{"channel":4,"duration":0.1875,"durationBeats":0.5,"durationTicks":480,"endBeat":16,"endTick":15360,"endTime":6,"note":64,"startBeat":15.5,"startTick":14880,"startTime":5.8125,"velocity":27},{"channel":4,"duration":0.1875,"durationBeats":0.5,"durationTicks":480,"endBeat":16,"endTick":15360,"endTime":6,"note":72,"startBeat":15.5,"startTick":14880,"startTime":5.8125,"velocity":27},{"channel":4,"duration":0.1875,"durationBeats":0.5,"durationTicks":480,"endBeat":16,"endTick":15360,"endTime":6,"note":60,"startBeat":15.5,"startTick":14880,"startTime":5.8125,"velocity":27},{"channel":4,"duration":0.1875,"durationBeats":0.5,"durationTicks":480,"endBeat":16,"endTick":15360,"endTime":6,"note":69,"startBeat":15.5,"startTick":14880,"startTime":5.8125,"velocity":27},{"channel":4,"duration":0.1875,"durationBeats":0.5,"durationTicks":480,"endBeat":16,"endTick":15360,"endTime":6,"note":48,"startBeat":15.5,"startTick":14880,"startTime":5.8125,"velocity":27},{"channel":3,"duration":0.1875,"durationBeats":0.5000000000000018,"durationTicks":480,"endBeat":16.088541666666668,"endTick":15445,"endTime":6.033203125,"note":70,"startBeat":15.588541666666666,"startTick":14965,"startTime":5.845703125,"velocity":18},{"channel":3,"duration":0.1875,"durationBeats":0.5000000000000018,"durationTicks":480,"endBeat":16.088541666666668,"endTick":15445,"endTime":6.033203125,"note":69,"startBeat":15.588541666666666,"startTick":14965,"startTime":5.845703125,"velocity":18},{"channel":3,"duration":0.1875,"durationBeats":0.5000000000000018,"durationTicks":480,"endBeat":16.088541666666668,"endTick":15445,"endTime":6.033203125,"note":65,"startBeat":15.588541666666666,"startTick":14965,"startTime":5.845703125,"velocity":18},{"channel":3,"duration":0.1875,"durationBeats":0.5000000000000018,"durationTicks":480,"endBeat":16.088541666666668,"endTick":15445,"endTime":6.033203125,"note":62,"startBeat":15.588541666666666,"startTick":14965,"startTime":5.845703125,"velocity":18},{"channel":3,"duration":0.1875,"durationBeats":0.5000000000000018,"durationTicks":480,"endBeat":16.088541666666668,"endTick":15445,"endTime":6.033203125,"note":48,"startBeat":15.588541666666666,"startTick":14965,"startTime":5.845703125,"velocity":18},{"channel":2,"duration":0.1875,"durationBeats":0.5,"durationTicks":480,"endBeat":22.638541666666665,"endTick":21733,"endTime":8.489453124999999,"note":31,"startBeat":22.138541666666665,"startTick":21253,"startTime":8.301953124999999,"velocity":57},{"channel":1,"duration":0.1875,"durationBeats":0.5,"durationTicks":480,"endBeat":22.909375,"endTick":21993,"endTime":8.591015625,"note":31,"startBeat":22.409375,"startTick":21513,"startTime":8.403515625,"velocity":50},{"channel":2,"duration":0.1875,"durationBeats":0.5,"durationTicks":480,"endBeat":23.138541666666665,"endTick":22213,"endTime":8.676953124999999,"note":32,"startBeat":22.638541666666665,"startTick":21733,"startTime":8.489453124999999,"velocity":57},{"channel":3,"duration":0.09375,"durationBeats":0.25,"durationTicks":240,"endBeat":23.338541666666668,"endTick":22405,"endTime":8.751953125,"note":55,"startBeat":23.088541666666668,"startTick":22165,"startTime":8.658203125,"velocity":18},{"channel":1,"duration":0.1875,"durationBeats":0.5,"durationTicks":480,"endBeat":23.409375,"endTick":22473,"endTime":8.778515625,"note":32,"startBeat":22.909375,"startTick":21993,"startTime":8.591015625,"velocity":50},{"channel":2,"duration":0.1875,"durationBeats":0.5,"durationTicks":480,"endBeat":23.638541666666665,"endTick":22693,"endTime":8.864453124999999,"note":33,"startBeat":23.138541666666665,"startTick":22213,"startTime":8.676953124999999,"velocity":57},{"channel":1,"duration":0.1875,"durationBeats":0.5,"durationTicks":480,"endBeat":23.909375,"endTick":22953,"endTime":8.966015625,"note":33,"startBeat":23.409375,"startTick":22473,"startTime":8.778515625,"velocity":50},{"channel":2,"duration":0.09375,"durationBeats":0.25,"durationTicks":240,"endBeat":24.138541666666665,"endTick":23173,"endTime":9.051953124999999,"note":33,"startBeat":23.888541666666665,"startTick":22933,"startTime":8.958203124999999,"velocity":57},{"channel":1,"duration":0.09375,"durationBeats":0.25,"durationTicks":240,"endBeat":24.409375,"endTick":23433,"endTime":9.153515625,"note":33,"startBeat":24.159375,"startTick":23193,"startTime":9.059765625,"velocity":50},{"channel":2,"duration":0.1875,"durationBeats":0.5,"durationTicks":480,"endBeat":25.138541666666665,"endTick":24133,"endTime":9.426953124999999,"note":26,"startBeat":24.638541666666665,"startTick":23653,"startTime":9.239453124999999,"velocity":57},{"channel":1,"duration":0.1875,"durationBeats":0.5,"durationTicks":480,"endBeat":25.409375,"endTick":24393,"endTime":9.528515625,"note":26,"startBeat":24.909375,"startTick":23913,"startTime":9.341015625,"velocity":50},{"channel":2,"duration":0.1875,"durationBeats":0.5,"durationTicks":480,"endBeat":26.138541666666665,"endTick":25093,"endTime":9.801953124999999,"note":38,"startBeat":25.638541666666665,"startTick":24613,"startTime":9.614453124999999,"velocity":57},{"channel":1,"duration":0.1875,"durationBeats":0.5,"durationTicks":480,"endBeat":26.409375,"endTick":25353,"endTime":9.903515625,"note":38,"startBeat":25.909375,"startTick":24873,"startTime":9.716015625,"velocity":50},{"channel":2,"duration":0.1875,"durationBeats":0.5,"durationTicks":480,"endBeat":26.638541666666665,"endTick":25573,"endTime":9.989453124999999,"note":26,"startBeat":26.138541666666665,"startTick":25093,"startTime":9.801953124999999,"velocity":57},{"channel":1,"duration":0.1875,"durationBeats":0.5,"durationTicks":480,"endBeat":26.909375,"endTick":25833,"endTime":10.091015625,"note":26,"startBeat":26.409375,"startTick":25353,"startTime":9.903515625,"velocity":50},{"channel":2,"duration":0.1875,"durationBeats":0.5,"durationTicks":480,"endBeat":27.138541666666665,"endTick":26053,"endTime":10.176953124999999,"note":33,"startBeat":26.638541666666665,"startTick":25573,"startTime":9.989453124999999,"velocity":57},{"channel":2,"duration":0.0234375,"durationBeats":0.0625,"durationTicks":60,"endBeat":27.138541666666665,"endTick":26053,"endTime":10.176953124999999,"note":91,"startBeat":27.076041666666665,"startTick":25993,"startTime":10.153515624999999,"velocity":57},{"channel":1,"duration":0.1875,"durationBeats":0.5,"durationTicks":480,"endBeat":27.409375,"endTick":26313,"endTime":10.278515625,"note":33,"startBeat":26.909375,"startTick":25833,"startTime":10.091015625,"velocity":50},{"channel":9,"duration":0.09375,"durationBeats":0.25,"durationTicks":240,"endBeat":27.911458333333332,"endTick":26795,"endTime":10.466796875,"note":35,"startBeat":27.661458333333332,"startTick":26555,"startTime":10.373046875,"velocity":50},{"channel":9,"duration":0.09375,"durationBeats":0.25,"durationTicks":240,"endBeat":28.083333333333332,"endTick":26960,"endTime":10.53125,"note":42,"startBeat":27.833333333333332,"startTick":26720,"startTime":10.4375,"velocity":50},{"channel":2,"duration":0.1875,"durationBeats":0.5,"durationTicks":480,"endBeat":28.138541666666665,"endTick":27013,"endTime":10.551953124999999,"note":26,"startBeat":27.638541666666665,"startTick":26533,"startTime":10.364453124999999,"velocity":57},{"channel":9,"duration":0.09375,"durationBeats":0.25,"durationTicks":240,"endBeat":28.182291666666668,"endTick":27055,"endTime":10.568359375,"note":35,"startBeat":27.932291666666668,"startTick":26815,"startTime":10.474609375,"velocity":50},{"channel":9,"duration":0.09375,"durationBeats":0.25,"durationTicks":240,"endBeat":28.354166666666668,"endTick":27220,"endTime":10.6328125,"note":42,"startBeat":28.104166666666668,"startTick":26980,"startTime":10.5390625,"velocity":50},{"channel":1,"duration":0.1875,"durationBeats":0.5,"durationTicks":480,"endBeat":28.409375,"endTick":27273,"endTime":10.653515625,"note":26,"startBeat":27.909375,"startTick":26793,"startTime":10.466015625,"velocity":50},{"channel":2,"duration":0.1875,"durationBeats":0.5,"durationTicks":480,"endBeat":28.638541666666665,"endTick":27493,"endTime":10.739453124999999,"note":33,"startBeat":28.138541666666665,"startTick":27013,"startTime":10.551953124999999,"velocity":57},{"channel":1,"duration":0.1875,"durationBeats":0.5,"durationTicks":480,"endBeat":28.909375,"endTick":27753,"endTime":10.841015625,"note":33,"startBeat":28.409375,"startTick":27273,"startTime":10.653515625,"velocity":50},{"channel":9,"duration":0.09375,"durationBeats":0.25,"durationTicks":240,"endBeat":28.911458333333332,"endTick":27755,"endTime":10.841796875,"note":35,"startBeat":28.661458333333332,"startTick":27515,"startTime":10.748046875,"velocity":50},{"channel":9,"duration":0.09375,"durationBeats":0.25,"durationTicks":240,"endBeat":29.083333333333332,"endTick":27920,"endTime":10.90625,"note":42,"startBeat":28.833333333333332,"startTick":27680,"startTime":10.8125,"velocity":50},{"channel":2,"duration":0.1875,"durationBeats":0.5,"durationTicks":480,"endBeat":29.138541666666665,"endTick":27973,"endTime":10.926953124999999,"note":32,"startBeat":28.638541666666665,"startTick":27493,"startTime":10.739453124999999,"velocity":57},{"channel":9,"duration":0.09375,"durationBeats":0.25,"durationTicks":240,"endBeat":29.182291666666668,"endTick":28015,"endTime":10.943359375,"note":35,"startBeat":28.932291666666668,"startTick":27775,"startTime":10.849609375,"velocity":50},{"channel":9,"duration":0.09375,"durationBeats":0.25,"durationTicks":240,"endBeat":29.354166666666668,"endTick":28180,"endTime":11.0078125,"note":42,"startBeat":29.104166666666668,"startTick":27940,"startTime":10.9140625,"velocity":50},{"channel":1,"duration":0.1875,"durationBeats":0.5,"durationTicks":480,"endBeat":29.409375,"endTick":28233,"endTime":11.028515625,"note":32,"startBeat":28.909375,"startTick":27753,"startTime":10.841015625,"velocity":50},{"channel":2,"duration":0.1875,"durationBeats":0.5,"durationTicks":480,"endBeat":29.638541666666665,"endTick":28453,"endTime":11.114453124999999,"note":31,"startBeat":29.138541666666665,"startTick":27973,"startTime":10.926953124999999,"velocity":57},{"channel":9,"duration":0.09375,"durationBeats":0.25,"durationTicks":240,"endBeat":29.661458333333332,"endTick":28475,"endTime":11.123046875,"note":35,"startBeat":29.411458333333332,"startTick":28235,"startTime":11.029296875,"velocity":50},{"channel":9,"duration":0.09375,"durationBeats":0.25,"durationTicks":240,"endBeat":29.833333333333332,"endTick":28640,"endTime":11.1875,"note":42,"startBeat":29.583333333333332,"startTick":28400,"startTime":11.09375,"velocity":50},{"channel":1,"duration":0.1875,"durationBeats":0.5,"durationTicks":480,"endBeat":29.909375,"endTick":28713,"endTime":11.216015625,"note":31,"startBeat":29.409375,"startTick":28233,"startTime":11.028515625,"velocity":50},{"channel":9,"duration":0.09375,"durationBeats":0.25,"durationTicks":240,"endBeat":29.932291666666668,"endTick":28735,"endTime":11.224609375,"note":35,"startBeat":29.682291666666668,"startTick":28495,"startTime":11.130859375,"velocity":50},{"channel":9,"duration":0.09375,"durationBeats":0.25,"durationTicks":240,"endBeat":30.104166666666668,"endTick":28900,"endTime":11.2890625,"note":42,"startBeat":29.854166666666668,"startTick":28660,"startTime":11.1953125,"velocity":50},{"channel":9,"duration":0.09375,"durationBeats":0.25,"durationTicks":240,"endBeat":30.411458333333332,"endTick":29195,"endTime":11.404296875,"note":35,"startBeat":30.161458333333332,"startTick":28955,"startTime":11.310546875,"velocity":50},{"channel":2,"duration":0.1875,"durationBeats":0.5,"durationTicks":480,"endBeat":30.638541666666665,"endTick":29413,"endTime":11.489453124999999,"note":31,"startBeat":30.138541666666665,"startTick":28933,"startTime":11.301953124999999,"velocity":57},{"channel":9,"duration":0.0078125,"durationBeats":0.020833333333335702,"durationTicks":20,"endBeat":30.682291666666668,"endTick":29455,"endTime":11.505859375,"note":35,"startBeat":30.661458333333332,"startTick":29435,"startTime":11.498046875,"velocity":50},{"channel":1,"duration":0.1875,"durationBeats":0.5,"durationTicks":480,"endBeat":30.909375,"endTick":29673,"endTime":11.591015625,"note":31,"startBeat":30.409375,"startTick":29193,"startTime":11.403515625,"velocity":50},{"channel":9,"duration":0.09375,"durationBeats":0.25,"durationTicks":240,"endBeat":31.083333333333332,"endTick":29840,"endTime":11.65625,"note":42,"startBeat":30.833333333333332,"startTick":29600,"startTime":11.5625,"velocity":50},{"channel":2,"duration":0.1875,"durationBeats":0.5,"durationTicks":480,"endBeat":31.138541666666665,"endTick":29893,"endTime":11.676953124999999,"note":32,"startBeat":30.638541666666665,"startTick":29413,"startTime":11.489453124999999,"velocity":57},{"channel":9,"duration":0.09375,"durationBeats":0.25,"durationTicks":240,"endBeat":31.182291666666668,"endTick":29935,"endTime":11.693359375,"note":35,"startBeat":30.932291666666668,"startTick":29695,"startTime":11.599609375,"velocity":50},{"channel":9,"duration":0.09375,"durationBeats":0.25,"durationTicks":240,"endBeat":31.354166666666668,"endTick":30100,"endTime":11.7578125,"note":42,"startBeat":31.104166666666668,"startTick":29860,"startTime":11.6640625,"velocity":50},{"channel":1,"duration":0.1875,"durationBeats":0.5,"durationTicks":480,"endBeat":31.409375,"endTick":30153,"endTime":11.778515625,"note":32,"startBeat":30.909375,"startTick":29673,"startTime":11.591015625,"velocity":50},{"channel":2,"duration":0.1875,"durationBeats":0.5,"durationTicks":480,"endBeat":31.638541666666665,"endTick":30373,"endTime":11.864453124999999,"note":33,"startBeat":31.138541666666665,"startTick":29893,"startTime":11.676953124999999,"velocity":57},{"channel":1,"duration":0.1875,"durationBeats":0.5,"durationTicks":480,"endBeat":31.909375,"endTick":30633,"endTime":11.966015625,"note":33,"startBeat":31.409375,"startTick":30153,"startTime":11.778515625,"velocity":50},{"channel":9,"duration":0.09375,"durationBeats":0.25,"durationTicks":240,"endBeat":31.911458333333332,"endTick":30635,"endTime":11.966796875,"note":35,"startBeat":31.661458333333332,"startTick":30395,"startTime":11.873046875,"velocity":50},{"channel":9,"duration":0.09375,"durationBeats":0.25000000000000355,"durationTicks":240,"endBeat":32.083333333333336,"endTick":30800,"endTime":12.03125,"note":42,"startBeat":31.833333333333332,"startTick":30560,"startTime":11.9375,"velocity":50},{"channel":2,"duration":0.09375000000000178,"durationBeats":0.25000000000000355,"durationTicks":240,"endBeat":32.13854166666667,"endTick":30853,"endTime":12.051953125,"note":33,"startBeat":31.888541666666665,"startTick":30613,"startTime":11.958203124999999,"velocity":57},{"channel":9,"duration":0.09375,"durationBeats":0.24999999999999645,"durationTicks":240,"endBeat":32.182291666666664,"endTick":30895,"endTime":12.068359375,"note":35,"startBeat":31.932291666666668,"startTick":30655,"startTime":11.974609375,"velocity":50},{"channel":9,"duration":0.09375,"durationBeats":0.25,"durationTicks":240,"endBeat":32.354166666666664,"endTick":31060,"endTime":12.1328125,"note":42,"startBeat":32.104166666666664,"startTick":30820,"startTime":12.0390625,"velocity":50},{"channel":1,"duration":0.09375,"durationBeats":0.25,"durationTicks":240,"endBeat":32.409375,"endTick":31113,"endTime":12.153515624999999,"note":33,"startBeat":32.159375,"startTick":30873,"startTime":12.059765624999999,"velocity":50},{"channel":9,"duration":0.09375,"durationBeats":0.25,"durationTicks":240,"endBeat":32.682291666666664,"endTick":31375,"endTime":12.255859375,"note":42,"startBeat":32.432291666666664,"startTick":31135,"startTime":12.162109375,"velocity":50},{"channel":9,"duration":0.09375,"durationBeats":0.25,"durationTicks":240,"endBeat":32.911458333333336,"endTick":31595,"endTime":12.341796875,"note":35,"startBeat":32.661458333333336,"startTick":31355,"startTime":12.248046875,"velocity":50},{"channel":9,"duration":0.09375,"durationBeats":0.25,"durationTicks":240,"endBeat":33.083333333333336,"endTick":31760,"endTime":12.40625,"note":42,"startBeat":32.833333333333336,"startTick":31520,"startTime":12.3125,"velocity":50},{"channel":2,"duration":0.1875,"durationBeats":0.5,"durationTicks":480,"endBeat":33.13854166666667,"endTick":31813,"endTime":12.426953125,"note":26,"startBeat":32.63854166666667,"startTick":31333,"startTime":12.239453125,"velocity":57},{"channel":9,"duration":0.09375,"durationBeats":0.25,"durationTicks":240,"endBeat":33.182291666666664,"endTick":31855,"endTime":12.443359375,"note":35,"startBeat":32.932291666666664,"startTick":31615,"startTime":12.349609375,"velocity":50},{"channel":9,"duration":0.09375,"durationBeats":0.25,"durationTicks":240,"endBeat":33.354166666666664,"endTick":32020,"endTime":12.5078125,"note":42,"startBeat":33.104166666666664,"startTick":31780,"startTime":12.4140625,"velocity":50},{"channel":1,"duration":0.1875,"durationBeats":0.5,"durationTicks":480,"endBeat":33.409375,"endTick":32073,"endTime":12.528515624999999,"note":26,"startBeat":32.909375,"startTick":31593,"startTime":12.341015624999999,"velocity":50},{"channel":9,"duration":0.09375,"durationBeats":0.25,"durationTicks":240,"endBeat":33.661458333333336,"endTick":32315,"endTime":12.623046875,"note":35,"startBeat":33.411458333333336,"startTick":32075,"startTime":12.529296875,"velocity":50},{"channel":9,"duration":0.0625,"durationBeats":0.1666666666666643,"durationTicks":160,"endBeat":33.75,"endTick":32400,"endTime":12.65625,"note":42,"startBeat":33.583333333333336,"startTick":32240,"startTime":12.59375,"velocity":50},{"channel":9,"duration":0.09375,"durationBeats":0.25,"durationTicks":240,"endBeat":33.932291666666664,"endTick":32575,"endTime":12.724609375,"note":35,"startBeat":33.682291666666664,"startTick":32335,"startTime":12.630859375,"velocity":50},{"channel":9,"duration":0.09375,"durationBeats":0.25,"durationTicks":240,"endBeat":34.104166666666664,"endTick":32740,"endTime":12.7890625,"note":42,"startBeat":33.854166666666664,"startTick":32500,"startTime":12.6953125,"velocity":50},{"channel":2,"duration":0.1875,"durationBeats":0.5,"durationTicks":480,"endBeat":34.13854166666667,"endTick":32773,"endTime":12.801953125,"note":26,"startBeat":33.63854166666667,"startTick":32293,"startTime":12.614453125,"velocity":57},{"channel":1,"duration":0.1875,"durationBeats":0.5,"durationTicks":480,"endBeat":34.409375,"endTick":33033,"endTime":12.903515624999999,"note":26,"startBeat":33.909375,"startTick":32553,"startTime":12.716015624999999,"velocity":50},{"channel":9,"duration":0.09375,"durationBeats":0.25,"durationTicks":240,"endBeat":34.411458333333336,"endTick":33035,"endTime":12.904296875,"note":35,"startBeat":34.161458333333336,"startTick":32795,"startTime":12.810546875,"velocity":50},{"channel":9,"duration":0.09375,"durationBeats":0.25,"durationTicks":240,"endBeat":34.5,"endTick":33120,"endTime":12.9375,"note":42,"startBeat":34.25,"startTick":32880,"startTime":12.84375,"velocity":50},{"channel":2,"duration":0.1875,"durationBeats":0.5,"durationTicks":480,"endBeat":34.63854166666667,"endTick":33253,"endTime":12.989453125,"note":33,"startBeat":34.13854166666667,"startTick":32773,"startTime":12.801953125,"velocity":57},{"channel":9,"duration":0.0078125,"durationBeats":0.020833333333328596,"durationTicks":20,"endBeat":34.682291666666664,"endTick":33295,"endTime":13.005859375,"note":35,"startBeat":34.661458333333336,"startTick":33275,"startTime":12.998046875,"velocity":50},{"channel":9,"duration":0.09375,"durationBeats":0.25,"durationTicks":240,"endBeat":34.75,"endTick":33360,"endTime":13.03125,"note":42,"startBeat":34.5,"startTick":33120,"startTime":12.9375,"velocity":50},{"channel":1,"duration":0.1875,"durationBeats":0.5,"durationTicks":480,"endBeat":34.909375,"endTick":33513,"endTime":13.091015624999999,"note":33,"startBeat":34.409375,"startTick":33033,"startTime":12.903515624999999,"velocity":50},{"channel":9,"duration":0.09375,"durationBeats":0.25,"durationTicks":240,"endBeat":35.083333333333336,"endTick":33680,"endTime":13.15625,"note":42,"startBeat":34.833333333333336,"startTick":33440,"startTime":13.0625,"velocity":50},{"channel":2,"duration":0.1875,"durationBeats":0.5,"durationTicks":480,"endBeat":35.13854166666667,"endTick":33733,"endTime":13.176953125,"note":26,"startBeat":34.63854166666667,"startTick":33253,"startTime":12.989453125,"velocity":57},{"channel":9,"duration":0.09375,"durationBeats":0.25,"durationTicks":240,"endBeat":35.182291666666664,"endTick":33775,"endTime":13.193359375,"note":35,"startBeat":34.932291666666664,"startTick":33535,"startTime":13.099609375,"velocity":50},{"channel":9,"duration":0.0390625,"durationBeats":0.1041666666666643,"durationTicks":100,"endBeat":35.354166666666664,"endTick":33940,"endTime":13.2578125,"note":42,"startBeat":35.25,"startTick":33840,"startTime":13.21875,"velocity":50},{"channel":1,"duration":0.1875,"durationBeats":0.5,"durationTicks":480,"endBeat":35.409375,"endTick":33993,"endTime":13.278515624999999,"note":26,"startBeat":34.909375,"startTick":33513,"startTime":13.091015624999999,"velocity":50},{"channel":2,"duration":0.1875,"durationBeats":0.5,"durationTicks":480,"endBeat":35.63854166666667,"endTick":34213,"endTime":13.364453125,"note":38,"startBeat":35.13854166666667,"startTick":33733,"startTime":13.176953125,"velocity":57},{"channel":1,"duration":0.1875,"durationBeats":0.5,"durationTicks":480,"endBeat":35.909375,"endTick":34473,"endTime":13.466015624999999,"note":38,"startBeat":35.409375,"startTick":33993,"startTime":13.278515624999999,"velocity":50},{"channel":9,"duration":0.09375,"durationBeats":0.25,"durationTicks":240,"endBeat":35.911458333333336,"endTick":34475,"endTime":13.466796875,"note":35,"startBeat":35.661458333333336,"startTick":34235,"startTime":13.373046875,"velocity":50},{"channel":9,"duration":0.03125,"durationBeats":0.0833333333333357,"durationTicks":80,"endBeat":36.083333333333336,"endTick":34640,"endTime":13.53125,"note":42,"startBeat":36,"startTick":34560,"startTime":13.5,"velocity":50},{"channel":2,"duration":0.1875,"durationBeats":0.5,"durationTicks":480,"endBeat":36.13854166666667,"endTick":34693,"endTime":13.551953125,"note":26,"startBeat":35.63854166666667,"startTick":34213,"startTime":13.364453125,"velocity":57},{"channel":9,"duration":0.09375,"durationBeats":0.25,"durationTicks":240,"endBeat":36.182291666666664,"endTick":34735,"endTime":13.568359375,"note":35,"startBeat":35.932291666666664,"startTick":34495,"startTime":13.474609375,"velocity":50},{"channel":9,"duration":0.0546875,"durationBeats":0.1458333333333357,"durationTicks":140,"endBeat":36.25,"endTick":34800,"endTime":13.59375,"note":42,"startBeat":36.104166666666664,"startTick":34660,"startTime":13.5390625,"velocity":50},{"channel":9,"duration":0.0234375,"durationBeats":0.0625,"durationTicks":60,"endBeat":36.3125,"endTick":34860,"endTime":13.6171875,"note":42,"startBeat":36.25,"startTick":34800,"startTime":13.59375,"velocity":50},{"channel":1,"duration":0.1875,"durationBeats":0.5,"durationTicks":480,"endBeat":36.409375,"endTick":34953,"endTime":13.653515624999999,"note":26,"startBeat":35.909375,"startTick":34473,"startTime":13.466015624999999,"velocity":50},{"channel":9,"duration":0.0234375,"durationBeats":0.0625,"durationTicks":60,"endBeat":36.4375,"endTick":34980,"endTime":13.6640625,"note":42,"startBeat":36.375,"startTick":34920,"startTime":13.640625,"velocity":50},{"channel":9,"duration":0.0234375,"durationBeats":0.0625,"durationTicks":60,"endBeat":36.5625,"endTick":35100,"endTime":13.7109375,"note":42,"startBeat":36.5,"startTick":35040,"startTime":13.6875,"velocity":50},{"channel":12,"duration":0.1875,"durationBeats":0.5,"durationTicks":480,"endBeat":36.60729166666667,"endTick":35143,"endTime":13.727734375,"note":67,"startBeat":36.10729166666667,"startTick":34663,"startTime":13.540234375,"velocity":50},{"channel":2,"duration":0.1875,"durationBeats":0.5,"durationTicks":480,"endBeat":36.63854166666667,"endTick":35173,"endTime":13.739453125,"note":33,"startBeat":36.13854166666667,"startTick":34693,"startTime":13.551953125,"velocity":57},{"channel":9,"duration":0.0234375,"durationBeats":0.0625,"durationTicks":60,"endBeat":36.6875,"endTick":35220,"endTime":13.7578125,"note":42,"startBeat":36.625,"startTick":35160,"startTime":13.734375,"velocity":50},{"channel":9,"duration":0.0234375,"durationBeats":0.0625,"durationTicks":60,"endBeat":36.8125,"endTick":35340,"endTime":13.8046875,"note":42,"startBeat":36.75,"startTick":35280,"startTime":13.78125,"velocity":50},{"channel":1,"duration":0.1875,"durationBeats":0.5,"durationTicks":480,"endBeat":36.909375,"endTick":35433,"endTime":13.841015624999999,"note":33,"startBeat":36.409375,"startTick":34953,"startTime":13.653515624999999,"velocity":50},{"channel":9,"duration":0.09375,"durationBeats":0.25,"durationTicks":240,"endBeat":36.911458333333336,"endTick":35435,"endTime":13.841796875,"note":35,"startBeat":36.661458333333336,"startTick":35195,"startTime":13.748046875,"velocity":50},{"channel":9,"duration":0.09375,"durationBeats":0.25,"durationTicks":240,"endBeat":37.083333333333336,"endTick":35600,"endTime":13.90625,"note":42,"startBeat":36.833333333333336,"startTick":35360,"startTime":13.8125,"velocity":50},{"channel":2,"duration":0.1875,"durationBeats":0.5,"durationTicks":480,"endBeat":37.13854166666667,"endTick":35653,"endTime":13.926953125,"note":32,"startBeat":36.63854166666667,"startTick":35173,"startTime":13.739453125,"velocity":57},{"channel":9,"duration":0.09375,"durationBeats":0.25,"durationTicks":240,"endBeat":37.182291666666664,"endTick":35695,"endTime":13.943359375,"note":35,"startBeat":36.932291666666664,"startTick":35455,"startTime":13.849609375,"velocity":50},{"channel":9,"duration":0.0390625,"durationBeats":0.1041666666666643,"durationTicks":100,"endBeat":37.354166666666664,"endTick":35860,"endTime":14.0078125,"note":42,"startBeat":37.25,"startTick":35760,"startTime":13.96875,"velocity":50},{"channel":1,"duration":0.1875,"durationBeats":0.5,"durationTicks":480,"endBeat":37.409375,"endTick":35913,"endTime":14.028515624999999,"note":32,"startBeat":36.909375,"startTick":35433,"startTime":13.841015624999999,"velocity":50},{"channel":12,"duration":0.1875,"durationBeats":0.5,"durationTicks":480,"endBeat":37.60729166666667,"endTick":36103,"endTime":14.102734375,"note":65,"startBeat":37.10729166666667,"startTick":35623,"startTime":13.915234375,"velocity":50},{"channel":2,"duration":0.1875,"durationBeats":0.5,"durationTicks":480,"endBeat":37.63854166666667,"endTick":36133,"endTime":14.114453125,"note":31,"startBeat":37.13854166666667,"startTick":35653,"startTime":13.926953125,"velocity":57},{"channel":9,"duration":0.09375,"durationBeats":0.25,"durationTicks":240,"endBeat":37.661458333333336,"endTick":36155,"endTime":14.123046875,"note":35,"startBeat":37.411458333333336,"startTick":35915,"startTime":14.029296875,"velocity":50},{"channel":9,"duration":0.0625,"durationBeats":0.1666666666666643,"durationTicks":160,"endBeat":37.75,"endTick":36240,"endTime":14.15625,"note":42,"startBeat":37.583333333333336,"startTick":36080,"startTime":14.09375,"velocity":50},{"channel":1,"duration":0.1875,"durationBeats":0.5,"durationTicks":480,"endBeat":37.909375,"endTick":36393,"endTime":14.216015624999999,"note":31,"startBeat":37.409375,"startTick":35913,"startTime":14.028515624999999,"velocity":50},{"channel":9,"duration":0.09375,"durationBeats":0.25,"durationTicks":240,"endBeat":37.932291666666664,"endTick":36415,"endTime":14.224609375,"note":35,"startBeat":37.682291666666664,"startTick":36175,"startTime":14.130859375,"velocity":50},{"channel":9,"duration":0.09375,"durationBeats":0.25,"durationTicks":240,"endBeat":38.104166666666664,"endTick":36580,"endTime":14.2890625,"note":42,"startBeat":37.854166666666664,"startTick":36340,"startTime":14.1953125,"velocity":50},{"channel":9,"duration":0.09375,"durationBeats":0.25,"durationTicks":240,"endBeat":38.411458333333336,"endTick":36875,"endTime":14.404296875,"note":35,"startBeat":38.161458333333336,"startTick":36635,"startTime":14.310546875,"velocity":50},{"channel":9,"duration":0.09375,"durationBeats":0.25,"durationTicks":240,"endBeat":38.5,"endTick":36960,"endTime":14.4375,"note":42,"startBeat":38.25,"startTick":36720,"startTime":14.34375,"velocity":50},{"channel":12,"duration":0.1875,"durationBeats":0.5,"durationTicks":480,"endBeat":38.60729166666667,"endTick":37063,"endTime":14.477734375,"note":64,"startBeat":38.10729166666667,"startTick":36583,"startTime":14.290234375,"velocity":50},{"channel":2,"duration":0.1875,"durationBeats":0.5,"durationTicks":480,"endBeat":38.63854166666667,"endTick":37093,"endTime":14.489453125,"note":31,"startBeat":38.13854166666667,"startTick":36613,"startTime":14.301953125,"velocity":57},{"channel":9,"duration":0.0078125,"durationBeats":0.020833333333328596,"durationTicks":20,"endBeat":38.682291666666664,"endTick":37135,"endTime":14.505859375,"note":35,"startBeat":38.661458333333336,"startTick":37115,"startTime":14.498046875,"velocity":50},{"channel":9,"duration":0.09375,"durationBeats":0.25,"durationTicks":240,"endBeat":38.75,"endTick":37200,"endTime":14.53125,"note":42,"startBeat":38.5,"startTick":36960,"startTime":14.4375,"velocity":50},{"channel":1,"duration":0.1875,"durationBeats":0.5,"durationTicks":480,"endBeat":38.909375,"endTick":37353,"endTime":14.591015624999999,"note":31,"startBeat":38.409375,"startTick":36873,"startTime":14.403515624999999,"velocity":50},{"channel":9,"duration":0.09375,"durationBeats":0.25,"durationTicks":240,"endBeat":39.083333333333336,"endTick":37520,"endTime":14.65625,"note":42,"startBeat":38.833333333333336,"startTick":37280,"startTime":14.5625,"velocity":50},{"channel":2,"duration":0.1875,"durationBeats":0.5,"durationTicks":480,"endBeat":39.13854166666667,"endTick":37573,"endTime":14.676953125,"note":32,"startBeat":38.63854166666667,"startTick":37093,"startTime":14.489453125,"velocity":57},{"channel":9,"duration":0.09375,"durationBeats":0.25,"durationTicks":240,"endBeat":39.182291666666664,"endTick":37615,"endTime":14.693359375,"note":35,"startBeat":38.932291666666664,"startTick":37375,"startTime":14.599609375,"velocity":50},{"channel":9,"duration":0.0390625,"durationBeats":0.1041666666666643,"durationTicks":100,"endBeat":39.354166666666664,"endTick":37780,"endTime":14.7578125,"note":42,"startBeat":39.25,"startTick":37680,"startTime":14.71875,"velocity":50},{"channel":1,"duration":0.1875,"durationBeats":0.5,"durationTicks":480,"endBeat":39.409375,"endTick":37833,"endTime":14.778515624999999,"note":32,"startBeat":38.909375,"startTick":37353,"startTime":14.591015624999999,"velocity":50},{"channel":12,"duration":0.1875,"durationBeats":0.5,"durationTicks":480,"endBeat":39.60729166666667,"endTick":38023,"endTime":14.852734375,"note":67,"startBeat":39.10729166666667,"startTick":37543,"startTime":14.665234375,"velocity":50},{"channel":2,"duration":0.1875,"durationBeats":0.5,"durationTicks":480,"endBeat":39.63854166666667,"endTick":38053,"endTime":14.864453125,"note":33,"startBeat":39.13854166666667,"startTick":37573,"startTime":14.676953125,"velocity":57},{"channel":1,"duration":0.1875,"durationBeats":0.5,"durationTicks":480,"endBeat":39.909375,"endTick":38313,"endTime":14.966015624999999,"note":33,"startBeat":39.409375,"startTick":37833,"startTime":14.778515624999999,"velocity":50},{"channel":9,"duration":0.09375,"durationBeats":0.25,"durationTicks":240,"endBeat":39.911458333333336,"endTick":38315,"endTime":14.966796875,"note":35,"startBeat":39.661458333333336,"startTick":38075,"startTime":14.873046875,"velocity":50},{"channel":9,"duration":0.03125,"durationBeats":0.0833333333333357,"durationTicks":80,"endBeat":40.083333333333336,"endTick":38480,"endTime":15.03125,"note":42,"startBeat":40,"startTick":38400,"startTime":15,"velocity":50},{"channel":2,"duration":0.09375,"durationBeats":0.25,"durationTicks":240,"endBeat":40.13854166666667,"endTick":38533,"endTime":15.051953125,"note":33,"startBeat":39.88854166666667,"startTick":38293,"startTime":14.958203125,"velocity":57},{"channel":9,"duration":0.09375,"durationBeats":0.25,"durationTicks":240,"endBeat":40.182291666666664,"endTick":38575,"endTime":15.068359375,"note":35,"startBeat":39.932291666666664,"startTick":38335,"startTime":14.974609375,"velocity":50},{"channel":9,"duration":0.0546875,"durationBeats":0.1458333333333357,"durationTicks":140,"endBeat":40.25,"endTick":38640,"endTime":15.09375,"note":42,"startBeat":40.104166666666664,"startTick":38500,"startTime":15.0390625,"velocity":50},{"channel":9,"duration":0.0234375,"durationBeats":0.0625,"durationTicks":60,"endBeat":40.3125,"endTick":38700,"endTime":15.1171875,"note":42,"startBeat":40.25,"startTick":38640,"startTime":15.09375,"velocity":50},{"channel":1,"duration":0.09375,"durationBeats":0.25,"durationTicks":240,"endBeat":40.409375,"endTick":38793,"endTime":15.153515624999999,"note":33,"startBeat":40.159375,"startTick":38553,"startTime":15.059765624999999,"velocity":50},{"channel":9,"duration":0.0234375,"durationBeats":0.0625,"durationTicks":60,"endBeat":40.4375,"endTick":38820,"endTime":15.1640625,"note":42,"startBeat":40.375,"startTick":38760,"startTime":15.140625,"velocity":50},{"channel":9,"duration":0.0234375,"durationBeats":0.0625,"durationTicks":60,"endBeat":40.5625,"endTick":38940,"endTime":15.2109375,"note":42,"startBeat":40.5,"startTick":38880,"startTime":15.1875,"velocity":50},{"channel":12,"duration":0.1875,"durationBeats":0.5,"durationTicks":480,"endBeat":40.60729166666667,"endTick":38983,"endTime":15.227734375,"note":65,"startBeat":40.10729166666667,"startTick":38503,"startTime":15.040234375,"velocity":50},{"channel":9,"duration":0.0234375,"durationBeats":0.0625,"durationTicks":60,"endBeat":40.6875,"endTick":39060,"endTime":15.2578125,"note":42,"startBeat":40.625,"startTick":39000,"startTime":15.234375,"velocity":50},{"channel":9,"duration":0.0234375,"durationBeats":0.0625,"durationTicks":60,"endBeat":40.8125,"endTick":39180,"endTime":15.3046875,"note":42,"startBeat":40.75,"startTick":39120,"startTime":15.28125,"velocity":50},{"channel":9,"duration":0.09375,"durationBeats":0.25,"durationTicks":240,"endBeat":40.911458333333336,"endTick":39275,"endTime":15.341796875,"note":35,"startBeat":40.661458333333336,"startTick":39035,"startTime":15.248046875,"velocity":50},{"channel":9,"duration":0.09375,"durationBeats":0.25,"durationTicks":240,"endBeat":41.083333333333336,"endTick":39440,"endTime":15.40625,"note":42,"startBeat":40.833333333333336,"startTick":39200,"startTime":15.3125,"velocity":50},{"channel":2,"duration":0.1875,"durationBeats":0.5,"durationTicks":480,"endBeat":41.13854166666667,"endTick":39493,"endTime":15.426953125,"note":26,"startBeat":40.63854166666667,"startTick":39013,"startTime":15.239453125,"velocity":57},{"channel":9,"duration":0.09375,"durationBeats":0.25,"durationTicks":240,"endBeat":41.182291666666664,"endTick":39535,"endTime":15.443359375,"note":35,"startBeat":40.932291666666664,"startTick":39295,"startTime":15.349609375,"velocity":50},{"channel":9,"duration":0.0390625,"durationBeats":0.1041666666666643,"durationTicks":100,"endBeat":41.354166666666664,"endTick":39700,"endTime":15.5078125,"note":42,"startBeat":41.25,"startTick":39600,"startTime":15.46875,"velocity":50},{"channel":1,"duration":0.1875,"durationBeats":0.5,"durationTicks":480,"endBeat":41.409375,"endTick":39753,"endTime":15.528515624999999,"note":26,"startBeat":40.909375,"startTick":39273,"startTime":15.341015624999999,"velocity":50},{"channel":12,"duration":0.1875,"durationBeats":0.5,"durationTicks":480,"endBeat":41.60729166666667,"endTick":39943,"endTime":15.602734375,"note":64,"startBeat":41.10729166666667,"startTick":39463,"startTime":15.415234375,"velocity":50},{"channel":9,"duration":0.09375,"durationBeats":0.25,"durationTicks":240,"endBeat":41.661458333333336,"endTick":39995,"endTime":15.623046875,"note":35,"startBeat":41.411458333333336,"startTick":39755,"startTime":15.529296875,"velocity":50},{"channel":9,"duration":0.09101562500000071,"durationBeats":0.24270833333333286,"durationTicks":233,"endBeat":41.74270833333333,"endTick":40073,"endTime":15.653515625,"note":52,"startBeat":41.5,"startTick":39840,"startTime":15.5625,"velocity":50},{"channel":9,"duration":0.0625,"durationBeats":0.1666666666666643,"durationTicks":160,"endBeat":41.75,"endTick":40080,"endTime":15.65625,"note":42,"startBeat":41.583333333333336,"startTick":39920,"startTime":15.59375,"velocity":50},{"channel":9,"duration":0.09375,"durationBeats":0.25,"durationTicks":240,"endBeat":41.932291666666664,"endTick":40255,"endTime":15.724609375,"note":35,"startBeat":41.682291666666664,"startTick":40015,"startTime":15.630859375,"velocity":50},{"channel":9,"duration":0.09375,"durationBeats":0.25,"durationTicks":240,"endBeat":42.104166666666664,"endTick":40420,"endTime":15.7890625,"note":42,"startBeat":41.854166666666664,"startTick":40180,"startTime":15.6953125,"velocity":50},{"channel":2,"duration":0.1875,"durationBeats":0.5,"durationTicks":480,"endBeat":42.13854166666667,"endTick":40453,"endTime":15.801953125,"note":38,"startBeat":41.63854166666667,"startTick":39973,"startTime":15.614453125,"velocity":57},{"channel":1,"duration":0.1875,"durationBeats":0.5,"durationTicks":480,"endBeat":42.409375,"endTick":40713,"endTime":15.903515624999999,"note":38,"startBeat":41.909375,"startTick":40233,"startTime":15.716015624999999,"velocity":50},{"channel":9,"duration":0.09375,"durationBeats":0.25,"durationTicks":240,"endBeat":42.411458333333336,"endTick":40715,"endTime":15.904296875,"note":35,"startBeat":42.161458333333336,"startTick":40475,"startTime":15.810546875,"velocity":50},{"channel":9,"duration":0.09375,"durationBeats":0.25,"durationTicks":240,"endBeat":42.5,"endTick":40800,"endTime":15.9375,"note":42,"startBeat":42.25,"startTick":40560,"startTime":15.84375,"velocity":50},{"channel":12,"duration":0.1875,"durationBeats":0.5,"durationTicks":480,"endBeat":42.60729166666667,"endTick":40903,"endTime":15.977734375,"note":62,"startBeat":42.10729166666667,"startTick":40423,"startTime":15.790234375,"velocity":50},{"channel":2,"duration":0.1875,"durationBeats":0.5,"durationTicks":480,"endBeat":42.63854166666667,"endTick":40933,"endTime":15.989453125,"note":26,"startBeat":42.13854166666667,"startTick":40453,"startTime":15.801953125,"velocity":57},{"channel":9,"duration":0.0078125,"durationBeats":0.020833333333328596,"durationTicks":20,"endBeat":42.682291666666664,"endTick":40975,"endTime":16.005859375,"note":35,"startBeat":42.661458333333336,"startTick":40955,"startTime":15.998046875,"velocity":50},{"channel":9,"duration":0.09375,"durationBeats":0.25,"durationTicks":240,"endBeat":42.75,"endTick":41040,"endTime":16.03125,"note":42,"startBeat":42.5,"startTick":40800,"startTime":15.9375,"velocity":50},{"channel":1,"duration":0.18749999999999822,"durationBeats":0.5,"durationTicks":480,"endBeat":42.909375,"endTick":41193,"endTime":16.091015624999997,"note":26,"startBeat":42.409375,"startTick":40713,"startTime":15.903515624999999,"velocity":50},{"channel":9,"duration":0.09375,"durationBeats":0.25,"durationTicks":240,"endBeat":43.083333333333336,"endTick":41360,"endTime":16.15625,"note":42,"startBeat":42.833333333333336,"startTick":41120,"startTime":16.0625,"velocity":50},{"channel":2,"duration":0.1875,"durationBeats":0.5,"durationTicks":480,"endBeat":43.13854166666667,"endTick":41413,"endTime":16.176953125,"note":33,"startBeat":42.63854166666667,"startTick":40933,"startTime":15.989453125,"velocity":57},{"channel":9,"duration":0.09375,"durationBeats":0.25,"durationTicks":240,"endBeat":43.182291666666664,"endTick":41455,"endTime":16.193359375,"note":35,"startBeat":42.932291666666664,"startTick":41215,"startTime":16.099609375,"velocity":50},{"channel":9,"duration":0.03125,"durationBeats":0.0833333333333357,"durationTicks":80,"endBeat":43.333333333333336,"endTick":41600,"endTime":16.25,"note":42,"startBeat":43.25,"startTick":41520,"startTime":16.21875,"velocity":50},{"channel":1,"duration":0.1875,"durationBeats":0.5,"durationTicks":480,"endBeat":43.409375,"endTick":41673,"endTime":16.278515624999997,"note":33,"startBeat":42.909375,"startTick":41193,"startTime":16.091015624999997,"velocity":50},{"channel":12,"duration":0.1875,"durationBeats":0.5,"durationTicks":480,"endBeat":43.60729166666667,"endTick":41863,"endTime":16.352734375,"note":65,"startBeat":43.10729166666667,"startTick":41383,"startTime":16.165234375,"velocity":50},{"channel":9,"duration":0.09375,"durationBeats":0.25,"durationTicks":240,"endBeat":43.911458333333336,"endTick":42155,"endTime":16.466796875,"note":35,"startBeat":43.661458333333336,"startTick":41915,"startTime":16.373046875,"velocity":50},{"channel":9,"duration":0.03125,"durationBeats":0.0833333333333357,"durationTicks":80,"endBeat":44.083333333333336,"endTick":42320,"endTime":16.53125,"note":42,"startBeat":44,"startTick":42240,"startTime":16.5,"velocity":50},{"channel":2,"duration":0.1875,"durationBeats":0.5,"durationTicks":480,"endBeat":44.13854166666667,"endTick":42373,"endTime":16.551953125,"note":26,"startBeat":43.63854166666667,"startTick":41893,"startTime":16.364453125,"velocity":57},{"channel":9,"duration":0.09375,"durationBeats":0.25,"durationTicks":240,"endBeat":44.182291666666664,"endTick":42415,"endTime":16.568359375,"note":35,"startBeat":43.932291666666664,"startTick":42175,"startTime":16.474609375,"velocity":50},{"channel":9,"duration":0.0625,"durationBeats":0.1666666666666643,"durationTicks":160,"endBeat":44.25,"endTick":42480,"endTime":16.59375,"note":42,"startBeat":44.083333333333336,"startTick":42320,"startTime":16.53125,"velocity":50},{"channel":9,"duration":0.0234375,"durationBeats":0.0625,"durationTicks":60,"endBeat":44.3125,"endTick":42540,"endTime":16.6171875,"note":42,"startBeat":44.25,"startTick":42480,"startTime":16.59375,"velocity":50},{"channel":1,"duration":0.1875,"durationBeats":0.5,"durationTicks":480,"endBeat":44.409375,"endTick":42633,"endTime":16.653515624999997,"note":26,"startBeat":43.909375,"startTick":42153,"startTime":16.466015624999997,"velocity":50},{"channel":9,"duration":0.0234375,"durationBeats":0.0625,"durationTicks":60,"endBeat":44.4375,"endTick":42660,"endTime":16.6640625,"note":42,"startBeat":44.375,"startTick":42600,"startTime":16.640625,"velocity":50},{"channel":9,"duration":0.0234375,"durationBeats":0.0625,"durationTicks":60,"endBeat":44.5625,"endTick":42780,"endTime":16.7109375,"note":42,"startBeat":44.5,"startTick":42720,"startTime":16.6875,"velocity":50},{"channel":12,"duration":0.1875,"durationBeats":0.5,"durationTicks":480,"endBeat":44.60729166666667,"endTick":42823,"endTime":16.727734375,"note":64,"startBeat":44.10729166666667,"startTick":42343,"startTime":16.540234375,"velocity":50},{"channel":2,"duration":0.1875,"durationBeats":0.5,"durationTicks":480,"endBeat":44.63854166666667,"endTick":42853,"endTime":16.739453125,"note":33,"startBeat":44.13854166666667,"startTick":42373,"startTime":16.551953125,"velocity":57},{"channel":9,"duration":0.0234375,"durationBeats":0.0625,"durationTicks":60,"endBeat":44.6875,"endTick":42900,"endTime":16.7578125,"note":42,"startBeat":44.625,"startTick":42840,"startTime":16.734375,"velocity":50},{"channel":9,"duration":0.0234375,"durationBeats":0.0625,"durationTicks":60,"endBeat":44.8125,"endTick":43020,"endTime":16.8046875,"note":42,"startBeat":44.75,"startTick":42960,"startTime":16.78125,"velocity":50},{"channel":1,"duration":0.1875,"durationBeats":0.5,"durationTicks":480,"endBeat":44.909375,"endTick":43113,"endTime":16.841015624999997,"note":33,"startBeat":44.409375,"startTick":42633,"startTime":16.653515624999997,"velocity":50},{"channel":9,"duration":0.09375,"durationBeats":0.25,"durationTicks":240,"endBeat":44.911458333333336,"endTick":43115,"endTime":16.841796875,"note":35,"startBeat":44.661458333333336,"startTick":42875,"startTime":16.748046875,"velocity":50},{"channel":8,"duration":0.1875,"durationBeats":0.5,"durationTicks":480,"endBeat":44.916666666666664,"endTick":43120,"endTime":16.84375,"note":67,"startBeat":44.416666666666664,"startTick":42640,"startTime":16.65625,"velocity":50},{"channel":9,"duration":0.09375,"durationBeats":0.25,"durationTicks":240,"endBeat":45.083333333333336,"endTick":43280,"endTime":16.90625,"note":42,"startBeat":44.833333333333336,"startTick":43040,"startTime":16.8125,"velocity":50},{"channel":2,"duration":0.1875,"durationBeats":0.5,"durationTicks":480,"endBeat":45.13854166666667,"endTick":43333,"endTime":16.926953125,"note":32,"startBeat":44.63854166666667,"startTick":42853,"startTime":16.739453125,"velocity":57},{"channel":9,"duration":0.09375,"durationBeats":0.25,"durationTicks":240,"endBeat":45.182291666666664,"endTick":43375,"endTime":16.943359375,"note":35,"startBeat":44.932291666666664,"startTick":43135,"startTime":16.849609375,"velocity":50},{"channel":1,"duration":0.1875,"durationBeats":0.5,"durationTicks":480,"endBeat":45.409375,"endTick":43593,"endTime":17.028515624999997,"note":32,"startBeat":44.909375,"startTick":43113,"startTime":16.841015624999997,"velocity":50},{"channel":9,"duration":0.09375,"durationBeats":0.25,"durationTicks":240,"endBeat":45.5,"endTick":43680,"endTime":17.0625,"note":42,"startBeat":45.25,"startTick":43440,"startTime":16.96875,"velocity":50},{"channel":12,"duration":0.1875,"durationBeats":0.5,"durationTicks":480,"endBeat":45.60729166666667,"endTick":43783,"endTime":17.102734375,"note":62,"startBeat":45.10729166666667,"startTick":43303,"startTime":16.915234375,"velocity":50},{"channel":2,"duration":0.1875,"durationBeats":0.5,"durationTicks":480,"endBeat":45.63854166666667,"endTick":43813,"endTime":17.114453125,"note":31,"startBeat":45.13854166666667,"startTick":43333,"startTime":16.926953125,"velocity":57},{"channel":9,"duration":0.09375,"durationBeats":0.25,"durationTicks":240,"endBeat":45.661458333333336,"endTick":43835,"endTime":17.123046875,"note":35,"startBeat":45.411458333333336,"startTick":43595,"startTime":17.029296875,"velocity":50},{"channel":9,"duration":0.09375,"durationBeats":0.25,"durationTicks":240,"endBeat":45.833333333333336,"endTick":44000,"endTime":17.1875,"note":42,"startBeat":45.583333333333336,"startTick":43760,"startTime":17.09375,"velocity":50},{"channel":9,"duration":0.0234375,"durationBeats":0.0625,"durationTicks":60,"endBeat":45.895833333333336,"endTick":44060,"endTime":17.2109375,"note":42,"startBeat":45.833333333333336,"startTick":44000,"startTime":17.1875,"velocity":50},{"channel":1,"duration":0.1875,"durationBeats":0.5,"durationTicks":480,"endBeat":45.909375,"endTick":44073,"endTime":17.216015624999997,"note":31,"startBeat":45.409375,"startTick":43593,"startTime":17.028515624999997,"velocity":50},{"channel":8,"duration":0.1875,"durationBeats":0.5,"durationTicks":480,"endBeat":45.916666666666664,"endTick":44080,"endTime":17.21875,"note":65,"startBeat":45.416666666666664,"startTick":43600,"startTime":17.03125,"velocity":50},{"channel":9,"duration":0.09375,"durationBeats":0.25,"durationTicks":240,"endBeat":45.932291666666664,"endTick":44095,"endTime":17.224609375,"note":35,"startBeat":45.682291666666664,"startTick":43855,"startTime":17.130859375,"velocity":50},{"channel":9,"duration":0.0234375,"durationBeats":0.0625,"durationTicks":60,"endBeat":46.020833333333336,"endTick":44180,"endTime":17.2578125,"note":42,"startBeat":45.958333333333336,"startTick":44120,"startTime":17.234375,"velocity":50},{"channel":9,"duration":0.0234375,"durationBeats":0.0625,"durationTicks":60,"endBeat":46.145833333333336,"endTick":44300,"endTime":17.3046875,"note":42,"startBeat":46.083333333333336,"startTick":44240,"startTime":17.28125,"velocity":50},{"channel":9,"duration":0.0078125,"durationBeats":0.020833333333335702,"durationTicks":20,"endBeat":46.270833333333336,"endTick":44420,"endTime":17.3515625,"note":42,"startBeat":46.25,"startTick":44400,"startTime":17.34375,"velocity":50},{"channel":9,"duration":0.0234375,"durationBeats":0.0625,"durationTicks":60,"endBeat":46.395833333333336,"endTick":44540,"endTime":17.3984375,"note":42,"startBeat":46.333333333333336,"startTick":44480,"startTime":17.375,"velocity":50},{"channel":9,"duration":0.09375,"durationBeats":0.25,"durationTicks":240,"endBeat":46.411458333333336,"endTick":44555,"endTime":17.404296875,"note":35,"startBeat":46.161458333333336,"startTick":44315,"startTime":17.310546875,"velocity":50},{"channel":12,"duration":0.1875,"durationBeats":0.5,"durationTicks":480,"endBeat":46.60729166666667,"endTick":44743,"endTime":17.477734375,"note":60,"startBeat":46.10729166666667,"startTick":44263,"startTime":17.290234375,"velocity":50},{"channel":2,"duration":0.1875,"durationBeats":0.5,"durationTicks":480,"endBeat":46.63854166666667,"endTick":44773,"endTime":17.489453125,"note":31,"startBeat":46.13854166666667,"startTick":44293,"startTime":17.301953125,"velocity":57},{"channel":9,"duration":0.0078125,"durationBeats":0.020833333333328596,"durationTicks":20,"endBeat":46.682291666666664,"endTick":44815,"endTime":17.505859375,"note":35,"startBeat":46.661458333333336,"startTick":44795,"startTime":17.498046875,"velocity":50},{"channel":9,"duration":0.09375,"durationBeats":0.25,"durationTicks":240,"endBeat":46.75,"endTick":44880,"endTime":17.53125,"note":42,"startBeat":46.5,"startTick":44640,"startTime":17.4375,"velocity":50},{"channel":1,"duration":0.1875,"durationBeats":0.5,"durationTicks":480,"endBeat":46.909375,"endTick":45033,"endTime":17.591015624999997,"note":31,"startBeat":46.409375,"startTick":44553,"startTime":17.403515624999997,"velocity":50},{"channel":8,"duration":0.1875,"durationBeats":0.5,"durationTicks":480,"endBeat":46.916666666666664,"endTick":45040,"endTime":17.59375,"note":64,"startBeat":46.416666666666664,"startTick":44560,"startTime":17.40625,"velocity":50},{"channel":11,"duration":1.5,"durationBeats":4,"durationTicks":3840,"endBeat":47.036458333333336,"endTick":45155,"endTime":17.638671875,"note":61,"startBeat":43.036458333333336,"startTick":41315,"startTime":16.138671875,"velocity":50},{"channel":11,"duration":1.5,"durationBeats":4,"durationTicks":3840,"endBeat":47.036458333333336,"endTick":45155,"endTime":17.638671875,"note":64,"startBeat":43.036458333333336,"startTick":41315,"startTime":16.138671875,"velocity":50},{"channel":9,"duration":0.09375,"durationBeats":0.25,"durationTicks":240,"endBeat":47.083333333333336,"endTick":45200,"endTime":17.65625,"note":42,"startBeat":46.833333333333336,"startTick":44960,"startTime":17.5625,"velocity":50},{"channel":12,"duration":0.1875,"durationBeats":0.5,"durationTicks":480,"endBeat":47.10729166666667,"endTick":45223,"endTime":17.665234375,"note":62,"startBeat":46.60729166666667,"startTick":44743,"startTime":17.477734375,"velocity":50},{"channel":2,"duration":0.1875,"durationBeats":0.5,"durationTicks":480,"endBeat":47.13854166666667,"endTick":45253,"endTime":17.676953125,"note":32,"startBeat":46.63854166666667,"startTick":44773,"startTime":17.489453125,"velocity":57},{"channel":9,"duration":0.09375,"durationBeats":0.25,"durationTicks":240,"endBeat":47.182291666666664,"endTick":45295,"endTime":17.693359375,"note":35,"startBeat":46.932291666666664,"startTick":45055,"startTime":17.599609375,"velocity":50},{"channel":9,"duration":0.03125,"durationBeats":0.0833333333333357,"durationTicks":80,"endBeat":47.333333333333336,"endTick":45440,"endTime":17.75,"note":42,"startBeat":47.25,"startTick":45360,"startTime":17.71875,"velocity":50},{"channel":1,"duration":0.1875,"durationBeats":0.5,"durationTicks":480,"endBeat":47.409375,"endTick":45513,"endTime":17.778515624999997,"note":32,"startBeat":46.909375,"startTick":45033,"startTime":17.591015624999997,"velocity":50},{"channel":2,"duration":0.1875,"durationBeats":0.5,"durationTicks":480,"endBeat":47.63854166666667,"endTick":45733,"endTime":17.864453125,"note":33,"startBeat":47.13854166666667,"startTick":45253,"startTime":17.676953125,"velocity":57},{"channel":1,"duration":0.1875,"durationBeats":0.5,"durationTicks":480,"endBeat":47.909375,"endTick":45993,"endTime":17.966015624999997,"note":33,"startBeat":47.409375,"startTick":45513,"startTime":17.778515624999997,"velocity":50},{"channel":9,"duration":0.09375,"durationBeats":0.25,"durationTicks":240,"endBeat":47.911458333333336,"endTick":45995,"endTime":17.966796875,"note":35,"startBeat":47.661458333333336,"startTick":45755,"startTime":17.873046875,"velocity":50},{"channel":8,"duration":0.1875,"durationBeats":0.5,"durationTicks":480,"endBeat":47.916666666666664,"endTick":46000,"endTime":17.96875,"note":67,"startBeat":47.416666666666664,"startTick":45520,"startTime":17.78125,"velocity":50},{"channel":9,"duration":0.03125,"durationBeats":0.0833333333333357,"durationTicks":80,"endBeat":48.083333333333336,"endTick":46160,"endTime":18.03125,"note":42,"startBeat":48,"startTick":46080,"startTime":18,"velocity":50},{"channel":2,"duration":0.09375,"durationBeats":0.25,"durationTicks":240,"endBeat":48.13854166666667,"endTick":46213,"endTime":18.051953125,"note":33,"startBeat":47.88854166666667,"startTick":45973,"startTime":17.958203125,"velocity":57},{"channel":9,"duration":0.09375,"durationBeats":0.25,"durationTicks":240,"endBeat":48.182291666666664,"endTick":46255,"endTime":18.068359375,"note":35,"startBeat":47.932291666666664,"startTick":46015,"startTime":17.974609375,"velocity":50},{"channel":9,"duration":0.0625,"durationBeats":0.1666666666666643,"durationTicks":160,"endBeat":48.25,"endTick":46320,"endTime":18.09375,"note":42,"startBeat":48.083333333333336,"startTick":46160,"startTime":18.03125,"velocity":50},{"channel":9,"duration":0.0234375,"durationBeats":0.0625,"durationTicks":60,"endBeat":48.3125,"endTick":46380,"endTime":18.1171875,"note":42,"startBeat":48.25,"startTick":46320,"startTime":18.09375,"velocity":50},{"channel":1,"duration":0.09375,"durationBeats":0.25,"durationTicks":240,"endBeat":48.409375,"endTick":46473,"endTime":18.153515624999997,"note":33,"startBeat":48.159375,"startTick":46233,"startTime":18.059765624999997,"velocity":50},{"channel":9,"duration":0.001953125,"durationBeats":0.005208333333335702,"durationTicks":5,"endBeat":48.4375,"endTick":46500,"endTime":18.1640625,"note":42,"startBeat":48.432291666666664,"startTick":46495,"startTime":18.162109375,"velocity":50},{"channel":9,"duration":0.0234375,"durationBeats":0.0625,"durationTicks":60,"endBeat":48.5625,"endTick":46620,"endTime":18.2109375,"note":42,"startBeat":48.5,"startTick":46560,"startTime":18.1875,"velocity":50},{"channel":9,"duration":0.021484375,"durationBeats":0.0572916666666643,"durationTicks":55,"endBeat":48.682291666666664,"endTick":46735,"endTime":18.255859375,"note":42,"startBeat":48.625,"startTick":46680,"startTime":18.234375,"velocity":50},{"channel":9,"duration":0.09375,"durationBeats":0.25,"durationTicks":240,"endBeat":48.911458333333336,"endTick":46955,"endTime":18.341796875,"note":35,"startBeat":48.661458333333336,"startTick":46715,"startTime":18.248046875,"velocity":50},{"channel":8,"duration":0.1875,"durationBeats":0.5,"durationTicks":480,"endBeat":48.916666666666664,"endTick":46960,"endTime":18.34375,"note":65,"startBeat":48.416666666666664,"startTick":46480,"startTime":18.15625,"velocity":50},{"channel":9,"duration":0.09375,"durationBeats":0.25,"durationTicks":240,"endBeat":49.083333333333336,"endTick":47120,"endTime":18.40625,"note":42,"startBeat":48.833333333333336,"startTick":46880,"startTime":18.3125,"velocity":50},{"channel":2,"duration":0.1875,"durationBeats":0.5,"durationTicks":480,"endBeat":49.13854166666667,"endTick":47173,"endTime":18.426953125,"note":26,"startBeat":48.63854166666667,"startTick":46693,"startTime":18.239453125,"velocity":57},{"channel":9,"duration":0.09375,"durationBeats":0.25,"durationTicks":240,"endBeat":49.182291666666664,"endTick":47215,"endTime":18.443359375,"note":35,"startBeat":48.932291666666664,"startTick":46975,"startTime":18.349609375,"velocity":50},{"channel":1,"duration":0.1875,"durationBeats":0.5,"durationTicks":480,"endBeat":49.409375,"endTick":47433,"endTime":18.528515624999997,"note":26,"startBeat":48.909375,"startTick":46953,"startTime":18.341015624999997,"velocity":50},{"channel":9,"duration":0.09375,"durationBeats":0.25,"durationTicks":240,"endBeat":49.5,"endTick":47520,"endTime":18.5625,"note":42,"startBeat":49.25,"startTick":47280,"startTime":18.46875,"velocity":50},{"channel":9,"duration":0.09375,"durationBeats":0.25,"durationTicks":240,"endBeat":49.661458333333336,"endTick":47675,"endTime":18.623046875,"note":35,"startBeat":49.411458333333336,"startTick":47435,"startTime":18.529296875,"velocity":50},{"channel":9,"duration":0.0625,"durationBeats":0.1666666666666643,"durationTicks":160,"endBeat":49.75,"endTick":47760,"endTime":18.65625,"note":42,"startBeat":49.583333333333336,"startTick":47600,"startTime":18.59375,"velocity":50},{"channel":9,"duration":0.0234375,"durationBeats":0.0625,"durationTicks":60,"endBeat":49.895833333333336,"endTick":47900,"endTime":18.7109375,"note":42,"startBeat":49.833333333333336,"startTick":47840,"startTime":18.6875,"velocity":50},{"channel":8,"duration":0.1875,"durationBeats":0.5,"durationTicks":480,"endBeat":49.916666666666664,"endTick":47920,"endTime":18.71875,"note":64,"startBeat":49.416666666666664,"startTick":47440,"startTime":18.53125,"velocity":50},{"channel":9,"duration":0.09375,"durationBeats":0.25,"durationTicks":240,"endBeat":49.932291666666664,"endTick":47935,"endTime":18.724609375,"note":35,"startBeat":49.682291666666664,"startTick":47695,"startTime":18.630859375,"velocity":50},{"channel":9,"duration":0.0234375,"durationBeats":0.0625,"durationTicks":60,"endBeat":50.020833333333336,"endTick":48020,"endTime":18.7578125,"note":42,"startBeat":49.958333333333336,"startTick":47960,"startTime":18.734375,"velocity":50},{"channel":2,"duration":0.1875,"durationBeats":0.5,"durationTicks":480,"endBeat":50.13854166666667,"endTick":48133,"endTime":18.801953125,"note":26,"startBeat":49.63854166666667,"startTick":47653,"startTime":18.614453125,"velocity":57},{"channel":9,"duration":0.0234375,"durationBeats":0.0625,"durationTicks":60,"endBeat":50.145833333333336,"endTick":48140,"endTime":18.8046875,"note":42,"startBeat":50.083333333333336,"startTick":48080,"startTime":18.78125,"velocity":50},{"channel":9,"duration":0.0078125,"durationBeats":0.020833333333335702,"durationTicks":20,"endBeat":50.270833333333336,"endTick":48260,"endTime":18.8515625,"note":42,"startBeat":50.25,"startTick":48240,"startTime":18.84375,"velocity":50},{"channel":9,"duration":0.0234375,"durationBeats":0.0625,"durationTicks":60,"endBeat":50.395833333333336,"endTick":48380,"endTime":18.8984375,"note":42,"startBeat":50.333333333333336,"startTick":48320,"startTime":18.875,"velocity":50},{"channel":1,"duration":0.1875,"durationBeats":0.5,"durationTicks":480,"endBeat":50.409375,"endTick":48393,"endTime":18.903515624999997,"note":26,"startBeat":49.909375,"startTick":47913,"startTime":18.716015624999997,"velocity":50},{"channel":9,"duration":0.09375,"durationBeats":0.25,"durationTicks":240,"endBeat":50.411458333333336,"endTick":48395,"endTime":18.904296875,"note":35,"startBeat":50.161458333333336,"startTick":48155,"startTime":18.810546875,"velocity":50},{"channel":2,"duration":0.1875,"durationBeats":0.5,"durationTicks":480,"endBeat":50.63854166666667,"endTick":48613,"endTime":18.989453125,"note":33,"startBeat":50.13854166666667,"startTick":48133,"startTime":18.801953125,"velocity":57},{"channel":9,"duration":0.0078125,"durationBeats":0.020833333333328596,"durationTicks":20,"endBeat":50.682291666666664,"endTick":48655,"endTime":19.005859375,"note":35,"startBeat":50.661458333333336,"startTick":48635,"startTime":18.998046875,"velocity":50},{"channel":9,"duration":0.09375,"durationBeats":0.25,"durationTicks":240,"endBeat":50.75,"endTick":48720,"endTime":19.03125,"note":42,"startBeat":50.5,"startTick":48480,"startTime":18.9375,"velocity":50},{"channel":1,"duration":0.1875,"durationBeats":0.5,"durationTicks":480,"endBeat":50.909375,"endTick":48873,"endTime":19.091015624999997,"note":33,"startBeat":50.409375,"startTick":48393,"startTime":18.903515624999997,"velocity":50},{"channel":8,"duration":0.1875,"durationBeats":0.5,"durationTicks":480,"endBeat":50.916666666666664,"endTick":48880,"endTime":19.09375,"note":62,"startBeat":50.416666666666664,"startTick":48400,"startTime":18.90625,"velocity":50},{"channel":11,"duration":1.5,"durationBeats":4,"durationTicks":3840,"endBeat":51.036458333333336,"endTick":48995,"endTime":19.138671875,"note":60,"startBeat":47.036458333333336,"startTick":45155,"startTime":17.638671875,"velocity":50},{"channel":11,"duration":1.5,"durationBeats":4,"durationTicks":3840,"endBeat":51.036458333333336,"endTick":48995,"endTime":19.138671875,"note":65,"startBeat":47.036458333333336,"startTick":45155,"startTime":17.638671875,"velocity":50},{"channel":9,"duration":0.09375,"durationBeats":0.25,"durationTicks":240,"endBeat":51.083333333333336,"endTick":49040,"endTime":19.15625,"note":42,"startBeat":50.833333333333336,"startTick":48800,"startTime":19.0625,"velocity":50},{"channel":2,"duration":0.1875,"durationBeats":0.5,"durationTicks":480,"endBeat":51.13854166666667,"endTick":49093,"endTime":19.176953125,"note":26,"startBeat":50.63854166666667,"startTick":48613,"startTime":18.989453125,"velocity":57},{"channel":9,"duration":0.09375,"durationBeats":0.25,"durationTicks":240,"endBeat":51.182291666666664,"endTick":49135,"endTime":19.193359375,"note":35,"startBeat":50.932291666666664,"startTick":48895,"startTime":19.099609375,"velocity":50},{"channel":12,"duration":0.0625,"durationBeats":0.1666666666666643,"durationTicks":160,"endBeat":51.27395833333333,"endTick":49223,"endTime":19.227734375,"note":68,"startBeat":51.10729166666667,"startTick":49063,"startTime":19.165234375,"velocity":50},{"channel":9,"duration":0.03125,"durationBeats":0.0833333333333357,"durationTicks":80,"endBeat":51.333333333333336,"endTick":49280,"endTime":19.25,"note":42,"startBeat":51.25,"startTick":49200,"startTime":19.21875,"velocity":50},{"channel":1,"duration":0.1875,"durationBeats":0.5,"durationTicks":480,"endBeat":51.409375,"endTick":49353,"endTime":19.278515624999997,"note":26,"startBeat":50.909375,"startTick":48873,"startTime":19.091015624999997,"velocity":50},{"channel":12,"duration":0.140625,"durationBeats":0.375,"durationTicks":360,"endBeat":51.60729166666667,"endTick":49543,"endTime":19.352734375,"note":69,"startBeat":51.23229166666667,"startTick":49183,"startTime":19.212109375,"velocity":50},{"channel":9,"duration":0.09375,"durationBeats":0.25,"durationTicks":240,"endBeat":51.911458333333336,"endTick":49835,"endTime":19.466796875,"note":35,"startBeat":51.661458333333336,"startTick":49595,"startTime":19.373046875,"velocity":50},{"channel":8,"duration":0.1875,"durationBeats":0.5,"durationTicks":480,"endBeat":51.916666666666664,"endTick":49840,"endTime":19.46875,"note":65,"startBeat":51.416666666666664,"startTick":49360,"startTime":19.28125,"velocity":50},{"channel":9,"duration":0.03125,"durationBeats":0.0833333333333357,"durationTicks":80,"endBeat":52.083333333333336,"endTick":50000,"endTime":19.53125,"note":42,"startBeat":52,"startTick":49920,"startTime":19.5,"velocity":50},{"channel":2,"duration":0.1875,"durationBeats":0.5,"durationTicks":480,"endBeat":52.13854166666667,"endTick":50053,"endTime":19.551953125,"note":26,"startBeat":51.63854166666667,"startTick":49573,"startTime":19.364453125,"velocity":57},{"channel":9,"duration":0.09375,"durationBeats":0.25,"durationTicks":240,"endBeat":52.182291666666664,"endTick":50095,"endTime":19.568359375,"note":35,"startBeat":51.932291666666664,"startTick":49855,"startTime":19.474609375,"velocity":50},{"channel":9,"duration":0.0625,"durationBeats":0.1666666666666643,"durationTicks":160,"endBeat":52.25,"endTick":50160,"endTime":19.59375,"note":42,"startBeat":52.083333333333336,"startTick":50000,"startTime":19.53125,"velocity":50},{"channel":9,"duration":0.0234375,"durationBeats":0.0625,"durationTicks":60,"endBeat":52.3125,"endTick":50220,"endTime":19.6171875,"note":42,"startBeat":52.25,"startTick":50160,"startTime":19.59375,"velocity":50},{"channel":1,"duration":0.1875,"durationBeats":0.5,"durationTicks":480,"endBeat":52.409375,"endTick":50313,"endTime":19.653515624999997,"note":26,"startBeat":51.909375,"startTick":49833,"startTime":19.466015624999997,"velocity":50},{"channel":9,"duration":0.0234375,"durationBeats":0.0625,"durationTicks":60,"endBeat":52.4375,"endTick":50340,"endTime":19.6640625,"note":42,"startBeat":52.375,"startTick":50280,"startTime":19.640625,"velocity":50},{"channel":9,"duration":0.0234375,"durationBeats":0.0625,"durationTicks":60,"endBeat":52.5625,"endTick":50460,"endTime":19.7109375,"note":42,"startBeat":52.5,"startTick":50400,"startTime":19.6875,"velocity":50},{"channel":12,"duration":0.1875,"durationBeats":0.5,"durationTicks":480,"endBeat":52.60729166666667,"endTick":50503,"endTime":19.727734375,"note":67,"startBeat":52.10729166666667,"startTick":50023,"startTime":19.540234375,"velocity":50},{"channel":2,"duration":0.1875,"durationBeats":0.5,"durationTicks":480,"endBeat":52.63854166666667,"endTick":50533,"endTime":19.739453125,"note":33,"startBeat":52.13854166666667,"startTick":50053,"startTime":19.551953125,"velocity":57},{"channel":9,"duration":0.0234375,"durationBeats":0.0625,"durationTicks":60,"endBeat":52.6875,"endTick":50580,"endTime":19.7578125,"note":42,"startBeat":52.625,"startTick":50520,"startTime":19.734375,"velocity":50},{"channel":9,"duration":0.0234375,"durationBeats":0.0625,"durationTicks":60,"endBeat":52.8125,"endTick":50700,"endTime":19.8046875,"note":42,"startBeat":52.75,"startTick":50640,"startTime":19.78125,"velocity":50},{"channel":1,"duration":0.1875,"durationBeats":0.5,"durationTicks":480,"endBeat":52.909375,"endTick":50793,"endTime":19.841015624999997,"note":33,"startBeat":52.409375,"startTick":50313,"startTime":19.653515624999997,"velocity":50},{"channel":9,"duration":0.09375,"durationBeats":0.25,"durationTicks":240,"endBeat":52.911458333333336,"endTick":50795,"endTime":19.841796875,"note":35,"startBeat":52.661458333333336,"startTick":50555,"startTime":19.748046875,"velocity":50},{"channel":8,"duration":0.1875,"durationBeats":0.5,"durationTicks":480,"endBeat":52.916666666666664,"endTick":50800,"endTime":19.84375,"note":64,"startBeat":52.416666666666664,"startTick":50320,"startTime":19.65625,"velocity":50},{"channel":9,"duration":0.09375,"durationBeats":0.25,"durationTicks":240,"endBeat":53.083333333333336,"endTick":50960,"endTime":19.90625,"note":42,"startBeat":52.833333333333336,"startTick":50720,"startTime":19.8125,"velocity":50},{"channel":2,"duration":0.1875,"durationBeats":0.5,"durationTicks":480,"endBeat":53.13854166666667,"endTick":51013,"endTime":19.926953125,"note":32,"startBeat":52.63854166666667,"startTick":50533,"startTime":19.739453125,"velocity":57},{"channel":9,"duration":0.09375,"durationBeats":0.25,"durationTicks":240,"endBeat":53.182291666666664,"endTick":51055,"endTime":19.943359375,"note":35,"startBeat":52.932291666666664,"startTick":50815,"startTime":19.849609375,"velocity":50},{"channel":1,"duration":0.1875,"durationBeats":0.5,"durationTicks":480,"endBeat":53.409375,"endTick":51273,"endTime":20.028515624999997,"note":32,"startBeat":52.909375,"startTick":50793,"startTime":19.841015624999997,"velocity":50},{"channel":9,"duration":0.09375,"durationBeats":0.25,"durationTicks":240,"endBeat":53.5,"endTick":51360,"endTime":20.0625,"note":42,"startBeat":53.25,"startTick":51120,"startTime":19.96875,"velocity":50},{"channel":12,"duration":0.1875,"durationBeats":0.5,"durationTicks":480,"endBeat":53.60729166666667,"endTick":51463,"endTime":20.102734375,"note":65,"startBeat":53.10729166666667,"startTick":50983,"startTime":19.915234375,"velocity":50},{"channel":2,"duration":0.1875,"durationBeats":0.5,"durationTicks":480,"endBeat":53.63854166666667,"endTick":51493,"endTime":20.114453125,"note":31,"startBeat":53.13854166666667,"startTick":51013,"startTime":19.926953125,"velocity":57},{"channel":9,"duration":0.09375,"durationBeats":0.25,"durationTicks":240,"endBeat":53.661458333333336,"endTick":51515,"endTime":20.123046875,"note":35,"startBeat":53.411458333333336,"startTick":51275,"startTime":20.029296875,"velocity":50},{"channel":9,"duration":0.0625,"durationBeats":0.1666666666666643,"durationTicks":160,"endBeat":53.75,"endTick":51600,"endTime":20.15625,"note":42,"startBeat":53.583333333333336,"startTick":51440,"startTime":20.09375,"velocity":50},{"channel":9,"duration":0.0234375,"durationBeats":0.0625,"durationTicks":60,"endBeat":53.895833333333336,"endTick":51740,"endTime":20.2109375,"note":42,"startBeat":53.833333333333336,"startTick":51680,"startTime":20.1875,"velocity":50},{"channel":1,"duration":0.1875,"durationBeats":0.5,"durationTicks":480,"endBeat":53.909375,"endTick":51753,"endTime":20.216015624999997,"note":31,"startBeat":53.409375,"startTick":51273,"startTime":20.028515624999997,"velocity":50},{"channel":8,"duration":0.1875,"durationBeats":0.5,"durationTicks":480,"endBeat":53.916666666666664,"endTick":51760,"endTime":20.21875,"note":62,"startBeat":53.416666666666664,"startTick":51280,"startTime":20.03125,"velocity":50},{"channel":9,"duration":0.09375,"durationBeats":0.25,"durationTicks":240,"endBeat":53.932291666666664,"endTick":51775,"endTime":20.224609375,"note":35,"startBeat":53.682291666666664,"startTick":51535,"startTime":20.130859375,"velocity":50},{"channel":9,"duration":0.0234375,"durationBeats":0.0625,"durationTicks":60,"endBeat":54.020833333333336,"endTick":51860,"endTime":20.2578125,"note":42,"startBeat":53.958333333333336,"startTick":51800,"startTime":20.234375,"velocity":50},{"channel":9,"duration":0.0234375,"durationBeats":0.0625,"durationTicks":60,"endBeat":54.145833333333336,"endTick":51980,"endTime":20.3046875,"note":42,"startBeat":54.083333333333336,"startTick":51920,"startTime":20.28125,"velocity":50},{"channel":9,"duration":0.0078125,"durationBeats":0.020833333333335702,"durationTicks":20,"endBeat":54.270833333333336,"endTick":52100,"endTime":20.3515625,"note":42,"startBeat":54.25,"startTick":52080,"startTime":20.34375,"velocity":50},{"channel":9,"duration":0.0234375,"durationBeats":0.0625,"durationTicks":60,"endBeat":54.395833333333336,"endTick":52220,"endTime":20.3984375,"note":42,"startBeat":54.333333333333336,"startTick":52160,"startTime":20.375,"velocity":50},{"channel":9,"duration":0.09375,"durationBeats":0.25,"durationTicks":240,"endBeat":54.411458333333336,"endTick":52235,"endTime":20.404296875,"note":35,"startBeat":54.161458333333336,"startTick":51995,"startTime":20.310546875,"velocity":50},{"channel":12,"duration":0.1875,"durationBeats":0.5,"durationTicks":480,"endBeat":54.60729166666667,"endTick":52423,"endTime":20.477734375,"note":64,"startBeat":54.10729166666667,"startTick":51943,"startTime":20.290234375,"velocity":50},{"channel":2,"duration":0.1875,"durationBeats":0.5,"durationTicks":480,"endBeat":54.63854166666667,"endTick":52453,"endTime":20.489453125,"note":31,"startBeat":54.13854166666667,"startTick":51973,"startTime":20.301953125,"velocity":57},{"channel":9,"duration":0.0078125,"durationBeats":0.020833333333328596,"durationTicks":20,"endBeat":54.682291666666664,"endTick":52495,"endTime":20.505859375,"note":35,"startBeat":54.661458333333336,"startTick":52475,"startTime":20.498046875,"velocity":50},{"channel":9,"duration":0.09375,"durationBeats":0.25,"durationTicks":240,"endBeat":54.75,"endTick":52560,"endTime":20.53125,"note":42,"startBeat":54.5,"startTick":52320,"startTime":20.4375,"velocity":50},{"channel":1,"duration":0.1875,"durationBeats":0.5,"durationTicks":480,"endBeat":54.909375,"endTick":52713,"endTime":20.591015624999997,"note":31,"startBeat":54.409375,"startTick":52233,"startTime":20.403515624999997,"velocity":50},{"channel":8,"duration":0.1875,"durationBeats":0.5,"durationTicks":480,"endBeat":54.916666666666664,"endTick":52720,"endTime":20.59375,"note":60,"startBeat":54.416666666666664,"startTick":52240,"startTime":20.40625,"velocity":50},{"channel":11,"duration":1.5,"durationBeats":4,"durationTicks":3840,"endBeat":55.036458333333336,"endTick":52835,"endTime":20.638671875,"note":61,"startBeat":51.036458333333336,"startTick":48995,"startTime":19.138671875,"velocity":50},{"channel":11,"duration":1.5,"durationBeats":4,"durationTicks":3840,"endBeat":55.036458333333336,"endTick":52835,"endTime":20.638671875,"note":64,"startBeat":51.036458333333336,"startTick":48995,"startTime":19.138671875,"velocity":50},{"channel":9,"duration":0.09375,"durationBeats":0.25,"durationTicks":240,"endBeat":55.083333333333336,"endTick":52880,"endTime":20.65625,"note":42,"startBeat":54.833333333333336,"startTick":52640,"startTime":20.5625,"velocity":50},{"channel":2,"duration":0.1875,"durationBeats":0.5,"durationTicks":480,"endBeat":55.13854166666667,"endTick":52933,"endTime":20.676953125,"note":32,"startBeat":54.63854166666667,"startTick":52453,"startTime":20.489453125,"velocity":57},{"channel":9,"duration":0.09375,"durationBeats":0.25,"durationTicks":240,"endBeat":55.182291666666664,"endTick":52975,"endTime":20.693359375,"note":35,"startBeat":54.932291666666664,"startTick":52735,"startTime":20.599609375,"velocity":50},{"channel":1,"duration":0.1875,"durationBeats":0.5,"durationTicks":480,"endBeat":55.409375,"endTick":53193,"endTime":20.778515624999997,"note":32,"startBeat":54.909375,"startTick":52713,"startTime":20.591015624999997,"velocity":50},{"channel":8,"duration":0.1875,"durationBeats":0.5,"durationTicks":480,"endBeat":55.416666666666664,"endTick":53200,"endTime":20.78125,"note":62,"startBeat":54.916666666666664,"startTick":52720,"startTime":20.59375,"velocity":50},{"channel":9,"duration":0.09375,"durationBeats":0.25,"durationTicks":240,"endBeat":55.5,"endTick":53280,"endTime":20.8125,"note":42,"startBeat":55.25,"startTick":53040,"startTime":20.71875,"velocity":50},{"channel":12,"duration":0.1875,"durationBeats":0.5,"durationTicks":480,"endBeat":55.60729166666667,"endTick":53383,"endTime":20.852734375,"note":67,"startBeat":55.10729166666667,"startTick":52903,"startTime":20.665234375,"velocity":50},{"channel":2,"duration":0.1875,"durationBeats":0.5,"durationTicks":480,"endBeat":55.63854166666667,"endTick":53413,"endTime":20.864453125,"note":33,"startBeat":55.13854166666667,"startTick":52933,"startTime":20.676953125,"velocity":57},{"channel":1,"duration":0.1875,"durationBeats":0.5,"durationTicks":480,"endBeat":55.909375,"endTick":53673,"endTime":20.966015624999997,"note":33,"startBeat":55.409375,"startTick":53193,"startTime":20.778515624999997,"velocity":50},{"channel":9,"duration":0.09375,"durationBeats":0.25,"durationTicks":240,"endBeat":55.911458333333336,"endTick":53675,"endTime":20.966796875,"note":35,"startBeat":55.661458333333336,"startTick":53435,"startTime":20.873046875,"velocity":50},{"channel":9,"duration":0.03125,"durationBeats":0.0833333333333357,"durationTicks":80,"endBeat":56.083333333333336,"endTick":53840,"endTime":21.03125,"note":42,"startBeat":56,"startTick":53760,"startTime":21,"velocity":50},{"channel":2,"duration":0.09375,"durationBeats":0.25,"durationTicks":240,"endBeat":56.13854166666667,"endTick":53893,"endTime":21.051953125,"note":33,"startBeat":55.88854166666667,"startTick":53653,"startTime":20.958203125,"velocity":57},{"channel":9,"duration":0.09375,"durationBeats":0.25,"durationTicks":240,"endBeat":56.182291666666664,"endTick":53935,"endTime":21.068359375,"note":35,"startBeat":55.932291666666664,"startTick":53695,"startTime":20.974609375,"velocity":50},{"channel":9,"duration":0.0625,"durationBeats":0.1666666666666643,"durationTicks":160,"endBeat":56.25,"endTick":54000,"endTime":21.09375,"note":42,"startBeat":56.083333333333336,"startTick":53840,"startTime":21.03125,"velocity":50},{"channel":9,"duration":0.0234375,"durationBeats":0.0625,"durationTicks":60,"endBeat":56.3125,"endTick":54060,"endTime":21.1171875,"note":42,"startBeat":56.25,"startTick":54000,"startTime":21.09375,"velocity":50},{"channel":1,"duration":0.09375,"durationBeats":0.25,"durationTicks":240,"endBeat":56.409375,"endTick":54153,"endTime":21.153515624999997,"note":33,"startBeat":56.159375,"startTick":53913,"startTime":21.059765624999997,"velocity":50},{"channel":9,"duration":0.0234375,"durationBeats":0.0625,"durationTicks":60,"endBeat":56.4375,"endTick":54180,"endTime":21.1640625,"note":42,"startBeat":56.375,"startTick":54120,"startTime":21.140625,"velocity":50},{"channel":9,"duration":0.0234375,"durationBeats":0.0625,"durationTicks":60,"endBeat":56.5625,"endTick":54300,"endTime":21.2109375,"note":42,"startBeat":56.5,"startTick":54240,"startTime":21.1875,"velocity":50},{"channel":12,"duration":0.1875,"durationBeats":0.5,"durationTicks":480,"endBeat":56.60729166666667,"endTick":54343,"endTime":21.227734375,"note":65,"startBeat":56.10729166666667,"startTick":53863,"startTime":21.040234375,"velocity":50},{"channel":9,"duration":0.0234375,"durationBeats":0.0625,"durationTicks":60,"endBeat":56.6875,"endTick":54420,"endTime":21.2578125,"note":42,"startBeat":56.625,"startTick":54360,"startTime":21.234375,"velocity":50},{"channel":9,"duration":0.0234375,"durationBeats":0.0625,"durationTicks":60,"endBeat":56.8125,"endTick":54540,"endTime":21.3046875,"note":42,"startBeat":56.75,"startTick":54480,"startTime":21.28125,"velocity":50},{"channel":9,"duration":0.09375,"durationBeats":0.25,"durationTicks":240,"endBeat":56.911458333333336,"endTick":54635,"endTime":21.341796875,"note":35,"startBeat":56.661458333333336,"startTick":54395,"startTime":21.248046875,"velocity":50},{"channel":9,"duration":0.09375,"durationBeats":0.25,"durationTicks":240,"endBeat":57.083333333333336,"endTick":54800,"endTime":21.40625,"note":42,"startBeat":56.833333333333336,"startTick":54560,"startTime":21.3125,"velocity":50},{"channel":2,"duration":0.1875,"durationBeats":0.5,"durationTicks":480,"endBeat":57.13854166666667,"endTick":54853,"endTime":21.426953125,"note":26,"startBeat":56.63854166666667,"startTick":54373,"startTime":21.239453125,"velocity":57},{"channel":9,"duration":0.09375,"durationBeats":0.25,"durationTicks":240,"endBeat":57.182291666666664,"endTick":54895,"endTime":21.443359375,"note":35,"startBeat":56.932291666666664,"startTick":54655,"startTime":21.349609375,"velocity":50},{"channel":1,"duration":0.1875,"durationBeats":0.5,"durationTicks":480,"endBeat":57.409375,"endTick":55113,"endTime":21.528515624999997,"note":26,"startBeat":56.909375,"startTick":54633,"startTime":21.341015624999997,"velocity":50},{"channel":9,"duration":0.09375,"durationBeats":0.25,"durationTicks":240,"endBeat":57.5,"endTick":55200,"endTime":21.5625,"note":42,"startBeat":57.25,"startTick":54960,"startTime":21.46875,"velocity":50},{"channel":12,"duration":0.1875,"durationBeats":0.5,"durationTicks":480,"endBeat":57.60729166666667,"endTick":55303,"endTime":21.602734375,"note":64,"startBeat":57.10729166666667,"startTick":54823,"startTime":21.415234375,"velocity":50},{"channel":9,"duration":0.09375,"durationBeats":0.25,"durationTicks":240,"endBeat":57.661458333333336,"endTick":55355,"endTime":21.623046875,"note":35,"startBeat":57.411458333333336,"startTick":55115,"startTime":21.529296875,"velocity":50},{"channel":9,"duration":0.0625,"durationBeats":0.1666666666666643,"durationTicks":160,"endBeat":57.75,"endTick":55440,"endTime":21.65625,"note":42,"startBeat":57.583333333333336,"startTick":55280,"startTime":21.59375,"velocity":50},{"channel":9,"duration":0.0234375,"durationBeats":0.0625,"durationTicks":60,"endBeat":57.895833333333336,"endTick":55580,"endTime":21.7109375,"note":42,"startBeat":57.833333333333336,"startTick":55520,"startTime":21.6875,"velocity":50},{"channel":9,"duration":0.09375,"durationBeats":0.25,"durationTicks":240,"endBeat":57.932291666666664,"endTick":55615,"endTime":21.724609375,"note":35,"startBeat":57.682291666666664,"startTick":55375,"startTime":21.630859375,"velocity":50},{"channel":9,"duration":0.0234375,"durationBeats":0.0625,"durationTicks":60,"endBeat":58.020833333333336,"endTick":55700,"endTime":21.7578125,"note":42,"startBeat":57.958333333333336,"startTick":55640,"startTime":21.734375,"velocity":50},{"channel":2,"duration":0.1875,"durationBeats":0.5,"durationTicks":480,"endBeat":58.13854166666667,"endTick":55813,"endTime":21.801953125,"note":38,"startBeat":57.63854166666667,"startTick":55333,"startTime":21.614453125,"velocity":57},{"channel":9,"duration":0.0234375,"durationBeats":0.0625,"durationTicks":60,"endBeat":58.145833333333336,"endTick":55820,"endTime":21.8046875,"note":42,"startBeat":58.083333333333336,"startTick":55760,"startTime":21.78125,"velocity":50},{"channel":9,"duration":0.0078125,"durationBeats":0.020833333333335702,"durationTicks":20,"endBeat":58.270833333333336,"endTick":55940,"endTime":21.8515625,"note":42,"startBeat":58.25,"startTick":55920,"startTime":21.84375,"velocity":50},{"channel":1,"duration":0.1875,"durationBeats":0.5,"durationTicks":480,"endBeat":58.409375,"endTick":56073,"endTime":21.903515624999997,"note":38,"startBeat":57.909375,"startTick":55593,"startTime":21.716015624999997,"velocity":50},{"channel":9,"duration":0.09375,"durationBeats":0.25,"durationTicks":240,"endBeat":58.411458333333336,"endTick":56075,"endTime":21.904296875,"note":35,"startBeat":58.161458333333336,"startTick":55835,"startTime":21.810546875,"velocity":50},{"channel":12,"duration":0.1875,"durationBeats":0.5,"durationTicks":480,"endBeat":58.60729166666667,"endTick":56263,"endTime":21.977734375,"note":62,"startBeat":58.10729166666667,"startTick":55783,"startTime":21.790234375,"velocity":50},{"channel":2,"duration":0.1875,"durationBeats":0.5,"durationTicks":480,"endBeat":58.63854166666667,"endTick":56293,"endTime":21.989453125,"note":26,"startBeat":58.13854166666667,"startTick":55813,"startTime":21.801953125,"velocity":57},{"channel":9,"duration":0.0078125,"durationBeats":0.020833333333328596,"durationTicks":20,"endBeat":58.682291666666664,"endTick":56335,"endTime":22.005859375,"note":35,"startBeat":58.661458333333336,"startTick":56315,"startTime":21.998046875,"velocity":50},{"channel":9,"duration":0.09375,"durationBeats":0.25,"durationTicks":240,"endBeat":58.75,"endTick":56400,"endTime":22.03125,"note":42,"startBeat":58.5,"startTick":56160,"startTime":21.9375,"velocity":50},{"channel":1,"duration":0.1875,"durationBeats":0.5,"durationTicks":480,"endBeat":58.909375,"endTick":56553,"endTime":22.091015624999997,"note":26,"startBeat":58.409375,"startTick":56073,"startTime":21.903515624999997,"velocity":50},{"channel":9,"duration":0.09375,"durationBeats":0.25,"durationTicks":240,"endBeat":59.083333333333336,"endTick":56720,"endTime":22.15625,"note":42,"startBeat":58.833333333333336,"startTick":56480,"startTime":22.0625,"velocity":50},{"channel":2,"duration":0.1875,"durationBeats":0.5,"durationTicks":480,"endBeat":59.13854166666667,"endTick":56773,"endTime":22.176953125,"note":33,"startBeat":58.63854166666667,"startTick":56293,"startTime":21.989453125,"velocity":57},{"channel":9,"duration":0.09375,"durationBeats":0.25,"durationTicks":240,"endBeat":59.182291666666664,"endTick":56815,"endTime":22.193359375,"note":35,"startBeat":58.932291666666664,"startTick":56575,"startTime":22.099609375,"velocity":50},{"channel":9,"duration":0.03125,"durationBeats":0.0833333333333357,"durationTicks":80,"endBeat":59.333333333333336,"endTick":56960,"endTime":22.25,"note":42,"startBeat":59.25,"startTick":56880,"startTime":22.21875,"velocity":50},{"channel":1,"duration":0.1875,"durationBeats":0.5,"durationTicks":480,"endBeat":59.409375,"endTick":57033,"endTime":22.278515624999997,"note":33,"startBeat":58.909375,"startTick":56553,"startTime":22.091015624999997,"velocity":50},{"channel":8,"duration":0.0625,"durationBeats":0.1666666666666714,"durationTicks":160,"endBeat":59.583333333333336,"endTick":57200,"endTime":22.34375,"note":68,"startBeat":59.416666666666664,"startTick":57040,"startTime":22.28125,"velocity":50},{"channel":12,"duration":0.1875,"durationBeats":0.5,"durationTicks":480,"endBeat":59.60729166666667,"endTick":57223,"endTime":22.352734375,"note":65,"startBeat":59.10729166666667,"startTick":56743,"startTime":22.165234375,"velocity":50},{"channel":9,"duration":0.09375,"durationBeats":0.25,"durationTicks":240,"endBeat":59.911458333333336,"endTick":57515,"endTime":22.466796875,"note":35,"startBeat":59.661458333333336,"startTick":57275,"startTime":22.373046875,"velocity":50},{"channel":8,"duration":0.140625,"durationBeats":0.375,"durationTicks":360,"endBeat":59.916666666666664,"endTick":57520,"endTime":22.46875,"note":69,"startBeat":59.541666666666664,"startTick":57160,"startTime":22.328125,"velocity":50},{"channel":9,"duration":0.03125,"durationBeats":0.0833333333333357,"durationTicks":80,"endBeat":60.083333333333336,"endTick":57680,"endTime":22.53125,"note":42,"startBeat":60,"startTick":57600,"startTime":22.5,"velocity":50},{"channel":2,"duration":0.1875,"durationBeats":0.5,"durationTicks":480,"endBeat":60.13854166666667,"endTick":57733,"endTime":22.551953125,"note":26,"startBeat":59.63854166666667,"startTick":57253,"startTime":22.364453125,"velocity":57},{"channel":9,"duration":0.09375,"durationBeats":0.25,"durationTicks":240,"endBeat":60.182291666666664,"endTick":57775,"endTime":22.568359375,"note":35,"startBeat":59.932291666666664,"startTick":57535,"startTime":22.474609375,"velocity":50},{"channel":9,"duration":0.0625,"durationBeats":0.1666666666666643,"durationTicks":160,"endBeat":60.25,"endTick":57840,"endTime":22.59375,"note":42,"startBeat":60.083333333333336,"startTick":57680,"startTime":22.53125,"velocity":50},{"channel":9,"duration":0.0234375,"durationBeats":0.0625,"durationTicks":60,"endBeat":60.3125,"endTick":57900,"endTime":22.6171875,"note":42,"startBeat":60.25,"startTick":57840,"startTime":22.59375,"velocity":50},{"channel":1,"duration":0.1875,"durationBeats":0.5,"durationTicks":480,"endBeat":60.409375,"endTick":57993,"endTime":22.653515624999997,"note":26,"startBeat":59.909375,"startTick":57513,"startTime":22.466015624999997,"velocity":50},{"channel":9,"duration":0.0234375,"durationBeats":0.0625,"durationTicks":60,"endBeat":60.4375,"endTick":58020,"endTime":22.6640625,"note":42,"startBeat":60.375,"startTick":57960,"startTime":22.640625,"velocity":50},{"channel":9,"duration":0.0234375,"durationBeats":0.0625,"durationTicks":60,"endBeat":60.5625,"endTick":58140,"endTime":22.7109375,"note":42,"startBeat":60.5,"startTick":58080,"startTime":22.6875,"velocity":50},{"channel":12,"duration":0.1875,"durationBeats":0.5,"durationTicks":480,"endBeat":60.60729166666667,"endTick":58183,"endTime":22.727734375,"note":64,"startBeat":60.10729166666667,"startTick":57703,"startTime":22.540234375,"velocity":50},{"channel":2,"duration":0.1875,"durationBeats":0.5,"durationTicks":480,"endBeat":60.63854166666667,"endTick":58213,"endTime":22.739453125,"note":33,"startBeat":60.13854166666667,"startTick":57733,"startTime":22.551953125,"velocity":57},{"channel":9,"duration":0.0234375,"durationBeats":0.0625,"durationTicks":60,"endBeat":60.6875,"endTick":58260,"endTime":22.7578125,"note":42,"startBeat":60.625,"startTick":58200,"startTime":22.734375,"velocity":50},{"channel":9,"duration":0.0234375,"durationBeats":0.0625,"durationTicks":60,"endBeat":60.8125,"endTick":58380,"endTime":22.8046875,"note":42,"startBeat":60.75,"startTick":58320,"startTime":22.78125,"velocity":50},{"channel":1,"duration":0.1875,"durationBeats":0.5,"durationTicks":480,"endBeat":60.909375,"endTick":58473,"endTime":22.841015624999997,"note":33,"startBeat":60.409375,"startTick":57993,"startTime":22.653515624999997,"velocity":50},{"channel":9,"duration":0.09375,"durationBeats":0.25,"durationTicks":240,"endBeat":60.911458333333336,"endTick":58475,"endTime":22.841796875,"note":35,"startBeat":60.661458333333336,"startTick":58235,"startTime":22.748046875,"velocity":50},{"channel":8,"duration":0.1875,"durationBeats":0.5,"durationTicks":480,"endBeat":60.916666666666664,"endTick":58480,"endTime":22.84375,"note":67,"startBeat":60.416666666666664,"startTick":58000,"startTime":22.65625,"velocity":50},{"channel":9,"duration":0.09375,"durationBeats":0.25,"durationTicks":240,"endBeat":61.083333333333336,"endTick":58640,"endTime":22.90625,"note":42,"startBeat":60.833333333333336,"startTick":58400,"startTime":22.8125,"velocity":50},{"channel":2,"duration":0.1875,"durationBeats":0.5,"durationTicks":480,"endBeat":61.13854166666667,"endTick":58693,"endTime":22.926953125,"note":32,"startBeat":60.63854166666667,"startTick":58213,"startTime":22.739453125,"velocity":57},{"channel":9,"duration":0.09375,"durationBeats":0.25,"durationTicks":240,"endBeat":61.182291666666664,"endTick":58735,"endTime":22.943359375,"note":35,"startBeat":60.932291666666664,"startTick":58495,"startTime":22.849609375,"velocity":50},{"channel":1,"duration":0.1875,"durationBeats":0.5,"durationTicks":480,"endBeat":61.409375,"endTick":58953,"endTime":23.028515624999997,"note":32,"startBeat":60.909375,"startTick":58473,"startTime":22.841015624999997,"velocity":50},{"channel":12,"duration":0.1875,"durationBeats":0.5,"durationTicks":480,"endBeat":61.60729166666667,"endTick":59143,"endTime":23.102734375,"note":67,"startBeat":61.10729166666667,"startTick":58663,"startTime":22.915234375,"velocity":50},{"channel":2,"duration":0.1875,"durationBeats":0.5,"durationTicks":480,"endBeat":61.63854166666667,"endTick":59173,"endTime":23.114453125,"note":31,"startBeat":61.13854166666667,"startTick":58693,"startTime":22.926953125,"velocity":57},{"channel":9,"duration":0.09375,"durationBeats":0.25,"durationTicks":240,"endBeat":61.661458333333336,"endTick":59195,"endTime":23.123046875,"note":35,"startBeat":61.411458333333336,"startTick":58955,"startTime":23.029296875,"velocity":50},{"channel":9,"duration":0.09375,"durationBeats":0.25,"durationTicks":240,"endBeat":61.833333333333336,"endTick":59360,"endTime":23.1875,"note":42,"startBeat":61.583333333333336,"startTick":59120,"startTime":23.09375,"velocity":50},{"channel":12,"duration":0.09375,"durationBeats":0.25,"durationTicks":240,"endBeat":61.85729166666667,"endTick":59383,"endTime":23.196484375,"note":65,"startBeat":61.60729166666667,"startTick":59143,"startTime":23.102734375,"velocity":50},{"channel":9,"duration":0.0234375,"durationBeats":0.0625,"durationTicks":60,"endBeat":61.895833333333336,"endTick":59420,"endTime":23.2109375,"note":42,"startBeat":61.833333333333336,"startTick":59360,"startTime":23.1875,"velocity":50},{"channel":1,"duration":0.1875,"durationBeats":0.5,"durationTicks":480,"endBeat":61.909375,"endTick":59433,"endTime":23.216015624999997,"note":31,"startBeat":61.409375,"startTick":58953,"startTime":23.028515624999997,"velocity":50},{"channel":8,"duration":0.1875,"durationBeats":0.5,"durationTicks":480,"endBeat":61.916666666666664,"endTick":59440,"endTime":23.21875,"note":65,"startBeat":61.416666666666664,"startTick":58960,"startTime":23.03125,"velocity":50},{"channel":9,"duration":0.09375,"durationBeats":0.25,"durationTicks":240,"endBeat":61.932291666666664,"endTick":59455,"endTime":23.224609375,"note":35,"startBeat":61.682291666666664,"startTick":59215,"startTime":23.130859375,"velocity":50},{"channel":9,"duration":0.0234375,"durationBeats":0.0625,"durationTicks":60,"endBeat":62.020833333333336,"endTick":59540,"endTime":23.2578125,"note":42,"startBeat":61.958333333333336,"startTick":59480,"startTime":23.234375,"velocity":50},{"channel":9,"duration":0.0234375,"durationBeats":0.0625,"durationTicks":60,"endBeat":62.145833333333336,"endTick":59660,"endTime":23.3046875,"note":42,"startBeat":62.083333333333336,"startTick":59600,"startTime":23.28125,"velocity":50},{"channel":9,"duration":0.0234375,"durationBeats":0.0625,"durationTicks":60,"endBeat":62.270833333333336,"endTick":59780,"endTime":23.3515625,"note":42,"startBeat":62.208333333333336,"startTick":59720,"startTime":23.328125,"velocity":50},{"channel":9,"duration":0.0234375,"durationBeats":0.0625,"durationTicks":60,"endBeat":62.395833333333336,"endTick":59900,"endTime":23.3984375,"note":42,"startBeat":62.333333333333336,"startTick":59840,"startTime":23.375,"velocity":50},{"channel":9,"duration":0.09375,"durationBeats":0.25,"durationTicks":240,"endBeat":62.411458333333336,"endTick":59915,"endTime":23.404296875,"note":35,"startBeat":62.161458333333336,"startTick":59675,"startTime":23.310546875,"velocity":50},{"channel":12,"duration":0.1875,"durationBeats":0.5,"durationTicks":480,"endBeat":62.60729166666667,"endTick":60103,"endTime":23.477734375,"note":67,"startBeat":62.10729166666667,"startTick":59623,"startTime":23.290234375,"velocity":50},{"channel":2,"duration":0.1875,"durationBeats":0.5,"durationTicks":480,"endBeat":62.63854166666667,"endTick":60133,"endTime":23.489453125,"note":31,"startBeat":62.13854166666667,"startTick":59653,"startTime":23.301953125,"velocity":57},{"channel":9,"duration":0.0078125,"durationBeats":0.020833333333328596,"durationTicks":20,"endBeat":62.682291666666664,"endTick":60175,"endTime":23.505859375,"note":35,"startBeat":62.661458333333336,"startTick":60155,"startTime":23.498046875,"velocity":50},{"channel":12,"duration":0.046875,"durationBeats":0.125,"durationTicks":120,"endBeat":62.73229166666667,"endTick":60223,"endTime":23.524609375,"note":67,"startBeat":62.60729166666667,"startTick":60103,"startTime":23.477734375,"velocity":50},{"channel":1,"duration":0.1875,"durationBeats":0.5,"durationTicks":480,"endBeat":62.909375,"endTick":60393,"endTime":23.591015624999997,"note":31,"startBeat":62.409375,"startTick":59913,"startTime":23.403515624999997,"velocity":50},{"channel":8,"duration":0.1875,"durationBeats":0.5,"durationTicks":480,"endBeat":62.916666666666664,"endTick":60400,"endTime":23.59375,"note":64,"startBeat":62.416666666666664,"startTick":59920,"startTime":23.40625,"velocity":50},{"channel":9,"duration":0.09375,"durationBeats":0.25,"durationTicks":240,"endBeat":63.083333333333336,"endTick":60560,"endTime":23.65625,"note":42,"startBeat":62.833333333333336,"startTick":60320,"startTime":23.5625,"velocity":50},{"channel":12,"duration":0.140625,"durationBeats":0.375,"durationTicks":360,"endBeat":63.10729166666667,"endTick":60583,"endTime":23.665234375,"note":69,"startBeat":62.73229166666667,"startTick":60223,"startTime":23.524609375,"velocity":50},{"channel":2,"duration":0.1875,"durationBeats":0.5,"durationTicks":480,"endBeat":63.13854166666667,"endTick":60613,"endTime":23.676953125,"note":32,"startBeat":62.63854166666667,"startTick":60133,"startTime":23.489453125,"velocity":57},{"channel":9,"duration":0.09375,"durationBeats":0.25,"durationTicks":240,"endBeat":63.182291666666664,"endTick":60655,"endTime":23.693359375,"note":35,"startBeat":62.932291666666664,"startTick":60415,"startTime":23.599609375,"velocity":50},{"channel":9,"duration":0.09375,"durationBeats":0.25,"durationTicks":240,"endBeat":63.333333333333336,"endTick":60800,"endTime":23.75,"note":42,"startBeat":63.083333333333336,"startTick":60560,"startTime":23.65625,"velocity":50},{"channel":1,"duration":0.1875,"durationBeats":0.5,"durationTicks":480,"endBeat":63.409375,"endTick":60873,"endTime":23.778515624999997,"note":32,"startBeat":62.909375,"startTick":60393,"startTime":23.591015624999997,"velocity":50},{"channel":2,"duration":0.1875,"durationBeats":0.5,"durationTicks":480,"endBeat":63.63854166666667,"endTick":61093,"endTime":23.864453125,"note":33,"startBeat":63.13854166666667,"startTick":60613,"startTime":23.676953125,"velocity":57},{"channel":12,"duration":0.0234375,"durationBeats":0.0625,"durationTicks":60,"endBeat":63.66979166666667,"endTick":61123,"endTime":23.876171875,"note":69,"startBeat":63.60729166666667,"startTick":61063,"startTime":23.852734375,"velocity":50},{"channel":12,"duration":0.0703125,"durationBeats":0.1875,"durationTicks":180,"endBeat":63.85729166666667,"endTick":61303,"endTime":23.946484375,"note":70,"startBeat":63.66979166666667,"startTick":61123,"startTime":23.876171875,"velocity":50},{"channel":1,"duration":0.1875,"durationBeats":0.5,"durationTicks":480,"endBeat":63.909375,"endTick":61353,"endTime":23.966015624999997,"note":33,"startBeat":63.409375,"startTick":60873,"startTime":23.778515624999997,"velocity":50},{"channel":9,"duration":0.09375,"durationBeats":0.25,"durationTicks":240,"endBeat":63.911458333333336,"endTick":61355,"endTime":23.966796875,"note":35,"startBeat":63.661458333333336,"startTick":61115,"startTime":23.873046875,"velocity":50},{"channel":8,"duration":0.1875,"durationBeats":0.5,"durationTicks":480,"endBeat":63.916666666666664,"endTick":61360,"endTime":23.96875,"note":67,"startBeat":63.416666666666664,"startTick":60880,"startTime":23.78125,"velocity":50},{"channel":9,"duration":0.09296875000000071,"durationBeats":0.24791666666666856,"durationTicks":238,"endBeat":63.96145833333333,"endTick":61403,"endTime":23.985546875,"note":52,"startBeat":63.713541666666664,"startTick":61165,"startTime":23.892578125,"velocity":50},{"channel":9,"duration":0.09375,"durationBeats":0.2499999999999929,"durationTicks":240,"endBeat":64.08333333333333,"endTick":61520,"endTime":24.03125,"note":42,"startBeat":63.833333333333336,"startTick":61280,"startTime":23.9375,"velocity":50},{"channel":9,"duration":0.09375,"durationBeats":0.2500000000000071,"durationTicks":240,"endBeat":64.18229166666667,"endTick":61615,"endTime":24.068359375,"note":35,"startBeat":63.932291666666664,"startTick":61375,"startTime":23.974609375,"velocity":50},{"channel":9,"duration":0.09375,"durationBeats":0.25,"durationTicks":240,"endBeat":64.33333333333333,"endTick":61760,"endTime":24.125,"note":42,"startBeat":64.08333333333333,"startTick":61520,"startTime":24.03125,"velocity":50},{"channel":1,"duration":0.09375,"durationBeats":0.25,"durationTicks":240,"endBeat":64.409375,"endTick":61833,"endTime":24.153515624999997,"note":33,"startBeat":64.159375,"startTick":61593,"startTime":24.059765624999997,"velocity":50},{"channel":9,"duration":0.09296875000000426,"durationBeats":0.24791666666666856,"durationTicks":238,"endBeat":64.46145833333334,"endTick":61883,"endTime":24.173046875000004,"note":52,"startBeat":64.21354166666667,"startTick":61645,"startTime":24.080078125,"velocity":50},{"channel":2,"duration":0.09375,"durationBeats":0.25,"durationTicks":240,"endBeat":64.63854166666667,"endTick":62053,"endTime":24.239453125,"note":33,"startBeat":64.38854166666667,"startTick":61813,"startTime":24.145703125,"velocity":57},{"channel":9,"duration":0.09375,"durationBeats":0.25,"durationTicks":240,"endBeat":64.68229166666667,"endTick":62095,"endTime":24.255859375,"note":42,"startBeat":64.43229166666667,"startTick":61855,"startTime":24.162109375,"velocity":50},{"channel":9,"duration":0.09375,"durationBeats":0.25,"durationTicks":240,"endBeat":64.91145833333333,"endTick":62315,"endTime":24.341796875,"note":35,"startBeat":64.66145833333333,"startTick":62075,"startTime":24.248046875,"velocity":50},{"channel":8,"duration":0.1875,"durationBeats":0.5,"durationTicks":480,"endBeat":64.91666666666667,"endTick":62320,"endTime":24.34375,"note":65,"startBeat":64.41666666666667,"startTick":61840,"startTime":24.15625,"velocity":50},{"channel":9,"duration":0.09296875000000426,"durationBeats":0.24791666666666856,"durationTicks":238,"endBeat":64.96145833333334,"endTick":62363,"endTime":24.360546875000004,"note":52,"startBeat":64.71354166666667,"startTick":62125,"startTime":24.267578125,"velocity":50},{"channel":9,"duration":0.09375,"durationBeats":0.25,"durationTicks":240,"endBeat":65.08333333333333,"endTick":62480,"endTime":24.40625,"note":42,"startBeat":64.83333333333333,"startTick":62240,"startTime":24.3125,"velocity":50},{"channel":2,"duration":0.1875,"durationBeats":0.5,"durationTicks":480,"endBeat":65.13854166666667,"endTick":62533,"endTime":24.426953125,"note":26,"startBeat":64.63854166666667,"startTick":62053,"startTime":24.239453125,"velocity":57},{"channel":9,"duration":0.09375,"durationBeats":0.25,"durationTicks":240,"endBeat":65.18229166666667,"endTick":62575,"endTime":24.443359375,"note":35,"startBeat":64.93229166666667,"startTick":62335,"startTime":24.349609375,"velocity":50},{"channel":1,"duration":0.1875,"durationBeats":0.5,"durationTicks":480,"endBeat":65.409375,"endTick":62793,"endTime":24.528515624999997,"note":26,"startBeat":64.909375,"startTick":62313,"startTime":24.341015624999997,"velocity":50},{"channel":9,"duration":0.09375,"durationBeats":0.25,"durationTicks":240,"endBeat":65.66145833333333,"endTick":63035,"endTime":24.623046875,"note":35,"startBeat":65.41145833333333,"startTick":62795,"startTime":24.529296875,"velocity":50},{"channel":9,"duration":0.09375,"durationBeats":0.25,"durationTicks":240,"endBeat":65.83333333333333,"endTick":63200,"endTime":24.6875,"note":42,"startBeat":65.58333333333333,"startTick":62960,"startTime":24.59375,"velocity":50},{"channel":9,"duration":0.0234375,"durationBeats":0.0625,"durationTicks":60,"endBeat":65.89583333333333,"endTick":63260,"endTime":24.7109375,"note":42,"startBeat":65.83333333333333,"startTick":63200,"startTime":24.6875,"velocity":50},{"channel":8,"duration":0.1875,"durationBeats":0.5,"durationTicks":480,"endBeat":65.91666666666667,"endTick":63280,"endTime":24.71875,"note":64,"startBeat":65.41666666666667,"startTick":62800,"startTime":24.53125,"velocity":50},{"channel":9,"duration":0.09375,"durationBeats":0.25,"durationTicks":240,"endBeat":65.93229166666667,"endTick":63295,"endTime":24.724609375,"note":35,"startBeat":65.68229166666667,"startTick":63055,"startTime":24.630859375,"velocity":50},{"channel":9,"duration":0.0234375,"durationBeats":0.0625,"durationTicks":60,"endBeat":66.02083333333333,"endTick":63380,"endTime":24.7578125,"note":42,"startBeat":65.95833333333333,"startTick":63320,"startTime":24.734375,"velocity":50},{"channel":9,"duration":0.0234375,"durationBeats":0.0625,"durationTicks":60,"endBeat":66.14583333333333,"endTick":63500,"endTime":24.8046875,"note":42,"startBeat":66.08333333333333,"startTick":63440,"startTime":24.78125,"velocity":50},{"channel":9,"duration":0.0234375,"durationBeats":0.0625,"durationTicks":60,"endBeat":66.27083333333333,"endTick":63620,"endTime":24.8515625,"note":42,"startBeat":66.20833333333333,"startTick":63560,"startTime":24.828125,"velocity":50},{"channel":9,"duration":0.0234375,"durationBeats":0.0625,"durationTicks":60,"endBeat":66.39583333333333,"endTick":63740,"endTime":24.8984375,"note":42,"startBeat":66.33333333333333,"startTick":63680,"startTime":24.875,"velocity":50},{"channel":9,"duration":0.09375,"durationBeats":0.25,"durationTicks":240,"endBeat":66.41145833333333,"endTick":63755,"endTime":24.904296875,"note":35,"startBeat":66.16145833333333,"startTick":63515,"startTime":24.810546875,"velocity":50},{"channel":9,"duration":0.0078125,"durationBeats":0.020833333333342807,"durationTicks":20,"endBeat":66.68229166666667,"endTick":64015,"endTime":25.005859375,"note":35,"startBeat":66.66145833333333,"startTick":63995,"startTime":24.998046875,"velocity":50},{"channel":12,"duration":1.03125,"durationBeats":2.75,"durationTicks":2640,"endBeat":66.85729166666667,"endTick":64183,"endTime":25.071484375,"note":69,"startBeat":64.10729166666667,"startTick":61543,"startTime":24.040234375,"velocity":50},{"channel":8,"duration":0.1875,"durationBeats":0.5,"durationTicks":480,"endBeat":66.91666666666667,"endTick":64240,"endTime":25.09375,"note":62,"startBeat":66.41666666666667,"startTick":63760,"startTime":24.90625,"velocity":50},{"channel":9,"duration":0.09375,"durationBeats":0.25,"durationTicks":240,"endBeat":67.08333333333333,"endTick":64400,"endTime":25.15625,"note":42,"startBeat":66.83333333333333,"startTick":64160,"startTime":25.0625,"velocity":50},{"channel":9,"duration":0.09375,"durationBeats":0.25,"durationTicks":240,"endBeat":67.18229166666667,"endTick":64495,"endTime":25.193359375,"note":35,"startBeat":66.93229166666667,"startTick":64255,"startTime":25.099609375,"velocity":50},{"channel":12,"duration":0.06250000000000355,"durationBeats":0.1666666666666714,"durationTicks":160,"endBeat":67.27395833333334,"endTick":64583,"endTime":25.227734375000004,"note":68,"startBeat":67.10729166666667,"startTick":64423,"startTime":25.165234375,"velocity":50},{"channel":9,"duration":0.09375,"durationBeats":0.25,"durationTicks":240,"endBeat":67.33333333333333,"endTick":64640,"endTime":25.25,"note":42,"startBeat":67.08333333333333,"startTick":64400,"startTime":25.15625,"velocity":50},{"channel":12,"duration":0.140625,"durationBeats":0.375,"durationTicks":360,"endBeat":67.60729166666667,"endTick":64903,"endTime":25.352734375,"note":69,"startBeat":67.23229166666667,"startTick":64543,"startTime":25.212109375,"velocity":50},{"channel":9,"duration":0.09375,"durationBeats":0.25,"durationTicks":240,"endBeat":67.91145833333333,"endTick":65195,"endTime":25.466796875,"note":35,"startBeat":67.66145833333333,"startTick":64955,"startTime":25.373046875,"velocity":50},{"channel":8,"duration":0.1875,"durationBeats":0.5,"durationTicks":480,"endBeat":67.91666666666667,"endTick":65200,"endTime":25.46875,"note":65,"startBeat":67.41666666666667,"startTick":64720,"startTime":25.28125,"velocity":50},{"channel":9,"duration":0.09375,"durationBeats":0.25,"durationTicks":240,"endBeat":68.08333333333333,"endTick":65360,"endTime":25.53125,"note":42,"startBeat":67.83333333333333,"startTick":65120,"startTime":25.4375,"velocity":50},{"channel":9,"duration":0.09375,"durationBeats":0.25,"durationTicks":240,"endBeat":68.18229166666667,"endTick":65455,"endTime":25.568359375,"note":35,"startBeat":67.93229166666667,"startTick":65215,"startTime":25.474609375,"velocity":50},{"channel":9,"duration":0.09375,"durationBeats":0.25,"durationTicks":240,"endBeat":68.33333333333333,"endTick":65600,"endTime":25.625,"note":42,"startBeat":68.08333333333333,"startTick":65360,"startTime":25.53125,"velocity":50},{"channel":12,"duration":0.1875,"durationBeats":0.5,"durationTicks":480,"endBeat":68.60729166666667,"endTick":65863,"endTime":25.727734375,"note":67,"startBeat":68.10729166666667,"startTick":65383,"startTime":25.540234375,"velocity":50},{"channel":9,"duration":0.09375,"durationBeats":0.25,"durationTicks":240,"endBeat":68.91145833333333,"endTick":66155,"endTime":25.841796875,"note":35,"startBeat":68.66145833333333,"startTick":65915,"startTime":25.748046875,"velocity":50},{"channel":8,"duration":0.1875,"durationBeats":0.5,"durationTicks":480,"endBeat":68.91666666666667,"endTick":66160,"endTime":25.84375,"note":64,"startBeat":68.41666666666667,"startTick":65680,"startTime":25.65625,"velocity":50},{"channel":9,"duration":0.09375,"durationBeats":0.25,"durationTicks":240,"endBeat":69.08333333333333,"endTick":66320,"endTime":25.90625,"note":42,"startBeat":68.83333333333333,"startTick":66080,"startTime":25.8125,"velocity":50},{"channel":9,"duration":0.09375,"durationBeats":0.25,"durationTicks":240,"endBeat":69.18229166666667,"endTick":66415,"endTime":25.943359375,"note":35,"startBeat":68.93229166666667,"startTick":66175,"startTime":25.849609375,"velocity":50},{"channel":12,"duration":0.1875,"durationBeats":0.5,"durationTicks":480,"endBeat":69.60729166666667,"endTick":66823,"endTime":26.102734375,"note":65,"startBeat":69.10729166666667,"startTick":66343,"startTime":25.915234375,"velocity":50},{"channel":9,"duration":0.09375,"durationBeats":0.25,"durationTicks":240,"endBeat":69.66145833333333,"endTick":66875,"endTime":26.123046875,"note":35,"startBeat":69.41145833333333,"startTick":66635,"startTime":26.029296875,"velocity":50},{"channel":5,"duration":0.1875,"durationBeats":0.5,"durationTicks":480,"endBeat":69.74479166666667,"endTick":66955,"endTime":26.154296875,"note":81,"startBeat":69.24479166666667,"startTick":66475,"startTime":25.966796875,"velocity":70},{"channel":5,"duration":0.1875,"durationBeats":0.5,"durationTicks":480,"endBeat":69.74479166666667,"endTick":66955,"endTime":26.154296875,"note":77,"startBeat":69.24479166666667,"startTick":66475,"startTime":25.966796875,"velocity":70},{"channel":5,"duration":0.1875,"durationBeats":0.5,"durationTicks":480,"endBeat":69.74479166666667,"endTick":66955,"endTime":26.154296875,"note":74,"startBeat":69.24479166666667,"startTick":66475,"startTime":25.966796875,"velocity":70},{"channel":5,"duration":0.1875,"durationBeats":0.5,"durationTicks":480,"endBeat":69.74479166666667,"endTick":66955,"endTime":26.154296875,"note":70,"startBeat":69.24479166666667,"startTick":66475,"startTime":25.966796875,"velocity":70},{"channel":9,"duration":0.09375,"durationBeats":0.25,"durationTicks":240,"endBeat":69.83333333333333,"endTick":67040,"endTime":26.1875,"note":42,"startBeat":69.58333333333333,"startTick":66800,"startTime":26.09375,"velocity":50},{"channel":9,"duration":0.0234375,"durationBeats":0.0625,"durationTicks":60,"endBeat":69.89583333333333,"endTick":67100,"endTime":26.2109375,"note":42,"startBeat":69.83333333333333,"startTick":67040,"startTime":26.1875,"velocity":50},{"channel":8,"duration":0.1875,"durationBeats":0.5,"durationTicks":480,"endBeat":69.91666666666667,"endTick":67120,"endTime":26.21875,"note":67,"startBeat":69.41666666666667,"startTick":66640,"startTime":26.03125,"velocity":50},{"channel":9,"duration":0.09375,"durationBeats":0.25,"durationTicks":240,"endBeat":69.93229166666667,"endTick":67135,"endTime":26.224609375,"note":35,"startBeat":69.68229166666667,"startTick":66895,"startTime":26.130859375,"velocity":50},{"channel":9,"duration":0.0234375,"durationBeats":0.0625,"durationTicks":60,"endBeat":70.02083333333333,"endTick":67220,"endTime":26.2578125,"note":42,"startBeat":69.95833333333333,"startTick":67160,"startTime":26.234375,"velocity":50},{"channel":9,"duration":0.0234375,"durationBeats":0.0625,"durationTicks":60,"endBeat":70.14583333333333,"endTick":67340,"endTime":26.3046875,"note":42,"startBeat":70.08333333333333,"startTick":67280,"startTime":26.28125,"velocity":50},{"channel":8,"duration":0.09375,"durationBeats":0.25,"durationTicks":240,"endBeat":70.16666666666667,"endTick":67360,"endTime":26.3125,"note":65,"startBeat":69.91666666666667,"startTick":67120,"startTime":26.21875,"velocity":50},{"channel":9,"duration":0.0234375,"durationBeats":0.0625,"durationTicks":60,"endBeat":70.27083333333333,"endTick":67460,"endTime":26.3515625,"note":42,"startBeat":70.20833333333333,"startTick":67400,"startTime":26.328125,"velocity":50},{"channel":9,"duration":0.0234375,"durationBeats":0.0625,"durationTicks":60,"endBeat":70.39583333333333,"endTick":67580,"endTime":26.3984375,"note":42,"startBeat":70.33333333333333,"startTick":67520,"startTime":26.375,"velocity":50},{"channel":9,"duration":0.09375,"durationBeats":0.25,"durationTicks":240,"endBeat":70.41145833333333,"endTick":67595,"endTime":26.404296875,"note":35,"startBeat":70.16145833333333,"startTick":67355,"startTime":26.310546875,"velocity":50},{"channel":12,"duration":0.1875,"durationBeats":0.5,"durationTicks":480,"endBeat":70.60729166666667,"endTick":67783,"endTime":26.477734375,"note":64,"startBeat":70.10729166666667,"startTick":67303,"startTime":26.290234375,"velocity":50},{"channel":9,"duration":0.0078125,"durationBeats":0.020833333333342807,"durationTicks":20,"endBeat":70.68229166666667,"endTick":67855,"endTime":26.505859375,"note":35,"startBeat":70.66145833333333,"startTick":67835,"startTime":26.498046875,"velocity":50},{"channel":5,"duration":0.1875,"durationBeats":0.5,"durationTicks":480,"endBeat":70.74479166666667,"endTick":67915,"endTime":26.529296875,"note":77,"startBeat":70.24479166666667,"startTick":67435,"startTime":26.341796875,"velocity":70},{"channel":5,"duration":0.1875,"durationBeats":0.5,"durationTicks":480,"endBeat":70.74479166666667,"endTick":67915,"endTime":26.529296875,"note":73,"startBeat":70.24479166666667,"startTick":67435,"startTime":26.341796875,"velocity":70},{"channel":5,"duration":0.1875,"durationBeats":0.5,"durationTicks":480,"endBeat":70.74479166666667,"endTick":67915,"endTime":26.529296875,"note":70,"startBeat":70.24479166666667,"startTick":67435,"startTime":26.341796875,"velocity":70},{"channel":5,"duration":0.1875,"durationBeats":0.5,"durationTicks":480,"endBeat":70.74479166666667,"endTick":67915,"endTime":26.529296875,"note":67,"startBeat":70.24479166666667,"startTick":67435,"startTime":26.341796875,"velocity":70},{"channel":8,"duration":0.1875,"durationBeats":0.5,"durationTicks":480,"endBeat":70.91666666666667,"endTick":68080,"endTime":26.59375,"note":67,"startBeat":70.41666666666667,"startTick":67600,"startTime":26.40625,"velocity":50},{"channel":8,"duration":0.046875,"durationBeats":0.125,"durationTicks":120,"endBeat":71.04166666666667,"endTick":68200,"endTime":26.640625,"note":67,"startBeat":70.91666666666667,"startTick":68080,"startTime":26.59375,"velocity":50},{"channel":9,"duration":0.09375,"durationBeats":0.25,"durationTicks":240,"endBeat":71.18229166666667,"endTick":68335,"endTime":26.693359375,"note":35,"startBeat":70.93229166666667,"startTick":68095,"startTime":26.599609375,"velocity":50},{"channel":8,"duration":0.140625,"durationBeats":0.375,"durationTicks":360,"endBeat":71.41666666666667,"endTick":68560,"endTime":26.78125,"note":69,"startBeat":71.04166666666667,"startTick":68200,"startTime":26.640625,"velocity":50},{"channel":12,"duration":0.1875,"durationBeats":0.5,"durationTicks":480,"endBeat":71.60729166666667,"endTick":68743,"endTime":26.852734375,"note":67,"startBeat":71.10729166666667,"startTick":68263,"startTime":26.665234375,"velocity":50},{"channel":5,"duration":0.1875,"durationBeats":0.5,"durationTicks":480,"endBeat":71.74479166666667,"endTick":68875,"endTime":26.904296875,"note":76,"startBeat":71.24479166666667,"startTick":68395,"startTime":26.716796875,"velocity":70},{"channel":5,"duration":0.1875,"durationBeats":0.5,"durationTicks":480,"endBeat":71.74479166666667,"endTick":68875,"endTime":26.904296875,"note":73,"startBeat":71.24479166666667,"startTick":68395,"startTime":26.716796875,"velocity":70},{"channel":5,"duration":0.1875,"durationBeats":0.5,"durationTicks":480,"endBeat":71.74479166666667,"endTick":68875,"endTime":26.904296875,"note":67,"startBeat":71.24479166666667,"startTick":68395,"startTime":26.716796875,"velocity":70},{"channel":5,"duration":0.1875,"durationBeats":0.5,"durationTicks":480,"endBeat":71.74479166666667,"endTick":68875,"endTime":26.904296875,"note":70,"startBeat":71.24479166666667,"startTick":68395,"startTime":26.716796875,"velocity":70},{"channel":8,"duration":0.0234375,"durationBeats":0.0625,"durationTicks":60,"endBeat":71.97916666666667,"endTick":69100,"endTime":26.9921875,"note":69,"startBeat":71.91666666666667,"startTick":69040,"startTime":26.96875,"velocity":50},{"channel":8,"duration":0.0703125,"durationBeats":0.1875,"durationTicks":180,"endBeat":72.16666666666667,"endTick":69280,"endTime":27.0625,"note":70,"startBeat":71.97916666666667,"startTick":69100,"startTime":26.9921875,"velocity":50},{"channel":12,"duration":0.1875,"durationBeats":0.5,"durationTicks":480,"endBeat":72.60729166666667,"endTick":69703,"endTime":27.227734375,"note":65,"startBeat":72.10729166666667,"startTick":69223,"startTime":27.040234375,"velocity":50},{"channel":5,"duration":0.1875,"durationBeats":0.5,"durationTicks":480,"endBeat":72.74479166666667,"endTick":69835,"endTime":27.279296875,"note":79,"startBeat":72.24479166666667,"startTick":69355,"startTime":27.091796875,"velocity":70},{"channel":5,"duration":0.1875,"durationBeats":0.5,"durationTicks":480,"endBeat":72.74479166666667,"endTick":69835,"endTime":27.279296875,"note":76,"startBeat":72.24479166666667,"startTick":69355,"startTime":27.091796875,"velocity":70},{"channel":5,"duration":0.1875,"durationBeats":0.5,"durationTicks":480,"endBeat":72.74479166666667,"endTick":69835,"endTime":27.279296875,"note":69,"startBeat":72.24479166666667,"startTick":69355,"startTime":27.091796875,"velocity":70},{"channel":5,"duration":0.1875,"durationBeats":0.5,"durationTicks":480,"endBeat":72.74479166666667,"endTick":69835,"endTime":27.279296875,"note":72,"startBeat":72.24479166666667,"startTick":69355,"startTime":27.091796875,"velocity":70},{"channel":12,"duration":0.1875,"durationBeats":0.5,"durationTicks":480,"endBeat":73.60729166666667,"endTick":70663,"endTime":27.602734375,"note":64,"startBeat":73.10729166666667,"startTick":70183,"startTime":27.415234375,"velocity":50},{"channel":5,"duration":0.1875,"durationBeats":0.5,"durationTicks":480,"endBeat":73.74479166666667,"endTick":70795,"endTime":27.654296875,"note":77,"startBeat":73.24479166666667,"startTick":70315,"startTime":27.466796875,"velocity":70},{"channel":5,"duration":0.1875,"durationBeats":0.5,"durationTicks":480,"endBeat":73.74479166666667,"endTick":70795,"endTime":27.654296875,"note":74,"startBeat":73.24479166666667,"startTick":70315,"startTime":27.466796875,"velocity":70},{"channel":5,"duration":0.1875,"durationBeats":0.5,"durationTicks":480,"endBeat":73.74479166666667,"endTick":70795,"endTime":27.654296875,"note":69,"startBeat":73.24479166666667,"startTick":70315,"startTime":27.466796875,"velocity":70},{"channel":5,"duration":0.1875,"durationBeats":0.5,"durationTicks":480,"endBeat":73.74479166666667,"endTick":70795,"endTime":27.654296875,"note":72,"startBeat":73.24479166666667,"startTick":70315,"startTime":27.466796875,"velocity":70},{"channel":12,"duration":0.1875,"durationBeats":0.5,"durationTicks":480,"endBeat":74.60729166666667,"endTick":71623,"endTime":27.977734375,"note":62,"startBeat":74.10729166666667,"startTick":71143,"startTime":27.790234375,"velocity":50},{"channel":5,"duration":0.1875,"durationBeats":0.5,"durationTicks":480,"endBeat":74.74479166666667,"endTick":71755,"endTime":28.029296875,"note":76,"startBeat":74.24479166666667,"startTick":71275,"startTime":27.841796875,"velocity":70},{"channel":5,"duration":0.1875,"durationBeats":0.5,"durationTicks":480,"endBeat":74.74479166666667,"endTick":71755,"endTime":28.029296875,"note":72,"startBeat":74.24479166666667,"startTick":71275,"startTime":27.841796875,"velocity":70},{"channel":5,"duration":0.1875,"durationBeats":0.5,"durationTicks":480,"endBeat":74.74479166666667,"endTick":71755,"endTime":28.029296875,"note":67,"startBeat":74.24479166666667,"startTick":71275,"startTime":27.841796875,"velocity":70},{"channel":5,"duration":0.1875,"durationBeats":0.5,"durationTicks":480,"endBeat":74.74479166666667,"endTick":71755,"endTime":28.029296875,"note":69,"startBeat":74.24479166666667,"startTick":71275,"startTime":27.841796875,"velocity":70},{"channel":8,"duration":1.03125,"durationBeats":2.75,"durationTicks":2640,"endBeat":75.16666666666667,"endTick":72160,"endTime":28.1875,"note":69,"startBeat":72.41666666666667,"startTick":69520,"startTime":27.15625,"velocity":50},{"channel":8,"duration":0.0625,"durationBeats":0.1666666666666572,"durationTicks":160,"endBeat":75.58333333333333,"endTick":72560,"endTime":28.34375,"note":68,"startBeat":75.41666666666667,"startTick":72400,"startTime":28.28125,"velocity":50},{"channel":12,"duration":0.1875,"durationBeats":0.5,"durationTicks":480,"endBeat":75.60729166666667,"endTick":72583,"endTime":28.352734375,"note":65,"startBeat":75.10729166666667,"startTick":72103,"startTime":28.165234375,"velocity":50},{"channel":5,"duration":0.1875,"durationBeats":0.5,"durationTicks":480,"endBeat":75.74479166666667,"endTick":72715,"endTime":28.404296875,"note":74,"startBeat":75.24479166666667,"startTick":72235,"startTime":28.216796875,"velocity":70},{"channel":5,"duration":0.1875,"durationBeats":0.5,"durationTicks":480,"endBeat":75.74479166666667,"endTick":72715,"endTime":28.404296875,"note":72,"startBeat":75.24479166666667,"startTick":72235,"startTime":28.216796875,"velocity":70},{"channel":5,"duration":0.1875,"durationBeats":0.5,"durationTicks":480,"endBeat":75.74479166666667,"endTick":72715,"endTime":28.404296875,"note":65,"startBeat":75.24479166666667,"startTick":72235,"startTime":28.216796875,"velocity":70},{"channel":5,"duration":0.1875,"durationBeats":0.5,"durationTicks":480,"endBeat":75.74479166666667,"endTick":72715,"endTime":28.404296875,"note":69,"startBeat":75.24479166666667,"startTick":72235,"startTime":28.216796875,"velocity":70},{"channel":8,"duration":0.140625,"durationBeats":0.375,"durationTicks":360,"endBeat":75.91666666666667,"endTick":72880,"endTime":28.46875,"note":69,"startBeat":75.54166666666667,"startTick":72520,"startTime":28.328125,"velocity":50},{"channel":12,"duration":0.1875,"durationBeats":0.5,"durationTicks":480,"endBeat":76.60729166666667,"endTick":73543,"endTime":28.727734375,"note":64,"startBeat":76.10729166666667,"startTick":73063,"startTime":28.540234375,"velocity":50},{"channel":5,"duration":0.1875,"durationBeats":0.5,"durationTicks":480,"endBeat":76.74479166666667,"endTick":73675,"endTime":28.779296875,"note":77,"startBeat":76.24479166666667,"startTick":73195,"startTime":28.591796875,"velocity":70},{"channel":5,"duration":0.1875,"durationBeats":0.5,"durationTicks":480,"endBeat":76.74479166666667,"endTick":73675,"endTime":28.779296875,"note":74,"startBeat":76.24479166666667,"startTick":73195,"startTime":28.591796875,"velocity":70},{"channel":5,"duration":0.1875,"durationBeats":0.5,"durationTicks":480,"endBeat":76.74479166666667,"endTick":73675,"endTime":28.779296875,"note":70,"startBeat":76.24479166666667,"startTick":73195,"startTime":28.591796875,"velocity":70},{"channel":5,"duration":0.1875,"durationBeats":0.5,"durationTicks":480,"endBeat":76.74479166666667,"endTick":73675,"endTime":28.779296875,"note":67,"startBeat":76.24479166666667,"startTick":73195,"startTime":28.591796875,"velocity":70},{"channel":8,"duration":0.1875,"durationBeats":0.5,"durationTicks":480,"endBeat":76.91666666666667,"endTick":73840,"endTime":28.84375,"note":67,"startBeat":76.41666666666667,"startTick":73360,"startTime":28.65625,"velocity":50},{"channel":12,"duration":0.1875,"durationBeats":0.5,"durationTicks":480,"endBeat":77.60729166666667,"endTick":74503,"endTime":29.102734375,"note":62,"startBeat":77.10729166666667,"startTick":74023,"startTime":28.915234375,"velocity":50},{"channel":5,"duration":0.1875,"durationBeats":0.5,"durationTicks":480,"endBeat":77.74479166666667,"endTick":74635,"endTime":29.154296875,"note":76,"startBeat":77.24479166666667,"startTick":74155,"startTime":28.966796875,"velocity":70},{"channel":5,"duration":0.1875,"durationBeats":0.5,"durationTicks":480,"endBeat":77.74479166666667,"endTick":74635,"endTime":29.154296875,"note":74,"startBeat":77.24479166666667,"startTick":74155,"startTime":28.966796875,"velocity":70},{"channel":5,"duration":0.1875,"durationBeats":0.5,"durationTicks":480,"endBeat":77.74479166666667,"endTick":74635,"endTime":29.154296875,"note":70,"startBeat":77.24479166666667,"startTick":74155,"startTime":28.966796875,"velocity":70},{"channel":5,"duration":0.1875,"durationBeats":0.5,"durationTicks":480,"endBeat":77.74479166666667,"endTick":74635,"endTime":29.154296875,"note":67,"startBeat":77.24479166666667,"startTick":74155,"startTime":28.966796875,"velocity":70},{"channel":8,"duration":0.1875,"durationBeats":0.5,"durationTicks":480,"endBeat":77.91666666666667,"endTick":74800,"endTime":29.21875,"note":65,"startBeat":77.41666666666667,"startTick":74320,"startTime":29.03125,"velocity":50},{"channel":12,"duration":0.1875,"durationBeats":0.5,"durationTicks":480,"endBeat":78.60729166666667,"endTick":75463,"endTime":29.477734375,"note":60,"startBeat":78.10729166666667,"startTick":74983,"startTime":29.290234375,"velocity":50},{"channel":5,"duration":0.1875,"durationBeats":0.5,"durationTicks":480,"endBeat":78.74479166666667,"endTick":75595,"endTime":29.529296875,"note":74,"startBeat":78.24479166666667,"startTick":75115,"startTime":29.341796875,"velocity":70},{"channel":5,"duration":0.1875,"durationBeats":0.5,"durationTicks":480,"endBeat":78.74479166666667,"endTick":75595,"endTime":29.529296875,"note":69,"startBeat":78.24479166666667,"startTick":75115,"startTime":29.341796875,"velocity":70},{"channel":5,"duration":0.1875,"durationBeats":0.5,"durationTicks":480,"endBeat":78.74479166666667,"endTick":75595,"endTime":29.529296875,"note":67,"startBeat":78.24479166666667,"startTick":75115,"startTime":29.341796875,"velocity":70},{"channel":5,"duration":0.1875,"durationBeats":0.5,"durationTicks":480,"endBeat":78.74479166666667,"endTick":75595,"endTime":29.529296875,"note":64,"startBeat":78.24479166666667,"startTick":75115,"startTime":29.341796875,"velocity":70},{"channel":8,"duration":0.1875,"durationBeats":0.5,"durationTicks":480,"endBeat":78.91666666666667,"endTick":75760,"endTime":29.59375,"note":64,"startBeat":78.41666666666667,"startTick":75280,"startTime":29.40625,"velocity":50},{"channel":12,"duration":0.1875,"durationBeats":0.5,"durationTicks":480,"endBeat":79.10729166666667,"endTick":75943,"endTime":29.665234375,"note":62,"startBeat":78.60729166666667,"startTick":75463,"startTime":29.477734375,"velocity":50},{"channel":5,"duration":0.1875,"durationBeats":0.5,"durationTicks":480,"endBeat":79.74479166666667,"endTick":76555,"endTime":29.904296875,"note":72,"startBeat":79.24479166666667,"startTick":76075,"startTime":29.716796875,"velocity":70},{"channel":9,"duration":0.0234375,"durationBeats":0.0625,"durationTicks":60,"endBeat":79.784375,"endTick":76593,"endTime":29.919140624999997,"note":69,"startBeat":79.721875,"startTick":76533,"startTime":29.895703124999997,"velocity":64},{"channel":9,"duration":0.0234375,"durationBeats":0.0625,"durationTicks":60,"endBeat":79.784375,"endTick":76593,"endTime":29.919140624999997,"note":44,"startBeat":79.721875,"startTick":76533,"startTime":29.895703124999997,"velocity":64},{"channel":8,"duration":0.1875,"durationBeats":0.5,"durationTicks":480,"endBeat":79.91666666666667,"endTick":76720,"endTime":29.96875,"note":67,"startBeat":79.41666666666667,"startTick":76240,"startTime":29.78125,"velocity":50},{"channel":5,"duration":0.1875,"durationBeats":0.5,"durationTicks":480,"endBeat":80.24479166666667,"endTick":77035,"endTime":30.091796875,"note":74,"startBeat":79.74479166666667,"startTick":76555,"startTime":29.904296875,"velocity":70},{"channel":5,"duration":0.1875,"durationBeats":0.5,"durationTicks":480,"endBeat":80.24479166666667,"endTick":77035,"endTime":30.091796875,"note":72,"startBeat":79.74479166666667,"startTick":76555,"startTime":29.904296875,"velocity":70},{"channel":5,"duration":0.1875,"durationBeats":0.5,"durationTicks":480,"endBeat":80.24479166666667,"endTick":77035,"endTime":30.091796875,"note":69,"startBeat":79.74479166666667,"startTick":76555,"startTime":29.904296875,"velocity":70},{"channel":5,"duration":0.1875,"durationBeats":0.5,"durationTicks":480,"endBeat":80.24479166666667,"endTick":77035,"endTime":30.091796875,"note":65,"startBeat":79.74479166666667,"startTick":76555,"startTime":29.904296875,"velocity":70},{"channel":8,"duration":0.1875,"durationBeats":0.5,"durationTicks":480,"endBeat":80.91666666666667,"endTick":77680,"endTime":30.34375,"note":65,"startBeat":80.41666666666667,"startTick":77200,"startTime":30.15625,"velocity":50},{"channel":8,"duration":0.1875,"durationBeats":0.5,"durationTicks":480,"endBeat":81.91666666666667,"endTick":78640,"endTime":30.71875,"note":64,"startBeat":81.41666666666667,"startTick":78160,"startTime":30.53125,"velocity":50},{"channel":8,"duration":0.1875,"durationBeats":0.5,"durationTicks":480,"endBeat":82.91666666666667,"endTick":79600,"endTime":31.09375,"note":62,"startBeat":82.41666666666667,"startTick":79120,"startTime":30.90625,"velocity":50},{"channel":12,"duration":0.06250000000000355,"durationBeats":0.1666666666666714,"durationTicks":160,"endBeat":83.27395833333334,"endTick":79943,"endTime":31.227734375000004,"note":68,"startBeat":83.10729166666667,"startTick":79783,"startTime":31.165234375,"velocity":50},{"channel":12,"duration":0.140625,"durationBeats":0.375,"durationTicks":360,"endBeat":83.60729166666667,"endTick":80263,"endTime":31.352734375,"note":69,"startBeat":83.23229166666667,"startTick":79903,"startTime":31.212109375,"velocity":50},{"channel":8,"duration":0.1875,"durationBeats":0.5,"durationTicks":480,"endBeat":83.91666666666667,"endTick":80560,"endTime":31.46875,"note":65,"startBeat":83.41666666666667,"startTick":80080,"startTime":31.28125,"velocity":50},{"channel":5,"duration":0.09375,"durationBeats":0.25,"durationTicks":240,"endBeat":84.49479166666667,"endTick":81115,"endTime":31.685546875,"note":79,"startBeat":84.24479166666667,"startTick":80875,"startTime":31.591796875,"velocity":70},{"channel":12,"duration":0.1875,"durationBeats":0.5,"durationTicks":480,"endBeat":84.60729166666667,"endTick":81223,"endTime":31.727734375,"note":67,"startBeat":84.10729166666667,"startTick":80743,"startTime":31.540234375,"velocity":50},{"channel":5,"duration":0.1875,"durationBeats":0.5,"durationTicks":480,"endBeat":84.74479166666667,"endTick":81355,"endTime":31.779296875,"note":70,"startBeat":84.24479166666667,"startTick":80875,"startTime":31.591796875,"velocity":70},{"channel":5,"duration":0.1875,"durationBeats":0.5,"durationTicks":480,"endBeat":84.74479166666667,"endTick":81355,"endTime":31.779296875,"note":81,"startBeat":84.24479166666667,"startTick":80875,"startTime":31.591796875,"velocity":70},{"channel":5,"duration":0.1875,"durationBeats":0.5,"durationTicks":480,"endBeat":84.74479166666667,"endTick":81355,"endTime":31.779296875,"note":77,"startBeat":84.24479166666667,"startTick":80875,"startTime":31.591796875,"velocity":70},{"channel":5,"duration":0.1875,"durationBeats":0.5,"durationTicks":480,"endBeat":84.74479166666667,"endTick":81355,"endTime":31.779296875,"note":74,"startBeat":84.24479166666667,"startTick":80875,"startTime":31.591796875,"velocity":70},{"channel":8,"duration":0.1875,"durationBeats":0.5,"durationTicks":480,"endBeat":84.91666666666667,"endTick":81520,"endTime":31.84375,"note":64,"startBeat":84.41666666666667,"startTick":81040,"startTime":31.65625,"velocity":50},{"channel":12,"duration":0.18749999999999645,"durationBeats":0.5,"durationTicks":480,"endBeat":85.60729166666667,"endTick":82183,"endTime":32.102734375,"note":65,"startBeat":85.10729166666667,"startTick":81703,"startTime":31.915234375,"velocity":50},{"channel":2,"duration":0.18749999999999645,"durationBeats":0.5,"durationTicks":480,"endBeat":85.63854166666667,"endTick":82213,"endTime":32.114453125,"note":31,"startBeat":85.13854166666667,"startTick":81733,"startTime":31.926953125,"velocity":57},{"channel":5,"duration":0.1875,"durationBeats":0.5,"durationTicks":480,"endBeat":85.74479166666667,"endTick":82315,"endTime":32.154296875,"note":70,"startBeat":85.24479166666667,"startTick":81835,"startTime":31.966796875,"velocity":70},{"channel":5,"duration":0.1875,"durationBeats":0.5,"durationTicks":480,"endBeat":85.74479166666667,"endTick":82315,"endTime":32.154296875,"note":81,"startBeat":85.24479166666667,"startTick":81835,"startTime":31.966796875,"velocity":70},{"channel":5,"duration":0.1875,"durationBeats":0.5,"durationTicks":480,"endBeat":85.74479166666667,"endTick":82315,"endTime":32.154296875,"note":77,"startBeat":85.24479166666667,"startTick":81835,"startTime":31.966796875,"velocity":70},{"channel":5,"duration":0.1875,"durationBeats":0.5,"durationTicks":480,"endBeat":85.74479166666667,"endTick":82315,"endTime":32.154296875,"note":74,"startBeat":85.24479166666667,"startTick":81835,"startTime":31.966796875,"velocity":70},{"channel":1,"duration":0.1875,"durationBeats":0.5,"durationTicks":480,"endBeat":85.909375,"endTick":82473,"endTime":32.216015625,"note":31,"startBeat":85.409375,"startTick":81993,"startTime":32.028515625,"velocity":50},{"channel":8,"duration":0.1875,"durationBeats":0.5,"durationTicks":480,"endBeat":85.91666666666667,"endTick":82480,"endTime":32.21875,"note":62,"startBeat":85.41666666666667,"startTick":82000,"startTime":32.03125,"velocity":50},{"channel":12,"duration":0.1875,"durationBeats":0.5,"durationTicks":480,"endBeat":86.60729166666667,"endTick":83143,"endTime":32.477734375,"note":64,"startBeat":86.10729166666667,"startTick":82663,"startTime":32.290234375,"velocity":50},{"channel":2,"duration":0.1875,"durationBeats":0.5,"durationTicks":480,"endBeat":86.63854166666667,"endTick":83173,"endTime":32.489453125,"note":31,"startBeat":86.13854166666667,"startTick":82693,"startTime":32.301953125,"velocity":57},{"channel":5,"duration":0.1875,"durationBeats":0.5,"durationTicks":480,"endBeat":86.74479166666667,"endTick":83275,"endTime":32.529296875,"note":77,"startBeat":86.24479166666667,"startTick":82795,"startTime":32.341796875,"velocity":70},{"channel":5,"duration":0.1875,"durationBeats":0.5,"durationTicks":480,"endBeat":86.74479166666667,"endTick":83275,"endTime":32.529296875,"note":73,"startBeat":86.24479166666667,"startTick":82795,"startTime":32.341796875,"velocity":70},{"channel":5,"duration":0.1875,"durationBeats":0.5,"durationTicks":480,"endBeat":86.74479166666667,"endTick":83275,"endTime":32.529296875,"note":67,"startBeat":86.24479166666667,"startTick":82795,"startTime":32.341796875,"velocity":70},{"channel":5,"duration":0.1875,"durationBeats":0.5,"durationTicks":480,"endBeat":86.74479166666667,"endTick":83275,"endTime":32.529296875,"note":70,"startBeat":86.24479166666667,"startTick":82795,"startTime":32.341796875,"velocity":70},{"channel":1,"duration":0.1875,"durationBeats":0.5,"durationTicks":480,"endBeat":86.909375,"endTick":83433,"endTime":32.591015625,"note":31,"startBeat":86.409375,"startTick":82953,"startTime":32.403515625,"velocity":50},{"channel":8,"duration":0.1875,"durationBeats":0.5,"durationTicks":480,"endBeat":86.91666666666667,"endTick":83440,"endTime":32.59375,"note":60,"startBeat":86.41666666666667,"startTick":82960,"startTime":32.40625,"velocity":50},{"channel":2,"duration":0.1875,"durationBeats":0.5,"durationTicks":480,"endBeat":87.13854166666667,"endTick":83653,"endTime":32.676953125,"note":32,"startBeat":86.63854166666667,"startTick":83173,"startTime":32.489453125,"velocity":57},{"channel":1,"duration":0.1875,"durationBeats":0.5,"durationTicks":480,"endBeat":87.409375,"endTick":83913,"endTime":32.778515625,"note":32,"startBeat":86.909375,"startTick":83433,"startTime":32.591015625,"velocity":50},{"channel":8,"duration":0.1875,"durationBeats":0.5,"durationTicks":480,"endBeat":87.41666666666667,"endTick":83920,"endTime":32.78125,"note":62,"startBeat":86.91666666666667,"startTick":83440,"startTime":32.59375,"velocity":50},{"channel":12,"duration":0.1875,"durationBeats":0.5,"durationTicks":480,"endBeat":87.60729166666667,"endTick":84103,"endTime":32.852734375,"note":67,"startBeat":87.10729166666667,"startTick":83623,"startTime":32.665234375,"velocity":50},{"channel":2,"duration":0.1875,"durationBeats":0.5,"durationTicks":480,"endBeat":87.63854166666667,"endTick":84133,"endTime":32.864453125,"note":33,"startBeat":87.13854166666667,"startTick":83653,"startTime":32.676953125,"velocity":57},{"channel":5,"duration":0.1875,"durationBeats":0.5,"durationTicks":480,"endBeat":87.74479166666667,"endTick":84235,"endTime":32.904296875,"note":76,"startBeat":87.24479166666667,"startTick":83755,"startTime":32.716796875,"velocity":70},{"channel":5,"duration":0.1875,"durationBeats":0.5,"durationTicks":480,"endBeat":87.74479166666667,"endTick":84235,"endTime":32.904296875,"note":73,"startBeat":87.24479166666667,"startTick":83755,"startTime":32.716796875,"velocity":70},{"channel":5,"duration":0.1875,"durationBeats":0.5,"durationTicks":480,"endBeat":87.74479166666667,"endTick":84235,"endTime":32.904296875,"note":67,"startBeat":87.24479166666667,"startTick":83755,"startTime":32.716796875,"velocity":70},{"channel":5,"duration":0.1875,"durationBeats":0.5,"durationTicks":480,"endBeat":87.74479166666667,"endTick":84235,"endTime":32.904296875,"note":70,"startBeat":87.24479166666667,"startTick":83755,"startTime":32.716796875,"velocity":70},{"channel":1,"duration":0.1875,"durationBeats":0.5,"durationTicks":480,"endBeat":87.909375,"endTick":84393,"endTime":32.966015625,"note":33,"startBeat":87.409375,"startTick":83913,"startTime":32.778515625,"velocity":50},{"channel":2,"duration":0.09375,"durationBeats":0.25,"durationTicks":240,"endBeat":88.13854166666667,"endTick":84613,"endTime":33.051953125,"note":33,"startBeat":87.88854166666667,"startTick":84373,"startTime":32.958203125,"velocity":57},{"channel":1,"duration":0.09375,"durationBeats":0.25,"durationTicks":240,"endBeat":88.409375,"endTick":84873,"endTime":33.153515625,"note":33,"startBeat":88.159375,"startTick":84633,"startTime":33.059765625,"velocity":50},{"channel":12,"duration":0.1875,"durationBeats":0.5,"durationTicks":480,"endBeat":88.60729166666667,"endTick":85063,"endTime":33.227734375,"note":65,"startBeat":88.10729166666667,"startTick":84583,"startTime":33.040234375,"velocity":50},{"channel":5,"duration":0.1875,"durationBeats":0.5,"durationTicks":480,"endBeat":88.74479166666667,"endTick":85195,"endTime":33.279296875,"note":79,"startBeat":88.24479166666667,"startTick":84715,"startTime":33.091796875,"velocity":70},{"channel":5,"duration":0.1875,"durationBeats":0.5,"durationTicks":480,"endBeat":88.74479166666667,"endTick":85195,"endTime":33.279296875,"note":76,"startBeat":88.24479166666667,"startTick":84715,"startTime":33.091796875,"velocity":70},{"channel":5,"duration":0.1875,"durationBeats":0.5,"durationTicks":480,"endBeat":88.74479166666667,"endTick":85195,"endTime":33.279296875,"note":69,"startBeat":88.24479166666667,"startTick":84715,"startTime":33.091796875,"velocity":70},{"channel":5,"duration":0.1875,"durationBeats":0.5,"durationTicks":480,"endBeat":88.74479166666667,"endTick":85195,"endTime":33.279296875,"note":72,"startBeat":88.24479166666667,"startTick":84715,"startTime":33.091796875,"velocity":70},{"channel":2,"duration":0.1875,"durationBeats":0.5,"durationTicks":480,"endBeat":89.13854166666667,"endTick":85573,"endTime":33.426953125,"note":26,"startBeat":88.63854166666667,"startTick":85093,"startTime":33.239453125,"velocity":57},{"channel":1,"duration":0.1875,"durationBeats":0.5,"durationTicks":480,"endBeat":89.409375,"endTick":85833,"endTime":33.528515625,"note":26,"startBeat":88.909375,"startTick":85353,"startTime":33.341015625,"velocity":50},{"channel":12,"duration":0.1875,"durationBeats":0.5,"durationTicks":480,"endBeat":89.60729166666667,"endTick":86023,"endTime":33.602734375,"note":64,"startBeat":89.10729166666667,"startTick":85543,"startTime":33.415234375,"velocity":50},{"channel":5,"duration":0.1875,"durationBeats":0.5,"durationTicks":480,"endBeat":89.74479166666667,"endTick":86155,"endTime":33.654296875,"note":77,"startBeat":89.24479166666667,"startTick":85675,"startTime":33.466796875,"velocity":70},{"channel":5,"duration":0.1875,"durationBeats":0.5,"durationTicks":480,"endBeat":89.74479166666667,"endTick":86155,"endTime":33.654296875,"note":74,"startBeat":89.24479166666667,"startTick":85675,"startTime":33.466796875,"velocity":70},{"channel":5,"duration":0.1875,"durationBeats":0.5,"durationTicks":480,"endBeat":89.74479166666667,"endTick":86155,"endTime":33.654296875,"note":69,"startBeat":89.24479166666667,"startTick":85675,"startTime":33.466796875,"velocity":70},{"channel":5,"duration":0.1875,"durationBeats":0.5,"durationTicks":480,"endBeat":89.74479166666667,"endTick":86155,"endTime":33.654296875,"note":72,"startBeat":89.24479166666667,"startTick":85675,"startTime":33.466796875,"velocity":70},{"channel":2,"duration":0.1875,"durationBeats":0.5,"durationTicks":480,"endBeat":90.13854166666667,"endTick":86533,"endTime":33.801953125,"note":38,"startBeat":89.63854166666667,"startTick":86053,"startTime":33.614453125,"velocity":57},{"channel":1,"duration":0.1875,"durationBeats":0.5,"durationTicks":480,"endBeat":90.409375,"endTick":86793,"endTime":33.903515625,"note":38,"startBeat":89.909375,"startTick":86313,"startTime":33.716015625,"velocity":50},{"channel":12,"duration":0.1875,"durationBeats":0.5,"durationTicks":480,"endBeat":90.60729166666667,"endTick":86983,"endTime":33.977734375,"note":62,"startBeat":90.10729166666667,"startTick":86503,"startTime":33.790234375,"velocity":50},{"channel":2,"duration":0.1875,"durationBeats":0.5,"durationTicks":480,"endBeat":90.63854166666667,"endTick":87013,"endTime":33.989453125,"note":26,"startBeat":90.13854166666667,"startTick":86533,"startTime":33.801953125,"velocity":57},{"channel":5,"duration":0.1875,"durationBeats":0.5,"durationTicks":480,"endBeat":90.74479166666667,"endTick":87115,"endTime":34.029296875,"note":76,"startBeat":90.24479166666667,"startTick":86635,"startTime":33.841796875,"velocity":70},{"channel":5,"duration":0.1875,"durationBeats":0.5,"durationTicks":480,"endBeat":90.74479166666667,"endTick":87115,"endTime":34.029296875,"note":72,"startBeat":90.24479166666667,"startTick":86635,"startTime":33.841796875,"velocity":70},{"channel":5,"duration":0.1875,"durationBeats":0.5,"durationTicks":480,"endBeat":90.74479166666667,"endTick":87115,"endTime":34.029296875,"note":67,"startBeat":90.24479166666667,"startTick":86635,"startTime":33.841796875,"velocity":70},{"channel":5,"duration":0.1875,"durationBeats":0.5,"durationTicks":480,"endBeat":90.74479166666667,"endTick":87115,"endTime":34.029296875,"note":69,"startBeat":90.24479166666667,"startTick":86635,"startTime":33.841796875,"velocity":70},{"channel":1,"duration":0.1875,"durationBeats":0.5,"durationTicks":480,"endBeat":90.909375,"endTick":87273,"endTime":34.091015625,"note":26,"startBeat":90.409375,"startTick":86793,"startTime":33.903515625,"velocity":50},{"channel":9,"duration":0.09375,"durationBeats":0.25,"durationTicks":240,"endBeat":90.91145833333333,"endTick":87275,"endTime":34.091796875,"note":35,"startBeat":90.66145833333333,"startTick":87035,"startTime":33.998046875,"velocity":50},{"channel":9,"duration":0.09375,"durationBeats":0.25,"durationTicks":240,"endBeat":91.08333333333333,"endTick":87440,"endTime":34.15625,"note":42,"startBeat":90.83333333333333,"startTick":87200,"startTime":34.0625,"velocity":50},{"channel":2,"duration":0.1875,"durationBeats":0.5,"durationTicks":480,"endBeat":91.13854166666667,"endTick":87493,"endTime":34.176953125,"note":33,"startBeat":90.63854166666667,"startTick":87013,"startTime":33.989453125,"velocity":57},{"channel":9,"duration":0.09375,"durationBeats":0.25,"durationTicks":240,"endBeat":91.18229166666667,"endTick":87535,"endTime":34.193359375,"note":35,"startBeat":90.93229166666667,"startTick":87295,"startTime":34.099609375,"velocity":50},{"channel":9,"duration":0.09375,"durationBeats":0.25,"durationTicks":240,"endBeat":91.35416666666667,"endTick":87700,"endTime":34.2578125,"note":42,"startBeat":91.10416666666667,"startTick":87460,"startTime":34.1640625,"velocity":50},{"channel":1,"duration":0.1875,"durationBeats":0.5,"durationTicks":480,"endBeat":91.409375,"endTick":87753,"endTime":34.278515625,"note":33,"startBeat":90.909375,"startTick":87273,"startTime":34.091015625,"velocity":50},{"channel":8,"duration":0.0625,"durationBeats":0.1666666666666572,"durationTicks":160,"endBeat":91.58333333333333,"endTick":87920,"endTime":34.34375,"note":68,"startBeat":91.41666666666667,"startTick":87760,"startTime":34.28125,"velocity":50},{"channel":12,"duration":0.1875,"durationBeats":0.5,"durationTicks":480,"endBeat":91.60729166666667,"endTick":87943,"endTime":34.352734375,"note":65,"startBeat":91.10729166666667,"startTick":87463,"startTime":34.165234375,"velocity":50},{"channel":5,"duration":0.1875,"durationBeats":0.5,"durationTicks":480,"endBeat":91.74479166666667,"endTick":88075,"endTime":34.404296875,"note":74,"startBeat":91.24479166666667,"startTick":87595,"startTime":34.216796875,"velocity":70},{"channel":5,"duration":0.1875,"durationBeats":0.5,"durationTicks":480,"endBeat":91.74479166666667,"endTick":88075,"endTime":34.404296875,"note":72,"startBeat":91.24479166666667,"startTick":87595,"startTime":34.216796875,"velocity":70},{"channel":5,"duration":0.1875,"durationBeats":0.5,"durationTicks":480,"endBeat":91.74479166666667,"endTick":88075,"endTime":34.404296875,"note":65,"startBeat":91.24479166666667,"startTick":87595,"startTime":34.216796875,"velocity":70},{"channel":5,"duration":0.1875,"durationBeats":0.5,"durationTicks":480,"endBeat":91.74479166666667,"endTick":88075,"endTime":34.404296875,"note":69,"startBeat":91.24479166666667,"startTick":87595,"startTime":34.216796875,"velocity":70},{"channel":9,"duration":0.09375,"durationBeats":0.25,"durationTicks":240,"endBeat":91.91145833333333,"endTick":88235,"endTime":34.466796875,"note":35,"startBeat":91.66145833333333,"startTick":87995,"startTime":34.373046875,"velocity":50},{"channel":8,"duration":0.140625,"durationBeats":0.375,"durationTicks":360,"endBeat":91.91666666666667,"endTick":88240,"endTime":34.46875,"note":69,"startBeat":91.54166666666667,"startTick":87880,"startTime":34.328125,"velocity":50},{"channel":9,"duration":0.09375,"durationBeats":0.25,"durationTicks":240,"endBeat":92.08333333333333,"endTick":88400,"endTime":34.53125,"note":42,"startBeat":91.83333333333333,"startTick":88160,"startTime":34.4375,"velocity":50},{"channel":2,"duration":0.1875,"durationBeats":0.5,"durationTicks":480,"endBeat":92.13854166666667,"endTick":88453,"endTime":34.551953125,"note":26,"startBeat":91.63854166666667,"startTick":87973,"startTime":34.364453125,"velocity":57},{"channel":9,"duration":0.09375,"durationBeats":0.25,"durationTicks":240,"endBeat":92.18229166666667,"endTick":88495,"endTime":34.568359375,"note":35,"startBeat":91.93229166666667,"startTick":88255,"startTime":34.474609375,"velocity":50},{"channel":9,"duration":0.09375,"durationBeats":0.25,"durationTicks":240,"endBeat":92.35416666666667,"endTick":88660,"endTime":34.6328125,"note":42,"startBeat":92.10416666666667,"startTick":88420,"startTime":34.5390625,"velocity":50},{"channel":1,"duration":0.1875,"durationBeats":0.5,"durationTicks":480,"endBeat":92.409375,"endTick":88713,"endTime":34.653515625,"note":26,"startBeat":91.909375,"startTick":88233,"startTime":34.466015625,"velocity":50},{"channel":12,"duration":0.1875,"durationBeats":0.5,"durationTicks":480,"endBeat":92.60729166666667,"endTick":88903,"endTime":34.727734375,"note":64,"startBeat":92.10729166666667,"startTick":88423,"startTime":34.540234375,"velocity":50},{"channel":2,"duration":0.1875,"durationBeats":0.5,"durationTicks":480,"endBeat":92.63854166666667,"endTick":88933,"endTime":34.739453125,"note":33,"startBeat":92.13854166666667,"startTick":88453,"startTime":34.551953125,"velocity":57},{"channel":5,"duration":0.1875,"durationBeats":0.5,"durationTicks":480,"endBeat":92.74479166666667,"endTick":89035,"endTime":34.779296875,"note":77,"startBeat":92.24479166666667,"startTick":88555,"startTime":34.591796875,"velocity":70},{"channel":5,"duration":0.1875,"durationBeats":0.5,"durationTicks":480,"endBeat":92.74479166666667,"endTick":89035,"endTime":34.779296875,"note":74,"startBeat":92.24479166666667,"startTick":88555,"startTime":34.591796875,"velocity":70},{"channel":5,"duration":0.1875,"durationBeats":0.5,"durationTicks":480,"endBeat":92.74479166666667,"endTick":89035,"endTime":34.779296875,"note":70,"startBeat":92.24479166666667,"startTick":88555,"startTime":34.591796875,"velocity":70},{"channel":5,"duration":0.1875,"durationBeats":0.5,"durationTicks":480,"endBeat":92.74479166666667,"endTick":89035,"endTime":34.779296875,"note":67,"startBeat":92.24479166666667,"startTick":88555,"startTime":34.591796875,"velocity":70},{"channel":1,"duration":0.1875,"durationBeats":0.5,"durationTicks":480,"endBeat":92.909375,"endTick":89193,"endTime":34.841015625,"note":33,"startBeat":92.409375,"startTick":88713,"startTime":34.653515625,"velocity":50},{"channel":9,"duration":0.09375,"durationBeats":0.25,"durationTicks":240,"endBeat":92.91145833333333,"endTick":89195,"endTime":34.841796875,"note":35,"startBeat":92.66145833333333,"startTick":88955,"startTime":34.748046875,"velocity":50},{"channel":8,"duration":0.1875,"durationBeats":0.5,"durationTicks":480,"endBeat":92.91666666666667,"endTick":89200,"endTime":34.84375,"note":67,"startBeat":92.41666666666667,"startTick":88720,"startTime":34.65625,"velocity":50},{"channel":9,"duration":0.09375,"durationBeats":0.25,"durationTicks":240,"endBeat":93.08333333333333,"endTick":89360,"endTime":34.90625,"note":42,"startBeat":92.83333333333333,"startTick":89120,"startTime":34.8125,"velocity":50},{"channel":2,"duration":0.1875,"durationBeats":0.5,"durationTicks":480,"endBeat":93.13854166666667,"endTick":89413,"endTime":34.926953125,"note":32,"startBeat":92.63854166666667,"startTick":88933,"startTime":34.739453125,"velocity":57},{"channel":9,"duration":0.09375,"durationBeats":0.25,"durationTicks":240,"endBeat":93.18229166666667,"endTick":89455,"endTime":34.943359375,"note":35,"startBeat":92.93229166666667,"startTick":89215,"startTime":34.849609375,"velocity":50},{"channel":9,"duration":0.09375,"durationBeats":0.25,"durationTicks":240,"endBeat":93.35416666666667,"endTick":89620,"endTime":35.0078125,"note":42,"startBeat":93.10416666666667,"startTick":89380,"startTime":34.9140625,"velocity":50},{"channel":1,"duration":0.1875,"durationBeats":0.5,"durationTicks":480,"endBeat":93.409375,"endTick":89673,"endTime":35.028515625,"note":32,"startBeat":92.909375,"startTick":89193,"startTime":34.841015625,"velocity":50},{"channel":12,"duration":0.1875,"durationBeats":0.5,"durationTicks":480,"endBeat":93.60729166666667,"endTick":89863,"endTime":35.102734375,"note":67,"startBeat":93.10729166666667,"startTick":89383,"startTime":34.915234375,"velocity":50},{"channel":2,"duration":0.1875,"durationBeats":0.5,"durationTicks":480,"endBeat":93.63854166666667,"endTick":89893,"endTime":35.114453125,"note":31,"startBeat":93.13854166666667,"startTick":89413,"startTime":34.926953125,"velocity":57},{"channel":9,"duration":0.09375,"durationBeats":0.25,"durationTicks":240,"endBeat":93.66145833333333,"endTick":89915,"endTime":35.123046875,"note":35,"startBeat":93.41145833333333,"startTick":89675,"startTime":35.029296875,"velocity":50},{"channel":5,"duration":0.1875,"durationBeats":0.5,"durationTicks":480,"endBeat":93.74479166666667,"endTick":89995,"endTime":35.154296875,"note":76,"startBeat":93.24479166666667,"startTick":89515,"startTime":34.966796875,"velocity":70},{"channel":5,"duration":0.1875,"durationBeats":0.5,"durationTicks":480,"endBeat":93.74479166666667,"endTick":89995,"endTime":35.154296875,"note":74,"startBeat":93.24479166666667,"startTick":89515,"startTime":34.966796875,"velocity":70},{"channel":5,"duration":0.1875,"durationBeats":0.5,"durationTicks":480,"endBeat":93.74479166666667,"endTick":89995,"endTime":35.154296875,"note":70,"startBeat":93.24479166666667,"startTick":89515,"startTime":34.966796875,"velocity":70},{"channel":5,"duration":0.1875,"durationBeats":0.5,"durationTicks":480,"endBeat":93.74479166666667,"endTick":89995,"endTime":35.154296875,"note":67,"startBeat":93.24479166666667,"startTick":89515,"startTime":34.966796875,"velocity":70},{"channel":9,"duration":0.09375,"durationBeats":0.25,"durationTicks":240,"endBeat":93.83333333333333,"endTick":90080,"endTime":35.1875,"note":42,"startBeat":93.58333333333333,"startTick":89840,"startTime":35.09375,"velocity":50},{"channel":12,"duration":0.09375,"durationBeats":0.25,"durationTicks":240,"endBeat":93.85729166666667,"endTick":90103,"endTime":35.196484375,"note":65,"startBeat":93.60729166666667,"startTick":89863,"startTime":35.102734375,"velocity":50},{"channel":1,"duration":0.1875,"durationBeats":0.5,"durationTicks":480,"endBeat":93.909375,"endTick":90153,"endTime":35.216015625,"note":31,"startBeat":93.409375,"startTick":89673,"startTime":35.028515625,"velocity":50},{"channel":8,"duration":0.1875,"durationBeats":0.5,"durationTicks":480,"endBeat":93.91666666666667,"endTick":90160,"endTime":35.21875,"note":65,"startBeat":93.41666666666667,"startTick":89680,"startTime":35.03125,"velocity":50},{"channel":9,"duration":0.09375,"durationBeats":0.25,"durationTicks":240,"endBeat":93.93229166666667,"endTick":90175,"endTime":35.224609375,"note":35,"startBeat":93.68229166666667,"startTick":89935,"startTime":35.130859375,"velocity":50},{"channel":9,"duration":0.09375,"durationBeats":0.25,"durationTicks":240,"endBeat":94.10416666666667,"endTick":90340,"endTime":35.2890625,"note":42,"startBeat":93.85416666666667,"startTick":90100,"startTime":35.1953125,"velocity":50},{"channel":9,"duration":0.09375,"durationBeats":0.25,"durationTicks":240,"endBeat":94.41145833333333,"endTick":90635,"endTime":35.404296875,"note":35,"startBeat":94.16145833333333,"startTick":90395,"startTime":35.310546875,"velocity":50},{"channel":12,"duration":0.1875,"durationBeats":0.5,"durationTicks":480,"endBeat":94.60729166666667,"endTick":90823,"endTime":35.477734375,"note":67,"startBeat":94.10729166666667,"startTick":90343,"startTime":35.290234375,"velocity":50},{"channel":2,"duration":0.1875,"durationBeats":0.5,"durationTicks":480,"endBeat":94.63854166666667,"endTick":90853,"endTime":35.489453125,"note":31,"startBeat":94.13854166666667,"startTick":90373,"startTime":35.301953125,"velocity":57},{"channel":9,"duration":0.0078125,"durationBeats":0.020833333333342807,"durationTicks":20,"endBeat":94.68229166666667,"endTick":90895,"endTime":35.505859375,"note":35,"startBeat":94.66145833333333,"startTick":90875,"startTime":35.498046875,"velocity":50},{"channel":12,"duration":0.046875,"durationBeats":0.125,"durationTicks":120,"endBeat":94.73229166666667,"endTick":90943,"endTime":35.524609375,"note":67,"startBeat":94.60729166666667,"startTick":90823,"startTime":35.477734375,"velocity":50},{"channel":5,"duration":0.1875,"durationBeats":0.5,"durationTicks":480,"endBeat":94.74479166666667,"endTick":90955,"endTime":35.529296875,"note":79,"startBeat":94.24479166666667,"startTick":90475,"startTime":35.341796875,"velocity":70},{"channel":5,"duration":0.1875,"durationBeats":0.5,"durationTicks":480,"endBeat":94.74479166666667,"endTick":90955,"endTime":35.529296875,"note":76,"startBeat":94.24479166666667,"startTick":90475,"startTime":35.341796875,"velocity":70},{"channel":5,"duration":0.1875,"durationBeats":0.5,"durationTicks":480,"endBeat":94.74479166666667,"endTick":90955,"endTime":35.529296875,"note":72,"startBeat":94.24479166666667,"startTick":90475,"startTime":35.341796875,"velocity":70},{"channel":5,"duration":0.1875,"durationBeats":0.5,"durationTicks":480,"endBeat":94.74479166666667,"endTick":90955,"endTime":35.529296875,"note":69,"startBeat":94.24479166666667,"startTick":90475,"startTime":35.341796875,"velocity":70},{"channel":1,"duration":0.1875,"durationBeats":0.5,"durationTicks":480,"endBeat":94.909375,"endTick":91113,"endTime":35.591015625,"note":31,"startBeat":94.409375,"startTick":90633,"startTime":35.403515625,"velocity":50},{"channel":8,"duration":0.1875,"durationBeats":0.5,"durationTicks":480,"endBeat":94.91666666666667,"endTick":91120,"endTime":35.59375,"note":64,"startBeat":94.41666666666667,"startTick":90640,"startTime":35.40625,"velocity":50},{"channel":5,"duration":0.09375,"durationBeats":0.25,"durationTicks":240,"endBeat":94.99479166666667,"endTick":91195,"endTime":35.623046875,"note":77,"startBeat":94.74479166666667,"startTick":90955,"startTime":35.529296875,"velocity":70},{"channel":9,"duration":0.09375,"durationBeats":0.25,"durationTicks":240,"endBeat":95.08333333333333,"endTick":91280,"endTime":35.65625,"note":42,"startBeat":94.83333333333333,"startTick":91040,"startTime":35.5625,"velocity":50},{"channel":12,"duration":0.140625,"durationBeats":0.375,"durationTicks":360,"endBeat":95.10729166666667,"endTick":91303,"endTime":35.665234375,"note":69,"startBeat":94.73229166666667,"startTick":90943,"startTime":35.524609375,"velocity":50},{"channel":2,"duration":0.1875,"durationBeats":0.5,"durationTicks":480,"endBeat":95.13854166666667,"endTick":91333,"endTime":35.676953125,"note":32,"startBeat":94.63854166666667,"startTick":90853,"startTime":35.489453125,"velocity":57},{"channel":9,"duration":0.09375,"durationBeats":0.25,"durationTicks":240,"endBeat":95.18229166666667,"endTick":91375,"endTime":35.693359375,"note":35,"startBeat":94.93229166666667,"startTick":91135,"startTime":35.599609375,"velocity":50},{"channel":9,"duration":0.09375,"durationBeats":0.25,"durationTicks":240,"endBeat":95.35416666666667,"endTick":91540,"endTime":35.7578125,"note":42,"startBeat":95.10416666666667,"startTick":91300,"startTime":35.6640625,"velocity":50},{"channel":1,"duration":0.1875,"durationBeats":0.5,"durationTicks":480,"endBeat":95.409375,"endTick":91593,"endTime":35.778515625,"note":32,"startBeat":94.909375,"startTick":91113,"startTime":35.591015625,"velocity":50},{"channel":2,"duration":0.1875,"durationBeats":0.5,"durationTicks":480,"endBeat":95.63854166666667,"endTick":91813,"endTime":35.864453125,"note":33,"startBeat":95.13854166666667,"startTick":91333,"startTime":35.676953125,"velocity":57},{"channel":12,"duration":0.0234375,"durationBeats":0.0625,"durationTicks":60,"endBeat":95.66979166666667,"endTick":91843,"endTime":35.876171875,"note":69,"startBeat":95.60729166666667,"startTick":91783,"startTime":35.852734375,"velocity":50},{"channel":5,"duration":0.1875,"durationBeats":0.5,"durationTicks":480,"endBeat":95.74479166666667,"endTick":91915,"endTime":35.904296875,"note":79,"startBeat":95.24479166666667,"startTick":91435,"startTime":35.716796875,"velocity":70},{"channel":5,"duration":0.1875,"durationBeats":0.5,"durationTicks":480,"endBeat":95.74479166666667,"endTick":91915,"endTime":35.904296875,"note":76,"startBeat":95.24479166666667,"startTick":91435,"startTime":35.716796875,"velocity":70},{"channel":5,"duration":0.1875,"durationBeats":0.5,"durationTicks":480,"endBeat":95.74479166666667,"endTick":91915,"endTime":35.904296875,"note":72,"startBeat":95.24479166666667,"startTick":91435,"startTime":35.716796875,"velocity":70},{"channel":5,"duration":0.1875,"durationBeats":0.5,"durationTicks":480,"endBeat":95.74479166666667,"endTick":91915,"endTime":35.904296875,"note":69,"startBeat":95.24479166666667,"startTick":91435,"startTime":35.716796875,"velocity":70},{"channel":12,"duration":0.0703125,"durationBeats":0.1875,"durationTicks":180,"endBeat":95.85729166666667,"endTick":92023,"endTime":35.946484375,"note":70,"startBeat":95.66979166666667,"startTick":91843,"startTime":35.876171875,"velocity":50},{"channel":1,"duration":0.1875,"durationBeats":0.5,"durationTicks":480,"endBeat":95.909375,"endTick":92073,"endTime":35.966015625,"note":33,"startBeat":95.409375,"startTick":91593,"startTime":35.778515625,"velocity":50},{"channel":9,"duration":0.09375,"durationBeats":0.25,"durationTicks":240,"endBeat":95.91145833333333,"endTick":92075,"endTime":35.966796875,"note":35,"startBeat":95.66145833333333,"startTick":91835,"startTime":35.873046875,"velocity":50},{"channel":8,"duration":0.1875,"durationBeats":0.5,"durationTicks":480,"endBeat":95.91666666666667,"endTick":92080,"endTime":35.96875,"note":67,"startBeat":95.41666666666667,"startTick":91600,"startTime":35.78125,"velocity":50},{"channel":9,"duration":0.09375,"durationBeats":0.25,"durationTicks":240,"endBeat":96.08333333333333,"endTick":92240,"endTime":36.03125,"note":42,"startBeat":95.83333333333333,"startTick":92000,"startTime":35.9375,"velocity":50},{"channel":2,"duration":0.09375,"durationBeats":0.25,"durationTicks":240,"endBeat":96.13854166666667,"endTick":92293,"endTime":36.051953125,"note":33,"startBeat":95.88854166666667,"startTick":92053,"startTime":35.958203125,"velocity":57},{"channel":9,"duration":0.09375,"durationBeats":0.25,"durationTicks":240,"endBeat":96.18229166666667,"endTick":92335,"endTime":36.068359375,"note":35,"startBeat":95.93229166666667,"startTick":92095,"startTime":35.974609375,"velocity":50},{"channel":5,"duration":0.1875,"durationBeats":0.5,"durationTicks":480,"endBeat":96.24479166666667,"endTick":92395,"endTime":36.091796875,"note":81,"startBeat":95.74479166666667,"startTick":91915,"startTime":35.904296875,"velocity":70},{"channel":5,"duration":0.1875,"durationBeats":0.5,"durationTicks":480,"endBeat":96.24479166666667,"endTick":92395,"endTime":36.091796875,"note":77,"startBeat":95.74479166666667,"startTick":91915,"startTime":35.904296875,"velocity":70},{"channel":5,"duration":0.1875,"durationBeats":0.5,"durationTicks":480,"endBeat":96.24479166666667,"endTick":92395,"endTime":36.091796875,"note":74,"startBeat":95.74479166666667,"startTick":91915,"startTime":35.904296875,"velocity":70},{"channel":5,"duration":0.1875,"durationBeats":0.5,"durationTicks":480,"endBeat":96.24479166666667,"endTick":92395,"endTime":36.091796875,"note":72,"startBeat":95.74479166666667,"startTick":91915,"startTime":35.904296875,"velocity":70},{"channel":9,"duration":0.09375,"durationBeats":0.25,"durationTicks":240,"endBeat":96.35416666666667,"endTick":92500,"endTime":36.1328125,"note":42,"startBeat":96.10416666666667,"startTick":92260,"startTime":36.0390625,"velocity":50},{"channel":1,"duration":0.09375,"durationBeats":0.25,"durationTicks":240,"endBeat":96.409375,"endTick":92553,"endTime":36.153515625,"note":33,"startBeat":96.159375,"startTick":92313,"startTime":36.059765625,"velocity":50},{"channel":9,"duration":0.09375,"durationBeats":0.25,"durationTicks":240,"endBeat":96.68229166666667,"endTick":92815,"endTime":36.255859375,"note":42,"startBeat":96.43229166666667,"startTick":92575,"startTime":36.162109375,"velocity":50},{"channel":9,"duration":0.09375,"durationBeats":0.25,"durationTicks":240,"endBeat":96.91145833333333,"endTick":93035,"endTime":36.341796875,"note":35,"startBeat":96.66145833333333,"startTick":92795,"startTime":36.248046875,"velocity":50},{"channel":8,"duration":0.1875,"durationBeats":0.5,"durationTicks":480,"endBeat":96.91666666666667,"endTick":93040,"endTime":36.34375,"note":65,"startBeat":96.41666666666667,"startTick":92560,"startTime":36.15625,"velocity":50},{"channel":9,"duration":0.09375,"durationBeats":0.25,"durationTicks":240,"endBeat":97.08333333333333,"endTick":93200,"endTime":36.40625,"note":42,"startBeat":96.83333333333333,"startTick":92960,"startTime":36.3125,"velocity":50},{"channel":2,"duration":0.1875,"durationBeats":0.5,"durationTicks":480,"endBeat":97.13854166666667,"endTick":93253,"endTime":36.426953125,"note":26,"startBeat":96.63854166666667,"startTick":92773,"startTime":36.239453125,"velocity":57},{"channel":9,"duration":0.09375,"durationBeats":0.25,"durationTicks":240,"endBeat":97.18229166666667,"endTick":93295,"endTime":36.443359375,"note":35,"startBeat":96.93229166666667,"startTick":93055,"startTime":36.349609375,"velocity":50},{"channel":9,"duration":0.0390625,"durationBeats":0.1041666666666714,"durationTicks":100,"endBeat":97.35416666666667,"endTick":93460,"endTime":36.5078125,"note":42,"startBeat":97.25,"startTick":93360,"startTime":36.46875,"velocity":50},{"channel":1,"duration":0.1875,"durationBeats":0.5,"durationTicks":480,"endBeat":97.409375,"endTick":93513,"endTime":36.528515625,"note":26,"startBeat":96.909375,"startTick":93033,"startTime":36.341015625,"velocity":50},{"channel":9,"duration":0.09375,"durationBeats":0.25,"durationTicks":240,"endBeat":97.66145833333333,"endTick":93755,"endTime":36.623046875,"note":35,"startBeat":97.41145833333333,"startTick":93515,"startTime":36.529296875,"velocity":50},{"channel":9,"duration":0.0625,"durationBeats":0.1666666666666714,"durationTicks":160,"endBeat":97.75,"endTick":93840,"endTime":36.65625,"note":42,"startBeat":97.58333333333333,"startTick":93680,"startTime":36.59375,"velocity":50},{"channel":8,"duration":0.1875,"durationBeats":0.5,"durationTicks":480,"endBeat":97.91666666666667,"endTick":94000,"endTime":36.71875,"note":64,"startBeat":97.41666666666667,"startTick":93520,"startTime":36.53125,"velocity":50},{"channel":9,"duration":0.09375,"durationBeats":0.25,"durationTicks":240,"endBeat":97.93229166666667,"endTick":94015,"endTime":36.724609375,"note":35,"startBeat":97.68229166666667,"startTick":93775,"startTime":36.630859375,"velocity":50},{"channel":9,"duration":0.09375,"durationBeats":0.25,"durationTicks":240,"endBeat":98.10416666666667,"endTick":94180,"endTime":36.7890625,"note":42,"startBeat":97.85416666666667,"startTick":93940,"startTime":36.6953125,"velocity":50},{"channel":2,"duration":0.1875,"durationBeats":0.5,"durationTicks":480,"endBeat":98.13854166666667,"endTick":94213,"endTime":36.801953125,"note":26,"startBeat":97.63854166666667,"startTick":93733,"startTime":36.614453125,"velocity":57},{"channel":1,"duration":0.1875,"durationBeats":0.5,"durationTicks":480,"endBeat":98.409375,"endTick":94473,"endTime":36.903515625,"note":26,"startBeat":97.909375,"startTick":93993,"startTime":36.716015625,"velocity":50},{"channel":9,"duration":0.09375,"durationBeats":0.25,"durationTicks":240,"endBeat":98.41145833333333,"endTick":94475,"endTime":36.904296875,"note":35,"startBeat":98.16145833333333,"startTick":94235,"startTime":36.810546875,"velocity":50},{"channel":9,"duration":0.09375,"durationBeats":0.25,"durationTicks":240,"endBeat":98.5,"endTick":94560,"endTime":36.9375,"note":42,"startBeat":98.25,"startTick":94320,"startTime":36.84375,"velocity":50},{"channel":2,"duration":0.1875,"durationBeats":0.5,"durationTicks":480,"endBeat":98.63854166666667,"endTick":94693,"endTime":36.989453125,"note":33,"startBeat":98.13854166666667,"startTick":94213,"startTime":36.801953125,"velocity":57},{"channel":9,"duration":0.0078125,"durationBeats":0.020833333333342807,"durationTicks":20,"endBeat":98.68229166666667,"endTick":94735,"endTime":37.005859375,"note":35,"startBeat":98.66145833333333,"startTick":94715,"startTime":36.998046875,"velocity":50},{"channel":9,"duration":0.09375,"durationBeats":0.25,"durationTicks":240,"endBeat":98.75,"endTick":94800,"endTime":37.03125,"note":42,"startBeat":98.5,"startTick":94560,"startTime":36.9375,"velocity":50},{"channel":12,"duration":1.03125,"durationBeats":2.75,"durationTicks":2640,"endBeat":98.85729166666667,"endTick":94903,"endTime":37.071484375,"note":69,"startBeat":96.10729166666667,"startTick":92263,"startTime":36.040234375,"velocity":50},{"channel":1,"duration":0.1875,"durationBeats":0.5,"durationTicks":480,"endBeat":98.909375,"endTick":94953,"endTime":37.091015625,"note":33,"startBeat":98.409375,"startTick":94473,"startTime":36.903515625,"velocity":50},{"channel":8,"duration":0.1875,"durationBeats":0.5,"durationTicks":480,"endBeat":98.91666666666667,"endTick":94960,"endTime":37.09375,"note":62,"startBeat":98.41666666666667,"startTick":94480,"startTime":36.90625,"velocity":50},{"channel":9,"duration":0.09375,"durationBeats":0.25,"durationTicks":240,"endBeat":99.08333333333333,"endTick":95120,"endTime":37.15625,"note":42,"startBeat":98.83333333333333,"startTick":94880,"startTime":37.0625,"velocity":50},{"channel":2,"duration":0.1875,"durationBeats":0.5,"durationTicks":480,"endBeat":99.13854166666667,"endTick":95173,"endTime":37.176953125,"note":26,"startBeat":98.63854166666667,"startTick":94693,"startTime":36.989453125,"velocity":57},{"channel":9,"duration":0.09375,"durationBeats":0.25,"durationTicks":240,"endBeat":99.18229166666667,"endTick":95215,"endTime":37.193359375,"note":35,"startBeat":98.93229166666667,"startTick":94975,"startTime":37.099609375,"velocity":50},{"channel":9,"duration":0.0390625,"durationBeats":0.1041666666666714,"durationTicks":100,"endBeat":99.35416666666667,"endTick":95380,"endTime":37.2578125,"note":42,"startBeat":99.25,"startTick":95280,"startTime":37.21875,"velocity":50},{"channel":1,"duration":0.1875,"durationBeats":0.5,"durationTicks":480,"endBeat":99.409375,"endTick":95433,"endTime":37.278515625,"note":26,"startBeat":98.909375,"startTick":94953,"startTime":37.091015625,"velocity":50},{"channel":2,"duration":0.1875,"durationBeats":0.5,"durationTicks":480,"endBeat":99.63854166666667,"endTick":95653,"endTime":37.364453125,"note":38,"startBeat":99.13854166666667,"startTick":95173,"startTime":37.176953125,"velocity":57},{"channel":1,"duration":0.1875,"durationBeats":0.5,"durationTicks":480,"endBeat":99.909375,"endTick":95913,"endTime":37.466015625,"note":38,"startBeat":99.409375,"startTick":95433,"startTime":37.278515625,"velocity":50},{"channel":9,"duration":0.09375,"durationBeats":0.25,"durationTicks":240,"endBeat":99.91145833333333,"endTick":95915,"endTime":37.466796875,"note":35,"startBeat":99.66145833333333,"startTick":95675,"startTime":37.373046875,"velocity":50},{"channel":8,"duration":0.1875,"durationBeats":0.5,"durationTicks":480,"endBeat":99.91666666666667,"endTick":95920,"endTime":37.46875,"note":65,"startBeat":99.41666666666667,"startTick":95440,"startTime":37.28125,"velocity":50},{"channel":5,"duration":1.03125,"durationBeats":2.75,"durationTicks":2640,"endBeat":99.99479166666667,"endTick":95995,"endTime":37.498046875,"note":72,"startBeat":97.24479166666667,"startTick":93355,"startTime":36.466796875,"velocity":70},{"channel":5,"duration":1.03125,"durationBeats":2.75,"durationTicks":2640,"endBeat":99.99479166666667,"endTick":95995,"endTime":37.498046875,"note":74,"startBeat":97.24479166666667,"startTick":93355,"startTime":36.466796875,"velocity":70},{"channel":5,"duration":1.03125,"durationBeats":2.75,"durationTicks":2640,"endBeat":99.99479166666667,"endTick":95995,"endTime":37.498046875,"note":77,"startBeat":97.24479166666667,"startTick":93355,"startTime":36.466796875,"velocity":70},{"channel":5,"duration":1.03125,"durationBeats":2.75,"durationTicks":2640,"endBeat":99.99479166666667,"endTick":95995,"endTime":37.498046875,"note":81,"startBeat":97.24479166666667,"startTick":93355,"startTime":36.466796875,"velocity":70},{"channel":9,"duration":0.03125,"durationBeats":0.0833333333333286,"durationTicks":80,"endBeat":100.08333333333333,"endTick":96080,"endTime":37.53125,"note":42,"startBeat":100,"startTick":96000,"startTime":37.5,"velocity":50},{"channel":2,"duration":0.1875,"durationBeats":0.5,"durationTicks":480,"endBeat":100.13854166666667,"endTick":96133,"endTime":37.551953125,"note":26,"startBeat":99.63854166666667,"startTick":95653,"startTime":37.364453125,"velocity":57},{"channel":9,"duration":0.09375,"durationBeats":0.25,"durationTicks":240,"endBeat":100.18229166666667,"endTick":96175,"endTime":37.568359375,"note":35,"startBeat":99.93229166666667,"startTick":95935,"startTime":37.474609375,"velocity":50},{"channel":9,"duration":0.0546875,"durationBeats":0.1458333333333286,"durationTicks":140,"endBeat":100.25,"endTick":96240,"endTime":37.59375,"note":42,"startBeat":100.10416666666667,"startTick":96100,"startTime":37.5390625,"velocity":50},{"channel":9,"duration":0.0234375,"durationBeats":0.0625,"durationTicks":60,"endBeat":100.3125,"endTick":96300,"endTime":37.6171875,"note":42,"startBeat":100.25,"startTick":96240,"startTime":37.59375,"velocity":50},{"channel":1,"duration":0.1875,"durationBeats":0.5,"durationTicks":480,"endBeat":100.409375,"endTick":96393,"endTime":37.653515625,"note":26,"startBeat":99.909375,"startTick":95913,"startTime":37.466015625,"velocity":50},{"channel":9,"duration":0.0234375,"durationBeats":0.0625,"durationTicks":60,"endBeat":100.4375,"endTick":96420,"endTime":37.6640625,"note":42,"startBeat":100.375,"startTick":96360,"startTime":37.640625,"velocity":50},{"channel":5,"duration":0.09375,"durationBeats":0.25,"durationTicks":240,"endBeat":100.49479166666667,"endTick":96475,"endTime":37.685546875,"note":79,"startBeat":100.24479166666667,"startTick":96235,"startTime":37.591796875,"velocity":70},{"channel":9,"duration":0.0234375,"durationBeats":0.0625,"durationTicks":60,"endBeat":100.5625,"endTick":96540,"endTime":37.7109375,"note":42,"startBeat":100.5,"startTick":96480,"startTime":37.6875,"velocity":50},{"channel":2,"duration":0.1875,"durationBeats":0.5,"durationTicks":480,"endBeat":100.63854166666667,"endTick":96613,"endTime":37.739453125,"note":33,"startBeat":100.13854166666667,"startTick":96133,"startTime":37.551953125,"velocity":57},{"channel":9,"duration":0.0234375,"durationBeats":0.0625,"durationTicks":60,"endBeat":100.6875,"endTick":96660,"endTime":37.7578125,"note":42,"startBeat":100.625,"startTick":96600,"startTime":37.734375,"velocity":50},{"channel":5,"duration":0.1875,"durationBeats":0.5,"durationTicks":480,"endBeat":100.74479166666667,"endTick":96715,"endTime":37.779296875,"note":81,"startBeat":100.24479166666667,"startTick":96235,"startTime":37.591796875,"velocity":70},{"channel":5,"duration":0.1875,"durationBeats":0.5,"durationTicks":480,"endBeat":100.74479166666667,"endTick":96715,"endTime":37.779296875,"note":77,"startBeat":100.24479166666667,"startTick":96235,"startTime":37.591796875,"velocity":70},{"channel":5,"duration":0.1875,"durationBeats":0.5,"durationTicks":480,"endBeat":100.74479166666667,"endTick":96715,"endTime":37.779296875,"note":74,"startBeat":100.24479166666667,"startTick":96235,"startTime":37.591796875,"velocity":70},{"channel":5,"duration":0.1875,"durationBeats":0.5,"durationTicks":480,"endBeat":100.74479166666667,"endTick":96715,"endTime":37.779296875,"note":70,"startBeat":100.24479166666667,"startTick":96235,"startTime":37.591796875,"velocity":70},{"channel":9,"duration":0.0234375,"durationBeats":0.0625,"durationTicks":60,"endBeat":100.8125,"endTick":96780,"endTime":37.8046875,"note":42,"startBeat":100.75,"startTick":96720,"startTime":37.78125,"velocity":50},{"channel":1,"duration":0.1875,"durationBeats":0.5,"durationTicks":480,"endBeat":100.909375,"endTick":96873,"endTime":37.841015625,"note":33,"startBeat":100.409375,"startTick":96393,"startTime":37.653515625,"velocity":50},{"channel":9,"duration":0.09375,"durationBeats":0.25,"durationTicks":240,"endBeat":100.91145833333333,"endTick":96875,"endTime":37.841796875,"note":35,"startBeat":100.66145833333333,"startTick":96635,"startTime":37.748046875,"velocity":50},{"channel":8,"duration":0.1875,"durationBeats":0.5,"durationTicks":480,"endBeat":100.91666666666667,"endTick":96880,"endTime":37.84375,"note":64,"startBeat":100.41666666666667,"startTick":96400,"startTime":37.65625,"velocity":50},{"channel":9,"duration":0.09375,"durationBeats":0.25,"durationTicks":240,"endBeat":101.08333333333333,"endTick":97040,"endTime":37.90625,"note":42,"startBeat":100.83333333333333,"startTick":96800,"startTime":37.8125,"velocity":50},{"channel":2,"duration":0.1875,"durationBeats":0.5,"durationTicks":480,"endBeat":101.13854166666667,"endTick":97093,"endTime":37.926953125,"note":32,"startBeat":100.63854166666667,"startTick":96613,"startTime":37.739453125,"velocity":57},{"channel":9,"duration":0.09375,"durationBeats":0.25,"durationTicks":240,"endBeat":101.18229166666667,"endTick":97135,"endTime":37.943359375,"note":35,"startBeat":100.93229166666667,"startTick":96895,"startTime":37.849609375,"velocity":50},{"channel":9,"duration":0.0390625,"durationBeats":0.1041666666666714,"durationTicks":100,"endBeat":101.35416666666667,"endTick":97300,"endTime":38.0078125,"note":42,"startBeat":101.25,"startTick":97200,"startTime":37.96875,"velocity":50},{"channel":1,"duration":0.1875,"durationBeats":0.5,"durationTicks":480,"endBeat":101.409375,"endTick":97353,"endTime":38.028515625,"note":32,"startBeat":100.909375,"startTick":96873,"startTime":37.841015625,"velocity":50},{"channel":2,"duration":0.1875,"durationBeats":0.5,"durationTicks":480,"endBeat":101.63854166666667,"endTick":97573,"endTime":38.114453125,"note":31,"startBeat":101.13854166666667,"startTick":97093,"startTime":37.926953125,"velocity":57},{"channel":9,"duration":0.09375,"durationBeats":0.25,"durationTicks":240,"endBeat":101.66145833333333,"endTick":97595,"endTime":38.123046875,"note":35,"startBeat":101.41145833333333,"startTick":97355,"startTime":38.029296875,"velocity":50},{"channel":5,"duration":0.1875,"durationBeats":0.5,"durationTicks":480,"endBeat":101.74479166666667,"endTick":97675,"endTime":38.154296875,"note":81,"startBeat":101.24479166666667,"startTick":97195,"startTime":37.966796875,"velocity":70},{"channel":5,"duration":0.1875,"durationBeats":0.5,"durationTicks":480,"endBeat":101.74479166666667,"endTick":97675,"endTime":38.154296875,"note":77,"startBeat":101.24479166666667,"startTick":97195,"startTime":37.966796875,"velocity":70},{"channel":5,"duration":0.1875,"durationBeats":0.5,"durationTicks":480,"endBeat":101.74479166666667,"endTick":97675,"endTime":38.154296875,"note":74,"startBeat":101.24479166666667,"startTick":97195,"startTime":37.966796875,"velocity":70},{"channel":5,"duration":0.1875,"durationBeats":0.5,"durationTicks":480,"endBeat":101.74479166666667,"endTick":97675,"endTime":38.154296875,"note":70,"startBeat":101.24479166666667,"startTick":97195,"startTime":37.966796875,"velocity":70},{"channel":9,"duration":0.0625,"durationBeats":0.1666666666666714,"durationTicks":160,"endBeat":101.75,"endTick":97680,"endTime":38.15625,"note":42,"startBeat":101.58333333333333,"startTick":97520,"startTime":38.09375,"velocity":50},{"channel":1,"duration":0.1875,"durationBeats":0.5,"durationTicks":480,"endBeat":101.909375,"endTick":97833,"endTime":38.216015625,"note":31,"startBeat":101.409375,"startTick":97353,"startTime":38.028515625,"velocity":50},{"channel":8,"duration":0.1875,"durationBeats":0.5,"durationTicks":480,"endBeat":101.91666666666667,"endTick":97840,"endTime":38.21875,"note":67,"startBeat":101.41666666666667,"startTick":97360,"startTime":38.03125,"velocity":50},{"channel":9,"duration":0.09375,"durationBeats":0.25,"durationTicks":240,"endBeat":101.93229166666667,"endTick":97855,"endTime":38.224609375,"note":35,"startBeat":101.68229166666667,"startTick":97615,"startTime":38.130859375,"velocity":50},{"channel":9,"duration":0.09375,"durationBeats":0.25,"durationTicks":240,"endBeat":102.10416666666667,"endTick":98020,"endTime":38.2890625,"note":42,"startBeat":101.85416666666667,"startTick":97780,"startTime":38.1953125,"velocity":50},{"channel":8,"duration":0.09375,"durationBeats":0.25,"durationTicks":240,"endBeat":102.16666666666667,"endTick":98080,"endTime":38.3125,"note":65,"startBeat":101.91666666666667,"startTick":97840,"startTime":38.21875,"velocity":50},{"channel":6,"duration":0.09375,"durationBeats":0.25,"durationTicks":240,"endBeat":102.21875,"endTick":98130,"endTime":38.33203125,"note":74,"startBeat":101.96875,"startTick":97890,"startTime":38.23828125,"velocity":50},{"channel":9,"duration":0.09375,"durationBeats":0.25,"durationTicks":240,"endBeat":102.41145833333333,"endTick":98315,"endTime":38.404296875,"note":35,"startBeat":102.16145833333333,"startTick":98075,"startTime":38.310546875,"velocity":50},{"channel":6,"duration":0.09375,"durationBeats":0.25,"durationTicks":240,"endBeat":102.46875,"endTick":98370,"endTime":38.42578125,"note":77,"startBeat":102.21875,"startTick":98130,"startTime":38.33203125,"velocity":50},{"channel":9,"duration":0.09375,"durationBeats":0.25,"durationTicks":240,"endBeat":102.5,"endTick":98400,"endTime":38.4375,"note":42,"startBeat":102.25,"startTick":98160,"startTime":38.34375,"velocity":50},{"channel":2,"duration":0.1875,"durationBeats":0.5,"durationTicks":480,"endBeat":102.63854166666667,"endTick":98533,"endTime":38.489453125,"note":31,"startBeat":102.13854166666667,"startTick":98053,"startTime":38.301953125,"velocity":57},{"channel":9,"duration":0.0078125,"durationBeats":0.020833333333342807,"durationTicks":20,"endBeat":102.68229166666667,"endTick":98575,"endTime":38.505859375,"note":35,"startBeat":102.66145833333333,"startTick":98555,"startTime":38.498046875,"velocity":50},{"channel":6,"duration":0.09375,"durationBeats":0.25,"durationTicks":240,"endBeat":102.71875,"endTick":98610,"endTime":38.51953125,"note":79,"startBeat":102.46875,"startTick":98370,"startTime":38.42578125,"velocity":50},{"channel":5,"duration":0.1875,"durationBeats":0.5,"durationTicks":480,"endBeat":102.74479166666667,"endTick":98635,"endTime":38.529296875,"note":77,"startBeat":102.24479166666667,"startTick":98155,"startTime":38.341796875,"velocity":70},{"channel":5,"duration":0.1875,"durationBeats":0.5,"durationTicks":480,"endBeat":102.74479166666667,"endTick":98635,"endTime":38.529296875,"note":73,"startBeat":102.24479166666667,"startTick":98155,"startTime":38.341796875,"velocity":70},{"channel":5,"duration":0.1875,"durationBeats":0.5,"durationTicks":480,"endBeat":102.74479166666667,"endTick":98635,"endTime":38.529296875,"note":67,"startBeat":102.24479166666667,"startTick":98155,"startTime":38.341796875,"velocity":70},{"channel":5,"duration":0.1875,"durationBeats":0.5,"durationTicks":480,"endBeat":102.74479166666667,"endTick":98635,"endTime":38.529296875,"note":70,"startBeat":102.24479166666667,"startTick":98155,"startTime":38.341796875,"velocity":70},{"channel":9,"duration":0.09375,"durationBeats":0.25,"durationTicks":240,"endBeat":102.75,"endTick":98640,"endTime":38.53125,"note":42,"startBeat":102.5,"startTick":98400,"startTime":38.4375,"velocity":50},{"channel":1,"duration":0.1875,"durationBeats":0.5,"durationTicks":480,"endBeat":102.909375,"endTick":98793,"endTime":38.591015625,"note":31,"startBeat":102.409375,"startTick":98313,"startTime":38.403515625,"velocity":50},{"channel":8,"duration":0.1875,"durationBeats":0.5,"durationTicks":480,"endBeat":102.91666666666667,"endTick":98800,"endTime":38.59375,"note":67,"startBeat":102.41666666666667,"startTick":98320,"startTime":38.40625,"velocity":50},{"channel":8,"duration":0.046875,"durationBeats":0.125,"durationTicks":120,"endBeat":103.04166666666667,"endTick":98920,"endTime":38.640625,"note":67,"startBeat":102.91666666666667,"startTick":98800,"startTime":38.59375,"velocity":50},{"channel":9,"duration":0.09375,"durationBeats":0.25,"durationTicks":240,"endBeat":103.08333333333333,"endTick":98960,"endTime":38.65625,"note":42,"startBeat":102.83333333333333,"startTick":98720,"startTime":38.5625,"velocity":50},{"channel":2,"duration":0.1875,"durationBeats":0.5,"durationTicks":480,"endBeat":103.13854166666667,"endTick":99013,"endTime":38.676953125,"note":32,"startBeat":102.63854166666667,"startTick":98533,"startTime":38.489453125,"velocity":57},{"channel":9,"duration":0.09375,"durationBeats":0.25,"durationTicks":240,"endBeat":103.18229166666667,"endTick":99055,"endTime":38.693359375,"note":35,"startBeat":102.93229166666667,"startTick":98815,"startTime":38.599609375,"velocity":50},{"channel":6,"duration":0.09375,"durationBeats":0.25,"durationTicks":240,"endBeat":103.21875,"endTick":99090,"endTime":38.70703125,"note":81,"startBeat":102.96875,"startTick":98850,"startTime":38.61328125,"velocity":50},{"channel":9,"duration":0.0390625,"durationBeats":0.1041666666666714,"durationTicks":100,"endBeat":103.35416666666667,"endTick":99220,"endTime":38.7578125,"note":42,"startBeat":103.25,"startTick":99120,"startTime":38.71875,"velocity":50},{"channel":1,"duration":0.1875,"durationBeats":0.5,"durationTicks":480,"endBeat":103.409375,"endTick":99273,"endTime":38.778515625,"note":32,"startBeat":102.909375,"startTick":98793,"startTime":38.591015625,"velocity":50},{"channel":8,"duration":0.140625,"durationBeats":0.375,"durationTicks":360,"endBeat":103.41666666666667,"endTick":99280,"endTime":38.78125,"note":69,"startBeat":103.04166666666667,"startTick":98920,"startTime":38.640625,"velocity":50},{"channel":2,"duration":0.1875,"durationBeats":0.5,"durationTicks":480,"endBeat":103.63854166666667,"endTick":99493,"endTime":38.864453125,"note":33,"startBeat":103.13854166666667,"startTick":99013,"startTime":38.676953125,"velocity":57},{"channel":6,"duration":0.09375,"durationBeats":0.25,"durationTicks":240,"endBeat":103.71875,"endTick":99570,"endTime":38.89453125,"note":84,"startBeat":103.46875,"startTick":99330,"startTime":38.80078125,"velocity":50},{"channel":5,"duration":0.1875,"durationBeats":0.5,"durationTicks":480,"endBeat":103.74479166666667,"endTick":99595,"endTime":38.904296875,"note":76,"startBeat":103.24479166666667,"startTick":99115,"startTime":38.716796875,"velocity":70},{"channel":5,"duration":0.1875,"durationBeats":0.5,"durationTicks":480,"endBeat":103.74479166666667,"endTick":99595,"endTime":38.904296875,"note":73,"startBeat":103.24479166666667,"startTick":99115,"startTime":38.716796875,"velocity":70},{"channel":5,"duration":0.1875,"durationBeats":0.5,"durationTicks":480,"endBeat":103.74479166666667,"endTick":99595,"endTime":38.904296875,"note":67,"startBeat":103.24479166666667,"startTick":99115,"startTime":38.716796875,"velocity":70},{"channel":5,"duration":0.1875,"durationBeats":0.5,"durationTicks":480,"endBeat":103.74479166666667,"endTick":99595,"endTime":38.904296875,"note":70,"startBeat":103.24479166666667,"startTick":99115,"startTime":38.716796875,"velocity":70},{"channel":1,"duration":0.1875,"durationBeats":0.5,"durationTicks":480,"endBeat":103.909375,"endTick":99753,"endTime":38.966015625,"note":33,"startBeat":103.409375,"startTick":99273,"startTime":38.778515625,"velocity":50},{"channel":9,"duration":0.09375,"durationBeats":0.25,"durationTicks":240,"endBeat":103.91145833333333,"endTick":99755,"endTime":38.966796875,"note":35,"startBeat":103.66145833333333,"startTick":99515,"startTime":38.873046875,"velocity":50},{"channel":8,"duration":0.0234375,"durationBeats":0.0625,"durationTicks":60,"endBeat":103.97916666666667,"endTick":99820,"endTime":38.9921875,"note":69,"startBeat":103.91666666666667,"startTick":99760,"startTime":38.96875,"velocity":50},{"channel":9,"duration":0.03125,"durationBeats":0.0833333333333286,"durationTicks":80,"endBeat":104.08333333333333,"endTick":99920,"endTime":39.03125,"note":42,"startBeat":104,"startTick":99840,"startTime":39,"velocity":50},{"channel":2,"duration":0.09375,"durationBeats":0.25,"durationTicks":240,"endBeat":104.13854166666667,"endTick":99973,"endTime":39.051953125,"note":33,"startBeat":103.88854166666667,"startTick":99733,"startTime":38.958203125,"velocity":57},{"channel":8,"duration":0.0703125,"durationBeats":0.1875,"durationTicks":180,"endBeat":104.16666666666667,"endTick":100000,"endTime":39.0625,"note":70,"startBeat":103.97916666666667,"startTick":99820,"startTime":38.9921875,"velocity":50},{"channel":9,"duration":0.09375,"durationBeats":0.25,"durationTicks":240,"endBeat":104.18229166666667,"endTick":100015,"endTime":39.068359375,"note":35,"startBeat":103.93229166666667,"startTick":99775,"startTime":38.974609375,"velocity":50},{"channel":6,"duration":0.09375,"durationBeats":0.25,"durationTicks":240,"endBeat":104.21875,"endTick":100050,"endTime":39.08203125,"note":82,"startBeat":103.96875,"startTick":99810,"startTime":38.98828125,"velocity":50},{"channel":9,"duration":0.0546875,"durationBeats":0.1458333333333286,"durationTicks":140,"endBeat":104.25,"endTick":100080,"endTime":39.09375,"note":42,"startBeat":104.10416666666667,"startTick":99940,"startTime":39.0390625,"velocity":50},{"channel":9,"duration":0.0234375,"durationBeats":0.0625,"durationTicks":60,"endBeat":104.3125,"endTick":100140,"endTime":39.1171875,"note":42,"startBeat":104.25,"startTick":100080,"startTime":39.09375,"velocity":50},{"channel":1,"duration":0.09375,"durationBeats":0.25,"durationTicks":240,"endBeat":104.409375,"endTick":100233,"endTime":39.153515625,"note":33,"startBeat":104.159375,"startTick":99993,"startTime":39.059765625,"velocity":50},{"channel":9,"duration":0.0234375,"durationBeats":0.0625,"durationTicks":60,"endBeat":104.4375,"endTick":100260,"endTime":39.1640625,"note":42,"startBeat":104.375,"startTick":100200,"startTime":39.140625,"velocity":50},{"channel":9,"duration":0.0234375,"durationBeats":0.0625,"durationTicks":60,"endBeat":104.5625,"endTick":100380,"endTime":39.2109375,"note":42,"startBeat":104.5,"startTick":100320,"startTime":39.1875,"velocity":50},{"channel":9,"duration":0.0234375,"durationBeats":0.0625,"durationTicks":60,"endBeat":104.6875,"endTick":100500,"endTime":39.2578125,"note":42,"startBeat":104.625,"startTick":100440,"startTime":39.234375,"velocity":50},{"channel":6,"duration":0.09375,"durationBeats":0.25,"durationTicks":240,"endBeat":104.71875,"endTick":100530,"endTime":39.26953125,"note":81,"startBeat":104.46875,"startTick":100290,"startTime":39.17578125,"velocity":50},{"channel":5,"duration":0.1875,"durationBeats":0.5,"durationTicks":480,"endBeat":104.74479166666667,"endTick":100555,"endTime":39.279296875,"note":79,"startBeat":104.24479166666667,"startTick":100075,"startTime":39.091796875,"velocity":70},{"channel":5,"duration":0.1875,"durationBeats":0.5,"durationTicks":480,"endBeat":104.74479166666667,"endTick":100555,"endTime":39.279296875,"note":76,"startBeat":104.24479166666667,"startTick":100075,"startTime":39.091796875,"velocity":70},{"channel":5,"duration":0.1875,"durationBeats":0.5,"durationTicks":480,"endBeat":104.74479166666667,"endTick":100555,"endTime":39.279296875,"note":69,"startBeat":104.24479166666667,"startTick":100075,"startTime":39.091796875,"velocity":70},{"channel":5,"duration":0.1875,"durationBeats":0.5,"durationTicks":480,"endBeat":104.74479166666667,"endTick":100555,"endTime":39.279296875,"note":72,"startBeat":104.24479166666667,"startTick":100075,"startTime":39.091796875,"velocity":70},{"channel":9,"duration":0.0234375,"durationBeats":0.0625,"durationTicks":60,"endBeat":104.8125,"endTick":100620,"endTime":39.3046875,"note":42,"startBeat":104.75,"startTick":100560,"startTime":39.28125,"velocity":50},{"channel":9,"duration":0.09375,"durationBeats":0.25,"durationTicks":240,"endBeat":104.91145833333333,"endTick":100715,"endTime":39.341796875,"note":35,"startBeat":104.66145833333333,"startTick":100475,"startTime":39.248046875,"velocity":50},{"channel":9,"duration":0.09375,"durationBeats":0.25,"durationTicks":240,"endBeat":105.08333333333333,"endTick":100880,"endTime":39.40625,"note":42,"startBeat":104.83333333333333,"startTick":100640,"startTime":39.3125,"velocity":50},{"channel":2,"duration":0.1875,"durationBeats":0.5,"durationTicks":480,"endBeat":105.13854166666667,"endTick":100933,"endTime":39.426953125,"note":26,"startBeat":104.63854166666667,"startTick":100453,"startTime":39.239453125,"velocity":57},{"channel":9,"duration":0.09375,"durationBeats":0.25,"durationTicks":240,"endBeat":105.18229166666667,"endTick":100975,"endTime":39.443359375,"note":35,"startBeat":104.93229166666667,"startTick":100735,"startTime":39.349609375,"velocity":50},{"channel":6,"duration":0.09375,"durationBeats":0.25,"durationTicks":240,"endBeat":105.21875,"endTick":101010,"endTime":39.45703125,"note":80,"startBeat":104.96875,"startTick":100770,"startTime":39.36328125,"velocity":50},{"channel":9,"duration":0.0390625,"durationBeats":0.1041666666666714,"durationTicks":100,"endBeat":105.35416666666667,"endTick":101140,"endTime":39.5078125,"note":42,"startBeat":105.25,"startTick":101040,"startTime":39.46875,"velocity":50},{"channel":1,"duration":0.1875,"durationBeats":0.5,"durationTicks":480,"endBeat":105.409375,"endTick":101193,"endTime":39.528515625,"note":26,"startBeat":104.909375,"startTick":100713,"startTime":39.341015625,"velocity":50},{"channel":9,"duration":0.09375,"durationBeats":0.25,"durationTicks":240,"endBeat":105.66145833333333,"endTick":101435,"endTime":39.623046875,"note":35,"startBeat":105.41145833333333,"startTick":101195,"startTime":39.529296875,"velocity":50},{"channel":5,"duration":0.1875,"durationBeats":0.5,"durationTicks":480,"endBeat":105.74479166666667,"endTick":101515,"endTime":39.654296875,"note":77,"startBeat":105.24479166666667,"startTick":101035,"startTime":39.466796875,"velocity":70},{"channel":5,"duration":0.1875,"durationBeats":0.5,"durationTicks":480,"endBeat":105.74479166666667,"endTick":101515,"endTime":39.654296875,"note":74,"startBeat":105.24479166666667,"startTick":101035,"startTime":39.466796875,"velocity":70},{"channel":5,"duration":0.1875,"durationBeats":0.5,"durationTicks":480,"endBeat":105.74479166666667,"endTick":101515,"endTime":39.654296875,"note":69,"startBeat":105.24479166666667,"startTick":101035,"startTime":39.466796875,"velocity":70},{"channel":5,"duration":0.1875,"durationBeats":0.5,"durationTicks":480,"endBeat":105.74479166666667,"endTick":101515,"endTime":39.654296875,"note":72,"startBeat":105.24479166666667,"startTick":101035,"startTime":39.466796875,"velocity":70},{"channel":9,"duration":0.0625,"durationBeats":0.1666666666666714,"durationTicks":160,"endBeat":105.75,"endTick":101520,"endTime":39.65625,"note":42,"startBeat":105.58333333333333,"startTick":101360,"startTime":39.59375,"velocity":50},{"channel":9,"duration":0.09375,"durationBeats":0.25,"durationTicks":240,"endBeat":105.93229166666667,"endTick":101695,"endTime":39.724609375,"note":35,"startBeat":105.68229166666667,"startTick":101455,"startTime":39.630859375,"velocity":50},{"channel":9,"duration":0.09375,"durationBeats":0.25,"durationTicks":240,"endBeat":106.10416666666667,"endTick":101860,"endTime":39.7890625,"note":42,"startBeat":105.85416666666667,"startTick":101620,"startTime":39.6953125,"velocity":50},{"channel":2,"duration":0.1875,"durationBeats":0.5,"durationTicks":480,"endBeat":106.13854166666667,"endTick":101893,"endTime":39.801953125,"note":38,"startBeat":105.63854166666667,"startTick":101413,"startTime":39.614453125,"velocity":57},{"channel":1,"duration":0.1875,"durationBeats":0.5,"durationTicks":480,"endBeat":106.409375,"endTick":102153,"endTime":39.903515625,"note":38,"startBeat":105.909375,"startTick":101673,"startTime":39.716015625,"velocity":50},{"channel":9,"duration":0.09375,"durationBeats":0.25,"durationTicks":240,"endBeat":106.41145833333333,"endTick":102155,"endTime":39.904296875,"note":35,"startBeat":106.16145833333333,"startTick":101915,"startTime":39.810546875,"velocity":50},{"channel":9,"duration":0.09375,"durationBeats":0.25,"durationTicks":240,"endBeat":106.5,"endTick":102240,"endTime":39.9375,"note":42,"startBeat":106.25,"startTick":102000,"startTime":39.84375,"velocity":50},{"channel":2,"duration":0.1875,"durationBeats":0.5,"durationTicks":480,"endBeat":106.63854166666667,"endTick":102373,"endTime":39.989453125,"note":26,"startBeat":106.13854166666667,"startTick":101893,"startTime":39.801953125,"velocity":57},{"channel":9,"duration":0.0078125,"durationBeats":0.020833333333342807,"durationTicks":20,"endBeat":106.68229166666667,"endTick":102415,"endTime":40.005859375,"note":35,"startBeat":106.66145833333333,"startTick":102395,"startTime":39.998046875,"velocity":50},{"channel":5,"duration":0.1875,"durationBeats":0.5,"durationTicks":480,"endBeat":106.74479166666667,"endTick":102475,"endTime":40.029296875,"note":76,"startBeat":106.24479166666667,"startTick":101995,"startTime":39.841796875,"velocity":70},{"channel":5,"duration":0.1875,"durationBeats":0.5,"durationTicks":480,"endBeat":106.74479166666667,"endTick":102475,"endTime":40.029296875,"note":72,"startBeat":106.24479166666667,"startTick":101995,"startTime":39.841796875,"velocity":70},{"channel":5,"duration":0.1875,"durationBeats":0.5,"durationTicks":480,"endBeat":106.74479166666667,"endTick":102475,"endTime":40.029296875,"note":67,"startBeat":106.24479166666667,"startTick":101995,"startTime":39.841796875,"velocity":70},{"channel":5,"duration":0.1875,"durationBeats":0.5,"durationTicks":480,"endBeat":106.74479166666667,"endTick":102475,"endTime":40.029296875,"note":69,"startBeat":106.24479166666667,"startTick":101995,"startTime":39.841796875,"velocity":70},{"channel":9,"duration":0.09375,"durationBeats":0.25,"durationTicks":240,"endBeat":106.75,"endTick":102480,"endTime":40.03125,"note":42,"startBeat":106.5,"startTick":102240,"startTime":39.9375,"velocity":50},{"channel":1,"duration":0.1875,"durationBeats":0.5,"durationTicks":480,"endBeat":106.909375,"endTick":102633,"endTime":40.091015625,"note":26,"startBeat":106.409375,"startTick":102153,"startTime":39.903515625,"velocity":50},{"channel":9,"duration":0.09375,"durationBeats":0.25,"durationTicks":240,"endBeat":107.08333333333333,"endTick":102800,"endTime":40.15625,"note":42,"startBeat":106.83333333333333,"startTick":102560,"startTime":40.0625,"velocity":50},{"channel":2,"duration":0.1875,"durationBeats":0.5,"durationTicks":480,"endBeat":107.13854166666667,"endTick":102853,"endTime":40.176953125,"note":33,"startBeat":106.63854166666667,"startTick":102373,"startTime":39.989453125,"velocity":57},{"channel":8,"duration":1.03125,"durationBeats":2.75,"durationTicks":2640,"endBeat":107.16666666666667,"endTick":102880,"endTime":40.1875,"note":69,"startBeat":104.41666666666667,"startTick":100240,"startTime":39.15625,"velocity":50},{"channel":9,"duration":0.09375,"durationBeats":0.25,"durationTicks":240,"endBeat":107.18229166666667,"endTick":102895,"endTime":40.193359375,"note":35,"startBeat":106.93229166666667,"startTick":102655,"startTime":40.099609375,"velocity":50},{"channel":9,"duration":0.03125,"durationBeats":0.0833333333333286,"durationTicks":80,"endBeat":107.33333333333333,"endTick":103040,"endTime":40.25,"note":42,"startBeat":107.25,"startTick":102960,"startTime":40.21875,"velocity":50},{"channel":1,"duration":0.1875,"durationBeats":0.5,"durationTicks":480,"endBeat":107.409375,"endTick":103113,"endTime":40.278515625,"note":33,"startBeat":106.909375,"startTick":102633,"startTime":40.091015625,"velocity":50},{"channel":5,"duration":0.1875,"durationBeats":0.5,"durationTicks":480,"endBeat":107.74479166666667,"endTick":103435,"endTime":40.404296875,"note":74,"startBeat":107.24479166666667,"startTick":102955,"startTime":40.216796875,"velocity":70},{"channel":5,"duration":0.1875,"durationBeats":0.5,"durationTicks":480,"endBeat":107.74479166666667,"endTick":103435,"endTime":40.404296875,"note":72,"startBeat":107.24479166666667,"startTick":102955,"startTime":40.216796875,"velocity":70},{"channel":5,"duration":0.1875,"durationBeats":0.5,"durationTicks":480,"endBeat":107.74479166666667,"endTick":103435,"endTime":40.404296875,"note":65,"startBeat":107.24479166666667,"startTick":102955,"startTime":40.216796875,"velocity":70},{"channel":5,"duration":0.1875,"durationBeats":0.5,"durationTicks":480,"endBeat":107.74479166666667,"endTick":103435,"endTime":40.404296875,"note":69,"startBeat":107.24479166666667,"startTick":102955,"startTime":40.216796875,"velocity":70},{"channel":0,"duration":0.1875,"durationBeats":0.5,"durationTicks":480,"endBeat":107.85729166666667,"endTick":103543,"endTime":40.446484375,"note":50,"startBeat":107.35729166666667,"startTick":103063,"startTime":40.258984375,"velocity":68},{"channel":9,"duration":0.09375,"durationBeats":0.25,"durationTicks":240,"endBeat":107.91145833333333,"endTick":103595,"endTime":40.466796875,"note":35,"startBeat":107.66145833333333,"startTick":103355,"startTime":40.373046875,"velocity":50},{"channel":9,"duration":0.03125,"durationBeats":0.0833333333333286,"durationTicks":80,"endBeat":108.08333333333333,"endTick":103760,"endTime":40.53125,"note":42,"startBeat":108,"startTick":103680,"startTime":40.5,"velocity":50},{"channel":2,"duration":0.1875,"durationBeats":0.5,"durationTicks":480,"endBeat":108.13854166666667,"endTick":103813,"endTime":40.551953125,"note":26,"startBeat":107.63854166666667,"startTick":103333,"startTime":40.364453125,"velocity":57},{"channel":9,"duration":0.09375,"durationBeats":0.25,"durationTicks":240,"endBeat":108.18229166666667,"endTick":103855,"endTime":40.568359375,"note":35,"startBeat":107.93229166666667,"startTick":103615,"startTime":40.474609375,"velocity":50},{"channel":9,"duration":0.0625,"durationBeats":0.1666666666666714,"durationTicks":160,"endBeat":108.25,"endTick":103920,"endTime":40.59375,"note":42,"startBeat":108.08333333333333,"startTick":103760,"startTime":40.53125,"velocity":50},{"channel":9,"duration":0.0234375,"durationBeats":0.0625,"durationTicks":60,"endBeat":108.3125,"endTick":103980,"endTime":40.6171875,"note":42,"startBeat":108.25,"startTick":103920,"startTime":40.59375,"velocity":50},{"channel":0,"duration":0.1875,"durationBeats":0.5,"durationTicks":480,"endBeat":108.35729166666667,"endTick":104023,"endTime":40.633984375,"note":43,"startBeat":107.85729166666667,"startTick":103543,"startTime":40.446484375,"velocity":68},{"channel":7,"duration":0.09375,"durationBeats":0.25,"durationTicks":240,"endBeat":108.39895833333334,"endTick":104063,"endTime":40.649609375000004,"note":86,"startBeat":108.14895833333334,"startTick":103823,"startTime":40.555859375000004,"velocity":50},{"channel":1,"duration":0.1875,"durationBeats":0.5,"durationTicks":480,"endBeat":108.409375,"endTick":104073,"endTime":40.653515625,"note":26,"startBeat":107.909375,"startTick":103593,"startTime":40.466015625,"velocity":50},{"channel":9,"duration":0.0234375,"durationBeats":0.0625,"durationTicks":60,"endBeat":108.4375,"endTick":104100,"endTime":40.6640625,"note":42,"startBeat":108.375,"startTick":104040,"startTime":40.640625,"velocity":50},{"channel":9,"duration":0.0234375,"durationBeats":0.0625,"durationTicks":60,"endBeat":108.5625,"endTick":104220,"endTime":40.7109375,"note":42,"startBeat":108.5,"startTick":104160,"startTime":40.6875,"velocity":50},{"channel":0,"duration":0.09375,"durationBeats":0.25,"durationTicks":240,"endBeat":108.60729166666667,"endTick":104263,"endTime":40.727734375,"note":65,"startBeat":108.35729166666667,"startTick":104023,"startTime":40.633984375,"velocity":68},{"channel":2,"duration":0.1875,"durationBeats":0.5,"durationTicks":480,"endBeat":108.63854166666667,"endTick":104293,"endTime":40.739453125,"note":33,"startBeat":108.13854166666667,"startTick":103813,"startTime":40.551953125,"velocity":57},{"channel":7,"duration":0.09375,"durationBeats":0.25,"durationTicks":240,"endBeat":108.64895833333334,"endTick":104303,"endTime":40.743359375000004,"note":89,"startBeat":108.39895833333334,"startTick":104063,"startTime":40.649609375000004,"velocity":50},{"channel":9,"duration":0.0234375,"durationBeats":0.0625,"durationTicks":60,"endBeat":108.6875,"endTick":104340,"endTime":40.7578125,"note":42,"startBeat":108.625,"startTick":104280,"startTime":40.734375,"velocity":50},{"channel":5,"duration":0.1875,"durationBeats":0.5,"durationTicks":480,"endBeat":108.74479166666667,"endTick":104395,"endTime":40.779296875,"note":77,"startBeat":108.24479166666667,"startTick":103915,"startTime":40.591796875,"velocity":70},{"channel":5,"duration":0.1875,"durationBeats":0.5,"durationTicks":480,"endBeat":108.74479166666667,"endTick":104395,"endTime":40.779296875,"note":74,"startBeat":108.24479166666667,"startTick":103915,"startTime":40.591796875,"velocity":70},{"channel":5,"duration":0.1875,"durationBeats":0.5,"durationTicks":480,"endBeat":108.74479166666667,"endTick":104395,"endTime":40.779296875,"note":70,"startBeat":108.24479166666667,"startTick":103915,"startTime":40.591796875,"velocity":70},{"channel":5,"duration":0.1875,"durationBeats":0.5,"durationTicks":480,"endBeat":108.74479166666667,"endTick":104395,"endTime":40.779296875,"note":67,"startBeat":108.24479166666667,"startTick":103915,"startTime":40.591796875,"velocity":70},{"channel":10,"duration":0.09375,"durationBeats":0.25,"durationTicks":240,"endBeat":108.753125,"endTick":104403,"endTime":40.782421875,"note":86,"startBeat":108.503125,"startTick":104163,"startTime":40.688671875,"velocity":50},{"channel":9,"duration":0.0234375,"durationBeats":0.0625,"durationTicks":60,"endBeat":108.8125,"endTick":104460,"endTime":40.8046875,"note":42,"startBeat":108.75,"startTick":104400,"startTime":40.78125,"velocity":50},{"channel":0,"duration":0.1875,"durationBeats":0.5,"durationTicks":480,"endBeat":108.85729166666667,"endTick":104503,"endTime":40.821484375,"note":44,"startBeat":108.35729166666667,"startTick":104023,"startTime":40.633984375,"velocity":68},{"channel":0,"duration":0.09375,"durationBeats":0.25,"durationTicks":240,"endBeat":108.85729166666667,"endTick":104503,"endTime":40.821484375,"note":69,"startBeat":108.60729166666667,"startTick":104263,"startTime":40.727734375,"velocity":68},{"channel":7,"duration":0.09375,"durationBeats":0.25,"durationTicks":240,"endBeat":108.89895833333334,"endTick":104543,"endTime":40.837109375000004,"note":91,"startBeat":108.64895833333334,"startTick":104303,"startTime":40.743359375000004,"velocity":50},{"channel":1,"duration":0.1875,"durationBeats":0.5,"durationTicks":480,"endBeat":108.909375,"endTick":104553,"endTime":40.841015625,"note":33,"startBeat":108.409375,"startTick":104073,"startTime":40.653515625,"velocity":50},{"channel":9,"duration":0.09375,"durationBeats":0.25,"durationTicks":240,"endBeat":108.91145833333333,"endTick":104555,"endTime":40.841796875,"note":35,"startBeat":108.66145833333333,"startTick":104315,"startTime":40.748046875,"velocity":50},{"channel":10,"duration":0.09375,"durationBeats":0.25,"durationTicks":240,"endBeat":109.003125,"endTick":104643,"endTime":40.876171875,"note":89,"startBeat":108.753125,"startTick":104403,"startTime":40.782421875,"velocity":50},{"channel":9,"duration":0.09375,"durationBeats":0.25,"durationTicks":240,"endBeat":109.08333333333333,"endTick":104720,"endTime":40.90625,"note":42,"startBeat":108.83333333333333,"startTick":104480,"startTime":40.8125,"velocity":50},{"channel":2,"duration":0.1875,"durationBeats":0.5,"durationTicks":480,"endBeat":109.13854166666667,"endTick":104773,"endTime":40.926953125,"note":32,"startBeat":108.63854166666667,"startTick":104293,"startTime":40.739453125,"velocity":57},{"channel":9,"duration":0.09375,"durationBeats":0.25,"durationTicks":240,"endBeat":109.18229166666667,"endTick":104815,"endTime":40.943359375,"note":35,"startBeat":108.93229166666667,"startTick":104575,"startTime":40.849609375,"velocity":50},{"channel":10,"duration":0.09375,"durationBeats":0.25,"durationTicks":240,"endBeat":109.253125,"endTick":104883,"endTime":40.969921875,"note":91,"startBeat":109.003125,"startTick":104643,"startTime":40.876171875,"velocity":50},{"channel":0,"duration":0.1875,"durationBeats":0.5,"durationTicks":480,"endBeat":109.35729166666667,"endTick":104983,"endTime":41.008984375,"note":60,"startBeat":108.85729166666667,"startTick":104503,"startTime":40.821484375,"velocity":68},{"channel":0,"duration":0.1875,"durationBeats":0.5,"durationTicks":480,"endBeat":109.35729166666667,"endTick":104983,"endTime":41.008984375,"note":64,"startBeat":108.85729166666667,"startTick":104503,"startTime":40.821484375,"velocity":68},{"channel":0,"duration":0.1875,"durationBeats":0.5,"durationTicks":480,"endBeat":109.35729166666667,"endTick":104983,"endTime":41.008984375,"note":67,"startBeat":108.85729166666667,"startTick":104503,"startTime":40.821484375,"velocity":68},{"channel":0,"duration":0.1875,"durationBeats":0.5,"durationTicks":480,"endBeat":109.35729166666667,"endTick":104983,"endTime":41.008984375,"note":72,"startBeat":108.85729166666667,"startTick":104503,"startTime":40.821484375,"velocity":68},{"channel":0,"duration":0.1875,"durationBeats":0.5,"durationTicks":480,"endBeat":109.35729166666667,"endTick":104983,"endTime":41.008984375,"note":45,"startBeat":108.85729166666667,"startTick":104503,"startTime":40.821484375,"velocity":68},{"channel":7,"duration":0.09375,"durationBeats":0.25,"durationTicks":240,"endBeat":109.39895833333334,"endTick":105023,"endTime":41.024609375000004,"note":93,"startBeat":109.14895833333334,"startTick":104783,"startTime":40.930859375000004,"velocity":50},{"channel":1,"duration":0.1875,"durationBeats":0.5,"durationTicks":480,"endBeat":109.409375,"endTick":105033,"endTime":41.028515625,"note":32,"startBeat":108.909375,"startTick":104553,"startTime":40.841015625,"velocity":50},{"channel":9,"duration":0.09375,"durationBeats":0.25,"durationTicks":240,"endBeat":109.5,"endTick":105120,"endTime":41.0625,"note":42,"startBeat":109.25,"startTick":104880,"startTime":40.96875,"velocity":50},{"channel":2,"duration":0.1875,"durationBeats":0.5,"durationTicks":480,"endBeat":109.63854166666667,"endTick":105253,"endTime":41.114453125,"note":31,"startBeat":109.13854166666667,"startTick":104773,"startTime":40.926953125,"velocity":57},{"channel":9,"duration":0.09375,"durationBeats":0.25,"durationTicks":240,"endBeat":109.66145833333333,"endTick":105275,"endTime":41.123046875,"note":35,"startBeat":109.41145833333333,"startTick":105035,"startTime":41.029296875,"velocity":50},{"channel":5,"duration":0.1875,"durationBeats":0.5,"durationTicks":480,"endBeat":109.74479166666667,"endTick":105355,"endTime":41.154296875,"note":76,"startBeat":109.24479166666667,"startTick":104875,"startTime":40.966796875,"velocity":70},{"channel":5,"duration":0.1875,"durationBeats":0.5,"durationTicks":480,"endBeat":109.74479166666667,"endTick":105355,"endTime":41.154296875,"note":74,"startBeat":109.24479166666667,"startTick":104875,"startTime":40.966796875,"velocity":70},{"channel":5,"duration":0.1875,"durationBeats":0.5,"durationTicks":480,"endBeat":109.74479166666667,"endTick":105355,"endTime":41.154296875,"note":70,"startBeat":109.24479166666667,"startTick":104875,"startTime":40.966796875,"velocity":70},{"channel":5,"duration":0.1875,"durationBeats":0.5,"durationTicks":480,"endBeat":109.74479166666667,"endTick":105355,"endTime":41.154296875,"note":67,"startBeat":109.24479166666667,"startTick":104875,"startTime":40.966796875,"velocity":70},{"channel":10,"duration":0.09375,"durationBeats":0.25,"durationTicks":240,"endBeat":109.753125,"endTick":105363,"endTime":41.157421875,"note":93,"startBeat":109.503125,"startTick":105123,"startTime":41.063671875,"velocity":50},{"channel":9,"duration":0.09375,"durationBeats":0.25,"durationTicks":240,"endBeat":109.83333333333333,"endTick":105440,"endTime":41.1875,"note":42,"startBeat":109.58333333333333,"startTick":105200,"startTime":41.09375,"velocity":50},{"channel":0,"duration":0.09375,"durationBeats":0.25,"durationTicks":240,"endBeat":109.85729166666667,"endTick":105463,"endTime":41.196484375,"note":45,"startBeat":109.60729166666667,"startTick":105223,"startTime":41.102734375,"velocity":68},{"channel":9,"duration":0.0234375,"durationBeats":0.0625,"durationTicks":60,"endBeat":109.89583333333333,"endTick":105500,"endTime":41.2109375,"note":42,"startBeat":109.83333333333333,"startTick":105440,"startTime":41.1875,"velocity":50},{"channel":7,"duration":0.09375,"durationBeats":0.25,"durationTicks":240,"endBeat":109.89895833333334,"endTick":105503,"endTime":41.212109375000004,"note":95,"startBeat":109.64895833333334,"startTick":105263,"startTime":41.118359375000004,"velocity":50},{"channel":1,"duration":0.1875,"durationBeats":0.5,"durationTicks":480,"endBeat":109.909375,"endTick":105513,"endTime":41.216015625,"note":31,"startBeat":109.409375,"startTick":105033,"startTime":41.028515625,"velocity":50},{"channel":9,"duration":0.09375,"durationBeats":0.25,"durationTicks":240,"endBeat":109.93229166666667,"endTick":105535,"endTime":41.224609375,"note":35,"startBeat":109.68229166666667,"startTick":105295,"startTime":41.130859375,"velocity":50},{"channel":9,"duration":0.0234375,"durationBeats":0.0625,"durationTicks":60,"endBeat":110.02083333333333,"endTick":105620,"endTime":41.2578125,"note":42,"startBeat":109.95833333333333,"startTick":105560,"startTime":41.234375,"velocity":50},{"channel":0,"duration":0.1875,"durationBeats":0.5,"durationTicks":480,"endBeat":110.10729166666667,"endTick":105703,"endTime":41.290234375,"note":70,"startBeat":109.60729166666667,"startTick":105223,"startTime":41.102734375,"velocity":68},{"channel":0,"duration":0.1875,"durationBeats":0.5,"durationTicks":480,"endBeat":110.10729166666667,"endTick":105703,"endTime":41.290234375,"note":67,"startBeat":109.60729166666667,"startTick":105223,"startTime":41.102734375,"velocity":68},{"channel":0,"duration":0.1875,"durationBeats":0.5,"durationTicks":480,"endBeat":110.10729166666667,"endTick":105703,"endTime":41.290234375,"note":65,"startBeat":109.60729166666667,"startTick":105223,"startTime":41.102734375,"velocity":68},{"channel":0,"duration":0.1875,"durationBeats":0.5,"durationTicks":480,"endBeat":110.10729166666667,"endTick":105703,"endTime":41.290234375,"note":61,"startBeat":109.60729166666667,"startTick":105223,"startTime":41.102734375,"velocity":68},{"channel":9,"duration":0.0234375,"durationBeats":0.0625,"durationTicks":60,"endBeat":110.14583333333333,"endTick":105740,"endTime":41.3046875,"note":42,"startBeat":110.08333333333333,"startTick":105680,"startTime":41.28125,"velocity":50},{"channel":10,"duration":0.09375,"durationBeats":0.25,"durationTicks":240,"endBeat":110.253125,"endTick":105843,"endTime":41.344921875,"note":95,"startBeat":110.003125,"startTick":105603,"startTime":41.251171875,"velocity":50},{"channel":9,"duration":0.0078125,"durationBeats":0.020833333333328596,"durationTicks":20,"endBeat":110.27083333333333,"endTick":105860,"endTime":41.3515625,"note":42,"startBeat":110.25,"startTick":105840,"startTime":41.34375,"velocity":50},{"channel":9,"duration":0.0234375,"durationBeats":0.0625,"durationTicks":60,"endBeat":110.39583333333333,"endTick":105980,"endTime":41.3984375,"note":42,"startBeat":110.33333333333333,"startTick":105920,"startTime":41.375,"velocity":50},{"channel":7,"duration":0.09375,"durationBeats":0.25,"durationTicks":240,"endBeat":110.39895833333334,"endTick":105983,"endTime":41.399609375000004,"note":94,"startBeat":110.14895833333334,"startTick":105743,"startTime":41.305859375000004,"velocity":50},{"channel":9,"duration":0.09375,"durationBeats":0.25,"durationTicks":240,"endBeat":110.41145833333333,"endTick":105995,"endTime":41.404296875,"note":35,"startBeat":110.16145833333333,"startTick":105755,"startTime":41.310546875,"velocity":50},{"channel":2,"duration":0.1875,"durationBeats":0.5,"durationTicks":480,"endBeat":110.63854166666667,"endTick":106213,"endTime":41.489453125,"note":31,"startBeat":110.13854166666667,"startTick":105733,"startTime":41.301953125,"velocity":57},{"channel":9,"duration":0.0078125,"durationBeats":0.020833333333342807,"durationTicks":20,"endBeat":110.68229166666667,"endTick":106255,"endTime":41.505859375,"note":35,"startBeat":110.66145833333333,"startTick":106235,"startTime":41.498046875,"velocity":50},{"channel":5,"duration":0.1875,"durationBeats":0.5,"durationTicks":480,"endBeat":110.74479166666667,"endTick":106315,"endTime":41.529296875,"note":74,"startBeat":110.24479166666667,"startTick":105835,"startTime":41.341796875,"velocity":70},{"channel":5,"duration":0.1875,"durationBeats":0.5,"durationTicks":480,"endBeat":110.74479166666667,"endTick":106315,"endTime":41.529296875,"note":69,"startBeat":110.24479166666667,"startTick":105835,"startTime":41.341796875,"velocity":70},{"channel":5,"duration":0.1875,"durationBeats":0.5,"durationTicks":480,"endBeat":110.74479166666667,"endTick":106315,"endTime":41.529296875,"note":67,"startBeat":110.24479166666667,"startTick":105835,"startTime":41.341796875,"velocity":70},{"channel":5,"duration":0.1875,"durationBeats":0.5,"durationTicks":480,"endBeat":110.74479166666667,"endTick":106315,"endTime":41.529296875,"note":64,"startBeat":110.24479166666667,"startTick":105835,"startTime":41.341796875,"velocity":70},{"channel":9,"duration":0.09375,"durationBeats":0.25,"durationTicks":240,"endBeat":110.75,"endTick":106320,"endTime":41.53125,"note":42,"startBeat":110.5,"startTick":106080,"startTime":41.4375,"velocity":50},{"channel":10,"duration":0.09375,"durationBeats":0.25,"durationTicks":240,"endBeat":110.753125,"endTick":106323,"endTime":41.532421875,"note":94,"startBeat":110.503125,"startTick":106083,"startTime":41.438671875,"velocity":50},{"channel":0,"duration":0.1875,"durationBeats":0.5,"durationTicks":480,"endBeat":110.85729166666667,"endTick":106423,"endTime":41.571484375,"note":69,"startBeat":110.35729166666667,"startTick":105943,"startTime":41.383984375,"velocity":68},{"channel":0,"duration":0.1875,"durationBeats":0.5,"durationTicks":480,"endBeat":110.85729166666667,"endTick":106423,"endTime":41.571484375,"note":65,"startBeat":110.35729166666667,"startTick":105943,"startTime":41.383984375,"velocity":68},{"channel":0,"duration":0.1875,"durationBeats":0.5,"durationTicks":480,"endBeat":110.85729166666667,"endTick":106423,"endTime":41.571484375,"note":64,"startBeat":110.35729166666667,"startTick":105943,"startTime":41.383984375,"velocity":68},{"channel":0,"duration":0.1875,"durationBeats":0.5,"durationTicks":480,"endBeat":110.85729166666667,"endTick":106423,"endTime":41.571484375,"note":60,"startBeat":110.35729166666667,"startTick":105943,"startTime":41.383984375,"velocity":68},{"channel":0,"duration":0.1875,"durationBeats":0.5,"durationTicks":480,"endBeat":110.85729166666667,"endTick":106423,"endTime":41.571484375,"note":38,"startBeat":110.35729166666667,"startTick":105943,"startTime":41.383984375,"velocity":68},{"channel":7,"duration":0.09375,"durationBeats":0.25,"durationTicks":240,"endBeat":110.89895833333334,"endTick":106463,"endTime":41.587109375000004,"note":93,"startBeat":110.64895833333334,"startTick":106223,"startTime":41.493359375000004,"velocity":50},{"channel":1,"duration":0.1875,"durationBeats":0.5,"durationTicks":480,"endBeat":110.909375,"endTick":106473,"endTime":41.591015625,"note":31,"startBeat":110.409375,"startTick":105993,"startTime":41.403515625,"velocity":50},{"channel":9,"duration":0.09375,"durationBeats":0.25,"durationTicks":240,"endBeat":111.08333333333333,"endTick":106640,"endTime":41.65625,"note":42,"startBeat":110.83333333333333,"startTick":106400,"startTime":41.5625,"velocity":50},{"channel":0,"duration":0.09375,"durationBeats":0.25,"durationTicks":240,"endBeat":111.10729166666667,"endTick":106663,"endTime":41.665234375,"note":76,"startBeat":110.85729166666667,"startTick":106423,"startTime":41.571484375,"velocity":68},{"channel":2,"duration":0.1875,"durationBeats":0.5,"durationTicks":480,"endBeat":111.13854166666667,"endTick":106693,"endTime":41.676953125,"note":32,"startBeat":110.63854166666667,"startTick":106213,"startTime":41.489453125,"velocity":57},{"channel":9,"duration":0.09375,"durationBeats":0.25,"durationTicks":240,"endBeat":111.18229166666667,"endTick":106735,"endTime":41.693359375,"note":35,"startBeat":110.93229166666667,"startTick":106495,"startTime":41.599609375,"velocity":50},{"channel":10,"duration":0.09375,"durationBeats":0.25,"durationTicks":240,"endBeat":111.253125,"endTick":106803,"endTime":41.719921875,"note":93,"startBeat":111.003125,"startTick":106563,"startTime":41.626171875,"velocity":50},{"channel":9,"duration":0.03125,"durationBeats":0.0833333333333286,"durationTicks":80,"endBeat":111.33333333333333,"endTick":106880,"endTime":41.75,"note":42,"startBeat":111.25,"startTick":106800,"startTime":41.71875,"velocity":50},{"channel":0,"duration":0.09375,"durationBeats":0.25,"durationTicks":240,"endBeat":111.35729166666667,"endTick":106903,"endTime":41.758984375,"note":77,"startBeat":111.10729166666667,"startTick":106663,"startTime":41.665234375,"velocity":68},{"channel":7,"duration":0.09375,"durationBeats":0.25,"durationTicks":240,"endBeat":111.39895833333334,"endTick":106943,"endTime":41.774609375000004,"note":92,"startBeat":111.14895833333334,"startTick":106703,"startTime":41.680859375000004,"velocity":50},{"channel":1,"duration":0.1875,"durationBeats":0.5,"durationTicks":480,"endBeat":111.409375,"endTick":106953,"endTime":41.778515625,"note":32,"startBeat":110.909375,"startTick":106473,"startTime":41.591015625,"velocity":50},{"channel":0,"duration":0.09375,"durationBeats":0.25,"durationTicks":240,"endBeat":111.60729166666667,"endTick":107143,"endTime":41.852734375,"note":76,"startBeat":111.35729166666667,"startTick":106903,"startTime":41.758984375,"velocity":68},{"channel":2,"duration":0.1875,"durationBeats":0.5,"durationTicks":480,"endBeat":111.63854166666667,"endTick":107173,"endTime":41.864453125,"note":33,"startBeat":111.13854166666667,"startTick":106693,"startTime":41.676953125,"velocity":57},{"channel":5,"duration":0.1875,"durationBeats":0.5,"durationTicks":480,"endBeat":111.74479166666667,"endTick":107275,"endTime":41.904296875,"note":72,"startBeat":111.24479166666667,"startTick":106795,"startTime":41.716796875,"velocity":70},{"channel":10,"duration":0.09375,"durationBeats":0.25,"durationTicks":240,"endBeat":111.753125,"endTick":107283,"endTime":41.907421875,"note":92,"startBeat":111.503125,"startTick":107043,"startTime":41.813671875,"velocity":50},{"channel":0,"duration":0.09375,"durationBeats":0.25,"durationTicks":240,"endBeat":111.85729166666667,"endTick":107383,"endTime":41.946484375,"note":72,"startBeat":111.60729166666667,"startTick":107143,"startTime":41.852734375,"velocity":68},{"channel":1,"duration":0.1875,"durationBeats":0.5,"durationTicks":480,"endBeat":111.909375,"endTick":107433,"endTime":41.966015625,"note":33,"startBeat":111.409375,"startTick":106953,"startTime":41.778515625,"velocity":50},{"channel":9,"duration":0.09375,"durationBeats":0.25,"durationTicks":240,"endBeat":111.91145833333333,"endTick":107435,"endTime":41.966796875,"note":35,"startBeat":111.66145833333333,"startTick":107195,"startTime":41.873046875,"velocity":50},{"channel":9,"duration":0.03125,"durationBeats":0.0833333333333286,"durationTicks":80,"endBeat":112.08333333333333,"endTick":107600,"endTime":42.03125,"note":42,"startBeat":112,"startTick":107520,"startTime":42,"velocity":50},{"channel":0,"duration":0.09375,"durationBeats":0.25,"durationTicks":240,"endBeat":112.10729166666667,"endTick":107623,"endTime":42.040234375,"note":76,"startBeat":111.85729166666667,"startTick":107383,"startTime":41.946484375,"velocity":68},{"channel":2,"duration":0.09375,"durationBeats":0.25,"durationTicks":240,"endBeat":112.13854166666667,"endTick":107653,"endTime":42.051953125,"note":33,"startBeat":111.88854166666667,"startTick":107413,"startTime":41.958203125,"velocity":57},{"channel":9,"duration":0.09375,"durationBeats":0.25,"durationTicks":240,"endBeat":112.18229166666667,"endTick":107695,"endTime":42.068359375,"note":35,"startBeat":111.93229166666667,"startTick":107455,"startTime":41.974609375,"velocity":50},{"channel":5,"duration":0.1875,"durationBeats":0.5,"durationTicks":480,"endBeat":112.24479166666667,"endTick":107755,"endTime":42.091796875,"note":74,"startBeat":111.74479166666667,"startTick":107275,"startTime":41.904296875,"velocity":70},{"channel":5,"duration":0.1875,"durationBeats":0.5,"durationTicks":480,"endBeat":112.24479166666667,"endTick":107755,"endTime":42.091796875,"note":72,"startBeat":111.74479166666667,"startTick":107275,"startTime":41.904296875,"velocity":70},{"channel":5,"duration":0.1875,"durationBeats":0.5,"durationTicks":480,"endBeat":112.24479166666667,"endTick":107755,"endTime":42.091796875,"note":69,"startBeat":111.74479166666667,"startTick":107275,"startTime":41.904296875,"velocity":70},{"channel":5,"duration":0.1875,"durationBeats":0.5,"durationTicks":480,"endBeat":112.24479166666667,"endTick":107755,"endTime":42.091796875,"note":65,"startBeat":111.74479166666667,"startTick":107275,"startTime":41.904296875,"velocity":70},{"channel":9,"duration":0.0625,"durationBeats":0.1666666666666714,"durationTicks":160,"endBeat":112.25,"endTick":107760,"endTime":42.09375,"note":42,"startBeat":112.08333333333333,"startTick":107600,"startTime":42.03125,"velocity":50},{"channel":9,"duration":0.0234375,"durationBeats":0.0625,"durationTicks":60,"endBeat":112.3125,"endTick":107820,"endTime":42.1171875,"note":42,"startBeat":112.25,"startTick":107760,"startTime":42.09375,"velocity":50},{"channel":0,"duration":0.09375,"durationBeats":0.25,"durationTicks":240,"endBeat":112.35729166666667,"endTick":107863,"endTime":42.133984375,"note":72,"startBeat":112.10729166666667,"startTick":107623,"startTime":42.040234375,"velocity":68},{"channel":1,"duration":0.09375,"durationBeats":0.25,"durationTicks":240,"endBeat":112.409375,"endTick":107913,"endTime":42.153515625,"note":33,"startBeat":112.159375,"startTick":107673,"startTime":42.059765625,"velocity":50},{"channel":9,"duration":0.001953125,"durationBeats":0.005208333333328596,"durationTicks":5,"endBeat":112.4375,"endTick":107940,"endTime":42.1640625,"note":42,"startBeat":112.43229166666667,"startTick":107935,"startTime":42.162109375,"velocity":50},{"channel":9,"duration":0.0234375,"durationBeats":0.0625,"durationTicks":60,"endBeat":112.5625,"endTick":108060,"endTime":42.2109375,"note":42,"startBeat":112.5,"startTick":108000,"startTime":42.1875,"velocity":50},{"channel":0,"duration":0.09375,"durationBeats":0.25,"durationTicks":240,"endBeat":112.60729166666667,"endTick":108103,"endTime":42.227734375,"note":69,"startBeat":112.35729166666667,"startTick":107863,"startTime":42.133984375,"velocity":68},{"channel":9,"duration":0.021484375,"durationBeats":0.057291666666671404,"durationTicks":55,"endBeat":112.68229166666667,"endTick":108175,"endTime":42.255859375,"note":42,"startBeat":112.625,"startTick":108120,"startTime":42.234375,"velocity":50},{"channel":0,"duration":0.1875,"durationBeats":0.5,"durationTicks":480,"endBeat":112.85729166666667,"endTick":108343,"endTime":42.321484375,"note":45,"startBeat":112.35729166666667,"startTick":107863,"startTime":42.133984375,"velocity":68},{"channel":0,"duration":0.09375,"durationBeats":0.25,"durationTicks":240,"endBeat":112.85729166666667,"endTick":108343,"endTime":42.321484375,"note":67,"startBeat":112.60729166666667,"startTick":108103,"startTime":42.227734375,"velocity":68},{"channel":9,"duration":0.09375,"durationBeats":0.25,"durationTicks":240,"endBeat":112.91145833333333,"endTick":108395,"endTime":42.341796875,"note":35,"startBeat":112.66145833333333,"startTick":108155,"startTime":42.248046875,"velocity":50},{"channel":9,"duration":0.09375,"durationBeats":0.25,"durationTicks":240,"endBeat":113.08333333333333,"endTick":108560,"endTime":42.40625,"note":42,"startBeat":112.83333333333333,"startTick":108320,"startTime":42.3125,"velocity":50},{"channel":0,"duration":0.09375,"durationBeats":0.25,"durationTicks":240,"endBeat":113.10729166666667,"endTick":108583,"endTime":42.415234375,"note":69,"startBeat":112.85729166666667,"startTick":108343,"startTime":42.321484375,"velocity":68},{"channel":2,"duration":0.1875,"durationBeats":0.5,"durationTicks":480,"endBeat":113.13854166666667,"endTick":108613,"endTime":42.426953125,"note":26,"startBeat":112.63854166666667,"startTick":108133,"startTime":42.239453125,"velocity":57},{"channel":9,"duration":0.09375,"durationBeats":0.25,"durationTicks":240,"endBeat":113.18229166666667,"endTick":108655,"endTime":42.443359375,"note":35,"startBeat":112.93229166666667,"startTick":108415,"startTime":42.349609375,"velocity":50},{"channel":0,"duration":0.1875,"durationBeats":0.5,"durationTicks":480,"endBeat":113.35729166666667,"endTick":108823,"endTime":42.508984375,"note":50,"startBeat":112.85729166666667,"startTick":108343,"startTime":42.321484375,"velocity":68},{"channel":0,"duration":0.09375,"durationBeats":0.25,"durationTicks":240,"endBeat":113.35729166666667,"endTick":108823,"endTime":42.508984375,"note":62,"startBeat":113.10729166666667,"startTick":108583,"startTime":42.415234375,"velocity":68},{"channel":1,"duration":0.1875,"durationBeats":0.5,"durationTicks":480,"endBeat":113.409375,"endTick":108873,"endTime":42.528515625,"note":26,"startBeat":112.909375,"startTick":108393,"startTime":42.341015625,"velocity":50},{"channel":9,"duration":0.09375,"durationBeats":0.25,"durationTicks":240,"endBeat":113.5,"endTick":108960,"endTime":42.5625,"note":42,"startBeat":113.25,"startTick":108720,"startTime":42.46875,"velocity":50},{"channel":0,"duration":0.09375,"durationBeats":0.25,"durationTicks":240,"endBeat":113.60729166666667,"endTick":109063,"endTime":42.602734375,"note":60,"startBeat":113.35729166666667,"startTick":108823,"startTime":42.508984375,"velocity":68},{"channel":9,"duration":0.09375,"durationBeats":0.25,"durationTicks":240,"endBeat":113.66145833333333,"endTick":109115,"endTime":42.623046875,"note":35,"startBeat":113.41145833333333,"startTick":108875,"startTime":42.529296875,"velocity":50},{"channel":9,"duration":0.0625,"durationBeats":0.1666666666666714,"durationTicks":160,"endBeat":113.75,"endTick":109200,"endTime":42.65625,"note":42,"startBeat":113.58333333333333,"startTick":109040,"startTime":42.59375,"velocity":50},{"channel":0,"duration":0.1875,"durationBeats":0.5,"durationTicks":480,"endBeat":113.85729166666667,"endTick":109303,"endTime":42.696484375,"note":38,"startBeat":113.35729166666667,"startTick":108823,"startTime":42.508984375,"velocity":68},{"channel":0,"duration":0.09375,"durationBeats":0.25,"durationTicks":240,"endBeat":113.85729166666667,"endTick":109303,"endTime":42.696484375,"note":65,"startBeat":113.60729166666667,"startTick":109063,"startTime":42.602734375,"velocity":68},{"channel":9,"duration":0.0234375,"durationBeats":0.0625,"durationTicks":60,"endBeat":113.89583333333333,"endTick":109340,"endTime":42.7109375,"note":42,"startBeat":113.83333333333333,"startTick":109280,"startTime":42.6875,"velocity":50},{"channel":9,"duration":0.09375,"durationBeats":0.25,"durationTicks":240,"endBeat":113.93229166666667,"endTick":109375,"endTime":42.724609375,"note":35,"startBeat":113.68229166666667,"startTick":109135,"startTime":42.630859375,"velocity":50},{"channel":9,"duration":0.0234375,"durationBeats":0.0625,"durationTicks":60,"endBeat":114.02083333333333,"endTick":109460,"endTime":42.7578125,"note":42,"startBeat":113.95833333333333,"startTick":109400,"startTime":42.734375,"velocity":50},{"channel":2,"duration":0.1875,"durationBeats":0.5,"durationTicks":480,"endBeat":114.13854166666667,"endTick":109573,"endTime":42.801953125,"note":26,"startBeat":113.63854166666667,"startTick":109093,"startTime":42.614453125,"velocity":57},{"channel":9,"duration":0.0234375,"durationBeats":0.0625,"durationTicks":60,"endBeat":114.14583333333333,"endTick":109580,"endTime":42.8046875,"note":42,"startBeat":114.08333333333333,"startTick":109520,"startTime":42.78125,"velocity":50},{"channel":9,"duration":0.0078125,"durationBeats":0.020833333333328596,"durationTicks":20,"endBeat":114.27083333333333,"endTick":109700,"endTime":42.8515625,"note":42,"startBeat":114.25,"startTick":109680,"startTime":42.84375,"velocity":50},{"channel":0,"duration":0.1875,"durationBeats":0.5,"durationTicks":480,"endBeat":114.35729166666667,"endTick":109783,"endTime":42.883984375,"note":45,"startBeat":113.85729166666667,"startTick":109303,"startTime":42.696484375,"velocity":68},{"channel":0,"duration":0.1875,"durationBeats":0.5,"durationTicks":480,"endBeat":114.35729166666667,"endTick":109783,"endTime":42.883984375,"note":69,"startBeat":113.85729166666667,"startTick":109303,"startTime":42.696484375,"velocity":68},{"channel":0,"duration":0.1875,"durationBeats":0.5,"durationTicks":480,"endBeat":114.35729166666667,"endTick":109783,"endTime":42.883984375,"note":60,"startBeat":113.85729166666667,"startTick":109303,"startTime":42.696484375,"velocity":68},{"channel":0,"duration":0.1875,"durationBeats":0.5,"durationTicks":480,"endBeat":114.35729166666667,"endTick":109783,"endTime":42.883984375,"note":64,"startBeat":113.85729166666667,"startTick":109303,"startTime":42.696484375,"velocity":68},{"channel":9,"duration":0.0234375,"durationBeats":0.0625,"durationTicks":60,"endBeat":114.39583333333333,"endTick":109820,"endTime":42.8984375,"note":42,"startBeat":114.33333333333333,"startTick":109760,"startTime":42.875,"velocity":50},{"channel":1,"duration":0.1875,"durationBeats":0.5,"durationTicks":480,"endBeat":114.409375,"endTick":109833,"endTime":42.903515625,"note":26,"startBeat":113.909375,"startTick":109353,"startTime":42.716015625,"velocity":50},{"channel":9,"duration":0.09375,"durationBeats":0.25,"durationTicks":240,"endBeat":114.41145833333333,"endTick":109835,"endTime":42.904296875,"note":35,"startBeat":114.16145833333333,"startTick":109595,"startTime":42.810546875,"velocity":50},{"channel":2,"duration":0.1875,"durationBeats":0.5,"durationTicks":480,"endBeat":114.63854166666667,"endTick":110053,"endTime":42.989453125,"note":33,"startBeat":114.13854166666667,"startTick":109573,"startTime":42.801953125,"velocity":57},{"channel":9,"duration":0.0078125,"durationBeats":0.020833333333342807,"durationTicks":20,"endBeat":114.68229166666667,"endTick":110095,"endTime":43.005859375,"note":35,"startBeat":114.66145833333333,"startTick":110075,"startTime":42.998046875,"velocity":50},{"channel":9,"duration":0.09375,"durationBeats":0.25,"durationTicks":240,"endBeat":114.75,"endTick":110160,"endTime":43.03125,"note":42,"startBeat":114.5,"startTick":109920,"startTime":42.9375,"velocity":50},{"channel":0,"duration":0.1875,"durationBeats":0.5,"durationTicks":480,"endBeat":114.85729166666667,"endTick":110263,"endTime":43.071484375,"note":44,"startBeat":114.35729166666667,"startTick":109783,"startTime":42.883984375,"velocity":68},{"channel":0,"duration":0.1875,"durationBeats":0.5,"durationTicks":480,"endBeat":114.85729166666667,"endTick":110263,"endTime":43.071484375,"note":68,"startBeat":114.35729166666667,"startTick":109783,"startTime":42.883984375,"velocity":68},{"channel":0,"duration":0.1875,"durationBeats":0.5,"durationTicks":480,"endBeat":114.85729166666667,"endTick":110263,"endTime":43.071484375,"note":63,"startBeat":114.35729166666667,"startTick":109783,"startTime":42.883984375,"velocity":68},{"channel":0,"duration":0.1875,"durationBeats":0.5,"durationTicks":480,"endBeat":114.85729166666667,"endTick":110263,"endTime":43.071484375,"note":59,"startBeat":114.35729166666667,"startTick":109783,"startTime":42.883984375,"velocity":68},{"channel":1,"duration":0.1875,"durationBeats":0.5,"durationTicks":480,"endBeat":114.909375,"endTick":110313,"endTime":43.091015625,"note":33,"startBeat":114.409375,"startTick":109833,"startTime":42.903515625,"velocity":50},{"channel":9,"duration":0.09375,"durationBeats":0.25,"durationTicks":240,"endBeat":115.08333333333333,"endTick":110480,"endTime":43.15625,"note":42,"startBeat":114.83333333333333,"startTick":110240,"startTime":43.0625,"velocity":50},{"channel":2,"duration":0.1875,"durationBeats":0.5,"durationTicks":480,"endBeat":115.13854166666667,"endTick":110533,"endTime":43.176953125,"note":26,"startBeat":114.63854166666667,"startTick":110053,"startTime":42.989453125,"velocity":57},{"channel":9,"duration":0.09375,"durationBeats":0.25,"durationTicks":240,"endBeat":115.18229166666667,"endTick":110575,"endTime":43.193359375,"note":35,"startBeat":114.93229166666667,"startTick":110335,"startTime":43.099609375,"velocity":50},{"channel":9,"duration":0.03125,"durationBeats":0.0833333333333286,"durationTicks":80,"endBeat":115.33333333333333,"endTick":110720,"endTime":43.25,"note":42,"startBeat":115.25,"startTick":110640,"startTime":43.21875,"velocity":50},{"channel":0,"duration":0.1875,"durationBeats":0.5,"durationTicks":480,"endBeat":115.35729166666667,"endTick":110743,"endTime":43.258984375,"note":43,"startBeat":114.85729166666667,"startTick":110263,"startTime":43.071484375,"velocity":68},{"channel":1,"duration":0.1875,"durationBeats":0.5,"durationTicks":480,"endBeat":115.409375,"endTick":110793,"endTime":43.278515625,"note":26,"startBeat":114.909375,"startTick":110313,"startTime":43.091015625,"velocity":50},{"channel":0,"duration":0.375,"durationBeats":1,"durationTicks":960,"endBeat":115.85729166666667,"endTick":111223,"endTime":43.446484375,"note":69,"startBeat":114.85729166666667,"startTick":110263,"startTime":43.071484375,"velocity":68},{"channel":0,"duration":0.375,"durationBeats":1,"durationTicks":960,"endBeat":115.85729166666667,"endTick":111223,"endTime":43.446484375,"note":65,"startBeat":114.85729166666667,"startTick":110263,"startTime":43.071484375,"velocity":68},{"channel":0,"duration":0.375,"durationBeats":1,"durationTicks":960,"endBeat":115.85729166666667,"endTick":111223,"endTime":43.446484375,"note":62,"startBeat":114.85729166666667,"startTick":110263,"startTime":43.071484375,"velocity":68},{"channel":0,"duration":0.375,"durationBeats":1,"durationTicks":960,"endBeat":115.85729166666667,"endTick":111223,"endTime":43.446484375,"note":58,"startBeat":114.85729166666667,"startTick":110263,"startTime":43.071484375,"velocity":68},{"channel":0,"duration":0.1875,"durationBeats":0.5,"durationTicks":480,"endBeat":115.85729166666667,"endTick":111223,"endTime":43.446484375,"note":50,"startBeat":115.35729166666667,"startTick":110743,"startTime":43.258984375,"velocity":68},{"channel":9,"duration":0.09375,"durationBeats":0.25,"durationTicks":240,"endBeat":115.91145833333333,"endTick":111275,"endTime":43.466796875,"note":35,"startBeat":115.66145833333333,"startTick":111035,"startTime":43.373046875,"velocity":50},{"channel":9,"duration":0.03125,"durationBeats":0.0833333333333286,"durationTicks":80,"endBeat":116.08333333333333,"endTick":111440,"endTime":43.53125,"note":42,"startBeat":116,"startTick":111360,"startTime":43.5,"velocity":50},{"channel":2,"duration":0.1875,"durationBeats":0.5,"durationTicks":480,"endBeat":116.13854166666667,"endTick":111493,"endTime":43.551953125,"note":26,"startBeat":115.63854166666667,"startTick":111013,"startTime":43.364453125,"velocity":57},{"channel":9,"duration":0.09375,"durationBeats":0.25,"durationTicks":240,"endBeat":116.18229166666667,"endTick":111535,"endTime":43.568359375,"note":35,"startBeat":115.93229166666667,"startTick":111295,"startTime":43.474609375,"velocity":50},{"channel":9,"duration":0.0625,"durationBeats":0.1666666666666714,"durationTicks":160,"endBeat":116.25,"endTick":111600,"endTime":43.59375,"note":42,"startBeat":116.08333333333333,"startTick":111440,"startTime":43.53125,"velocity":50},{"channel":9,"duration":0.0234375,"durationBeats":0.0625,"durationTicks":60,"endBeat":116.3125,"endTick":111660,"endTime":43.6171875,"note":42,"startBeat":116.25,"startTick":111600,"startTime":43.59375,"velocity":50},{"channel":0,"duration":0.1875,"durationBeats":0.5,"durationTicks":480,"endBeat":116.35729166666667,"endTick":111703,"endTime":43.633984375,"note":43,"startBeat":115.85729166666667,"startTick":111223,"startTime":43.446484375,"velocity":68},{"channel":1,"duration":0.1875,"durationBeats":0.5,"durationTicks":480,"endBeat":116.409375,"endTick":111753,"endTime":43.653515625,"note":26,"startBeat":115.909375,"startTick":111273,"startTime":43.466015625,"velocity":50},{"channel":9,"duration":0.0234375,"durationBeats":0.0625,"durationTicks":60,"endBeat":116.4375,"endTick":111780,"endTime":43.6640625,"note":42,"startBeat":116.375,"startTick":111720,"startTime":43.640625,"velocity":50},{"channel":5,"duration":0.09375,"durationBeats":0.25,"durationTicks":240,"endBeat":116.49479166666667,"endTick":111835,"endTime":43.685546875,"note":79,"startBeat":116.24479166666667,"startTick":111595,"startTime":43.591796875,"velocity":70},{"channel":9,"duration":0.0234375,"durationBeats":0.0625,"durationTicks":60,"endBeat":116.5625,"endTick":111900,"endTime":43.7109375,"note":42,"startBeat":116.5,"startTick":111840,"startTime":43.6875,"velocity":50},{"channel":0,"duration":0.09375,"durationBeats":0.25,"durationTicks":240,"endBeat":116.60729166666667,"endTick":111943,"endTime":43.727734375,"note":65,"startBeat":116.35729166666667,"startTick":111703,"startTime":43.633984375,"velocity":68},{"channel":2,"duration":0.1875,"durationBeats":0.5,"durationTicks":480,"endBeat":116.63854166666667,"endTick":111973,"endTime":43.739453125,"note":33,"startBeat":116.13854166666667,"startTick":111493,"startTime":43.551953125,"velocity":57},{"channel":9,"duration":0.0234375,"durationBeats":0.0625,"durationTicks":60,"endBeat":116.6875,"endTick":112020,"endTime":43.7578125,"note":42,"startBeat":116.625,"startTick":111960,"startTime":43.734375,"velocity":50},{"channel":5,"duration":0.1875,"durationBeats":0.5,"durationTicks":480,"endBeat":116.74479166666667,"endTick":112075,"endTime":43.779296875,"note":81,"startBeat":116.24479166666667,"startTick":111595,"startTime":43.591796875,"velocity":70},{"channel":5,"duration":0.1875,"durationBeats":0.5,"durationTicks":480,"endBeat":116.74479166666667,"endTick":112075,"endTime":43.779296875,"note":77,"startBeat":116.24479166666667,"startTick":111595,"startTime":43.591796875,"velocity":70},{"channel":5,"duration":0.1875,"durationBeats":0.5,"durationTicks":480,"endBeat":116.74479166666667,"endTick":112075,"endTime":43.779296875,"note":74,"startBeat":116.24479166666667,"startTick":111595,"startTime":43.591796875,"velocity":70},{"channel":5,"duration":0.1875,"durationBeats":0.5,"durationTicks":480,"endBeat":116.74479166666667,"endTick":112075,"endTime":43.779296875,"note":70,"startBeat":116.24479166666667,"startTick":111595,"startTime":43.591796875,"velocity":70},{"channel":9,"duration":0.0234375,"durationBeats":0.0625,"durationTicks":60,"endBeat":116.8125,"endTick":112140,"endTime":43.8046875,"note":42,"startBeat":116.75,"startTick":112080,"startTime":43.78125,"velocity":50},{"channel":0,"duration":0.1875,"durationBeats":0.5,"durationTicks":480,"endBeat":116.85729166666667,"endTick":112183,"endTime":43.821484375,"note":44,"startBeat":116.35729166666667,"startTick":111703,"startTime":43.633984375,"velocity":68},{"channel":0,"duration":0.09375,"durationBeats":0.25,"durationTicks":240,"endBeat":116.85729166666667,"endTick":112183,"endTime":43.821484375,"note":69,"startBeat":116.60729166666667,"startTick":111943,"startTime":43.727734375,"velocity":68},{"channel":1,"duration":0.1875,"durationBeats":0.5,"durationTicks":480,"endBeat":116.909375,"endTick":112233,"endTime":43.841015625,"note":33,"startBeat":116.409375,"startTick":111753,"startTime":43.653515625,"velocity":50},{"channel":9,"duration":0.09375,"durationBeats":0.25,"durationTicks":240,"endBeat":116.91145833333333,"endTick":112235,"endTime":43.841796875,"note":35,"startBeat":116.66145833333333,"startTick":111995,"startTime":43.748046875,"velocity":50},{"channel":9,"duration":0.09375,"durationBeats":0.25,"durationTicks":240,"endBeat":117.08333333333333,"endTick":112400,"endTime":43.90625,"note":42,"startBeat":116.83333333333333,"startTick":112160,"startTime":43.8125,"velocity":50},{"channel":2,"duration":0.1875,"durationBeats":0.5,"durationTicks":480,"endBeat":117.13854166666667,"endTick":112453,"endTime":43.926953125,"note":32,"startBeat":116.63854166666667,"startTick":111973,"startTime":43.739453125,"velocity":57},{"channel":9,"duration":0.09375,"durationBeats":0.25,"durationTicks":240,"endBeat":117.18229166666667,"endTick":112495,"endTime":43.943359375,"note":35,"startBeat":116.93229166666667,"startTick":112255,"startTime":43.849609375,"velocity":50},{"channel":0,"duration":0.1875,"durationBeats":0.5,"durationTicks":480,"endBeat":117.35729166666667,"endTick":112663,"endTime":44.008984375,"note":60,"startBeat":116.85729166666667,"startTick":112183,"startTime":43.821484375,"velocity":68},{"channel":0,"duration":0.1875,"durationBeats":0.5,"durationTicks":480,"endBeat":117.35729166666667,"endTick":112663,"endTime":44.008984375,"note":64,"startBeat":116.85729166666667,"startTick":112183,"startTime":43.821484375,"velocity":68},{"channel":0,"duration":0.1875,"durationBeats":0.5,"durationTicks":480,"endBeat":117.35729166666667,"endTick":112663,"endTime":44.008984375,"note":67,"startBeat":116.85729166666667,"startTick":112183,"startTime":43.821484375,"velocity":68},{"channel":0,"duration":0.1875,"durationBeats":0.5,"durationTicks":480,"endBeat":117.35729166666667,"endTick":112663,"endTime":44.008984375,"note":72,"startBeat":116.85729166666667,"startTick":112183,"startTime":43.821484375,"velocity":68},{"channel":0,"duration":0.1875,"durationBeats":0.5,"durationTicks":480,"endBeat":117.35729166666667,"endTick":112663,"endTime":44.008984375,"note":45,"startBeat":116.85729166666667,"startTick":112183,"startTime":43.821484375,"velocity":68},{"channel":1,"duration":0.1875,"durationBeats":0.5,"durationTicks":480,"endBeat":117.409375,"endTick":112713,"endTime":44.028515625,"note":32,"startBeat":116.909375,"startTick":112233,"startTime":43.841015625,"velocity":50},{"channel":9,"duration":0.09375,"durationBeats":0.25,"durationTicks":240,"endBeat":117.5,"endTick":112800,"endTime":44.0625,"note":42,"startBeat":117.25,"startTick":112560,"startTime":43.96875,"velocity":50},{"channel":2,"duration":0.1875,"durationBeats":0.5,"durationTicks":480,"endBeat":117.63854166666667,"endTick":112933,"endTime":44.114453125,"note":31,"startBeat":117.13854166666667,"startTick":112453,"startTime":43.926953125,"velocity":57},{"channel":9,"duration":0.09375,"durationBeats":0.25,"durationTicks":240,"endBeat":117.66145833333333,"endTick":112955,"endTime":44.123046875,"note":35,"startBeat":117.41145833333333,"startTick":112715,"startTime":44.029296875,"velocity":50},{"channel":5,"duration":0.1875,"durationBeats":0.5,"durationTicks":480,"endBeat":117.74479166666667,"endTick":113035,"endTime":44.154296875,"note":81,"startBeat":117.24479166666667,"startTick":112555,"startTime":43.966796875,"velocity":70},{"channel":5,"duration":0.1875,"durationBeats":0.5,"durationTicks":480,"endBeat":117.74479166666667,"endTick":113035,"endTime":44.154296875,"note":77,"startBeat":117.24479166666667,"startTick":112555,"startTime":43.966796875,"velocity":70},{"channel":5,"duration":0.1875,"durationBeats":0.5,"durationTicks":480,"endBeat":117.74479166666667,"endTick":113035,"endTime":44.154296875,"note":74,"startBeat":117.24479166666667,"startTick":112555,"startTime":43.966796875,"velocity":70},{"channel":5,"duration":0.1875,"durationBeats":0.5,"durationTicks":480,"endBeat":117.74479166666667,"endTick":113035,"endTime":44.154296875,"note":70,"startBeat":117.24479166666667,"startTick":112555,"startTime":43.966796875,"velocity":70},{"channel":9,"duration":0.0625,"durationBeats":0.1666666666666714,"durationTicks":160,"endBeat":117.75,"endTick":113040,"endTime":44.15625,"note":42,"startBeat":117.58333333333333,"startTick":112880,"startTime":44.09375,"velocity":50},{"channel":0,"duration":0.09375,"durationBeats":0.25,"durationTicks":240,"endBeat":117.85729166666667,"endTick":113143,"endTime":44.196484375,"note":45,"startBeat":117.60729166666667,"startTick":112903,"startTime":44.102734375,"velocity":68},{"channel":9,"duration":0.0234375,"durationBeats":0.0625,"durationTicks":60,"endBeat":117.89583333333333,"endTick":113180,"endTime":44.2109375,"note":42,"startBeat":117.83333333333333,"startTick":113120,"startTime":44.1875,"velocity":50},{"channel":1,"duration":0.1875,"durationBeats":0.5,"durationTicks":480,"endBeat":117.909375,"endTick":113193,"endTime":44.216015625,"note":31,"startBeat":117.409375,"startTick":112713,"startTime":44.028515625,"velocity":50},{"channel":9,"duration":0.09375,"durationBeats":0.25,"durationTicks":240,"endBeat":117.93229166666667,"endTick":113215,"endTime":44.224609375,"note":35,"startBeat":117.68229166666667,"startTick":112975,"startTime":44.130859375,"velocity":50},{"channel":9,"duration":0.0234375,"durationBeats":0.0625,"durationTicks":60,"endBeat":118.02083333333333,"endTick":113300,"endTime":44.2578125,"note":42,"startBeat":117.95833333333333,"startTick":113240,"startTime":44.234375,"velocity":50},{"channel":0,"duration":0.1875,"durationBeats":0.5,"durationTicks":480,"endBeat":118.10729166666667,"endTick":113383,"endTime":44.290234375,"note":70,"startBeat":117.60729166666667,"startTick":112903,"startTime":44.102734375,"velocity":68},{"channel":0,"duration":0.1875,"durationBeats":0.5,"durationTicks":480,"endBeat":118.10729166666667,"endTick":113383,"endTime":44.290234375,"note":67,"startBeat":117.60729166666667,"startTick":112903,"startTime":44.102734375,"velocity":68},{"channel":0,"duration":0.1875,"durationBeats":0.5,"durationTicks":480,"endBeat":118.10729166666667,"endTick":113383,"endTime":44.290234375,"note":65,"startBeat":117.60729166666667,"startTick":112903,"startTime":44.102734375,"velocity":68},{"channel":0,"duration":0.1875,"durationBeats":0.5,"durationTicks":480,"endBeat":118.10729166666667,"endTick":113383,"endTime":44.290234375,"note":61,"startBeat":117.60729166666667,"startTick":112903,"startTime":44.102734375,"velocity":68},{"channel":9,"duration":0.0234375,"durationBeats":0.0625,"durationTicks":60,"endBeat":118.14583333333333,"endTick":113420,"endTime":44.3046875,"note":42,"startBeat":118.08333333333333,"startTick":113360,"startTime":44.28125,"velocity":50},{"channel":9,"duration":0.0078125,"durationBeats":0.020833333333328596,"durationTicks":20,"endBeat":118.27083333333333,"endTick":113540,"endTime":44.3515625,"note":42,"startBeat":118.25,"startTick":113520,"startTime":44.34375,"velocity":50},{"channel":9,"duration":0.0234375,"durationBeats":0.0625,"durationTicks":60,"endBeat":118.39583333333333,"endTick":113660,"endTime":44.3984375,"note":42,"startBeat":118.33333333333333,"startTick":113600,"startTime":44.375,"velocity":50},{"channel":9,"duration":0.09375,"durationBeats":0.25,"durationTicks":240,"endBeat":118.41145833333333,"endTick":113675,"endTime":44.404296875,"note":35,"startBeat":118.16145833333333,"startTick":113435,"startTime":44.310546875,"velocity":50},{"channel":2,"duration":0.1875,"durationBeats":0.5,"durationTicks":480,"endBeat":118.63854166666667,"endTick":113893,"endTime":44.489453125,"note":31,"startBeat":118.13854166666667,"startTick":113413,"startTime":44.301953125,"velocity":57},{"channel":9,"duration":0.0078125,"durationBeats":0.020833333333342807,"durationTicks":20,"endBeat":118.68229166666667,"endTick":113935,"endTime":44.505859375,"note":35,"startBeat":118.66145833333333,"startTick":113915,"startTime":44.498046875,"velocity":50},{"channel":5,"duration":0.1875,"durationBeats":0.5,"durationTicks":480,"endBeat":118.74479166666667,"endTick":113995,"endTime":44.529296875,"note":77,"startBeat":118.24479166666667,"startTick":113515,"startTime":44.341796875,"velocity":70},{"channel":5,"duration":0.1875,"durationBeats":0.5,"durationTicks":480,"endBeat":118.74479166666667,"endTick":113995,"endTime":44.529296875,"note":73,"startBeat":118.24479166666667,"startTick":113515,"startTime":44.341796875,"velocity":70},{"channel":5,"duration":0.1875,"durationBeats":0.5,"durationTicks":480,"endBeat":118.74479166666667,"endTick":113995,"endTime":44.529296875,"note":67,"startBeat":118.24479166666667,"startTick":113515,"startTime":44.341796875,"velocity":70},{"channel":5,"duration":0.1875,"durationBeats":0.5,"durationTicks":480,"endBeat":118.74479166666667,"endTick":113995,"endTime":44.529296875,"note":70,"startBeat":118.24479166666667,"startTick":113515,"startTime":44.341796875,"velocity":70},{"channel":9,"duration":0.09375,"durationBeats":0.25,"durationTicks":240,"endBeat":118.75,"endTick":114000,"endTime":44.53125,"note":42,"startBeat":118.5,"startTick":113760,"startTime":44.4375,"velocity":50},{"channel":0,"duration":0.1875,"durationBeats":0.5,"durationTicks":480,"endBeat":118.85729166666667,"endTick":114103,"endTime":44.571484375,"note":69,"startBeat":118.35729166666667,"startTick":113623,"startTime":44.383984375,"velocity":68},{"channel":0,"duration":0.1875,"durationBeats":0.5,"durationTicks":480,"endBeat":118.85729166666667,"endTick":114103,"endTime":44.571484375,"note":65,"startBeat":118.35729166666667,"startTick":113623,"startTime":44.383984375,"velocity":68},{"channel":0,"duration":0.1875,"durationBeats":0.5,"durationTicks":480,"endBeat":118.85729166666667,"endTick":114103,"endTime":44.571484375,"note":64,"startBeat":118.35729166666667,"startTick":113623,"startTime":44.383984375,"velocity":68},{"channel":0,"duration":0.1875,"durationBeats":0.5,"durationTicks":480,"endBeat":118.85729166666667,"endTick":114103,"endTime":44.571484375,"note":60,"startBeat":118.35729166666667,"startTick":113623,"startTime":44.383984375,"velocity":68},{"channel":0,"duration":0.1875,"durationBeats":0.5,"durationTicks":480,"endBeat":118.85729166666667,"endTick":114103,"endTime":44.571484375,"note":38,"startBeat":118.35729166666667,"startTick":113623,"startTime":44.383984375,"velocity":68},{"channel":1,"duration":0.1875,"durationBeats":0.5,"durationTicks":480,"endBeat":118.909375,"endTick":114153,"endTime":44.591015625,"note":31,"startBeat":118.409375,"startTick":113673,"startTime":44.403515625,"velocity":50},{"channel":9,"duration":0.09375,"durationBeats":0.25,"durationTicks":240,"endBeat":119.08333333333333,"endTick":114320,"endTime":44.65625,"note":42,"startBeat":118.83333333333333,"startTick":114080,"startTime":44.5625,"velocity":50},{"channel":0,"duration":0.09375,"durationBeats":0.25,"durationTicks":240,"endBeat":119.10729166666667,"endTick":114343,"endTime":44.665234375,"note":76,"startBeat":118.85729166666667,"startTick":114103,"startTime":44.571484375,"velocity":68},{"channel":2,"duration":0.1875,"durationBeats":0.5,"durationTicks":480,"endBeat":119.13854166666667,"endTick":114373,"endTime":44.676953125,"note":32,"startBeat":118.63854166666667,"startTick":113893,"startTime":44.489453125,"velocity":57},{"channel":9,"duration":0.09375,"durationBeats":0.25,"durationTicks":240,"endBeat":119.18229166666667,"endTick":114415,"endTime":44.693359375,"note":35,"startBeat":118.93229166666667,"startTick":114175,"startTime":44.599609375,"velocity":50},{"channel":0,"duration":0.09375,"durationBeats":0.25,"durationTicks":240,"endBeat":119.35729166666667,"endTick":114583,"endTime":44.758984375,"note":77,"startBeat":119.10729166666667,"startTick":114343,"startTime":44.665234375,"velocity":68},{"channel":1,"duration":0.1875,"durationBeats":0.5,"durationTicks":480,"endBeat":119.409375,"endTick":114633,"endTime":44.778515625,"note":32,"startBeat":118.909375,"startTick":114153,"startTime":44.591015625,"velocity":50},{"channel":9,"duration":0.09375,"durationBeats":0.25,"durationTicks":240,"endBeat":119.5,"endTick":114720,"endTime":44.8125,"note":42,"startBeat":119.25,"startTick":114480,"startTime":44.71875,"velocity":50},{"channel":0,"duration":0.09375,"durationBeats":0.25,"durationTicks":240,"endBeat":119.60729166666667,"endTick":114823,"endTime":44.852734375,"note":79,"startBeat":119.35729166666667,"startTick":114583,"startTime":44.758984375,"velocity":68},{"channel":2,"duration":0.1875,"durationBeats":0.5,"durationTicks":480,"endBeat":119.63854166666667,"endTick":114853,"endTime":44.864453125,"note":33,"startBeat":119.13854166666667,"startTick":114373,"startTime":44.676953125,"velocity":57},{"channel":5,"duration":0.1875,"durationBeats":0.5,"durationTicks":480,"endBeat":119.74479166666667,"endTick":114955,"endTime":44.904296875,"note":76,"startBeat":119.24479166666667,"startTick":114475,"startTime":44.716796875,"velocity":70},{"channel":5,"duration":0.1875,"durationBeats":0.5,"durationTicks":480,"endBeat":119.74479166666667,"endTick":114955,"endTime":44.904296875,"note":73,"startBeat":119.24479166666667,"startTick":114475,"startTime":44.716796875,"velocity":70},{"channel":5,"duration":0.1875,"durationBeats":0.5,"durationTicks":480,"endBeat":119.74479166666667,"endTick":114955,"endTime":44.904296875,"note":67,"startBeat":119.24479166666667,"startTick":114475,"startTime":44.716796875,"velocity":70},{"channel":5,"duration":0.1875,"durationBeats":0.5,"durationTicks":480,"endBeat":119.74479166666667,"endTick":114955,"endTime":44.904296875,"note":70,"startBeat":119.24479166666667,"startTick":114475,"startTime":44.716796875,"velocity":70},{"channel":0,"duration":0.09375,"durationBeats":0.25,"durationTicks":240,"endBeat":119.85729166666667,"endTick":115063,"endTime":44.946484375,"note":77,"startBeat":119.60729166666667,"startTick":114823,"startTime":44.852734375,"velocity":68},{"channel":1,"duration":0.1875,"durationBeats":0.5,"durationTicks":480,"endBeat":119.909375,"endTick":115113,"endTime":44.966015625,"note":33,"startBeat":119.409375,"startTick":114633,"startTime":44.778515625,"velocity":50},{"channel":9,"duration":0.09375,"durationBeats":0.25,"durationTicks":240,"endBeat":119.91145833333333,"endTick":115115,"endTime":44.966796875,"note":35,"startBeat":119.66145833333333,"startTick":114875,"startTime":44.873046875,"velocity":50},{"channel":9,"duration":0.03125,"durationBeats":0.0833333333333286,"durationTicks":80,"endBeat":120.08333333333333,"endTick":115280,"endTime":45.03125,"note":42,"startBeat":120,"startTick":115200,"startTime":45,"velocity":50},{"channel":0,"duration":0.09375,"durationBeats":0.25,"durationTicks":240,"endBeat":120.10729166666667,"endTick":115303,"endTime":45.040234375,"note":76,"startBeat":119.85729166666667,"startTick":115063,"startTime":44.946484375,"velocity":68},{"channel":2,"duration":0.09375,"durationBeats":0.25,"durationTicks":240,"endBeat":120.13854166666667,"endTick":115333,"endTime":45.051953125,"note":33,"startBeat":119.88854166666667,"startTick":115093,"startTime":44.958203125,"velocity":57},{"channel":9,"duration":0.09375,"durationBeats":0.25,"durationTicks":240,"endBeat":120.18229166666667,"endTick":115375,"endTime":45.068359375,"note":35,"startBeat":119.93229166666667,"startTick":115135,"startTime":44.974609375,"velocity":50},{"channel":9,"duration":0.0625,"durationBeats":0.1666666666666714,"durationTicks":160,"endBeat":120.25,"endTick":115440,"endTime":45.09375,"note":42,"startBeat":120.08333333333333,"startTick":115280,"startTime":45.03125,"velocity":50},{"channel":9,"duration":0.0234375,"durationBeats":0.0625,"durationTicks":60,"endBeat":120.3125,"endTick":115500,"endTime":45.1171875,"note":42,"startBeat":120.25,"startTick":115440,"startTime":45.09375,"velocity":50},{"channel":0,"duration":0.09375,"durationBeats":0.25,"durationTicks":240,"endBeat":120.35729166666667,"endTick":115543,"endTime":45.133984375,"note":72,"startBeat":120.10729166666667,"startTick":115303,"startTime":45.040234375,"velocity":68},{"channel":1,"duration":0.09375,"durationBeats":0.25,"durationTicks":240,"endBeat":120.409375,"endTick":115593,"endTime":45.153515625,"note":33,"startBeat":120.159375,"startTick":115353,"startTime":45.059765625,"velocity":50},{"channel":9,"duration":0.0234375,"durationBeats":0.0625,"durationTicks":60,"endBeat":120.4375,"endTick":115620,"endTime":45.1640625,"note":42,"startBeat":120.375,"startTick":115560,"startTime":45.140625,"velocity":50},{"channel":9,"duration":0.0234375,"durationBeats":0.0625,"durationTicks":60,"endBeat":120.5625,"endTick":115740,"endTime":45.2109375,"note":42,"startBeat":120.5,"startTick":115680,"startTime":45.1875,"velocity":50},{"channel":0,"duration":0.09375,"durationBeats":0.25,"durationTicks":240,"endBeat":120.60729166666667,"endTick":115783,"endTime":45.227734375,"note":69,"startBeat":120.35729166666667,"startTick":115543,"startTime":45.133984375,"velocity":68},{"channel":9,"duration":0.0234375,"durationBeats":0.0625,"durationTicks":60,"endBeat":120.6875,"endTick":115860,"endTime":45.2578125,"note":42,"startBeat":120.625,"startTick":115800,"startTime":45.234375,"velocity":50},{"channel":5,"duration":0.1875,"durationBeats":0.5,"durationTicks":480,"endBeat":120.74479166666667,"endTick":115915,"endTime":45.279296875,"note":79,"startBeat":120.24479166666667,"startTick":115435,"startTime":45.091796875,"velocity":70},{"channel":5,"duration":0.1875,"durationBeats":0.5,"durationTicks":480,"endBeat":120.74479166666667,"endTick":115915,"endTime":45.279296875,"note":76,"startBeat":120.24479166666667,"startTick":115435,"startTime":45.091796875,"velocity":70},{"channel":5,"duration":0.1875,"durationBeats":0.5,"durationTicks":480,"endBeat":120.74479166666667,"endTick":115915,"endTime":45.279296875,"note":69,"startBeat":120.24479166666667,"startTick":115435,"startTime":45.091796875,"velocity":70},{"channel":5,"duration":0.1875,"durationBeats":0.5,"durationTicks":480,"endBeat":120.74479166666667,"endTick":115915,"endTime":45.279296875,"note":72,"startBeat":120.24479166666667,"startTick":115435,"startTime":45.091796875,"velocity":70},{"channel":9,"duration":0.0234375,"durationBeats":0.0625,"durationTicks":60,"endBeat":120.8125,"endTick":115980,"endTime":45.3046875,"note":42,"startBeat":120.75,"startTick":115920,"startTime":45.28125,"velocity":50},{"channel":0,"duration":0.1875,"durationBeats":0.5,"durationTicks":480,"endBeat":120.85729166666667,"endTick":116023,"endTime":45.321484375,"note":45,"startBeat":120.35729166666667,"startTick":115543,"startTime":45.133984375,"velocity":68},{"channel":0,"duration":0.09375,"durationBeats":0.25,"durationTicks":240,"endBeat":120.85729166666667,"endTick":116023,"endTime":45.321484375,"note":67,"startBeat":120.60729166666667,"startTick":115783,"startTime":45.227734375,"velocity":68},{"channel":9,"duration":0.09375,"durationBeats":0.25,"durationTicks":240,"endBeat":120.91145833333333,"endTick":116075,"endTime":45.341796875,"note":35,"startBeat":120.66145833333333,"startTick":115835,"startTime":45.248046875,"velocity":50},{"channel":9,"duration":0.09375,"durationBeats":0.25,"durationTicks":240,"endBeat":121.08333333333333,"endTick":116240,"endTime":45.40625,"note":42,"startBeat":120.83333333333333,"startTick":116000,"startTime":45.3125,"velocity":50},{"channel":0,"duration":0.09375,"durationBeats":0.25,"durationTicks":240,"endBeat":121.10729166666667,"endTick":116263,"endTime":45.415234375,"note":69,"startBeat":120.85729166666667,"startTick":116023,"startTime":45.321484375,"velocity":68},{"channel":2,"duration":0.1875,"durationBeats":0.5,"durationTicks":480,"endBeat":121.13854166666667,"endTick":116293,"endTime":45.426953125,"note":26,"startBeat":120.63854166666667,"startTick":115813,"startTime":45.239453125,"velocity":57},{"channel":9,"duration":0.09375,"durationBeats":0.25,"durationTicks":240,"endBeat":121.18229166666667,"endTick":116335,"endTime":45.443359375,"note":35,"startBeat":120.93229166666667,"startTick":116095,"startTime":45.349609375,"velocity":50},{"channel":0,"duration":0.1875,"durationBeats":0.5,"durationTicks":480,"endBeat":121.35729166666667,"endTick":116503,"endTime":45.508984375,"note":50,"startBeat":120.85729166666667,"startTick":116023,"startTime":45.321484375,"velocity":68},{"channel":0,"duration":0.09375,"durationBeats":0.25,"durationTicks":240,"endBeat":121.35729166666667,"endTick":116503,"endTime":45.508984375,"note":62,"startBeat":121.10729166666667,"startTick":116263,"startTime":45.415234375,"velocity":68},{"channel":1,"duration":0.1875,"durationBeats":0.5,"durationTicks":480,"endBeat":121.409375,"endTick":116553,"endTime":45.528515625,"note":26,"startBeat":120.909375,"startTick":116073,"startTime":45.341015625,"velocity":50},{"channel":9,"duration":0.09375,"durationBeats":0.25,"durationTicks":240,"endBeat":121.5,"endTick":116640,"endTime":45.5625,"note":42,"startBeat":121.25,"startTick":116400,"startTime":45.46875,"velocity":50},{"channel":0,"duration":0.09375,"durationBeats":0.25,"durationTicks":240,"endBeat":121.60729166666667,"endTick":116743,"endTime":45.602734375,"note":60,"startBeat":121.35729166666667,"startTick":116503,"startTime":45.508984375,"velocity":68},{"channel":9,"duration":0.09375,"durationBeats":0.25,"durationTicks":240,"endBeat":121.66145833333333,"endTick":116795,"endTime":45.623046875,"note":35,"startBeat":121.41145833333333,"startTick":116555,"startTime":45.529296875,"velocity":50},{"channel":5,"duration":0.1875,"durationBeats":0.5,"durationTicks":480,"endBeat":121.74479166666667,"endTick":116875,"endTime":45.654296875,"note":77,"startBeat":121.24479166666667,"startTick":116395,"startTime":45.466796875,"velocity":70},{"channel":5,"duration":0.1875,"durationBeats":0.5,"durationTicks":480,"endBeat":121.74479166666667,"endTick":116875,"endTime":45.654296875,"note":74,"startBeat":121.24479166666667,"startTick":116395,"startTime":45.466796875,"velocity":70},{"channel":5,"duration":0.1875,"durationBeats":0.5,"durationTicks":480,"endBeat":121.74479166666667,"endTick":116875,"endTime":45.654296875,"note":69,"startBeat":121.24479166666667,"startTick":116395,"startTime":45.466796875,"velocity":70},{"channel":5,"duration":0.1875,"durationBeats":0.5,"durationTicks":480,"endBeat":121.74479166666667,"endTick":116875,"endTime":45.654296875,"note":72,"startBeat":121.24479166666667,"startTick":116395,"startTime":45.466796875,"velocity":70},{"channel":9,"duration":0.0625,"durationBeats":0.1666666666666714,"durationTicks":160,"endBeat":121.75,"endTick":116880,"endTime":45.65625,"note":42,"startBeat":121.58333333333333,"startTick":116720,"startTime":45.59375,"velocity":50},{"channel":0,"duration":0.1875,"durationBeats":0.5,"durationTicks":480,"endBeat":121.85729166666667,"endTick":116983,"endTime":45.696484375,"note":38,"startBeat":121.35729166666667,"startTick":116503,"startTime":45.508984375,"velocity":68},{"channel":0,"duration":0.09375,"durationBeats":0.25,"durationTicks":240,"endBeat":121.85729166666667,"endTick":116983,"endTime":45.696484375,"note":65,"startBeat":121.60729166666667,"startTick":116743,"startTime":45.602734375,"velocity":68},{"channel":9,"duration":0.0234375,"durationBeats":0.0625,"durationTicks":60,"endBeat":121.89583333333333,"endTick":117020,"endTime":45.7109375,"note":42,"startBeat":121.83333333333333,"startTick":116960,"startTime":45.6875,"velocity":50},{"channel":9,"duration":0.09375,"durationBeats":0.25,"durationTicks":240,"endBeat":121.93229166666667,"endTick":117055,"endTime":45.724609375,"note":35,"startBeat":121.68229166666667,"startTick":116815,"startTime":45.630859375,"velocity":50},{"channel":9,"duration":0.0234375,"durationBeats":0.0625,"durationTicks":60,"endBeat":122.02083333333333,"endTick":117140,"endTime":45.7578125,"note":42,"startBeat":121.95833333333333,"startTick":117080,"startTime":45.734375,"velocity":50},{"channel":2,"duration":0.1875,"durationBeats":0.5,"durationTicks":480,"endBeat":122.13854166666667,"endTick":117253,"endTime":45.801953125,"note":38,"startBeat":121.63854166666667,"startTick":116773,"startTime":45.614453125,"velocity":57},{"channel":9,"duration":0.0234375,"durationBeats":0.0625,"durationTicks":60,"endBeat":122.14583333333333,"endTick":117260,"endTime":45.8046875,"note":42,"startBeat":122.08333333333333,"startTick":117200,"startTime":45.78125,"velocity":50},{"channel":9,"duration":0.0078125,"durationBeats":0.020833333333328596,"durationTicks":20,"endBeat":122.27083333333333,"endTick":117380,"endTime":45.8515625,"note":42,"startBeat":122.25,"startTick":117360,"startTime":45.84375,"velocity":50},{"channel":0,"duration":0.1875,"durationBeats":0.5,"durationTicks":480,"endBeat":122.35729166666667,"endTick":117463,"endTime":45.883984375,"note":45,"startBeat":121.85729166666667,"startTick":116983,"startTime":45.696484375,"velocity":68},{"channel":0,"duration":0.1875,"durationBeats":0.5,"durationTicks":480,"endBeat":122.35729166666667,"endTick":117463,"endTime":45.883984375,"note":69,"startBeat":121.85729166666667,"startTick":116983,"startTime":45.696484375,"velocity":68},{"channel":0,"duration":0.1875,"durationBeats":0.5,"durationTicks":480,"endBeat":122.35729166666667,"endTick":117463,"endTime":45.883984375,"note":60,"startBeat":121.85729166666667,"startTick":116983,"startTime":45.696484375,"velocity":68},{"channel":0,"duration":0.1875,"durationBeats":0.5,"durationTicks":480,"endBeat":122.35729166666667,"endTick":117463,"endTime":45.883984375,"note":64,"startBeat":121.85729166666667,"startTick":116983,"startTime":45.696484375,"velocity":68},{"channel":1,"duration":0.1875,"durationBeats":0.5,"durationTicks":480,"endBeat":122.409375,"endTick":117513,"endTime":45.903515625,"note":38,"startBeat":121.909375,"startTick":117033,"startTime":45.716015625,"velocity":50},{"channel":9,"duration":0.09375,"durationBeats":0.25,"durationTicks":240,"endBeat":122.41145833333333,"endTick":117515,"endTime":45.904296875,"note":35,"startBeat":122.16145833333333,"startTick":117275,"startTime":45.810546875,"velocity":50},{"channel":2,"duration":0.1875,"durationBeats":0.5,"durationTicks":480,"endBeat":122.63854166666667,"endTick":117733,"endTime":45.989453125,"note":26,"startBeat":122.13854166666667,"startTick":117253,"startTime":45.801953125,"velocity":57},{"channel":9,"duration":0.0078125,"durationBeats":0.020833333333342807,"durationTicks":20,"endBeat":122.68229166666667,"endTick":117775,"endTime":46.005859375,"note":35,"startBeat":122.66145833333333,"startTick":117755,"startTime":45.998046875,"velocity":50},{"channel":5,"duration":0.1875,"durationBeats":0.5,"durationTicks":480,"endBeat":122.74479166666667,"endTick":117835,"endTime":46.029296875,"note":76,"startBeat":122.24479166666667,"startTick":117355,"startTime":45.841796875,"velocity":70},{"channel":5,"duration":0.1875,"durationBeats":0.5,"durationTicks":480,"endBeat":122.74479166666667,"endTick":117835,"endTime":46.029296875,"note":72,"startBeat":122.24479166666667,"startTick":117355,"startTime":45.841796875,"velocity":70},{"channel":5,"duration":0.1875,"durationBeats":0.5,"durationTicks":480,"endBeat":122.74479166666667,"endTick":117835,"endTime":46.029296875,"note":67,"startBeat":122.24479166666667,"startTick":117355,"startTime":45.841796875,"velocity":70},{"channel":5,"duration":0.1875,"durationBeats":0.5,"durationTicks":480,"endBeat":122.74479166666667,"endTick":117835,"endTime":46.029296875,"note":69,"startBeat":122.24479166666667,"startTick":117355,"startTime":45.841796875,"velocity":70},{"channel":9,"duration":0.09375,"durationBeats":0.25,"durationTicks":240,"endBeat":122.75,"endTick":117840,"endTime":46.03125,"note":42,"startBeat":122.5,"startTick":117600,"startTime":45.9375,"velocity":50},{"channel":0,"duration":0.1875,"durationBeats":0.5,"durationTicks":480,"endBeat":122.85729166666667,"endTick":117943,"endTime":46.071484375,"note":44,"startBeat":122.35729166666667,"startTick":117463,"startTime":45.883984375,"velocity":68},{"channel":0,"duration":0.1875,"durationBeats":0.5,"durationTicks":480,"endBeat":122.85729166666667,"endTick":117943,"endTime":46.071484375,"note":68,"startBeat":122.35729166666667,"startTick":117463,"startTime":45.883984375,"velocity":68},{"channel":0,"duration":0.1875,"durationBeats":0.5,"durationTicks":480,"endBeat":122.85729166666667,"endTick":117943,"endTime":46.071484375,"note":63,"startBeat":122.35729166666667,"startTick":117463,"startTime":45.883984375,"velocity":68},{"channel":0,"duration":0.1875,"durationBeats":0.5,"durationTicks":480,"endBeat":122.85729166666667,"endTick":117943,"endTime":46.071484375,"note":59,"startBeat":122.35729166666667,"startTick":117463,"startTime":45.883984375,"velocity":68},{"channel":1,"duration":0.1875,"durationBeats":0.5,"durationTicks":480,"endBeat":122.909375,"endTick":117993,"endTime":46.091015625,"note":26,"startBeat":122.409375,"startTick":117513,"startTime":45.903515625,"velocity":50},{"channel":9,"duration":0.09375,"durationBeats":0.25,"durationTicks":240,"endBeat":123.08333333333333,"endTick":118160,"endTime":46.15625,"note":42,"startBeat":122.83333333333333,"startTick":117920,"startTime":46.0625,"velocity":50},{"channel":2,"duration":0.1875,"durationBeats":0.5,"durationTicks":480,"endBeat":123.13854166666667,"endTick":118213,"endTime":46.176953125,"note":33,"startBeat":122.63854166666667,"startTick":117733,"startTime":45.989453125,"velocity":57},{"channel":9,"duration":0.09375,"durationBeats":0.25,"durationTicks":240,"endBeat":123.18229166666667,"endTick":118255,"endTime":46.193359375,"note":35,"startBeat":122.93229166666667,"startTick":118015,"startTime":46.099609375,"velocity":50},{"channel":9,"duration":0.03125,"durationBeats":0.0833333333333286,"durationTicks":80,"endBeat":123.33333333333333,"endTick":118400,"endTime":46.25,"note":42,"startBeat":123.25,"startTick":118320,"startTime":46.21875,"velocity":50},{"channel":0,"duration":0.1875,"durationBeats":0.5,"durationTicks":480,"endBeat":123.35729166666667,"endTick":118423,"endTime":46.258984375,"note":43,"startBeat":122.85729166666667,"startTick":117943,"startTime":46.071484375,"velocity":68},{"channel":1,"duration":0.1875,"durationBeats":0.5,"durationTicks":480,"endBeat":123.409375,"endTick":118473,"endTime":46.278515625,"note":33,"startBeat":122.909375,"startTick":117993,"startTime":46.091015625,"velocity":50},{"channel":5,"duration":0.1875,"durationBeats":0.5,"durationTicks":480,"endBeat":123.74479166666667,"endTick":118795,"endTime":46.404296875,"note":74,"startBeat":123.24479166666667,"startTick":118315,"startTime":46.216796875,"velocity":70},{"channel":5,"duration":0.1875,"durationBeats":0.5,"durationTicks":480,"endBeat":123.74479166666667,"endTick":118795,"endTime":46.404296875,"note":72,"startBeat":123.24479166666667,"startTick":118315,"startTime":46.216796875,"velocity":70},{"channel":5,"duration":0.1875,"durationBeats":0.5,"durationTicks":480,"endBeat":123.74479166666667,"endTick":118795,"endTime":46.404296875,"note":65,"startBeat":123.24479166666667,"startTick":118315,"startTime":46.216796875,"velocity":70},{"channel":5,"duration":0.1875,"durationBeats":0.5,"durationTicks":480,"endBeat":123.74479166666667,"endTick":118795,"endTime":46.404296875,"note":69,"startBeat":123.24479166666667,"startTick":118315,"startTime":46.216796875,"velocity":70},{"channel":0,"duration":0.375,"durationBeats":1,"durationTicks":960,"endBeat":123.85729166666667,"endTick":118903,"endTime":46.446484375,"note":69,"startBeat":122.85729166666667,"startTick":117943,"startTime":46.071484375,"velocity":68},{"channel":0,"duration":0.375,"durationBeats":1,"durationTicks":960,"endBeat":123.85729166666667,"endTick":118903,"endTime":46.446484375,"note":65,"startBeat":122.85729166666667,"startTick":117943,"startTime":46.071484375,"velocity":68},{"channel":0,"duration":0.375,"durationBeats":1,"durationTicks":960,"endBeat":123.85729166666667,"endTick":118903,"endTime":46.446484375,"note":62,"startBeat":122.85729166666667,"startTick":117943,"startTime":46.071484375,"velocity":68},{"channel":0,"duration":0.375,"durationBeats":1,"durationTicks":960,"endBeat":123.85729166666667,"endTick":118903,"endTime":46.446484375,"note":58,"startBeat":122.85729166666667,"startTick":117943,"startTime":46.071484375,"velocity":68},{"channel":0,"duration":0.1875,"durationBeats":0.5,"durationTicks":480,"endBeat":123.85729166666667,"endTick":118903,"endTime":46.446484375,"note":50,"startBeat":123.35729166666667,"startTick":118423,"startTime":46.258984375,"velocity":68},{"channel":9,"duration":0.09375,"durationBeats":0.25,"durationTicks":240,"endBeat":123.91145833333333,"endTick":118955,"endTime":46.466796875,"note":35,"startBeat":123.66145833333333,"startTick":118715,"startTime":46.373046875,"velocity":50},{"channel":9,"duration":0.03125,"durationBeats":0.0833333333333286,"durationTicks":80,"endBeat":124.08333333333333,"endTick":119120,"endTime":46.53125,"note":42,"startBeat":124,"startTick":119040,"startTime":46.5,"velocity":50},{"channel":2,"duration":0.1875,"durationBeats":0.5,"durationTicks":480,"endBeat":124.13854166666667,"endTick":119173,"endTime":46.551953125,"note":26,"startBeat":123.63854166666667,"startTick":118693,"startTime":46.364453125,"velocity":57},{"channel":9,"duration":0.09375,"durationBeats":0.25,"durationTicks":240,"endBeat":124.18229166666667,"endTick":119215,"endTime":46.568359375,"note":35,"startBeat":123.93229166666667,"startTick":118975,"startTime":46.474609375,"velocity":50},{"channel":9,"duration":0.0625,"durationBeats":0.1666666666666714,"durationTicks":160,"endBeat":124.25,"endTick":119280,"endTime":46.59375,"note":42,"startBeat":124.08333333333333,"startTick":119120,"startTime":46.53125,"velocity":50},{"channel":9,"duration":0.0234375,"durationBeats":0.0625,"durationTicks":60,"endBeat":124.3125,"endTick":119340,"endTime":46.6171875,"note":42,"startBeat":124.25,"startTick":119280,"startTime":46.59375,"velocity":50},{"channel":0,"duration":0.1875,"durationBeats":0.5,"durationTicks":480,"endBeat":124.35729166666667,"endTick":119383,"endTime":46.633984375,"note":43,"startBeat":123.85729166666667,"startTick":118903,"startTime":46.446484375,"velocity":68},{"channel":1,"duration":0.1875,"durationBeats":0.5,"durationTicks":480,"endBeat":124.409375,"endTick":119433,"endTime":46.653515625,"note":26,"startBeat":123.909375,"startTick":118953,"startTime":46.466015625,"velocity":50},{"channel":9,"duration":0.0234375,"durationBeats":0.0625,"durationTicks":60,"endBeat":124.4375,"endTick":119460,"endTime":46.6640625,"note":42,"startBeat":124.375,"startTick":119400,"startTime":46.640625,"velocity":50},{"channel":9,"duration":0.0234375,"durationBeats":0.0625,"durationTicks":60,"endBeat":124.5625,"endTick":119580,"endTime":46.7109375,"note":42,"startBeat":124.5,"startTick":119520,"startTime":46.6875,"velocity":50},{"channel":0,"duration":0.09375,"durationBeats":0.25,"durationTicks":240,"endBeat":124.60729166666667,"endTick":119623,"endTime":46.727734375,"note":65,"startBeat":124.35729166666667,"startTick":119383,"startTime":46.633984375,"velocity":68},{"channel":2,"duration":0.1875,"durationBeats":0.5,"durationTicks":480,"endBeat":124.63854166666667,"endTick":119653,"endTime":46.739453125,"note":33,"startBeat":124.13854166666667,"startTick":119173,"startTime":46.551953125,"velocity":57},{"channel":9,"duration":0.0234375,"durationBeats":0.0625,"durationTicks":60,"endBeat":124.6875,"endTick":119700,"endTime":46.7578125,"note":42,"startBeat":124.625,"startTick":119640,"startTime":46.734375,"velocity":50},{"channel":5,"duration":0.1875,"durationBeats":0.5,"durationTicks":480,"endBeat":124.74479166666667,"endTick":119755,"endTime":46.779296875,"note":77,"startBeat":124.24479166666667,"startTick":119275,"startTime":46.591796875,"velocity":70},{"channel":5,"duration":0.1875,"durationBeats":0.5,"durationTicks":480,"endBeat":124.74479166666667,"endTick":119755,"endTime":46.779296875,"note":74,"startBeat":124.24479166666667,"startTick":119275,"startTime":46.591796875,"velocity":70},{"channel":5,"duration":0.1875,"durationBeats":0.5,"durationTicks":480,"endBeat":124.74479166666667,"endTick":119755,"endTime":46.779296875,"note":70,"startBeat":124.24479166666667,"startTick":119275,"startTime":46.591796875,"velocity":70},{"channel":5,"duration":0.1875,"durationBeats":0.5,"durationTicks":480,"endBeat":124.74479166666667,"endTick":119755,"endTime":46.779296875,"note":67,"startBeat":124.24479166666667,"startTick":119275,"startTime":46.591796875,"velocity":70},{"channel":9,"duration":0.0234375,"durationBeats":0.0625,"durationTicks":60,"endBeat":124.8125,"endTick":119820,"endTime":46.8046875,"note":42,"startBeat":124.75,"startTick":119760,"startTime":46.78125,"velocity":50},{"channel":0,"duration":0.1875,"durationBeats":0.5,"durationTicks":480,"endBeat":124.85729166666667,"endTick":119863,"endTime":46.821484375,"note":44,"startBeat":124.35729166666667,"startTick":119383,"startTime":46.633984375,"velocity":68},{"channel":0,"duration":0.09375,"durationBeats":0.25,"durationTicks":240,"endBeat":124.85729166666667,"endTick":119863,"endTime":46.821484375,"note":69,"startBeat":124.60729166666667,"startTick":119623,"startTime":46.727734375,"velocity":68},{"channel":1,"duration":0.1875,"durationBeats":0.5,"durationTicks":480,"endBeat":124.909375,"endTick":119913,"endTime":46.841015625,"note":33,"startBeat":124.409375,"startTick":119433,"startTime":46.653515625,"velocity":50},{"channel":9,"duration":0.09375,"durationBeats":0.25,"durationTicks":240,"endBeat":124.91145833333333,"endTick":119915,"endTime":46.841796875,"note":35,"startBeat":124.66145833333333,"startTick":119675,"startTime":46.748046875,"velocity":50},{"channel":9,"duration":0.09375,"durationBeats":0.25,"durationTicks":240,"endBeat":125.08333333333333,"endTick":120080,"endTime":46.90625,"note":42,"startBeat":124.83333333333333,"startTick":119840,"startTime":46.8125,"velocity":50},{"channel":2,"duration":0.1875,"durationBeats":0.5,"durationTicks":480,"endBeat":125.13854166666667,"endTick":120133,"endTime":46.926953125,"note":32,"startBeat":124.63854166666667,"startTick":119653,"startTime":46.739453125,"velocity":57},{"channel":9,"duration":0.09375,"durationBeats":0.25,"durationTicks":240,"endBeat":125.18229166666667,"endTick":120175,"endTime":46.943359375,"note":35,"startBeat":124.93229166666667,"startTick":119935,"startTime":46.849609375,"velocity":50},{"channel":0,"duration":0.1875,"durationBeats":0.5,"durationTicks":480,"endBeat":125.35729166666667,"endTick":120343,"endTime":47.008984375,"note":60,"startBeat":124.85729166666667,"startTick":119863,"startTime":46.821484375,"velocity":68},{"channel":0,"duration":0.1875,"durationBeats":0.5,"durationTicks":480,"endBeat":125.35729166666667,"endTick":120343,"endTime":47.008984375,"note":64,"startBeat":124.85729166666667,"startTick":119863,"startTime":46.821484375,"velocity":68},{"channel":0,"duration":0.1875,"durationBeats":0.5,"durationTicks":480,"endBeat":125.35729166666667,"endTick":120343,"endTime":47.008984375,"note":67,"startBeat":124.85729166666667,"startTick":119863,"startTime":46.821484375,"velocity":68},{"channel":0,"duration":0.1875,"durationBeats":0.5,"durationTicks":480,"endBeat":125.35729166666667,"endTick":120343,"endTime":47.008984375,"note":72,"startBeat":124.85729166666667,"startTick":119863,"startTime":46.821484375,"velocity":68},{"channel":0,"duration":0.1875,"durationBeats":0.5,"durationTicks":480,"endBeat":125.35729166666667,"endTick":120343,"endTime":47.008984375,"note":45,"startBeat":124.85729166666667,"startTick":119863,"startTime":46.821484375,"velocity":68},{"channel":1,"duration":0.1875,"durationBeats":0.5,"durationTicks":480,"endBeat":125.409375,"endTick":120393,"endTime":47.028515625,"note":32,"startBeat":124.909375,"startTick":119913,"startTime":46.841015625,"velocity":50},{"channel":9,"duration":0.09375,"durationBeats":0.25,"durationTicks":240,"endBeat":125.5,"endTick":120480,"endTime":47.0625,"note":42,"startBeat":125.25,"startTick":120240,"startTime":46.96875,"velocity":50},{"channel":2,"duration":0.1875,"durationBeats":0.5,"durationTicks":480,"endBeat":125.63854166666667,"endTick":120613,"endTime":47.114453125,"note":31,"startBeat":125.13854166666667,"startTick":120133,"startTime":46.926953125,"velocity":57},{"channel":9,"duration":0.09375,"durationBeats":0.25,"durationTicks":240,"endBeat":125.66145833333333,"endTick":120635,"endTime":47.123046875,"note":35,"startBeat":125.41145833333333,"startTick":120395,"startTime":47.029296875,"velocity":50},{"channel":5,"duration":0.1875,"durationBeats":0.5,"durationTicks":480,"endBeat":125.74479166666667,"endTick":120715,"endTime":47.154296875,"note":76,"startBeat":125.24479166666667,"startTick":120235,"startTime":46.966796875,"velocity":70},{"channel":5,"duration":0.1875,"durationBeats":0.5,"durationTicks":480,"endBeat":125.74479166666667,"endTick":120715,"endTime":47.154296875,"note":74,"startBeat":125.24479166666667,"startTick":120235,"startTime":46.966796875,"velocity":70},{"channel":5,"duration":0.1875,"durationBeats":0.5,"durationTicks":480,"endBeat":125.74479166666667,"endTick":120715,"endTime":47.154296875,"note":70,"startBeat":125.24479166666667,"startTick":120235,"startTime":46.966796875,"velocity":70},{"channel":5,"duration":0.1875,"durationBeats":0.5,"durationTicks":480,"endBeat":125.74479166666667,"endTick":120715,"endTime":47.154296875,"note":67,"startBeat":125.24479166666667,"startTick":120235,"startTime":46.966796875,"velocity":70},{"channel":9,"duration":0.0625,"durationBeats":0.1666666666666714,"durationTicks":160,"endBeat":125.75,"endTick":120720,"endTime":47.15625,"note":42,"startBeat":125.58333333333333,"startTick":120560,"startTime":47.09375,"velocity":50},{"channel":0,"duration":0.09375,"durationBeats":0.25,"durationTicks":240,"endBeat":125.85729166666667,"endTick":120823,"endTime":47.196484375,"note":45,"startBeat":125.60729166666667,"startTick":120583,"startTime":47.102734375,"velocity":68},{"channel":9,"duration":0.0234375,"durationBeats":0.0625,"durationTicks":60,"endBeat":125.89583333333333,"endTick":120860,"endTime":47.2109375,"note":42,"startBeat":125.83333333333333,"startTick":120800,"startTime":47.1875,"velocity":50},{"channel":1,"duration":0.1875,"durationBeats":0.5,"durationTicks":480,"endBeat":125.909375,"endTick":120873,"endTime":47.216015625,"note":31,"startBeat":125.409375,"startTick":120393,"startTime":47.028515625,"velocity":50},{"channel":9,"duration":0.09375,"durationBeats":0.25,"durationTicks":240,"endBeat":125.93229166666667,"endTick":120895,"endTime":47.224609375,"note":35,"startBeat":125.68229166666667,"startTick":120655,"startTime":47.130859375,"velocity":50},{"channel":9,"duration":0.0234375,"durationBeats":0.0625,"durationTicks":60,"endBeat":126.02083333333333,"endTick":120980,"endTime":47.2578125,"note":42,"startBeat":125.95833333333333,"startTick":120920,"startTime":47.234375,"velocity":50},{"channel":0,"duration":0.1875,"durationBeats":0.5,"durationTicks":480,"endBeat":126.10729166666667,"endTick":121063,"endTime":47.290234375,"note":70,"startBeat":125.60729166666667,"startTick":120583,"startTime":47.102734375,"velocity":68},{"channel":0,"duration":0.1875,"durationBeats":0.5,"durationTicks":480,"endBeat":126.10729166666667,"endTick":121063,"endTime":47.290234375,"note":67,"startBeat":125.60729166666667,"startTick":120583,"startTime":47.102734375,"velocity":68},{"channel":0,"duration":0.1875,"durationBeats":0.5,"durationTicks":480,"endBeat":126.10729166666667,"endTick":121063,"endTime":47.290234375,"note":65,"startBeat":125.60729166666667,"startTick":120583,"startTime":47.102734375,"velocity":68},{"channel":0,"duration":0.1875,"durationBeats":0.5,"durationTicks":480,"endBeat":126.10729166666667,"endTick":121063,"endTime":47.290234375,"note":61,"startBeat":125.60729166666667,"startTick":120583,"startTime":47.102734375,"velocity":68},{"channel":9,"duration":0.0234375,"durationBeats":0.0625,"durationTicks":60,"endBeat":126.14583333333333,"endTick":121100,"endTime":47.3046875,"note":42,"startBeat":126.08333333333333,"startTick":121040,"startTime":47.28125,"velocity":50},{"channel":9,"duration":0.0078125,"durationBeats":0.020833333333328596,"durationTicks":20,"endBeat":126.27083333333333,"endTick":121220,"endTime":47.3515625,"note":42,"startBeat":126.25,"startTick":121200,"startTime":47.34375,"velocity":50},{"channel":9,"duration":0.0234375,"durationBeats":0.0625,"durationTicks":60,"endBeat":126.39583333333333,"endTick":121340,"endTime":47.3984375,"note":42,"startBeat":126.33333333333333,"startTick":121280,"startTime":47.375,"velocity":50},{"channel":9,"duration":0.09375,"durationBeats":0.25,"durationTicks":240,"endBeat":126.41145833333333,"endTick":121355,"endTime":47.404296875,"note":35,"startBeat":126.16145833333333,"startTick":121115,"startTime":47.310546875,"velocity":50},{"channel":2,"duration":0.1875,"durationBeats":0.5,"durationTicks":480,"endBeat":126.63854166666667,"endTick":121573,"endTime":47.489453125,"note":31,"startBeat":126.13854166666667,"startTick":121093,"startTime":47.301953125,"velocity":57},{"channel":9,"duration":0.0078125,"durationBeats":0.020833333333342807,"durationTicks":20,"endBeat":126.68229166666667,"endTick":121615,"endTime":47.505859375,"note":35,"startBeat":126.66145833333333,"startTick":121595,"startTime":47.498046875,"velocity":50},{"channel":5,"duration":0.1875,"durationBeats":0.5,"durationTicks":480,"endBeat":126.74479166666667,"endTick":121675,"endTime":47.529296875,"note":79,"startBeat":126.24479166666667,"startTick":121195,"startTime":47.341796875,"velocity":70},{"channel":5,"duration":0.1875,"durationBeats":0.5,"durationTicks":480,"endBeat":126.74479166666667,"endTick":121675,"endTime":47.529296875,"note":76,"startBeat":126.24479166666667,"startTick":121195,"startTime":47.341796875,"velocity":70},{"channel":5,"duration":0.1875,"durationBeats":0.5,"durationTicks":480,"endBeat":126.74479166666667,"endTick":121675,"endTime":47.529296875,"note":72,"startBeat":126.24479166666667,"startTick":121195,"startTime":47.341796875,"velocity":70},{"channel":5,"duration":0.1875,"durationBeats":0.5,"durationTicks":480,"endBeat":126.74479166666667,"endTick":121675,"endTime":47.529296875,"note":69,"startBeat":126.24479166666667,"startTick":121195,"startTime":47.341796875,"velocity":70},{"channel":9,"duration":0.09375,"durationBeats":0.25,"durationTicks":240,"endBeat":126.75,"endTick":121680,"endTime":47.53125,"note":42,"startBeat":126.5,"startTick":121440,"startTime":47.4375,"velocity":50},{"channel":0,"duration":0.1875,"durationBeats":0.5,"durationTicks":480,"endBeat":126.85729166666667,"endTick":121783,"endTime":47.571484375,"note":69,"startBeat":126.35729166666667,"startTick":121303,"startTime":47.383984375,"velocity":68},{"channel":0,"duration":0.1875,"durationBeats":0.5,"durationTicks":480,"endBeat":126.85729166666667,"endTick":121783,"endTime":47.571484375,"note":65,"startBeat":126.35729166666667,"startTick":121303,"startTime":47.383984375,"velocity":68},{"channel":0,"duration":0.1875,"durationBeats":0.5,"durationTicks":480,"endBeat":126.85729166666667,"endTick":121783,"endTime":47.571484375,"note":64,"startBeat":126.35729166666667,"startTick":121303,"startTime":47.383984375,"velocity":68},{"channel":0,"duration":0.1875,"durationBeats":0.5,"durationTicks":480,"endBeat":126.85729166666667,"endTick":121783,"endTime":47.571484375,"note":60,"startBeat":126.35729166666667,"startTick":121303,"startTime":47.383984375,"velocity":68},{"channel":0,"duration":0.1875,"durationBeats":0.5,"durationTicks":480,"endBeat":126.85729166666667,"endTick":121783,"endTime":47.571484375,"note":38,"startBeat":126.35729166666667,"startTick":121303,"startTime":47.383984375,"velocity":68},{"channel":1,"duration":0.1875,"durationBeats":0.5,"durationTicks":480,"endBeat":126.909375,"endTick":121833,"endTime":47.591015625,"note":31,"startBeat":126.409375,"startTick":121353,"startTime":47.403515625,"velocity":50},{"channel":9,"duration":0.09375,"durationBeats":0.25,"durationTicks":240,"endBeat":127.08333333333333,"endTick":122000,"endTime":47.65625,"note":42,"startBeat":126.83333333333333,"startTick":121760,"startTime":47.5625,"velocity":50},{"channel":0,"duration":0.09375,"durationBeats":0.25,"durationTicks":240,"endBeat":127.10729166666667,"endTick":122023,"endTime":47.665234375,"note":76,"startBeat":126.85729166666667,"startTick":121783,"startTime":47.571484375,"velocity":68},{"channel":2,"duration":0.1875,"durationBeats":0.5,"durationTicks":480,"endBeat":127.13854166666667,"endTick":122053,"endTime":47.676953125,"note":32,"startBeat":126.63854166666667,"startTick":121573,"startTime":47.489453125,"velocity":57},{"channel":9,"duration":0.09375,"durationBeats":0.25,"durationTicks":240,"endBeat":127.18229166666667,"endTick":122095,"endTime":47.693359375,"note":35,"startBeat":126.93229166666667,"startTick":121855,"startTime":47.599609375,"velocity":50},{"channel":9,"duration":0.03125,"durationBeats":0.0833333333333286,"durationTicks":80,"endBeat":127.33333333333333,"endTick":122240,"endTime":47.75,"note":42,"startBeat":127.25,"startTick":122160,"startTime":47.71875,"velocity":50},{"channel":0,"duration":0.09375,"durationBeats":0.25,"durationTicks":240,"endBeat":127.35729166666667,"endTick":122263,"endTime":47.758984375,"note":77,"startBeat":127.10729166666667,"startTick":122023,"startTime":47.665234375,"velocity":68},{"channel":1,"duration":0.1875,"durationBeats":0.5,"durationTicks":480,"endBeat":127.409375,"endTick":122313,"endTime":47.778515625,"note":32,"startBeat":126.909375,"startTick":121833,"startTime":47.591015625,"velocity":50},{"channel":0,"duration":0.09375,"durationBeats":0.25,"durationTicks":240,"endBeat":127.60729166666667,"endTick":122503,"endTime":47.852734375,"note":76,"startBeat":127.35729166666667,"startTick":122263,"startTime":47.758984375,"velocity":68},{"channel":2,"duration":0.1875,"durationBeats":0.5,"durationTicks":480,"endBeat":127.63854166666667,"endTick":122533,"endTime":47.864453125,"note":33,"startBeat":127.13854166666667,"startTick":122053,"startTime":47.676953125,"velocity":57},{"channel":5,"duration":0.1875,"durationBeats":0.5,"durationTicks":480,"endBeat":127.74479166666667,"endTick":122635,"endTime":47.904296875,"note":79,"startBeat":127.24479166666667,"startTick":122155,"startTime":47.716796875,"velocity":70},{"channel":5,"duration":0.1875,"durationBeats":0.5,"durationTicks":480,"endBeat":127.74479166666667,"endTick":122635,"endTime":47.904296875,"note":76,"startBeat":127.24479166666667,"startTick":122155,"startTime":47.716796875,"velocity":70},{"channel":5,"duration":0.1875,"durationBeats":0.5,"durationTicks":480,"endBeat":127.74479166666667,"endTick":122635,"endTime":47.904296875,"note":72,"startBeat":127.24479166666667,"startTick":122155,"startTime":47.716796875,"velocity":70},{"channel":5,"duration":0.1875,"durationBeats":0.5,"durationTicks":480,"endBeat":127.74479166666667,"endTick":122635,"endTime":47.904296875,"note":69,"startBeat":127.24479166666667,"startTick":122155,"startTime":47.716796875,"velocity":70},{"channel":0,"duration":0.09375,"durationBeats":0.25,"durationTicks":240,"endBeat":127.85729166666667,"endTick":122743,"endTime":47.946484375,"note":72,"startBeat":127.60729166666667,"startTick":122503,"startTime":47.852734375,"velocity":68},{"channel":1,"duration":0.1875,"durationBeats":0.5,"durationTicks":480,"endBeat":127.909375,"endTick":122793,"endTime":47.966015625,"note":33,"startBeat":127.409375,"startTick":122313,"startTime":47.778515625,"velocity":50},{"channel":9,"duration":0.09375,"durationBeats":0.25,"durationTicks":240,"endBeat":127.91145833333333,"endTick":122795,"endTime":47.966796875,"note":35,"startBeat":127.66145833333333,"startTick":122555,"startTime":47.873046875,"velocity":50},{"channel":9,"duration":0.03125,"durationBeats":0.08333333333334281,"durationTicks":80,"endBeat":128.08333333333334,"endTick":122960,"endTime":48.03125,"note":42,"startBeat":128,"startTick":122880,"startTime":48,"velocity":50},{"channel":0,"duration":0.09375,"durationBeats":0.25,"durationTicks":240,"endBeat":128.10729166666667,"endTick":122983,"endTime":48.040234375,"note":76,"startBeat":127.85729166666667,"startTick":122743,"startTime":47.946484375,"velocity":68},{"channel":2,"duration":0.09375,"durationBeats":0.25,"durationTicks":240,"endBeat":128.13854166666667,"endTick":123013,"endTime":48.051953125,"note":33,"startBeat":127.88854166666667,"startTick":122773,"startTime":47.958203125,"velocity":57},{"channel":9,"duration":0.09375,"durationBeats":0.2499999999999858,"durationTicks":240,"endBeat":128.18229166666666,"endTick":123055,"endTime":48.068359375,"note":35,"startBeat":127.93229166666667,"startTick":122815,"startTime":47.974609375,"velocity":50},{"channel":5,"duration":0.1875,"durationBeats":0.4999999999999858,"durationTicks":480,"endBeat":128.24479166666666,"endTick":123115,"endTime":48.091796875,"note":81,"startBeat":127.74479166666667,"startTick":122635,"startTime":47.904296875,"velocity":70},{"channel":5,"duration":0.1875,"durationBeats":0.4999999999999858,"durationTicks":480,"endBeat":128.24479166666666,"endTick":123115,"endTime":48.091796875,"note":77,"startBeat":127.74479166666667,"startTick":122635,"startTime":47.904296875,"velocity":70},{"channel":5,"duration":0.1875,"durationBeats":0.4999999999999858,"durationTicks":480,"endBeat":128.24479166666666,"endTick":123115,"endTime":48.091796875,"note":74,"startBeat":127.74479166666667,"startTick":122635,"startTime":47.904296875,"velocity":70},{"channel":5,"duration":0.1875,"durationBeats":0.4999999999999858,"durationTicks":480,"endBeat":128.24479166666666,"endTick":123115,"endTime":48.091796875,"note":72,"startBeat":127.74479166666667,"startTick":122635,"startTime":47.904296875,"velocity":70},{"channel":9,"duration":0.0625,"durationBeats":0.1666666666666572,"durationTicks":160,"endBeat":128.25,"endTick":123120,"endTime":48.09375,"note":42,"startBeat":128.08333333333334,"startTick":122960,"startTime":48.03125,"velocity":50},{"channel":9,"duration":0.0234375,"durationBeats":0.0625,"durationTicks":60,"endBeat":128.3125,"endTick":123180,"endTime":48.1171875,"note":42,"startBeat":128.25,"startTick":123120,"startTime":48.09375,"velocity":50},{"channel":0,"duration":0.1875,"durationBeats":0.5,"durationTicks":480,"endBeat":128.35729166666667,"endTick":123223,"endTime":48.133984375,"note":38,"startBeat":127.85729166666667,"startTick":122743,"startTime":47.946484375,"velocity":68},{"channel":0,"duration":0.09375,"durationBeats":0.25,"durationTicks":240,"endBeat":128.35729166666667,"endTick":123223,"endTime":48.133984375,"note":72,"startBeat":128.10729166666667,"startTick":122983,"startTime":48.040234375,"velocity":68},{"channel":1,"duration":0.09375,"durationBeats":0.25,"durationTicks":240,"endBeat":128.409375,"endTick":123273,"endTime":48.153515625000004,"note":33,"startBeat":128.159375,"startTick":123033,"startTime":48.059765625000004,"velocity":50},{"channel":9,"duration":0.001953125,"durationBeats":0.005208333333342807,"durationTicks":5,"endBeat":128.4375,"endTick":123300,"endTime":48.1640625,"note":42,"startBeat":128.43229166666666,"startTick":123295,"startTime":48.162109375,"velocity":50},{"channel":9,"duration":0.0234375,"durationBeats":0.0625,"durationTicks":60,"endBeat":128.5625,"endTick":123420,"endTime":48.2109375,"note":42,"startBeat":128.5,"startTick":123360,"startTime":48.1875,"velocity":50},{"channel":0,"duration":0.09375,"durationBeats":0.25,"durationTicks":240,"endBeat":128.60729166666667,"endTick":123463,"endTime":48.227734375,"note":69,"startBeat":128.35729166666667,"startTick":123223,"startTime":48.133984375,"velocity":68},{"channel":9,"duration":0.021484375,"durationBeats":0.05729166666665719,"durationTicks":55,"endBeat":128.68229166666666,"endTick":123535,"endTime":48.255859375,"note":42,"startBeat":128.625,"startTick":123480,"startTime":48.234375,"velocity":50},{"channel":9,"duration":0.0234375,"durationBeats":0.0625,"durationTicks":60,"endBeat":128.8125,"endTick":123660,"endTime":48.3046875,"note":42,"startBeat":128.75,"startTick":123600,"startTime":48.28125,"velocity":50},{"channel":0,"duration":0.1875,"durationBeats":0.5,"durationTicks":480,"endBeat":128.85729166666667,"endTick":123703,"endTime":48.321484375,"note":45,"startBeat":128.35729166666667,"startTick":123223,"startTime":48.133984375,"velocity":68},{"channel":0,"duration":0.09375,"durationBeats":0.25,"durationTicks":240,"endBeat":128.85729166666667,"endTick":123703,"endTime":48.321484375,"note":67,"startBeat":128.60729166666667,"startTick":123463,"startTime":48.227734375,"velocity":68},{"channel":9,"duration":0.09375,"durationBeats":0.25,"durationTicks":240,"endBeat":128.91145833333334,"endTick":123755,"endTime":48.341796875,"note":35,"startBeat":128.66145833333334,"startTick":123515,"startTime":48.248046875,"velocity":50},{"channel":9,"duration":0.09375,"durationBeats":0.25,"durationTicks":240,"endBeat":129.08333333333334,"endTick":123920,"endTime":48.40625,"note":42,"startBeat":128.83333333333334,"startTick":123680,"startTime":48.3125,"velocity":50},{"channel":0,"duration":0.09375,"durationBeats":0.25,"durationTicks":240,"endBeat":129.10729166666667,"endTick":123943,"endTime":48.415234375,"note":69,"startBeat":128.85729166666667,"startTick":123703,"startTime":48.321484375,"velocity":68},{"channel":2,"duration":0.1875,"durationBeats":0.5,"durationTicks":480,"endBeat":129.13854166666667,"endTick":123973,"endTime":48.426953125,"note":26,"startBeat":128.63854166666667,"startTick":123493,"startTime":48.239453125,"velocity":57},{"channel":9,"duration":0.09375,"durationBeats":0.25,"durationTicks":240,"endBeat":129.18229166666666,"endTick":124015,"endTime":48.443359375,"note":35,"startBeat":128.93229166666666,"startTick":123775,"startTime":48.349609375,"velocity":50},{"channel":0,"duration":0.1875,"durationBeats":0.5,"durationTicks":480,"endBeat":129.35729166666667,"endTick":124183,"endTime":48.508984375,"note":50,"startBeat":128.85729166666667,"startTick":123703,"startTime":48.321484375,"velocity":68},{"channel":0,"duration":0.09375,"durationBeats":0.25,"durationTicks":240,"endBeat":129.35729166666667,"endTick":124183,"endTime":48.508984375,"note":62,"startBeat":129.10729166666667,"startTick":123943,"startTime":48.415234375,"velocity":68},{"channel":1,"duration":0.1875,"durationBeats":0.5,"durationTicks":480,"endBeat":129.409375,"endTick":124233,"endTime":48.528515625000004,"note":26,"startBeat":128.909375,"startTick":123753,"startTime":48.341015625000004,"velocity":50},{"channel":0,"duration":0.09375,"durationBeats":0.25,"durationTicks":240,"endBeat":129.60729166666667,"endTick":124423,"endTime":48.602734375,"note":60,"startBeat":129.35729166666667,"startTick":124183,"startTime":48.508984375,"velocity":68},{"channel":2,"duration":0.1875,"durationBeats":0.5,"durationTicks":480,"endBeat":129.63854166666667,"endTick":124453,"endTime":48.614453125,"note":31,"startBeat":129.13854166666667,"startTick":123973,"startTime":48.426953125,"velocity":57},{"channel":9,"duration":0.09375,"durationBeats":0.25,"durationTicks":240,"endBeat":129.66145833333334,"endTick":124475,"endTime":48.623046875,"note":35,"startBeat":129.41145833333334,"startTick":124235,"startTime":48.529296875,"velocity":50},{"channel":9,"duration":0.09375,"durationBeats":0.25,"durationTicks":240,"endBeat":129.83333333333334,"endTick":124640,"endTime":48.6875,"note":42,"startBeat":129.58333333333334,"startTick":124400,"startTime":48.59375,"velocity":50},{"channel":0,"duration":0.1875,"durationBeats":0.5,"durationTicks":480,"endBeat":129.85729166666667,"endTick":124663,"endTime":48.696484375,"note":38,"startBeat":129.35729166666667,"startTick":124183,"startTime":48.508984375,"velocity":68},{"channel":0,"duration":0.09375,"durationBeats":0.25,"durationTicks":240,"endBeat":129.85729166666667,"endTick":124663,"endTime":48.696484375,"note":65,"startBeat":129.60729166666667,"startTick":124423,"startTime":48.602734375,"velocity":68},{"channel":9,"duration":0.0234375,"durationBeats":0.0625,"durationTicks":60,"endBeat":129.89583333333334,"endTick":124700,"endTime":48.7109375,"note":42,"startBeat":129.83333333333334,"startTick":124640,"startTime":48.6875,"velocity":50},{"channel":1,"duration":0.1875,"durationBeats":0.5,"durationTicks":480,"endBeat":129.909375,"endTick":124713,"endTime":48.716015625000004,"note":31,"startBeat":129.409375,"startTick":124233,"startTime":48.528515625000004,"velocity":50},{"channel":9,"duration":0.09375,"durationBeats":0.25,"durationTicks":240,"endBeat":129.93229166666666,"endTick":124735,"endTime":48.724609375,"note":35,"startBeat":129.68229166666666,"startTick":124495,"startTime":48.630859375,"velocity":50},{"channel":9,"duration":0.0234375,"durationBeats":0.0625,"durationTicks":60,"endBeat":130.02083333333334,"endTick":124820,"endTime":48.7578125,"note":42,"startBeat":129.95833333333334,"startTick":124760,"startTime":48.734375,"velocity":50},{"channel":9,"duration":0.0234375,"durationBeats":0.0625,"durationTicks":60,"endBeat":130.14583333333334,"endTick":124940,"endTime":48.8046875,"note":42,"startBeat":130.08333333333334,"startTick":124880,"startTime":48.78125,"velocity":50},{"channel":9,"duration":0.0234375,"durationBeats":0.0625,"durationTicks":60,"endBeat":130.27083333333334,"endTick":125060,"endTime":48.8515625,"note":42,"startBeat":130.20833333333334,"startTick":125000,"startTime":48.828125,"velocity":50},{"channel":0,"duration":0.1875,"durationBeats":0.5,"durationTicks":480,"endBeat":130.35729166666667,"endTick":125143,"endTime":48.883984375,"note":45,"startBeat":129.85729166666667,"startTick":124663,"startTime":48.696484375,"velocity":68},{"channel":0,"duration":0.1875,"durationBeats":0.5,"durationTicks":480,"endBeat":130.35729166666667,"endTick":125143,"endTime":48.883984375,"note":69,"startBeat":129.85729166666667,"startTick":124663,"startTime":48.696484375,"velocity":68},{"channel":0,"duration":0.1875,"durationBeats":0.5,"durationTicks":480,"endBeat":130.35729166666667,"endTick":125143,"endTime":48.883984375,"note":60,"startBeat":129.85729166666667,"startTick":124663,"startTime":48.696484375,"velocity":68},{"channel":0,"duration":0.1875,"durationBeats":0.5,"durationTicks":480,"endBeat":130.35729166666667,"endTick":125143,"endTime":48.883984375,"note":64,"startBeat":129.85729166666667,"startTick":124663,"startTime":48.696484375,"velocity":68},{"channel":9,"duration":0.0234375,"durationBeats":0.0625,"durationTicks":60,"endBeat":130.39583333333334,"endTick":125180,"endTime":48.8984375,"note":42,"startBeat":130.33333333333334,"startTick":125120,"startTime":48.875,"velocity":50},{"channel":9,"duration":0.09375,"durationBeats":0.25,"durationTicks":240,"endBeat":130.41145833333334,"endTick":125195,"endTime":48.904296875,"note":35,"startBeat":130.16145833333334,"startTick":124955,"startTime":48.810546875,"velocity":50},{"channel":2,"duration":0.1875,"durationBeats":0.5,"durationTicks":480,"endBeat":130.63854166666667,"endTick":125413,"endTime":48.989453125,"note":31,"startBeat":130.13854166666667,"startTick":124933,"startTime":48.801953125,"velocity":57},{"channel":9,"duration":0.0078125,"durationBeats":0.020833333333314386,"durationTicks":20,"endBeat":130.68229166666666,"endTick":125455,"endTime":49.005859375,"note":35,"startBeat":130.66145833333334,"startTick":125435,"startTime":48.998046875,"velocity":50},{"channel":0,"duration":0.1875,"durationBeats":0.5,"durationTicks":480,"endBeat":130.85729166666667,"endTick":125623,"endTime":49.071484375,"note":44,"startBeat":130.35729166666667,"startTick":125143,"startTime":48.883984375,"velocity":68},{"channel":0,"duration":0.1875,"durationBeats":0.5,"durationTicks":480,"endBeat":130.85729166666667,"endTick":125623,"endTime":49.071484375,"note":68,"startBeat":130.35729166666667,"startTick":125143,"startTime":48.883984375,"velocity":68},{"channel":0,"duration":0.1875,"durationBeats":0.5,"durationTicks":480,"endBeat":130.85729166666667,"endTick":125623,"endTime":49.071484375,"note":63,"startBeat":130.35729166666667,"startTick":125143,"startTime":48.883984375,"velocity":68},{"channel":0,"duration":0.1875,"durationBeats":0.5,"durationTicks":480,"endBeat":130.85729166666667,"endTick":125623,"endTime":49.071484375,"note":59,"startBeat":130.35729166666667,"startTick":125143,"startTime":48.883984375,"velocity":68},{"channel":1,"duration":0.1875,"durationBeats":0.5,"durationTicks":480,"endBeat":130.909375,"endTick":125673,"endTime":49.091015625000004,"note":31,"startBeat":130.409375,"startTick":125193,"startTime":48.903515625000004,"velocity":50},{"channel":9,"duration":0.09375,"durationBeats":0.25,"durationTicks":240,"endBeat":131.08333333333334,"endTick":125840,"endTime":49.15625,"note":42,"startBeat":130.83333333333334,"startTick":125600,"startTime":49.0625,"velocity":50},{"channel":2,"duration":0.1875,"durationBeats":0.5,"durationTicks":480,"endBeat":131.13854166666667,"endTick":125893,"endTime":49.176953125,"note":32,"startBeat":130.63854166666667,"startTick":125413,"startTime":48.989453125,"velocity":57},{"channel":9,"duration":0.09375,"durationBeats":0.25,"durationTicks":240,"endBeat":131.18229166666666,"endTick":125935,"endTime":49.193359375,"note":35,"startBeat":130.93229166666666,"startTick":125695,"startTime":49.099609375,"velocity":50},{"channel":9,"duration":0.09375,"durationBeats":0.25,"durationTicks":240,"endBeat":131.33333333333334,"endTick":126080,"endTime":49.25,"note":42,"startBeat":131.08333333333334,"startTick":125840,"startTime":49.15625,"velocity":50},{"channel":0,"duration":0.1875,"durationBeats":0.5,"durationTicks":480,"endBeat":131.35729166666667,"endTick":126103,"endTime":49.258984375,"note":43,"startBeat":130.85729166666667,"startTick":125623,"startTime":49.071484375,"velocity":68},{"channel":1,"duration":0.1875,"durationBeats":0.5,"durationTicks":480,"endBeat":131.409375,"endTick":126153,"endTime":49.278515625000004,"note":32,"startBeat":130.909375,"startTick":125673,"startTime":49.091015625000004,"velocity":50},{"channel":2,"duration":0.1875,"durationBeats":0.5,"durationTicks":480,"endBeat":131.63854166666667,"endTick":126373,"endTime":49.364453125,"note":33,"startBeat":131.13854166666667,"startTick":125893,"startTime":49.176953125,"velocity":57},{"channel":0,"duration":0.375,"durationBeats":1,"durationTicks":960,"endBeat":131.85729166666667,"endTick":126583,"endTime":49.446484375,"note":69,"startBeat":130.85729166666667,"startTick":125623,"startTime":49.071484375,"velocity":68},{"channel":0,"duration":0.375,"durationBeats":1,"durationTicks":960,"endBeat":131.85729166666667,"endTick":126583,"endTime":49.446484375,"note":65,"startBeat":130.85729166666667,"startTick":125623,"startTime":49.071484375,"velocity":68},{"channel":0,"duration":0.375,"durationBeats":1,"durationTicks":960,"endBeat":131.85729166666667,"endTick":126583,"endTime":49.446484375,"note":62,"startBeat":130.85729166666667,"startTick":125623,"startTime":49.071484375,"velocity":68},{"channel":0,"duration":0.375,"durationBeats":1,"durationTicks":960,"endBeat":131.85729166666667,"endTick":126583,"endTime":49.446484375,"note":58,"startBeat":130.85729166666667,"startTick":125623,"startTime":49.071484375,"velocity":68},{"channel":1,"duration":0.1875,"durationBeats":0.5,"durationTicks":480,"endBeat":131.909375,"endTick":126633,"endTime":49.466015625000004,"note":33,"startBeat":131.409375,"startTick":126153,"startTime":49.278515625000004,"velocity":50},{"channel":9,"duration":0.09375,"durationBeats":0.25,"durationTicks":240,"endBeat":131.91145833333334,"endTick":126635,"endTime":49.466796875,"note":35,"startBeat":131.66145833333334,"startTick":126395,"startTime":49.373046875,"velocity":50},{"channel":5,"duration":1.03125,"durationBeats":2.75,"durationTicks":2640,"endBeat":131.99479166666666,"endTick":126715,"endTime":49.498046875,"note":72,"startBeat":129.24479166666666,"startTick":124075,"startTime":48.466796875,"velocity":70},{"channel":5,"duration":1.03125,"durationBeats":2.75,"durationTicks":2640,"endBeat":131.99479166666666,"endTick":126715,"endTime":49.498046875,"note":74,"startBeat":129.24479166666666,"startTick":124075,"startTime":48.466796875,"velocity":70},{"channel":5,"duration":1.03125,"durationBeats":2.75,"durationTicks":2640,"endBeat":131.99479166666666,"endTick":126715,"endTime":49.498046875,"note":77,"startBeat":129.24479166666666,"startTick":124075,"startTime":48.466796875,"velocity":70},{"channel":5,"duration":1.03125,"durationBeats":2.75,"durationTicks":2640,"endBeat":131.99479166666666,"endTick":126715,"endTime":49.498046875,"note":81,"startBeat":129.24479166666666,"startTick":124075,"startTime":48.466796875,"velocity":70},{"channel":9,"duration":0.09375,"durationBeats":0.25,"durationTicks":240,"endBeat":132.08333333333334,"endTick":126800,"endTime":49.53125,"note":42,"startBeat":131.83333333333334,"startTick":126560,"startTime":49.4375,"velocity":50},{"channel":2,"duration":0.09375,"durationBeats":0.25,"durationTicks":240,"endBeat":132.13854166666667,"endTick":126853,"endTime":49.551953125,"note":33,"startBeat":131.88854166666667,"startTick":126613,"startTime":49.458203125,"velocity":57},{"channel":9,"duration":0.09375,"durationBeats":0.25,"durationTicks":240,"endBeat":132.18229166666666,"endTick":126895,"endTime":49.568359375,"note":35,"startBeat":131.93229166666666,"startTick":126655,"startTime":49.474609375,"velocity":50},{"channel":9,"duration":0.09375,"durationBeats":0.25,"durationTicks":240,"endBeat":132.33333333333334,"endTick":127040,"endTime":49.625,"note":42,"startBeat":132.08333333333334,"startTick":126800,"startTime":49.53125,"velocity":50},{"channel":0,"duration":0.1875,"durationBeats":0.5,"durationTicks":480,"endBeat":132.35729166666667,"endTick":127063,"endTime":49.633984375,"note":43,"startBeat":131.85729166666667,"startTick":126583,"startTime":49.446484375,"velocity":68},{"channel":1,"duration":0.09375,"durationBeats":0.25,"durationTicks":240,"endBeat":132.409375,"endTick":127113,"endTime":49.653515625000004,"note":33,"startBeat":132.159375,"startTick":126873,"startTime":49.559765625000004,"velocity":50},{"channel":0,"duration":0.09375,"durationBeats":0.25,"durationTicks":240,"endBeat":132.60729166666667,"endTick":127303,"endTime":49.727734375,"note":65,"startBeat":132.35729166666667,"startTick":127063,"startTime":49.633984375,"velocity":68},{"channel":0,"duration":0.1875,"durationBeats":0.5,"durationTicks":480,"endBeat":132.85729166666667,"endTick":127543,"endTime":49.821484375,"note":44,"startBeat":132.35729166666667,"startTick":127063,"startTime":49.633984375,"velocity":68},{"channel":0,"duration":0.09375,"durationBeats":0.25,"durationTicks":240,"endBeat":132.85729166666667,"endTick":127543,"endTime":49.821484375,"note":69,"startBeat":132.60729166666667,"startTick":127303,"startTime":49.727734375,"velocity":68},{"channel":9,"duration":0.09375,"durationBeats":0.25,"durationTicks":240,"endBeat":132.91145833333334,"endTick":127595,"endTime":49.841796875,"note":35,"startBeat":132.66145833333334,"startTick":127355,"startTime":49.748046875,"velocity":50},{"channel":9,"duration":0.09375,"durationBeats":0.25,"durationTicks":240,"endBeat":133.08333333333334,"endTick":127760,"endTime":49.90625,"note":42,"startBeat":132.83333333333334,"startTick":127520,"startTime":49.8125,"velocity":50},{"channel":2,"duration":0.1875,"durationBeats":0.5,"durationTicks":480,"endBeat":133.13854166666667,"endTick":127813,"endTime":49.926953125,"note":26,"startBeat":132.63854166666667,"startTick":127333,"startTime":49.739453125,"velocity":57},{"channel":9,"duration":0.09375,"durationBeats":0.25,"durationTicks":240,"endBeat":133.18229166666666,"endTick":127855,"endTime":49.943359375,"note":35,"startBeat":132.93229166666666,"startTick":127615,"startTime":49.849609375,"velocity":50},{"channel":0,"duration":0.1875,"durationBeats":0.5,"durationTicks":480,"endBeat":133.35729166666667,"endTick":128023,"endTime":50.008984375,"note":60,"startBeat":132.85729166666667,"startTick":127543,"startTime":49.821484375,"velocity":68},{"channel":0,"duration":0.1875,"durationBeats":0.5,"durationTicks":480,"endBeat":133.35729166666667,"endTick":128023,"endTime":50.008984375,"note":64,"startBeat":132.85729166666667,"startTick":127543,"startTime":49.821484375,"velocity":68},{"channel":0,"duration":0.1875,"durationBeats":0.5,"durationTicks":480,"endBeat":133.35729166666667,"endTick":128023,"endTime":50.008984375,"note":67,"startBeat":132.85729166666667,"startTick":127543,"startTime":49.821484375,"velocity":68},{"channel":0,"duration":0.1875,"durationBeats":0.5,"durationTicks":480,"endBeat":133.35729166666667,"endTick":128023,"endTime":50.008984375,"note":72,"startBeat":132.85729166666667,"startTick":127543,"startTime":49.821484375,"velocity":68},{"channel":0,"duration":0.1875,"durationBeats":0.5,"durationTicks":480,"endBeat":133.35729166666667,"endTick":128023,"endTime":50.008984375,"note":45,"startBeat":132.85729166666667,"startTick":127543,"startTime":49.821484375,"velocity":68},{"channel":1,"duration":0.1875,"durationBeats":0.5,"durationTicks":480,"endBeat":133.409375,"endTick":128073,"endTime":50.028515625000004,"note":26,"startBeat":132.909375,"startTick":127593,"startTime":49.841015625000004,"velocity":50},{"channel":2,"duration":0.1875,"durationBeats":0.5,"durationTicks":480,"endBeat":133.63854166666667,"endTick":128293,"endTime":50.114453125,"note":31,"startBeat":133.13854166666667,"startTick":127813,"startTime":49.926953125,"velocity":57},{"channel":9,"duration":0.09375,"durationBeats":0.25,"durationTicks":240,"endBeat":133.66145833333334,"endTick":128315,"endTime":50.123046875,"note":35,"startBeat":133.41145833333334,"startTick":128075,"startTime":50.029296875,"velocity":50},{"channel":9,"duration":0.09375,"durationBeats":0.25,"durationTicks":240,"endBeat":133.83333333333334,"endTick":128480,"endTime":50.1875,"note":42,"startBeat":133.58333333333334,"startTick":128240,"startTime":50.09375,"velocity":50},{"channel":0,"duration":0.09375,"durationBeats":0.25,"durationTicks":240,"endBeat":133.85729166666667,"endTick":128503,"endTime":50.196484375,"note":45,"startBeat":133.60729166666667,"startTick":128263,"startTime":50.102734375,"velocity":68},{"channel":9,"duration":0.0234375,"durationBeats":0.0625,"durationTicks":60,"endBeat":133.89583333333334,"endTick":128540,"endTime":50.2109375,"note":42,"startBeat":133.83333333333334,"startTick":128480,"startTime":50.1875,"velocity":50},{"channel":1,"duration":0.1875,"durationBeats":0.5,"durationTicks":480,"endBeat":133.909375,"endTick":128553,"endTime":50.216015625000004,"note":31,"startBeat":133.409375,"startTick":128073,"startTime":50.028515625000004,"velocity":50},{"channel":9,"duration":0.09375,"durationBeats":0.25,"durationTicks":240,"endBeat":133.93229166666666,"endTick":128575,"endTime":50.224609375,"note":35,"startBeat":133.68229166666666,"startTick":128335,"startTime":50.130859375,"velocity":50},{"channel":9,"duration":0.0234375,"durationBeats":0.0625,"durationTicks":60,"endBeat":134.02083333333334,"endTick":128660,"endTime":50.2578125,"note":42,"startBeat":133.95833333333334,"startTick":128600,"startTime":50.234375,"velocity":50},{"channel":0,"duration":0.1875,"durationBeats":0.5,"durationTicks":480,"endBeat":134.10729166666667,"endTick":128743,"endTime":50.290234375,"note":70,"startBeat":133.60729166666667,"startTick":128263,"startTime":50.102734375,"velocity":68},{"channel":0,"duration":0.1875,"durationBeats":0.5,"durationTicks":480,"endBeat":134.10729166666667,"endTick":128743,"endTime":50.290234375,"note":67,"startBeat":133.60729166666667,"startTick":128263,"startTime":50.102734375,"velocity":68},{"channel":0,"duration":0.1875,"durationBeats":0.5,"durationTicks":480,"endBeat":134.10729166666667,"endTick":128743,"endTime":50.290234375,"note":65,"startBeat":133.60729166666667,"startTick":128263,"startTime":50.102734375,"velocity":68},{"channel":0,"duration":0.1875,"durationBeats":0.5,"durationTicks":480,"endBeat":134.10729166666667,"endTick":128743,"endTime":50.290234375,"note":61,"startBeat":133.60729166666667,"startTick":128263,"startTime":50.102734375,"velocity":68},{"channel":9,"duration":0.0234375,"durationBeats":0.0625,"durationTicks":60,"endBeat":134.14583333333334,"endTick":128780,"endTime":50.3046875,"note":42,"startBeat":134.08333333333334,"startTick":128720,"startTime":50.28125,"velocity":50},{"channel":9,"duration":0.0234375,"durationBeats":0.0625,"durationTicks":60,"endBeat":134.27083333333334,"endTick":128900,"endTime":50.3515625,"note":42,"startBeat":134.20833333333334,"startTick":128840,"startTime":50.328125,"velocity":50},{"channel":9,"duration":0.0234375,"durationBeats":0.0625,"durationTicks":60,"endBeat":134.39583333333334,"endTick":129020,"endTime":50.3984375,"note":42,"startBeat":134.33333333333334,"startTick":128960,"startTime":50.375,"velocity":50},{"channel":9,"duration":0.09375,"durationBeats":0.25,"durationTicks":240,"endBeat":134.41145833333334,"endTick":129035,"endTime":50.404296875,"note":35,"startBeat":134.16145833333334,"startTick":128795,"startTime":50.310546875,"velocity":50},{"channel":2,"duration":0.1875,"durationBeats":0.5,"durationTicks":480,"endBeat":134.63854166666667,"endTick":129253,"endTime":50.489453125,"note":31,"startBeat":134.13854166666667,"startTick":128773,"startTime":50.301953125,"velocity":57},{"channel":9,"duration":0.0078125,"durationBeats":0.020833333333314386,"durationTicks":20,"endBeat":134.68229166666666,"endTick":129295,"endTime":50.505859375,"note":35,"startBeat":134.66145833333334,"startTick":129275,"startTime":50.498046875,"velocity":50},{"channel":0,"duration":0.1875,"durationBeats":0.5,"durationTicks":480,"endBeat":134.85729166666667,"endTick":129463,"endTime":50.571484375,"note":69,"startBeat":134.35729166666667,"startTick":128983,"startTime":50.383984375,"velocity":68},{"channel":0,"duration":0.1875,"durationBeats":0.5,"durationTicks":480,"endBeat":134.85729166666667,"endTick":129463,"endTime":50.571484375,"note":65,"startBeat":134.35729166666667,"startTick":128983,"startTime":50.383984375,"velocity":68},{"channel":0,"duration":0.1875,"durationBeats":0.5,"durationTicks":480,"endBeat":134.85729166666667,"endTick":129463,"endTime":50.571484375,"note":64,"startBeat":134.35729166666667,"startTick":128983,"startTime":50.383984375,"velocity":68},{"channel":0,"duration":0.1875,"durationBeats":0.5,"durationTicks":480,"endBeat":134.85729166666667,"endTick":129463,"endTime":50.571484375,"note":60,"startBeat":134.35729166666667,"startTick":128983,"startTime":50.383984375,"velocity":68},{"channel":0,"duration":0.1875,"durationBeats":0.5,"durationTicks":480,"endBeat":134.85729166666667,"endTick":129463,"endTime":50.571484375,"note":38,"startBeat":134.35729166666667,"startTick":128983,"startTime":50.383984375,"velocity":68},{"channel":1,"duration":0.1875,"durationBeats":0.5,"durationTicks":480,"endBeat":134.909375,"endTick":129513,"endTime":50.591015625000004,"note":31,"startBeat":134.409375,"startTick":129033,"startTime":50.403515625000004,"velocity":50},{"channel":9,"duration":0.09375,"durationBeats":0.25,"durationTicks":240,"endBeat":135.08333333333334,"endTick":129680,"endTime":50.65625,"note":42,"startBeat":134.83333333333334,"startTick":129440,"startTime":50.5625,"velocity":50},{"channel":0,"duration":0.09375,"durationBeats":0.25,"durationTicks":240,"endBeat":135.10729166666667,"endTick":129703,"endTime":50.665234375,"note":76,"startBeat":134.85729166666667,"startTick":129463,"startTime":50.571484375,"velocity":68},{"channel":2,"duration":0.1875,"durationBeats":0.5,"durationTicks":480,"endBeat":135.13854166666667,"endTick":129733,"endTime":50.676953125,"note":32,"startBeat":134.63854166666667,"startTick":129253,"startTime":50.489453125,"velocity":57},{"channel":9,"duration":0.09375,"durationBeats":0.25,"durationTicks":240,"endBeat":135.18229166666666,"endTick":129775,"endTime":50.693359375,"note":35,"startBeat":134.93229166666666,"startTick":129535,"startTime":50.599609375,"velocity":50},{"channel":9,"duration":0.09375,"durationBeats":0.25,"durationTicks":240,"endBeat":135.33333333333334,"endTick":129920,"endTime":50.75,"note":42,"startBeat":135.08333333333334,"startTick":129680,"startTime":50.65625,"velocity":50},{"channel":0,"duration":0.1875,"durationBeats":0.5,"durationTicks":480,"endBeat":135.35729166666667,"endTick":129943,"endTime":50.758984375,"note":50,"startBeat":134.85729166666667,"startTick":129463,"startTime":50.571484375,"velocity":68},{"channel":0,"duration":0.09375,"durationBeats":0.25,"durationTicks":240,"endBeat":135.35729166666667,"endTick":129943,"endTime":50.758984375,"note":77,"startBeat":135.10729166666667,"startTick":129703,"startTime":50.665234375,"velocity":68},{"channel":1,"duration":0.1875,"durationBeats":0.5,"durationTicks":480,"endBeat":135.409375,"endTick":129993,"endTime":50.778515625000004,"note":32,"startBeat":134.909375,"startTick":129513,"startTime":50.591015625000004,"velocity":50},{"channel":0,"duration":0.09375,"durationBeats":0.25,"durationTicks":240,"endBeat":135.60729166666667,"endTick":130183,"endTime":50.852734375,"note":79,"startBeat":135.35729166666667,"startTick":129943,"startTime":50.758984375,"velocity":68},{"channel":2,"duration":0.1875,"durationBeats":0.5,"durationTicks":480,"endBeat":135.63854166666667,"endTick":130213,"endTime":50.864453125,"note":33,"startBeat":135.13854166666667,"startTick":129733,"startTime":50.676953125,"velocity":57},{"channel":0,"duration":0.1875,"durationBeats":0.5,"durationTicks":480,"endBeat":135.85729166666667,"endTick":130423,"endTime":50.946484375,"note":38,"startBeat":135.35729166666667,"startTick":129943,"startTime":50.758984375,"velocity":68},{"channel":0,"duration":0.09375,"durationBeats":0.25,"durationTicks":240,"endBeat":135.85729166666667,"endTick":130423,"endTime":50.946484375,"note":77,"startBeat":135.60729166666667,"startTick":130183,"startTime":50.852734375,"velocity":68},{"channel":1,"duration":0.1875,"durationBeats":0.5,"durationTicks":480,"endBeat":135.909375,"endTick":130473,"endTime":50.966015625000004,"note":33,"startBeat":135.409375,"startTick":129993,"startTime":50.778515625000004,"velocity":50},{"channel":9,"duration":0.09375,"durationBeats":0.25,"durationTicks":240,"endBeat":135.91145833333334,"endTick":130475,"endTime":50.966796875,"note":35,"startBeat":135.66145833333334,"startTick":130235,"startTime":50.873046875,"velocity":50},{"channel":9,"duration":0.09375,"durationBeats":0.25,"durationTicks":240,"endBeat":136.08333333333334,"endTick":130640,"endTime":51.03125,"note":42,"startBeat":135.83333333333334,"startTick":130400,"startTime":50.9375,"velocity":50},{"channel":0,"duration":0.09375,"durationBeats":0.25,"durationTicks":240,"endBeat":136.10729166666667,"endTick":130663,"endTime":51.040234375,"note":76,"startBeat":135.85729166666667,"startTick":130423,"startTime":50.946484375,"velocity":68},{"channel":2,"duration":0.09375,"durationBeats":0.25,"durationTicks":240,"endBeat":136.13854166666667,"endTick":130693,"endTime":51.051953125,"note":33,"startBeat":135.88854166666667,"startTick":130453,"startTime":50.958203125,"velocity":57},{"channel":9,"duration":0.09375,"durationBeats":0.25,"durationTicks":240,"endBeat":136.18229166666666,"endTick":130735,"endTime":51.068359375,"note":35,"startBeat":135.93229166666666,"startTick":130495,"startTime":50.974609375,"velocity":50},{"channel":9,"duration":0.09375,"durationBeats":0.25,"durationTicks":240,"endBeat":136.33333333333334,"endTick":130880,"endTime":51.125,"note":42,"startBeat":136.08333333333334,"startTick":130640,"startTime":51.03125,"velocity":50},{"channel":0,"duration":0.1875,"durationBeats":0.5,"durationTicks":480,"endBeat":136.35729166666667,"endTick":130903,"endTime":51.133984375,"note":45,"startBeat":135.85729166666667,"startTick":130423,"startTime":50.946484375,"velocity":68},{"channel":0,"duration":0.09375,"durationBeats":0.25,"durationTicks":240,"endBeat":136.35729166666667,"endTick":130903,"endTime":51.133984375,"note":72,"startBeat":136.10729166666667,"startTick":130663,"startTime":51.040234375,"velocity":68},{"channel":1,"duration":0.09375,"durationBeats":0.25,"durationTicks":240,"endBeat":136.409375,"endTick":130953,"endTime":51.153515625000004,"note":33,"startBeat":136.159375,"startTick":130713,"startTime":51.059765625000004,"velocity":50},{"channel":0,"duration":0.09375,"durationBeats":0.25,"durationTicks":240,"endBeat":136.60729166666667,"endTick":131143,"endTime":51.227734375,"note":69,"startBeat":136.35729166666667,"startTick":130903,"startTime":51.133984375,"velocity":68},{"channel":0,"duration":0.1875,"durationBeats":0.5,"durationTicks":480,"endBeat":136.85729166666667,"endTick":131383,"endTime":51.321484375,"note":38,"startBeat":136.35729166666667,"startTick":130903,"startTime":51.133984375,"velocity":68},{"channel":0,"duration":0.09375,"durationBeats":0.25,"durationTicks":240,"endBeat":136.85729166666667,"endTick":131383,"endTime":51.321484375,"note":67,"startBeat":136.60729166666667,"startTick":131143,"startTime":51.227734375,"velocity":68},{"channel":9,"duration":0.09375,"durationBeats":0.25,"durationTicks":240,"endBeat":136.91145833333334,"endTick":131435,"endTime":51.341796875,"note":35,"startBeat":136.66145833333334,"startTick":131195,"startTime":51.248046875,"velocity":50},{"channel":9,"duration":0.09375,"durationBeats":0.25,"durationTicks":240,"endBeat":137.08333333333334,"endTick":131600,"endTime":51.40625,"note":42,"startBeat":136.83333333333334,"startTick":131360,"startTime":51.3125,"velocity":50},{"channel":0,"duration":0.09375,"durationBeats":0.25,"durationTicks":240,"endBeat":137.10729166666667,"endTick":131623,"endTime":51.415234375,"note":69,"startBeat":136.85729166666667,"startTick":131383,"startTime":51.321484375,"velocity":68},{"channel":2,"duration":0.1875,"durationBeats":0.5,"durationTicks":480,"endBeat":137.13854166666667,"endTick":131653,"endTime":51.426953125,"note":26,"startBeat":136.63854166666667,"startTick":131173,"startTime":51.239453125,"velocity":57},{"channel":9,"duration":0.09375,"durationBeats":0.25,"durationTicks":240,"endBeat":137.18229166666666,"endTick":131695,"endTime":51.443359375,"note":35,"startBeat":136.93229166666666,"startTick":131455,"startTime":51.349609375,"velocity":50},{"channel":0,"duration":0.1875,"durationBeats":0.5,"durationTicks":480,"endBeat":137.35729166666667,"endTick":131863,"endTime":51.508984375,"note":50,"startBeat":136.85729166666667,"startTick":131383,"startTime":51.321484375,"velocity":68},{"channel":0,"duration":0.09375,"durationBeats":0.25,"durationTicks":240,"endBeat":137.35729166666667,"endTick":131863,"endTime":51.508984375,"note":62,"startBeat":137.10729166666667,"startTick":131623,"startTime":51.415234375,"velocity":68},{"channel":1,"duration":0.1875,"durationBeats":0.5,"durationTicks":480,"endBeat":137.409375,"endTick":131913,"endTime":51.528515625000004,"note":26,"startBeat":136.909375,"startTick":131433,"startTime":51.341015625000004,"velocity":50},{"channel":0,"duration":0.09375,"durationBeats":0.25,"durationTicks":240,"endBeat":137.60729166666667,"endTick":132103,"endTime":51.602734375,"note":60,"startBeat":137.35729166666667,"startTick":131863,"startTime":51.508984375,"velocity":68},{"channel":9,"duration":0.09375,"durationBeats":0.25,"durationTicks":240,"endBeat":137.66145833333334,"endTick":132155,"endTime":51.623046875,"note":35,"startBeat":137.41145833333334,"startTick":131915,"startTime":51.529296875,"velocity":50},{"channel":9,"duration":0.09375,"durationBeats":0.25,"durationTicks":240,"endBeat":137.83333333333334,"endTick":132320,"endTime":51.6875,"note":42,"startBeat":137.58333333333334,"startTick":132080,"startTime":51.59375,"velocity":50},{"channel":0,"duration":0.1875,"durationBeats":0.5,"durationTicks":480,"endBeat":137.85729166666667,"endTick":132343,"endTime":51.696484375,"note":38,"startBeat":137.35729166666667,"startTick":131863,"startTime":51.508984375,"velocity":68},{"channel":0,"duration":0.09375,"durationBeats":0.25,"durationTicks":240,"endBeat":137.85729166666667,"endTick":132343,"endTime":51.696484375,"note":65,"startBeat":137.60729166666667,"startTick":132103,"startTime":51.602734375,"velocity":68},{"channel":9,"duration":0.0234375,"durationBeats":0.0625,"durationTicks":60,"endBeat":137.89583333333334,"endTick":132380,"endTime":51.7109375,"note":42,"startBeat":137.83333333333334,"startTick":132320,"startTime":51.6875,"velocity":50},{"channel":9,"duration":0.09375,"durationBeats":0.25,"durationTicks":240,"endBeat":137.93229166666666,"endTick":132415,"endTime":51.724609375,"note":35,"startBeat":137.68229166666666,"startTick":132175,"startTime":51.630859375,"velocity":50},{"channel":9,"duration":0.0234375,"durationBeats":0.0625,"durationTicks":60,"endBeat":138.02083333333334,"endTick":132500,"endTime":51.7578125,"note":42,"startBeat":137.95833333333334,"startTick":132440,"startTime":51.734375,"velocity":50},{"channel":2,"duration":0.1875,"durationBeats":0.5,"durationTicks":480,"endBeat":138.13854166666667,"endTick":132613,"endTime":51.801953125,"note":38,"startBeat":137.63854166666667,"startTick":132133,"startTime":51.614453125,"velocity":57},{"channel":9,"duration":0.0234375,"durationBeats":0.0625,"durationTicks":60,"endBeat":138.14583333333334,"endTick":132620,"endTime":51.8046875,"note":42,"startBeat":138.08333333333334,"startTick":132560,"startTime":51.78125,"velocity":50},{"channel":9,"duration":0.0234375,"durationBeats":0.0625,"durationTicks":60,"endBeat":138.27083333333334,"endTick":132740,"endTime":51.8515625,"note":42,"startBeat":138.20833333333334,"startTick":132680,"startTime":51.828125,"velocity":50},{"channel":0,"duration":0.1875,"durationBeats":0.5,"durationTicks":480,"endBeat":138.35729166666667,"endTick":132823,"endTime":51.883984375,"note":69,"startBeat":137.85729166666667,"startTick":132343,"startTime":51.696484375,"velocity":68},{"channel":0,"duration":0.1875,"durationBeats":0.5,"durationTicks":480,"endBeat":138.35729166666667,"endTick":132823,"endTime":51.883984375,"note":60,"startBeat":137.85729166666667,"startTick":132343,"startTime":51.696484375,"velocity":68},{"channel":0,"duration":0.1875,"durationBeats":0.5,"durationTicks":480,"endBeat":138.35729166666667,"endTick":132823,"endTime":51.883984375,"note":64,"startBeat":137.85729166666667,"startTick":132343,"startTime":51.696484375,"velocity":68},{"channel":0,"duration":0.1875,"durationBeats":0.5,"durationTicks":480,"endBeat":138.35729166666667,"endTick":132823,"endTime":51.883984375,"note":45,"startBeat":137.85729166666667,"startTick":132343,"startTime":51.696484375,"velocity":68},{"channel":9,"duration":0.0234375,"durationBeats":0.0625,"durationTicks":60,"endBeat":138.39583333333334,"endTick":132860,"endTime":51.8984375,"note":42,"startBeat":138.33333333333334,"startTick":132800,"startTime":51.875,"velocity":50},{"channel":1,"duration":0.1875,"durationBeats":0.5,"durationTicks":480,"endBeat":138.409375,"endTick":132873,"endTime":51.903515625000004,"note":38,"startBeat":137.909375,"startTick":132393,"startTime":51.716015625000004,"velocity":50},{"channel":9,"duration":0.09375,"durationBeats":0.25,"durationTicks":240,"endBeat":138.41145833333334,"endTick":132875,"endTime":51.904296875,"note":35,"startBeat":138.16145833333334,"startTick":132635,"startTime":51.810546875,"velocity":50},{"channel":2,"duration":0.1875,"durationBeats":0.5,"durationTicks":480,"endBeat":138.63854166666667,"endTick":133093,"endTime":51.989453125,"note":26,"startBeat":138.13854166666667,"startTick":132613,"startTime":51.801953125,"velocity":57},{"channel":9,"duration":0.0078125,"durationBeats":0.020833333333314386,"durationTicks":20,"endBeat":138.68229166666666,"endTick":133135,"endTime":52.005859375,"note":35,"startBeat":138.66145833333334,"startTick":133115,"startTime":51.998046875,"velocity":50},{"channel":0,"duration":0.1875,"durationBeats":0.5,"durationTicks":480,"endBeat":138.85729166666667,"endTick":133303,"endTime":52.071484375,"note":44,"startBeat":138.35729166666667,"startTick":132823,"startTime":51.883984375,"velocity":68},{"channel":0,"duration":0.1875,"durationBeats":0.5,"durationTicks":480,"endBeat":138.85729166666667,"endTick":133303,"endTime":52.071484375,"note":68,"startBeat":138.35729166666667,"startTick":132823,"startTime":51.883984375,"velocity":68},{"channel":0,"duration":0.1875,"durationBeats":0.5,"durationTicks":480,"endBeat":138.85729166666667,"endTick":133303,"endTime":52.071484375,"note":63,"startBeat":138.35729166666667,"startTick":132823,"startTime":51.883984375,"velocity":68},{"channel":0,"duration":0.1875,"durationBeats":0.5,"durationTicks":480,"endBeat":138.85729166666667,"endTick":133303,"endTime":52.071484375,"note":59,"startBeat":138.35729166666667,"startTick":132823,"startTime":51.883984375,"velocity":68},{"channel":1,"duration":0.1875,"durationBeats":0.5,"durationTicks":480,"endBeat":138.909375,"endTick":133353,"endTime":52.091015625000004,"note":26,"startBeat":138.409375,"startTick":132873,"startTime":51.903515625000004,"velocity":50},{"channel":9,"duration":0.09375,"durationBeats":0.25,"durationTicks":240,"endBeat":139.08333333333334,"endTick":133520,"endTime":52.15625,"note":42,"startBeat":138.83333333333334,"startTick":133280,"startTime":52.0625,"velocity":50},{"channel":2,"duration":0.1875,"durationBeats":0.5,"durationTicks":480,"endBeat":139.13854166666667,"endTick":133573,"endTime":52.176953125,"note":33,"startBeat":138.63854166666667,"startTick":133093,"startTime":51.989453125,"velocity":57},{"channel":9,"duration":0.09375,"durationBeats":0.25,"durationTicks":240,"endBeat":139.18229166666666,"endTick":133615,"endTime":52.193359375,"note":35,"startBeat":138.93229166666666,"startTick":133375,"startTime":52.099609375,"velocity":50},{"channel":9,"duration":0.09375,"durationBeats":0.25,"durationTicks":240,"endBeat":139.35416666666666,"endTick":133780,"endTime":52.2578125,"note":42,"startBeat":139.10416666666666,"startTick":133540,"startTime":52.1640625,"velocity":50},{"channel":0,"duration":0.1875,"durationBeats":0.5,"durationTicks":480,"endBeat":139.35729166666667,"endTick":133783,"endTime":52.258984375,"note":43,"startBeat":138.85729166666667,"startTick":133303,"startTime":52.071484375,"velocity":68},{"channel":1,"duration":0.1875,"durationBeats":0.5,"durationTicks":480,"endBeat":139.409375,"endTick":133833,"endTime":52.278515625000004,"note":33,"startBeat":138.909375,"startTick":133353,"startTime":52.091015625000004,"velocity":50},{"channel":0,"duration":0.375,"durationBeats":1,"durationTicks":960,"endBeat":139.85729166666667,"endTick":134263,"endTime":52.446484375,"note":69,"startBeat":138.85729166666667,"startTick":133303,"startTime":52.071484375,"velocity":68},{"channel":0,"duration":0.375,"durationBeats":1,"durationTicks":960,"endBeat":139.85729166666667,"endTick":134263,"endTime":52.446484375,"note":65,"startBeat":138.85729166666667,"startTick":133303,"startTime":52.071484375,"velocity":68},{"channel":0,"duration":0.375,"durationBeats":1,"durationTicks":960,"endBeat":139.85729166666667,"endTick":134263,"endTime":52.446484375,"note":62,"startBeat":138.85729166666667,"startTick":133303,"startTime":52.071484375,"velocity":68},{"channel":0,"duration":0.375,"durationBeats":1,"durationTicks":960,"endBeat":139.85729166666667,"endTick":134263,"endTime":52.446484375,"note":58,"startBeat":138.85729166666667,"startTick":133303,"startTime":52.071484375,"velocity":68},{"channel":0,"duration":0.1875,"durationBeats":0.5,"durationTicks":480,"endBeat":139.85729166666667,"endTick":134263,"endTime":52.446484375,"note":50,"startBeat":139.35729166666667,"startTick":133783,"startTime":52.258984375,"velocity":68},{"channel":9,"duration":0.09375,"durationBeats":0.25,"durationTicks":240,"endBeat":139.91145833333334,"endTick":134315,"endTime":52.466796875,"note":35,"startBeat":139.66145833333334,"startTick":134075,"startTime":52.373046875,"velocity":50},{"channel":9,"duration":0.09375,"durationBeats":0.25,"durationTicks":240,"endBeat":140.08333333333334,"endTick":134480,"endTime":52.53125,"note":42,"startBeat":139.83333333333334,"startTick":134240,"startTime":52.4375,"velocity":50},{"channel":2,"duration":0.1875,"durationBeats":0.5,"durationTicks":480,"endBeat":140.13854166666667,"endTick":134533,"endTime":52.551953125,"note":26,"startBeat":139.63854166666667,"startTick":134053,"startTime":52.364453125,"velocity":57},{"channel":9,"duration":0.09375,"durationBeats":0.25,"durationTicks":240,"endBeat":140.18229166666666,"endTick":134575,"endTime":52.568359375,"note":35,"startBeat":139.93229166666666,"startTick":134335,"startTime":52.474609375,"velocity":50},{"channel":9,"duration":0.09375,"durationBeats":0.25,"durationTicks":240,"endBeat":140.35416666666666,"endTick":134740,"endTime":52.6328125,"note":42,"startBeat":140.10416666666666,"startTick":134500,"startTime":52.5390625,"velocity":50},{"channel":0,"duration":0.1875,"durationBeats":0.5,"durationTicks":480,"endBeat":140.35729166666667,"endTick":134743,"endTime":52.633984375,"note":43,"startBeat":139.85729166666667,"startTick":134263,"startTime":52.446484375,"velocity":68},{"channel":1,"duration":0.1875,"durationBeats":0.5,"durationTicks":480,"endBeat":140.409375,"endTick":134793,"endTime":52.653515625000004,"note":26,"startBeat":139.909375,"startTick":134313,"startTime":52.466015625000004,"velocity":50},{"channel":0,"duration":0.09375,"durationBeats":0.25,"durationTicks":240,"endBeat":140.60729166666667,"endTick":134983,"endTime":52.727734375,"note":65,"startBeat":140.35729166666667,"startTick":134743,"startTime":52.633984375,"velocity":68},{"channel":2,"duration":0.1875,"durationBeats":0.5,"durationTicks":480,"endBeat":140.63854166666667,"endTick":135013,"endTime":52.739453125,"note":33,"startBeat":140.13854166666667,"startTick":134533,"startTime":52.551953125,"velocity":57},{"channel":10,"duration":0.09375,"durationBeats":0.25,"durationTicks":240,"endBeat":140.753125,"endTick":135123,"endTime":52.782421875000004,"note":86,"startBeat":140.503125,"startTick":134883,"startTime":52.688671875000004,"velocity":50},{"channel":0,"duration":0.1875,"durationBeats":0.5,"durationTicks":480,"endBeat":140.85729166666667,"endTick":135223,"endTime":52.821484375,"note":44,"startBeat":140.35729166666667,"startTick":134743,"startTime":52.633984375,"velocity":68},{"channel":0,"duration":0.09375,"durationBeats":0.25,"durationTicks":240,"endBeat":140.85729166666667,"endTick":135223,"endTime":52.821484375,"note":69,"startBeat":140.60729166666667,"startTick":134983,"startTime":52.727734375,"velocity":68},{"channel":1,"duration":0.1875,"durationBeats":0.5,"durationTicks":480,"endBeat":140.909375,"endTick":135273,"endTime":52.841015625000004,"note":33,"startBeat":140.409375,"startTick":134793,"startTime":52.653515625000004,"velocity":50},{"channel":9,"duration":0.09375,"durationBeats":0.25,"durationTicks":240,"endBeat":140.91145833333334,"endTick":135275,"endTime":52.841796875,"note":35,"startBeat":140.66145833333334,"startTick":135035,"startTime":52.748046875,"velocity":50},{"channel":10,"duration":0.09375,"durationBeats":0.25,"durationTicks":240,"endBeat":141.003125,"endTick":135363,"endTime":52.876171875000004,"note":89,"startBeat":140.753125,"startTick":135123,"startTime":52.782421875000004,"velocity":50},{"channel":9,"duration":0.09375,"durationBeats":0.25,"durationTicks":240,"endBeat":141.08333333333334,"endTick":135440,"endTime":52.90625,"note":42,"startBeat":140.83333333333334,"startTick":135200,"startTime":52.8125,"velocity":50},{"channel":2,"duration":0.1875,"durationBeats":0.5,"durationTicks":480,"endBeat":141.13854166666667,"endTick":135493,"endTime":52.926953125,"note":32,"startBeat":140.63854166666667,"startTick":135013,"startTime":52.739453125,"velocity":57},{"channel":9,"duration":0.09375,"durationBeats":0.25,"durationTicks":240,"endBeat":141.18229166666666,"endTick":135535,"endTime":52.943359375,"note":35,"startBeat":140.93229166666666,"startTick":135295,"startTime":52.849609375,"velocity":50},{"channel":10,"duration":0.09375,"durationBeats":0.25,"durationTicks":240,"endBeat":141.253125,"endTick":135603,"endTime":52.969921875000004,"note":91,"startBeat":141.003125,"startTick":135363,"startTime":52.876171875000004,"velocity":50},{"channel":9,"duration":0.09375,"durationBeats":0.25,"durationTicks":240,"endBeat":141.35416666666666,"endTick":135700,"endTime":53.0078125,"note":42,"startBeat":141.10416666666666,"startTick":135460,"startTime":52.9140625,"velocity":50},{"channel":0,"duration":0.1875,"durationBeats":0.5,"durationTicks":480,"endBeat":141.35729166666667,"endTick":135703,"endTime":53.008984375,"note":60,"startBeat":140.85729166666667,"startTick":135223,"startTime":52.821484375,"velocity":68},{"channel":0,"duration":0.1875,"durationBeats":0.5,"durationTicks":480,"endBeat":141.35729166666667,"endTick":135703,"endTime":53.008984375,"note":64,"startBeat":140.85729166666667,"startTick":135223,"startTime":52.821484375,"velocity":68},{"channel":0,"duration":0.1875,"durationBeats":0.5,"durationTicks":480,"endBeat":141.35729166666667,"endTick":135703,"endTime":53.008984375,"note":67,"startBeat":140.85729166666667,"startTick":135223,"startTime":52.821484375,"velocity":68},{"channel":0,"duration":0.1875,"durationBeats":0.5,"durationTicks":480,"endBeat":141.35729166666667,"endTick":135703,"endTime":53.008984375,"note":72,"startBeat":140.85729166666667,"startTick":135223,"startTime":52.821484375,"velocity":68},{"channel":0,"duration":0.1875,"durationBeats":0.5,"durationTicks":480,"endBeat":141.35729166666667,"endTick":135703,"endTime":53.008984375,"note":45,"startBeat":140.85729166666667,"startTick":135223,"startTime":52.821484375,"velocity":68},{"channel":1,"duration":0.1875,"durationBeats":0.5,"durationTicks":480,"endBeat":141.409375,"endTick":135753,"endTime":53.028515625000004,"note":32,"startBeat":140.909375,"startTick":135273,"startTime":52.841015625000004,"velocity":50},{"channel":2,"duration":0.1875,"durationBeats":0.5,"durationTicks":480,"endBeat":141.63854166666667,"endTick":135973,"endTime":53.114453125,"note":31,"startBeat":141.13854166666667,"startTick":135493,"startTime":52.926953125,"velocity":57},{"channel":9,"duration":0.09375,"durationBeats":0.25,"durationTicks":240,"endBeat":141.66145833333334,"endTick":135995,"endTime":53.123046875,"note":35,"startBeat":141.41145833333334,"startTick":135755,"startTime":53.029296875,"velocity":50},{"channel":10,"duration":0.09375,"durationBeats":0.25,"durationTicks":240,"endBeat":141.753125,"endTick":136083,"endTime":53.157421875000004,"note":93,"startBeat":141.503125,"startTick":135843,"startTime":53.063671875000004,"velocity":50},{"channel":9,"duration":0.09375,"durationBeats":0.25,"durationTicks":240,"endBeat":141.83333333333334,"endTick":136160,"endTime":53.1875,"note":42,"startBeat":141.58333333333334,"startTick":135920,"startTime":53.09375,"velocity":50},{"channel":0,"duration":0.09375,"durationBeats":0.25,"durationTicks":240,"endBeat":141.85729166666667,"endTick":136183,"endTime":53.196484375,"note":45,"startBeat":141.60729166666667,"startTick":135943,"startTime":53.102734375,"velocity":68},{"channel":1,"duration":0.1875,"durationBeats":0.5,"durationTicks":480,"endBeat":141.909375,"endTick":136233,"endTime":53.216015625000004,"note":31,"startBeat":141.409375,"startTick":135753,"startTime":53.028515625000004,"velocity":50},{"channel":9,"duration":0.09375,"durationBeats":0.25,"durationTicks":240,"endBeat":141.93229166666666,"endTick":136255,"endTime":53.224609375,"note":35,"startBeat":141.68229166666666,"startTick":136015,"startTime":53.130859375,"velocity":50},{"channel":9,"duration":0.09375,"durationBeats":0.25,"durationTicks":240,"endBeat":142.10416666666666,"endTick":136420,"endTime":53.2890625,"note":42,"startBeat":141.85416666666666,"startTick":136180,"startTime":53.1953125,"velocity":50},{"channel":0,"duration":0.1875,"durationBeats":0.5,"durationTicks":480,"endBeat":142.10729166666667,"endTick":136423,"endTime":53.290234375,"note":70,"startBeat":141.60729166666667,"startTick":135943,"startTime":53.102734375,"velocity":68},{"channel":0,"duration":0.1875,"durationBeats":0.5,"durationTicks":480,"endBeat":142.10729166666667,"endTick":136423,"endTime":53.290234375,"note":67,"startBeat":141.60729166666667,"startTick":135943,"startTime":53.102734375,"velocity":68},{"channel":0,"duration":0.1875,"durationBeats":0.5,"durationTicks":480,"endBeat":142.10729166666667,"endTick":136423,"endTime":53.290234375,"note":65,"startBeat":141.60729166666667,"startTick":135943,"startTime":53.102734375,"velocity":68},{"channel":0,"duration":0.1875,"durationBeats":0.5,"durationTicks":480,"endBeat":142.10729166666667,"endTick":136423,"endTime":53.290234375,"note":61,"startBeat":141.60729166666667,"startTick":135943,"startTime":53.102734375,"velocity":68},{"channel":10,"duration":0.09375,"durationBeats":0.25,"durationTicks":240,"endBeat":142.253125,"endTick":136563,"endTime":53.344921875000004,"note":95,"startBeat":142.003125,"startTick":136323,"startTime":53.251171875000004,"velocity":50},{"channel":9,"duration":0.09375,"durationBeats":0.25,"durationTicks":240,"endBeat":142.41145833333334,"endTick":136715,"endTime":53.404296875,"note":35,"startBeat":142.16145833333334,"startTick":136475,"startTime":53.310546875,"velocity":50},{"channel":2,"duration":0.1875,"durationBeats":0.5,"durationTicks":480,"endBeat":142.63854166666667,"endTick":136933,"endTime":53.489453125,"note":31,"startBeat":142.13854166666667,"startTick":136453,"startTime":53.301953125,"velocity":57},{"channel":9,"duration":0.0078125,"durationBeats":0.020833333333314386,"durationTicks":20,"endBeat":142.68229166666666,"endTick":136975,"endTime":53.505859375,"note":35,"startBeat":142.66145833333334,"startTick":136955,"startTime":53.498046875,"velocity":50},{"channel":10,"duration":0.09375,"durationBeats":0.25,"durationTicks":240,"endBeat":142.753125,"endTick":137043,"endTime":53.532421875000004,"note":94,"startBeat":142.503125,"startTick":136803,"startTime":53.438671875000004,"velocity":50},{"channel":0,"duration":0.1875,"durationBeats":0.5,"durationTicks":480,"endBeat":142.85729166666667,"endTick":137143,"endTime":53.571484375,"note":69,"startBeat":142.35729166666667,"startTick":136663,"startTime":53.383984375,"velocity":68},{"channel":0,"duration":0.1875,"durationBeats":0.5,"durationTicks":480,"endBeat":142.85729166666667,"endTick":137143,"endTime":53.571484375,"note":65,"startBeat":142.35729166666667,"startTick":136663,"startTime":53.383984375,"velocity":68},{"channel":0,"duration":0.1875,"durationBeats":0.5,"durationTicks":480,"endBeat":142.85729166666667,"endTick":137143,"endTime":53.571484375,"note":64,"startBeat":142.35729166666667,"startTick":136663,"startTime":53.383984375,"velocity":68},{"channel":0,"duration":0.1875,"durationBeats":0.5,"durationTicks":480,"endBeat":142.85729166666667,"endTick":137143,"endTime":53.571484375,"note":60,"startBeat":142.35729166666667,"startTick":136663,"startTime":53.383984375,"velocity":68},{"channel":0,"duration":0.1875,"durationBeats":0.5,"durationTicks":480,"endBeat":142.85729166666667,"endTick":137143,"endTime":53.571484375,"note":38,"startBeat":142.35729166666667,"startTick":136663,"startTime":53.383984375,"velocity":68},{"channel":1,"duration":0.1875,"durationBeats":0.5,"durationTicks":480,"endBeat":142.909375,"endTick":137193,"endTime":53.591015625000004,"note":31,"startBeat":142.409375,"startTick":136713,"startTime":53.403515625000004,"velocity":50},{"channel":9,"duration":0.09375,"durationBeats":0.25,"durationTicks":240,"endBeat":143.08333333333334,"endTick":137360,"endTime":53.65625,"note":42,"startBeat":142.83333333333334,"startTick":137120,"startTime":53.5625,"velocity":50},{"channel":0,"duration":0.09375,"durationBeats":0.25,"durationTicks":240,"endBeat":143.10729166666667,"endTick":137383,"endTime":53.665234375,"note":76,"startBeat":142.85729166666667,"startTick":137143,"startTime":53.571484375,"velocity":68},{"channel":2,"duration":0.1875,"durationBeats":0.5,"durationTicks":480,"endBeat":143.13854166666667,"endTick":137413,"endTime":53.676953125,"note":32,"startBeat":142.63854166666667,"startTick":136933,"startTime":53.489453125,"velocity":57},{"channel":9,"duration":0.09375,"durationBeats":0.25,"durationTicks":240,"endBeat":143.18229166666666,"endTick":137455,"endTime":53.693359375,"note":35,"startBeat":142.93229166666666,"startTick":137215,"startTime":53.599609375,"velocity":50},{"channel":10,"duration":0.09375,"durationBeats":0.25,"durationTicks":240,"endBeat":143.253125,"endTick":137523,"endTime":53.719921875000004,"note":93,"startBeat":143.003125,"startTick":137283,"startTime":53.626171875000004,"velocity":50},{"channel":9,"duration":0.09375,"durationBeats":0.25,"durationTicks":240,"endBeat":143.35416666666666,"endTick":137620,"endTime":53.7578125,"note":42,"startBeat":143.10416666666666,"startTick":137380,"startTime":53.6640625,"velocity":50},{"channel":0,"duration":0.09375,"durationBeats":0.25,"durationTicks":240,"endBeat":143.35729166666667,"endTick":137623,"endTime":53.758984375,"note":77,"startBeat":143.10729166666667,"startTick":137383,"startTime":53.665234375,"velocity":68},{"channel":1,"duration":0.1875,"durationBeats":0.5,"durationTicks":480,"endBeat":143.409375,"endTick":137673,"endTime":53.778515625000004,"note":32,"startBeat":142.909375,"startTick":137193,"startTime":53.591015625000004,"velocity":50},{"channel":0,"duration":0.09375,"durationBeats":0.25,"durationTicks":240,"endBeat":143.60729166666667,"endTick":137863,"endTime":53.852734375,"note":76,"startBeat":143.35729166666667,"startTick":137623,"startTime":53.758984375,"velocity":68},{"channel":2,"duration":0.1875,"durationBeats":0.5,"durationTicks":480,"endBeat":143.63854166666667,"endTick":137893,"endTime":53.864453125,"note":33,"startBeat":143.13854166666667,"startTick":137413,"startTime":53.676953125,"velocity":57},{"channel":10,"duration":0.09375,"durationBeats":0.25,"durationTicks":240,"endBeat":143.753125,"endTick":138003,"endTime":53.907421875000004,"note":92,"startBeat":143.503125,"startTick":137763,"startTime":53.813671875000004,"velocity":50},{"channel":0,"duration":0.1875,"durationBeats":0.5,"durationTicks":480,"endBeat":143.85729166666667,"endTick":138103,"endTime":53.946484375,"note":50,"startBeat":143.35729166666667,"startTick":137623,"startTime":53.758984375,"velocity":68},{"channel":0,"duration":0.09375,"durationBeats":0.25,"durationTicks":240,"endBeat":143.85729166666667,"endTick":138103,"endTime":53.946484375,"note":72,"startBeat":143.60729166666667,"startTick":137863,"startTime":53.852734375,"velocity":68},{"channel":1,"duration":0.1875,"durationBeats":0.5,"durationTicks":480,"endBeat":143.909375,"endTick":138153,"endTime":53.966015625000004,"note":33,"startBeat":143.409375,"startTick":137673,"startTime":53.778515625000004,"velocity":50},{"channel":9,"duration":0.09375,"durationBeats":0.25,"durationTicks":240,"endBeat":143.91145833333334,"endTick":138155,"endTime":53.966796875,"note":35,"startBeat":143.66145833333334,"startTick":137915,"startTime":53.873046875,"velocity":50},{"channel":9,"duration":0.09375,"durationBeats":0.25,"durationTicks":240,"endBeat":144.08333333333334,"endTick":138320,"endTime":54.03125,"note":42,"startBeat":143.83333333333334,"startTick":138080,"startTime":53.9375,"velocity":50},{"channel":0,"duration":0.09375,"durationBeats":0.25,"durationTicks":240,"endBeat":144.10729166666667,"endTick":138343,"endTime":54.040234375,"note":76,"startBeat":143.85729166666667,"startTick":138103,"startTime":53.946484375,"velocity":68},{"channel":2,"duration":0.09375,"durationBeats":0.25,"durationTicks":240,"endBeat":144.13854166666667,"endTick":138373,"endTime":54.051953125,"note":33,"startBeat":143.88854166666667,"startTick":138133,"startTime":53.958203125,"velocity":57},{"channel":9,"duration":0.09375,"durationBeats":0.25,"durationTicks":240,"endBeat":144.18229166666666,"endTick":138415,"endTime":54.068359375,"note":35,"startBeat":143.93229166666666,"startTick":138175,"startTime":53.974609375,"velocity":50},{"channel":9,"duration":0.09375,"durationBeats":0.25,"durationTicks":240,"endBeat":144.35416666666666,"endTick":138580,"endTime":54.1328125,"note":42,"startBeat":144.10416666666666,"startTick":138340,"startTime":54.0390625,"velocity":50},{"channel":0,"duration":0.1875,"durationBeats":0.5,"durationTicks":480,"endBeat":144.35729166666667,"endTick":138583,"endTime":54.133984375,"note":38,"startBeat":143.85729166666667,"startTick":138103,"startTime":53.946484375,"velocity":68},{"channel":0,"duration":0.09375,"durationBeats":0.25,"durationTicks":240,"endBeat":144.35729166666667,"endTick":138583,"endTime":54.133984375,"note":72,"startBeat":144.10729166666667,"startTick":138343,"startTime":54.040234375,"velocity":68},{"channel":1,"duration":0.09375,"durationBeats":0.25,"durationTicks":240,"endBeat":144.409375,"endTick":138633,"endTime":54.153515625000004,"note":33,"startBeat":144.159375,"startTick":138393,"startTime":54.059765625000004,"velocity":50},{"channel":0,"duration":0.09375,"durationBeats":0.25,"durationTicks":240,"endBeat":144.60729166666667,"endTick":138823,"endTime":54.227734375,"note":69,"startBeat":144.35729166666667,"startTick":138583,"startTime":54.133984375,"velocity":68},{"channel":9,"duration":0.09375,"durationBeats":0.25,"durationTicks":240,"endBeat":144.68229166666666,"endTick":138895,"endTime":54.255859375,"note":42,"startBeat":144.43229166666666,"startTick":138655,"startTime":54.162109375,"velocity":50},{"channel":0,"duration":0.1875,"durationBeats":0.5,"durationTicks":480,"endBeat":144.85729166666667,"endTick":139063,"endTime":54.321484375,"note":45,"startBeat":144.35729166666667,"startTick":138583,"startTime":54.133984375,"velocity":68},{"channel":0,"duration":0.09375,"durationBeats":0.25,"durationTicks":240,"endBeat":144.85729166666667,"endTick":139063,"endTime":54.321484375,"note":67,"startBeat":144.60729166666667,"startTick":138823,"startTime":54.227734375,"velocity":68},{"channel":9,"duration":0.09375,"durationBeats":0.25,"durationTicks":240,"endBeat":144.91145833333334,"endTick":139115,"endTime":54.341796875,"note":35,"startBeat":144.66145833333334,"startTick":138875,"startTime":54.248046875,"velocity":50},{"channel":9,"duration":0.09375,"durationBeats":0.25,"durationTicks":240,"endBeat":145.08333333333334,"endTick":139280,"endTime":54.40625,"note":42,"startBeat":144.83333333333334,"startTick":139040,"startTime":54.3125,"velocity":50},{"channel":0,"duration":0.09375,"durationBeats":0.25,"durationTicks":240,"endBeat":145.10729166666667,"endTick":139303,"endTime":54.415234375,"note":69,"startBeat":144.85729166666667,"startTick":139063,"startTime":54.321484375,"velocity":68},{"channel":2,"duration":0.1875,"durationBeats":0.5,"durationTicks":480,"endBeat":145.13854166666667,"endTick":139333,"endTime":54.426953125,"note":26,"startBeat":144.63854166666667,"startTick":138853,"startTime":54.239453125,"velocity":57},{"channel":9,"duration":0.09375,"durationBeats":0.25,"durationTicks":240,"endBeat":145.18229166666666,"endTick":139375,"endTime":54.443359375,"note":35,"startBeat":144.93229166666666,"startTick":139135,"startTime":54.349609375,"velocity":50},{"channel":9,"duration":0.0390625,"durationBeats":0.10416666666665719,"durationTicks":100,"endBeat":145.35416666666666,"endTick":139540,"endTime":54.5078125,"note":42,"startBeat":145.25,"startTick":139440,"startTime":54.46875,"velocity":50},{"channel":0,"duration":0.1875,"durationBeats":0.5,"durationTicks":480,"endBeat":145.35729166666667,"endTick":139543,"endTime":54.508984375,"note":50,"startBeat":144.85729166666667,"startTick":139063,"startTime":54.321484375,"velocity":68},{"channel":0,"duration":0.09375,"durationBeats":0.25,"durationTicks":240,"endBeat":145.35729166666667,"endTick":139543,"endTime":54.508984375,"note":62,"startBeat":145.10729166666667,"startTick":139303,"startTime":54.415234375,"velocity":68},{"channel":1,"duration":0.1875,"durationBeats":0.5,"durationTicks":480,"endBeat":145.409375,"endTick":139593,"endTime":54.528515625000004,"note":26,"startBeat":144.909375,"startTick":139113,"startTime":54.341015625000004,"velocity":50},{"channel":0,"duration":0.09375,"durationBeats":0.25,"durationTicks":240,"endBeat":145.60729166666667,"endTick":139783,"endTime":54.602734375,"note":60,"startBeat":145.35729166666667,"startTick":139543,"startTime":54.508984375,"velocity":68},{"channel":9,"duration":0.09375,"durationBeats":0.25,"durationTicks":240,"endBeat":145.66145833333334,"endTick":139835,"endTime":54.623046875,"note":35,"startBeat":145.41145833333334,"startTick":139595,"startTime":54.529296875,"velocity":50},{"channel":9,"duration":0.0625,"durationBeats":0.1666666666666572,"durationTicks":160,"endBeat":145.75,"endTick":139920,"endTime":54.65625,"note":42,"startBeat":145.58333333333334,"startTick":139760,"startTime":54.59375,"velocity":50},{"channel":0,"duration":0.1875,"durationBeats":0.5,"durationTicks":480,"endBeat":145.85729166666667,"endTick":140023,"endTime":54.696484375,"note":38,"startBeat":145.35729166666667,"startTick":139543,"startTime":54.508984375,"velocity":68},{"channel":0,"duration":0.09375,"durationBeats":0.25,"durationTicks":240,"endBeat":145.85729166666667,"endTick":140023,"endTime":54.696484375,"note":65,"startBeat":145.60729166666667,"startTick":139783,"startTime":54.602734375,"velocity":68},{"channel":9,"duration":0.09375,"durationBeats":0.25,"durationTicks":240,"endBeat":145.93229166666666,"endTick":140095,"endTime":54.724609375,"note":35,"startBeat":145.68229166666666,"startTick":139855,"startTime":54.630859375,"velocity":50},{"channel":9,"duration":0.09375,"durationBeats":0.25,"durationTicks":240,"endBeat":146.10416666666666,"endTick":140260,"endTime":54.7890625,"note":42,"startBeat":145.85416666666666,"startTick":140020,"startTime":54.6953125,"velocity":50},{"channel":2,"duration":0.1875,"durationBeats":0.5,"durationTicks":480,"endBeat":146.13854166666667,"endTick":140293,"endTime":54.801953125,"note":26,"startBeat":145.63854166666667,"startTick":139813,"startTime":54.614453125,"velocity":57},{"channel":0,"duration":0.1875,"durationBeats":0.5,"durationTicks":480,"endBeat":146.35729166666667,"endTick":140503,"endTime":54.883984375,"note":45,"startBeat":145.85729166666667,"startTick":140023,"startTime":54.696484375,"velocity":68},{"channel":0,"duration":0.1875,"durationBeats":0.5,"durationTicks":480,"endBeat":146.35729166666667,"endTick":140503,"endTime":54.883984375,"note":69,"startBeat":145.85729166666667,"startTick":140023,"startTime":54.696484375,"velocity":68},{"channel":0,"duration":0.1875,"durationBeats":0.5,"durationTicks":480,"endBeat":146.35729166666667,"endTick":140503,"endTime":54.883984375,"note":60,"startBeat":145.85729166666667,"startTick":140023,"startTime":54.696484375,"velocity":68},{"channel":0,"duration":0.1875,"durationBeats":0.5,"durationTicks":480,"endBeat":146.35729166666667,"endTick":140503,"endTime":54.883984375,"note":64,"startBeat":145.85729166666667,"startTick":140023,"startTime":54.696484375,"velocity":68},{"channel":1,"duration":0.1875,"durationBeats":0.5,"durationTicks":480,"endBeat":146.409375,"endTick":140553,"endTime":54.903515625000004,"note":26,"startBeat":145.909375,"startTick":140073,"startTime":54.716015625000004,"velocity":50},{"channel":9,"duration":0.09375,"durationBeats":0.25,"durationTicks":240,"endBeat":146.41145833333334,"endTick":140555,"endTime":54.904296875,"note":35,"startBeat":146.16145833333334,"startTick":140315,"startTime":54.810546875,"velocity":50},{"channel":9,"duration":0.09375,"durationBeats":0.25,"durationTicks":240,"endBeat":146.5,"endTick":140640,"endTime":54.9375,"note":42,"startBeat":146.25,"startTick":140400,"startTime":54.84375,"velocity":50},{"channel":2,"duration":0.1875,"durationBeats":0.5,"durationTicks":480,"endBeat":146.63854166666667,"endTick":140773,"endTime":54.989453125,"note":33,"startBeat":146.13854166666667,"startTick":140293,"startTime":54.801953125,"velocity":57},{"channel":9,"duration":0.0078125,"durationBeats":0.020833333333314386,"durationTicks":20,"endBeat":146.68229166666666,"endTick":140815,"endTime":55.005859375,"note":35,"startBeat":146.66145833333334,"startTick":140795,"startTime":54.998046875,"velocity":50},{"channel":9,"duration":0.09375,"durationBeats":0.25,"durationTicks":240,"endBeat":146.75,"endTick":140880,"endTime":55.03125,"note":42,"startBeat":146.5,"startTick":140640,"startTime":54.9375,"velocity":50},{"channel":0,"duration":0.1875,"durationBeats":0.5,"durationTicks":480,"endBeat":146.85729166666667,"endTick":140983,"endTime":55.071484375,"note":44,"startBeat":146.35729166666667,"startTick":140503,"startTime":54.883984375,"velocity":68},{"channel":0,"duration":0.1875,"durationBeats":0.5,"durationTicks":480,"endBeat":146.85729166666667,"endTick":140983,"endTime":55.071484375,"note":68,"startBeat":146.35729166666667,"startTick":140503,"startTime":54.883984375,"velocity":68},{"channel":0,"duration":0.1875,"durationBeats":0.5,"durationTicks":480,"endBeat":146.85729166666667,"endTick":140983,"endTime":55.071484375,"note":63,"startBeat":146.35729166666667,"startTick":140503,"startTime":54.883984375,"velocity":68},{"channel":0,"duration":0.1875,"durationBeats":0.5,"durationTicks":480,"endBeat":146.85729166666667,"endTick":140983,"endTime":55.071484375,"note":59,"startBeat":146.35729166666667,"startTick":140503,"startTime":54.883984375,"velocity":68},{"channel":1,"duration":0.1875,"durationBeats":0.5,"durationTicks":480,"endBeat":146.909375,"endTick":141033,"endTime":55.091015625000004,"note":33,"startBeat":146.409375,"startTick":140553,"startTime":54.903515625000004,"velocity":50},{"channel":9,"duration":0.09375,"durationBeats":0.25,"durationTicks":240,"endBeat":147.08333333333334,"endTick":141200,"endTime":55.15625,"note":42,"startBeat":146.83333333333334,"startTick":140960,"startTime":55.0625,"velocity":50},{"channel":2,"duration":0.1875,"durationBeats":0.5,"durationTicks":480,"endBeat":147.13854166666667,"endTick":141253,"endTime":55.176953125,"note":26,"startBeat":146.63854166666667,"startTick":140773,"startTime":54.989453125,"velocity":57},{"channel":9,"duration":0.09375,"durationBeats":0.25,"durationTicks":240,"endBeat":147.18229166666666,"endTick":141295,"endTime":55.193359375,"note":35,"startBeat":146.93229166666666,"startTick":141055,"startTime":55.099609375,"velocity":50},{"channel":9,"duration":0.0390625,"durationBeats":0.10416666666665719,"durationTicks":100,"endBeat":147.35416666666666,"endTick":141460,"endTime":55.2578125,"note":42,"startBeat":147.25,"startTick":141360,"startTime":55.21875,"velocity":50},{"channel":0,"duration":0.1875,"durationBeats":0.5,"durationTicks":480,"endBeat":147.35729166666667,"endTick":141463,"endTime":55.258984375,"note":43,"startBeat":146.85729166666667,"startTick":140983,"startTime":55.071484375,"velocity":68},{"channel":1,"duration":0.1875,"durationBeats":0.5,"durationTicks":480,"endBeat":147.409375,"endTick":141513,"endTime":55.278515625000004,"note":26,"startBeat":146.909375,"startTick":141033,"startTime":55.091015625000004,"velocity":50},{"channel":2,"duration":0.1875,"durationBeats":0.5,"durationTicks":480,"endBeat":147.63854166666667,"endTick":141733,"endTime":55.364453125,"note":38,"startBeat":147.13854166666667,"startTick":141253,"startTime":55.176953125,"velocity":57},{"channel":0,"duration":0.375,"durationBeats":1,"durationTicks":960,"endBeat":147.85729166666667,"endTick":141943,"endTime":55.446484375,"note":69,"startBeat":146.85729166666667,"startTick":140983,"startTime":55.071484375,"velocity":68},{"channel":0,"duration":0.375,"durationBeats":1,"durationTicks":960,"endBeat":147.85729166666667,"endTick":141943,"endTime":55.446484375,"note":65,"startBeat":146.85729166666667,"startTick":140983,"startTime":55.071484375,"velocity":68},{"channel":0,"duration":0.375,"durationBeats":1,"durationTicks":960,"endBeat":147.85729166666667,"endTick":141943,"endTime":55.446484375,"note":62,"startBeat":146.85729166666667,"startTick":140983,"startTime":55.071484375,"velocity":68},{"channel":0,"duration":0.375,"durationBeats":1,"durationTicks":960,"endBeat":147.85729166666667,"endTick":141943,"endTime":55.446484375,"note":58,"startBeat":146.85729166666667,"startTick":140983,"startTime":55.071484375,"velocity":68},{"channel":1,"duration":0.1875,"durationBeats":0.5,"durationTicks":480,"endBeat":147.909375,"endTick":141993,"endTime":55.466015625000004,"note":38,"startBeat":147.409375,"startTick":141513,"startTime":55.278515625000004,"velocity":50},{"channel":9,"duration":0.09375,"durationBeats":0.25,"durationTicks":240,"endBeat":147.91145833333334,"endTick":141995,"endTime":55.466796875,"note":35,"startBeat":147.66145833333334,"startTick":141755,"startTime":55.373046875,"velocity":50},{"channel":9,"duration":0.03125,"durationBeats":0.08333333333334281,"durationTicks":80,"endBeat":148.08333333333334,"endTick":142160,"endTime":55.53125,"note":42,"startBeat":148,"startTick":142080,"startTime":55.5,"velocity":50},{"channel":2,"duration":0.1875,"durationBeats":0.5,"durationTicks":480,"endBeat":148.13854166666667,"endTick":142213,"endTime":55.551953125,"note":26,"startBeat":147.63854166666667,"startTick":141733,"startTime":55.364453125,"velocity":57},{"channel":9,"duration":0.09375,"durationBeats":0.25,"durationTicks":240,"endBeat":148.18229166666666,"endTick":142255,"endTime":55.568359375,"note":35,"startBeat":147.93229166666666,"startTick":142015,"startTime":55.474609375,"velocity":50},{"channel":9,"duration":0.0546875,"durationBeats":0.1458333333333428,"durationTicks":140,"endBeat":148.25,"endTick":142320,"endTime":55.59375,"note":42,"startBeat":148.10416666666666,"startTick":142180,"startTime":55.5390625,"velocity":50},{"channel":9,"duration":0.0234375,"durationBeats":0.0625,"durationTicks":60,"endBeat":148.3125,"endTick":142380,"endTime":55.6171875,"note":42,"startBeat":148.25,"startTick":142320,"startTime":55.59375,"velocity":50},{"channel":0,"duration":0.1875,"durationBeats":0.5,"durationTicks":480,"endBeat":148.35729166666667,"endTick":142423,"endTime":55.633984375,"note":43,"startBeat":147.85729166666667,"startTick":141943,"startTime":55.446484375,"velocity":68},{"channel":1,"duration":0.1875,"durationBeats":0.5,"durationTicks":480,"endBeat":148.409375,"endTick":142473,"endTime":55.653515625000004,"note":26,"startBeat":147.909375,"startTick":141993,"startTime":55.466015625000004,"velocity":50},{"channel":9,"duration":0.0234375,"durationBeats":0.0625,"durationTicks":60,"endBeat":148.4375,"endTick":142500,"endTime":55.6640625,"note":42,"startBeat":148.375,"startTick":142440,"startTime":55.640625,"velocity":50},{"channel":9,"duration":0.0234375,"durationBeats":0.0625,"durationTicks":60,"endBeat":148.5625,"endTick":142620,"endTime":55.7109375,"note":42,"startBeat":148.5,"startTick":142560,"startTime":55.6875,"velocity":50},{"channel":0,"duration":0.09375,"durationBeats":0.25,"durationTicks":240,"endBeat":148.60729166666667,"endTick":142663,"endTime":55.727734375,"note":65,"startBeat":148.35729166666667,"startTick":142423,"startTime":55.633984375,"velocity":68},{"channel":2,"duration":0.1875,"durationBeats":0.5,"durationTicks":480,"endBeat":148.63854166666667,"endTick":142693,"endTime":55.739453125,"note":33,"startBeat":148.13854166666667,"startTick":142213,"startTime":55.551953125,"velocity":57},{"channel":9,"duration":0.0234375,"durationBeats":0.0625,"durationTicks":60,"endBeat":148.6875,"endTick":142740,"endTime":55.7578125,"note":42,"startBeat":148.625,"startTick":142680,"startTime":55.734375,"velocity":50},{"channel":9,"duration":0.0234375,"durationBeats":0.0625,"durationTicks":60,"endBeat":148.8125,"endTick":142860,"endTime":55.8046875,"note":42,"startBeat":148.75,"startTick":142800,"startTime":55.78125,"velocity":50},{"channel":0,"duration":0.1875,"durationBeats":0.5,"durationTicks":480,"endBeat":148.85729166666667,"endTick":142903,"endTime":55.821484375,"note":44,"startBeat":148.35729166666667,"startTick":142423,"startTime":55.633984375,"velocity":68},{"channel":0,"duration":0.09375,"durationBeats":0.25,"durationTicks":240,"endBeat":148.85729166666667,"endTick":142903,"endTime":55.821484375,"note":69,"startBeat":148.60729166666667,"startTick":142663,"startTime":55.727734375,"velocity":68},{"channel":1,"duration":0.1875,"durationBeats":0.5,"durationTicks":480,"endBeat":148.909375,"endTick":142953,"endTime":55.841015625000004,"note":33,"startBeat":148.409375,"startTick":142473,"startTime":55.653515625000004,"velocity":50},{"channel":9,"duration":0.09375,"durationBeats":0.25,"durationTicks":240,"endBeat":148.91145833333334,"endTick":142955,"endTime":55.841796875,"note":35,"startBeat":148.66145833333334,"startTick":142715,"startTime":55.748046875,"velocity":50},{"channel":9,"duration":0.09375,"durationBeats":0.25,"durationTicks":240,"endBeat":149.08333333333334,"endTick":143120,"endTime":55.90625,"note":42,"startBeat":148.83333333333334,"startTick":142880,"startTime":55.8125,"velocity":50},{"channel":2,"duration":0.1875,"durationBeats":0.5,"durationTicks":480,"endBeat":149.13854166666667,"endTick":143173,"endTime":55.926953125,"note":32,"startBeat":148.63854166666667,"startTick":142693,"startTime":55.739453125,"velocity":57},{"channel":9,"duration":0.09375,"durationBeats":0.25,"durationTicks":240,"endBeat":149.18229166666666,"endTick":143215,"endTime":55.943359375,"note":35,"startBeat":148.93229166666666,"startTick":142975,"startTime":55.849609375,"velocity":50},{"channel":9,"duration":0.0390625,"durationBeats":0.10416666666665719,"durationTicks":100,"endBeat":149.35416666666666,"endTick":143380,"endTime":56.0078125,"note":42,"startBeat":149.25,"startTick":143280,"startTime":55.96875,"velocity":50},{"channel":0,"duration":0.1875,"durationBeats":0.5,"durationTicks":480,"endBeat":149.35729166666667,"endTick":143383,"endTime":56.008984375,"note":60,"startBeat":148.85729166666667,"startTick":142903,"startTime":55.821484375,"velocity":68},{"channel":0,"duration":0.1875,"durationBeats":0.5,"durationTicks":480,"endBeat":149.35729166666667,"endTick":143383,"endTime":56.008984375,"note":64,"startBeat":148.85729166666667,"startTick":142903,"startTime":55.821484375,"velocity":68},{"channel":0,"duration":0.1875,"durationBeats":0.5,"durationTicks":480,"endBeat":149.35729166666667,"endTick":143383,"endTime":56.008984375,"note":67,"startBeat":148.85729166666667,"startTick":142903,"startTime":55.821484375,"velocity":68},{"channel":0,"duration":0.1875,"durationBeats":0.5,"durationTicks":480,"endBeat":149.35729166666667,"endTick":143383,"endTime":56.008984375,"note":72,"startBeat":148.85729166666667,"startTick":142903,"startTime":55.821484375,"velocity":68},{"channel":0,"duration":0.1875,"durationBeats":0.5,"durationTicks":480,"endBeat":149.35729166666667,"endTick":143383,"endTime":56.008984375,"note":45,"startBeat":148.85729166666667,"startTick":142903,"startTime":55.821484375,"velocity":68},{"channel":1,"duration":0.1875,"durationBeats":0.5,"durationTicks":480,"endBeat":149.409375,"endTick":143433,"endTime":56.028515625000004,"note":32,"startBeat":148.909375,"startTick":142953,"startTime":55.841015625000004,"velocity":50},{"channel":2,"duration":0.1875,"durationBeats":0.5,"durationTicks":480,"endBeat":149.63854166666667,"endTick":143653,"endTime":56.114453125,"note":31,"startBeat":149.13854166666667,"startTick":143173,"startTime":55.926953125,"velocity":57},{"channel":9,"duration":0.09375,"durationBeats":0.25,"durationTicks":240,"endBeat":149.66145833333334,"endTick":143675,"endTime":56.123046875,"note":35,"startBeat":149.41145833333334,"startTick":143435,"startTime":56.029296875,"velocity":50},{"channel":9,"duration":0.0625,"durationBeats":0.1666666666666572,"durationTicks":160,"endBeat":149.75,"endTick":143760,"endTime":56.15625,"note":42,"startBeat":149.58333333333334,"startTick":143600,"startTime":56.09375,"velocity":50},{"channel":0,"duration":0.09375,"durationBeats":0.25,"durationTicks":240,"endBeat":149.85729166666667,"endTick":143863,"endTime":56.196484375,"note":45,"startBeat":149.60729166666667,"startTick":143623,"startTime":56.102734375,"velocity":68},{"channel":1,"duration":0.1875,"durationBeats":0.5,"durationTicks":480,"endBeat":149.909375,"endTick":143913,"endTime":56.216015625000004,"note":31,"startBeat":149.409375,"startTick":143433,"startTime":56.028515625000004,"velocity":50},{"channel":9,"duration":0.09375,"durationBeats":0.25,"durationTicks":240,"endBeat":149.93229166666666,"endTick":143935,"endTime":56.224609375,"note":35,"startBeat":149.68229166666666,"startTick":143695,"startTime":56.130859375,"velocity":50},{"channel":9,"duration":0.09375,"durationBeats":0.25,"durationTicks":240,"endBeat":150.10416666666666,"endTick":144100,"endTime":56.2890625,"note":42,"startBeat":149.85416666666666,"startTick":143860,"startTime":56.1953125,"velocity":50},{"channel":0,"duration":0.1875,"durationBeats":0.5,"durationTicks":480,"endBeat":150.10729166666667,"endTick":144103,"endTime":56.290234375,"note":70,"startBeat":149.60729166666667,"startTick":143623,"startTime":56.102734375,"velocity":68},{"channel":0,"duration":0.1875,"durationBeats":0.5,"durationTicks":480,"endBeat":150.10729166666667,"endTick":144103,"endTime":56.290234375,"note":67,"startBeat":149.60729166666667,"startTick":143623,"startTime":56.102734375,"velocity":68},{"channel":0,"duration":0.1875,"durationBeats":0.5,"durationTicks":480,"endBeat":150.10729166666667,"endTick":144103,"endTime":56.290234375,"note":65,"startBeat":149.60729166666667,"startTick":143623,"startTime":56.102734375,"velocity":68},{"channel":0,"duration":0.1875,"durationBeats":0.5,"durationTicks":480,"endBeat":150.10729166666667,"endTick":144103,"endTime":56.290234375,"note":61,"startBeat":149.60729166666667,"startTick":143623,"startTime":56.102734375,"velocity":68},{"channel":9,"duration":0.09375,"durationBeats":0.25,"durationTicks":240,"endBeat":150.41145833333334,"endTick":144395,"endTime":56.404296875,"note":35,"startBeat":150.16145833333334,"startTick":144155,"startTime":56.310546875,"velocity":50},{"channel":9,"duration":0.09375,"durationBeats":0.25,"durationTicks":240,"endBeat":150.5,"endTick":144480,"endTime":56.4375,"note":42,"startBeat":150.25,"startTick":144240,"startTime":56.34375,"velocity":50},{"channel":2,"duration":0.1875,"durationBeats":0.5,"durationTicks":480,"endBeat":150.63854166666667,"endTick":144613,"endTime":56.489453125,"note":31,"startBeat":150.13854166666667,"startTick":144133,"startTime":56.301953125,"velocity":57},{"channel":9,"duration":0.0078125,"durationBeats":0.020833333333314386,"durationTicks":20,"endBeat":150.68229166666666,"endTick":144655,"endTime":56.505859375,"note":35,"startBeat":150.66145833333334,"startTick":144635,"startTime":56.498046875,"velocity":50},{"channel":9,"duration":0.09375,"durationBeats":0.25,"durationTicks":240,"endBeat":150.75,"endTick":144720,"endTime":56.53125,"note":42,"startBeat":150.5,"startTick":144480,"startTime":56.4375,"velocity":50},{"channel":0,"duration":0.1875,"durationBeats":0.5,"durationTicks":480,"endBeat":150.85729166666667,"endTick":144823,"endTime":56.571484375,"note":69,"startBeat":150.35729166666667,"startTick":144343,"startTime":56.383984375,"velocity":68},{"channel":0,"duration":0.1875,"durationBeats":0.5,"durationTicks":480,"endBeat":150.85729166666667,"endTick":144823,"endTime":56.571484375,"note":65,"startBeat":150.35729166666667,"startTick":144343,"startTime":56.383984375,"velocity":68},{"channel":0,"duration":0.1875,"durationBeats":0.5,"durationTicks":480,"endBeat":150.85729166666667,"endTick":144823,"endTime":56.571484375,"note":64,"startBeat":150.35729166666667,"startTick":144343,"startTime":56.383984375,"velocity":68},{"channel":0,"duration":0.1875,"durationBeats":0.5,"durationTicks":480,"endBeat":150.85729166666667,"endTick":144823,"endTime":56.571484375,"note":60,"startBeat":150.35729166666667,"startTick":144343,"startTime":56.383984375,"velocity":68},{"channel":0,"duration":0.1875,"durationBeats":0.5,"durationTicks":480,"endBeat":150.85729166666667,"endTick":144823,"endTime":56.571484375,"note":38,"startBeat":150.35729166666667,"startTick":144343,"startTime":56.383984375,"velocity":68},{"channel":1,"duration":0.1875,"durationBeats":0.5,"durationTicks":480,"endBeat":150.909375,"endTick":144873,"endTime":56.591015625000004,"note":31,"startBeat":150.409375,"startTick":144393,"startTime":56.403515625000004,"velocity":50},{"channel":9,"duration":0.09375,"durationBeats":0.25,"durationTicks":240,"endBeat":151.08333333333334,"endTick":145040,"endTime":56.65625,"note":42,"startBeat":150.83333333333334,"startTick":144800,"startTime":56.5625,"velocity":50},{"channel":0,"duration":0.09375,"durationBeats":0.25,"durationTicks":240,"endBeat":151.10729166666667,"endTick":145063,"endTime":56.665234375,"note":76,"startBeat":150.85729166666667,"startTick":144823,"startTime":56.571484375,"velocity":68},{"channel":2,"duration":0.1875,"durationBeats":0.5,"durationTicks":480,"endBeat":151.13854166666667,"endTick":145093,"endTime":56.676953125,"note":32,"startBeat":150.63854166666667,"startTick":144613,"startTime":56.489453125,"velocity":57},{"channel":9,"duration":0.09375,"durationBeats":0.25,"durationTicks":240,"endBeat":151.18229166666666,"endTick":145135,"endTime":56.693359375,"note":35,"startBeat":150.93229166666666,"startTick":144895,"startTime":56.599609375,"velocity":50},{"channel":9,"duration":0.0390625,"durationBeats":0.10416666666665719,"durationTicks":100,"endBeat":151.35416666666666,"endTick":145300,"endTime":56.7578125,"note":42,"startBeat":151.25,"startTick":145200,"startTime":56.71875,"velocity":50},{"channel":0,"duration":0.1875,"durationBeats":0.5,"durationTicks":480,"endBeat":151.35729166666667,"endTick":145303,"endTime":56.758984375,"note":50,"startBeat":150.85729166666667,"startTick":144823,"startTime":56.571484375,"velocity":68},{"channel":0,"duration":0.09375,"durationBeats":0.25,"durationTicks":240,"endBeat":151.35729166666667,"endTick":145303,"endTime":56.758984375,"note":77,"startBeat":151.10729166666667,"startTick":145063,"startTime":56.665234375,"velocity":68},{"channel":1,"duration":0.1875,"durationBeats":0.5,"durationTicks":480,"endBeat":151.409375,"endTick":145353,"endTime":56.778515625000004,"note":32,"startBeat":150.909375,"startTick":144873,"startTime":56.591015625000004,"velocity":50},{"channel":0,"duration":0.09375,"durationBeats":0.25,"durationTicks":240,"endBeat":151.60729166666667,"endTick":145543,"endTime":56.852734375,"note":79,"startBeat":151.35729166666667,"startTick":145303,"startTime":56.758984375,"velocity":68},{"channel":2,"duration":0.1875,"durationBeats":0.5,"durationTicks":480,"endBeat":151.63854166666667,"endTick":145573,"endTime":56.864453125,"note":33,"startBeat":151.13854166666667,"startTick":145093,"startTime":56.676953125,"velocity":57},{"channel":0,"duration":0.1875,"durationBeats":0.5,"durationTicks":480,"endBeat":151.85729166666667,"endTick":145783,"endTime":56.946484375,"note":38,"startBeat":151.35729166666667,"startTick":145303,"startTime":56.758984375,"velocity":68},{"channel":0,"duration":0.09375,"durationBeats":0.25,"durationTicks":240,"endBeat":151.85729166666667,"endTick":145783,"endTime":56.946484375,"note":77,"startBeat":151.60729166666667,"startTick":145543,"startTime":56.852734375,"velocity":68},{"channel":1,"duration":0.1875,"durationBeats":0.5,"durationTicks":480,"endBeat":151.909375,"endTick":145833,"endTime":56.966015625000004,"note":33,"startBeat":151.409375,"startTick":145353,"startTime":56.778515625000004,"velocity":50},{"channel":9,"duration":0.09375,"durationBeats":0.25,"durationTicks":240,"endBeat":151.91145833333334,"endTick":145835,"endTime":56.966796875,"note":35,"startBeat":151.66145833333334,"startTick":145595,"startTime":56.873046875,"velocity":50},{"channel":9,"duration":0.03125,"durationBeats":0.08333333333334281,"durationTicks":80,"endBeat":152.08333333333334,"endTick":146000,"endTime":57.03125,"note":42,"startBeat":152,"startTick":145920,"startTime":57,"velocity":50},{"channel":0,"duration":0.09375,"durationBeats":0.25,"durationTicks":240,"endBeat":152.10729166666667,"endTick":146023,"endTime":57.040234375,"note":76,"startBeat":151.85729166666667,"startTick":145783,"startTime":56.946484375,"velocity":68},{"channel":2,"duration":0.09375,"durationBeats":0.25,"durationTicks":240,"endBeat":152.13854166666667,"endTick":146053,"endTime":57.051953125,"note":33,"startBeat":151.88854166666667,"startTick":145813,"startTime":56.958203125,"velocity":57},{"channel":9,"duration":0.09375,"durationBeats":0.25,"durationTicks":240,"endBeat":152.18229166666666,"endTick":146095,"endTime":57.068359375,"note":35,"startBeat":151.93229166666666,"startTick":145855,"startTime":56.974609375,"velocity":50},{"channel":9,"duration":0.0546875,"durationBeats":0.1458333333333428,"durationTicks":140,"endBeat":152.25,"endTick":146160,"endTime":57.09375,"note":42,"startBeat":152.10416666666666,"startTick":146020,"startTime":57.0390625,"velocity":50},{"channel":9,"duration":0.0234375,"durationBeats":0.0625,"durationTicks":60,"endBeat":152.3125,"endTick":146220,"endTime":57.1171875,"note":42,"startBeat":152.25,"startTick":146160,"startTime":57.09375,"velocity":50},{"channel":0,"duration":0.1875,"durationBeats":0.5,"durationTicks":480,"endBeat":152.35729166666667,"endTick":146263,"endTime":57.133984375,"note":45,"startBeat":151.85729166666667,"startTick":145783,"startTime":56.946484375,"velocity":68},{"channel":0,"duration":0.09375,"durationBeats":0.25,"durationTicks":240,"endBeat":152.35729166666667,"endTick":146263,"endTime":57.133984375,"note":72,"startBeat":152.10729166666667,"startTick":146023,"startTime":57.040234375,"velocity":68},{"channel":1,"duration":0.09375,"durationBeats":0.25,"durationTicks":240,"endBeat":152.409375,"endTick":146313,"endTime":57.153515625000004,"note":33,"startBeat":152.159375,"startTick":146073,"startTime":57.059765625000004,"velocity":50},{"channel":9,"duration":0.0234375,"durationBeats":0.0625,"durationTicks":60,"endBeat":152.4375,"endTick":146340,"endTime":57.1640625,"note":42,"startBeat":152.375,"startTick":146280,"startTime":57.140625,"velocity":50},{"channel":9,"duration":0.0234375,"durationBeats":0.0625,"durationTicks":60,"endBeat":152.5625,"endTick":146460,"endTime":57.2109375,"note":42,"startBeat":152.5,"startTick":146400,"startTime":57.1875,"velocity":50},{"channel":0,"duration":0.09375,"durationBeats":0.25,"durationTicks":240,"endBeat":152.60729166666667,"endTick":146503,"endTime":57.227734375,"note":69,"startBeat":152.35729166666667,"startTick":146263,"startTime":57.133984375,"velocity":68},{"channel":9,"duration":0.0234375,"durationBeats":0.0625,"durationTicks":60,"endBeat":152.6875,"endTick":146580,"endTime":57.2578125,"note":42,"startBeat":152.625,"startTick":146520,"startTime":57.234375,"velocity":50},{"channel":9,"duration":0.0234375,"durationBeats":0.0625,"durationTicks":60,"endBeat":152.8125,"endTick":146700,"endTime":57.3046875,"note":42,"startBeat":152.75,"startTick":146640,"startTime":57.28125,"velocity":50},{"channel":0,"duration":0.1875,"durationBeats":0.5,"durationTicks":480,"endBeat":152.85729166666667,"endTick":146743,"endTime":57.321484375,"note":38,"startBeat":152.35729166666667,"startTick":146263,"startTime":57.133984375,"velocity":68},{"channel":0,"duration":0.09375,"durationBeats":0.25,"durationTicks":240,"endBeat":152.85729166666667,"endTick":146743,"endTime":57.321484375,"note":67,"startBeat":152.60729166666667,"startTick":146503,"startTime":57.227734375,"velocity":68},{"channel":9,"duration":0.09375,"durationBeats":0.25,"durationTicks":240,"endBeat":152.91145833333334,"endTick":146795,"endTime":57.341796875,"note":35,"startBeat":152.66145833333334,"startTick":146555,"startTime":57.248046875,"velocity":50},{"channel":9,"duration":0.09375,"durationBeats":0.25,"durationTicks":240,"endBeat":153.08333333333334,"endTick":146960,"endTime":57.40625,"note":42,"startBeat":152.83333333333334,"startTick":146720,"startTime":57.3125,"velocity":50},{"channel":0,"duration":0.09375,"durationBeats":0.25,"durationTicks":240,"endBeat":153.10729166666667,"endTick":146983,"endTime":57.415234375,"note":69,"startBeat":152.85729166666667,"startTick":146743,"startTime":57.321484375,"velocity":68},{"channel":2,"duration":0.1875,"durationBeats":0.5,"durationTicks":480,"endBeat":153.13854166666667,"endTick":147013,"endTime":57.426953125,"note":26,"startBeat":152.63854166666667,"startTick":146533,"startTime":57.239453125,"velocity":57},{"channel":9,"duration":0.09375,"durationBeats":0.25,"durationTicks":240,"endBeat":153.18229166666666,"endTick":147055,"endTime":57.443359375,"note":35,"startBeat":152.93229166666666,"startTick":146815,"startTime":57.349609375,"velocity":50},{"channel":9,"duration":0.0390625,"durationBeats":0.10416666666665719,"durationTicks":100,"endBeat":153.35416666666666,"endTick":147220,"endTime":57.5078125,"note":42,"startBeat":153.25,"startTick":147120,"startTime":57.46875,"velocity":50},{"channel":0,"duration":0.1875,"durationBeats":0.5,"durationTicks":480,"endBeat":153.35729166666667,"endTick":147223,"endTime":57.508984375,"note":50,"startBeat":152.85729166666667,"startTick":146743,"startTime":57.321484375,"velocity":68},{"channel":0,"duration":0.09375,"durationBeats":0.25,"durationTicks":240,"endBeat":153.35729166666667,"endTick":147223,"endTime":57.508984375,"note":62,"startBeat":153.10729166666667,"startTick":146983,"startTime":57.415234375,"velocity":68},{"channel":1,"duration":0.1875,"durationBeats":0.5,"durationTicks":480,"endBeat":153.409375,"endTick":147273,"endTime":57.528515625000004,"note":26,"startBeat":152.909375,"startTick":146793,"startTime":57.341015625000004,"velocity":50},{"channel":0,"duration":0.09375,"durationBeats":0.25,"durationTicks":240,"endBeat":153.60729166666667,"endTick":147463,"endTime":57.602734375,"note":60,"startBeat":153.35729166666667,"startTick":147223,"startTime":57.508984375,"velocity":68},{"channel":9,"duration":0.09375,"durationBeats":0.25,"durationTicks":240,"endBeat":153.66145833333334,"endTick":147515,"endTime":57.623046875,"note":35,"startBeat":153.41145833333334,"startTick":147275,"startTime":57.529296875,"velocity":50},{"channel":9,"duration":0.0625,"durationBeats":0.1666666666666572,"durationTicks":160,"endBeat":153.75,"endTick":147600,"endTime":57.65625,"note":42,"startBeat":153.58333333333334,"startTick":147440,"startTime":57.59375,"velocity":50},{"channel":0,"duration":0.1875,"durationBeats":0.5,"durationTicks":480,"endBeat":153.85729166666667,"endTick":147703,"endTime":57.696484375,"note":38,"startBeat":153.35729166666667,"startTick":147223,"startTime":57.508984375,"velocity":68},{"channel":0,"duration":0.09375,"durationBeats":0.25,"durationTicks":240,"endBeat":153.85729166666667,"endTick":147703,"endTime":57.696484375,"note":65,"startBeat":153.60729166666667,"startTick":147463,"startTime":57.602734375,"velocity":68},{"channel":9,"duration":0.09375,"durationBeats":0.25,"durationTicks":240,"endBeat":153.93229166666666,"endTick":147775,"endTime":57.724609375,"note":35,"startBeat":153.68229166666666,"startTick":147535,"startTime":57.630859375,"velocity":50},{"channel":9,"duration":0.09375,"durationBeats":0.25,"durationTicks":240,"endBeat":154.10416666666666,"endTick":147940,"endTime":57.7890625,"note":42,"startBeat":153.85416666666666,"startTick":147700,"startTime":57.6953125,"velocity":50},{"channel":2,"duration":0.1875,"durationBeats":0.5,"durationTicks":480,"endBeat":154.13854166666667,"endTick":147973,"endTime":57.801953125,"note":38,"startBeat":153.63854166666667,"startTick":147493,"startTime":57.614453125,"velocity":57},{"channel":0,"duration":0.1875,"durationBeats":0.5,"durationTicks":480,"endBeat":154.35729166666667,"endTick":148183,"endTime":57.883984375,"note":69,"startBeat":153.85729166666667,"startTick":147703,"startTime":57.696484375,"velocity":68},{"channel":0,"duration":0.1875,"durationBeats":0.5,"durationTicks":480,"endBeat":154.35729166666667,"endTick":148183,"endTime":57.883984375,"note":60,"startBeat":153.85729166666667,"startTick":147703,"startTime":57.696484375,"velocity":68},{"channel":0,"duration":0.1875,"durationBeats":0.5,"durationTicks":480,"endBeat":154.35729166666667,"endTick":148183,"endTime":57.883984375,"note":64,"startBeat":153.85729166666667,"startTick":147703,"startTime":57.696484375,"velocity":68},{"channel":0,"duration":0.1875,"durationBeats":0.5,"durationTicks":480,"endBeat":154.35729166666667,"endTick":148183,"endTime":57.883984375,"note":45,"startBeat":153.85729166666667,"startTick":147703,"startTime":57.696484375,"velocity":68},{"channel":1,"duration":0.1875,"durationBeats":0.5,"durationTicks":480,"endBeat":154.409375,"endTick":148233,"endTime":57.903515625000004,"note":38,"startBeat":153.909375,"startTick":147753,"startTime":57.716015625000004,"velocity":50},{"channel":9,"duration":0.09375,"durationBeats":0.25,"durationTicks":240,"endBeat":154.41145833333334,"endTick":148235,"endTime":57.904296875,"note":35,"startBeat":154.16145833333334,"startTick":147995,"startTime":57.810546875,"velocity":50},{"channel":9,"duration":0.09375,"durationBeats":0.25,"durationTicks":240,"endBeat":154.5,"endTick":148320,"endTime":57.9375,"note":42,"startBeat":154.25,"startTick":148080,"startTime":57.84375,"velocity":50},{"channel":2,"duration":0.1875,"durationBeats":0.5,"durationTicks":480,"endBeat":154.63854166666667,"endTick":148453,"endTime":57.989453125,"note":26,"startBeat":154.13854166666667,"startTick":147973,"startTime":57.801953125,"velocity":57},{"channel":9,"duration":0.0078125,"durationBeats":0.020833333333314386,"durationTicks":20,"endBeat":154.68229166666666,"endTick":148495,"endTime":58.005859375,"note":35,"startBeat":154.66145833333334,"startTick":148475,"startTime":57.998046875,"velocity":50},{"channel":9,"duration":0.09375,"durationBeats":0.25,"durationTicks":240,"endBeat":154.75,"endTick":148560,"endTime":58.03125,"note":42,"startBeat":154.5,"startTick":148320,"startTime":57.9375,"velocity":50},{"channel":0,"duration":0.1875,"durationBeats":0.5,"durationTicks":480,"endBeat":154.85729166666667,"endTick":148663,"endTime":58.071484375,"note":44,"startBeat":154.35729166666667,"startTick":148183,"startTime":57.883984375,"velocity":68},{"channel":0,"duration":0.1875,"durationBeats":0.5,"durationTicks":480,"endBeat":154.85729166666667,"endTick":148663,"endTime":58.071484375,"note":68,"startBeat":154.35729166666667,"startTick":148183,"startTime":57.883984375,"velocity":68},{"channel":0,"duration":0.1875,"durationBeats":0.5,"durationTicks":480,"endBeat":154.85729166666667,"endTick":148663,"endTime":58.071484375,"note":63,"startBeat":154.35729166666667,"startTick":148183,"startTime":57.883984375,"velocity":68},{"channel":0,"duration":0.1875,"durationBeats":0.5,"durationTicks":480,"endBeat":154.85729166666667,"endTick":148663,"endTime":58.071484375,"note":59,"startBeat":154.35729166666667,"startTick":148183,"startTime":57.883984375,"velocity":68},{"channel":1,"duration":0.1875,"durationBeats":0.5,"durationTicks":480,"endBeat":154.909375,"endTick":148713,"endTime":58.091015625000004,"note":26,"startBeat":154.409375,"startTick":148233,"startTime":57.903515625000004,"velocity":50},{"channel":9,"duration":0.09375,"durationBeats":0.25,"durationTicks":240,"endBeat":155.08333333333334,"endTick":148880,"endTime":58.15625,"note":42,"startBeat":154.83333333333334,"startTick":148640,"startTime":58.0625,"velocity":50},{"channel":2,"duration":0.1875,"durationBeats":0.5,"durationTicks":480,"endBeat":155.13854166666667,"endTick":148933,"endTime":58.176953125,"note":33,"startBeat":154.63854166666667,"startTick":148453,"startTime":57.989453125,"velocity":57},{"channel":9,"duration":0.09375,"durationBeats":0.25,"durationTicks":240,"endBeat":155.18229166666666,"endTick":148975,"endTime":58.193359375,"note":35,"startBeat":154.93229166666666,"startTick":148735,"startTime":58.099609375,"velocity":50},{"channel":9,"duration":0.03125,"durationBeats":0.08333333333334281,"durationTicks":80,"endBeat":155.33333333333334,"endTick":149120,"endTime":58.25,"note":42,"startBeat":155.25,"startTick":149040,"startTime":58.21875,"velocity":50},{"channel":0,"duration":0.1875,"durationBeats":0.5,"durationTicks":480,"endBeat":155.35729166666667,"endTick":149143,"endTime":58.258984375,"note":43,"startBeat":154.85729166666667,"startTick":148663,"startTime":58.071484375,"velocity":68},{"channel":1,"duration":0.1875,"durationBeats":0.5,"durationTicks":480,"endBeat":155.409375,"endTick":149193,"endTime":58.278515625000004,"note":33,"startBeat":154.909375,"startTick":148713,"startTime":58.091015625000004,"velocity":50},{"channel":0,"duration":0.375,"durationBeats":1,"durationTicks":960,"endBeat":155.85729166666667,"endTick":149623,"endTime":58.446484375,"note":69,"startBeat":154.85729166666667,"startTick":148663,"startTime":58.071484375,"velocity":68},{"channel":0,"duration":0.375,"durationBeats":1,"durationTicks":960,"endBeat":155.85729166666667,"endTick":149623,"endTime":58.446484375,"note":65,"startBeat":154.85729166666667,"startTick":148663,"startTime":58.071484375,"velocity":68},{"channel":0,"duration":0.375,"durationBeats":1,"durationTicks":960,"endBeat":155.85729166666667,"endTick":149623,"endTime":58.446484375,"note":62,"startBeat":154.85729166666667,"startTick":148663,"startTime":58.071484375,"velocity":68},{"channel":0,"duration":0.375,"durationBeats":1,"durationTicks":960,"endBeat":155.85729166666667,"endTick":149623,"endTime":58.446484375,"note":58,"startBeat":154.85729166666667,"startTick":148663,"startTime":58.071484375,"velocity":68},{"channel":0,"duration":0.1875,"durationBeats":0.5,"durationTicks":480,"endBeat":155.85729166666667,"endTick":149623,"endTime":58.446484375,"note":50,"startBeat":155.35729166666667,"startTick":149143,"startTime":58.258984375,"velocity":68},{"channel":9,"duration":0.09375,"durationBeats":0.25,"durationTicks":240,"endBeat":155.91145833333334,"endTick":149675,"endTime":58.466796875,"note":35,"startBeat":155.66145833333334,"startTick":149435,"startTime":58.373046875,"velocity":50},{"channel":9,"duration":0.03125,"durationBeats":0.08333333333334281,"durationTicks":80,"endBeat":156.08333333333334,"endTick":149840,"endTime":58.53125,"note":42,"startBeat":156,"startTick":149760,"startTime":58.5,"velocity":50},{"channel":2,"duration":0.1875,"durationBeats":0.5,"durationTicks":480,"endBeat":156.13854166666667,"endTick":149893,"endTime":58.551953125,"note":26,"startBeat":155.63854166666667,"startTick":149413,"startTime":58.364453125,"velocity":57},{"channel":9,"duration":0.09375,"durationBeats":0.25,"durationTicks":240,"endBeat":156.18229166666666,"endTick":149935,"endTime":58.568359375,"note":35,"startBeat":155.93229166666666,"startTick":149695,"startTime":58.474609375,"velocity":50},{"channel":9,"duration":0.0625,"durationBeats":0.1666666666666572,"durationTicks":160,"endBeat":156.25,"endTick":150000,"endTime":58.59375,"note":42,"startBeat":156.08333333333334,"startTick":149840,"startTime":58.53125,"velocity":50},{"channel":9,"duration":0.0234375,"durationBeats":0.0625,"durationTicks":60,"endBeat":156.3125,"endTick":150060,"endTime":58.6171875,"note":42,"startBeat":156.25,"startTick":150000,"startTime":58.59375,"velocity":50},{"channel":0,"duration":0.1875,"durationBeats":0.5,"durationTicks":480,"endBeat":156.35729166666667,"endTick":150103,"endTime":58.633984375,"note":43,"startBeat":155.85729166666667,"startTick":149623,"startTime":58.446484375,"velocity":68},{"channel":1,"duration":0.1875,"durationBeats":0.5,"durationTicks":480,"endBeat":156.409375,"endTick":150153,"endTime":58.653515625000004,"note":26,"startBeat":155.909375,"startTick":149673,"startTime":58.466015625000004,"velocity":50},{"channel":9,"duration":0.0234375,"durationBeats":0.0625,"durationTicks":60,"endBeat":156.4375,"endTick":150180,"endTime":58.6640625,"note":42,"startBeat":156.375,"startTick":150120,"startTime":58.640625,"velocity":50},{"channel":9,"duration":0.0234375,"durationBeats":0.0625,"durationTicks":60,"endBeat":156.5625,"endTick":150300,"endTime":58.7109375,"note":42,"startBeat":156.5,"startTick":150240,"startTime":58.6875,"velocity":50},{"channel":0,"duration":0.09375,"durationBeats":0.25,"durationTicks":240,"endBeat":156.60729166666667,"endTick":150343,"endTime":58.727734375,"note":65,"startBeat":156.35729166666667,"startTick":150103,"startTime":58.633984375,"velocity":68},{"channel":2,"duration":0.1875,"durationBeats":0.5,"durationTicks":480,"endBeat":156.63854166666667,"endTick":150373,"endTime":58.739453125,"note":33,"startBeat":156.13854166666667,"startTick":149893,"startTime":58.551953125,"velocity":57},{"channel":9,"duration":0.0234375,"durationBeats":0.0625,"durationTicks":60,"endBeat":156.6875,"endTick":150420,"endTime":58.7578125,"note":42,"startBeat":156.625,"startTick":150360,"startTime":58.734375,"velocity":50},{"channel":9,"duration":0.0234375,"durationBeats":0.0625,"durationTicks":60,"endBeat":156.8125,"endTick":150540,"endTime":58.8046875,"note":42,"startBeat":156.75,"startTick":150480,"startTime":58.78125,"velocity":50},{"channel":0,"duration":0.1875,"durationBeats":0.5,"durationTicks":480,"endBeat":156.85729166666667,"endTick":150583,"endTime":58.821484375,"note":44,"startBeat":156.35729166666667,"startTick":150103,"startTime":58.633984375,"velocity":68},{"channel":0,"duration":0.09375,"durationBeats":0.25,"durationTicks":240,"endBeat":156.85729166666667,"endTick":150583,"endTime":58.821484375,"note":69,"startBeat":156.60729166666667,"startTick":150343,"startTime":58.727734375,"velocity":68},{"channel":1,"duration":0.1875,"durationBeats":0.5,"durationTicks":480,"endBeat":156.909375,"endTick":150633,"endTime":58.841015625000004,"note":33,"startBeat":156.409375,"startTick":150153,"startTime":58.653515625000004,"velocity":50},{"channel":9,"duration":0.09375,"durationBeats":0.25,"durationTicks":240,"endBeat":156.91145833333334,"endTick":150635,"endTime":58.841796875,"note":35,"startBeat":156.66145833333334,"startTick":150395,"startTime":58.748046875,"velocity":50},{"channel":9,"duration":0.09375,"durationBeats":0.25,"durationTicks":240,"endBeat":157.08333333333334,"endTick":150800,"endTime":58.90625,"note":42,"startBeat":156.83333333333334,"startTick":150560,"startTime":58.8125,"velocity":50},{"channel":2,"duration":0.1875,"durationBeats":0.5,"durationTicks":480,"endBeat":157.13854166666667,"endTick":150853,"endTime":58.926953125,"note":32,"startBeat":156.63854166666667,"startTick":150373,"startTime":58.739453125,"velocity":57},{"channel":9,"duration":0.09375,"durationBeats":0.25,"durationTicks":240,"endBeat":157.18229166666666,"endTick":150895,"endTime":58.943359375,"note":35,"startBeat":156.93229166666666,"startTick":150655,"startTime":58.849609375,"velocity":50},{"channel":0,"duration":0.1875,"durationBeats":0.5,"durationTicks":480,"endBeat":157.35729166666667,"endTick":151063,"endTime":59.008984375,"note":60,"startBeat":156.85729166666667,"startTick":150583,"startTime":58.821484375,"velocity":68},{"channel":0,"duration":0.1875,"durationBeats":0.5,"durationTicks":480,"endBeat":157.35729166666667,"endTick":151063,"endTime":59.008984375,"note":64,"startBeat":156.85729166666667,"startTick":150583,"startTime":58.821484375,"velocity":68},{"channel":0,"duration":0.1875,"durationBeats":0.5,"durationTicks":480,"endBeat":157.35729166666667,"endTick":151063,"endTime":59.008984375,"note":67,"startBeat":156.85729166666667,"startTick":150583,"startTime":58.821484375,"velocity":68},{"channel":0,"duration":0.1875,"durationBeats":0.5,"durationTicks":480,"endBeat":157.35729166666667,"endTick":151063,"endTime":59.008984375,"note":72,"startBeat":156.85729166666667,"startTick":150583,"startTime":58.821484375,"velocity":68},{"channel":0,"duration":0.1875,"durationBeats":0.5,"durationTicks":480,"endBeat":157.35729166666667,"endTick":151063,"endTime":59.008984375,"note":45,"startBeat":156.85729166666667,"startTick":150583,"startTime":58.821484375,"velocity":68},{"channel":1,"duration":0.1875,"durationBeats":0.5,"durationTicks":480,"endBeat":157.409375,"endTick":151113,"endTime":59.028515625000004,"note":32,"startBeat":156.909375,"startTick":150633,"startTime":58.841015625000004,"velocity":50},{"channel":9,"duration":0.09375,"durationBeats":0.25,"durationTicks":240,"endBeat":157.5,"endTick":151200,"endTime":59.0625,"note":42,"startBeat":157.25,"startTick":150960,"startTime":58.96875,"velocity":50},{"channel":2,"duration":0.1875,"durationBeats":0.5,"durationTicks":480,"endBeat":157.63854166666667,"endTick":151333,"endTime":59.114453125,"note":31,"startBeat":157.13854166666667,"startTick":150853,"startTime":58.926953125,"velocity":57},{"channel":9,"duration":0.09375,"durationBeats":0.25,"durationTicks":240,"endBeat":157.66145833333334,"endTick":151355,"endTime":59.123046875,"note":35,"startBeat":157.41145833333334,"startTick":151115,"startTime":59.029296875,"velocity":50},{"channel":9,"duration":0.09375,"durationBeats":0.25,"durationTicks":240,"endBeat":157.83333333333334,"endTick":151520,"endTime":59.1875,"note":42,"startBeat":157.58333333333334,"startTick":151280,"startTime":59.09375,"velocity":50},{"channel":0,"duration":0.09375,"durationBeats":0.25,"durationTicks":240,"endBeat":157.85729166666667,"endTick":151543,"endTime":59.196484375,"note":45,"startBeat":157.60729166666667,"startTick":151303,"startTime":59.102734375,"velocity":68},{"channel":9,"duration":0.0234375,"durationBeats":0.0625,"durationTicks":60,"endBeat":157.89583333333334,"endTick":151580,"endTime":59.2109375,"note":42,"startBeat":157.83333333333334,"startTick":151520,"startTime":59.1875,"velocity":50},{"channel":1,"duration":0.1875,"durationBeats":0.5,"durationTicks":480,"endBeat":157.909375,"endTick":151593,"endTime":59.216015625000004,"note":31,"startBeat":157.409375,"startTick":151113,"startTime":59.028515625000004,"velocity":50},{"channel":9,"duration":0.09375,"durationBeats":0.25,"durationTicks":240,"endBeat":157.93229166666666,"endTick":151615,"endTime":59.224609375,"note":35,"startBeat":157.68229166666666,"startTick":151375,"startTime":59.130859375,"velocity":50},{"channel":9,"duration":0.0234375,"durationBeats":0.0625,"durationTicks":60,"endBeat":158.02083333333334,"endTick":151700,"endTime":59.2578125,"note":42,"startBeat":157.95833333333334,"startTick":151640,"startTime":59.234375,"velocity":50},{"channel":0,"duration":0.1875,"durationBeats":0.5,"durationTicks":480,"endBeat":158.10729166666667,"endTick":151783,"endTime":59.290234375,"note":70,"startBeat":157.60729166666667,"startTick":151303,"startTime":59.102734375,"velocity":68},{"channel":0,"duration":0.1875,"durationBeats":0.5,"durationTicks":480,"endBeat":158.10729166666667,"endTick":151783,"endTime":59.290234375,"note":67,"startBeat":157.60729166666667,"startTick":151303,"startTime":59.102734375,"velocity":68},{"channel":0,"duration":0.1875,"durationBeats":0.5,"durationTicks":480,"endBeat":158.10729166666667,"endTick":151783,"endTime":59.290234375,"note":65,"startBeat":157.60729166666667,"startTick":151303,"startTime":59.102734375,"velocity":68},{"channel":0,"duration":0.1875,"durationBeats":0.5,"durationTicks":480,"endBeat":158.10729166666667,"endTick":151783,"endTime":59.290234375,"note":61,"startBeat":157.60729166666667,"startTick":151303,"startTime":59.102734375,"velocity":68},{"channel":9,"duration":0.0234375,"durationBeats":0.0625,"durationTicks":60,"endBeat":158.14583333333334,"endTick":151820,"endTime":59.3046875,"note":42,"startBeat":158.08333333333334,"startTick":151760,"startTime":59.28125,"velocity":50},{"channel":9,"duration":0.0078125,"durationBeats":0.020833333333342807,"durationTicks":20,"endBeat":158.27083333333334,"endTick":151940,"endTime":59.3515625,"note":42,"startBeat":158.25,"startTick":151920,"startTime":59.34375,"velocity":50},{"channel":9,"duration":0.0234375,"durationBeats":0.0625,"durationTicks":60,"endBeat":158.39583333333334,"endTick":152060,"endTime":59.3984375,"note":42,"startBeat":158.33333333333334,"startTick":152000,"startTime":59.375,"velocity":50},{"channel":9,"duration":0.09375,"durationBeats":0.25,"durationTicks":240,"endBeat":158.41145833333334,"endTick":152075,"endTime":59.404296875,"note":35,"startBeat":158.16145833333334,"startTick":151835,"startTime":59.310546875,"velocity":50},{"channel":2,"duration":0.1875,"durationBeats":0.5,"durationTicks":480,"endBeat":158.63854166666667,"endTick":152293,"endTime":59.489453125,"note":31,"startBeat":158.13854166666667,"startTick":151813,"startTime":59.301953125,"velocity":57},{"channel":9,"duration":0.0078125,"durationBeats":0.020833333333314386,"durationTicks":20,"endBeat":158.68229166666666,"endTick":152335,"endTime":59.505859375,"note":35,"startBeat":158.66145833333334,"startTick":152315,"startTime":59.498046875,"velocity":50},{"channel":9,"duration":0.09375,"durationBeats":0.25,"durationTicks":240,"endBeat":158.75,"endTick":152400,"endTime":59.53125,"note":42,"startBeat":158.5,"startTick":152160,"startTime":59.4375,"velocity":50},{"channel":0,"duration":0.1875,"durationBeats":0.5,"durationTicks":480,"endBeat":158.85729166666667,"endTick":152503,"endTime":59.571484375,"note":69,"startBeat":158.35729166666667,"startTick":152023,"startTime":59.383984375,"velocity":68},{"channel":0,"duration":0.1875,"durationBeats":0.5,"durationTicks":480,"endBeat":158.85729166666667,"endTick":152503,"endTime":59.571484375,"note":65,"startBeat":158.35729166666667,"startTick":152023,"startTime":59.383984375,"velocity":68},{"channel":0,"duration":0.1875,"durationBeats":0.5,"durationTicks":480,"endBeat":158.85729166666667,"endTick":152503,"endTime":59.571484375,"note":64,"startBeat":158.35729166666667,"startTick":152023,"startTime":59.383984375,"velocity":68},{"channel":0,"duration":0.1875,"durationBeats":0.5,"durationTicks":480,"endBeat":158.85729166666667,"endTick":152503,"endTime":59.571484375,"note":60,"startBeat":158.35729166666667,"startTick":152023,"startTime":59.383984375,"velocity":68},{"channel":0,"duration":0.1875,"durationBeats":0.5,"durationTicks":480,"endBeat":158.85729166666667,"endTick":152503,"endTime":59.571484375,"note":38,"startBeat":158.35729166666667,"startTick":152023,"startTime":59.383984375,"velocity":68},{"channel":1,"duration":0.1875,"durationBeats":0.5,"durationTicks":480,"endBeat":158.909375,"endTick":152553,"endTime":59.591015625000004,"note":31,"startBeat":158.409375,"startTick":152073,"startTime":59.403515625000004,"velocity":50},{"channel":9,"duration":0.09375,"durationBeats":0.25,"durationTicks":240,"endBeat":159.08333333333334,"endTick":152720,"endTime":59.65625,"note":42,"startBeat":158.83333333333334,"startTick":152480,"startTime":59.5625,"velocity":50},{"channel":0,"duration":0.09375,"durationBeats":0.25,"durationTicks":240,"endBeat":159.10729166666667,"endTick":152743,"endTime":59.665234375,"note":76,"startBeat":158.85729166666667,"startTick":152503,"startTime":59.571484375,"velocity":68},{"channel":2,"duration":0.1875,"durationBeats":0.5,"durationTicks":480,"endBeat":159.13854166666667,"endTick":152773,"endTime":59.676953125,"note":32,"startBeat":158.63854166666667,"startTick":152293,"startTime":59.489453125,"velocity":57},{"channel":9,"duration":0.09375,"durationBeats":0.25,"durationTicks":240,"endBeat":159.18229166666666,"endTick":152815,"endTime":59.693359375,"note":35,"startBeat":158.93229166666666,"startTick":152575,"startTime":59.599609375,"velocity":50},{"channel":9,"duration":0.03125,"durationBeats":0.08333333333334281,"durationTicks":80,"endBeat":159.33333333333334,"endTick":152960,"endTime":59.75,"note":42,"startBeat":159.25,"startTick":152880,"startTime":59.71875,"velocity":50},{"channel":0,"duration":0.09375,"durationBeats":0.25,"durationTicks":240,"endBeat":159.35729166666667,"endTick":152983,"endTime":59.758984375,"note":77,"startBeat":159.10729166666667,"startTick":152743,"startTime":59.665234375,"velocity":68},{"channel":1,"duration":0.1875,"durationBeats":0.5,"durationTicks":480,"endBeat":159.409375,"endTick":153033,"endTime":59.778515625000004,"note":32,"startBeat":158.909375,"startTick":152553,"startTime":59.591015625000004,"velocity":50},{"channel":0,"duration":0.09375,"durationBeats":0.25,"durationTicks":240,"endBeat":159.60729166666667,"endTick":153223,"endTime":59.852734375,"note":76,"startBeat":159.35729166666667,"startTick":152983,"startTime":59.758984375,"velocity":68},{"channel":2,"duration":0.1875,"durationBeats":0.5,"durationTicks":480,"endBeat":159.63854166666667,"endTick":153253,"endTime":59.864453125,"note":33,"startBeat":159.13854166666667,"startTick":152773,"startTime":59.676953125,"velocity":57},{"channel":0,"duration":0.1875,"durationBeats":0.5,"durationTicks":480,"endBeat":159.85729166666667,"endTick":153463,"endTime":59.946484375,"note":50,"startBeat":159.35729166666667,"startTick":152983,"startTime":59.758984375,"velocity":68},{"channel":0,"duration":0.09375,"durationBeats":0.25,"durationTicks":240,"endBeat":159.85729166666667,"endTick":153463,"endTime":59.946484375,"note":72,"startBeat":159.60729166666667,"startTick":153223,"startTime":59.852734375,"velocity":68},{"channel":1,"duration":0.1875,"durationBeats":0.5,"durationTicks":480,"endBeat":159.909375,"endTick":153513,"endTime":59.966015625000004,"note":33,"startBeat":159.409375,"startTick":153033,"startTime":59.778515625000004,"velocity":50},{"channel":9,"duration":0.09375,"durationBeats":0.25,"durationTicks":240,"endBeat":159.91145833333334,"endTick":153515,"endTime":59.966796875,"note":35,"startBeat":159.66145833333334,"startTick":153275,"startTime":59.873046875,"velocity":50},{"channel":9,"duration":0.03125,"durationBeats":0.08333333333334281,"durationTicks":80,"endBeat":160.08333333333334,"endTick":153680,"endTime":60.03125,"note":42,"startBeat":160,"startTick":153600,"startTime":60,"velocity":50},{"channel":0,"duration":0.09375,"durationBeats":0.25,"durationTicks":240,"endBeat":160.10729166666667,"endTick":153703,"endTime":60.040234375,"note":76,"startBeat":159.85729166666667,"startTick":153463,"startTime":59.946484375,"velocity":68},{"channel":2,"duration":0.09375,"durationBeats":0.25,"durationTicks":240,"endBeat":160.13854166666667,"endTick":153733,"endTime":60.051953125,"note":33,"startBeat":159.88854166666667,"startTick":153493,"startTime":59.958203125,"velocity":57},{"channel":9,"duration":0.09375,"durationBeats":0.25,"durationTicks":240,"endBeat":160.18229166666666,"endTick":153775,"endTime":60.068359375,"note":35,"startBeat":159.93229166666666,"startTick":153535,"startTime":59.974609375,"velocity":50},{"channel":9,"duration":0.0625,"durationBeats":0.1666666666666572,"durationTicks":160,"endBeat":160.25,"endTick":153840,"endTime":60.09375,"note":42,"startBeat":160.08333333333334,"startTick":153680,"startTime":60.03125,"velocity":50},{"channel":9,"duration":0.0234375,"durationBeats":0.0625,"durationTicks":60,"endBeat":160.3125,"endTick":153900,"endTime":60.1171875,"note":42,"startBeat":160.25,"startTick":153840,"startTime":60.09375,"velocity":50},{"channel":0,"duration":0.1875,"durationBeats":0.5,"durationTicks":480,"endBeat":160.35729166666667,"endTick":153943,"endTime":60.133984375,"note":38,"startBeat":159.85729166666667,"startTick":153463,"startTime":59.946484375,"velocity":68},{"channel":0,"duration":0.09375,"durationBeats":0.25,"durationTicks":240,"endBeat":160.35729166666667,"endTick":153943,"endTime":60.133984375,"note":72,"startBeat":160.10729166666667,"startTick":153703,"startTime":60.040234375,"velocity":68},{"channel":1,"duration":0.09375,"durationBeats":0.25,"durationTicks":240,"endBeat":160.409375,"endTick":153993,"endTime":60.153515625000004,"note":33,"startBeat":160.159375,"startTick":153753,"startTime":60.059765625000004,"velocity":50},{"channel":9,"duration":0.001953125,"durationBeats":0.005208333333342807,"durationTicks":5,"endBeat":160.4375,"endTick":154020,"endTime":60.1640625,"note":42,"startBeat":160.43229166666666,"startTick":154015,"startTime":60.162109375,"velocity":50},{"channel":9,"duration":0.0234375,"durationBeats":0.0625,"durationTicks":60,"endBeat":160.5625,"endTick":154140,"endTime":60.2109375,"note":42,"startBeat":160.5,"startTick":154080,"startTime":60.1875,"velocity":50},{"channel":0,"duration":0.09375,"durationBeats":0.25,"durationTicks":240,"endBeat":160.60729166666667,"endTick":154183,"endTime":60.227734375,"note":69,"startBeat":160.35729166666667,"startTick":153943,"startTime":60.133984375,"velocity":68},{"channel":9,"duration":0.021484375,"durationBeats":0.05729166666665719,"durationTicks":55,"endBeat":160.68229166666666,"endTick":154255,"endTime":60.255859375,"note":42,"startBeat":160.625,"startTick":154200,"startTime":60.234375,"velocity":50},{"channel":0,"duration":0.1875,"durationBeats":0.5,"durationTicks":480,"endBeat":160.85729166666667,"endTick":154423,"endTime":60.321484375,"note":45,"startBeat":160.35729166666667,"startTick":153943,"startTime":60.133984375,"velocity":68},{"channel":0,"duration":0.09375,"durationBeats":0.25,"durationTicks":240,"endBeat":160.85729166666667,"endTick":154423,"endTime":60.321484375,"note":67,"startBeat":160.60729166666667,"startTick":154183,"startTime":60.227734375,"velocity":68},{"channel":9,"duration":0.09375,"durationBeats":0.25,"durationTicks":240,"endBeat":160.91145833333334,"endTick":154475,"endTime":60.341796875,"note":35,"startBeat":160.66145833333334,"startTick":154235,"startTime":60.248046875,"velocity":50},{"channel":9,"duration":0.09375,"durationBeats":0.25,"durationTicks":240,"endBeat":161.08333333333334,"endTick":154640,"endTime":60.40625,"note":42,"startBeat":160.83333333333334,"startTick":154400,"startTime":60.3125,"velocity":50},{"channel":0,"duration":0.09375,"durationBeats":0.25,"durationTicks":240,"endBeat":161.10729166666667,"endTick":154663,"endTime":60.415234375,"note":69,"startBeat":160.85729166666667,"startTick":154423,"startTime":60.321484375,"velocity":68},{"channel":2,"duration":0.1875,"durationBeats":0.5,"durationTicks":480,"endBeat":161.13854166666667,"endTick":154693,"endTime":60.426953125,"note":26,"startBeat":160.63854166666667,"startTick":154213,"startTime":60.239453125,"velocity":57},{"channel":9,"duration":0.09375,"durationBeats":0.25,"durationTicks":240,"endBeat":161.18229166666666,"endTick":154735,"endTime":60.443359375,"note":35,"startBeat":160.93229166666666,"startTick":154495,"startTime":60.349609375,"velocity":50},{"channel":0,"duration":0.1875,"durationBeats":0.5,"durationTicks":480,"endBeat":161.35729166666667,"endTick":154903,"endTime":60.508984375,"note":50,"startBeat":160.85729166666667,"startTick":154423,"startTime":60.321484375,"velocity":68},{"channel":0,"duration":0.09375,"durationBeats":0.25,"durationTicks":240,"endBeat":161.35729166666667,"endTick":154903,"endTime":60.508984375,"note":62,"startBeat":161.10729166666667,"startTick":154663,"startTime":60.415234375,"velocity":68},{"channel":1,"duration":0.1875,"durationBeats":0.5,"durationTicks":480,"endBeat":161.409375,"endTick":154953,"endTime":60.528515625000004,"note":26,"startBeat":160.909375,"startTick":154473,"startTime":60.341015625000004,"velocity":50},{"channel":0,"duration":0.09375,"durationBeats":0.25,"durationTicks":240,"endBeat":161.60729166666667,"endTick":155143,"endTime":60.602734375,"note":60,"startBeat":161.35729166666667,"startTick":154903,"startTime":60.508984375,"velocity":68},{"channel":9,"duration":0.09375,"durationBeats":0.25,"durationTicks":240,"endBeat":161.66145833333334,"endTick":155195,"endTime":60.623046875,"note":35,"startBeat":161.41145833333334,"startTick":154955,"startTime":60.529296875,"velocity":50},{"channel":9,"duration":0.09375,"durationBeats":0.25,"durationTicks":240,"endBeat":161.83333333333334,"endTick":155360,"endTime":60.6875,"note":42,"startBeat":161.58333333333334,"startTick":155120,"startTime":60.59375,"velocity":50},{"channel":0,"duration":0.1875,"durationBeats":0.5,"durationTicks":480,"endBeat":161.85729166666667,"endTick":155383,"endTime":60.696484375,"note":38,"startBeat":161.35729166666667,"startTick":154903,"startTime":60.508984375,"velocity":68},{"channel":0,"duration":0.09375,"durationBeats":0.25,"durationTicks":240,"endBeat":161.85729166666667,"endTick":155383,"endTime":60.696484375,"note":65,"startBeat":161.60729166666667,"startTick":155143,"startTime":60.602734375,"velocity":68},{"channel":9,"duration":0.0234375,"durationBeats":0.0625,"durationTicks":60,"endBeat":161.89583333333334,"endTick":155420,"endTime":60.7109375,"note":42,"startBeat":161.83333333333334,"startTick":155360,"startTime":60.6875,"velocity":50},{"channel":9,"duration":0.09375,"durationBeats":0.25,"durationTicks":240,"endBeat":161.93229166666666,"endTick":155455,"endTime":60.724609375,"note":35,"startBeat":161.68229166666666,"startTick":155215,"startTime":60.630859375,"velocity":50},{"channel":9,"duration":0.0234375,"durationBeats":0.0625,"durationTicks":60,"endBeat":162.02083333333334,"endTick":155540,"endTime":60.7578125,"note":42,"startBeat":161.95833333333334,"startTick":155480,"startTime":60.734375,"velocity":50},{"channel":2,"duration":0.1875,"durationBeats":0.5,"durationTicks":480,"endBeat":162.13854166666667,"endTick":155653,"endTime":60.801953125,"note":26,"startBeat":161.63854166666667,"startTick":155173,"startTime":60.614453125,"velocity":57},{"channel":9,"duration":0.0234375,"durationBeats":0.0625,"durationTicks":60,"endBeat":162.14583333333334,"endTick":155660,"endTime":60.8046875,"note":42,"startBeat":162.08333333333334,"startTick":155600,"startTime":60.78125,"velocity":50},{"channel":9,"duration":0.0234375,"durationBeats":0.0625,"durationTicks":60,"endBeat":162.27083333333334,"endTick":155780,"endTime":60.8515625,"note":42,"startBeat":162.20833333333334,"startTick":155720,"startTime":60.828125,"velocity":50},{"channel":0,"duration":0.1875,"durationBeats":0.5,"durationTicks":480,"endBeat":162.35729166666667,"endTick":155863,"endTime":60.883984375,"note":45,"startBeat":161.85729166666667,"startTick":155383,"startTime":60.696484375,"velocity":68},{"channel":0,"duration":0.1875,"durationBeats":0.5,"durationTicks":480,"endBeat":162.35729166666667,"endTick":155863,"endTime":60.883984375,"note":69,"startBeat":161.85729166666667,"startTick":155383,"startTime":60.696484375,"velocity":68},{"channel":0,"duration":0.1875,"durationBeats":0.5,"durationTicks":480,"endBeat":162.35729166666667,"endTick":155863,"endTime":60.883984375,"note":60,"startBeat":161.85729166666667,"startTick":155383,"startTime":60.696484375,"velocity":68},{"channel":0,"duration":0.1875,"durationBeats":0.5,"durationTicks":480,"endBeat":162.35729166666667,"endTick":155863,"endTime":60.883984375,"note":64,"startBeat":161.85729166666667,"startTick":155383,"startTime":60.696484375,"velocity":68},{"channel":9,"duration":0.0234375,"durationBeats":0.0625,"durationTicks":60,"endBeat":162.39583333333334,"endTick":155900,"endTime":60.8984375,"note":42,"startBeat":162.33333333333334,"startTick":155840,"startTime":60.875,"velocity":50},{"channel":1,"duration":0.1875,"durationBeats":0.5,"durationTicks":480,"endBeat":162.409375,"endTick":155913,"endTime":60.903515625000004,"note":26,"startBeat":161.909375,"startTick":155433,"startTime":60.716015625000004,"velocity":50},{"channel":9,"duration":0.09375,"durationBeats":0.25,"durationTicks":240,"endBeat":162.41145833333334,"endTick":155915,"endTime":60.904296875,"note":35,"startBeat":162.16145833333334,"startTick":155675,"startTime":60.810546875,"velocity":50},{"channel":2,"duration":0.1875,"durationBeats":0.5,"durationTicks":480,"endBeat":162.63854166666667,"endTick":156133,"endTime":60.989453125,"note":33,"startBeat":162.13854166666667,"startTick":155653,"startTime":60.801953125,"velocity":57},{"channel":9,"duration":0.0078125,"durationBeats":0.020833333333314386,"durationTicks":20,"endBeat":162.68229166666666,"endTick":156175,"endTime":61.005859375,"note":35,"startBeat":162.66145833333334,"startTick":156155,"startTime":60.998046875,"velocity":50},{"channel":0,"duration":0.1875,"durationBeats":0.5,"durationTicks":480,"endBeat":162.85729166666667,"endTick":156343,"endTime":61.071484375,"note":44,"startBeat":162.35729166666667,"startTick":155863,"startTime":60.883984375,"velocity":68},{"channel":0,"duration":0.1875,"durationBeats":0.5,"durationTicks":480,"endBeat":162.85729166666667,"endTick":156343,"endTime":61.071484375,"note":68,"startBeat":162.35729166666667,"startTick":155863,"startTime":60.883984375,"velocity":68},{"channel":0,"duration":0.1875,"durationBeats":0.5,"durationTicks":480,"endBeat":162.85729166666667,"endTick":156343,"endTime":61.071484375,"note":63,"startBeat":162.35729166666667,"startTick":155863,"startTime":60.883984375,"velocity":68},{"channel":0,"duration":0.1875,"durationBeats":0.5,"durationTicks":480,"endBeat":162.85729166666667,"endTick":156343,"endTime":61.071484375,"note":59,"startBeat":162.35729166666667,"startTick":155863,"startTime":60.883984375,"velocity":68},{"channel":1,"duration":0.1875,"durationBeats":0.5,"durationTicks":480,"endBeat":162.909375,"endTick":156393,"endTime":61.091015625000004,"note":33,"startBeat":162.409375,"startTick":155913,"startTime":60.903515625000004,"velocity":50},{"channel":9,"duration":0.09375,"durationBeats":0.25,"durationTicks":240,"endBeat":163.08333333333334,"endTick":156560,"endTime":61.15625,"note":42,"startBeat":162.83333333333334,"startTick":156320,"startTime":61.0625,"velocity":50},{"channel":2,"duration":0.1875,"durationBeats":0.5,"durationTicks":480,"endBeat":163.13854166666667,"endTick":156613,"endTime":61.176953125,"note":26,"startBeat":162.63854166666667,"startTick":156133,"startTime":60.989453125,"velocity":57},{"channel":9,"duration":0.09375,"durationBeats":0.25,"durationTicks":240,"endBeat":163.18229166666666,"endTick":156655,"endTime":61.193359375,"note":35,"startBeat":162.93229166666666,"startTick":156415,"startTime":61.099609375,"velocity":50},{"channel":9,"duration":0.09375,"durationBeats":0.25,"durationTicks":240,"endBeat":163.33333333333334,"endTick":156800,"endTime":61.25,"note":42,"startBeat":163.08333333333334,"startTick":156560,"startTime":61.15625,"velocity":50},{"channel":0,"duration":0.1875,"durationBeats":0.5,"durationTicks":480,"endBeat":163.35729166666667,"endTick":156823,"endTime":61.258984375,"note":43,"startBeat":162.85729166666667,"startTick":156343,"startTime":61.071484375,"velocity":68},{"channel":1,"duration":0.1875,"durationBeats":0.5,"durationTicks":480,"endBeat":163.409375,"endTick":156873,"endTime":61.278515625000004,"note":26,"startBeat":162.909375,"startTick":156393,"startTime":61.091015625000004,"velocity":50},{"channel":0,"duration":0.375,"durationBeats":1,"durationTicks":960,"endBeat":163.85729166666667,"endTick":157303,"endTime":61.446484375,"note":69,"startBeat":162.85729166666667,"startTick":156343,"startTime":61.071484375,"velocity":68},{"channel":0,"duration":0.375,"durationBeats":1,"durationTicks":960,"endBeat":163.85729166666667,"endTick":157303,"endTime":61.446484375,"note":65,"startBeat":162.85729166666667,"startTick":156343,"startTime":61.071484375,"velocity":68},{"channel":0,"duration":0.375,"durationBeats":1,"durationTicks":960,"endBeat":163.85729166666667,"endTick":157303,"endTime":61.446484375,"note":62,"startBeat":162.85729166666667,"startTick":156343,"startTime":61.071484375,"velocity":68},{"channel":0,"duration":0.375,"durationBeats":1,"durationTicks":960,"endBeat":163.85729166666667,"endTick":157303,"endTime":61.446484375,"note":58,"startBeat":162.85729166666667,"startTick":156343,"startTime":61.071484375,"velocity":68},{"channel":9,"duration":0.09375,"durationBeats":0.25,"durationTicks":240,"endBeat":163.91145833333334,"endTick":157355,"endTime":61.466796875,"note":35,"startBeat":163.66145833333334,"startTick":157115,"startTime":61.373046875,"velocity":50},{"channel":9,"duration":0.09375,"durationBeats":0.25,"durationTicks":240,"endBeat":164.08333333333334,"endTick":157520,"endTime":61.53125,"note":42,"startBeat":163.83333333333334,"startTick":157280,"startTime":61.4375,"velocity":50},{"channel":2,"duration":0.1875,"durationBeats":0.5,"durationTicks":480,"endBeat":164.13854166666667,"endTick":157573,"endTime":61.551953125,"note":26,"startBeat":163.63854166666667,"startTick":157093,"startTime":61.364453125,"velocity":57},{"channel":9,"duration":0.09375,"durationBeats":0.25,"durationTicks":240,"endBeat":164.18229166666666,"endTick":157615,"endTime":61.568359375,"note":35,"startBeat":163.93229166666666,"startTick":157375,"startTime":61.474609375,"velocity":50},{"channel":9,"duration":0.09375,"durationBeats":0.25,"durationTicks":240,"endBeat":164.33333333333334,"endTick":157760,"endTime":61.625,"note":42,"startBeat":164.08333333333334,"startTick":157520,"startTime":61.53125,"velocity":50},{"channel":0,"duration":0.1875,"durationBeats":0.5,"durationTicks":480,"endBeat":164.35729166666667,"endTick":157783,"endTime":61.633984375,"note":43,"startBeat":163.85729166666667,"startTick":157303,"startTime":61.446484375,"velocity":68},{"channel":1,"duration":0.1875,"durationBeats":0.5,"durationTicks":480,"endBeat":164.409375,"endTick":157833,"endTime":61.653515625000004,"note":26,"startBeat":163.909375,"startTick":157353,"startTime":61.466015625000004,"velocity":50},{"channel":0,"duration":0.09375,"durationBeats":0.25,"durationTicks":240,"endBeat":164.60729166666667,"endTick":158023,"endTime":61.727734375,"note":65,"startBeat":164.35729166666667,"startTick":157783,"startTime":61.633984375,"velocity":68},{"channel":2,"duration":0.1875,"durationBeats":0.5,"durationTicks":480,"endBeat":164.63854166666667,"endTick":158053,"endTime":61.739453125,"note":33,"startBeat":164.13854166666667,"startTick":157573,"startTime":61.551953125,"velocity":57},{"channel":0,"duration":0.1875,"durationBeats":0.5,"durationTicks":480,"endBeat":164.85729166666667,"endTick":158263,"endTime":61.821484375,"note":44,"startBeat":164.35729166666667,"startTick":157783,"startTime":61.633984375,"velocity":68},{"channel":0,"duration":0.09375,"durationBeats":0.25,"durationTicks":240,"endBeat":164.85729166666667,"endTick":158263,"endTime":61.821484375,"note":69,"startBeat":164.60729166666667,"startTick":158023,"startTime":61.727734375,"velocity":68},{"channel":1,"duration":0.1875,"durationBeats":0.5,"durationTicks":480,"endBeat":164.909375,"endTick":158313,"endTime":61.841015625000004,"note":33,"startBeat":164.409375,"startTick":157833,"startTime":61.653515625000004,"velocity":50},{"channel":9,"duration":0.09375,"durationBeats":0.25,"durationTicks":240,"endBeat":164.91145833333334,"endTick":158315,"endTime":61.841796875,"note":35,"startBeat":164.66145833333334,"startTick":158075,"startTime":61.748046875,"velocity":50},{"channel":9,"duration":0.09375,"durationBeats":0.25,"durationTicks":240,"endBeat":165.08333333333334,"endTick":158480,"endTime":61.90625,"note":42,"startBeat":164.83333333333334,"startTick":158240,"startTime":61.8125,"velocity":50},{"channel":2,"duration":0.1875,"durationBeats":0.5,"durationTicks":480,"endBeat":165.13854166666667,"endTick":158533,"endTime":61.926953125,"note":32,"startBeat":164.63854166666667,"startTick":158053,"startTime":61.739453125,"velocity":57},{"channel":9,"duration":0.09375,"durationBeats":0.25,"durationTicks":240,"endBeat":165.18229166666666,"endTick":158575,"endTime":61.943359375,"note":35,"startBeat":164.93229166666666,"startTick":158335,"startTime":61.849609375,"velocity":50},{"channel":0,"duration":0.1875,"durationBeats":0.5,"durationTicks":480,"endBeat":165.35729166666667,"endTick":158743,"endTime":62.008984375,"note":60,"startBeat":164.85729166666667,"startTick":158263,"startTime":61.821484375,"velocity":68},{"channel":0,"duration":0.1875,"durationBeats":0.5,"durationTicks":480,"endBeat":165.35729166666667,"endTick":158743,"endTime":62.008984375,"note":64,"startBeat":164.85729166666667,"startTick":158263,"startTime":61.821484375,"velocity":68},{"channel":0,"duration":0.1875,"durationBeats":0.5,"durationTicks":480,"endBeat":165.35729166666667,"endTick":158743,"endTime":62.008984375,"note":67,"startBeat":164.85729166666667,"startTick":158263,"startTime":61.821484375,"velocity":68},{"channel":0,"duration":0.1875,"durationBeats":0.5,"durationTicks":480,"endBeat":165.35729166666667,"endTick":158743,"endTime":62.008984375,"note":72,"startBeat":164.85729166666667,"startTick":158263,"startTime":61.821484375,"velocity":68},{"channel":0,"duration":0.1875,"durationBeats":0.5,"durationTicks":480,"endBeat":165.35729166666667,"endTick":158743,"endTime":62.008984375,"note":45,"startBeat":164.85729166666667,"startTick":158263,"startTime":61.821484375,"velocity":68},{"channel":1,"duration":0.1875,"durationBeats":0.5,"durationTicks":480,"endBeat":165.409375,"endTick":158793,"endTime":62.028515625000004,"note":32,"startBeat":164.909375,"startTick":158313,"startTime":61.841015625000004,"velocity":50},{"channel":2,"duration":0.1875,"durationBeats":0.5,"durationTicks":480,"endBeat":165.63854166666667,"endTick":159013,"endTime":62.114453125,"note":31,"startBeat":165.13854166666667,"startTick":158533,"startTime":61.926953125,"velocity":57},{"channel":9,"duration":0.09375,"durationBeats":0.25,"durationTicks":240,"endBeat":165.66145833333334,"endTick":159035,"endTime":62.123046875,"note":35,"startBeat":165.41145833333334,"startTick":158795,"startTime":62.029296875,"velocity":50},{"channel":9,"duration":0.09375,"durationBeats":0.25,"durationTicks":240,"endBeat":165.83333333333334,"endTick":159200,"endTime":62.1875,"note":42,"startBeat":165.58333333333334,"startTick":158960,"startTime":62.09375,"velocity":50},{"channel":0,"duration":0.09375,"durationBeats":0.25,"durationTicks":240,"endBeat":165.85729166666667,"endTick":159223,"endTime":62.196484375,"note":45,"startBeat":165.60729166666667,"startTick":158983,"startTime":62.102734375,"velocity":68},{"channel":9,"duration":0.0234375,"durationBeats":0.0625,"durationTicks":60,"endBeat":165.89583333333334,"endTick":159260,"endTime":62.2109375,"note":42,"startBeat":165.83333333333334,"startTick":159200,"startTime":62.1875,"velocity":50},{"channel":1,"duration":0.1875,"durationBeats":0.5,"durationTicks":480,"endBeat":165.909375,"endTick":159273,"endTime":62.216015625000004,"note":31,"startBeat":165.409375,"startTick":158793,"startTime":62.028515625000004,"velocity":50},{"channel":9,"duration":0.09375,"durationBeats":0.25,"durationTicks":240,"endBeat":165.93229166666666,"endTick":159295,"endTime":62.224609375,"note":35,"startBeat":165.68229166666666,"startTick":159055,"startTime":62.130859375,"velocity":50},{"channel":9,"duration":0.0234375,"durationBeats":0.0625,"durationTicks":60,"endBeat":166.02083333333334,"endTick":159380,"endTime":62.2578125,"note":42,"startBeat":165.95833333333334,"startTick":159320,"startTime":62.234375,"velocity":50},{"channel":0,"duration":0.1875,"durationBeats":0.5,"durationTicks":480,"endBeat":166.10729166666667,"endTick":159463,"endTime":62.290234375,"note":70,"startBeat":165.60729166666667,"startTick":158983,"startTime":62.102734375,"velocity":68},{"channel":0,"duration":0.1875,"durationBeats":0.5,"durationTicks":480,"endBeat":166.10729166666667,"endTick":159463,"endTime":62.290234375,"note":67,"startBeat":165.60729166666667,"startTick":158983,"startTime":62.102734375,"velocity":68},{"channel":0,"duration":0.1875,"durationBeats":0.5,"durationTicks":480,"endBeat":166.10729166666667,"endTick":159463,"endTime":62.290234375,"note":65,"startBeat":165.60729166666667,"startTick":158983,"startTime":62.102734375,"velocity":68},{"channel":0,"duration":0.1875,"durationBeats":0.5,"durationTicks":480,"endBeat":166.10729166666667,"endTick":159463,"endTime":62.290234375,"note":61,"startBeat":165.60729166666667,"startTick":158983,"startTime":62.102734375,"velocity":68},{"channel":9,"duration":0.0234375,"durationBeats":0.0625,"durationTicks":60,"endBeat":166.14583333333334,"endTick":159500,"endTime":62.3046875,"note":42,"startBeat":166.08333333333334,"startTick":159440,"startTime":62.28125,"velocity":50},{"channel":9,"duration":0.0234375,"durationBeats":0.0625,"durationTicks":60,"endBeat":166.27083333333334,"endTick":159620,"endTime":62.3515625,"note":42,"startBeat":166.20833333333334,"startTick":159560,"startTime":62.328125,"velocity":50},{"channel":9,"duration":0.0234375,"durationBeats":0.0625,"durationTicks":60,"endBeat":166.39583333333334,"endTick":159740,"endTime":62.3984375,"note":42,"startBeat":166.33333333333334,"startTick":159680,"startTime":62.375,"velocity":50},{"channel":9,"duration":0.09375,"durationBeats":0.25,"durationTicks":240,"endBeat":166.41145833333334,"endTick":159755,"endTime":62.404296875,"note":35,"startBeat":166.16145833333334,"startTick":159515,"startTime":62.310546875,"velocity":50},{"channel":2,"duration":0.1875,"durationBeats":0.5,"durationTicks":480,"endBeat":166.63854166666667,"endTick":159973,"endTime":62.489453125,"note":31,"startBeat":166.13854166666667,"startTick":159493,"startTime":62.301953125,"velocity":57},{"channel":9,"duration":0.0078125,"durationBeats":0.020833333333314386,"durationTicks":20,"endBeat":166.68229166666666,"endTick":160015,"endTime":62.505859375,"note":35,"startBeat":166.66145833333334,"startTick":159995,"startTime":62.498046875,"velocity":50},{"channel":0,"duration":0.1875,"durationBeats":0.5,"durationTicks":480,"endBeat":166.85729166666667,"endTick":160183,"endTime":62.571484375,"note":69,"startBeat":166.35729166666667,"startTick":159703,"startTime":62.383984375,"velocity":68},{"channel":0,"duration":0.1875,"durationBeats":0.5,"durationTicks":480,"endBeat":166.85729166666667,"endTick":160183,"endTime":62.571484375,"note":65,"startBeat":166.35729166666667,"startTick":159703,"startTime":62.383984375,"velocity":68},{"channel":0,"duration":0.1875,"durationBeats":0.5,"durationTicks":480,"endBeat":166.85729166666667,"endTick":160183,"endTime":62.571484375,"note":64,"startBeat":166.35729166666667,"startTick":159703,"startTime":62.383984375,"velocity":68},{"channel":0,"duration":0.1875,"durationBeats":0.5,"durationTicks":480,"endBeat":166.85729166666667,"endTick":160183,"endTime":62.571484375,"note":60,"startBeat":166.35729166666667,"startTick":159703,"startTime":62.383984375,"velocity":68},{"channel":0,"duration":0.1875,"durationBeats":0.5,"durationTicks":480,"endBeat":166.85729166666667,"endTick":160183,"endTime":62.571484375,"note":38,"startBeat":166.35729166666667,"startTick":159703,"startTime":62.383984375,"velocity":68},{"channel":1,"duration":0.1875,"durationBeats":0.5,"durationTicks":480,"endBeat":166.909375,"endTick":160233,"endTime":62.591015625000004,"note":31,"startBeat":166.409375,"startTick":159753,"startTime":62.403515625000004,"velocity":50},{"channel":9,"duration":0.09375,"durationBeats":0.25,"durationTicks":240,"endBeat":167.08333333333334,"endTick":160400,"endTime":62.65625,"note":42,"startBeat":166.83333333333334,"startTick":160160,"startTime":62.5625,"velocity":50},{"channel":0,"duration":0.09375,"durationBeats":0.25,"durationTicks":240,"endBeat":167.10729166666667,"endTick":160423,"endTime":62.665234375,"note":76,"startBeat":166.85729166666667,"startTick":160183,"startTime":62.571484375,"velocity":68},{"channel":9,"duration":0.09375,"durationBeats":0.25,"durationTicks":240,"endBeat":167.18229166666666,"endTick":160495,"endTime":62.693359375,"note":35,"startBeat":166.93229166666666,"startTick":160255,"startTime":62.599609375,"velocity":50},{"channel":0,"duration":0.1875,"durationBeats":0.5,"durationTicks":480,"endBeat":167.35729166666667,"endTick":160663,"endTime":62.758984375,"note":50,"startBeat":166.85729166666667,"startTick":160183,"startTime":62.571484375,"velocity":68},{"channel":0,"duration":0.09375,"durationBeats":0.25,"durationTicks":240,"endBeat":167.35729166666667,"endTick":160663,"endTime":62.758984375,"note":77,"startBeat":167.10729166666667,"startTick":160423,"startTime":62.665234375,"velocity":68},{"channel":0,"duration":0.09375,"durationBeats":0.25,"durationTicks":240,"endBeat":167.60729166666667,"endTick":160903,"endTime":62.852734375,"note":79,"startBeat":167.35729166666667,"startTick":160663,"startTime":62.758984375,"velocity":68},{"channel":2,"duration":0.1875,"durationBeats":0.5,"durationTicks":480,"endBeat":167.63854166666667,"endTick":160933,"endTime":62.864453125,"note":31,"startBeat":167.13854166666667,"startTick":160453,"startTime":62.676953125,"velocity":57},{"channel":0,"duration":0.1875,"durationBeats":0.5,"durationTicks":480,"endBeat":167.85729166666667,"endTick":161143,"endTime":62.946484375,"note":38,"startBeat":167.35729166666667,"startTick":160663,"startTime":62.758984375,"velocity":68},{"channel":0,"duration":0.09375,"durationBeats":0.25,"durationTicks":240,"endBeat":167.85729166666667,"endTick":161143,"endTime":62.946484375,"note":77,"startBeat":167.60729166666667,"startTick":160903,"startTime":62.852734375,"velocity":68},{"channel":1,"duration":0.1875,"durationBeats":0.5,"durationTicks":480,"endBeat":167.909375,"endTick":161193,"endTime":62.966015625000004,"note":31,"startBeat":167.409375,"startTick":160713,"startTime":62.778515625000004,"velocity":50},{"channel":9,"duration":0.09375,"durationBeats":0.25,"durationTicks":240,"endBeat":167.91145833333334,"endTick":161195,"endTime":62.966796875,"note":35,"startBeat":167.66145833333334,"startTick":160955,"startTime":62.873046875,"velocity":50},{"channel":9,"duration":0.09375,"durationBeats":0.25,"durationTicks":240,"endBeat":168.08333333333334,"endTick":161360,"endTime":63.03125,"note":42,"startBeat":167.83333333333334,"startTick":161120,"startTime":62.9375,"velocity":50},{"channel":0,"duration":0.09375,"durationBeats":0.25,"durationTicks":240,"endBeat":168.10729166666667,"endTick":161383,"endTime":63.040234375,"note":76,"startBeat":167.85729166666667,"startTick":161143,"startTime":62.946484375,"velocity":68},{"channel":9,"duration":0.09375,"durationBeats":0.25,"durationTicks":240,"endBeat":168.18229166666666,"endTick":161455,"endTime":63.068359375,"note":35,"startBeat":167.93229166666666,"startTick":161215,"startTime":62.974609375,"velocity":50},{"channel":9,"duration":0.09375,"durationBeats":0.25,"durationTicks":240,"endBeat":168.33333333333334,"endTick":161600,"endTime":63.125,"note":42,"startBeat":168.08333333333334,"startTick":161360,"startTime":63.03125,"velocity":50},{"channel":0,"duration":0.1875,"durationBeats":0.5,"durationTicks":480,"endBeat":168.35729166666667,"endTick":161623,"endTime":63.133984375,"note":45,"startBeat":167.85729166666667,"startTick":161143,"startTime":62.946484375,"velocity":68},{"channel":0,"duration":0.09375,"durationBeats":0.25,"durationTicks":240,"endBeat":168.35729166666667,"endTick":161623,"endTime":63.133984375,"note":72,"startBeat":168.10729166666667,"startTick":161383,"startTime":63.040234375,"velocity":68},{"channel":0,"duration":0.09375,"durationBeats":0.25,"durationTicks":240,"endBeat":168.60729166666667,"endTick":161863,"endTime":63.227734375,"note":69,"startBeat":168.35729166666667,"startTick":161623,"startTime":63.133984375,"velocity":68},{"channel":2,"duration":0.1875,"durationBeats":0.5,"durationTicks":480,"endBeat":168.63854166666667,"endTick":161893,"endTime":63.239453125,"note":31,"startBeat":168.13854166666667,"startTick":161413,"startTime":63.051953125,"velocity":57},{"channel":0,"duration":0.1875,"durationBeats":0.5,"durationTicks":480,"endBeat":168.85729166666667,"endTick":162103,"endTime":63.321484375,"note":38,"startBeat":168.35729166666667,"startTick":161623,"startTime":63.133984375,"velocity":68},{"channel":0,"duration":0.09375,"durationBeats":0.25,"durationTicks":240,"endBeat":168.85729166666667,"endTick":162103,"endTime":63.321484375,"note":67,"startBeat":168.60729166666667,"startTick":161863,"startTime":63.227734375,"velocity":68},{"channel":1,"duration":0.1875,"durationBeats":0.5,"durationTicks":480,"endBeat":168.909375,"endTick":162153,"endTime":63.341015625000004,"note":31,"startBeat":168.409375,"startTick":161673,"startTime":63.153515625000004,"velocity":50},{"channel":9,"duration":0.09375,"durationBeats":0.25,"durationTicks":240,"endBeat":168.91145833333334,"endTick":162155,"endTime":63.341796875,"note":35,"startBeat":168.66145833333334,"startTick":161915,"startTime":63.248046875,"velocity":50},{"channel":9,"duration":0.09375,"durationBeats":0.25,"durationTicks":240,"endBeat":169.08333333333334,"endTick":162320,"endTime":63.40625,"note":42,"startBeat":168.83333333333334,"startTick":162080,"startTime":63.3125,"velocity":50},{"channel":0,"duration":0.09375,"durationBeats":0.25,"durationTicks":240,"endBeat":169.10729166666667,"endTick":162343,"endTime":63.415234375,"note":69,"startBeat":168.85729166666667,"startTick":162103,"startTime":63.321484375,"velocity":68},{"channel":9,"duration":0.09375,"durationBeats":0.25,"durationTicks":240,"endBeat":169.18229166666666,"endTick":162415,"endTime":63.443359375,"note":35,"startBeat":168.93229166666666,"startTick":162175,"startTime":63.349609375,"velocity":50},{"channel":0,"duration":0.1875,"durationBeats":0.5,"durationTicks":480,"endBeat":169.35729166666667,"endTick":162583,"endTime":63.508984375,"note":50,"startBeat":168.85729166666667,"startTick":162103,"startTime":63.321484375,"velocity":68},{"channel":0,"duration":0.09375,"durationBeats":0.25,"durationTicks":240,"endBeat":169.35729166666667,"endTick":162583,"endTime":63.508984375,"note":62,"startBeat":169.10729166666667,"startTick":162343,"startTime":63.415234375,"velocity":68},{"channel":0,"duration":0.09375,"durationBeats":0.25,"durationTicks":240,"endBeat":169.60729166666667,"endTick":162823,"endTime":63.602734375,"note":60,"startBeat":169.35729166666667,"startTick":162583,"startTime":63.508984375,"velocity":68},{"channel":2,"duration":0.1875,"durationBeats":0.5,"durationTicks":480,"endBeat":169.63854166666667,"endTick":162853,"endTime":63.614453125,"note":33,"startBeat":169.13854166666667,"startTick":162373,"startTime":63.426953125,"velocity":57},{"channel":9,"duration":0.09375,"durationBeats":0.25,"durationTicks":240,"endBeat":169.66145833333334,"endTick":162875,"endTime":63.623046875,"note":35,"startBeat":169.41145833333334,"startTick":162635,"startTime":63.529296875,"velocity":50},{"channel":9,"duration":0.09375,"durationBeats":0.25,"durationTicks":240,"endBeat":169.83333333333334,"endTick":163040,"endTime":63.6875,"note":42,"startBeat":169.58333333333334,"startTick":162800,"startTime":63.59375,"velocity":50},{"channel":0,"duration":0.1875,"durationBeats":0.5,"durationTicks":480,"endBeat":169.85729166666667,"endTick":163063,"endTime":63.696484375,"note":38,"startBeat":169.35729166666667,"startTick":162583,"startTime":63.508984375,"velocity":68},{"channel":0,"duration":0.09375,"durationBeats":0.25,"durationTicks":240,"endBeat":169.85729166666667,"endTick":163063,"endTime":63.696484375,"note":65,"startBeat":169.60729166666667,"startTick":162823,"startTime":63.602734375,"velocity":68},{"channel":9,"duration":0.0234375,"durationBeats":0.0625,"durationTicks":60,"endBeat":169.89583333333334,"endTick":163100,"endTime":63.7109375,"note":42,"startBeat":169.83333333333334,"startTick":163040,"startTime":63.6875,"velocity":50},{"channel":1,"duration":0.1875,"durationBeats":0.5,"durationTicks":480,"endBeat":169.909375,"endTick":163113,"endTime":63.716015625000004,"note":33,"startBeat":169.409375,"startTick":162633,"startTime":63.528515625000004,"velocity":50},{"channel":9,"duration":0.09375,"durationBeats":0.25,"durationTicks":240,"endBeat":169.93229166666666,"endTick":163135,"endTime":63.724609375,"note":35,"startBeat":169.68229166666666,"startTick":162895,"startTime":63.630859375,"velocity":50},{"channel":9,"duration":0.0234375,"durationBeats":0.0625,"durationTicks":60,"endBeat":170.02083333333334,"endTick":163220,"endTime":63.7578125,"note":42,"startBeat":169.95833333333334,"startTick":163160,"startTime":63.734375,"velocity":50},{"channel":9,"duration":0.0234375,"durationBeats":0.0625,"durationTicks":60,"endBeat":170.14583333333334,"endTick":163340,"endTime":63.8046875,"note":42,"startBeat":170.08333333333334,"startTick":163280,"startTime":63.78125,"velocity":50},{"channel":9,"duration":0.0234375,"durationBeats":0.0625,"durationTicks":60,"endBeat":170.27083333333334,"endTick":163460,"endTime":63.8515625,"note":42,"startBeat":170.20833333333334,"startTick":163400,"startTime":63.828125,"velocity":50},{"channel":0,"duration":0.1875,"durationBeats":0.5,"durationTicks":480,"endBeat":170.35729166666667,"endTick":163543,"endTime":63.883984375,"note":69,"startBeat":169.85729166666667,"startTick":163063,"startTime":63.696484375,"velocity":68},{"channel":0,"duration":0.1875,"durationBeats":0.5,"durationTicks":480,"endBeat":170.35729166666667,"endTick":163543,"endTime":63.883984375,"note":60,"startBeat":169.85729166666667,"startTick":163063,"startTime":63.696484375,"velocity":68},{"channel":0,"duration":0.1875,"durationBeats":0.5,"durationTicks":480,"endBeat":170.35729166666667,"endTick":163543,"endTime":63.883984375,"note":64,"startBeat":169.85729166666667,"startTick":163063,"startTime":63.696484375,"velocity":68},{"channel":0,"duration":0.1875,"durationBeats":0.5,"durationTicks":480,"endBeat":170.35729166666667,"endTick":163543,"endTime":63.883984375,"note":45,"startBeat":169.85729166666667,"startTick":163063,"startTime":63.696484375,"velocity":68},{"channel":9,"duration":0.09375,"durationBeats":0.25,"durationTicks":240,"endBeat":170.41145833333334,"endTick":163595,"endTime":63.904296875,"note":35,"startBeat":170.16145833333334,"startTick":163355,"startTime":63.810546875,"velocity":50},{"channel":2,"duration":0.1875,"durationBeats":0.5,"durationTicks":480,"endBeat":170.63854166666667,"endTick":163813,"endTime":63.989453125,"note":33,"startBeat":170.13854166666667,"startTick":163333,"startTime":63.801953125,"velocity":57},{"channel":9,"duration":0.0078125,"durationBeats":0.020833333333314386,"durationTicks":20,"endBeat":170.68229166666666,"endTick":163855,"endTime":64.005859375,"note":35,"startBeat":170.66145833333334,"startTick":163835,"startTime":63.998046875,"velocity":50},{"channel":0,"duration":0.1875,"durationBeats":0.5,"durationTicks":480,"endBeat":170.85729166666667,"endTick":164023,"endTime":64.071484375,"note":44,"startBeat":170.35729166666667,"startTick":163543,"startTime":63.883984375,"velocity":68},{"channel":0,"duration":0.1875,"durationBeats":0.5,"durationTicks":480,"endBeat":170.85729166666667,"endTick":164023,"endTime":64.071484375,"note":68,"startBeat":170.35729166666667,"startTick":163543,"startTime":63.883984375,"velocity":68},{"channel":0,"duration":0.1875,"durationBeats":0.5,"durationTicks":480,"endBeat":170.85729166666667,"endTick":164023,"endTime":64.071484375,"note":63,"startBeat":170.35729166666667,"startTick":163543,"startTime":63.883984375,"velocity":68},{"channel":0,"duration":0.1875,"durationBeats":0.5,"durationTicks":480,"endBeat":170.85729166666667,"endTick":164023,"endTime":64.071484375,"note":59,"startBeat":170.35729166666667,"startTick":163543,"startTime":63.883984375,"velocity":68},{"channel":1,"duration":0.1875000000000071,"durationBeats":0.5,"durationTicks":480,"endBeat":170.909375,"endTick":164073,"endTime":64.09101562500001,"note":33,"startBeat":170.409375,"startTick":163593,"startTime":63.903515625000004,"velocity":50},{"channel":0,"duration":0.1875,"durationBeats":0.5,"durationTicks":480,"endBeat":171.35729166666667,"endTick":164503,"endTime":64.258984375,"note":43,"startBeat":170.85729166666667,"startTick":164023,"startTime":64.071484375,"velocity":68},{"channel":2,"duration":0.1875,"durationBeats":0.5,"durationTicks":480,"endBeat":171.63854166666667,"endTick":164773,"endTime":64.364453125,"note":33,"startBeat":171.13854166666667,"startTick":164293,"startTime":64.176953125,"velocity":57},{"channel":0,"duration":0.375,"durationBeats":1,"durationTicks":960,"endBeat":171.85729166666667,"endTick":164983,"endTime":64.446484375,"note":69,"startBeat":170.85729166666667,"startTick":164023,"startTime":64.071484375,"velocity":68},{"channel":0,"duration":0.375,"durationBeats":1,"durationTicks":960,"endBeat":171.85729166666667,"endTick":164983,"endTime":64.446484375,"note":65,"startBeat":170.85729166666667,"startTick":164023,"startTime":64.071484375,"velocity":68},{"channel":0,"duration":0.375,"durationBeats":1,"durationTicks":960,"endBeat":171.85729166666667,"endTick":164983,"endTime":64.446484375,"note":62,"startBeat":170.85729166666667,"startTick":164023,"startTime":64.071484375,"velocity":68},{"channel":0,"duration":0.375,"durationBeats":1,"durationTicks":960,"endBeat":171.85729166666667,"endTick":164983,"endTime":64.446484375,"note":58,"startBeat":170.85729166666667,"startTick":164023,"startTime":64.071484375,"velocity":68},{"channel":1,"duration":0.1875,"durationBeats":0.5,"durationTicks":480,"endBeat":171.909375,"endTick":165033,"endTime":64.46601562500001,"note":33,"startBeat":171.409375,"startTick":164553,"startTime":64.27851562500001,"velocity":50},{"channel":0,"duration":0.1875,"durationBeats":0.5,"durationTicks":480,"endBeat":172.35729166666667,"endTick":165463,"endTime":64.633984375,"note":43,"startBeat":171.85729166666667,"startTick":164983,"startTime":64.446484375,"velocity":68},{"channel":0,"duration":0.09375,"durationBeats":0.25,"durationTicks":240,"endBeat":172.60729166666667,"endTick":165703,"endTime":64.727734375,"note":65,"startBeat":172.35729166666667,"startTick":165463,"startTime":64.633984375,"velocity":68},{"channel":2,"duration":0.1875,"durationBeats":0.5,"durationTicks":480,"endBeat":172.63854166666667,"endTick":165733,"endTime":64.739453125,"note":33,"startBeat":172.13854166666667,"startTick":165253,"startTime":64.551953125,"velocity":57},{"channel":0,"duration":0.1875,"durationBeats":0.5,"durationTicks":480,"endBeat":172.85729166666667,"endTick":165943,"endTime":64.821484375,"note":44,"startBeat":172.35729166666667,"startTick":165463,"startTime":64.633984375,"velocity":68},{"channel":0,"duration":0.09375,"durationBeats":0.25,"durationTicks":240,"endBeat":172.85729166666667,"endTick":165943,"endTime":64.821484375,"note":69,"startBeat":172.60729166666667,"startTick":165703,"startTime":64.727734375,"velocity":68},{"channel":1,"duration":0.1875,"durationBeats":0.5,"durationTicks":480,"endBeat":172.909375,"endTick":165993,"endTime":64.84101562500001,"note":33,"startBeat":172.409375,"startTick":165513,"startTime":64.65351562500001,"velocity":50},{"channel":0,"duration":0.1875,"durationBeats":0.5,"durationTicks":480,"endBeat":173.35729166666667,"endTick":166423,"endTime":65.008984375,"note":60,"startBeat":172.85729166666667,"startTick":165943,"startTime":64.821484375,"velocity":68},{"channel":0,"duration":0.1875,"durationBeats":0.5,"durationTicks":480,"endBeat":173.35729166666667,"endTick":166423,"endTime":65.008984375,"note":64,"startBeat":172.85729166666667,"startTick":165943,"startTime":64.821484375,"velocity":68},{"channel":0,"duration":0.1875,"durationBeats":0.5,"durationTicks":480,"endBeat":173.35729166666667,"endTick":166423,"endTime":65.008984375,"note":67,"startBeat":172.85729166666667,"startTick":165943,"startTime":64.821484375,"velocity":68},{"channel":0,"duration":0.1875,"durationBeats":0.5,"durationTicks":480,"endBeat":173.35729166666667,"endTick":166423,"endTime":65.008984375,"note":72,"startBeat":172.85729166666667,"startTick":165943,"startTime":64.821484375,"velocity":68},{"channel":0,"duration":0.1875,"durationBeats":0.5,"durationTicks":480,"endBeat":173.35729166666667,"endTick":166423,"endTime":65.008984375,"note":45,"startBeat":172.85729166666667,"startTick":165943,"startTime":64.821484375,"velocity":68},{"channel":2,"duration":0.1875,"durationBeats":0.5,"durationTicks":480,"endBeat":173.63854166666667,"endTick":166693,"endTime":65.114453125,"note":36,"startBeat":173.13854166666667,"startTick":166213,"startTime":64.926953125,"velocity":57},{"channel":1,"duration":0.1875,"durationBeats":0.5,"durationTicks":480,"endBeat":173.909375,"endTick":166953,"endTime":65.21601562500001,"note":36,"startBeat":173.409375,"startTick":166473,"startTime":65.02851562500001,"velocity":50},{"channel":0,"duration":0.1875,"durationBeats":0.5,"durationTicks":480,"endBeat":174.35729166666667,"endTick":167383,"endTime":65.383984375,"note":39,"startBeat":173.85729166666667,"startTick":166903,"startTime":65.196484375,"velocity":68},{"channel":0,"duration":0.1875,"durationBeats":0.5,"durationTicks":480,"endBeat":174.35729166666667,"endTick":167383,"endTime":65.383984375,"note":77,"startBeat":173.85729166666667,"startTick":166903,"startTime":65.196484375,"velocity":68},{"channel":0,"duration":0.1875,"durationBeats":0.5,"durationTicks":480,"endBeat":174.35729166666667,"endTick":167383,"endTime":65.383984375,"note":73,"startBeat":173.85729166666667,"startTick":166903,"startTime":65.196484375,"velocity":68},{"channel":0,"duration":0.1875,"durationBeats":0.5,"durationTicks":480,"endBeat":174.35729166666667,"endTick":167383,"endTime":65.383984375,"note":70,"startBeat":173.85729166666667,"startTick":166903,"startTime":65.196484375,"velocity":68},{"channel":0,"duration":0.1875,"durationBeats":0.5,"durationTicks":480,"endBeat":174.35729166666667,"endTick":167383,"endTime":65.383984375,"note":67,"startBeat":173.85729166666667,"startTick":166903,"startTime":65.196484375,"velocity":68},{"channel":2,"duration":0.1875,"durationBeats":0.5,"durationTicks":480,"endBeat":174.63854166666667,"endTick":167653,"endTime":65.489453125,"note":33,"startBeat":174.13854166666667,"startTick":167173,"startTime":65.301953125,"velocity":57},{"channel":1,"duration":0.1875,"durationBeats":0.5,"durationTicks":480,"endBeat":174.909375,"endTick":167913,"endTime":65.59101562500001,"note":33,"startBeat":174.409375,"startTick":167433,"startTime":65.40351562500001,"velocity":50},{"channel":0,"duration":0.1875,"durationBeats":0.5,"durationTicks":480,"endBeat":175.35729166666667,"endTick":168343,"endTime":65.758984375,"note":38,"startBeat":174.85729166666667,"startTick":167863,"startTime":65.571484375,"velocity":68},{"channel":0,"duration":0.1875,"durationBeats":0.5,"durationTicks":480,"endBeat":175.35729166666667,"endTick":168343,"endTime":65.758984375,"note":76,"startBeat":174.85729166666667,"startTick":167863,"startTime":65.571484375,"velocity":68},{"channel":0,"duration":0.1875,"durationBeats":0.5,"durationTicks":480,"endBeat":175.35729166666667,"endTick":168343,"endTime":65.758984375,"note":72,"startBeat":174.85729166666667,"startTick":167863,"startTime":65.571484375,"velocity":68},{"channel":0,"duration":0.1875,"durationBeats":0.5,"durationTicks":480,"endBeat":175.35729166666667,"endTick":168343,"endTime":65.758984375,"note":69,"startBeat":174.85729166666667,"startTick":167863,"startTime":65.571484375,"velocity":68},{"channel":0,"duration":0.1875,"durationBeats":0.5,"durationTicks":480,"endBeat":175.35729166666667,"endTick":168343,"endTime":65.758984375,"note":65,"startBeat":174.85729166666667,"startTick":167863,"startTime":65.571484375,"velocity":68},{"channel":2,"duration":0.1875,"durationBeats":0.5,"durationTicks":480,"endBeat":175.63854166666667,"endTick":168613,"endTime":65.864453125,"note":29,"startBeat":175.13854166666667,"startTick":168133,"startTime":65.676953125,"velocity":57},{"channel":9,"duration":0.0234375,"durationBeats":0.0625,"durationTicks":60,"endBeat":175.784375,"endTick":168753,"endTime":65.91914062500001,"note":69,"startBeat":175.721875,"startTick":168693,"startTime":65.89570312500001,"velocity":64},{"channel":9,"duration":0.0234375,"durationBeats":0.0625,"durationTicks":60,"endBeat":175.784375,"endTick":168753,"endTime":65.91914062500001,"note":44,"startBeat":175.721875,"startTick":168693,"startTime":65.89570312500001,"velocity":64},{"channel":1,"duration":0.1875,"durationBeats":0.5,"durationTicks":480,"endBeat":175.909375,"endTick":168873,"endTime":65.96601562500001,"note":29,"startBeat":175.409375,"startTick":168393,"startTime":65.77851562500001,"velocity":50},{"channel":0,"duration":0.1875,"durationBeats":0.5,"durationTicks":480,"endBeat":176.35729166666667,"endTick":169303,"endTime":66.133984375,"note":72,"startBeat":175.85729166666667,"startTick":168823,"startTime":65.946484375,"velocity":68},{"channel":2,"duration":0.1875,"durationBeats":0.5,"durationTicks":480,"endBeat":176.63854166666667,"endTick":169573,"endTime":66.239453125,"note":35,"startBeat":176.13854166666667,"startTick":169093,"startTime":66.051953125,"velocity":57},{"channel":0,"duration":0.1875,"durationBeats":0.5,"durationTicks":480,"endBeat":176.85729166666667,"endTick":169783,"endTime":66.321484375,"note":65,"startBeat":176.35729166666667,"startTick":169303,"startTime":66.133984375,"velocity":68},{"channel":0,"duration":0.1875,"durationBeats":0.5,"durationTicks":480,"endBeat":176.85729166666667,"endTick":169783,"endTime":66.321484375,"note":69,"startBeat":176.35729166666667,"startTick":169303,"startTime":66.133984375,"velocity":68},{"channel":1,"duration":0.1875,"durationBeats":0.5,"durationTicks":480,"endBeat":176.909375,"endTick":169833,"endTime":66.34101562500001,"note":35,"startBeat":176.409375,"startTick":169353,"startTime":66.15351562500001,"velocity":50},{"channel":0,"duration":0.1875,"durationBeats":0.5,"durationTicks":480,"endBeat":177.35729166666667,"endTick":170263,"endTime":66.508984375,"note":64,"startBeat":176.85729166666667,"startTick":169783,"startTime":66.321484375,"velocity":68},{"channel":0,"duration":0.1875,"durationBeats":0.5,"durationTicks":480,"endBeat":177.35729166666667,"endTick":170263,"endTime":66.508984375,"note":67,"startBeat":176.85729166666667,"startTick":169783,"startTime":66.321484375,"velocity":68},{"channel":9,"duration":0.09375,"durationBeats":0.25,"durationTicks":240,"endBeat":177.5,"endTick":170400,"endTime":66.5625,"note":42,"startBeat":177.25,"startTick":170160,"startTime":66.46875,"velocity":50},{"channel":2,"duration":0.1875,"durationBeats":0.5,"durationTicks":480,"endBeat":177.63854166666667,"endTick":170533,"endTime":66.614453125,"note":33,"startBeat":177.13854166666667,"startTick":170053,"startTime":66.426953125,"velocity":57},{"channel":9,"duration":0.09375,"durationBeats":0.25,"durationTicks":240,"endBeat":177.75,"endTick":170640,"endTime":66.65625,"note":42,"startBeat":177.5,"startTick":170400,"startTime":66.5625,"velocity":50},{"channel":0,"duration":0.375,"durationBeats":1,"durationTicks":960,"endBeat":177.85729166666667,"endTick":170743,"endTime":66.696484375,"note":36,"startBeat":176.85729166666667,"startTick":169783,"startTime":66.321484375,"velocity":68},{"channel":0,"duration":0.1875,"durationBeats":0.5,"durationTicks":480,"endBeat":177.85729166666667,"endTick":170743,"endTime":66.696484375,"note":62,"startBeat":177.35729166666667,"startTick":170263,"startTime":66.508984375,"velocity":68},{"channel":0,"duration":0.1875,"durationBeats":0.5,"durationTicks":480,"endBeat":177.85729166666667,"endTick":170743,"endTime":66.696484375,"note":65,"startBeat":177.35729166666667,"startTick":170263,"startTime":66.508984375,"velocity":68},{"channel":1,"duration":0.1875,"durationBeats":0.5,"durationTicks":480,"endBeat":177.909375,"endTick":170793,"endTime":66.71601562500001,"note":33,"startBeat":177.409375,"startTick":170313,"startTime":66.52851562500001,"velocity":50},{"channel":0,"duration":0.1875,"durationBeats":0.5,"durationTicks":480,"endBeat":178.35729166666667,"endTick":171223,"endTime":66.883984375,"note":60,"startBeat":177.85729166666667,"startTick":170743,"startTime":66.696484375,"velocity":68},{"channel":0,"duration":0.1875,"durationBeats":0.5,"durationTicks":480,"endBeat":178.35729166666667,"endTick":171223,"endTime":66.883984375,"note":64,"startBeat":177.85729166666667,"startTick":170743,"startTime":66.696484375,"velocity":68},{"channel":9,"duration":0.09375,"durationBeats":0.25,"durationTicks":240,"endBeat":178.5,"endTick":171360,"endTime":66.9375,"note":42,"startBeat":178.25,"startTick":171120,"startTime":66.84375,"velocity":50},{"channel":2,"duration":0.1875,"durationBeats":0.5,"durationTicks":480,"endBeat":178.63854166666667,"endTick":171493,"endTime":66.989453125,"note":33,"startBeat":178.13854166666667,"startTick":171013,"startTime":66.801953125,"velocity":57},{"channel":9,"duration":0.09375,"durationBeats":0.25,"durationTicks":240,"endBeat":178.75,"endTick":171600,"endTime":67.03125,"note":42,"startBeat":178.5,"startTick":171360,"startTime":66.9375,"velocity":50},{"channel":0,"duration":0.375,"durationBeats":1,"durationTicks":960,"endBeat":178.85729166666667,"endTick":171703,"endTime":67.071484375,"note":41,"startBeat":177.85729166666667,"startTick":170743,"startTime":66.696484375,"velocity":68},{"channel":0,"duration":0.1875,"durationBeats":0.5,"durationTicks":480,"endBeat":178.85729166666667,"endTick":171703,"endTime":67.071484375,"note":57,"startBeat":178.35729166666667,"startTick":171223,"startTime":66.883984375,"velocity":68},{"channel":0,"duration":0.1875,"durationBeats":0.5,"durationTicks":480,"endBeat":178.85729166666667,"endTick":171703,"endTime":67.071484375,"note":60,"startBeat":178.35729166666667,"startTick":171223,"startTime":66.883984375,"velocity":68},{"channel":1,"duration":0.1875,"durationBeats":0.5,"durationTicks":480,"endBeat":178.909375,"endTick":171753,"endTime":67.09101562500001,"note":33,"startBeat":178.409375,"startTick":171273,"startTime":66.90351562500001,"velocity":50},{"channel":2,"duration":0.1875,"durationBeats":0.5,"durationTicks":480,"endBeat":179.13854166666667,"endTick":171973,"endTime":67.176953125,"note":40,"startBeat":178.63854166666667,"startTick":171493,"startTime":66.989453125,"velocity":57},{"channel":1,"duration":0.1875,"durationBeats":0.5,"durationTicks":480,"endBeat":179.409375,"endTick":172233,"endTime":67.27851562500001,"note":40,"startBeat":178.909375,"startTick":171753,"startTime":67.09101562500001,"velocity":50},{"channel":9,"duration":0.09375,"durationBeats":0.25,"durationTicks":240,"endBeat":179.5,"endTick":172320,"endTime":67.3125,"note":42,"startBeat":179.25,"startTick":172080,"startTime":67.21875,"velocity":50},{"channel":2,"duration":0.1875,"durationBeats":0.5,"durationTicks":480,"endBeat":179.63854166666667,"endTick":172453,"endTime":67.364453125,"note":45,"startBeat":179.13854166666667,"startTick":171973,"startTime":67.176953125,"velocity":57},{"channel":0,"duration":0.375,"durationBeats":1,"durationTicks":960,"endBeat":179.85729166666667,"endTick":172663,"endTime":67.446484375,"note":34,"startBeat":178.85729166666667,"startTick":171703,"startTime":67.071484375,"velocity":68},{"channel":0,"duration":0.1875,"durationBeats":0.5,"durationTicks":480,"endBeat":179.85729166666667,"endTick":172663,"endTime":67.446484375,"note":53,"startBeat":179.35729166666667,"startTick":172183,"startTime":67.258984375,"velocity":68},{"channel":0,"duration":0.1875,"durationBeats":0.5,"durationTicks":480,"endBeat":179.85729166666667,"endTick":172663,"endTime":67.446484375,"note":57,"startBeat":179.35729166666667,"startTick":172183,"startTime":67.258984375,"velocity":68},{"channel":1,"duration":0.1875,"durationBeats":0.5,"durationTicks":480,"endBeat":179.909375,"endTick":172713,"endTime":67.46601562500001,"note":45,"startBeat":179.409375,"startTick":172233,"startTime":67.27851562500001,"velocity":50},{"channel":2,"duration":0.1875,"durationBeats":0.5,"durationTicks":480,"endBeat":180.13854166666667,"endTick":172933,"endTime":67.551953125,"note":33,"startBeat":179.63854166666667,"startTick":172453,"startTime":67.364453125,"velocity":57},{"channel":9,"duration":0.09375,"durationBeats":0.25,"durationTicks":240,"endBeat":180.25,"endTick":173040,"endTime":67.59375,"note":42,"startBeat":180,"startTick":172800,"startTime":67.5,"velocity":50},{"channel":9,"duration":0.0234375,"durationBeats":0.0625,"durationTicks":60,"endBeat":180.3125,"endTick":173100,"endTime":67.6171875,"note":42,"startBeat":180.25,"startTick":173040,"startTime":67.59375,"velocity":50},{"channel":0,"duration":0.1875,"durationBeats":0.5,"durationTicks":480,"endBeat":180.35729166666667,"endTick":173143,"endTime":67.633984375,"note":55,"startBeat":179.85729166666667,"startTick":172663,"startTime":67.446484375,"velocity":68},{"channel":0,"duration":0.1875,"durationBeats":0.5,"durationTicks":480,"endBeat":180.35729166666667,"endTick":173143,"endTime":67.633984375,"note":58,"startBeat":179.85729166666667,"startTick":172663,"startTime":67.446484375,"velocity":68},{"channel":1,"duration":0.1875,"durationBeats":0.5,"durationTicks":480,"endBeat":180.409375,"endTick":173193,"endTime":67.65351562500001,"note":33,"startBeat":179.909375,"startTick":172713,"startTime":67.46601562500001,"velocity":50},{"channel":9,"duration":0.0234375,"durationBeats":0.0625,"durationTicks":60,"endBeat":180.4375,"endTick":173220,"endTime":67.6640625,"note":42,"startBeat":180.375,"startTick":173160,"startTime":67.640625,"velocity":50},{"channel":9,"duration":0.0234375,"durationBeats":0.0625,"durationTicks":60,"endBeat":180.5625,"endTick":173340,"endTime":67.7109375,"note":42,"startBeat":180.5,"startTick":173280,"startTime":67.6875,"velocity":50},{"channel":2,"duration":0.1875,"durationBeats":0.5,"durationTicks":480,"endBeat":180.63854166666667,"endTick":173413,"endTime":67.739453125,"note":36,"startBeat":180.13854166666667,"startTick":172933,"startTime":67.551953125,"velocity":57},{"channel":9,"duration":0.0234375,"durationBeats":0.0625,"durationTicks":60,"endBeat":180.6875,"endTick":173460,"endTime":67.7578125,"note":42,"startBeat":180.625,"startTick":173400,"startTime":67.734375,"velocity":50},{"channel":9,"duration":0.0234375,"durationBeats":0.0625,"durationTicks":60,"endBeat":180.8125,"endTick":173580,"endTime":67.8046875,"note":42,"startBeat":180.75,"startTick":173520,"startTime":67.78125,"velocity":50},{"channel":0,"duration":0.375,"durationBeats":1,"durationTicks":960,"endBeat":180.85729166666667,"endTick":173623,"endTime":67.821484375,"note":38,"startBeat":179.85729166666667,"startTick":172663,"startTime":67.446484375,"velocity":68},{"channel":0,"duration":0.1875,"durationBeats":0.5,"durationTicks":480,"endBeat":180.85729166666667,"endTick":173623,"endTime":67.821484375,"note":57,"startBeat":180.35729166666667,"startTick":173143,"startTime":67.633984375,"velocity":68},{"channel":0,"duration":0.1875,"durationBeats":0.5,"durationTicks":480,"endBeat":180.85729166666667,"endTick":173623,"endTime":67.821484375,"note":60,"startBeat":180.35729166666667,"startTick":173143,"startTime":67.633984375,"velocity":68},{"channel":1,"duration":0.1875,"durationBeats":0.5,"durationTicks":480,"endBeat":180.909375,"endTick":173673,"endTime":67.84101562500001,"note":36,"startBeat":180.409375,"startTick":173193,"startTime":67.65351562500001,"velocity":50},{"channel":2,"duration":0.1875,"durationBeats":0.5,"durationTicks":480,"endBeat":181.13854166666667,"endTick":173893,"endTime":67.926953125,"note":40,"startBeat":180.63854166666667,"startTick":173413,"startTime":67.739453125,"velocity":57},{"channel":0,"duration":0.1875,"durationBeats":0.5,"durationTicks":480,"endBeat":181.35729166666667,"endTick":174103,"endTime":68.008984375,"note":58,"startBeat":180.85729166666667,"startTick":173623,"startTime":67.821484375,"velocity":68},{"channel":0,"duration":0.1875,"durationBeats":0.5,"durationTicks":480,"endBeat":181.35729166666667,"endTick":174103,"endTime":68.008984375,"note":62,"startBeat":180.85729166666667,"startTick":173623,"startTime":67.821484375,"velocity":68},{"channel":9,"duration":0.09375,"durationBeats":0.25,"durationTicks":240,"endBeat":181.5,"endTick":174240,"endTime":68.0625,"note":42,"startBeat":181.25,"startTick":174000,"startTime":67.96875,"velocity":50},{"channel":2,"duration":0.1875,"durationBeats":0.5,"durationTicks":480,"endBeat":181.63854166666667,"endTick":174373,"endTime":68.114453125,"note":31,"startBeat":181.13854166666667,"startTick":173893,"startTime":67.926953125,"velocity":57},{"channel":9,"duration":0.09375,"durationBeats":0.25,"durationTicks":240,"endBeat":181.75,"endTick":174480,"endTime":68.15625,"note":42,"startBeat":181.5,"startTick":174240,"startTime":68.0625,"velocity":50},{"channel":0,"duration":0.375,"durationBeats":1,"durationTicks":960,"endBeat":181.85729166666667,"endTick":174583,"endTime":68.196484375,"note":40,"startBeat":180.85729166666667,"startTick":173623,"startTime":67.821484375,"velocity":68},{"channel":0,"duration":0.1875,"durationBeats":0.5,"durationTicks":480,"endBeat":181.85729166666667,"endTick":174583,"endTime":68.196484375,"note":60,"startBeat":181.35729166666667,"startTick":174103,"startTime":68.008984375,"velocity":68},{"channel":0,"duration":0.1875,"durationBeats":0.5,"durationTicks":480,"endBeat":181.85729166666667,"endTick":174583,"endTime":68.196484375,"note":64,"startBeat":181.35729166666667,"startTick":174103,"startTime":68.008984375,"velocity":68},{"channel":1,"duration":0.1875,"durationBeats":0.5,"durationTicks":480,"endBeat":181.909375,"endTick":174633,"endTime":68.21601562500001,"note":31,"startBeat":181.409375,"startTick":174153,"startTime":68.02851562500001,"velocity":50},{"channel":0,"duration":0.1875,"durationBeats":0.5,"durationTicks":480,"endBeat":182.35729166666667,"endTick":175063,"endTime":68.383984375,"note":62,"startBeat":181.85729166666667,"startTick":174583,"startTime":68.196484375,"velocity":68},{"channel":0,"duration":0.1875,"durationBeats":0.5,"durationTicks":480,"endBeat":182.35729166666667,"endTick":175063,"endTime":68.383984375,"note":65,"startBeat":181.85729166666667,"startTick":174583,"startTime":68.196484375,"velocity":68},{"channel":9,"duration":0.09375,"durationBeats":0.25,"durationTicks":240,"endBeat":182.5,"endTick":175200,"endTime":68.4375,"note":42,"startBeat":182.25,"startTick":174960,"startTime":68.34375,"velocity":50},{"channel":2,"duration":0.1875,"durationBeats":0.5,"durationTicks":480,"endBeat":182.63854166666667,"endTick":175333,"endTime":68.489453125,"note":31,"startBeat":182.13854166666667,"startTick":174853,"startTime":68.301953125,"velocity":57},{"channel":9,"duration":0.09375,"durationBeats":0.25,"durationTicks":240,"endBeat":182.75,"endTick":175440,"endTime":68.53125,"note":42,"startBeat":182.5,"startTick":175200,"startTime":68.4375,"velocity":50},{"channel":0,"duration":0.375,"durationBeats":1,"durationTicks":960,"endBeat":182.85729166666667,"endTick":175543,"endTime":68.571484375,"note":43,"startBeat":181.85729166666667,"startTick":174583,"startTime":68.196484375,"velocity":68},{"channel":0,"duration":0.1875,"durationBeats":0.5,"durationTicks":480,"endBeat":182.85729166666667,"endTick":175543,"endTime":68.571484375,"note":64,"startBeat":182.35729166666667,"startTick":175063,"startTime":68.383984375,"velocity":68},{"channel":0,"duration":0.1875,"durationBeats":0.5,"durationTicks":480,"endBeat":182.85729166666667,"endTick":175543,"endTime":68.571484375,"note":67,"startBeat":182.35729166666667,"startTick":175063,"startTime":68.383984375,"velocity":68},{"channel":1,"duration":0.1875,"durationBeats":0.5,"durationTicks":480,"endBeat":182.909375,"endTick":175593,"endTime":68.59101562500001,"note":31,"startBeat":182.409375,"startTick":175113,"startTime":68.40351562500001,"velocity":50},{"channel":2,"duration":0.1875,"durationBeats":0.5,"durationTicks":480,"endBeat":183.13854166666667,"endTick":175813,"endTime":68.676953125,"note":32,"startBeat":182.63854166666667,"startTick":175333,"startTime":68.489453125,"velocity":57},{"channel":0,"duration":0.1875,"durationBeats":0.5,"durationTicks":480,"endBeat":183.35729166666667,"endTick":176023,"endTime":68.758984375,"note":45,"startBeat":182.85729166666667,"startTick":175543,"startTime":68.571484375,"velocity":68},{"channel":0,"duration":0.1875,"durationBeats":0.5,"durationTicks":480,"endBeat":183.35729166666667,"endTick":176023,"endTime":68.758984375,"note":61,"startBeat":182.85729166666667,"startTick":175543,"startTime":68.571484375,"velocity":68},{"channel":0,"duration":0.1875,"durationBeats":0.5,"durationTicks":480,"endBeat":183.35729166666667,"endTick":176023,"endTime":68.758984375,"note":64,"startBeat":182.85729166666667,"startTick":175543,"startTime":68.571484375,"velocity":68},{"channel":1,"duration":0.1875,"durationBeats":0.5,"durationTicks":480,"endBeat":183.409375,"endTick":176073,"endTime":68.77851562500001,"note":32,"startBeat":182.909375,"startTick":175593,"startTime":68.59101562500001,"velocity":50},{"channel":0,"duration":0.046875,"durationBeats":0.125,"durationTicks":120,"endBeat":183.48229166666667,"endTick":176143,"endTime":68.805859375,"note":45,"startBeat":183.35729166666667,"startTick":176023,"startTime":68.758984375,"velocity":68},{"channel":9,"duration":0.09375,"durationBeats":0.25,"durationTicks":240,"endBeat":183.5,"endTick":176160,"endTime":68.8125,"note":42,"startBeat":183.25,"startTick":175920,"startTime":68.71875,"velocity":50},{"channel":2,"duration":0.1875,"durationBeats":0.5,"durationTicks":480,"endBeat":183.63854166666667,"endTick":176293,"endTime":68.864453125,"note":33,"startBeat":183.13854166666667,"startTick":175813,"startTime":68.676953125,"velocity":57},{"channel":0,"duration":0.046875,"durationBeats":0.125,"durationTicks":120,"endBeat":183.73229166666667,"endTick":176383,"endTime":68.899609375,"note":45,"startBeat":183.60729166666667,"startTick":176263,"startTime":68.852734375,"velocity":68},{"channel":1,"duration":0.1875,"durationBeats":0.5,"durationTicks":480,"endBeat":183.909375,"endTick":176553,"endTime":68.96601562500001,"note":33,"startBeat":183.409375,"startTick":176073,"startTime":68.77851562500001,"velocity":50},{"channel":2,"duration":0.09375,"durationBeats":0.25,"durationTicks":240,"endBeat":184.13854166666667,"endTick":176773,"endTime":69.051953125,"note":33,"startBeat":183.88854166666667,"startTick":176533,"startTime":68.958203125,"velocity":57},{"channel":9,"duration":0.09375,"durationBeats":0.25,"durationTicks":240,"endBeat":184.25,"endTick":176880,"endTime":69.09375,"note":42,"startBeat":184,"startTick":176640,"startTime":69,"velocity":50},{"channel":9,"duration":0.0234375,"durationBeats":0.0625,"durationTicks":60,"endBeat":184.3125,"endTick":176940,"endTime":69.1171875,"note":42,"startBeat":184.25,"startTick":176880,"startTime":69.09375,"velocity":50},{"channel":0,"duration":0.1875,"durationBeats":0.5,"durationTicks":480,"endBeat":184.35729166666667,"endTick":176983,"endTime":69.133984375,"note":45,"startBeat":183.85729166666667,"startTick":176503,"startTime":68.946484375,"velocity":68},{"channel":0,"duration":0.1875,"durationBeats":0.5,"durationTicks":480,"endBeat":184.35729166666667,"endTick":176983,"endTime":69.133984375,"note":69,"startBeat":183.85729166666667,"startTick":176503,"startTime":68.946484375,"velocity":68},{"channel":0,"duration":0.1875,"durationBeats":0.5,"durationTicks":480,"endBeat":184.35729166666667,"endTick":176983,"endTime":69.133984375,"note":64,"startBeat":183.85729166666667,"startTick":176503,"startTime":68.946484375,"velocity":68},{"channel":0,"duration":0.1875,"durationBeats":0.5,"durationTicks":480,"endBeat":184.35729166666667,"endTick":176983,"endTime":69.133984375,"note":61,"startBeat":183.85729166666667,"startTick":176503,"startTime":68.946484375,"velocity":68},{"channel":1,"duration":0.09375,"durationBeats":0.25,"durationTicks":240,"endBeat":184.409375,"endTick":177033,"endTime":69.15351562500001,"note":33,"startBeat":184.159375,"startTick":176793,"startTime":69.05976562500001,"velocity":50},{"channel":9,"duration":0.0234375,"durationBeats":0.0625,"durationTicks":60,"endBeat":184.4375,"endTick":177060,"endTime":69.1640625,"note":42,"startBeat":184.375,"startTick":177000,"startTime":69.140625,"velocity":50},{"channel":9,"duration":0.0234375,"durationBeats":0.0625,"durationTicks":60,"endBeat":184.5625,"endTick":177180,"endTime":69.2109375,"note":42,"startBeat":184.5,"startTick":177120,"startTime":69.1875,"velocity":50},{"channel":9,"duration":0.0234375,"durationBeats":0.0625,"durationTicks":60,"endBeat":184.6875,"endTick":177300,"endTime":69.2578125,"note":42,"startBeat":184.625,"startTick":177240,"startTime":69.234375,"velocity":50},{"channel":9,"duration":0.0234375,"durationBeats":0.0625,"durationTicks":60,"endBeat":184.8125,"endTick":177420,"endTime":69.3046875,"note":42,"startBeat":184.75,"startTick":177360,"startTime":69.28125,"velocity":50},{"channel":0,"duration":0.1875,"durationBeats":0.5,"durationTicks":480,"endBeat":184.85729166666667,"endTick":177463,"endTime":69.321484375,"note":33,"startBeat":184.35729166666667,"startTick":176983,"startTime":69.133984375,"velocity":68},{"channel":2,"duration":0.1875,"durationBeats":0.5,"durationTicks":480,"endBeat":185.13854166666667,"endTick":177733,"endTime":69.426953125,"note":26,"startBeat":184.63854166666667,"startTick":177253,"startTime":69.239453125,"velocity":57},{"channel":0,"duration":0.1875,"durationBeats":0.5,"durationTicks":480,"endBeat":185.35729166666667,"endTick":177943,"endTime":69.508984375,"note":45,"startBeat":184.85729166666667,"startTick":177463,"startTime":69.321484375,"velocity":68},{"channel":0,"duration":0.1875,"durationBeats":0.5,"durationTicks":480,"endBeat":185.35729166666667,"endTick":177943,"endTime":69.508984375,"note":81,"startBeat":184.85729166666667,"startTick":177463,"startTime":69.321484375,"velocity":68},{"channel":0,"duration":0.1875,"durationBeats":0.5,"durationTicks":480,"endBeat":185.35729166666667,"endTick":177943,"endTime":69.508984375,"note":76,"startBeat":184.85729166666667,"startTick":177463,"startTime":69.321484375,"velocity":68},{"channel":0,"duration":0.1875,"durationBeats":0.5,"durationTicks":480,"endBeat":185.35729166666667,"endTick":177943,"endTime":69.508984375,"note":73,"startBeat":184.85729166666667,"startTick":177463,"startTime":69.321484375,"velocity":68},{"channel":1,"duration":0.1875,"durationBeats":0.5,"durationTicks":480,"endBeat":185.409375,"endTick":177993,"endTime":69.52851562500001,"note":26,"startBeat":184.909375,"startTick":177513,"startTime":69.34101562500001,"velocity":50},{"channel":9,"duration":0.09375,"durationBeats":0.25,"durationTicks":240,"endBeat":185.5,"endTick":178080,"endTime":69.5625,"note":42,"startBeat":185.25,"startTick":177840,"startTime":69.46875,"velocity":50},{"channel":9,"duration":0.09375,"durationBeats":0.25,"durationTicks":240,"endBeat":185.75,"endTick":178320,"endTime":69.65625,"note":42,"startBeat":185.5,"startTick":178080,"startTime":69.5625,"velocity":50},{"channel":0,"duration":0.1875,"durationBeats":0.5,"durationTicks":480,"endBeat":185.85729166666667,"endTick":178423,"endTime":69.696484375,"note":45,"startBeat":185.35729166666667,"startTick":177943,"startTime":69.508984375,"velocity":68},{"channel":0,"duration":0.1875,"durationBeats":0.5,"durationTicks":480,"endBeat":185.85729166666667,"endTick":178423,"endTime":69.696484375,"note":33,"startBeat":185.35729166666667,"startTick":177943,"startTime":69.508984375,"velocity":68},{"channel":2,"duration":0.1875,"durationBeats":0.5,"durationTicks":480,"endBeat":186.13854166666667,"endTick":178693,"endTime":69.801953125,"note":38,"startBeat":185.63854166666667,"startTick":178213,"startTime":69.614453125,"velocity":57},{"channel":0,"duration":0.1875,"durationBeats":0.5,"durationTicks":480,"endBeat":186.35729166666667,"endTick":178903,"endTime":69.883984375,"note":33,"startBeat":185.85729166666667,"startTick":178423,"startTime":69.696484375,"velocity":68},{"channel":0,"duration":0.1875,"durationBeats":0.5,"durationTicks":480,"endBeat":186.35729166666667,"endTick":178903,"endTime":69.883984375,"note":72,"startBeat":185.85729166666667,"startTick":178423,"startTime":69.696484375,"velocity":68},{"channel":0,"duration":0.1875,"durationBeats":0.5,"durationTicks":480,"endBeat":186.35729166666667,"endTick":178903,"endTime":69.883984375,"note":67,"startBeat":185.85729166666667,"startTick":178423,"startTime":69.696484375,"velocity":68},{"channel":0,"duration":0.1875,"durationBeats":0.5,"durationTicks":480,"endBeat":186.35729166666667,"endTick":178903,"endTime":69.883984375,"note":61,"startBeat":185.85729166666667,"startTick":178423,"startTime":69.696484375,"velocity":68},{"channel":0,"duration":0.1875,"durationBeats":0.5,"durationTicks":480,"endBeat":186.35729166666667,"endTick":178903,"endTime":69.883984375,"note":45,"startBeat":185.85729166666667,"startTick":178423,"startTime":69.696484375,"velocity":68},{"channel":1,"duration":0.1875,"durationBeats":0.5,"durationTicks":480,"endBeat":186.409375,"endTick":178953,"endTime":69.90351562500001,"note":38,"startBeat":185.909375,"startTick":178473,"startTime":69.71601562500001,"velocity":50},{"channel":9,"duration":0.09375,"durationBeats":0.25,"durationTicks":240,"endBeat":186.5,"endTick":179040,"endTime":69.9375,"note":42,"startBeat":186.25,"startTick":178800,"startTime":69.84375,"velocity":50},{"channel":0,"duration":0.09375,"durationBeats":0.25,"durationTicks":240,"endBeat":186.60729166666667,"endTick":179143,"endTime":69.977734375,"note":71,"startBeat":186.35729166666667,"startTick":178903,"startTime":69.883984375,"velocity":68},{"channel":2,"duration":0.1875,"durationBeats":0.5,"durationTicks":480,"endBeat":186.63854166666667,"endTick":179173,"endTime":69.989453125,"note":26,"startBeat":186.13854166666667,"startTick":178693,"startTime":69.801953125,"velocity":57},{"channel":9,"duration":0.09375,"durationBeats":0.25,"durationTicks":240,"endBeat":186.75,"endTick":179280,"endTime":70.03125,"note":42,"startBeat":186.5,"startTick":179040,"startTime":69.9375,"velocity":50},{"channel":0,"duration":0.1875,"durationBeats":0.5,"durationTicks":480,"endBeat":186.85729166666667,"endTick":179383,"endTime":70.071484375,"note":33,"startBeat":186.35729166666667,"startTick":178903,"startTime":69.883984375,"velocity":68},{"channel":0,"duration":0.09375,"durationBeats":0.25,"durationTicks":240,"endBeat":186.85729166666667,"endTick":179383,"endTime":70.071484375,"note":70,"startBeat":186.60729166666667,"startTick":179143,"startTime":69.977734375,"velocity":68},{"channel":1,"duration":0.1875,"durationBeats":0.5,"durationTicks":480,"endBeat":186.909375,"endTick":179433,"endTime":70.09101562500001,"note":26,"startBeat":186.409375,"startTick":178953,"startTime":69.90351562500001,"velocity":50},{"channel":9,"duration":0.09375,"durationBeats":0.25,"durationTicks":240,"endBeat":186.91145833333334,"endTick":179435,"endTime":70.091796875,"note":35,"startBeat":186.66145833333334,"startTick":179195,"startTime":69.998046875,"velocity":50},{"channel":9,"duration":0.09375,"durationBeats":0.25,"durationTicks":240,"endBeat":187.08333333333334,"endTick":179600,"endTime":70.15625,"note":42,"startBeat":186.83333333333334,"startTick":179360,"startTime":70.0625,"velocity":50},{"channel":2,"duration":0.1875,"durationBeats":0.5,"durationTicks":480,"endBeat":187.13854166666667,"endTick":179653,"endTime":70.176953125,"note":33,"startBeat":186.63854166666667,"startTick":179173,"startTime":69.989453125,"velocity":57},{"channel":9,"duration":0.09375,"durationBeats":0.25,"durationTicks":240,"endBeat":187.18229166666666,"endTick":179695,"endTime":70.193359375,"note":35,"startBeat":186.93229166666666,"startTick":179455,"startTime":70.099609375,"velocity":50},{"channel":9,"duration":0.03125,"durationBeats":0.08333333333334281,"durationTicks":80,"endBeat":187.33333333333334,"endTick":179840,"endTime":70.25,"note":42,"startBeat":187.25,"startTick":179760,"startTime":70.21875,"velocity":50},{"channel":0,"duration":0.1875,"durationBeats":0.5,"durationTicks":480,"endBeat":187.35729166666667,"endTick":179863,"endTime":70.258984375,"note":31,"startBeat":186.85729166666667,"startTick":179383,"startTime":70.071484375,"velocity":68},{"channel":1,"duration":0.1875,"durationBeats":0.5,"durationTicks":480,"endBeat":187.409375,"endTick":179913,"endTime":70.27851562500001,"note":33,"startBeat":186.909375,"startTick":179433,"startTime":70.09101562500001,"velocity":50},{"channel":0,"duration":0.375,"durationBeats":1,"durationTicks":960,"endBeat":187.85729166666667,"endTick":180343,"endTime":70.446484375,"note":69,"startBeat":186.85729166666667,"startTick":179383,"startTime":70.071484375,"velocity":68},{"channel":0,"duration":0.375,"durationBeats":1,"durationTicks":960,"endBeat":187.85729166666667,"endTick":180343,"endTime":70.446484375,"note":65,"startBeat":186.85729166666667,"startTick":179383,"startTime":70.071484375,"velocity":68},{"channel":0,"duration":0.375,"durationBeats":1,"durationTicks":960,"endBeat":187.85729166666667,"endTick":180343,"endTime":70.446484375,"note":62,"startBeat":186.85729166666667,"startTick":179383,"startTime":70.071484375,"velocity":68},{"channel":0,"duration":0.375,"durationBeats":1,"durationTicks":960,"endBeat":187.85729166666667,"endTick":180343,"endTime":70.446484375,"note":58,"startBeat":186.85729166666667,"startTick":179383,"startTime":70.071484375,"velocity":68},{"channel":9,"duration":0.09375,"durationBeats":0.25,"durationTicks":240,"endBeat":187.91145833333334,"endTick":180395,"endTime":70.466796875,"note":35,"startBeat":187.66145833333334,"startTick":180155,"startTime":70.373046875,"velocity":50},{"channel":9,"duration":0.03125,"durationBeats":0.08333333333334281,"durationTicks":80,"endBeat":188.08333333333334,"endTick":180560,"endTime":70.53125,"note":42,"startBeat":188,"startTick":180480,"startTime":70.5,"velocity":50},{"channel":2,"duration":0.1875,"durationBeats":0.5,"durationTicks":480,"endBeat":188.13854166666667,"endTick":180613,"endTime":70.551953125,"note":26,"startBeat":187.63854166666667,"startTick":180133,"startTime":70.364453125,"velocity":57},{"channel":9,"duration":0.09375,"durationBeats":0.25,"durationTicks":240,"endBeat":188.18229166666666,"endTick":180655,"endTime":70.568359375,"note":35,"startBeat":187.93229166666666,"startTick":180415,"startTime":70.474609375,"velocity":50},{"channel":9,"duration":0.0625,"durationBeats":0.1666666666666572,"durationTicks":160,"endBeat":188.25,"endTick":180720,"endTime":70.59375,"note":42,"startBeat":188.08333333333334,"startTick":180560,"startTime":70.53125,"velocity":50},{"channel":9,"duration":0.0234375,"durationBeats":0.0625,"durationTicks":60,"endBeat":188.3125,"endTick":180780,"endTime":70.6171875,"note":42,"startBeat":188.25,"startTick":180720,"startTime":70.59375,"velocity":50},{"channel":0,"duration":0.1875,"durationBeats":0.5,"durationTicks":480,"endBeat":188.35729166666667,"endTick":180823,"endTime":70.633984375,"note":31,"startBeat":187.85729166666667,"startTick":180343,"startTime":70.446484375,"velocity":68},{"channel":1,"duration":0.1875,"durationBeats":0.5,"durationTicks":480,"endBeat":188.409375,"endTick":180873,"endTime":70.65351562500001,"note":26,"startBeat":187.909375,"startTick":180393,"startTime":70.46601562500001,"velocity":50},{"channel":9,"duration":0.0234375,"durationBeats":0.0625,"durationTicks":60,"endBeat":188.4375,"endTick":180900,"endTime":70.6640625,"note":42,"startBeat":188.375,"startTick":180840,"startTime":70.640625,"velocity":50},{"channel":9,"duration":0.0234375,"durationBeats":0.0625,"durationTicks":60,"endBeat":188.5625,"endTick":181020,"endTime":70.7109375,"note":42,"startBeat":188.5,"startTick":180960,"startTime":70.6875,"velocity":50},{"channel":2,"duration":0.1875,"durationBeats":0.5,"durationTicks":480,"endBeat":188.63854166666667,"endTick":181093,"endTime":70.739453125,"note":33,"startBeat":188.13854166666667,"startTick":180613,"startTime":70.551953125,"velocity":57},{"channel":9,"duration":0.0234375,"durationBeats":0.0625,"durationTicks":60,"endBeat":188.6875,"endTick":181140,"endTime":70.7578125,"note":42,"startBeat":188.625,"startTick":181080,"startTime":70.734375,"velocity":50},{"channel":9,"duration":0.0234375,"durationBeats":0.0625,"durationTicks":60,"endBeat":188.8125,"endTick":181260,"endTime":70.8046875,"note":42,"startBeat":188.75,"startTick":181200,"startTime":70.78125,"velocity":50},{"channel":1,"duration":0.1875,"durationBeats":0.5,"durationTicks":480,"endBeat":188.909375,"endTick":181353,"endTime":70.84101562500001,"note":33,"startBeat":188.409375,"startTick":180873,"startTime":70.65351562500001,"velocity":50},{"channel":9,"duration":0.09375,"durationBeats":0.25,"durationTicks":240,"endBeat":188.91145833333334,"endTick":181355,"endTime":70.841796875,"note":35,"startBeat":188.66145833333334,"startTick":181115,"startTime":70.748046875,"velocity":50},{"channel":9,"duration":0.09375,"durationBeats":0.25,"durationTicks":240,"endBeat":189.08333333333334,"endTick":181520,"endTime":70.90625,"note":42,"startBeat":188.83333333333334,"startTick":181280,"startTime":70.8125,"velocity":50},{"channel":2,"duration":0.1875,"durationBeats":0.5,"durationTicks":480,"endBeat":189.13854166666667,"endTick":181573,"endTime":70.926953125,"note":32,"startBeat":188.63854166666667,"startTick":181093,"startTime":70.739453125,"velocity":57},{"channel":9,"duration":0.09375,"durationBeats":0.25,"durationTicks":240,"endBeat":189.18229166666666,"endTick":181615,"endTime":70.943359375,"note":35,"startBeat":188.93229166666666,"startTick":181375,"startTime":70.849609375,"velocity":50},{"channel":0,"duration":0.1875,"durationBeats":0.5,"durationTicks":480,"endBeat":189.35729166666667,"endTick":181783,"endTime":71.008984375,"note":33,"startBeat":188.85729166666667,"startTick":181303,"startTime":70.821484375,"velocity":68},{"channel":0,"duration":0.1875,"durationBeats":0.5,"durationTicks":480,"endBeat":189.35729166666667,"endTick":181783,"endTime":71.008984375,"note":60,"startBeat":188.85729166666667,"startTick":181303,"startTime":70.821484375,"velocity":68},{"channel":0,"duration":0.1875,"durationBeats":0.5,"durationTicks":480,"endBeat":189.35729166666667,"endTick":181783,"endTime":71.008984375,"note":64,"startBeat":188.85729166666667,"startTick":181303,"startTime":70.821484375,"velocity":68},{"channel":0,"duration":0.1875,"durationBeats":0.5,"durationTicks":480,"endBeat":189.35729166666667,"endTick":181783,"endTime":71.008984375,"note":67,"startBeat":188.85729166666667,"startTick":181303,"startTime":70.821484375,"velocity":68},{"channel":0,"duration":0.1875,"durationBeats":0.5,"durationTicks":480,"endBeat":189.35729166666667,"endTick":181783,"endTime":71.008984375,"note":72,"startBeat":188.85729166666667,"startTick":181303,"startTime":70.821484375,"velocity":68},{"channel":1,"duration":0.1875,"durationBeats":0.5,"durationTicks":480,"endBeat":189.409375,"endTick":181833,"endTime":71.02851562500001,"note":32,"startBeat":188.909375,"startTick":181353,"startTime":70.84101562500001,"velocity":50},{"channel":9,"duration":0.09375,"durationBeats":0.25,"durationTicks":240,"endBeat":189.5,"endTick":181920,"endTime":71.0625,"note":42,"startBeat":189.25,"startTick":181680,"startTime":70.96875,"velocity":50},{"channel":2,"duration":0.1875,"durationBeats":0.5,"durationTicks":480,"endBeat":189.63854166666667,"endTick":182053,"endTime":71.114453125,"note":31,"startBeat":189.13854166666667,"startTick":181573,"startTime":70.926953125,"velocity":57},{"channel":9,"duration":0.09375,"durationBeats":0.25,"durationTicks":240,"endBeat":189.66145833333334,"endTick":182075,"endTime":71.123046875,"note":35,"startBeat":189.41145833333334,"startTick":181835,"startTime":71.029296875,"velocity":50},{"channel":9,"duration":0.09375,"durationBeats":0.25,"durationTicks":240,"endBeat":189.83333333333334,"endTick":182240,"endTime":71.1875,"note":42,"startBeat":189.58333333333334,"startTick":182000,"startTime":71.09375,"velocity":50},{"channel":9,"duration":0.0234375,"durationBeats":0.0625,"durationTicks":60,"endBeat":189.89583333333334,"endTick":182300,"endTime":71.2109375,"note":42,"startBeat":189.83333333333334,"startTick":182240,"startTime":71.1875,"velocity":50},{"channel":1,"duration":0.1875,"durationBeats":0.5,"durationTicks":480,"endBeat":189.909375,"endTick":182313,"endTime":71.21601562500001,"note":31,"startBeat":189.409375,"startTick":181833,"startTime":71.02851562500001,"velocity":50},{"channel":9,"duration":0.09375,"durationBeats":0.25,"durationTicks":240,"endBeat":189.93229166666666,"endTick":182335,"endTime":71.224609375,"note":35,"startBeat":189.68229166666666,"startTick":182095,"startTime":71.130859375,"velocity":50},{"channel":9,"duration":0.0234375,"durationBeats":0.0625,"durationTicks":60,"endBeat":190.02083333333334,"endTick":182420,"endTime":71.2578125,"note":42,"startBeat":189.95833333333334,"startTick":182360,"startTime":71.234375,"velocity":50},{"channel":0,"duration":0.1875,"durationBeats":0.5,"durationTicks":480,"endBeat":190.10729166666667,"endTick":182503,"endTime":71.290234375,"note":33,"startBeat":189.60729166666667,"startTick":182023,"startTime":71.102734375,"velocity":68},{"channel":9,"duration":0.0234375,"durationBeats":0.0625,"durationTicks":60,"endBeat":190.14583333333334,"endTick":182540,"endTime":71.3046875,"note":42,"startBeat":190.08333333333334,"startTick":182480,"startTime":71.28125,"velocity":50},{"channel":9,"duration":0.0078125,"durationBeats":0.020833333333342807,"durationTicks":20,"endBeat":190.27083333333334,"endTick":182660,"endTime":71.3515625,"note":42,"startBeat":190.25,"startTick":182640,"startTime":71.34375,"velocity":50},{"channel":0,"duration":0.1875,"durationBeats":0.5,"durationTicks":480,"endBeat":190.35729166666667,"endTick":182743,"endTime":71.383984375,"note":70,"startBeat":189.85729166666667,"startTick":182263,"startTime":71.196484375,"velocity":68},{"channel":0,"duration":0.1875,"durationBeats":0.5,"durationTicks":480,"endBeat":190.35729166666667,"endTick":182743,"endTime":71.383984375,"note":67,"startBeat":189.85729166666667,"startTick":182263,"startTime":71.196484375,"velocity":68},{"channel":0,"duration":0.1875,"durationBeats":0.5,"durationTicks":480,"endBeat":190.35729166666667,"endTick":182743,"endTime":71.383984375,"note":65,"startBeat":189.85729166666667,"startTick":182263,"startTime":71.196484375,"velocity":68},{"channel":0,"duration":0.1875,"durationBeats":0.5,"durationTicks":480,"endBeat":190.35729166666667,"endTick":182743,"endTime":71.383984375,"note":61,"startBeat":189.85729166666667,"startTick":182263,"startTime":71.196484375,"velocity":68},{"channel":9,"duration":0.0234375,"durationBeats":0.0625,"durationTicks":60,"endBeat":190.39583333333334,"endTick":182780,"endTime":71.3984375,"note":42,"startBeat":190.33333333333334,"startTick":182720,"startTime":71.375,"velocity":50},{"channel":9,"duration":0.09375,"durationBeats":0.25,"durationTicks":240,"endBeat":190.41145833333334,"endTick":182795,"endTime":71.404296875,"note":35,"startBeat":190.16145833333334,"startTick":182555,"startTime":71.310546875,"velocity":50},{"channel":2,"duration":0.1875,"durationBeats":0.5,"durationTicks":480,"endBeat":190.63854166666667,"endTick":183013,"endTime":71.489453125,"note":31,"startBeat":190.13854166666667,"startTick":182533,"startTime":71.301953125,"velocity":57},{"channel":9,"duration":0.0078125,"durationBeats":0.020833333333314386,"durationTicks":20,"endBeat":190.68229166666666,"endTick":183055,"endTime":71.505859375,"note":35,"startBeat":190.66145833333334,"startTick":183035,"startTime":71.498046875,"velocity":50},{"channel":9,"duration":0.09375,"durationBeats":0.25,"durationTicks":240,"endBeat":190.75,"endTick":183120,"endTime":71.53125,"note":42,"startBeat":190.5,"startTick":182880,"startTime":71.4375,"velocity":50},{"channel":0,"duration":0.1875,"durationBeats":0.5,"durationTicks":480,"endBeat":190.85729166666667,"endTick":183223,"endTime":71.571484375,"note":33,"startBeat":190.35729166666667,"startTick":182743,"startTime":71.383984375,"velocity":68},{"channel":1,"duration":0.1875,"durationBeats":0.5,"durationTicks":480,"endBeat":190.909375,"endTick":183273,"endTime":71.59101562500001,"note":31,"startBeat":190.409375,"startTick":182793,"startTime":71.40351562500001,"velocity":50},{"channel":9,"duration":0.09375,"durationBeats":0.25,"durationTicks":240,"endBeat":191.08333333333334,"endTick":183440,"endTime":71.65625,"note":42,"startBeat":190.83333333333334,"startTick":183200,"startTime":71.5625,"velocity":50},{"channel":2,"duration":0.1875,"durationBeats":0.5,"durationTicks":480,"endBeat":191.13854166666667,"endTick":183493,"endTime":71.676953125,"note":32,"startBeat":190.63854166666667,"startTick":183013,"startTime":71.489453125,"velocity":57},{"channel":9,"duration":0.09375,"durationBeats":0.25,"durationTicks":240,"endBeat":191.18229166666666,"endTick":183535,"endTime":71.693359375,"note":35,"startBeat":190.93229166666666,"startTick":183295,"startTime":71.599609375,"velocity":50},{"channel":9,"duration":0.03125,"durationBeats":0.08333333333334281,"durationTicks":80,"endBeat":191.33333333333334,"endTick":183680,"endTime":71.75,"note":42,"startBeat":191.25,"startTick":183600,"startTime":71.71875,"velocity":50},{"channel":0,"duration":0.1875,"durationBeats":0.5,"durationTicks":480,"endBeat":191.35729166666667,"endTick":183703,"endTime":71.758984375,"note":26,"startBeat":190.85729166666667,"startTick":183223,"startTime":71.571484375,"velocity":68},{"channel":0,"duration":0.1875,"durationBeats":0.5,"durationTicks":480,"endBeat":191.35729166666667,"endTick":183703,"endTime":71.758984375,"note":69,"startBeat":190.85729166666667,"startTick":183223,"startTime":71.571484375,"velocity":68},{"channel":0,"duration":0.1875,"durationBeats":0.5,"durationTicks":480,"endBeat":191.35729166666667,"endTick":183703,"endTime":71.758984375,"note":65,"startBeat":190.85729166666667,"startTick":183223,"startTime":71.571484375,"velocity":68},{"channel":0,"duration":0.1875,"durationBeats":0.5,"durationTicks":480,"endBeat":191.35729166666667,"endTick":183703,"endTime":71.758984375,"note":64,"startBeat":190.85729166666667,"startTick":183223,"startTime":71.571484375,"velocity":68},{"channel":0,"duration":0.1875,"durationBeats":0.5,"durationTicks":480,"endBeat":191.35729166666667,"endTick":183703,"endTime":71.758984375,"note":60,"startBeat":190.85729166666667,"startTick":183223,"startTime":71.571484375,"velocity":68},{"channel":1,"duration":0.1875,"durationBeats":0.5,"durationTicks":480,"endBeat":191.409375,"endTick":183753,"endTime":71.77851562500001,"note":32,"startBeat":190.909375,"startTick":183273,"startTime":71.59101562500001,"velocity":50},{"channel":2,"duration":0.1875,"durationBeats":0.5,"durationTicks":480,"endBeat":191.63854166666667,"endTick":183973,"endTime":71.864453125,"note":33,"startBeat":191.13854166666667,"startTick":183493,"startTime":71.676953125,"velocity":57},{"channel":1,"duration":0.1875,"durationBeats":0.5,"durationTicks":480,"endBeat":191.909375,"endTick":184233,"endTime":71.96601562500001,"note":33,"startBeat":191.409375,"startTick":183753,"startTime":71.77851562500001,"velocity":50},{"channel":9,"duration":0.09375,"durationBeats":0.25,"durationTicks":240,"endBeat":191.91145833333334,"endTick":184235,"endTime":71.966796875,"note":35,"startBeat":191.66145833333334,"startTick":183995,"startTime":71.873046875,"velocity":50},{"channel":9,"duration":0.03125,"durationBeats":0.08333333333334281,"durationTicks":80,"endBeat":192.08333333333334,"endTick":184400,"endTime":72.03125,"note":42,"startBeat":192,"startTick":184320,"startTime":72,"velocity":50},{"channel":2,"duration":0.09375,"durationBeats":0.25,"durationTicks":240,"endBeat":192.13854166666667,"endTick":184453,"endTime":72.051953125,"note":33,"startBeat":191.88854166666667,"startTick":184213,"startTime":71.958203125,"velocity":57},{"channel":9,"duration":0.09375,"durationBeats":0.25,"durationTicks":240,"endBeat":192.18229166666666,"endTick":184495,"endTime":72.068359375,"note":35,"startBeat":191.93229166666666,"startTick":184255,"startTime":71.974609375,"velocity":50},{"channel":9,"duration":0.0625,"durationBeats":0.1666666666666572,"durationTicks":160,"endBeat":192.25,"endTick":184560,"endTime":72.09375,"note":42,"startBeat":192.08333333333334,"startTick":184400,"startTime":72.03125,"velocity":50},{"channel":9,"duration":0.0234375,"durationBeats":0.0625,"durationTicks":60,"endBeat":192.3125,"endTick":184620,"endTime":72.1171875,"note":42,"startBeat":192.25,"startTick":184560,"startTime":72.09375,"velocity":50},{"channel":0,"duration":0.1875,"durationBeats":0.5,"durationTicks":480,"endBeat":192.35729166666667,"endTick":184663,"endTime":72.133984375,"note":26,"startBeat":191.85729166666667,"startTick":184183,"startTime":71.946484375,"velocity":68},{"channel":1,"duration":0.09375,"durationBeats":0.25,"durationTicks":240,"endBeat":192.409375,"endTick":184713,"endTime":72.15351562500001,"note":33,"startBeat":192.159375,"startTick":184473,"startTime":72.05976562500001,"velocity":50},{"channel":9,"duration":0.001953125,"durationBeats":0.005208333333342807,"durationTicks":5,"endBeat":192.4375,"endTick":184740,"endTime":72.1640625,"note":42,"startBeat":192.43229166666666,"startTick":184735,"startTime":72.162109375,"velocity":50},{"channel":9,"duration":0.0234375,"durationBeats":0.0625,"durationTicks":60,"endBeat":192.5625,"endTick":184860,"endTime":72.2109375,"note":42,"startBeat":192.5,"startTick":184800,"startTime":72.1875,"velocity":50},{"channel":9,"duration":0.021484375,"durationBeats":0.05729166666665719,"durationTicks":55,"endBeat":192.68229166666666,"endTick":184975,"endTime":72.255859375,"note":42,"startBeat":192.625,"startTick":184920,"startTime":72.234375,"velocity":50},{"channel":9,"duration":0.09375,"durationBeats":0.25,"durationTicks":240,"endBeat":192.91145833333334,"endTick":185195,"endTime":72.341796875,"note":35,"startBeat":192.66145833333334,"startTick":184955,"startTime":72.248046875,"velocity":50},{"channel":9,"duration":0.09375,"durationBeats":0.25,"durationTicks":240,"endBeat":193.08333333333334,"endTick":185360,"endTime":72.40625,"note":42,"startBeat":192.83333333333334,"startTick":185120,"startTime":72.3125,"velocity":50},{"channel":2,"duration":0.1875,"durationBeats":0.5,"durationTicks":480,"endBeat":193.13854166666667,"endTick":185413,"endTime":72.426953125,"note":26,"startBeat":192.63854166666667,"startTick":184933,"startTime":72.239453125,"velocity":57},{"channel":9,"duration":0.09375,"durationBeats":0.25,"durationTicks":240,"endBeat":193.18229166666666,"endTick":185455,"endTime":72.443359375,"note":35,"startBeat":192.93229166666666,"startTick":185215,"startTime":72.349609375,"velocity":50},{"channel":0,"duration":0.1875,"durationBeats":0.5,"durationTicks":480,"endBeat":193.35729166666667,"endTick":185623,"endTime":72.508984375,"note":38,"startBeat":192.85729166666667,"startTick":185143,"startTime":72.321484375,"velocity":68},{"channel":0,"duration":0.1875,"durationBeats":0.5,"durationTicks":480,"endBeat":193.35729166666667,"endTick":185623,"endTime":72.508984375,"note":65,"startBeat":192.85729166666667,"startTick":185143,"startTime":72.321484375,"velocity":68},{"channel":0,"duration":0.1875,"durationBeats":0.5,"durationTicks":480,"endBeat":193.35729166666667,"endTick":185623,"endTime":72.508984375,"note":69,"startBeat":192.85729166666667,"startTick":185143,"startTime":72.321484375,"velocity":68},{"channel":0,"duration":0.1875,"durationBeats":0.5,"durationTicks":480,"endBeat":193.35729166666667,"endTick":185623,"endTime":72.508984375,"note":60,"startBeat":192.85729166666667,"startTick":185143,"startTime":72.321484375,"velocity":68},{"channel":0,"duration":0.1875,"durationBeats":0.5,"durationTicks":480,"endBeat":193.35729166666667,"endTick":185623,"endTime":72.508984375,"note":64,"startBeat":192.85729166666667,"startTick":185143,"startTime":72.321484375,"velocity":68},{"channel":1,"duration":0.1875,"durationBeats":0.5,"durationTicks":480,"endBeat":193.409375,"endTick":185673,"endTime":72.52851562500001,"note":26,"startBeat":192.909375,"startTick":185193,"startTime":72.34101562500001,"velocity":50},{"channel":9,"duration":0.09375,"durationBeats":0.25,"durationTicks":240,"endBeat":193.5,"endTick":185760,"endTime":72.5625,"note":42,"startBeat":193.25,"startTick":185520,"startTime":72.46875,"velocity":50},{"channel":9,"duration":0.09375,"durationBeats":0.25,"durationTicks":240,"endBeat":193.66145833333334,"endTick":185915,"endTime":72.623046875,"note":35,"startBeat":193.41145833333334,"startTick":185675,"startTime":72.529296875,"velocity":50},{"channel":9,"duration":0.0625,"durationBeats":0.1666666666666572,"durationTicks":160,"endBeat":193.75,"endTick":186000,"endTime":72.65625,"note":42,"startBeat":193.58333333333334,"startTick":185840,"startTime":72.59375,"velocity":50},{"channel":9,"duration":0.0234375,"durationBeats":0.0625,"durationTicks":60,"endBeat":193.89583333333334,"endTick":186140,"endTime":72.7109375,"note":42,"startBeat":193.83333333333334,"startTick":186080,"startTime":72.6875,"velocity":50},{"channel":9,"duration":0.09375,"durationBeats":0.25,"durationTicks":240,"endBeat":193.93229166666666,"endTick":186175,"endTime":72.724609375,"note":35,"startBeat":193.68229166666666,"startTick":185935,"startTime":72.630859375,"velocity":50},{"channel":9,"duration":0.0234375,"durationBeats":0.0625,"durationTicks":60,"endBeat":194.02083333333334,"endTick":186260,"endTime":72.7578125,"note":42,"startBeat":193.95833333333334,"startTick":186200,"startTime":72.734375,"velocity":50},{"channel":0,"duration":0.1875,"durationBeats":0.5,"durationTicks":480,"endBeat":194.10729166666667,"endTick":186343,"endTime":72.790234375,"note":33,"startBeat":193.60729166666667,"startTick":185863,"startTime":72.602734375,"velocity":68},{"channel":2,"duration":0.1875,"durationBeats":0.5,"durationTicks":480,"endBeat":194.13854166666667,"endTick":186373,"endTime":72.801953125,"note":26,"startBeat":193.63854166666667,"startTick":185893,"startTime":72.614453125,"velocity":57},{"channel":9,"duration":0.0234375,"durationBeats":0.0625,"durationTicks":60,"endBeat":194.14583333333334,"endTick":186380,"endTime":72.8046875,"note":42,"startBeat":194.08333333333334,"startTick":186320,"startTime":72.78125,"velocity":50},{"channel":9,"duration":0.0078125,"durationBeats":0.020833333333342807,"durationTicks":20,"endBeat":194.27083333333334,"endTick":186500,"endTime":72.8515625,"note":42,"startBeat":194.25,"startTick":186480,"startTime":72.84375,"velocity":50},{"channel":0,"duration":0.1875,"durationBeats":0.5,"durationTicks":480,"endBeat":194.35729166666667,"endTick":186583,"endTime":72.883984375,"note":68,"startBeat":193.85729166666667,"startTick":186103,"startTime":72.696484375,"velocity":68},{"channel":0,"duration":0.1875,"durationBeats":0.5,"durationTicks":480,"endBeat":194.35729166666667,"endTick":186583,"endTime":72.883984375,"note":63,"startBeat":193.85729166666667,"startTick":186103,"startTime":72.696484375,"velocity":68},{"channel":0,"duration":0.1875,"durationBeats":0.5,"durationTicks":480,"endBeat":194.35729166666667,"endTick":186583,"endTime":72.883984375,"note":59,"startBeat":193.85729166666667,"startTick":186103,"startTime":72.696484375,"velocity":68},{"channel":9,"duration":0.0234375,"durationBeats":0.0625,"durationTicks":60,"endBeat":194.39583333333334,"endTick":186620,"endTime":72.8984375,"note":42,"startBeat":194.33333333333334,"startTick":186560,"startTime":72.875,"velocity":50},{"channel":1,"duration":0.1875,"durationBeats":0.5,"durationTicks":480,"endBeat":194.409375,"endTick":186633,"endTime":72.90351562500001,"note":26,"startBeat":193.909375,"startTick":186153,"startTime":72.71601562500001,"velocity":50},{"channel":9,"duration":0.09375,"durationBeats":0.25,"durationTicks":240,"endBeat":194.41145833333334,"endTick":186635,"endTime":72.904296875,"note":35,"startBeat":194.16145833333334,"startTick":186395,"startTime":72.810546875,"velocity":50},{"channel":2,"duration":0.1875,"durationBeats":0.5,"durationTicks":480,"endBeat":194.63854166666667,"endTick":186853,"endTime":72.989453125,"note":33,"startBeat":194.13854166666667,"startTick":186373,"startTime":72.801953125,"velocity":57},{"channel":9,"duration":0.0078125,"durationBeats":0.020833333333314386,"durationTicks":20,"endBeat":194.68229166666666,"endTick":186895,"endTime":73.005859375,"note":35,"startBeat":194.66145833333334,"startTick":186875,"startTime":72.998046875,"velocity":50},{"channel":9,"duration":0.09375,"durationBeats":0.25,"durationTicks":240,"endBeat":194.75,"endTick":186960,"endTime":73.03125,"note":42,"startBeat":194.5,"startTick":186720,"startTime":72.9375,"velocity":50},{"channel":0,"duration":0.1875,"durationBeats":0.5,"durationTicks":480,"endBeat":194.85729166666667,"endTick":187063,"endTime":73.071484375,"note":32,"startBeat":194.35729166666667,"startTick":186583,"startTime":72.883984375,"velocity":68},{"channel":1,"duration":0.1875,"durationBeats":0.5,"durationTicks":480,"endBeat":194.909375,"endTick":187113,"endTime":73.09101562500001,"note":33,"startBeat":194.409375,"startTick":186633,"startTime":72.90351562500001,"velocity":50},{"channel":9,"duration":0.09375,"durationBeats":0.25,"durationTicks":240,"endBeat":195.08333333333334,"endTick":187280,"endTime":73.15625,"note":42,"startBeat":194.83333333333334,"startTick":187040,"startTime":73.0625,"velocity":50},{"channel":2,"duration":0.1875,"durationBeats":0.5,"durationTicks":480,"endBeat":195.13854166666667,"endTick":187333,"endTime":73.176953125,"note":26,"startBeat":194.63854166666667,"startTick":186853,"startTime":72.989453125,"velocity":57},{"channel":9,"duration":0.09375,"durationBeats":0.25,"durationTicks":240,"endBeat":195.18229166666666,"endTick":187375,"endTime":73.193359375,"note":35,"startBeat":194.93229166666666,"startTick":187135,"startTime":73.099609375,"velocity":50},{"channel":9,"duration":0.03125,"durationBeats":0.08333333333334281,"durationTicks":80,"endBeat":195.33333333333334,"endTick":187520,"endTime":73.25,"note":42,"startBeat":195.25,"startTick":187440,"startTime":73.21875,"velocity":50},{"channel":0,"duration":0.1875,"durationBeats":0.5,"durationTicks":480,"endBeat":195.35729166666667,"endTick":187543,"endTime":73.258984375,"note":31,"startBeat":194.85729166666667,"startTick":187063,"startTime":73.071484375,"velocity":68},{"channel":1,"duration":0.1875,"durationBeats":0.5,"durationTicks":480,"endBeat":195.409375,"endTick":187593,"endTime":73.27851562500001,"note":26,"startBeat":194.909375,"startTick":187113,"startTime":73.09101562500001,"velocity":50},{"channel":0,"duration":0.375,"durationBeats":1,"durationTicks":960,"endBeat":195.85729166666667,"endTick":188023,"endTime":73.446484375,"note":69,"startBeat":194.85729166666667,"startTick":187063,"startTime":73.071484375,"velocity":68},{"channel":0,"duration":0.375,"durationBeats":1,"durationTicks":960,"endBeat":195.85729166666667,"endTick":188023,"endTime":73.446484375,"note":65,"startBeat":194.85729166666667,"startTick":187063,"startTime":73.071484375,"velocity":68},{"channel":0,"duration":0.375,"durationBeats":1,"durationTicks":960,"endBeat":195.85729166666667,"endTick":188023,"endTime":73.446484375,"note":62,"startBeat":194.85729166666667,"startTick":187063,"startTime":73.071484375,"velocity":68},{"channel":0,"duration":0.375,"durationBeats":1,"durationTicks":960,"endBeat":195.85729166666667,"endTick":188023,"endTime":73.446484375,"note":58,"startBeat":194.85729166666667,"startTick":187063,"startTime":73.071484375,"velocity":68},{"channel":9,"duration":0.09375,"durationBeats":0.25,"durationTicks":240,"endBeat":195.91145833333334,"endTick":188075,"endTime":73.466796875,"note":35,"startBeat":195.66145833333334,"startTick":187835,"startTime":73.373046875,"velocity":50},{"channel":9,"duration":0.03125,"durationBeats":0.08333333333334281,"durationTicks":80,"endBeat":196.08333333333334,"endTick":188240,"endTime":73.53125,"note":42,"startBeat":196,"startTick":188160,"startTime":73.5,"velocity":50},{"channel":2,"duration":0.1875,"durationBeats":0.5,"durationTicks":480,"endBeat":196.13854166666667,"endTick":188293,"endTime":73.551953125,"note":26,"startBeat":195.63854166666667,"startTick":187813,"startTime":73.364453125,"velocity":57},{"channel":9,"duration":0.09375,"durationBeats":0.25,"durationTicks":240,"endBeat":196.18229166666666,"endTick":188335,"endTime":73.568359375,"note":35,"startBeat":195.93229166666666,"startTick":188095,"startTime":73.474609375,"velocity":50},{"channel":9,"duration":0.0625,"durationBeats":0.1666666666666572,"durationTicks":160,"endBeat":196.25,"endTick":188400,"endTime":73.59375,"note":42,"startBeat":196.08333333333334,"startTick":188240,"startTime":73.53125,"velocity":50},{"channel":9,"duration":0.0234375,"durationBeats":0.0625,"durationTicks":60,"endBeat":196.3125,"endTick":188460,"endTime":73.6171875,"note":42,"startBeat":196.25,"startTick":188400,"startTime":73.59375,"velocity":50},{"channel":0,"duration":0.1875,"durationBeats":0.5,"durationTicks":480,"endBeat":196.35729166666667,"endTick":188503,"endTime":73.633984375,"note":31,"startBeat":195.85729166666667,"startTick":188023,"startTime":73.446484375,"velocity":68},{"channel":1,"duration":0.1875,"durationBeats":0.5,"durationTicks":480,"endBeat":196.409375,"endTick":188553,"endTime":73.65351562500001,"note":26,"startBeat":195.909375,"startTick":188073,"startTime":73.46601562500001,"velocity":50},{"channel":9,"duration":0.0234375,"durationBeats":0.0625,"durationTicks":60,"endBeat":196.4375,"endTick":188580,"endTime":73.6640625,"note":42,"startBeat":196.375,"startTick":188520,"startTime":73.640625,"velocity":50},{"channel":9,"duration":0.0234375,"durationBeats":0.0625,"durationTicks":60,"endBeat":196.5625,"endTick":188700,"endTime":73.7109375,"note":42,"startBeat":196.5,"startTick":188640,"startTime":73.6875,"velocity":50},{"channel":2,"duration":0.1875,"durationBeats":0.5,"durationTicks":480,"endBeat":196.63854166666667,"endTick":188773,"endTime":73.739453125,"note":33,"startBeat":196.13854166666667,"startTick":188293,"startTime":73.551953125,"velocity":57},{"channel":9,"duration":0.0234375,"durationBeats":0.0625,"durationTicks":60,"endBeat":196.6875,"endTick":188820,"endTime":73.7578125,"note":42,"startBeat":196.625,"startTick":188760,"startTime":73.734375,"velocity":50},{"channel":9,"duration":0.0234375,"durationBeats":0.0625,"durationTicks":60,"endBeat":196.8125,"endTick":188940,"endTime":73.8046875,"note":42,"startBeat":196.75,"startTick":188880,"startTime":73.78125,"velocity":50},{"channel":1,"duration":0.1875,"durationBeats":0.5,"durationTicks":480,"endBeat":196.909375,"endTick":189033,"endTime":73.84101562500001,"note":33,"startBeat":196.409375,"startTick":188553,"startTime":73.65351562500001,"velocity":50},{"channel":9,"duration":0.09375,"durationBeats":0.25,"durationTicks":240,"endBeat":196.91145833333334,"endTick":189035,"endTime":73.841796875,"note":35,"startBeat":196.66145833333334,"startTick":188795,"startTime":73.748046875,"velocity":50},{"channel":9,"duration":0.09375,"durationBeats":0.25,"durationTicks":240,"endBeat":197.08333333333334,"endTick":189200,"endTime":73.90625,"note":42,"startBeat":196.83333333333334,"startTick":188960,"startTime":73.8125,"velocity":50},{"channel":2,"duration":0.1875,"durationBeats":0.5,"durationTicks":480,"endBeat":197.13854166666667,"endTick":189253,"endTime":73.926953125,"note":32,"startBeat":196.63854166666667,"startTick":188773,"startTime":73.739453125,"velocity":57},{"channel":9,"duration":0.09375,"durationBeats":0.25,"durationTicks":240,"endBeat":197.18229166666666,"endTick":189295,"endTime":73.943359375,"note":35,"startBeat":196.93229166666666,"startTick":189055,"startTime":73.849609375,"velocity":50},{"channel":0,"duration":0.1875,"durationBeats":0.5,"durationTicks":480,"endBeat":197.35729166666667,"endTick":189463,"endTime":74.008984375,"note":33,"startBeat":196.85729166666667,"startTick":188983,"startTime":73.821484375,"velocity":68},{"channel":0,"duration":0.1875,"durationBeats":0.5,"durationTicks":480,"endBeat":197.35729166666667,"endTick":189463,"endTime":74.008984375,"note":60,"startBeat":196.85729166666667,"startTick":188983,"startTime":73.821484375,"velocity":68},{"channel":0,"duration":0.1875,"durationBeats":0.5,"durationTicks":480,"endBeat":197.35729166666667,"endTick":189463,"endTime":74.008984375,"note":64,"startBeat":196.85729166666667,"startTick":188983,"startTime":73.821484375,"velocity":68},{"channel":0,"duration":0.1875,"durationBeats":0.5,"durationTicks":480,"endBeat":197.35729166666667,"endTick":189463,"endTime":74.008984375,"note":67,"startBeat":196.85729166666667,"startTick":188983,"startTime":73.821484375,"velocity":68},{"channel":0,"duration":0.1875,"durationBeats":0.5,"durationTicks":480,"endBeat":197.35729166666667,"endTick":189463,"endTime":74.008984375,"note":72,"startBeat":196.85729166666667,"startTick":188983,"startTime":73.821484375,"velocity":68},{"channel":1,"duration":0.1875,"durationBeats":0.5,"durationTicks":480,"endBeat":197.409375,"endTick":189513,"endTime":74.02851562500001,"note":32,"startBeat":196.909375,"startTick":189033,"startTime":73.84101562500001,"velocity":50},{"channel":9,"duration":0.09375,"durationBeats":0.25,"durationTicks":240,"endBeat":197.5,"endTick":189600,"endTime":74.0625,"note":42,"startBeat":197.25,"startTick":189360,"startTime":73.96875,"velocity":50},{"channel":2,"duration":0.1875,"durationBeats":0.5,"durationTicks":480,"endBeat":197.63854166666667,"endTick":189733,"endTime":74.114453125,"note":31,"startBeat":197.13854166666667,"startTick":189253,"startTime":73.926953125,"velocity":57},{"channel":9,"duration":0.09375,"durationBeats":0.25,"durationTicks":240,"endBeat":197.66145833333334,"endTick":189755,"endTime":74.123046875,"note":35,"startBeat":197.41145833333334,"startTick":189515,"startTime":74.029296875,"velocity":50},{"channel":9,"duration":0.0625,"durationBeats":0.1666666666666572,"durationTicks":160,"endBeat":197.75,"endTick":189840,"endTime":74.15625,"note":42,"startBeat":197.58333333333334,"startTick":189680,"startTime":74.09375,"velocity":50},{"channel":9,"duration":0.0234375,"durationBeats":0.0625,"durationTicks":60,"endBeat":197.89583333333334,"endTick":189980,"endTime":74.2109375,"note":42,"startBeat":197.83333333333334,"startTick":189920,"startTime":74.1875,"velocity":50},{"channel":1,"duration":0.1875,"durationBeats":0.5,"durationTicks":480,"endBeat":197.909375,"endTick":189993,"endTime":74.21601562500001,"note":31,"startBeat":197.409375,"startTick":189513,"startTime":74.02851562500001,"velocity":50},{"channel":9,"duration":0.09375,"durationBeats":0.25,"durationTicks":240,"endBeat":197.93229166666666,"endTick":190015,"endTime":74.224609375,"note":35,"startBeat":197.68229166666666,"startTick":189775,"startTime":74.130859375,"velocity":50},{"channel":9,"duration":0.0234375,"durationBeats":0.0625,"durationTicks":60,"endBeat":198.02083333333334,"endTick":190100,"endTime":74.2578125,"note":42,"startBeat":197.95833333333334,"startTick":190040,"startTime":74.234375,"velocity":50},{"channel":0,"duration":0.1875,"durationBeats":0.5,"durationTicks":480,"endBeat":198.10729166666667,"endTick":190183,"endTime":74.290234375,"note":33,"startBeat":197.60729166666667,"startTick":189703,"startTime":74.102734375,"velocity":68},{"channel":9,"duration":0.0234375,"durationBeats":0.0625,"durationTicks":60,"endBeat":198.14583333333334,"endTick":190220,"endTime":74.3046875,"note":42,"startBeat":198.08333333333334,"startTick":190160,"startTime":74.28125,"velocity":50},{"channel":9,"duration":0.0078125,"durationBeats":0.020833333333342807,"durationTicks":20,"endBeat":198.27083333333334,"endTick":190340,"endTime":74.3515625,"note":42,"startBeat":198.25,"startTick":190320,"startTime":74.34375,"velocity":50},{"channel":0,"duration":0.1875,"durationBeats":0.5,"durationTicks":480,"endBeat":198.35729166666667,"endTick":190423,"endTime":74.383984375,"note":70,"startBeat":197.85729166666667,"startTick":189943,"startTime":74.196484375,"velocity":68},{"channel":0,"duration":0.1875,"durationBeats":0.5,"durationTicks":480,"endBeat":198.35729166666667,"endTick":190423,"endTime":74.383984375,"note":67,"startBeat":197.85729166666667,"startTick":189943,"startTime":74.196484375,"velocity":68},{"channel":0,"duration":0.1875,"durationBeats":0.5,"durationTicks":480,"endBeat":198.35729166666667,"endTick":190423,"endTime":74.383984375,"note":65,"startBeat":197.85729166666667,"startTick":189943,"startTime":74.196484375,"velocity":68},{"channel":0,"duration":0.1875,"durationBeats":0.5,"durationTicks":480,"endBeat":198.35729166666667,"endTick":190423,"endTime":74.383984375,"note":61,"startBeat":197.85729166666667,"startTick":189943,"startTime":74.196484375,"velocity":68},{"channel":9,"duration":0.0234375,"durationBeats":0.0625,"durationTicks":60,"endBeat":198.39583333333334,"endTick":190460,"endTime":74.3984375,"note":42,"startBeat":198.33333333333334,"startTick":190400,"startTime":74.375,"velocity":50},{"channel":9,"duration":0.09375,"durationBeats":0.25,"durationTicks":240,"endBeat":198.41145833333334,"endTick":190475,"endTime":74.404296875,"note":35,"startBeat":198.16145833333334,"startTick":190235,"startTime":74.310546875,"velocity":50},{"channel":2,"duration":0.1875,"durationBeats":0.5,"durationTicks":480,"endBeat":198.63854166666667,"endTick":190693,"endTime":74.489453125,"note":31,"startBeat":198.13854166666667,"startTick":190213,"startTime":74.301953125,"velocity":57},{"channel":9,"duration":0.0078125,"durationBeats":0.020833333333314386,"durationTicks":20,"endBeat":198.68229166666666,"endTick":190735,"endTime":74.505859375,"note":35,"startBeat":198.66145833333334,"startTick":190715,"startTime":74.498046875,"velocity":50},{"channel":9,"duration":0.09375,"durationBeats":0.25,"durationTicks":240,"endBeat":198.75,"endTick":190800,"endTime":74.53125,"note":42,"startBeat":198.5,"startTick":190560,"startTime":74.4375,"velocity":50},{"channel":0,"duration":0.1875,"durationBeats":0.5,"durationTicks":480,"endBeat":198.85729166666667,"endTick":190903,"endTime":74.571484375,"note":33,"startBeat":198.35729166666667,"startTick":190423,"startTime":74.383984375,"velocity":68},{"channel":1,"duration":0.1875,"durationBeats":0.5,"durationTicks":480,"endBeat":198.909375,"endTick":190953,"endTime":74.59101562500001,"note":31,"startBeat":198.409375,"startTick":190473,"startTime":74.40351562500001,"velocity":50},{"channel":9,"duration":0.09375,"durationBeats":0.25,"durationTicks":240,"endBeat":199.08333333333334,"endTick":191120,"endTime":74.65625,"note":42,"startBeat":198.83333333333334,"startTick":190880,"startTime":74.5625,"velocity":50},{"channel":2,"duration":0.1875,"durationBeats":0.5,"durationTicks":480,"endBeat":199.13854166666667,"endTick":191173,"endTime":74.676953125,"note":32,"startBeat":198.63854166666667,"startTick":190693,"startTime":74.489453125,"velocity":57},{"channel":9,"duration":0.09375,"durationBeats":0.25,"durationTicks":240,"endBeat":199.18229166666666,"endTick":191215,"endTime":74.693359375,"note":35,"startBeat":198.93229166666666,"startTick":190975,"startTime":74.599609375,"velocity":50},{"channel":0,"duration":0.1875,"durationBeats":0.5,"durationTicks":480,"endBeat":199.35729166666667,"endTick":191383,"endTime":74.758984375,"note":26,"startBeat":198.85729166666667,"startTick":190903,"startTime":74.571484375,"velocity":68},{"channel":0,"duration":0.1875,"durationBeats":0.5,"durationTicks":480,"endBeat":199.35729166666667,"endTick":191383,"endTime":74.758984375,"note":69,"startBeat":198.85729166666667,"startTick":190903,"startTime":74.571484375,"velocity":68},{"channel":0,"duration":0.1875,"durationBeats":0.5,"durationTicks":480,"endBeat":199.35729166666667,"endTick":191383,"endTime":74.758984375,"note":65,"startBeat":198.85729166666667,"startTick":190903,"startTime":74.571484375,"velocity":68},{"channel":0,"duration":0.1875,"durationBeats":0.5,"durationTicks":480,"endBeat":199.35729166666667,"endTick":191383,"endTime":74.758984375,"note":64,"startBeat":198.85729166666667,"startTick":190903,"startTime":74.571484375,"velocity":68},{"channel":0,"duration":0.1875,"durationBeats":0.5,"durationTicks":480,"endBeat":199.35729166666667,"endTick":191383,"endTime":74.758984375,"note":60,"startBeat":198.85729166666667,"startTick":190903,"startTime":74.571484375,"velocity":68},{"channel":1,"duration":0.1875,"durationBeats":0.5,"durationTicks":480,"endBeat":199.409375,"endTick":191433,"endTime":74.77851562500001,"note":32,"startBeat":198.909375,"startTick":190953,"startTime":74.59101562500001,"velocity":50},{"channel":9,"duration":0.09375,"durationBeats":0.25,"durationTicks":240,"endBeat":199.5,"endTick":191520,"endTime":74.8125,"note":42,"startBeat":199.25,"startTick":191280,"startTime":74.71875,"velocity":50},{"channel":2,"duration":0.1875,"durationBeats":0.5,"durationTicks":480,"endBeat":199.63854166666667,"endTick":191653,"endTime":74.864453125,"note":33,"startBeat":199.13854166666667,"startTick":191173,"startTime":74.676953125,"velocity":57},{"channel":1,"duration":0.1875,"durationBeats":0.5,"durationTicks":480,"endBeat":199.909375,"endTick":191913,"endTime":74.96601562500001,"note":33,"startBeat":199.409375,"startTick":191433,"startTime":74.77851562500001,"velocity":50},{"channel":9,"duration":0.09375,"durationBeats":0.25,"durationTicks":240,"endBeat":199.91145833333334,"endTick":191915,"endTime":74.966796875,"note":35,"startBeat":199.66145833333334,"startTick":191675,"startTime":74.873046875,"velocity":50},{"channel":9,"duration":0.03125,"durationBeats":0.08333333333334281,"durationTicks":80,"endBeat":200.08333333333334,"endTick":192080,"endTime":75.03125,"note":42,"startBeat":200,"startTick":192000,"startTime":75,"velocity":50},{"channel":2,"duration":0.09375,"durationBeats":0.25,"durationTicks":240,"endBeat":200.13854166666667,"endTick":192133,"endTime":75.051953125,"note":33,"startBeat":199.88854166666667,"startTick":191893,"startTime":74.958203125,"velocity":57},{"channel":9,"duration":0.09375,"durationBeats":0.25,"durationTicks":240,"endBeat":200.18229166666666,"endTick":192175,"endTime":75.068359375,"note":35,"startBeat":199.93229166666666,"startTick":191935,"startTime":74.974609375,"velocity":50},{"channel":9,"duration":0.0625,"durationBeats":0.1666666666666572,"durationTicks":160,"endBeat":200.25,"endTick":192240,"endTime":75.09375,"note":42,"startBeat":200.08333333333334,"startTick":192080,"startTime":75.03125,"velocity":50},{"channel":9,"duration":0.0234375,"durationBeats":0.0625,"durationTicks":60,"endBeat":200.3125,"endTick":192300,"endTime":75.1171875,"note":42,"startBeat":200.25,"startTick":192240,"startTime":75.09375,"velocity":50},{"channel":0,"duration":0.1875,"durationBeats":0.5,"durationTicks":480,"endBeat":200.35729166666667,"endTick":192343,"endTime":75.133984375,"note":26,"startBeat":199.85729166666667,"startTick":191863,"startTime":74.946484375,"velocity":68},{"channel":1,"duration":0.09375,"durationBeats":0.25,"durationTicks":240,"endBeat":200.409375,"endTick":192393,"endTime":75.15351562500001,"note":33,"startBeat":200.159375,"startTick":192153,"startTime":75.05976562500001,"velocity":50},{"channel":9,"duration":0.0234375,"durationBeats":0.0625,"durationTicks":60,"endBeat":200.4375,"endTick":192420,"endTime":75.1640625,"note":42,"startBeat":200.375,"startTick":192360,"startTime":75.140625,"velocity":50},{"channel":9,"duration":0.0234375,"durationBeats":0.0625,"durationTicks":60,"endBeat":200.5625,"endTick":192540,"endTime":75.2109375,"note":42,"startBeat":200.5,"startTick":192480,"startTime":75.1875,"velocity":50},{"channel":9,"duration":0.0234375,"durationBeats":0.0625,"durationTicks":60,"endBeat":200.6875,"endTick":192660,"endTime":75.2578125,"note":42,"startBeat":200.625,"startTick":192600,"startTime":75.234375,"velocity":50},{"channel":9,"duration":0.0234375,"durationBeats":0.0625,"durationTicks":60,"endBeat":200.8125,"endTick":192780,"endTime":75.3046875,"note":42,"startBeat":200.75,"startTick":192720,"startTime":75.28125,"velocity":50},{"channel":9,"duration":0.09375,"durationBeats":0.25,"durationTicks":240,"endBeat":200.91145833333334,"endTick":192875,"endTime":75.341796875,"note":35,"startBeat":200.66145833333334,"startTick":192635,"startTime":75.248046875,"velocity":50},{"channel":9,"duration":0.09375,"durationBeats":0.25,"durationTicks":240,"endBeat":201.08333333333334,"endTick":193040,"endTime":75.40625,"note":42,"startBeat":200.83333333333334,"startTick":192800,"startTime":75.3125,"velocity":50},{"channel":2,"duration":0.1875,"durationBeats":0.5,"durationTicks":480,"endBeat":201.13854166666667,"endTick":193093,"endTime":75.426953125,"note":26,"startBeat":200.63854166666667,"startTick":192613,"startTime":75.239453125,"velocity":57},{"channel":9,"duration":0.09375,"durationBeats":0.25,"durationTicks":240,"endBeat":201.18229166666666,"endTick":193135,"endTime":75.443359375,"note":35,"startBeat":200.93229166666666,"startTick":192895,"startTime":75.349609375,"velocity":50},{"channel":0,"duration":0.1875,"durationBeats":0.5,"durationTicks":480,"endBeat":201.35729166666667,"endTick":193303,"endTime":75.508984375,"note":38,"startBeat":200.85729166666667,"startTick":192823,"startTime":75.321484375,"velocity":68},{"channel":0,"duration":0.1875,"durationBeats":0.5,"durationTicks":480,"endBeat":201.35729166666667,"endTick":193303,"endTime":75.508984375,"note":65,"startBeat":200.85729166666667,"startTick":192823,"startTime":75.321484375,"velocity":68},{"channel":0,"duration":0.1875,"durationBeats":0.5,"durationTicks":480,"endBeat":201.35729166666667,"endTick":193303,"endTime":75.508984375,"note":69,"startBeat":200.85729166666667,"startTick":192823,"startTime":75.321484375,"velocity":68},{"channel":0,"duration":0.1875,"durationBeats":0.5,"durationTicks":480,"endBeat":201.35729166666667,"endTick":193303,"endTime":75.508984375,"note":60,"startBeat":200.85729166666667,"startTick":192823,"startTime":75.321484375,"velocity":68},{"channel":0,"duration":0.1875,"durationBeats":0.5,"durationTicks":480,"endBeat":201.35729166666667,"endTick":193303,"endTime":75.508984375,"note":64,"startBeat":200.85729166666667,"startTick":192823,"startTime":75.321484375,"velocity":68},{"channel":1,"duration":0.1875,"durationBeats":0.5,"durationTicks":480,"endBeat":201.409375,"endTick":193353,"endTime":75.52851562500001,"note":26,"startBeat":200.909375,"startTick":192873,"startTime":75.34101562500001,"velocity":50},{"channel":9,"duration":0.09375,"durationBeats":0.25,"durationTicks":240,"endBeat":201.5,"endTick":193440,"endTime":75.5625,"note":42,"startBeat":201.25,"startTick":193200,"startTime":75.46875,"velocity":50},{"channel":9,"duration":0.09375,"durationBeats":0.25,"durationTicks":240,"endBeat":201.66145833333334,"endTick":193595,"endTime":75.623046875,"note":35,"startBeat":201.41145833333334,"startTick":193355,"startTime":75.529296875,"velocity":50},{"channel":9,"duration":0.0625,"durationBeats":0.1666666666666572,"durationTicks":160,"endBeat":201.75,"endTick":193680,"endTime":75.65625,"note":42,"startBeat":201.58333333333334,"startTick":193520,"startTime":75.59375,"velocity":50},{"channel":9,"duration":0.0234375,"durationBeats":0.0625,"durationTicks":60,"endBeat":201.89583333333334,"endTick":193820,"endTime":75.7109375,"note":42,"startBeat":201.83333333333334,"startTick":193760,"startTime":75.6875,"velocity":50},{"channel":9,"duration":0.09375,"durationBeats":0.25,"durationTicks":240,"endBeat":201.93229166666666,"endTick":193855,"endTime":75.724609375,"note":35,"startBeat":201.68229166666666,"startTick":193615,"startTime":75.630859375,"velocity":50},{"channel":9,"duration":0.0234375,"durationBeats":0.0625,"durationTicks":60,"endBeat":202.02083333333334,"endTick":193940,"endTime":75.7578125,"note":42,"startBeat":201.95833333333334,"startTick":193880,"startTime":75.734375,"velocity":50},{"channel":0,"duration":0.1875,"durationBeats":0.5,"durationTicks":480,"endBeat":202.10729166666667,"endTick":194023,"endTime":75.790234375,"note":33,"startBeat":201.60729166666667,"startTick":193543,"startTime":75.602734375,"velocity":68},{"channel":2,"duration":0.1875,"durationBeats":0.5,"durationTicks":480,"endBeat":202.13854166666667,"endTick":194053,"endTime":75.801953125,"note":38,"startBeat":201.63854166666667,"startTick":193573,"startTime":75.614453125,"velocity":57},{"channel":9,"duration":0.0234375,"durationBeats":0.0625,"durationTicks":60,"endBeat":202.14583333333334,"endTick":194060,"endTime":75.8046875,"note":42,"startBeat":202.08333333333334,"startTick":194000,"startTime":75.78125,"velocity":50},{"channel":9,"duration":0.0078125,"durationBeats":0.020833333333342807,"durationTicks":20,"endBeat":202.27083333333334,"endTick":194180,"endTime":75.8515625,"note":42,"startBeat":202.25,"startTick":194160,"startTime":75.84375,"velocity":50},{"channel":0,"duration":0.1875,"durationBeats":0.5,"durationTicks":480,"endBeat":202.35729166666667,"endTick":194263,"endTime":75.883984375,"note":74,"startBeat":201.85729166666667,"startTick":193783,"startTime":75.696484375,"velocity":68},{"channel":0,"duration":0.1875,"durationBeats":0.5,"durationTicks":480,"endBeat":202.35729166666667,"endTick":194263,"endTime":75.883984375,"note":77,"startBeat":201.85729166666667,"startTick":193783,"startTime":75.696484375,"velocity":68},{"channel":0,"duration":0.1875,"durationBeats":0.5,"durationTicks":480,"endBeat":202.35729166666667,"endTick":194263,"endTime":75.883984375,"note":69,"startBeat":201.85729166666667,"startTick":193783,"startTime":75.696484375,"velocity":68},{"channel":0,"duration":0.1875,"durationBeats":0.5,"durationTicks":480,"endBeat":202.35729166666667,"endTick":194263,"endTime":75.883984375,"note":72,"startBeat":201.85729166666667,"startTick":193783,"startTime":75.696484375,"velocity":68},{"channel":1,"duration":0.1875,"durationBeats":0.5,"durationTicks":480,"endBeat":202.409375,"endTick":194313,"endTime":75.90351562500001,"note":38,"startBeat":201.909375,"startTick":193833,"startTime":75.71601562500001,"velocity":50},{"channel":9,"duration":0.09375,"durationBeats":0.25,"durationTicks":240,"endBeat":202.41145833333334,"endTick":194315,"endTime":75.904296875,"note":35,"startBeat":202.16145833333334,"startTick":194075,"startTime":75.810546875,"velocity":50},{"channel":2,"duration":0.1875,"durationBeats":0.5,"durationTicks":480,"endBeat":202.63854166666667,"endTick":194533,"endTime":75.989453125,"note":26,"startBeat":202.13854166666667,"startTick":194053,"startTime":75.801953125,"velocity":57},{"channel":9,"duration":0.0078125,"durationBeats":0.020833333333314386,"durationTicks":20,"endBeat":202.68229166666666,"endTick":194575,"endTime":76.005859375,"note":35,"startBeat":202.66145833333334,"startTick":194555,"startTime":75.998046875,"velocity":50},{"channel":9,"duration":0.09375,"durationBeats":0.25,"durationTicks":240,"endBeat":202.75,"endTick":194640,"endTime":76.03125,"note":42,"startBeat":202.5,"startTick":194400,"startTime":75.9375,"velocity":50},{"channel":0,"duration":0.1875,"durationBeats":0.5,"durationTicks":480,"endBeat":202.85729166666667,"endTick":194743,"endTime":76.071484375,"note":32,"startBeat":202.35729166666667,"startTick":194263,"startTime":75.883984375,"velocity":68},{"channel":1,"duration":0.1875,"durationBeats":0.5,"durationTicks":480,"endBeat":202.909375,"endTick":194793,"endTime":76.09101562500001,"note":26,"startBeat":202.409375,"startTick":194313,"startTime":75.90351562500001,"velocity":50},{"channel":9,"duration":0.09375,"durationBeats":0.25,"durationTicks":240,"endBeat":203.08333333333334,"endTick":194960,"endTime":76.15625,"note":42,"startBeat":202.83333333333334,"startTick":194720,"startTime":76.0625,"velocity":50},{"channel":2,"duration":0.1875,"durationBeats":0.5,"durationTicks":480,"endBeat":203.13854166666667,"endTick":195013,"endTime":76.176953125,"note":33,"startBeat":202.63854166666667,"startTick":194533,"startTime":75.989453125,"velocity":57},{"channel":9,"duration":0.09375,"durationBeats":0.25,"durationTicks":240,"endBeat":203.18229166666666,"endTick":195055,"endTime":76.193359375,"note":35,"startBeat":202.93229166666666,"startTick":194815,"startTime":76.099609375,"velocity":50},{"channel":9,"duration":0.03125,"durationBeats":0.08333333333334281,"durationTicks":80,"endBeat":203.33333333333334,"endTick":195200,"endTime":76.25,"note":42,"startBeat":203.25,"startTick":195120,"startTime":76.21875,"velocity":50},{"channel":0,"duration":0.1875,"durationBeats":0.5,"durationTicks":480,"endBeat":203.35729166666667,"endTick":195223,"endTime":76.258984375,"note":31,"startBeat":202.85729166666667,"startTick":194743,"startTime":76.071484375,"velocity":68},{"channel":1,"duration":0.1875,"durationBeats":0.5,"durationTicks":480,"endBeat":203.409375,"endTick":195273,"endTime":76.27851562500001,"note":33,"startBeat":202.909375,"startTick":194793,"startTime":76.09101562500001,"velocity":50},{"channel":0,"duration":0.375,"durationBeats":1,"durationTicks":960,"endBeat":203.85729166666667,"endTick":195703,"endTime":76.446484375,"note":69,"startBeat":202.85729166666667,"startTick":194743,"startTime":76.071484375,"velocity":68},{"channel":0,"duration":0.375,"durationBeats":1,"durationTicks":960,"endBeat":203.85729166666667,"endTick":195703,"endTime":76.446484375,"note":65,"startBeat":202.85729166666667,"startTick":194743,"startTime":76.071484375,"velocity":68},{"channel":0,"duration":0.375,"durationBeats":1,"durationTicks":960,"endBeat":203.85729166666667,"endTick":195703,"endTime":76.446484375,"note":62,"startBeat":202.85729166666667,"startTick":194743,"startTime":76.071484375,"velocity":68},{"channel":0,"duration":0.375,"durationBeats":1,"durationTicks":960,"endBeat":203.85729166666667,"endTick":195703,"endTime":76.446484375,"note":58,"startBeat":202.85729166666667,"startTick":194743,"startTime":76.071484375,"velocity":68},{"channel":9,"duration":0.09375,"durationBeats":0.25,"durationTicks":240,"endBeat":203.91145833333334,"endTick":195755,"endTime":76.466796875,"note":35,"startBeat":203.66145833333334,"startTick":195515,"startTime":76.373046875,"velocity":50},{"channel":9,"duration":0.03125,"durationBeats":0.08333333333334281,"durationTicks":80,"endBeat":204.08333333333334,"endTick":195920,"endTime":76.53125,"note":42,"startBeat":204,"startTick":195840,"startTime":76.5,"velocity":50},{"channel":2,"duration":0.1875,"durationBeats":0.5,"durationTicks":480,"endBeat":204.13854166666667,"endTick":195973,"endTime":76.551953125,"note":26,"startBeat":203.63854166666667,"startTick":195493,"startTime":76.364453125,"velocity":57},{"channel":9,"duration":0.09375,"durationBeats":0.25,"durationTicks":240,"endBeat":204.18229166666666,"endTick":196015,"endTime":76.568359375,"note":35,"startBeat":203.93229166666666,"startTick":195775,"startTime":76.474609375,"velocity":50},{"channel":9,"duration":0.0625,"durationBeats":0.1666666666666572,"durationTicks":160,"endBeat":204.25,"endTick":196080,"endTime":76.59375,"note":42,"startBeat":204.08333333333334,"startTick":195920,"startTime":76.53125,"velocity":50},{"channel":9,"duration":0.0234375,"durationBeats":0.0625,"durationTicks":60,"endBeat":204.3125,"endTick":196140,"endTime":76.6171875,"note":42,"startBeat":204.25,"startTick":196080,"startTime":76.59375,"velocity":50},{"channel":0,"duration":0.1875,"durationBeats":0.5,"durationTicks":480,"endBeat":204.35729166666667,"endTick":196183,"endTime":76.633984375,"note":31,"startBeat":203.85729166666667,"startTick":195703,"startTime":76.446484375,"velocity":68},{"channel":1,"duration":0.1875,"durationBeats":0.5,"durationTicks":480,"endBeat":204.409375,"endTick":196233,"endTime":76.65351562500001,"note":26,"startBeat":203.909375,"startTick":195753,"startTime":76.46601562500001,"velocity":50},{"channel":9,"duration":0.0234375,"durationBeats":0.0625,"durationTicks":60,"endBeat":204.4375,"endTick":196260,"endTime":76.6640625,"note":42,"startBeat":204.375,"startTick":196200,"startTime":76.640625,"velocity":50},{"channel":9,"duration":0.0234375,"durationBeats":0.0625,"durationTicks":60,"endBeat":204.5625,"endTick":196380,"endTime":76.7109375,"note":42,"startBeat":204.5,"startTick":196320,"startTime":76.6875,"velocity":50},{"channel":2,"duration":0.1875,"durationBeats":0.5,"durationTicks":480,"endBeat":204.63854166666667,"endTick":196453,"endTime":76.739453125,"note":33,"startBeat":204.13854166666667,"startTick":195973,"startTime":76.551953125,"velocity":57},{"channel":9,"duration":0.0234375,"durationBeats":0.0625,"durationTicks":60,"endBeat":204.6875,"endTick":196500,"endTime":76.7578125,"note":42,"startBeat":204.625,"startTick":196440,"startTime":76.734375,"velocity":50},{"channel":9,"duration":0.0234375,"durationBeats":0.0625,"durationTicks":60,"endBeat":204.8125,"endTick":196620,"endTime":76.8046875,"note":42,"startBeat":204.75,"startTick":196560,"startTime":76.78125,"velocity":50},{"channel":1,"duration":0.1875,"durationBeats":0.5,"durationTicks":480,"endBeat":204.909375,"endTick":196713,"endTime":76.84101562500001,"note":33,"startBeat":204.409375,"startTick":196233,"startTime":76.65351562500001,"velocity":50},{"channel":9,"duration":0.09375,"durationBeats":0.25,"durationTicks":240,"endBeat":204.91145833333334,"endTick":196715,"endTime":76.841796875,"note":35,"startBeat":204.66145833333334,"startTick":196475,"startTime":76.748046875,"velocity":50},{"channel":9,"duration":0.09375,"durationBeats":0.25,"durationTicks":240,"endBeat":205.08333333333334,"endTick":196880,"endTime":76.90625,"note":42,"startBeat":204.83333333333334,"startTick":196640,"startTime":76.8125,"velocity":50},{"channel":2,"duration":0.1875,"durationBeats":0.5,"durationTicks":480,"endBeat":205.13854166666667,"endTick":196933,"endTime":76.926953125,"note":32,"startBeat":204.63854166666667,"startTick":196453,"startTime":76.739453125,"velocity":57},{"channel":9,"duration":0.09375,"durationBeats":0.25,"durationTicks":240,"endBeat":205.18229166666666,"endTick":196975,"endTime":76.943359375,"note":35,"startBeat":204.93229166666666,"startTick":196735,"startTime":76.849609375,"velocity":50},{"channel":0,"duration":0.1875,"durationBeats":0.5,"durationTicks":480,"endBeat":205.35729166666667,"endTick":197143,"endTime":77.008984375,"note":60,"startBeat":204.85729166666667,"startTick":196663,"startTime":76.821484375,"velocity":68},{"channel":0,"duration":0.1875,"durationBeats":0.5,"durationTicks":480,"endBeat":205.35729166666667,"endTick":197143,"endTime":77.008984375,"note":64,"startBeat":204.85729166666667,"startTick":196663,"startTime":76.821484375,"velocity":68},{"channel":0,"duration":0.1875,"durationBeats":0.5,"durationTicks":480,"endBeat":205.35729166666667,"endTick":197143,"endTime":77.008984375,"note":67,"startBeat":204.85729166666667,"startTick":196663,"startTime":76.821484375,"velocity":68},{"channel":0,"duration":0.1875,"durationBeats":0.5,"durationTicks":480,"endBeat":205.35729166666667,"endTick":197143,"endTime":77.008984375,"note":72,"startBeat":204.85729166666667,"startTick":196663,"startTime":76.821484375,"velocity":68},{"channel":0,"duration":0.1875,"durationBeats":0.5,"durationTicks":480,"endBeat":205.35729166666667,"endTick":197143,"endTime":77.008984375,"note":33,"startBeat":204.85729166666667,"startTick":196663,"startTime":76.821484375,"velocity":68},{"channel":1,"duration":0.1875,"durationBeats":0.5,"durationTicks":480,"endBeat":205.409375,"endTick":197193,"endTime":77.02851562500001,"note":32,"startBeat":204.909375,"startTick":196713,"startTime":76.84101562500001,"velocity":50},{"channel":9,"duration":0.09375,"durationBeats":0.25,"durationTicks":240,"endBeat":205.5,"endTick":197280,"endTime":77.0625,"note":42,"startBeat":205.25,"startTick":197040,"startTime":76.96875,"velocity":50},{"channel":2,"duration":0.1875,"durationBeats":0.5,"durationTicks":480,"endBeat":205.63854166666667,"endTick":197413,"endTime":77.114453125,"note":31,"startBeat":205.13854166666667,"startTick":196933,"startTime":76.926953125,"velocity":57},{"channel":9,"duration":0.09375,"durationBeats":0.25,"durationTicks":240,"endBeat":205.66145833333334,"endTick":197435,"endTime":77.123046875,"note":35,"startBeat":205.41145833333334,"startTick":197195,"startTime":77.029296875,"velocity":50},{"channel":9,"duration":0.09375,"durationBeats":0.25,"durationTicks":240,"endBeat":205.83333333333334,"endTick":197600,"endTime":77.1875,"note":42,"startBeat":205.58333333333334,"startTick":197360,"startTime":77.09375,"velocity":50},{"channel":9,"duration":0.0234375,"durationBeats":0.0625,"durationTicks":60,"endBeat":205.89583333333334,"endTick":197660,"endTime":77.2109375,"note":42,"startBeat":205.83333333333334,"startTick":197600,"startTime":77.1875,"velocity":50},{"channel":1,"duration":0.1875,"durationBeats":0.5,"durationTicks":480,"endBeat":205.909375,"endTick":197673,"endTime":77.21601562500001,"note":31,"startBeat":205.409375,"startTick":197193,"startTime":77.02851562500001,"velocity":50},{"channel":9,"duration":0.09375,"durationBeats":0.25,"durationTicks":240,"endBeat":205.93229166666666,"endTick":197695,"endTime":77.224609375,"note":35,"startBeat":205.68229166666666,"startTick":197455,"startTime":77.130859375,"velocity":50},{"channel":9,"duration":0.0234375,"durationBeats":0.0625,"durationTicks":60,"endBeat":206.02083333333334,"endTick":197780,"endTime":77.2578125,"note":42,"startBeat":205.95833333333334,"startTick":197720,"startTime":77.234375,"velocity":50},{"channel":0,"duration":0.1875,"durationBeats":0.5,"durationTicks":480,"endBeat":206.10729166666667,"endTick":197863,"endTime":77.290234375,"note":33,"startBeat":205.60729166666667,"startTick":197383,"startTime":77.102734375,"velocity":68},{"channel":9,"duration":0.0234375,"durationBeats":0.0625,"durationTicks":60,"endBeat":206.14583333333334,"endTick":197900,"endTime":77.3046875,"note":42,"startBeat":206.08333333333334,"startTick":197840,"startTime":77.28125,"velocity":50},{"channel":9,"duration":0.0078125,"durationBeats":0.020833333333342807,"durationTicks":20,"endBeat":206.27083333333334,"endTick":198020,"endTime":77.3515625,"note":42,"startBeat":206.25,"startTick":198000,"startTime":77.34375,"velocity":50},{"channel":0,"duration":0.1875,"durationBeats":0.5,"durationTicks":480,"endBeat":206.35729166666667,"endTick":198103,"endTime":77.383984375,"note":70,"startBeat":205.85729166666667,"startTick":197623,"startTime":77.196484375,"velocity":68},{"channel":0,"duration":0.1875,"durationBeats":0.5,"durationTicks":480,"endBeat":206.35729166666667,"endTick":198103,"endTime":77.383984375,"note":67,"startBeat":205.85729166666667,"startTick":197623,"startTime":77.196484375,"velocity":68},{"channel":0,"duration":0.1875,"durationBeats":0.5,"durationTicks":480,"endBeat":206.35729166666667,"endTick":198103,"endTime":77.383984375,"note":65,"startBeat":205.85729166666667,"startTick":197623,"startTime":77.196484375,"velocity":68},{"channel":0,"duration":0.1875,"durationBeats":0.5,"durationTicks":480,"endBeat":206.35729166666667,"endTick":198103,"endTime":77.383984375,"note":61,"startBeat":205.85729166666667,"startTick":197623,"startTime":77.196484375,"velocity":68},{"channel":9,"duration":0.0234375,"durationBeats":0.0625,"durationTicks":60,"endBeat":206.39583333333334,"endTick":198140,"endTime":77.3984375,"note":42,"startBeat":206.33333333333334,"startTick":198080,"startTime":77.375,"velocity":50},{"channel":9,"duration":0.09375,"durationBeats":0.25,"durationTicks":240,"endBeat":206.41145833333334,"endTick":198155,"endTime":77.404296875,"note":35,"startBeat":206.16145833333334,"startTick":197915,"startTime":77.310546875,"velocity":50},{"channel":2,"duration":0.1875,"durationBeats":0.5,"durationTicks":480,"endBeat":206.63854166666667,"endTick":198373,"endTime":77.489453125,"note":31,"startBeat":206.13854166666667,"startTick":197893,"startTime":77.301953125,"velocity":57},{"channel":9,"duration":0.0078125,"durationBeats":0.020833333333314386,"durationTicks":20,"endBeat":206.68229166666666,"endTick":198415,"endTime":77.505859375,"note":35,"startBeat":206.66145833333334,"startTick":198395,"startTime":77.498046875,"velocity":50},{"channel":9,"duration":0.09375,"durationBeats":0.25,"durationTicks":240,"endBeat":206.75,"endTick":198480,"endTime":77.53125,"note":42,"startBeat":206.5,"startTick":198240,"startTime":77.4375,"velocity":50},{"channel":0,"duration":0.1875,"durationBeats":0.5,"durationTicks":480,"endBeat":206.85729166666667,"endTick":198583,"endTime":77.571484375,"note":33,"startBeat":206.35729166666667,"startTick":198103,"startTime":77.383984375,"velocity":68},{"channel":1,"duration":0.1875,"durationBeats":0.5,"durationTicks":480,"endBeat":206.909375,"endTick":198633,"endTime":77.59101562500001,"note":31,"startBeat":206.409375,"startTick":198153,"startTime":77.40351562500001,"velocity":50},{"channel":9,"duration":0.09375,"durationBeats":0.25,"durationTicks":240,"endBeat":207.08333333333334,"endTick":198800,"endTime":77.65625,"note":42,"startBeat":206.83333333333334,"startTick":198560,"startTime":77.5625,"velocity":50},{"channel":2,"duration":0.1875,"durationBeats":0.5,"durationTicks":480,"endBeat":207.13854166666667,"endTick":198853,"endTime":77.676953125,"note":32,"startBeat":206.63854166666667,"startTick":198373,"startTime":77.489453125,"velocity":57},{"channel":9,"duration":0.09375,"durationBeats":0.25,"durationTicks":240,"endBeat":207.18229166666666,"endTick":198895,"endTime":77.693359375,"note":35,"startBeat":206.93229166666666,"startTick":198655,"startTime":77.599609375,"velocity":50},{"channel":9,"duration":0.03125,"durationBeats":0.08333333333334281,"durationTicks":80,"endBeat":207.33333333333334,"endTick":199040,"endTime":77.75,"note":42,"startBeat":207.25,"startTick":198960,"startTime":77.71875,"velocity":50},{"channel":0,"duration":0.1875,"durationBeats":0.5,"durationTicks":480,"endBeat":207.35729166666667,"endTick":199063,"endTime":77.758984375,"note":69,"startBeat":206.85729166666667,"startTick":198583,"startTime":77.571484375,"velocity":68},{"channel":0,"duration":0.1875,"durationBeats":0.5,"durationTicks":480,"endBeat":207.35729166666667,"endTick":199063,"endTime":77.758984375,"note":65,"startBeat":206.85729166666667,"startTick":198583,"startTime":77.571484375,"velocity":68},{"channel":0,"duration":0.1875,"durationBeats":0.5,"durationTicks":480,"endBeat":207.35729166666667,"endTick":199063,"endTime":77.758984375,"note":64,"startBeat":206.85729166666667,"startTick":198583,"startTime":77.571484375,"velocity":68},{"channel":0,"duration":0.1875,"durationBeats":0.5,"durationTicks":480,"endBeat":207.35729166666667,"endTick":199063,"endTime":77.758984375,"note":60,"startBeat":206.85729166666667,"startTick":198583,"startTime":77.571484375,"velocity":68},{"channel":0,"duration":0.1875,"durationBeats":0.5,"durationTicks":480,"endBeat":207.35729166666667,"endTick":199063,"endTime":77.758984375,"note":26,"startBeat":206.85729166666667,"startTick":198583,"startTime":77.571484375,"velocity":68},{"channel":1,"duration":0.1875,"durationBeats":0.5,"durationTicks":480,"endBeat":207.409375,"endTick":199113,"endTime":77.77851562500001,"note":32,"startBeat":206.909375,"startTick":198633,"startTime":77.59101562500001,"velocity":50},{"channel":2,"duration":0.1875,"durationBeats":0.5,"durationTicks":480,"endBeat":207.63854166666667,"endTick":199333,"endTime":77.864453125,"note":33,"startBeat":207.13854166666667,"startTick":198853,"startTime":77.676953125,"velocity":57},{"channel":1,"duration":0.1875,"durationBeats":0.5,"durationTicks":480,"endBeat":207.909375,"endTick":199593,"endTime":77.96601562500001,"note":33,"startBeat":207.409375,"startTick":199113,"startTime":77.77851562500001,"velocity":50},{"channel":9,"duration":0.09375,"durationBeats":0.25,"durationTicks":240,"endBeat":207.91145833333334,"endTick":199595,"endTime":77.966796875,"note":35,"startBeat":207.66145833333334,"startTick":199355,"startTime":77.873046875,"velocity":50},{"channel":9,"duration":0.03125,"durationBeats":0.08333333333334281,"durationTicks":80,"endBeat":208.08333333333334,"endTick":199760,"endTime":78.03125,"note":42,"startBeat":208,"startTick":199680,"startTime":78,"velocity":50},{"channel":2,"duration":0.09375,"durationBeats":0.25,"durationTicks":240,"endBeat":208.13854166666667,"endTick":199813,"endTime":78.051953125,"note":33,"startBeat":207.88854166666667,"startTick":199573,"startTime":77.958203125,"velocity":57},{"channel":9,"duration":0.09375,"durationBeats":0.25,"durationTicks":240,"endBeat":208.18229166666666,"endTick":199855,"endTime":78.068359375,"note":35,"startBeat":207.93229166666666,"startTick":199615,"startTime":77.974609375,"velocity":50},{"channel":9,"duration":0.0625,"durationBeats":0.1666666666666572,"durationTicks":160,"endBeat":208.25,"endTick":199920,"endTime":78.09375,"note":42,"startBeat":208.08333333333334,"startTick":199760,"startTime":78.03125,"velocity":50},{"channel":9,"duration":0.0234375,"durationBeats":0.0625,"durationTicks":60,"endBeat":208.3125,"endTick":199980,"endTime":78.1171875,"note":42,"startBeat":208.25,"startTick":199920,"startTime":78.09375,"velocity":50},{"channel":0,"duration":0.1875,"durationBeats":0.5,"durationTicks":480,"endBeat":208.35729166666667,"endTick":200023,"endTime":78.133984375,"note":26,"startBeat":207.85729166666667,"startTick":199543,"startTime":77.946484375,"velocity":68},{"channel":1,"duration":0.09375,"durationBeats":0.25,"durationTicks":240,"endBeat":208.409375,"endTick":200073,"endTime":78.15351562500001,"note":33,"startBeat":208.159375,"startTick":199833,"startTime":78.05976562500001,"velocity":50},{"channel":9,"duration":0.001953125,"durationBeats":0.005208333333342807,"durationTicks":5,"endBeat":208.4375,"endTick":200100,"endTime":78.1640625,"note":42,"startBeat":208.43229166666666,"startTick":200095,"startTime":78.162109375,"velocity":50},{"channel":9,"duration":0.0234375,"durationBeats":0.0625,"durationTicks":60,"endBeat":208.5625,"endTick":200220,"endTime":78.2109375,"note":42,"startBeat":208.5,"startTick":200160,"startTime":78.1875,"velocity":50},{"channel":9,"duration":0.021484375,"durationBeats":0.05729166666665719,"durationTicks":55,"endBeat":208.68229166666666,"endTick":200335,"endTime":78.255859375,"note":42,"startBeat":208.625,"startTick":200280,"startTime":78.234375,"velocity":50},{"channel":9,"duration":0.09375,"durationBeats":0.25,"durationTicks":240,"endBeat":208.91145833333334,"endTick":200555,"endTime":78.341796875,"note":35,"startBeat":208.66145833333334,"startTick":200315,"startTime":78.248046875,"velocity":50},{"channel":9,"duration":0.09375,"durationBeats":0.25,"durationTicks":240,"endBeat":209.08333333333334,"endTick":200720,"endTime":78.40625,"note":42,"startBeat":208.83333333333334,"startTick":200480,"startTime":78.3125,"velocity":50},{"channel":2,"duration":0.1875,"durationBeats":0.5,"durationTicks":480,"endBeat":209.13854166666667,"endTick":200773,"endTime":78.426953125,"note":26,"startBeat":208.63854166666667,"startTick":200293,"startTime":78.239453125,"velocity":57},{"channel":9,"duration":0.09375,"durationBeats":0.25,"durationTicks":240,"endBeat":209.18229166666666,"endTick":200815,"endTime":78.443359375,"note":35,"startBeat":208.93229166666666,"startTick":200575,"startTime":78.349609375,"velocity":50},{"channel":0,"duration":0.1875,"durationBeats":0.5,"durationTicks":480,"endBeat":209.35729166666667,"endTick":200983,"endTime":78.508984375,"note":65,"startBeat":208.85729166666667,"startTick":200503,"startTime":78.321484375,"velocity":68},{"channel":0,"duration":0.1875,"durationBeats":0.5,"durationTicks":480,"endBeat":209.35729166666667,"endTick":200983,"endTime":78.508984375,"note":69,"startBeat":208.85729166666667,"startTick":200503,"startTime":78.321484375,"velocity":68},{"channel":0,"duration":0.1875,"durationBeats":0.5,"durationTicks":480,"endBeat":209.35729166666667,"endTick":200983,"endTime":78.508984375,"note":60,"startBeat":208.85729166666667,"startTick":200503,"startTime":78.321484375,"velocity":68},{"channel":0,"duration":0.1875,"durationBeats":0.5,"durationTicks":480,"endBeat":209.35729166666667,"endTick":200983,"endTime":78.508984375,"note":64,"startBeat":208.85729166666667,"startTick":200503,"startTime":78.321484375,"velocity":68},{"channel":0,"duration":0.1875,"durationBeats":0.5,"durationTicks":480,"endBeat":209.35729166666667,"endTick":200983,"endTime":78.508984375,"note":38,"startBeat":208.85729166666667,"startTick":200503,"startTime":78.321484375,"velocity":68},{"channel":1,"duration":0.1875,"durationBeats":0.5,"durationTicks":480,"endBeat":209.409375,"endTick":201033,"endTime":78.52851562500001,"note":26,"startBeat":208.909375,"startTick":200553,"startTime":78.34101562500001,"velocity":50},{"channel":9,"duration":0.09375,"durationBeats":0.25,"durationTicks":240,"endBeat":209.5,"endTick":201120,"endTime":78.5625,"note":42,"startBeat":209.25,"startTick":200880,"startTime":78.46875,"velocity":50},{"channel":9,"duration":0.09375,"durationBeats":0.25,"durationTicks":240,"endBeat":209.66145833333334,"endTick":201275,"endTime":78.623046875,"note":35,"startBeat":209.41145833333334,"startTick":201035,"startTime":78.529296875,"velocity":50},{"channel":9,"duration":0.0625,"durationBeats":0.1666666666666572,"durationTicks":160,"endBeat":209.75,"endTick":201360,"endTime":78.65625,"note":42,"startBeat":209.58333333333334,"startTick":201200,"startTime":78.59375,"velocity":50},{"channel":9,"duration":0.0234375,"durationBeats":0.0625,"durationTicks":60,"endBeat":209.89583333333334,"endTick":201500,"endTime":78.7109375,"note":42,"startBeat":209.83333333333334,"startTick":201440,"startTime":78.6875,"velocity":50},{"channel":9,"duration":0.09375,"durationBeats":0.25,"durationTicks":240,"endBeat":209.93229166666666,"endTick":201535,"endTime":78.724609375,"note":35,"startBeat":209.68229166666666,"startTick":201295,"startTime":78.630859375,"velocity":50},{"channel":9,"duration":0.0234375,"durationBeats":0.0625,"durationTicks":60,"endBeat":210.02083333333334,"endTick":201620,"endTime":78.7578125,"note":42,"startBeat":209.95833333333334,"startTick":201560,"startTime":78.734375,"velocity":50},{"channel":0,"duration":0.1875,"durationBeats":0.5,"durationTicks":480,"endBeat":210.10729166666667,"endTick":201703,"endTime":78.790234375,"note":33,"startBeat":209.60729166666667,"startTick":201223,"startTime":78.602734375,"velocity":68},{"channel":2,"duration":0.1875,"durationBeats":0.5,"durationTicks":480,"endBeat":210.13854166666667,"endTick":201733,"endTime":78.801953125,"note":26,"startBeat":209.63854166666667,"startTick":201253,"startTime":78.614453125,"velocity":57},{"channel":9,"duration":0.0234375,"durationBeats":0.0625,"durationTicks":60,"endBeat":210.14583333333334,"endTick":201740,"endTime":78.8046875,"note":42,"startBeat":210.08333333333334,"startTick":201680,"startTime":78.78125,"velocity":50},{"channel":9,"duration":0.0078125,"durationBeats":0.020833333333342807,"durationTicks":20,"endBeat":210.27083333333334,"endTick":201860,"endTime":78.8515625,"note":42,"startBeat":210.25,"startTick":201840,"startTime":78.84375,"velocity":50},{"channel":0,"duration":0.1875,"durationBeats":0.5,"durationTicks":480,"endBeat":210.35729166666667,"endTick":201943,"endTime":78.883984375,"note":68,"startBeat":209.85729166666667,"startTick":201463,"startTime":78.696484375,"velocity":68},{"channel":0,"duration":0.1875,"durationBeats":0.5,"durationTicks":480,"endBeat":210.35729166666667,"endTick":201943,"endTime":78.883984375,"note":63,"startBeat":209.85729166666667,"startTick":201463,"startTime":78.696484375,"velocity":68},{"channel":0,"duration":0.1875,"durationBeats":0.5,"durationTicks":480,"endBeat":210.35729166666667,"endTick":201943,"endTime":78.883984375,"note":59,"startBeat":209.85729166666667,"startTick":201463,"startTime":78.696484375,"velocity":68},{"channel":9,"duration":0.0234375,"durationBeats":0.0625,"durationTicks":60,"endBeat":210.39583333333334,"endTick":201980,"endTime":78.8984375,"note":42,"startBeat":210.33333333333334,"startTick":201920,"startTime":78.875,"velocity":50},{"channel":1,"duration":0.1875,"durationBeats":0.5,"durationTicks":480,"endBeat":210.409375,"endTick":201993,"endTime":78.90351562500001,"note":26,"startBeat":209.909375,"startTick":201513,"startTime":78.71601562500001,"velocity":50},{"channel":9,"duration":0.09375,"durationBeats":0.25,"durationTicks":240,"endBeat":210.41145833333334,"endTick":201995,"endTime":78.904296875,"note":35,"startBeat":210.16145833333334,"startTick":201755,"startTime":78.810546875,"velocity":50},{"channel":2,"duration":0.1875,"durationBeats":0.5,"durationTicks":480,"endBeat":210.63854166666667,"endTick":202213,"endTime":78.989453125,"note":33,"startBeat":210.13854166666667,"startTick":201733,"startTime":78.801953125,"velocity":57},{"channel":9,"duration":0.0078125,"durationBeats":0.020833333333314386,"durationTicks":20,"endBeat":210.68229166666666,"endTick":202255,"endTime":79.005859375,"note":35,"startBeat":210.66145833333334,"startTick":202235,"startTime":78.998046875,"velocity":50},{"channel":9,"duration":0.09375,"durationBeats":0.25,"durationTicks":240,"endBeat":210.75,"endTick":202320,"endTime":79.03125,"note":42,"startBeat":210.5,"startTick":202080,"startTime":78.9375,"velocity":50},{"channel":0,"duration":0.1875,"durationBeats":0.5,"durationTicks":480,"endBeat":210.85729166666667,"endTick":202423,"endTime":79.071484375,"note":32,"startBeat":210.35729166666667,"startTick":201943,"startTime":78.883984375,"velocity":68},{"channel":1,"duration":0.1875,"durationBeats":0.5,"durationTicks":480,"endBeat":210.909375,"endTick":202473,"endTime":79.09101562500001,"note":33,"startBeat":210.409375,"startTick":201993,"startTime":78.90351562500001,"velocity":50},{"channel":9,"duration":0.09375,"durationBeats":0.25,"durationTicks":240,"endBeat":211.08333333333334,"endTick":202640,"endTime":79.15625,"note":42,"startBeat":210.83333333333334,"startTick":202400,"startTime":79.0625,"velocity":50},{"channel":2,"duration":0.1875,"durationBeats":0.5,"durationTicks":480,"endBeat":211.13854166666667,"endTick":202693,"endTime":79.176953125,"note":26,"startBeat":210.63854166666667,"startTick":202213,"startTime":78.989453125,"velocity":57},{"channel":9,"duration":0.09375,"durationBeats":0.25,"durationTicks":240,"endBeat":211.18229166666666,"endTick":202735,"endTime":79.193359375,"note":35,"startBeat":210.93229166666666,"startTick":202495,"startTime":79.099609375,"velocity":50},{"channel":12,"duration":0.0625,"durationBeats":0.1666666666666572,"durationTicks":160,"endBeat":211.27395833333333,"endTick":202823,"endTime":79.227734375,"note":68,"startBeat":211.10729166666667,"startTick":202663,"startTime":79.165234375,"velocity":50},{"channel":9,"duration":0.03125,"durationBeats":0.08333333333334281,"durationTicks":80,"endBeat":211.33333333333334,"endTick":202880,"endTime":79.25,"note":42,"startBeat":211.25,"startTick":202800,"startTime":79.21875,"velocity":50},{"channel":0,"duration":0.1875,"durationBeats":0.5,"durationTicks":480,"endBeat":211.35729166666667,"endTick":202903,"endTime":79.258984375,"note":31,"startBeat":210.85729166666667,"startTick":202423,"startTime":79.071484375,"velocity":68},{"channel":1,"duration":0.1875,"durationBeats":0.5,"durationTicks":480,"endBeat":211.409375,"endTick":202953,"endTime":79.27851562500001,"note":26,"startBeat":210.909375,"startTick":202473,"startTime":79.09101562500001,"velocity":50},{"channel":12,"duration":0.140625,"durationBeats":0.375,"durationTicks":360,"endBeat":211.60729166666667,"endTick":203143,"endTime":79.352734375,"note":69,"startBeat":211.23229166666667,"startTick":202783,"startTime":79.212109375,"velocity":50},{"channel":0,"duration":0.375,"durationBeats":1,"durationTicks":960,"endBeat":211.85729166666667,"endTick":203383,"endTime":79.446484375,"note":69,"startBeat":210.85729166666667,"startTick":202423,"startTime":79.071484375,"velocity":68},{"channel":0,"duration":0.375,"durationBeats":1,"durationTicks":960,"endBeat":211.85729166666667,"endTick":203383,"endTime":79.446484375,"note":65,"startBeat":210.85729166666667,"startTick":202423,"startTime":79.071484375,"velocity":68},{"channel":0,"duration":0.375,"durationBeats":1,"durationTicks":960,"endBeat":211.85729166666667,"endTick":203383,"endTime":79.446484375,"note":62,"startBeat":210.85729166666667,"startTick":202423,"startTime":79.071484375,"velocity":68},{"channel":0,"duration":0.375,"durationBeats":1,"durationTicks":960,"endBeat":211.85729166666667,"endTick":203383,"endTime":79.446484375,"note":58,"startBeat":210.85729166666667,"startTick":202423,"startTime":79.071484375,"velocity":68},{"channel":9,"duration":0.09375,"durationBeats":0.25,"durationTicks":240,"endBeat":211.91145833333334,"endTick":203435,"endTime":79.466796875,"note":35,"startBeat":211.66145833333334,"startTick":203195,"startTime":79.373046875,"velocity":50},{"channel":9,"duration":0.03125,"durationBeats":0.08333333333334281,"durationTicks":80,"endBeat":212.08333333333334,"endTick":203600,"endTime":79.53125,"note":42,"startBeat":212,"startTick":203520,"startTime":79.5,"velocity":50},{"channel":2,"duration":0.1875,"durationBeats":0.5,"durationTicks":480,"endBeat":212.13854166666667,"endTick":203653,"endTime":79.551953125,"note":26,"startBeat":211.63854166666667,"startTick":203173,"startTime":79.364453125,"velocity":57},{"channel":9,"duration":0.09375,"durationBeats":0.25,"durationTicks":240,"endBeat":212.18229166666666,"endTick":203695,"endTime":79.568359375,"note":35,"startBeat":211.93229166666666,"startTick":203455,"startTime":79.474609375,"velocity":50},{"channel":9,"duration":0.0625,"durationBeats":0.1666666666666572,"durationTicks":160,"endBeat":212.25,"endTick":203760,"endTime":79.59375,"note":42,"startBeat":212.08333333333334,"startTick":203600,"startTime":79.53125,"velocity":50},{"channel":9,"duration":0.0234375,"durationBeats":0.0625,"durationTicks":60,"endBeat":212.3125,"endTick":203820,"endTime":79.6171875,"note":42,"startBeat":212.25,"startTick":203760,"startTime":79.59375,"velocity":50},{"channel":0,"duration":0.1875,"durationBeats":0.5,"durationTicks":480,"endBeat":212.35729166666667,"endTick":203863,"endTime":79.633984375,"note":31,"startBeat":211.85729166666667,"startTick":203383,"startTime":79.446484375,"velocity":68},{"channel":1,"duration":0.1875,"durationBeats":0.5,"durationTicks":480,"endBeat":212.409375,"endTick":203913,"endTime":79.65351562500001,"note":26,"startBeat":211.909375,"startTick":203433,"startTime":79.46601562500001,"velocity":50},{"channel":9,"duration":0.0234375,"durationBeats":0.0625,"durationTicks":60,"endBeat":212.4375,"endTick":203940,"endTime":79.6640625,"note":42,"startBeat":212.375,"startTick":203880,"startTime":79.640625,"velocity":50},{"channel":9,"duration":0.0234375,"durationBeats":0.0625,"durationTicks":60,"endBeat":212.5625,"endTick":204060,"endTime":79.7109375,"note":42,"startBeat":212.5,"startTick":204000,"startTime":79.6875,"velocity":50},{"channel":12,"duration":0.1875,"durationBeats":0.5,"durationTicks":480,"endBeat":212.60729166666667,"endTick":204103,"endTime":79.727734375,"note":67,"startBeat":212.10729166666667,"startTick":203623,"startTime":79.540234375,"velocity":50},{"channel":2,"duration":0.1875,"durationBeats":0.5,"durationTicks":480,"endBeat":212.63854166666667,"endTick":204133,"endTime":79.739453125,"note":33,"startBeat":212.13854166666667,"startTick":203653,"startTime":79.551953125,"velocity":57},{"channel":9,"duration":0.0234375,"durationBeats":0.0625,"durationTicks":60,"endBeat":212.6875,"endTick":204180,"endTime":79.7578125,"note":42,"startBeat":212.625,"startTick":204120,"startTime":79.734375,"velocity":50},{"channel":9,"duration":0.0234375,"durationBeats":0.0625,"durationTicks":60,"endBeat":212.8125,"endTick":204300,"endTime":79.8046875,"note":42,"startBeat":212.75,"startTick":204240,"startTime":79.78125,"velocity":50},{"channel":1,"duration":0.1875,"durationBeats":0.5,"durationTicks":480,"endBeat":212.909375,"endTick":204393,"endTime":79.84101562500001,"note":33,"startBeat":212.409375,"startTick":203913,"startTime":79.65351562500001,"velocity":50},{"channel":9,"duration":0.09375,"durationBeats":0.25,"durationTicks":240,"endBeat":212.91145833333334,"endTick":204395,"endTime":79.841796875,"note":35,"startBeat":212.66145833333334,"startTick":204155,"startTime":79.748046875,"velocity":50},{"channel":9,"duration":0.09375,"durationBeats":0.25,"durationTicks":240,"endBeat":213.08333333333334,"endTick":204560,"endTime":79.90625,"note":42,"startBeat":212.83333333333334,"startTick":204320,"startTime":79.8125,"velocity":50},{"channel":2,"duration":0.1875,"durationBeats":0.5,"durationTicks":480,"endBeat":213.13854166666667,"endTick":204613,"endTime":79.926953125,"note":32,"startBeat":212.63854166666667,"startTick":204133,"startTime":79.739453125,"velocity":57},{"channel":9,"duration":0.09375,"durationBeats":0.25,"durationTicks":240,"endBeat":213.18229166666666,"endTick":204655,"endTime":79.943359375,"note":35,"startBeat":212.93229166666666,"startTick":204415,"startTime":79.849609375,"velocity":50},{"channel":0,"duration":0.1875,"durationBeats":0.5,"durationTicks":480,"endBeat":213.35729166666667,"endTick":204823,"endTime":80.008984375,"note":60,"startBeat":212.85729166666667,"startTick":204343,"startTime":79.821484375,"velocity":68},{"channel":0,"duration":0.1875,"durationBeats":0.5,"durationTicks":480,"endBeat":213.35729166666667,"endTick":204823,"endTime":80.008984375,"note":64,"startBeat":212.85729166666667,"startTick":204343,"startTime":79.821484375,"velocity":68},{"channel":0,"duration":0.1875,"durationBeats":0.5,"durationTicks":480,"endBeat":213.35729166666667,"endTick":204823,"endTime":80.008984375,"note":67,"startBeat":212.85729166666667,"startTick":204343,"startTime":79.821484375,"velocity":68},{"channel":0,"duration":0.1875,"durationBeats":0.5,"durationTicks":480,"endBeat":213.35729166666667,"endTick":204823,"endTime":80.008984375,"note":72,"startBeat":212.85729166666667,"startTick":204343,"startTime":79.821484375,"velocity":68},{"channel":0,"duration":0.1875,"durationBeats":0.5,"durationTicks":480,"endBeat":213.35729166666667,"endTick":204823,"endTime":80.008984375,"note":33,"startBeat":212.85729166666667,"startTick":204343,"startTime":79.821484375,"velocity":68},{"channel":1,"duration":0.1875,"durationBeats":0.5,"durationTicks":480,"endBeat":213.409375,"endTick":204873,"endTime":80.02851562500001,"note":32,"startBeat":212.909375,"startTick":204393,"startTime":79.84101562500001,"velocity":50},{"channel":9,"duration":0.09375,"durationBeats":0.25,"durationTicks":240,"endBeat":213.5,"endTick":204960,"endTime":80.0625,"note":42,"startBeat":213.25,"startTick":204720,"startTime":79.96875,"velocity":50},{"channel":12,"duration":0.1875,"durationBeats":0.5,"durationTicks":480,"endBeat":213.60729166666667,"endTick":205063,"endTime":80.102734375,"note":65,"startBeat":213.10729166666667,"startTick":204583,"startTime":79.915234375,"velocity":50},{"channel":2,"duration":0.1875,"durationBeats":0.5,"durationTicks":480,"endBeat":213.63854166666667,"endTick":205093,"endTime":80.114453125,"note":31,"startBeat":213.13854166666667,"startTick":204613,"startTime":79.926953125,"velocity":57},{"channel":9,"duration":0.09375,"durationBeats":0.25,"durationTicks":240,"endBeat":213.66145833333334,"endTick":205115,"endTime":80.123046875,"note":35,"startBeat":213.41145833333334,"startTick":204875,"startTime":80.029296875,"velocity":50},{"channel":9,"duration":0.0625,"durationBeats":0.1666666666666572,"durationTicks":160,"endBeat":213.75,"endTick":205200,"endTime":80.15625,"note":42,"startBeat":213.58333333333334,"startTick":205040,"startTime":80.09375,"velocity":50},{"channel":9,"duration":0.0234375,"durationBeats":0.0625,"durationTicks":60,"endBeat":213.89583333333334,"endTick":205340,"endTime":80.2109375,"note":42,"startBeat":213.83333333333334,"startTick":205280,"startTime":80.1875,"velocity":50},{"channel":1,"duration":0.1875,"durationBeats":0.5,"durationTicks":480,"endBeat":213.909375,"endTick":205353,"endTime":80.21601562500001,"note":31,"startBeat":213.409375,"startTick":204873,"startTime":80.02851562500001,"velocity":50},{"channel":9,"duration":0.09375,"durationBeats":0.25,"durationTicks":240,"endBeat":213.93229166666666,"endTick":205375,"endTime":80.224609375,"note":35,"startBeat":213.68229166666666,"startTick":205135,"startTime":80.130859375,"velocity":50},{"channel":9,"duration":0.0234375,"durationBeats":0.0625,"durationTicks":60,"endBeat":214.02083333333334,"endTick":205460,"endTime":80.2578125,"note":42,"startBeat":213.95833333333334,"startTick":205400,"startTime":80.234375,"velocity":50},{"channel":0,"duration":0.1875,"durationBeats":0.5,"durationTicks":480,"endBeat":214.10729166666667,"endTick":205543,"endTime":80.290234375,"note":33,"startBeat":213.60729166666667,"startTick":205063,"startTime":80.102734375,"velocity":68},{"channel":9,"duration":0.0234375,"durationBeats":0.0625,"durationTicks":60,"endBeat":214.14583333333334,"endTick":205580,"endTime":80.3046875,"note":42,"startBeat":214.08333333333334,"startTick":205520,"startTime":80.28125,"velocity":50},{"channel":9,"duration":0.0078125,"durationBeats":0.020833333333342807,"durationTicks":20,"endBeat":214.27083333333334,"endTick":205700,"endTime":80.3515625,"note":42,"startBeat":214.25,"startTick":205680,"startTime":80.34375,"velocity":50},{"channel":0,"duration":0.1875,"durationBeats":0.5,"durationTicks":480,"endBeat":214.35729166666667,"endTick":205783,"endTime":80.383984375,"note":70,"startBeat":213.85729166666667,"startTick":205303,"startTime":80.196484375,"velocity":68},{"channel":0,"duration":0.1875,"durationBeats":0.5,"durationTicks":480,"endBeat":214.35729166666667,"endTick":205783,"endTime":80.383984375,"note":67,"startBeat":213.85729166666667,"startTick":205303,"startTime":80.196484375,"velocity":68},{"channel":0,"duration":0.1875,"durationBeats":0.5,"durationTicks":480,"endBeat":214.35729166666667,"endTick":205783,"endTime":80.383984375,"note":65,"startBeat":213.85729166666667,"startTick":205303,"startTime":80.196484375,"velocity":68},{"channel":0,"duration":0.1875,"durationBeats":0.5,"durationTicks":480,"endBeat":214.35729166666667,"endTick":205783,"endTime":80.383984375,"note":61,"startBeat":213.85729166666667,"startTick":205303,"startTime":80.196484375,"velocity":68},{"channel":9,"duration":0.0234375,"durationBeats":0.0625,"durationTicks":60,"endBeat":214.39583333333334,"endTick":205820,"endTime":80.3984375,"note":42,"startBeat":214.33333333333334,"startTick":205760,"startTime":80.375,"velocity":50},{"channel":9,"duration":0.09375,"durationBeats":0.25,"durationTicks":240,"endBeat":214.41145833333334,"endTick":205835,"endTime":80.404296875,"note":35,"startBeat":214.16145833333334,"startTick":205595,"startTime":80.310546875,"velocity":50},{"channel":12,"duration":0.1875,"durationBeats":0.5,"durationTicks":480,"endBeat":214.60729166666667,"endTick":206023,"endTime":80.477734375,"note":64,"startBeat":214.10729166666667,"startTick":205543,"startTime":80.290234375,"velocity":50},{"channel":2,"duration":0.1875,"durationBeats":0.5,"durationTicks":480,"endBeat":214.63854166666667,"endTick":206053,"endTime":80.489453125,"note":31,"startBeat":214.13854166666667,"startTick":205573,"startTime":80.301953125,"velocity":57},{"channel":9,"duration":0.0078125,"durationBeats":0.020833333333314386,"durationTicks":20,"endBeat":214.68229166666666,"endTick":206095,"endTime":80.505859375,"note":35,"startBeat":214.66145833333334,"startTick":206075,"startTime":80.498046875,"velocity":50},{"channel":9,"duration":0.09375,"durationBeats":0.25,"durationTicks":240,"endBeat":214.75,"endTick":206160,"endTime":80.53125,"note":42,"startBeat":214.5,"startTick":205920,"startTime":80.4375,"velocity":50},{"channel":0,"duration":0.1875,"durationBeats":0.5,"durationTicks":480,"endBeat":214.85729166666667,"endTick":206263,"endTime":80.571484375,"note":33,"startBeat":214.35729166666667,"startTick":205783,"startTime":80.383984375,"velocity":68},{"channel":1,"duration":0.1875,"durationBeats":0.5,"durationTicks":480,"endBeat":214.909375,"endTick":206313,"endTime":80.59101562500001,"note":31,"startBeat":214.409375,"startTick":205833,"startTime":80.40351562500001,"velocity":50},{"channel":9,"duration":0.09375,"durationBeats":0.25,"durationTicks":240,"endBeat":215.08333333333334,"endTick":206480,"endTime":80.65625,"note":42,"startBeat":214.83333333333334,"startTick":206240,"startTime":80.5625,"velocity":50},{"channel":2,"duration":0.1875,"durationBeats":0.5,"durationTicks":480,"endBeat":215.13854166666667,"endTick":206533,"endTime":80.676953125,"note":32,"startBeat":214.63854166666667,"startTick":206053,"startTime":80.489453125,"velocity":57},{"channel":9,"duration":0.09375,"durationBeats":0.25,"durationTicks":240,"endBeat":215.18229166666666,"endTick":206575,"endTime":80.693359375,"note":35,"startBeat":214.93229166666666,"startTick":206335,"startTime":80.599609375,"velocity":50},{"channel":0,"duration":0.1875,"durationBeats":0.5,"durationTicks":480,"endBeat":215.35729166666667,"endTick":206743,"endTime":80.758984375,"note":69,"startBeat":214.85729166666667,"startTick":206263,"startTime":80.571484375,"velocity":68},{"channel":0,"duration":0.1875,"durationBeats":0.5,"durationTicks":480,"endBeat":215.35729166666667,"endTick":206743,"endTime":80.758984375,"note":65,"startBeat":214.85729166666667,"startTick":206263,"startTime":80.571484375,"velocity":68},{"channel":0,"duration":0.1875,"durationBeats":0.5,"durationTicks":480,"endBeat":215.35729166666667,"endTick":206743,"endTime":80.758984375,"note":64,"startBeat":214.85729166666667,"startTick":206263,"startTime":80.571484375,"velocity":68},{"channel":0,"duration":0.1875,"durationBeats":0.5,"durationTicks":480,"endBeat":215.35729166666667,"endTick":206743,"endTime":80.758984375,"note":60,"startBeat":214.85729166666667,"startTick":206263,"startTime":80.571484375,"velocity":68},{"channel":0,"duration":0.1875,"durationBeats":0.5,"durationTicks":480,"endBeat":215.35729166666667,"endTick":206743,"endTime":80.758984375,"note":26,"startBeat":214.85729166666667,"startTick":206263,"startTime":80.571484375,"velocity":68},{"channel":1,"duration":0.1875,"durationBeats":0.5,"durationTicks":480,"endBeat":215.409375,"endTick":206793,"endTime":80.77851562500001,"note":32,"startBeat":214.909375,"startTick":206313,"startTime":80.59101562500001,"velocity":50},{"channel":9,"duration":0.09375,"durationBeats":0.25,"durationTicks":240,"endBeat":215.5,"endTick":206880,"endTime":80.8125,"note":42,"startBeat":215.25,"startTick":206640,"startTime":80.71875,"velocity":50},{"channel":12,"duration":0.1875,"durationBeats":0.5,"durationTicks":480,"endBeat":215.60729166666667,"endTick":206983,"endTime":80.852734375,"note":67,"startBeat":215.10729166666667,"startTick":206503,"startTime":80.665234375,"velocity":50},{"channel":2,"duration":0.1875,"durationBeats":0.5,"durationTicks":480,"endBeat":215.63854166666667,"endTick":207013,"endTime":80.864453125,"note":33,"startBeat":215.13854166666667,"startTick":206533,"startTime":80.676953125,"velocity":57},{"channel":1,"duration":0.1875,"durationBeats":0.5,"durationTicks":480,"endBeat":215.909375,"endTick":207273,"endTime":80.96601562500001,"note":33,"startBeat":215.409375,"startTick":206793,"startTime":80.77851562500001,"velocity":50},{"channel":9,"duration":0.09375,"durationBeats":0.25,"durationTicks":240,"endBeat":215.91145833333334,"endTick":207275,"endTime":80.966796875,"note":35,"startBeat":215.66145833333334,"startTick":207035,"startTime":80.873046875,"velocity":50},{"channel":9,"duration":0.03125,"durationBeats":0.08333333333334281,"durationTicks":80,"endBeat":216.08333333333334,"endTick":207440,"endTime":81.03125,"note":42,"startBeat":216,"startTick":207360,"startTime":81,"velocity":50},{"channel":2,"duration":0.09375,"durationBeats":0.25,"durationTicks":240,"endBeat":216.13854166666667,"endTick":207493,"endTime":81.051953125,"note":33,"startBeat":215.88854166666667,"startTick":207253,"startTime":80.958203125,"velocity":57},{"channel":9,"duration":0.09375,"durationBeats":0.25,"durationTicks":240,"endBeat":216.18229166666666,"endTick":207535,"endTime":81.068359375,"note":35,"startBeat":215.93229166666666,"startTick":207295,"startTime":80.974609375,"velocity":50},{"channel":9,"duration":0.0625,"durationBeats":0.1666666666666572,"durationTicks":160,"endBeat":216.25,"endTick":207600,"endTime":81.09375,"note":42,"startBeat":216.08333333333334,"startTick":207440,"startTime":81.03125,"velocity":50},{"channel":9,"duration":0.0234375,"durationBeats":0.0625,"durationTicks":60,"endBeat":216.3125,"endTick":207660,"endTime":81.1171875,"note":42,"startBeat":216.25,"startTick":207600,"startTime":81.09375,"velocity":50},{"channel":0,"duration":0.1875,"durationBeats":0.5,"durationTicks":480,"endBeat":216.35729166666667,"endTick":207703,"endTime":81.133984375,"note":26,"startBeat":215.85729166666667,"startTick":207223,"startTime":80.946484375,"velocity":68},{"channel":1,"duration":0.09375,"durationBeats":0.25,"durationTicks":240,"endBeat":216.409375,"endTick":207753,"endTime":81.15351562500001,"note":33,"startBeat":216.159375,"startTick":207513,"startTime":81.05976562500001,"velocity":50},{"channel":9,"duration":0.0234375,"durationBeats":0.0625,"durationTicks":60,"endBeat":216.4375,"endTick":207780,"endTime":81.1640625,"note":42,"startBeat":216.375,"startTick":207720,"startTime":81.140625,"velocity":50},{"channel":9,"duration":0.0234375,"durationBeats":0.0625,"durationTicks":60,"endBeat":216.5625,"endTick":207900,"endTime":81.2109375,"note":42,"startBeat":216.5,"startTick":207840,"startTime":81.1875,"velocity":50},{"channel":12,"duration":0.1875,"durationBeats":0.5,"durationTicks":480,"endBeat":216.60729166666667,"endTick":207943,"endTime":81.227734375,"note":65,"startBeat":216.10729166666667,"startTick":207463,"startTime":81.040234375,"velocity":50},{"channel":9,"duration":0.0234375,"durationBeats":0.0625,"durationTicks":60,"endBeat":216.6875,"endTick":208020,"endTime":81.2578125,"note":42,"startBeat":216.625,"startTick":207960,"startTime":81.234375,"velocity":50},{"channel":9,"duration":0.0234375,"durationBeats":0.0625,"durationTicks":60,"endBeat":216.8125,"endTick":208140,"endTime":81.3046875,"note":42,"startBeat":216.75,"startTick":208080,"startTime":81.28125,"velocity":50},{"channel":9,"duration":0.09375,"durationBeats":0.25,"durationTicks":240,"endBeat":216.91145833333334,"endTick":208235,"endTime":81.341796875,"note":35,"startBeat":216.66145833333334,"startTick":207995,"startTime":81.248046875,"velocity":50},{"channel":9,"duration":0.09375,"durationBeats":0.25,"durationTicks":240,"endBeat":217.08333333333334,"endTick":208400,"endTime":81.40625,"note":42,"startBeat":216.83333333333334,"startTick":208160,"startTime":81.3125,"velocity":50},{"channel":2,"duration":0.1875,"durationBeats":0.5,"durationTicks":480,"endBeat":217.13854166666667,"endTick":208453,"endTime":81.426953125,"note":26,"startBeat":216.63854166666667,"startTick":207973,"startTime":81.239453125,"velocity":57},{"channel":9,"duration":0.09375,"durationBeats":0.25,"durationTicks":240,"endBeat":217.18229166666666,"endTick":208495,"endTime":81.443359375,"note":35,"startBeat":216.93229166666666,"startTick":208255,"startTime":81.349609375,"velocity":50},{"channel":0,"duration":0.1875,"durationBeats":0.5,"durationTicks":480,"endBeat":217.35729166666667,"endTick":208663,"endTime":81.508984375,"note":65,"startBeat":216.85729166666667,"startTick":208183,"startTime":81.321484375,"velocity":68},{"channel":0,"duration":0.1875,"durationBeats":0.5,"durationTicks":480,"endBeat":217.35729166666667,"endTick":208663,"endTime":81.508984375,"note":69,"startBeat":216.85729166666667,"startTick":208183,"startTime":81.321484375,"velocity":68},{"channel":0,"duration":0.1875,"durationBeats":0.5,"durationTicks":480,"endBeat":217.35729166666667,"endTick":208663,"endTime":81.508984375,"note":60,"startBeat":216.85729166666667,"startTick":208183,"startTime":81.321484375,"velocity":68},{"channel":0,"duration":0.1875,"durationBeats":0.5,"durationTicks":480,"endBeat":217.35729166666667,"endTick":208663,"endTime":81.508984375,"note":64,"startBeat":216.85729166666667,"startTick":208183,"startTime":81.321484375,"velocity":68},{"channel":0,"duration":0.1875,"durationBeats":0.5,"durationTicks":480,"endBeat":217.35729166666667,"endTick":208663,"endTime":81.508984375,"note":38,"startBeat":216.85729166666667,"startTick":208183,"startTime":81.321484375,"velocity":68},{"channel":1,"duration":0.1875,"durationBeats":0.5,"durationTicks":480,"endBeat":217.409375,"endTick":208713,"endTime":81.52851562500001,"note":26,"startBeat":216.909375,"startTick":208233,"startTime":81.34101562500001,"velocity":50},{"channel":9,"duration":0.09375,"durationBeats":0.25,"durationTicks":240,"endBeat":217.5,"endTick":208800,"endTime":81.5625,"note":42,"startBeat":217.25,"startTick":208560,"startTime":81.46875,"velocity":50},{"channel":12,"duration":0.1875,"durationBeats":0.5,"durationTicks":480,"endBeat":217.60729166666667,"endTick":208903,"endTime":81.602734375,"note":64,"startBeat":217.10729166666667,"startTick":208423,"startTime":81.415234375,"velocity":50},{"channel":9,"duration":0.09375,"durationBeats":0.25,"durationTicks":240,"endBeat":217.66145833333334,"endTick":208955,"endTime":81.623046875,"note":35,"startBeat":217.41145833333334,"startTick":208715,"startTime":81.529296875,"velocity":50},{"channel":9,"duration":0.0625,"durationBeats":0.1666666666666572,"durationTicks":160,"endBeat":217.75,"endTick":209040,"endTime":81.65625,"note":42,"startBeat":217.58333333333334,"startTick":208880,"startTime":81.59375,"velocity":50},{"channel":9,"duration":0.0234375,"durationBeats":0.0625,"durationTicks":60,"endBeat":217.89583333333334,"endTick":209180,"endTime":81.7109375,"note":42,"startBeat":217.83333333333334,"startTick":209120,"startTime":81.6875,"velocity":50},{"channel":9,"duration":0.09375,"durationBeats":0.25,"durationTicks":240,"endBeat":217.93229166666666,"endTick":209215,"endTime":81.724609375,"note":35,"startBeat":217.68229166666666,"startTick":208975,"startTime":81.630859375,"velocity":50},{"channel":9,"duration":0.0234375,"durationBeats":0.0625,"durationTicks":60,"endBeat":218.02083333333334,"endTick":209300,"endTime":81.7578125,"note":42,"startBeat":217.95833333333334,"startTick":209240,"startTime":81.734375,"velocity":50},{"channel":0,"duration":0.1875,"durationBeats":0.5,"durationTicks":480,"endBeat":218.10729166666667,"endTick":209383,"endTime":81.790234375,"note":33,"startBeat":217.60729166666667,"startTick":208903,"startTime":81.602734375,"velocity":68},{"channel":2,"duration":0.1875,"durationBeats":0.5,"durationTicks":480,"endBeat":218.13854166666667,"endTick":209413,"endTime":81.801953125,"note":38,"startBeat":217.63854166666667,"startTick":208933,"startTime":81.614453125,"velocity":57},{"channel":9,"duration":0.0234375,"durationBeats":0.0625,"durationTicks":60,"endBeat":218.14583333333334,"endTick":209420,"endTime":81.8046875,"note":42,"startBeat":218.08333333333334,"startTick":209360,"startTime":81.78125,"velocity":50},{"channel":9,"duration":0.0078125,"durationBeats":0.020833333333342807,"durationTicks":20,"endBeat":218.27083333333334,"endTick":209540,"endTime":81.8515625,"note":42,"startBeat":218.25,"startTick":209520,"startTime":81.84375,"velocity":50},{"channel":0,"duration":0.1875,"durationBeats":0.5,"durationTicks":480,"endBeat":218.35729166666667,"endTick":209623,"endTime":81.883984375,"note":68,"startBeat":217.85729166666667,"startTick":209143,"startTime":81.696484375,"velocity":68},{"channel":0,"duration":0.1875,"durationBeats":0.5,"durationTicks":480,"endBeat":218.35729166666667,"endTick":209623,"endTime":81.883984375,"note":63,"startBeat":217.85729166666667,"startTick":209143,"startTime":81.696484375,"velocity":68},{"channel":0,"duration":0.1875,"durationBeats":0.5,"durationTicks":480,"endBeat":218.35729166666667,"endTick":209623,"endTime":81.883984375,"note":59,"startBeat":217.85729166666667,"startTick":209143,"startTime":81.696484375,"velocity":68},{"channel":1,"duration":0.1875,"durationBeats":0.5,"durationTicks":480,"endBeat":218.409375,"endTick":209673,"endTime":81.90351562500001,"note":38,"startBeat":217.909375,"startTick":209193,"startTime":81.71601562500001,"velocity":50},{"channel":9,"duration":0.09375,"durationBeats":0.25,"durationTicks":240,"endBeat":218.41145833333334,"endTick":209675,"endTime":81.904296875,"note":35,"startBeat":218.16145833333334,"startTick":209435,"startTime":81.810546875,"velocity":50},{"channel":12,"duration":0.1875,"durationBeats":0.5,"durationTicks":480,"endBeat":218.60729166666667,"endTick":209863,"endTime":81.977734375,"note":62,"startBeat":218.10729166666667,"startTick":209383,"startTime":81.790234375,"velocity":50},{"channel":2,"duration":0.1875,"durationBeats":0.5,"durationTicks":480,"endBeat":218.63854166666667,"endTick":209893,"endTime":81.989453125,"note":26,"startBeat":218.13854166666667,"startTick":209413,"startTime":81.801953125,"velocity":57},{"channel":9,"duration":0.0078125,"durationBeats":0.020833333333314386,"durationTicks":20,"endBeat":218.68229166666666,"endTick":209935,"endTime":82.005859375,"note":35,"startBeat":218.66145833333334,"startTick":209915,"startTime":81.998046875,"velocity":50},{"channel":9,"duration":0.09375,"durationBeats":0.25,"durationTicks":240,"endBeat":218.75,"endTick":210000,"endTime":82.03125,"note":42,"startBeat":218.5,"startTick":209760,"startTime":81.9375,"velocity":50},{"channel":0,"duration":0.1875,"durationBeats":0.5,"durationTicks":480,"endBeat":218.85729166666667,"endTick":210103,"endTime":82.071484375,"note":32,"startBeat":218.35729166666667,"startTick":209623,"startTime":81.883984375,"velocity":68},{"channel":1,"duration":0.1875,"durationBeats":0.5,"durationTicks":480,"endBeat":218.909375,"endTick":210153,"endTime":82.09101562500001,"note":26,"startBeat":218.409375,"startTick":209673,"startTime":81.90351562500001,"velocity":50},{"channel":9,"duration":0.09375,"durationBeats":0.25,"durationTicks":240,"endBeat":219.08333333333334,"endTick":210320,"endTime":82.15625,"note":42,"startBeat":218.83333333333334,"startTick":210080,"startTime":82.0625,"velocity":50},{"channel":2,"duration":0.1875,"durationBeats":0.5,"durationTicks":480,"endBeat":219.13854166666667,"endTick":210373,"endTime":82.176953125,"note":33,"startBeat":218.63854166666667,"startTick":209893,"startTime":81.989453125,"velocity":57},{"channel":9,"duration":0.09375,"durationBeats":0.25,"durationTicks":240,"endBeat":219.18229166666666,"endTick":210415,"endTime":82.193359375,"note":35,"startBeat":218.93229166666666,"startTick":210175,"startTime":82.099609375,"velocity":50},{"channel":9,"duration":0.03125,"durationBeats":0.08333333333334281,"durationTicks":80,"endBeat":219.33333333333334,"endTick":210560,"endTime":82.25,"note":42,"startBeat":219.25,"startTick":210480,"startTime":82.21875,"velocity":50},{"channel":0,"duration":0.1875,"durationBeats":0.5,"durationTicks":480,"endBeat":219.35729166666667,"endTick":210583,"endTime":82.258984375,"note":31,"startBeat":218.85729166666667,"startTick":210103,"startTime":82.071484375,"velocity":68},{"channel":1,"duration":0.1875,"durationBeats":0.5,"durationTicks":480,"endBeat":219.409375,"endTick":210633,"endTime":82.27851562500001,"note":33,"startBeat":218.909375,"startTick":210153,"startTime":82.09101562500001,"velocity":50},{"channel":8,"duration":0.0625,"durationBeats":0.16666666666668561,"durationTicks":160,"endBeat":219.58333333333334,"endTick":210800,"endTime":82.34375,"note":68,"startBeat":219.41666666666666,"startTick":210640,"startTime":82.28125,"velocity":50},{"channel":12,"duration":0.1875,"durationBeats":0.5,"durationTicks":480,"endBeat":219.60729166666667,"endTick":210823,"endTime":82.352734375,"note":65,"startBeat":219.10729166666667,"startTick":210343,"startTime":82.165234375,"velocity":50},{"channel":0,"duration":0.375,"durationBeats":1,"durationTicks":960,"endBeat":219.85729166666667,"endTick":211063,"endTime":82.446484375,"note":69,"startBeat":218.85729166666667,"startTick":210103,"startTime":82.071484375,"velocity":68},{"channel":0,"duration":0.375,"durationBeats":1,"durationTicks":960,"endBeat":219.85729166666667,"endTick":211063,"endTime":82.446484375,"note":65,"startBeat":218.85729166666667,"startTick":210103,"startTime":82.071484375,"velocity":68},{"channel":0,"duration":0.375,"durationBeats":1,"durationTicks":960,"endBeat":219.85729166666667,"endTick":211063,"endTime":82.446484375,"note":62,"startBeat":218.85729166666667,"startTick":210103,"startTime":82.071484375,"velocity":68},{"channel":0,"duration":0.375,"durationBeats":1,"durationTicks":960,"endBeat":219.85729166666667,"endTick":211063,"endTime":82.446484375,"note":58,"startBeat":218.85729166666667,"startTick":210103,"startTime":82.071484375,"velocity":68},{"channel":9,"duration":0.09375,"durationBeats":0.25,"durationTicks":240,"endBeat":219.91145833333334,"endTick":211115,"endTime":82.466796875,"note":35,"startBeat":219.66145833333334,"startTick":210875,"startTime":82.373046875,"velocity":50},{"channel":8,"duration":0.140625,"durationBeats":0.375,"durationTicks":360,"endBeat":219.91666666666666,"endTick":211120,"endTime":82.46875,"note":69,"startBeat":219.54166666666666,"startTick":210760,"startTime":82.328125,"velocity":50},{"channel":9,"duration":0.03125,"durationBeats":0.08333333333334281,"durationTicks":80,"endBeat":220.08333333333334,"endTick":211280,"endTime":82.53125,"note":42,"startBeat":220,"startTick":211200,"startTime":82.5,"velocity":50},{"channel":2,"duration":0.1875,"durationBeats":0.5,"durationTicks":480,"endBeat":220.13854166666667,"endTick":211333,"endTime":82.551953125,"note":26,"startBeat":219.63854166666667,"startTick":210853,"startTime":82.364453125,"velocity":57},{"channel":9,"duration":0.09375,"durationBeats":0.25,"durationTicks":240,"endBeat":220.18229166666666,"endTick":211375,"endTime":82.568359375,"note":35,"startBeat":219.93229166666666,"startTick":211135,"startTime":82.474609375,"velocity":50},{"channel":9,"duration":0.0625,"durationBeats":0.1666666666666572,"durationTicks":160,"endBeat":220.25,"endTick":211440,"endTime":82.59375,"note":42,"startBeat":220.08333333333334,"startTick":211280,"startTime":82.53125,"velocity":50},{"channel":9,"duration":0.0234375,"durationBeats":0.0625,"durationTicks":60,"endBeat":220.3125,"endTick":211500,"endTime":82.6171875,"note":42,"startBeat":220.25,"startTick":211440,"startTime":82.59375,"velocity":50},{"channel":0,"duration":0.1875,"durationBeats":0.5,"durationTicks":480,"endBeat":220.35729166666667,"endTick":211543,"endTime":82.633984375,"note":31,"startBeat":219.85729166666667,"startTick":211063,"startTime":82.446484375,"velocity":68},{"channel":1,"duration":0.1875,"durationBeats":0.5,"durationTicks":480,"endBeat":220.409375,"endTick":211593,"endTime":82.65351562500001,"note":26,"startBeat":219.909375,"startTick":211113,"startTime":82.46601562500001,"velocity":50},{"channel":9,"duration":0.0234375,"durationBeats":0.0625,"durationTicks":60,"endBeat":220.4375,"endTick":211620,"endTime":82.6640625,"note":42,"startBeat":220.375,"startTick":211560,"startTime":82.640625,"velocity":50},{"channel":9,"duration":0.0234375,"durationBeats":0.0625,"durationTicks":60,"endBeat":220.5625,"endTick":211740,"endTime":82.7109375,"note":42,"startBeat":220.5,"startTick":211680,"startTime":82.6875,"velocity":50},{"channel":12,"duration":0.1875,"durationBeats":0.5,"durationTicks":480,"endBeat":220.60729166666667,"endTick":211783,"endTime":82.727734375,"note":64,"startBeat":220.10729166666667,"startTick":211303,"startTime":82.540234375,"velocity":50},{"channel":2,"duration":0.1875,"durationBeats":0.5,"durationTicks":480,"endBeat":220.63854166666667,"endTick":211813,"endTime":82.739453125,"note":33,"startBeat":220.13854166666667,"startTick":211333,"startTime":82.551953125,"velocity":57},{"channel":9,"duration":0.0234375,"durationBeats":0.0625,"durationTicks":60,"endBeat":220.6875,"endTick":211860,"endTime":82.7578125,"note":42,"startBeat":220.625,"startTick":211800,"startTime":82.734375,"velocity":50},{"channel":9,"duration":0.0234375,"durationBeats":0.0625,"durationTicks":60,"endBeat":220.8125,"endTick":211980,"endTime":82.8046875,"note":42,"startBeat":220.75,"startTick":211920,"startTime":82.78125,"velocity":50},{"channel":1,"duration":0.1875,"durationBeats":0.5,"durationTicks":480,"endBeat":220.909375,"endTick":212073,"endTime":82.84101562500001,"note":33,"startBeat":220.409375,"startTick":211593,"startTime":82.65351562500001,"velocity":50},{"channel":9,"duration":0.09375,"durationBeats":0.25,"durationTicks":240,"endBeat":220.91145833333334,"endTick":212075,"endTime":82.841796875,"note":35,"startBeat":220.66145833333334,"startTick":211835,"startTime":82.748046875,"velocity":50},{"channel":8,"duration":0.1875,"durationBeats":0.5,"durationTicks":480,"endBeat":220.91666666666666,"endTick":212080,"endTime":82.84375,"note":67,"startBeat":220.41666666666666,"startTick":211600,"startTime":82.65625,"velocity":50},{"channel":9,"duration":0.09375,"durationBeats":0.25,"durationTicks":240,"endBeat":221.08333333333334,"endTick":212240,"endTime":82.90625,"note":42,"startBeat":220.83333333333334,"startTick":212000,"startTime":82.8125,"velocity":50},{"channel":2,"duration":0.1875,"durationBeats":0.5,"durationTicks":480,"endBeat":221.13854166666667,"endTick":212293,"endTime":82.926953125,"note":32,"startBeat":220.63854166666667,"startTick":211813,"startTime":82.739453125,"velocity":57},{"channel":9,"duration":0.09375,"durationBeats":0.25,"durationTicks":240,"endBeat":221.18229166666666,"endTick":212335,"endTime":82.943359375,"note":35,"startBeat":220.93229166666666,"startTick":212095,"startTime":82.849609375,"velocity":50},{"channel":0,"duration":0.1875,"durationBeats":0.5,"durationTicks":480,"endBeat":221.35729166666667,"endTick":212503,"endTime":83.008984375,"note":60,"startBeat":220.85729166666667,"startTick":212023,"startTime":82.821484375,"velocity":68},{"channel":0,"duration":0.1875,"durationBeats":0.5,"durationTicks":480,"endBeat":221.35729166666667,"endTick":212503,"endTime":83.008984375,"note":64,"startBeat":220.85729166666667,"startTick":212023,"startTime":82.821484375,"velocity":68},{"channel":0,"duration":0.1875,"durationBeats":0.5,"durationTicks":480,"endBeat":221.35729166666667,"endTick":212503,"endTime":83.008984375,"note":67,"startBeat":220.85729166666667,"startTick":212023,"startTime":82.821484375,"velocity":68},{"channel":0,"duration":0.1875,"durationBeats":0.5,"durationTicks":480,"endBeat":221.35729166666667,"endTick":212503,"endTime":83.008984375,"note":72,"startBeat":220.85729166666667,"startTick":212023,"startTime":82.821484375,"velocity":68},{"channel":0,"duration":0.1875,"durationBeats":0.5,"durationTicks":480,"endBeat":221.35729166666667,"endTick":212503,"endTime":83.008984375,"note":33,"startBeat":220.85729166666667,"startTick":212023,"startTime":82.821484375,"velocity":68},{"channel":1,"duration":0.1875,"durationBeats":0.5,"durationTicks":480,"endBeat":221.409375,"endTick":212553,"endTime":83.02851562500001,"note":32,"startBeat":220.909375,"startTick":212073,"startTime":82.84101562500001,"velocity":50},{"channel":9,"duration":0.09375,"durationBeats":0.25,"durationTicks":240,"endBeat":221.5,"endTick":212640,"endTime":83.0625,"note":42,"startBeat":221.25,"startTick":212400,"startTime":82.96875,"velocity":50},{"channel":12,"duration":0.1875,"durationBeats":0.5,"durationTicks":480,"endBeat":221.60729166666667,"endTick":212743,"endTime":83.102734375,"note":62,"startBeat":221.10729166666667,"startTick":212263,"startTime":82.915234375,"velocity":50},{"channel":2,"duration":0.1875,"durationBeats":0.5,"durationTicks":480,"endBeat":221.63854166666667,"endTick":212773,"endTime":83.114453125,"note":31,"startBeat":221.13854166666667,"startTick":212293,"startTime":82.926953125,"velocity":57},{"channel":9,"duration":0.09375,"durationBeats":0.25,"durationTicks":240,"endBeat":221.66145833333334,"endTick":212795,"endTime":83.123046875,"note":35,"startBeat":221.41145833333334,"startTick":212555,"startTime":83.029296875,"velocity":50},{"channel":9,"duration":0.09375,"durationBeats":0.25,"durationTicks":240,"endBeat":221.83333333333334,"endTick":212960,"endTime":83.1875,"note":42,"startBeat":221.58333333333334,"startTick":212720,"startTime":83.09375,"velocity":50},{"channel":9,"duration":0.0234375,"durationBeats":0.0625,"durationTicks":60,"endBeat":221.89583333333334,"endTick":213020,"endTime":83.2109375,"note":42,"startBeat":221.83333333333334,"startTick":212960,"startTime":83.1875,"velocity":50},{"channel":1,"duration":0.1875,"durationBeats":0.5,"durationTicks":480,"endBeat":221.909375,"endTick":213033,"endTime":83.21601562500001,"note":31,"startBeat":221.409375,"startTick":212553,"startTime":83.02851562500001,"velocity":50},{"channel":8,"duration":0.1875,"durationBeats":0.5,"durationTicks":480,"endBeat":221.91666666666666,"endTick":213040,"endTime":83.21875,"note":65,"startBeat":221.41666666666666,"startTick":212560,"startTime":83.03125,"velocity":50},{"channel":9,"duration":0.09375,"durationBeats":0.25,"durationTicks":240,"endBeat":221.93229166666666,"endTick":213055,"endTime":83.224609375,"note":35,"startBeat":221.68229166666666,"startTick":212815,"startTime":83.130859375,"velocity":50},{"channel":9,"duration":0.0234375,"durationBeats":0.0625,"durationTicks":60,"endBeat":222.02083333333334,"endTick":213140,"endTime":83.2578125,"note":42,"startBeat":221.95833333333334,"startTick":213080,"startTime":83.234375,"velocity":50},{"channel":0,"duration":0.1875,"durationBeats":0.5,"durationTicks":480,"endBeat":222.10729166666667,"endTick":213223,"endTime":83.290234375,"note":33,"startBeat":221.60729166666667,"startTick":212743,"startTime":83.102734375,"velocity":68},{"channel":9,"duration":0.0234375,"durationBeats":0.0625,"durationTicks":60,"endBeat":222.14583333333334,"endTick":213260,"endTime":83.3046875,"note":42,"startBeat":222.08333333333334,"startTick":213200,"startTime":83.28125,"velocity":50},{"channel":9,"duration":0.0078125,"durationBeats":0.020833333333342807,"durationTicks":20,"endBeat":222.27083333333334,"endTick":213380,"endTime":83.3515625,"note":42,"startBeat":222.25,"startTick":213360,"startTime":83.34375,"velocity":50},{"channel":0,"duration":0.1875,"durationBeats":0.5,"durationTicks":480,"endBeat":222.35729166666667,"endTick":213463,"endTime":83.383984375,"note":70,"startBeat":221.85729166666667,"startTick":212983,"startTime":83.196484375,"velocity":68},{"channel":0,"duration":0.1875,"durationBeats":0.5,"durationTicks":480,"endBeat":222.35729166666667,"endTick":213463,"endTime":83.383984375,"note":67,"startBeat":221.85729166666667,"startTick":212983,"startTime":83.196484375,"velocity":68},{"channel":0,"duration":0.1875,"durationBeats":0.5,"durationTicks":480,"endBeat":222.35729166666667,"endTick":213463,"endTime":83.383984375,"note":65,"startBeat":221.85729166666667,"startTick":212983,"startTime":83.196484375,"velocity":68},{"channel":0,"duration":0.1875,"durationBeats":0.5,"durationTicks":480,"endBeat":222.35729166666667,"endTick":213463,"endTime":83.383984375,"note":61,"startBeat":221.85729166666667,"startTick":212983,"startTime":83.196484375,"velocity":68},{"channel":9,"duration":0.0234375,"durationBeats":0.0625,"durationTicks":60,"endBeat":222.39583333333334,"endTick":213500,"endTime":83.3984375,"note":42,"startBeat":222.33333333333334,"startTick":213440,"startTime":83.375,"velocity":50},{"channel":9,"duration":0.09375,"durationBeats":0.25,"durationTicks":240,"endBeat":222.41145833333334,"endTick":213515,"endTime":83.404296875,"note":35,"startBeat":222.16145833333334,"startTick":213275,"startTime":83.310546875,"velocity":50},{"channel":12,"duration":0.1875,"durationBeats":0.5,"durationTicks":480,"endBeat":222.60729166666667,"endTick":213703,"endTime":83.477734375,"note":60,"startBeat":222.10729166666667,"startTick":213223,"startTime":83.290234375,"velocity":50},{"channel":2,"duration":0.1875,"durationBeats":0.5,"durationTicks":480,"endBeat":222.63854166666667,"endTick":213733,"endTime":83.489453125,"note":31,"startBeat":222.13854166666667,"startTick":213253,"startTime":83.301953125,"velocity":57},{"channel":9,"duration":0.0078125,"durationBeats":0.020833333333314386,"durationTicks":20,"endBeat":222.68229166666666,"endTick":213775,"endTime":83.505859375,"note":35,"startBeat":222.66145833333334,"startTick":213755,"startTime":83.498046875,"velocity":50},{"channel":9,"duration":0.09375,"durationBeats":0.25,"durationTicks":240,"endBeat":222.75,"endTick":213840,"endTime":83.53125,"note":42,"startBeat":222.5,"startTick":213600,"startTime":83.4375,"velocity":50},{"channel":0,"duration":0.1875,"durationBeats":0.5,"durationTicks":480,"endBeat":222.85729166666667,"endTick":213943,"endTime":83.571484375,"note":33,"startBeat":222.35729166666667,"startTick":213463,"startTime":83.383984375,"velocity":68},{"channel":1,"duration":0.1875,"durationBeats":0.5,"durationTicks":480,"endBeat":222.909375,"endTick":213993,"endTime":83.59101562500001,"note":31,"startBeat":222.409375,"startTick":213513,"startTime":83.40351562500001,"velocity":50},{"channel":8,"duration":0.1875,"durationBeats":0.5,"durationTicks":480,"endBeat":222.91666666666666,"endTick":214000,"endTime":83.59375,"note":64,"startBeat":222.41666666666666,"startTick":213520,"startTime":83.40625,"velocity":50},{"channel":9,"duration":0.09375,"durationBeats":0.25,"durationTicks":240,"endBeat":223.08333333333334,"endTick":214160,"endTime":83.65625,"note":42,"startBeat":222.83333333333334,"startTick":213920,"startTime":83.5625,"velocity":50},{"channel":12,"duration":0.1875,"durationBeats":0.5,"durationTicks":480,"endBeat":223.10729166666667,"endTick":214183,"endTime":83.665234375,"note":62,"startBeat":222.60729166666667,"startTick":213703,"startTime":83.477734375,"velocity":50},{"channel":2,"duration":0.1875,"durationBeats":0.5,"durationTicks":480,"endBeat":223.13854166666667,"endTick":214213,"endTime":83.676953125,"note":32,"startBeat":222.63854166666667,"startTick":213733,"startTime":83.489453125,"velocity":57},{"channel":9,"duration":0.09375,"durationBeats":0.25,"durationTicks":240,"endBeat":223.18229166666666,"endTick":214255,"endTime":83.693359375,"note":35,"startBeat":222.93229166666666,"startTick":214015,"startTime":83.599609375,"velocity":50},{"channel":9,"duration":0.03125,"durationBeats":0.08333333333334281,"durationTicks":80,"endBeat":223.33333333333334,"endTick":214400,"endTime":83.75,"note":42,"startBeat":223.25,"startTick":214320,"startTime":83.71875,"velocity":50},{"channel":0,"duration":0.1875,"durationBeats":0.5,"durationTicks":480,"endBeat":223.35729166666667,"endTick":214423,"endTime":83.758984375,"note":69,"startBeat":222.85729166666667,"startTick":213943,"startTime":83.571484375,"velocity":68},{"channel":0,"duration":0.1875,"durationBeats":0.5,"durationTicks":480,"endBeat":223.35729166666667,"endTick":214423,"endTime":83.758984375,"note":65,"startBeat":222.85729166666667,"startTick":213943,"startTime":83.571484375,"velocity":68},{"channel":0,"duration":0.1875,"durationBeats":0.5,"durationTicks":480,"endBeat":223.35729166666667,"endTick":214423,"endTime":83.758984375,"note":64,"startBeat":222.85729166666667,"startTick":213943,"startTime":83.571484375,"velocity":68},{"channel":0,"duration":0.1875,"durationBeats":0.5,"durationTicks":480,"endBeat":223.35729166666667,"endTick":214423,"endTime":83.758984375,"note":60,"startBeat":222.85729166666667,"startTick":213943,"startTime":83.571484375,"velocity":68},{"channel":0,"duration":0.1875,"durationBeats":0.5,"durationTicks":480,"endBeat":223.35729166666667,"endTick":214423,"endTime":83.758984375,"note":26,"startBeat":222.85729166666667,"startTick":213943,"startTime":83.571484375,"velocity":68},{"channel":1,"duration":0.1875,"durationBeats":0.5,"durationTicks":480,"endBeat":223.409375,"endTick":214473,"endTime":83.77851562500001,"note":32,"startBeat":222.909375,"startTick":213993,"startTime":83.59101562500001,"velocity":50},{"channel":2,"duration":0.1875,"durationBeats":0.5,"durationTicks":480,"endBeat":223.63854166666667,"endTick":214693,"endTime":83.864453125,"note":33,"startBeat":223.13854166666667,"startTick":214213,"startTime":83.676953125,"velocity":57},{"channel":1,"duration":0.1875,"durationBeats":0.5,"durationTicks":480,"endBeat":223.909375,"endTick":214953,"endTime":83.96601562500001,"note":33,"startBeat":223.409375,"startTick":214473,"startTime":83.77851562500001,"velocity":50},{"channel":9,"duration":0.09375,"durationBeats":0.25,"durationTicks":240,"endBeat":223.91145833333334,"endTick":214955,"endTime":83.966796875,"note":35,"startBeat":223.66145833333334,"startTick":214715,"startTime":83.873046875,"velocity":50},{"channel":8,"duration":0.1875,"durationBeats":0.5,"durationTicks":480,"endBeat":223.91666666666666,"endTick":214960,"endTime":83.96875,"note":67,"startBeat":223.41666666666666,"startTick":214480,"startTime":83.78125,"velocity":50},{"channel":9,"duration":0.03125,"durationBeats":0.08333333333334281,"durationTicks":80,"endBeat":224.08333333333334,"endTick":215120,"endTime":84.03125,"note":42,"startBeat":224,"startTick":215040,"startTime":84,"velocity":50},{"channel":2,"duration":0.09375,"durationBeats":0.25,"durationTicks":240,"endBeat":224.13854166666667,"endTick":215173,"endTime":84.051953125,"note":33,"startBeat":223.88854166666667,"startTick":214933,"startTime":83.958203125,"velocity":57},{"channel":9,"duration":0.09375,"durationBeats":0.25,"durationTicks":240,"endBeat":224.18229166666666,"endTick":215215,"endTime":84.068359375,"note":35,"startBeat":223.93229166666666,"startTick":214975,"startTime":83.974609375,"velocity":50},{"channel":9,"duration":0.0625,"durationBeats":0.1666666666666572,"durationTicks":160,"endBeat":224.25,"endTick":215280,"endTime":84.09375,"note":42,"startBeat":224.08333333333334,"startTick":215120,"startTime":84.03125,"velocity":50},{"channel":9,"duration":0.0234375,"durationBeats":0.0625,"durationTicks":60,"endBeat":224.3125,"endTick":215340,"endTime":84.1171875,"note":42,"startBeat":224.25,"startTick":215280,"startTime":84.09375,"velocity":50},{"channel":0,"duration":0.1875,"durationBeats":0.5,"durationTicks":480,"endBeat":224.35729166666667,"endTick":215383,"endTime":84.133984375,"note":26,"startBeat":223.85729166666667,"startTick":214903,"startTime":83.946484375,"velocity":68},{"channel":1,"duration":0.09375,"durationBeats":0.25,"durationTicks":240,"endBeat":224.409375,"endTick":215433,"endTime":84.15351562500001,"note":33,"startBeat":224.159375,"startTick":215193,"startTime":84.05976562500001,"velocity":50},{"channel":9,"duration":0.001953125,"durationBeats":0.005208333333342807,"durationTicks":5,"endBeat":224.4375,"endTick":215460,"endTime":84.1640625,"note":42,"startBeat":224.43229166666666,"startTick":215455,"startTime":84.162109375,"velocity":50},{"channel":9,"duration":0.0234375,"durationBeats":0.0625,"durationTicks":60,"endBeat":224.5625,"endTick":215580,"endTime":84.2109375,"note":42,"startBeat":224.5,"startTick":215520,"startTime":84.1875,"velocity":50},{"channel":9,"duration":0.021484375,"durationBeats":0.05729166666665719,"durationTicks":55,"endBeat":224.68229166666666,"endTick":215695,"endTime":84.255859375,"note":42,"startBeat":224.625,"startTick":215640,"startTime":84.234375,"velocity":50},{"channel":9,"duration":0.09375,"durationBeats":0.25,"durationTicks":240,"endBeat":224.91145833333334,"endTick":215915,"endTime":84.341796875,"note":35,"startBeat":224.66145833333334,"startTick":215675,"startTime":84.248046875,"velocity":50},{"channel":8,"duration":0.1875,"durationBeats":0.5,"durationTicks":480,"endBeat":224.91666666666666,"endTick":215920,"endTime":84.34375,"note":65,"startBeat":224.41666666666666,"startTick":215440,"startTime":84.15625,"velocity":50},{"channel":9,"duration":0.09375,"durationBeats":0.25,"durationTicks":240,"endBeat":225.08333333333334,"endTick":216080,"endTime":84.40625,"note":42,"startBeat":224.83333333333334,"startTick":215840,"startTime":84.3125,"velocity":50},{"channel":2,"duration":0.1875,"durationBeats":0.5,"durationTicks":480,"endBeat":225.13854166666667,"endTick":216133,"endTime":84.426953125,"note":26,"startBeat":224.63854166666667,"startTick":215653,"startTime":84.239453125,"velocity":57},{"channel":9,"duration":0.09375,"durationBeats":0.25,"durationTicks":240,"endBeat":225.18229166666666,"endTick":216175,"endTime":84.443359375,"note":35,"startBeat":224.93229166666666,"startTick":215935,"startTime":84.349609375,"velocity":50},{"channel":0,"duration":0.1875,"durationBeats":0.5,"durationTicks":480,"endBeat":225.35729166666667,"endTick":216343,"endTime":84.508984375,"note":65,"startBeat":224.85729166666667,"startTick":215863,"startTime":84.321484375,"velocity":68},{"channel":0,"duration":0.1875,"durationBeats":0.5,"durationTicks":480,"endBeat":225.35729166666667,"endTick":216343,"endTime":84.508984375,"note":69,"startBeat":224.85729166666667,"startTick":215863,"startTime":84.321484375,"velocity":68},{"channel":0,"duration":0.1875,"durationBeats":0.5,"durationTicks":480,"endBeat":225.35729166666667,"endTick":216343,"endTime":84.508984375,"note":60,"startBeat":224.85729166666667,"startTick":215863,"startTime":84.321484375,"velocity":68},{"channel":0,"duration":0.1875,"durationBeats":0.5,"durationTicks":480,"endBeat":225.35729166666667,"endTick":216343,"endTime":84.508984375,"note":64,"startBeat":224.85729166666667,"startTick":215863,"startTime":84.321484375,"velocity":68},{"channel":0,"duration":0.1875,"durationBeats":0.5,"durationTicks":480,"endBeat":225.35729166666667,"endTick":216343,"endTime":84.508984375,"note":38,"startBeat":224.85729166666667,"startTick":215863,"startTime":84.321484375,"velocity":68},{"channel":1,"duration":0.1875,"durationBeats":0.5,"durationTicks":480,"endBeat":225.409375,"endTick":216393,"endTime":84.52851562500001,"note":26,"startBeat":224.909375,"startTick":215913,"startTime":84.34101562500001,"velocity":50},{"channel":9,"duration":0.09375,"durationBeats":0.25,"durationTicks":240,"endBeat":225.5,"endTick":216480,"endTime":84.5625,"note":42,"startBeat":225.25,"startTick":216240,"startTime":84.46875,"velocity":50},{"channel":9,"duration":0.09375,"durationBeats":0.25,"durationTicks":240,"endBeat":225.66145833333334,"endTick":216635,"endTime":84.623046875,"note":35,"startBeat":225.41145833333334,"startTick":216395,"startTime":84.529296875,"velocity":50},{"channel":9,"duration":0.0625,"durationBeats":0.1666666666666572,"durationTicks":160,"endBeat":225.75,"endTick":216720,"endTime":84.65625,"note":42,"startBeat":225.58333333333334,"startTick":216560,"startTime":84.59375,"velocity":50},{"channel":9,"duration":0.0234375,"durationBeats":0.0625,"durationTicks":60,"endBeat":225.89583333333334,"endTick":216860,"endTime":84.7109375,"note":42,"startBeat":225.83333333333334,"startTick":216800,"startTime":84.6875,"velocity":50},{"channel":8,"duration":0.1875,"durationBeats":0.5,"durationTicks":480,"endBeat":225.91666666666666,"endTick":216880,"endTime":84.71875,"note":64,"startBeat":225.41666666666666,"startTick":216400,"startTime":84.53125,"velocity":50},{"channel":9,"duration":0.09375,"durationBeats":0.25,"durationTicks":240,"endBeat":225.93229166666666,"endTick":216895,"endTime":84.724609375,"note":35,"startBeat":225.68229166666666,"startTick":216655,"startTime":84.630859375,"velocity":50},{"channel":9,"duration":0.0234375,"durationBeats":0.0625,"durationTicks":60,"endBeat":226.02083333333334,"endTick":216980,"endTime":84.7578125,"note":42,"startBeat":225.95833333333334,"startTick":216920,"startTime":84.734375,"velocity":50},{"channel":0,"duration":0.1875,"durationBeats":0.5,"durationTicks":480,"endBeat":226.10729166666667,"endTick":217063,"endTime":84.790234375,"note":33,"startBeat":225.60729166666667,"startTick":216583,"startTime":84.602734375,"velocity":68},{"channel":2,"duration":0.1875,"durationBeats":0.5,"durationTicks":480,"endBeat":226.13854166666667,"endTick":217093,"endTime":84.801953125,"note":26,"startBeat":225.63854166666667,"startTick":216613,"startTime":84.614453125,"velocity":57},{"channel":9,"duration":0.0234375,"durationBeats":0.0625,"durationTicks":60,"endBeat":226.14583333333334,"endTick":217100,"endTime":84.8046875,"note":42,"startBeat":226.08333333333334,"startTick":217040,"startTime":84.78125,"velocity":50},{"channel":9,"duration":0.0078125,"durationBeats":0.020833333333342807,"durationTicks":20,"endBeat":226.27083333333334,"endTick":217220,"endTime":84.8515625,"note":42,"startBeat":226.25,"startTick":217200,"startTime":84.84375,"velocity":50},{"channel":0,"duration":0.1875,"durationBeats":0.5,"durationTicks":480,"endBeat":226.35729166666667,"endTick":217303,"endTime":84.883984375,"note":68,"startBeat":225.85729166666667,"startTick":216823,"startTime":84.696484375,"velocity":68},{"channel":0,"duration":0.1875,"durationBeats":0.5,"durationTicks":480,"endBeat":226.35729166666667,"endTick":217303,"endTime":84.883984375,"note":63,"startBeat":225.85729166666667,"startTick":216823,"startTime":84.696484375,"velocity":68},{"channel":0,"duration":0.1875,"durationBeats":0.5,"durationTicks":480,"endBeat":226.35729166666667,"endTick":217303,"endTime":84.883984375,"note":59,"startBeat":225.85729166666667,"startTick":216823,"startTime":84.696484375,"velocity":68},{"channel":9,"duration":0.0234375,"durationBeats":0.0625,"durationTicks":60,"endBeat":226.39583333333334,"endTick":217340,"endTime":84.8984375,"note":42,"startBeat":226.33333333333334,"startTick":217280,"startTime":84.875,"velocity":50},{"channel":1,"duration":0.1875,"durationBeats":0.5,"durationTicks":480,"endBeat":226.409375,"endTick":217353,"endTime":84.90351562500001,"note":26,"startBeat":225.909375,"startTick":216873,"startTime":84.71601562500001,"velocity":50},{"channel":9,"duration":0.09375,"durationBeats":0.25,"durationTicks":240,"endBeat":226.41145833333334,"endTick":217355,"endTime":84.904296875,"note":35,"startBeat":226.16145833333334,"startTick":217115,"startTime":84.810546875,"velocity":50},{"channel":2,"duration":0.1875,"durationBeats":0.5,"durationTicks":480,"endBeat":226.63854166666667,"endTick":217573,"endTime":84.989453125,"note":33,"startBeat":226.13854166666667,"startTick":217093,"startTime":84.801953125,"velocity":57},{"channel":9,"duration":0.0078125,"durationBeats":0.020833333333314386,"durationTicks":20,"endBeat":226.68229166666666,"endTick":217615,"endTime":85.005859375,"note":35,"startBeat":226.66145833333334,"startTick":217595,"startTime":84.998046875,"velocity":50},{"channel":9,"duration":0.09375,"durationBeats":0.25,"durationTicks":240,"endBeat":226.75,"endTick":217680,"endTime":85.03125,"note":42,"startBeat":226.5,"startTick":217440,"startTime":84.9375,"velocity":50},{"channel":0,"duration":0.1875,"durationBeats":0.5,"durationTicks":480,"endBeat":226.85729166666667,"endTick":217783,"endTime":85.071484375,"note":32,"startBeat":226.35729166666667,"startTick":217303,"startTime":84.883984375,"velocity":68},{"channel":1,"duration":0.1875,"durationBeats":0.5,"durationTicks":480,"endBeat":226.909375,"endTick":217833,"endTime":85.09101562500001,"note":33,"startBeat":226.409375,"startTick":217353,"startTime":84.90351562500001,"velocity":50},{"channel":8,"duration":0.1875,"durationBeats":0.5,"durationTicks":480,"endBeat":226.91666666666666,"endTick":217840,"endTime":85.09375,"note":62,"startBeat":226.41666666666666,"startTick":217360,"startTime":84.90625,"velocity":50},{"channel":9,"duration":0.09375,"durationBeats":0.25,"durationTicks":240,"endBeat":227.08333333333334,"endTick":218000,"endTime":85.15625,"note":42,"startBeat":226.83333333333334,"startTick":217760,"startTime":85.0625,"velocity":50},{"channel":2,"duration":0.1875,"durationBeats":0.5,"durationTicks":480,"endBeat":227.13854166666667,"endTick":218053,"endTime":85.176953125,"note":26,"startBeat":226.63854166666667,"startTick":217573,"startTime":84.989453125,"velocity":57},{"channel":9,"duration":0.09375,"durationBeats":0.25,"durationTicks":240,"endBeat":227.18229166666666,"endTick":218095,"endTime":85.193359375,"note":35,"startBeat":226.93229166666666,"startTick":217855,"startTime":85.099609375,"velocity":50},{"channel":12,"duration":0.0625,"durationBeats":0.1666666666666572,"durationTicks":160,"endBeat":227.27395833333333,"endTick":218183,"endTime":85.227734375,"note":68,"startBeat":227.10729166666667,"startTick":218023,"startTime":85.165234375,"velocity":50},{"channel":9,"duration":0.03125,"durationBeats":0.08333333333334281,"durationTicks":80,"endBeat":227.33333333333334,"endTick":218240,"endTime":85.25,"note":42,"startBeat":227.25,"startTick":218160,"startTime":85.21875,"velocity":50},{"channel":0,"duration":0.1875,"durationBeats":0.5,"durationTicks":480,"endBeat":227.35729166666667,"endTick":218263,"endTime":85.258984375,"note":31,"startBeat":226.85729166666667,"startTick":217783,"startTime":85.071484375,"velocity":68},{"channel":1,"duration":0.1875,"durationBeats":0.5,"durationTicks":480,"endBeat":227.409375,"endTick":218313,"endTime":85.27851562500001,"note":26,"startBeat":226.909375,"startTick":217833,"startTime":85.09101562500001,"velocity":50},{"channel":12,"duration":0.140625,"durationBeats":0.375,"durationTicks":360,"endBeat":227.60729166666667,"endTick":218503,"endTime":85.352734375,"note":69,"startBeat":227.23229166666667,"startTick":218143,"startTime":85.212109375,"velocity":50},{"channel":0,"duration":0.375,"durationBeats":1,"durationTicks":960,"endBeat":227.85729166666667,"endTick":218743,"endTime":85.446484375,"note":69,"startBeat":226.85729166666667,"startTick":217783,"startTime":85.071484375,"velocity":68},{"channel":0,"duration":0.375,"durationBeats":1,"durationTicks":960,"endBeat":227.85729166666667,"endTick":218743,"endTime":85.446484375,"note":65,"startBeat":226.85729166666667,"startTick":217783,"startTime":85.071484375,"velocity":68},{"channel":0,"duration":0.375,"durationBeats":1,"durationTicks":960,"endBeat":227.85729166666667,"endTick":218743,"endTime":85.446484375,"note":62,"startBeat":226.85729166666667,"startTick":217783,"startTime":85.071484375,"velocity":68},{"channel":0,"duration":0.375,"durationBeats":1,"durationTicks":960,"endBeat":227.85729166666667,"endTick":218743,"endTime":85.446484375,"note":58,"startBeat":226.85729166666667,"startTick":217783,"startTime":85.071484375,"velocity":68},{"channel":9,"duration":0.09375,"durationBeats":0.25,"durationTicks":240,"endBeat":227.91145833333334,"endTick":218795,"endTime":85.466796875,"note":35,"startBeat":227.66145833333334,"startTick":218555,"startTime":85.373046875,"velocity":50},{"channel":8,"duration":0.1875,"durationBeats":0.5,"durationTicks":480,"endBeat":227.91666666666666,"endTick":218800,"endTime":85.46875,"note":65,"startBeat":227.41666666666666,"startTick":218320,"startTime":85.28125,"velocity":50},{"channel":9,"duration":0.03125,"durationBeats":0.08333333333334281,"durationTicks":80,"endBeat":228.08333333333334,"endTick":218960,"endTime":85.53125,"note":42,"startBeat":228,"startTick":218880,"startTime":85.5,"velocity":50},{"channel":2,"duration":0.1875,"durationBeats":0.5,"durationTicks":480,"endBeat":228.13854166666667,"endTick":219013,"endTime":85.551953125,"note":26,"startBeat":227.63854166666667,"startTick":218533,"startTime":85.364453125,"velocity":57},{"channel":9,"duration":0.09375,"durationBeats":0.25,"durationTicks":240,"endBeat":228.18229166666666,"endTick":219055,"endTime":85.568359375,"note":35,"startBeat":227.93229166666666,"startTick":218815,"startTime":85.474609375,"velocity":50},{"channel":9,"duration":0.0625,"durationBeats":0.1666666666666572,"durationTicks":160,"endBeat":228.25,"endTick":219120,"endTime":85.59375,"note":42,"startBeat":228.08333333333334,"startTick":218960,"startTime":85.53125,"velocity":50},{"channel":9,"duration":0.0234375,"durationBeats":0.0625,"durationTicks":60,"endBeat":228.3125,"endTick":219180,"endTime":85.6171875,"note":42,"startBeat":228.25,"startTick":219120,"startTime":85.59375,"velocity":50},{"channel":0,"duration":0.1875,"durationBeats":0.5,"durationTicks":480,"endBeat":228.35729166666667,"endTick":219223,"endTime":85.633984375,"note":31,"startBeat":227.85729166666667,"startTick":218743,"startTime":85.446484375,"velocity":68},{"channel":1,"duration":0.1875,"durationBeats":0.5,"durationTicks":480,"endBeat":228.409375,"endTick":219273,"endTime":85.65351562500001,"note":26,"startBeat":227.909375,"startTick":218793,"startTime":85.46601562500001,"velocity":50},{"channel":9,"duration":0.0234375,"durationBeats":0.0625,"durationTicks":60,"endBeat":228.4375,"endTick":219300,"endTime":85.6640625,"note":42,"startBeat":228.375,"startTick":219240,"startTime":85.640625,"velocity":50},{"channel":9,"duration":0.0234375,"durationBeats":0.0625,"durationTicks":60,"endBeat":228.5625,"endTick":219420,"endTime":85.7109375,"note":42,"startBeat":228.5,"startTick":219360,"startTime":85.6875,"velocity":50},{"channel":12,"duration":0.1875,"durationBeats":0.5,"durationTicks":480,"endBeat":228.60729166666667,"endTick":219463,"endTime":85.727734375,"note":67,"startBeat":228.10729166666667,"startTick":218983,"startTime":85.540234375,"velocity":50},{"channel":2,"duration":0.1875,"durationBeats":0.5,"durationTicks":480,"endBeat":228.63854166666667,"endTick":219493,"endTime":85.739453125,"note":33,"startBeat":228.13854166666667,"startTick":219013,"startTime":85.551953125,"velocity":57},{"channel":9,"duration":0.0234375,"durationBeats":0.0625,"durationTicks":60,"endBeat":228.6875,"endTick":219540,"endTime":85.7578125,"note":42,"startBeat":228.625,"startTick":219480,"startTime":85.734375,"velocity":50},{"channel":9,"duration":0.0234375,"durationBeats":0.0625,"durationTicks":60,"endBeat":228.8125,"endTick":219660,"endTime":85.8046875,"note":42,"startBeat":228.75,"startTick":219600,"startTime":85.78125,"velocity":50},{"channel":1,"duration":0.1875,"durationBeats":0.5,"durationTicks":480,"endBeat":228.909375,"endTick":219753,"endTime":85.84101562500001,"note":33,"startBeat":228.409375,"startTick":219273,"startTime":85.65351562500001,"velocity":50},{"channel":9,"duration":0.09375,"durationBeats":0.25,"durationTicks":240,"endBeat":228.91145833333334,"endTick":219755,"endTime":85.841796875,"note":35,"startBeat":228.66145833333334,"startTick":219515,"startTime":85.748046875,"velocity":50},{"channel":8,"duration":0.1875,"durationBeats":0.5,"durationTicks":480,"endBeat":228.91666666666666,"endTick":219760,"endTime":85.84375,"note":64,"startBeat":228.41666666666666,"startTick":219280,"startTime":85.65625,"velocity":50},{"channel":9,"duration":0.09375,"durationBeats":0.25,"durationTicks":240,"endBeat":229.08333333333334,"endTick":219920,"endTime":85.90625,"note":42,"startBeat":228.83333333333334,"startTick":219680,"startTime":85.8125,"velocity":50},{"channel":2,"duration":0.1875,"durationBeats":0.5,"durationTicks":480,"endBeat":229.13854166666667,"endTick":219973,"endTime":85.926953125,"note":32,"startBeat":228.63854166666667,"startTick":219493,"startTime":85.739453125,"velocity":57},{"channel":9,"duration":0.09375,"durationBeats":0.25,"durationTicks":240,"endBeat":229.18229166666666,"endTick":220015,"endTime":85.943359375,"note":35,"startBeat":228.93229166666666,"startTick":219775,"startTime":85.849609375,"velocity":50},{"channel":0,"duration":0.1875,"durationBeats":0.5,"durationTicks":480,"endBeat":229.35729166666667,"endTick":220183,"endTime":86.008984375,"note":60,"startBeat":228.85729166666667,"startTick":219703,"startTime":85.821484375,"velocity":68},{"channel":0,"duration":0.1875,"durationBeats":0.5,"durationTicks":480,"endBeat":229.35729166666667,"endTick":220183,"endTime":86.008984375,"note":64,"startBeat":228.85729166666667,"startTick":219703,"startTime":85.821484375,"velocity":68},{"channel":0,"duration":0.1875,"durationBeats":0.5,"durationTicks":480,"endBeat":229.35729166666667,"endTick":220183,"endTime":86.008984375,"note":67,"startBeat":228.85729166666667,"startTick":219703,"startTime":85.821484375,"velocity":68},{"channel":0,"duration":0.1875,"durationBeats":0.5,"durationTicks":480,"endBeat":229.35729166666667,"endTick":220183,"endTime":86.008984375,"note":72,"startBeat":228.85729166666667,"startTick":219703,"startTime":85.821484375,"velocity":68},{"channel":0,"duration":0.1875,"durationBeats":0.5,"durationTicks":480,"endBeat":229.35729166666667,"endTick":220183,"endTime":86.008984375,"note":33,"startBeat":228.85729166666667,"startTick":219703,"startTime":85.821484375,"velocity":68},{"channel":1,"duration":0.1875,"durationBeats":0.5,"durationTicks":480,"endBeat":229.409375,"endTick":220233,"endTime":86.02851562500001,"note":32,"startBeat":228.909375,"startTick":219753,"startTime":85.84101562500001,"velocity":50},{"channel":9,"duration":0.09375,"durationBeats":0.25,"durationTicks":240,"endBeat":229.5,"endTick":220320,"endTime":86.0625,"note":42,"startBeat":229.25,"startTick":220080,"startTime":85.96875,"velocity":50},{"channel":12,"duration":0.1875,"durationBeats":0.5,"durationTicks":480,"endBeat":229.60729166666667,"endTick":220423,"endTime":86.102734375,"note":65,"startBeat":229.10729166666667,"startTick":219943,"startTime":85.915234375,"velocity":50},{"channel":2,"duration":0.1875,"durationBeats":0.5,"durationTicks":480,"endBeat":229.63854166666667,"endTick":220453,"endTime":86.114453125,"note":31,"startBeat":229.13854166666667,"startTick":219973,"startTime":85.926953125,"velocity":57},{"channel":9,"duration":0.09375,"durationBeats":0.25,"durationTicks":240,"endBeat":229.66145833333334,"endTick":220475,"endTime":86.123046875,"note":35,"startBeat":229.41145833333334,"startTick":220235,"startTime":86.029296875,"velocity":50},{"channel":9,"duration":0.0625,"durationBeats":0.1666666666666572,"durationTicks":160,"endBeat":229.75,"endTick":220560,"endTime":86.15625,"note":42,"startBeat":229.58333333333334,"startTick":220400,"startTime":86.09375,"velocity":50},{"channel":9,"duration":0.0234375,"durationBeats":0.0625,"durationTicks":60,"endBeat":229.89583333333334,"endTick":220700,"endTime":86.2109375,"note":42,"startBeat":229.83333333333334,"startTick":220640,"startTime":86.1875,"velocity":50},{"channel":1,"duration":0.1875,"durationBeats":0.5,"durationTicks":480,"endBeat":229.909375,"endTick":220713,"endTime":86.21601562500001,"note":31,"startBeat":229.409375,"startTick":220233,"startTime":86.02851562500001,"velocity":50},{"channel":8,"duration":0.1875,"durationBeats":0.5,"durationTicks":480,"endBeat":229.91666666666666,"endTick":220720,"endTime":86.21875,"note":62,"startBeat":229.41666666666666,"startTick":220240,"startTime":86.03125,"velocity":50},{"channel":9,"duration":0.09375,"durationBeats":0.25,"durationTicks":240,"endBeat":229.93229166666666,"endTick":220735,"endTime":86.224609375,"note":35,"startBeat":229.68229166666666,"startTick":220495,"startTime":86.130859375,"velocity":50},{"channel":9,"duration":0.0234375,"durationBeats":0.0625,"durationTicks":60,"endBeat":230.02083333333334,"endTick":220820,"endTime":86.2578125,"note":42,"startBeat":229.95833333333334,"startTick":220760,"startTime":86.234375,"velocity":50},{"channel":0,"duration":0.1875,"durationBeats":0.5,"durationTicks":480,"endBeat":230.10729166666667,"endTick":220903,"endTime":86.290234375,"note":33,"startBeat":229.60729166666667,"startTick":220423,"startTime":86.102734375,"velocity":68},{"channel":9,"duration":0.0234375,"durationBeats":0.0625,"durationTicks":60,"endBeat":230.14583333333334,"endTick":220940,"endTime":86.3046875,"note":42,"startBeat":230.08333333333334,"startTick":220880,"startTime":86.28125,"velocity":50},{"channel":9,"duration":0.0078125,"durationBeats":0.020833333333342807,"durationTicks":20,"endBeat":230.27083333333334,"endTick":221060,"endTime":86.3515625,"note":42,"startBeat":230.25,"startTick":221040,"startTime":86.34375,"velocity":50},{"channel":0,"duration":0.1875,"durationBeats":0.5,"durationTicks":480,"endBeat":230.35729166666667,"endTick":221143,"endTime":86.383984375,"note":70,"startBeat":229.85729166666667,"startTick":220663,"startTime":86.196484375,"velocity":68},{"channel":0,"duration":0.1875,"durationBeats":0.5,"durationTicks":480,"endBeat":230.35729166666667,"endTick":221143,"endTime":86.383984375,"note":67,"startBeat":229.85729166666667,"startTick":220663,"startTime":86.196484375,"velocity":68},{"channel":0,"duration":0.1875,"durationBeats":0.5,"durationTicks":480,"endBeat":230.35729166666667,"endTick":221143,"endTime":86.383984375,"note":65,"startBeat":229.85729166666667,"startTick":220663,"startTime":86.196484375,"velocity":68},{"channel":0,"duration":0.1875,"durationBeats":0.5,"durationTicks":480,"endBeat":230.35729166666667,"endTick":221143,"endTime":86.383984375,"note":61,"startBeat":229.85729166666667,"startTick":220663,"startTime":86.196484375,"velocity":68},{"channel":9,"duration":0.0234375,"durationBeats":0.0625,"durationTicks":60,"endBeat":230.39583333333334,"endTick":221180,"endTime":86.3984375,"note":42,"startBeat":230.33333333333334,"startTick":221120,"startTime":86.375,"velocity":50},{"channel":9,"duration":0.09375,"durationBeats":0.25,"durationTicks":240,"endBeat":230.41145833333334,"endTick":221195,"endTime":86.404296875,"note":35,"startBeat":230.16145833333334,"startTick":220955,"startTime":86.310546875,"velocity":50},{"channel":12,"duration":0.1875,"durationBeats":0.5,"durationTicks":480,"endBeat":230.60729166666667,"endTick":221383,"endTime":86.477734375,"note":64,"startBeat":230.10729166666667,"startTick":220903,"startTime":86.290234375,"velocity":50},{"channel":2,"duration":0.1875,"durationBeats":0.5,"durationTicks":480,"endBeat":230.63854166666667,"endTick":221413,"endTime":86.489453125,"note":31,"startBeat":230.13854166666667,"startTick":220933,"startTime":86.301953125,"velocity":57},{"channel":9,"duration":0.0078125,"durationBeats":0.020833333333314386,"durationTicks":20,"endBeat":230.68229166666666,"endTick":221455,"endTime":86.505859375,"note":35,"startBeat":230.66145833333334,"startTick":221435,"startTime":86.498046875,"velocity":50},{"channel":9,"duration":0.09375,"durationBeats":0.25,"durationTicks":240,"endBeat":230.75,"endTick":221520,"endTime":86.53125,"note":42,"startBeat":230.5,"startTick":221280,"startTime":86.4375,"velocity":50},{"channel":0,"duration":0.1875,"durationBeats":0.5,"durationTicks":480,"endBeat":230.85729166666667,"endTick":221623,"endTime":86.571484375,"note":33,"startBeat":230.35729166666667,"startTick":221143,"startTime":86.383984375,"velocity":68},{"channel":1,"duration":0.1875,"durationBeats":0.5,"durationTicks":480,"endBeat":230.909375,"endTick":221673,"endTime":86.59101562500001,"note":31,"startBeat":230.409375,"startTick":221193,"startTime":86.40351562500001,"velocity":50},{"channel":8,"duration":0.1875,"durationBeats":0.5,"durationTicks":480,"endBeat":230.91666666666666,"endTick":221680,"endTime":86.59375,"note":60,"startBeat":230.41666666666666,"startTick":221200,"startTime":86.40625,"velocity":50},{"channel":9,"duration":0.09375,"durationBeats":0.25,"durationTicks":240,"endBeat":231.08333333333334,"endTick":221840,"endTime":86.65625,"note":42,"startBeat":230.83333333333334,"startTick":221600,"startTime":86.5625,"velocity":50},{"channel":2,"duration":0.1875,"durationBeats":0.5,"durationTicks":480,"endBeat":231.13854166666667,"endTick":221893,"endTime":86.676953125,"note":32,"startBeat":230.63854166666667,"startTick":221413,"startTime":86.489453125,"velocity":57},{"channel":9,"duration":0.09375,"durationBeats":0.25,"durationTicks":240,"endBeat":231.18229166666666,"endTick":221935,"endTime":86.693359375,"note":35,"startBeat":230.93229166666666,"startTick":221695,"startTime":86.599609375,"velocity":50},{"channel":0,"duration":0.1875,"durationBeats":0.5,"durationTicks":480,"endBeat":231.35729166666667,"endTick":222103,"endTime":86.758984375,"note":69,"startBeat":230.85729166666667,"startTick":221623,"startTime":86.571484375,"velocity":68},{"channel":0,"duration":0.1875,"durationBeats":0.5,"durationTicks":480,"endBeat":231.35729166666667,"endTick":222103,"endTime":86.758984375,"note":65,"startBeat":230.85729166666667,"startTick":221623,"startTime":86.571484375,"velocity":68},{"channel":0,"duration":0.1875,"durationBeats":0.5,"durationTicks":480,"endBeat":231.35729166666667,"endTick":222103,"endTime":86.758984375,"note":64,"startBeat":230.85729166666667,"startTick":221623,"startTime":86.571484375,"velocity":68},{"channel":0,"duration":0.1875,"durationBeats":0.5,"durationTicks":480,"endBeat":231.35729166666667,"endTick":222103,"endTime":86.758984375,"note":60,"startBeat":230.85729166666667,"startTick":221623,"startTime":86.571484375,"velocity":68},{"channel":0,"duration":0.1875,"durationBeats":0.5,"durationTicks":480,"endBeat":231.35729166666667,"endTick":222103,"endTime":86.758984375,"note":26,"startBeat":230.85729166666667,"startTick":221623,"startTime":86.571484375,"velocity":68},{"channel":1,"duration":0.1875,"durationBeats":0.5,"durationTicks":480,"endBeat":231.409375,"endTick":222153,"endTime":86.77851562500001,"note":32,"startBeat":230.909375,"startTick":221673,"startTime":86.59101562500001,"velocity":50},{"channel":8,"duration":0.1875,"durationBeats":0.5,"durationTicks":480,"endBeat":231.41666666666666,"endTick":222160,"endTime":86.78125,"note":62,"startBeat":230.91666666666666,"startTick":221680,"startTime":86.59375,"velocity":50},{"channel":9,"duration":0.09375,"durationBeats":0.25,"durationTicks":240,"endBeat":231.5,"endTick":222240,"endTime":86.8125,"note":42,"startBeat":231.25,"startTick":222000,"startTime":86.71875,"velocity":50},{"channel":12,"duration":0.1875,"durationBeats":0.5,"durationTicks":480,"endBeat":231.60729166666667,"endTick":222343,"endTime":86.852734375,"note":67,"startBeat":231.10729166666667,"startTick":221863,"startTime":86.665234375,"velocity":50},{"channel":2,"duration":0.1875,"durationBeats":0.5,"durationTicks":480,"endBeat":231.63854166666667,"endTick":222373,"endTime":86.864453125,"note":33,"startBeat":231.13854166666667,"startTick":221893,"startTime":86.676953125,"velocity":57},{"channel":1,"duration":0.1875,"durationBeats":0.5,"durationTicks":480,"endBeat":231.909375,"endTick":222633,"endTime":86.96601562500001,"note":33,"startBeat":231.409375,"startTick":222153,"startTime":86.77851562500001,"velocity":50},{"channel":9,"duration":0.09375,"durationBeats":0.25,"durationTicks":240,"endBeat":231.91145833333334,"endTick":222635,"endTime":86.966796875,"note":35,"startBeat":231.66145833333334,"startTick":222395,"startTime":86.873046875,"velocity":50},{"channel":9,"duration":0.03125,"durationBeats":0.08333333333334281,"durationTicks":80,"endBeat":232.08333333333334,"endTick":222800,"endTime":87.03125,"note":42,"startBeat":232,"startTick":222720,"startTime":87,"velocity":50},{"channel":2,"duration":0.09375,"durationBeats":0.25,"durationTicks":240,"endBeat":232.13854166666667,"endTick":222853,"endTime":87.051953125,"note":33,"startBeat":231.88854166666667,"startTick":222613,"startTime":86.958203125,"velocity":57},{"channel":9,"duration":0.09375,"durationBeats":0.25,"durationTicks":240,"endBeat":232.18229166666666,"endTick":222895,"endTime":87.068359375,"note":35,"startBeat":231.93229166666666,"startTick":222655,"startTime":86.974609375,"velocity":50},{"channel":9,"duration":0.0625,"durationBeats":0.1666666666666572,"durationTicks":160,"endBeat":232.25,"endTick":222960,"endTime":87.09375,"note":42,"startBeat":232.08333333333334,"startTick":222800,"startTime":87.03125,"velocity":50},{"channel":9,"duration":0.0234375,"durationBeats":0.0625,"durationTicks":60,"endBeat":232.3125,"endTick":223020,"endTime":87.1171875,"note":42,"startBeat":232.25,"startTick":222960,"startTime":87.09375,"velocity":50},{"channel":0,"duration":0.1875,"durationBeats":0.5,"durationTicks":480,"endBeat":232.35729166666667,"endTick":223063,"endTime":87.133984375,"note":26,"startBeat":231.85729166666667,"startTick":222583,"startTime":86.946484375,"velocity":68},{"channel":1,"duration":0.09375,"durationBeats":0.25,"durationTicks":240,"endBeat":232.409375,"endTick":223113,"endTime":87.15351562500001,"note":33,"startBeat":232.159375,"startTick":222873,"startTime":87.05976562500001,"velocity":50},{"channel":9,"duration":0.0234375,"durationBeats":0.0625,"durationTicks":60,"endBeat":232.4375,"endTick":223140,"endTime":87.1640625,"note":42,"startBeat":232.375,"startTick":223080,"startTime":87.140625,"velocity":50},{"channel":9,"duration":0.0234375,"durationBeats":0.0625,"durationTicks":60,"endBeat":232.5625,"endTick":223260,"endTime":87.2109375,"note":42,"startBeat":232.5,"startTick":223200,"startTime":87.1875,"velocity":50},{"channel":12,"duration":0.1875,"durationBeats":0.5,"durationTicks":480,"endBeat":232.60729166666667,"endTick":223303,"endTime":87.227734375,"note":65,"startBeat":232.10729166666667,"startTick":222823,"startTime":87.040234375,"velocity":50},{"channel":9,"duration":0.0234375,"durationBeats":0.0625,"durationTicks":60,"endBeat":232.6875,"endTick":223380,"endTime":87.2578125,"note":42,"startBeat":232.625,"startTick":223320,"startTime":87.234375,"velocity":50},{"channel":9,"duration":0.0234375,"durationBeats":0.0625,"durationTicks":60,"endBeat":232.8125,"endTick":223500,"endTime":87.3046875,"note":42,"startBeat":232.75,"startTick":223440,"startTime":87.28125,"velocity":50},{"channel":9,"duration":0.09375,"durationBeats":0.25,"durationTicks":240,"endBeat":232.91145833333334,"endTick":223595,"endTime":87.341796875,"note":35,"startBeat":232.66145833333334,"startTick":223355,"startTime":87.248046875,"velocity":50},{"channel":9,"duration":0.09375,"durationBeats":0.25,"durationTicks":240,"endBeat":233.08333333333334,"endTick":223760,"endTime":87.40625,"note":42,"startBeat":232.83333333333334,"startTick":223520,"startTime":87.3125,"velocity":50},{"channel":2,"duration":0.1875,"durationBeats":0.5,"durationTicks":480,"endBeat":233.13854166666667,"endTick":223813,"endTime":87.426953125,"note":26,"startBeat":232.63854166666667,"startTick":223333,"startTime":87.239453125,"velocity":57},{"channel":9,"duration":0.09375,"durationBeats":0.25,"durationTicks":240,"endBeat":233.18229166666666,"endTick":223855,"endTime":87.443359375,"note":35,"startBeat":232.93229166666666,"startTick":223615,"startTime":87.349609375,"velocity":50},{"channel":0,"duration":0.1875,"durationBeats":0.5,"durationTicks":480,"endBeat":233.35729166666667,"endTick":224023,"endTime":87.508984375,"note":65,"startBeat":232.85729166666667,"startTick":223543,"startTime":87.321484375,"velocity":68},{"channel":0,"duration":0.1875,"durationBeats":0.5,"durationTicks":480,"endBeat":233.35729166666667,"endTick":224023,"endTime":87.508984375,"note":69,"startBeat":232.85729166666667,"startTick":223543,"startTime":87.321484375,"velocity":68},{"channel":0,"duration":0.1875,"durationBeats":0.5,"durationTicks":480,"endBeat":233.35729166666667,"endTick":224023,"endTime":87.508984375,"note":60,"startBeat":232.85729166666667,"startTick":223543,"startTime":87.321484375,"velocity":68},{"channel":0,"duration":0.1875,"durationBeats":0.5,"durationTicks":480,"endBeat":233.35729166666667,"endTick":224023,"endTime":87.508984375,"note":64,"startBeat":232.85729166666667,"startTick":223543,"startTime":87.321484375,"velocity":68},{"channel":0,"duration":0.1875,"durationBeats":0.5,"durationTicks":480,"endBeat":233.35729166666667,"endTick":224023,"endTime":87.508984375,"note":38,"startBeat":232.85729166666667,"startTick":223543,"startTime":87.321484375,"velocity":68},{"channel":1,"duration":0.1875,"durationBeats":0.5,"durationTicks":480,"endBeat":233.409375,"endTick":224073,"endTime":87.52851562500001,"note":26,"startBeat":232.909375,"startTick":223593,"startTime":87.34101562500001,"velocity":50},{"channel":9,"duration":0.09375,"durationBeats":0.25,"durationTicks":240,"endBeat":233.5,"endTick":224160,"endTime":87.5625,"note":42,"startBeat":233.25,"startTick":223920,"startTime":87.46875,"velocity":50},{"channel":12,"duration":0.1875,"durationBeats":0.5,"durationTicks":480,"endBeat":233.60729166666667,"endTick":224263,"endTime":87.602734375,"note":64,"startBeat":233.10729166666667,"startTick":223783,"startTime":87.415234375,"velocity":50},{"channel":9,"duration":0.09375,"durationBeats":0.25,"durationTicks":240,"endBeat":233.66145833333334,"endTick":224315,"endTime":87.623046875,"note":35,"startBeat":233.41145833333334,"startTick":224075,"startTime":87.529296875,"velocity":50},{"channel":9,"duration":0.0625,"durationBeats":0.1666666666666572,"durationTicks":160,"endBeat":233.75,"endTick":224400,"endTime":87.65625,"note":42,"startBeat":233.58333333333334,"startTick":224240,"startTime":87.59375,"velocity":50},{"channel":9,"duration":0.0234375,"durationBeats":0.0625,"durationTicks":60,"endBeat":233.89583333333334,"endTick":224540,"endTime":87.7109375,"note":42,"startBeat":233.83333333333334,"startTick":224480,"startTime":87.6875,"velocity":50},{"channel":9,"duration":0.09375,"durationBeats":0.25,"durationTicks":240,"endBeat":233.93229166666666,"endTick":224575,"endTime":87.724609375,"note":35,"startBeat":233.68229166666666,"startTick":224335,"startTime":87.630859375,"velocity":50},{"channel":9,"duration":0.0234375,"durationBeats":0.0625,"durationTicks":60,"endBeat":234.02083333333334,"endTick":224660,"endTime":87.7578125,"note":42,"startBeat":233.95833333333334,"startTick":224600,"startTime":87.734375,"velocity":50},{"channel":0,"duration":0.1875,"durationBeats":0.5,"durationTicks":480,"endBeat":234.10729166666667,"endTick":224743,"endTime":87.790234375,"note":33,"startBeat":233.60729166666667,"startTick":224263,"startTime":87.602734375,"velocity":68},{"channel":2,"duration":0.1875,"durationBeats":0.5,"durationTicks":480,"endBeat":234.13854166666667,"endTick":224773,"endTime":87.801953125,"note":38,"startBeat":233.63854166666667,"startTick":224293,"startTime":87.614453125,"velocity":57},{"channel":9,"duration":0.0234375,"durationBeats":0.0625,"durationTicks":60,"endBeat":234.14583333333334,"endTick":224780,"endTime":87.8046875,"note":42,"startBeat":234.08333333333334,"startTick":224720,"startTime":87.78125,"velocity":50},{"channel":9,"duration":0.0078125,"durationBeats":0.020833333333342807,"durationTicks":20,"endBeat":234.27083333333334,"endTick":224900,"endTime":87.8515625,"note":42,"startBeat":234.25,"startTick":224880,"startTime":87.84375,"velocity":50},{"channel":0,"duration":0.1875,"durationBeats":0.5,"durationTicks":480,"endBeat":234.35729166666667,"endTick":224983,"endTime":87.883984375,"note":68,"startBeat":233.85729166666667,"startTick":224503,"startTime":87.696484375,"velocity":68},{"channel":0,"duration":0.1875,"durationBeats":0.5,"durationTicks":480,"endBeat":234.35729166666667,"endTick":224983,"endTime":87.883984375,"note":63,"startBeat":233.85729166666667,"startTick":224503,"startTime":87.696484375,"velocity":68},{"channel":0,"duration":0.1875,"durationBeats":0.5,"durationTicks":480,"endBeat":234.35729166666667,"endTick":224983,"endTime":87.883984375,"note":59,"startBeat":233.85729166666667,"startTick":224503,"startTime":87.696484375,"velocity":68},{"channel":1,"duration":0.1875,"durationBeats":0.5,"durationTicks":480,"endBeat":234.409375,"endTick":225033,"endTime":87.90351562500001,"note":38,"startBeat":233.909375,"startTick":224553,"startTime":87.71601562500001,"velocity":50},{"channel":9,"duration":0.09375,"durationBeats":0.25,"durationTicks":240,"endBeat":234.41145833333334,"endTick":225035,"endTime":87.904296875,"note":35,"startBeat":234.16145833333334,"startTick":224795,"startTime":87.810546875,"velocity":50},{"channel":12,"duration":0.1875,"durationBeats":0.5,"durationTicks":480,"endBeat":234.60729166666667,"endTick":225223,"endTime":87.977734375,"note":62,"startBeat":234.10729166666667,"startTick":224743,"startTime":87.790234375,"velocity":50},{"channel":2,"duration":0.1875,"durationBeats":0.5,"durationTicks":480,"endBeat":234.63854166666667,"endTick":225253,"endTime":87.989453125,"note":26,"startBeat":234.13854166666667,"startTick":224773,"startTime":87.801953125,"velocity":57},{"channel":9,"duration":0.0078125,"durationBeats":0.020833333333314386,"durationTicks":20,"endBeat":234.68229166666666,"endTick":225295,"endTime":88.005859375,"note":35,"startBeat":234.66145833333334,"startTick":225275,"startTime":87.998046875,"velocity":50},{"channel":9,"duration":0.09375,"durationBeats":0.25,"durationTicks":240,"endBeat":234.75,"endTick":225360,"endTime":88.03125,"note":42,"startBeat":234.5,"startTick":225120,"startTime":87.9375,"velocity":50},{"channel":0,"duration":0.1875,"durationBeats":0.5,"durationTicks":480,"endBeat":234.85729166666667,"endTick":225463,"endTime":88.071484375,"note":32,"startBeat":234.35729166666667,"startTick":224983,"startTime":87.883984375,"velocity":68},{"channel":1,"duration":0.1875,"durationBeats":0.5,"durationTicks":480,"endBeat":234.909375,"endTick":225513,"endTime":88.09101562500001,"note":26,"startBeat":234.409375,"startTick":225033,"startTime":87.90351562500001,"velocity":50},{"channel":9,"duration":0.09375,"durationBeats":0.25,"durationTicks":240,"endBeat":235.08333333333334,"endTick":225680,"endTime":88.15625,"note":42,"startBeat":234.83333333333334,"startTick":225440,"startTime":88.0625,"velocity":50},{"channel":2,"duration":0.1875,"durationBeats":0.5,"durationTicks":480,"endBeat":235.13854166666667,"endTick":225733,"endTime":88.176953125,"note":33,"startBeat":234.63854166666667,"startTick":225253,"startTime":87.989453125,"velocity":57},{"channel":9,"duration":0.09375,"durationBeats":0.25,"durationTicks":240,"endBeat":235.18229166666666,"endTick":225775,"endTime":88.193359375,"note":35,"startBeat":234.93229166666666,"startTick":225535,"startTime":88.099609375,"velocity":50},{"channel":9,"duration":0.03125,"durationBeats":0.08333333333334281,"durationTicks":80,"endBeat":235.33333333333334,"endTick":225920,"endTime":88.25,"note":42,"startBeat":235.25,"startTick":225840,"startTime":88.21875,"velocity":50},{"channel":0,"duration":0.1875,"durationBeats":0.5,"durationTicks":480,"endBeat":235.35729166666667,"endTick":225943,"endTime":88.258984375,"note":31,"startBeat":234.85729166666667,"startTick":225463,"startTime":88.071484375,"velocity":68},{"channel":1,"duration":0.1875,"durationBeats":0.5,"durationTicks":480,"endBeat":235.409375,"endTick":225993,"endTime":88.27851562500001,"note":33,"startBeat":234.909375,"startTick":225513,"startTime":88.09101562500001,"velocity":50},{"channel":8,"duration":0.0625,"durationBeats":0.16666666666668561,"durationTicks":160,"endBeat":235.58333333333334,"endTick":226160,"endTime":88.34375,"note":68,"startBeat":235.41666666666666,"startTick":226000,"startTime":88.28125,"velocity":50},{"channel":12,"duration":0.1875,"durationBeats":0.5,"durationTicks":480,"endBeat":235.60729166666667,"endTick":226183,"endTime":88.352734375,"note":65,"startBeat":235.10729166666667,"startTick":225703,"startTime":88.165234375,"velocity":50},{"channel":0,"duration":0.375,"durationBeats":1,"durationTicks":960,"endBeat":235.85729166666667,"endTick":226423,"endTime":88.446484375,"note":69,"startBeat":234.85729166666667,"startTick":225463,"startTime":88.071484375,"velocity":68},{"channel":0,"duration":0.375,"durationBeats":1,"durationTicks":960,"endBeat":235.85729166666667,"endTick":226423,"endTime":88.446484375,"note":65,"startBeat":234.85729166666667,"startTick":225463,"startTime":88.071484375,"velocity":68},{"channel":0,"duration":0.375,"durationBeats":1,"durationTicks":960,"endBeat":235.85729166666667,"endTick":226423,"endTime":88.446484375,"note":62,"startBeat":234.85729166666667,"startTick":225463,"startTime":88.071484375,"velocity":68},{"channel":0,"duration":0.375,"durationBeats":1,"durationTicks":960,"endBeat":235.85729166666667,"endTick":226423,"endTime":88.446484375,"note":58,"startBeat":234.85729166666667,"startTick":225463,"startTime":88.071484375,"velocity":68},{"channel":9,"duration":0.09375,"durationBeats":0.25,"durationTicks":240,"endBeat":235.91145833333334,"endTick":226475,"endTime":88.466796875,"note":35,"startBeat":235.66145833333334,"startTick":226235,"startTime":88.373046875,"velocity":50},{"channel":8,"duration":0.140625,"durationBeats":0.375,"durationTicks":360,"endBeat":235.91666666666666,"endTick":226480,"endTime":88.46875,"note":69,"startBeat":235.54166666666666,"startTick":226120,"startTime":88.328125,"velocity":50},{"channel":9,"duration":0.03125,"durationBeats":0.08333333333334281,"durationTicks":80,"endBeat":236.08333333333334,"endTick":226640,"endTime":88.53125,"note":42,"startBeat":236,"startTick":226560,"startTime":88.5,"velocity":50},{"channel":2,"duration":0.1875,"durationBeats":0.5,"durationTicks":480,"endBeat":236.13854166666667,"endTick":226693,"endTime":88.551953125,"note":26,"startBeat":235.63854166666667,"startTick":226213,"startTime":88.364453125,"velocity":57},{"channel":9,"duration":0.09375,"durationBeats":0.25,"durationTicks":240,"endBeat":236.18229166666666,"endTick":226735,"endTime":88.568359375,"note":35,"startBeat":235.93229166666666,"startTick":226495,"startTime":88.474609375,"velocity":50},{"channel":9,"duration":0.0625,"durationBeats":0.1666666666666572,"durationTicks":160,"endBeat":236.25,"endTick":226800,"endTime":88.59375,"note":42,"startBeat":236.08333333333334,"startTick":226640,"startTime":88.53125,"velocity":50},{"channel":9,"duration":0.0234375,"durationBeats":0.0625,"durationTicks":60,"endBeat":236.3125,"endTick":226860,"endTime":88.6171875,"note":42,"startBeat":236.25,"startTick":226800,"startTime":88.59375,"velocity":50},{"channel":0,"duration":0.1875,"durationBeats":0.5,"durationTicks":480,"endBeat":236.35729166666667,"endTick":226903,"endTime":88.633984375,"note":31,"startBeat":235.85729166666667,"startTick":226423,"startTime":88.446484375,"velocity":68},{"channel":1,"duration":0.1875,"durationBeats":0.5,"durationTicks":480,"endBeat":236.409375,"endTick":226953,"endTime":88.65351562500001,"note":26,"startBeat":235.909375,"startTick":226473,"startTime":88.46601562500001,"velocity":50},{"channel":9,"duration":0.0234375,"durationBeats":0.0625,"durationTicks":60,"endBeat":236.4375,"endTick":226980,"endTime":88.6640625,"note":42,"startBeat":236.375,"startTick":226920,"startTime":88.640625,"velocity":50},{"channel":9,"duration":0.0234375,"durationBeats":0.0625,"durationTicks":60,"endBeat":236.5625,"endTick":227100,"endTime":88.7109375,"note":42,"startBeat":236.5,"startTick":227040,"startTime":88.6875,"velocity":50},{"channel":12,"duration":0.1875,"durationBeats":0.5,"durationTicks":480,"endBeat":236.60729166666667,"endTick":227143,"endTime":88.727734375,"note":64,"startBeat":236.10729166666667,"startTick":226663,"startTime":88.540234375,"velocity":50},{"channel":2,"duration":0.1875,"durationBeats":0.5,"durationTicks":480,"endBeat":236.63854166666667,"endTick":227173,"endTime":88.739453125,"note":33,"startBeat":236.13854166666667,"startTick":226693,"startTime":88.551953125,"velocity":57},{"channel":9,"duration":0.0234375,"durationBeats":0.0625,"durationTicks":60,"endBeat":236.6875,"endTick":227220,"endTime":88.7578125,"note":42,"startBeat":236.625,"startTick":227160,"startTime":88.734375,"velocity":50},{"channel":9,"duration":0.0234375,"durationBeats":0.0625,"durationTicks":60,"endBeat":236.8125,"endTick":227340,"endTime":88.8046875,"note":42,"startBeat":236.75,"startTick":227280,"startTime":88.78125,"velocity":50},{"channel":1,"duration":0.1875,"durationBeats":0.5,"durationTicks":480,"endBeat":236.909375,"endTick":227433,"endTime":88.84101562500001,"note":33,"startBeat":236.409375,"startTick":226953,"startTime":88.65351562500001,"velocity":50},{"channel":9,"duration":0.09375,"durationBeats":0.25,"durationTicks":240,"endBeat":236.91145833333334,"endTick":227435,"endTime":88.841796875,"note":35,"startBeat":236.66145833333334,"startTick":227195,"startTime":88.748046875,"velocity":50},{"channel":8,"duration":0.1875,"durationBeats":0.5,"durationTicks":480,"endBeat":236.91666666666666,"endTick":227440,"endTime":88.84375,"note":67,"startBeat":236.41666666666666,"startTick":226960,"startTime":88.65625,"velocity":50},{"channel":9,"duration":0.09375,"durationBeats":0.25,"durationTicks":240,"endBeat":237.08333333333334,"endTick":227600,"endTime":88.90625,"note":42,"startBeat":236.83333333333334,"startTick":227360,"startTime":88.8125,"velocity":50},{"channel":2,"duration":0.1875,"durationBeats":0.5,"durationTicks":480,"endBeat":237.13854166666667,"endTick":227653,"endTime":88.926953125,"note":32,"startBeat":236.63854166666667,"startTick":227173,"startTime":88.739453125,"velocity":57},{"channel":9,"duration":0.09375,"durationBeats":0.25,"durationTicks":240,"endBeat":237.18229166666666,"endTick":227695,"endTime":88.943359375,"note":35,"startBeat":236.93229166666666,"startTick":227455,"startTime":88.849609375,"velocity":50},{"channel":0,"duration":0.1875,"durationBeats":0.5,"durationTicks":480,"endBeat":237.35729166666667,"endTick":227863,"endTime":89.008984375,"note":60,"startBeat":236.85729166666667,"startTick":227383,"startTime":88.821484375,"velocity":68},{"channel":0,"duration":0.1875,"durationBeats":0.5,"durationTicks":480,"endBeat":237.35729166666667,"endTick":227863,"endTime":89.008984375,"note":64,"startBeat":236.85729166666667,"startTick":227383,"startTime":88.821484375,"velocity":68},{"channel":0,"duration":0.1875,"durationBeats":0.5,"durationTicks":480,"endBeat":237.35729166666667,"endTick":227863,"endTime":89.008984375,"note":67,"startBeat":236.85729166666667,"startTick":227383,"startTime":88.821484375,"velocity":68},{"channel":0,"duration":0.1875,"durationBeats":0.5,"durationTicks":480,"endBeat":237.35729166666667,"endTick":227863,"endTime":89.008984375,"note":72,"startBeat":236.85729166666667,"startTick":227383,"startTime":88.821484375,"velocity":68},{"channel":0,"duration":0.1875,"durationBeats":0.5,"durationTicks":480,"endBeat":237.35729166666667,"endTick":227863,"endTime":89.008984375,"note":33,"startBeat":236.85729166666667,"startTick":227383,"startTime":88.821484375,"velocity":68},{"channel":1,"duration":0.1875,"durationBeats":0.5,"durationTicks":480,"endBeat":237.409375,"endTick":227913,"endTime":89.02851562500001,"note":32,"startBeat":236.909375,"startTick":227433,"startTime":88.84101562500001,"velocity":50},{"channel":9,"duration":0.09375,"durationBeats":0.25,"durationTicks":240,"endBeat":237.5,"endTick":228000,"endTime":89.0625,"note":42,"startBeat":237.25,"startTick":227760,"startTime":88.96875,"velocity":50},{"channel":12,"duration":0.1875,"durationBeats":0.5,"durationTicks":480,"endBeat":237.60729166666667,"endTick":228103,"endTime":89.102734375,"note":67,"startBeat":237.10729166666667,"startTick":227623,"startTime":88.915234375,"velocity":50},{"channel":2,"duration":0.1875,"durationBeats":0.5,"durationTicks":480,"endBeat":237.63854166666667,"endTick":228133,"endTime":89.114453125,"note":31,"startBeat":237.13854166666667,"startTick":227653,"startTime":88.926953125,"velocity":57},{"channel":9,"duration":0.09375,"durationBeats":0.25,"durationTicks":240,"endBeat":237.66145833333334,"endTick":228155,"endTime":89.123046875,"note":35,"startBeat":237.41145833333334,"startTick":227915,"startTime":89.029296875,"velocity":50},{"channel":9,"duration":0.09375,"durationBeats":0.25,"durationTicks":240,"endBeat":237.83333333333334,"endTick":228320,"endTime":89.1875,"note":42,"startBeat":237.58333333333334,"startTick":228080,"startTime":89.09375,"velocity":50},{"channel":12,"duration":0.09375,"durationBeats":0.25,"durationTicks":240,"endBeat":237.85729166666667,"endTick":228343,"endTime":89.196484375,"note":65,"startBeat":237.60729166666667,"startTick":228103,"startTime":89.102734375,"velocity":50},{"channel":9,"duration":0.0234375,"durationBeats":0.0625,"durationTicks":60,"endBeat":237.89583333333334,"endTick":228380,"endTime":89.2109375,"note":42,"startBeat":237.83333333333334,"startTick":228320,"startTime":89.1875,"velocity":50},{"channel":1,"duration":0.1875,"durationBeats":0.5,"durationTicks":480,"endBeat":237.909375,"endTick":228393,"endTime":89.21601562500001,"note":31,"startBeat":237.409375,"startTick":227913,"startTime":89.02851562500001,"velocity":50},{"channel":8,"duration":0.1875,"durationBeats":0.5,"durationTicks":480,"endBeat":237.91666666666666,"endTick":228400,"endTime":89.21875,"note":65,"startBeat":237.41666666666666,"startTick":227920,"startTime":89.03125,"velocity":50},{"channel":9,"duration":0.09375,"durationBeats":0.25,"durationTicks":240,"endBeat":237.93229166666666,"endTick":228415,"endTime":89.224609375,"note":35,"startBeat":237.68229166666666,"startTick":228175,"startTime":89.130859375,"velocity":50},{"channel":9,"duration":0.0234375,"durationBeats":0.0625,"durationTicks":60,"endBeat":238.02083333333334,"endTick":228500,"endTime":89.2578125,"note":42,"startBeat":237.95833333333334,"startTick":228440,"startTime":89.234375,"velocity":50},{"channel":0,"duration":0.1875,"durationBeats":0.5,"durationTicks":480,"endBeat":238.10729166666667,"endTick":228583,"endTime":89.290234375,"note":33,"startBeat":237.60729166666667,"startTick":228103,"startTime":89.102734375,"velocity":68},{"channel":9,"duration":0.0234375,"durationBeats":0.0625,"durationTicks":60,"endBeat":238.14583333333334,"endTick":228620,"endTime":89.3046875,"note":42,"startBeat":238.08333333333334,"startTick":228560,"startTime":89.28125,"velocity":50},{"channel":9,"duration":0.0078125,"durationBeats":0.020833333333342807,"durationTicks":20,"endBeat":238.27083333333334,"endTick":228740,"endTime":89.3515625,"note":42,"startBeat":238.25,"startTick":228720,"startTime":89.34375,"velocity":50},{"channel":0,"duration":0.1875,"durationBeats":0.5,"durationTicks":480,"endBeat":238.35729166666667,"endTick":228823,"endTime":89.383984375,"note":70,"startBeat":237.85729166666667,"startTick":228343,"startTime":89.196484375,"velocity":68},{"channel":0,"duration":0.1875,"durationBeats":0.5,"durationTicks":480,"endBeat":238.35729166666667,"endTick":228823,"endTime":89.383984375,"note":67,"startBeat":237.85729166666667,"startTick":228343,"startTime":89.196484375,"velocity":68},{"channel":0,"duration":0.1875,"durationBeats":0.5,"durationTicks":480,"endBeat":238.35729166666667,"endTick":228823,"endTime":89.383984375,"note":65,"startBeat":237.85729166666667,"startTick":228343,"startTime":89.196484375,"velocity":68},{"channel":0,"duration":0.1875,"durationBeats":0.5,"durationTicks":480,"endBeat":238.35729166666667,"endTick":228823,"endTime":89.383984375,"note":61,"startBeat":237.85729166666667,"startTick":228343,"startTime":89.196484375,"velocity":68},{"channel":9,"duration":0.0234375,"durationBeats":0.0625,"durationTicks":60,"endBeat":238.39583333333334,"endTick":228860,"endTime":89.3984375,"note":42,"startBeat":238.33333333333334,"startTick":228800,"startTime":89.375,"velocity":50},{"channel":9,"duration":0.09375,"durationBeats":0.25,"durationTicks":240,"endBeat":238.41145833333334,"endTick":228875,"endTime":89.404296875,"note":35,"startBeat":238.16145833333334,"startTick":228635,"startTime":89.310546875,"velocity":50},{"channel":12,"duration":0.1875,"durationBeats":0.5,"durationTicks":480,"endBeat":238.60729166666667,"endTick":229063,"endTime":89.477734375,"note":67,"startBeat":238.10729166666667,"startTick":228583,"startTime":89.290234375,"velocity":50},{"channel":2,"duration":0.1875,"durationBeats":0.5,"durationTicks":480,"endBeat":238.63854166666667,"endTick":229093,"endTime":89.489453125,"note":31,"startBeat":238.13854166666667,"startTick":228613,"startTime":89.301953125,"velocity":57},{"channel":9,"duration":0.0078125,"durationBeats":0.020833333333314386,"durationTicks":20,"endBeat":238.68229166666666,"endTick":229135,"endTime":89.505859375,"note":35,"startBeat":238.66145833333334,"startTick":229115,"startTime":89.498046875,"velocity":50},{"channel":12,"duration":0.046875,"durationBeats":0.125,"durationTicks":120,"endBeat":238.73229166666667,"endTick":229183,"endTime":89.524609375,"note":67,"startBeat":238.60729166666667,"startTick":229063,"startTime":89.477734375,"velocity":50},{"channel":9,"duration":0.09375,"durationBeats":0.25,"durationTicks":240,"endBeat":238.75,"endTick":229200,"endTime":89.53125,"note":42,"startBeat":238.5,"startTick":228960,"startTime":89.4375,"velocity":50},{"channel":0,"duration":0.1875,"durationBeats":0.5,"durationTicks":480,"endBeat":238.85729166666667,"endTick":229303,"endTime":89.571484375,"note":33,"startBeat":238.35729166666667,"startTick":228823,"startTime":89.383984375,"velocity":68},{"channel":1,"duration":0.1875,"durationBeats":0.5,"durationTicks":480,"endBeat":238.909375,"endTick":229353,"endTime":89.59101562500001,"note":31,"startBeat":238.409375,"startTick":228873,"startTime":89.40351562500001,"velocity":50},{"channel":8,"duration":0.1875,"durationBeats":0.5,"durationTicks":480,"endBeat":238.91666666666666,"endTick":229360,"endTime":89.59375,"note":64,"startBeat":238.41666666666666,"startTick":228880,"startTime":89.40625,"velocity":50},{"channel":9,"duration":0.09375,"durationBeats":0.25,"durationTicks":240,"endBeat":239.08333333333334,"endTick":229520,"endTime":89.65625,"note":42,"startBeat":238.83333333333334,"startTick":229280,"startTime":89.5625,"velocity":50},{"channel":12,"duration":0.140625,"durationBeats":0.375,"durationTicks":360,"endBeat":239.10729166666667,"endTick":229543,"endTime":89.665234375,"note":69,"startBeat":238.73229166666667,"startTick":229183,"startTime":89.524609375,"velocity":50},{"channel":2,"duration":0.1875,"durationBeats":0.5,"durationTicks":480,"endBeat":239.13854166666667,"endTick":229573,"endTime":89.676953125,"note":32,"startBeat":238.63854166666667,"startTick":229093,"startTime":89.489453125,"velocity":57},{"channel":9,"duration":0.09375,"durationBeats":0.25,"durationTicks":240,"endBeat":239.18229166666666,"endTick":229615,"endTime":89.693359375,"note":35,"startBeat":238.93229166666666,"startTick":229375,"startTime":89.599609375,"velocity":50},{"channel":9,"duration":0.03125,"durationBeats":0.08333333333334281,"durationTicks":80,"endBeat":239.33333333333334,"endTick":229760,"endTime":89.75,"note":42,"startBeat":239.25,"startTick":229680,"startTime":89.71875,"velocity":50},{"channel":0,"duration":0.1875,"durationBeats":0.5,"durationTicks":480,"endBeat":239.35729166666667,"endTick":229783,"endTime":89.758984375,"note":69,"startBeat":238.85729166666667,"startTick":229303,"startTime":89.571484375,"velocity":68},{"channel":0,"duration":0.1875,"durationBeats":0.5,"durationTicks":480,"endBeat":239.35729166666667,"endTick":229783,"endTime":89.758984375,"note":65,"startBeat":238.85729166666667,"startTick":229303,"startTime":89.571484375,"velocity":68},{"channel":0,"duration":0.1875,"durationBeats":0.5,"durationTicks":480,"endBeat":239.35729166666667,"endTick":229783,"endTime":89.758984375,"note":64,"startBeat":238.85729166666667,"startTick":229303,"startTime":89.571484375,"velocity":68},{"channel":0,"duration":0.1875,"durationBeats":0.5,"durationTicks":480,"endBeat":239.35729166666667,"endTick":229783,"endTime":89.758984375,"note":60,"startBeat":238.85729166666667,"startTick":229303,"startTime":89.571484375,"velocity":68},{"channel":0,"duration":0.1875,"durationBeats":0.5,"durationTicks":480,"endBeat":239.35729166666667,"endTick":229783,"endTime":89.758984375,"note":26,"startBeat":238.85729166666667,"startTick":229303,"startTime":89.571484375,"velocity":68},{"channel":1,"duration":0.1875,"durationBeats":0.5,"durationTicks":480,"endBeat":239.409375,"endTick":229833,"endTime":89.77851562500001,"note":32,"startBeat":238.909375,"startTick":229353,"startTime":89.59101562500001,"velocity":50},{"channel":2,"duration":0.1875,"durationBeats":0.5,"durationTicks":480,"endBeat":239.63854166666667,"endTick":230053,"endTime":89.864453125,"note":33,"startBeat":239.13854166666667,"startTick":229573,"startTime":89.676953125,"velocity":57},{"channel":12,"duration":0.0234375,"durationBeats":0.0625,"durationTicks":60,"endBeat":239.66979166666667,"endTick":230083,"endTime":89.876171875,"note":69,"startBeat":239.60729166666667,"startTick":230023,"startTime":89.852734375,"velocity":50},{"channel":12,"duration":0.0703125,"durationBeats":0.1875,"durationTicks":180,"endBeat":239.85729166666667,"endTick":230263,"endTime":89.946484375,"note":70,"startBeat":239.66979166666667,"startTick":230083,"startTime":89.876171875,"velocity":50},{"channel":1,"duration":0.1875,"durationBeats":0.5,"durationTicks":480,"endBeat":239.909375,"endTick":230313,"endTime":89.96601562500001,"note":33,"startBeat":239.409375,"startTick":229833,"startTime":89.77851562500001,"velocity":50},{"channel":9,"duration":0.09375,"durationBeats":0.25,"durationTicks":240,"endBeat":239.91145833333334,"endTick":230315,"endTime":89.966796875,"note":35,"startBeat":239.66145833333334,"startTick":230075,"startTime":89.873046875,"velocity":50},{"channel":8,"duration":0.1875,"durationBeats":0.5,"durationTicks":480,"endBeat":239.91666666666666,"endTick":230320,"endTime":89.96875,"note":67,"startBeat":239.41666666666666,"startTick":229840,"startTime":89.78125,"velocity":50},{"channel":9,"duration":0.03125,"durationBeats":0.08333333333334281,"durationTicks":80,"endBeat":240.08333333333334,"endTick":230480,"endTime":90.03125,"note":42,"startBeat":240,"startTick":230400,"startTime":90,"velocity":50},{"channel":2,"duration":0.09375,"durationBeats":0.25,"durationTicks":240,"endBeat":240.13854166666667,"endTick":230533,"endTime":90.051953125,"note":33,"startBeat":239.88854166666667,"startTick":230293,"startTime":89.958203125,"velocity":57},{"channel":9,"duration":0.09375,"durationBeats":0.25,"durationTicks":240,"endBeat":240.18229166666666,"endTick":230575,"endTime":90.068359375,"note":35,"startBeat":239.93229166666666,"startTick":230335,"startTime":89.974609375,"velocity":50},{"channel":9,"duration":0.0625,"durationBeats":0.1666666666666572,"durationTicks":160,"endBeat":240.25,"endTick":230640,"endTime":90.09375,"note":42,"startBeat":240.08333333333334,"startTick":230480,"startTime":90.03125,"velocity":50},{"channel":9,"duration":0.0234375,"durationBeats":0.0625,"durationTicks":60,"endBeat":240.3125,"endTick":230700,"endTime":90.1171875,"note":42,"startBeat":240.25,"startTick":230640,"startTime":90.09375,"velocity":50},{"channel":0,"duration":0.1875,"durationBeats":0.5,"durationTicks":480,"endBeat":240.35729166666667,"endTick":230743,"endTime":90.133984375,"note":26,"startBeat":239.85729166666667,"startTick":230263,"startTime":89.946484375,"velocity":68},{"channel":1,"duration":0.09375,"durationBeats":0.25,"durationTicks":240,"endBeat":240.409375,"endTick":230793,"endTime":90.15351562500001,"note":33,"startBeat":240.159375,"startTick":230553,"startTime":90.05976562500001,"velocity":50},{"channel":9,"duration":0.001953125,"durationBeats":0.005208333333342807,"durationTicks":5,"endBeat":240.4375,"endTick":230820,"endTime":90.1640625,"note":42,"startBeat":240.43229166666666,"startTick":230815,"startTime":90.162109375,"velocity":50},{"channel":9,"duration":0.0234375,"durationBeats":0.0625,"durationTicks":60,"endBeat":240.5625,"endTick":230940,"endTime":90.2109375,"note":42,"startBeat":240.5,"startTick":230880,"startTime":90.1875,"velocity":50},{"channel":9,"duration":0.021484375,"durationBeats":0.05729166666665719,"durationTicks":55,"endBeat":240.68229166666666,"endTick":231055,"endTime":90.255859375,"note":42,"startBeat":240.625,"startTick":231000,"startTime":90.234375,"velocity":50},{"channel":9,"duration":0.09375,"durationBeats":0.25,"durationTicks":240,"endBeat":240.91145833333334,"endTick":231275,"endTime":90.341796875,"note":35,"startBeat":240.66145833333334,"startTick":231035,"startTime":90.248046875,"velocity":50},{"channel":8,"duration":0.1875,"durationBeats":0.5,"durationTicks":480,"endBeat":240.91666666666666,"endTick":231280,"endTime":90.34375,"note":65,"startBeat":240.41666666666666,"startTick":230800,"startTime":90.15625,"velocity":50},{"channel":9,"duration":0.09375,"durationBeats":0.25,"durationTicks":240,"endBeat":241.08333333333334,"endTick":231440,"endTime":90.40625,"note":42,"startBeat":240.83333333333334,"startTick":231200,"startTime":90.3125,"velocity":50},{"channel":2,"duration":0.1875,"durationBeats":0.5,"durationTicks":480,"endBeat":241.13854166666667,"endTick":231493,"endTime":90.426953125,"note":26,"startBeat":240.63854166666667,"startTick":231013,"startTime":90.239453125,"velocity":57},{"channel":9,"duration":0.09375,"durationBeats":0.25,"durationTicks":240,"endBeat":241.18229166666666,"endTick":231535,"endTime":90.443359375,"note":35,"startBeat":240.93229166666666,"startTick":231295,"startTime":90.349609375,"velocity":50},{"channel":0,"duration":0.1875,"durationBeats":0.5,"durationTicks":480,"endBeat":241.35729166666667,"endTick":231703,"endTime":90.508984375,"note":65,"startBeat":240.85729166666667,"startTick":231223,"startTime":90.321484375,"velocity":68},{"channel":0,"duration":0.1875,"durationBeats":0.5,"durationTicks":480,"endBeat":241.35729166666667,"endTick":231703,"endTime":90.508984375,"note":69,"startBeat":240.85729166666667,"startTick":231223,"startTime":90.321484375,"velocity":68},{"channel":0,"duration":0.1875,"durationBeats":0.5,"durationTicks":480,"endBeat":241.35729166666667,"endTick":231703,"endTime":90.508984375,"note":60,"startBeat":240.85729166666667,"startTick":231223,"startTime":90.321484375,"velocity":68},{"channel":0,"duration":0.1875,"durationBeats":0.5,"durationTicks":480,"endBeat":241.35729166666667,"endTick":231703,"endTime":90.508984375,"note":64,"startBeat":240.85729166666667,"startTick":231223,"startTime":90.321484375,"velocity":68},{"channel":0,"duration":0.1875,"durationBeats":0.5,"durationTicks":480,"endBeat":241.35729166666667,"endTick":231703,"endTime":90.508984375,"note":38,"startBeat":240.85729166666667,"startTick":231223,"startTime":90.321484375,"velocity":68},{"channel":1,"duration":0.1875,"durationBeats":0.5,"durationTicks":480,"endBeat":241.409375,"endTick":231753,"endTime":90.52851562500001,"note":26,"startBeat":240.909375,"startTick":231273,"startTime":90.34101562500001,"velocity":50},{"channel":9,"duration":0.09375,"durationBeats":0.25,"durationTicks":240,"endBeat":241.66145833333334,"endTick":231995,"endTime":90.623046875,"note":35,"startBeat":241.41145833333334,"startTick":231755,"startTime":90.529296875,"velocity":50},{"channel":9,"duration":0.09375,"durationBeats":0.25,"durationTicks":240,"endBeat":241.83333333333334,"endTick":232160,"endTime":90.6875,"note":42,"startBeat":241.58333333333334,"startTick":231920,"startTime":90.59375,"velocity":50},{"channel":9,"duration":0.0234375,"durationBeats":0.0625,"durationTicks":60,"endBeat":241.89583333333334,"endTick":232220,"endTime":90.7109375,"note":42,"startBeat":241.83333333333334,"startTick":232160,"startTime":90.6875,"velocity":50},{"channel":8,"duration":0.1875,"durationBeats":0.5,"durationTicks":480,"endBeat":241.91666666666666,"endTick":232240,"endTime":90.71875,"note":64,"startBeat":241.41666666666666,"startTick":231760,"startTime":90.53125,"velocity":50},{"channel":9,"duration":0.09375,"durationBeats":0.25,"durationTicks":240,"endBeat":241.93229166666666,"endTick":232255,"endTime":90.724609375,"note":35,"startBeat":241.68229166666666,"startTick":232015,"startTime":90.630859375,"velocity":50},{"channel":9,"duration":0.0234375,"durationBeats":0.0625,"durationTicks":60,"endBeat":242.02083333333334,"endTick":232340,"endTime":90.7578125,"note":42,"startBeat":241.95833333333334,"startTick":232280,"startTime":90.734375,"velocity":50},{"channel":0,"duration":0.1875,"durationBeats":0.5,"durationTicks":480,"endBeat":242.10729166666667,"endTick":232423,"endTime":90.790234375,"note":33,"startBeat":241.60729166666667,"startTick":231943,"startTime":90.602734375,"velocity":68},{"channel":2,"duration":0.1875,"durationBeats":0.5,"durationTicks":480,"endBeat":242.13854166666667,"endTick":232453,"endTime":90.801953125,"note":26,"startBeat":241.63854166666667,"startTick":231973,"startTime":90.614453125,"velocity":57},{"channel":9,"duration":0.0234375,"durationBeats":0.0625,"durationTicks":60,"endBeat":242.14583333333334,"endTick":232460,"endTime":90.8046875,"note":42,"startBeat":242.08333333333334,"startTick":232400,"startTime":90.78125,"velocity":50},{"channel":9,"duration":0.0234375,"durationBeats":0.0625,"durationTicks":60,"endBeat":242.27083333333334,"endTick":232580,"endTime":90.8515625,"note":42,"startBeat":242.20833333333334,"startTick":232520,"startTime":90.828125,"velocity":50},{"channel":0,"duration":0.1875,"durationBeats":0.5,"durationTicks":480,"endBeat":242.35729166666667,"endTick":232663,"endTime":90.883984375,"note":68,"startBeat":241.85729166666667,"startTick":232183,"startTime":90.696484375,"velocity":68},{"channel":0,"duration":0.1875,"durationBeats":0.5,"durationTicks":480,"endBeat":242.35729166666667,"endTick":232663,"endTime":90.883984375,"note":63,"startBeat":241.85729166666667,"startTick":232183,"startTime":90.696484375,"velocity":68},{"channel":0,"duration":0.1875,"durationBeats":0.5,"durationTicks":480,"endBeat":242.35729166666667,"endTick":232663,"endTime":90.883984375,"note":59,"startBeat":241.85729166666667,"startTick":232183,"startTime":90.696484375,"velocity":68},{"channel":9,"duration":0.0234375,"durationBeats":0.0625,"durationTicks":60,"endBeat":242.39583333333334,"endTick":232700,"endTime":90.8984375,"note":42,"startBeat":242.33333333333334,"startTick":232640,"startTime":90.875,"velocity":50},{"channel":1,"duration":0.1875,"durationBeats":0.5,"durationTicks":480,"endBeat":242.409375,"endTick":232713,"endTime":90.90351562500001,"note":26,"startBeat":241.909375,"startTick":232233,"startTime":90.71601562500001,"velocity":50},{"channel":9,"duration":0.09375,"durationBeats":0.25,"durationTicks":240,"endBeat":242.41145833333334,"endTick":232715,"endTime":90.904296875,"note":35,"startBeat":242.16145833333334,"startTick":232475,"startTime":90.810546875,"velocity":50},{"channel":2,"duration":0.1875,"durationBeats":0.5,"durationTicks":480,"endBeat":242.63854166666667,"endTick":232933,"endTime":90.989453125,"note":33,"startBeat":242.13854166666667,"startTick":232453,"startTime":90.801953125,"velocity":57},{"channel":9,"duration":0.0078125,"durationBeats":0.020833333333314386,"durationTicks":20,"endBeat":242.68229166666666,"endTick":232975,"endTime":91.005859375,"note":35,"startBeat":242.66145833333334,"startTick":232955,"startTime":90.998046875,"velocity":50},{"channel":0,"duration":0.1875,"durationBeats":0.5,"durationTicks":480,"endBeat":242.85729166666667,"endTick":233143,"endTime":91.071484375,"note":32,"startBeat":242.35729166666667,"startTick":232663,"startTime":90.883984375,"velocity":68},{"channel":12,"duration":1.03125,"durationBeats":2.75,"durationTicks":2640,"endBeat":242.85729166666667,"endTick":233143,"endTime":91.071484375,"note":69,"startBeat":240.10729166666667,"startTick":230503,"startTime":90.040234375,"velocity":50},{"channel":1,"duration":0.1875,"durationBeats":0.5,"durationTicks":480,"endBeat":242.909375,"endTick":233193,"endTime":91.09101562500001,"note":33,"startBeat":242.409375,"startTick":232713,"startTime":90.90351562500001,"velocity":50},{"channel":8,"duration":0.1875,"durationBeats":0.5,"durationTicks":480,"endBeat":242.91666666666666,"endTick":233200,"endTime":91.09375,"note":62,"startBeat":242.41666666666666,"startTick":232720,"startTime":90.90625,"velocity":50},{"channel":9,"duration":0.09375,"durationBeats":0.25,"durationTicks":240,"endBeat":243.08333333333334,"endTick":233360,"endTime":91.15625,"note":42,"startBeat":242.83333333333334,"startTick":233120,"startTime":91.0625,"velocity":50},{"channel":2,"duration":0.1875,"durationBeats":0.5,"durationTicks":480,"endBeat":243.13854166666667,"endTick":233413,"endTime":91.176953125,"note":26,"startBeat":242.63854166666667,"startTick":232933,"startTime":90.989453125,"velocity":57},{"channel":9,"duration":0.09375,"durationBeats":0.25,"durationTicks":240,"endBeat":243.18229166666666,"endTick":233455,"endTime":91.193359375,"note":35,"startBeat":242.93229166666666,"startTick":233215,"startTime":91.099609375,"velocity":50},{"channel":12,"duration":0.0625,"durationBeats":0.1666666666666572,"durationTicks":160,"endBeat":243.27395833333333,"endTick":233543,"endTime":91.227734375,"note":68,"startBeat":243.10729166666667,"startTick":233383,"startTime":91.165234375,"velocity":50},{"channel":9,"duration":0.09375,"durationBeats":0.25,"durationTicks":240,"endBeat":243.33333333333334,"endTick":233600,"endTime":91.25,"note":42,"startBeat":243.08333333333334,"startTick":233360,"startTime":91.15625,"velocity":50},{"channel":0,"duration":0.1875,"durationBeats":0.5,"durationTicks":480,"endBeat":243.35729166666667,"endTick":233623,"endTime":91.258984375,"note":31,"startBeat":242.85729166666667,"startTick":233143,"startTime":91.071484375,"velocity":68},{"channel":1,"duration":0.1875,"durationBeats":0.5,"durationTicks":480,"endBeat":243.409375,"endTick":233673,"endTime":91.27851562500001,"note":26,"startBeat":242.909375,"startTick":233193,"startTime":91.09101562500001,"velocity":50},{"channel":12,"duration":0.140625,"durationBeats":0.375,"durationTicks":360,"endBeat":243.60729166666667,"endTick":233863,"endTime":91.352734375,"note":69,"startBeat":243.23229166666667,"startTick":233503,"startTime":91.212109375,"velocity":50},{"channel":0,"duration":0.375,"durationBeats":1,"durationTicks":960,"endBeat":243.85729166666667,"endTick":234103,"endTime":91.446484375,"note":69,"startBeat":242.85729166666667,"startTick":233143,"startTime":91.071484375,"velocity":68},{"channel":0,"duration":0.375,"durationBeats":1,"durationTicks":960,"endBeat":243.85729166666667,"endTick":234103,"endTime":91.446484375,"note":65,"startBeat":242.85729166666667,"startTick":233143,"startTime":91.071484375,"velocity":68},{"channel":0,"duration":0.375,"durationBeats":1,"durationTicks":960,"endBeat":243.85729166666667,"endTick":234103,"endTime":91.446484375,"note":62,"startBeat":242.85729166666667,"startTick":233143,"startTime":91.071484375,"velocity":68},{"channel":0,"duration":0.375,"durationBeats":1,"durationTicks":960,"endBeat":243.85729166666667,"endTick":234103,"endTime":91.446484375,"note":58,"startBeat":242.85729166666667,"startTick":233143,"startTime":91.071484375,"velocity":68},{"channel":9,"duration":0.09375,"durationBeats":0.25,"durationTicks":240,"endBeat":243.91145833333334,"endTick":234155,"endTime":91.466796875,"note":35,"startBeat":243.66145833333334,"startTick":233915,"startTime":91.373046875,"velocity":50},{"channel":8,"duration":0.1875,"durationBeats":0.5,"durationTicks":480,"endBeat":243.91666666666666,"endTick":234160,"endTime":91.46875,"note":65,"startBeat":243.41666666666666,"startTick":233680,"startTime":91.28125,"velocity":50},{"channel":9,"duration":0.09375,"durationBeats":0.25,"durationTicks":240,"endBeat":244.08333333333334,"endTick":234320,"endTime":91.53125,"note":42,"startBeat":243.83333333333334,"startTick":234080,"startTime":91.4375,"velocity":50},{"channel":2,"duration":0.1875,"durationBeats":0.5,"durationTicks":480,"endBeat":244.13854166666667,"endTick":234373,"endTime":91.551953125,"note":26,"startBeat":243.63854166666667,"startTick":233893,"startTime":91.364453125,"velocity":57},{"channel":9,"duration":0.09375,"durationBeats":0.25,"durationTicks":240,"endBeat":244.18229166666666,"endTick":234415,"endTime":91.568359375,"note":35,"startBeat":243.93229166666666,"startTick":234175,"startTime":91.474609375,"velocity":50},{"channel":9,"duration":0.09375,"durationBeats":0.25,"durationTicks":240,"endBeat":244.33333333333334,"endTick":234560,"endTime":91.625,"note":42,"startBeat":244.08333333333334,"startTick":234320,"startTime":91.53125,"velocity":50},{"channel":0,"duration":0.1875,"durationBeats":0.5,"durationTicks":480,"endBeat":244.35729166666667,"endTick":234583,"endTime":91.633984375,"note":31,"startBeat":243.85729166666667,"startTick":234103,"startTime":91.446484375,"velocity":68},{"channel":1,"duration":0.1875,"durationBeats":0.5,"durationTicks":480,"endBeat":244.409375,"endTick":234633,"endTime":91.65351562500001,"note":26,"startBeat":243.909375,"startTick":234153,"startTime":91.46601562500001,"velocity":50},{"channel":12,"duration":0.1875,"durationBeats":0.5,"durationTicks":480,"endBeat":244.60729166666667,"endTick":234823,"endTime":91.727734375,"note":67,"startBeat":244.10729166666667,"startTick":234343,"startTime":91.540234375,"velocity":50},{"channel":2,"duration":0.1875,"durationBeats":0.5,"durationTicks":480,"endBeat":244.63854166666667,"endTick":234853,"endTime":91.739453125,"note":33,"startBeat":244.13854166666667,"startTick":234373,"startTime":91.551953125,"velocity":57},{"channel":1,"duration":0.1875,"durationBeats":0.5,"durationTicks":480,"endBeat":244.909375,"endTick":235113,"endTime":91.84101562500001,"note":33,"startBeat":244.409375,"startTick":234633,"startTime":91.65351562500001,"velocity":50},{"channel":9,"duration":0.09375,"durationBeats":0.25,"durationTicks":240,"endBeat":244.91145833333334,"endTick":235115,"endTime":91.841796875,"note":35,"startBeat":244.66145833333334,"startTick":234875,"startTime":91.748046875,"velocity":50},{"channel":8,"duration":0.1875,"durationBeats":0.5,"durationTicks":480,"endBeat":244.91666666666666,"endTick":235120,"endTime":91.84375,"note":64,"startBeat":244.41666666666666,"startTick":234640,"startTime":91.65625,"velocity":50},{"channel":9,"duration":0.09375,"durationBeats":0.25,"durationTicks":240,"endBeat":245.08333333333334,"endTick":235280,"endTime":91.90625,"note":42,"startBeat":244.83333333333334,"startTick":235040,"startTime":91.8125,"velocity":50},{"channel":2,"duration":0.1875,"durationBeats":0.5,"durationTicks":480,"endBeat":245.13854166666667,"endTick":235333,"endTime":91.926953125,"note":32,"startBeat":244.63854166666667,"startTick":234853,"startTime":91.739453125,"velocity":57},{"channel":9,"duration":0.09375,"durationBeats":0.25,"durationTicks":240,"endBeat":245.18229166666666,"endTick":235375,"endTime":91.943359375,"note":35,"startBeat":244.93229166666666,"startTick":235135,"startTime":91.849609375,"velocity":50},{"channel":0,"duration":0.1875,"durationBeats":0.5,"durationTicks":480,"endBeat":245.35729166666667,"endTick":235543,"endTime":92.008984375,"note":60,"startBeat":244.85729166666667,"startTick":235063,"startTime":91.821484375,"velocity":68},{"channel":0,"duration":0.1875,"durationBeats":0.5,"durationTicks":480,"endBeat":245.35729166666667,"endTick":235543,"endTime":92.008984375,"note":64,"startBeat":244.85729166666667,"startTick":235063,"startTime":91.821484375,"velocity":68},{"channel":0,"duration":0.1875,"durationBeats":0.5,"durationTicks":480,"endBeat":245.35729166666667,"endTick":235543,"endTime":92.008984375,"note":67,"startBeat":244.85729166666667,"startTick":235063,"startTime":91.821484375,"velocity":68},{"channel":0,"duration":0.1875,"durationBeats":0.5,"durationTicks":480,"endBeat":245.35729166666667,"endTick":235543,"endTime":92.008984375,"note":72,"startBeat":244.85729166666667,"startTick":235063,"startTime":91.821484375,"velocity":68},{"channel":0,"duration":0.1875,"durationBeats":0.5,"durationTicks":480,"endBeat":245.35729166666667,"endTick":235543,"endTime":92.008984375,"note":33,"startBeat":244.85729166666667,"startTick":235063,"startTime":91.821484375,"velocity":68},{"channel":1,"duration":0.1875,"durationBeats":0.5,"durationTicks":480,"endBeat":245.409375,"endTick":235593,"endTime":92.02851562500001,"note":32,"startBeat":244.909375,"startTick":235113,"startTime":91.84101562500001,"velocity":50},{"channel":12,"duration":0.1875,"durationBeats":0.5,"durationTicks":480,"endBeat":245.60729166666667,"endTick":235783,"endTime":92.102734375,"note":65,"startBeat":245.10729166666667,"startTick":235303,"startTime":91.915234375,"velocity":50},{"channel":9,"duration":0.09375,"durationBeats":0.25,"durationTicks":240,"endBeat":245.66145833333334,"endTick":235835,"endTime":92.123046875,"note":35,"startBeat":245.41145833333334,"startTick":235595,"startTime":92.029296875,"velocity":50},{"channel":9,"duration":0.09375,"durationBeats":0.25,"durationTicks":240,"endBeat":245.83333333333334,"endTick":236000,"endTime":92.1875,"note":42,"startBeat":245.58333333333334,"startTick":235760,"startTime":92.09375,"velocity":50},{"channel":9,"duration":0.0234375,"durationBeats":0.0625,"durationTicks":60,"endBeat":245.89583333333334,"endTick":236060,"endTime":92.2109375,"note":42,"startBeat":245.83333333333334,"startTick":236000,"startTime":92.1875,"velocity":50},{"channel":8,"duration":0.1875,"durationBeats":0.5,"durationTicks":480,"endBeat":245.91666666666666,"endTick":236080,"endTime":92.21875,"note":67,"startBeat":245.41666666666666,"startTick":235600,"startTime":92.03125,"velocity":50},{"channel":9,"duration":0.09375,"durationBeats":0.25,"durationTicks":240,"endBeat":245.93229166666666,"endTick":236095,"endTime":92.224609375,"note":35,"startBeat":245.68229166666666,"startTick":235855,"startTime":92.130859375,"velocity":50},{"channel":9,"duration":0.0234375,"durationBeats":0.0625,"durationTicks":60,"endBeat":246.02083333333334,"endTick":236180,"endTime":92.2578125,"note":42,"startBeat":245.95833333333334,"startTick":236120,"startTime":92.234375,"velocity":50},{"channel":0,"duration":0.1875,"durationBeats":0.5,"durationTicks":480,"endBeat":246.10729166666667,"endTick":236263,"endTime":92.290234375,"note":33,"startBeat":245.60729166666667,"startTick":235783,"startTime":92.102734375,"velocity":68},{"channel":9,"duration":0.0234375,"durationBeats":0.0625,"durationTicks":60,"endBeat":246.14583333333334,"endTick":236300,"endTime":92.3046875,"note":42,"startBeat":246.08333333333334,"startTick":236240,"startTime":92.28125,"velocity":50},{"channel":8,"duration":0.09375,"durationBeats":0.25,"durationTicks":240,"endBeat":246.16666666666666,"endTick":236320,"endTime":92.3125,"note":65,"startBeat":245.91666666666666,"startTick":236080,"startTime":92.21875,"velocity":50},{"channel":6,"duration":0.09375,"durationBeats":0.25,"durationTicks":240,"endBeat":246.21875,"endTick":236370,"endTime":92.33203125,"note":74,"startBeat":245.96875,"startTick":236130,"startTime":92.23828125,"velocity":50},{"channel":9,"duration":0.0234375,"durationBeats":0.0625,"durationTicks":60,"endBeat":246.27083333333334,"endTick":236420,"endTime":92.3515625,"note":42,"startBeat":246.20833333333334,"startTick":236360,"startTime":92.328125,"velocity":50},{"channel":0,"duration":0.1875,"durationBeats":0.5,"durationTicks":480,"endBeat":246.35729166666667,"endTick":236503,"endTime":92.383984375,"note":70,"startBeat":245.85729166666667,"startTick":236023,"startTime":92.196484375,"velocity":68},{"channel":0,"duration":0.1875,"durationBeats":0.5,"durationTicks":480,"endBeat":246.35729166666667,"endTick":236503,"endTime":92.383984375,"note":67,"startBeat":245.85729166666667,"startTick":236023,"startTime":92.196484375,"velocity":68},{"channel":0,"duration":0.1875,"durationBeats":0.5,"durationTicks":480,"endBeat":246.35729166666667,"endTick":236503,"endTime":92.383984375,"note":65,"startBeat":245.85729166666667,"startTick":236023,"startTime":92.196484375,"velocity":68},{"channel":0,"duration":0.1875,"durationBeats":0.5,"durationTicks":480,"endBeat":246.35729166666667,"endTick":236503,"endTime":92.383984375,"note":61,"startBeat":245.85729166666667,"startTick":236023,"startTime":92.196484375,"velocity":68},{"channel":9,"duration":0.0234375,"durationBeats":0.0625,"durationTicks":60,"endBeat":246.39583333333334,"endTick":236540,"endTime":92.3984375,"note":42,"startBeat":246.33333333333334,"startTick":236480,"startTime":92.375,"velocity":50},{"channel":9,"duration":0.09375,"durationBeats":0.25,"durationTicks":240,"endBeat":246.41145833333334,"endTick":236555,"endTime":92.404296875,"note":35,"startBeat":246.16145833333334,"startTick":236315,"startTime":92.310546875,"velocity":50},{"channel":6,"duration":0.09375,"durationBeats":0.25,"durationTicks":240,"endBeat":246.46875,"endTick":236610,"endTime":92.42578125,"note":77,"startBeat":246.21875,"startTick":236370,"startTime":92.33203125,"velocity":50},{"channel":12,"duration":0.1875,"durationBeats":0.5,"durationTicks":480,"endBeat":246.60729166666667,"endTick":236743,"endTime":92.477734375,"note":64,"startBeat":246.10729166666667,"startTick":236263,"startTime":92.290234375,"velocity":50},{"channel":9,"duration":0.0078125,"durationBeats":0.020833333333314386,"durationTicks":20,"endBeat":246.68229166666666,"endTick":236815,"endTime":92.505859375,"note":35,"startBeat":246.66145833333334,"startTick":236795,"startTime":92.498046875,"velocity":50},{"channel":6,"duration":0.09375,"durationBeats":0.25,"durationTicks":240,"endBeat":246.71875,"endTick":236850,"endTime":92.51953125,"note":79,"startBeat":246.46875,"startTick":236610,"startTime":92.42578125,"velocity":50},{"channel":0,"duration":0.1875,"durationBeats":0.5,"durationTicks":480,"endBeat":246.85729166666667,"endTick":236983,"endTime":92.571484375,"note":33,"startBeat":246.35729166666667,"startTick":236503,"startTime":92.383984375,"velocity":68},{"channel":8,"duration":0.1875,"durationBeats":0.5,"durationTicks":480,"endBeat":246.91666666666666,"endTick":237040,"endTime":92.59375,"note":67,"startBeat":246.41666666666666,"startTick":236560,"startTime":92.40625,"velocity":50},{"channel":8,"duration":0.046875,"durationBeats":0.125,"durationTicks":120,"endBeat":247.04166666666666,"endTick":237160,"endTime":92.640625,"note":67,"startBeat":246.91666666666666,"startTick":237040,"startTime":92.59375,"velocity":50},{"channel":9,"duration":0.09375,"durationBeats":0.25,"durationTicks":240,"endBeat":247.08333333333334,"endTick":237200,"endTime":92.65625,"note":42,"startBeat":246.83333333333334,"startTick":236960,"startTime":92.5625,"velocity":50},{"channel":9,"duration":0.09375,"durationBeats":0.25,"durationTicks":240,"endBeat":247.18229166666666,"endTick":237295,"endTime":92.693359375,"note":35,"startBeat":246.93229166666666,"startTick":237055,"startTime":92.599609375,"velocity":50},{"channel":6,"duration":0.09375,"durationBeats":0.25,"durationTicks":240,"endBeat":247.21875,"endTick":237330,"endTime":92.70703125,"note":81,"startBeat":246.96875,"startTick":237090,"startTime":92.61328125,"velocity":50},{"channel":0,"duration":0.1875,"durationBeats":0.5,"durationTicks":480,"endBeat":247.35729166666667,"endTick":237463,"endTime":92.758984375,"note":69,"startBeat":246.85729166666667,"startTick":236983,"startTime":92.571484375,"velocity":68},{"channel":0,"duration":0.1875,"durationBeats":0.5,"durationTicks":480,"endBeat":247.35729166666667,"endTick":237463,"endTime":92.758984375,"note":65,"startBeat":246.85729166666667,"startTick":236983,"startTime":92.571484375,"velocity":68},{"channel":0,"duration":0.1875,"durationBeats":0.5,"durationTicks":480,"endBeat":247.35729166666667,"endTick":237463,"endTime":92.758984375,"note":64,"startBeat":246.85729166666667,"startTick":236983,"startTime":92.571484375,"velocity":68},{"channel":0,"duration":0.1875,"durationBeats":0.5,"durationTicks":480,"endBeat":247.35729166666667,"endTick":237463,"endTime":92.758984375,"note":60,"startBeat":246.85729166666667,"startTick":236983,"startTime":92.571484375,"velocity":68},{"channel":0,"duration":0.1875,"durationBeats":0.5,"durationTicks":480,"endBeat":247.35729166666667,"endTick":237463,"endTime":92.758984375,"note":26,"startBeat":246.85729166666667,"startTick":236983,"startTime":92.571484375,"velocity":68},{"channel":8,"duration":0.140625,"durationBeats":0.375,"durationTicks":360,"endBeat":247.41666666666666,"endTick":237520,"endTime":92.78125,"note":69,"startBeat":247.04166666666666,"startTick":237160,"startTime":92.640625,"velocity":50},{"channel":12,"duration":0.1875,"durationBeats":0.5,"durationTicks":480,"endBeat":247.60729166666667,"endTick":237703,"endTime":92.852734375,"note":67,"startBeat":247.10729166666667,"startTick":237223,"startTime":92.665234375,"velocity":50},{"channel":6,"duration":0.09375,"durationBeats":0.25,"durationTicks":240,"endBeat":247.71875,"endTick":237810,"endTime":92.89453125,"note":84,"startBeat":247.46875,"startTick":237570,"startTime":92.80078125,"velocity":50},{"channel":9,"duration":0.09375,"durationBeats":0.25,"durationTicks":240,"endBeat":247.91145833333334,"endTick":237995,"endTime":92.966796875,"note":35,"startBeat":247.66145833333334,"startTick":237755,"startTime":92.873046875,"velocity":50},{"channel":8,"duration":0.0234375,"durationBeats":0.0625,"durationTicks":60,"endBeat":247.97916666666666,"endTick":238060,"endTime":92.9921875,"note":69,"startBeat":247.91666666666666,"startTick":238000,"startTime":92.96875,"velocity":50},{"channel":9,"duration":0.09375,"durationBeats":0.25,"durationTicks":240,"endBeat":248.08333333333334,"endTick":238160,"endTime":93.03125,"note":42,"startBeat":247.83333333333334,"startTick":237920,"startTime":92.9375,"velocity":50},{"channel":8,"duration":0.0703125,"durationBeats":0.1875,"durationTicks":180,"endBeat":248.16666666666666,"endTick":238240,"endTime":93.0625,"note":70,"startBeat":247.97916666666666,"startTick":238060,"startTime":92.9921875,"velocity":50},{"channel":9,"duration":0.09375,"durationBeats":0.25,"durationTicks":240,"endBeat":248.18229166666666,"endTick":238255,"endTime":93.068359375,"note":35,"startBeat":247.93229166666666,"startTick":238015,"startTime":92.974609375,"velocity":50},{"channel":6,"duration":0.09375,"durationBeats":0.25,"durationTicks":240,"endBeat":248.21875,"endTick":238290,"endTime":93.08203125,"note":82,"startBeat":247.96875,"startTick":238050,"startTime":92.98828125,"velocity":50},{"channel":9,"duration":0.09375,"durationBeats":0.25,"durationTicks":240,"endBeat":248.33333333333334,"endTick":238400,"endTime":93.125,"note":42,"startBeat":248.08333333333334,"startTick":238160,"startTime":93.03125,"velocity":50},{"channel":0,"duration":0.1875,"durationBeats":0.5,"durationTicks":480,"endBeat":248.35729166666667,"endTick":238423,"endTime":93.133984375,"note":26,"startBeat":247.85729166666667,"startTick":237943,"startTime":92.946484375,"velocity":68},{"channel":12,"duration":0.1875,"durationBeats":0.5,"durationTicks":480,"endBeat":248.60729166666667,"endTick":238663,"endTime":93.227734375,"note":65,"startBeat":248.10729166666667,"startTick":238183,"startTime":93.040234375,"velocity":50},{"channel":6,"duration":0.09375,"durationBeats":0.25,"durationTicks":240,"endBeat":248.71875,"endTick":238770,"endTime":93.26953125,"note":81,"startBeat":248.46875,"startTick":238530,"startTime":93.17578125,"velocity":50},{"channel":9,"duration":0.09375,"durationBeats":0.25,"durationTicks":240,"endBeat":248.91145833333334,"endTick":238955,"endTime":93.341796875,"note":35,"startBeat":248.66145833333334,"startTick":238715,"startTime":93.248046875,"velocity":50},{"channel":9,"duration":0.09375,"durationBeats":0.25,"durationTicks":240,"endBeat":249.08333333333334,"endTick":239120,"endTime":93.40625,"note":42,"startBeat":248.83333333333334,"startTick":238880,"startTime":93.3125,"velocity":50},{"channel":9,"duration":0.09375,"durationBeats":0.25,"durationTicks":240,"endBeat":249.18229166666666,"endTick":239215,"endTime":93.443359375,"note":35,"startBeat":248.93229166666666,"startTick":238975,"startTime":93.349609375,"velocity":50},{"channel":6,"duration":0.09375,"durationBeats":0.25,"durationTicks":240,"endBeat":249.21875,"endTick":239250,"endTime":93.45703125,"note":80,"startBeat":248.96875,"startTick":239010,"startTime":93.36328125,"velocity":50},{"channel":0,"duration":0.1875,"durationBeats":0.5,"durationTicks":480,"endBeat":249.35729166666667,"endTick":239383,"endTime":93.508984375,"note":65,"startBeat":248.85729166666667,"startTick":238903,"startTime":93.321484375,"velocity":68},{"channel":0,"duration":0.1875,"durationBeats":0.5,"durationTicks":480,"endBeat":249.35729166666667,"endTick":239383,"endTime":93.508984375,"note":69,"startBeat":248.85729166666667,"startTick":238903,"startTime":93.321484375,"velocity":68},{"channel":0,"duration":0.1875,"durationBeats":0.5,"durationTicks":480,"endBeat":249.35729166666667,"endTick":239383,"endTime":93.508984375,"note":60,"startBeat":248.85729166666667,"startTick":238903,"startTime":93.321484375,"velocity":68},{"channel":0,"duration":0.1875,"durationBeats":0.5,"durationTicks":480,"endBeat":249.35729166666667,"endTick":239383,"endTime":93.508984375,"note":64,"startBeat":248.85729166666667,"startTick":238903,"startTime":93.321484375,"velocity":68},{"channel":0,"duration":0.1875,"durationBeats":0.5,"durationTicks":480,"endBeat":249.35729166666667,"endTick":239383,"endTime":93.508984375,"note":38,"startBeat":248.85729166666667,"startTick":238903,"startTime":93.321484375,"velocity":68},{"channel":12,"duration":0.1875,"durationBeats":0.5,"durationTicks":480,"endBeat":249.60729166666667,"endTick":239623,"endTime":93.602734375,"note":64,"startBeat":249.10729166666667,"startTick":239143,"startTime":93.415234375,"velocity":50},{"channel":9,"duration":0.09375,"durationBeats":0.25,"durationTicks":240,"endBeat":249.66145833333334,"endTick":239675,"endTime":93.623046875,"note":35,"startBeat":249.41145833333334,"startTick":239435,"startTime":93.529296875,"velocity":50},{"channel":9,"duration":0.09375,"durationBeats":0.25,"durationTicks":240,"endBeat":249.83333333333334,"endTick":239840,"endTime":93.6875,"note":42,"startBeat":249.58333333333334,"startTick":239600,"startTime":93.59375,"velocity":50},{"channel":9,"duration":0.0234375,"durationBeats":0.0625,"durationTicks":60,"endBeat":249.89583333333334,"endTick":239900,"endTime":93.7109375,"note":42,"startBeat":249.83333333333334,"startTick":239840,"startTime":93.6875,"velocity":50},{"channel":9,"duration":0.09375,"durationBeats":0.25,"durationTicks":240,"endBeat":249.93229166666666,"endTick":239935,"endTime":93.724609375,"note":35,"startBeat":249.68229166666666,"startTick":239695,"startTime":93.630859375,"velocity":50},{"channel":9,"duration":0.0234375,"durationBeats":0.0625,"durationTicks":60,"endBeat":250.02083333333334,"endTick":240020,"endTime":93.7578125,"note":42,"startBeat":249.95833333333334,"startTick":239960,"startTime":93.734375,"velocity":50},{"channel":0,"duration":0.1875,"durationBeats":0.5,"durationTicks":480,"endBeat":250.10729166666667,"endTick":240103,"endTime":93.790234375,"note":33,"startBeat":249.60729166666667,"startTick":239623,"startTime":93.602734375,"velocity":68},{"channel":9,"duration":0.0234375,"durationBeats":0.0625,"durationTicks":60,"endBeat":250.14583333333334,"endTick":240140,"endTime":93.8046875,"note":42,"startBeat":250.08333333333334,"startTick":240080,"startTime":93.78125,"velocity":50},{"channel":9,"duration":0.0234375,"durationBeats":0.0625,"durationTicks":60,"endBeat":250.27083333333334,"endTick":240260,"endTime":93.8515625,"note":42,"startBeat":250.20833333333334,"startTick":240200,"startTime":93.828125,"velocity":50},{"channel":0,"duration":0.1875,"durationBeats":0.5,"durationTicks":480,"endBeat":250.35729166666667,"endTick":240343,"endTime":93.883984375,"note":68,"startBeat":249.85729166666667,"startTick":239863,"startTime":93.696484375,"velocity":68},{"channel":0,"duration":0.1875,"durationBeats":0.5,"durationTicks":480,"endBeat":250.35729166666667,"endTick":240343,"endTime":93.883984375,"note":63,"startBeat":249.85729166666667,"startTick":239863,"startTime":93.696484375,"velocity":68},{"channel":0,"duration":0.1875,"durationBeats":0.5,"durationTicks":480,"endBeat":250.35729166666667,"endTick":240343,"endTime":93.883984375,"note":59,"startBeat":249.85729166666667,"startTick":239863,"startTime":93.696484375,"velocity":68},{"channel":9,"duration":0.09375,"durationBeats":0.25,"durationTicks":240,"endBeat":250.41145833333334,"endTick":240395,"endTime":93.904296875,"note":35,"startBeat":250.16145833333334,"startTick":240155,"startTime":93.810546875,"velocity":50},{"channel":12,"duration":0.1875,"durationBeats":0.5,"durationTicks":480,"endBeat":250.60729166666667,"endTick":240583,"endTime":93.977734375,"note":62,"startBeat":250.10729166666667,"startTick":240103,"startTime":93.790234375,"velocity":50},{"channel":9,"duration":0.09375,"durationBeats":0.25,"durationTicks":240,"endBeat":250.68229166666666,"endTick":240655,"endTime":94.005859375,"note":35,"startBeat":250.43229166666666,"startTick":240415,"startTime":93.912109375,"velocity":50},{"channel":0,"duration":0.1875,"durationBeats":0.5,"durationTicks":480,"endBeat":250.85729166666667,"endTick":240823,"endTime":94.071484375,"note":32,"startBeat":250.35729166666667,"startTick":240343,"startTime":93.883984375,"velocity":68},{"channel":8,"duration":1.03125,"durationBeats":2.75,"durationTicks":2640,"endBeat":251.16666666666666,"endTick":241120,"endTime":94.1875,"note":69,"startBeat":248.41666666666666,"startTick":238480,"startTime":93.15625,"velocity":50},{"channel":0,"duration":0.1875,"durationBeats":0.5,"durationTicks":480,"endBeat":251.35729166666667,"endTick":241303,"endTime":94.258984375,"note":31,"startBeat":250.85729166666667,"startTick":240823,"startTime":94.071484375,"velocity":68},{"channel":8,"duration":0.0625,"durationBeats":0.16666666666668561,"durationTicks":160,"endBeat":251.58333333333334,"endTick":241520,"endTime":94.34375,"note":68,"startBeat":251.41666666666666,"startTick":241360,"startTime":94.28125,"velocity":50},{"channel":12,"duration":0.1875,"durationBeats":0.5,"durationTicks":480,"endBeat":251.60729166666667,"endTick":241543,"endTime":94.352734375,"note":65,"startBeat":251.10729166666667,"startTick":241063,"startTime":94.165234375,"velocity":50},{"channel":0,"duration":0.375,"durationBeats":1,"durationTicks":960,"endBeat":251.85729166666667,"endTick":241783,"endTime":94.446484375,"note":69,"startBeat":250.85729166666667,"startTick":240823,"startTime":94.071484375,"velocity":68},{"channel":0,"duration":0.375,"durationBeats":1,"durationTicks":960,"endBeat":251.85729166666667,"endTick":241783,"endTime":94.446484375,"note":65,"startBeat":250.85729166666667,"startTick":240823,"startTime":94.071484375,"velocity":68},{"channel":0,"duration":0.375,"durationBeats":1,"durationTicks":960,"endBeat":251.85729166666667,"endTick":241783,"endTime":94.446484375,"note":62,"startBeat":250.85729166666667,"startTick":240823,"startTime":94.071484375,"velocity":68},{"channel":0,"duration":0.375,"durationBeats":1,"durationTicks":960,"endBeat":251.85729166666667,"endTick":241783,"endTime":94.446484375,"note":58,"startBeat":250.85729166666667,"startTick":240823,"startTime":94.071484375,"velocity":68},{"channel":8,"duration":0.140625,"durationBeats":0.375,"durationTicks":360,"endBeat":251.91666666666666,"endTick":241840,"endTime":94.46875,"note":69,"startBeat":251.54166666666666,"startTick":241480,"startTime":94.328125,"velocity":50},{"channel":0,"duration":0.1875,"durationBeats":0.5,"durationTicks":480,"endBeat":252.35729166666667,"endTick":242263,"endTime":94.633984375,"note":31,"startBeat":251.85729166666667,"startTick":241783,"startTime":94.446484375,"velocity":68},{"channel":7,"duration":0.09375,"durationBeats":0.25,"durationTicks":240,"endBeat":252.39895833333333,"endTick":242303,"endTime":94.649609375,"note":86,"startBeat":252.14895833333333,"startTick":242063,"startTime":94.555859375,"velocity":50},{"channel":12,"duration":0.1875,"durationBeats":0.5,"durationTicks":480,"endBeat":252.60729166666667,"endTick":242503,"endTime":94.727734375,"note":64,"startBeat":252.10729166666667,"startTick":242023,"startTime":94.540234375,"velocity":50},{"channel":7,"duration":0.09375,"durationBeats":0.25,"durationTicks":240,"endBeat":252.64895833333333,"endTick":242543,"endTime":94.743359375,"note":89,"startBeat":252.39895833333333,"startTick":242303,"startTime":94.649609375,"velocity":50},{"channel":7,"duration":0.09375,"durationBeats":0.25,"durationTicks":240,"endBeat":252.89895833333333,"endTick":242783,"endTime":94.837109375,"note":91,"startBeat":252.64895833333333,"startTick":242543,"startTime":94.743359375,"velocity":50},{"channel":8,"duration":0.1875,"durationBeats":0.5,"durationTicks":480,"endBeat":252.91666666666666,"endTick":242800,"endTime":94.84375,"note":67,"startBeat":252.41666666666666,"startTick":242320,"startTime":94.65625,"velocity":50},{"channel":0,"duration":0.1875,"durationBeats":0.5,"durationTicks":480,"endBeat":253.35729166666667,"endTick":243223,"endTime":95.008984375,"note":60,"startBeat":252.85729166666667,"startTick":242743,"startTime":94.821484375,"velocity":68},{"channel":0,"duration":0.1875,"durationBeats":0.5,"durationTicks":480,"endBeat":253.35729166666667,"endTick":243223,"endTime":95.008984375,"note":64,"startBeat":252.85729166666667,"startTick":242743,"startTime":94.821484375,"velocity":68},{"channel":0,"duration":0.1875,"durationBeats":0.5,"durationTicks":480,"endBeat":253.35729166666667,"endTick":243223,"endTime":95.008984375,"note":67,"startBeat":252.85729166666667,"startTick":242743,"startTime":94.821484375,"velocity":68},{"channel":0,"duration":0.1875,"durationBeats":0.5,"durationTicks":480,"endBeat":253.35729166666667,"endTick":243223,"endTime":95.008984375,"note":72,"startBeat":252.85729166666667,"startTick":242743,"startTime":94.821484375,"velocity":68},{"channel":0,"duration":0.1875,"durationBeats":0.5,"durationTicks":480,"endBeat":253.35729166666667,"endTick":243223,"endTime":95.008984375,"note":33,"startBeat":252.85729166666667,"startTick":242743,"startTime":94.821484375,"velocity":68},{"channel":7,"duration":0.09375,"durationBeats":0.25,"durationTicks":240,"endBeat":253.39895833333333,"endTick":243263,"endTime":95.024609375,"note":93,"startBeat":253.14895833333333,"startTick":243023,"startTime":94.930859375,"velocity":50},{"channel":12,"duration":0.1875,"durationBeats":0.5,"durationTicks":480,"endBeat":253.60729166666667,"endTick":243463,"endTime":95.102734375,"note":62,"startBeat":253.10729166666667,"startTick":242983,"startTime":94.915234375,"velocity":50},{"channel":7,"duration":0.09375,"durationBeats":0.25,"durationTicks":240,"endBeat":253.89895833333333,"endTick":243743,"endTime":95.212109375,"note":95,"startBeat":253.64895833333333,"startTick":243503,"startTime":95.118359375,"velocity":50},{"channel":8,"duration":0.1875,"durationBeats":0.5,"durationTicks":480,"endBeat":253.91666666666666,"endTick":243760,"endTime":95.21875,"note":65,"startBeat":253.41666666666666,"startTick":243280,"startTime":95.03125,"velocity":50},{"channel":0,"duration":0.1875,"durationBeats":0.5,"durationTicks":480,"endBeat":254.10729166666667,"endTick":243943,"endTime":95.290234375,"note":33,"startBeat":253.60729166666667,"startTick":243463,"startTime":95.102734375,"velocity":68},{"channel":0,"duration":0.1875,"durationBeats":0.5,"durationTicks":480,"endBeat":254.35729166666667,"endTick":244183,"endTime":95.383984375,"note":70,"startBeat":253.85729166666667,"startTick":243703,"startTime":95.196484375,"velocity":68},{"channel":0,"duration":0.1875,"durationBeats":0.5,"durationTicks":480,"endBeat":254.35729166666667,"endTick":244183,"endTime":95.383984375,"note":67,"startBeat":253.85729166666667,"startTick":243703,"startTime":95.196484375,"velocity":68},{"channel":0,"duration":0.1875,"durationBeats":0.5,"durationTicks":480,"endBeat":254.35729166666667,"endTick":244183,"endTime":95.383984375,"note":65,"startBeat":253.85729166666667,"startTick":243703,"startTime":95.196484375,"velocity":68},{"channel":0,"duration":0.1875,"durationBeats":0.5,"durationTicks":480,"endBeat":254.35729166666667,"endTick":244183,"endTime":95.383984375,"note":61,"startBeat":253.85729166666667,"startTick":243703,"startTime":95.196484375,"velocity":68},{"channel":7,"duration":0.09375,"durationBeats":0.25,"durationTicks":240,"endBeat":254.39895833333333,"endTick":244223,"endTime":95.399609375,"note":94,"startBeat":254.14895833333333,"startTick":243983,"startTime":95.305859375,"velocity":50},{"channel":12,"duration":0.1875,"durationBeats":0.5,"durationTicks":480,"endBeat":254.60729166666667,"endTick":244423,"endTime":95.477734375,"note":60,"startBeat":254.10729166666667,"startTick":243943,"startTime":95.290234375,"velocity":50},{"channel":0,"duration":0.1875,"durationBeats":0.5,"durationTicks":480,"endBeat":254.85729166666667,"endTick":244663,"endTime":95.571484375,"note":33,"startBeat":254.35729166666667,"startTick":244183,"startTime":95.383984375,"velocity":68},{"channel":7,"duration":0.09375,"durationBeats":0.25,"durationTicks":240,"endBeat":254.89895833333333,"endTick":244703,"endTime":95.587109375,"note":93,"startBeat":254.64895833333333,"startTick":244463,"startTime":95.493359375,"velocity":50},{"channel":8,"duration":0.1875,"durationBeats":0.5,"durationTicks":480,"endBeat":254.91666666666666,"endTick":244720,"endTime":95.59375,"note":64,"startBeat":254.41666666666666,"startTick":244240,"startTime":95.40625,"velocity":50},{"channel":12,"duration":0.1875,"durationBeats":0.5,"durationTicks":480,"endBeat":255.10729166666667,"endTick":244903,"endTime":95.665234375,"note":62,"startBeat":254.60729166666667,"startTick":244423,"startTime":95.477734375,"velocity":50},{"channel":0,"duration":0.1875,"durationBeats":0.5,"durationTicks":480,"endBeat":255.35729166666667,"endTick":245143,"endTime":95.758984375,"note":69,"startBeat":254.85729166666667,"startTick":244663,"startTime":95.571484375,"velocity":68},{"channel":0,"duration":0.1875,"durationBeats":0.5,"durationTicks":480,"endBeat":255.35729166666667,"endTick":245143,"endTime":95.758984375,"note":65,"startBeat":254.85729166666667,"startTick":244663,"startTime":95.571484375,"velocity":68},{"channel":0,"duration":0.1875,"durationBeats":0.5,"durationTicks":480,"endBeat":255.35729166666667,"endTick":245143,"endTime":95.758984375,"note":64,"startBeat":254.85729166666667,"startTick":244663,"startTime":95.571484375,"velocity":68},{"channel":0,"duration":0.1875,"durationBeats":0.5,"durationTicks":480,"endBeat":255.35729166666667,"endTick":245143,"endTime":95.758984375,"note":60,"startBeat":254.85729166666667,"startTick":244663,"startTime":95.571484375,"velocity":68},{"channel":0,"duration":0.1875,"durationBeats":0.5,"durationTicks":480,"endBeat":255.35729166666667,"endTick":245143,"endTime":95.758984375,"note":26,"startBeat":254.85729166666667,"startTick":244663,"startTime":95.571484375,"velocity":68},{"channel":7,"duration":0.09375,"durationBeats":0.25,"durationTicks":240,"endBeat":255.39895833333333,"endTick":245183,"endTime":95.774609375,"note":92,"startBeat":255.14895833333333,"startTick":244943,"startTime":95.680859375,"velocity":50},{"channel":9,"duration":0.0234375,"durationBeats":0.0625,"durationTicks":60,"endBeat":255.784375,"endTick":245553,"endTime":95.91914062500001,"note":69,"startBeat":255.721875,"startTick":245493,"startTime":95.89570312500001,"velocity":64},{"channel":9,"duration":0.0234375,"durationBeats":0.0625,"durationTicks":60,"endBeat":255.784375,"endTick":245553,"endTime":95.91914062500001,"note":44,"startBeat":255.721875,"startTick":245493,"startTime":95.89570312500001,"velocity":64},{"channel":8,"duration":0.1875,"durationBeats":0.5,"durationTicks":480,"endBeat":255.91666666666666,"endTick":245680,"endTime":95.96875,"note":67,"startBeat":255.41666666666666,"startTick":245200,"startTime":95.78125,"velocity":50},{"channel":0,"duration":0.1874999999999858,"durationBeats":0.4999999999999716,"durationTicks":480,"endBeat":256.35729166666664,"endTick":246103,"endTime":96.13398437499998,"note":26,"startBeat":255.85729166666667,"startTick":245623,"startTime":95.946484375,"velocity":68},{"channel":8,"duration":0.1875,"durationBeats":0.5,"durationTicks":480,"endBeat":256.9166666666667,"endTick":246640,"endTime":96.34375,"note":65,"startBeat":256.4166666666667,"startTick":246160,"startTime":96.15625,"velocity":50},{"channel":0,"duration":0.1875,"durationBeats":0.5,"durationTicks":480,"endBeat":257.35729166666664,"endTick":247063,"endTime":96.50898437499998,"note":65,"startBeat":256.85729166666664,"startTick":246583,"startTime":96.32148437499998,"velocity":68},{"channel":0,"duration":0.1875,"durationBeats":0.5,"durationTicks":480,"endBeat":257.35729166666664,"endTick":247063,"endTime":96.50898437499998,"note":69,"startBeat":256.85729166666664,"startTick":246583,"startTime":96.32148437499998,"velocity":68},{"channel":0,"duration":0.1875,"durationBeats":0.5,"durationTicks":480,"endBeat":257.35729166666664,"endTick":247063,"endTime":96.50898437499998,"note":60,"startBeat":256.85729166666664,"startTick":246583,"startTime":96.32148437499998,"velocity":68},{"channel":0,"duration":0.1875,"durationBeats":0.5,"durationTicks":480,"endBeat":257.35729166666664,"endTick":247063,"endTime":96.50898437499998,"note":64,"startBeat":256.85729166666664,"startTick":246583,"startTime":96.32148437499998,"velocity":68},{"channel":0,"duration":0.1875,"durationBeats":0.5,"durationTicks":480,"endBeat":257.35729166666664,"endTick":247063,"endTime":96.50898437499998,"note":38,"startBeat":256.85729166666664,"startTick":246583,"startTime":96.32148437499998,"velocity":68},{"channel":8,"duration":0.1875,"durationBeats":0.5,"durationTicks":480,"endBeat":257.9166666666667,"endTick":247600,"endTime":96.71875,"note":64,"startBeat":257.4166666666667,"startTick":247120,"startTime":96.53125,"velocity":50},{"channel":0,"duration":0.1875,"durationBeats":0.5,"durationTicks":480,"endBeat":258.10729166666664,"endTick":247783,"endTime":96.79023437499998,"note":33,"startBeat":257.60729166666664,"startTick":247303,"startTime":96.60273437499998,"velocity":68},{"channel":0,"duration":0.1875,"durationBeats":0.5,"durationTicks":480,"endBeat":258.35729166666664,"endTick":248023,"endTime":96.88398437499998,"note":68,"startBeat":257.85729166666664,"startTick":247543,"startTime":96.69648437499998,"velocity":68},{"channel":0,"duration":0.1875,"durationBeats":0.5,"durationTicks":480,"endBeat":258.35729166666664,"endTick":248023,"endTime":96.88398437499998,"note":63,"startBeat":257.85729166666664,"startTick":247543,"startTime":96.69648437499998,"velocity":68},{"channel":0,"duration":0.1875,"durationBeats":0.5,"durationTicks":480,"endBeat":258.35729166666664,"endTick":248023,"endTime":96.88398437499998,"note":59,"startBeat":257.85729166666664,"startTick":247543,"startTime":96.69648437499998,"velocity":68},{"channel":0,"duration":0.1875,"durationBeats":0.5,"durationTicks":480,"endBeat":258.85729166666664,"endTick":248503,"endTime":97.07148437499998,"note":32,"startBeat":258.35729166666664,"startTick":248023,"startTime":96.88398437499998,"velocity":68},{"channel":8,"duration":0.1875,"durationBeats":0.5,"durationTicks":480,"endBeat":258.9166666666667,"endTick":248560,"endTime":97.09375,"note":62,"startBeat":258.4166666666667,"startTick":248080,"startTime":96.90625,"velocity":50},{"channel":12,"duration":0.06250000000001421,"durationBeats":0.16666666666668561,"durationTicks":160,"endBeat":259.2739583333333,"endTick":248903,"endTime":97.227734375,"note":68,"startBeat":259.10729166666664,"startTick":248743,"startTime":97.16523437499998,"velocity":50},{"channel":0,"duration":0.1875,"durationBeats":0.5,"durationTicks":480,"endBeat":259.35729166666664,"endTick":248983,"endTime":97.25898437499998,"note":31,"startBeat":258.85729166666664,"startTick":248503,"startTime":97.07148437499998,"velocity":68},{"channel":12,"duration":0.140625,"durationBeats":0.375,"durationTicks":360,"endBeat":259.60729166666664,"endTick":249223,"endTime":97.35273437499998,"note":69,"startBeat":259.23229166666664,"startTick":248863,"startTime":97.21210937499998,"velocity":50},{"channel":0,"duration":0.375,"durationBeats":1,"durationTicks":960,"endBeat":259.85729166666664,"endTick":249463,"endTime":97.44648437499998,"note":69,"startBeat":258.85729166666664,"startTick":248503,"startTime":97.07148437499998,"velocity":68},{"channel":0,"duration":0.375,"durationBeats":1,"durationTicks":960,"endBeat":259.85729166666664,"endTick":249463,"endTime":97.44648437499998,"note":65,"startBeat":258.85729166666664,"startTick":248503,"startTime":97.07148437499998,"velocity":68},{"channel":0,"duration":0.375,"durationBeats":1,"durationTicks":960,"endBeat":259.85729166666664,"endTick":249463,"endTime":97.44648437499998,"note":62,"startBeat":258.85729166666664,"startTick":248503,"startTime":97.07148437499998,"velocity":68},{"channel":0,"duration":0.375,"durationBeats":1,"durationTicks":960,"endBeat":259.85729166666664,"endTick":249463,"endTime":97.44648437499998,"note":58,"startBeat":258.85729166666664,"startTick":248503,"startTime":97.07148437499998,"velocity":68},{"channel":8,"duration":0.1875,"durationBeats":0.5,"durationTicks":480,"endBeat":259.9166666666667,"endTick":249520,"endTime":97.46875,"note":65,"startBeat":259.4166666666667,"startTick":249040,"startTime":97.28125,"velocity":50},{"channel":0,"duration":0.1875,"durationBeats":0.5,"durationTicks":480,"endBeat":260.35729166666664,"endTick":249943,"endTime":97.63398437499998,"note":31,"startBeat":259.85729166666664,"startTick":249463,"startTime":97.44648437499998,"velocity":68},{"channel":12,"duration":0.1875,"durationBeats":0.5,"durationTicks":480,"endBeat":260.60729166666664,"endTick":250183,"endTime":97.72773437499998,"note":67,"startBeat":260.10729166666664,"startTick":249703,"startTime":97.54023437499998,"velocity":50},{"channel":8,"duration":0.1875,"durationBeats":0.5,"durationTicks":480,"endBeat":260.9166666666667,"endTick":250480,"endTime":97.84375,"note":64,"startBeat":260.4166666666667,"startTick":250000,"startTime":97.65625,"velocity":50},{"channel":0,"duration":0.1875,"durationBeats":0.5,"durationTicks":480,"endBeat":261.35729166666664,"endTick":250903,"endTime":98.00898437499998,"note":60,"startBeat":260.85729166666664,"startTick":250423,"startTime":97.82148437499998,"velocity":68},{"channel":0,"duration":0.1875,"durationBeats":0.5,"durationTicks":480,"endBeat":261.35729166666664,"endTick":250903,"endTime":98.00898437499998,"note":64,"startBeat":260.85729166666664,"startTick":250423,"startTime":97.82148437499998,"velocity":68},{"channel":0,"duration":0.1875,"durationBeats":0.5,"durationTicks":480,"endBeat":261.35729166666664,"endTick":250903,"endTime":98.00898437499998,"note":67,"startBeat":260.85729166666664,"startTick":250423,"startTime":97.82148437499998,"velocity":68},{"channel":0,"duration":0.1875,"durationBeats":0.5,"durationTicks":480,"endBeat":261.35729166666664,"endTick":250903,"endTime":98.00898437499998,"note":72,"startBeat":260.85729166666664,"startTick":250423,"startTime":97.82148437499998,"velocity":68},{"channel":0,"duration":0.1875,"durationBeats":0.5,"durationTicks":480,"endBeat":261.35729166666664,"endTick":250903,"endTime":98.00898437499998,"note":33,"startBeat":260.85729166666664,"startTick":250423,"startTime":97.82148437499998,"velocity":68},{"channel":12,"duration":0.1875,"durationBeats":0.5,"durationTicks":480,"endBeat":261.60729166666664,"endTick":251143,"endTime":98.10273437499998,"note":65,"startBeat":261.10729166666664,"startTick":250663,"startTime":97.91523437499998,"velocity":50},{"channel":2,"duration":0.1875,"durationBeats":0.5,"durationTicks":480,"endBeat":261.63854166666664,"endTick":251173,"endTime":98.11445312499998,"note":31,"startBeat":261.13854166666664,"startTick":250693,"startTime":97.92695312499998,"velocity":57},{"channel":1,"duration":0.1875,"durationBeats":0.5,"durationTicks":480,"endBeat":261.909375,"endTick":251433,"endTime":98.21601562500001,"note":31,"startBeat":261.409375,"startTick":250953,"startTime":98.02851562500001,"velocity":50},{"channel":8,"duration":0.1875,"durationBeats":0.5,"durationTicks":480,"endBeat":261.9166666666667,"endTick":251440,"endTime":98.21875,"note":62,"startBeat":261.4166666666667,"startTick":250960,"startTime":98.03125,"velocity":50},{"channel":0,"duration":0.1875,"durationBeats":0.5,"durationTicks":480,"endBeat":262.10729166666664,"endTick":251623,"endTime":98.29023437499998,"note":33,"startBeat":261.60729166666664,"startTick":251143,"startTime":98.10273437499998,"velocity":68},{"channel":0,"duration":0.1875,"durationBeats":0.5,"durationTicks":480,"endBeat":262.35729166666664,"endTick":251863,"endTime":98.38398437499998,"note":70,"startBeat":261.85729166666664,"startTick":251383,"startTime":98.19648437499998,"velocity":68},{"channel":0,"duration":0.1875,"durationBeats":0.5,"durationTicks":480,"endBeat":262.35729166666664,"endTick":251863,"endTime":98.38398437499998,"note":67,"startBeat":261.85729166666664,"startTick":251383,"startTime":98.19648437499998,"velocity":68},{"channel":0,"duration":0.1875,"durationBeats":0.5,"durationTicks":480,"endBeat":262.35729166666664,"endTick":251863,"endTime":98.38398437499998,"note":65,"startBeat":261.85729166666664,"startTick":251383,"startTime":98.19648437499998,"velocity":68},{"channel":0,"duration":0.1875,"durationBeats":0.5,"durationTicks":480,"endBeat":262.35729166666664,"endTick":251863,"endTime":98.38398437499998,"note":61,"startBeat":261.85729166666664,"startTick":251383,"startTime":98.19648437499998,"velocity":68},{"channel":12,"duration":0.1875,"durationBeats":0.5,"durationTicks":480,"endBeat":262.60729166666664,"endTick":252103,"endTime":98.47773437499998,"note":64,"startBeat":262.10729166666664,"startTick":251623,"startTime":98.29023437499998,"velocity":50},{"channel":2,"duration":0.1875,"durationBeats":0.5,"durationTicks":480,"endBeat":262.63854166666664,"endTick":252133,"endTime":98.48945312499998,"note":31,"startBeat":262.13854166666664,"startTick":251653,"startTime":98.30195312499998,"velocity":57},{"channel":0,"duration":0.1875,"durationBeats":0.5,"durationTicks":480,"endBeat":262.85729166666664,"endTick":252343,"endTime":98.57148437499998,"note":33,"startBeat":262.35729166666664,"startTick":251863,"startTime":98.38398437499998,"velocity":68},{"channel":1,"duration":0.1875,"durationBeats":0.5,"durationTicks":480,"endBeat":262.909375,"endTick":252393,"endTime":98.59101562500001,"note":31,"startBeat":262.409375,"startTick":251913,"startTime":98.40351562500001,"velocity":50},{"channel":8,"duration":0.1875,"durationBeats":0.5,"durationTicks":480,"endBeat":262.9166666666667,"endTick":252400,"endTime":98.59375,"note":60,"startBeat":262.4166666666667,"startTick":251920,"startTime":98.40625,"velocity":50},{"channel":2,"duration":0.1875,"durationBeats":0.5,"durationTicks":480,"endBeat":263.13854166666664,"endTick":252613,"endTime":98.67695312499998,"note":32,"startBeat":262.63854166666664,"startTick":252133,"startTime":98.48945312499998,"velocity":57},{"channel":0,"duration":0.1875,"durationBeats":0.5,"durationTicks":480,"endBeat":263.35729166666664,"endTick":252823,"endTime":98.75898437499998,"note":69,"startBeat":262.85729166666664,"startTick":252343,"startTime":98.57148437499998,"velocity":68},{"channel":0,"duration":0.1875,"durationBeats":0.5,"durationTicks":480,"endBeat":263.35729166666664,"endTick":252823,"endTime":98.75898437499998,"note":65,"startBeat":262.85729166666664,"startTick":252343,"startTime":98.57148437499998,"velocity":68},{"channel":0,"duration":0.1875,"durationBeats":0.5,"durationTicks":480,"endBeat":263.35729166666664,"endTick":252823,"endTime":98.75898437499998,"note":64,"startBeat":262.85729166666664,"startTick":252343,"startTime":98.57148437499998,"velocity":68},{"channel":0,"duration":0.1875,"durationBeats":0.5,"durationTicks":480,"endBeat":263.35729166666664,"endTick":252823,"endTime":98.75898437499998,"note":60,"startBeat":262.85729166666664,"startTick":252343,"startTime":98.57148437499998,"velocity":68},{"channel":0,"duration":0.1875,"durationBeats":0.5,"durationTicks":480,"endBeat":263.35729166666664,"endTick":252823,"endTime":98.75898437499998,"note":26,"startBeat":262.85729166666664,"startTick":252343,"startTime":98.57148437499998,"velocity":68},{"channel":1,"duration":0.1875,"durationBeats":0.5,"durationTicks":480,"endBeat":263.409375,"endTick":252873,"endTime":98.77851562500001,"note":32,"startBeat":262.909375,"startTick":252393,"startTime":98.59101562500001,"velocity":50},{"channel":8,"duration":0.1875,"durationBeats":0.5,"durationTicks":480,"endBeat":263.4166666666667,"endTick":252880,"endTime":98.78125,"note":62,"startBeat":262.9166666666667,"startTick":252400,"startTime":98.59375,"velocity":50},{"channel":12,"duration":0.1875,"durationBeats":0.5,"durationTicks":480,"endBeat":263.60729166666664,"endTick":253063,"endTime":98.85273437499998,"note":67,"startBeat":263.10729166666664,"startTick":252583,"startTime":98.66523437499998,"velocity":50},{"channel":2,"duration":0.1875,"durationBeats":0.5,"durationTicks":480,"endBeat":263.63854166666664,"endTick":253093,"endTime":98.86445312499998,"note":33,"startBeat":263.13854166666664,"startTick":252613,"startTime":98.67695312499998,"velocity":57},{"channel":1,"duration":0.1875,"durationBeats":0.5,"durationTicks":480,"endBeat":263.909375,"endTick":253353,"endTime":98.96601562500001,"note":33,"startBeat":263.409375,"startTick":252873,"startTime":98.77851562500001,"velocity":50},{"channel":2,"duration":0.09375,"durationBeats":0.25,"durationTicks":240,"endBeat":264.13854166666664,"endTick":253573,"endTime":99.05195312499998,"note":33,"startBeat":263.88854166666664,"startTick":253333,"startTime":98.95820312499998,"velocity":57},{"channel":0,"duration":0.1875,"durationBeats":0.5,"durationTicks":480,"endBeat":264.35729166666664,"endTick":253783,"endTime":99.13398437499998,"note":26,"startBeat":263.85729166666664,"startTick":253303,"startTime":98.94648437499998,"velocity":68},{"channel":1,"duration":0.09375,"durationBeats":0.25,"durationTicks":240,"endBeat":264.409375,"endTick":253833,"endTime":99.15351562500001,"note":33,"startBeat":264.159375,"startTick":253593,"startTime":99.05976562500001,"velocity":50},{"channel":12,"duration":0.1875,"durationBeats":0.5,"durationTicks":480,"endBeat":264.60729166666664,"endTick":254023,"endTime":99.22773437499998,"note":65,"startBeat":264.10729166666664,"startTick":253543,"startTime":99.04023437499998,"velocity":50},{"channel":2,"duration":0.1875,"durationBeats":0.5,"durationTicks":480,"endBeat":265.13854166666664,"endTick":254533,"endTime":99.42695312499998,"note":26,"startBeat":264.63854166666664,"startTick":254053,"startTime":99.23945312499998,"velocity":57},{"channel":0,"duration":0.1875,"durationBeats":0.5,"durationTicks":480,"endBeat":265.35729166666664,"endTick":254743,"endTime":99.50898437499998,"note":65,"startBeat":264.85729166666664,"startTick":254263,"startTime":99.32148437499998,"velocity":68},{"channel":0,"duration":0.1875,"durationBeats":0.5,"durationTicks":480,"endBeat":265.35729166666664,"endTick":254743,"endTime":99.50898437499998,"note":69,"startBeat":264.85729166666664,"startTick":254263,"startTime":99.32148437499998,"velocity":68},{"channel":0,"duration":0.1875,"durationBeats":0.5,"durationTicks":480,"endBeat":265.35729166666664,"endTick":254743,"endTime":99.50898437499998,"note":60,"startBeat":264.85729166666664,"startTick":254263,"startTime":99.32148437499998,"velocity":68},{"channel":0,"duration":0.1875,"durationBeats":0.5,"durationTicks":480,"endBeat":265.35729166666664,"endTick":254743,"endTime":99.50898437499998,"note":64,"startBeat":264.85729166666664,"startTick":254263,"startTime":99.32148437499998,"velocity":68},{"channel":0,"duration":0.1875,"durationBeats":0.5,"durationTicks":480,"endBeat":265.35729166666664,"endTick":254743,"endTime":99.50898437499998,"note":38,"startBeat":264.85729166666664,"startTick":254263,"startTime":99.32148437499998,"velocity":68},{"channel":1,"duration":0.1875,"durationBeats":0.5,"durationTicks":480,"endBeat":265.409375,"endTick":254793,"endTime":99.52851562500001,"note":26,"startBeat":264.909375,"startTick":254313,"startTime":99.34101562500001,"velocity":50},{"channel":12,"duration":0.1875,"durationBeats":0.5,"durationTicks":480,"endBeat":265.60729166666664,"endTick":254983,"endTime":99.60273437499998,"note":64,"startBeat":265.10729166666664,"startTick":254503,"startTime":99.41523437499998,"velocity":50},{"channel":0,"duration":0.1875,"durationBeats":0.5,"durationTicks":480,"endBeat":266.10729166666664,"endTick":255463,"endTime":99.79023437499998,"note":33,"startBeat":265.60729166666664,"startTick":254983,"startTime":99.60273437499998,"velocity":68},{"channel":2,"duration":0.1875,"durationBeats":0.5,"durationTicks":480,"endBeat":266.13854166666664,"endTick":255493,"endTime":99.80195312499998,"note":38,"startBeat":265.63854166666664,"startTick":255013,"startTime":99.61445312499998,"velocity":57},{"channel":0,"duration":0.1875,"durationBeats":0.5,"durationTicks":480,"endBeat":266.35729166666664,"endTick":255703,"endTime":99.88398437499998,"note":68,"startBeat":265.85729166666664,"startTick":255223,"startTime":99.69648437499998,"velocity":68},{"channel":0,"duration":0.1875,"durationBeats":0.5,"durationTicks":480,"endBeat":266.35729166666664,"endTick":255703,"endTime":99.88398437499998,"note":63,"startBeat":265.85729166666664,"startTick":255223,"startTime":99.69648437499998,"velocity":68},{"channel":0,"duration":0.1875,"durationBeats":0.5,"durationTicks":480,"endBeat":266.35729166666664,"endTick":255703,"endTime":99.88398437499998,"note":59,"startBeat":265.85729166666664,"startTick":255223,"startTime":99.69648437499998,"velocity":68},{"channel":1,"duration":0.1875,"durationBeats":0.5,"durationTicks":480,"endBeat":266.409375,"endTick":255753,"endTime":99.90351562500001,"note":38,"startBeat":265.909375,"startTick":255273,"startTime":99.71601562500001,"velocity":50},{"channel":12,"duration":0.1875,"durationBeats":0.5,"durationTicks":480,"endBeat":266.60729166666664,"endTick":255943,"endTime":99.97773437499998,"note":62,"startBeat":266.10729166666664,"startTick":255463,"startTime":99.79023437499998,"velocity":50},{"channel":2,"duration":0.1875,"durationBeats":0.5,"durationTicks":480,"endBeat":266.63854166666664,"endTick":255973,"endTime":99.98945312499998,"note":26,"startBeat":266.13854166666664,"startTick":255493,"startTime":99.80195312499998,"velocity":57},{"channel":1,"duration":0.1875,"durationBeats":0.5,"durationTicks":480,"endBeat":266.909375,"endTick":256233,"endTime":100.09101562500001,"note":26,"startBeat":266.409375,"startTick":255753,"startTime":99.90351562500001,"velocity":50},{"channel":9,"duration":0.09375,"durationBeats":0.25,"durationTicks":240,"endBeat":266.9114583333333,"endTick":256235,"endTime":100.091796875,"note":35,"startBeat":266.6614583333333,"startTick":255995,"startTime":99.998046875,"velocity":50},{"channel":9,"duration":0.09375,"durationBeats":0.25,"durationTicks":240,"endBeat":267.0833333333333,"endTick":256400,"endTime":100.15625,"note":42,"startBeat":266.8333333333333,"startTick":256160,"startTime":100.0625,"velocity":50},{"channel":2,"duration":0.1875,"durationBeats":0.5,"durationTicks":480,"endBeat":267.13854166666664,"endTick":256453,"endTime":100.17695312499998,"note":33,"startBeat":266.63854166666664,"startTick":255973,"startTime":99.98945312499998,"velocity":57},{"channel":9,"duration":0.09375,"durationBeats":0.25,"durationTicks":240,"endBeat":267.1822916666667,"endTick":256495,"endTime":100.193359375,"note":35,"startBeat":266.9322916666667,"startTick":256255,"startTime":100.099609375,"velocity":50},{"channel":9,"duration":0.09375,"durationBeats":0.25,"durationTicks":240,"endBeat":267.3541666666667,"endTick":256660,"endTime":100.2578125,"note":42,"startBeat":267.1041666666667,"startTick":256420,"startTime":100.1640625,"velocity":50},{"channel":1,"duration":0.1875,"durationBeats":0.5,"durationTicks":480,"endBeat":267.409375,"endTick":256713,"endTime":100.27851562500001,"note":33,"startBeat":266.909375,"startTick":256233,"startTime":100.09101562500001,"velocity":50},{"channel":8,"duration":0.0625,"durationBeats":0.16666666666662877,"durationTicks":160,"endBeat":267.5833333333333,"endTick":256880,"endTime":100.34375,"note":68,"startBeat":267.4166666666667,"startTick":256720,"startTime":100.28125,"velocity":50},{"channel":12,"duration":0.1875,"durationBeats":0.5,"durationTicks":480,"endBeat":267.60729166666664,"endTick":256903,"endTime":100.35273437499998,"note":65,"startBeat":267.10729166666664,"startTick":256423,"startTime":100.16523437499998,"velocity":50},{"channel":9,"duration":0.09375,"durationBeats":0.25,"durationTicks":240,"endBeat":267.9114583333333,"endTick":257195,"endTime":100.466796875,"note":35,"startBeat":267.6614583333333,"startTick":256955,"startTime":100.373046875,"velocity":50},{"channel":8,"duration":0.140625,"durationBeats":0.375,"durationTicks":360,"endBeat":267.9166666666667,"endTick":257200,"endTime":100.46875,"note":69,"startBeat":267.5416666666667,"startTick":256840,"startTime":100.328125,"velocity":50},{"channel":9,"duration":0.09375,"durationBeats":0.25,"durationTicks":240,"endBeat":268.0833333333333,"endTick":257360,"endTime":100.53125,"note":42,"startBeat":267.8333333333333,"startTick":257120,"startTime":100.4375,"velocity":50},{"channel":0,"duration":0.09375,"durationBeats":0.25,"durationTicks":240,"endBeat":268.10729166666664,"endTick":257383,"endTime":100.54023437499998,"note":79,"startBeat":267.85729166666664,"startTick":257143,"startTime":100.44648437499998,"velocity":68},{"channel":2,"duration":0.1875,"durationBeats":0.5,"durationTicks":480,"endBeat":268.13854166666664,"endTick":257413,"endTime":100.55195312499998,"note":26,"startBeat":267.63854166666664,"startTick":256933,"startTime":100.36445312499998,"velocity":57},{"channel":9,"duration":0.09375,"durationBeats":0.25,"durationTicks":240,"endBeat":268.1822916666667,"endTick":257455,"endTime":100.568359375,"note":35,"startBeat":267.9322916666667,"startTick":257215,"startTime":100.474609375,"velocity":50},{"channel":9,"duration":0.09375,"durationBeats":0.25,"durationTicks":240,"endBeat":268.3541666666667,"endTick":257620,"endTime":100.6328125,"note":42,"startBeat":268.1041666666667,"startTick":257380,"startTime":100.5390625,"velocity":50},{"channel":1,"duration":0.1875,"durationBeats":0.5,"durationTicks":480,"endBeat":268.409375,"endTick":257673,"endTime":100.65351562500001,"note":26,"startBeat":267.909375,"startTick":257193,"startTime":100.46601562500001,"velocity":50},{"channel":12,"duration":0.1875,"durationBeats":0.5,"durationTicks":480,"endBeat":268.60729166666664,"endTick":257863,"endTime":100.72773437499998,"note":64,"startBeat":268.10729166666664,"startTick":257383,"startTime":100.54023437499998,"velocity":50},{"channel":2,"duration":0.1875,"durationBeats":0.5,"durationTicks":480,"endBeat":268.63854166666664,"endTick":257893,"endTime":100.73945312499998,"note":33,"startBeat":268.13854166666664,"startTick":257413,"startTime":100.55195312499998,"velocity":57},{"channel":1,"duration":0.1875,"durationBeats":0.5,"durationTicks":480,"endBeat":268.909375,"endTick":258153,"endTime":100.84101562500001,"note":33,"startBeat":268.409375,"startTick":257673,"startTime":100.65351562500001,"velocity":50},{"channel":9,"duration":0.09375,"durationBeats":0.25,"durationTicks":240,"endBeat":268.9114583333333,"endTick":258155,"endTime":100.841796875,"note":35,"startBeat":268.6614583333333,"startTick":257915,"startTime":100.748046875,"velocity":50},{"channel":8,"duration":0.1875,"durationBeats":0.5,"durationTicks":480,"endBeat":268.9166666666667,"endTick":258160,"endTime":100.84375,"note":67,"startBeat":268.4166666666667,"startTick":257680,"startTime":100.65625,"velocity":50},{"channel":9,"duration":0.09375,"durationBeats":0.25,"durationTicks":240,"endBeat":269.0833333333333,"endTick":258320,"endTime":100.90625,"note":42,"startBeat":268.8333333333333,"startTick":258080,"startTime":100.8125,"velocity":50},{"channel":2,"duration":0.1875,"durationBeats":0.5,"durationTicks":480,"endBeat":269.13854166666664,"endTick":258373,"endTime":100.92695312499998,"note":32,"startBeat":268.63854166666664,"startTick":257893,"startTime":100.73945312499998,"velocity":57},{"channel":9,"duration":0.09375,"durationBeats":0.25,"durationTicks":240,"endBeat":269.1822916666667,"endTick":258415,"endTime":100.943359375,"note":35,"startBeat":268.9322916666667,"startTick":258175,"startTime":100.849609375,"velocity":50},{"channel":9,"duration":0.09375,"durationBeats":0.25,"durationTicks":240,"endBeat":269.3541666666667,"endTick":258580,"endTime":101.0078125,"note":42,"startBeat":269.1041666666667,"startTick":258340,"startTime":100.9140625,"velocity":50},{"channel":0,"duration":0.375,"durationBeats":1,"durationTicks":960,"endBeat":269.35729166666664,"endTick":258583,"endTime":101.00898437499998,"note":82,"startBeat":268.35729166666664,"startTick":257623,"startTime":100.63398437499998,"velocity":68},{"channel":1,"duration":0.1875,"durationBeats":0.5,"durationTicks":480,"endBeat":269.409375,"endTick":258633,"endTime":101.02851562500001,"note":32,"startBeat":268.909375,"startTick":258153,"startTime":100.84101562500001,"velocity":50},{"channel":0,"duration":1.03125,"durationBeats":2.75,"durationTicks":2640,"endBeat":269.60729166666664,"endTick":258823,"endTime":101.10273437499998,"note":81,"startBeat":266.85729166666664,"startTick":256183,"startTime":100.07148437499998,"velocity":68},{"channel":0,"duration":1.03125,"durationBeats":2.75,"durationTicks":2640,"endBeat":269.60729166666664,"endTick":258823,"endTime":101.10273437499998,"note":77,"startBeat":266.85729166666664,"startTick":256183,"startTime":100.07148437499998,"velocity":68},{"channel":0,"duration":1.03125,"durationBeats":2.75,"durationTicks":2640,"endBeat":269.60729166666664,"endTick":258823,"endTime":101.10273437499998,"note":74,"startBeat":266.85729166666664,"startTick":256183,"startTime":100.07148437499998,"velocity":68},{"channel":0,"duration":1.03125,"durationBeats":2.75,"durationTicks":2640,"endBeat":269.60729166666664,"endTick":258823,"endTime":101.10273437499998,"note":70,"startBeat":266.85729166666664,"startTick":256183,"startTime":100.07148437499998,"velocity":68},{"channel":12,"duration":0.1875,"durationBeats":0.5,"durationTicks":480,"endBeat":269.60729166666664,"endTick":258823,"endTime":101.10273437499998,"note":67,"startBeat":269.10729166666664,"startTick":258343,"startTime":100.91523437499998,"velocity":50},{"channel":2,"duration":0.1875,"durationBeats":0.5,"durationTicks":480,"endBeat":269.63854166666664,"endTick":258853,"endTime":101.11445312499998,"note":31,"startBeat":269.13854166666664,"startTick":258373,"startTime":100.92695312499998,"velocity":57},{"channel":9,"duration":0.09375,"durationBeats":0.25,"durationTicks":240,"endBeat":269.6614583333333,"endTick":258875,"endTime":101.123046875,"note":35,"startBeat":269.4114583333333,"startTick":258635,"startTime":101.029296875,"velocity":50},{"channel":9,"duration":0.09375,"durationBeats":0.25,"durationTicks":240,"endBeat":269.8333333333333,"endTick":259040,"endTime":101.1875,"note":42,"startBeat":269.5833333333333,"startTick":258800,"startTime":101.09375,"velocity":50},{"channel":12,"duration":0.09375,"durationBeats":0.25,"durationTicks":240,"endBeat":269.85729166666664,"endTick":259063,"endTime":101.19648437499998,"note":65,"startBeat":269.60729166666664,"startTick":258823,"startTime":101.10273437499998,"velocity":50},{"channel":1,"duration":0.1875,"durationBeats":0.5,"durationTicks":480,"endBeat":269.909375,"endTick":259113,"endTime":101.21601562500001,"note":31,"startBeat":269.409375,"startTick":258633,"startTime":101.02851562500001,"velocity":50},{"channel":8,"duration":0.1875,"durationBeats":0.5,"durationTicks":480,"endBeat":269.9166666666667,"endTick":259120,"endTime":101.21875,"note":65,"startBeat":269.4166666666667,"startTick":258640,"startTime":101.03125,"velocity":50},{"channel":9,"duration":0.09375,"durationBeats":0.25,"durationTicks":240,"endBeat":269.9322916666667,"endTick":259135,"endTime":101.224609375,"note":35,"startBeat":269.6822916666667,"startTick":258895,"startTime":101.130859375,"velocity":50},{"channel":9,"duration":0.09375,"durationBeats":0.25,"durationTicks":240,"endBeat":270.1041666666667,"endTick":259300,"endTime":101.2890625,"note":42,"startBeat":269.8541666666667,"startTick":259060,"startTime":101.1953125,"velocity":50},{"channel":9,"duration":0.09375,"durationBeats":0.25,"durationTicks":240,"endBeat":270.4114583333333,"endTick":259595,"endTime":101.404296875,"note":35,"startBeat":270.1614583333333,"startTick":259355,"startTime":101.310546875,"velocity":50},{"channel":12,"duration":0.1875,"durationBeats":0.5,"durationTicks":480,"endBeat":270.60729166666664,"endTick":259783,"endTime":101.47773437499998,"note":67,"startBeat":270.10729166666664,"startTick":259303,"startTime":101.29023437499998,"velocity":50},{"channel":2,"duration":0.1875,"durationBeats":0.5,"durationTicks":480,"endBeat":270.63854166666664,"endTick":259813,"endTime":101.48945312499998,"note":31,"startBeat":270.13854166666664,"startTick":259333,"startTime":101.30195312499998,"velocity":57},{"channel":9,"duration":0.0078125,"durationBeats":0.02083333333337123,"durationTicks":20,"endBeat":270.6822916666667,"endTick":259855,"endTime":101.505859375,"note":35,"startBeat":270.6614583333333,"startTick":259835,"startTime":101.498046875,"velocity":50},{"channel":12,"duration":0.046875,"durationBeats":0.125,"durationTicks":120,"endBeat":270.73229166666664,"endTick":259903,"endTime":101.52460937499998,"note":67,"startBeat":270.60729166666664,"startTick":259783,"startTime":101.47773437499998,"velocity":50},{"channel":0,"duration":0.375,"durationBeats":1,"durationTicks":960,"endBeat":270.85729166666664,"endTick":260023,"endTime":101.57148437499998,"note":74,"startBeat":269.85729166666664,"startTick":259063,"startTime":101.19648437499998,"velocity":68},{"channel":1,"duration":0.1875,"durationBeats":0.5,"durationTicks":480,"endBeat":270.909375,"endTick":260073,"endTime":101.59101562500001,"note":31,"startBeat":270.409375,"startTick":259593,"startTime":101.40351562500001,"velocity":50},{"channel":8,"duration":0.1875,"durationBeats":0.5,"durationTicks":480,"endBeat":270.9166666666667,"endTick":260080,"endTime":101.59375,"note":64,"startBeat":270.4166666666667,"startTick":259600,"startTime":101.40625,"velocity":50},{"channel":9,"duration":0.09375,"durationBeats":0.25,"durationTicks":240,"endBeat":271.0833333333333,"endTick":260240,"endTime":101.65625,"note":42,"startBeat":270.8333333333333,"startTick":260000,"startTime":101.5625,"velocity":50},{"channel":12,"duration":0.140625,"durationBeats":0.375,"durationTicks":360,"endBeat":271.10729166666664,"endTick":260263,"endTime":101.66523437499998,"note":69,"startBeat":270.73229166666664,"startTick":259903,"startTime":101.52460937499998,"velocity":50},{"channel":2,"duration":0.1875,"durationBeats":0.5,"durationTicks":480,"endBeat":271.13854166666664,"endTick":260293,"endTime":101.67695312499998,"note":32,"startBeat":270.63854166666664,"startTick":259813,"startTime":101.48945312499998,"velocity":57},{"channel":9,"duration":0.09375,"durationBeats":0.25,"durationTicks":240,"endBeat":271.1822916666667,"endTick":260335,"endTime":101.693359375,"note":35,"startBeat":270.9322916666667,"startTick":260095,"startTime":101.599609375,"velocity":50},{"channel":9,"duration":0.09375,"durationBeats":0.25,"durationTicks":240,"endBeat":271.3541666666667,"endTick":260500,"endTime":101.7578125,"note":42,"startBeat":271.1041666666667,"startTick":260260,"startTime":101.6640625,"velocity":50},{"channel":1,"duration":0.1875,"durationBeats":0.5,"durationTicks":480,"endBeat":271.409375,"endTick":260553,"endTime":101.77851562500001,"note":32,"startBeat":270.909375,"startTick":260073,"startTime":101.59101562500001,"velocity":50},{"channel":2,"duration":0.1875,"durationBeats":0.5,"durationTicks":480,"endBeat":271.63854166666664,"endTick":260773,"endTime":101.86445312499998,"note":33,"startBeat":271.13854166666664,"startTick":260293,"startTime":101.67695312499998,"velocity":57},{"channel":12,"duration":0.0234375,"durationBeats":0.0625,"durationTicks":60,"endBeat":271.66979166666664,"endTick":260803,"endTime":101.87617187499998,"note":69,"startBeat":271.60729166666664,"startTick":260743,"startTime":101.85273437499998,"velocity":50},{"channel":0,"duration":0.375,"durationBeats":1,"durationTicks":960,"endBeat":271.85729166666664,"endTick":260983,"endTime":101.94648437499998,"note":64,"startBeat":270.85729166666664,"startTick":260023,"startTime":101.57148437499998,"velocity":68},{"channel":12,"duration":0.0703125,"durationBeats":0.1875,"durationTicks":180,"endBeat":271.85729166666664,"endTick":260983,"endTime":101.94648437499998,"note":70,"startBeat":271.66979166666664,"startTick":260803,"startTime":101.87617187499998,"velocity":50},{"channel":1,"duration":0.1875,"durationBeats":0.5,"durationTicks":480,"endBeat":271.909375,"endTick":261033,"endTime":101.96601562500001,"note":33,"startBeat":271.409375,"startTick":260553,"startTime":101.77851562500001,"velocity":50},{"channel":9,"duration":0.09375,"durationBeats":0.25,"durationTicks":240,"endBeat":271.9114583333333,"endTick":261035,"endTime":101.966796875,"note":35,"startBeat":271.6614583333333,"startTick":260795,"startTime":101.873046875,"velocity":50},{"channel":8,"duration":0.1875,"durationBeats":0.5,"durationTicks":480,"endBeat":271.9166666666667,"endTick":261040,"endTime":101.96875,"note":67,"startBeat":271.4166666666667,"startTick":260560,"startTime":101.78125,"velocity":50},{"channel":9,"duration":0.09375,"durationBeats":0.25,"durationTicks":240,"endBeat":272.0833333333333,"endTick":261200,"endTime":102.03125,"note":42,"startBeat":271.8333333333333,"startTick":260960,"startTime":101.9375,"velocity":50},{"channel":2,"duration":0.09375,"durationBeats":0.25,"durationTicks":240,"endBeat":272.13854166666664,"endTick":261253,"endTime":102.05195312499998,"note":33,"startBeat":271.88854166666664,"startTick":261013,"startTime":101.95820312499998,"velocity":57},{"channel":9,"duration":0.09375,"durationBeats":0.25,"durationTicks":240,"endBeat":272.1822916666667,"endTick":261295,"endTime":102.068359375,"note":35,"startBeat":271.9322916666667,"startTick":261055,"startTime":101.974609375,"velocity":50},{"channel":9,"duration":0.09375,"durationBeats":0.25,"durationTicks":240,"endBeat":272.3541666666667,"endTick":261460,"endTime":102.1328125,"note":42,"startBeat":272.1041666666667,"startTick":261220,"startTime":102.0390625,"velocity":50},{"channel":1,"duration":0.09375,"durationBeats":0.25,"durationTicks":240,"endBeat":272.409375,"endTick":261513,"endTime":102.15351562500001,"note":33,"startBeat":272.159375,"startTick":261273,"startTime":102.05976562500001,"velocity":50},{"channel":9,"duration":0.09375,"durationBeats":0.25,"durationTicks":240,"endBeat":272.6822916666667,"endTick":261775,"endTime":102.255859375,"note":42,"startBeat":272.4322916666667,"startTick":261535,"startTime":102.162109375,"velocity":50},{"channel":0,"duration":0.1875,"durationBeats":0.5,"durationTicks":480,"endBeat":272.85729166666664,"endTick":261943,"endTime":102.32148437499998,"note":69,"startBeat":272.35729166666664,"startTick":261463,"startTime":102.13398437499998,"velocity":68},{"channel":9,"duration":0.09375,"durationBeats":0.25,"durationTicks":240,"endBeat":272.9114583333333,"endTick":261995,"endTime":102.341796875,"note":35,"startBeat":272.6614583333333,"startTick":261755,"startTime":102.248046875,"velocity":50},{"channel":8,"duration":0.1875,"durationBeats":0.5,"durationTicks":480,"endBeat":272.9166666666667,"endTick":262000,"endTime":102.34375,"note":65,"startBeat":272.4166666666667,"startTick":261520,"startTime":102.15625,"velocity":50},{"channel":9,"duration":0.09375,"durationBeats":0.25,"durationTicks":240,"endBeat":273.0833333333333,"endTick":262160,"endTime":102.40625,"note":42,"startBeat":272.8333333333333,"startTick":261920,"startTime":102.3125,"velocity":50},{"channel":2,"duration":0.1875,"durationBeats":0.5,"durationTicks":480,"endBeat":273.13854166666664,"endTick":262213,"endTime":102.42695312499998,"note":26,"startBeat":272.63854166666664,"startTick":261733,"startTime":102.23945312499998,"velocity":57},{"channel":9,"duration":0.09375,"durationBeats":0.25,"durationTicks":240,"endBeat":273.1822916666667,"endTick":262255,"endTime":102.443359375,"note":35,"startBeat":272.9322916666667,"startTick":262015,"startTime":102.349609375,"velocity":50},{"channel":9,"duration":0.0390625,"durationBeats":0.10416666666668561,"durationTicks":100,"endBeat":273.3541666666667,"endTick":262420,"endTime":102.5078125,"note":42,"startBeat":273.25,"startTick":262320,"startTime":102.46875,"velocity":50},{"channel":1,"duration":0.1875,"durationBeats":0.5,"durationTicks":480,"endBeat":273.409375,"endTick":262473,"endTime":102.52851562500001,"note":26,"startBeat":272.909375,"startTick":261993,"startTime":102.34101562500001,"velocity":50},{"channel":9,"duration":0.09375,"durationBeats":0.25,"durationTicks":240,"endBeat":273.6614583333333,"endTick":262715,"endTime":102.623046875,"note":35,"startBeat":273.4114583333333,"startTick":262475,"startTime":102.529296875,"velocity":50},{"channel":9,"duration":0.0625,"durationBeats":0.16666666666668561,"durationTicks":160,"endBeat":273.75,"endTick":262800,"endTime":102.65625,"note":42,"startBeat":273.5833333333333,"startTick":262640,"startTime":102.59375,"velocity":50},{"channel":0,"duration":0.375,"durationBeats":1,"durationTicks":960,"endBeat":273.85729166666664,"endTick":262903,"endTime":102.69648437499998,"note":76,"startBeat":272.85729166666664,"startTick":261943,"startTime":102.32148437499998,"velocity":68},{"channel":8,"duration":0.1875,"durationBeats":0.5,"durationTicks":480,"endBeat":273.9166666666667,"endTick":262960,"endTime":102.71875,"note":64,"startBeat":273.4166666666667,"startTick":262480,"startTime":102.53125,"velocity":50},{"channel":9,"duration":0.09375,"durationBeats":0.25,"durationTicks":240,"endBeat":273.9322916666667,"endTick":262975,"endTime":102.724609375,"note":35,"startBeat":273.6822916666667,"startTick":262735,"startTime":102.630859375,"velocity":50},{"channel":9,"duration":0.09375,"durationBeats":0.25,"durationTicks":240,"endBeat":274.1041666666667,"endTick":263140,"endTime":102.7890625,"note":42,"startBeat":273.8541666666667,"startTick":262900,"startTime":102.6953125,"velocity":50},{"channel":2,"duration":0.1875,"durationBeats":0.5,"durationTicks":480,"endBeat":274.13854166666664,"endTick":263173,"endTime":102.80195312499998,"note":26,"startBeat":273.63854166666664,"startTick":262693,"startTime":102.61445312499998,"velocity":57},{"channel":1,"duration":0.1875,"durationBeats":0.5,"durationTicks":480,"endBeat":274.409375,"endTick":263433,"endTime":102.90351562500001,"note":26,"startBeat":273.909375,"startTick":262953,"startTime":102.71601562500001,"velocity":50},{"channel":9,"duration":0.09375,"durationBeats":0.25,"durationTicks":240,"endBeat":274.4114583333333,"endTick":263435,"endTime":102.904296875,"note":35,"startBeat":274.1614583333333,"startTick":263195,"startTime":102.810546875,"velocity":50},{"channel":9,"duration":0.09375,"durationBeats":0.25,"durationTicks":240,"endBeat":274.5,"endTick":263520,"endTime":102.9375,"note":42,"startBeat":274.25,"startTick":263280,"startTime":102.84375,"velocity":50},{"channel":2,"duration":0.1875,"durationBeats":0.5,"durationTicks":480,"endBeat":274.63854166666664,"endTick":263653,"endTime":102.98945312499998,"note":33,"startBeat":274.13854166666664,"startTick":263173,"startTime":102.80195312499998,"velocity":57},{"channel":9,"duration":0.0078125,"durationBeats":0.02083333333337123,"durationTicks":20,"endBeat":274.6822916666667,"endTick":263695,"endTime":103.005859375,"note":35,"startBeat":274.6614583333333,"startTick":263675,"startTime":102.998046875,"velocity":50},{"channel":9,"duration":0.09375,"durationBeats":0.25,"durationTicks":240,"endBeat":274.75,"endTick":263760,"endTime":103.03125,"note":42,"startBeat":274.5,"startTick":263520,"startTime":102.9375,"velocity":50},{"channel":0,"duration":1.5,"durationBeats":4,"durationTicks":3840,"endBeat":274.85729166666664,"endTick":263863,"endTime":103.07148437499998,"note":67,"startBeat":270.85729166666664,"startTick":260023,"startTime":101.57148437499998,"velocity":68},{"channel":0,"duration":1.5,"durationBeats":4,"durationTicks":3840,"endBeat":274.85729166666664,"endTick":263863,"endTime":103.07148437499998,"note":73,"startBeat":270.85729166666664,"startTick":260023,"startTime":101.57148437499998,"velocity":68},{"channel":12,"duration":1.03125,"durationBeats":2.75,"durationTicks":2640,"endBeat":274.85729166666664,"endTick":263863,"endTime":103.07148437499998,"note":69,"startBeat":272.10729166666664,"startTick":261223,"startTime":102.04023437499998,"velocity":50},{"channel":1,"duration":0.1875,"durationBeats":0.5,"durationTicks":480,"endBeat":274.909375,"endTick":263913,"endTime":103.09101562500001,"note":33,"startBeat":274.409375,"startTick":263433,"startTime":102.90351562500001,"velocity":50},{"channel":8,"duration":0.1875,"durationBeats":0.5,"durationTicks":480,"endBeat":274.9166666666667,"endTick":263920,"endTime":103.09375,"note":62,"startBeat":274.4166666666667,"startTick":263440,"startTime":102.90625,"velocity":50},{"channel":9,"duration":0.09375,"durationBeats":0.25,"durationTicks":240,"endBeat":275.0833333333333,"endTick":264080,"endTime":103.15625,"note":42,"startBeat":274.8333333333333,"startTick":263840,"startTime":103.0625,"velocity":50},{"channel":2,"duration":0.1875,"durationBeats":0.5,"durationTicks":480,"endBeat":275.13854166666664,"endTick":264133,"endTime":103.17695312499998,"note":26,"startBeat":274.63854166666664,"startTick":263653,"startTime":102.98945312499998,"velocity":57},{"channel":9,"duration":0.09375,"durationBeats":0.25,"durationTicks":240,"endBeat":275.1822916666667,"endTick":264175,"endTime":103.193359375,"note":35,"startBeat":274.9322916666667,"startTick":263935,"startTime":103.099609375,"velocity":50},{"channel":9,"duration":0.0390625,"durationBeats":0.10416666666668561,"durationTicks":100,"endBeat":275.3541666666667,"endTick":264340,"endTime":103.2578125,"note":42,"startBeat":275.25,"startTick":264240,"startTime":103.21875,"velocity":50},{"channel":1,"duration":0.1875,"durationBeats":0.5,"durationTicks":480,"endBeat":275.409375,"endTick":264393,"endTime":103.27851562500001,"note":26,"startBeat":274.909375,"startTick":263913,"startTime":103.09101562500001,"velocity":50},{"channel":2,"duration":0.1875,"durationBeats":0.5,"durationTicks":480,"endBeat":275.63854166666664,"endTick":264613,"endTime":103.36445312499998,"note":38,"startBeat":275.13854166666664,"startTick":264133,"startTime":103.17695312499998,"velocity":57},{"channel":0,"duration":0.1875,"durationBeats":0.5,"durationTicks":480,"endBeat":275.85729166666664,"endTick":264823,"endTime":103.44648437499998,"note":72,"startBeat":275.35729166666664,"startTick":264343,"startTime":103.25898437499998,"velocity":68},{"channel":1,"duration":0.1875,"durationBeats":0.5,"durationTicks":480,"endBeat":275.909375,"endTick":264873,"endTime":103.46601562500001,"note":38,"startBeat":275.409375,"startTick":264393,"startTime":103.27851562500001,"velocity":50},{"channel":9,"duration":0.09375,"durationBeats":0.25,"durationTicks":240,"endBeat":275.9114583333333,"endTick":264875,"endTime":103.466796875,"note":35,"startBeat":275.6614583333333,"startTick":264635,"startTime":103.373046875,"velocity":50},{"channel":8,"duration":0.1875,"durationBeats":0.5,"durationTicks":480,"endBeat":275.9166666666667,"endTick":264880,"endTime":103.46875,"note":65,"startBeat":275.4166666666667,"startTick":264400,"startTime":103.28125,"velocity":50},{"channel":9,"duration":0.03125,"durationBeats":0.08333333333331439,"durationTicks":80,"endBeat":276.0833333333333,"endTick":265040,"endTime":103.53125,"note":42,"startBeat":276,"startTick":264960,"startTime":103.5,"velocity":50},{"channel":2,"duration":0.1875,"durationBeats":0.5,"durationTicks":480,"endBeat":276.13854166666664,"endTick":265093,"endTime":103.55195312499998,"note":26,"startBeat":275.63854166666664,"startTick":264613,"startTime":103.36445312499998,"velocity":57},{"channel":9,"duration":0.09375,"durationBeats":0.25,"durationTicks":240,"endBeat":276.1822916666667,"endTick":265135,"endTime":103.568359375,"note":35,"startBeat":275.9322916666667,"startTick":264895,"startTime":103.474609375,"velocity":50},{"channel":9,"duration":0.0546875,"durationBeats":0.14583333333331439,"durationTicks":140,"endBeat":276.25,"endTick":265200,"endTime":103.59375,"note":42,"startBeat":276.1041666666667,"startTick":265060,"startTime":103.5390625,"velocity":50},{"channel":9,"duration":0.0234375,"durationBeats":0.0625,"durationTicks":60,"endBeat":276.3125,"endTick":265260,"endTime":103.6171875,"note":42,"startBeat":276.25,"startTick":265200,"startTime":103.59375,"velocity":50},{"channel":0,"duration":0.1875,"durationBeats":0.5,"durationTicks":480,"endBeat":276.35729166666664,"endTick":265303,"endTime":103.63398437499998,"note":79,"startBeat":275.85729166666664,"startTick":264823,"startTime":103.44648437499998,"velocity":68},{"channel":1,"duration":0.1875,"durationBeats":0.5,"durationTicks":480,"endBeat":276.409375,"endTick":265353,"endTime":103.65351562500001,"note":26,"startBeat":275.909375,"startTick":264873,"startTime":103.46601562500001,"velocity":50},{"channel":9,"duration":0.0234375,"durationBeats":0.0625,"durationTicks":60,"endBeat":276.4375,"endTick":265380,"endTime":103.6640625,"note":42,"startBeat":276.375,"startTick":265320,"startTime":103.640625,"velocity":50},{"channel":9,"duration":0.0234375,"durationBeats":0.0625,"durationTicks":60,"endBeat":276.5625,"endTick":265500,"endTime":103.7109375,"note":42,"startBeat":276.5,"startTick":265440,"startTime":103.6875,"velocity":50},{"channel":2,"duration":0.1875,"durationBeats":0.5,"durationTicks":480,"endBeat":276.63854166666664,"endTick":265573,"endTime":103.73945312499998,"note":33,"startBeat":276.13854166666664,"startTick":265093,"startTime":103.55195312499998,"velocity":57},{"channel":9,"duration":0.0234375,"durationBeats":0.0625,"durationTicks":60,"endBeat":276.6875,"endTick":265620,"endTime":103.7578125,"note":42,"startBeat":276.625,"startTick":265560,"startTime":103.734375,"velocity":50},{"channel":9,"duration":0.0234375,"durationBeats":0.0625,"durationTicks":60,"endBeat":276.8125,"endTick":265740,"endTime":103.8046875,"note":42,"startBeat":276.75,"startTick":265680,"startTime":103.78125,"velocity":50},{"channel":0,"duration":0.75,"durationBeats":2,"durationTicks":1920,"endBeat":276.85729166666664,"endTick":265783,"endTime":103.82148437499998,"note":77,"startBeat":274.85729166666664,"startTick":263863,"startTime":103.07148437499998,"velocity":68},{"channel":0,"duration":0.75,"durationBeats":2,"durationTicks":1920,"endBeat":276.85729166666664,"endTick":265783,"endTime":103.82148437499998,"note":73,"startBeat":274.85729166666664,"startTick":263863,"startTime":103.07148437499998,"velocity":68},{"channel":0,"duration":0.75,"durationBeats":2,"durationTicks":1920,"endBeat":276.85729166666664,"endTick":265783,"endTime":103.82148437499998,"note":69,"startBeat":274.85729166666664,"startTick":263863,"startTime":103.07148437499998,"velocity":68},{"channel":0,"duration":0.75,"durationBeats":2,"durationTicks":1920,"endBeat":276.85729166666664,"endTick":265783,"endTime":103.82148437499998,"note":67,"startBeat":274.85729166666664,"startTick":263863,"startTime":103.07148437499998,"velocity":68},{"channel":0,"duration":0.1875,"durationBeats":0.5,"durationTicks":480,"endBeat":276.85729166666664,"endTick":265783,"endTime":103.82148437499998,"note":81,"startBeat":276.35729166666664,"startTick":265303,"startTime":103.63398437499998,"velocity":68},{"channel":1,"duration":0.1875,"durationBeats":0.5,"durationTicks":480,"endBeat":276.909375,"endTick":265833,"endTime":103.84101562500001,"note":33,"startBeat":276.409375,"startTick":265353,"startTime":103.65351562500001,"velocity":50},{"channel":9,"duration":0.09375,"durationBeats":0.25,"durationTicks":240,"endBeat":276.9114583333333,"endTick":265835,"endTime":103.841796875,"note":35,"startBeat":276.6614583333333,"startTick":265595,"startTime":103.748046875,"velocity":50},{"channel":8,"duration":0.1875,"durationBeats":0.5,"durationTicks":480,"endBeat":276.9166666666667,"endTick":265840,"endTime":103.84375,"note":64,"startBeat":276.4166666666667,"startTick":265360,"startTime":103.65625,"velocity":50},{"channel":9,"duration":0.09375,"durationBeats":0.25,"durationTicks":240,"endBeat":277.0833333333333,"endTick":266000,"endTime":103.90625,"note":42,"startBeat":276.8333333333333,"startTick":265760,"startTime":103.8125,"velocity":50},{"channel":2,"duration":0.1875,"durationBeats":0.5,"durationTicks":480,"endBeat":277.13854166666664,"endTick":266053,"endTime":103.92695312499998,"note":32,"startBeat":276.63854166666664,"startTick":265573,"startTime":103.73945312499998,"velocity":57},{"channel":9,"duration":0.09375,"durationBeats":0.25,"durationTicks":240,"endBeat":277.1822916666667,"endTick":266095,"endTime":103.943359375,"note":35,"startBeat":276.9322916666667,"startTick":265855,"startTime":103.849609375,"velocity":50},{"channel":9,"duration":0.0390625,"durationBeats":0.10416666666668561,"durationTicks":100,"endBeat":277.3541666666667,"endTick":266260,"endTime":104.0078125,"note":42,"startBeat":277.25,"startTick":266160,"startTime":103.96875,"velocity":50},{"channel":1,"duration":0.1875,"durationBeats":0.5,"durationTicks":480,"endBeat":277.409375,"endTick":266313,"endTime":104.02851562500001,"note":32,"startBeat":276.909375,"startTick":265833,"startTime":103.84101562500001,"velocity":50},{"channel":2,"duration":0.1875,"durationBeats":0.5,"durationTicks":480,"endBeat":277.63854166666664,"endTick":266533,"endTime":104.11445312499998,"note":31,"startBeat":277.13854166666664,"startTick":266053,"startTime":103.92695312499998,"velocity":57},{"channel":9,"duration":0.09375,"durationBeats":0.25,"durationTicks":240,"endBeat":277.6614583333333,"endTick":266555,"endTime":104.123046875,"note":35,"startBeat":277.4114583333333,"startTick":266315,"startTime":104.029296875,"velocity":50},{"channel":9,"duration":0.0625,"durationBeats":0.16666666666668561,"durationTicks":160,"endBeat":277.75,"endTick":266640,"endTime":104.15625,"note":42,"startBeat":277.5833333333333,"startTick":266480,"startTime":104.09375,"velocity":50},{"channel":1,"duration":0.1875,"durationBeats":0.5,"durationTicks":480,"endBeat":277.909375,"endTick":266793,"endTime":104.21601562500001,"note":31,"startBeat":277.409375,"startTick":266313,"startTime":104.02851562500001,"velocity":50},{"channel":8,"duration":0.1875,"durationBeats":0.5,"durationTicks":480,"endBeat":277.9166666666667,"endTick":266800,"endTime":104.21875,"note":67,"startBeat":277.4166666666667,"startTick":266320,"startTime":104.03125,"velocity":50},{"channel":9,"duration":0.09375,"durationBeats":0.25,"durationTicks":240,"endBeat":277.9322916666667,"endTick":266815,"endTime":104.224609375,"note":35,"startBeat":277.6822916666667,"startTick":266575,"startTime":104.130859375,"velocity":50},{"channel":9,"duration":0.09375,"durationBeats":0.25,"durationTicks":240,"endBeat":278.1041666666667,"endTick":266980,"endTime":104.2890625,"note":42,"startBeat":277.8541666666667,"startTick":266740,"startTime":104.1953125,"velocity":50},{"channel":8,"duration":0.09375,"durationBeats":0.25,"durationTicks":240,"endBeat":278.1666666666667,"endTick":267040,"endTime":104.3125,"note":65,"startBeat":277.9166666666667,"startTick":266800,"startTime":104.21875,"velocity":50},{"channel":6,"duration":0.09375,"durationBeats":0.25,"durationTicks":240,"endBeat":278.21875,"endTick":267090,"endTime":104.33203125,"note":74,"startBeat":277.96875,"startTick":266850,"startTime":104.23828125,"velocity":50},{"channel":0,"duration":0.1875,"durationBeats":0.5,"durationTicks":480,"endBeat":278.35729166666664,"endTick":267223,"endTime":104.38398437499998,"note":72,"startBeat":277.85729166666664,"startTick":266743,"startTime":104.19648437499998,"velocity":68},{"channel":9,"duration":0.09375,"durationBeats":0.25,"durationTicks":240,"endBeat":278.4114583333333,"endTick":267275,"endTime":104.404296875,"note":35,"startBeat":278.1614583333333,"startTick":267035,"startTime":104.310546875,"velocity":50},{"channel":6,"duration":0.09375,"durationBeats":0.25,"durationTicks":240,"endBeat":278.46875,"endTick":267330,"endTime":104.42578125,"note":77,"startBeat":278.21875,"startTick":267090,"startTime":104.33203125,"velocity":50},{"channel":9,"duration":0.09375,"durationBeats":0.25,"durationTicks":240,"endBeat":278.5,"endTick":267360,"endTime":104.4375,"note":42,"startBeat":278.25,"startTick":267120,"startTime":104.34375,"velocity":50},{"channel":0,"duration":0.09375,"durationBeats":0.25,"durationTicks":240,"endBeat":278.60729166666664,"endTick":267463,"endTime":104.47773437499998,"note":74,"startBeat":278.35729166666664,"startTick":267223,"startTime":104.38398437499998,"velocity":68},{"channel":2,"duration":0.1875,"durationBeats":0.5,"durationTicks":480,"endBeat":278.63854166666664,"endTick":267493,"endTime":104.48945312499998,"note":31,"startBeat":278.13854166666664,"startTick":267013,"startTime":104.30195312499998,"velocity":57},{"channel":9,"duration":0.0078125,"durationBeats":0.02083333333337123,"durationTicks":20,"endBeat":278.6822916666667,"endTick":267535,"endTime":104.505859375,"note":35,"startBeat":278.6614583333333,"startTick":267515,"startTime":104.498046875,"velocity":50},{"channel":6,"duration":0.09375,"durationBeats":0.25,"durationTicks":240,"endBeat":278.71875,"endTick":267570,"endTime":104.51953125,"note":79,"startBeat":278.46875,"startTick":267330,"startTime":104.42578125,"velocity":50},{"channel":9,"duration":0.09375,"durationBeats":0.25,"durationTicks":240,"endBeat":278.75,"endTick":267600,"endTime":104.53125,"note":42,"startBeat":278.5,"startTick":267360,"startTime":104.4375,"velocity":50},{"channel":0,"duration":0.75,"durationBeats":2,"durationTicks":1920,"endBeat":278.85729166666664,"endTick":267703,"endTime":104.57148437499998,"note":65,"startBeat":276.85729166666664,"startTick":265783,"startTime":103.82148437499998,"velocity":68},{"channel":0,"duration":0.75,"durationBeats":2,"durationTicks":1920,"endBeat":278.85729166666664,"endTick":267703,"endTime":104.57148437499998,"note":67,"startBeat":276.85729166666664,"startTick":265783,"startTime":103.82148437499998,"velocity":68},{"channel":0,"duration":0.75,"durationBeats":2,"durationTicks":1920,"endBeat":278.85729166666664,"endTick":267703,"endTime":104.57148437499998,"note":69,"startBeat":276.85729166666664,"startTick":265783,"startTime":103.82148437499998,"velocity":68},{"channel":0,"duration":0.09375,"durationBeats":0.25,"durationTicks":240,"endBeat":278.85729166666664,"endTick":267703,"endTime":104.57148437499998,"note":75,"startBeat":278.60729166666664,"startTick":267463,"startTime":104.47773437499998,"velocity":68},{"channel":1,"duration":0.1875,"durationBeats":0.5,"durationTicks":480,"endBeat":278.909375,"endTick":267753,"endTime":104.59101562500001,"note":31,"startBeat":278.409375,"startTick":267273,"startTime":104.40351562500001,"velocity":50},{"channel":8,"duration":0.1875,"durationBeats":0.5,"durationTicks":480,"endBeat":278.9166666666667,"endTick":267760,"endTime":104.59375,"note":67,"startBeat":278.4166666666667,"startTick":267280,"startTime":104.40625,"velocity":50},{"channel":8,"duration":0.046875,"durationBeats":0.125,"durationTicks":120,"endBeat":279.0416666666667,"endTick":267880,"endTime":104.640625,"note":67,"startBeat":278.9166666666667,"startTick":267760,"startTime":104.59375,"velocity":50},{"channel":9,"duration":0.09375,"durationBeats":0.25,"durationTicks":240,"endBeat":279.0833333333333,"endTick":267920,"endTime":104.65625,"note":42,"startBeat":278.8333333333333,"startTick":267680,"startTime":104.5625,"velocity":50},{"channel":2,"duration":0.1875,"durationBeats":0.5,"durationTicks":480,"endBeat":279.13854166666664,"endTick":267973,"endTime":104.67695312499998,"note":32,"startBeat":278.63854166666664,"startTick":267493,"startTime":104.48945312499998,"velocity":57},{"channel":9,"duration":0.09375,"durationBeats":0.25,"durationTicks":240,"endBeat":279.1822916666667,"endTick":268015,"endTime":104.693359375,"note":35,"startBeat":278.9322916666667,"startTick":267775,"startTime":104.599609375,"velocity":50},{"channel":6,"duration":0.09375,"durationBeats":0.25,"durationTicks":240,"endBeat":279.21875,"endTick":268050,"endTime":104.70703125,"note":81,"startBeat":278.96875,"startTick":267810,"startTime":104.61328125,"velocity":50},{"channel":9,"duration":0.0390625,"durationBeats":0.10416666666668561,"durationTicks":100,"endBeat":279.3541666666667,"endTick":268180,"endTime":104.7578125,"note":42,"startBeat":279.25,"startTick":268080,"startTime":104.71875,"velocity":50},{"channel":1,"duration":0.1875,"durationBeats":0.5,"durationTicks":480,"endBeat":279.409375,"endTick":268233,"endTime":104.77851562500001,"note":32,"startBeat":278.909375,"startTick":267753,"startTime":104.59101562500001,"velocity":50},{"channel":8,"duration":0.140625,"durationBeats":0.375,"durationTicks":360,"endBeat":279.4166666666667,"endTick":268240,"endTime":104.78125,"note":69,"startBeat":279.0416666666667,"startTick":267880,"startTime":104.640625,"velocity":50},{"channel":2,"duration":0.1875,"durationBeats":0.5,"durationTicks":480,"endBeat":279.63854166666664,"endTick":268453,"endTime":104.86445312499998,"note":33,"startBeat":279.13854166666664,"startTick":267973,"startTime":104.67695312499998,"velocity":57},{"channel":6,"duration":0.09375,"durationBeats":0.25,"durationTicks":240,"endBeat":279.71875,"endTick":268530,"endTime":104.89453125,"note":84,"startBeat":279.46875,"startTick":268290,"startTime":104.80078125,"velocity":50},{"channel":1,"duration":0.1875,"durationBeats":0.5,"durationTicks":480,"endBeat":279.909375,"endTick":268713,"endTime":104.96601562500001,"note":33,"startBeat":279.409375,"startTick":268233,"startTime":104.77851562500001,"velocity":50},{"channel":9,"duration":0.09375,"durationBeats":0.25,"durationTicks":240,"endBeat":279.9114583333333,"endTick":268715,"endTime":104.966796875,"note":35,"startBeat":279.6614583333333,"startTick":268475,"startTime":104.873046875,"velocity":50},{"channel":8,"duration":0.0234375,"durationBeats":0.0625,"durationTicks":60,"endBeat":279.9791666666667,"endTick":268780,"endTime":104.9921875,"note":69,"startBeat":279.9166666666667,"startTick":268720,"startTime":104.96875,"velocity":50},{"channel":9,"duration":0.03125,"durationBeats":0.08333333333331439,"durationTicks":80,"endBeat":280.0833333333333,"endTick":268880,"endTime":105.03125,"note":42,"startBeat":280,"startTick":268800,"startTime":105,"velocity":50},{"channel":2,"duration":0.09375,"durationBeats":0.25,"durationTicks":240,"endBeat":280.13854166666664,"endTick":268933,"endTime":105.05195312499998,"note":33,"startBeat":279.88854166666664,"startTick":268693,"startTime":104.95820312499998,"velocity":57},{"channel":8,"duration":0.0703125,"durationBeats":0.1875,"durationTicks":180,"endBeat":280.1666666666667,"endTick":268960,"endTime":105.0625,"note":70,"startBeat":279.9791666666667,"startTick":268780,"startTime":104.9921875,"velocity":50},{"channel":9,"duration":0.09375,"durationBeats":0.25,"durationTicks":240,"endBeat":280.1822916666667,"endTick":268975,"endTime":105.068359375,"note":35,"startBeat":279.9322916666667,"startTick":268735,"startTime":104.974609375,"velocity":50},{"channel":6,"duration":0.09375,"durationBeats":0.25,"durationTicks":240,"endBeat":280.21875,"endTick":269010,"endTime":105.08203125,"note":82,"startBeat":279.96875,"startTick":268770,"startTime":104.98828125,"velocity":50},{"channel":9,"duration":0.0546875,"durationBeats":0.14583333333331439,"durationTicks":140,"endBeat":280.25,"endTick":269040,"endTime":105.09375,"note":42,"startBeat":280.1041666666667,"startTick":268900,"startTime":105.0390625,"velocity":50},{"channel":9,"duration":0.0234375,"durationBeats":0.0625,"durationTicks":60,"endBeat":280.3125,"endTick":269100,"endTime":105.1171875,"note":42,"startBeat":280.25,"startTick":269040,"startTime":105.09375,"velocity":50},{"channel":0,"duration":0.5625,"durationBeats":1.5,"durationTicks":1440,"endBeat":280.35729166666664,"endTick":269143,"endTime":105.13398437499998,"note":76,"startBeat":278.85729166666664,"startTick":267703,"startTime":104.57148437499998,"velocity":68},{"channel":0,"duration":0.5625,"durationBeats":1.5,"durationTicks":1440,"endBeat":280.35729166666664,"endTick":269143,"endTime":105.13398437499998,"note":74,"startBeat":278.85729166666664,"startTick":267703,"startTime":104.57148437499998,"velocity":68},{"channel":0,"duration":0.5625,"durationBeats":1.5,"durationTicks":1440,"endBeat":280.35729166666664,"endTick":269143,"endTime":105.13398437499998,"note":67,"startBeat":278.85729166666664,"startTick":267703,"startTime":104.57148437499998,"velocity":68},{"channel":0,"duration":0.5625,"durationBeats":1.5,"durationTicks":1440,"endBeat":280.35729166666664,"endTick":269143,"endTime":105.13398437499998,"note":69,"startBeat":278.85729166666664,"startTick":267703,"startTime":104.57148437499998,"velocity":68},{"channel":1,"duration":0.09375,"durationBeats":0.25,"durationTicks":240,"endBeat":280.409375,"endTick":269193,"endTime":105.15351562500001,"note":33,"startBeat":280.159375,"startTick":268953,"startTime":105.05976562500001,"velocity":50},{"channel":9,"duration":0.0234375,"durationBeats":0.0625,"durationTicks":60,"endBeat":280.4375,"endTick":269220,"endTime":105.1640625,"note":42,"startBeat":280.375,"startTick":269160,"startTime":105.140625,"velocity":50},{"channel":9,"duration":0.0234375,"durationBeats":0.0625,"durationTicks":60,"endBeat":280.5625,"endTick":269340,"endTime":105.2109375,"note":42,"startBeat":280.5,"startTick":269280,"startTime":105.1875,"velocity":50},{"channel":0,"duration":0.09375,"durationBeats":0.25,"durationTicks":240,"endBeat":280.60729166666664,"endTick":269383,"endTime":105.22773437499998,"note":76,"startBeat":280.35729166666664,"startTick":269143,"startTime":105.13398437499998,"velocity":68},{"channel":9,"duration":0.0234375,"durationBeats":0.0625,"durationTicks":60,"endBeat":280.6875,"endTick":269460,"endTime":105.2578125,"note":42,"startBeat":280.625,"startTick":269400,"startTime":105.234375,"velocity":50},{"channel":6,"duration":0.09375,"durationBeats":0.25,"durationTicks":240,"endBeat":280.71875,"endTick":269490,"endTime":105.26953125,"note":81,"startBeat":280.46875,"startTick":269250,"startTime":105.17578125,"velocity":50},{"channel":9,"duration":0.0234375,"durationBeats":0.0625,"durationTicks":60,"endBeat":280.8125,"endTick":269580,"endTime":105.3046875,"note":42,"startBeat":280.75,"startTick":269520,"startTime":105.28125,"velocity":50},{"channel":0,"duration":0.09375,"durationBeats":0.25,"durationTicks":240,"endBeat":280.85729166666664,"endTick":269623,"endTime":105.32148437499998,"note":76,"startBeat":280.60729166666664,"startTick":269383,"startTime":105.22773437499998,"velocity":68},{"channel":9,"duration":0.09375,"durationBeats":0.25,"durationTicks":240,"endBeat":280.9114583333333,"endTick":269675,"endTime":105.341796875,"note":35,"startBeat":280.6614583333333,"startTick":269435,"startTime":105.248046875,"velocity":50},{"channel":9,"duration":0.09375,"durationBeats":0.25,"durationTicks":240,"endBeat":281.0833333333333,"endTick":269840,"endTime":105.40625,"note":42,"startBeat":280.8333333333333,"startTick":269600,"startTime":105.3125,"velocity":50},{"channel":2,"duration":0.1875,"durationBeats":0.5,"durationTicks":480,"endBeat":281.13854166666664,"endTick":269893,"endTime":105.42695312499998,"note":26,"startBeat":280.63854166666664,"startTick":269413,"startTime":105.23945312499998,"velocity":57},{"channel":9,"duration":0.09375,"durationBeats":0.25,"durationTicks":240,"endBeat":281.1822916666667,"endTick":269935,"endTime":105.443359375,"note":35,"startBeat":280.9322916666667,"startTick":269695,"startTime":105.349609375,"velocity":50},{"channel":6,"duration":0.09375,"durationBeats":0.25,"durationTicks":240,"endBeat":281.21875,"endTick":269970,"endTime":105.45703125,"note":80,"startBeat":280.96875,"startTick":269730,"startTime":105.36328125,"velocity":50},{"channel":9,"duration":0.0390625,"durationBeats":0.10416666666668561,"durationTicks":100,"endBeat":281.3541666666667,"endTick":270100,"endTime":105.5078125,"note":42,"startBeat":281.25,"startTick":270000,"startTime":105.46875,"velocity":50},{"channel":0,"duration":0.1875,"durationBeats":0.5,"durationTicks":480,"endBeat":281.35729166666664,"endTick":270103,"endTime":105.50898437499998,"note":76,"startBeat":280.85729166666664,"startTick":269623,"startTime":105.32148437499998,"velocity":68},{"channel":1,"duration":0.1875,"durationBeats":0.5,"durationTicks":480,"endBeat":281.409375,"endTick":270153,"endTime":105.52851562500001,"note":26,"startBeat":280.909375,"startTick":269673,"startTime":105.34101562500001,"velocity":50},{"channel":9,"duration":0.09375,"durationBeats":0.25,"durationTicks":240,"endBeat":281.6614583333333,"endTick":270395,"endTime":105.623046875,"note":35,"startBeat":281.4114583333333,"startTick":270155,"startTime":105.529296875,"velocity":50},{"channel":9,"duration":0.0625,"durationBeats":0.16666666666668561,"durationTicks":160,"endBeat":281.75,"endTick":270480,"endTime":105.65625,"note":42,"startBeat":281.5833333333333,"startTick":270320,"startTime":105.59375,"velocity":50},{"channel":0,"duration":0.375,"durationBeats":1,"durationTicks":960,"endBeat":281.85729166666664,"endTick":270583,"endTime":105.69648437499998,"note":67,"startBeat":280.85729166666664,"startTick":269623,"startTime":105.32148437499998,"velocity":68},{"channel":0,"duration":0.375,"durationBeats":1,"durationTicks":960,"endBeat":281.85729166666664,"endTick":270583,"endTime":105.69648437499998,"note":69,"startBeat":280.85729166666664,"startTick":269623,"startTime":105.32148437499998,"velocity":68},{"channel":0,"duration":0.375,"durationBeats":1,"durationTicks":960,"endBeat":281.85729166666664,"endTick":270583,"endTime":105.69648437499998,"note":73,"startBeat":280.85729166666664,"startTick":269623,"startTime":105.32148437499998,"velocity":68},{"channel":0,"duration":0.1875,"durationBeats":0.5,"durationTicks":480,"endBeat":281.85729166666664,"endTick":270583,"endTime":105.69648437499998,"note":76,"startBeat":281.35729166666664,"startTick":270103,"startTime":105.50898437499998,"velocity":68},{"channel":9,"duration":0.09375,"durationBeats":0.25,"durationTicks":240,"endBeat":281.9322916666667,"endTick":270655,"endTime":105.724609375,"note":35,"startBeat":281.6822916666667,"startTick":270415,"startTime":105.630859375,"velocity":50},{"channel":9,"duration":0.09375,"durationBeats":0.25,"durationTicks":240,"endBeat":282.1041666666667,"endTick":270820,"endTime":105.7890625,"note":42,"startBeat":281.8541666666667,"startTick":270580,"startTime":105.6953125,"velocity":50},{"channel":2,"duration":0.1875,"durationBeats":0.5,"durationTicks":480,"endBeat":282.13854166666664,"endTick":270853,"endTime":105.80195312499998,"note":38,"startBeat":281.63854166666664,"startTick":270373,"startTime":105.61445312499998,"velocity":57},{"channel":0,"duration":0.1875,"durationBeats":0.5,"durationTicks":480,"endBeat":282.35729166666664,"endTick":271063,"endTime":105.88398437499998,"note":73,"startBeat":281.85729166666664,"startTick":270583,"startTime":105.69648437499998,"velocity":68},{"channel":0,"duration":0.1875,"durationBeats":0.5,"durationTicks":480,"endBeat":282.35729166666664,"endTick":271063,"endTime":105.88398437499998,"note":77,"startBeat":281.85729166666664,"startTick":270583,"startTime":105.69648437499998,"velocity":68},{"channel":1,"duration":0.1875,"durationBeats":0.5,"durationTicks":480,"endBeat":282.409375,"endTick":271113,"endTime":105.90351562500001,"note":38,"startBeat":281.909375,"startTick":270633,"startTime":105.71601562500001,"velocity":50},{"channel":9,"duration":0.09375,"durationBeats":0.25,"durationTicks":240,"endBeat":282.4114583333333,"endTick":271115,"endTime":105.904296875,"note":35,"startBeat":282.1614583333333,"startTick":270875,"startTime":105.810546875,"velocity":50},{"channel":9,"duration":0.09375,"durationBeats":0.25,"durationTicks":240,"endBeat":282.5,"endTick":271200,"endTime":105.9375,"note":42,"startBeat":282.25,"startTick":270960,"startTime":105.84375,"velocity":50},{"channel":2,"duration":0.1875,"durationBeats":0.5,"durationTicks":480,"endBeat":282.63854166666664,"endTick":271333,"endTime":105.98945312499998,"note":26,"startBeat":282.13854166666664,"startTick":270853,"startTime":105.80195312499998,"velocity":57},{"channel":9,"duration":0.0078125,"durationBeats":0.02083333333337123,"durationTicks":20,"endBeat":282.6822916666667,"endTick":271375,"endTime":106.005859375,"note":35,"startBeat":282.6614583333333,"startTick":271355,"startTime":105.998046875,"velocity":50},{"channel":9,"duration":0.09375,"durationBeats":0.25,"durationTicks":240,"endBeat":282.75,"endTick":271440,"endTime":106.03125,"note":42,"startBeat":282.5,"startTick":271200,"startTime":105.9375,"velocity":50},{"channel":0,"duration":0.1875,"durationBeats":0.5,"durationTicks":480,"endBeat":282.85729166666664,"endTick":271543,"endTime":106.07148437499998,"note":69,"startBeat":282.35729166666664,"startTick":271063,"startTime":105.88398437499998,"velocity":68},{"channel":0,"duration":0.1875,"durationBeats":0.5,"durationTicks":480,"endBeat":282.85729166666664,"endTick":271543,"endTime":106.07148437499998,"note":76,"startBeat":282.35729166666664,"startTick":271063,"startTime":105.88398437499998,"velocity":68},{"channel":1,"duration":0.1875,"durationBeats":0.5,"durationTicks":480,"endBeat":282.909375,"endTick":271593,"endTime":106.09101562500001,"note":26,"startBeat":282.409375,"startTick":271113,"startTime":105.90351562500001,"velocity":50},{"channel":9,"duration":0.09375,"durationBeats":0.25,"durationTicks":240,"endBeat":283.0833333333333,"endTick":271760,"endTime":106.15625,"note":42,"startBeat":282.8333333333333,"startTick":271520,"startTime":106.0625,"velocity":50},{"channel":2,"duration":0.1875,"durationBeats":0.5,"durationTicks":480,"endBeat":283.13854166666664,"endTick":271813,"endTime":106.17695312499998,"note":33,"startBeat":282.63854166666664,"startTick":271333,"startTime":105.98945312499998,"velocity":57},{"channel":8,"duration":1.03125,"durationBeats":2.75,"durationTicks":2640,"endBeat":283.1666666666667,"endTick":271840,"endTime":106.1875,"note":69,"startBeat":280.4166666666667,"startTick":269200,"startTime":105.15625,"velocity":50},{"channel":9,"duration":0.09375,"durationBeats":0.25,"durationTicks":240,"endBeat":283.1822916666667,"endTick":271855,"endTime":106.193359375,"note":35,"startBeat":282.9322916666667,"startTick":271615,"startTime":106.099609375,"velocity":50},{"channel":9,"duration":0.03125,"durationBeats":0.08333333333331439,"durationTicks":80,"endBeat":283.3333333333333,"endTick":272000,"endTime":106.25,"note":42,"startBeat":283.25,"startTick":271920,"startTime":106.21875,"velocity":50},{"channel":0,"duration":0.1875,"durationBeats":0.5,"durationTicks":480,"endBeat":283.35729166666664,"endTick":272023,"endTime":106.25898437499998,"note":43,"startBeat":282.85729166666664,"startTick":271543,"startTime":106.07148437499998,"velocity":68},{"channel":1,"duration":0.1875,"durationBeats":0.5,"durationTicks":480,"endBeat":283.409375,"endTick":272073,"endTime":106.27851562500001,"note":33,"startBeat":282.909375,"startTick":271593,"startTime":106.09101562500001,"velocity":50},{"channel":0,"duration":0.375,"durationBeats":1,"durationTicks":960,"endBeat":283.85729166666664,"endTick":272503,"endTime":106.44648437499998,"note":69,"startBeat":282.85729166666664,"startTick":271543,"startTime":106.07148437499998,"velocity":68},{"channel":0,"duration":0.375,"durationBeats":1,"durationTicks":960,"endBeat":283.85729166666664,"endTick":272503,"endTime":106.44648437499998,"note":65,"startBeat":282.85729166666664,"startTick":271543,"startTime":106.07148437499998,"velocity":68},{"channel":0,"duration":0.375,"durationBeats":1,"durationTicks":960,"endBeat":283.85729166666664,"endTick":272503,"endTime":106.44648437499998,"note":62,"startBeat":282.85729166666664,"startTick":271543,"startTime":106.07148437499998,"velocity":68},{"channel":0,"duration":0.375,"durationBeats":1,"durationTicks":960,"endBeat":283.85729166666664,"endTick":272503,"endTime":106.44648437499998,"note":58,"startBeat":282.85729166666664,"startTick":271543,"startTime":106.07148437499998,"velocity":68},{"channel":0,"duration":0.1875,"durationBeats":0.5,"durationTicks":480,"endBeat":283.85729166666664,"endTick":272503,"endTime":106.44648437499998,"note":50,"startBeat":283.35729166666664,"startTick":272023,"startTime":106.25898437499998,"velocity":68},{"channel":9,"duration":0.09375,"durationBeats":0.25,"durationTicks":240,"endBeat":283.9114583333333,"endTick":272555,"endTime":106.466796875,"note":35,"startBeat":283.6614583333333,"startTick":272315,"startTime":106.373046875,"velocity":50},{"channel":9,"duration":0.03125,"durationBeats":0.08333333333331439,"durationTicks":80,"endBeat":284.0833333333333,"endTick":272720,"endTime":106.53125,"note":42,"startBeat":284,"startTick":272640,"startTime":106.5,"velocity":50},{"channel":2,"duration":0.1875,"durationBeats":0.5,"durationTicks":480,"endBeat":284.13854166666664,"endTick":272773,"endTime":106.55195312499998,"note":26,"startBeat":283.63854166666664,"startTick":272293,"startTime":106.36445312499998,"velocity":57},{"channel":9,"duration":0.09375,"durationBeats":0.25,"durationTicks":240,"endBeat":284.1822916666667,"endTick":272815,"endTime":106.568359375,"note":35,"startBeat":283.9322916666667,"startTick":272575,"startTime":106.474609375,"velocity":50},{"channel":9,"duration":0.0625,"durationBeats":0.16666666666668561,"durationTicks":160,"endBeat":284.25,"endTick":272880,"endTime":106.59375,"note":42,"startBeat":284.0833333333333,"startTick":272720,"startTime":106.53125,"velocity":50},{"channel":9,"duration":0.0234375,"durationBeats":0.0625,"durationTicks":60,"endBeat":284.3125,"endTick":272940,"endTime":106.6171875,"note":42,"startBeat":284.25,"startTick":272880,"startTime":106.59375,"velocity":50},{"channel":0,"duration":0.1875,"durationBeats":0.5,"durationTicks":480,"endBeat":284.35729166666664,"endTick":272983,"endTime":106.63398437499998,"note":43,"startBeat":283.85729166666664,"startTick":272503,"startTime":106.44648437499998,"velocity":68},{"channel":7,"duration":0.09375,"durationBeats":0.25,"durationTicks":240,"endBeat":284.3989583333333,"endTick":273023,"endTime":106.649609375,"note":86,"startBeat":284.1489583333333,"startTick":272783,"startTime":106.555859375,"velocity":50},{"channel":1,"duration":0.1875,"durationBeats":0.5,"durationTicks":480,"endBeat":284.409375,"endTick":273033,"endTime":106.65351562500001,"note":26,"startBeat":283.909375,"startTick":272553,"startTime":106.46601562500001,"velocity":50},{"channel":9,"duration":0.0234375,"durationBeats":0.0625,"durationTicks":60,"endBeat":284.4375,"endTick":273060,"endTime":106.6640625,"note":42,"startBeat":284.375,"startTick":273000,"startTime":106.640625,"velocity":50},{"channel":9,"duration":0.0234375,"durationBeats":0.0625,"durationTicks":60,"endBeat":284.5625,"endTick":273180,"endTime":106.7109375,"note":42,"startBeat":284.5,"startTick":273120,"startTime":106.6875,"velocity":50},{"channel":0,"duration":0.09375,"durationBeats":0.25,"durationTicks":240,"endBeat":284.60729166666664,"endTick":273223,"endTime":106.72773437499998,"note":65,"startBeat":284.35729166666664,"startTick":272983,"startTime":106.63398437499998,"velocity":68},{"channel":2,"duration":0.1875,"durationBeats":0.5,"durationTicks":480,"endBeat":284.63854166666664,"endTick":273253,"endTime":106.73945312499998,"note":33,"startBeat":284.13854166666664,"startTick":272773,"startTime":106.55195312499998,"velocity":57},{"channel":7,"duration":0.09375,"durationBeats":0.25,"durationTicks":240,"endBeat":284.6489583333333,"endTick":273263,"endTime":106.743359375,"note":89,"startBeat":284.3989583333333,"startTick":273023,"startTime":106.649609375,"velocity":50},{"channel":9,"duration":0.0234375,"durationBeats":0.0625,"durationTicks":60,"endBeat":284.6875,"endTick":273300,"endTime":106.7578125,"note":42,"startBeat":284.625,"startTick":273240,"startTime":106.734375,"velocity":50},{"channel":10,"duration":0.09375,"durationBeats":0.25,"durationTicks":240,"endBeat":284.753125,"endTick":273363,"endTime":106.78242187500001,"note":86,"startBeat":284.503125,"startTick":273123,"startTime":106.68867187500001,"velocity":50},{"channel":9,"duration":0.0234375,"durationBeats":0.0625,"durationTicks":60,"endBeat":284.8125,"endTick":273420,"endTime":106.8046875,"note":42,"startBeat":284.75,"startTick":273360,"startTime":106.78125,"velocity":50},{"channel":0,"duration":0.1875,"durationBeats":0.5,"durationTicks":480,"endBeat":284.85729166666664,"endTick":273463,"endTime":106.82148437499998,"note":44,"startBeat":284.35729166666664,"startTick":272983,"startTime":106.63398437499998,"velocity":68},{"channel":0,"duration":0.09375,"durationBeats":0.25,"durationTicks":240,"endBeat":284.85729166666664,"endTick":273463,"endTime":106.82148437499998,"note":69,"startBeat":284.60729166666664,"startTick":273223,"startTime":106.72773437499998,"velocity":68},{"channel":7,"duration":0.09375,"durationBeats":0.25,"durationTicks":240,"endBeat":284.8989583333333,"endTick":273503,"endTime":106.837109375,"note":91,"startBeat":284.6489583333333,"startTick":273263,"startTime":106.743359375,"velocity":50},{"channel":1,"duration":0.1875,"durationBeats":0.5,"durationTicks":480,"endBeat":284.909375,"endTick":273513,"endTime":106.84101562500001,"note":33,"startBeat":284.409375,"startTick":273033,"startTime":106.65351562500001,"velocity":50},{"channel":9,"duration":0.09375,"durationBeats":0.25,"durationTicks":240,"endBeat":284.9114583333333,"endTick":273515,"endTime":106.841796875,"note":35,"startBeat":284.6614583333333,"startTick":273275,"startTime":106.748046875,"velocity":50},{"channel":10,"duration":0.09375,"durationBeats":0.25,"durationTicks":240,"endBeat":285.003125,"endTick":273603,"endTime":106.87617187500001,"note":89,"startBeat":284.753125,"startTick":273363,"startTime":106.78242187500001,"velocity":50},{"channel":9,"duration":0.09375,"durationBeats":0.25,"durationTicks":240,"endBeat":285.0833333333333,"endTick":273680,"endTime":106.90625,"note":42,"startBeat":284.8333333333333,"startTick":273440,"startTime":106.8125,"velocity":50},{"channel":2,"duration":0.1875,"durationBeats":0.5,"durationTicks":480,"endBeat":285.13854166666664,"endTick":273733,"endTime":106.92695312499998,"note":32,"startBeat":284.63854166666664,"startTick":273253,"startTime":106.73945312499998,"velocity":57},{"channel":9,"duration":0.09375,"durationBeats":0.25,"durationTicks":240,"endBeat":285.1822916666667,"endTick":273775,"endTime":106.943359375,"note":35,"startBeat":284.9322916666667,"startTick":273535,"startTime":106.849609375,"velocity":50},{"channel":10,"duration":0.09375,"durationBeats":0.25,"durationTicks":240,"endBeat":285.253125,"endTick":273843,"endTime":106.96992187500001,"note":91,"startBeat":285.003125,"startTick":273603,"startTime":106.87617187500001,"velocity":50},{"channel":0,"duration":0.1875,"durationBeats":0.5,"durationTicks":480,"endBeat":285.35729166666664,"endTick":273943,"endTime":107.00898437499998,"note":60,"startBeat":284.85729166666664,"startTick":273463,"startTime":106.82148437499998,"velocity":68},{"channel":0,"duration":0.1875,"durationBeats":0.5,"durationTicks":480,"endBeat":285.35729166666664,"endTick":273943,"endTime":107.00898437499998,"note":64,"startBeat":284.85729166666664,"startTick":273463,"startTime":106.82148437499998,"velocity":68},{"channel":0,"duration":0.1875,"durationBeats":0.5,"durationTicks":480,"endBeat":285.35729166666664,"endTick":273943,"endTime":107.00898437499998,"note":67,"startBeat":284.85729166666664,"startTick":273463,"startTime":106.82148437499998,"velocity":68},{"channel":0,"duration":0.1875,"durationBeats":0.5,"durationTicks":480,"endBeat":285.35729166666664,"endTick":273943,"endTime":107.00898437499998,"note":72,"startBeat":284.85729166666664,"startTick":273463,"startTime":106.82148437499998,"velocity":68},{"channel":0,"duration":0.1875,"durationBeats":0.5,"durationTicks":480,"endBeat":285.35729166666664,"endTick":273943,"endTime":107.00898437499998,"note":45,"startBeat":284.85729166666664,"startTick":273463,"startTime":106.82148437499998,"velocity":68},{"channel":7,"duration":0.09375,"durationBeats":0.25,"durationTicks":240,"endBeat":285.3989583333333,"endTick":273983,"endTime":107.024609375,"note":93,"startBeat":285.1489583333333,"startTick":273743,"startTime":106.930859375,"velocity":50},{"channel":1,"duration":0.1875,"durationBeats":0.5,"durationTicks":480,"endBeat":285.409375,"endTick":273993,"endTime":107.02851562500001,"note":32,"startBeat":284.909375,"startTick":273513,"startTime":106.84101562500001,"velocity":50},{"channel":9,"duration":0.09375,"durationBeats":0.25,"durationTicks":240,"endBeat":285.5,"endTick":274080,"endTime":107.0625,"note":42,"startBeat":285.25,"startTick":273840,"startTime":106.96875,"velocity":50},{"channel":2,"duration":0.1875,"durationBeats":0.5,"durationTicks":480,"endBeat":285.63854166666664,"endTick":274213,"endTime":107.11445312499998,"note":31,"startBeat":285.13854166666664,"startTick":273733,"startTime":106.92695312499998,"velocity":57},{"channel":9,"duration":0.09375,"durationBeats":0.25,"durationTicks":240,"endBeat":285.6614583333333,"endTick":274235,"endTime":107.123046875,"note":35,"startBeat":285.4114583333333,"startTick":273995,"startTime":107.029296875,"velocity":50},{"channel":10,"duration":0.09375,"durationBeats":0.25,"durationTicks":240,"endBeat":285.753125,"endTick":274323,"endTime":107.15742187500001,"note":93,"startBeat":285.503125,"startTick":274083,"startTime":107.06367187500001,"velocity":50},{"channel":9,"duration":0.09375,"durationBeats":0.25,"durationTicks":240,"endBeat":285.8333333333333,"endTick":274400,"endTime":107.1875,"note":42,"startBeat":285.5833333333333,"startTick":274160,"startTime":107.09375,"velocity":50},{"channel":0,"duration":0.09375,"durationBeats":0.25,"durationTicks":240,"endBeat":285.85729166666664,"endTick":274423,"endTime":107.19648437499998,"note":45,"startBeat":285.60729166666664,"startTick":274183,"startTime":107.10273437499998,"velocity":68},{"channel":9,"duration":0.0234375,"durationBeats":0.0625,"durationTicks":60,"endBeat":285.8958333333333,"endTick":274460,"endTime":107.2109375,"note":42,"startBeat":285.8333333333333,"startTick":274400,"startTime":107.1875,"velocity":50},{"channel":7,"duration":0.09375,"durationBeats":0.25,"durationTicks":240,"endBeat":285.8989583333333,"endTick":274463,"endTime":107.212109375,"note":95,"startBeat":285.6489583333333,"startTick":274223,"startTime":107.118359375,"velocity":50},{"channel":1,"duration":0.1875,"durationBeats":0.5,"durationTicks":480,"endBeat":285.909375,"endTick":274473,"endTime":107.21601562500001,"note":31,"startBeat":285.409375,"startTick":273993,"startTime":107.02851562500001,"velocity":50},{"channel":9,"duration":0.09375,"durationBeats":0.25,"durationTicks":240,"endBeat":285.9322916666667,"endTick":274495,"endTime":107.224609375,"note":35,"startBeat":285.6822916666667,"startTick":274255,"startTime":107.130859375,"velocity":50},{"channel":9,"duration":0.0234375,"durationBeats":0.0625,"durationTicks":60,"endBeat":286.0208333333333,"endTick":274580,"endTime":107.2578125,"note":42,"startBeat":285.9583333333333,"startTick":274520,"startTime":107.234375,"velocity":50},{"channel":0,"duration":0.1875,"durationBeats":0.5,"durationTicks":480,"endBeat":286.10729166666664,"endTick":274663,"endTime":107.29023437499998,"note":70,"startBeat":285.60729166666664,"startTick":274183,"startTime":107.10273437499998,"velocity":68},{"channel":0,"duration":0.1875,"durationBeats":0.5,"durationTicks":480,"endBeat":286.10729166666664,"endTick":274663,"endTime":107.29023437499998,"note":67,"startBeat":285.60729166666664,"startTick":274183,"startTime":107.10273437499998,"velocity":68},{"channel":0,"duration":0.1875,"durationBeats":0.5,"durationTicks":480,"endBeat":286.10729166666664,"endTick":274663,"endTime":107.29023437499998,"note":65,"startBeat":285.60729166666664,"startTick":274183,"startTime":107.10273437499998,"velocity":68},{"channel":0,"duration":0.1875,"durationBeats":0.5,"durationTicks":480,"endBeat":286.10729166666664,"endTick":274663,"endTime":107.29023437499998,"note":61,"startBeat":285.60729166666664,"startTick":274183,"startTime":107.10273437499998,"velocity":68},{"channel":9,"duration":0.0234375,"durationBeats":0.0625,"durationTicks":60,"endBeat":286.1458333333333,"endTick":274700,"endTime":107.3046875,"note":42,"startBeat":286.0833333333333,"startTick":274640,"startTime":107.28125,"velocity":50},{"channel":10,"duration":0.09375,"durationBeats":0.25,"durationTicks":240,"endBeat":286.253125,"endTick":274803,"endTime":107.34492187500001,"note":95,"startBeat":286.003125,"startTick":274563,"startTime":107.25117187500001,"velocity":50},{"channel":9,"duration":0.0078125,"durationBeats":0.020833333333314386,"durationTicks":20,"endBeat":286.2708333333333,"endTick":274820,"endTime":107.3515625,"note":42,"startBeat":286.25,"startTick":274800,"startTime":107.34375,"velocity":50},{"channel":9,"duration":0.0234375,"durationBeats":0.0625,"durationTicks":60,"endBeat":286.3958333333333,"endTick":274940,"endTime":107.3984375,"note":42,"startBeat":286.3333333333333,"startTick":274880,"startTime":107.375,"velocity":50},{"channel":7,"duration":0.09375,"durationBeats":0.25,"durationTicks":240,"endBeat":286.3989583333333,"endTick":274943,"endTime":107.399609375,"note":94,"startBeat":286.1489583333333,"startTick":274703,"startTime":107.305859375,"velocity":50},{"channel":9,"duration":0.09375,"durationBeats":0.25,"durationTicks":240,"endBeat":286.4114583333333,"endTick":274955,"endTime":107.404296875,"note":35,"startBeat":286.1614583333333,"startTick":274715,"startTime":107.310546875,"velocity":50},{"channel":2,"duration":0.1875,"durationBeats":0.5,"durationTicks":480,"endBeat":286.63854166666664,"endTick":275173,"endTime":107.48945312499998,"note":31,"startBeat":286.13854166666664,"startTick":274693,"startTime":107.30195312499998,"velocity":57},{"channel":9,"duration":0.0078125,"durationBeats":0.02083333333337123,"durationTicks":20,"endBeat":286.6822916666667,"endTick":275215,"endTime":107.505859375,"note":35,"startBeat":286.6614583333333,"startTick":275195,"startTime":107.498046875,"velocity":50},{"channel":9,"duration":0.09375,"durationBeats":0.25,"durationTicks":240,"endBeat":286.75,"endTick":275280,"endTime":107.53125,"note":42,"startBeat":286.5,"startTick":275040,"startTime":107.4375,"velocity":50},{"channel":10,"duration":0.09375,"durationBeats":0.25,"durationTicks":240,"endBeat":286.753125,"endTick":275283,"endTime":107.53242187500001,"note":94,"startBeat":286.503125,"startTick":275043,"startTime":107.43867187500001,"velocity":50},{"channel":0,"duration":0.1875,"durationBeats":0.5,"durationTicks":480,"endBeat":286.85729166666664,"endTick":275383,"endTime":107.57148437499998,"note":69,"startBeat":286.35729166666664,"startTick":274903,"startTime":107.38398437499998,"velocity":68},{"channel":0,"duration":0.1875,"durationBeats":0.5,"durationTicks":480,"endBeat":286.85729166666664,"endTick":275383,"endTime":107.57148437499998,"note":65,"startBeat":286.35729166666664,"startTick":274903,"startTime":107.38398437499998,"velocity":68},{"channel":0,"duration":0.1875,"durationBeats":0.5,"durationTicks":480,"endBeat":286.85729166666664,"endTick":275383,"endTime":107.57148437499998,"note":64,"startBeat":286.35729166666664,"startTick":274903,"startTime":107.38398437499998,"velocity":68},{"channel":0,"duration":0.1875,"durationBeats":0.5,"durationTicks":480,"endBeat":286.85729166666664,"endTick":275383,"endTime":107.57148437499998,"note":60,"startBeat":286.35729166666664,"startTick":274903,"startTime":107.38398437499998,"velocity":68},{"channel":0,"duration":0.1875,"durationBeats":0.5,"durationTicks":480,"endBeat":286.85729166666664,"endTick":275383,"endTime":107.57148437499998,"note":38,"startBeat":286.35729166666664,"startTick":274903,"startTime":107.38398437499998,"velocity":68},{"channel":7,"duration":0.09375,"durationBeats":0.25,"durationTicks":240,"endBeat":286.8989583333333,"endTick":275423,"endTime":107.587109375,"note":93,"startBeat":286.6489583333333,"startTick":275183,"startTime":107.493359375,"velocity":50},{"channel":1,"duration":0.1875,"durationBeats":0.5,"durationTicks":480,"endBeat":286.909375,"endTick":275433,"endTime":107.59101562500001,"note":31,"startBeat":286.409375,"startTick":274953,"startTime":107.40351562500001,"velocity":50},{"channel":9,"duration":0.09375,"durationBeats":0.25,"durationTicks":240,"endBeat":287.0833333333333,"endTick":275600,"endTime":107.65625,"note":42,"startBeat":286.8333333333333,"startTick":275360,"startTime":107.5625,"velocity":50},{"channel":0,"duration":0.09375,"durationBeats":0.25,"durationTicks":240,"endBeat":287.10729166666664,"endTick":275623,"endTime":107.66523437499998,"note":76,"startBeat":286.85729166666664,"startTick":275383,"startTime":107.57148437499998,"velocity":68},{"channel":2,"duration":0.1875,"durationBeats":0.5,"durationTicks":480,"endBeat":287.13854166666664,"endTick":275653,"endTime":107.67695312499998,"note":32,"startBeat":286.63854166666664,"startTick":275173,"startTime":107.48945312499998,"velocity":57},{"channel":9,"duration":0.09375,"durationBeats":0.25,"durationTicks":240,"endBeat":287.1822916666667,"endTick":275695,"endTime":107.693359375,"note":35,"startBeat":286.9322916666667,"startTick":275455,"startTime":107.599609375,"velocity":50},{"channel":10,"duration":0.09375,"durationBeats":0.25,"durationTicks":240,"endBeat":287.253125,"endTick":275763,"endTime":107.71992187500001,"note":93,"startBeat":287.003125,"startTick":275523,"startTime":107.62617187500001,"velocity":50},{"channel":9,"duration":0.03125,"durationBeats":0.08333333333331439,"durationTicks":80,"endBeat":287.3333333333333,"endTick":275840,"endTime":107.75,"note":42,"startBeat":287.25,"startTick":275760,"startTime":107.71875,"velocity":50},{"channel":0,"duration":0.09375,"durationBeats":0.25,"durationTicks":240,"endBeat":287.35729166666664,"endTick":275863,"endTime":107.75898437499998,"note":77,"startBeat":287.10729166666664,"startTick":275623,"startTime":107.66523437499998,"velocity":68},{"channel":7,"duration":0.09375,"durationBeats":0.25,"durationTicks":240,"endBeat":287.3989583333333,"endTick":275903,"endTime":107.774609375,"note":92,"startBeat":287.1489583333333,"startTick":275663,"startTime":107.680859375,"velocity":50},{"channel":1,"duration":0.1875,"durationBeats":0.5,"durationTicks":480,"endBeat":287.409375,"endTick":275913,"endTime":107.77851562500001,"note":32,"startBeat":286.909375,"startTick":275433,"startTime":107.59101562500001,"velocity":50},{"channel":0,"duration":0.09375,"durationBeats":0.25,"durationTicks":240,"endBeat":287.60729166666664,"endTick":276103,"endTime":107.85273437499998,"note":76,"startBeat":287.35729166666664,"startTick":275863,"startTime":107.75898437499998,"velocity":68},{"channel":2,"duration":0.1875,"durationBeats":0.5,"durationTicks":480,"endBeat":287.63854166666664,"endTick":276133,"endTime":107.86445312499998,"note":33,"startBeat":287.13854166666664,"startTick":275653,"startTime":107.67695312499998,"velocity":57},{"channel":10,"duration":0.09375,"durationBeats":0.25,"durationTicks":240,"endBeat":287.753125,"endTick":276243,"endTime":107.90742187500001,"note":92,"startBeat":287.503125,"startTick":276003,"startTime":107.81367187500001,"velocity":50},{"channel":0,"duration":0.09375,"durationBeats":0.25,"durationTicks":240,"endBeat":287.85729166666664,"endTick":276343,"endTime":107.94648437499998,"note":72,"startBeat":287.60729166666664,"startTick":276103,"startTime":107.85273437499998,"velocity":68},{"channel":1,"duration":0.1875,"durationBeats":0.5,"durationTicks":480,"endBeat":287.909375,"endTick":276393,"endTime":107.96601562500001,"note":33,"startBeat":287.409375,"startTick":275913,"startTime":107.77851562500001,"velocity":50},{"channel":9,"duration":0.09375,"durationBeats":0.25,"durationTicks":240,"endBeat":287.9114583333333,"endTick":276395,"endTime":107.966796875,"note":35,"startBeat":287.6614583333333,"startTick":276155,"startTime":107.873046875,"velocity":50},{"channel":9,"duration":0.03125,"durationBeats":0.08333333333331439,"durationTicks":80,"endBeat":288.0833333333333,"endTick":276560,"endTime":108.03125,"note":42,"startBeat":288,"startTick":276480,"startTime":108,"velocity":50},{"channel":0,"duration":0.09375,"durationBeats":0.25,"durationTicks":240,"endBeat":288.10729166666664,"endTick":276583,"endTime":108.04023437499998,"note":76,"startBeat":287.85729166666664,"startTick":276343,"startTime":107.94648437499998,"velocity":68},{"channel":2,"duration":0.09375,"durationBeats":0.25,"durationTicks":240,"endBeat":288.13854166666664,"endTick":276613,"endTime":108.05195312499998,"note":33,"startBeat":287.88854166666664,"startTick":276373,"startTime":107.95820312499998,"velocity":57},{"channel":9,"duration":0.09375,"durationBeats":0.25,"durationTicks":240,"endBeat":288.1822916666667,"endTick":276655,"endTime":108.068359375,"note":35,"startBeat":287.9322916666667,"startTick":276415,"startTime":107.974609375,"velocity":50},{"channel":9,"duration":0.0625,"durationBeats":0.16666666666668561,"durationTicks":160,"endBeat":288.25,"endTick":276720,"endTime":108.09375,"note":42,"startBeat":288.0833333333333,"startTick":276560,"startTime":108.03125,"velocity":50},{"channel":9,"duration":0.0234375,"durationBeats":0.0625,"durationTicks":60,"endBeat":288.3125,"endTick":276780,"endTime":108.1171875,"note":42,"startBeat":288.25,"startTick":276720,"startTime":108.09375,"velocity":50},{"channel":0,"duration":0.09375,"durationBeats":0.25,"durationTicks":240,"endBeat":288.35729166666664,"endTick":276823,"endTime":108.13398437499998,"note":72,"startBeat":288.10729166666664,"startTick":276583,"startTime":108.04023437499998,"velocity":68},{"channel":1,"duration":0.09375,"durationBeats":0.25,"durationTicks":240,"endBeat":288.409375,"endTick":276873,"endTime":108.15351562500001,"note":33,"startBeat":288.159375,"startTick":276633,"startTime":108.05976562500001,"velocity":50},{"channel":9,"duration":0.001953125,"durationBeats":0.0052083333333143855,"durationTicks":5,"endBeat":288.4375,"endTick":276900,"endTime":108.1640625,"note":42,"startBeat":288.4322916666667,"startTick":276895,"startTime":108.162109375,"velocity":50},{"channel":9,"duration":0.0234375,"durationBeats":0.0625,"durationTicks":60,"endBeat":288.5625,"endTick":277020,"endTime":108.2109375,"note":42,"startBeat":288.5,"startTick":276960,"startTime":108.1875,"velocity":50},{"channel":0,"duration":0.09375,"durationBeats":0.25,"durationTicks":240,"endBeat":288.60729166666664,"endTick":277063,"endTime":108.22773437499998,"note":69,"startBeat":288.35729166666664,"startTick":276823,"startTime":108.13398437499998,"velocity":68},{"channel":9,"duration":0.021484375,"durationBeats":0.057291666666685614,"durationTicks":55,"endBeat":288.6822916666667,"endTick":277135,"endTime":108.255859375,"note":42,"startBeat":288.625,"startTick":277080,"startTime":108.234375,"velocity":50},{"channel":0,"duration":0.1875,"durationBeats":0.5,"durationTicks":480,"endBeat":288.85729166666664,"endTick":277303,"endTime":108.32148437499998,"note":45,"startBeat":288.35729166666664,"startTick":276823,"startTime":108.13398437499998,"velocity":68},{"channel":0,"duration":0.09375,"durationBeats":0.25,"durationTicks":240,"endBeat":288.85729166666664,"endTick":277303,"endTime":108.32148437499998,"note":67,"startBeat":288.60729166666664,"startTick":277063,"startTime":108.22773437499998,"velocity":68},{"channel":9,"duration":0.09375,"durationBeats":0.25,"durationTicks":240,"endBeat":288.9114583333333,"endTick":277355,"endTime":108.341796875,"note":35,"startBeat":288.6614583333333,"startTick":277115,"startTime":108.248046875,"velocity":50},{"channel":9,"duration":0.09375,"durationBeats":0.25,"durationTicks":240,"endBeat":289.0833333333333,"endTick":277520,"endTime":108.40625,"note":42,"startBeat":288.8333333333333,"startTick":277280,"startTime":108.3125,"velocity":50},{"channel":0,"duration":0.09375,"durationBeats":0.25,"durationTicks":240,"endBeat":289.10729166666664,"endTick":277543,"endTime":108.41523437499998,"note":69,"startBeat":288.85729166666664,"startTick":277303,"startTime":108.32148437499998,"velocity":68},{"channel":2,"duration":0.1875,"durationBeats":0.5,"durationTicks":480,"endBeat":289.13854166666664,"endTick":277573,"endTime":108.42695312499998,"note":26,"startBeat":288.63854166666664,"startTick":277093,"startTime":108.23945312499998,"velocity":57},{"channel":9,"duration":0.09375,"durationBeats":0.25,"durationTicks":240,"endBeat":289.1822916666667,"endTick":277615,"endTime":108.443359375,"note":35,"startBeat":288.9322916666667,"startTick":277375,"startTime":108.349609375,"velocity":50},{"channel":0,"duration":0.1875,"durationBeats":0.5,"durationTicks":480,"endBeat":289.35729166666664,"endTick":277783,"endTime":108.50898437499998,"note":50,"startBeat":288.85729166666664,"startTick":277303,"startTime":108.32148437499998,"velocity":68},{"channel":0,"duration":0.09375,"durationBeats":0.25,"durationTicks":240,"endBeat":289.35729166666664,"endTick":277783,"endTime":108.50898437499998,"note":62,"startBeat":289.10729166666664,"startTick":277543,"startTime":108.41523437499998,"velocity":68},{"channel":1,"duration":0.1875,"durationBeats":0.5,"durationTicks":480,"endBeat":289.409375,"endTick":277833,"endTime":108.52851562500001,"note":26,"startBeat":288.909375,"startTick":277353,"startTime":108.34101562500001,"velocity":50},{"channel":9,"duration":0.09375,"durationBeats":0.25,"durationTicks":240,"endBeat":289.5,"endTick":277920,"endTime":108.5625,"note":42,"startBeat":289.25,"startTick":277680,"startTime":108.46875,"velocity":50},{"channel":0,"duration":0.09375,"durationBeats":0.25,"durationTicks":240,"endBeat":289.60729166666664,"endTick":278023,"endTime":108.60273437499998,"note":60,"startBeat":289.35729166666664,"startTick":277783,"startTime":108.50898437499998,"velocity":68},{"channel":9,"duration":0.09375,"durationBeats":0.25,"durationTicks":240,"endBeat":289.6614583333333,"endTick":278075,"endTime":108.623046875,"note":35,"startBeat":289.4114583333333,"startTick":277835,"startTime":108.529296875,"velocity":50},{"channel":9,"duration":0.0625,"durationBeats":0.16666666666668561,"durationTicks":160,"endBeat":289.75,"endTick":278160,"endTime":108.65625,"note":42,"startBeat":289.5833333333333,"startTick":278000,"startTime":108.59375,"velocity":50},{"channel":0,"duration":0.1875,"durationBeats":0.5,"durationTicks":480,"endBeat":289.85729166666664,"endTick":278263,"endTime":108.69648437499998,"note":38,"startBeat":289.35729166666664,"startTick":277783,"startTime":108.50898437499998,"velocity":68},{"channel":0,"duration":0.09375,"durationBeats":0.25,"durationTicks":240,"endBeat":289.85729166666664,"endTick":278263,"endTime":108.69648437499998,"note":65,"startBeat":289.60729166666664,"startTick":278023,"startTime":108.60273437499998,"velocity":68},{"channel":9,"duration":0.0234375,"durationBeats":0.0625,"durationTicks":60,"endBeat":289.8958333333333,"endTick":278300,"endTime":108.7109375,"note":42,"startBeat":289.8333333333333,"startTick":278240,"startTime":108.6875,"velocity":50},{"channel":9,"duration":0.09375,"durationBeats":0.25,"durationTicks":240,"endBeat":289.9322916666667,"endTick":278335,"endTime":108.724609375,"note":35,"startBeat":289.6822916666667,"startTick":278095,"startTime":108.630859375,"velocity":50},{"channel":9,"duration":0.0234375,"durationBeats":0.0625,"durationTicks":60,"endBeat":290.0208333333333,"endTick":278420,"endTime":108.7578125,"note":42,"startBeat":289.9583333333333,"startTick":278360,"startTime":108.734375,"velocity":50},{"channel":2,"duration":0.1875,"durationBeats":0.5,"durationTicks":480,"endBeat":290.13854166666664,"endTick":278533,"endTime":108.80195312499998,"note":26,"startBeat":289.63854166666664,"startTick":278053,"startTime":108.61445312499998,"velocity":57},{"channel":9,"duration":0.0234375,"durationBeats":0.0625,"durationTicks":60,"endBeat":290.1458333333333,"endTick":278540,"endTime":108.8046875,"note":42,"startBeat":290.0833333333333,"startTick":278480,"startTime":108.78125,"velocity":50},{"channel":9,"duration":0.0078125,"durationBeats":0.020833333333314386,"durationTicks":20,"endBeat":290.2708333333333,"endTick":278660,"endTime":108.8515625,"note":42,"startBeat":290.25,"startTick":278640,"startTime":108.84375,"velocity":50},{"channel":0,"duration":0.1875,"durationBeats":0.5,"durationTicks":480,"endBeat":290.35729166666664,"endTick":278743,"endTime":108.88398437499998,"note":45,"startBeat":289.85729166666664,"startTick":278263,"startTime":108.69648437499998,"velocity":68},{"channel":0,"duration":0.1875,"durationBeats":0.5,"durationTicks":480,"endBeat":290.35729166666664,"endTick":278743,"endTime":108.88398437499998,"note":69,"startBeat":289.85729166666664,"startTick":278263,"startTime":108.69648437499998,"velocity":68},{"channel":0,"duration":0.1875,"durationBeats":0.5,"durationTicks":480,"endBeat":290.35729166666664,"endTick":278743,"endTime":108.88398437499998,"note":60,"startBeat":289.85729166666664,"startTick":278263,"startTime":108.69648437499998,"velocity":68},{"channel":0,"duration":0.1875,"durationBeats":0.5,"durationTicks":480,"endBeat":290.35729166666664,"endTick":278743,"endTime":108.88398437499998,"note":64,"startBeat":289.85729166666664,"startTick":278263,"startTime":108.69648437499998,"velocity":68},{"channel":9,"duration":0.0234375,"durationBeats":0.0625,"durationTicks":60,"endBeat":290.3958333333333,"endTick":278780,"endTime":108.8984375,"note":42,"startBeat":290.3333333333333,"startTick":278720,"startTime":108.875,"velocity":50},{"channel":1,"duration":0.1875,"durationBeats":0.5,"durationTicks":480,"endBeat":290.409375,"endTick":278793,"endTime":108.90351562500001,"note":26,"startBeat":289.909375,"startTick":278313,"startTime":108.71601562500001,"velocity":50},{"channel":9,"duration":0.09375,"durationBeats":0.25,"durationTicks":240,"endBeat":290.4114583333333,"endTick":278795,"endTime":108.904296875,"note":35,"startBeat":290.1614583333333,"startTick":278555,"startTime":108.810546875,"velocity":50},{"channel":2,"duration":0.1875,"durationBeats":0.5,"durationTicks":480,"endBeat":290.63854166666664,"endTick":279013,"endTime":108.98945312499998,"note":33,"startBeat":290.13854166666664,"startTick":278533,"startTime":108.80195312499998,"velocity":57},{"channel":9,"duration":0.0078125,"durationBeats":0.02083333333337123,"durationTicks":20,"endBeat":290.6822916666667,"endTick":279055,"endTime":109.005859375,"note":35,"startBeat":290.6614583333333,"startTick":279035,"startTime":108.998046875,"velocity":50},{"channel":9,"duration":0.09375,"durationBeats":0.25,"durationTicks":240,"endBeat":290.75,"endTick":279120,"endTime":109.03125,"note":42,"startBeat":290.5,"startTick":278880,"startTime":108.9375,"velocity":50},{"channel":0,"duration":0.1875,"durationBeats":0.5,"durationTicks":480,"endBeat":290.85729166666664,"endTick":279223,"endTime":109.07148437499998,"note":44,"startBeat":290.35729166666664,"startTick":278743,"startTime":108.88398437499998,"velocity":68},{"channel":0,"duration":0.1875,"durationBeats":0.5,"durationTicks":480,"endBeat":290.85729166666664,"endTick":279223,"endTime":109.07148437499998,"note":68,"startBeat":290.35729166666664,"startTick":278743,"startTime":108.88398437499998,"velocity":68},{"channel":0,"duration":0.1875,"durationBeats":0.5,"durationTicks":480,"endBeat":290.85729166666664,"endTick":279223,"endTime":109.07148437499998,"note":63,"startBeat":290.35729166666664,"startTick":278743,"startTime":108.88398437499998,"velocity":68},{"channel":0,"duration":0.1875,"durationBeats":0.5,"durationTicks":480,"endBeat":290.85729166666664,"endTick":279223,"endTime":109.07148437499998,"note":59,"startBeat":290.35729166666664,"startTick":278743,"startTime":108.88398437499998,"velocity":68},{"channel":1,"duration":0.1875,"durationBeats":0.5,"durationTicks":480,"endBeat":290.909375,"endTick":279273,"endTime":109.09101562500001,"note":33,"startBeat":290.409375,"startTick":278793,"startTime":108.90351562500001,"velocity":50},{"channel":9,"duration":0.09375,"durationBeats":0.25,"durationTicks":240,"endBeat":291.0833333333333,"endTick":279440,"endTime":109.15625,"note":42,"startBeat":290.8333333333333,"startTick":279200,"startTime":109.0625,"velocity":50},{"channel":2,"duration":0.1875,"durationBeats":0.5,"durationTicks":480,"endBeat":291.13854166666664,"endTick":279493,"endTime":109.17695312499998,"note":26,"startBeat":290.63854166666664,"startTick":279013,"startTime":108.98945312499998,"velocity":57},{"channel":9,"duration":0.09375,"durationBeats":0.25,"durationTicks":240,"endBeat":291.1822916666667,"endTick":279535,"endTime":109.193359375,"note":35,"startBeat":290.9322916666667,"startTick":279295,"startTime":109.099609375,"velocity":50},{"channel":9,"duration":0.03125,"durationBeats":0.08333333333331439,"durationTicks":80,"endBeat":291.3333333333333,"endTick":279680,"endTime":109.25,"note":42,"startBeat":291.25,"startTick":279600,"startTime":109.21875,"velocity":50},{"channel":0,"duration":0.1875,"durationBeats":0.5,"durationTicks":480,"endBeat":291.35729166666664,"endTick":279703,"endTime":109.25898437499998,"note":43,"startBeat":290.85729166666664,"startTick":279223,"startTime":109.07148437499998,"velocity":68},{"channel":1,"duration":0.1875,"durationBeats":0.5,"durationTicks":480,"endBeat":291.409375,"endTick":279753,"endTime":109.27851562500001,"note":26,"startBeat":290.909375,"startTick":279273,"startTime":109.09101562500001,"velocity":50},{"channel":0,"duration":0.375,"durationBeats":1,"durationTicks":960,"endBeat":291.85729166666664,"endTick":280183,"endTime":109.44648437499998,"note":69,"startBeat":290.85729166666664,"startTick":279223,"startTime":109.07148437499998,"velocity":68},{"channel":0,"duration":0.375,"durationBeats":1,"durationTicks":960,"endBeat":291.85729166666664,"endTick":280183,"endTime":109.44648437499998,"note":65,"startBeat":290.85729166666664,"startTick":279223,"startTime":109.07148437499998,"velocity":68},{"channel":0,"duration":0.375,"durationBeats":1,"durationTicks":960,"endBeat":291.85729166666664,"endTick":280183,"endTime":109.44648437499998,"note":62,"startBeat":290.85729166666664,"startTick":279223,"startTime":109.07148437499998,"velocity":68},{"channel":0,"duration":0.375,"durationBeats":1,"durationTicks":960,"endBeat":291.85729166666664,"endTick":280183,"endTime":109.44648437499998,"note":58,"startBeat":290.85729166666664,"startTick":279223,"startTime":109.07148437499998,"velocity":68},{"channel":0,"duration":0.1875,"durationBeats":0.5,"durationTicks":480,"endBeat":291.85729166666664,"endTick":280183,"endTime":109.44648437499998,"note":50,"startBeat":291.35729166666664,"startTick":279703,"startTime":109.25898437499998,"velocity":68},{"channel":9,"duration":0.09375,"durationBeats":0.25,"durationTicks":240,"endBeat":291.9114583333333,"endTick":280235,"endTime":109.466796875,"note":35,"startBeat":291.6614583333333,"startTick":279995,"startTime":109.373046875,"velocity":50},{"channel":9,"duration":0.03125,"durationBeats":0.08333333333331439,"durationTicks":80,"endBeat":292.0833333333333,"endTick":280400,"endTime":109.53125,"note":42,"startBeat":292,"startTick":280320,"startTime":109.5,"velocity":50},{"channel":2,"duration":0.1875,"durationBeats":0.5,"durationTicks":480,"endBeat":292.13854166666664,"endTick":280453,"endTime":109.55195312499998,"note":26,"startBeat":291.63854166666664,"startTick":279973,"startTime":109.36445312499998,"velocity":57},{"channel":9,"duration":0.09375,"durationBeats":0.25,"durationTicks":240,"endBeat":292.1822916666667,"endTick":280495,"endTime":109.568359375,"note":35,"startBeat":291.9322916666667,"startTick":280255,"startTime":109.474609375,"velocity":50},{"channel":9,"duration":0.0625,"durationBeats":0.16666666666668561,"durationTicks":160,"endBeat":292.25,"endTick":280560,"endTime":109.59375,"note":42,"startBeat":292.0833333333333,"startTick":280400,"startTime":109.53125,"velocity":50},{"channel":9,"duration":0.0234375,"durationBeats":0.0625,"durationTicks":60,"endBeat":292.3125,"endTick":280620,"endTime":109.6171875,"note":42,"startBeat":292.25,"startTick":280560,"startTime":109.59375,"velocity":50},{"channel":0,"duration":0.1875,"durationBeats":0.5,"durationTicks":480,"endBeat":292.35729166666664,"endTick":280663,"endTime":109.63398437499998,"note":43,"startBeat":291.85729166666664,"startTick":280183,"startTime":109.44648437499998,"velocity":68},{"channel":1,"duration":0.1875,"durationBeats":0.5,"durationTicks":480,"endBeat":292.409375,"endTick":280713,"endTime":109.65351562500001,"note":26,"startBeat":291.909375,"startTick":280233,"startTime":109.46601562500001,"velocity":50},{"channel":9,"duration":0.0234375,"durationBeats":0.0625,"durationTicks":60,"endBeat":292.4375,"endTick":280740,"endTime":109.6640625,"note":42,"startBeat":292.375,"startTick":280680,"startTime":109.640625,"velocity":50},{"channel":9,"duration":0.0234375,"durationBeats":0.0625,"durationTicks":60,"endBeat":292.5625,"endTick":280860,"endTime":109.7109375,"note":42,"startBeat":292.5,"startTick":280800,"startTime":109.6875,"velocity":50},{"channel":0,"duration":0.09375,"durationBeats":0.25,"durationTicks":240,"endBeat":292.60729166666664,"endTick":280903,"endTime":109.72773437499998,"note":65,"startBeat":292.35729166666664,"startTick":280663,"startTime":109.63398437499998,"velocity":68},{"channel":2,"duration":0.1875,"durationBeats":0.5,"durationTicks":480,"endBeat":292.63854166666664,"endTick":280933,"endTime":109.73945312499998,"note":33,"startBeat":292.13854166666664,"startTick":280453,"startTime":109.55195312499998,"velocity":57},{"channel":9,"duration":0.0234375,"durationBeats":0.0625,"durationTicks":60,"endBeat":292.6875,"endTick":280980,"endTime":109.7578125,"note":42,"startBeat":292.625,"startTick":280920,"startTime":109.734375,"velocity":50},{"channel":9,"duration":0.0234375,"durationBeats":0.0625,"durationTicks":60,"endBeat":292.8125,"endTick":281100,"endTime":109.8046875,"note":42,"startBeat":292.75,"startTick":281040,"startTime":109.78125,"velocity":50},{"channel":0,"duration":0.1875,"durationBeats":0.5,"durationTicks":480,"endBeat":292.85729166666664,"endTick":281143,"endTime":109.82148437499998,"note":44,"startBeat":292.35729166666664,"startTick":280663,"startTime":109.63398437499998,"velocity":68},{"channel":0,"duration":0.09375,"durationBeats":0.25,"durationTicks":240,"endBeat":292.85729166666664,"endTick":281143,"endTime":109.82148437499998,"note":69,"startBeat":292.60729166666664,"startTick":280903,"startTime":109.72773437499998,"velocity":68},{"channel":1,"duration":0.1875,"durationBeats":0.5,"durationTicks":480,"endBeat":292.909375,"endTick":281193,"endTime":109.84101562500001,"note":33,"startBeat":292.409375,"startTick":280713,"startTime":109.65351562500001,"velocity":50},{"channel":9,"duration":0.09375,"durationBeats":0.25,"durationTicks":240,"endBeat":292.9114583333333,"endTick":281195,"endTime":109.841796875,"note":35,"startBeat":292.6614583333333,"startTick":280955,"startTime":109.748046875,"velocity":50},{"channel":9,"duration":0.09375,"durationBeats":0.25,"durationTicks":240,"endBeat":293.0833333333333,"endTick":281360,"endTime":109.90625,"note":42,"startBeat":292.8333333333333,"startTick":281120,"startTime":109.8125,"velocity":50},{"channel":2,"duration":0.1875,"durationBeats":0.5,"durationTicks":480,"endBeat":293.13854166666664,"endTick":281413,"endTime":109.92695312499998,"note":32,"startBeat":292.63854166666664,"startTick":280933,"startTime":109.73945312499998,"velocity":57},{"channel":9,"duration":0.09375,"durationBeats":0.25,"durationTicks":240,"endBeat":293.1822916666667,"endTick":281455,"endTime":109.943359375,"note":35,"startBeat":292.9322916666667,"startTick":281215,"startTime":109.849609375,"velocity":50},{"channel":0,"duration":0.1875,"durationBeats":0.5,"durationTicks":480,"endBeat":293.35729166666664,"endTick":281623,"endTime":110.00898437499998,"note":60,"startBeat":292.85729166666664,"startTick":281143,"startTime":109.82148437499998,"velocity":68},{"channel":0,"duration":0.1875,"durationBeats":0.5,"durationTicks":480,"endBeat":293.35729166666664,"endTick":281623,"endTime":110.00898437499998,"note":64,"startBeat":292.85729166666664,"startTick":281143,"startTime":109.82148437499998,"velocity":68},{"channel":0,"duration":0.1875,"durationBeats":0.5,"durationTicks":480,"endBeat":293.35729166666664,"endTick":281623,"endTime":110.00898437499998,"note":67,"startBeat":292.85729166666664,"startTick":281143,"startTime":109.82148437499998,"velocity":68},{"channel":0,"duration":0.1875,"durationBeats":0.5,"durationTicks":480,"endBeat":293.35729166666664,"endTick":281623,"endTime":110.00898437499998,"note":72,"startBeat":292.85729166666664,"startTick":281143,"startTime":109.82148437499998,"velocity":68},{"channel":0,"duration":0.1875,"durationBeats":0.5,"durationTicks":480,"endBeat":293.35729166666664,"endTick":281623,"endTime":110.00898437499998,"note":45,"startBeat":292.85729166666664,"startTick":281143,"startTime":109.82148437499998,"velocity":68},{"channel":1,"duration":0.1875,"durationBeats":0.5,"durationTicks":480,"endBeat":293.409375,"endTick":281673,"endTime":110.02851562500001,"note":32,"startBeat":292.909375,"startTick":281193,"startTime":109.84101562500001,"velocity":50},{"channel":9,"duration":0.09375,"durationBeats":0.25,"durationTicks":240,"endBeat":293.5,"endTick":281760,"endTime":110.0625,"note":42,"startBeat":293.25,"startTick":281520,"startTime":109.96875,"velocity":50},{"channel":2,"duration":0.1875,"durationBeats":0.5,"durationTicks":480,"endBeat":293.63854166666664,"endTick":281893,"endTime":110.11445312499998,"note":31,"startBeat":293.13854166666664,"startTick":281413,"startTime":109.92695312499998,"velocity":57},{"channel":9,"duration":0.09375,"durationBeats":0.25,"durationTicks":240,"endBeat":293.6614583333333,"endTick":281915,"endTime":110.123046875,"note":35,"startBeat":293.4114583333333,"startTick":281675,"startTime":110.029296875,"velocity":50},{"channel":9,"duration":0.0625,"durationBeats":0.16666666666668561,"durationTicks":160,"endBeat":293.75,"endTick":282000,"endTime":110.15625,"note":42,"startBeat":293.5833333333333,"startTick":281840,"startTime":110.09375,"velocity":50},{"channel":0,"duration":0.09375,"durationBeats":0.25,"durationTicks":240,"endBeat":293.85729166666664,"endTick":282103,"endTime":110.19648437499998,"note":45,"startBeat":293.60729166666664,"startTick":281863,"startTime":110.10273437499998,"velocity":68},{"channel":9,"duration":0.0234375,"durationBeats":0.0625,"durationTicks":60,"endBeat":293.8958333333333,"endTick":282140,"endTime":110.2109375,"note":42,"startBeat":293.8333333333333,"startTick":282080,"startTime":110.1875,"velocity":50},{"channel":1,"duration":0.1875,"durationBeats":0.5,"durationTicks":480,"endBeat":293.909375,"endTick":282153,"endTime":110.21601562500001,"note":31,"startBeat":293.409375,"startTick":281673,"startTime":110.02851562500001,"velocity":50},{"channel":9,"duration":0.09375,"durationBeats":0.25,"durationTicks":240,"endBeat":293.9322916666667,"endTick":282175,"endTime":110.224609375,"note":35,"startBeat":293.6822916666667,"startTick":281935,"startTime":110.130859375,"velocity":50},{"channel":9,"duration":0.0234375,"durationBeats":0.0625,"durationTicks":60,"endBeat":294.0208333333333,"endTick":282260,"endTime":110.2578125,"note":42,"startBeat":293.9583333333333,"startTick":282200,"startTime":110.234375,"velocity":50},{"channel":0,"duration":0.1875,"durationBeats":0.5,"durationTicks":480,"endBeat":294.10729166666664,"endTick":282343,"endTime":110.29023437499998,"note":70,"startBeat":293.60729166666664,"startTick":281863,"startTime":110.10273437499998,"velocity":68},{"channel":0,"duration":0.1875,"durationBeats":0.5,"durationTicks":480,"endBeat":294.10729166666664,"endTick":282343,"endTime":110.29023437499998,"note":67,"startBeat":293.60729166666664,"startTick":281863,"startTime":110.10273437499998,"velocity":68},{"channel":0,"duration":0.1875,"durationBeats":0.5,"durationTicks":480,"endBeat":294.10729166666664,"endTick":282343,"endTime":110.29023437499998,"note":65,"startBeat":293.60729166666664,"startTick":281863,"startTime":110.10273437499998,"velocity":68},{"channel":0,"duration":0.1875,"durationBeats":0.5,"durationTicks":480,"endBeat":294.10729166666664,"endTick":282343,"endTime":110.29023437499998,"note":61,"startBeat":293.60729166666664,"startTick":281863,"startTime":110.10273437499998,"velocity":68},{"channel":9,"duration":0.0234375,"durationBeats":0.0625,"durationTicks":60,"endBeat":294.1458333333333,"endTick":282380,"endTime":110.3046875,"note":42,"startBeat":294.0833333333333,"startTick":282320,"startTime":110.28125,"velocity":50},{"channel":9,"duration":0.0078125,"durationBeats":0.020833333333314386,"durationTicks":20,"endBeat":294.2708333333333,"endTick":282500,"endTime":110.3515625,"note":42,"startBeat":294.25,"startTick":282480,"startTime":110.34375,"velocity":50},{"channel":9,"duration":0.0234375,"durationBeats":0.0625,"durationTicks":60,"endBeat":294.3958333333333,"endTick":282620,"endTime":110.3984375,"note":42,"startBeat":294.3333333333333,"startTick":282560,"startTime":110.375,"velocity":50},{"channel":9,"duration":0.09375,"durationBeats":0.25,"durationTicks":240,"endBeat":294.4114583333333,"endTick":282635,"endTime":110.404296875,"note":35,"startBeat":294.1614583333333,"startTick":282395,"startTime":110.310546875,"velocity":50},{"channel":2,"duration":0.1875,"durationBeats":0.5,"durationTicks":480,"endBeat":294.63854166666664,"endTick":282853,"endTime":110.48945312499998,"note":31,"startBeat":294.13854166666664,"startTick":282373,"startTime":110.30195312499998,"velocity":57},{"channel":9,"duration":0.0078125,"durationBeats":0.02083333333337123,"durationTicks":20,"endBeat":294.6822916666667,"endTick":282895,"endTime":110.505859375,"note":35,"startBeat":294.6614583333333,"startTick":282875,"startTime":110.498046875,"velocity":50},{"channel":9,"duration":0.09375,"durationBeats":0.25,"durationTicks":240,"endBeat":294.75,"endTick":282960,"endTime":110.53125,"note":42,"startBeat":294.5,"startTick":282720,"startTime":110.4375,"velocity":50},{"channel":0,"duration":0.1875,"durationBeats":0.5,"durationTicks":480,"endBeat":294.85729166666664,"endTick":283063,"endTime":110.57148437499998,"note":69,"startBeat":294.35729166666664,"startTick":282583,"startTime":110.38398437499998,"velocity":68},{"channel":0,"duration":0.1875,"durationBeats":0.5,"durationTicks":480,"endBeat":294.85729166666664,"endTick":283063,"endTime":110.57148437499998,"note":65,"startBeat":294.35729166666664,"startTick":282583,"startTime":110.38398437499998,"velocity":68},{"channel":0,"duration":0.1875,"durationBeats":0.5,"durationTicks":480,"endBeat":294.85729166666664,"endTick":283063,"endTime":110.57148437499998,"note":64,"startBeat":294.35729166666664,"startTick":282583,"startTime":110.38398437499998,"velocity":68},{"channel":0,"duration":0.1875,"durationBeats":0.5,"durationTicks":480,"endBeat":294.85729166666664,"endTick":283063,"endTime":110.57148437499998,"note":60,"startBeat":294.35729166666664,"startTick":282583,"startTime":110.38398437499998,"velocity":68},{"channel":0,"duration":0.1875,"durationBeats":0.5,"durationTicks":480,"endBeat":294.85729166666664,"endTick":283063,"endTime":110.57148437499998,"note":38,"startBeat":294.35729166666664,"startTick":282583,"startTime":110.38398437499998,"velocity":68},{"channel":1,"duration":0.1875,"durationBeats":0.5,"durationTicks":480,"endBeat":294.909375,"endTick":283113,"endTime":110.59101562500001,"note":31,"startBeat":294.409375,"startTick":282633,"startTime":110.40351562500001,"velocity":50},{"channel":9,"duration":0.09375,"durationBeats":0.25,"durationTicks":240,"endBeat":295.0833333333333,"endTick":283280,"endTime":110.65625,"note":42,"startBeat":294.8333333333333,"startTick":283040,"startTime":110.5625,"velocity":50},{"channel":0,"duration":0.09375,"durationBeats":0.25,"durationTicks":240,"endBeat":295.10729166666664,"endTick":283303,"endTime":110.66523437499998,"note":76,"startBeat":294.85729166666664,"startTick":283063,"startTime":110.57148437499998,"velocity":68},{"channel":2,"duration":0.1875,"durationBeats":0.5,"durationTicks":480,"endBeat":295.13854166666664,"endTick":283333,"endTime":110.67695312499998,"note":32,"startBeat":294.63854166666664,"startTick":282853,"startTime":110.48945312499998,"velocity":57},{"channel":9,"duration":0.09375,"durationBeats":0.25,"durationTicks":240,"endBeat":295.1822916666667,"endTick":283375,"endTime":110.693359375,"note":35,"startBeat":294.9322916666667,"startTick":283135,"startTime":110.599609375,"velocity":50},{"channel":0,"duration":0.09375,"durationBeats":0.25,"durationTicks":240,"endBeat":295.35729166666664,"endTick":283543,"endTime":110.75898437499998,"note":77,"startBeat":295.10729166666664,"startTick":283303,"startTime":110.66523437499998,"velocity":68},{"channel":1,"duration":0.1875,"durationBeats":0.5,"durationTicks":480,"endBeat":295.409375,"endTick":283593,"endTime":110.77851562500001,"note":32,"startBeat":294.909375,"startTick":283113,"startTime":110.59101562500001,"velocity":50},{"channel":9,"duration":0.09375,"durationBeats":0.25,"durationTicks":240,"endBeat":295.5,"endTick":283680,"endTime":110.8125,"note":42,"startBeat":295.25,"startTick":283440,"startTime":110.71875,"velocity":50},{"channel":0,"duration":0.09375,"durationBeats":0.25,"durationTicks":240,"endBeat":295.60729166666664,"endTick":283783,"endTime":110.85273437499998,"note":79,"startBeat":295.35729166666664,"startTick":283543,"startTime":110.75898437499998,"velocity":68},{"channel":2,"duration":0.1875,"durationBeats":0.5,"durationTicks":480,"endBeat":295.63854166666664,"endTick":283813,"endTime":110.86445312499998,"note":33,"startBeat":295.13854166666664,"startTick":283333,"startTime":110.67695312499998,"velocity":57},{"channel":0,"duration":0.09375,"durationBeats":0.25,"durationTicks":240,"endBeat":295.85729166666664,"endTick":284023,"endTime":110.94648437499998,"note":77,"startBeat":295.60729166666664,"startTick":283783,"startTime":110.85273437499998,"velocity":68},{"channel":1,"duration":0.1875,"durationBeats":0.5,"durationTicks":480,"endBeat":295.909375,"endTick":284073,"endTime":110.96601562500001,"note":33,"startBeat":295.409375,"startTick":283593,"startTime":110.77851562500001,"velocity":50},{"channel":9,"duration":0.09375,"durationBeats":0.25,"durationTicks":240,"endBeat":295.9114583333333,"endTick":284075,"endTime":110.966796875,"note":35,"startBeat":295.6614583333333,"startTick":283835,"startTime":110.873046875,"velocity":50},{"channel":9,"duration":0.03125,"durationBeats":0.08333333333331439,"durationTicks":80,"endBeat":296.0833333333333,"endTick":284240,"endTime":111.03125,"note":42,"startBeat":296,"startTick":284160,"startTime":111,"velocity":50},{"channel":0,"duration":0.09375,"durationBeats":0.25,"durationTicks":240,"endBeat":296.10729166666664,"endTick":284263,"endTime":111.04023437499998,"note":76,"startBeat":295.85729166666664,"startTick":284023,"startTime":110.94648437499998,"velocity":68},{"channel":2,"duration":0.09375,"durationBeats":0.25,"durationTicks":240,"endBeat":296.13854166666664,"endTick":284293,"endTime":111.05195312499998,"note":33,"startBeat":295.88854166666664,"startTick":284053,"startTime":110.95820312499998,"velocity":57},{"channel":9,"duration":0.09375,"durationBeats":0.25,"durationTicks":240,"endBeat":296.1822916666667,"endTick":284335,"endTime":111.068359375,"note":35,"startBeat":295.9322916666667,"startTick":284095,"startTime":110.974609375,"velocity":50},{"channel":9,"duration":0.0625,"durationBeats":0.16666666666668561,"durationTicks":160,"endBeat":296.25,"endTick":284400,"endTime":111.09375,"note":42,"startBeat":296.0833333333333,"startTick":284240,"startTime":111.03125,"velocity":50},{"channel":9,"duration":0.0234375,"durationBeats":0.0625,"durationTicks":60,"endBeat":296.3125,"endTick":284460,"endTime":111.1171875,"note":42,"startBeat":296.25,"startTick":284400,"startTime":111.09375,"velocity":50},{"channel":0,"duration":0.09375,"durationBeats":0.25,"durationTicks":240,"endBeat":296.35729166666664,"endTick":284503,"endTime":111.13398437499998,"note":72,"startBeat":296.10729166666664,"startTick":284263,"startTime":111.04023437499998,"velocity":68},{"channel":1,"duration":0.09375,"durationBeats":0.25,"durationTicks":240,"endBeat":296.409375,"endTick":284553,"endTime":111.15351562500001,"note":33,"startBeat":296.159375,"startTick":284313,"startTime":111.05976562500001,"velocity":50},{"channel":9,"duration":0.0234375,"durationBeats":0.0625,"durationTicks":60,"endBeat":296.4375,"endTick":284580,"endTime":111.1640625,"note":42,"startBeat":296.375,"startTick":284520,"startTime":111.140625,"velocity":50},{"channel":9,"duration":0.0234375,"durationBeats":0.0625,"durationTicks":60,"endBeat":296.5625,"endTick":284700,"endTime":111.2109375,"note":42,"startBeat":296.5,"startTick":284640,"startTime":111.1875,"velocity":50},{"channel":0,"duration":0.09375,"durationBeats":0.25,"durationTicks":240,"endBeat":296.60729166666664,"endTick":284743,"endTime":111.22773437499998,"note":69,"startBeat":296.35729166666664,"startTick":284503,"startTime":111.13398437499998,"velocity":68},{"channel":9,"duration":0.0234375,"durationBeats":0.0625,"durationTicks":60,"endBeat":296.6875,"endTick":284820,"endTime":111.2578125,"note":42,"startBeat":296.625,"startTick":284760,"startTime":111.234375,"velocity":50},{"channel":9,"duration":0.0234375,"durationBeats":0.0625,"durationTicks":60,"endBeat":296.8125,"endTick":284940,"endTime":111.3046875,"note":42,"startBeat":296.75,"startTick":284880,"startTime":111.28125,"velocity":50},{"channel":0,"duration":0.1875,"durationBeats":0.5,"durationTicks":480,"endBeat":296.85729166666664,"endTick":284983,"endTime":111.32148437499998,"note":45,"startBeat":296.35729166666664,"startTick":284503,"startTime":111.13398437499998,"velocity":68},{"channel":0,"duration":0.09375,"durationBeats":0.25,"durationTicks":240,"endBeat":296.85729166666664,"endTick":284983,"endTime":111.32148437499998,"note":67,"startBeat":296.60729166666664,"startTick":284743,"startTime":111.22773437499998,"velocity":68},{"channel":9,"duration":0.09375,"durationBeats":0.25,"durationTicks":240,"endBeat":296.9114583333333,"endTick":285035,"endTime":111.341796875,"note":35,"startBeat":296.6614583333333,"startTick":284795,"startTime":111.248046875,"velocity":50},{"channel":9,"duration":0.09375,"durationBeats":0.25,"durationTicks":240,"endBeat":297.0833333333333,"endTick":285200,"endTime":111.40625,"note":42,"startBeat":296.8333333333333,"startTick":284960,"startTime":111.3125,"velocity":50},{"channel":0,"duration":0.09375,"durationBeats":0.25,"durationTicks":240,"endBeat":297.10729166666664,"endTick":285223,"endTime":111.41523437499998,"note":69,"startBeat":296.85729166666664,"startTick":284983,"startTime":111.32148437499998,"velocity":68},{"channel":2,"duration":0.1875,"durationBeats":0.5,"durationTicks":480,"endBeat":297.13854166666664,"endTick":285253,"endTime":111.42695312499998,"note":26,"startBeat":296.63854166666664,"startTick":284773,"startTime":111.23945312499998,"velocity":57},{"channel":9,"duration":0.09375,"durationBeats":0.25,"durationTicks":240,"endBeat":297.1822916666667,"endTick":285295,"endTime":111.443359375,"note":35,"startBeat":296.9322916666667,"startTick":285055,"startTime":111.349609375,"velocity":50},{"channel":0,"duration":0.1875,"durationBeats":0.5,"durationTicks":480,"endBeat":297.35729166666664,"endTick":285463,"endTime":111.50898437499998,"note":50,"startBeat":296.85729166666664,"startTick":284983,"startTime":111.32148437499998,"velocity":68},{"channel":0,"duration":0.09375,"durationBeats":0.25,"durationTicks":240,"endBeat":297.35729166666664,"endTick":285463,"endTime":111.50898437499998,"note":62,"startBeat":297.10729166666664,"startTick":285223,"startTime":111.41523437499998,"velocity":68},{"channel":1,"duration":0.1875,"durationBeats":0.5,"durationTicks":480,"endBeat":297.409375,"endTick":285513,"endTime":111.52851562500001,"note":26,"startBeat":296.909375,"startTick":285033,"startTime":111.34101562500001,"velocity":50},{"channel":9,"duration":0.09375,"durationBeats":0.25,"durationTicks":240,"endBeat":297.5,"endTick":285600,"endTime":111.5625,"note":42,"startBeat":297.25,"startTick":285360,"startTime":111.46875,"velocity":50},{"channel":0,"duration":0.09375,"durationBeats":0.25,"durationTicks":240,"endBeat":297.60729166666664,"endTick":285703,"endTime":111.60273437499998,"note":60,"startBeat":297.35729166666664,"startTick":285463,"startTime":111.50898437499998,"velocity":68},{"channel":9,"duration":0.09375,"durationBeats":0.25,"durationTicks":240,"endBeat":297.6614583333333,"endTick":285755,"endTime":111.623046875,"note":35,"startBeat":297.4114583333333,"startTick":285515,"startTime":111.529296875,"velocity":50},{"channel":9,"duration":0.0625,"durationBeats":0.16666666666668561,"durationTicks":160,"endBeat":297.75,"endTick":285840,"endTime":111.65625,"note":42,"startBeat":297.5833333333333,"startTick":285680,"startTime":111.59375,"velocity":50},{"channel":0,"duration":0.1875,"durationBeats":0.5,"durationTicks":480,"endBeat":297.85729166666664,"endTick":285943,"endTime":111.69648437499998,"note":38,"startBeat":297.35729166666664,"startTick":285463,"startTime":111.50898437499998,"velocity":68},{"channel":0,"duration":0.09375,"durationBeats":0.25,"durationTicks":240,"endBeat":297.85729166666664,"endTick":285943,"endTime":111.69648437499998,"note":65,"startBeat":297.60729166666664,"startTick":285703,"startTime":111.60273437499998,"velocity":68},{"channel":9,"duration":0.0234375,"durationBeats":0.0625,"durationTicks":60,"endBeat":297.8958333333333,"endTick":285980,"endTime":111.7109375,"note":42,"startBeat":297.8333333333333,"startTick":285920,"startTime":111.6875,"velocity":50},{"channel":9,"duration":0.09375,"durationBeats":0.25,"durationTicks":240,"endBeat":297.9322916666667,"endTick":286015,"endTime":111.724609375,"note":35,"startBeat":297.6822916666667,"startTick":285775,"startTime":111.630859375,"velocity":50},{"channel":9,"duration":0.0234375,"durationBeats":0.0625,"durationTicks":60,"endBeat":298.0208333333333,"endTick":286100,"endTime":111.7578125,"note":42,"startBeat":297.9583333333333,"startTick":286040,"startTime":111.734375,"velocity":50},{"channel":2,"duration":0.1875,"durationBeats":0.5,"durationTicks":480,"endBeat":298.13854166666664,"endTick":286213,"endTime":111.80195312499998,"note":38,"startBeat":297.63854166666664,"startTick":285733,"startTime":111.61445312499998,"velocity":57},{"channel":9,"duration":0.0234375,"durationBeats":0.0625,"durationTicks":60,"endBeat":298.1458333333333,"endTick":286220,"endTime":111.8046875,"note":42,"startBeat":298.0833333333333,"startTick":286160,"startTime":111.78125,"velocity":50},{"channel":9,"duration":0.0078125,"durationBeats":0.020833333333314386,"durationTicks":20,"endBeat":298.2708333333333,"endTick":286340,"endTime":111.8515625,"note":42,"startBeat":298.25,"startTick":286320,"startTime":111.84375,"velocity":50},{"channel":0,"duration":0.1875,"durationBeats":0.5,"durationTicks":480,"endBeat":298.35729166666664,"endTick":286423,"endTime":111.88398437499998,"note":45,"startBeat":297.85729166666664,"startTick":285943,"startTime":111.69648437499998,"velocity":68},{"channel":0,"duration":0.1875,"durationBeats":0.5,"durationTicks":480,"endBeat":298.35729166666664,"endTick":286423,"endTime":111.88398437499998,"note":69,"startBeat":297.85729166666664,"startTick":285943,"startTime":111.69648437499998,"velocity":68},{"channel":0,"duration":0.1875,"durationBeats":0.5,"durationTicks":480,"endBeat":298.35729166666664,"endTick":286423,"endTime":111.88398437499998,"note":60,"startBeat":297.85729166666664,"startTick":285943,"startTime":111.69648437499998,"velocity":68},{"channel":0,"duration":0.1875,"durationBeats":0.5,"durationTicks":480,"endBeat":298.35729166666664,"endTick":286423,"endTime":111.88398437499998,"note":64,"startBeat":297.85729166666664,"startTick":285943,"startTime":111.69648437499998,"velocity":68},{"channel":1,"duration":0.1875,"durationBeats":0.5,"durationTicks":480,"endBeat":298.409375,"endTick":286473,"endTime":111.90351562500001,"note":38,"startBeat":297.909375,"startTick":285993,"startTime":111.71601562500001,"velocity":50},{"channel":9,"duration":0.09375,"durationBeats":0.25,"durationTicks":240,"endBeat":298.4114583333333,"endTick":286475,"endTime":111.904296875,"note":35,"startBeat":298.1614583333333,"startTick":286235,"startTime":111.810546875,"velocity":50},{"channel":2,"duration":0.1875,"durationBeats":0.5,"durationTicks":480,"endBeat":298.63854166666664,"endTick":286693,"endTime":111.98945312499998,"note":26,"startBeat":298.13854166666664,"startTick":286213,"startTime":111.80195312499998,"velocity":57},{"channel":9,"duration":0.0078125,"durationBeats":0.02083333333337123,"durationTicks":20,"endBeat":298.6822916666667,"endTick":286735,"endTime":112.005859375,"note":35,"startBeat":298.6614583333333,"startTick":286715,"startTime":111.998046875,"velocity":50},{"channel":9,"duration":0.09375,"durationBeats":0.25,"durationTicks":240,"endBeat":298.75,"endTick":286800,"endTime":112.03125,"note":42,"startBeat":298.5,"startTick":286560,"startTime":111.9375,"velocity":50},{"channel":0,"duration":0.1875,"durationBeats":0.5,"durationTicks":480,"endBeat":298.85729166666664,"endTick":286903,"endTime":112.07148437499998,"note":44,"startBeat":298.35729166666664,"startTick":286423,"startTime":111.88398437499998,"velocity":68},{"channel":0,"duration":0.1875,"durationBeats":0.5,"durationTicks":480,"endBeat":298.85729166666664,"endTick":286903,"endTime":112.07148437499998,"note":68,"startBeat":298.35729166666664,"startTick":286423,"startTime":111.88398437499998,"velocity":68},{"channel":0,"duration":0.1875,"durationBeats":0.5,"durationTicks":480,"endBeat":298.85729166666664,"endTick":286903,"endTime":112.07148437499998,"note":63,"startBeat":298.35729166666664,"startTick":286423,"startTime":111.88398437499998,"velocity":68},{"channel":0,"duration":0.1875,"durationBeats":0.5,"durationTicks":480,"endBeat":298.85729166666664,"endTick":286903,"endTime":112.07148437499998,"note":59,"startBeat":298.35729166666664,"startTick":286423,"startTime":111.88398437499998,"velocity":68},{"channel":1,"duration":0.1875,"durationBeats":0.5,"durationTicks":480,"endBeat":298.909375,"endTick":286953,"endTime":112.09101562500001,"note":26,"startBeat":298.409375,"startTick":286473,"startTime":111.90351562500001,"velocity":50},{"channel":9,"duration":0.09375,"durationBeats":0.25,"durationTicks":240,"endBeat":299.0833333333333,"endTick":287120,"endTime":112.15625,"note":42,"startBeat":298.8333333333333,"startTick":286880,"startTime":112.0625,"velocity":50},{"channel":2,"duration":0.1875,"durationBeats":0.5,"durationTicks":480,"endBeat":299.13854166666664,"endTick":287173,"endTime":112.17695312499998,"note":33,"startBeat":298.63854166666664,"startTick":286693,"startTime":111.98945312499998,"velocity":57},{"channel":9,"duration":0.09375,"durationBeats":0.25,"durationTicks":240,"endBeat":299.1822916666667,"endTick":287215,"endTime":112.193359375,"note":35,"startBeat":298.9322916666667,"startTick":286975,"startTime":112.099609375,"velocity":50},{"channel":9,"duration":0.03125,"durationBeats":0.08333333333331439,"durationTicks":80,"endBeat":299.3333333333333,"endTick":287360,"endTime":112.25,"note":42,"startBeat":299.25,"startTick":287280,"startTime":112.21875,"velocity":50},{"channel":0,"duration":0.1875,"durationBeats":0.5,"durationTicks":480,"endBeat":299.35729166666664,"endTick":287383,"endTime":112.25898437499998,"note":43,"startBeat":298.85729166666664,"startTick":286903,"startTime":112.07148437499998,"velocity":68},{"channel":1,"duration":0.1875,"durationBeats":0.5,"durationTicks":480,"endBeat":299.409375,"endTick":287433,"endTime":112.27851562500001,"note":33,"startBeat":298.909375,"startTick":286953,"startTime":112.09101562500001,"velocity":50},{"channel":0,"duration":0.375,"durationBeats":1,"durationTicks":960,"endBeat":299.85729166666664,"endTick":287863,"endTime":112.44648437499998,"note":69,"startBeat":298.85729166666664,"startTick":286903,"startTime":112.07148437499998,"velocity":68},{"channel":0,"duration":0.375,"durationBeats":1,"durationTicks":960,"endBeat":299.85729166666664,"endTick":287863,"endTime":112.44648437499998,"note":65,"startBeat":298.85729166666664,"startTick":286903,"startTime":112.07148437499998,"velocity":68},{"channel":0,"duration":0.375,"durationBeats":1,"durationTicks":960,"endBeat":299.85729166666664,"endTick":287863,"endTime":112.44648437499998,"note":62,"startBeat":298.85729166666664,"startTick":286903,"startTime":112.07148437499998,"velocity":68},{"channel":0,"duration":0.375,"durationBeats":1,"durationTicks":960,"endBeat":299.85729166666664,"endTick":287863,"endTime":112.44648437499998,"note":58,"startBeat":298.85729166666664,"startTick":286903,"startTime":112.07148437499998,"velocity":68},{"channel":0,"duration":0.1875,"durationBeats":0.5,"durationTicks":480,"endBeat":299.85729166666664,"endTick":287863,"endTime":112.44648437499998,"note":50,"startBeat":299.35729166666664,"startTick":287383,"startTime":112.25898437499998,"velocity":68},{"channel":9,"duration":0.09375,"durationBeats":0.25,"durationTicks":240,"endBeat":299.9114583333333,"endTick":287915,"endTime":112.466796875,"note":35,"startBeat":299.6614583333333,"startTick":287675,"startTime":112.373046875,"velocity":50},{"channel":9,"duration":0.03125,"durationBeats":0.08333333333331439,"durationTicks":80,"endBeat":300.0833333333333,"endTick":288080,"endTime":112.53125,"note":42,"startBeat":300,"startTick":288000,"startTime":112.5,"velocity":50},{"channel":2,"duration":0.1875,"durationBeats":0.5,"durationTicks":480,"endBeat":300.13854166666664,"endTick":288133,"endTime":112.55195312499998,"note":26,"startBeat":299.63854166666664,"startTick":287653,"startTime":112.36445312499998,"velocity":57},{"channel":9,"duration":0.09375,"durationBeats":0.25,"durationTicks":240,"endBeat":300.1822916666667,"endTick":288175,"endTime":112.568359375,"note":35,"startBeat":299.9322916666667,"startTick":287935,"startTime":112.474609375,"velocity":50},{"channel":9,"duration":0.0625,"durationBeats":0.16666666666668561,"durationTicks":160,"endBeat":300.25,"endTick":288240,"endTime":112.59375,"note":42,"startBeat":300.0833333333333,"startTick":288080,"startTime":112.53125,"velocity":50},{"channel":9,"duration":0.0234375,"durationBeats":0.0625,"durationTicks":60,"endBeat":300.3125,"endTick":288300,"endTime":112.6171875,"note":42,"startBeat":300.25,"startTick":288240,"startTime":112.59375,"velocity":50},{"channel":0,"duration":0.1875,"durationBeats":0.5,"durationTicks":480,"endBeat":300.35729166666664,"endTick":288343,"endTime":112.63398437499998,"note":43,"startBeat":299.85729166666664,"startTick":287863,"startTime":112.44648437499998,"velocity":68},{"channel":1,"duration":0.1875,"durationBeats":0.5,"durationTicks":480,"endBeat":300.409375,"endTick":288393,"endTime":112.65351562500001,"note":26,"startBeat":299.909375,"startTick":287913,"startTime":112.46601562500001,"velocity":50},{"channel":9,"duration":0.0234375,"durationBeats":0.0625,"durationTicks":60,"endBeat":300.4375,"endTick":288420,"endTime":112.6640625,"note":42,"startBeat":300.375,"startTick":288360,"startTime":112.640625,"velocity":50},{"channel":9,"duration":0.0234375,"durationBeats":0.0625,"durationTicks":60,"endBeat":300.5625,"endTick":288540,"endTime":112.7109375,"note":42,"startBeat":300.5,"startTick":288480,"startTime":112.6875,"velocity":50},{"channel":0,"duration":0.09375,"durationBeats":0.25,"durationTicks":240,"endBeat":300.60729166666664,"endTick":288583,"endTime":112.72773437499998,"note":65,"startBeat":300.35729166666664,"startTick":288343,"startTime":112.63398437499998,"velocity":68},{"channel":2,"duration":0.1875,"durationBeats":0.5,"durationTicks":480,"endBeat":300.63854166666664,"endTick":288613,"endTime":112.73945312499998,"note":33,"startBeat":300.13854166666664,"startTick":288133,"startTime":112.55195312499998,"velocity":57},{"channel":9,"duration":0.0234375,"durationBeats":0.0625,"durationTicks":60,"endBeat":300.6875,"endTick":288660,"endTime":112.7578125,"note":42,"startBeat":300.625,"startTick":288600,"startTime":112.734375,"velocity":50},{"channel":9,"duration":0.0234375,"durationBeats":0.0625,"durationTicks":60,"endBeat":300.8125,"endTick":288780,"endTime":112.8046875,"note":42,"startBeat":300.75,"startTick":288720,"startTime":112.78125,"velocity":50},{"channel":0,"duration":0.1875,"durationBeats":0.5,"durationTicks":480,"endBeat":300.85729166666664,"endTick":288823,"endTime":112.82148437499998,"note":44,"startBeat":300.35729166666664,"startTick":288343,"startTime":112.63398437499998,"velocity":68},{"channel":0,"duration":0.09375,"durationBeats":0.25,"durationTicks":240,"endBeat":300.85729166666664,"endTick":288823,"endTime":112.82148437499998,"note":69,"startBeat":300.60729166666664,"startTick":288583,"startTime":112.72773437499998,"velocity":68},{"channel":1,"duration":0.1875,"durationBeats":0.5,"durationTicks":480,"endBeat":300.909375,"endTick":288873,"endTime":112.84101562500001,"note":33,"startBeat":300.409375,"startTick":288393,"startTime":112.65351562500001,"velocity":50},{"channel":9,"duration":0.09375,"durationBeats":0.25,"durationTicks":240,"endBeat":300.9114583333333,"endTick":288875,"endTime":112.841796875,"note":35,"startBeat":300.6614583333333,"startTick":288635,"startTime":112.748046875,"velocity":50},{"channel":9,"duration":0.09375,"durationBeats":0.25,"durationTicks":240,"endBeat":301.0833333333333,"endTick":289040,"endTime":112.90625,"note":42,"startBeat":300.8333333333333,"startTick":288800,"startTime":112.8125,"velocity":50},{"channel":2,"duration":0.1875,"durationBeats":0.5,"durationTicks":480,"endBeat":301.13854166666664,"endTick":289093,"endTime":112.92695312499998,"note":32,"startBeat":300.63854166666664,"startTick":288613,"startTime":112.73945312499998,"velocity":57},{"channel":9,"duration":0.09375,"durationBeats":0.25,"durationTicks":240,"endBeat":301.1822916666667,"endTick":289135,"endTime":112.943359375,"note":35,"startBeat":300.9322916666667,"startTick":288895,"startTime":112.849609375,"velocity":50},{"channel":0,"duration":0.1875,"durationBeats":0.5,"durationTicks":480,"endBeat":301.35729166666664,"endTick":289303,"endTime":113.00898437499998,"note":60,"startBeat":300.85729166666664,"startTick":288823,"startTime":112.82148437499998,"velocity":68},{"channel":0,"duration":0.1875,"durationBeats":0.5,"durationTicks":480,"endBeat":301.35729166666664,"endTick":289303,"endTime":113.00898437499998,"note":64,"startBeat":300.85729166666664,"startTick":288823,"startTime":112.82148437499998,"velocity":68},{"channel":0,"duration":0.1875,"durationBeats":0.5,"durationTicks":480,"endBeat":301.35729166666664,"endTick":289303,"endTime":113.00898437499998,"note":67,"startBeat":300.85729166666664,"startTick":288823,"startTime":112.82148437499998,"velocity":68},{"channel":0,"duration":0.1875,"durationBeats":0.5,"durationTicks":480,"endBeat":301.35729166666664,"endTick":289303,"endTime":113.00898437499998,"note":72,"startBeat":300.85729166666664,"startTick":288823,"startTime":112.82148437499998,"velocity":68},{"channel":0,"duration":0.1875,"durationBeats":0.5,"durationTicks":480,"endBeat":301.35729166666664,"endTick":289303,"endTime":113.00898437499998,"note":45,"startBeat":300.85729166666664,"startTick":288823,"startTime":112.82148437499998,"velocity":68},{"channel":1,"duration":0.1875,"durationBeats":0.5,"durationTicks":480,"endBeat":301.409375,"endTick":289353,"endTime":113.02851562500001,"note":32,"startBeat":300.909375,"startTick":288873,"startTime":112.84101562500001,"velocity":50},{"channel":9,"duration":0.09375,"durationBeats":0.25,"durationTicks":240,"endBeat":301.5,"endTick":289440,"endTime":113.0625,"note":42,"startBeat":301.25,"startTick":289200,"startTime":112.96875,"velocity":50},{"channel":2,"duration":0.1875,"durationBeats":0.5,"durationTicks":480,"endBeat":301.63854166666664,"endTick":289573,"endTime":113.11445312499998,"note":31,"startBeat":301.13854166666664,"startTick":289093,"startTime":112.92695312499998,"velocity":57},{"channel":9,"duration":0.09375,"durationBeats":0.25,"durationTicks":240,"endBeat":301.6614583333333,"endTick":289595,"endTime":113.123046875,"note":35,"startBeat":301.4114583333333,"startTick":289355,"startTime":113.029296875,"velocity":50},{"channel":9,"duration":0.0625,"durationBeats":0.16666666666668561,"durationTicks":160,"endBeat":301.75,"endTick":289680,"endTime":113.15625,"note":42,"startBeat":301.5833333333333,"startTick":289520,"startTime":113.09375,"velocity":50},{"channel":0,"duration":0.09375,"durationBeats":0.25,"durationTicks":240,"endBeat":301.85729166666664,"endTick":289783,"endTime":113.19648437499998,"note":45,"startBeat":301.60729166666664,"startTick":289543,"startTime":113.10273437499998,"velocity":68},{"channel":9,"duration":0.0234375,"durationBeats":0.0625,"durationTicks":60,"endBeat":301.8958333333333,"endTick":289820,"endTime":113.2109375,"note":42,"startBeat":301.8333333333333,"startTick":289760,"startTime":113.1875,"velocity":50},{"channel":1,"duration":0.1875,"durationBeats":0.5,"durationTicks":480,"endBeat":301.909375,"endTick":289833,"endTime":113.21601562500001,"note":31,"startBeat":301.409375,"startTick":289353,"startTime":113.02851562500001,"velocity":50},{"channel":9,"duration":0.09375,"durationBeats":0.25,"durationTicks":240,"endBeat":301.9322916666667,"endTick":289855,"endTime":113.224609375,"note":35,"startBeat":301.6822916666667,"startTick":289615,"startTime":113.130859375,"velocity":50},{"channel":9,"duration":0.0234375,"durationBeats":0.0625,"durationTicks":60,"endBeat":302.0208333333333,"endTick":289940,"endTime":113.2578125,"note":42,"startBeat":301.9583333333333,"startTick":289880,"startTime":113.234375,"velocity":50},{"channel":0,"duration":0.1875,"durationBeats":0.5,"durationTicks":480,"endBeat":302.10729166666664,"endTick":290023,"endTime":113.29023437499998,"note":70,"startBeat":301.60729166666664,"startTick":289543,"startTime":113.10273437499998,"velocity":68},{"channel":0,"duration":0.1875,"durationBeats":0.5,"durationTicks":480,"endBeat":302.10729166666664,"endTick":290023,"endTime":113.29023437499998,"note":67,"startBeat":301.60729166666664,"startTick":289543,"startTime":113.10273437499998,"velocity":68},{"channel":0,"duration":0.1875,"durationBeats":0.5,"durationTicks":480,"endBeat":302.10729166666664,"endTick":290023,"endTime":113.29023437499998,"note":65,"startBeat":301.60729166666664,"startTick":289543,"startTime":113.10273437499998,"velocity":68},{"channel":0,"duration":0.1875,"durationBeats":0.5,"durationTicks":480,"endBeat":302.10729166666664,"endTick":290023,"endTime":113.29023437499998,"note":61,"startBeat":301.60729166666664,"startTick":289543,"startTime":113.10273437499998,"velocity":68},{"channel":9,"duration":0.0234375,"durationBeats":0.0625,"durationTicks":60,"endBeat":302.1458333333333,"endTick":290060,"endTime":113.3046875,"note":42,"startBeat":302.0833333333333,"startTick":290000,"startTime":113.28125,"velocity":50},{"channel":9,"duration":0.0078125,"durationBeats":0.020833333333314386,"durationTicks":20,"endBeat":302.2708333333333,"endTick":290180,"endTime":113.3515625,"note":42,"startBeat":302.25,"startTick":290160,"startTime":113.34375,"velocity":50},{"channel":9,"duration":0.0234375,"durationBeats":0.0625,"durationTicks":60,"endBeat":302.3958333333333,"endTick":290300,"endTime":113.3984375,"note":42,"startBeat":302.3333333333333,"startTick":290240,"startTime":113.375,"velocity":50},{"channel":9,"duration":0.09375,"durationBeats":0.25,"durationTicks":240,"endBeat":302.4114583333333,"endTick":290315,"endTime":113.404296875,"note":35,"startBeat":302.1614583333333,"startTick":290075,"startTime":113.310546875,"velocity":50},{"channel":2,"duration":0.1875,"durationBeats":0.5,"durationTicks":480,"endBeat":302.63854166666664,"endTick":290533,"endTime":113.48945312499998,"note":31,"startBeat":302.13854166666664,"startTick":290053,"startTime":113.30195312499998,"velocity":57},{"channel":9,"duration":0.0078125,"durationBeats":0.02083333333337123,"durationTicks":20,"endBeat":302.6822916666667,"endTick":290575,"endTime":113.505859375,"note":35,"startBeat":302.6614583333333,"startTick":290555,"startTime":113.498046875,"velocity":50},{"channel":9,"duration":0.09375,"durationBeats":0.25,"durationTicks":240,"endBeat":302.75,"endTick":290640,"endTime":113.53125,"note":42,"startBeat":302.5,"startTick":290400,"startTime":113.4375,"velocity":50},{"channel":0,"duration":0.1875,"durationBeats":0.5,"durationTicks":480,"endBeat":302.85729166666664,"endTick":290743,"endTime":113.57148437499998,"note":69,"startBeat":302.35729166666664,"startTick":290263,"startTime":113.38398437499998,"velocity":68},{"channel":0,"duration":0.1875,"durationBeats":0.5,"durationTicks":480,"endBeat":302.85729166666664,"endTick":290743,"endTime":113.57148437499998,"note":65,"startBeat":302.35729166666664,"startTick":290263,"startTime":113.38398437499998,"velocity":68},{"channel":0,"duration":0.1875,"durationBeats":0.5,"durationTicks":480,"endBeat":302.85729166666664,"endTick":290743,"endTime":113.57148437499998,"note":64,"startBeat":302.35729166666664,"startTick":290263,"startTime":113.38398437499998,"velocity":68},{"channel":0,"duration":0.1875,"durationBeats":0.5,"durationTicks":480,"endBeat":302.85729166666664,"endTick":290743,"endTime":113.57148437499998,"note":60,"startBeat":302.35729166666664,"startTick":290263,"startTime":113.38398437499998,"velocity":68},{"channel":0,"duration":0.1875,"durationBeats":0.5,"durationTicks":480,"endBeat":302.85729166666664,"endTick":290743,"endTime":113.57148437499998,"note":38,"startBeat":302.35729166666664,"startTick":290263,"startTime":113.38398437499998,"velocity":68},{"channel":1,"duration":0.1875,"durationBeats":0.5,"durationTicks":480,"endBeat":302.909375,"endTick":290793,"endTime":113.59101562500001,"note":31,"startBeat":302.409375,"startTick":290313,"startTime":113.40351562500001,"velocity":50},{"channel":9,"duration":0.09375,"durationBeats":0.25,"durationTicks":240,"endBeat":303.0833333333333,"endTick":290960,"endTime":113.65625,"note":42,"startBeat":302.8333333333333,"startTick":290720,"startTime":113.5625,"velocity":50},{"channel":0,"duration":0.09375,"durationBeats":0.25,"durationTicks":240,"endBeat":303.10729166666664,"endTick":290983,"endTime":113.66523437499998,"note":76,"startBeat":302.85729166666664,"startTick":290743,"startTime":113.57148437499998,"velocity":68},{"channel":2,"duration":0.1875,"durationBeats":0.5,"durationTicks":480,"endBeat":303.13854166666664,"endTick":291013,"endTime":113.67695312499998,"note":32,"startBeat":302.63854166666664,"startTick":290533,"startTime":113.48945312499998,"velocity":57},{"channel":9,"duration":0.09375,"durationBeats":0.25,"durationTicks":240,"endBeat":303.1822916666667,"endTick":291055,"endTime":113.693359375,"note":35,"startBeat":302.9322916666667,"startTick":290815,"startTime":113.599609375,"velocity":50},{"channel":9,"duration":0.03125,"durationBeats":0.08333333333331439,"durationTicks":80,"endBeat":303.3333333333333,"endTick":291200,"endTime":113.75,"note":42,"startBeat":303.25,"startTick":291120,"startTime":113.71875,"velocity":50},{"channel":0,"duration":0.09375,"durationBeats":0.25,"durationTicks":240,"endBeat":303.35729166666664,"endTick":291223,"endTime":113.75898437499998,"note":77,"startBeat":303.10729166666664,"startTick":290983,"startTime":113.66523437499998,"velocity":68},{"channel":1,"duration":0.1875,"durationBeats":0.5,"durationTicks":480,"endBeat":303.409375,"endTick":291273,"endTime":113.77851562500001,"note":32,"startBeat":302.909375,"startTick":290793,"startTime":113.59101562500001,"velocity":50},{"channel":0,"duration":0.09375,"durationBeats":0.25,"durationTicks":240,"endBeat":303.60729166666664,"endTick":291463,"endTime":113.85273437499998,"note":76,"startBeat":303.35729166666664,"startTick":291223,"startTime":113.75898437499998,"velocity":68},{"channel":2,"duration":0.1875,"durationBeats":0.5,"durationTicks":480,"endBeat":303.63854166666664,"endTick":291493,"endTime":113.86445312499998,"note":33,"startBeat":303.13854166666664,"startTick":291013,"startTime":113.67695312499998,"velocity":57},{"channel":0,"duration":0.09375,"durationBeats":0.25,"durationTicks":240,"endBeat":303.85729166666664,"endTick":291703,"endTime":113.94648437499998,"note":72,"startBeat":303.60729166666664,"startTick":291463,"startTime":113.85273437499998,"velocity":68},{"channel":1,"duration":0.1875,"durationBeats":0.5,"durationTicks":480,"endBeat":303.909375,"endTick":291753,"endTime":113.96601562500001,"note":33,"startBeat":303.409375,"startTick":291273,"startTime":113.77851562500001,"velocity":50},{"channel":9,"duration":0.09375,"durationBeats":0.25,"durationTicks":240,"endBeat":303.9114583333333,"endTick":291755,"endTime":113.966796875,"note":35,"startBeat":303.6614583333333,"startTick":291515,"startTime":113.873046875,"velocity":50},{"channel":9,"duration":0.03125,"durationBeats":0.08333333333331439,"durationTicks":80,"endBeat":304.0833333333333,"endTick":291920,"endTime":114.03125,"note":42,"startBeat":304,"startTick":291840,"startTime":114,"velocity":50},{"channel":0,"duration":0.09375,"durationBeats":0.25,"durationTicks":240,"endBeat":304.10729166666664,"endTick":291943,"endTime":114.04023437499998,"note":76,"startBeat":303.85729166666664,"startTick":291703,"startTime":113.94648437499998,"velocity":68},{"channel":2,"duration":0.09375,"durationBeats":0.25,"durationTicks":240,"endBeat":304.13854166666664,"endTick":291973,"endTime":114.05195312499998,"note":33,"startBeat":303.88854166666664,"startTick":291733,"startTime":113.95820312499998,"velocity":57},{"channel":9,"duration":0.09375,"durationBeats":0.25,"durationTicks":240,"endBeat":304.1822916666667,"endTick":292015,"endTime":114.068359375,"note":35,"startBeat":303.9322916666667,"startTick":291775,"startTime":113.974609375,"velocity":50},{"channel":9,"duration":0.0625,"durationBeats":0.16666666666668561,"durationTicks":160,"endBeat":304.25,"endTick":292080,"endTime":114.09375,"note":42,"startBeat":304.0833333333333,"startTick":291920,"startTime":114.03125,"velocity":50},{"channel":9,"duration":0.0234375,"durationBeats":0.0625,"durationTicks":60,"endBeat":304.3125,"endTick":292140,"endTime":114.1171875,"note":42,"startBeat":304.25,"startTick":292080,"startTime":114.09375,"velocity":50},{"channel":0,"duration":0.1875,"durationBeats":0.5,"durationTicks":480,"endBeat":304.35729166666664,"endTick":292183,"endTime":114.13398437499998,"note":38,"startBeat":303.85729166666664,"startTick":291703,"startTime":113.94648437499998,"velocity":68},{"channel":0,"duration":0.09375,"durationBeats":0.25,"durationTicks":240,"endBeat":304.35729166666664,"endTick":292183,"endTime":114.13398437499998,"note":72,"startBeat":304.10729166666664,"startTick":291943,"startTime":114.04023437499998,"velocity":68},{"channel":1,"duration":0.09375,"durationBeats":0.25,"durationTicks":240,"endBeat":304.409375,"endTick":292233,"endTime":114.15351562500001,"note":33,"startBeat":304.159375,"startTick":291993,"startTime":114.05976562500001,"velocity":50},{"channel":9,"duration":0.001953125,"durationBeats":0.0052083333333143855,"durationTicks":5,"endBeat":304.4375,"endTick":292260,"endTime":114.1640625,"note":42,"startBeat":304.4322916666667,"startTick":292255,"startTime":114.162109375,"velocity":50},{"channel":9,"duration":0.0234375,"durationBeats":0.0625,"durationTicks":60,"endBeat":304.5625,"endTick":292380,"endTime":114.2109375,"note":42,"startBeat":304.5,"startTick":292320,"startTime":114.1875,"velocity":50},{"channel":0,"duration":0.09375,"durationBeats":0.25,"durationTicks":240,"endBeat":304.60729166666664,"endTick":292423,"endTime":114.22773437499998,"note":69,"startBeat":304.35729166666664,"startTick":292183,"startTime":114.13398437499998,"velocity":68},{"channel":9,"duration":0.021484375,"durationBeats":0.057291666666685614,"durationTicks":55,"endBeat":304.6822916666667,"endTick":292495,"endTime":114.255859375,"note":42,"startBeat":304.625,"startTick":292440,"startTime":114.234375,"velocity":50},{"channel":9,"duration":0.0234375,"durationBeats":0.0625,"durationTicks":60,"endBeat":304.8125,"endTick":292620,"endTime":114.3046875,"note":42,"startBeat":304.75,"startTick":292560,"startTime":114.28125,"velocity":50},{"channel":0,"duration":0.1875,"durationBeats":0.5,"durationTicks":480,"endBeat":304.85729166666664,"endTick":292663,"endTime":114.32148437499998,"note":45,"startBeat":304.35729166666664,"startTick":292183,"startTime":114.13398437499998,"velocity":68},{"channel":0,"duration":0.09375,"durationBeats":0.25,"durationTicks":240,"endBeat":304.85729166666664,"endTick":292663,"endTime":114.32148437499998,"note":67,"startBeat":304.60729166666664,"startTick":292423,"startTime":114.22773437499998,"velocity":68},{"channel":9,"duration":0.09375,"durationBeats":0.25,"durationTicks":240,"endBeat":304.9114583333333,"endTick":292715,"endTime":114.341796875,"note":35,"startBeat":304.6614583333333,"startTick":292475,"startTime":114.248046875,"velocity":50},{"channel":9,"duration":0.09375,"durationBeats":0.25,"durationTicks":240,"endBeat":305.0833333333333,"endTick":292880,"endTime":114.40625,"note":42,"startBeat":304.8333333333333,"startTick":292640,"startTime":114.3125,"velocity":50},{"channel":0,"duration":0.09375,"durationBeats":0.25,"durationTicks":240,"endBeat":305.10729166666664,"endTick":292903,"endTime":114.41523437499998,"note":69,"startBeat":304.85729166666664,"startTick":292663,"startTime":114.32148437499998,"velocity":68},{"channel":2,"duration":0.1875,"durationBeats":0.5,"durationTicks":480,"endBeat":305.13854166666664,"endTick":292933,"endTime":114.42695312499998,"note":26,"startBeat":304.63854166666664,"startTick":292453,"startTime":114.23945312499998,"velocity":57},{"channel":9,"duration":0.09375,"durationBeats":0.25,"durationTicks":240,"endBeat":305.1822916666667,"endTick":292975,"endTime":114.443359375,"note":35,"startBeat":304.9322916666667,"startTick":292735,"startTime":114.349609375,"velocity":50},{"channel":0,"duration":0.1875,"durationBeats":0.5,"durationTicks":480,"endBeat":305.35729166666664,"endTick":293143,"endTime":114.50898437499998,"note":50,"startBeat":304.85729166666664,"startTick":292663,"startTime":114.32148437499998,"velocity":68},{"channel":0,"duration":0.09375,"durationBeats":0.25,"durationTicks":240,"endBeat":305.35729166666664,"endTick":293143,"endTime":114.50898437499998,"note":62,"startBeat":305.10729166666664,"startTick":292903,"startTime":114.41523437499998,"velocity":68},{"channel":1,"duration":0.1875,"durationBeats":0.5,"durationTicks":480,"endBeat":305.409375,"endTick":293193,"endTime":114.52851562500001,"note":26,"startBeat":304.909375,"startTick":292713,"startTime":114.34101562500001,"velocity":50},{"channel":0,"duration":0.09375,"durationBeats":0.25,"durationTicks":240,"endBeat":305.60729166666664,"endTick":293383,"endTime":114.60273437499998,"note":60,"startBeat":305.35729166666664,"startTick":293143,"startTime":114.50898437499998,"velocity":68},{"channel":2,"duration":0.1875,"durationBeats":0.5,"durationTicks":480,"endBeat":305.63854166666664,"endTick":293413,"endTime":114.61445312499998,"note":31,"startBeat":305.13854166666664,"startTick":292933,"startTime":114.42695312499998,"velocity":57},{"channel":9,"duration":0.09375,"durationBeats":0.25,"durationTicks":240,"endBeat":305.6614583333333,"endTick":293435,"endTime":114.623046875,"note":35,"startBeat":305.4114583333333,"startTick":293195,"startTime":114.529296875,"velocity":50},{"channel":9,"duration":0.09375,"durationBeats":0.25,"durationTicks":240,"endBeat":305.8333333333333,"endTick":293600,"endTime":114.6875,"note":42,"startBeat":305.5833333333333,"startTick":293360,"startTime":114.59375,"velocity":50},{"channel":0,"duration":0.1875,"durationBeats":0.5,"durationTicks":480,"endBeat":305.85729166666664,"endTick":293623,"endTime":114.69648437499998,"note":38,"startBeat":305.35729166666664,"startTick":293143,"startTime":114.50898437499998,"velocity":68},{"channel":0,"duration":0.09375,"durationBeats":0.25,"durationTicks":240,"endBeat":305.85729166666664,"endTick":293623,"endTime":114.69648437499998,"note":65,"startBeat":305.60729166666664,"startTick":293383,"startTime":114.60273437499998,"velocity":68},{"channel":9,"duration":0.0234375,"durationBeats":0.0625,"durationTicks":60,"endBeat":305.8958333333333,"endTick":293660,"endTime":114.7109375,"note":42,"startBeat":305.8333333333333,"startTick":293600,"startTime":114.6875,"velocity":50},{"channel":1,"duration":0.1875,"durationBeats":0.5,"durationTicks":480,"endBeat":305.909375,"endTick":293673,"endTime":114.71601562500001,"note":31,"startBeat":305.409375,"startTick":293193,"startTime":114.52851562500001,"velocity":50},{"channel":9,"duration":0.09375,"durationBeats":0.25,"durationTicks":240,"endBeat":305.9322916666667,"endTick":293695,"endTime":114.724609375,"note":35,"startBeat":305.6822916666667,"startTick":293455,"startTime":114.630859375,"velocity":50},{"channel":9,"duration":0.0234375,"durationBeats":0.0625,"durationTicks":60,"endBeat":306.0208333333333,"endTick":293780,"endTime":114.7578125,"note":42,"startBeat":305.9583333333333,"startTick":293720,"startTime":114.734375,"velocity":50},{"channel":9,"duration":0.0234375,"durationBeats":0.0625,"durationTicks":60,"endBeat":306.1458333333333,"endTick":293900,"endTime":114.8046875,"note":42,"startBeat":306.0833333333333,"startTick":293840,"startTime":114.78125,"velocity":50},{"channel":9,"duration":0.0234375,"durationBeats":0.0625,"durationTicks":60,"endBeat":306.2708333333333,"endTick":294020,"endTime":114.8515625,"note":42,"startBeat":306.2083333333333,"startTick":293960,"startTime":114.828125,"velocity":50},{"channel":0,"duration":0.1875,"durationBeats":0.5,"durationTicks":480,"endBeat":306.35729166666664,"endTick":294103,"endTime":114.88398437499998,"note":45,"startBeat":305.85729166666664,"startTick":293623,"startTime":114.69648437499998,"velocity":68},{"channel":0,"duration":0.1875,"durationBeats":0.5,"durationTicks":480,"endBeat":306.35729166666664,"endTick":294103,"endTime":114.88398437499998,"note":69,"startBeat":305.85729166666664,"startTick":293623,"startTime":114.69648437499998,"velocity":68},{"channel":0,"duration":0.1875,"durationBeats":0.5,"durationTicks":480,"endBeat":306.35729166666664,"endTick":294103,"endTime":114.88398437499998,"note":60,"startBeat":305.85729166666664,"startTick":293623,"startTime":114.69648437499998,"velocity":68},{"channel":0,"duration":0.1875,"durationBeats":0.5,"durationTicks":480,"endBeat":306.35729166666664,"endTick":294103,"endTime":114.88398437499998,"note":64,"startBeat":305.85729166666664,"startTick":293623,"startTime":114.69648437499998,"velocity":68},{"channel":9,"duration":0.0234375,"durationBeats":0.0625,"durationTicks":60,"endBeat":306.3958333333333,"endTick":294140,"endTime":114.8984375,"note":42,"startBeat":306.3333333333333,"startTick":294080,"startTime":114.875,"velocity":50},{"channel":9,"duration":0.09375,"durationBeats":0.25,"durationTicks":240,"endBeat":306.4114583333333,"endTick":294155,"endTime":114.904296875,"note":35,"startBeat":306.1614583333333,"startTick":293915,"startTime":114.810546875,"velocity":50},{"channel":2,"duration":0.1875,"durationBeats":0.5,"durationTicks":480,"endBeat":306.63854166666664,"endTick":294373,"endTime":114.98945312499998,"note":31,"startBeat":306.13854166666664,"startTick":293893,"startTime":114.80195312499998,"velocity":57},{"channel":9,"duration":0.0078125,"durationBeats":0.02083333333337123,"durationTicks":20,"endBeat":306.6822916666667,"endTick":294415,"endTime":115.005859375,"note":35,"startBeat":306.6614583333333,"startTick":294395,"startTime":114.998046875,"velocity":50},{"channel":0,"duration":0.1875,"durationBeats":0.5,"durationTicks":480,"endBeat":306.85729166666664,"endTick":294583,"endTime":115.07148437499998,"note":44,"startBeat":306.35729166666664,"startTick":294103,"startTime":114.88398437499998,"velocity":68},{"channel":0,"duration":0.1875,"durationBeats":0.5,"durationTicks":480,"endBeat":306.85729166666664,"endTick":294583,"endTime":115.07148437499998,"note":68,"startBeat":306.35729166666664,"startTick":294103,"startTime":114.88398437499998,"velocity":68},{"channel":0,"duration":0.1875,"durationBeats":0.5,"durationTicks":480,"endBeat":306.85729166666664,"endTick":294583,"endTime":115.07148437499998,"note":63,"startBeat":306.35729166666664,"startTick":294103,"startTime":114.88398437499998,"velocity":68},{"channel":0,"duration":0.1875,"durationBeats":0.5,"durationTicks":480,"endBeat":306.85729166666664,"endTick":294583,"endTime":115.07148437499998,"note":59,"startBeat":306.35729166666664,"startTick":294103,"startTime":114.88398437499998,"velocity":68},{"channel":1,"duration":0.1875,"durationBeats":0.5,"durationTicks":480,"endBeat":306.909375,"endTick":294633,"endTime":115.09101562500001,"note":31,"startBeat":306.409375,"startTick":294153,"startTime":114.90351562500001,"velocity":50},{"channel":9,"duration":0.09375,"durationBeats":0.25,"durationTicks":240,"endBeat":307.0833333333333,"endTick":294800,"endTime":115.15625,"note":42,"startBeat":306.8333333333333,"startTick":294560,"startTime":115.0625,"velocity":50},{"channel":2,"duration":0.1875,"durationBeats":0.5,"durationTicks":480,"endBeat":307.13854166666664,"endTick":294853,"endTime":115.17695312499998,"note":32,"startBeat":306.63854166666664,"startTick":294373,"startTime":114.98945312499998,"velocity":57},{"channel":9,"duration":0.09375,"durationBeats":0.25,"durationTicks":240,"endBeat":307.1822916666667,"endTick":294895,"endTime":115.193359375,"note":35,"startBeat":306.9322916666667,"startTick":294655,"startTime":115.099609375,"velocity":50},{"channel":9,"duration":0.09375,"durationBeats":0.25,"durationTicks":240,"endBeat":307.3333333333333,"endTick":295040,"endTime":115.25,"note":42,"startBeat":307.0833333333333,"startTick":294800,"startTime":115.15625,"velocity":50},{"channel":0,"duration":0.1875,"durationBeats":0.5,"durationTicks":480,"endBeat":307.35729166666664,"endTick":295063,"endTime":115.25898437499998,"note":43,"startBeat":306.85729166666664,"startTick":294583,"startTime":115.07148437499998,"velocity":68},{"channel":1,"duration":0.1875,"durationBeats":0.5,"durationTicks":480,"endBeat":307.409375,"endTick":295113,"endTime":115.27851562500001,"note":32,"startBeat":306.909375,"startTick":294633,"startTime":115.09101562500001,"velocity":50},{"channel":2,"duration":0.1875,"durationBeats":0.5,"durationTicks":480,"endBeat":307.63854166666664,"endTick":295333,"endTime":115.36445312499998,"note":33,"startBeat":307.13854166666664,"startTick":294853,"startTime":115.17695312499998,"velocity":57},{"channel":0,"duration":0.375,"durationBeats":1,"durationTicks":960,"endBeat":307.85729166666664,"endTick":295543,"endTime":115.44648437499998,"note":69,"startBeat":306.85729166666664,"startTick":294583,"startTime":115.07148437499998,"velocity":68},{"channel":0,"duration":0.375,"durationBeats":1,"durationTicks":960,"endBeat":307.85729166666664,"endTick":295543,"endTime":115.44648437499998,"note":65,"startBeat":306.85729166666664,"startTick":294583,"startTime":115.07148437499998,"velocity":68},{"channel":0,"duration":0.375,"durationBeats":1,"durationTicks":960,"endBeat":307.85729166666664,"endTick":295543,"endTime":115.44648437499998,"note":62,"startBeat":306.85729166666664,"startTick":294583,"startTime":115.07148437499998,"velocity":68},{"channel":0,"duration":0.375,"durationBeats":1,"durationTicks":960,"endBeat":307.85729166666664,"endTick":295543,"endTime":115.44648437499998,"note":58,"startBeat":306.85729166666664,"startTick":294583,"startTime":115.07148437499998,"velocity":68},{"channel":1,"duration":0.1875,"durationBeats":0.5,"durationTicks":480,"endBeat":307.909375,"endTick":295593,"endTime":115.46601562500001,"note":33,"startBeat":307.409375,"startTick":295113,"startTime":115.27851562500001,"velocity":50},{"channel":9,"duration":0.09375,"durationBeats":0.25,"durationTicks":240,"endBeat":307.9114583333333,"endTick":295595,"endTime":115.466796875,"note":35,"startBeat":307.6614583333333,"startTick":295355,"startTime":115.373046875,"velocity":50},{"channel":9,"duration":0.09375,"durationBeats":0.25,"durationTicks":240,"endBeat":308.0833333333333,"endTick":295760,"endTime":115.53125,"note":42,"startBeat":307.8333333333333,"startTick":295520,"startTime":115.4375,"velocity":50},{"channel":2,"duration":0.09375,"durationBeats":0.25,"durationTicks":240,"endBeat":308.13854166666664,"endTick":295813,"endTime":115.55195312499998,"note":33,"startBeat":307.88854166666664,"startTick":295573,"startTime":115.45820312499998,"velocity":57},{"channel":9,"duration":0.09375,"durationBeats":0.25,"durationTicks":240,"endBeat":308.1822916666667,"endTick":295855,"endTime":115.568359375,"note":35,"startBeat":307.9322916666667,"startTick":295615,"startTime":115.474609375,"velocity":50},{"channel":9,"duration":0.09375,"durationBeats":0.25,"durationTicks":240,"endBeat":308.3333333333333,"endTick":296000,"endTime":115.625,"note":42,"startBeat":308.0833333333333,"startTick":295760,"startTime":115.53125,"velocity":50},{"channel":0,"duration":0.1875,"durationBeats":0.5,"durationTicks":480,"endBeat":308.35729166666664,"endTick":296023,"endTime":115.63398437499998,"note":43,"startBeat":307.85729166666664,"startTick":295543,"startTime":115.44648437499998,"velocity":68},{"channel":1,"duration":0.09375,"durationBeats":0.25,"durationTicks":240,"endBeat":308.409375,"endTick":296073,"endTime":115.65351562500001,"note":33,"startBeat":308.159375,"startTick":295833,"startTime":115.55976562500001,"velocity":50},{"channel":0,"duration":0.09375,"durationBeats":0.25,"durationTicks":240,"endBeat":308.60729166666664,"endTick":296263,"endTime":115.72773437499998,"note":65,"startBeat":308.35729166666664,"startTick":296023,"startTime":115.63398437499998,"velocity":68},{"channel":0,"duration":0.1875,"durationBeats":0.5,"durationTicks":480,"endBeat":308.85729166666664,"endTick":296503,"endTime":115.82148437499998,"note":44,"startBeat":308.35729166666664,"startTick":296023,"startTime":115.63398437499998,"velocity":68},{"channel":0,"duration":0.09375,"durationBeats":0.25,"durationTicks":240,"endBeat":308.85729166666664,"endTick":296503,"endTime":115.82148437499998,"note":69,"startBeat":308.60729166666664,"startTick":296263,"startTime":115.72773437499998,"velocity":68},{"channel":9,"duration":0.09375,"durationBeats":0.25,"durationTicks":240,"endBeat":308.9114583333333,"endTick":296555,"endTime":115.841796875,"note":35,"startBeat":308.6614583333333,"startTick":296315,"startTime":115.748046875,"velocity":50},{"channel":9,"duration":0.09375,"durationBeats":0.25,"durationTicks":240,"endBeat":309.0833333333333,"endTick":296720,"endTime":115.90625,"note":42,"startBeat":308.8333333333333,"startTick":296480,"startTime":115.8125,"velocity":50},{"channel":2,"duration":0.1875,"durationBeats":0.5,"durationTicks":480,"endBeat":309.13854166666664,"endTick":296773,"endTime":115.92695312499998,"note":26,"startBeat":308.63854166666664,"startTick":296293,"startTime":115.73945312499998,"velocity":57},{"channel":9,"duration":0.09375,"durationBeats":0.25,"durationTicks":240,"endBeat":309.1822916666667,"endTick":296815,"endTime":115.943359375,"note":35,"startBeat":308.9322916666667,"startTick":296575,"startTime":115.849609375,"velocity":50},{"channel":0,"duration":0.1875,"durationBeats":0.5,"durationTicks":480,"endBeat":309.35729166666664,"endTick":296983,"endTime":116.00898437499998,"note":60,"startBeat":308.85729166666664,"startTick":296503,"startTime":115.82148437499998,"velocity":68},{"channel":0,"duration":0.1875,"durationBeats":0.5,"durationTicks":480,"endBeat":309.35729166666664,"endTick":296983,"endTime":116.00898437499998,"note":64,"startBeat":308.85729166666664,"startTick":296503,"startTime":115.82148437499998,"velocity":68},{"channel":0,"duration":0.1875,"durationBeats":0.5,"durationTicks":480,"endBeat":309.35729166666664,"endTick":296983,"endTime":116.00898437499998,"note":67,"startBeat":308.85729166666664,"startTick":296503,"startTime":115.82148437499998,"velocity":68},{"channel":0,"duration":0.1875,"durationBeats":0.5,"durationTicks":480,"endBeat":309.35729166666664,"endTick":296983,"endTime":116.00898437499998,"note":72,"startBeat":308.85729166666664,"startTick":296503,"startTime":115.82148437499998,"velocity":68},{"channel":0,"duration":0.1875,"durationBeats":0.5,"durationTicks":480,"endBeat":309.35729166666664,"endTick":296983,"endTime":116.00898437499998,"note":45,"startBeat":308.85729166666664,"startTick":296503,"startTime":115.82148437499998,"velocity":68},{"channel":1,"duration":0.1875,"durationBeats":0.5,"durationTicks":480,"endBeat":309.409375,"endTick":297033,"endTime":116.02851562500001,"note":26,"startBeat":308.909375,"startTick":296553,"startTime":115.84101562500001,"velocity":50},{"channel":2,"duration":0.1875,"durationBeats":0.5,"durationTicks":480,"endBeat":309.63854166666664,"endTick":297253,"endTime":116.11445312499998,"note":31,"startBeat":309.13854166666664,"startTick":296773,"startTime":115.92695312499998,"velocity":57},{"channel":9,"duration":0.09375,"durationBeats":0.25,"durationTicks":240,"endBeat":309.6614583333333,"endTick":297275,"endTime":116.123046875,"note":35,"startBeat":309.4114583333333,"startTick":297035,"startTime":116.029296875,"velocity":50},{"channel":9,"duration":0.09375,"durationBeats":0.25,"durationTicks":240,"endBeat":309.8333333333333,"endTick":297440,"endTime":116.1875,"note":42,"startBeat":309.5833333333333,"startTick":297200,"startTime":116.09375,"velocity":50},{"channel":0,"duration":0.09375,"durationBeats":0.25,"durationTicks":240,"endBeat":309.85729166666664,"endTick":297463,"endTime":116.19648437499998,"note":45,"startBeat":309.60729166666664,"startTick":297223,"startTime":116.10273437499998,"velocity":68},{"channel":9,"duration":0.0234375,"durationBeats":0.0625,"durationTicks":60,"endBeat":309.8958333333333,"endTick":297500,"endTime":116.2109375,"note":42,"startBeat":309.8333333333333,"startTick":297440,"startTime":116.1875,"velocity":50},{"channel":1,"duration":0.1875,"durationBeats":0.5,"durationTicks":480,"endBeat":309.909375,"endTick":297513,"endTime":116.21601562500001,"note":31,"startBeat":309.409375,"startTick":297033,"startTime":116.02851562500001,"velocity":50},{"channel":9,"duration":0.09375,"durationBeats":0.25,"durationTicks":240,"endBeat":309.9322916666667,"endTick":297535,"endTime":116.224609375,"note":35,"startBeat":309.6822916666667,"startTick":297295,"startTime":116.130859375,"velocity":50},{"channel":9,"duration":0.0234375,"durationBeats":0.0625,"durationTicks":60,"endBeat":310.0208333333333,"endTick":297620,"endTime":116.2578125,"note":42,"startBeat":309.9583333333333,"startTick":297560,"startTime":116.234375,"velocity":50},{"channel":0,"duration":0.1875,"durationBeats":0.5,"durationTicks":480,"endBeat":310.10729166666664,"endTick":297703,"endTime":116.29023437499998,"note":70,"startBeat":309.60729166666664,"startTick":297223,"startTime":116.10273437499998,"velocity":68},{"channel":0,"duration":0.1875,"durationBeats":0.5,"durationTicks":480,"endBeat":310.10729166666664,"endTick":297703,"endTime":116.29023437499998,"note":67,"startBeat":309.60729166666664,"startTick":297223,"startTime":116.10273437499998,"velocity":68},{"channel":0,"duration":0.1875,"durationBeats":0.5,"durationTicks":480,"endBeat":310.10729166666664,"endTick":297703,"endTime":116.29023437499998,"note":65,"startBeat":309.60729166666664,"startTick":297223,"startTime":116.10273437499998,"velocity":68},{"channel":0,"duration":0.1875,"durationBeats":0.5,"durationTicks":480,"endBeat":310.10729166666664,"endTick":297703,"endTime":116.29023437499998,"note":61,"startBeat":309.60729166666664,"startTick":297223,"startTime":116.10273437499998,"velocity":68},{"channel":9,"duration":0.0234375,"durationBeats":0.0625,"durationTicks":60,"endBeat":310.1458333333333,"endTick":297740,"endTime":116.3046875,"note":42,"startBeat":310.0833333333333,"startTick":297680,"startTime":116.28125,"velocity":50},{"channel":9,"duration":0.0234375,"durationBeats":0.0625,"durationTicks":60,"endBeat":310.2708333333333,"endTick":297860,"endTime":116.3515625,"note":42,"startBeat":310.2083333333333,"startTick":297800,"startTime":116.328125,"velocity":50},{"channel":9,"duration":0.0234375,"durationBeats":0.0625,"durationTicks":60,"endBeat":310.3958333333333,"endTick":297980,"endTime":116.3984375,"note":42,"startBeat":310.3333333333333,"startTick":297920,"startTime":116.375,"velocity":50},{"channel":9,"duration":0.09375,"durationBeats":0.25,"durationTicks":240,"endBeat":310.4114583333333,"endTick":297995,"endTime":116.404296875,"note":35,"startBeat":310.1614583333333,"startTick":297755,"startTime":116.310546875,"velocity":50},{"channel":2,"duration":0.1875,"durationBeats":0.5,"durationTicks":480,"endBeat":310.63854166666664,"endTick":298213,"endTime":116.48945312499998,"note":31,"startBeat":310.13854166666664,"startTick":297733,"startTime":116.30195312499998,"velocity":57},{"channel":9,"duration":0.0078125,"durationBeats":0.02083333333337123,"durationTicks":20,"endBeat":310.6822916666667,"endTick":298255,"endTime":116.505859375,"note":35,"startBeat":310.6614583333333,"startTick":298235,"startTime":116.498046875,"velocity":50},{"channel":0,"duration":0.1875,"durationBeats":0.5,"durationTicks":480,"endBeat":310.85729166666664,"endTick":298423,"endTime":116.57148437499998,"note":69,"startBeat":310.35729166666664,"startTick":297943,"startTime":116.38398437499998,"velocity":68},{"channel":0,"duration":0.1875,"durationBeats":0.5,"durationTicks":480,"endBeat":310.85729166666664,"endTick":298423,"endTime":116.57148437499998,"note":65,"startBeat":310.35729166666664,"startTick":297943,"startTime":116.38398437499998,"velocity":68},{"channel":0,"duration":0.1875,"durationBeats":0.5,"durationTicks":480,"endBeat":310.85729166666664,"endTick":298423,"endTime":116.57148437499998,"note":64,"startBeat":310.35729166666664,"startTick":297943,"startTime":116.38398437499998,"velocity":68},{"channel":0,"duration":0.1875,"durationBeats":0.5,"durationTicks":480,"endBeat":310.85729166666664,"endTick":298423,"endTime":116.57148437499998,"note":60,"startBeat":310.35729166666664,"startTick":297943,"startTime":116.38398437499998,"velocity":68},{"channel":0,"duration":0.1875,"durationBeats":0.5,"durationTicks":480,"endBeat":310.85729166666664,"endTick":298423,"endTime":116.57148437499998,"note":38,"startBeat":310.35729166666664,"startTick":297943,"startTime":116.38398437499998,"velocity":68},{"channel":1,"duration":0.1875,"durationBeats":0.5,"durationTicks":480,"endBeat":310.909375,"endTick":298473,"endTime":116.59101562500001,"note":31,"startBeat":310.409375,"startTick":297993,"startTime":116.40351562500001,"velocity":50},{"channel":9,"duration":0.09375,"durationBeats":0.25,"durationTicks":240,"endBeat":311.0833333333333,"endTick":298640,"endTime":116.65625,"note":42,"startBeat":310.8333333333333,"startTick":298400,"startTime":116.5625,"velocity":50},{"channel":0,"duration":0.09375,"durationBeats":0.25,"durationTicks":240,"endBeat":311.10729166666664,"endTick":298663,"endTime":116.66523437499998,"note":76,"startBeat":310.85729166666664,"startTick":298423,"startTime":116.57148437499998,"velocity":68},{"channel":2,"duration":0.1875,"durationBeats":0.5,"durationTicks":480,"endBeat":311.13854166666664,"endTick":298693,"endTime":116.67695312499998,"note":32,"startBeat":310.63854166666664,"startTick":298213,"startTime":116.48945312499998,"velocity":57},{"channel":9,"duration":0.09375,"durationBeats":0.25,"durationTicks":240,"endBeat":311.1822916666667,"endTick":298735,"endTime":116.693359375,"note":35,"startBeat":310.9322916666667,"startTick":298495,"startTime":116.599609375,"velocity":50},{"channel":9,"duration":0.09375,"durationBeats":0.25,"durationTicks":240,"endBeat":311.3333333333333,"endTick":298880,"endTime":116.75,"note":42,"startBeat":311.0833333333333,"startTick":298640,"startTime":116.65625,"velocity":50},{"channel":0,"duration":0.1875,"durationBeats":0.5,"durationTicks":480,"endBeat":311.35729166666664,"endTick":298903,"endTime":116.75898437499998,"note":50,"startBeat":310.85729166666664,"startTick":298423,"startTime":116.57148437499998,"velocity":68},{"channel":0,"duration":0.09375,"durationBeats":0.25,"durationTicks":240,"endBeat":311.35729166666664,"endTick":298903,"endTime":116.75898437499998,"note":77,"startBeat":311.10729166666664,"startTick":298663,"startTime":116.66523437499998,"velocity":68},{"channel":1,"duration":0.1875,"durationBeats":0.5,"durationTicks":480,"endBeat":311.409375,"endTick":298953,"endTime":116.77851562500001,"note":32,"startBeat":310.909375,"startTick":298473,"startTime":116.59101562500001,"velocity":50},{"channel":0,"duration":0.09375,"durationBeats":0.25,"durationTicks":240,"endBeat":311.60729166666664,"endTick":299143,"endTime":116.85273437499998,"note":79,"startBeat":311.35729166666664,"startTick":298903,"startTime":116.75898437499998,"velocity":68},{"channel":2,"duration":0.1875,"durationBeats":0.5,"durationTicks":480,"endBeat":311.63854166666664,"endTick":299173,"endTime":116.86445312499998,"note":33,"startBeat":311.13854166666664,"startTick":298693,"startTime":116.67695312499998,"velocity":57},{"channel":0,"duration":0.1875,"durationBeats":0.5,"durationTicks":480,"endBeat":311.85729166666664,"endTick":299383,"endTime":116.94648437499998,"note":38,"startBeat":311.35729166666664,"startTick":298903,"startTime":116.75898437499998,"velocity":68},{"channel":0,"duration":0.09375,"durationBeats":0.25,"durationTicks":240,"endBeat":311.85729166666664,"endTick":299383,"endTime":116.94648437499998,"note":77,"startBeat":311.60729166666664,"startTick":299143,"startTime":116.85273437499998,"velocity":68},{"channel":1,"duration":0.1875,"durationBeats":0.5,"durationTicks":480,"endBeat":311.909375,"endTick":299433,"endTime":116.96601562500001,"note":33,"startBeat":311.409375,"startTick":298953,"startTime":116.77851562500001,"velocity":50},{"channel":9,"duration":0.09375,"durationBeats":0.25,"durationTicks":240,"endBeat":311.9114583333333,"endTick":299435,"endTime":116.966796875,"note":35,"startBeat":311.6614583333333,"startTick":299195,"startTime":116.873046875,"velocity":50},{"channel":9,"duration":0.09375,"durationBeats":0.25,"durationTicks":240,"endBeat":312.0833333333333,"endTick":299600,"endTime":117.03125,"note":42,"startBeat":311.8333333333333,"startTick":299360,"startTime":116.9375,"velocity":50},{"channel":0,"duration":0.09375,"durationBeats":0.25,"durationTicks":240,"endBeat":312.10729166666664,"endTick":299623,"endTime":117.04023437499998,"note":76,"startBeat":311.85729166666664,"startTick":299383,"startTime":116.94648437499998,"velocity":68},{"channel":2,"duration":0.09375,"durationBeats":0.25,"durationTicks":240,"endBeat":312.13854166666664,"endTick":299653,"endTime":117.05195312499998,"note":33,"startBeat":311.88854166666664,"startTick":299413,"startTime":116.95820312499998,"velocity":57},{"channel":9,"duration":0.09375,"durationBeats":0.25,"durationTicks":240,"endBeat":312.1822916666667,"endTick":299695,"endTime":117.068359375,"note":35,"startBeat":311.9322916666667,"startTick":299455,"startTime":116.974609375,"velocity":50},{"channel":9,"duration":0.09375,"durationBeats":0.25,"durationTicks":240,"endBeat":312.3333333333333,"endTick":299840,"endTime":117.125,"note":42,"startBeat":312.0833333333333,"startTick":299600,"startTime":117.03125,"velocity":50},{"channel":0,"duration":0.1875,"durationBeats":0.5,"durationTicks":480,"endBeat":312.35729166666664,"endTick":299863,"endTime":117.13398437499998,"note":45,"startBeat":311.85729166666664,"startTick":299383,"startTime":116.94648437499998,"velocity":68},{"channel":0,"duration":0.09375,"durationBeats":0.25,"durationTicks":240,"endBeat":312.35729166666664,"endTick":299863,"endTime":117.13398437499998,"note":72,"startBeat":312.10729166666664,"startTick":299623,"startTime":117.04023437499998,"velocity":68},{"channel":1,"duration":0.09375,"durationBeats":0.25,"durationTicks":240,"endBeat":312.409375,"endTick":299913,"endTime":117.15351562500001,"note":33,"startBeat":312.159375,"startTick":299673,"startTime":117.05976562500001,"velocity":50},{"channel":0,"duration":0.09375,"durationBeats":0.25,"durationTicks":240,"endBeat":312.60729166666664,"endTick":300103,"endTime":117.22773437499998,"note":69,"startBeat":312.35729166666664,"startTick":299863,"startTime":117.13398437499998,"velocity":68},{"channel":0,"duration":0.1875,"durationBeats":0.5,"durationTicks":480,"endBeat":312.85729166666664,"endTick":300343,"endTime":117.32148437499998,"note":38,"startBeat":312.35729166666664,"startTick":299863,"startTime":117.13398437499998,"velocity":68},{"channel":0,"duration":0.09375,"durationBeats":0.25,"durationTicks":240,"endBeat":312.85729166666664,"endTick":300343,"endTime":117.32148437499998,"note":67,"startBeat":312.60729166666664,"startTick":300103,"startTime":117.22773437499998,"velocity":68},{"channel":9,"duration":0.09375,"durationBeats":0.25,"durationTicks":240,"endBeat":312.9114583333333,"endTick":300395,"endTime":117.341796875,"note":35,"startBeat":312.6614583333333,"startTick":300155,"startTime":117.248046875,"velocity":50},{"channel":9,"duration":0.09375,"durationBeats":0.25,"durationTicks":240,"endBeat":313.0833333333333,"endTick":300560,"endTime":117.40625,"note":42,"startBeat":312.8333333333333,"startTick":300320,"startTime":117.3125,"velocity":50},{"channel":0,"duration":0.09375,"durationBeats":0.25,"durationTicks":240,"endBeat":313.10729166666664,"endTick":300583,"endTime":117.41523437499998,"note":69,"startBeat":312.85729166666664,"startTick":300343,"startTime":117.32148437499998,"velocity":68},{"channel":2,"duration":0.1875,"durationBeats":0.5,"durationTicks":480,"endBeat":313.13854166666664,"endTick":300613,"endTime":117.42695312499998,"note":26,"startBeat":312.63854166666664,"startTick":300133,"startTime":117.23945312499998,"velocity":57},{"channel":9,"duration":0.09375,"durationBeats":0.25,"durationTicks":240,"endBeat":313.1822916666667,"endTick":300655,"endTime":117.443359375,"note":35,"startBeat":312.9322916666667,"startTick":300415,"startTime":117.349609375,"velocity":50},{"channel":0,"duration":0.1875,"durationBeats":0.5,"durationTicks":480,"endBeat":313.35729166666664,"endTick":300823,"endTime":117.50898437499998,"note":50,"startBeat":312.85729166666664,"startTick":300343,"startTime":117.32148437499998,"velocity":68},{"channel":0,"duration":0.09375,"durationBeats":0.25,"durationTicks":240,"endBeat":313.35729166666664,"endTick":300823,"endTime":117.50898437499998,"note":62,"startBeat":313.10729166666664,"startTick":300583,"startTime":117.41523437499998,"velocity":68},{"channel":1,"duration":0.1875,"durationBeats":0.5,"durationTicks":480,"endBeat":313.409375,"endTick":300873,"endTime":117.52851562500001,"note":26,"startBeat":312.909375,"startTick":300393,"startTime":117.34101562500001,"velocity":50},{"channel":0,"duration":0.09375,"durationBeats":0.25,"durationTicks":240,"endBeat":313.60729166666664,"endTick":301063,"endTime":117.60273437499998,"note":60,"startBeat":313.35729166666664,"startTick":300823,"startTime":117.50898437499998,"velocity":68},{"channel":9,"duration":0.09375,"durationBeats":0.25,"durationTicks":240,"endBeat":313.6614583333333,"endTick":301115,"endTime":117.623046875,"note":35,"startBeat":313.4114583333333,"startTick":300875,"startTime":117.529296875,"velocity":50},{"channel":9,"duration":0.09375,"durationBeats":0.25,"durationTicks":240,"endBeat":313.8333333333333,"endTick":301280,"endTime":117.6875,"note":42,"startBeat":313.5833333333333,"startTick":301040,"startTime":117.59375,"velocity":50},{"channel":0,"duration":0.1875,"durationBeats":0.5,"durationTicks":480,"endBeat":313.85729166666664,"endTick":301303,"endTime":117.69648437499998,"note":38,"startBeat":313.35729166666664,"startTick":300823,"startTime":117.50898437499998,"velocity":68},{"channel":0,"duration":0.09375,"durationBeats":0.25,"durationTicks":240,"endBeat":313.85729166666664,"endTick":301303,"endTime":117.69648437499998,"note":65,"startBeat":313.60729166666664,"startTick":301063,"startTime":117.60273437499998,"velocity":68},{"channel":9,"duration":0.0234375,"durationBeats":0.0625,"durationTicks":60,"endBeat":313.8958333333333,"endTick":301340,"endTime":117.7109375,"note":42,"startBeat":313.8333333333333,"startTick":301280,"startTime":117.6875,"velocity":50},{"channel":9,"duration":0.09375,"durationBeats":0.25,"durationTicks":240,"endBeat":313.9322916666667,"endTick":301375,"endTime":117.724609375,"note":35,"startBeat":313.6822916666667,"startTick":301135,"startTime":117.630859375,"velocity":50},{"channel":9,"duration":0.0234375,"durationBeats":0.0625,"durationTicks":60,"endBeat":314.0208333333333,"endTick":301460,"endTime":117.7578125,"note":42,"startBeat":313.9583333333333,"startTick":301400,"startTime":117.734375,"velocity":50},{"channel":2,"duration":0.1875,"durationBeats":0.5,"durationTicks":480,"endBeat":314.13854166666664,"endTick":301573,"endTime":117.80195312499998,"note":38,"startBeat":313.63854166666664,"startTick":301093,"startTime":117.61445312499998,"velocity":57},{"channel":9,"duration":0.0234375,"durationBeats":0.0625,"durationTicks":60,"endBeat":314.1458333333333,"endTick":301580,"endTime":117.8046875,"note":42,"startBeat":314.0833333333333,"startTick":301520,"startTime":117.78125,"velocity":50},{"channel":9,"duration":0.0234375,"durationBeats":0.0625,"durationTicks":60,"endBeat":314.2708333333333,"endTick":301700,"endTime":117.8515625,"note":42,"startBeat":314.2083333333333,"startTick":301640,"startTime":117.828125,"velocity":50},{"channel":0,"duration":0.1875,"durationBeats":0.5,"durationTicks":480,"endBeat":314.35729166666664,"endTick":301783,"endTime":117.88398437499998,"note":69,"startBeat":313.85729166666664,"startTick":301303,"startTime":117.69648437499998,"velocity":68},{"channel":0,"duration":0.1875,"durationBeats":0.5,"durationTicks":480,"endBeat":314.35729166666664,"endTick":301783,"endTime":117.88398437499998,"note":60,"startBeat":313.85729166666664,"startTick":301303,"startTime":117.69648437499998,"velocity":68},{"channel":0,"duration":0.1875,"durationBeats":0.5,"durationTicks":480,"endBeat":314.35729166666664,"endTick":301783,"endTime":117.88398437499998,"note":64,"startBeat":313.85729166666664,"startTick":301303,"startTime":117.69648437499998,"velocity":68},{"channel":0,"duration":0.1875,"durationBeats":0.5,"durationTicks":480,"endBeat":314.35729166666664,"endTick":301783,"endTime":117.88398437499998,"note":45,"startBeat":313.85729166666664,"startTick":301303,"startTime":117.69648437499998,"velocity":68},{"channel":9,"duration":0.0234375,"durationBeats":0.0625,"durationTicks":60,"endBeat":314.3958333333333,"endTick":301820,"endTime":117.8984375,"note":42,"startBeat":314.3333333333333,"startTick":301760,"startTime":117.875,"velocity":50},{"channel":1,"duration":0.1875,"durationBeats":0.5,"durationTicks":480,"endBeat":314.409375,"endTick":301833,"endTime":117.90351562500001,"note":38,"startBeat":313.909375,"startTick":301353,"startTime":117.71601562500001,"velocity":50},{"channel":9,"duration":0.09375,"durationBeats":0.25,"durationTicks":240,"endBeat":314.4114583333333,"endTick":301835,"endTime":117.904296875,"note":35,"startBeat":314.1614583333333,"startTick":301595,"startTime":117.810546875,"velocity":50},{"channel":2,"duration":0.1875,"durationBeats":0.5,"durationTicks":480,"endBeat":314.63854166666664,"endTick":302053,"endTime":117.98945312499998,"note":26,"startBeat":314.13854166666664,"startTick":301573,"startTime":117.80195312499998,"velocity":57},{"channel":9,"duration":0.0078125,"durationBeats":0.02083333333337123,"durationTicks":20,"endBeat":314.6822916666667,"endTick":302095,"endTime":118.005859375,"note":35,"startBeat":314.6614583333333,"startTick":302075,"startTime":117.998046875,"velocity":50},{"channel":0,"duration":0.1875,"durationBeats":0.5,"durationTicks":480,"endBeat":314.85729166666664,"endTick":302263,"endTime":118.07148437499998,"note":44,"startBeat":314.35729166666664,"startTick":301783,"startTime":117.88398437499998,"velocity":68},{"channel":0,"duration":0.1875,"durationBeats":0.5,"durationTicks":480,"endBeat":314.85729166666664,"endTick":302263,"endTime":118.07148437499998,"note":68,"startBeat":314.35729166666664,"startTick":301783,"startTime":117.88398437499998,"velocity":68},{"channel":0,"duration":0.1875,"durationBeats":0.5,"durationTicks":480,"endBeat":314.85729166666664,"endTick":302263,"endTime":118.07148437499998,"note":63,"startBeat":314.35729166666664,"startTick":301783,"startTime":117.88398437499998,"velocity":68},{"channel":0,"duration":0.1875,"durationBeats":0.5,"durationTicks":480,"endBeat":314.85729166666664,"endTick":302263,"endTime":118.07148437499998,"note":59,"startBeat":314.35729166666664,"startTick":301783,"startTime":117.88398437499998,"velocity":68},{"channel":1,"duration":0.1875,"durationBeats":0.5,"durationTicks":480,"endBeat":314.909375,"endTick":302313,"endTime":118.09101562500001,"note":26,"startBeat":314.409375,"startTick":301833,"startTime":117.90351562500001,"velocity":50},{"channel":9,"duration":0.09375,"durationBeats":0.25,"durationTicks":240,"endBeat":315.0833333333333,"endTick":302480,"endTime":118.15625,"note":42,"startBeat":314.8333333333333,"startTick":302240,"startTime":118.0625,"velocity":50},{"channel":2,"duration":0.1875,"durationBeats":0.5,"durationTicks":480,"endBeat":315.13854166666664,"endTick":302533,"endTime":118.17695312499998,"note":33,"startBeat":314.63854166666664,"startTick":302053,"startTime":117.98945312499998,"velocity":57},{"channel":9,"duration":0.09375,"durationBeats":0.25,"durationTicks":240,"endBeat":315.1822916666667,"endTick":302575,"endTime":118.193359375,"note":35,"startBeat":314.9322916666667,"startTick":302335,"startTime":118.099609375,"velocity":50},{"channel":9,"duration":0.09375,"durationBeats":0.25,"durationTicks":240,"endBeat":315.3541666666667,"endTick":302740,"endTime":118.2578125,"note":42,"startBeat":315.1041666666667,"startTick":302500,"startTime":118.1640625,"velocity":50},{"channel":0,"duration":0.1875,"durationBeats":0.5,"durationTicks":480,"endBeat":315.35729166666664,"endTick":302743,"endTime":118.25898437499998,"note":43,"startBeat":314.85729166666664,"startTick":302263,"startTime":118.07148437499998,"velocity":68},{"channel":1,"duration":0.1875,"durationBeats":0.5,"durationTicks":480,"endBeat":315.409375,"endTick":302793,"endTime":118.27851562500001,"note":33,"startBeat":314.909375,"startTick":302313,"startTime":118.09101562500001,"velocity":50},{"channel":0,"duration":0.375,"durationBeats":1,"durationTicks":960,"endBeat":315.85729166666664,"endTick":303223,"endTime":118.44648437499998,"note":69,"startBeat":314.85729166666664,"startTick":302263,"startTime":118.07148437499998,"velocity":68},{"channel":0,"duration":0.375,"durationBeats":1,"durationTicks":960,"endBeat":315.85729166666664,"endTick":303223,"endTime":118.44648437499998,"note":65,"startBeat":314.85729166666664,"startTick":302263,"startTime":118.07148437499998,"velocity":68},{"channel":0,"duration":0.375,"durationBeats":1,"durationTicks":960,"endBeat":315.85729166666664,"endTick":303223,"endTime":118.44648437499998,"note":62,"startBeat":314.85729166666664,"startTick":302263,"startTime":118.07148437499998,"velocity":68},{"channel":0,"duration":0.375,"durationBeats":1,"durationTicks":960,"endBeat":315.85729166666664,"endTick":303223,"endTime":118.44648437499998,"note":58,"startBeat":314.85729166666664,"startTick":302263,"startTime":118.07148437499998,"velocity":68},{"channel":0,"duration":0.1875,"durationBeats":0.5,"durationTicks":480,"endBeat":315.85729166666664,"endTick":303223,"endTime":118.44648437499998,"note":50,"startBeat":315.35729166666664,"startTick":302743,"startTime":118.25898437499998,"velocity":68},{"channel":9,"duration":0.09375,"durationBeats":0.25,"durationTicks":240,"endBeat":315.9114583333333,"endTick":303275,"endTime":118.466796875,"note":35,"startBeat":315.6614583333333,"startTick":303035,"startTime":118.373046875,"velocity":50},{"channel":9,"duration":0.09375,"durationBeats":0.25,"durationTicks":240,"endBeat":316.0833333333333,"endTick":303440,"endTime":118.53125,"note":42,"startBeat":315.8333333333333,"startTick":303200,"startTime":118.4375,"velocity":50},{"channel":2,"duration":0.1875,"durationBeats":0.5,"durationTicks":480,"endBeat":316.13854166666664,"endTick":303493,"endTime":118.55195312499998,"note":26,"startBeat":315.63854166666664,"startTick":303013,"startTime":118.36445312499998,"velocity":57},{"channel":9,"duration":0.09375,"durationBeats":0.25,"durationTicks":240,"endBeat":316.1822916666667,"endTick":303535,"endTime":118.568359375,"note":35,"startBeat":315.9322916666667,"startTick":303295,"startTime":118.474609375,"velocity":50},{"channel":9,"duration":0.09375,"durationBeats":0.25,"durationTicks":240,"endBeat":316.3541666666667,"endTick":303700,"endTime":118.6328125,"note":42,"startBeat":316.1041666666667,"startTick":303460,"startTime":118.5390625,"velocity":50},{"channel":0,"duration":0.1875,"durationBeats":0.5,"durationTicks":480,"endBeat":316.35729166666664,"endTick":303703,"endTime":118.63398437499998,"note":43,"startBeat":315.85729166666664,"startTick":303223,"startTime":118.44648437499998,"velocity":68},{"channel":1,"duration":0.1875,"durationBeats":0.5,"durationTicks":480,"endBeat":316.409375,"endTick":303753,"endTime":118.65351562500001,"note":26,"startBeat":315.909375,"startTick":303273,"startTime":118.46601562500001,"velocity":50},{"channel":0,"duration":0.09375,"durationBeats":0.25,"durationTicks":240,"endBeat":316.60729166666664,"endTick":303943,"endTime":118.72773437499998,"note":65,"startBeat":316.35729166666664,"startTick":303703,"startTime":118.63398437499998,"velocity":68},{"channel":2,"duration":0.1875,"durationBeats":0.5,"durationTicks":480,"endBeat":316.63854166666664,"endTick":303973,"endTime":118.73945312499998,"note":33,"startBeat":316.13854166666664,"startTick":303493,"startTime":118.55195312499998,"velocity":57},{"channel":10,"duration":0.09375,"durationBeats":0.25,"durationTicks":240,"endBeat":316.753125,"endTick":304083,"endTime":118.78242187500001,"note":86,"startBeat":316.503125,"startTick":303843,"startTime":118.68867187500001,"velocity":50},{"channel":0,"duration":0.1875,"durationBeats":0.5,"durationTicks":480,"endBeat":316.85729166666664,"endTick":304183,"endTime":118.82148437499998,"note":44,"startBeat":316.35729166666664,"startTick":303703,"startTime":118.63398437499998,"velocity":68},{"channel":0,"duration":0.09375,"durationBeats":0.25,"durationTicks":240,"endBeat":316.85729166666664,"endTick":304183,"endTime":118.82148437499998,"note":69,"startBeat":316.60729166666664,"startTick":303943,"startTime":118.72773437499998,"velocity":68},{"channel":1,"duration":0.1875,"durationBeats":0.5,"durationTicks":480,"endBeat":316.909375,"endTick":304233,"endTime":118.84101562500001,"note":33,"startBeat":316.409375,"startTick":303753,"startTime":118.65351562500001,"velocity":50},{"channel":9,"duration":0.09375,"durationBeats":0.25,"durationTicks":240,"endBeat":316.9114583333333,"endTick":304235,"endTime":118.841796875,"note":35,"startBeat":316.6614583333333,"startTick":303995,"startTime":118.748046875,"velocity":50},{"channel":10,"duration":0.09375,"durationBeats":0.25,"durationTicks":240,"endBeat":317.003125,"endTick":304323,"endTime":118.87617187500001,"note":89,"startBeat":316.753125,"startTick":304083,"startTime":118.78242187500001,"velocity":50},{"channel":9,"duration":0.09375,"durationBeats":0.25,"durationTicks":240,"endBeat":317.0833333333333,"endTick":304400,"endTime":118.90625,"note":42,"startBeat":316.8333333333333,"startTick":304160,"startTime":118.8125,"velocity":50},{"channel":2,"duration":0.1875,"durationBeats":0.5,"durationTicks":480,"endBeat":317.13854166666664,"endTick":304453,"endTime":118.92695312499998,"note":32,"startBeat":316.63854166666664,"startTick":303973,"startTime":118.73945312499998,"velocity":57},{"channel":9,"duration":0.09375,"durationBeats":0.25,"durationTicks":240,"endBeat":317.1822916666667,"endTick":304495,"endTime":118.943359375,"note":35,"startBeat":316.9322916666667,"startTick":304255,"startTime":118.849609375,"velocity":50},{"channel":10,"duration":0.09375,"durationBeats":0.25,"durationTicks":240,"endBeat":317.253125,"endTick":304563,"endTime":118.96992187500001,"note":91,"startBeat":317.003125,"startTick":304323,"startTime":118.87617187500001,"velocity":50},{"channel":9,"duration":0.09375,"durationBeats":0.25,"durationTicks":240,"endBeat":317.3541666666667,"endTick":304660,"endTime":119.0078125,"note":42,"startBeat":317.1041666666667,"startTick":304420,"startTime":118.9140625,"velocity":50},{"channel":0,"duration":0.1875,"durationBeats":0.5,"durationTicks":480,"endBeat":317.35729166666664,"endTick":304663,"endTime":119.00898437499998,"note":60,"startBeat":316.85729166666664,"startTick":304183,"startTime":118.82148437499998,"velocity":68},{"channel":0,"duration":0.1875,"durationBeats":0.5,"durationTicks":480,"endBeat":317.35729166666664,"endTick":304663,"endTime":119.00898437499998,"note":64,"startBeat":316.85729166666664,"startTick":304183,"startTime":118.82148437499998,"velocity":68},{"channel":0,"duration":0.1875,"durationBeats":0.5,"durationTicks":480,"endBeat":317.35729166666664,"endTick":304663,"endTime":119.00898437499998,"note":67,"startBeat":316.85729166666664,"startTick":304183,"startTime":118.82148437499998,"velocity":68},{"channel":0,"duration":0.1875,"durationBeats":0.5,"durationTicks":480,"endBeat":317.35729166666664,"endTick":304663,"endTime":119.00898437499998,"note":72,"startBeat":316.85729166666664,"startTick":304183,"startTime":118.82148437499998,"velocity":68},{"channel":0,"duration":0.1875,"durationBeats":0.5,"durationTicks":480,"endBeat":317.35729166666664,"endTick":304663,"endTime":119.00898437499998,"note":45,"startBeat":316.85729166666664,"startTick":304183,"startTime":118.82148437499998,"velocity":68},{"channel":1,"duration":0.1875,"durationBeats":0.5,"durationTicks":480,"endBeat":317.409375,"endTick":304713,"endTime":119.02851562500001,"note":32,"startBeat":316.909375,"startTick":304233,"startTime":118.84101562500001,"velocity":50},{"channel":2,"duration":0.1875,"durationBeats":0.5,"durationTicks":480,"endBeat":317.63854166666664,"endTick":304933,"endTime":119.11445312499998,"note":31,"startBeat":317.13854166666664,"startTick":304453,"startTime":118.92695312499998,"velocity":57},{"channel":9,"duration":0.09375,"durationBeats":0.25,"durationTicks":240,"endBeat":317.6614583333333,"endTick":304955,"endTime":119.123046875,"note":35,"startBeat":317.4114583333333,"startTick":304715,"startTime":119.029296875,"velocity":50},{"channel":10,"duration":0.09375,"durationBeats":0.25,"durationTicks":240,"endBeat":317.753125,"endTick":305043,"endTime":119.15742187500001,"note":93,"startBeat":317.503125,"startTick":304803,"startTime":119.06367187500001,"velocity":50},{"channel":9,"duration":0.09375,"durationBeats":0.25,"durationTicks":240,"endBeat":317.8333333333333,"endTick":305120,"endTime":119.1875,"note":42,"startBeat":317.5833333333333,"startTick":304880,"startTime":119.09375,"velocity":50},{"channel":0,"duration":0.09375,"durationBeats":0.25,"durationTicks":240,"endBeat":317.85729166666664,"endTick":305143,"endTime":119.19648437499998,"note":45,"startBeat":317.60729166666664,"startTick":304903,"startTime":119.10273437499998,"velocity":68},{"channel":1,"duration":0.1875,"durationBeats":0.5,"durationTicks":480,"endBeat":317.909375,"endTick":305193,"endTime":119.21601562500001,"note":31,"startBeat":317.409375,"startTick":304713,"startTime":119.02851562500001,"velocity":50},{"channel":9,"duration":0.09375,"durationBeats":0.25,"durationTicks":240,"endBeat":317.9322916666667,"endTick":305215,"endTime":119.224609375,"note":35,"startBeat":317.6822916666667,"startTick":304975,"startTime":119.130859375,"velocity":50},{"channel":9,"duration":0.09375,"durationBeats":0.25,"durationTicks":240,"endBeat":318.1041666666667,"endTick":305380,"endTime":119.2890625,"note":42,"startBeat":317.8541666666667,"startTick":305140,"startTime":119.1953125,"velocity":50},{"channel":0,"duration":0.1875,"durationBeats":0.5,"durationTicks":480,"endBeat":318.10729166666664,"endTick":305383,"endTime":119.29023437499998,"note":70,"startBeat":317.60729166666664,"startTick":304903,"startTime":119.10273437499998,"velocity":68},{"channel":0,"duration":0.1875,"durationBeats":0.5,"durationTicks":480,"endBeat":318.10729166666664,"endTick":305383,"endTime":119.29023437499998,"note":67,"startBeat":317.60729166666664,"startTick":304903,"startTime":119.10273437499998,"velocity":68},{"channel":0,"duration":0.1875,"durationBeats":0.5,"durationTicks":480,"endBeat":318.10729166666664,"endTick":305383,"endTime":119.29023437499998,"note":65,"startBeat":317.60729166666664,"startTick":304903,"startTime":119.10273437499998,"velocity":68},{"channel":0,"duration":0.1875,"durationBeats":0.5,"durationTicks":480,"endBeat":318.10729166666664,"endTick":305383,"endTime":119.29023437499998,"note":61,"startBeat":317.60729166666664,"startTick":304903,"startTime":119.10273437499998,"velocity":68},{"channel":10,"duration":0.09375,"durationBeats":0.25,"durationTicks":240,"endBeat":318.253125,"endTick":305523,"endTime":119.34492187500001,"note":95,"startBeat":318.003125,"startTick":305283,"startTime":119.25117187500001,"velocity":50},{"channel":9,"duration":0.09375,"durationBeats":0.25,"durationTicks":240,"endBeat":318.4114583333333,"endTick":305675,"endTime":119.404296875,"note":35,"startBeat":318.1614583333333,"startTick":305435,"startTime":119.310546875,"velocity":50},{"channel":2,"duration":0.1875,"durationBeats":0.5,"durationTicks":480,"endBeat":318.63854166666664,"endTick":305893,"endTime":119.48945312499998,"note":31,"startBeat":318.13854166666664,"startTick":305413,"startTime":119.30195312499998,"velocity":57},{"channel":9,"duration":0.0078125,"durationBeats":0.02083333333337123,"durationTicks":20,"endBeat":318.6822916666667,"endTick":305935,"endTime":119.505859375,"note":35,"startBeat":318.6614583333333,"startTick":305915,"startTime":119.498046875,"velocity":50},{"channel":10,"duration":0.09375,"durationBeats":0.25,"durationTicks":240,"endBeat":318.753125,"endTick":306003,"endTime":119.53242187500001,"note":94,"startBeat":318.503125,"startTick":305763,"startTime":119.43867187500001,"velocity":50},{"channel":0,"duration":0.1875,"durationBeats":0.5,"durationTicks":480,"endBeat":318.85729166666664,"endTick":306103,"endTime":119.57148437499998,"note":69,"startBeat":318.35729166666664,"startTick":305623,"startTime":119.38398437499998,"velocity":68},{"channel":0,"duration":0.1875,"durationBeats":0.5,"durationTicks":480,"endBeat":318.85729166666664,"endTick":306103,"endTime":119.57148437499998,"note":65,"startBeat":318.35729166666664,"startTick":305623,"startTime":119.38398437499998,"velocity":68},{"channel":0,"duration":0.1875,"durationBeats":0.5,"durationTicks":480,"endBeat":318.85729166666664,"endTick":306103,"endTime":119.57148437499998,"note":64,"startBeat":318.35729166666664,"startTick":305623,"startTime":119.38398437499998,"velocity":68},{"channel":0,"duration":0.1875,"durationBeats":0.5,"durationTicks":480,"endBeat":318.85729166666664,"endTick":306103,"endTime":119.57148437499998,"note":60,"startBeat":318.35729166666664,"startTick":305623,"startTime":119.38398437499998,"velocity":68},{"channel":0,"duration":0.1875,"durationBeats":0.5,"durationTicks":480,"endBeat":318.85729166666664,"endTick":306103,"endTime":119.57148437499998,"note":38,"startBeat":318.35729166666664,"startTick":305623,"startTime":119.38398437499998,"velocity":68},{"channel":1,"duration":0.1875,"durationBeats":0.5,"durationTicks":480,"endBeat":318.909375,"endTick":306153,"endTime":119.59101562500001,"note":31,"startBeat":318.409375,"startTick":305673,"startTime":119.40351562500001,"velocity":50},{"channel":9,"duration":0.09375,"durationBeats":0.25,"durationTicks":240,"endBeat":319.0833333333333,"endTick":306320,"endTime":119.65625,"note":42,"startBeat":318.8333333333333,"startTick":306080,"startTime":119.5625,"velocity":50},{"channel":0,"duration":0.09375,"durationBeats":0.25,"durationTicks":240,"endBeat":319.10729166666664,"endTick":306343,"endTime":119.66523437499998,"note":76,"startBeat":318.85729166666664,"startTick":306103,"startTime":119.57148437499998,"velocity":68},{"channel":2,"duration":0.1875,"durationBeats":0.5,"durationTicks":480,"endBeat":319.13854166666664,"endTick":306373,"endTime":119.67695312499998,"note":32,"startBeat":318.63854166666664,"startTick":305893,"startTime":119.48945312499998,"velocity":57},{"channel":9,"duration":0.09375,"durationBeats":0.25,"durationTicks":240,"endBeat":319.1822916666667,"endTick":306415,"endTime":119.693359375,"note":35,"startBeat":318.9322916666667,"startTick":306175,"startTime":119.599609375,"velocity":50},{"channel":10,"duration":0.09375,"durationBeats":0.25,"durationTicks":240,"endBeat":319.253125,"endTick":306483,"endTime":119.71992187500001,"note":93,"startBeat":319.003125,"startTick":306243,"startTime":119.62617187500001,"velocity":50},{"channel":9,"duration":0.09375,"durationBeats":0.25,"durationTicks":240,"endBeat":319.3541666666667,"endTick":306580,"endTime":119.7578125,"note":42,"startBeat":319.1041666666667,"startTick":306340,"startTime":119.6640625,"velocity":50},{"channel":0,"duration":0.09375,"durationBeats":0.25,"durationTicks":240,"endBeat":319.35729166666664,"endTick":306583,"endTime":119.75898437499998,"note":77,"startBeat":319.10729166666664,"startTick":306343,"startTime":119.66523437499998,"velocity":68},{"channel":1,"duration":0.1875,"durationBeats":0.5,"durationTicks":480,"endBeat":319.409375,"endTick":306633,"endTime":119.77851562500001,"note":32,"startBeat":318.909375,"startTick":306153,"startTime":119.59101562500001,"velocity":50},{"channel":0,"duration":0.09375,"durationBeats":0.25,"durationTicks":240,"endBeat":319.60729166666664,"endTick":306823,"endTime":119.85273437499998,"note":76,"startBeat":319.35729166666664,"startTick":306583,"startTime":119.75898437499998,"velocity":68},{"channel":2,"duration":0.1875,"durationBeats":0.5,"durationTicks":480,"endBeat":319.63854166666664,"endTick":306853,"endTime":119.86445312499998,"note":33,"startBeat":319.13854166666664,"startTick":306373,"startTime":119.67695312499998,"velocity":57},{"channel":10,"duration":0.09375,"durationBeats":0.25,"durationTicks":240,"endBeat":319.753125,"endTick":306963,"endTime":119.90742187500001,"note":92,"startBeat":319.503125,"startTick":306723,"startTime":119.81367187500001,"velocity":50},{"channel":0,"duration":0.1875,"durationBeats":0.5,"durationTicks":480,"endBeat":319.85729166666664,"endTick":307063,"endTime":119.94648437499998,"note":50,"startBeat":319.35729166666664,"startTick":306583,"startTime":119.75898437499998,"velocity":68},{"channel":0,"duration":0.09375,"durationBeats":0.25,"durationTicks":240,"endBeat":319.85729166666664,"endTick":307063,"endTime":119.94648437499998,"note":72,"startBeat":319.60729166666664,"startTick":306823,"startTime":119.85273437499998,"velocity":68},{"channel":1,"duration":0.1875,"durationBeats":0.5,"durationTicks":480,"endBeat":319.909375,"endTick":307113,"endTime":119.96601562500001,"note":33,"startBeat":319.409375,"startTick":306633,"startTime":119.77851562500001,"velocity":50},{"channel":9,"duration":0.09375,"durationBeats":0.25,"durationTicks":240,"endBeat":319.9114583333333,"endTick":307115,"endTime":119.966796875,"note":35,"startBeat":319.6614583333333,"startTick":306875,"startTime":119.873046875,"velocity":50},{"channel":9,"duration":0.09375,"durationBeats":0.25,"durationTicks":240,"endBeat":320.0833333333333,"endTick":307280,"endTime":120.03125,"note":42,"startBeat":319.8333333333333,"startTick":307040,"startTime":119.9375,"velocity":50},{"channel":0,"duration":0.09375,"durationBeats":0.25,"durationTicks":240,"endBeat":320.10729166666664,"endTick":307303,"endTime":120.04023437499998,"note":76,"startBeat":319.85729166666664,"startTick":307063,"startTime":119.94648437499998,"velocity":68},{"channel":2,"duration":0.09375,"durationBeats":0.25,"durationTicks":240,"endBeat":320.13854166666664,"endTick":307333,"endTime":120.05195312499998,"note":33,"startBeat":319.88854166666664,"startTick":307093,"startTime":119.95820312499998,"velocity":57},{"channel":9,"duration":0.09375,"durationBeats":0.25,"durationTicks":240,"endBeat":320.1822916666667,"endTick":307375,"endTime":120.068359375,"note":35,"startBeat":319.9322916666667,"startTick":307135,"startTime":119.974609375,"velocity":50},{"channel":9,"duration":0.09375,"durationBeats":0.25,"durationTicks":240,"endBeat":320.3541666666667,"endTick":307540,"endTime":120.1328125,"note":42,"startBeat":320.1041666666667,"startTick":307300,"startTime":120.0390625,"velocity":50},{"channel":0,"duration":0.1875,"durationBeats":0.5,"durationTicks":480,"endBeat":320.35729166666664,"endTick":307543,"endTime":120.13398437499998,"note":38,"startBeat":319.85729166666664,"startTick":307063,"startTime":119.94648437499998,"velocity":68},{"channel":0,"duration":0.09375,"durationBeats":0.25,"durationTicks":240,"endBeat":320.35729166666664,"endTick":307543,"endTime":120.13398437499998,"note":72,"startBeat":320.10729166666664,"startTick":307303,"startTime":120.04023437499998,"velocity":68},{"channel":1,"duration":0.09375,"durationBeats":0.25,"durationTicks":240,"endBeat":320.409375,"endTick":307593,"endTime":120.15351562500001,"note":33,"startBeat":320.159375,"startTick":307353,"startTime":120.05976562500001,"velocity":50},{"channel":0,"duration":0.09375,"durationBeats":0.25,"durationTicks":240,"endBeat":320.60729166666664,"endTick":307783,"endTime":120.22773437499998,"note":69,"startBeat":320.35729166666664,"startTick":307543,"startTime":120.13398437499998,"velocity":68},{"channel":9,"duration":0.09375,"durationBeats":0.25,"durationTicks":240,"endBeat":320.6822916666667,"endTick":307855,"endTime":120.255859375,"note":42,"startBeat":320.4322916666667,"startTick":307615,"startTime":120.162109375,"velocity":50},{"channel":0,"duration":0.1875,"durationBeats":0.5,"durationTicks":480,"endBeat":320.85729166666664,"endTick":308023,"endTime":120.32148437499998,"note":45,"startBeat":320.35729166666664,"startTick":307543,"startTime":120.13398437499998,"velocity":68},{"channel":0,"duration":0.09375,"durationBeats":0.25,"durationTicks":240,"endBeat":320.85729166666664,"endTick":308023,"endTime":120.32148437499998,"note":67,"startBeat":320.60729166666664,"startTick":307783,"startTime":120.22773437499998,"velocity":68},{"channel":9,"duration":0.09375,"durationBeats":0.25,"durationTicks":240,"endBeat":320.9114583333333,"endTick":308075,"endTime":120.341796875,"note":35,"startBeat":320.6614583333333,"startTick":307835,"startTime":120.248046875,"velocity":50},{"channel":9,"duration":0.09375,"durationBeats":0.25,"durationTicks":240,"endBeat":321.0833333333333,"endTick":308240,"endTime":120.40625,"note":42,"startBeat":320.8333333333333,"startTick":308000,"startTime":120.3125,"velocity":50},{"channel":0,"duration":0.09375,"durationBeats":0.25,"durationTicks":240,"endBeat":321.10729166666664,"endTick":308263,"endTime":120.41523437499998,"note":69,"startBeat":320.85729166666664,"startTick":308023,"startTime":120.32148437499998,"velocity":68},{"channel":2,"duration":0.1875,"durationBeats":0.5,"durationTicks":480,"endBeat":321.13854166666664,"endTick":308293,"endTime":120.42695312499998,"note":26,"startBeat":320.63854166666664,"startTick":307813,"startTime":120.23945312499998,"velocity":57},{"channel":9,"duration":0.09375,"durationBeats":0.25,"durationTicks":240,"endBeat":321.1822916666667,"endTick":308335,"endTime":120.443359375,"note":35,"startBeat":320.9322916666667,"startTick":308095,"startTime":120.349609375,"velocity":50},{"channel":9,"duration":0.0390625,"durationBeats":0.10416666666668561,"durationTicks":100,"endBeat":321.3541666666667,"endTick":308500,"endTime":120.5078125,"note":42,"startBeat":321.25,"startTick":308400,"startTime":120.46875,"velocity":50},{"channel":0,"duration":0.1875,"durationBeats":0.5,"durationTicks":480,"endBeat":321.35729166666664,"endTick":308503,"endTime":120.50898437499998,"note":50,"startBeat":320.85729166666664,"startTick":308023,"startTime":120.32148437499998,"velocity":68},{"channel":0,"duration":0.09375,"durationBeats":0.25,"durationTicks":240,"endBeat":321.35729166666664,"endTick":308503,"endTime":120.50898437499998,"note":62,"startBeat":321.10729166666664,"startTick":308263,"startTime":120.41523437499998,"velocity":68},{"channel":1,"duration":0.1875,"durationBeats":0.5,"durationTicks":480,"endBeat":321.409375,"endTick":308553,"endTime":120.52851562500001,"note":26,"startBeat":320.909375,"startTick":308073,"startTime":120.34101562500001,"velocity":50},{"channel":0,"duration":0.09375,"durationBeats":0.25,"durationTicks":240,"endBeat":321.60729166666664,"endTick":308743,"endTime":120.60273437499998,"note":60,"startBeat":321.35729166666664,"startTick":308503,"startTime":120.50898437499998,"velocity":68},{"channel":9,"duration":0.09375,"durationBeats":0.25,"durationTicks":240,"endBeat":321.6614583333333,"endTick":308795,"endTime":120.623046875,"note":35,"startBeat":321.4114583333333,"startTick":308555,"startTime":120.529296875,"velocity":50},{"channel":9,"duration":0.0625,"durationBeats":0.16666666666668561,"durationTicks":160,"endBeat":321.75,"endTick":308880,"endTime":120.65625,"note":42,"startBeat":321.5833333333333,"startTick":308720,"startTime":120.59375,"velocity":50},{"channel":0,"duration":0.1875,"durationBeats":0.5,"durationTicks":480,"endBeat":321.85729166666664,"endTick":308983,"endTime":120.69648437499998,"note":38,"startBeat":321.35729166666664,"startTick":308503,"startTime":120.50898437499998,"velocity":68},{"channel":0,"duration":0.09375,"durationBeats":0.25,"durationTicks":240,"endBeat":321.85729166666664,"endTick":308983,"endTime":120.69648437499998,"note":65,"startBeat":321.60729166666664,"startTick":308743,"startTime":120.60273437499998,"velocity":68},{"channel":9,"duration":0.09375,"durationBeats":0.25,"durationTicks":240,"endBeat":321.9322916666667,"endTick":309055,"endTime":120.724609375,"note":35,"startBeat":321.6822916666667,"startTick":308815,"startTime":120.630859375,"velocity":50},{"channel":9,"duration":0.09375,"durationBeats":0.25,"durationTicks":240,"endBeat":322.1041666666667,"endTick":309220,"endTime":120.7890625,"note":42,"startBeat":321.8541666666667,"startTick":308980,"startTime":120.6953125,"velocity":50},{"channel":2,"duration":0.1875,"durationBeats":0.5,"durationTicks":480,"endBeat":322.13854166666664,"endTick":309253,"endTime":120.80195312499998,"note":26,"startBeat":321.63854166666664,"startTick":308773,"startTime":120.61445312499998,"velocity":57},{"channel":0,"duration":0.1875,"durationBeats":0.5,"durationTicks":480,"endBeat":322.35729166666664,"endTick":309463,"endTime":120.88398437499998,"note":45,"startBeat":321.85729166666664,"startTick":308983,"startTime":120.69648437499998,"velocity":68},{"channel":0,"duration":0.1875,"durationBeats":0.5,"durationTicks":480,"endBeat":322.35729166666664,"endTick":309463,"endTime":120.88398437499998,"note":69,"startBeat":321.85729166666664,"startTick":308983,"startTime":120.69648437499998,"velocity":68},{"channel":0,"duration":0.1875,"durationBeats":0.5,"durationTicks":480,"endBeat":322.35729166666664,"endTick":309463,"endTime":120.88398437499998,"note":60,"startBeat":321.85729166666664,"startTick":308983,"startTime":120.69648437499998,"velocity":68},{"channel":0,"duration":0.1875,"durationBeats":0.5,"durationTicks":480,"endBeat":322.35729166666664,"endTick":309463,"endTime":120.88398437499998,"note":64,"startBeat":321.85729166666664,"startTick":308983,"startTime":120.69648437499998,"velocity":68},{"channel":1,"duration":0.1875,"durationBeats":0.5,"durationTicks":480,"endBeat":322.409375,"endTick":309513,"endTime":120.90351562500001,"note":26,"startBeat":321.909375,"startTick":309033,"startTime":120.71601562500001,"velocity":50},{"channel":9,"duration":0.09375,"durationBeats":0.25,"durationTicks":240,"endBeat":322.4114583333333,"endTick":309515,"endTime":120.904296875,"note":35,"startBeat":322.1614583333333,"startTick":309275,"startTime":120.810546875,"velocity":50},{"channel":9,"duration":0.09375,"durationBeats":0.25,"durationTicks":240,"endBeat":322.5,"endTick":309600,"endTime":120.9375,"note":42,"startBeat":322.25,"startTick":309360,"startTime":120.84375,"velocity":50},{"channel":2,"duration":0.1875,"durationBeats":0.5,"durationTicks":480,"endBeat":322.63854166666664,"endTick":309733,"endTime":120.98945312499998,"note":33,"startBeat":322.13854166666664,"startTick":309253,"startTime":120.80195312499998,"velocity":57},{"channel":9,"duration":0.0078125,"durationBeats":0.02083333333337123,"durationTicks":20,"endBeat":322.6822916666667,"endTick":309775,"endTime":121.005859375,"note":35,"startBeat":322.6614583333333,"startTick":309755,"startTime":120.998046875,"velocity":50},{"channel":9,"duration":0.09375,"durationBeats":0.25,"durationTicks":240,"endBeat":322.75,"endTick":309840,"endTime":121.03125,"note":42,"startBeat":322.5,"startTick":309600,"startTime":120.9375,"velocity":50},{"channel":0,"duration":0.1875,"durationBeats":0.5,"durationTicks":480,"endBeat":322.85729166666664,"endTick":309943,"endTime":121.07148437499998,"note":44,"startBeat":322.35729166666664,"startTick":309463,"startTime":120.88398437499998,"velocity":68},{"channel":0,"duration":0.1875,"durationBeats":0.5,"durationTicks":480,"endBeat":322.85729166666664,"endTick":309943,"endTime":121.07148437499998,"note":68,"startBeat":322.35729166666664,"startTick":309463,"startTime":120.88398437499998,"velocity":68},{"channel":0,"duration":0.1875,"durationBeats":0.5,"durationTicks":480,"endBeat":322.85729166666664,"endTick":309943,"endTime":121.07148437499998,"note":63,"startBeat":322.35729166666664,"startTick":309463,"startTime":120.88398437499998,"velocity":68},{"channel":0,"duration":0.1875,"durationBeats":0.5,"durationTicks":480,"endBeat":322.85729166666664,"endTick":309943,"endTime":121.07148437499998,"note":59,"startBeat":322.35729166666664,"startTick":309463,"startTime":120.88398437499998,"velocity":68},{"channel":1,"duration":0.1875,"durationBeats":0.5,"durationTicks":480,"endBeat":322.909375,"endTick":309993,"endTime":121.09101562500001,"note":33,"startBeat":322.409375,"startTick":309513,"startTime":120.90351562500001,"velocity":50},{"channel":9,"duration":0.09375,"durationBeats":0.25,"durationTicks":240,"endBeat":323.0833333333333,"endTick":310160,"endTime":121.15625,"note":42,"startBeat":322.8333333333333,"startTick":309920,"startTime":121.0625,"velocity":50},{"channel":2,"duration":0.1875,"durationBeats":0.5,"durationTicks":480,"endBeat":323.13854166666664,"endTick":310213,"endTime":121.17695312499998,"note":26,"startBeat":322.63854166666664,"startTick":309733,"startTime":120.98945312499998,"velocity":57},{"channel":9,"duration":0.09375,"durationBeats":0.25,"durationTicks":240,"endBeat":323.1822916666667,"endTick":310255,"endTime":121.193359375,"note":35,"startBeat":322.9322916666667,"startTick":310015,"startTime":121.099609375,"velocity":50},{"channel":9,"duration":0.0390625,"durationBeats":0.10416666666668561,"durationTicks":100,"endBeat":323.3541666666667,"endTick":310420,"endTime":121.2578125,"note":42,"startBeat":323.25,"startTick":310320,"startTime":121.21875,"velocity":50},{"channel":0,"duration":0.1875,"durationBeats":0.5,"durationTicks":480,"endBeat":323.35729166666664,"endTick":310423,"endTime":121.25898437499998,"note":43,"startBeat":322.85729166666664,"startTick":309943,"startTime":121.07148437499998,"velocity":68},{"channel":1,"duration":0.1875,"durationBeats":0.5,"durationTicks":480,"endBeat":323.409375,"endTick":310473,"endTime":121.27851562500001,"note":26,"startBeat":322.909375,"startTick":309993,"startTime":121.09101562500001,"velocity":50},{"channel":2,"duration":0.1875,"durationBeats":0.5,"durationTicks":480,"endBeat":323.63854166666664,"endTick":310693,"endTime":121.36445312499998,"note":38,"startBeat":323.13854166666664,"startTick":310213,"startTime":121.17695312499998,"velocity":57},{"channel":0,"duration":0.375,"durationBeats":1,"durationTicks":960,"endBeat":323.85729166666664,"endTick":310903,"endTime":121.44648437499998,"note":69,"startBeat":322.85729166666664,"startTick":309943,"startTime":121.07148437499998,"velocity":68},{"channel":0,"duration":0.375,"durationBeats":1,"durationTicks":960,"endBeat":323.85729166666664,"endTick":310903,"endTime":121.44648437499998,"note":65,"startBeat":322.85729166666664,"startTick":309943,"startTime":121.07148437499998,"velocity":68},{"channel":0,"duration":0.375,"durationBeats":1,"durationTicks":960,"endBeat":323.85729166666664,"endTick":310903,"endTime":121.44648437499998,"note":62,"startBeat":322.85729166666664,"startTick":309943,"startTime":121.07148437499998,"velocity":68},{"channel":0,"duration":0.375,"durationBeats":1,"durationTicks":960,"endBeat":323.85729166666664,"endTick":310903,"endTime":121.44648437499998,"note":58,"startBeat":322.85729166666664,"startTick":309943,"startTime":121.07148437499998,"velocity":68},{"channel":1,"duration":0.1875,"durationBeats":0.5,"durationTicks":480,"endBeat":323.909375,"endTick":310953,"endTime":121.46601562500001,"note":38,"startBeat":323.409375,"startTick":310473,"startTime":121.27851562500001,"velocity":50},{"channel":9,"duration":0.09375,"durationBeats":0.25,"durationTicks":240,"endBeat":323.9114583333333,"endTick":310955,"endTime":121.466796875,"note":35,"startBeat":323.6614583333333,"startTick":310715,"startTime":121.373046875,"velocity":50},{"channel":9,"duration":0.03125,"durationBeats":0.08333333333331439,"durationTicks":80,"endBeat":324.0833333333333,"endTick":311120,"endTime":121.53125,"note":42,"startBeat":324,"startTick":311040,"startTime":121.5,"velocity":50},{"channel":2,"duration":0.1875,"durationBeats":0.5,"durationTicks":480,"endBeat":324.13854166666664,"endTick":311173,"endTime":121.55195312499998,"note":26,"startBeat":323.63854166666664,"startTick":310693,"startTime":121.36445312499998,"velocity":57},{"channel":9,"duration":0.09375,"durationBeats":0.25,"durationTicks":240,"endBeat":324.1822916666667,"endTick":311215,"endTime":121.568359375,"note":35,"startBeat":323.9322916666667,"startTick":310975,"startTime":121.474609375,"velocity":50},{"channel":9,"duration":0.0546875,"durationBeats":0.14583333333331439,"durationTicks":140,"endBeat":324.25,"endTick":311280,"endTime":121.59375,"note":42,"startBeat":324.1041666666667,"startTick":311140,"startTime":121.5390625,"velocity":50},{"channel":9,"duration":0.0234375,"durationBeats":0.0625,"durationTicks":60,"endBeat":324.3125,"endTick":311340,"endTime":121.6171875,"note":42,"startBeat":324.25,"startTick":311280,"startTime":121.59375,"velocity":50},{"channel":0,"duration":0.1875,"durationBeats":0.5,"durationTicks":480,"endBeat":324.35729166666664,"endTick":311383,"endTime":121.63398437499998,"note":43,"startBeat":323.85729166666664,"startTick":310903,"startTime":121.44648437499998,"velocity":68},{"channel":1,"duration":0.1875,"durationBeats":0.5,"durationTicks":480,"endBeat":324.409375,"endTick":311433,"endTime":121.65351562500001,"note":26,"startBeat":323.909375,"startTick":310953,"startTime":121.46601562500001,"velocity":50},{"channel":9,"duration":0.0234375,"durationBeats":0.0625,"durationTicks":60,"endBeat":324.4375,"endTick":311460,"endTime":121.6640625,"note":42,"startBeat":324.375,"startTick":311400,"startTime":121.640625,"velocity":50},{"channel":9,"duration":0.0234375,"durationBeats":0.0625,"durationTicks":60,"endBeat":324.5625,"endTick":311580,"endTime":121.7109375,"note":42,"startBeat":324.5,"startTick":311520,"startTime":121.6875,"velocity":50},{"channel":0,"duration":0.09375,"durationBeats":0.25,"durationTicks":240,"endBeat":324.60729166666664,"endTick":311623,"endTime":121.72773437499998,"note":65,"startBeat":324.35729166666664,"startTick":311383,"startTime":121.63398437499998,"velocity":68},{"channel":2,"duration":0.1875,"durationBeats":0.5,"durationTicks":480,"endBeat":324.63854166666664,"endTick":311653,"endTime":121.73945312499998,"note":33,"startBeat":324.13854166666664,"startTick":311173,"startTime":121.55195312499998,"velocity":57},{"channel":9,"duration":0.0234375,"durationBeats":0.0625,"durationTicks":60,"endBeat":324.6875,"endTick":311700,"endTime":121.7578125,"note":42,"startBeat":324.625,"startTick":311640,"startTime":121.734375,"velocity":50},{"channel":9,"duration":0.0234375,"durationBeats":0.0625,"durationTicks":60,"endBeat":324.8125,"endTick":311820,"endTime":121.8046875,"note":42,"startBeat":324.75,"startTick":311760,"startTime":121.78125,"velocity":50},{"channel":0,"duration":0.1875,"durationBeats":0.5,"durationTicks":480,"endBeat":324.85729166666664,"endTick":311863,"endTime":121.82148437499998,"note":44,"startBeat":324.35729166666664,"startTick":311383,"startTime":121.63398437499998,"velocity":68},{"channel":0,"duration":0.09375,"durationBeats":0.25,"durationTicks":240,"endBeat":324.85729166666664,"endTick":311863,"endTime":121.82148437499998,"note":69,"startBeat":324.60729166666664,"startTick":311623,"startTime":121.72773437499998,"velocity":68},{"channel":1,"duration":0.1875,"durationBeats":0.5,"durationTicks":480,"endBeat":324.909375,"endTick":311913,"endTime":121.84101562500001,"note":33,"startBeat":324.409375,"startTick":311433,"startTime":121.65351562500001,"velocity":50},{"channel":9,"duration":0.09375,"durationBeats":0.25,"durationTicks":240,"endBeat":324.9114583333333,"endTick":311915,"endTime":121.841796875,"note":35,"startBeat":324.6614583333333,"startTick":311675,"startTime":121.748046875,"velocity":50},{"channel":9,"duration":0.09375,"durationBeats":0.25,"durationTicks":240,"endBeat":325.0833333333333,"endTick":312080,"endTime":121.90625,"note":42,"startBeat":324.8333333333333,"startTick":311840,"startTime":121.8125,"velocity":50},{"channel":2,"duration":0.1875,"durationBeats":0.5,"durationTicks":480,"endBeat":325.13854166666664,"endTick":312133,"endTime":121.92695312499998,"note":32,"startBeat":324.63854166666664,"startTick":311653,"startTime":121.73945312499998,"velocity":57},{"channel":9,"duration":0.09375,"durationBeats":0.25,"durationTicks":240,"endBeat":325.1822916666667,"endTick":312175,"endTime":121.943359375,"note":35,"startBeat":324.9322916666667,"startTick":311935,"startTime":121.849609375,"velocity":50},{"channel":9,"duration":0.0390625,"durationBeats":0.10416666666668561,"durationTicks":100,"endBeat":325.3541666666667,"endTick":312340,"endTime":122.0078125,"note":42,"startBeat":325.25,"startTick":312240,"startTime":121.96875,"velocity":50},{"channel":0,"duration":0.1875,"durationBeats":0.5,"durationTicks":480,"endBeat":325.35729166666664,"endTick":312343,"endTime":122.00898437499998,"note":60,"startBeat":324.85729166666664,"startTick":311863,"startTime":121.82148437499998,"velocity":68},{"channel":0,"duration":0.1875,"durationBeats":0.5,"durationTicks":480,"endBeat":325.35729166666664,"endTick":312343,"endTime":122.00898437499998,"note":64,"startBeat":324.85729166666664,"startTick":311863,"startTime":121.82148437499998,"velocity":68},{"channel":0,"duration":0.1875,"durationBeats":0.5,"durationTicks":480,"endBeat":325.35729166666664,"endTick":312343,"endTime":122.00898437499998,"note":67,"startBeat":324.85729166666664,"startTick":311863,"startTime":121.82148437499998,"velocity":68},{"channel":0,"duration":0.1875,"durationBeats":0.5,"durationTicks":480,"endBeat":325.35729166666664,"endTick":312343,"endTime":122.00898437499998,"note":72,"startBeat":324.85729166666664,"startTick":311863,"startTime":121.82148437499998,"velocity":68},{"channel":0,"duration":0.1875,"durationBeats":0.5,"durationTicks":480,"endBeat":325.35729166666664,"endTick":312343,"endTime":122.00898437499998,"note":45,"startBeat":324.85729166666664,"startTick":311863,"startTime":121.82148437499998,"velocity":68},{"channel":1,"duration":0.1875,"durationBeats":0.5,"durationTicks":480,"endBeat":325.409375,"endTick":312393,"endTime":122.02851562500001,"note":32,"startBeat":324.909375,"startTick":311913,"startTime":121.84101562500001,"velocity":50},{"channel":2,"duration":0.1875,"durationBeats":0.5,"durationTicks":480,"endBeat":325.63854166666664,"endTick":312613,"endTime":122.11445312499998,"note":31,"startBeat":325.13854166666664,"startTick":312133,"startTime":121.92695312499998,"velocity":57},{"channel":9,"duration":0.09375,"durationBeats":0.25,"durationTicks":240,"endBeat":325.6614583333333,"endTick":312635,"endTime":122.123046875,"note":35,"startBeat":325.4114583333333,"startTick":312395,"startTime":122.029296875,"velocity":50},{"channel":9,"duration":0.0625,"durationBeats":0.16666666666668561,"durationTicks":160,"endBeat":325.75,"endTick":312720,"endTime":122.15625,"note":42,"startBeat":325.5833333333333,"startTick":312560,"startTime":122.09375,"velocity":50},{"channel":0,"duration":0.09375,"durationBeats":0.25,"durationTicks":240,"endBeat":325.85729166666664,"endTick":312823,"endTime":122.19648437499998,"note":45,"startBeat":325.60729166666664,"startTick":312583,"startTime":122.10273437499998,"velocity":68},{"channel":1,"duration":0.1875,"durationBeats":0.5,"durationTicks":480,"endBeat":325.909375,"endTick":312873,"endTime":122.21601562500001,"note":31,"startBeat":325.409375,"startTick":312393,"startTime":122.02851562500001,"velocity":50},{"channel":9,"duration":0.09375,"durationBeats":0.25,"durationTicks":240,"endBeat":325.9322916666667,"endTick":312895,"endTime":122.224609375,"note":35,"startBeat":325.6822916666667,"startTick":312655,"startTime":122.130859375,"velocity":50},{"channel":9,"duration":0.09375,"durationBeats":0.25,"durationTicks":240,"endBeat":326.1041666666667,"endTick":313060,"endTime":122.2890625,"note":42,"startBeat":325.8541666666667,"startTick":312820,"startTime":122.1953125,"velocity":50},{"channel":0,"duration":0.1875,"durationBeats":0.5,"durationTicks":480,"endBeat":326.10729166666664,"endTick":313063,"endTime":122.29023437499998,"note":70,"startBeat":325.60729166666664,"startTick":312583,"startTime":122.10273437499998,"velocity":68},{"channel":0,"duration":0.1875,"durationBeats":0.5,"durationTicks":480,"endBeat":326.10729166666664,"endTick":313063,"endTime":122.29023437499998,"note":67,"startBeat":325.60729166666664,"startTick":312583,"startTime":122.10273437499998,"velocity":68},{"channel":0,"duration":0.1875,"durationBeats":0.5,"durationTicks":480,"endBeat":326.10729166666664,"endTick":313063,"endTime":122.29023437499998,"note":65,"startBeat":325.60729166666664,"startTick":312583,"startTime":122.10273437499998,"velocity":68},{"channel":0,"duration":0.1875,"durationBeats":0.5,"durationTicks":480,"endBeat":326.10729166666664,"endTick":313063,"endTime":122.29023437499998,"note":61,"startBeat":325.60729166666664,"startTick":312583,"startTime":122.10273437499998,"velocity":68},{"channel":9,"duration":0.09375,"durationBeats":0.25,"durationTicks":240,"endBeat":326.4114583333333,"endTick":313355,"endTime":122.404296875,"note":35,"startBeat":326.1614583333333,"startTick":313115,"startTime":122.310546875,"velocity":50},{"channel":9,"duration":0.09375,"durationBeats":0.25,"durationTicks":240,"endBeat":326.5,"endTick":313440,"endTime":122.4375,"note":42,"startBeat":326.25,"startTick":313200,"startTime":122.34375,"velocity":50},{"channel":2,"duration":0.1875,"durationBeats":0.5,"durationTicks":480,"endBeat":326.63854166666664,"endTick":313573,"endTime":122.48945312499998,"note":31,"startBeat":326.13854166666664,"startTick":313093,"startTime":122.30195312499998,"velocity":57},{"channel":9,"duration":0.0078125,"durationBeats":0.02083333333337123,"durationTicks":20,"endBeat":326.6822916666667,"endTick":313615,"endTime":122.505859375,"note":35,"startBeat":326.6614583333333,"startTick":313595,"startTime":122.498046875,"velocity":50},{"channel":9,"duration":0.09375,"durationBeats":0.25,"durationTicks":240,"endBeat":326.75,"endTick":313680,"endTime":122.53125,"note":42,"startBeat":326.5,"startTick":313440,"startTime":122.4375,"velocity":50},{"channel":0,"duration":0.1875,"durationBeats":0.5,"durationTicks":480,"endBeat":326.85729166666664,"endTick":313783,"endTime":122.57148437499998,"note":69,"startBeat":326.35729166666664,"startTick":313303,"startTime":122.38398437499998,"velocity":68},{"channel":0,"duration":0.1875,"durationBeats":0.5,"durationTicks":480,"endBeat":326.85729166666664,"endTick":313783,"endTime":122.57148437499998,"note":65,"startBeat":326.35729166666664,"startTick":313303,"startTime":122.38398437499998,"velocity":68},{"channel":0,"duration":0.1875,"durationBeats":0.5,"durationTicks":480,"endBeat":326.85729166666664,"endTick":313783,"endTime":122.57148437499998,"note":64,"startBeat":326.35729166666664,"startTick":313303,"startTime":122.38398437499998,"velocity":68},{"channel":0,"duration":0.1875,"durationBeats":0.5,"durationTicks":480,"endBeat":326.85729166666664,"endTick":313783,"endTime":122.57148437499998,"note":60,"startBeat":326.35729166666664,"startTick":313303,"startTime":122.38398437499998,"velocity":68},{"channel":0,"duration":0.1875,"durationBeats":0.5,"durationTicks":480,"endBeat":326.85729166666664,"endTick":313783,"endTime":122.57148437499998,"note":38,"startBeat":326.35729166666664,"startTick":313303,"startTime":122.38398437499998,"velocity":68},{"channel":1,"duration":0.1875,"durationBeats":0.5,"durationTicks":480,"endBeat":326.909375,"endTick":313833,"endTime":122.59101562500001,"note":31,"startBeat":326.409375,"startTick":313353,"startTime":122.40351562500001,"velocity":50},{"channel":9,"duration":0.09375,"durationBeats":0.25,"durationTicks":240,"endBeat":327.0833333333333,"endTick":314000,"endTime":122.65625,"note":42,"startBeat":326.8333333333333,"startTick":313760,"startTime":122.5625,"velocity":50},{"channel":0,"duration":0.09375,"durationBeats":0.25,"durationTicks":240,"endBeat":327.10729166666664,"endTick":314023,"endTime":122.66523437499998,"note":76,"startBeat":326.85729166666664,"startTick":313783,"startTime":122.57148437499998,"velocity":68},{"channel":2,"duration":0.1875,"durationBeats":0.5,"durationTicks":480,"endBeat":327.13854166666664,"endTick":314053,"endTime":122.67695312499998,"note":32,"startBeat":326.63854166666664,"startTick":313573,"startTime":122.48945312499998,"velocity":57},{"channel":9,"duration":0.09375,"durationBeats":0.25,"durationTicks":240,"endBeat":327.1822916666667,"endTick":314095,"endTime":122.693359375,"note":35,"startBeat":326.9322916666667,"startTick":313855,"startTime":122.599609375,"velocity":50},{"channel":9,"duration":0.0390625,"durationBeats":0.10416666666668561,"durationTicks":100,"endBeat":327.3541666666667,"endTick":314260,"endTime":122.7578125,"note":42,"startBeat":327.25,"startTick":314160,"startTime":122.71875,"velocity":50},{"channel":0,"duration":0.1875,"durationBeats":0.5,"durationTicks":480,"endBeat":327.35729166666664,"endTick":314263,"endTime":122.75898437499998,"note":50,"startBeat":326.85729166666664,"startTick":313783,"startTime":122.57148437499998,"velocity":68},{"channel":0,"duration":0.09375,"durationBeats":0.25,"durationTicks":240,"endBeat":327.35729166666664,"endTick":314263,"endTime":122.75898437499998,"note":77,"startBeat":327.10729166666664,"startTick":314023,"startTime":122.66523437499998,"velocity":68},{"channel":1,"duration":0.1875,"durationBeats":0.5,"durationTicks":480,"endBeat":327.409375,"endTick":314313,"endTime":122.77851562500001,"note":32,"startBeat":326.909375,"startTick":313833,"startTime":122.59101562500001,"velocity":50},{"channel":0,"duration":0.09375,"durationBeats":0.25,"durationTicks":240,"endBeat":327.60729166666664,"endTick":314503,"endTime":122.85273437499998,"note":79,"startBeat":327.35729166666664,"startTick":314263,"startTime":122.75898437499998,"velocity":68},{"channel":2,"duration":0.1875,"durationBeats":0.5,"durationTicks":480,"endBeat":327.63854166666664,"endTick":314533,"endTime":122.86445312499998,"note":33,"startBeat":327.13854166666664,"startTick":314053,"startTime":122.67695312499998,"velocity":57},{"channel":0,"duration":0.1875,"durationBeats":0.5,"durationTicks":480,"endBeat":327.85729166666664,"endTick":314743,"endTime":122.94648437499998,"note":38,"startBeat":327.35729166666664,"startTick":314263,"startTime":122.75898437499998,"velocity":68},{"channel":0,"duration":0.09375,"durationBeats":0.25,"durationTicks":240,"endBeat":327.85729166666664,"endTick":314743,"endTime":122.94648437499998,"note":77,"startBeat":327.60729166666664,"startTick":314503,"startTime":122.85273437499998,"velocity":68},{"channel":1,"duration":0.1875,"durationBeats":0.5,"durationTicks":480,"endBeat":327.909375,"endTick":314793,"endTime":122.96601562500001,"note":33,"startBeat":327.409375,"startTick":314313,"startTime":122.77851562500001,"velocity":50},{"channel":9,"duration":0.09375,"durationBeats":0.25,"durationTicks":240,"endBeat":327.9114583333333,"endTick":314795,"endTime":122.966796875,"note":35,"startBeat":327.6614583333333,"startTick":314555,"startTime":122.873046875,"velocity":50},{"channel":9,"duration":0.03125,"durationBeats":0.08333333333331439,"durationTicks":80,"endBeat":328.0833333333333,"endTick":314960,"endTime":123.03125,"note":42,"startBeat":328,"startTick":314880,"startTime":123,"velocity":50},{"channel":0,"duration":0.09375,"durationBeats":0.25,"durationTicks":240,"endBeat":328.10729166666664,"endTick":314983,"endTime":123.04023437499998,"note":76,"startBeat":327.85729166666664,"startTick":314743,"startTime":122.94648437499998,"velocity":68},{"channel":2,"duration":0.09375,"durationBeats":0.25,"durationTicks":240,"endBeat":328.13854166666664,"endTick":315013,"endTime":123.05195312499998,"note":33,"startBeat":327.88854166666664,"startTick":314773,"startTime":122.95820312499998,"velocity":57},{"channel":9,"duration":0.09375,"durationBeats":0.25,"durationTicks":240,"endBeat":328.1822916666667,"endTick":315055,"endTime":123.068359375,"note":35,"startBeat":327.9322916666667,"startTick":314815,"startTime":122.974609375,"velocity":50},{"channel":9,"duration":0.0546875,"durationBeats":0.14583333333331439,"durationTicks":140,"endBeat":328.25,"endTick":315120,"endTime":123.09375,"note":42,"startBeat":328.1041666666667,"startTick":314980,"startTime":123.0390625,"velocity":50},{"channel":9,"duration":0.0234375,"durationBeats":0.0625,"durationTicks":60,"endBeat":328.3125,"endTick":315180,"endTime":123.1171875,"note":42,"startBeat":328.25,"startTick":315120,"startTime":123.09375,"velocity":50},{"channel":0,"duration":0.1875,"durationBeats":0.5,"durationTicks":480,"endBeat":328.35729166666664,"endTick":315223,"endTime":123.13398437499998,"note":45,"startBeat":327.85729166666664,"startTick":314743,"startTime":122.94648437499998,"velocity":68},{"channel":0,"duration":0.09375,"durationBeats":0.25,"durationTicks":240,"endBeat":328.35729166666664,"endTick":315223,"endTime":123.13398437499998,"note":72,"startBeat":328.10729166666664,"startTick":314983,"startTime":123.04023437499998,"velocity":68},{"channel":1,"duration":0.09375,"durationBeats":0.25,"durationTicks":240,"endBeat":328.409375,"endTick":315273,"endTime":123.15351562500001,"note":33,"startBeat":328.159375,"startTick":315033,"startTime":123.05976562500001,"velocity":50},{"channel":9,"duration":0.0234375,"durationBeats":0.0625,"durationTicks":60,"endBeat":328.4375,"endTick":315300,"endTime":123.1640625,"note":42,"startBeat":328.375,"startTick":315240,"startTime":123.140625,"velocity":50},{"channel":9,"duration":0.0234375,"durationBeats":0.0625,"durationTicks":60,"endBeat":328.5625,"endTick":315420,"endTime":123.2109375,"note":42,"startBeat":328.5,"startTick":315360,"startTime":123.1875,"velocity":50},{"channel":0,"duration":0.09375,"durationBeats":0.25,"durationTicks":240,"endBeat":328.60729166666664,"endTick":315463,"endTime":123.22773437499998,"note":69,"startBeat":328.35729166666664,"startTick":315223,"startTime":123.13398437499998,"velocity":68},{"channel":9,"duration":0.0234375,"durationBeats":0.0625,"durationTicks":60,"endBeat":328.6875,"endTick":315540,"endTime":123.2578125,"note":42,"startBeat":328.625,"startTick":315480,"startTime":123.234375,"velocity":50},{"channel":9,"duration":0.0234375,"durationBeats":0.0625,"durationTicks":60,"endBeat":328.8125,"endTick":315660,"endTime":123.3046875,"note":42,"startBeat":328.75,"startTick":315600,"startTime":123.28125,"velocity":50},{"channel":0,"duration":0.1875,"durationBeats":0.5,"durationTicks":480,"endBeat":328.85729166666664,"endTick":315703,"endTime":123.32148437499998,"note":38,"startBeat":328.35729166666664,"startTick":315223,"startTime":123.13398437499998,"velocity":68},{"channel":0,"duration":0.09375,"durationBeats":0.25,"durationTicks":240,"endBeat":328.85729166666664,"endTick":315703,"endTime":123.32148437499998,"note":67,"startBeat":328.60729166666664,"startTick":315463,"startTime":123.22773437499998,"velocity":68},{"channel":9,"duration":0.09375,"durationBeats":0.25,"durationTicks":240,"endBeat":328.9114583333333,"endTick":315755,"endTime":123.341796875,"note":35,"startBeat":328.6614583333333,"startTick":315515,"startTime":123.248046875,"velocity":50},{"channel":9,"duration":0.09375,"durationBeats":0.25,"durationTicks":240,"endBeat":329.0833333333333,"endTick":315920,"endTime":123.40625,"note":42,"startBeat":328.8333333333333,"startTick":315680,"startTime":123.3125,"velocity":50},{"channel":0,"duration":0.09375,"durationBeats":0.25,"durationTicks":240,"endBeat":329.10729166666664,"endTick":315943,"endTime":123.41523437499998,"note":69,"startBeat":328.85729166666664,"startTick":315703,"startTime":123.32148437499998,"velocity":68},{"channel":2,"duration":0.1875,"durationBeats":0.5,"durationTicks":480,"endBeat":329.13854166666664,"endTick":315973,"endTime":123.42695312499998,"note":26,"startBeat":328.63854166666664,"startTick":315493,"startTime":123.23945312499998,"velocity":57},{"channel":9,"duration":0.09375,"durationBeats":0.25,"durationTicks":240,"endBeat":329.1822916666667,"endTick":316015,"endTime":123.443359375,"note":35,"startBeat":328.9322916666667,"startTick":315775,"startTime":123.349609375,"velocity":50},{"channel":9,"duration":0.0390625,"durationBeats":0.10416666666668561,"durationTicks":100,"endBeat":329.3541666666667,"endTick":316180,"endTime":123.5078125,"note":42,"startBeat":329.25,"startTick":316080,"startTime":123.46875,"velocity":50},{"channel":0,"duration":0.1875,"durationBeats":0.5,"durationTicks":480,"endBeat":329.35729166666664,"endTick":316183,"endTime":123.50898437499998,"note":50,"startBeat":328.85729166666664,"startTick":315703,"startTime":123.32148437499998,"velocity":68},{"channel":0,"duration":0.09375,"durationBeats":0.25,"durationTicks":240,"endBeat":329.35729166666664,"endTick":316183,"endTime":123.50898437499998,"note":62,"startBeat":329.10729166666664,"startTick":315943,"startTime":123.41523437499998,"velocity":68},{"channel":1,"duration":0.1875,"durationBeats":0.5,"durationTicks":480,"endBeat":329.409375,"endTick":316233,"endTime":123.52851562500001,"note":26,"startBeat":328.909375,"startTick":315753,"startTime":123.34101562500001,"velocity":50},{"channel":0,"duration":0.09375,"durationBeats":0.25,"durationTicks":240,"endBeat":329.60729166666664,"endTick":316423,"endTime":123.60273437499998,"note":60,"startBeat":329.35729166666664,"startTick":316183,"startTime":123.50898437499998,"velocity":68},{"channel":9,"duration":0.09375,"durationBeats":0.25,"durationTicks":240,"endBeat":329.6614583333333,"endTick":316475,"endTime":123.623046875,"note":35,"startBeat":329.4114583333333,"startTick":316235,"startTime":123.529296875,"velocity":50},{"channel":9,"duration":0.0625,"durationBeats":0.16666666666668561,"durationTicks":160,"endBeat":329.75,"endTick":316560,"endTime":123.65625,"note":42,"startBeat":329.5833333333333,"startTick":316400,"startTime":123.59375,"velocity":50},{"channel":0,"duration":0.1875,"durationBeats":0.5,"durationTicks":480,"endBeat":329.85729166666664,"endTick":316663,"endTime":123.69648437499998,"note":38,"startBeat":329.35729166666664,"startTick":316183,"startTime":123.50898437499998,"velocity":68},{"channel":0,"duration":0.09375,"durationBeats":0.25,"durationTicks":240,"endBeat":329.85729166666664,"endTick":316663,"endTime":123.69648437499998,"note":65,"startBeat":329.60729166666664,"startTick":316423,"startTime":123.60273437499998,"velocity":68},{"channel":9,"duration":0.09375,"durationBeats":0.25,"durationTicks":240,"endBeat":329.9322916666667,"endTick":316735,"endTime":123.724609375,"note":35,"startBeat":329.6822916666667,"startTick":316495,"startTime":123.630859375,"velocity":50},{"channel":9,"duration":0.09375,"durationBeats":0.25,"durationTicks":240,"endBeat":330.1041666666667,"endTick":316900,"endTime":123.7890625,"note":42,"startBeat":329.8541666666667,"startTick":316660,"startTime":123.6953125,"velocity":50},{"channel":2,"duration":0.1875,"durationBeats":0.5,"durationTicks":480,"endBeat":330.13854166666664,"endTick":316933,"endTime":123.80195312499998,"note":38,"startBeat":329.63854166666664,"startTick":316453,"startTime":123.61445312499998,"velocity":57},{"channel":0,"duration":0.1875,"durationBeats":0.5,"durationTicks":480,"endBeat":330.35729166666664,"endTick":317143,"endTime":123.88398437499998,"note":69,"startBeat":329.85729166666664,"startTick":316663,"startTime":123.69648437499998,"velocity":68},{"channel":0,"duration":0.1875,"durationBeats":0.5,"durationTicks":480,"endBeat":330.35729166666664,"endTick":317143,"endTime":123.88398437499998,"note":60,"startBeat":329.85729166666664,"startTick":316663,"startTime":123.69648437499998,"velocity":68},{"channel":0,"duration":0.1875,"durationBeats":0.5,"durationTicks":480,"endBeat":330.35729166666664,"endTick":317143,"endTime":123.88398437499998,"note":64,"startBeat":329.85729166666664,"startTick":316663,"startTime":123.69648437499998,"velocity":68},{"channel":0,"duration":0.1875,"durationBeats":0.5,"durationTicks":480,"endBeat":330.35729166666664,"endTick":317143,"endTime":123.88398437499998,"note":45,"startBeat":329.85729166666664,"startTick":316663,"startTime":123.69648437499998,"velocity":68},{"channel":1,"duration":0.1875,"durationBeats":0.5,"durationTicks":480,"endBeat":330.409375,"endTick":317193,"endTime":123.90351562500001,"note":38,"startBeat":329.909375,"startTick":316713,"startTime":123.71601562500001,"velocity":50},{"channel":9,"duration":0.09375,"durationBeats":0.25,"durationTicks":240,"endBeat":330.4114583333333,"endTick":317195,"endTime":123.904296875,"note":35,"startBeat":330.1614583333333,"startTick":316955,"startTime":123.810546875,"velocity":50},{"channel":9,"duration":0.09375,"durationBeats":0.25,"durationTicks":240,"endBeat":330.5,"endTick":317280,"endTime":123.9375,"note":42,"startBeat":330.25,"startTick":317040,"startTime":123.84375,"velocity":50},{"channel":2,"duration":0.1875,"durationBeats":0.5,"durationTicks":480,"endBeat":330.63854166666664,"endTick":317413,"endTime":123.98945312499998,"note":26,"startBeat":330.13854166666664,"startTick":316933,"startTime":123.80195312499998,"velocity":57},{"channel":9,"duration":0.0078125,"durationBeats":0.02083333333337123,"durationTicks":20,"endBeat":330.6822916666667,"endTick":317455,"endTime":124.005859375,"note":35,"startBeat":330.6614583333333,"startTick":317435,"startTime":123.998046875,"velocity":50},{"channel":9,"duration":0.09375,"durationBeats":0.25,"durationTicks":240,"endBeat":330.75,"endTick":317520,"endTime":124.03125,"note":42,"startBeat":330.5,"startTick":317280,"startTime":123.9375,"velocity":50},{"channel":0,"duration":0.1875,"durationBeats":0.5,"durationTicks":480,"endBeat":330.85729166666664,"endTick":317623,"endTime":124.07148437499998,"note":44,"startBeat":330.35729166666664,"startTick":317143,"startTime":123.88398437499998,"velocity":68},{"channel":0,"duration":0.1875,"durationBeats":0.5,"durationTicks":480,"endBeat":330.85729166666664,"endTick":317623,"endTime":124.07148437499998,"note":68,"startBeat":330.35729166666664,"startTick":317143,"startTime":123.88398437499998,"velocity":68},{"channel":0,"duration":0.1875,"durationBeats":0.5,"durationTicks":480,"endBeat":330.85729166666664,"endTick":317623,"endTime":124.07148437499998,"note":63,"startBeat":330.35729166666664,"startTick":317143,"startTime":123.88398437499998,"velocity":68},{"channel":0,"duration":0.1875,"durationBeats":0.5,"durationTicks":480,"endBeat":330.85729166666664,"endTick":317623,"endTime":124.07148437499998,"note":59,"startBeat":330.35729166666664,"startTick":317143,"startTime":123.88398437499998,"velocity":68},{"channel":1,"duration":0.1875,"durationBeats":0.5,"durationTicks":480,"endBeat":330.909375,"endTick":317673,"endTime":124.09101562500001,"note":26,"startBeat":330.409375,"startTick":317193,"startTime":123.90351562500001,"velocity":50},{"channel":9,"duration":0.09375,"durationBeats":0.25,"durationTicks":240,"endBeat":331.0833333333333,"endTick":317840,"endTime":124.15625,"note":42,"startBeat":330.8333333333333,"startTick":317600,"startTime":124.0625,"velocity":50},{"channel":2,"duration":0.1875,"durationBeats":0.5,"durationTicks":480,"endBeat":331.13854166666664,"endTick":317893,"endTime":124.17695312499998,"note":33,"startBeat":330.63854166666664,"startTick":317413,"startTime":123.98945312499998,"velocity":57},{"channel":9,"duration":0.09375,"durationBeats":0.25,"durationTicks":240,"endBeat":331.1822916666667,"endTick":317935,"endTime":124.193359375,"note":35,"startBeat":330.9322916666667,"startTick":317695,"startTime":124.099609375,"velocity":50},{"channel":9,"duration":0.03125,"durationBeats":0.08333333333331439,"durationTicks":80,"endBeat":331.3333333333333,"endTick":318080,"endTime":124.25,"note":42,"startBeat":331.25,"startTick":318000,"startTime":124.21875,"velocity":50},{"channel":0,"duration":0.1875,"durationBeats":0.5,"durationTicks":480,"endBeat":331.35729166666664,"endTick":318103,"endTime":124.25898437499998,"note":43,"startBeat":330.85729166666664,"startTick":317623,"startTime":124.07148437499998,"velocity":68},{"channel":1,"duration":0.1875,"durationBeats":0.5,"durationTicks":480,"endBeat":331.409375,"endTick":318153,"endTime":124.27851562500001,"note":33,"startBeat":330.909375,"startTick":317673,"startTime":124.09101562500001,"velocity":50},{"channel":0,"duration":0.375,"durationBeats":1,"durationTicks":960,"endBeat":331.85729166666664,"endTick":318583,"endTime":124.44648437499998,"note":69,"startBeat":330.85729166666664,"startTick":317623,"startTime":124.07148437499998,"velocity":68},{"channel":0,"duration":0.375,"durationBeats":1,"durationTicks":960,"endBeat":331.85729166666664,"endTick":318583,"endTime":124.44648437499998,"note":65,"startBeat":330.85729166666664,"startTick":317623,"startTime":124.07148437499998,"velocity":68},{"channel":0,"duration":0.375,"durationBeats":1,"durationTicks":960,"endBeat":331.85729166666664,"endTick":318583,"endTime":124.44648437499998,"note":62,"startBeat":330.85729166666664,"startTick":317623,"startTime":124.07148437499998,"velocity":68},{"channel":0,"duration":0.375,"durationBeats":1,"durationTicks":960,"endBeat":331.85729166666664,"endTick":318583,"endTime":124.44648437499998,"note":58,"startBeat":330.85729166666664,"startTick":317623,"startTime":124.07148437499998,"velocity":68},{"channel":0,"duration":0.1875,"durationBeats":0.5,"durationTicks":480,"endBeat":331.85729166666664,"endTick":318583,"endTime":124.44648437499998,"note":50,"startBeat":331.35729166666664,"startTick":318103,"startTime":124.25898437499998,"velocity":68},{"channel":9,"duration":0.09375,"durationBeats":0.25,"durationTicks":240,"endBeat":331.9114583333333,"endTick":318635,"endTime":124.466796875,"note":35,"startBeat":331.6614583333333,"startTick":318395,"startTime":124.373046875,"velocity":50},{"channel":9,"duration":0.03125,"durationBeats":0.08333333333331439,"durationTicks":80,"endBeat":332.0833333333333,"endTick":318800,"endTime":124.53125,"note":42,"startBeat":332,"startTick":318720,"startTime":124.5,"velocity":50},{"channel":2,"duration":0.1875,"durationBeats":0.5,"durationTicks":480,"endBeat":332.13854166666664,"endTick":318853,"endTime":124.55195312499998,"note":26,"startBeat":331.63854166666664,"startTick":318373,"startTime":124.36445312499998,"velocity":57},{"channel":9,"duration":0.09375,"durationBeats":0.25,"durationTicks":240,"endBeat":332.1822916666667,"endTick":318895,"endTime":124.568359375,"note":35,"startBeat":331.9322916666667,"startTick":318655,"startTime":124.474609375,"velocity":50},{"channel":9,"duration":0.0625,"durationBeats":0.16666666666668561,"durationTicks":160,"endBeat":332.25,"endTick":318960,"endTime":124.59375,"note":42,"startBeat":332.0833333333333,"startTick":318800,"startTime":124.53125,"velocity":50},{"channel":9,"duration":0.0234375,"durationBeats":0.0625,"durationTicks":60,"endBeat":332.3125,"endTick":319020,"endTime":124.6171875,"note":42,"startBeat":332.25,"startTick":318960,"startTime":124.59375,"velocity":50},{"channel":0,"duration":0.1875,"durationBeats":0.5,"durationTicks":480,"endBeat":332.35729166666664,"endTick":319063,"endTime":124.63398437499998,"note":43,"startBeat":331.85729166666664,"startTick":318583,"startTime":124.44648437499998,"velocity":68},{"channel":1,"duration":0.1875,"durationBeats":0.5,"durationTicks":480,"endBeat":332.409375,"endTick":319113,"endTime":124.65351562500001,"note":26,"startBeat":331.909375,"startTick":318633,"startTime":124.46601562500001,"velocity":50},{"channel":9,"duration":0.0234375,"durationBeats":0.0625,"durationTicks":60,"endBeat":332.4375,"endTick":319140,"endTime":124.6640625,"note":42,"startBeat":332.375,"startTick":319080,"startTime":124.640625,"velocity":50},{"channel":9,"duration":0.0234375,"durationBeats":0.0625,"durationTicks":60,"endBeat":332.5625,"endTick":319260,"endTime":124.7109375,"note":42,"startBeat":332.5,"startTick":319200,"startTime":124.6875,"velocity":50},{"channel":0,"duration":0.09375,"durationBeats":0.25,"durationTicks":240,"endBeat":332.60729166666664,"endTick":319303,"endTime":124.72773437499998,"note":65,"startBeat":332.35729166666664,"startTick":319063,"startTime":124.63398437499998,"velocity":68},{"channel":2,"duration":0.1875,"durationBeats":0.5,"durationTicks":480,"endBeat":332.63854166666664,"endTick":319333,"endTime":124.73945312499998,"note":33,"startBeat":332.13854166666664,"startTick":318853,"startTime":124.55195312499998,"velocity":57},{"channel":9,"duration":0.0234375,"durationBeats":0.0625,"durationTicks":60,"endBeat":332.6875,"endTick":319380,"endTime":124.7578125,"note":42,"startBeat":332.625,"startTick":319320,"startTime":124.734375,"velocity":50},{"channel":9,"duration":0.0234375,"durationBeats":0.0625,"durationTicks":60,"endBeat":332.8125,"endTick":319500,"endTime":124.8046875,"note":42,"startBeat":332.75,"startTick":319440,"startTime":124.78125,"velocity":50},{"channel":0,"duration":0.1875,"durationBeats":0.5,"durationTicks":480,"endBeat":332.85729166666664,"endTick":319543,"endTime":124.82148437499998,"note":44,"startBeat":332.35729166666664,"startTick":319063,"startTime":124.63398437499998,"velocity":68},{"channel":0,"duration":0.09375,"durationBeats":0.25,"durationTicks":240,"endBeat":332.85729166666664,"endTick":319543,"endTime":124.82148437499998,"note":69,"startBeat":332.60729166666664,"startTick":319303,"startTime":124.72773437499998,"velocity":68},{"channel":1,"duration":0.1875,"durationBeats":0.5,"durationTicks":480,"endBeat":332.909375,"endTick":319593,"endTime":124.84101562500001,"note":33,"startBeat":332.409375,"startTick":319113,"startTime":124.65351562500001,"velocity":50},{"channel":9,"duration":0.09375,"durationBeats":0.25,"durationTicks":240,"endBeat":332.9114583333333,"endTick":319595,"endTime":124.841796875,"note":35,"startBeat":332.6614583333333,"startTick":319355,"startTime":124.748046875,"velocity":50},{"channel":9,"duration":0.09375,"durationBeats":0.25,"durationTicks":240,"endBeat":333.0833333333333,"endTick":319760,"endTime":124.90625,"note":42,"startBeat":332.8333333333333,"startTick":319520,"startTime":124.8125,"velocity":50},{"channel":2,"duration":0.1875,"durationBeats":0.5,"durationTicks":480,"endBeat":333.13854166666664,"endTick":319813,"endTime":124.92695312499998,"note":32,"startBeat":332.63854166666664,"startTick":319333,"startTime":124.73945312499998,"velocity":57},{"channel":9,"duration":0.09375,"durationBeats":0.25,"durationTicks":240,"endBeat":333.1822916666667,"endTick":319855,"endTime":124.943359375,"note":35,"startBeat":332.9322916666667,"startTick":319615,"startTime":124.849609375,"velocity":50},{"channel":0,"duration":0.1875,"durationBeats":0.5,"durationTicks":480,"endBeat":333.35729166666664,"endTick":320023,"endTime":125.00898437499998,"note":60,"startBeat":332.85729166666664,"startTick":319543,"startTime":124.82148437499998,"velocity":68},{"channel":0,"duration":0.1875,"durationBeats":0.5,"durationTicks":480,"endBeat":333.35729166666664,"endTick":320023,"endTime":125.00898437499998,"note":64,"startBeat":332.85729166666664,"startTick":319543,"startTime":124.82148437499998,"velocity":68},{"channel":0,"duration":0.1875,"durationBeats":0.5,"durationTicks":480,"endBeat":333.35729166666664,"endTick":320023,"endTime":125.00898437499998,"note":67,"startBeat":332.85729166666664,"startTick":319543,"startTime":124.82148437499998,"velocity":68},{"channel":0,"duration":0.1875,"durationBeats":0.5,"durationTicks":480,"endBeat":333.35729166666664,"endTick":320023,"endTime":125.00898437499998,"note":72,"startBeat":332.85729166666664,"startTick":319543,"startTime":124.82148437499998,"velocity":68},{"channel":0,"duration":0.1875,"durationBeats":0.5,"durationTicks":480,"endBeat":333.35729166666664,"endTick":320023,"endTime":125.00898437499998,"note":45,"startBeat":332.85729166666664,"startTick":319543,"startTime":124.82148437499998,"velocity":68},{"channel":1,"duration":0.1875,"durationBeats":0.5,"durationTicks":480,"endBeat":333.409375,"endTick":320073,"endTime":125.02851562500001,"note":32,"startBeat":332.909375,"startTick":319593,"startTime":124.84101562500001,"velocity":50},{"channel":9,"duration":0.09375,"durationBeats":0.25,"durationTicks":240,"endBeat":333.5,"endTick":320160,"endTime":125.0625,"note":42,"startBeat":333.25,"startTick":319920,"startTime":124.96875,"velocity":50},{"channel":2,"duration":0.1875,"durationBeats":0.5,"durationTicks":480,"endBeat":333.63854166666664,"endTick":320293,"endTime":125.11445312499998,"note":31,"startBeat":333.13854166666664,"startTick":319813,"startTime":124.92695312499998,"velocity":57},{"channel":9,"duration":0.09375,"durationBeats":0.25,"durationTicks":240,"endBeat":333.6614583333333,"endTick":320315,"endTime":125.123046875,"note":35,"startBeat":333.4114583333333,"startTick":320075,"startTime":125.029296875,"velocity":50},{"channel":9,"duration":0.09375,"durationBeats":0.25,"durationTicks":240,"endBeat":333.8333333333333,"endTick":320480,"endTime":125.1875,"note":42,"startBeat":333.5833333333333,"startTick":320240,"startTime":125.09375,"velocity":50},{"channel":0,"duration":0.09375,"durationBeats":0.25,"durationTicks":240,"endBeat":333.85729166666664,"endTick":320503,"endTime":125.19648437499998,"note":45,"startBeat":333.60729166666664,"startTick":320263,"startTime":125.10273437499998,"velocity":68},{"channel":9,"duration":0.0234375,"durationBeats":0.0625,"durationTicks":60,"endBeat":333.8958333333333,"endTick":320540,"endTime":125.2109375,"note":42,"startBeat":333.8333333333333,"startTick":320480,"startTime":125.1875,"velocity":50},{"channel":1,"duration":0.1875,"durationBeats":0.5,"durationTicks":480,"endBeat":333.909375,"endTick":320553,"endTime":125.21601562500001,"note":31,"startBeat":333.409375,"startTick":320073,"startTime":125.02851562500001,"velocity":50},{"channel":9,"duration":0.09375,"durationBeats":0.25,"durationTicks":240,"endBeat":333.9322916666667,"endTick":320575,"endTime":125.224609375,"note":35,"startBeat":333.6822916666667,"startTick":320335,"startTime":125.130859375,"velocity":50},{"channel":9,"duration":0.0234375,"durationBeats":0.0625,"durationTicks":60,"endBeat":334.0208333333333,"endTick":320660,"endTime":125.2578125,"note":42,"startBeat":333.9583333333333,"startTick":320600,"startTime":125.234375,"velocity":50},{"channel":0,"duration":0.1875,"durationBeats":0.5,"durationTicks":480,"endBeat":334.10729166666664,"endTick":320743,"endTime":125.29023437499998,"note":70,"startBeat":333.60729166666664,"startTick":320263,"startTime":125.10273437499998,"velocity":68},{"channel":0,"duration":0.1875,"durationBeats":0.5,"durationTicks":480,"endBeat":334.10729166666664,"endTick":320743,"endTime":125.29023437499998,"note":67,"startBeat":333.60729166666664,"startTick":320263,"startTime":125.10273437499998,"velocity":68},{"channel":0,"duration":0.1875,"durationBeats":0.5,"durationTicks":480,"endBeat":334.10729166666664,"endTick":320743,"endTime":125.29023437499998,"note":65,"startBeat":333.60729166666664,"startTick":320263,"startTime":125.10273437499998,"velocity":68},{"channel":0,"duration":0.1875,"durationBeats":0.5,"durationTicks":480,"endBeat":334.10729166666664,"endTick":320743,"endTime":125.29023437499998,"note":61,"startBeat":333.60729166666664,"startTick":320263,"startTime":125.10273437499998,"velocity":68},{"channel":9,"duration":0.0234375,"durationBeats":0.0625,"durationTicks":60,"endBeat":334.1458333333333,"endTick":320780,"endTime":125.3046875,"note":42,"startBeat":334.0833333333333,"startTick":320720,"startTime":125.28125,"velocity":50},{"channel":9,"duration":0.0078125,"durationBeats":0.020833333333314386,"durationTicks":20,"endBeat":334.2708333333333,"endTick":320900,"endTime":125.3515625,"note":42,"startBeat":334.25,"startTick":320880,"startTime":125.34375,"velocity":50},{"channel":9,"duration":0.0234375,"durationBeats":0.0625,"durationTicks":60,"endBeat":334.3958333333333,"endTick":321020,"endTime":125.3984375,"note":42,"startBeat":334.3333333333333,"startTick":320960,"startTime":125.375,"velocity":50},{"channel":9,"duration":0.09375,"durationBeats":0.25,"durationTicks":240,"endBeat":334.4114583333333,"endTick":321035,"endTime":125.404296875,"note":35,"startBeat":334.1614583333333,"startTick":320795,"startTime":125.310546875,"velocity":50},{"channel":2,"duration":0.1875,"durationBeats":0.5,"durationTicks":480,"endBeat":334.63854166666664,"endTick":321253,"endTime":125.48945312499998,"note":31,"startBeat":334.13854166666664,"startTick":320773,"startTime":125.30195312499998,"velocity":57},{"channel":9,"duration":0.0078125,"durationBeats":0.02083333333337123,"durationTicks":20,"endBeat":334.6822916666667,"endTick":321295,"endTime":125.505859375,"note":35,"startBeat":334.6614583333333,"startTick":321275,"startTime":125.498046875,"velocity":50},{"channel":9,"duration":0.09375,"durationBeats":0.25,"durationTicks":240,"endBeat":334.75,"endTick":321360,"endTime":125.53125,"note":42,"startBeat":334.5,"startTick":321120,"startTime":125.4375,"velocity":50},{"channel":0,"duration":0.1875,"durationBeats":0.5,"durationTicks":480,"endBeat":334.85729166666664,"endTick":321463,"endTime":125.57148437499998,"note":69,"startBeat":334.35729166666664,"startTick":320983,"startTime":125.38398437499998,"velocity":68},{"channel":0,"duration":0.1875,"durationBeats":0.5,"durationTicks":480,"endBeat":334.85729166666664,"endTick":321463,"endTime":125.57148437499998,"note":65,"startBeat":334.35729166666664,"startTick":320983,"startTime":125.38398437499998,"velocity":68},{"channel":0,"duration":0.1875,"durationBeats":0.5,"durationTicks":480,"endBeat":334.85729166666664,"endTick":321463,"endTime":125.57148437499998,"note":64,"startBeat":334.35729166666664,"startTick":320983,"startTime":125.38398437499998,"velocity":68},{"channel":0,"duration":0.1875,"durationBeats":0.5,"durationTicks":480,"endBeat":334.85729166666664,"endTick":321463,"endTime":125.57148437499998,"note":60,"startBeat":334.35729166666664,"startTick":320983,"startTime":125.38398437499998,"velocity":68},{"channel":0,"duration":0.1875,"durationBeats":0.5,"durationTicks":480,"endBeat":334.85729166666664,"endTick":321463,"endTime":125.57148437499998,"note":38,"startBeat":334.35729166666664,"startTick":320983,"startTime":125.38398437499998,"velocity":68},{"channel":1,"duration":0.1875,"durationBeats":0.5,"durationTicks":480,"endBeat":334.909375,"endTick":321513,"endTime":125.59101562500001,"note":31,"startBeat":334.409375,"startTick":321033,"startTime":125.40351562500001,"velocity":50},{"channel":9,"duration":0.09375,"durationBeats":0.25,"durationTicks":240,"endBeat":335.0833333333333,"endTick":321680,"endTime":125.65625,"note":42,"startBeat":334.8333333333333,"startTick":321440,"startTime":125.5625,"velocity":50},{"channel":0,"duration":0.09375,"durationBeats":0.25,"durationTicks":240,"endBeat":335.10729166666664,"endTick":321703,"endTime":125.66523437499998,"note":76,"startBeat":334.85729166666664,"startTick":321463,"startTime":125.57148437499998,"velocity":68},{"channel":2,"duration":0.1875,"durationBeats":0.5,"durationTicks":480,"endBeat":335.13854166666664,"endTick":321733,"endTime":125.67695312499998,"note":32,"startBeat":334.63854166666664,"startTick":321253,"startTime":125.48945312499998,"velocity":57},{"channel":9,"duration":0.09375,"durationBeats":0.25,"durationTicks":240,"endBeat":335.1822916666667,"endTick":321775,"endTime":125.693359375,"note":35,"startBeat":334.9322916666667,"startTick":321535,"startTime":125.599609375,"velocity":50},{"channel":9,"duration":0.03125,"durationBeats":0.08333333333331439,"durationTicks":80,"endBeat":335.3333333333333,"endTick":321920,"endTime":125.75,"note":42,"startBeat":335.25,"startTick":321840,"startTime":125.71875,"velocity":50},{"channel":0,"duration":0.09375,"durationBeats":0.25,"durationTicks":240,"endBeat":335.35729166666664,"endTick":321943,"endTime":125.75898437499998,"note":77,"startBeat":335.10729166666664,"startTick":321703,"startTime":125.66523437499998,"velocity":68},{"channel":1,"duration":0.1875,"durationBeats":0.5,"durationTicks":480,"endBeat":335.409375,"endTick":321993,"endTime":125.77851562500001,"note":32,"startBeat":334.909375,"startTick":321513,"startTime":125.59101562500001,"velocity":50},{"channel":0,"duration":0.09375,"durationBeats":0.25,"durationTicks":240,"endBeat":335.60729166666664,"endTick":322183,"endTime":125.85273437499998,"note":76,"startBeat":335.35729166666664,"startTick":321943,"startTime":125.75898437499998,"velocity":68},{"channel":2,"duration":0.1875,"durationBeats":0.5,"durationTicks":480,"endBeat":335.63854166666664,"endTick":322213,"endTime":125.86445312499998,"note":33,"startBeat":335.13854166666664,"startTick":321733,"startTime":125.67695312499998,"velocity":57},{"channel":0,"duration":0.1875,"durationBeats":0.5,"durationTicks":480,"endBeat":335.85729166666664,"endTick":322423,"endTime":125.94648437499998,"note":50,"startBeat":335.35729166666664,"startTick":321943,"startTime":125.75898437499998,"velocity":68},{"channel":0,"duration":0.09375,"durationBeats":0.25,"durationTicks":240,"endBeat":335.85729166666664,"endTick":322423,"endTime":125.94648437499998,"note":72,"startBeat":335.60729166666664,"startTick":322183,"startTime":125.85273437499998,"velocity":68},{"channel":1,"duration":0.1875,"durationBeats":0.5,"durationTicks":480,"endBeat":335.909375,"endTick":322473,"endTime":125.96601562500001,"note":33,"startBeat":335.409375,"startTick":321993,"startTime":125.77851562500001,"velocity":50},{"channel":9,"duration":0.09375,"durationBeats":0.25,"durationTicks":240,"endBeat":335.9114583333333,"endTick":322475,"endTime":125.966796875,"note":35,"startBeat":335.6614583333333,"startTick":322235,"startTime":125.873046875,"velocity":50},{"channel":9,"duration":0.03125,"durationBeats":0.08333333333331439,"durationTicks":80,"endBeat":336.0833333333333,"endTick":322640,"endTime":126.03125,"note":42,"startBeat":336,"startTick":322560,"startTime":126,"velocity":50},{"channel":0,"duration":0.09375,"durationBeats":0.25,"durationTicks":240,"endBeat":336.10729166666664,"endTick":322663,"endTime":126.04023437499998,"note":76,"startBeat":335.85729166666664,"startTick":322423,"startTime":125.94648437499998,"velocity":68},{"channel":2,"duration":0.09375,"durationBeats":0.25,"durationTicks":240,"endBeat":336.13854166666664,"endTick":322693,"endTime":126.05195312499998,"note":33,"startBeat":335.88854166666664,"startTick":322453,"startTime":125.95820312499998,"velocity":57},{"channel":9,"duration":0.09375,"durationBeats":0.25,"durationTicks":240,"endBeat":336.1822916666667,"endTick":322735,"endTime":126.068359375,"note":35,"startBeat":335.9322916666667,"startTick":322495,"startTime":125.974609375,"velocity":50},{"channel":9,"duration":0.0625,"durationBeats":0.16666666666668561,"durationTicks":160,"endBeat":336.25,"endTick":322800,"endTime":126.09375,"note":42,"startBeat":336.0833333333333,"startTick":322640,"startTime":126.03125,"velocity":50},{"channel":9,"duration":0.0234375,"durationBeats":0.0625,"durationTicks":60,"endBeat":336.3125,"endTick":322860,"endTime":126.1171875,"note":42,"startBeat":336.25,"startTick":322800,"startTime":126.09375,"velocity":50},{"channel":0,"duration":0.1875,"durationBeats":0.5,"durationTicks":480,"endBeat":336.35729166666664,"endTick":322903,"endTime":126.13398437499998,"note":38,"startBeat":335.85729166666664,"startTick":322423,"startTime":125.94648437499998,"velocity":68},{"channel":0,"duration":0.09375,"durationBeats":0.25,"durationTicks":240,"endBeat":336.35729166666664,"endTick":322903,"endTime":126.13398437499998,"note":72,"startBeat":336.10729166666664,"startTick":322663,"startTime":126.04023437499998,"velocity":68},{"channel":1,"duration":0.09375,"durationBeats":0.25,"durationTicks":240,"endBeat":336.409375,"endTick":322953,"endTime":126.15351562500001,"note":33,"startBeat":336.159375,"startTick":322713,"startTime":126.05976562500001,"velocity":50},{"channel":9,"duration":0.001953125,"durationBeats":0.0052083333333143855,"durationTicks":5,"endBeat":336.4375,"endTick":322980,"endTime":126.1640625,"note":42,"startBeat":336.4322916666667,"startTick":322975,"startTime":126.162109375,"velocity":50},{"channel":9,"duration":0.0234375,"durationBeats":0.0625,"durationTicks":60,"endBeat":336.5625,"endTick":323100,"endTime":126.2109375,"note":42,"startBeat":336.5,"startTick":323040,"startTime":126.1875,"velocity":50},{"channel":0,"duration":0.09375,"durationBeats":0.25,"durationTicks":240,"endBeat":336.60729166666664,"endTick":323143,"endTime":126.22773437499998,"note":69,"startBeat":336.35729166666664,"startTick":322903,"startTime":126.13398437499998,"velocity":68},{"channel":9,"duration":0.021484375,"durationBeats":0.057291666666685614,"durationTicks":55,"endBeat":336.6822916666667,"endTick":323215,"endTime":126.255859375,"note":42,"startBeat":336.625,"startTick":323160,"startTime":126.234375,"velocity":50},{"channel":0,"duration":0.1875,"durationBeats":0.5,"durationTicks":480,"endBeat":336.85729166666664,"endTick":323383,"endTime":126.32148437499998,"note":45,"startBeat":336.35729166666664,"startTick":322903,"startTime":126.13398437499998,"velocity":68},{"channel":0,"duration":0.09375,"durationBeats":0.25,"durationTicks":240,"endBeat":336.85729166666664,"endTick":323383,"endTime":126.32148437499998,"note":67,"startBeat":336.60729166666664,"startTick":323143,"startTime":126.22773437499998,"velocity":68},{"channel":9,"duration":0.09375,"durationBeats":0.25,"durationTicks":240,"endBeat":336.9114583333333,"endTick":323435,"endTime":126.341796875,"note":35,"startBeat":336.6614583333333,"startTick":323195,"startTime":126.248046875,"velocity":50},{"channel":9,"duration":0.09375,"durationBeats":0.25,"durationTicks":240,"endBeat":337.0833333333333,"endTick":323600,"endTime":126.40625,"note":42,"startBeat":336.8333333333333,"startTick":323360,"startTime":126.3125,"velocity":50},{"channel":0,"duration":0.09375,"durationBeats":0.25,"durationTicks":240,"endBeat":337.10729166666664,"endTick":323623,"endTime":126.41523437499998,"note":69,"startBeat":336.85729166666664,"startTick":323383,"startTime":126.32148437499998,"velocity":68},{"channel":2,"duration":0.1875,"durationBeats":0.5,"durationTicks":480,"endBeat":337.13854166666664,"endTick":323653,"endTime":126.42695312499998,"note":26,"startBeat":336.63854166666664,"startTick":323173,"startTime":126.23945312499998,"velocity":57},{"channel":9,"duration":0.09375,"durationBeats":0.25,"durationTicks":240,"endBeat":337.1822916666667,"endTick":323695,"endTime":126.443359375,"note":35,"startBeat":336.9322916666667,"startTick":323455,"startTime":126.349609375,"velocity":50},{"channel":0,"duration":0.1875,"durationBeats":0.5,"durationTicks":480,"endBeat":337.35729166666664,"endTick":323863,"endTime":126.50898437499998,"note":50,"startBeat":336.85729166666664,"startTick":323383,"startTime":126.32148437499998,"velocity":68},{"channel":0,"duration":0.09375,"durationBeats":0.25,"durationTicks":240,"endBeat":337.35729166666664,"endTick":323863,"endTime":126.50898437499998,"note":62,"startBeat":337.10729166666664,"startTick":323623,"startTime":126.41523437499998,"velocity":68},{"channel":1,"duration":0.1875,"durationBeats":0.5,"durationTicks":480,"endBeat":337.409375,"endTick":323913,"endTime":126.52851562500001,"note":26,"startBeat":336.909375,"startTick":323433,"startTime":126.34101562500001,"velocity":50},{"channel":0,"duration":0.09375,"durationBeats":0.25,"durationTicks":240,"endBeat":337.60729166666664,"endTick":324103,"endTime":126.60273437499998,"note":60,"startBeat":337.35729166666664,"startTick":323863,"startTime":126.50898437499998,"velocity":68},{"channel":9,"duration":0.09375,"durationBeats":0.25,"durationTicks":240,"endBeat":337.6614583333333,"endTick":324155,"endTime":126.623046875,"note":35,"startBeat":337.4114583333333,"startTick":323915,"startTime":126.529296875,"velocity":50},{"channel":9,"duration":0.09375,"durationBeats":0.25,"durationTicks":240,"endBeat":337.8333333333333,"endTick":324320,"endTime":126.6875,"note":42,"startBeat":337.5833333333333,"startTick":324080,"startTime":126.59375,"velocity":50},{"channel":0,"duration":0.1875,"durationBeats":0.5,"durationTicks":480,"endBeat":337.85729166666664,"endTick":324343,"endTime":126.69648437499998,"note":38,"startBeat":337.35729166666664,"startTick":323863,"startTime":126.50898437499998,"velocity":68},{"channel":0,"duration":0.09375,"durationBeats":0.25,"durationTicks":240,"endBeat":337.85729166666664,"endTick":324343,"endTime":126.69648437499998,"note":65,"startBeat":337.60729166666664,"startTick":324103,"startTime":126.60273437499998,"velocity":68},{"channel":9,"duration":0.0234375,"durationBeats":0.0625,"durationTicks":60,"endBeat":337.8958333333333,"endTick":324380,"endTime":126.7109375,"note":42,"startBeat":337.8333333333333,"startTick":324320,"startTime":126.6875,"velocity":50},{"channel":9,"duration":0.09375,"durationBeats":0.25,"durationTicks":240,"endBeat":337.9322916666667,"endTick":324415,"endTime":126.724609375,"note":35,"startBeat":337.6822916666667,"startTick":324175,"startTime":126.630859375,"velocity":50},{"channel":9,"duration":0.0234375,"durationBeats":0.0625,"durationTicks":60,"endBeat":338.0208333333333,"endTick":324500,"endTime":126.7578125,"note":42,"startBeat":337.9583333333333,"startTick":324440,"startTime":126.734375,"velocity":50},{"channel":2,"duration":0.1875,"durationBeats":0.5,"durationTicks":480,"endBeat":338.13854166666664,"endTick":324613,"endTime":126.80195312499998,"note":26,"startBeat":337.63854166666664,"startTick":324133,"startTime":126.61445312499998,"velocity":57},{"channel":9,"duration":0.0234375,"durationBeats":0.0625,"durationTicks":60,"endBeat":338.1458333333333,"endTick":324620,"endTime":126.8046875,"note":42,"startBeat":338.0833333333333,"startTick":324560,"startTime":126.78125,"velocity":50},{"channel":9,"duration":0.0234375,"durationBeats":0.0625,"durationTicks":60,"endBeat":338.2708333333333,"endTick":324740,"endTime":126.8515625,"note":42,"startBeat":338.2083333333333,"startTick":324680,"startTime":126.828125,"velocity":50},{"channel":0,"duration":0.1875,"durationBeats":0.5,"durationTicks":480,"endBeat":338.35729166666664,"endTick":324823,"endTime":126.88398437499998,"note":45,"startBeat":337.85729166666664,"startTick":324343,"startTime":126.69648437499998,"velocity":68},{"channel":0,"duration":0.1875,"durationBeats":0.5,"durationTicks":480,"endBeat":338.35729166666664,"endTick":324823,"endTime":126.88398437499998,"note":69,"startBeat":337.85729166666664,"startTick":324343,"startTime":126.69648437499998,"velocity":68},{"channel":0,"duration":0.1875,"durationBeats":0.5,"durationTicks":480,"endBeat":338.35729166666664,"endTick":324823,"endTime":126.88398437499998,"note":60,"startBeat":337.85729166666664,"startTick":324343,"startTime":126.69648437499998,"velocity":68},{"channel":0,"duration":0.1875,"durationBeats":0.5,"durationTicks":480,"endBeat":338.35729166666664,"endTick":324823,"endTime":126.88398437499998,"note":64,"startBeat":337.85729166666664,"startTick":324343,"startTime":126.69648437499998,"velocity":68},{"channel":9,"duration":0.0234375,"durationBeats":0.0625,"durationTicks":60,"endBeat":338.3958333333333,"endTick":324860,"endTime":126.8984375,"note":42,"startBeat":338.3333333333333,"startTick":324800,"startTime":126.875,"velocity":50},{"channel":1,"duration":0.1875,"durationBeats":0.5,"durationTicks":480,"endBeat":338.409375,"endTick":324873,"endTime":126.90351562500001,"note":26,"startBeat":337.909375,"startTick":324393,"startTime":126.71601562500001,"velocity":50},{"channel":9,"duration":0.09375,"durationBeats":0.25,"durationTicks":240,"endBeat":338.4114583333333,"endTick":324875,"endTime":126.904296875,"note":35,"startBeat":338.1614583333333,"startTick":324635,"startTime":126.810546875,"velocity":50},{"channel":2,"duration":0.1875,"durationBeats":0.5,"durationTicks":480,"endBeat":338.63854166666664,"endTick":325093,"endTime":126.98945312499998,"note":33,"startBeat":338.13854166666664,"startTick":324613,"startTime":126.80195312499998,"velocity":57},{"channel":9,"duration":0.0078125,"durationBeats":0.02083333333337123,"durationTicks":20,"endBeat":338.6822916666667,"endTick":325135,"endTime":127.005859375,"note":35,"startBeat":338.6614583333333,"startTick":325115,"startTime":126.998046875,"velocity":50},{"channel":0,"duration":0.1875,"durationBeats":0.5,"durationTicks":480,"endBeat":338.85729166666664,"endTick":325303,"endTime":127.07148437499998,"note":44,"startBeat":338.35729166666664,"startTick":324823,"startTime":126.88398437499998,"velocity":68},{"channel":0,"duration":0.1875,"durationBeats":0.5,"durationTicks":480,"endBeat":338.85729166666664,"endTick":325303,"endTime":127.07148437499998,"note":68,"startBeat":338.35729166666664,"startTick":324823,"startTime":126.88398437499998,"velocity":68},{"channel":0,"duration":0.1875,"durationBeats":0.5,"durationTicks":480,"endBeat":338.85729166666664,"endTick":325303,"endTime":127.07148437499998,"note":63,"startBeat":338.35729166666664,"startTick":324823,"startTime":126.88398437499998,"velocity":68},{"channel":0,"duration":0.1875,"durationBeats":0.5,"durationTicks":480,"endBeat":338.85729166666664,"endTick":325303,"endTime":127.07148437499998,"note":59,"startBeat":338.35729166666664,"startTick":324823,"startTime":126.88398437499998,"velocity":68},{"channel":1,"duration":0.1875,"durationBeats":0.5,"durationTicks":480,"endBeat":338.909375,"endTick":325353,"endTime":127.09101562500001,"note":33,"startBeat":338.409375,"startTick":324873,"startTime":126.90351562500001,"velocity":50},{"channel":9,"duration":0.09375,"durationBeats":0.25,"durationTicks":240,"endBeat":339.0833333333333,"endTick":325520,"endTime":127.15625,"note":42,"startBeat":338.8333333333333,"startTick":325280,"startTime":127.0625,"velocity":50},{"channel":2,"duration":0.1875,"durationBeats":0.5,"durationTicks":480,"endBeat":339.13854166666664,"endTick":325573,"endTime":127.17695312499998,"note":26,"startBeat":338.63854166666664,"startTick":325093,"startTime":126.98945312499998,"velocity":57},{"channel":9,"duration":0.09375,"durationBeats":0.25,"durationTicks":240,"endBeat":339.1822916666667,"endTick":325615,"endTime":127.193359375,"note":35,"startBeat":338.9322916666667,"startTick":325375,"startTime":127.099609375,"velocity":50},{"channel":9,"duration":0.09375,"durationBeats":0.25,"durationTicks":240,"endBeat":339.3333333333333,"endTick":325760,"endTime":127.25,"note":42,"startBeat":339.0833333333333,"startTick":325520,"startTime":127.15625,"velocity":50},{"channel":0,"duration":0.1875,"durationBeats":0.5,"durationTicks":480,"endBeat":339.35729166666664,"endTick":325783,"endTime":127.25898437499998,"note":43,"startBeat":338.85729166666664,"startTick":325303,"startTime":127.07148437499998,"velocity":68},{"channel":1,"duration":0.1875,"durationBeats":0.5,"durationTicks":480,"endBeat":339.409375,"endTick":325833,"endTime":127.27851562500001,"note":26,"startBeat":338.909375,"startTick":325353,"startTime":127.09101562500001,"velocity":50},{"channel":0,"duration":0.375,"durationBeats":1,"durationTicks":960,"endBeat":339.85729166666664,"endTick":326263,"endTime":127.44648437499998,"note":69,"startBeat":338.85729166666664,"startTick":325303,"startTime":127.07148437499998,"velocity":68},{"channel":0,"duration":0.375,"durationBeats":1,"durationTicks":960,"endBeat":339.85729166666664,"endTick":326263,"endTime":127.44648437499998,"note":65,"startBeat":338.85729166666664,"startTick":325303,"startTime":127.07148437499998,"velocity":68},{"channel":0,"duration":0.375,"durationBeats":1,"durationTicks":960,"endBeat":339.85729166666664,"endTick":326263,"endTime":127.44648437499998,"note":62,"startBeat":338.85729166666664,"startTick":325303,"startTime":127.07148437499998,"velocity":68},{"channel":0,"duration":0.375,"durationBeats":1,"durationTicks":960,"endBeat":339.85729166666664,"endTick":326263,"endTime":127.44648437499998,"note":58,"startBeat":338.85729166666664,"startTick":325303,"startTime":127.07148437499998,"velocity":68},{"channel":9,"duration":0.09375,"durationBeats":0.25,"durationTicks":240,"endBeat":339.9114583333333,"endTick":326315,"endTime":127.466796875,"note":35,"startBeat":339.6614583333333,"startTick":326075,"startTime":127.373046875,"velocity":50},{"channel":9,"duration":0.09375,"durationBeats":0.25,"durationTicks":240,"endBeat":340.0833333333333,"endTick":326480,"endTime":127.53125,"note":42,"startBeat":339.8333333333333,"startTick":326240,"startTime":127.4375,"velocity":50},{"channel":2,"duration":0.1875,"durationBeats":0.5,"durationTicks":480,"endBeat":340.13854166666664,"endTick":326533,"endTime":127.55195312499998,"note":26,"startBeat":339.63854166666664,"startTick":326053,"startTime":127.36445312499998,"velocity":57},{"channel":9,"duration":0.09375,"durationBeats":0.25,"durationTicks":240,"endBeat":340.1822916666667,"endTick":326575,"endTime":127.568359375,"note":35,"startBeat":339.9322916666667,"startTick":326335,"startTime":127.474609375,"velocity":50},{"channel":9,"duration":0.09375,"durationBeats":0.25,"durationTicks":240,"endBeat":340.3333333333333,"endTick":326720,"endTime":127.625,"note":42,"startBeat":340.0833333333333,"startTick":326480,"startTime":127.53125,"velocity":50},{"channel":0,"duration":0.1875,"durationBeats":0.5,"durationTicks":480,"endBeat":340.35729166666664,"endTick":326743,"endTime":127.63398437499998,"note":43,"startBeat":339.85729166666664,"startTick":326263,"startTime":127.44648437499998,"velocity":68},{"channel":1,"duration":0.1875,"durationBeats":0.5,"durationTicks":480,"endBeat":340.409375,"endTick":326793,"endTime":127.65351562500001,"note":26,"startBeat":339.909375,"startTick":326313,"startTime":127.46601562500001,"velocity":50},{"channel":0,"duration":0.09375,"durationBeats":0.25,"durationTicks":240,"endBeat":340.60729166666664,"endTick":326983,"endTime":127.72773437499998,"note":65,"startBeat":340.35729166666664,"startTick":326743,"startTime":127.63398437499998,"velocity":68},{"channel":2,"duration":0.1875,"durationBeats":0.5,"durationTicks":480,"endBeat":340.63854166666664,"endTick":327013,"endTime":127.73945312499998,"note":33,"startBeat":340.13854166666664,"startTick":326533,"startTime":127.55195312499998,"velocity":57},{"channel":0,"duration":0.1875,"durationBeats":0.5,"durationTicks":480,"endBeat":340.85729166666664,"endTick":327223,"endTime":127.82148437499998,"note":44,"startBeat":340.35729166666664,"startTick":326743,"startTime":127.63398437499998,"velocity":68},{"channel":0,"duration":0.09375,"durationBeats":0.25,"durationTicks":240,"endBeat":340.85729166666664,"endTick":327223,"endTime":127.82148437499998,"note":69,"startBeat":340.60729166666664,"startTick":326983,"startTime":127.72773437499998,"velocity":68},{"channel":1,"duration":0.1875,"durationBeats":0.5,"durationTicks":480,"endBeat":340.909375,"endTick":327273,"endTime":127.84101562500001,"note":33,"startBeat":340.409375,"startTick":326793,"startTime":127.65351562500001,"velocity":50},{"channel":9,"duration":0.09375,"durationBeats":0.25,"durationTicks":240,"endBeat":340.9114583333333,"endTick":327275,"endTime":127.841796875,"note":35,"startBeat":340.6614583333333,"startTick":327035,"startTime":127.748046875,"velocity":50},{"channel":9,"duration":0.09375,"durationBeats":0.25,"durationTicks":240,"endBeat":341.0833333333333,"endTick":327440,"endTime":127.90625,"note":42,"startBeat":340.8333333333333,"startTick":327200,"startTime":127.8125,"velocity":50},{"channel":2,"duration":0.1875,"durationBeats":0.5,"durationTicks":480,"endBeat":341.13854166666664,"endTick":327493,"endTime":127.92695312499998,"note":32,"startBeat":340.63854166666664,"startTick":327013,"startTime":127.73945312499998,"velocity":57},{"channel":9,"duration":0.09375,"durationBeats":0.25,"durationTicks":240,"endBeat":341.1822916666667,"endTick":327535,"endTime":127.943359375,"note":35,"startBeat":340.9322916666667,"startTick":327295,"startTime":127.849609375,"velocity":50},{"channel":0,"duration":0.1875,"durationBeats":0.5,"durationTicks":480,"endBeat":341.35729166666664,"endTick":327703,"endTime":128.00898437499998,"note":60,"startBeat":340.85729166666664,"startTick":327223,"startTime":127.82148437499998,"velocity":68},{"channel":0,"duration":0.1875,"durationBeats":0.5,"durationTicks":480,"endBeat":341.35729166666664,"endTick":327703,"endTime":128.00898437499998,"note":64,"startBeat":340.85729166666664,"startTick":327223,"startTime":127.82148437499998,"velocity":68},{"channel":0,"duration":0.1875,"durationBeats":0.5,"durationTicks":480,"endBeat":341.35729166666664,"endTick":327703,"endTime":128.00898437499998,"note":67,"startBeat":340.85729166666664,"startTick":327223,"startTime":127.82148437499998,"velocity":68},{"channel":0,"duration":0.1875,"durationBeats":0.5,"durationTicks":480,"endBeat":341.35729166666664,"endTick":327703,"endTime":128.00898437499998,"note":72,"startBeat":340.85729166666664,"startTick":327223,"startTime":127.82148437499998,"velocity":68},{"channel":0,"duration":0.1875,"durationBeats":0.5,"durationTicks":480,"endBeat":341.35729166666664,"endTick":327703,"endTime":128.00898437499998,"note":45,"startBeat":340.85729166666664,"startTick":327223,"startTime":127.82148437499998,"velocity":68},{"channel":1,"duration":0.1875,"durationBeats":0.5,"durationTicks":480,"endBeat":341.409375,"endTick":327753,"endTime":128.028515625,"note":32,"startBeat":340.909375,"startTick":327273,"startTime":127.84101562500001,"velocity":50},{"channel":2,"duration":0.1875,"durationBeats":0.5,"durationTicks":480,"endBeat":341.63854166666664,"endTick":327973,"endTime":128.11445312499998,"note":31,"startBeat":341.13854166666664,"startTick":327493,"startTime":127.92695312499998,"velocity":57},{"channel":9,"duration":0.09375,"durationBeats":0.25,"durationTicks":240,"endBeat":341.6614583333333,"endTick":327995,"endTime":128.123046875,"note":35,"startBeat":341.4114583333333,"startTick":327755,"startTime":128.029296875,"velocity":50},{"channel":9,"duration":0.09375,"durationBeats":0.25,"durationTicks":240,"endBeat":341.8333333333333,"endTick":328160,"endTime":128.1875,"note":42,"startBeat":341.5833333333333,"startTick":327920,"startTime":128.09375,"velocity":50},{"channel":0,"duration":0.09375,"durationBeats":0.25,"durationTicks":240,"endBeat":341.85729166666664,"endTick":328183,"endTime":128.19648437499998,"note":45,"startBeat":341.60729166666664,"startTick":327943,"startTime":128.10273437499998,"velocity":68},{"channel":9,"duration":0.0234375,"durationBeats":0.0625,"durationTicks":60,"endBeat":341.8958333333333,"endTick":328220,"endTime":128.2109375,"note":42,"startBeat":341.8333333333333,"startTick":328160,"startTime":128.1875,"velocity":50},{"channel":1,"duration":0.1875,"durationBeats":0.5,"durationTicks":480,"endBeat":341.909375,"endTick":328233,"endTime":128.216015625,"note":31,"startBeat":341.409375,"startTick":327753,"startTime":128.028515625,"velocity":50},{"channel":9,"duration":0.09375,"durationBeats":0.25,"durationTicks":240,"endBeat":341.9322916666667,"endTick":328255,"endTime":128.224609375,"note":35,"startBeat":341.6822916666667,"startTick":328015,"startTime":128.130859375,"velocity":50},{"channel":9,"duration":0.0234375,"durationBeats":0.0625,"durationTicks":60,"endBeat":342.0208333333333,"endTick":328340,"endTime":128.2578125,"note":42,"startBeat":341.9583333333333,"startTick":328280,"startTime":128.234375,"velocity":50},{"channel":0,"duration":0.1875,"durationBeats":0.5,"durationTicks":480,"endBeat":342.10729166666664,"endTick":328423,"endTime":128.29023437499998,"note":70,"startBeat":341.60729166666664,"startTick":327943,"startTime":128.10273437499998,"velocity":68},{"channel":0,"duration":0.1875,"durationBeats":0.5,"durationTicks":480,"endBeat":342.10729166666664,"endTick":328423,"endTime":128.29023437499998,"note":67,"startBeat":341.60729166666664,"startTick":327943,"startTime":128.10273437499998,"velocity":68},{"channel":0,"duration":0.1875,"durationBeats":0.5,"durationTicks":480,"endBeat":342.10729166666664,"endTick":328423,"endTime":128.29023437499998,"note":65,"startBeat":341.60729166666664,"startTick":327943,"startTime":128.10273437499998,"velocity":68},{"channel":0,"duration":0.1875,"durationBeats":0.5,"durationTicks":480,"endBeat":342.10729166666664,"endTick":328423,"endTime":128.29023437499998,"note":61,"startBeat":341.60729166666664,"startTick":327943,"startTime":128.10273437499998,"velocity":68},{"channel":9,"duration":0.0234375,"durationBeats":0.0625,"durationTicks":60,"endBeat":342.1458333333333,"endTick":328460,"endTime":128.3046875,"note":42,"startBeat":342.0833333333333,"startTick":328400,"startTime":128.28125,"velocity":50},{"channel":9,"duration":0.0234375,"durationBeats":0.0625,"durationTicks":60,"endBeat":342.2708333333333,"endTick":328580,"endTime":128.3515625,"note":42,"startBeat":342.2083333333333,"startTick":328520,"startTime":128.328125,"velocity":50},{"channel":9,"duration":0.0234375,"durationBeats":0.0625,"durationTicks":60,"endBeat":342.3958333333333,"endTick":328700,"endTime":128.3984375,"note":42,"startBeat":342.3333333333333,"startTick":328640,"startTime":128.375,"velocity":50},{"channel":9,"duration":0.09375,"durationBeats":0.25,"durationTicks":240,"endBeat":342.4114583333333,"endTick":328715,"endTime":128.404296875,"note":35,"startBeat":342.1614583333333,"startTick":328475,"startTime":128.310546875,"velocity":50},{"channel":2,"duration":0.1875,"durationBeats":0.5,"durationTicks":480,"endBeat":342.63854166666664,"endTick":328933,"endTime":128.48945312499998,"note":31,"startBeat":342.13854166666664,"startTick":328453,"startTime":128.30195312499998,"velocity":57},{"channel":9,"duration":0.0078125,"durationBeats":0.02083333333337123,"durationTicks":20,"endBeat":342.6822916666667,"endTick":328975,"endTime":128.505859375,"note":35,"startBeat":342.6614583333333,"startTick":328955,"startTime":128.498046875,"velocity":50},{"channel":0,"duration":0.1875,"durationBeats":0.5,"durationTicks":480,"endBeat":342.85729166666664,"endTick":329143,"endTime":128.57148437499998,"note":69,"startBeat":342.35729166666664,"startTick":328663,"startTime":128.38398437499998,"velocity":68},{"channel":0,"duration":0.1875,"durationBeats":0.5,"durationTicks":480,"endBeat":342.85729166666664,"endTick":329143,"endTime":128.57148437499998,"note":65,"startBeat":342.35729166666664,"startTick":328663,"startTime":128.38398437499998,"velocity":68},{"channel":0,"duration":0.1875,"durationBeats":0.5,"durationTicks":480,"endBeat":342.85729166666664,"endTick":329143,"endTime":128.57148437499998,"note":64,"startBeat":342.35729166666664,"startTick":328663,"startTime":128.38398437499998,"velocity":68},{"channel":0,"duration":0.1875,"durationBeats":0.5,"durationTicks":480,"endBeat":342.85729166666664,"endTick":329143,"endTime":128.57148437499998,"note":60,"startBeat":342.35729166666664,"startTick":328663,"startTime":128.38398437499998,"velocity":68},{"channel":0,"duration":0.1875,"durationBeats":0.5,"durationTicks":480,"endBeat":342.85729166666664,"endTick":329143,"endTime":128.57148437499998,"note":38,"startBeat":342.35729166666664,"startTick":328663,"startTime":128.38398437499998,"velocity":68},{"channel":1,"duration":0.1875,"durationBeats":0.5,"durationTicks":480,"endBeat":342.909375,"endTick":329193,"endTime":128.591015625,"note":31,"startBeat":342.409375,"startTick":328713,"startTime":128.403515625,"velocity":50},{"channel":9,"duration":0.09375,"durationBeats":0.25,"durationTicks":240,"endBeat":343.0833333333333,"endTick":329360,"endTime":128.65625,"note":42,"startBeat":342.8333333333333,"startTick":329120,"startTime":128.5625,"velocity":50},{"channel":0,"duration":0.09375,"durationBeats":0.25,"durationTicks":240,"endBeat":343.10729166666664,"endTick":329383,"endTime":128.66523437499998,"note":76,"startBeat":342.85729166666664,"startTick":329143,"startTime":128.57148437499998,"velocity":68},{"channel":2,"duration":0.1875,"durationBeats":0.5,"durationTicks":480,"endBeat":343.13854166666664,"endTick":329413,"endTime":128.67695312499998,"note":32,"startBeat":342.63854166666664,"startTick":328933,"startTime":128.48945312499998,"velocity":57},{"channel":9,"duration":0.09375,"durationBeats":0.25,"durationTicks":240,"endBeat":343.1822916666667,"endTick":329455,"endTime":128.693359375,"note":35,"startBeat":342.9322916666667,"startTick":329215,"startTime":128.599609375,"velocity":50},{"channel":0,"duration":0.1875,"durationBeats":0.5,"durationTicks":480,"endBeat":343.35729166666664,"endTick":329623,"endTime":128.75898437499998,"note":50,"startBeat":342.85729166666664,"startTick":329143,"startTime":128.57148437499998,"velocity":68},{"channel":0,"duration":0.09375,"durationBeats":0.25,"durationTicks":240,"endBeat":343.35729166666664,"endTick":329623,"endTime":128.75898437499998,"note":77,"startBeat":343.10729166666664,"startTick":329383,"startTime":128.66523437499998,"velocity":68},{"channel":1,"duration":0.1875,"durationBeats":0.5,"durationTicks":480,"endBeat":343.409375,"endTick":329673,"endTime":128.778515625,"note":32,"startBeat":342.909375,"startTick":329193,"startTime":128.591015625,"velocity":50},{"channel":0,"duration":0.09375,"durationBeats":0.25,"durationTicks":240,"endBeat":343.60729166666664,"endTick":329863,"endTime":128.85273437499998,"note":79,"startBeat":343.35729166666664,"startTick":329623,"startTime":128.75898437499998,"velocity":68},{"channel":2,"duration":0.1875,"durationBeats":0.5,"durationTicks":480,"endBeat":343.63854166666664,"endTick":329893,"endTime":128.86445312499998,"note":33,"startBeat":343.13854166666664,"startTick":329413,"startTime":128.67695312499998,"velocity":57},{"channel":0,"duration":0.1875,"durationBeats":0.5,"durationTicks":480,"endBeat":343.85729166666664,"endTick":330103,"endTime":128.94648437499998,"note":38,"startBeat":343.35729166666664,"startTick":329623,"startTime":128.75898437499998,"velocity":68},{"channel":0,"duration":0.09375,"durationBeats":0.25,"durationTicks":240,"endBeat":343.85729166666664,"endTick":330103,"endTime":128.94648437499998,"note":77,"startBeat":343.60729166666664,"startTick":329863,"startTime":128.85273437499998,"velocity":68},{"channel":1,"duration":0.1875,"durationBeats":0.5,"durationTicks":480,"endBeat":343.909375,"endTick":330153,"endTime":128.966015625,"note":33,"startBeat":343.409375,"startTick":329673,"startTime":128.778515625,"velocity":50},{"channel":9,"duration":0.09375,"durationBeats":0.25,"durationTicks":240,"endBeat":343.9114583333333,"endTick":330155,"endTime":128.966796875,"note":35,"startBeat":343.6614583333333,"startTick":329915,"startTime":128.873046875,"velocity":50},{"channel":9,"duration":0.09375,"durationBeats":0.25,"durationTicks":240,"endBeat":344.0833333333333,"endTick":330320,"endTime":129.03125,"note":42,"startBeat":343.8333333333333,"startTick":330080,"startTime":128.9375,"velocity":50},{"channel":0,"duration":0.09375,"durationBeats":0.25,"durationTicks":240,"endBeat":344.10729166666664,"endTick":330343,"endTime":129.04023437499998,"note":76,"startBeat":343.85729166666664,"startTick":330103,"startTime":128.94648437499998,"velocity":68},{"channel":2,"duration":0.09375,"durationBeats":0.25,"durationTicks":240,"endBeat":344.13854166666664,"endTick":330373,"endTime":129.05195312499998,"note":33,"startBeat":343.88854166666664,"startTick":330133,"startTime":128.95820312499998,"velocity":57},{"channel":9,"duration":0.09375,"durationBeats":0.25,"durationTicks":240,"endBeat":344.1822916666667,"endTick":330415,"endTime":129.068359375,"note":35,"startBeat":343.9322916666667,"startTick":330175,"startTime":128.974609375,"velocity":50},{"channel":9,"duration":0.09375,"durationBeats":0.25,"durationTicks":240,"endBeat":344.3333333333333,"endTick":330560,"endTime":129.125,"note":42,"startBeat":344.0833333333333,"startTick":330320,"startTime":129.03125,"velocity":50},{"channel":0,"duration":0.1875,"durationBeats":0.5,"durationTicks":480,"endBeat":344.35729166666664,"endTick":330583,"endTime":129.13398437499998,"note":45,"startBeat":343.85729166666664,"startTick":330103,"startTime":128.94648437499998,"velocity":68},{"channel":0,"duration":0.09375,"durationBeats":0.25,"durationTicks":240,"endBeat":344.35729166666664,"endTick":330583,"endTime":129.13398437499998,"note":72,"startBeat":344.10729166666664,"startTick":330343,"startTime":129.04023437499998,"velocity":68},{"channel":1,"duration":0.09375,"durationBeats":0.25,"durationTicks":240,"endBeat":344.409375,"endTick":330633,"endTime":129.153515625,"note":33,"startBeat":344.159375,"startTick":330393,"startTime":129.059765625,"velocity":50},{"channel":0,"duration":0.09375,"durationBeats":0.25,"durationTicks":240,"endBeat":344.60729166666664,"endTick":330823,"endTime":129.22773437499998,"note":69,"startBeat":344.35729166666664,"startTick":330583,"startTime":129.13398437499998,"velocity":68},{"channel":0,"duration":0.1875,"durationBeats":0.5,"durationTicks":480,"endBeat":344.85729166666664,"endTick":331063,"endTime":129.32148437499998,"note":38,"startBeat":344.35729166666664,"startTick":330583,"startTime":129.13398437499998,"velocity":68},{"channel":0,"duration":0.09375,"durationBeats":0.25,"durationTicks":240,"endBeat":344.85729166666664,"endTick":331063,"endTime":129.32148437499998,"note":67,"startBeat":344.60729166666664,"startTick":330823,"startTime":129.22773437499998,"velocity":68},{"channel":9,"duration":0.09375,"durationBeats":0.25,"durationTicks":240,"endBeat":344.9114583333333,"endTick":331115,"endTime":129.341796875,"note":35,"startBeat":344.6614583333333,"startTick":330875,"startTime":129.248046875,"velocity":50},{"channel":9,"duration":0.09375,"durationBeats":0.25,"durationTicks":240,"endBeat":345.0833333333333,"endTick":331280,"endTime":129.40625,"note":42,"startBeat":344.8333333333333,"startTick":331040,"startTime":129.3125,"velocity":50},{"channel":0,"duration":0.09375,"durationBeats":0.25,"durationTicks":240,"endBeat":345.10729166666664,"endTick":331303,"endTime":129.41523437499998,"note":69,"startBeat":344.85729166666664,"startTick":331063,"startTime":129.32148437499998,"velocity":68},{"channel":2,"duration":0.1875,"durationBeats":0.5,"durationTicks":480,"endBeat":345.13854166666664,"endTick":331333,"endTime":129.42695312499998,"note":26,"startBeat":344.63854166666664,"startTick":330853,"startTime":129.23945312499998,"velocity":57},{"channel":9,"duration":0.09375,"durationBeats":0.25,"durationTicks":240,"endBeat":345.1822916666667,"endTick":331375,"endTime":129.443359375,"note":35,"startBeat":344.9322916666667,"startTick":331135,"startTime":129.349609375,"velocity":50},{"channel":0,"duration":0.1875,"durationBeats":0.5,"durationTicks":480,"endBeat":345.35729166666664,"endTick":331543,"endTime":129.50898437499998,"note":50,"startBeat":344.85729166666664,"startTick":331063,"startTime":129.32148437499998,"velocity":68},{"channel":0,"duration":0.09375,"durationBeats":0.25,"durationTicks":240,"endBeat":345.35729166666664,"endTick":331543,"endTime":129.50898437499998,"note":62,"startBeat":345.10729166666664,"startTick":331303,"startTime":129.41523437499998,"velocity":68},{"channel":1,"duration":0.1875,"durationBeats":0.5,"durationTicks":480,"endBeat":345.409375,"endTick":331593,"endTime":129.528515625,"note":26,"startBeat":344.909375,"startTick":331113,"startTime":129.341015625,"velocity":50},{"channel":0,"duration":0.09375,"durationBeats":0.25,"durationTicks":240,"endBeat":345.60729166666664,"endTick":331783,"endTime":129.60273437499998,"note":60,"startBeat":345.35729166666664,"startTick":331543,"startTime":129.50898437499998,"velocity":68},{"channel":9,"duration":0.09375,"durationBeats":0.25,"durationTicks":240,"endBeat":345.6614583333333,"endTick":331835,"endTime":129.623046875,"note":35,"startBeat":345.4114583333333,"startTick":331595,"startTime":129.529296875,"velocity":50},{"channel":9,"duration":0.09375,"durationBeats":0.25,"durationTicks":240,"endBeat":345.8333333333333,"endTick":332000,"endTime":129.6875,"note":42,"startBeat":345.5833333333333,"startTick":331760,"startTime":129.59375,"velocity":50},{"channel":0,"duration":0.1875,"durationBeats":0.5,"durationTicks":480,"endBeat":345.85729166666664,"endTick":332023,"endTime":129.69648437499998,"note":38,"startBeat":345.35729166666664,"startTick":331543,"startTime":129.50898437499998,"velocity":68},{"channel":0,"duration":0.09375,"durationBeats":0.25,"durationTicks":240,"endBeat":345.85729166666664,"endTick":332023,"endTime":129.69648437499998,"note":65,"startBeat":345.60729166666664,"startTick":331783,"startTime":129.60273437499998,"velocity":68},{"channel":9,"duration":0.0234375,"durationBeats":0.0625,"durationTicks":60,"endBeat":345.8958333333333,"endTick":332060,"endTime":129.7109375,"note":42,"startBeat":345.8333333333333,"startTick":332000,"startTime":129.6875,"velocity":50},{"channel":9,"duration":0.09375,"durationBeats":0.25,"durationTicks":240,"endBeat":345.9322916666667,"endTick":332095,"endTime":129.724609375,"note":35,"startBeat":345.6822916666667,"startTick":331855,"startTime":129.630859375,"velocity":50},{"channel":9,"duration":0.0234375,"durationBeats":0.0625,"durationTicks":60,"endBeat":346.0208333333333,"endTick":332180,"endTime":129.7578125,"note":42,"startBeat":345.9583333333333,"startTick":332120,"startTime":129.734375,"velocity":50},{"channel":2,"duration":0.1875,"durationBeats":0.5,"durationTicks":480,"endBeat":346.13854166666664,"endTick":332293,"endTime":129.80195312499998,"note":38,"startBeat":345.63854166666664,"startTick":331813,"startTime":129.61445312499998,"velocity":57},{"channel":9,"duration":0.0234375,"durationBeats":0.0625,"durationTicks":60,"endBeat":346.1458333333333,"endTick":332300,"endTime":129.8046875,"note":42,"startBeat":346.0833333333333,"startTick":332240,"startTime":129.78125,"velocity":50},{"channel":9,"duration":0.0234375,"durationBeats":0.0625,"durationTicks":60,"endBeat":346.2708333333333,"endTick":332420,"endTime":129.8515625,"note":42,"startBeat":346.2083333333333,"startTick":332360,"startTime":129.828125,"velocity":50},{"channel":0,"duration":0.1875,"durationBeats":0.5,"durationTicks":480,"endBeat":346.35729166666664,"endTick":332503,"endTime":129.88398437499998,"note":69,"startBeat":345.85729166666664,"startTick":332023,"startTime":129.69648437499998,"velocity":68},{"channel":0,"duration":0.1875,"durationBeats":0.5,"durationTicks":480,"endBeat":346.35729166666664,"endTick":332503,"endTime":129.88398437499998,"note":60,"startBeat":345.85729166666664,"startTick":332023,"startTime":129.69648437499998,"velocity":68},{"channel":0,"duration":0.1875,"durationBeats":0.5,"durationTicks":480,"endBeat":346.35729166666664,"endTick":332503,"endTime":129.88398437499998,"note":64,"startBeat":345.85729166666664,"startTick":332023,"startTime":129.69648437499998,"velocity":68},{"channel":0,"duration":0.1875,"durationBeats":0.5,"durationTicks":480,"endBeat":346.35729166666664,"endTick":332503,"endTime":129.88398437499998,"note":45,"startBeat":345.85729166666664,"startTick":332023,"startTime":129.69648437499998,"velocity":68},{"channel":1,"duration":0.1875,"durationBeats":0.5,"durationTicks":480,"endBeat":346.409375,"endTick":332553,"endTime":129.903515625,"note":38,"startBeat":345.909375,"startTick":332073,"startTime":129.716015625,"velocity":50},{"channel":9,"duration":0.09375,"durationBeats":0.25,"durationTicks":240,"endBeat":346.4114583333333,"endTick":332555,"endTime":129.904296875,"note":35,"startBeat":346.1614583333333,"startTick":332315,"startTime":129.810546875,"velocity":50},{"channel":2,"duration":0.1875,"durationBeats":0.5,"durationTicks":480,"endBeat":346.63854166666664,"endTick":332773,"endTime":129.98945312499998,"note":26,"startBeat":346.13854166666664,"startTick":332293,"startTime":129.80195312499998,"velocity":57},{"channel":9,"duration":0.09375,"durationBeats":0.25,"durationTicks":240,"endBeat":346.6822916666667,"endTick":332815,"endTime":130.005859375,"note":35,"startBeat":346.4322916666667,"startTick":332575,"startTime":129.912109375,"velocity":50},{"channel":0,"duration":0.1875,"durationBeats":0.5,"durationTicks":480,"endBeat":346.85729166666664,"endTick":332983,"endTime":130.07148437499998,"note":44,"startBeat":346.35729166666664,"startTick":332503,"startTime":129.88398437499998,"velocity":68},{"channel":0,"duration":0.1875,"durationBeats":0.5,"durationTicks":480,"endBeat":346.85729166666664,"endTick":332983,"endTime":130.07148437499998,"note":68,"startBeat":346.35729166666664,"startTick":332503,"startTime":129.88398437499998,"velocity":68},{"channel":0,"duration":0.1875,"durationBeats":0.5,"durationTicks":480,"endBeat":346.85729166666664,"endTick":332983,"endTime":130.07148437499998,"note":63,"startBeat":346.35729166666664,"startTick":332503,"startTime":129.88398437499998,"velocity":68},{"channel":0,"duration":0.1875,"durationBeats":0.5,"durationTicks":480,"endBeat":346.85729166666664,"endTick":332983,"endTime":130.07148437499998,"note":59,"startBeat":346.35729166666664,"startTick":332503,"startTime":129.88398437499998,"velocity":68},{"channel":1,"duration":0.1875,"durationBeats":0.5,"durationTicks":480,"endBeat":346.909375,"endTick":333033,"endTime":130.091015625,"note":26,"startBeat":346.409375,"startTick":332553,"startTime":129.903515625,"velocity":50},{"channel":2,"duration":0.1875,"durationBeats":0.5,"durationTicks":480,"endBeat":347.13854166666664,"endTick":333253,"endTime":130.17695312499998,"note":33,"startBeat":346.63854166666664,"startTick":332773,"startTime":129.98945312499998,"velocity":57},{"channel":0,"duration":0.1875,"durationBeats":0.5,"durationTicks":480,"endBeat":347.35729166666664,"endTick":333463,"endTime":130.25898437499998,"note":43,"startBeat":346.85729166666664,"startTick":332983,"startTime":130.07148437499998,"velocity":68},{"channel":1,"duration":0.1875,"durationBeats":0.5,"durationTicks":480,"endBeat":347.409375,"endTick":333513,"endTime":130.278515625,"note":33,"startBeat":346.909375,"startTick":333033,"startTime":130.091015625,"velocity":50},{"channel":0,"duration":0.375,"durationBeats":1,"durationTicks":960,"endBeat":347.85729166666664,"endTick":333943,"endTime":130.44648437499998,"note":69,"startBeat":346.85729166666664,"startTick":332983,"startTime":130.07148437499998,"velocity":68},{"channel":0,"duration":0.375,"durationBeats":1,"durationTicks":960,"endBeat":347.85729166666664,"endTick":333943,"endTime":130.44648437499998,"note":65,"startBeat":346.85729166666664,"startTick":332983,"startTime":130.07148437499998,"velocity":68},{"channel":0,"duration":0.375,"durationBeats":1,"durationTicks":960,"endBeat":347.85729166666664,"endTick":333943,"endTime":130.44648437499998,"note":62,"startBeat":346.85729166666664,"startTick":332983,"startTime":130.07148437499998,"velocity":68},{"channel":0,"duration":0.375,"durationBeats":1,"durationTicks":960,"endBeat":347.85729166666664,"endTick":333943,"endTime":130.44648437499998,"note":58,"startBeat":346.85729166666664,"startTick":332983,"startTime":130.07148437499998,"velocity":68},{"channel":2,"duration":0.1875,"durationBeats":0.5,"durationTicks":480,"endBeat":348.13854166666664,"endTick":334213,"endTime":130.55195312499998,"note":26,"startBeat":347.63854166666664,"startTick":333733,"startTime":130.36445312499998,"velocity":57},{"channel":0,"duration":0.1875,"durationBeats":0.5,"durationTicks":480,"endBeat":348.35729166666664,"endTick":334423,"endTime":130.63398437499998,"note":43,"startBeat":347.85729166666664,"startTick":333943,"startTime":130.44648437499998,"velocity":68},{"channel":1,"duration":0.1875,"durationBeats":0.5,"durationTicks":480,"endBeat":348.409375,"endTick":334473,"endTime":130.653515625,"note":26,"startBeat":347.909375,"startTick":333993,"startTime":130.466015625,"velocity":50},{"channel":0,"duration":0.09375,"durationBeats":0.25,"durationTicks":240,"endBeat":348.60729166666664,"endTick":334663,"endTime":130.72773437499998,"note":65,"startBeat":348.35729166666664,"startTick":334423,"startTime":130.63398437499998,"velocity":68},{"channel":2,"duration":0.1875,"durationBeats":0.5,"durationTicks":480,"endBeat":348.63854166666664,"endTick":334693,"endTime":130.73945312499998,"note":33,"startBeat":348.13854166666664,"startTick":334213,"startTime":130.55195312499998,"velocity":57},{"channel":0,"duration":0.1875,"durationBeats":0.5,"durationTicks":480,"endBeat":348.85729166666664,"endTick":334903,"endTime":130.82148437499998,"note":44,"startBeat":348.35729166666664,"startTick":334423,"startTime":130.63398437499998,"velocity":68},{"channel":0,"duration":0.09375,"durationBeats":0.25,"durationTicks":240,"endBeat":348.85729166666664,"endTick":334903,"endTime":130.82148437499998,"note":69,"startBeat":348.60729166666664,"startTick":334663,"startTime":130.72773437499998,"velocity":68},{"channel":1,"duration":0.1875,"durationBeats":0.5,"durationTicks":480,"endBeat":348.909375,"endTick":334953,"endTime":130.841015625,"note":33,"startBeat":348.409375,"startTick":334473,"startTime":130.653515625,"velocity":50},{"channel":2,"duration":0.1875,"durationBeats":0.5,"durationTicks":480,"endBeat":349.13854166666664,"endTick":335173,"endTime":130.92695312499998,"note":32,"startBeat":348.63854166666664,"startTick":334693,"startTime":130.73945312499998,"velocity":57},{"channel":0,"duration":0.1875,"durationBeats":0.5,"durationTicks":480,"endBeat":349.35729166666664,"endTick":335383,"endTime":131.00898437499998,"note":60,"startBeat":348.85729166666664,"startTick":334903,"startTime":130.82148437499998,"velocity":68},{"channel":0,"duration":0.1875,"durationBeats":0.5,"durationTicks":480,"endBeat":349.35729166666664,"endTick":335383,"endTime":131.00898437499998,"note":64,"startBeat":348.85729166666664,"startTick":334903,"startTime":130.82148437499998,"velocity":68},{"channel":0,"duration":0.1875,"durationBeats":0.5,"durationTicks":480,"endBeat":349.35729166666664,"endTick":335383,"endTime":131.00898437499998,"note":67,"startBeat":348.85729166666664,"startTick":334903,"startTime":130.82148437499998,"velocity":68},{"channel":0,"duration":0.1875,"durationBeats":0.5,"durationTicks":480,"endBeat":349.35729166666664,"endTick":335383,"endTime":131.00898437499998,"note":72,"startBeat":348.85729166666664,"startTick":334903,"startTime":130.82148437499998,"velocity":68},{"channel":0,"duration":0.1875,"durationBeats":0.5,"durationTicks":480,"endBeat":349.35729166666664,"endTick":335383,"endTime":131.00898437499998,"note":45,"startBeat":348.85729166666664,"startTick":334903,"startTime":130.82148437499998,"velocity":68},{"channel":1,"duration":0.1875,"durationBeats":0.5,"durationTicks":480,"endBeat":349.409375,"endTick":335433,"endTime":131.028515625,"note":32,"startBeat":348.909375,"startTick":334953,"startTime":130.841015625,"velocity":50},{"channel":2,"duration":0.1875,"durationBeats":0.5,"durationTicks":480,"endBeat":349.63854166666664,"endTick":335653,"endTime":131.11445312499998,"note":31,"startBeat":349.13854166666664,"startTick":335173,"startTime":130.92695312499998,"velocity":57},{"channel":1,"duration":0.1875,"durationBeats":0.5,"durationTicks":480,"endBeat":349.909375,"endTick":335913,"endTime":131.216015625,"note":31,"startBeat":349.409375,"startTick":335433,"startTime":131.028515625,"velocity":50},{"channel":0,"duration":0.1875,"durationBeats":0.5,"durationTicks":480,"endBeat":350.35729166666664,"endTick":336343,"endTime":131.38398437499998,"note":39,"startBeat":349.85729166666664,"startTick":335863,"startTime":131.19648437499998,"velocity":68},{"channel":0,"duration":0.1875,"durationBeats":0.5,"durationTicks":480,"endBeat":350.35729166666664,"endTick":336343,"endTime":131.38398437499998,"note":77,"startBeat":349.85729166666664,"startTick":335863,"startTime":131.19648437499998,"velocity":68},{"channel":0,"duration":0.1875,"durationBeats":0.5,"durationTicks":480,"endBeat":350.35729166666664,"endTick":336343,"endTime":131.38398437499998,"note":73,"startBeat":349.85729166666664,"startTick":335863,"startTime":131.19648437499998,"velocity":68},{"channel":0,"duration":0.1875,"durationBeats":0.5,"durationTicks":480,"endBeat":350.35729166666664,"endTick":336343,"endTime":131.38398437499998,"note":70,"startBeat":349.85729166666664,"startTick":335863,"startTime":131.19648437499998,"velocity":68},{"channel":0,"duration":0.1875,"durationBeats":0.5,"durationTicks":480,"endBeat":350.35729166666664,"endTick":336343,"endTime":131.38398437499998,"note":67,"startBeat":349.85729166666664,"startTick":335863,"startTime":131.19648437499998,"velocity":68},{"channel":2,"duration":0.1875,"durationBeats":0.5,"durationTicks":480,"endBeat":350.63854166666664,"endTick":336613,"endTime":131.48945312499998,"note":31,"startBeat":350.13854166666664,"startTick":336133,"startTime":131.30195312499998,"velocity":57},{"channel":1,"duration":0.1875,"durationBeats":0.5,"durationTicks":480,"endBeat":350.909375,"endTick":336873,"endTime":131.591015625,"note":31,"startBeat":350.409375,"startTick":336393,"startTime":131.403515625,"velocity":50},{"channel":2,"duration":0.1875,"durationBeats":0.5,"durationTicks":480,"endBeat":351.13854166666664,"endTick":337093,"endTime":131.67695312499998,"note":32,"startBeat":350.63854166666664,"startTick":336613,"startTime":131.48945312499998,"velocity":57},{"channel":0,"duration":0.1875,"durationBeats":0.5,"durationTicks":480,"endBeat":351.35729166666664,"endTick":337303,"endTime":131.75898437499998,"note":38,"startBeat":350.85729166666664,"startTick":336823,"startTime":131.57148437499998,"velocity":68},{"channel":0,"duration":0.1875,"durationBeats":0.5,"durationTicks":480,"endBeat":351.35729166666664,"endTick":337303,"endTime":131.75898437499998,"note":76,"startBeat":350.85729166666664,"startTick":336823,"startTime":131.57148437499998,"velocity":68},{"channel":0,"duration":0.1875,"durationBeats":0.5,"durationTicks":480,"endBeat":351.35729166666664,"endTick":337303,"endTime":131.75898437499998,"note":72,"startBeat":350.85729166666664,"startTick":336823,"startTime":131.57148437499998,"velocity":68},{"channel":0,"duration":0.1875,"durationBeats":0.5,"durationTicks":480,"endBeat":351.35729166666664,"endTick":337303,"endTime":131.75898437499998,"note":69,"startBeat":350.85729166666664,"startTick":336823,"startTime":131.57148437499998,"velocity":68},{"channel":0,"duration":0.1875,"durationBeats":0.5,"durationTicks":480,"endBeat":351.35729166666664,"endTick":337303,"endTime":131.75898437499998,"note":65,"startBeat":350.85729166666664,"startTick":336823,"startTime":131.57148437499998,"velocity":68},{"channel":1,"duration":0.1875,"durationBeats":0.5,"durationTicks":480,"endBeat":351.409375,"endTick":337353,"endTime":131.778515625,"note":32,"startBeat":350.909375,"startTick":336873,"startTime":131.591015625,"velocity":50},{"channel":2,"duration":0.1875,"durationBeats":0.5,"durationTicks":480,"endBeat":351.63854166666664,"endTick":337573,"endTime":131.86445312499998,"note":33,"startBeat":351.13854166666664,"startTick":337093,"startTime":131.67695312499998,"velocity":57},{"channel":1,"duration":0.1875,"durationBeats":0.5,"durationTicks":480,"endBeat":351.909375,"endTick":337833,"endTime":131.966015625,"note":33,"startBeat":351.409375,"startTick":337353,"startTime":131.778515625,"velocity":50},{"channel":2,"duration":0.09375,"durationBeats":0.25,"durationTicks":240,"endBeat":352.13854166666664,"endTick":338053,"endTime":132.05195312499998,"note":33,"startBeat":351.88854166666664,"startTick":337813,"startTime":131.95820312499998,"velocity":57},{"channel":0,"duration":0.1875,"durationBeats":0.5,"durationTicks":480,"endBeat":352.35729166666664,"endTick":338263,"endTime":132.13398437499998,"note":72,"startBeat":351.85729166666664,"startTick":337783,"startTime":131.94648437499998,"velocity":68},{"channel":1,"duration":0.09375,"durationBeats":0.25,"durationTicks":240,"endBeat":352.409375,"endTick":338313,"endTime":132.153515625,"note":33,"startBeat":352.159375,"startTick":338073,"startTime":132.059765625,"velocity":50},{"channel":0,"duration":0.1875,"durationBeats":0.5,"durationTicks":480,"endBeat":352.85729166666664,"endTick":338743,"endTime":132.32148437499998,"note":65,"startBeat":352.35729166666664,"startTick":338263,"startTime":132.13398437499998,"velocity":68},{"channel":0,"duration":0.1875,"durationBeats":0.5,"durationTicks":480,"endBeat":352.85729166666664,"endTick":338743,"endTime":132.32148437499998,"note":69,"startBeat":352.35729166666664,"startTick":338263,"startTime":132.13398437499998,"velocity":68},{"channel":2,"duration":0.1875,"durationBeats":0.5,"durationTicks":480,"endBeat":353.13854166666664,"endTick":339013,"endTime":132.42695312499998,"note":38,"startBeat":352.63854166666664,"startTick":338533,"startTime":132.23945312499998,"velocity":57},{"channel":2,"duration":0.1875,"durationBeats":0.5,"durationTicks":480,"endBeat":353.13854166666664,"endTick":339013,"endTime":132.42695312499998,"note":26,"startBeat":352.63854166666664,"startTick":338533,"startTime":132.23945312499998,"velocity":57},{"channel":0,"duration":0.1875,"durationBeats":0.5,"durationTicks":480,"endBeat":353.35729166666664,"endTick":339223,"endTime":132.50898437499998,"note":64,"startBeat":352.85729166666664,"startTick":338743,"startTime":132.32148437499998,"velocity":68},{"channel":0,"duration":0.1875,"durationBeats":0.5,"durationTicks":480,"endBeat":353.35729166666664,"endTick":339223,"endTime":132.50898437499998,"note":67,"startBeat":352.85729166666664,"startTick":338743,"startTime":132.32148437499998,"velocity":68},{"channel":1,"duration":0.1875,"durationBeats":0.5,"durationTicks":480,"endBeat":353.409375,"endTick":339273,"endTime":132.528515625,"note":38,"startBeat":352.909375,"startTick":338793,"startTime":132.341015625,"velocity":50},{"channel":1,"duration":0.1875,"durationBeats":0.5,"durationTicks":480,"endBeat":353.409375,"endTick":339273,"endTime":132.528515625,"note":26,"startBeat":352.909375,"startTick":338793,"startTime":132.341015625,"velocity":50},{"channel":0,"duration":0.375,"durationBeats":1,"durationTicks":960,"endBeat":353.85729166666664,"endTick":339703,"endTime":132.69648437499998,"note":36,"startBeat":352.85729166666664,"startTick":338743,"startTime":132.32148437499998,"velocity":68},{"channel":0,"duration":0.1875,"durationBeats":0.5,"durationTicks":480,"endBeat":353.85729166666664,"endTick":339703,"endTime":132.69648437499998,"note":62,"startBeat":353.35729166666664,"startTick":339223,"startTime":132.50898437499998,"velocity":68},{"channel":0,"duration":0.1875,"durationBeats":0.5,"durationTicks":480,"endBeat":353.85729166666664,"endTick":339703,"endTime":132.69648437499998,"note":65,"startBeat":353.35729166666664,"startTick":339223,"startTime":132.50898437499998,"velocity":68},{"channel":0,"duration":0.1875,"durationBeats":0.5,"durationTicks":480,"endBeat":354.35729166666664,"endTick":340183,"endTime":132.88398437499998,"note":60,"startBeat":353.85729166666664,"startTick":339703,"startTime":132.69648437499998,"velocity":68},{"channel":0,"duration":0.1875,"durationBeats":0.5,"durationTicks":480,"endBeat":354.35729166666664,"endTick":340183,"endTime":132.88398437499998,"note":64,"startBeat":353.85729166666664,"startTick":339703,"startTime":132.69648437499998,"velocity":68},{"channel":2,"duration":0.1875,"durationBeats":0.5,"durationTicks":480,"endBeat":354.63854166666664,"endTick":340453,"endTime":132.98945312499998,"note":26,"startBeat":354.13854166666664,"startTick":339973,"startTime":132.80195312499998,"velocity":57},{"channel":0,"duration":0.375,"durationBeats":1,"durationTicks":960,"endBeat":354.85729166666664,"endTick":340663,"endTime":133.07148437499998,"note":41,"startBeat":353.85729166666664,"startTick":339703,"startTime":132.69648437499998,"velocity":68},{"channel":0,"duration":0.1875,"durationBeats":0.5,"durationTicks":480,"endBeat":354.85729166666664,"endTick":340663,"endTime":133.07148437499998,"note":57,"startBeat":354.35729166666664,"startTick":340183,"startTime":132.88398437499998,"velocity":68},{"channel":0,"duration":0.1875,"durationBeats":0.5,"durationTicks":480,"endBeat":354.85729166666664,"endTick":340663,"endTime":133.07148437499998,"note":60,"startBeat":354.35729166666664,"startTick":340183,"startTime":132.88398437499998,"velocity":68},{"channel":1,"duration":0.1875,"durationBeats":0.5,"durationTicks":480,"endBeat":354.909375,"endTick":340713,"endTime":133.091015625,"note":26,"startBeat":354.409375,"startTick":340233,"startTime":132.903515625,"velocity":50},{"channel":2,"duration":0.1875,"durationBeats":0.5,"durationTicks":480,"endBeat":355.13854166666664,"endTick":340933,"endTime":133.17695312499998,"note":33,"startBeat":354.63854166666664,"startTick":340453,"startTime":132.98945312499998,"velocity":57},{"channel":1,"duration":0.1875,"durationBeats":0.5,"durationTicks":480,"endBeat":355.409375,"endTick":341193,"endTime":133.278515625,"note":33,"startBeat":354.909375,"startTick":340713,"startTime":133.091015625,"velocity":50},{"channel":0,"duration":0.375,"durationBeats":1,"durationTicks":960,"endBeat":355.85729166666664,"endTick":341623,"endTime":133.44648437499998,"note":34,"startBeat":354.85729166666664,"startTick":340663,"startTime":133.07148437499998,"velocity":68},{"channel":0,"duration":0.1875,"durationBeats":0.5,"durationTicks":480,"endBeat":355.85729166666664,"endTick":341623,"endTime":133.44648437499998,"note":53,"startBeat":355.35729166666664,"startTick":341143,"startTime":133.25898437499998,"velocity":68},{"channel":0,"duration":0.1875,"durationBeats":0.5,"durationTicks":480,"endBeat":355.85729166666664,"endTick":341623,"endTime":133.44648437499998,"note":57,"startBeat":355.35729166666664,"startTick":341143,"startTime":133.25898437499998,"velocity":68},{"channel":2,"duration":0.1875,"durationBeats":0.5,"durationTicks":480,"endBeat":356.13854166666664,"endTick":341893,"endTime":133.55195312499998,"note":26,"startBeat":355.63854166666664,"startTick":341413,"startTime":133.36445312499998,"velocity":57},{"channel":0,"duration":0.1875,"durationBeats":0.5,"durationTicks":480,"endBeat":356.35729166666664,"endTick":342103,"endTime":133.63398437499998,"note":58,"startBeat":355.85729166666664,"startTick":341623,"startTime":133.44648437499998,"velocity":68},{"channel":1,"duration":0.1875,"durationBeats":0.5,"durationTicks":480,"endBeat":356.409375,"endTick":342153,"endTime":133.653515625,"note":26,"startBeat":355.909375,"startTick":341673,"startTime":133.466015625,"velocity":50},{"channel":2,"duration":0.1875,"durationBeats":0.5,"durationTicks":480,"endBeat":356.63854166666664,"endTick":342373,"endTime":133.73945312499998,"note":33,"startBeat":356.13854166666664,"startTick":341893,"startTime":133.55195312499998,"velocity":57},{"channel":0,"duration":0.375,"durationBeats":1,"durationTicks":960,"endBeat":356.85729166666664,"endTick":342583,"endTime":133.82148437499998,"note":50,"startBeat":355.85729166666664,"startTick":341623,"startTime":133.44648437499998,"velocity":68},{"channel":0,"duration":0.375,"durationBeats":1,"durationTicks":960,"endBeat":356.85729166666664,"endTick":342583,"endTime":133.82148437499998,"note":38,"startBeat":355.85729166666664,"startTick":341623,"startTime":133.44648437499998,"velocity":68},{"channel":0,"duration":0.1875,"durationBeats":0.5,"durationTicks":480,"endBeat":356.85729166666664,"endTick":342583,"endTime":133.82148437499998,"note":57,"startBeat":356.35729166666664,"startTick":342103,"startTime":133.63398437499998,"velocity":68},{"channel":0,"duration":0.1875,"durationBeats":0.5,"durationTicks":480,"endBeat":356.85729166666664,"endTick":342583,"endTime":133.82148437499998,"note":60,"startBeat":356.35729166666664,"startTick":342103,"startTime":133.63398437499998,"velocity":68},{"channel":1,"duration":0.1875,"durationBeats":0.5,"durationTicks":480,"endBeat":356.909375,"endTick":342633,"endTime":133.841015625,"note":33,"startBeat":356.409375,"startTick":342153,"startTime":133.653515625,"velocity":50},{"channel":2,"duration":0.1875,"durationBeats":0.5,"durationTicks":480,"endBeat":357.13854166666664,"endTick":342853,"endTime":133.92695312499998,"note":32,"startBeat":356.63854166666664,"startTick":342373,"startTime":133.73945312499998,"velocity":57},{"channel":0,"duration":0.1875,"durationBeats":0.5,"durationTicks":480,"endBeat":357.35729166666664,"endTick":343063,"endTime":134.00898437499998,"note":58,"startBeat":356.85729166666664,"startTick":342583,"startTime":133.82148437499998,"velocity":68},{"channel":0,"duration":0.1875,"durationBeats":0.5,"durationTicks":480,"endBeat":357.35729166666664,"endTick":343063,"endTime":134.00898437499998,"note":62,"startBeat":356.85729166666664,"startTick":342583,"startTime":133.82148437499998,"velocity":68},{"channel":1,"duration":0.1875,"durationBeats":0.5,"durationTicks":480,"endBeat":357.409375,"endTick":343113,"endTime":134.028515625,"note":32,"startBeat":356.909375,"startTick":342633,"startTime":133.841015625,"velocity":50},{"channel":2,"duration":0.1875,"durationBeats":0.5,"durationTicks":480,"endBeat":357.63854166666664,"endTick":343333,"endTime":134.11445312499998,"note":31,"startBeat":357.13854166666664,"startTick":342853,"startTime":133.92695312499998,"velocity":57},{"channel":0,"duration":0.375,"durationBeats":1,"durationTicks":960,"endBeat":357.85729166666664,"endTick":343543,"endTime":134.19648437499998,"note":40,"startBeat":356.85729166666664,"startTick":342583,"startTime":133.82148437499998,"velocity":68},{"channel":0,"duration":0.1875,"durationBeats":0.5,"durationTicks":480,"endBeat":357.85729166666664,"endTick":343543,"endTime":134.19648437499998,"note":60,"startBeat":357.35729166666664,"startTick":343063,"startTime":134.00898437499998,"velocity":68},{"channel":0,"duration":0.1875,"durationBeats":0.5,"durationTicks":480,"endBeat":357.85729166666664,"endTick":343543,"endTime":134.19648437499998,"note":64,"startBeat":357.35729166666664,"startTick":343063,"startTime":134.00898437499998,"velocity":68},{"channel":1,"duration":0.1875,"durationBeats":0.5,"durationTicks":480,"endBeat":357.909375,"endTick":343593,"endTime":134.216015625,"note":31,"startBeat":357.409375,"startTick":343113,"startTime":134.028515625,"velocity":50},{"channel":0,"duration":0.1875,"durationBeats":0.5,"durationTicks":480,"endBeat":358.35729166666664,"endTick":344023,"endTime":134.38398437499998,"note":62,"startBeat":357.85729166666664,"startTick":343543,"startTime":134.19648437499998,"velocity":68},{"channel":0,"duration":0.1875,"durationBeats":0.5,"durationTicks":480,"endBeat":358.35729166666664,"endTick":344023,"endTime":134.38398437499998,"note":65,"startBeat":357.85729166666664,"startTick":343543,"startTime":134.19648437499998,"velocity":68},{"channel":2,"duration":0.1875,"durationBeats":0.5,"durationTicks":480,"endBeat":358.63854166666664,"endTick":344293,"endTime":134.48945312499998,"note":31,"startBeat":358.13854166666664,"startTick":343813,"startTime":134.30195312499998,"velocity":57},{"channel":0,"duration":0.375,"durationBeats":1,"durationTicks":960,"endBeat":358.85729166666664,"endTick":344503,"endTime":134.57148437499998,"note":43,"startBeat":357.85729166666664,"startTick":343543,"startTime":134.19648437499998,"velocity":68},{"channel":0,"duration":0.1875,"durationBeats":0.5,"durationTicks":480,"endBeat":358.85729166666664,"endTick":344503,"endTime":134.57148437499998,"note":64,"startBeat":358.35729166666664,"startTick":344023,"startTime":134.38398437499998,"velocity":68},{"channel":0,"duration":0.1875,"durationBeats":0.5,"durationTicks":480,"endBeat":358.85729166666664,"endTick":344503,"endTime":134.57148437499998,"note":67,"startBeat":358.35729166666664,"startTick":344023,"startTime":134.38398437499998,"velocity":68},{"channel":1,"duration":0.1875,"durationBeats":0.5,"durationTicks":480,"endBeat":358.909375,"endTick":344553,"endTime":134.591015625,"note":31,"startBeat":358.409375,"startTick":344073,"startTime":134.403515625,"velocity":50},{"channel":2,"duration":0.1875,"durationBeats":0.5,"durationTicks":480,"endBeat":359.13854166666664,"endTick":344773,"endTime":134.67695312499998,"note":32,"startBeat":358.63854166666664,"startTick":344293,"startTime":134.48945312499998,"velocity":57},{"channel":0,"duration":0.1875,"durationBeats":0.5,"durationTicks":480,"endBeat":359.35729166666664,"endTick":344983,"endTime":134.75898437499998,"note":45,"startBeat":358.85729166666664,"startTick":344503,"startTime":134.57148437499998,"velocity":68},{"channel":0,"duration":0.1875,"durationBeats":0.5,"durationTicks":480,"endBeat":359.35729166666664,"endTick":344983,"endTime":134.75898437499998,"note":61,"startBeat":358.85729166666664,"startTick":344503,"startTime":134.57148437499998,"velocity":68},{"channel":0,"duration":0.1875,"durationBeats":0.5,"durationTicks":480,"endBeat":359.35729166666664,"endTick":344983,"endTime":134.75898437499998,"note":64,"startBeat":358.85729166666664,"startTick":344503,"startTime":134.57148437499998,"velocity":68},{"channel":1,"duration":0.1875,"durationBeats":0.5,"durationTicks":480,"endBeat":359.409375,"endTick":345033,"endTime":134.778515625,"note":32,"startBeat":358.909375,"startTick":344553,"startTime":134.591015625,"velocity":50},{"channel":0,"duration":0.046875,"durationBeats":0.125,"durationTicks":120,"endBeat":359.48229166666664,"endTick":345103,"endTime":134.80585937499998,"note":45,"startBeat":359.35729166666664,"startTick":344983,"startTime":134.75898437499998,"velocity":68},{"channel":2,"duration":0.1875,"durationBeats":0.5,"durationTicks":480,"endBeat":359.63854166666664,"endTick":345253,"endTime":134.86445312499998,"note":33,"startBeat":359.13854166666664,"startTick":344773,"startTime":134.67695312499998,"velocity":57},{"channel":0,"duration":0.046875,"durationBeats":0.125,"durationTicks":120,"endBeat":359.73229166666664,"endTick":345343,"endTime":134.89960937499998,"note":45,"startBeat":359.60729166666664,"startTick":345223,"startTime":134.85273437499998,"velocity":68},{"channel":1,"duration":0.1875,"durationBeats":0.5,"durationTicks":480,"endBeat":359.909375,"endTick":345513,"endTime":134.966015625,"note":33,"startBeat":359.409375,"startTick":345033,"startTime":134.778515625,"velocity":50},{"channel":2,"duration":0.09375,"durationBeats":0.25,"durationTicks":240,"endBeat":360.13854166666664,"endTick":345733,"endTime":135.05195312499998,"note":33,"startBeat":359.88854166666664,"startTick":345493,"startTime":134.95820312499998,"velocity":57},{"channel":0,"duration":0.1875,"durationBeats":0.5,"durationTicks":480,"endBeat":360.35729166666664,"endTick":345943,"endTime":135.13398437499998,"note":45,"startBeat":359.85729166666664,"startTick":345463,"startTime":134.94648437499998,"velocity":68},{"channel":0,"duration":0.1875,"durationBeats":0.5,"durationTicks":480,"endBeat":360.35729166666664,"endTick":345943,"endTime":135.13398437499998,"note":69,"startBeat":359.85729166666664,"startTick":345463,"startTime":134.94648437499998,"velocity":68},{"channel":0,"duration":0.1875,"durationBeats":0.5,"durationTicks":480,"endBeat":360.35729166666664,"endTick":345943,"endTime":135.13398437499998,"note":64,"startBeat":359.85729166666664,"startTick":345463,"startTime":134.94648437499998,"velocity":68},{"channel":0,"duration":0.1875,"durationBeats":0.5,"durationTicks":480,"endBeat":360.35729166666664,"endTick":345943,"endTime":135.13398437499998,"note":61,"startBeat":359.85729166666664,"startTick":345463,"startTime":134.94648437499998,"velocity":68},{"channel":1,"duration":0.09375,"durationBeats":0.25,"durationTicks":240,"endBeat":360.409375,"endTick":345993,"endTime":135.153515625,"note":33,"startBeat":360.159375,"startTick":345753,"startTime":135.059765625,"velocity":50},{"channel":0,"duration":0.1875,"durationBeats":0.5,"durationTicks":480,"endBeat":360.85729166666664,"endTick":346423,"endTime":135.32148437499998,"note":33,"startBeat":360.35729166666664,"startTick":345943,"startTime":135.13398437499998,"velocity":68},{"channel":2,"duration":0.1875,"durationBeats":0.5,"durationTicks":480,"endBeat":361.13854166666664,"endTick":346693,"endTime":135.42695312499998,"note":26,"startBeat":360.63854166666664,"startTick":346213,"startTime":135.23945312499998,"velocity":57},{"channel":0,"duration":0.1875,"durationBeats":0.5,"durationTicks":480,"endBeat":361.35729166666664,"endTick":346903,"endTime":135.50898437499998,"note":45,"startBeat":360.85729166666664,"startTick":346423,"startTime":135.32148437499998,"velocity":68},{"channel":0,"duration":0.1875,"durationBeats":0.5,"durationTicks":480,"endBeat":361.35729166666664,"endTick":346903,"endTime":135.50898437499998,"note":81,"startBeat":360.85729166666664,"startTick":346423,"startTime":135.32148437499998,"velocity":68},{"channel":0,"duration":0.1875,"durationBeats":0.5,"durationTicks":480,"endBeat":361.35729166666664,"endTick":346903,"endTime":135.50898437499998,"note":76,"startBeat":360.85729166666664,"startTick":346423,"startTime":135.32148437499998,"velocity":68},{"channel":0,"duration":0.1875,"durationBeats":0.5,"durationTicks":480,"endBeat":361.35729166666664,"endTick":346903,"endTime":135.50898437499998,"note":73,"startBeat":360.85729166666664,"startTick":346423,"startTime":135.32148437499998,"velocity":68},{"channel":1,"duration":0.1875,"durationBeats":0.5,"durationTicks":480,"endBeat":361.409375,"endTick":346953,"endTime":135.528515625,"note":26,"startBeat":360.909375,"startTick":346473,"startTime":135.341015625,"velocity":50},{"channel":0,"duration":0.1875,"durationBeats":0.5,"durationTicks":480,"endBeat":361.85729166666664,"endTick":347383,"endTime":135.69648437499998,"note":45,"startBeat":361.35729166666664,"startTick":346903,"startTime":135.50898437499998,"velocity":68},{"channel":0,"duration":0.1875,"durationBeats":0.5,"durationTicks":480,"endBeat":361.85729166666664,"endTick":347383,"endTime":135.69648437499998,"note":33,"startBeat":361.35729166666664,"startTick":346903,"startTime":135.50898437499998,"velocity":68},{"channel":2,"duration":0.1875,"durationBeats":0.5,"durationTicks":480,"endBeat":362.13854166666664,"endTick":347653,"endTime":135.80195312499998,"note":38,"startBeat":361.63854166666664,"startTick":347173,"startTime":135.61445312499998,"velocity":57},{"channel":0,"duration":0.1875,"durationBeats":0.5,"durationTicks":480,"endBeat":362.35729166666664,"endTick":347863,"endTime":135.88398437499998,"note":33,"startBeat":361.85729166666664,"startTick":347383,"startTime":135.69648437499998,"velocity":68},{"channel":0,"duration":0.1875,"durationBeats":0.5,"durationTicks":480,"endBeat":362.35729166666664,"endTick":347863,"endTime":135.88398437499998,"note":45,"startBeat":361.85729166666664,"startTick":347383,"startTime":135.69648437499998,"velocity":68},{"channel":0,"duration":0.1875,"durationBeats":0.5,"durationTicks":480,"endBeat":362.35729166666664,"endTick":347863,"endTime":135.88398437499998,"note":72,"startBeat":361.85729166666664,"startTick":347383,"startTime":135.69648437499998,"velocity":68},{"channel":0,"duration":0.1875,"durationBeats":0.5,"durationTicks":480,"endBeat":362.35729166666664,"endTick":347863,"endTime":135.88398437499998,"note":67,"startBeat":361.85729166666664,"startTick":347383,"startTime":135.69648437499998,"velocity":68},{"channel":0,"duration":0.1875,"durationBeats":0.5,"durationTicks":480,"endBeat":362.35729166666664,"endTick":347863,"endTime":135.88398437499998,"note":61,"startBeat":361.85729166666664,"startTick":347383,"startTime":135.69648437499998,"velocity":68},{"channel":1,"duration":0.1875,"durationBeats":0.5,"durationTicks":480,"endBeat":362.409375,"endTick":347913,"endTime":135.903515625,"note":38,"startBeat":361.909375,"startTick":347433,"startTime":135.716015625,"velocity":50},{"channel":0,"duration":0.09375,"durationBeats":0.25,"durationTicks":240,"endBeat":362.60729166666664,"endTick":348103,"endTime":135.97773437499998,"note":71,"startBeat":362.35729166666664,"startTick":347863,"startTime":135.88398437499998,"velocity":68},{"channel":2,"duration":0.1875,"durationBeats":0.5,"durationTicks":480,"endBeat":362.63854166666664,"endTick":348133,"endTime":135.98945312499998,"note":26,"startBeat":362.13854166666664,"startTick":347653,"startTime":135.80195312499998,"velocity":57},{"channel":0,"duration":0.1875,"durationBeats":0.5,"durationTicks":480,"endBeat":362.85729166666664,"endTick":348343,"endTime":136.07148437499998,"note":45,"startBeat":362.35729166666664,"startTick":347863,"startTime":135.88398437499998,"velocity":68},{"channel":0,"duration":0.1875,"durationBeats":0.5,"durationTicks":480,"endBeat":362.85729166666664,"endTick":348343,"endTime":136.07148437499998,"note":33,"startBeat":362.35729166666664,"startTick":347863,"startTime":135.88398437499998,"velocity":68},{"channel":0,"duration":0.09375,"durationBeats":0.25,"durationTicks":240,"endBeat":362.85729166666664,"endTick":348343,"endTime":136.07148437499998,"note":70,"startBeat":362.60729166666664,"startTick":348103,"startTime":135.97773437499998,"velocity":68},{"channel":1,"duration":0.1875,"durationBeats":0.5,"durationTicks":480,"endBeat":362.909375,"endTick":348393,"endTime":136.091015625,"note":26,"startBeat":362.409375,"startTick":347913,"startTime":135.903515625,"velocity":50},{"channel":2,"duration":0.1875,"durationBeats":0.5,"durationTicks":480,"endBeat":363.13854166666664,"endTick":348613,"endTime":136.17695312499998,"note":33,"startBeat":362.63854166666664,"startTick":348133,"startTime":135.98945312499998,"velocity":57},{"channel":0,"duration":0.1875,"durationBeats":0.5,"durationTicks":480,"endBeat":363.35729166666664,"endTick":348823,"endTime":136.25898437499998,"note":31,"startBeat":362.85729166666664,"startTick":348343,"startTime":136.07148437499998,"velocity":68},{"channel":1,"duration":0.1875,"durationBeats":0.5,"durationTicks":480,"endBeat":363.409375,"endTick":348873,"endTime":136.278515625,"note":33,"startBeat":362.909375,"startTick":348393,"startTime":136.091015625,"velocity":50},{"channel":0,"duration":0.375,"durationBeats":1,"durationTicks":960,"endBeat":363.85729166666664,"endTick":349303,"endTime":136.44648437499998,"note":69,"startBeat":362.85729166666664,"startTick":348343,"startTime":136.07148437499998,"velocity":68},{"channel":0,"duration":0.375,"durationBeats":1,"durationTicks":960,"endBeat":363.85729166666664,"endTick":349303,"endTime":136.44648437499998,"note":65,"startBeat":362.85729166666664,"startTick":348343,"startTime":136.07148437499998,"velocity":68},{"channel":0,"duration":0.375,"durationBeats":1,"durationTicks":960,"endBeat":363.85729166666664,"endTick":349303,"endTime":136.44648437499998,"note":62,"startBeat":362.85729166666664,"startTick":348343,"startTime":136.07148437499998,"velocity":68},{"channel":0,"duration":0.375,"durationBeats":1,"durationTicks":960,"endBeat":363.85729166666664,"endTick":349303,"endTime":136.44648437499998,"note":58,"startBeat":362.85729166666664,"startTick":348343,"startTime":136.07148437499998,"velocity":68},{"channel":2,"duration":0.1875,"durationBeats":0.5,"durationTicks":480,"endBeat":364.13854166666664,"endTick":349573,"endTime":136.55195312499998,"note":26,"startBeat":363.63854166666664,"startTick":349093,"startTime":136.36445312499998,"velocity":57},{"channel":0,"duration":0.1875,"durationBeats":0.5,"durationTicks":480,"endBeat":364.35729166666664,"endTick":349783,"endTime":136.63398437499998,"note":31,"startBeat":363.85729166666664,"startTick":349303,"startTime":136.44648437499998,"velocity":68},{"channel":1,"duration":0.1875,"durationBeats":0.5,"durationTicks":480,"endBeat":364.409375,"endTick":349833,"endTime":136.653515625,"note":26,"startBeat":363.909375,"startTick":349353,"startTime":136.466015625,"velocity":50},{"channel":2,"duration":0.1875,"durationBeats":0.5,"durationTicks":480,"endBeat":364.63854166666664,"endTick":350053,"endTime":136.73945312499998,"note":33,"startBeat":364.13854166666664,"startTick":349573,"startTime":136.55195312499998,"velocity":57},{"channel":1,"duration":0.1875,"durationBeats":0.5,"durationTicks":480,"endBeat":364.909375,"endTick":350313,"endTime":136.841015625,"note":33,"startBeat":364.409375,"startTick":349833,"startTime":136.653515625,"velocity":50},{"channel":2,"duration":0.1875,"durationBeats":0.5,"durationTicks":480,"endBeat":365.13854166666664,"endTick":350533,"endTime":136.92695312499998,"note":32,"startBeat":364.63854166666664,"startTick":350053,"startTime":136.73945312499998,"velocity":57},{"channel":0,"duration":0.1875,"durationBeats":0.5,"durationTicks":480,"endBeat":365.35729166666664,"endTick":350743,"endTime":137.00898437499998,"note":33,"startBeat":364.85729166666664,"startTick":350263,"startTime":136.82148437499998,"velocity":68},{"channel":0,"duration":0.1875,"durationBeats":0.5,"durationTicks":480,"endBeat":365.35729166666664,"endTick":350743,"endTime":137.00898437499998,"note":60,"startBeat":364.85729166666664,"startTick":350263,"startTime":136.82148437499998,"velocity":68},{"channel":0,"duration":0.1875,"durationBeats":0.5,"durationTicks":480,"endBeat":365.35729166666664,"endTick":350743,"endTime":137.00898437499998,"note":64,"startBeat":364.85729166666664,"startTick":350263,"startTime":136.82148437499998,"velocity":68},{"channel":0,"duration":0.1875,"durationBeats":0.5,"durationTicks":480,"endBeat":365.35729166666664,"endTick":350743,"endTime":137.00898437499998,"note":67,"startBeat":364.85729166666664,"startTick":350263,"startTime":136.82148437499998,"velocity":68},{"channel":0,"duration":0.1875,"durationBeats":0.5,"durationTicks":480,"endBeat":365.35729166666664,"endTick":350743,"endTime":137.00898437499998,"note":72,"startBeat":364.85729166666664,"startTick":350263,"startTime":136.82148437499998,"velocity":68},{"channel":1,"duration":0.1875,"durationBeats":0.5,"durationTicks":480,"endBeat":365.409375,"endTick":350793,"endTime":137.028515625,"note":32,"startBeat":364.909375,"startTick":350313,"startTime":136.841015625,"velocity":50},{"channel":2,"duration":0.1875,"durationBeats":0.5,"durationTicks":480,"endBeat":365.63854166666664,"endTick":351013,"endTime":137.11445312499998,"note":31,"startBeat":365.13854166666664,"startTick":350533,"startTime":136.92695312499998,"velocity":57},{"channel":1,"duration":0.1875,"durationBeats":0.5,"durationTicks":480,"endBeat":365.909375,"endTick":351273,"endTime":137.216015625,"note":31,"startBeat":365.409375,"startTick":350793,"startTime":137.028515625,"velocity":50},{"channel":0,"duration":0.1875,"durationBeats":0.5,"durationTicks":480,"endBeat":366.10729166666664,"endTick":351463,"endTime":137.29023437499998,"note":33,"startBeat":365.60729166666664,"startTick":350983,"startTime":137.10273437499998,"velocity":68},{"channel":0,"duration":0.1875,"durationBeats":0.5,"durationTicks":480,"endBeat":366.35729166666664,"endTick":351703,"endTime":137.38398437499998,"note":70,"startBeat":365.85729166666664,"startTick":351223,"startTime":137.19648437499998,"velocity":68},{"channel":0,"duration":0.1875,"durationBeats":0.5,"durationTicks":480,"endBeat":366.35729166666664,"endTick":351703,"endTime":137.38398437499998,"note":67,"startBeat":365.85729166666664,"startTick":351223,"startTime":137.19648437499998,"velocity":68},{"channel":0,"duration":0.1875,"durationBeats":0.5,"durationTicks":480,"endBeat":366.35729166666664,"endTick":351703,"endTime":137.38398437499998,"note":65,"startBeat":365.85729166666664,"startTick":351223,"startTime":137.19648437499998,"velocity":68},{"channel":0,"duration":0.1875,"durationBeats":0.5,"durationTicks":480,"endBeat":366.35729166666664,"endTick":351703,"endTime":137.38398437499998,"note":61,"startBeat":365.85729166666664,"startTick":351223,"startTime":137.19648437499998,"velocity":68},{"channel":2,"duration":0.1875,"durationBeats":0.5,"durationTicks":480,"endBeat":366.63854166666664,"endTick":351973,"endTime":137.48945312499998,"note":31,"startBeat":366.13854166666664,"startTick":351493,"startTime":137.30195312499998,"velocity":57},{"channel":0,"duration":0.1875,"durationBeats":0.5,"durationTicks":480,"endBeat":366.85729166666664,"endTick":352183,"endTime":137.57148437499998,"note":33,"startBeat":366.35729166666664,"startTick":351703,"startTime":137.38398437499998,"velocity":68},{"channel":1,"duration":0.1875,"durationBeats":0.5,"durationTicks":480,"endBeat":366.909375,"endTick":352233,"endTime":137.591015625,"note":31,"startBeat":366.409375,"startTick":351753,"startTime":137.403515625,"velocity":50},{"channel":2,"duration":0.1875,"durationBeats":0.5,"durationTicks":480,"endBeat":367.13854166666664,"endTick":352453,"endTime":137.67695312499998,"note":32,"startBeat":366.63854166666664,"startTick":351973,"startTime":137.48945312499998,"velocity":57},{"channel":0,"duration":0.1875,"durationBeats":0.5,"durationTicks":480,"endBeat":367.35729166666664,"endTick":352663,"endTime":137.75898437499998,"note":26,"startBeat":366.85729166666664,"startTick":352183,"startTime":137.57148437499998,"velocity":68},{"channel":0,"duration":0.1875,"durationBeats":0.5,"durationTicks":480,"endBeat":367.35729166666664,"endTick":352663,"endTime":137.75898437499998,"note":69,"startBeat":366.85729166666664,"startTick":352183,"startTime":137.57148437499998,"velocity":68},{"channel":0,"duration":0.1875,"durationBeats":0.5,"durationTicks":480,"endBeat":367.35729166666664,"endTick":352663,"endTime":137.75898437499998,"note":65,"startBeat":366.85729166666664,"startTick":352183,"startTime":137.57148437499998,"velocity":68},{"channel":0,"duration":0.1875,"durationBeats":0.5,"durationTicks":480,"endBeat":367.35729166666664,"endTick":352663,"endTime":137.75898437499998,"note":64,"startBeat":366.85729166666664,"startTick":352183,"startTime":137.57148437499998,"velocity":68},{"channel":0,"duration":0.1875,"durationBeats":0.5,"durationTicks":480,"endBeat":367.35729166666664,"endTick":352663,"endTime":137.75898437499998,"note":60,"startBeat":366.85729166666664,"startTick":352183,"startTime":137.57148437499998,"velocity":68},{"channel":1,"duration":0.1875,"durationBeats":0.5,"durationTicks":480,"endBeat":367.409375,"endTick":352713,"endTime":137.778515625,"note":32,"startBeat":366.909375,"startTick":352233,"startTime":137.591015625,"velocity":50},{"channel":2,"duration":0.1875,"durationBeats":0.5,"durationTicks":480,"endBeat":367.63854166666664,"endTick":352933,"endTime":137.86445312499998,"note":33,"startBeat":367.13854166666664,"startTick":352453,"startTime":137.67695312499998,"velocity":57},{"channel":1,"duration":0.1875,"durationBeats":0.5,"durationTicks":480,"endBeat":367.909375,"endTick":353193,"endTime":137.966015625,"note":33,"startBeat":367.409375,"startTick":352713,"startTime":137.778515625,"velocity":50},{"channel":2,"duration":0.09375,"durationBeats":0.25,"durationTicks":240,"endBeat":368.13854166666664,"endTick":353413,"endTime":138.05195312499998,"note":33,"startBeat":367.88854166666664,"startTick":353173,"startTime":137.95820312499998,"velocity":57},{"channel":0,"duration":0.1875,"durationBeats":0.5,"durationTicks":480,"endBeat":368.35729166666664,"endTick":353623,"endTime":138.13398437499998,"note":26,"startBeat":367.85729166666664,"startTick":353143,"startTime":137.94648437499998,"velocity":68},{"channel":1,"duration":0.09375,"durationBeats":0.25,"durationTicks":240,"endBeat":368.409375,"endTick":353673,"endTime":138.153515625,"note":33,"startBeat":368.159375,"startTick":353433,"startTime":138.059765625,"velocity":50},{"channel":2,"duration":0.1875,"durationBeats":0.5,"durationTicks":480,"endBeat":369.13854166666664,"endTick":354373,"endTime":138.42695312499998,"note":26,"startBeat":368.63854166666664,"startTick":353893,"startTime":138.23945312499998,"velocity":57},{"channel":0,"duration":0.1875,"durationBeats":0.5,"durationTicks":480,"endBeat":369.35729166666664,"endTick":354583,"endTime":138.50898437499998,"note":38,"startBeat":368.85729166666664,"startTick":354103,"startTime":138.32148437499998,"velocity":68},{"channel":0,"duration":0.1875,"durationBeats":0.5,"durationTicks":480,"endBeat":369.35729166666664,"endTick":354583,"endTime":138.50898437499998,"note":65,"startBeat":368.85729166666664,"startTick":354103,"startTime":138.32148437499998,"velocity":68},{"channel":0,"duration":0.1875,"durationBeats":0.5,"durationTicks":480,"endBeat":369.35729166666664,"endTick":354583,"endTime":138.50898437499998,"note":69,"startBeat":368.85729166666664,"startTick":354103,"startTime":138.32148437499998,"velocity":68},{"channel":0,"duration":0.1875,"durationBeats":0.5,"durationTicks":480,"endBeat":369.35729166666664,"endTick":354583,"endTime":138.50898437499998,"note":60,"startBeat":368.85729166666664,"startTick":354103,"startTime":138.32148437499998,"velocity":68},{"channel":0,"duration":0.1875,"durationBeats":0.5,"durationTicks":480,"endBeat":369.35729166666664,"endTick":354583,"endTime":138.50898437499998,"note":64,"startBeat":368.85729166666664,"startTick":354103,"startTime":138.32148437499998,"velocity":68},{"channel":1,"duration":0.1875,"durationBeats":0.5,"durationTicks":480,"endBeat":369.409375,"endTick":354633,"endTime":138.528515625,"note":26,"startBeat":368.909375,"startTick":354153,"startTime":138.341015625,"velocity":50},{"channel":0,"duration":0.1875,"durationBeats":0.5,"durationTicks":480,"endBeat":370.10729166666664,"endTick":355303,"endTime":138.79023437499998,"note":33,"startBeat":369.60729166666664,"startTick":354823,"startTime":138.60273437499998,"velocity":68},{"channel":2,"duration":0.1875,"durationBeats":0.5,"durationTicks":480,"endBeat":370.13854166666664,"endTick":355333,"endTime":138.80195312499998,"note":38,"startBeat":369.63854166666664,"startTick":354853,"startTime":138.61445312499998,"velocity":57},{"channel":0,"duration":0.1875,"durationBeats":0.5,"durationTicks":480,"endBeat":370.35729166666664,"endTick":355543,"endTime":138.88398437499998,"note":68,"startBeat":369.85729166666664,"startTick":355063,"startTime":138.69648437499998,"velocity":68},{"channel":0,"duration":0.1875,"durationBeats":0.5,"durationTicks":480,"endBeat":370.35729166666664,"endTick":355543,"endTime":138.88398437499998,"note":63,"startBeat":369.85729166666664,"startTick":355063,"startTime":138.69648437499998,"velocity":68},{"channel":0,"duration":0.1875,"durationBeats":0.5,"durationTicks":480,"endBeat":370.35729166666664,"endTick":355543,"endTime":138.88398437499998,"note":59,"startBeat":369.85729166666664,"startTick":355063,"startTime":138.69648437499998,"velocity":68},{"channel":1,"duration":0.1875,"durationBeats":0.5,"durationTicks":480,"endBeat":370.409375,"endTick":355593,"endTime":138.903515625,"note":38,"startBeat":369.909375,"startTick":355113,"startTime":138.716015625,"velocity":50},{"channel":2,"duration":0.1875,"durationBeats":0.5,"durationTicks":480,"endBeat":370.63854166666664,"endTick":355813,"endTime":138.98945312499998,"note":26,"startBeat":370.13854166666664,"startTick":355333,"startTime":138.80195312499998,"velocity":57},{"channel":0,"duration":0.1875,"durationBeats":0.5,"durationTicks":480,"endBeat":370.85729166666664,"endTick":356023,"endTime":139.07148437499998,"note":32,"startBeat":370.35729166666664,"startTick":355543,"startTime":138.88398437499998,"velocity":68},{"channel":1,"duration":0.1875,"durationBeats":0.5,"durationTicks":480,"endBeat":370.909375,"endTick":356073,"endTime":139.091015625,"note":26,"startBeat":370.409375,"startTick":355593,"startTime":138.903515625,"velocity":50},{"channel":2,"duration":0.1875,"durationBeats":0.5,"durationTicks":480,"endBeat":371.13854166666664,"endTick":356293,"endTime":139.17695312499998,"note":38,"startBeat":370.63854166666664,"startTick":355813,"startTime":138.98945312499998,"velocity":57},{"channel":0,"duration":0.1875,"durationBeats":0.5,"durationTicks":480,"endBeat":371.35729166666664,"endTick":356503,"endTime":139.25898437499998,"note":31,"startBeat":370.85729166666664,"startTick":356023,"startTime":139.07148437499998,"velocity":68},{"channel":1,"duration":0.1875,"durationBeats":0.5,"durationTicks":480,"endBeat":371.409375,"endTick":356553,"endTime":139.278515625,"note":38,"startBeat":370.909375,"startTick":356073,"startTime":139.091015625,"velocity":50},{"channel":0,"duration":0.375,"durationBeats":1,"durationTicks":960,"endBeat":371.85729166666664,"endTick":356983,"endTime":139.44648437499998,"note":69,"startBeat":370.85729166666664,"startTick":356023,"startTime":139.07148437499998,"velocity":68},{"channel":0,"duration":0.375,"durationBeats":1,"durationTicks":960,"endBeat":371.85729166666664,"endTick":356983,"endTime":139.44648437499998,"note":65,"startBeat":370.85729166666664,"startTick":356023,"startTime":139.07148437499998,"velocity":68},{"channel":0,"duration":0.375,"durationBeats":1,"durationTicks":960,"endBeat":371.85729166666664,"endTick":356983,"endTime":139.44648437499998,"note":62,"startBeat":370.85729166666664,"startTick":356023,"startTime":139.07148437499998,"velocity":68},{"channel":0,"duration":0.375,"durationBeats":1,"durationTicks":960,"endBeat":371.85729166666664,"endTick":356983,"endTime":139.44648437499998,"note":58,"startBeat":370.85729166666664,"startTick":356023,"startTime":139.07148437499998,"velocity":68},{"channel":2,"duration":0.1875,"durationBeats":0.5,"durationTicks":480,"endBeat":372.13854166666664,"endTick":357253,"endTime":139.55195312499998,"note":33,"startBeat":371.63854166666664,"startTick":356773,"startTime":139.36445312499998,"velocity":57},{"channel":0,"duration":0.1875,"durationBeats":0.5,"durationTicks":480,"endBeat":372.35729166666664,"endTick":357463,"endTime":139.63398437499998,"note":31,"startBeat":371.85729166666664,"startTick":356983,"startTime":139.44648437499998,"velocity":68},{"channel":1,"duration":0.1875,"durationBeats":0.5,"durationTicks":480,"endBeat":372.409375,"endTick":357513,"endTime":139.653515625,"note":33,"startBeat":371.909375,"startTick":357033,"startTime":139.466015625,"velocity":50},{"channel":2,"duration":0.1875,"durationBeats":0.5,"durationTicks":480,"endBeat":372.63854166666664,"endTick":357733,"endTime":139.73945312499998,"note":38,"startBeat":372.13854166666664,"startTick":357253,"startTime":139.55195312499998,"velocity":57},{"channel":2,"duration":0.1875,"durationBeats":0.5,"durationTicks":480,"endBeat":372.63854166666664,"endTick":357733,"endTime":139.73945312499998,"note":26,"startBeat":372.13854166666664,"startTick":357253,"startTime":139.55195312499998,"velocity":57},{"channel":1,"duration":0.1875,"durationBeats":0.5,"durationTicks":480,"endBeat":372.909375,"endTick":357993,"endTime":139.841015625,"note":38,"startBeat":372.409375,"startTick":357513,"startTime":139.653515625,"velocity":50},{"channel":1,"duration":0.1875,"durationBeats":0.5,"durationTicks":480,"endBeat":372.909375,"endTick":357993,"endTime":139.841015625,"note":26,"startBeat":372.409375,"startTick":357513,"startTime":139.653515625,"velocity":50},{"channel":0,"duration":0.1875,"durationBeats":0.5,"durationTicks":480,"endBeat":373.35729166666664,"endTick":358423,"endTime":140.00898437499998,"note":33,"startBeat":372.85729166666664,"startTick":357943,"startTime":139.82148437499998,"velocity":68},{"channel":0,"duration":0.1875,"durationBeats":0.5,"durationTicks":480,"endBeat":373.35729166666664,"endTick":358423,"endTime":140.00898437499998,"note":60,"startBeat":372.85729166666664,"startTick":357943,"startTime":139.82148437499998,"velocity":68},{"channel":0,"duration":0.1875,"durationBeats":0.5,"durationTicks":480,"endBeat":373.35729166666664,"endTick":358423,"endTime":140.00898437499998,"note":64,"startBeat":372.85729166666664,"startTick":357943,"startTime":139.82148437499998,"velocity":68},{"channel":0,"duration":0.1875,"durationBeats":0.5,"durationTicks":480,"endBeat":373.35729166666664,"endTick":358423,"endTime":140.00898437499998,"note":67,"startBeat":372.85729166666664,"startTick":357943,"startTime":139.82148437499998,"velocity":68},{"channel":0,"duration":0.1875,"durationBeats":0.5,"durationTicks":480,"endBeat":373.35729166666664,"endTick":358423,"endTime":140.00898437499998,"note":72,"startBeat":372.85729166666664,"startTick":357943,"startTime":139.82148437499998,"velocity":68},{"channel":0,"duration":0.1875,"durationBeats":0.5,"durationTicks":480,"endBeat":374.10729166666664,"endTick":359143,"endTime":140.29023437499998,"note":33,"startBeat":373.60729166666664,"startTick":358663,"startTime":140.10273437499998,"velocity":68},{"channel":0,"duration":0.1875,"durationBeats":0.5,"durationTicks":480,"endBeat":374.35729166666664,"endTick":359383,"endTime":140.38398437499998,"note":70,"startBeat":373.85729166666664,"startTick":358903,"startTime":140.19648437499998,"velocity":68},{"channel":0,"duration":0.1875,"durationBeats":0.5,"durationTicks":480,"endBeat":374.35729166666664,"endTick":359383,"endTime":140.38398437499998,"note":67,"startBeat":373.85729166666664,"startTick":358903,"startTime":140.19648437499998,"velocity":68},{"channel":0,"duration":0.1875,"durationBeats":0.5,"durationTicks":480,"endBeat":374.35729166666664,"endTick":359383,"endTime":140.38398437499998,"note":65,"startBeat":373.85729166666664,"startTick":358903,"startTime":140.19648437499998,"velocity":68},{"channel":0,"duration":0.1875,"durationBeats":0.5,"durationTicks":480,"endBeat":374.35729166666664,"endTick":359383,"endTime":140.38398437499998,"note":61,"startBeat":373.85729166666664,"startTick":358903,"startTime":140.19648437499998,"velocity":68},{"channel":0,"duration":0.1875,"durationBeats":0.5,"durationTicks":480,"endBeat":374.85729166666664,"endTick":359863,"endTime":140.57148437499998,"note":33,"startBeat":374.35729166666664,"startTick":359383,"startTime":140.38398437499998,"velocity":68},{"channel":0,"duration":0.1875,"durationBeats":0.5,"durationTicks":480,"endBeat":375.35729166666664,"endTick":360343,"endTime":140.75898437499998,"note":26,"startBeat":374.85729166666664,"startTick":359863,"startTime":140.57148437499998,"velocity":68},{"channel":0,"duration":0.1875,"durationBeats":0.5,"durationTicks":480,"endBeat":375.35729166666664,"endTick":360343,"endTime":140.75898437499998,"note":69,"startBeat":374.85729166666664,"startTick":359863,"startTime":140.57148437499998,"velocity":68},{"channel":0,"duration":0.1875,"durationBeats":0.5,"durationTicks":480,"endBeat":375.35729166666664,"endTick":360343,"endTime":140.75898437499998,"note":65,"startBeat":374.85729166666664,"startTick":359863,"startTime":140.57148437499998,"velocity":68},{"channel":0,"duration":0.1875,"durationBeats":0.5,"durationTicks":480,"endBeat":375.35729166666664,"endTick":360343,"endTime":140.75898437499998,"note":64,"startBeat":374.85729166666664,"startTick":359863,"startTime":140.57148437499998,"velocity":68},{"channel":0,"duration":0.1875,"durationBeats":0.5,"durationTicks":480,"endBeat":375.35729166666664,"endTick":360343,"endTime":140.75898437499998,"note":60,"startBeat":374.85729166666664,"startTick":359863,"startTime":140.57148437499998,"velocity":68},{"channel":0,"duration":0.1875,"durationBeats":0.5,"durationTicks":480,"endBeat":376.35729166666664,"endTick":361303,"endTime":141.13398437499998,"note":26,"startBeat":375.85729166666664,"startTick":360823,"startTime":140.94648437499998,"velocity":68},{"channel":0,"duration":0.1875,"durationBeats":0.5,"durationTicks":480,"endBeat":377.35729166666664,"endTick":362263,"endTime":141.50898437499998,"note":38,"startBeat":376.85729166666664,"startTick":361783,"startTime":141.32148437499998,"velocity":68},{"channel":0,"duration":0.1875,"durationBeats":0.5,"durationTicks":480,"endBeat":377.35729166666664,"endTick":362263,"endTime":141.50898437499998,"note":65,"startBeat":376.85729166666664,"startTick":361783,"startTime":141.32148437499998,"velocity":68},{"channel":0,"duration":0.1875,"durationBeats":0.5,"durationTicks":480,"endBeat":377.35729166666664,"endTick":362263,"endTime":141.50898437499998,"note":69,"startBeat":376.85729166666664,"startTick":361783,"startTime":141.32148437499998,"velocity":68},{"channel":0,"duration":0.1875,"durationBeats":0.5,"durationTicks":480,"endBeat":377.35729166666664,"endTick":362263,"endTime":141.50898437499998,"note":60,"startBeat":376.85729166666664,"startTick":361783,"startTime":141.32148437499998,"velocity":68},{"channel":0,"duration":0.1875,"durationBeats":0.5,"durationTicks":480,"endBeat":377.35729166666664,"endTick":362263,"endTime":141.50898437499998,"note":64,"startBeat":376.85729166666664,"startTick":361783,"startTime":141.32148437499998,"velocity":68},{"channel":0,"duration":0.1875,"durationBeats":0.5,"durationTicks":480,"endBeat":378.10729166666664,"endTick":362983,"endTime":141.79023437499998,"note":33,"startBeat":377.60729166666664,"startTick":362503,"startTime":141.60273437499998,"velocity":68},{"channel":0,"duration":0.1875,"durationBeats":0.5,"durationTicks":480,"endBeat":378.35729166666664,"endTick":363223,"endTime":141.88398437499998,"note":74,"startBeat":377.85729166666664,"startTick":362743,"startTime":141.69648437499998,"velocity":68},{"channel":0,"duration":0.1875,"durationBeats":0.5,"durationTicks":480,"endBeat":378.35729166666664,"endTick":363223,"endTime":141.88398437499998,"note":77,"startBeat":377.85729166666664,"startTick":362743,"startTime":141.69648437499998,"velocity":68},{"channel":0,"duration":0.1875,"durationBeats":0.5,"durationTicks":480,"endBeat":378.35729166666664,"endTick":363223,"endTime":141.88398437499998,"note":69,"startBeat":377.85729166666664,"startTick":362743,"startTime":141.69648437499998,"velocity":68},{"channel":0,"duration":0.1875,"durationBeats":0.5,"durationTicks":480,"endBeat":378.35729166666664,"endTick":363223,"endTime":141.88398437499998,"note":72,"startBeat":377.85729166666664,"startTick":362743,"startTime":141.69648437499998,"velocity":68},{"channel":0,"duration":0.1875,"durationBeats":0.5,"durationTicks":480,"endBeat":378.85729166666664,"endTick":363703,"endTime":142.07148437499998,"note":32,"startBeat":378.35729166666664,"startTick":363223,"startTime":141.88398437499998,"velocity":68},{"channel":0,"duration":0.1875,"durationBeats":0.5,"durationTicks":480,"endBeat":379.35729166666664,"endTick":364183,"endTime":142.25898437499998,"note":31,"startBeat":378.85729166666664,"startTick":363703,"startTime":142.07148437499998,"velocity":68},{"channel":0,"duration":0.375,"durationBeats":1,"durationTicks":960,"endBeat":379.85729166666664,"endTick":364663,"endTime":142.44648437499998,"note":69,"startBeat":378.85729166666664,"startTick":363703,"startTime":142.07148437499998,"velocity":68},{"channel":0,"duration":0.375,"durationBeats":1,"durationTicks":960,"endBeat":379.85729166666664,"endTick":364663,"endTime":142.44648437499998,"note":65,"startBeat":378.85729166666664,"startTick":363703,"startTime":142.07148437499998,"velocity":68},{"channel":0,"duration":0.375,"durationBeats":1,"durationTicks":960,"endBeat":379.85729166666664,"endTick":364663,"endTime":142.44648437499998,"note":62,"startBeat":378.85729166666664,"startTick":363703,"startTime":142.07148437499998,"velocity":68},{"channel":0,"duration":0.375,"durationBeats":1,"durationTicks":960,"endBeat":379.85729166666664,"endTick":364663,"endTime":142.44648437499998,"note":58,"startBeat":378.85729166666664,"startTick":363703,"startTime":142.07148437499998,"velocity":68},{"channel":0,"duration":0.1875,"durationBeats":0.5,"durationTicks":480,"endBeat":380.35729166666664,"endTick":365143,"endTime":142.63398437499998,"note":31,"startBeat":379.85729166666664,"startTick":364663,"startTime":142.44648437499998,"velocity":68},{"channel":0,"duration":0.1875,"durationBeats":0.5,"durationTicks":480,"endBeat":381.35729166666664,"endTick":366103,"endTime":143.00898437499998,"note":60,"startBeat":380.85729166666664,"startTick":365623,"startTime":142.82148437499998,"velocity":68},{"channel":0,"duration":0.1875,"durationBeats":0.5,"durationTicks":480,"endBeat":381.35729166666664,"endTick":366103,"endTime":143.00898437499998,"note":64,"startBeat":380.85729166666664,"startTick":365623,"startTime":142.82148437499998,"velocity":68},{"channel":0,"duration":0.1875,"durationBeats":0.5,"durationTicks":480,"endBeat":381.35729166666664,"endTick":366103,"endTime":143.00898437499998,"note":67,"startBeat":380.85729166666664,"startTick":365623,"startTime":142.82148437499998,"velocity":68},{"channel":0,"duration":0.1875,"durationBeats":0.5,"durationTicks":480,"endBeat":381.35729166666664,"endTick":366103,"endTime":143.00898437499998,"note":72,"startBeat":380.85729166666664,"startTick":365623,"startTime":142.82148437499998,"velocity":68},{"channel":0,"duration":0.1875,"durationBeats":0.5,"durationTicks":480,"endBeat":381.35729166666664,"endTick":366103,"endTime":143.00898437499998,"note":33,"startBeat":380.85729166666664,"startTick":365623,"startTime":142.82148437499998,"velocity":68},{"channel":0,"duration":0.1875,"durationBeats":0.5,"durationTicks":480,"endBeat":382.10729166666664,"endTick":366823,"endTime":143.29023437499998,"note":33,"startBeat":381.60729166666664,"startTick":366343,"startTime":143.10273437499998,"velocity":68},{"channel":0,"duration":0.1875,"durationBeats":0.5,"durationTicks":480,"endBeat":382.35729166666664,"endTick":367063,"endTime":143.38398437499998,"note":70,"startBeat":381.85729166666664,"startTick":366583,"startTime":143.19648437499998,"velocity":68},{"channel":0,"duration":0.1875,"durationBeats":0.5,"durationTicks":480,"endBeat":382.35729166666664,"endTick":367063,"endTime":143.38398437499998,"note":67,"startBeat":381.85729166666664,"startTick":366583,"startTime":143.19648437499998,"velocity":68},{"channel":0,"duration":0.1875,"durationBeats":0.5,"durationTicks":480,"endBeat":382.35729166666664,"endTick":367063,"endTime":143.38398437499998,"note":65,"startBeat":381.85729166666664,"startTick":366583,"startTime":143.19648437499998,"velocity":68},{"channel":0,"duration":0.1875,"durationBeats":0.5,"durationTicks":480,"endBeat":382.35729166666664,"endTick":367063,"endTime":143.38398437499998,"note":61,"startBeat":381.85729166666664,"startTick":366583,"startTime":143.19648437499998,"velocity":68},{"channel":0,"duration":0.1875,"durationBeats":0.5,"durationTicks":480,"endBeat":382.85729166666664,"endTick":367543,"endTime":143.57148437499998,"note":33,"startBeat":382.35729166666664,"startTick":367063,"startTime":143.38398437499998,"velocity":68},{"channel":0,"duration":0.1875,"durationBeats":0.5,"durationTicks":480,"endBeat":383.35729166666664,"endTick":368023,"endTime":143.75898437499998,"note":69,"startBeat":382.85729166666664,"startTick":367543,"startTime":143.57148437499998,"velocity":68},{"channel":0,"duration":0.1875,"durationBeats":0.5,"durationTicks":480,"endBeat":383.35729166666664,"endTick":368023,"endTime":143.75898437499998,"note":65,"startBeat":382.85729166666664,"startTick":367543,"startTime":143.57148437499998,"velocity":68},{"channel":0,"duration":0.1875,"durationBeats":0.5,"durationTicks":480,"endBeat":383.35729166666664,"endTick":368023,"endTime":143.75898437499998,"note":64,"startBeat":382.85729166666664,"startTick":367543,"startTime":143.57148437499998,"velocity":68},{"channel":0,"duration":0.1875,"durationBeats":0.5,"durationTicks":480,"endBeat":383.35729166666664,"endTick":368023,"endTime":143.75898437499998,"note":60,"startBeat":382.85729166666664,"startTick":367543,"startTime":143.57148437499998,"velocity":68},{"channel":0,"duration":0.1875,"durationBeats":0.5,"durationTicks":480,"endBeat":383.35729166666664,"endTick":368023,"endTime":143.75898437499998,"note":26,"startBeat":382.85729166666664,"startTick":367543,"startTime":143.57148437499998,"velocity":68},{"channel":0,"duration":0.1875,"durationBeats":0.5,"durationTicks":480,"endBeat":384.35729166666664,"endTick":368983,"endTime":144.13398437499998,"note":26,"startBeat":383.85729166666664,"startTick":368503,"startTime":143.94648437499998,"velocity":68},{"channel":0,"duration":0.1875,"durationBeats":0.5,"durationTicks":480,"endBeat":385.35729166666664,"endTick":369943,"endTime":144.50898437499998,"note":65,"startBeat":384.85729166666664,"startTick":369463,"startTime":144.32148437499998,"velocity":68},{"channel":0,"duration":0.1875,"durationBeats":0.5,"durationTicks":480,"endBeat":385.35729166666664,"endTick":369943,"endTime":144.50898437499998,"note":69,"startBeat":384.85729166666664,"startTick":369463,"startTime":144.32148437499998,"velocity":68},{"channel":0,"duration":0.1875,"durationBeats":0.5,"durationTicks":480,"endBeat":385.35729166666664,"endTick":369943,"endTime":144.50898437499998,"note":60,"startBeat":384.85729166666664,"startTick":369463,"startTime":144.32148437499998,"velocity":68},{"channel":0,"duration":0.1875,"durationBeats":0.5,"durationTicks":480,"endBeat":385.35729166666664,"endTick":369943,"endTime":144.50898437499998,"note":64,"startBeat":384.85729166666664,"startTick":369463,"startTime":144.32148437499998,"velocity":68},{"channel":0,"duration":0.1875,"durationBeats":0.5,"durationTicks":480,"endBeat":385.35729166666664,"endTick":369943,"endTime":144.50898437499998,"note":38,"startBeat":384.85729166666664,"startTick":369463,"startTime":144.32148437499998,"velocity":68},{"channel":0,"duration":0.1875,"durationBeats":0.5,"durationTicks":480,"endBeat":386.10729166666664,"endTick":370663,"endTime":144.79023437499998,"note":33,"startBeat":385.60729166666664,"startTick":370183,"startTime":144.60273437499998,"velocity":68},{"channel":0,"duration":0.1875,"durationBeats":0.5,"durationTicks":480,"endBeat":386.35729166666664,"endTick":370903,"endTime":144.88398437499998,"note":68,"startBeat":385.85729166666664,"startTick":370423,"startTime":144.69648437499998,"velocity":68},{"channel":0,"duration":0.1875,"durationBeats":0.5,"durationTicks":480,"endBeat":386.35729166666664,"endTick":370903,"endTime":144.88398437499998,"note":63,"startBeat":385.85729166666664,"startTick":370423,"startTime":144.69648437499998,"velocity":68},{"channel":0,"duration":0.1875,"durationBeats":0.5,"durationTicks":480,"endBeat":386.35729166666664,"endTick":370903,"endTime":144.88398437499998,"note":59,"startBeat":385.85729166666664,"startTick":370423,"startTime":144.69648437499998,"velocity":68},{"channel":0,"duration":0.1875,"durationBeats":0.5,"durationTicks":480,"endBeat":386.85729166666664,"endTick":371383,"endTime":145.07148437499998,"note":32,"startBeat":386.35729166666664,"startTick":370903,"startTime":144.88398437499998,"velocity":68},{"channel":0,"duration":0.1875,"durationBeats":0.5,"durationTicks":480,"endBeat":387.35729166666664,"endTick":371863,"endTime":145.25898437499998,"note":31,"startBeat":386.85729166666664,"startTick":371383,"startTime":145.07148437499998,"velocity":68},{"channel":0,"duration":0.375,"durationBeats":1,"durationTicks":960,"endBeat":387.85729166666664,"endTick":372343,"endTime":145.44648437499998,"note":69,"startBeat":386.85729166666664,"startTick":371383,"startTime":145.07148437499998,"velocity":68},{"channel":0,"duration":0.375,"durationBeats":1,"durationTicks":960,"endBeat":387.85729166666664,"endTick":372343,"endTime":145.44648437499998,"note":65,"startBeat":386.85729166666664,"startTick":371383,"startTime":145.07148437499998,"velocity":68},{"channel":0,"duration":0.375,"durationBeats":1,"durationTicks":960,"endBeat":387.85729166666664,"endTick":372343,"endTime":145.44648437499998,"note":62,"startBeat":386.85729166666664,"startTick":371383,"startTime":145.07148437499998,"velocity":68},{"channel":0,"duration":0.375,"durationBeats":1,"durationTicks":960,"endBeat":387.85729166666664,"endTick":372343,"endTime":145.44648437499998,"note":58,"startBeat":386.85729166666664,"startTick":371383,"startTime":145.07148437499998,"velocity":68},{"channel":0,"duration":0.1875,"durationBeats":0.5,"durationTicks":480,"endBeat":388.35729166666664,"endTick":372823,"endTime":145.63398437499998,"note":31,"startBeat":387.85729166666664,"startTick":372343,"startTime":145.44648437499998,"velocity":68},{"channel":0,"duration":0.1875,"durationBeats":0.5,"durationTicks":480,"endBeat":389.35729166666664,"endTick":373783,"endTime":146.00898437499998,"note":60,"startBeat":388.85729166666664,"startTick":373303,"startTime":145.82148437499998,"velocity":68},{"channel":0,"duration":0.1875,"durationBeats":0.5,"durationTicks":480,"endBeat":389.35729166666664,"endTick":373783,"endTime":146.00898437499998,"note":64,"startBeat":388.85729166666664,"startTick":373303,"startTime":145.82148437499998,"velocity":68},{"channel":0,"duration":0.1875,"durationBeats":0.5,"durationTicks":480,"endBeat":389.35729166666664,"endTick":373783,"endTime":146.00898437499998,"note":67,"startBeat":388.85729166666664,"startTick":373303,"startTime":145.82148437499998,"velocity":68},{"channel":0,"duration":0.1875,"durationBeats":0.5,"durationTicks":480,"endBeat":389.35729166666664,"endTick":373783,"endTime":146.00898437499998,"note":72,"startBeat":388.85729166666664,"startTick":373303,"startTime":145.82148437499998,"velocity":68},{"channel":0,"duration":0.1875,"durationBeats":0.5,"durationTicks":480,"endBeat":389.35729166666664,"endTick":373783,"endTime":146.00898437499998,"note":33,"startBeat":388.85729166666664,"startTick":373303,"startTime":145.82148437499998,"velocity":68},{"channel":0,"duration":0.1875,"durationBeats":0.5,"durationTicks":480,"endBeat":390.10729166666664,"endTick":374503,"endTime":146.29023437499998,"note":33,"startBeat":389.60729166666664,"startTick":374023,"startTime":146.10273437499998,"velocity":68},{"channel":0,"duration":0.1875,"durationBeats":0.5,"durationTicks":480,"endBeat":390.35729166666664,"endTick":374743,"endTime":146.38398437499998,"note":70,"startBeat":389.85729166666664,"startTick":374263,"startTime":146.19648437499998,"velocity":68},{"channel":0,"duration":0.1875,"durationBeats":0.5,"durationTicks":480,"endBeat":390.35729166666664,"endTick":374743,"endTime":146.38398437499998,"note":67,"startBeat":389.85729166666664,"startTick":374263,"startTime":146.19648437499998,"velocity":68},{"channel":0,"duration":0.1875,"durationBeats":0.5,"durationTicks":480,"endBeat":390.35729166666664,"endTick":374743,"endTime":146.38398437499998,"note":65,"startBeat":389.85729166666664,"startTick":374263,"startTime":146.19648437499998,"velocity":68},{"channel":0,"duration":0.1875,"durationBeats":0.5,"durationTicks":480,"endBeat":390.35729166666664,"endTick":374743,"endTime":146.38398437499998,"note":61,"startBeat":389.85729166666664,"startTick":374263,"startTime":146.19648437499998,"velocity":68},{"channel":0,"duration":0.1875,"durationBeats":0.5,"durationTicks":480,"endBeat":390.85729166666664,"endTick":375223,"endTime":146.57148437499998,"note":33,"startBeat":390.35729166666664,"startTick":374743,"startTime":146.38398437499998,"velocity":68},{"channel":0,"duration":0.1875,"durationBeats":0.5,"durationTicks":480,"endBeat":391.35729166666664,"endTick":375703,"endTime":146.75898437499998,"note":69,"startBeat":390.85729166666664,"startTick":375223,"startTime":146.57148437499998,"velocity":68},{"channel":0,"duration":0.1875,"durationBeats":0.5,"durationTicks":480,"endBeat":391.35729166666664,"endTick":375703,"endTime":146.75898437499998,"note":65,"startBeat":390.85729166666664,"startTick":375223,"startTime":146.57148437499998,"velocity":68},{"channel":0,"duration":0.1875,"durationBeats":0.5,"durationTicks":480,"endBeat":391.35729166666664,"endTick":375703,"endTime":146.75898437499998,"note":64,"startBeat":390.85729166666664,"startTick":375223,"startTime":146.57148437499998,"velocity":68},{"channel":0,"duration":0.1875,"durationBeats":0.5,"durationTicks":480,"endBeat":391.35729166666664,"endTick":375703,"endTime":146.75898437499998,"note":60,"startBeat":390.85729166666664,"startTick":375223,"startTime":146.57148437499998,"velocity":68},{"channel":0,"duration":0.1875,"durationBeats":0.5,"durationTicks":480,"endBeat":391.35729166666664,"endTick":375703,"endTime":146.75898437499998,"note":26,"startBeat":390.85729166666664,"startTick":375223,"startTime":146.57148437499998,"velocity":68},{"channel":0,"duration":0.1875,"durationBeats":0.5,"durationTicks":480,"endBeat":392.35729166666664,"endTick":376663,"endTime":147.13398437499998,"note":26,"startBeat":391.85729166666664,"startTick":376183,"startTime":146.94648437499998,"velocity":68},{"channel":0,"duration":0.1875,"durationBeats":0.5,"durationTicks":480,"endBeat":393.35729166666664,"endTick":377623,"endTime":147.50898437499998,"note":65,"startBeat":392.85729166666664,"startTick":377143,"startTime":147.32148437499998,"velocity":68},{"channel":0,"duration":0.1875,"durationBeats":0.5,"durationTicks":480,"endBeat":393.35729166666664,"endTick":377623,"endTime":147.50898437499998,"note":69,"startBeat":392.85729166666664,"startTick":377143,"startTime":147.32148437499998,"velocity":68},{"channel":0,"duration":0.1875,"durationBeats":0.5,"durationTicks":480,"endBeat":393.35729166666664,"endTick":377623,"endTime":147.50898437499998,"note":60,"startBeat":392.85729166666664,"startTick":377143,"startTime":147.32148437499998,"velocity":68},{"channel":0,"duration":0.1875,"durationBeats":0.5,"durationTicks":480,"endBeat":393.35729166666664,"endTick":377623,"endTime":147.50898437499998,"note":64,"startBeat":392.85729166666664,"startTick":377143,"startTime":147.32148437499998,"velocity":68},{"channel":0,"duration":0.1875,"durationBeats":0.5,"durationTicks":480,"endBeat":393.35729166666664,"endTick":377623,"endTime":147.50898437499998,"note":38,"startBeat":392.85729166666664,"startTick":377143,"startTime":147.32148437499998,"velocity":68},{"channel":0,"duration":0.1875,"durationBeats":0.5,"durationTicks":480,"endBeat":394.10729166666664,"endTick":378343,"endTime":147.79023437499998,"note":33,"startBeat":393.60729166666664,"startTick":377863,"startTime":147.60273437499998,"velocity":68},{"channel":0,"duration":0.1875,"durationBeats":0.5,"durationTicks":480,"endBeat":394.35729166666664,"endTick":378583,"endTime":147.88398437499998,"note":68,"startBeat":393.85729166666664,"startTick":378103,"startTime":147.69648437499998,"velocity":68},{"channel":0,"duration":0.1875,"durationBeats":0.5,"durationTicks":480,"endBeat":394.35729166666664,"endTick":378583,"endTime":147.88398437499998,"note":63,"startBeat":393.85729166666664,"startTick":378103,"startTime":147.69648437499998,"velocity":68},{"channel":0,"duration":0.1875,"durationBeats":0.5,"durationTicks":480,"endBeat":394.35729166666664,"endTick":378583,"endTime":147.88398437499998,"note":59,"startBeat":393.85729166666664,"startTick":378103,"startTime":147.69648437499998,"velocity":68},{"channel":0,"duration":0.1875,"durationBeats":0.5,"durationTicks":480,"endBeat":394.85729166666664,"endTick":379063,"endTime":148.07148437499998,"note":32,"startBeat":394.35729166666664,"startTick":378583,"startTime":147.88398437499998,"velocity":68},{"channel":0,"duration":0.1875,"durationBeats":0.5,"durationTicks":480,"endBeat":395.35729166666664,"endTick":379543,"endTime":148.25898437499998,"note":31,"startBeat":394.85729166666664,"startTick":379063,"startTime":148.07148437499998,"velocity":68},{"channel":0,"duration":0.375,"durationBeats":1,"durationTicks":960,"endBeat":395.85729166666664,"endTick":380023,"endTime":148.44648437499998,"note":69,"startBeat":394.85729166666664,"startTick":379063,"startTime":148.07148437499998,"velocity":68},{"channel":0,"duration":0.375,"durationBeats":1,"durationTicks":960,"endBeat":395.85729166666664,"endTick":380023,"endTime":148.44648437499998,"note":65,"startBeat":394.85729166666664,"startTick":379063,"startTime":148.07148437499998,"velocity":68},{"channel":0,"duration":0.375,"durationBeats":1,"durationTicks":960,"endBeat":395.85729166666664,"endTick":380023,"endTime":148.44648437499998,"note":62,"startBeat":394.85729166666664,"startTick":379063,"startTime":148.07148437499998,"velocity":68},{"channel":0,"duration":0.375,"durationBeats":1,"durationTicks":960,"endBeat":395.85729166666664,"endTick":380023,"endTime":148.44648437499998,"note":58,"startBeat":394.85729166666664,"startTick":379063,"startTime":148.07148437499998,"velocity":68},{"channel":0,"duration":0.1875,"durationBeats":0.5,"durationTicks":480,"endBeat":396.35729166666664,"endTick":380503,"endTime":148.63398437499998,"note":31,"startBeat":395.85729166666664,"startTick":380023,"startTime":148.44648437499998,"velocity":68},{"channel":0,"duration":0.1875,"durationBeats":0.5,"durationTicks":480,"endBeat":397.35729166666664,"endTick":381463,"endTime":149.00898437499998,"note":60,"startBeat":396.85729166666664,"startTick":380983,"startTime":148.82148437499998,"velocity":68},{"channel":0,"duration":0.1875,"durationBeats":0.5,"durationTicks":480,"endBeat":397.35729166666664,"endTick":381463,"endTime":149.00898437499998,"note":64,"startBeat":396.85729166666664,"startTick":380983,"startTime":148.82148437499998,"velocity":68},{"channel":0,"duration":0.1875,"durationBeats":0.5,"durationTicks":480,"endBeat":397.35729166666664,"endTick":381463,"endTime":149.00898437499998,"note":67,"startBeat":396.85729166666664,"startTick":380983,"startTime":148.82148437499998,"velocity":68},{"channel":0,"duration":0.1875,"durationBeats":0.5,"durationTicks":480,"endBeat":397.35729166666664,"endTick":381463,"endTime":149.00898437499998,"note":72,"startBeat":396.85729166666664,"startTick":380983,"startTime":148.82148437499998,"velocity":68},{"channel":0,"duration":0.1875,"durationBeats":0.5,"durationTicks":480,"endBeat":397.35729166666664,"endTick":381463,"endTime":149.00898437499998,"note":33,"startBeat":396.85729166666664,"startTick":380983,"startTime":148.82148437499998,"velocity":68},{"channel":0,"duration":0.1875,"durationBeats":0.5,"durationTicks":480,"endBeat":398.10729166666664,"endTick":382183,"endTime":149.29023437499998,"note":33,"startBeat":397.60729166666664,"startTick":381703,"startTime":149.10273437499998,"velocity":68},{"channel":0,"duration":0.1875,"durationBeats":0.5,"durationTicks":480,"endBeat":398.35729166666664,"endTick":382423,"endTime":149.38398437499998,"note":70,"startBeat":397.85729166666664,"startTick":381943,"startTime":149.19648437499998,"velocity":68},{"channel":0,"duration":0.1875,"durationBeats":0.5,"durationTicks":480,"endBeat":398.35729166666664,"endTick":382423,"endTime":149.38398437499998,"note":67,"startBeat":397.85729166666664,"startTick":381943,"startTime":149.19648437499998,"velocity":68},{"channel":0,"duration":0.1875,"durationBeats":0.5,"durationTicks":480,"endBeat":398.35729166666664,"endTick":382423,"endTime":149.38398437499998,"note":65,"startBeat":397.85729166666664,"startTick":381943,"startTime":149.19648437499998,"velocity":68},{"channel":0,"duration":0.1875,"durationBeats":0.5,"durationTicks":480,"endBeat":398.35729166666664,"endTick":382423,"endTime":149.38398437499998,"note":61,"startBeat":397.85729166666664,"startTick":381943,"startTime":149.19648437499998,"velocity":68},{"channel":0,"duration":0.1875,"durationBeats":0.5,"durationTicks":480,"endBeat":398.85729166666664,"endTick":382903,"endTime":149.57148437499998,"note":33,"startBeat":398.35729166666664,"startTick":382423,"startTime":149.38398437499998,"velocity":68},{"channel":0,"duration":0.1875,"durationBeats":0.5,"durationTicks":480,"endBeat":399.35729166666664,"endTick":383383,"endTime":149.75898437499998,"note":69,"startBeat":398.85729166666664,"startTick":382903,"startTime":149.57148437499998,"velocity":68},{"channel":0,"duration":0.1875,"durationBeats":0.5,"durationTicks":480,"endBeat":399.35729166666664,"endTick":383383,"endTime":149.75898437499998,"note":65,"startBeat":398.85729166666664,"startTick":382903,"startTime":149.57148437499998,"velocity":68},{"channel":0,"duration":0.1875,"durationBeats":0.5,"durationTicks":480,"endBeat":399.35729166666664,"endTick":383383,"endTime":149.75898437499998,"note":64,"startBeat":398.85729166666664,"startTick":382903,"startTime":149.57148437499998,"velocity":68},{"channel":0,"duration":0.1875,"durationBeats":0.5,"durationTicks":480,"endBeat":399.35729166666664,"endTick":383383,"endTime":149.75898437499998,"note":60,"startBeat":398.85729166666664,"startTick":382903,"startTime":149.57148437499998,"velocity":68},{"channel":0,"duration":0.1875,"durationBeats":0.5,"durationTicks":480,"endBeat":399.35729166666664,"endTick":383383,"endTime":149.75898437499998,"note":26,"startBeat":398.85729166666664,"startTick":382903,"startTime":149.57148437499998,"velocity":68},{"channel":0,"duration":0.1875,"durationBeats":0.5,"durationTicks":480,"endBeat":400.35729166666664,"endTick":384343,"endTime":150.13398437499998,"note":26,"startBeat":399.85729166666664,"startTick":383863,"startTime":149.94648437499998,"velocity":68},{"channel":0,"duration":0.1875,"durationBeats":0.5,"durationTicks":480,"endBeat":401.35729166666664,"endTick":385303,"endTime":150.50898437499998,"note":65,"startBeat":400.85729166666664,"startTick":384823,"startTime":150.32148437499998,"velocity":68},{"channel":0,"duration":0.1875,"durationBeats":0.5,"durationTicks":480,"endBeat":401.35729166666664,"endTick":385303,"endTime":150.50898437499998,"note":69,"startBeat":400.85729166666664,"startTick":384823,"startTime":150.32148437499998,"velocity":68},{"channel":0,"duration":0.1875,"durationBeats":0.5,"durationTicks":480,"endBeat":401.35729166666664,"endTick":385303,"endTime":150.50898437499998,"note":60,"startBeat":400.85729166666664,"startTick":384823,"startTime":150.32148437499998,"velocity":68},{"channel":0,"duration":0.1875,"durationBeats":0.5,"durationTicks":480,"endBeat":401.35729166666664,"endTick":385303,"endTime":150.50898437499998,"note":64,"startBeat":400.85729166666664,"startTick":384823,"startTime":150.32148437499998,"velocity":68},{"channel":0,"duration":0.1875,"durationBeats":0.5,"durationTicks":480,"endBeat":401.35729166666664,"endTick":385303,"endTime":150.50898437499998,"note":38,"startBeat":400.85729166666664,"startTick":384823,"startTime":150.32148437499998,"velocity":68},{"channel":0,"duration":0.1875,"durationBeats":0.5,"durationTicks":480,"endBeat":402.10729166666664,"endTick":386023,"endTime":150.79023437499998,"note":33,"startBeat":401.60729166666664,"startTick":385543,"startTime":150.60273437499998,"velocity":68},{"channel":0,"duration":0.1875,"durationBeats":0.5,"durationTicks":480,"endBeat":402.35729166666664,"endTick":386263,"endTime":150.88398437499998,"note":68,"startBeat":401.85729166666664,"startTick":385783,"startTime":150.69648437499998,"velocity":68},{"channel":0,"duration":0.1875,"durationBeats":0.5,"durationTicks":480,"endBeat":402.35729166666664,"endTick":386263,"endTime":150.88398437499998,"note":63,"startBeat":401.85729166666664,"startTick":385783,"startTime":150.69648437499998,"velocity":68},{"channel":0,"duration":0.1875,"durationBeats":0.5,"durationTicks":480,"endBeat":402.35729166666664,"endTick":386263,"endTime":150.88398437499998,"note":59,"startBeat":401.85729166666664,"startTick":385783,"startTime":150.69648437499998,"velocity":68},{"channel":0,"duration":0.1875,"durationBeats":0.5,"durationTicks":480,"endBeat":402.85729166666664,"endTick":386743,"endTime":151.07148437499998,"note":32,"startBeat":402.35729166666664,"startTick":386263,"startTime":150.88398437499998,"velocity":68},{"channel":0,"duration":0.1875,"durationBeats":0.5,"durationTicks":480,"endBeat":403.35729166666664,"endTick":387223,"endTime":151.25898437499998,"note":31,"startBeat":402.85729166666664,"startTick":386743,"startTime":151.07148437499998,"velocity":68},{"channel":0,"duration":0.375,"durationBeats":1,"durationTicks":960,"endBeat":403.85729166666664,"endTick":387703,"endTime":151.44648437499998,"note":69,"startBeat":402.85729166666664,"startTick":386743,"startTime":151.07148437499998,"velocity":68},{"channel":0,"duration":0.375,"durationBeats":1,"durationTicks":960,"endBeat":403.85729166666664,"endTick":387703,"endTime":151.44648437499998,"note":65,"startBeat":402.85729166666664,"startTick":386743,"startTime":151.07148437499998,"velocity":68},{"channel":0,"duration":0.375,"durationBeats":1,"durationTicks":960,"endBeat":403.85729166666664,"endTick":387703,"endTime":151.44648437499998,"note":62,"startBeat":402.85729166666664,"startTick":386743,"startTime":151.07148437499998,"velocity":68},{"channel":0,"duration":0.375,"durationBeats":1,"durationTicks":960,"endBeat":403.85729166666664,"endTick":387703,"endTime":151.44648437499998,"note":58,"startBeat":402.85729166666664,"startTick":386743,"startTime":151.07148437499998,"velocity":68},{"channel":0,"duration":0.1875,"durationBeats":0.5,"durationTicks":480,"endBeat":404.35729166666664,"endTick":388183,"endTime":151.63398437499998,"note":31,"startBeat":403.85729166666664,"startTick":387703,"startTime":151.44648437499998,"velocity":68},{"channel":0,"duration":0.1875,"durationBeats":0.5,"durationTicks":480,"endBeat":405.35729166666664,"endTick":389143,"endTime":152.00898437499998,"note":60,"startBeat":404.85729166666664,"startTick":388663,"startTime":151.82148437499998,"velocity":68},{"channel":0,"duration":0.1875,"durationBeats":0.5,"durationTicks":480,"endBeat":405.35729166666664,"endTick":389143,"endTime":152.00898437499998,"note":64,"startBeat":404.85729166666664,"startTick":388663,"startTime":151.82148437499998,"velocity":68},{"channel":0,"duration":0.1875,"durationBeats":0.5,"durationTicks":480,"endBeat":405.35729166666664,"endTick":389143,"endTime":152.00898437499998,"note":67,"startBeat":404.85729166666664,"startTick":388663,"startTime":151.82148437499998,"velocity":68},{"channel":0,"duration":0.1875,"durationBeats":0.5,"durationTicks":480,"endBeat":405.35729166666664,"endTick":389143,"endTime":152.00898437499998,"note":72,"startBeat":404.85729166666664,"startTick":388663,"startTime":151.82148437499998,"velocity":68},{"channel":0,"duration":0.1875,"durationBeats":0.5,"durationTicks":480,"endBeat":405.35729166666664,"endTick":389143,"endTime":152.00898437499998,"note":33,"startBeat":404.85729166666664,"startTick":388663,"startTime":151.82148437499998,"velocity":68},{"channel":0,"duration":0.1875,"durationBeats":0.5,"durationTicks":480,"endBeat":406.10729166666664,"endTick":389863,"endTime":152.29023437499998,"note":33,"startBeat":405.60729166666664,"startTick":389383,"startTime":152.10273437499998,"velocity":68},{"channel":0,"duration":0.1875,"durationBeats":0.5,"durationTicks":480,"endBeat":406.35729166666664,"endTick":390103,"endTime":152.38398437499998,"note":70,"startBeat":405.85729166666664,"startTick":389623,"startTime":152.19648437499998,"velocity":68},{"channel":0,"duration":0.1875,"durationBeats":0.5,"durationTicks":480,"endBeat":406.35729166666664,"endTick":390103,"endTime":152.38398437499998,"note":67,"startBeat":405.85729166666664,"startTick":389623,"startTime":152.19648437499998,"velocity":68},{"channel":0,"duration":0.1875,"durationBeats":0.5,"durationTicks":480,"endBeat":406.35729166666664,"endTick":390103,"endTime":152.38398437499998,"note":65,"startBeat":405.85729166666664,"startTick":389623,"startTime":152.19648437499998,"velocity":68},{"channel":0,"duration":0.1875,"durationBeats":0.5,"durationTicks":480,"endBeat":406.35729166666664,"endTick":390103,"endTime":152.38398437499998,"note":61,"startBeat":405.85729166666664,"startTick":389623,"startTime":152.19648437499998,"velocity":68},{"channel":0,"duration":0.1875,"durationBeats":0.5,"durationTicks":480,"endBeat":406.85729166666664,"endTick":390583,"endTime":152.57148437499998,"note":33,"startBeat":406.35729166666664,"startTick":390103,"startTime":152.38398437499998,"velocity":68},{"channel":0,"duration":0.1875,"durationBeats":0.5,"durationTicks":480,"endBeat":407.35729166666664,"endTick":391063,"endTime":152.75898437499998,"note":69,"startBeat":406.85729166666664,"startTick":390583,"startTime":152.57148437499998,"velocity":68},{"channel":0,"duration":0.1875,"durationBeats":0.5,"durationTicks":480,"endBeat":407.35729166666664,"endTick":391063,"endTime":152.75898437499998,"note":65,"startBeat":406.85729166666664,"startTick":390583,"startTime":152.57148437499998,"velocity":68},{"channel":0,"duration":0.1875,"durationBeats":0.5,"durationTicks":480,"endBeat":407.35729166666664,"endTick":391063,"endTime":152.75898437499998,"note":64,"startBeat":406.85729166666664,"startTick":390583,"startTime":152.57148437499998,"velocity":68},{"channel":0,"duration":0.1875,"durationBeats":0.5,"durationTicks":480,"endBeat":407.35729166666664,"endTick":391063,"endTime":152.75898437499998,"note":60,"startBeat":406.85729166666664,"startTick":390583,"startTime":152.57148437499998,"velocity":68},{"channel":0,"duration":0.1875,"durationBeats":0.5,"durationTicks":480,"endBeat":407.35729166666664,"endTick":391063,"endTime":152.75898437499998,"note":26,"startBeat":406.85729166666664,"startTick":390583,"startTime":152.57148437499998,"velocity":68},{"channel":0,"duration":0.1875,"durationBeats":0.5,"durationTicks":480,"endBeat":408.35729166666664,"endTick":392023,"endTime":153.13398437499998,"note":26,"startBeat":407.85729166666664,"startTick":391543,"startTime":152.94648437499998,"velocity":68},{"channel":0,"duration":0.1875,"durationBeats":0.5,"durationTicks":480,"endBeat":409.35729166666664,"endTick":392983,"endTime":153.50898437499998,"note":65,"startBeat":408.85729166666664,"startTick":392503,"startTime":153.32148437499998,"velocity":68},{"channel":0,"duration":0.1875,"durationBeats":0.5,"durationTicks":480,"endBeat":409.35729166666664,"endTick":392983,"endTime":153.50898437499998,"note":69,"startBeat":408.85729166666664,"startTick":392503,"startTime":153.32148437499998,"velocity":68},{"channel":0,"duration":0.1875,"durationBeats":0.5,"durationTicks":480,"endBeat":409.35729166666664,"endTick":392983,"endTime":153.50898437499998,"note":60,"startBeat":408.85729166666664,"startTick":392503,"startTime":153.32148437499998,"velocity":68},{"channel":0,"duration":0.1875,"durationBeats":0.5,"durationTicks":480,"endBeat":409.35729166666664,"endTick":392983,"endTime":153.50898437499998,"note":64,"startBeat":408.85729166666664,"startTick":392503,"startTime":153.32148437499998,"velocity":68},{"channel":0,"duration":0.1875,"durationBeats":0.5,"durationTicks":480,"endBeat":409.35729166666664,"endTick":392983,"endTime":153.50898437499998,"note":38,"startBeat":408.85729166666664,"startTick":392503,"startTime":153.32148437499998,"velocity":68},{"channel":0,"duration":0.1875,"durationBeats":0.5,"durationTicks":480,"endBeat":410.10729166666664,"endTick":393703,"endTime":153.79023437499998,"note":33,"startBeat":409.60729166666664,"startTick":393223,"startTime":153.60273437499998,"velocity":68},{"channel":0,"duration":0.1875,"durationBeats":0.5,"durationTicks":480,"endBeat":410.35729166666664,"endTick":393943,"endTime":153.88398437499998,"note":68,"startBeat":409.85729166666664,"startTick":393463,"startTime":153.69648437499998,"velocity":68},{"channel":0,"duration":0.1875,"durationBeats":0.5,"durationTicks":480,"endBeat":410.35729166666664,"endTick":393943,"endTime":153.88398437499998,"note":63,"startBeat":409.85729166666664,"startTick":393463,"startTime":153.69648437499998,"velocity":68},{"channel":0,"duration":0.1875,"durationBeats":0.5,"durationTicks":480,"endBeat":410.35729166666664,"endTick":393943,"endTime":153.88398437499998,"note":59,"startBeat":409.85729166666664,"startTick":393463,"startTime":153.69648437499998,"velocity":68},{"channel":0,"duration":0.1875,"durationBeats":0.5,"durationTicks":480,"endBeat":410.85729166666664,"endTick":394423,"endTime":154.07148437499998,"note":32,"startBeat":410.35729166666664,"startTick":393943,"startTime":153.88398437499998,"velocity":68},{"channel":0,"duration":0.1875,"durationBeats":0.5,"durationTicks":480,"endBeat":411.35729166666664,"endTick":394903,"endTime":154.25898437499998,"note":31,"startBeat":410.85729166666664,"startTick":394423,"startTime":154.07148437499998,"velocity":68},{"channel":0,"duration":0.375,"durationBeats":1,"durationTicks":960,"endBeat":411.85729166666664,"endTick":395383,"endTime":154.44648437499998,"note":69,"startBeat":410.85729166666664,"startTick":394423,"startTime":154.07148437499998,"velocity":68},{"channel":0,"duration":0.375,"durationBeats":1,"durationTicks":960,"endBeat":411.85729166666664,"endTick":395383,"endTime":154.44648437499998,"note":65,"startBeat":410.85729166666664,"startTick":394423,"startTime":154.07148437499998,"velocity":68},{"channel":0,"duration":0.375,"durationBeats":1,"durationTicks":960,"endBeat":411.85729166666664,"endTick":395383,"endTime":154.44648437499998,"note":62,"startBeat":410.85729166666664,"startTick":394423,"startTime":154.07148437499998,"velocity":68},{"channel":0,"duration":0.375,"durationBeats":1,"durationTicks":960,"endBeat":411.85729166666664,"endTick":395383,"endTime":154.44648437499998,"note":58,"startBeat":410.85729166666664,"startTick":394423,"startTime":154.07148437499998,"velocity":68},{"channel":0,"duration":0.1875,"durationBeats":0.5,"durationTicks":480,"endBeat":412.35729166666664,"endTick":395863,"endTime":154.63398437499998,"note":31,"startBeat":411.85729166666664,"startTick":395383,"startTime":154.44648437499998,"velocity":68},{"channel":0,"duration":0.1875,"durationBeats":0.5,"durationTicks":480,"endBeat":413.35729166666664,"endTick":396823,"endTime":155.00898437499998,"note":60,"startBeat":412.85729166666664,"startTick":396343,"startTime":154.82148437499998,"velocity":68},{"channel":0,"duration":0.1875,"durationBeats":0.5,"durationTicks":480,"endBeat":413.35729166666664,"endTick":396823,"endTime":155.00898437499998,"note":64,"startBeat":412.85729166666664,"startTick":396343,"startTime":154.82148437499998,"velocity":68},{"channel":0,"duration":0.1875,"durationBeats":0.5,"durationTicks":480,"endBeat":413.35729166666664,"endTick":396823,"endTime":155.00898437499998,"note":67,"startBeat":412.85729166666664,"startTick":396343,"startTime":154.82148437499998,"velocity":68},{"channel":0,"duration":0.1875,"durationBeats":0.5,"durationTicks":480,"endBeat":413.35729166666664,"endTick":396823,"endTime":155.00898437499998,"note":72,"startBeat":412.85729166666664,"startTick":396343,"startTime":154.82148437499998,"velocity":68},{"channel":0,"duration":0.1875,"durationBeats":0.5,"durationTicks":480,"endBeat":413.35729166666664,"endTick":396823,"endTime":155.00898437499998,"note":33,"startBeat":412.85729166666664,"startTick":396343,"startTime":154.82148437499998,"velocity":68},{"channel":0,"duration":0.1875,"durationBeats":0.5,"durationTicks":480,"endBeat":414.10729166666664,"endTick":397543,"endTime":155.29023437499998,"note":33,"startBeat":413.60729166666664,"startTick":397063,"startTime":155.10273437499998,"velocity":68},{"channel":0,"duration":0.1875,"durationBeats":0.5,"durationTicks":480,"endBeat":414.35729166666664,"endTick":397783,"endTime":155.38398437499998,"note":70,"startBeat":413.85729166666664,"startTick":397303,"startTime":155.19648437499998,"velocity":68},{"channel":0,"duration":0.1875,"durationBeats":0.5,"durationTicks":480,"endBeat":414.35729166666664,"endTick":397783,"endTime":155.38398437499998,"note":67,"startBeat":413.85729166666664,"startTick":397303,"startTime":155.19648437499998,"velocity":68},{"channel":0,"duration":0.1875,"durationBeats":0.5,"durationTicks":480,"endBeat":414.35729166666664,"endTick":397783,"endTime":155.38398437499998,"note":65,"startBeat":413.85729166666664,"startTick":397303,"startTime":155.19648437499998,"velocity":68},{"channel":0,"duration":0.1875,"durationBeats":0.5,"durationTicks":480,"endBeat":414.35729166666664,"endTick":397783,"endTime":155.38398437499998,"note":61,"startBeat":413.85729166666664,"startTick":397303,"startTime":155.19648437499998,"velocity":68},{"channel":0,"duration":0.1875,"durationBeats":0.5,"durationTicks":480,"endBeat":414.85729166666664,"endTick":398263,"endTime":155.57148437499998,"note":33,"startBeat":414.35729166666664,"startTick":397783,"startTime":155.38398437499998,"velocity":68},{"channel":0,"duration":0.1875,"durationBeats":0.5,"durationTicks":480,"endBeat":415.35729166666664,"endTick":398743,"endTime":155.75898437499998,"note":69,"startBeat":414.85729166666664,"startTick":398263,"startTime":155.57148437499998,"velocity":68},{"channel":0,"duration":0.1875,"durationBeats":0.5,"durationTicks":480,"endBeat":415.35729166666664,"endTick":398743,"endTime":155.75898437499998,"note":65,"startBeat":414.85729166666664,"startTick":398263,"startTime":155.57148437499998,"velocity":68},{"channel":0,"duration":0.1875,"durationBeats":0.5,"durationTicks":480,"endBeat":415.35729166666664,"endTick":398743,"endTime":155.75898437499998,"note":64,"startBeat":414.85729166666664,"startTick":398263,"startTime":155.57148437499998,"velocity":68},{"channel":0,"duration":0.1875,"durationBeats":0.5,"durationTicks":480,"endBeat":415.35729166666664,"endTick":398743,"endTime":155.75898437499998,"note":60,"startBeat":414.85729166666664,"startTick":398263,"startTime":155.57148437499998,"velocity":68},{"channel":0,"duration":0.1875,"durationBeats":0.5,"durationTicks":480,"endBeat":415.35729166666664,"endTick":398743,"endTime":155.75898437499998,"note":26,"startBeat":414.85729166666664,"startTick":398263,"startTime":155.57148437499998,"velocity":68},{"channel":0,"duration":0.1875,"durationBeats":0.5,"durationTicks":480,"endBeat":416.35729166666664,"endTick":399703,"endTime":156.13398437499998,"note":26,"startBeat":415.85729166666664,"startTick":399223,"startTime":155.94648437499998,"velocity":68},{"channel":0,"duration":0.1875,"durationBeats":0.5,"durationTicks":480,"endBeat":417.35729166666664,"endTick":400663,"endTime":156.50898437499998,"note":65,"startBeat":416.85729166666664,"startTick":400183,"startTime":156.32148437499998,"velocity":68},{"channel":0,"duration":0.1875,"durationBeats":0.5,"durationTicks":480,"endBeat":417.35729166666664,"endTick":400663,"endTime":156.50898437499998,"note":69,"startBeat":416.85729166666664,"startTick":400183,"startTime":156.32148437499998,"velocity":68},{"channel":0,"duration":0.1875,"durationBeats":0.5,"durationTicks":480,"endBeat":417.35729166666664,"endTick":400663,"endTime":156.50898437499998,"note":60,"startBeat":416.85729166666664,"startTick":400183,"startTime":156.32148437499998,"velocity":68},{"channel":0,"duration":0.1875,"durationBeats":0.5,"durationTicks":480,"endBeat":417.35729166666664,"endTick":400663,"endTime":156.50898437499998,"note":64,"startBeat":416.85729166666664,"startTick":400183,"startTime":156.32148437499998,"velocity":68},{"channel":0,"duration":0.1875,"durationBeats":0.5,"durationTicks":480,"endBeat":417.35729166666664,"endTick":400663,"endTime":156.50898437499998,"note":38,"startBeat":416.85729166666664,"startTick":400183,"startTime":156.32148437499998,"velocity":68},{"channel":0,"duration":0.1875,"durationBeats":0.5,"durationTicks":480,"endBeat":418.10729166666664,"endTick":401383,"endTime":156.79023437499998,"note":33,"startBeat":417.60729166666664,"startTick":400903,"startTime":156.60273437499998,"velocity":68},{"channel":0,"duration":0.1875,"durationBeats":0.5,"durationTicks":480,"endBeat":418.35729166666664,"endTick":401623,"endTime":156.88398437499998,"note":68,"startBeat":417.85729166666664,"startTick":401143,"startTime":156.69648437499998,"velocity":68},{"channel":0,"duration":0.1875,"durationBeats":0.5,"durationTicks":480,"endBeat":418.35729166666664,"endTick":401623,"endTime":156.88398437499998,"note":63,"startBeat":417.85729166666664,"startTick":401143,"startTime":156.69648437499998,"velocity":68},{"channel":0,"duration":0.1875,"durationBeats":0.5,"durationTicks":480,"endBeat":418.35729166666664,"endTick":401623,"endTime":156.88398437499998,"note":59,"startBeat":417.85729166666664,"startTick":401143,"startTime":156.69648437499998,"velocity":68},{"channel":0,"duration":0.1875,"durationBeats":0.5,"durationTicks":480,"endBeat":418.85729166666664,"endTick":402103,"endTime":157.07148437499998,"note":32,"startBeat":418.35729166666664,"startTick":401623,"startTime":156.88398437499998,"velocity":68},{"channel":0,"duration":0.1875,"durationBeats":0.5,"durationTicks":480,"endBeat":419.35729166666664,"endTick":402583,"endTime":157.25898437499998,"note":31,"startBeat":418.85729166666664,"startTick":402103,"startTime":157.07148437499998,"velocity":68},{"channel":0,"duration":0.375,"durationBeats":1,"durationTicks":960,"endBeat":419.85729166666664,"endTick":403063,"endTime":157.44648437499998,"note":69,"startBeat":418.85729166666664,"startTick":402103,"startTime":157.07148437499998,"velocity":68},{"channel":0,"duration":0.375,"durationBeats":1,"durationTicks":960,"endBeat":419.85729166666664,"endTick":403063,"endTime":157.44648437499998,"note":65,"startBeat":418.85729166666664,"startTick":402103,"startTime":157.07148437499998,"velocity":68},{"channel":0,"duration":0.375,"durationBeats":1,"durationTicks":960,"endBeat":419.85729166666664,"endTick":403063,"endTime":157.44648437499998,"note":62,"startBeat":418.85729166666664,"startTick":402103,"startTime":157.07148437499998,"velocity":68},{"channel":0,"duration":0.375,"durationBeats":1,"durationTicks":960,"endBeat":419.85729166666664,"endTick":403063,"endTime":157.44648437499998,"note":58,"startBeat":418.85729166666664,"startTick":402103,"startTime":157.07148437499998,"velocity":68},{"channel":0,"duration":0.1875,"durationBeats":0.5,"durationTicks":480,"endBeat":420.35729166666664,"endTick":403543,"endTime":157.63398437499998,"note":31,"startBeat":419.85729166666664,"startTick":403063,"startTime":157.44648437499998,"velocity":68},{"channel":0,"duration":0.1875,"durationBeats":0.5,"durationTicks":480,"endBeat":421.35729166666664,"endTick":404503,"endTime":158.00898437499998,"note":60,"startBeat":420.85729166666664,"startTick":404023,"startTime":157.82148437499998,"velocity":68},{"channel":0,"duration":0.1875,"durationBeats":0.5,"durationTicks":480,"endBeat":421.35729166666664,"endTick":404503,"endTime":158.00898437499998,"note":64,"startBeat":420.85729166666664,"startTick":404023,"startTime":157.82148437499998,"velocity":68},{"channel":0,"duration":0.1875,"durationBeats":0.5,"durationTicks":480,"endBeat":421.35729166666664,"endTick":404503,"endTime":158.00898437499998,"note":67,"startBeat":420.85729166666664,"startTick":404023,"startTime":157.82148437499998,"velocity":68},{"channel":0,"duration":0.1875,"durationBeats":0.5,"durationTicks":480,"endBeat":421.35729166666664,"endTick":404503,"endTime":158.00898437499998,"note":72,"startBeat":420.85729166666664,"startTick":404023,"startTime":157.82148437499998,"velocity":68},{"channel":0,"duration":0.1875,"durationBeats":0.5,"durationTicks":480,"endBeat":421.35729166666664,"endTick":404503,"endTime":158.00898437499998,"note":33,"startBeat":420.85729166666664,"startTick":404023,"startTime":157.82148437499998,"velocity":68},{"channel":0,"duration":0.1875,"durationBeats":0.5,"durationTicks":480,"endBeat":422.10729166666664,"endTick":405223,"endTime":158.29023437499998,"note":33,"startBeat":421.60729166666664,"startTick":404743,"startTime":158.10273437499998,"velocity":68},{"channel":0,"duration":0.1875,"durationBeats":0.5,"durationTicks":480,"endBeat":422.35729166666664,"endTick":405463,"endTime":158.38398437499998,"note":70,"startBeat":421.85729166666664,"startTick":404983,"startTime":158.19648437499998,"velocity":68},{"channel":0,"duration":0.1875,"durationBeats":0.5,"durationTicks":480,"endBeat":422.35729166666664,"endTick":405463,"endTime":158.38398437499998,"note":67,"startBeat":421.85729166666664,"startTick":404983,"startTime":158.19648437499998,"velocity":68},{"channel":0,"duration":0.1875,"durationBeats":0.5,"durationTicks":480,"endBeat":422.35729166666664,"endTick":405463,"endTime":158.38398437499998,"note":65,"startBeat":421.85729166666664,"startTick":404983,"startTime":158.19648437499998,"velocity":68},{"channel":0,"duration":0.1875,"durationBeats":0.5,"durationTicks":480,"endBeat":422.35729166666664,"endTick":405463,"endTime":158.38398437499998,"note":61,"startBeat":421.85729166666664,"startTick":404983,"startTime":158.19648437499998,"velocity":68},{"channel":0,"duration":0.1875,"durationBeats":0.5,"durationTicks":480,"endBeat":422.85729166666664,"endTick":405943,"endTime":158.57148437499998,"note":33,"startBeat":422.35729166666664,"startTick":405463,"startTime":158.38398437499998,"velocity":68},{"channel":0,"duration":0.1875,"durationBeats":0.5,"durationTicks":480,"endBeat":423.35729166666664,"endTick":406423,"endTime":158.75898437499998,"note":69,"startBeat":422.85729166666664,"startTick":405943,"startTime":158.57148437499998,"velocity":68},{"channel":0,"duration":0.1875,"durationBeats":0.5,"durationTicks":480,"endBeat":423.35729166666664,"endTick":406423,"endTime":158.75898437499998,"note":65,"startBeat":422.85729166666664,"startTick":405943,"startTime":158.57148437499998,"velocity":68},{"channel":0,"duration":0.1875,"durationBeats":0.5,"durationTicks":480,"endBeat":423.35729166666664,"endTick":406423,"endTime":158.75898437499998,"note":64,"startBeat":422.85729166666664,"startTick":405943,"startTime":158.57148437499998,"velocity":68},{"channel":0,"duration":0.1875,"durationBeats":0.5,"durationTicks":480,"endBeat":423.35729166666664,"endTick":406423,"endTime":158.75898437499998,"note":60,"startBeat":422.85729166666664,"startTick":405943,"startTime":158.57148437499998,"velocity":68},{"channel":0,"duration":0.1875,"durationBeats":0.5,"durationTicks":480,"endBeat":423.35729166666664,"endTick":406423,"endTime":158.75898437499998,"note":26,"startBeat":422.85729166666664,"startTick":405943,"startTime":158.57148437499998,"velocity":68},{"channel":0,"duration":0.1875,"durationBeats":0.5,"durationTicks":480,"endBeat":424.35729166666664,"endTick":407383,"endTime":159.13398437499998,"note":26,"startBeat":423.85729166666664,"startTick":406903,"startTime":158.94648437499998,"velocity":68},{"channel":0,"duration":0.1875,"durationBeats":0.5,"durationTicks":480,"endBeat":425.35729166666664,"endTick":408343,"endTime":159.50898437499998,"note":65,"startBeat":424.85729166666664,"startTick":407863,"startTime":159.32148437499998,"velocity":68},{"channel":0,"duration":0.1875,"durationBeats":0.5,"durationTicks":480,"endBeat":425.35729166666664,"endTick":408343,"endTime":159.50898437499998,"note":69,"startBeat":424.85729166666664,"startTick":407863,"startTime":159.32148437499998,"velocity":68},{"channel":0,"duration":0.1875,"durationBeats":0.5,"durationTicks":480,"endBeat":425.35729166666664,"endTick":408343,"endTime":159.50898437499998,"note":60,"startBeat":424.85729166666664,"startTick":407863,"startTime":159.32148437499998,"velocity":68},{"channel":0,"duration":0.1875,"durationBeats":0.5,"durationTicks":480,"endBeat":425.35729166666664,"endTick":408343,"endTime":159.50898437499998,"note":64,"startBeat":424.85729166666664,"startTick":407863,"startTime":159.32148437499998,"velocity":68},{"channel":0,"duration":0.1875,"durationBeats":0.5,"durationTicks":480,"endBeat":425.35729166666664,"endTick":408343,"endTime":159.50898437499998,"note":38,"startBeat":424.85729166666664,"startTick":407863,"startTime":159.32148437499998,"velocity":68},{"channel":0,"duration":0.1875,"durationBeats":0.5,"durationTicks":480,"endBeat":426.10729166666664,"endTick":409063,"endTime":159.79023437499998,"note":33,"startBeat":425.60729166666664,"startTick":408583,"startTime":159.60273437499998,"velocity":68},{"channel":0,"duration":0.1875,"durationBeats":0.5,"durationTicks":480,"endBeat":426.35729166666664,"endTick":409303,"endTime":159.88398437499998,"note":68,"startBeat":425.85729166666664,"startTick":408823,"startTime":159.69648437499998,"velocity":68},{"channel":0,"duration":0.1875,"durationBeats":0.5,"durationTicks":480,"endBeat":426.35729166666664,"endTick":409303,"endTime":159.88398437499998,"note":63,"startBeat":425.85729166666664,"startTick":408823,"startTime":159.69648437499998,"velocity":68},{"channel":0,"duration":0.1875,"durationBeats":0.5,"durationTicks":480,"endBeat":426.35729166666664,"endTick":409303,"endTime":159.88398437499998,"note":59,"startBeat":425.85729166666664,"startTick":408823,"startTime":159.69648437499998,"velocity":68},{"channel":0,"duration":0.1875,"durationBeats":0.5,"durationTicks":480,"endBeat":426.85729166666664,"endTick":409783,"endTime":160.07148437499998,"note":32,"startBeat":426.35729166666664,"startTick":409303,"startTime":159.88398437499998,"velocity":68},{"channel":0,"duration":0.1875,"durationBeats":0.5,"durationTicks":480,"endBeat":427.35729166666664,"endTick":410263,"endTime":160.25898437499998,"note":31,"startBeat":426.85729166666664,"startTick":409783,"startTime":160.07148437499998,"velocity":68},{"channel":0,"duration":0.375,"durationBeats":1,"durationTicks":960,"endBeat":427.85729166666664,"endTick":410743,"endTime":160.44648437499998,"note":69,"startBeat":426.85729166666664,"startTick":409783,"startTime":160.07148437499998,"velocity":68},{"channel":0,"duration":0.375,"durationBeats":1,"durationTicks":960,"endBeat":427.85729166666664,"endTick":410743,"endTime":160.44648437499998,"note":65,"startBeat":426.85729166666664,"startTick":409783,"startTime":160.07148437499998,"velocity":68},{"channel":0,"duration":0.375,"durationBeats":1,"durationTicks":960,"endBeat":427.85729166666664,"endTick":410743,"endTime":160.44648437499998,"note":62,"startBeat":426.85729166666664,"startTick":409783,"startTime":160.07148437499998,"velocity":68},{"channel":0,"duration":0.375,"durationBeats":1,"durationTicks":960,"endBeat":427.85729166666664,"endTick":410743,"endTime":160.44648437499998,"note":58,"startBeat":426.85729166666664,"startTick":409783,"startTime":160.07148437499998,"velocity":68},{"channel":0,"duration":0.1875,"durationBeats":0.5,"durationTicks":480,"endBeat":428.35729166666664,"endTick":411223,"endTime":160.63398437499998,"note":31,"startBeat":427.85729166666664,"startTick":410743,"startTime":160.44648437499998,"velocity":68},{"channel":0,"duration":0.1875,"durationBeats":0.5,"durationTicks":480,"endBeat":429.35729166666664,"endTick":412183,"endTime":161.00898437499998,"note":60,"startBeat":428.85729166666664,"startTick":411703,"startTime":160.82148437499998,"velocity":68},{"channel":0,"duration":0.1875,"durationBeats":0.5,"durationTicks":480,"endBeat":429.35729166666664,"endTick":412183,"endTime":161.00898437499998,"note":64,"startBeat":428.85729166666664,"startTick":411703,"startTime":160.82148437499998,"velocity":68},{"channel":0,"duration":0.1875,"durationBeats":0.5,"durationTicks":480,"endBeat":429.35729166666664,"endTick":412183,"endTime":161.00898437499998,"note":67,"startBeat":428.85729166666664,"startTick":411703,"startTime":160.82148437499998,"velocity":68},{"channel":0,"duration":0.1875,"durationBeats":0.5,"durationTicks":480,"endBeat":429.35729166666664,"endTick":412183,"endTime":161.00898437499998,"note":72,"startBeat":428.85729166666664,"startTick":411703,"startTime":160.82148437499998,"velocity":68},{"channel":0,"duration":0.1875,"durationBeats":0.5,"durationTicks":480,"endBeat":429.35729166666664,"endTick":412183,"endTime":161.00898437499998,"note":33,"startBeat":428.85729166666664,"startTick":411703,"startTime":160.82148437499998,"velocity":68},{"channel":0,"duration":0.1875,"durationBeats":0.5,"durationTicks":480,"endBeat":430.10729166666664,"endTick":412903,"endTime":161.29023437499998,"note":33,"startBeat":429.60729166666664,"startTick":412423,"startTime":161.10273437499998,"velocity":68},{"channel":0,"duration":0.1875,"durationBeats":0.5,"durationTicks":480,"endBeat":430.35729166666664,"endTick":413143,"endTime":161.38398437499998,"note":70,"startBeat":429.85729166666664,"startTick":412663,"startTime":161.19648437499998,"velocity":68},{"channel":0,"duration":0.1875,"durationBeats":0.5,"durationTicks":480,"endBeat":430.35729166666664,"endTick":413143,"endTime":161.38398437499998,"note":67,"startBeat":429.85729166666664,"startTick":412663,"startTime":161.19648437499998,"velocity":68},{"channel":0,"duration":0.1875,"durationBeats":0.5,"durationTicks":480,"endBeat":430.35729166666664,"endTick":413143,"endTime":161.38398437499998,"note":65,"startBeat":429.85729166666664,"startTick":412663,"startTime":161.19648437499998,"velocity":68},{"channel":0,"duration":0.1875,"durationBeats":0.5,"durationTicks":480,"endBeat":430.35729166666664,"endTick":413143,"endTime":161.38398437499998,"note":61,"startBeat":429.85729166666664,"startTick":412663,"startTime":161.19648437499998,"velocity":68},{"channel":0,"duration":0.1875,"durationBeats":0.5,"durationTicks":480,"endBeat":430.85729166666664,"endTick":413623,"endTime":161.57148437499998,"note":33,"startBeat":430.35729166666664,"startTick":413143,"startTime":161.38398437499998,"velocity":68},{"channel":0,"duration":0.1875,"durationBeats":0.5,"durationTicks":480,"endBeat":431.35729166666664,"endTick":414103,"endTime":161.75898437499998,"note":69,"startBeat":430.85729166666664,"startTick":413623,"startTime":161.57148437499998,"velocity":68},{"channel":0,"duration":0.1875,"durationBeats":0.5,"durationTicks":480,"endBeat":431.35729166666664,"endTick":414103,"endTime":161.75898437499998,"note":65,"startBeat":430.85729166666664,"startTick":413623,"startTime":161.57148437499998,"velocity":68},{"channel":0,"duration":0.1875,"durationBeats":0.5,"durationTicks":480,"endBeat":431.35729166666664,"endTick":414103,"endTime":161.75898437499998,"note":64,"startBeat":430.85729166666664,"startTick":413623,"startTime":161.57148437499998,"velocity":68},{"channel":0,"duration":0.1875,"durationBeats":0.5,"durationTicks":480,"endBeat":431.35729166666664,"endTick":414103,"endTime":161.75898437499998,"note":60,"startBeat":430.85729166666664,"startTick":413623,"startTime":161.57148437499998,"velocity":68},{"channel":0,"duration":0.1875,"durationBeats":0.5,"durationTicks":480,"endBeat":431.35729166666664,"endTick":414103,"endTime":161.75898437499998,"note":26,"startBeat":430.85729166666664,"startTick":413623,"startTime":161.57148437499998,"velocity":68},{"channel":0,"duration":0.1875,"durationBeats":0.5,"durationTicks":480,"endBeat":432.35729166666664,"endTick":415063,"endTime":162.13398437499998,"note":26,"startBeat":431.85729166666664,"startTick":414583,"startTime":161.94648437499998,"velocity":68},{"channel":0,"duration":0.1875,"durationBeats":0.5,"durationTicks":480,"endBeat":433.35729166666664,"endTick":416023,"endTime":162.50898437499998,"note":65,"startBeat":432.85729166666664,"startTick":415543,"startTime":162.32148437499998,"velocity":68},{"channel":0,"duration":0.1875,"durationBeats":0.5,"durationTicks":480,"endBeat":433.35729166666664,"endTick":416023,"endTime":162.50898437499998,"note":69,"startBeat":432.85729166666664,"startTick":415543,"startTime":162.32148437499998,"velocity":68},{"channel":0,"duration":0.1875,"durationBeats":0.5,"durationTicks":480,"endBeat":433.35729166666664,"endTick":416023,"endTime":162.50898437499998,"note":60,"startBeat":432.85729166666664,"startTick":415543,"startTime":162.32148437499998,"velocity":68},{"channel":0,"duration":0.1875,"durationBeats":0.5,"durationTicks":480,"endBeat":433.35729166666664,"endTick":416023,"endTime":162.50898437499998,"note":64,"startBeat":432.85729166666664,"startTick":415543,"startTime":162.32148437499998,"velocity":68},{"channel":0,"duration":0.1875,"durationBeats":0.5,"durationTicks":480,"endBeat":433.35729166666664,"endTick":416023,"endTime":162.50898437499998,"note":38,"startBeat":432.85729166666664,"startTick":415543,"startTime":162.32148437499998,"velocity":68},{"channel":0,"duration":0.1875,"durationBeats":0.5,"durationTicks":480,"endBeat":434.10729166666664,"endTick":416743,"endTime":162.79023437499998,"note":33,"startBeat":433.60729166666664,"startTick":416263,"startTime":162.60273437499998,"velocity":68},{"channel":0,"duration":0.1875,"durationBeats":0.5,"durationTicks":480,"endBeat":434.35729166666664,"endTick":416983,"endTime":162.88398437499998,"note":68,"startBeat":433.85729166666664,"startTick":416503,"startTime":162.69648437499998,"velocity":68},{"channel":0,"duration":0.1875,"durationBeats":0.5,"durationTicks":480,"endBeat":434.35729166666664,"endTick":416983,"endTime":162.88398437499998,"note":63,"startBeat":433.85729166666664,"startTick":416503,"startTime":162.69648437499998,"velocity":68},{"channel":0,"duration":0.1875,"durationBeats":0.5,"durationTicks":480,"endBeat":434.35729166666664,"endTick":416983,"endTime":162.88398437499998,"note":59,"startBeat":433.85729166666664,"startTick":416503,"startTime":162.69648437499998,"velocity":68},{"channel":0,"duration":0.1875,"durationBeats":0.5,"durationTicks":480,"endBeat":434.85729166666664,"endTick":417463,"endTime":163.07148437499998,"note":32,"startBeat":434.35729166666664,"startTick":416983,"startTime":162.88398437499998,"velocity":68},{"channel":0,"duration":0.1875,"durationBeats":0.5,"durationTicks":480,"endBeat":435.35729166666664,"endTick":417943,"endTime":163.25898437499998,"note":31,"startBeat":434.85729166666664,"startTick":417463,"startTime":163.07148437499998,"velocity":68},{"channel":0,"duration":0.375,"durationBeats":1,"durationTicks":960,"endBeat":435.85729166666664,"endTick":418423,"endTime":163.44648437499998,"note":69,"startBeat":434.85729166666664,"startTick":417463,"startTime":163.07148437499998,"velocity":68},{"channel":0,"duration":0.375,"durationBeats":1,"durationTicks":960,"endBeat":435.85729166666664,"endTick":418423,"endTime":163.44648437499998,"note":65,"startBeat":434.85729166666664,"startTick":417463,"startTime":163.07148437499998,"velocity":68},{"channel":0,"duration":0.375,"durationBeats":1,"durationTicks":960,"endBeat":435.85729166666664,"endTick":418423,"endTime":163.44648437499998,"note":62,"startBeat":434.85729166666664,"startTick":417463,"startTime":163.07148437499998,"velocity":68},{"channel":0,"duration":0.375,"durationBeats":1,"durationTicks":960,"endBeat":435.85729166666664,"endTick":418423,"endTime":163.44648437499998,"note":58,"startBeat":434.85729166666664,"startTick":417463,"startTime":163.07148437499998,"velocity":68},{"channel":0,"duration":0.1875,"durationBeats":0.5,"durationTicks":480,"endBeat":436.35729166666664,"endTick":418903,"endTime":163.63398437499998,"note":31,"startBeat":435.85729166666664,"startTick":418423,"startTime":163.44648437499998,"velocity":68},{"channel":0,"duration":0.1875,"durationBeats":0.5,"durationTicks":480,"endBeat":437.35729166666664,"endTick":419863,"endTime":164.00898437499998,"note":60,"startBeat":436.85729166666664,"startTick":419383,"startTime":163.82148437499998,"velocity":68},{"channel":0,"duration":0.1875,"durationBeats":0.5,"durationTicks":480,"endBeat":437.35729166666664,"endTick":419863,"endTime":164.00898437499998,"note":64,"startBeat":436.85729166666664,"startTick":419383,"startTime":163.82148437499998,"velocity":68},{"channel":0,"duration":0.1875,"durationBeats":0.5,"durationTicks":480,"endBeat":437.35729166666664,"endTick":419863,"endTime":164.00898437499998,"note":67,"startBeat":436.85729166666664,"startTick":419383,"startTime":163.82148437499998,"velocity":68},{"channel":0,"duration":0.1875,"durationBeats":0.5,"durationTicks":480,"endBeat":437.35729166666664,"endTick":419863,"endTime":164.00898437499998,"note":72,"startBeat":436.85729166666664,"startTick":419383,"startTime":163.82148437499998,"velocity":68},{"channel":0,"duration":0.1875,"durationBeats":0.5,"durationTicks":480,"endBeat":437.35729166666664,"endTick":419863,"endTime":164.00898437499998,"note":33,"startBeat":436.85729166666664,"startTick":419383,"startTime":163.82148437499998,"velocity":68},{"channel":0,"duration":0.1875,"durationBeats":0.5,"durationTicks":480,"endBeat":438.10729166666664,"endTick":420583,"endTime":164.29023437499998,"note":33,"startBeat":437.60729166666664,"startTick":420103,"startTime":164.10273437499998,"velocity":68},{"channel":0,"duration":0.1875,"durationBeats":0.5,"durationTicks":480,"endBeat":438.35729166666664,"endTick":420823,"endTime":164.38398437499998,"note":70,"startBeat":437.85729166666664,"startTick":420343,"startTime":164.19648437499998,"velocity":68},{"channel":0,"duration":0.1875,"durationBeats":0.5,"durationTicks":480,"endBeat":438.35729166666664,"endTick":420823,"endTime":164.38398437499998,"note":67,"startBeat":437.85729166666664,"startTick":420343,"startTime":164.19648437499998,"velocity":68},{"channel":0,"duration":0.1875,"durationBeats":0.5,"durationTicks":480,"endBeat":438.35729166666664,"endTick":420823,"endTime":164.38398437499998,"note":65,"startBeat":437.85729166666664,"startTick":420343,"startTime":164.19648437499998,"velocity":68},{"channel":0,"duration":0.1875,"durationBeats":0.5,"durationTicks":480,"endBeat":438.35729166666664,"endTick":420823,"endTime":164.38398437499998,"note":61,"startBeat":437.85729166666664,"startTick":420343,"startTime":164.19648437499998,"velocity":68},{"channel":0,"duration":0.1875,"durationBeats":0.5,"durationTicks":480,"endBeat":438.85729166666664,"endTick":421303,"endTime":164.57148437499998,"note":33,"startBeat":438.35729166666664,"startTick":420823,"startTime":164.38398437499998,"velocity":68},{"channel":0,"duration":0.1875,"durationBeats":0.5,"durationTicks":480,"endBeat":439.35729166666664,"endTick":421783,"endTime":164.75898437499998,"note":69,"startBeat":438.85729166666664,"startTick":421303,"startTime":164.57148437499998,"velocity":68},{"channel":0,"duration":0.1875,"durationBeats":0.5,"durationTicks":480,"endBeat":439.35729166666664,"endTick":421783,"endTime":164.75898437499998,"note":65,"startBeat":438.85729166666664,"startTick":421303,"startTime":164.57148437499998,"velocity":68},{"channel":0,"duration":0.1875,"durationBeats":0.5,"durationTicks":480,"endBeat":439.35729166666664,"endTick":421783,"endTime":164.75898437499998,"note":64,"startBeat":438.85729166666664,"startTick":421303,"startTime":164.57148437499998,"velocity":68},{"channel":0,"duration":0.1875,"durationBeats":0.5,"durationTicks":480,"endBeat":439.35729166666664,"endTick":421783,"endTime":164.75898437499998,"note":60,"startBeat":438.85729166666664,"startTick":421303,"startTime":164.57148437499998,"velocity":68},{"channel":0,"duration":0.1875,"durationBeats":0.5,"durationTicks":480,"endBeat":439.35729166666664,"endTick":421783,"endTime":164.75898437499998,"note":26,"startBeat":438.85729166666664,"startTick":421303,"startTime":164.57148437499998,"velocity":68},{"channel":0,"duration":0.1875,"durationBeats":0.5,"durationTicks":480,"endBeat":440.35729166666664,"endTick":422743,"endTime":165.13398437499998,"note":26,"startBeat":439.85729166666664,"startTick":422263,"startTime":164.94648437499998,"velocity":68},{"channel":0,"duration":0.1875,"durationBeats":0.5,"durationTicks":480,"endBeat":441.35729166666664,"endTick":423703,"endTime":165.50898437499998,"note":65,"startBeat":440.85729166666664,"startTick":423223,"startTime":165.32148437499998,"velocity":68},{"channel":0,"duration":0.1875,"durationBeats":0.5,"durationTicks":480,"endBeat":441.35729166666664,"endTick":423703,"endTime":165.50898437499998,"note":69,"startBeat":440.85729166666664,"startTick":423223,"startTime":165.32148437499998,"velocity":68},{"channel":0,"duration":0.1875,"durationBeats":0.5,"durationTicks":480,"endBeat":441.35729166666664,"endTick":423703,"endTime":165.50898437499998,"note":60,"startBeat":440.85729166666664,"startTick":423223,"startTime":165.32148437499998,"velocity":68},{"channel":0,"duration":0.1875,"durationBeats":0.5,"durationTicks":480,"endBeat":441.35729166666664,"endTick":423703,"endTime":165.50898437499998,"note":64,"startBeat":440.85729166666664,"startTick":423223,"startTime":165.32148437499998,"velocity":68},{"channel":0,"duration":0.1875,"durationBeats":0.5,"durationTicks":480,"endBeat":441.35729166666664,"endTick":423703,"endTime":165.50898437499998,"note":38,"startBeat":440.85729166666664,"startTick":423223,"startTime":165.32148437499998,"velocity":68},{"channel":0,"duration":0.1875,"durationBeats":0.5,"durationTicks":480,"endBeat":442.10729166666664,"endTick":424423,"endTime":165.79023437499998,"note":33,"startBeat":441.60729166666664,"startTick":423943,"startTime":165.60273437499998,"velocity":68},{"channel":0,"duration":0.1875,"durationBeats":0.5,"durationTicks":480,"endBeat":442.35729166666664,"endTick":424663,"endTime":165.88398437499998,"note":68,"startBeat":441.85729166666664,"startTick":424183,"startTime":165.69648437499998,"velocity":68},{"channel":0,"duration":0.1875,"durationBeats":0.5,"durationTicks":480,"endBeat":442.35729166666664,"endTick":424663,"endTime":165.88398437499998,"note":63,"startBeat":441.85729166666664,"startTick":424183,"startTime":165.69648437499998,"velocity":68},{"channel":0,"duration":0.1875,"durationBeats":0.5,"durationTicks":480,"endBeat":442.35729166666664,"endTick":424663,"endTime":165.88398437499998,"note":59,"startBeat":441.85729166666664,"startTick":424183,"startTime":165.69648437499998,"velocity":68},{"channel":0,"duration":0.1875,"durationBeats":0.5,"durationTicks":480,"endBeat":443.35729166666664,"endTick":425623,"endTime":166.25898437499998,"note":43,"startBeat":442.85729166666664,"startTick":425143,"startTime":166.07148437499998,"velocity":68},{"channel":0,"duration":0.375,"durationBeats":1,"durationTicks":960,"endBeat":443.85729166666664,"endTick":426103,"endTime":166.44648437499998,"note":69,"startBeat":442.85729166666664,"startTick":425143,"startTime":166.07148437499998,"velocity":68},{"channel":0,"duration":0.375,"durationBeats":1,"durationTicks":960,"endBeat":443.85729166666664,"endTick":426103,"endTime":166.44648437499998,"note":65,"startBeat":442.85729166666664,"startTick":425143,"startTime":166.07148437499998,"velocity":68},{"channel":0,"duration":0.375,"durationBeats":1,"durationTicks":960,"endBeat":443.85729166666664,"endTick":426103,"endTime":166.44648437499998,"note":62,"startBeat":442.85729166666664,"startTick":425143,"startTime":166.07148437499998,"velocity":68},{"channel":0,"duration":0.375,"durationBeats":1,"durationTicks":960,"endBeat":443.85729166666664,"endTick":426103,"endTime":166.44648437499998,"note":58,"startBeat":442.85729166666664,"startTick":425143,"startTime":166.07148437499998,"velocity":68},{"channel":0,"duration":0.1875,"durationBeats":0.5,"durationTicks":480,"endBeat":443.85729166666664,"endTick":426103,"endTime":166.44648437499998,"note":50,"startBeat":443.35729166666664,"startTick":425623,"startTime":166.25898437499998,"velocity":68},{"channel":0,"duration":0.1875,"durationBeats":0.5,"durationTicks":480,"endBeat":444.35729166666664,"endTick":426583,"endTime":166.63398437499998,"note":43,"startBeat":443.85729166666664,"startTick":426103,"startTime":166.44648437499998,"velocity":68},{"channel":0,"duration":0.09375,"durationBeats":0.25,"durationTicks":240,"endBeat":444.60729166666664,"endTick":426823,"endTime":166.72773437499998,"note":65,"startBeat":444.35729166666664,"startTick":426583,"startTime":166.63398437499998,"velocity":68},{"channel":0,"duration":0.1875,"durationBeats":0.5,"durationTicks":480,"endBeat":444.85729166666664,"endTick":427063,"endTime":166.82148437499998,"note":44,"startBeat":444.35729166666664,"startTick":426583,"startTime":166.63398437499998,"velocity":68},{"channel":0,"duration":0.09375,"durationBeats":0.25,"durationTicks":240,"endBeat":444.85729166666664,"endTick":427063,"endTime":166.82148437499998,"note":69,"startBeat":444.60729166666664,"startTick":426823,"startTime":166.72773437499998,"velocity":68},{"channel":0,"duration":0.1875,"durationBeats":0.5,"durationTicks":480,"endBeat":445.35729166666664,"endTick":427543,"endTime":167.00898437499998,"note":60,"startBeat":444.85729166666664,"startTick":427063,"startTime":166.82148437499998,"velocity":68},{"channel":0,"duration":0.1875,"durationBeats":0.5,"durationTicks":480,"endBeat":445.35729166666664,"endTick":427543,"endTime":167.00898437499998,"note":64,"startBeat":444.85729166666664,"startTick":427063,"startTime":166.82148437499998,"velocity":68},{"channel":0,"duration":0.1875,"durationBeats":0.5,"durationTicks":480,"endBeat":445.35729166666664,"endTick":427543,"endTime":167.00898437499998,"note":67,"startBeat":444.85729166666664,"startTick":427063,"startTime":166.82148437499998,"velocity":68},{"channel":0,"duration":0.1875,"durationBeats":0.5,"durationTicks":480,"endBeat":445.35729166666664,"endTick":427543,"endTime":167.00898437499998,"note":72,"startBeat":444.85729166666664,"startTick":427063,"startTime":166.82148437499998,"velocity":68},{"channel":0,"duration":0.1875,"durationBeats":0.5,"durationTicks":480,"endBeat":445.35729166666664,"endTick":427543,"endTime":167.00898437499998,"note":45,"startBeat":444.85729166666664,"startTick":427063,"startTime":166.82148437499998,"velocity":68},{"channel":0,"duration":0.09375,"durationBeats":0.25,"durationTicks":240,"endBeat":445.85729166666664,"endTick":428023,"endTime":167.19648437499998,"note":45,"startBeat":445.60729166666664,"startTick":427783,"startTime":167.10273437499998,"velocity":68},{"channel":0,"duration":0.1875,"durationBeats":0.5,"durationTicks":480,"endBeat":446.10729166666664,"endTick":428263,"endTime":167.29023437499998,"note":70,"startBeat":445.60729166666664,"startTick":427783,"startTime":167.10273437499998,"velocity":68},{"channel":0,"duration":0.1875,"durationBeats":0.5,"durationTicks":480,"endBeat":446.10729166666664,"endTick":428263,"endTime":167.29023437499998,"note":67,"startBeat":445.60729166666664,"startTick":427783,"startTime":167.10273437499998,"velocity":68},{"channel":0,"duration":0.1875,"durationBeats":0.5,"durationTicks":480,"endBeat":446.10729166666664,"endTick":428263,"endTime":167.29023437499998,"note":65,"startBeat":445.60729166666664,"startTick":427783,"startTime":167.10273437499998,"velocity":68},{"channel":0,"duration":0.1875,"durationBeats":0.5,"durationTicks":480,"endBeat":446.10729166666664,"endTick":428263,"endTime":167.29023437499998,"note":61,"startBeat":445.60729166666664,"startTick":427783,"startTime":167.10273437499998,"velocity":68},{"channel":0,"duration":0.1875,"durationBeats":0.5,"durationTicks":480,"endBeat":446.85729166666664,"endTick":428983,"endTime":167.57148437499998,"note":69,"startBeat":446.35729166666664,"startTick":428503,"startTime":167.38398437499998,"velocity":68},{"channel":0,"duration":0.1875,"durationBeats":0.5,"durationTicks":480,"endBeat":446.85729166666664,"endTick":428983,"endTime":167.57148437499998,"note":65,"startBeat":446.35729166666664,"startTick":428503,"startTime":167.38398437499998,"velocity":68},{"channel":0,"duration":0.1875,"durationBeats":0.5,"durationTicks":480,"endBeat":446.85729166666664,"endTick":428983,"endTime":167.57148437499998,"note":64,"startBeat":446.35729166666664,"startTick":428503,"startTime":167.38398437499998,"velocity":68},{"channel":0,"duration":0.1875,"durationBeats":0.5,"durationTicks":480,"endBeat":446.85729166666664,"endTick":428983,"endTime":167.57148437499998,"note":60,"startBeat":446.35729166666664,"startTick":428503,"startTime":167.38398437499998,"velocity":68},{"channel":0,"duration":0.1875,"durationBeats":0.5,"durationTicks":480,"endBeat":446.85729166666664,"endTick":428983,"endTime":167.57148437499998,"note":38,"startBeat":446.35729166666664,"startTick":428503,"startTime":167.38398437499998,"velocity":68},{"channel":0,"duration":0.09375,"durationBeats":0.25,"durationTicks":240,"endBeat":447.10729166666664,"endTick":429223,"endTime":167.66523437499998,"note":76,"startBeat":446.85729166666664,"startTick":428983,"startTime":167.57148437499998,"velocity":68},{"channel":0,"duration":0.09375,"durationBeats":0.25,"durationTicks":240,"endBeat":447.35729166666664,"endTick":429463,"endTime":167.75898437499998,"note":77,"startBeat":447.10729166666664,"startTick":429223,"startTime":167.66523437499998,"velocity":68},{"channel":0,"duration":0.09375,"durationBeats":0.25,"durationTicks":240,"endBeat":447.60729166666664,"endTick":429703,"endTime":167.85273437499998,"note":76,"startBeat":447.35729166666664,"startTick":429463,"startTime":167.75898437499998,"velocity":68},{"channel":0,"duration":0.09375,"durationBeats":0.25,"durationTicks":240,"endBeat":447.85729166666664,"endTick":429943,"endTime":167.94648437499998,"note":72,"startBeat":447.60729166666664,"startTick":429703,"startTime":167.85273437499998,"velocity":68},{"channel":0,"duration":0.09375,"durationBeats":0.25,"durationTicks":240,"endBeat":448.10729166666664,"endTick":430183,"endTime":168.04023437499998,"note":76,"startBeat":447.85729166666664,"startTick":429943,"startTime":167.94648437499998,"velocity":68},{"channel":0,"duration":0.09375,"durationBeats":0.25,"durationTicks":240,"endBeat":448.35729166666664,"endTick":430423,"endTime":168.13398437499998,"note":72,"startBeat":448.10729166666664,"startTick":430183,"startTime":168.04023437499998,"velocity":68},{"channel":0,"duration":0.09375,"durationBeats":0.25,"durationTicks":240,"endBeat":448.60729166666664,"endTick":430663,"endTime":168.22773437499998,"note":69,"startBeat":448.35729166666664,"startTick":430423,"startTime":168.13398437499998,"velocity":68},{"channel":0,"duration":0.1875,"durationBeats":0.5,"durationTicks":480,"endBeat":448.85729166666664,"endTick":430903,"endTime":168.32148437499998,"note":45,"startBeat":448.35729166666664,"startTick":430423,"startTime":168.13398437499998,"velocity":68},{"channel":0,"duration":0.09375,"durationBeats":0.25,"durationTicks":240,"endBeat":448.85729166666664,"endTick":430903,"endTime":168.32148437499998,"note":67,"startBeat":448.60729166666664,"startTick":430663,"startTime":168.22773437499998,"velocity":68},{"channel":0,"duration":0.09375,"durationBeats":0.25,"durationTicks":240,"endBeat":449.10729166666664,"endTick":431143,"endTime":168.41523437499998,"note":69,"startBeat":448.85729166666664,"startTick":430903,"startTime":168.32148437499998,"velocity":68},{"channel":0,"duration":0.1875,"durationBeats":0.5,"durationTicks":480,"endBeat":449.35729166666664,"endTick":431383,"endTime":168.50898437499998,"note":50,"startBeat":448.85729166666664,"startTick":430903,"startTime":168.32148437499998,"velocity":68},{"channel":0,"duration":0.09375,"durationBeats":0.25,"durationTicks":240,"endBeat":449.35729166666664,"endTick":431383,"endTime":168.50898437499998,"note":62,"startBeat":449.10729166666664,"startTick":431143,"startTime":168.41523437499998,"velocity":68},{"channel":0,"duration":0.09375,"durationBeats":0.25,"durationTicks":240,"endBeat":449.60729166666664,"endTick":431623,"endTime":168.60273437499998,"note":60,"startBeat":449.35729166666664,"startTick":431383,"startTime":168.50898437499998,"velocity":68},{"channel":0,"duration":0.1875,"durationBeats":0.5,"durationTicks":480,"endBeat":449.85729166666664,"endTick":431863,"endTime":168.69648437499998,"note":38,"startBeat":449.35729166666664,"startTick":431383,"startTime":168.50898437499998,"velocity":68},{"channel":0,"duration":0.09375,"durationBeats":0.25,"durationTicks":240,"endBeat":449.85729166666664,"endTick":431863,"endTime":168.69648437499998,"note":65,"startBeat":449.60729166666664,"startTick":431623,"startTime":168.60273437499998,"velocity":68},{"channel":0,"duration":0.1875,"durationBeats":0.5,"durationTicks":480,"endBeat":450.35729166666664,"endTick":432343,"endTime":168.88398437499998,"note":45,"startBeat":449.85729166666664,"startTick":431863,"startTime":168.69648437499998,"velocity":68},{"channel":0,"duration":0.1875,"durationBeats":0.5,"durationTicks":480,"endBeat":450.35729166666664,"endTick":432343,"endTime":168.88398437499998,"note":69,"startBeat":449.85729166666664,"startTick":431863,"startTime":168.69648437499998,"velocity":68},{"channel":0,"duration":0.1875,"durationBeats":0.5,"durationTicks":480,"endBeat":450.35729166666664,"endTick":432343,"endTime":168.88398437499998,"note":60,"startBeat":449.85729166666664,"startTick":431863,"startTime":168.69648437499998,"velocity":68},{"channel":0,"duration":0.1875,"durationBeats":0.5,"durationTicks":480,"endBeat":450.35729166666664,"endTick":432343,"endTime":168.88398437499998,"note":64,"startBeat":449.85729166666664,"startTick":431863,"startTime":168.69648437499998,"velocity":68},{"channel":0,"duration":0.1875,"durationBeats":0.5,"durationTicks":480,"endBeat":450.85729166666664,"endTick":432823,"endTime":169.07148437499998,"note":44,"startBeat":450.35729166666664,"startTick":432343,"startTime":168.88398437499998,"velocity":68},{"channel":0,"duration":0.1875,"durationBeats":0.5,"durationTicks":480,"endBeat":450.85729166666664,"endTick":432823,"endTime":169.07148437499998,"note":68,"startBeat":450.35729166666664,"startTick":432343,"startTime":168.88398437499998,"velocity":68},{"channel":0,"duration":0.1875,"durationBeats":0.5,"durationTicks":480,"endBeat":450.85729166666664,"endTick":432823,"endTime":169.07148437499998,"note":63,"startBeat":450.35729166666664,"startTick":432343,"startTime":168.88398437499998,"velocity":68},{"channel":0,"duration":0.1875,"durationBeats":0.5,"durationTicks":480,"endBeat":450.85729166666664,"endTick":432823,"endTime":169.07148437499998,"note":59,"startBeat":450.35729166666664,"startTick":432343,"startTime":168.88398437499998,"velocity":68},{"channel":0,"duration":0.1875,"durationBeats":0.5,"durationTicks":480,"endBeat":451.35729166666664,"endTick":433303,"endTime":169.25898437499998,"note":43,"startBeat":450.85729166666664,"startTick":432823,"startTime":169.07148437499998,"velocity":68},{"channel":0,"duration":0.375,"durationBeats":1,"durationTicks":960,"endBeat":451.85729166666664,"endTick":433783,"endTime":169.44648437499998,"note":69,"startBeat":450.85729166666664,"startTick":432823,"startTime":169.07148437499998,"velocity":68},{"channel":0,"duration":0.375,"durationBeats":1,"durationTicks":960,"endBeat":451.85729166666664,"endTick":433783,"endTime":169.44648437499998,"note":65,"startBeat":450.85729166666664,"startTick":432823,"startTime":169.07148437499998,"velocity":68},{"channel":0,"duration":0.375,"durationBeats":1,"durationTicks":960,"endBeat":451.85729166666664,"endTick":433783,"endTime":169.44648437499998,"note":62,"startBeat":450.85729166666664,"startTick":432823,"startTime":169.07148437499998,"velocity":68},{"channel":0,"duration":0.375,"durationBeats":1,"durationTicks":960,"endBeat":451.85729166666664,"endTick":433783,"endTime":169.44648437499998,"note":58,"startBeat":450.85729166666664,"startTick":432823,"startTime":169.07148437499998,"velocity":68},{"channel":0,"duration":0.1875,"durationBeats":0.5,"durationTicks":480,"endBeat":451.85729166666664,"endTick":433783,"endTime":169.44648437499998,"note":50,"startBeat":451.35729166666664,"startTick":433303,"startTime":169.25898437499998,"velocity":68},{"channel":0,"duration":0.1875,"durationBeats":0.5,"durationTicks":480,"endBeat":452.35729166666664,"endTick":434263,"endTime":169.63398437499998,"note":43,"startBeat":451.85729166666664,"startTick":433783,"startTime":169.44648437499998,"velocity":68},{"channel":0,"duration":0.09375,"durationBeats":0.25,"durationTicks":240,"endBeat":452.60729166666664,"endTick":434503,"endTime":169.72773437499998,"note":65,"startBeat":452.35729166666664,"startTick":434263,"startTime":169.63398437499998,"velocity":68},{"channel":0,"duration":0.1875,"durationBeats":0.5,"durationTicks":480,"endBeat":452.85729166666664,"endTick":434743,"endTime":169.82148437499998,"note":44,"startBeat":452.35729166666664,"startTick":434263,"startTime":169.63398437499998,"velocity":68},{"channel":0,"duration":0.09375,"durationBeats":0.25,"durationTicks":240,"endBeat":452.85729166666664,"endTick":434743,"endTime":169.82148437499998,"note":69,"startBeat":452.60729166666664,"startTick":434503,"startTime":169.72773437499998,"velocity":68},{"channel":0,"duration":0.1875,"durationBeats":0.5,"durationTicks":480,"endBeat":453.35729166666664,"endTick":435223,"endTime":170.00898437499998,"note":60,"startBeat":452.85729166666664,"startTick":434743,"startTime":169.82148437499998,"velocity":68},{"channel":0,"duration":0.1875,"durationBeats":0.5,"durationTicks":480,"endBeat":453.35729166666664,"endTick":435223,"endTime":170.00898437499998,"note":64,"startBeat":452.85729166666664,"startTick":434743,"startTime":169.82148437499998,"velocity":68},{"channel":0,"duration":0.1875,"durationBeats":0.5,"durationTicks":480,"endBeat":453.35729166666664,"endTick":435223,"endTime":170.00898437499998,"note":67,"startBeat":452.85729166666664,"startTick":434743,"startTime":169.82148437499998,"velocity":68},{"channel":0,"duration":0.1875,"durationBeats":0.5,"durationTicks":480,"endBeat":453.35729166666664,"endTick":435223,"endTime":170.00898437499998,"note":72,"startBeat":452.85729166666664,"startTick":434743,"startTime":169.82148437499998,"velocity":68},{"channel":0,"duration":0.1875,"durationBeats":0.5,"durationTicks":480,"endBeat":453.35729166666664,"endTick":435223,"endTime":170.00898437499998,"note":45,"startBeat":452.85729166666664,"startTick":434743,"startTime":169.82148437499998,"velocity":68},{"channel":0,"duration":0.09375,"durationBeats":0.25,"durationTicks":240,"endBeat":453.85729166666664,"endTick":435703,"endTime":170.19648437499998,"note":45,"startBeat":453.60729166666664,"startTick":435463,"startTime":170.10273437499998,"velocity":68},{"channel":0,"duration":0.1875,"durationBeats":0.5,"durationTicks":480,"endBeat":454.10729166666664,"endTick":435943,"endTime":170.29023437499998,"note":70,"startBeat":453.60729166666664,"startTick":435463,"startTime":170.10273437499998,"velocity":68},{"channel":0,"duration":0.1875,"durationBeats":0.5,"durationTicks":480,"endBeat":454.10729166666664,"endTick":435943,"endTime":170.29023437499998,"note":67,"startBeat":453.60729166666664,"startTick":435463,"startTime":170.10273437499998,"velocity":68},{"channel":0,"duration":0.1875,"durationBeats":0.5,"durationTicks":480,"endBeat":454.10729166666664,"endTick":435943,"endTime":170.29023437499998,"note":65,"startBeat":453.60729166666664,"startTick":435463,"startTime":170.10273437499998,"velocity":68},{"channel":0,"duration":0.1875,"durationBeats":0.5,"durationTicks":480,"endBeat":454.10729166666664,"endTick":435943,"endTime":170.29023437499998,"note":61,"startBeat":453.60729166666664,"startTick":435463,"startTime":170.10273437499998,"velocity":68},{"channel":0,"duration":0.1875,"durationBeats":0.5,"durationTicks":480,"endBeat":454.85729166666664,"endTick":436663,"endTime":170.57148437499998,"note":69,"startBeat":454.35729166666664,"startTick":436183,"startTime":170.38398437499998,"velocity":68},{"channel":0,"duration":0.1875,"durationBeats":0.5,"durationTicks":480,"endBeat":454.85729166666664,"endTick":436663,"endTime":170.57148437499998,"note":65,"startBeat":454.35729166666664,"startTick":436183,"startTime":170.38398437499998,"velocity":68},{"channel":0,"duration":0.1875,"durationBeats":0.5,"durationTicks":480,"endBeat":454.85729166666664,"endTick":436663,"endTime":170.57148437499998,"note":64,"startBeat":454.35729166666664,"startTick":436183,"startTime":170.38398437499998,"velocity":68},{"channel":0,"duration":0.1875,"durationBeats":0.5,"durationTicks":480,"endBeat":454.85729166666664,"endTick":436663,"endTime":170.57148437499998,"note":60,"startBeat":454.35729166666664,"startTick":436183,"startTime":170.38398437499998,"velocity":68},{"channel":0,"duration":0.1875,"durationBeats":0.5,"durationTicks":480,"endBeat":454.85729166666664,"endTick":436663,"endTime":170.57148437499998,"note":38,"startBeat":454.35729166666664,"startTick":436183,"startTime":170.38398437499998,"velocity":68},{"channel":0,"duration":0.09375,"durationBeats":0.25,"durationTicks":240,"endBeat":455.10729166666664,"endTick":436903,"endTime":170.66523437499998,"note":76,"startBeat":454.85729166666664,"startTick":436663,"startTime":170.57148437499998,"velocity":68},{"channel":0,"duration":0.09375,"durationBeats":0.25,"durationTicks":240,"endBeat":455.35729166666664,"endTick":437143,"endTime":170.75898437499998,"note":77,"startBeat":455.10729166666664,"startTick":436903,"startTime":170.66523437499998,"velocity":68},{"channel":0,"duration":0.09375,"durationBeats":0.25,"durationTicks":240,"endBeat":455.60729166666664,"endTick":437383,"endTime":170.85273437499998,"note":79,"startBeat":455.35729166666664,"startTick":437143,"startTime":170.75898437499998,"velocity":68},{"channel":0,"duration":0.09375,"durationBeats":0.25,"durationTicks":240,"endBeat":455.85729166666664,"endTick":437623,"endTime":170.94648437499998,"note":77,"startBeat":455.60729166666664,"startTick":437383,"startTime":170.85273437499998,"velocity":68},{"channel":0,"duration":0.09375,"durationBeats":0.25,"durationTicks":240,"endBeat":456.10729166666664,"endTick":437863,"endTime":171.04023437499998,"note":76,"startBeat":455.85729166666664,"startTick":437623,"startTime":170.94648437499998,"velocity":68},{"channel":0,"duration":0.09375,"durationBeats":0.25,"durationTicks":240,"endBeat":456.35729166666664,"endTick":438103,"endTime":171.13398437499998,"note":72,"startBeat":456.10729166666664,"startTick":437863,"startTime":171.04023437499998,"velocity":68},{"channel":0,"duration":0.09375,"durationBeats":0.25,"durationTicks":240,"endBeat":456.60729166666664,"endTick":438343,"endTime":171.22773437499998,"note":69,"startBeat":456.35729166666664,"startTick":438103,"startTime":171.13398437499998,"velocity":68},{"channel":0,"duration":0.1875,"durationBeats":0.5,"durationTicks":480,"endBeat":456.85729166666664,"endTick":438583,"endTime":171.32148437499998,"note":45,"startBeat":456.35729166666664,"startTick":438103,"startTime":171.13398437499998,"velocity":68},{"channel":0,"duration":0.09375,"durationBeats":0.25,"durationTicks":240,"endBeat":456.85729166666664,"endTick":438583,"endTime":171.32148437499998,"note":67,"startBeat":456.60729166666664,"startTick":438343,"startTime":171.22773437499998,"velocity":68},{"channel":0,"duration":0.09375,"durationBeats":0.25,"durationTicks":240,"endBeat":457.10729166666664,"endTick":438823,"endTime":171.41523437499998,"note":69,"startBeat":456.85729166666664,"startTick":438583,"startTime":171.32148437499998,"velocity":68},{"channel":0,"duration":0.1875,"durationBeats":0.5,"durationTicks":480,"endBeat":457.35729166666664,"endTick":439063,"endTime":171.50898437499998,"note":50,"startBeat":456.85729166666664,"startTick":438583,"startTime":171.32148437499998,"velocity":68},{"channel":0,"duration":0.09375,"durationBeats":0.25,"durationTicks":240,"endBeat":457.35729166666664,"endTick":439063,"endTime":171.50898437499998,"note":62,"startBeat":457.10729166666664,"startTick":438823,"startTime":171.41523437499998,"velocity":68},{"channel":0,"duration":0.09375,"durationBeats":0.25,"durationTicks":240,"endBeat":457.60729166666664,"endTick":439303,"endTime":171.60273437499998,"note":60,"startBeat":457.35729166666664,"startTick":439063,"startTime":171.50898437499998,"velocity":68},{"channel":0,"duration":0.1875,"durationBeats":0.5,"durationTicks":480,"endBeat":457.85729166666664,"endTick":439543,"endTime":171.69648437499998,"note":38,"startBeat":457.35729166666664,"startTick":439063,"startTime":171.50898437499998,"velocity":68},{"channel":0,"duration":0.09375,"durationBeats":0.25,"durationTicks":240,"endBeat":457.85729166666664,"endTick":439543,"endTime":171.69648437499998,"note":65,"startBeat":457.60729166666664,"startTick":439303,"startTime":171.60273437499998,"velocity":68},{"channel":0,"duration":0.1875,"durationBeats":0.5,"durationTicks":480,"endBeat":458.35729166666664,"endTick":440023,"endTime":171.88398437499998,"note":45,"startBeat":457.85729166666664,"startTick":439543,"startTime":171.69648437499998,"velocity":68},{"channel":0,"duration":0.1875,"durationBeats":0.5,"durationTicks":480,"endBeat":458.35729166666664,"endTick":440023,"endTime":171.88398437499998,"note":69,"startBeat":457.85729166666664,"startTick":439543,"startTime":171.69648437499998,"velocity":68},{"channel":0,"duration":0.1875,"durationBeats":0.5,"durationTicks":480,"endBeat":458.35729166666664,"endTick":440023,"endTime":171.88398437499998,"note":60,"startBeat":457.85729166666664,"startTick":439543,"startTime":171.69648437499998,"velocity":68},{"channel":0,"duration":0.1875,"durationBeats":0.5,"durationTicks":480,"endBeat":458.35729166666664,"endTick":440023,"endTime":171.88398437499998,"note":64,"startBeat":457.85729166666664,"startTick":439543,"startTime":171.69648437499998,"velocity":68},{"channel":0,"duration":0.1875,"durationBeats":0.5,"durationTicks":480,"endBeat":458.85729166666664,"endTick":440503,"endTime":172.07148437499998,"note":44,"startBeat":458.35729166666664,"startTick":440023,"startTime":171.88398437499998,"velocity":68},{"channel":0,"duration":0.1875,"durationBeats":0.5,"durationTicks":480,"endBeat":458.85729166666664,"endTick":440503,"endTime":172.07148437499998,"note":68,"startBeat":458.35729166666664,"startTick":440023,"startTime":171.88398437499998,"velocity":68},{"channel":0,"duration":0.1875,"durationBeats":0.5,"durationTicks":480,"endBeat":458.85729166666664,"endTick":440503,"endTime":172.07148437499998,"note":63,"startBeat":458.35729166666664,"startTick":440023,"startTime":171.88398437499998,"velocity":68},{"channel":0,"duration":0.1875,"durationBeats":0.5,"durationTicks":480,"endBeat":458.85729166666664,"endTick":440503,"endTime":172.07148437499998,"note":59,"startBeat":458.35729166666664,"startTick":440023,"startTime":171.88398437499998,"velocity":68},{"channel":0,"duration":0.1875,"durationBeats":0.5,"durationTicks":480,"endBeat":459.35729166666664,"endTick":440983,"endTime":172.25898437499998,"note":43,"startBeat":458.85729166666664,"startTick":440503,"startTime":172.07148437499998,"velocity":68},{"channel":0,"duration":0.375,"durationBeats":1,"durationTicks":960,"endBeat":459.85729166666664,"endTick":441463,"endTime":172.44648437499998,"note":69,"startBeat":458.85729166666664,"startTick":440503,"startTime":172.07148437499998,"velocity":68},{"channel":0,"duration":0.375,"durationBeats":1,"durationTicks":960,"endBeat":459.85729166666664,"endTick":441463,"endTime":172.44648437499998,"note":65,"startBeat":458.85729166666664,"startTick":440503,"startTime":172.07148437499998,"velocity":68},{"channel":0,"duration":0.375,"durationBeats":1,"durationTicks":960,"endBeat":459.85729166666664,"endTick":441463,"endTime":172.44648437499998,"note":62,"startBeat":458.85729166666664,"startTick":440503,"startTime":172.07148437499998,"velocity":68},{"channel":0,"duration":0.375,"durationBeats":1,"durationTicks":960,"endBeat":459.85729166666664,"endTick":441463,"endTime":172.44648437499998,"note":58,"startBeat":458.85729166666664,"startTick":440503,"startTime":172.07148437499998,"velocity":68},{"channel":0,"duration":0.1875,"durationBeats":0.5,"durationTicks":480,"endBeat":459.85729166666664,"endTick":441463,"endTime":172.44648437499998,"note":50,"startBeat":459.35729166666664,"startTick":440983,"startTime":172.25898437499998,"velocity":68},{"channel":0,"duration":0.1875,"durationBeats":0.5,"durationTicks":480,"endBeat":460.35729166666664,"endTick":441943,"endTime":172.63398437499998,"note":43,"startBeat":459.85729166666664,"startTick":441463,"startTime":172.44648437499998,"velocity":68},{"channel":0,"duration":0.09375,"durationBeats":0.25,"durationTicks":240,"endBeat":460.60729166666664,"endTick":442183,"endTime":172.72773437499998,"note":65,"startBeat":460.35729166666664,"startTick":441943,"startTime":172.63398437499998,"velocity":68},{"channel":0,"duration":0.1875,"durationBeats":0.5,"durationTicks":480,"endBeat":460.85729166666664,"endTick":442423,"endTime":172.82148437499998,"note":44,"startBeat":460.35729166666664,"startTick":441943,"startTime":172.63398437499998,"velocity":68},{"channel":0,"duration":0.09375,"durationBeats":0.25,"durationTicks":240,"endBeat":460.85729166666664,"endTick":442423,"endTime":172.82148437499998,"note":69,"startBeat":460.60729166666664,"startTick":442183,"startTime":172.72773437499998,"velocity":68},{"channel":0,"duration":0.1875,"durationBeats":0.5,"durationTicks":480,"endBeat":461.35729166666664,"endTick":442903,"endTime":173.00898437499998,"note":60,"startBeat":460.85729166666664,"startTick":442423,"startTime":172.82148437499998,"velocity":68},{"channel":0,"duration":0.1875,"durationBeats":0.5,"durationTicks":480,"endBeat":461.35729166666664,"endTick":442903,"endTime":173.00898437499998,"note":64,"startBeat":460.85729166666664,"startTick":442423,"startTime":172.82148437499998,"velocity":68},{"channel":0,"duration":0.1875,"durationBeats":0.5,"durationTicks":480,"endBeat":461.35729166666664,"endTick":442903,"endTime":173.00898437499998,"note":67,"startBeat":460.85729166666664,"startTick":442423,"startTime":172.82148437499998,"velocity":68},{"channel":0,"duration":0.1875,"durationBeats":0.5,"durationTicks":480,"endBeat":461.35729166666664,"endTick":442903,"endTime":173.00898437499998,"note":72,"startBeat":460.85729166666664,"startTick":442423,"startTime":172.82148437499998,"velocity":68},{"channel":0,"duration":0.1875,"durationBeats":0.5,"durationTicks":480,"endBeat":461.35729166666664,"endTick":442903,"endTime":173.00898437499998,"note":45,"startBeat":460.85729166666664,"startTick":442423,"startTime":172.82148437499998,"velocity":68},{"channel":0,"duration":0.09375,"durationBeats":0.25,"durationTicks":240,"endBeat":461.85729166666664,"endTick":443383,"endTime":173.19648437499998,"note":45,"startBeat":461.60729166666664,"startTick":443143,"startTime":173.10273437499998,"velocity":68},{"channel":0,"duration":0.1875,"durationBeats":0.5,"durationTicks":480,"endBeat":462.10729166666664,"endTick":443623,"endTime":173.29023437499998,"note":70,"startBeat":461.60729166666664,"startTick":443143,"startTime":173.10273437499998,"velocity":68},{"channel":0,"duration":0.1875,"durationBeats":0.5,"durationTicks":480,"endBeat":462.10729166666664,"endTick":443623,"endTime":173.29023437499998,"note":67,"startBeat":461.60729166666664,"startTick":443143,"startTime":173.10273437499998,"velocity":68},{"channel":0,"duration":0.1875,"durationBeats":0.5,"durationTicks":480,"endBeat":462.10729166666664,"endTick":443623,"endTime":173.29023437499998,"note":65,"startBeat":461.60729166666664,"startTick":443143,"startTime":173.10273437499998,"velocity":68},{"channel":0,"duration":0.1875,"durationBeats":0.5,"durationTicks":480,"endBeat":462.10729166666664,"endTick":443623,"endTime":173.29023437499998,"note":61,"startBeat":461.60729166666664,"startTick":443143,"startTime":173.10273437499998,"velocity":68},{"channel":0,"duration":0.1875,"durationBeats":0.5,"durationTicks":480,"endBeat":462.85729166666664,"endTick":444343,"endTime":173.57148437499998,"note":69,"startBeat":462.35729166666664,"startTick":443863,"startTime":173.38398437499998,"velocity":68},{"channel":0,"duration":0.1875,"durationBeats":0.5,"durationTicks":480,"endBeat":462.85729166666664,"endTick":444343,"endTime":173.57148437499998,"note":65,"startBeat":462.35729166666664,"startTick":443863,"startTime":173.38398437499998,"velocity":68},{"channel":0,"duration":0.1875,"durationBeats":0.5,"durationTicks":480,"endBeat":462.85729166666664,"endTick":444343,"endTime":173.57148437499998,"note":64,"startBeat":462.35729166666664,"startTick":443863,"startTime":173.38398437499998,"velocity":68},{"channel":0,"duration":0.1875,"durationBeats":0.5,"durationTicks":480,"endBeat":462.85729166666664,"endTick":444343,"endTime":173.57148437499998,"note":60,"startBeat":462.35729166666664,"startTick":443863,"startTime":173.38398437499998,"velocity":68},{"channel":0,"duration":0.1875,"durationBeats":0.5,"durationTicks":480,"endBeat":462.85729166666664,"endTick":444343,"endTime":173.57148437499998,"note":38,"startBeat":462.35729166666664,"startTick":443863,"startTime":173.38398437499998,"velocity":68},{"channel":0,"duration":0.09375,"durationBeats":0.25,"durationTicks":240,"endBeat":463.10729166666664,"endTick":444583,"endTime":173.66523437499998,"note":76,"startBeat":462.85729166666664,"startTick":444343,"startTime":173.57148437499998,"velocity":68},{"channel":0,"duration":0.09375,"durationBeats":0.25,"durationTicks":240,"endBeat":463.35729166666664,"endTick":444823,"endTime":173.75898437499998,"note":77,"startBeat":463.10729166666664,"startTick":444583,"startTime":173.66523437499998,"velocity":68},{"channel":0,"duration":0.09375,"durationBeats":0.25,"durationTicks":240,"endBeat":463.60729166666664,"endTick":445063,"endTime":173.85273437499998,"note":76,"startBeat":463.35729166666664,"startTick":444823,"startTime":173.75898437499998,"velocity":68},{"channel":0,"duration":0.09375,"durationBeats":0.25,"durationTicks":240,"endBeat":463.85729166666664,"endTick":445303,"endTime":173.94648437499998,"note":72,"startBeat":463.60729166666664,"startTick":445063,"startTime":173.85273437499998,"velocity":68},{"channel":0,"duration":0.09375,"durationBeats":0.25,"durationTicks":240,"endBeat":464.10729166666664,"endTick":445543,"endTime":174.04023437499998,"note":76,"startBeat":463.85729166666664,"startTick":445303,"startTime":173.94648437499998,"velocity":68},{"channel":0,"duration":0.09375,"durationBeats":0.25,"durationTicks":240,"endBeat":464.35729166666664,"endTick":445783,"endTime":174.13398437499998,"note":72,"startBeat":464.10729166666664,"startTick":445543,"startTime":174.04023437499998,"velocity":68},{"channel":0,"duration":0.09375,"durationBeats":0.25,"durationTicks":240,"endBeat":464.60729166666664,"endTick":446023,"endTime":174.22773437499998,"note":69,"startBeat":464.35729166666664,"startTick":445783,"startTime":174.13398437499998,"velocity":68},{"channel":0,"duration":0.1875,"durationBeats":0.5,"durationTicks":480,"endBeat":464.85729166666664,"endTick":446263,"endTime":174.32148437499998,"note":45,"startBeat":464.35729166666664,"startTick":445783,"startTime":174.13398437499998,"velocity":68},{"channel":0,"duration":0.09375,"durationBeats":0.25,"durationTicks":240,"endBeat":464.85729166666664,"endTick":446263,"endTime":174.32148437499998,"note":67,"startBeat":464.60729166666664,"startTick":446023,"startTime":174.22773437499998,"velocity":68},{"channel":0,"duration":0.09375,"durationBeats":0.25,"durationTicks":240,"endBeat":465.10729166666664,"endTick":446503,"endTime":174.41523437499998,"note":69,"startBeat":464.85729166666664,"startTick":446263,"startTime":174.32148437499998,"velocity":68},{"channel":0,"duration":0.1875,"durationBeats":0.5,"durationTicks":480,"endBeat":465.35729166666664,"endTick":446743,"endTime":174.50898437499998,"note":50,"startBeat":464.85729166666664,"startTick":446263,"startTime":174.32148437499998,"velocity":68},{"channel":0,"duration":0.09375,"durationBeats":0.25,"durationTicks":240,"endBeat":465.35729166666664,"endTick":446743,"endTime":174.50898437499998,"note":62,"startBeat":465.10729166666664,"startTick":446503,"startTime":174.41523437499998,"velocity":68},{"channel":0,"duration":0.09375,"durationBeats":0.25,"durationTicks":240,"endBeat":465.60729166666664,"endTick":446983,"endTime":174.60273437499998,"note":60,"startBeat":465.35729166666664,"startTick":446743,"startTime":174.50898437499998,"velocity":68},{"channel":0,"duration":0.1875,"durationBeats":0.5,"durationTicks":480,"endBeat":465.85729166666664,"endTick":447223,"endTime":174.69648437499998,"note":38,"startBeat":465.35729166666664,"startTick":446743,"startTime":174.50898437499998,"velocity":68},{"channel":0,"duration":0.09375,"durationBeats":0.25,"durationTicks":240,"endBeat":465.85729166666664,"endTick":447223,"endTime":174.69648437499998,"note":65,"startBeat":465.60729166666664,"startTick":446983,"startTime":174.60273437499998,"velocity":68},{"channel":0,"duration":0.1875,"durationBeats":0.5,"durationTicks":480,"endBeat":466.35729166666664,"endTick":447703,"endTime":174.88398437499998,"note":45,"startBeat":465.85729166666664,"startTick":447223,"startTime":174.69648437499998,"velocity":68},{"channel":0,"duration":0.1875,"durationBeats":0.5,"durationTicks":480,"endBeat":466.35729166666664,"endTick":447703,"endTime":174.88398437499998,"note":69,"startBeat":465.85729166666664,"startTick":447223,"startTime":174.69648437499998,"velocity":68},{"channel":0,"duration":0.1875,"durationBeats":0.5,"durationTicks":480,"endBeat":466.35729166666664,"endTick":447703,"endTime":174.88398437499998,"note":60,"startBeat":465.85729166666664,"startTick":447223,"startTime":174.69648437499998,"velocity":68},{"channel":0,"duration":0.1875,"durationBeats":0.5,"durationTicks":480,"endBeat":466.35729166666664,"endTick":447703,"endTime":174.88398437499998,"note":64,"startBeat":465.85729166666664,"startTick":447223,"startTime":174.69648437499998,"velocity":68},{"channel":0,"duration":0.1875,"durationBeats":0.5,"durationTicks":480,"endBeat":466.85729166666664,"endTick":448183,"endTime":175.07148437499998,"note":44,"startBeat":466.35729166666664,"startTick":447703,"startTime":174.88398437499998,"velocity":68},{"channel":0,"duration":0.1875,"durationBeats":0.5,"durationTicks":480,"endBeat":466.85729166666664,"endTick":448183,"endTime":175.07148437499998,"note":68,"startBeat":466.35729166666664,"startTick":447703,"startTime":174.88398437499998,"velocity":68},{"channel":0,"duration":0.1875,"durationBeats":0.5,"durationTicks":480,"endBeat":466.85729166666664,"endTick":448183,"endTime":175.07148437499998,"note":63,"startBeat":466.35729166666664,"startTick":447703,"startTime":174.88398437499998,"velocity":68},{"channel":0,"duration":0.1875,"durationBeats":0.5,"durationTicks":480,"endBeat":466.85729166666664,"endTick":448183,"endTime":175.07148437499998,"note":59,"startBeat":466.35729166666664,"startTick":447703,"startTime":174.88398437499998,"velocity":68},{"channel":0,"duration":0.1875,"durationBeats":0.5,"durationTicks":480,"endBeat":467.35729166666664,"endTick":448663,"endTime":175.25898437499998,"note":43,"startBeat":466.85729166666664,"startTick":448183,"startTime":175.07148437499998,"velocity":68},{"channel":0,"duration":0.375,"durationBeats":1,"durationTicks":960,"endBeat":467.85729166666664,"endTick":449143,"endTime":175.44648437499998,"note":69,"startBeat":466.85729166666664,"startTick":448183,"startTime":175.07148437499998,"velocity":68},{"channel":0,"duration":0.375,"durationBeats":1,"durationTicks":960,"endBeat":467.85729166666664,"endTick":449143,"endTime":175.44648437499998,"note":65,"startBeat":466.85729166666664,"startTick":448183,"startTime":175.07148437499998,"velocity":68},{"channel":0,"duration":0.375,"durationBeats":1,"durationTicks":960,"endBeat":467.85729166666664,"endTick":449143,"endTime":175.44648437499998,"note":62,"startBeat":466.85729166666664,"startTick":448183,"startTime":175.07148437499998,"velocity":68},{"channel":0,"duration":0.375,"durationBeats":1,"durationTicks":960,"endBeat":467.85729166666664,"endTick":449143,"endTime":175.44648437499998,"note":58,"startBeat":466.85729166666664,"startTick":448183,"startTime":175.07148437499998,"velocity":68},{"channel":0,"duration":0.1875,"durationBeats":0.5,"durationTicks":480,"endBeat":467.85729166666664,"endTick":449143,"endTime":175.44648437499998,"note":50,"startBeat":467.35729166666664,"startTick":448663,"startTime":175.25898437499998,"velocity":68},{"channel":0,"duration":0.1875,"durationBeats":0.5,"durationTicks":480,"endBeat":468.35729166666664,"endTick":449623,"endTime":175.63398437499998,"note":43,"startBeat":467.85729166666664,"startTick":449143,"startTime":175.44648437499998,"velocity":68},{"channel":0,"duration":0.09375,"durationBeats":0.25,"durationTicks":240,"endBeat":468.60729166666664,"endTick":449863,"endTime":175.72773437499998,"note":65,"startBeat":468.35729166666664,"startTick":449623,"startTime":175.63398437499998,"velocity":68},{"channel":0,"duration":0.1875,"durationBeats":0.5,"durationTicks":480,"endBeat":468.85729166666664,"endTick":450103,"endTime":175.82148437499998,"note":44,"startBeat":468.35729166666664,"startTick":449623,"startTime":175.63398437499998,"velocity":68},{"channel":0,"duration":0.09375,"durationBeats":0.25,"durationTicks":240,"endBeat":468.85729166666664,"endTick":450103,"endTime":175.82148437499998,"note":69,"startBeat":468.60729166666664,"startTick":449863,"startTime":175.72773437499998,"velocity":68},{"channel":0,"duration":0.1875,"durationBeats":0.5,"durationTicks":480,"endBeat":469.35729166666664,"endTick":450583,"endTime":176.00898437499998,"note":60,"startBeat":468.85729166666664,"startTick":450103,"startTime":175.82148437499998,"velocity":68},{"channel":0,"duration":0.1875,"durationBeats":0.5,"durationTicks":480,"endBeat":469.35729166666664,"endTick":450583,"endTime":176.00898437499998,"note":64,"startBeat":468.85729166666664,"startTick":450103,"startTime":175.82148437499998,"velocity":68},{"channel":0,"duration":0.1875,"durationBeats":0.5,"durationTicks":480,"endBeat":469.35729166666664,"endTick":450583,"endTime":176.00898437499998,"note":67,"startBeat":468.85729166666664,"startTick":450103,"startTime":175.82148437499998,"velocity":68},{"channel":0,"duration":0.1875,"durationBeats":0.5,"durationTicks":480,"endBeat":469.35729166666664,"endTick":450583,"endTime":176.00898437499998,"note":72,"startBeat":468.85729166666664,"startTick":450103,"startTime":175.82148437499998,"velocity":68},{"channel":0,"duration":0.1875,"durationBeats":0.5,"durationTicks":480,"endBeat":469.35729166666664,"endTick":450583,"endTime":176.00898437499998,"note":45,"startBeat":468.85729166666664,"startTick":450103,"startTime":175.82148437499998,"velocity":68},{"channel":0,"duration":0.09375,"durationBeats":0.25,"durationTicks":240,"endBeat":469.85729166666664,"endTick":451063,"endTime":176.19648437499998,"note":45,"startBeat":469.60729166666664,"startTick":450823,"startTime":176.10273437499998,"velocity":68},{"channel":0,"duration":0.1875,"durationBeats":0.5,"durationTicks":480,"endBeat":470.10729166666664,"endTick":451303,"endTime":176.29023437499998,"note":75,"startBeat":469.60729166666664,"startTick":450823,"startTime":176.10273437499998,"velocity":68},{"channel":0,"duration":0.1875,"durationBeats":0.5,"durationTicks":480,"endBeat":470.10729166666664,"endTick":451303,"endTime":176.29023437499998,"note":72,"startBeat":469.60729166666664,"startTick":450823,"startTime":176.10273437499998,"velocity":68},{"channel":0,"duration":0.1875,"durationBeats":0.5,"durationTicks":480,"endBeat":470.10729166666664,"endTick":451303,"endTime":176.29023437499998,"note":67,"startBeat":469.60729166666664,"startTick":450823,"startTime":176.10273437499998,"velocity":68},{"channel":0,"duration":0.1875,"durationBeats":0.5,"durationTicks":480,"endBeat":470.10729166666664,"endTick":451303,"endTime":176.29023437499998,"note":61,"startBeat":469.60729166666664,"startTick":450823,"startTime":176.10273437499998,"velocity":68},{"channel":0,"duration":0.1875,"durationBeats":0.5,"durationTicks":480,"endBeat":470.85729166666664,"endTick":452023,"endTime":176.57148437499998,"note":74,"startBeat":470.35729166666664,"startTick":451543,"startTime":176.38398437499998,"velocity":68},{"channel":0,"duration":0.1875,"durationBeats":0.5,"durationTicks":480,"endBeat":470.85729166666664,"endTick":452023,"endTime":176.57148437499998,"note":69,"startBeat":470.35729166666664,"startTick":451543,"startTime":176.38398437499998,"velocity":68},{"channel":0,"duration":0.1875,"durationBeats":0.5,"durationTicks":480,"endBeat":470.85729166666664,"endTick":452023,"endTime":176.57148437499998,"note":65,"startBeat":470.35729166666664,"startTick":451543,"startTime":176.38398437499998,"velocity":68},{"channel":0,"duration":0.1875,"durationBeats":0.5,"durationTicks":480,"endBeat":470.85729166666664,"endTick":452023,"endTime":176.57148437499998,"note":64,"startBeat":470.35729166666664,"startTick":451543,"startTime":176.38398437499998,"velocity":68},{"channel":0,"duration":0.09375,"durationBeats":0.25,"durationTicks":240,"endBeat":471.10729166666664,"endTick":452263,"endTime":176.66523437499998,"note":74,"startBeat":470.85729166666664,"startTick":452023,"startTime":176.57148437499998,"velocity":68},{"channel":0,"duration":0.09375,"durationBeats":0.25,"durationTicks":240,"endBeat":471.35729166666664,"endTick":452503,"endTime":176.75898437499998,"note":76,"startBeat":471.10729166666664,"startTick":452263,"startTime":176.66523437499998,"velocity":68},{"channel":0,"duration":0.09375,"durationBeats":0.25,"durationTicks":240,"endBeat":471.60729166666664,"endTick":452743,"endTime":176.85273437499998,"note":77,"startBeat":471.35729166666664,"startTick":452503,"startTime":176.75898437499998,"velocity":68},{"channel":0,"duration":0.1875,"durationBeats":0.5,"durationTicks":480,"endBeat":471.85729166666664,"endTick":452983,"endTime":176.94648437499998,"note":38,"startBeat":471.35729166666664,"startTick":452503,"startTime":176.75898437499998,"velocity":68},{"channel":0,"duration":0.09375,"durationBeats":0.25,"durationTicks":240,"endBeat":471.85729166666664,"endTick":452983,"endTime":176.94648437499998,"note":79,"startBeat":471.60729166666664,"startTick":452743,"startTime":176.85273437499998,"velocity":68},{"channel":0,"duration":0.046875,"durationBeats":0.125,"durationTicks":120,"endBeat":471.98229166666664,"endTick":453103,"endTime":176.99335937499998,"note":74,"startBeat":471.85729166666664,"startTick":452983,"startTime":176.94648437499998,"velocity":68},{"channel":0,"duration":0.140625,"durationBeats":0.375,"durationTicks":360,"endBeat":472.35729166666664,"endTick":453463,"endTime":177.13398437499998,"note":76,"startBeat":471.98229166666664,"startTick":453103,"startTime":176.99335937499998,"velocity":68},{"channel":0,"duration":0.09375,"durationBeats":0.25,"durationTicks":240,"endBeat":472.60729166666664,"endTick":453703,"endTime":177.22773437499998,"note":72,"startBeat":472.35729166666664,"startTick":453463,"startTime":177.13398437499998,"velocity":68},{"channel":0,"duration":0.1875,"durationBeats":0.5,"durationTicks":480,"endBeat":472.85729166666664,"endTick":453943,"endTime":177.32148437499998,"note":50,"startBeat":472.35729166666664,"startTick":453463,"startTime":177.13398437499998,"velocity":68},{"channel":0,"duration":0.09375,"durationBeats":0.25,"durationTicks":240,"endBeat":472.85729166666664,"endTick":453943,"endTime":177.32148437499998,"note":74,"startBeat":472.60729166666664,"startTick":453703,"startTime":177.22773437499998,"velocity":68},{"channel":0,"duration":0.1875,"durationBeats":0.5,"durationTicks":480,"endBeat":473.85729166666664,"endTick":454903,"endTime":177.69648437499998,"note":45,"startBeat":473.35729166666664,"startTick":454423,"startTime":177.50898437499998,"velocity":68},{"channel":0,"duration":0.375,"durationBeats":1,"durationTicks":960,"endBeat":474.85729166666664,"endTick":455863,"endTime":178.07148437499998,"note":88,"startBeat":473.85729166666664,"startTick":454903,"startTime":177.69648437499998,"velocity":68},{"channel":0,"duration":0.375,"durationBeats":1,"durationTicks":960,"endBeat":474.85729166666664,"endTick":455863,"endTime":178.07148437499998,"note":84,"startBeat":473.85729166666664,"startTick":454903,"startTime":177.69648437499998,"velocity":68},{"channel":0,"duration":0.375,"durationBeats":1,"durationTicks":960,"endBeat":474.85729166666664,"endTick":455863,"endTime":178.07148437499998,"note":81,"startBeat":473.85729166666664,"startTick":454903,"startTime":177.69648437499998,"velocity":68},{"channel":0,"duration":0.375,"durationBeats":1,"durationTicks":960,"endBeat":474.85729166666664,"endTick":455863,"endTime":178.07148437499998,"note":77,"startBeat":473.85729166666664,"startTick":454903,"startTime":177.69648437499998,"velocity":68}],"tempoMap":[{"tempo":500000,"time":0}],"ticksPerQuarter":960},"trk_y4ag092w":{"midiData":{"duration":16,"events":[{"channel":0,"nextOffset":67,"note":58,"tick":0,"time":0,"type":"noteOn","velocity":68},{"channel":0,"nextOffset":71,"note":62,"tick":0,"time":0,"type":"noteOn","velocity":68},{"channel":0,"nextOffset":75,"note":65,"tick":0,"time":0,"type":"noteOn","velocity":68},{"channel":0,"nextOffset":79,"note":69,"tick":0,"time":0,"type":"noteOn","velocity":68},{"channel":0,"nextOffset":83,"note":43,"tick":48,"time":0.25,"type":"noteOff","velocity":0},{"channel":0,"nextOffset":87,"note":50,"tick":48,"time":0.25,"type":"noteOn","velocity":68},{"channel":0,"nextOffset":91,"note":43,"tick":96,"time":0.5,"type":"noteOn","velocity":68},{"channel":0,"nextOffset":95,"note":50,"tick":96,"time":0.5,"type":"noteOff","velocity":0},{"channel":0,"nextOffset":99,"note":58,"tick":96,"time":0.5,"type":"noteOff","velocity":0},{"channel":0,"nextOffset":103,"note":62,"tick":96,"time":0.5,"type":"noteOff","velocity":0},{"channel":0,"nextOffset":107,"note":65,"tick":96,"time":0.5,"type":"noteOff","velocity":0},{"channel":0,"nextOffset":111,"note":69,"tick":96,"time":0.5,"type":"noteOff","velocity":0},{"channel":0,"nextOffset":115,"note":43,"tick":144,"time":0.75,"type":"noteOff","velocity":0},{"channel":0,"nextOffset":119,"note":44,"tick":144,"time":0.75,"type":"noteOn","velocity":68},{"channel":0,"nextOffset":123,"note":65,"tick":144,"time":0.75,"type":"noteOn","velocity":68},{"channel":0,"nextOffset":127,"note":65,"tick":168,"time":0.875,"type":"noteOff","velocity":0},{"channel":0,"nextOffset":131,"note":69,"tick":168,"time":0.875,"type":"noteOn","velocity":68},{"channel":0,"nextOffset":135,"note":44,"tick":192,"time":1,"type":"noteOff","velocity":0},{"channel":0,"nextOffset":139,"note":45,"tick":192,"time":1,"type":"noteOn","velocity":68},{"channel":0,"nextOffset":143,"note":60,"tick":192,"time":1,"type":"noteOn","velocity":68},{"channel":0,"nextOffset":147,"note":64,"tick":192,"time":1,"type":"noteOn","velocity":68},{"channel":0,"nextOffset":151,"note":67,"tick":192,"time":1,"type":"noteOn","velocity":68},{"channel":0,"nextOffset":155,"note":69,"tick":192,"time":1,"type":"noteOff","velocity":0},{"channel":0,"nextOffset":159,"note":72,"tick":192,"time":1,"type":"noteOn","velocity":68},{"channel":0,"nextOffset":163,"note":45,"tick":240,"time":1.25,"type":"noteOff","velocity":0},{"channel":0,"nextOffset":167,"note":60,"tick":240,"time":1.25,"type":"noteOff","velocity":0},{"channel":0,"nextOffset":171,"note":64,"tick":240,"time":1.25,"type":"noteOff","velocity":0},{"channel":0,"nextOffset":175,"note":67,"tick":240,"time":1.25,"type":"noteOff","velocity":0},{"channel":0,"nextOffset":179,"note":72,"tick":240,"time":1.25,"type":"noteOff","velocity":0},{"channel":0,"nextOffset":183,"note":45,"tick":264,"time":1.375,"type":"noteOn","velocity":68},{"channel":0,"nextOffset":187,"note":61,"tick":264,"time":1.375,"type":"noteOn","velocity":68},{"channel":0,"nextOffset":191,"note":65,"tick":264,"time":1.375,"type":"noteOn","velocity":68},{"channel":0,"nextOffset":195,"note":67,"tick":264,"time":1.375,"type":"noteOn","velocity":68},{"channel":0,"nextOffset":199,"note":70,"tick":264,"time":1.375,"type":"noteOn","velocity":68},{"channel":0,"nextOffset":203,"note":45,"tick":288,"time":1.5,"type":"noteOff","velocity":0},{"channel":0,"nextOffset":207,"note":61,"tick":312,"time":1.625,"type":"noteOff","velocity":0},{"channel":0,"nextOffset":211,"note":65,"tick":312,"time":1.625,"type":"noteOff","velocity":0},{"channel":0,"nextOffset":215,"note":67,"tick":312,"time":1.625,"type":"noteOff","velocity":0},{"channel":0,"nextOffset":219,"note":70,"tick":312,"time":1.625,"type":"noteOff","velocity":0},{"channel":0,"nextOffset":223,"note":38,"tick":336,"time":1.75,"type":"noteOn","velocity":68},{"channel":0,"nextOffset":227,"note":60,"tick":336,"time":1.75,"type":"noteOn","velocity":68},{"channel":0,"nextOffset":231,"note":64,"tick":336,"time":1.75,"type":"noteOn","velocity":68},{"channel":0,"nextOffset":235,"note":65,"tick":336,"time":1.75,"type":"noteOn","velocity":68},{"channel":0,"nextOffset":239,"note":69,"tick":336,"time":1.75,"type":"noteOn","velocity":68},{"channel":0,"nextOffset":243,"note":38,"tick":384,"time":2,"type":"noteOff","velocity":0},{"channel":0,"nextOffset":247,"note":60,"tick":384,"time":2,"type":"noteOff","velocity":0},{"channel":0,"nextOffset":251,"note":64,"tick":384,"time":2,"type":"noteOff","velocity":0},{"channel":0,"nextOffset":255,"note":65,"tick":384,"time":2,"type":"noteOff","velocity":0},{"channel":0,"nextOffset":259,"note":69,"tick":384,"time":2,"type":"noteOff","velocity":0},{"channel":0,"nextOffset":263,"note":76,"tick":384,"time":2,"type":"noteOn","velocity":68},{"channel":0,"nextOffset":267,"note":76,"tick":408,"time":2.125,"type":"noteOff","velocity":0},{"channel":0,"nextOffset":271,"note":77,"tick":408,"time":2.125,"type":"noteOn","velocity":68},{"channel":0,"nextOffset":275,"note":76,"tick":432,"time":2.25,"type":"noteOn","velocity":68},{"channel":0,"nextOffset":279,"note":77,"tick":432,"time":2.25,"type":"noteOff","velocity":0},{"channel":0,"nextOffset":283,"note":72,"tick":456,"time":2.375,"type":"noteOn","velocity":68},{"channel":0,"nextOffset":287,"note":76,"tick":456,"time":2.375,"type":"noteOff","velocity":0},{"channel":0,"nextOffset":291,"note":72,"tick":480,"time":2.5,"type":"noteOff","velocity":0},{"channel":0,"nextOffset":295,"note":76,"tick":480,"time":2.5,"type":"noteOn","velocity":68},{"channel":0,"nextOffset":299,"note":72,"tick":504,"time":2.625,"type":"noteOn","velocity":68},{"channel":0,"nextOffset":303,"note":76,"tick":504,"time":2.625,"type":"noteOff","velocity":0},{"channel":0,"nextOffset":307,"note":45,"tick":528,"time":2.75,"type":"noteOn","velocity":68},{"channel":0,"nextOffset":311,"note":69,"tick":528,"time":2.75,"type":"noteOn","velocity":68},{"channel":0,"nextOffset":315,"note":72,"tick":528,"time":2.75,"type":"noteOff","velocity":0},{"channel":0,"nextOffset":319,"note":67,"tick":552,"time":2.875,"type":"noteOn","velocity":68},{"channel":0,"nextOffset":323,"note":69,"tick":552,"time":2.875,"type":"noteOff","velocity":0},{"channel":0,"nextOffset":327,"note":45,"tick":576,"time":3,"type":"noteOff","velocity":0},{"channel":0,"nextOffset":331,"note":50,"tick":576,"time":3,"type":"noteOn","velocity":68},{"channel":0,"nextOffset":335,"note":67,"tick":576,"time":3,"type":"noteOff","velocity":0},{"channel":0,"nextOffset":339,"note":69,"tick":576,"time":3,"type":"noteOn","velocity":68},{"channel":0,"nextOffset":343,"note":62,"tick":600,"time":3.125,"type":"noteOn","velocity":68},{"channel":0,"nextOffset":347,"note":69,"tick":600,"time":3.125,"type":"noteOff","velocity":0},{"channel":0,"nextOffset":351,"note":38,"tick":624,"time":3.25,"type":"noteOn","velocity":68},{"channel":0,"nextOffset":355,"note":50,"tick":624,"time":3.25,"type":"noteOff","velocity":0},{"channel":0,"nextOffset":359,"note":60,"tick":624,"time":3.25,"type":"noteOn","velocity":68},{"channel":0,"nextOffset":363,"note":62,"tick":624,"time":3.25,"type":"noteOff","velocity":0},{"channel":0,"nextOffset":367,"note":60,"tick":648,"time":3.375,"type":"noteOff","velocity":0},{"channel":0,"nextOffset":371,"note":65,"tick":648,"time":3.375,"type":"noteOn","velocity":68},{"channel":0,"nextOffset":375,"note":38,"tick":672,"time":3.5,"type":"noteOff","velocity":0},{"channel":0,"nextOffset":379,"note":45,"tick":672,"time":3.5,"type":"noteOn","velocity":68},{"channel":0,"nextOffset":383,"note":60,"tick":672,"time":3.5,"type":"noteOn","velocity":68},{"channel":0,"nextOffset":387,"note":64,"tick":672,"time":3.5,"type":"noteOn","velocity":68},{"channel":0,"nextOffset":391,"note":65,"tick":672,"time":3.5,"type":"noteOff","velocity":0},{"channel":0,"nextOffset":395,"note":69,"tick":672,"time":3.5,"type":"noteOn","velocity":68},{"channel":0,"nextOffset":399,"note":44,"tick":720,"time":3.75,"type":"noteOn","velocity":68},{"channel":0,"nextOffset":403,"note":45,"tick":720,"time":3.75,"type":"noteOff","velocity":0},{"channel":0,"nextOffset":407,"note":59,"tick":720,"time":3.75,"type":"noteOn","velocity":68},{"channel":0,"nextOffset":411,"note":60,"tick":720,"time":3.75,"type":"noteOff","velocity":0},{"channel":0,"nextOffset":415,"note":63,"tick":720,"time":3.75,"type":"noteOn","velocity":68},{"channel":0,"nextOffset":419,"note":64,"tick":720,"time":3.75,"type":"noteOff","velocity":0},{"channel":0,"nextOffset":423,"note":68,"tick":720,"time":3.75,"type":"noteOn","velocity":68},{"channel":0,"nextOffset":427,"note":69,"tick":720,"time":3.75,"type":"noteOff","velocity":0},{"channel":0,"nextOffset":431,"note":43,"tick":768,"time":4,"type":"noteOn","velocity":68},{"channel":0,"nextOffset":435,"note":44,"tick":768,"time":4,"type":"noteOff","velocity":0},{"channel":0,"nextOffset":439,"note":58,"tick":768,"time":4,"type":"noteOn","velocity":68},{"channel":0,"nextOffset":443,"note":59,"tick":768,"time":4,"type":"noteOff","velocity":0},{"channel":0,"nextOffset":447,"note":62,"tick":768,"time":4,"type":"noteOn","velocity":68},{"channel":0,"nextOffset":451,"note":63,"tick":768,"time":4,"type":"noteOff","velocity":0},{"channel":0,"nextOffset":455,"note":65,"tick":768,"time":4,"type":"noteOn","velocity":68},{"channel":0,"nextOffset":459,"note":68,"tick":768,"time":4,"type":"noteOff","velocity":0},{"channel":0,"nextOffset":463,"note":69,"tick":768,"time":4,"type":"noteOn","velocity":68},{"channel":0,"nextOffset":467,"note":43,"tick":816,"time":4.25,"type":"noteOff","velocity":0},{"channel":0,"nextOffset":471,"note":50,"tick":816,"time":4.25,"type":"noteOn","velocity":68},{"channel":0,"nextOffset":475,"note":43,"tick":864,"time":4.5,"type":"noteOn","velocity":68},{"channel":0,"nextOffset":479,"note":50,"tick":864,"time":4.5,"type":"noteOff","velocity":0},{"channel":0,"nextOffset":483,"note":58,"tick":864,"time":4.5,"type":"noteOff","velocity":0},{"channel":0,"nextOffset":487,"note":62,"tick":864,"time":4.5,"type":"noteOff","velocity":0},{"channel":0,"nextOffset":491,"note":65,"tick":864,"time":4.5,"type":"noteOff","velocity":0},{"channel":0,"nextOffset":495,"note":69,"tick":864,"time":4.5,"type":"noteOff","velocity":0},{"channel":0,"nextOffset":499,"note":43,"tick":912,"time":4.75,"type":"noteOff","velocity":0},{"channel":0,"nextOffset":503,"note":44,"tick":912,"time":4.75,"type":"noteOn","velocity":68},{"channel":0,"nextOffset":507,"note":65,"tick":912,"time":4.75,"type":"noteOn","velocity":68},{"channel":0,"nextOffset":511,"note":65,"tick":936,"time":4.875,"type":"noteOff","velocity":0},{"channel":0,"nextOffset":515,"note":69,"tick":936,"time":4.875,"type":"noteOn","velocity":68},{"channel":0,"nextOffset":519,"note":44,"tick":960,"time":5,"type":"noteOff","velocity":0},{"channel":0,"nextOffset":523,"note":45,"tick":960,"time":5,"type":"noteOn","velocity":68},{"channel":0,"nextOffset":527,"note":60,"tick":960,"time":5,"type":"noteOn","velocity":68},{"channel":0,"nextOffset":531,"note":64,"tick":960,"time":5,"type":"noteOn","velocity":68},{"channel":0,"nextOffset":535,"note":67,"tick":960,"time":5,"type":"noteOn","velocity":68},{"channel":0,"nextOffset":539,"note":69,"tick":960,"time":5,"type":"noteOff","velocity":0},{"channel":0,"nextOffset":543,"note":72,"tick":960,"time":5,"type":"noteOn","velocity":68},{"channel":0,"nextOffset":547,"note":45,"tick":1008,"time":5.25,"type":"noteOff","velocity":0},{"channel":0,"nextOffset":551,"note":60,"tick":1008,"time":5.25,"type":"noteOff","velocity":0},{"channel":0,"nextOffset":555,"note":64,"tick":1008,"time":5.25,"type":"noteOff","velocity":0},{"channel":0,"nextOffset":559,"note":67,"tick":1008,"time":5.25,"type":"noteOff","velocity":0},{"channel":0,"nextOffset":563,"note":72,"tick":1008,"time":5.25,"type":"noteOff","velocity":0},{"channel":0,"nextOffset":567,"note":45,"tick":1032,"time":5.375,"type":"noteOn","velocity":68},{"channel":0,"nextOffset":571,"note":61,"tick":1032,"time":5.375,"type":"noteOn","velocity":68},{"channel":0,"nextOffset":575,"note":65,"tick":1032,"time":5.375,"type":"noteOn","velocity":68},{"channel":0,"nextOffset":579,"note":67,"tick":1032,"time":5.375,"type":"noteOn","velocity":68},{"channel":0,"nextOffset":583,"note":70,"tick":1032,"time":5.375,"type":"noteOn","velocity":68},{"channel":0,"nextOffset":587,"note":45,"tick":1056,"time":5.5,"type":"noteOff","velocity":0},{"channel":0,"nextOffset":591,"note":61,"tick":1080,"time":5.625,"type":"noteOff","velocity":0},{"channel":0,"nextOffset":595,"note":65,"tick":1080,"time":5.625,"type":"noteOff","velocity":0},{"channel":0,"nextOffset":599,"note":67,"tick":1080,"time":5.625,"type":"noteOff","velocity":0},{"channel":0,"nextOffset":603,"note":70,"tick":1080,"time":5.625,"type":"noteOff","velocity":0},{"channel":0,"nextOffset":607,"note":38,"tick":1104,"time":5.75,"type":"noteOn","velocity":68},{"channel":0,"nextOffset":611,"note":60,"tick":1104,"time":5.75,"type":"noteOn","velocity":68},{"channel":0,"nextOffset":615,"note":64,"tick":1104,"time":5.75,"type":"noteOn","velocity":68},{"channel":0,"nextOffset":619,"note":65,"tick":1104,"time":5.75,"type":"noteOn","velocity":68},{"channel":0,"nextOffset":623,"note":69,"tick":1104,"time":5.75,"type":"noteOn","velocity":68},{"channel":0,"nextOffset":627,"note":38,"tick":1152,"time":6,"type":"noteOff","velocity":0},{"channel":0,"nextOffset":631,"note":60,"tick":1152,"time":6,"type":"noteOff","velocity":0},{"channel":0,"nextOffset":635,"note":64,"tick":1152,"time":6,"type":"noteOff","velocity":0},{"channel":0,"nextOffset":639,"note":65,"tick":1152,"time":6,"type":"noteOff","velocity":0},{"channel":0,"nextOffset":643,"note":69,"tick":1152,"time":6,"type":"noteOff","velocity":0},{"channel":0,"nextOffset":647,"note":76,"tick":1152,"time":6,"type":"noteOn","velocity":68},{"channel":0,"nextOffset":651,"note":76,"tick":1176,"time":6.125,"type":"noteOff","velocity":0},{"channel":0,"nextOffset":655,"note":77,"tick":1176,"time":6.125,"type":"noteOn","velocity":68},{"channel":0,"nextOffset":659,"note":77,"tick":1200,"time":6.25,"type":"noteOff","velocity":0},{"channel":0,"nextOffset":663,"note":79,"tick":1200,"time":6.25,"type":"noteOn","velocity":68},{"channel":0,"nextOffset":667,"note":77,"tick":1224,"time":6.375,"type":"noteOn","velocity":68},{"channel":0,"nextOffset":671,"note":79,"tick":1224,"time":6.375,"type":"noteOff","velocity":0},{"channel":0,"nextOffset":675,"note":76,"tick":1248,"time":6.5,"type":"noteOn","velocity":68},{"channel":0,"nextOffset":679,"note":77,"tick":1248,"time":6.5,"type":"noteOff","velocity":0},{"channel":0,"nextOffset":683,"note":72,"tick":1272,"time":6.625,"type":"noteOn","velocity":68},{"channel":0,"nextOffset":687,"note":76,"tick":1272,"time":6.625,"type":"noteOff","velocity":0},{"channel":0,"nextOffset":691,"note":45,"tick":1296,"time":6.75,"type":"noteOn","velocity":68},{"channel":0,"nextOffset":695,"note":69,"tick":1296,"time":6.75,"type":"noteOn","velocity":68},{"channel":0,"nextOffset":699,"note":72,"tick":1296,"time":6.75,"type":"noteOff","velocity":0},{"channel":0,"nextOffset":703,"note":67,"tick":1320,"time":6.875,"type":"noteOn","velocity":68},{"channel":0,"nextOffset":707,"note":69,"tick":1320,"time":6.875,"type":"noteOff","velocity":0},{"channel":0,"nextOffset":711,"note":45,"tick":1344,"time":7,"type":"noteOff","velocity":0},{"channel":0,"nextOffset":715,"note":50,"tick":1344,"time":7,"type":"noteOn","velocity":68},{"channel":0,"nextOffset":719,"note":67,"tick":1344,"time":7,"type":"noteOff","velocity":0},{"channel":0,"nextOffset":723,"note":69,"tick":1344,"time":7,"type":"noteOn","velocity":68},{"channel":0,"nextOffset":727,"note":62,"tick":1368,"time":7.125,"type":"noteOn","velocity":68},{"channel":0,"nextOffset":731,"note":69,"tick":1368,"time":7.125,"type":"noteOff","velocity":0},{"channel":0,"nextOffset":735,"note":38,"tick":1392,"time":7.25,"type":"noteOn","velocity":68},{"channel":0,"nextOffset":739,"note":50,"tick":1392,"time":7.25,"type":"noteOff","velocity":0},{"channel":0,"nextOffset":743,"note":60,"tick":1392,"time":7.25,"type":"noteOn","velocity":68},{"channel":0,"nextOffset":747,"note":62,"tick":1392,"time":7.25,"type":"noteOff","velocity":0},{"channel":0,"nextOffset":751,"note":60,"tick":1416,"time":7.375,"type":"noteOff","velocity":0},{"channel":0,"nextOffset":755,"note":65,"tick":1416,"time":7.375,"type":"noteOn","velocity":68},{"channel":0,"nextOffset":759,"note":38,"tick":1440,"time":7.5,"type":"noteOff","velocity":0},{"channel":0,"nextOffset":763,"note":45,"tick":1440,"time":7.5,"type":"noteOn","velocity":68},{"channel":0,"nextOffset":767,"note":60,"tick":1440,"time":7.5,"type":"noteOn","velocity":68},{"channel":0,"nextOffset":771,"note":64,"tick":1440,"time":7.5,"type":"noteOn","velocity":68},{"channel":0,"nextOffset":775,"note":65,"tick":1440,"time":7.5,"type":"noteOff","velocity":0},{"channel":0,"nextOffset":779,"note":69,"tick":1440,"time":7.5,"type":"noteOn","velocity":68},{"channel":0,"nextOffset":783,"note":44,"tick":1488,"time":7.75,"type":"noteOn","velocity":68},{"channel":0,"nextOffset":787,"note":45,"tick":1488,"time":7.75,"type":"noteOff","velocity":0},{"channel":0,"nextOffset":791,"note":59,"tick":1488,"time":7.75,"type":"noteOn","velocity":68},{"channel":0,"nextOffset":795,"note":60,"tick":1488,"time":7.75,"type":"noteOff","velocity":0},{"channel":0,"nextOffset":799,"note":63,"tick":1488,"time":7.75,"type":"noteOn","velocity":68},{"channel":0,"nextOffset":803,"note":64,"tick":1488,"time":7.75,"type":"noteOff","velocity":0},{"channel":0,"nextOffset":807,"note":68,"tick":1488,"time":7.75,"type":"noteOn","velocity":68},{"channel":0,"nextOffset":811,"note":69,"tick":1488,"time":7.75,"type":"noteOff","velocity":0},{"channel":0,"nextOffset":815,"note":43,"tick":1536,"time":8,"type":"noteOn","velocity":68},{"channel":0,"nextOffset":819,"note":44,"tick":1536,"time":8,"type":"noteOff","velocity":0},{"channel":0,"nextOffset":823,"note":58,"tick":1536,"time":8,"type":"noteOn","velocity":68},{"channel":0,"nextOffset":827,"note":59,"tick":1536,"time":8,"type":"noteOff","velocity":0},{"channel":0,"nextOffset":831,"note":62,"tick":1536,"time":8,"type":"noteOn","velocity":68},{"channel":0,"nextOffset":835,"note":63,"tick":1536,"time":8,"type":"noteOff","velocity":0},{"channel":0,"nextOffset":839,"note":65,"tick":1536,"time":8,"type":"noteOn","velocity":68},{"channel":0,"nextOffset":843,"note":68,"tick":1536,"time":8,"type":"noteOff","velocity":0},{"channel":0,"nextOffset":847,"note":69,"tick":1536,"time":8,"type":"noteOn","velocity":68},{"channel":0,"nextOffset":851,"note":43,"tick":1584,"time":8.25,"type":"noteOff","velocity":0},{"channel":0,"nextOffset":855,"note":50,"tick":1584,"time":8.25,"type":"noteOn","velocity":68},{"channel":0,"nextOffset":859,"note":43,"tick":1632,"time":8.5,"type":"noteOn","velocity":68},{"channel":0,"nextOffset":863,"note":50,"tick":1632,"time":8.5,"type":"noteOff","velocity":0},{"channel":0,"nextOffset":867,"note":58,"tick":1632,"time":8.5,"type":"noteOff","velocity":0},{"channel":0,"nextOffset":871,"note":62,"tick":1632,"time":8.5,"type":"noteOff","velocity":0},{"channel":0,"nextOffset":875,"note":65,"tick":1632,"time":8.5,"type":"noteOff","velocity":0},{"channel":0,"nextOffset":879,"note":69,"tick":1632,"time":8.5,"type":"noteOff","velocity":0},{"channel":0,"nextOffset":883,"note":43,"tick":1680,"time":8.75,"type":"noteOff","velocity":0},{"channel":0,"nextOffset":887,"note":44,"tick":1680,"time":8.75,"type":"noteOn","velocity":68},{"channel":0,"nextOffset":891,"note":65,"tick":1680,"time":8.75,"type":"noteOn","velocity":68},{"channel":0,"nextOffset":895,"note":65,"tick":1704,"time":8.875,"type":"noteOff","velocity":0},{"channel":0,"nextOffset":899,"note":69,"tick":1704,"time":8.875,"type":"noteOn","velocity":68},{"channel":0,"nextOffset":903,"note":44,"tick":1728,"time":9,"type":"noteOff","velocity":0},{"channel":0,"nextOffset":907,"note":45,"tick":1728,"time":9,"type":"noteOn","velocity":68},{"channel":0,"nextOffset":911,"note":60,"tick":1728,"time":9,"type":"noteOn","velocity":68},{"channel":0,"nextOffset":915,"note":64,"tick":1728,"time":9,"type":"noteOn","velocity":68},{"channel":0,"nextOffset":919,"note":67,"tick":1728,"time":9,"type":"noteOn","velocity":68},{"channel":0,"nextOffset":923,"note":69,"tick":1728,"time":9,"type":"noteOff","velocity":0},{"channel":0,"nextOffset":927,"note":72,"tick":1728,"time":9,"type":"noteOn","velocity":68},{"channel":0,"nextOffset":931,"note":45,"tick":1776,"time":9.25,"type":"noteOff","velocity":0},{"channel":0,"nextOffset":935,"note":60,"tick":1776,"time":9.25,"type":"noteOff","velocity":0},{"channel":0,"nextOffset":939,"note":64,"tick":1776,"time":9.25,"type":"noteOff","velocity":0},{"channel":0,"nextOffset":943,"note":67,"tick":1776,"time":9.25,"type":"noteOff","velocity":0},{"channel":0,"nextOffset":947,"note":72,"tick":1776,"time":9.25,"type":"noteOff","velocity":0},{"channel":0,"nextOffset":951,"note":45,"tick":1800,"time":9.375,"type":"noteOn","velocity":68},{"channel":0,"nextOffset":955,"note":61,"tick":1800,"time":9.375,"type":"noteOn","velocity":68},{"channel":0,"nextOffset":959,"note":65,"tick":1800,"time":9.375,"type":"noteOn","velocity":68},{"channel":0,"nextOffset":963,"note":67,"tick":1800,"time":9.375,"type":"noteOn","velocity":68},{"channel":0,"nextOffset":967,"note":70,"tick":1800,"time":9.375,"type":"noteOn","velocity":68},{"channel":0,"nextOffset":971,"note":45,"tick":1824,"time":9.5,"type":"noteOff","velocity":0},{"channel":0,"nextOffset":975,"note":61,"tick":1848,"time":9.625,"type":"noteOff","velocity":0},{"channel":0,"nextOffset":979,"note":65,"tick":1848,"time":9.625,"type":"noteOff","velocity":0},{"channel":0,"nextOffset":983,"note":67,"tick":1848,"time":9.625,"type":"noteOff","velocity":0},{"channel":0,"nextOffset":987,"note":70,"tick":1848,"time":9.625,"type":"noteOff","velocity":0},{"channel":0,"nextOffset":991,"note":38,"tick":1872,"time":9.75,"type":"noteOn","velocity":68},{"channel":0,"nextOffset":995,"note":60,"tick":1872,"time":9.75,"type":"noteOn","velocity":68},{"channel":0,"nextOffset":999,"note":64,"tick":1872,"time":9.75,"type":"noteOn","velocity":68},{"channel":0,"nextOffset":1003,"note":65,"tick":1872,"time":9.75,"type":"noteOn","velocity":68},{"channel":0,"nextOffset":1007,"note":69,"tick":1872,"time":9.75,"type":"noteOn","velocity":68},{"channel":0,"nextOffset":1011,"note":38,"tick":1920,"time":10,"type":"noteOff","velocity":0},{"channel":0,"nextOffset":1015,"note":60,"tick":1920,"time":10,"type":"noteOff","velocity":0},{"channel":0,"nextOffset":1019,"note":64,"tick":1920,"time":10,"type":"noteOff","velocity":0},{"channel":0,"nextOffset":1023,"note":65,"tick":1920,"time":10,"type":"noteOff","velocity":0},{"channel":0,"nextOffset":1027,"note":69,"tick":1920,"time":10,"type":"noteOff","velocity":0},{"channel":0,"nextOffset":1031,"note":76,"tick":1920,"time":10,"type":"noteOn","velocity":68},{"channel":0,"nextOffset":1035,"note":76,"tick":1944,"time":10.125,"type":"noteOff","velocity":0},{"channel":0,"nextOffset":1039,"note":77,"tick":1944,"time":10.125,"type":"noteOn","velocity":68},{"channel":0,"nextOffset":1043,"note":76,"tick":1968,"time":10.25,"type":"noteOn","velocity":68},{"channel":0,"nextOffset":1047,"note":77,"tick":1968,"time":10.25,"type":"noteOff","velocity":0},{"channel":0,"nextOffset":1051,"note":72,"tick":1992,"time":10.375,"type":"noteOn","velocity":68},{"channel":0,"nextOffset":1055,"note":76,"tick":1992,"time":10.375,"type":"noteOff","velocity":0},{"channel":0,"nextOffset":1059,"note":38,"tick":2016,"time":10.5,"type":"noteOn","velocity":68},{"channel":0,"nextOffset":1063,"note":72,"tick":2016,"time":10.5,"type":"noteOff","velocity":0},{"channel":0,"nextOffset":1067,"note":76,"tick":2016,"time":10.5,"type":"noteOn","velocity":68},{"channel":0,"nextOffset":1071,"note":72,"tick":2040,"time":10.625,"type":"noteOn","velocity":68},{"channel":0,"nextOffset":1075,"note":76,"tick":2040,"time":10.625,"type":"noteOff","velocity":0},{"channel":0,"nextOffset":1079,"note":38,"tick":2064,"time":10.75,"type":"noteOff","velocity":0},{"channel":0,"nextOffset":1083,"note":45,"tick":2064,"time":10.75,"type":"noteOn","velocity":68},{"channel":0,"nextOffset":1087,"note":69,"tick":2064,"time":10.75,"type":"noteOn","velocity":68},{"channel":0,"nextOffset":1091,"note":72,"tick":2064,"time":10.75,"type":"noteOff","velocity":0},{"channel":0,"nextOffset":1095,"note":67,"tick":2088,"time":10.875,"type":"noteOn","velocity":68},{"channel":0,"nextOffset":1099,"note":69,"tick":2088,"time":10.875,"type":"noteOff","velocity":0},{"channel":0,"nextOffset":1103,"note":45,"tick":2112,"time":11,"type":"noteOff","velocity":0},{"channel":0,"nextOffset":1107,"note":50,"tick":2112,"time":11,"type":"noteOn","velocity":68},{"channel":0,"nextOffset":1111,"note":67,"tick":2112,"time":11,"type":"noteOff","velocity":0},{"channel":0,"nextOffset":1115,"note":69,"tick":2112,"time":11,"type":"noteOn","velocity":68},{"channel":0,"nextOffset":1119,"note":62,"tick":2136,"time":11.125,"type":"noteOn","velocity":68},{"channel":0,"nextOffset":1123,"note":69,"tick":2136,"time":11.125,"type":"noteOff","velocity":0},{"channel":0,"nextOffset":1127,"note":38,"tick":2160,"time":11.25,"type":"noteOn","velocity":68},{"channel":0,"nextOffset":1131,"note":50,"tick":2160,"time":11.25,"type":"noteOff","velocity":0},{"channel":0,"nextOffset":1135,"note":60,"tick":2160,"time":11.25,"type":"noteOn","velocity":68},{"channel":0,"nextOffset":1139,"note":62,"tick":2160,"time":11.25,"type":"noteOff","velocity":0},{"channel":0,"nextOffset":1143,"note":60,"tick":2184,"time":11.375,"type":"noteOff","velocity":0},{"channel":0,"nextOffset":1147,"note":65,"tick":2184,"time":11.375,"type":"noteOn","velocity":68},{"channel":0,"nextOffset":1151,"note":38,"tick":2208,"time":11.5,"type":"noteOff","velocity":0},{"channel":0,"nextOffset":1155,"note":45,"tick":2208,"time":11.5,"type":"noteOn","velocity":68},{"channel":0,"nextOffset":1159,"note":60,"tick":2208,"time":11.5,"type":"noteOn","velocity":68},{"channel":0,"nextOffset":1163,"note":64,"tick":2208,"time":11.5,"type":"noteOn","velocity":68},{"channel":0,"nextOffset":1167,"note":65,"tick":2208,"time":11.5,"type":"noteOff","velocity":0},{"channel":0,"nextOffset":1171,"note":69,"tick":2208,"time":11.5,"type":"noteOn","velocity":68},{"channel":0,"nextOffset":1175,"note":44,"tick":2256,"time":11.75,"type":"noteOn","velocity":68},{"channel":0,"nextOffset":1179,"note":45,"tick":2256,"time":11.75,"type":"noteOff","velocity":0},{"channel":0,"nextOffset":1183,"note":59,"tick":2256,"time":11.75,"type":"noteOn","velocity":68},{"channel":0,"nextOffset":1187,"note":60,"tick":2256,"time":11.75,"type":"noteOff","velocity":0},{"channel":0,"nextOffset":1191,"note":63,"tick":2256,"time":11.75,"type":"noteOn","velocity":68},{"channel":0,"nextOffset":1195,"note":64,"tick":2256,"time":11.75,"type":"noteOff","velocity":0},{"channel":0,"nextOffset":1199,"note":68,"tick":2256,"time":11.75,"type":"noteOn","velocity":68},{"channel":0,"nextOffset":1203,"note":69,"tick":2256,"time":11.75,"type":"noteOff","velocity":0},{"channel":0,"nextOffset":1207,"note":43,"tick":2304,"time":12,"type":"noteOn","velocity":68},{"channel":0,"nextOffset":1211,"note":44,"tick":2304,"time":12,"type":"noteOff","velocity":0},{"channel":0,"nextOffset":1215,"note":58,"tick":2304,"time":12,"type":"noteOn","velocity":68},{"channel":0,"nextOffset":1219,"note":59,"tick":2304,"time":12,"type":"noteOff","velocity":0},{"channel":0,"nextOffset":1223,"note":62,"tick":2304,"time":12,"type":"noteOn","velocity":68},{"channel":0,"nextOffset":1227,"note":63,"tick":2304,"time":12,"type":"noteOff","velocity":0},{"channel":0,"nextOffset":1231,"note":65,"tick":2304,"time":12,"type":"noteOn","velocity":68},{"channel":0,"nextOffset":1235,"note":68,"tick":2304,"time":12,"type":"noteOff","velocity":0},{"channel":0,"nextOffset":1239,"note":69,"tick":2304,"time":12,"type":"noteOn","velocity":68},{"channel":0,"nextOffset":1243,"note":43,"tick":2352,"time":12.25,"type":"noteOff","velocity":0},{"channel":0,"nextOffset":1247,"note":43,"tick":2400,"time":12.5,"type":"noteOn","velocity":68},{"channel":0,"nextOffset":1251,"note":58,"tick":2400,"time":12.5,"type":"noteOff","velocity":0},{"channel":0,"nextOffset":1255,"note":62,"tick":2400,"time":12.5,"type":"noteOff","velocity":0},{"channel":0,"nextOffset":1259,"note":65,"tick":2400,"time":12.5,"type":"noteOff","velocity":0},{"channel":0,"nextOffset":1263,"note":69,"tick":2400,"time":12.5,"type":"noteOff","velocity":0},{"channel":0,"nextOffset":1267,"note":43,"tick":2448,"time":12.75,"type":"noteOff","velocity":0},{"channel":0,"nextOffset":1271,"note":44,"tick":2448,"time":12.75,"type":"noteOn","velocity":68},{"channel":0,"nextOffset":1275,"note":65,"tick":2448,"time":12.75,"type":"noteOn","velocity":68},{"channel":0,"nextOffset":1279,"note":65,"tick":2472,"time":12.875,"type":"noteOff","velocity":0},{"channel":0,"nextOffset":1283,"note":69,"tick":2472,"time":12.875,"type":"noteOn","velocity":68},{"channel":0,"nextOffset":1287,"note":44,"tick":2496,"time":13,"type":"noteOff","velocity":0},{"channel":0,"nextOffset":1291,"note":45,"tick":2496,"time":13,"type":"noteOn","velocity":68},{"channel":0,"nextOffset":1295,"note":60,"tick":2496,"time":13,"type":"noteOn","velocity":68},{"channel":0,"nextOffset":1299,"note":64,"tick":2496,"time":13,"type":"noteOn","velocity":68},{"channel":0,"nextOffset":1303,"note":67,"tick":2496,"time":13,"type":"noteOn","velocity":68},{"channel":0,"nextOffset":1307,"note":69,"tick":2496,"time":13,"type":"noteOff","velocity":0},{"channel":0,"nextOffset":1311,"note":72,"tick":2496,"time":13,"type":"noteOn","velocity":68},{"channel":0,"nextOffset":1315,"note":45,"tick":2544,"time":13.25,"type":"noteOff","velocity":0},{"channel":0,"nextOffset":1319,"note":60,"tick":2544,"time":13.25,"type":"noteOff","velocity":0},{"channel":0,"nextOffset":1323,"note":64,"tick":2544,"time":13.25,"type":"noteOff","velocity":0},{"channel":0,"nextOffset":1327,"note":67,"tick":2544,"time":13.25,"type":"noteOff","velocity":0},{"channel":0,"nextOffset":1331,"note":72,"tick":2544,"time":13.25,"type":"noteOff","velocity":0},{"channel":0,"nextOffset":1335,"note":45,"tick":2568,"time":13.375,"type":"noteOn","velocity":68},{"channel":0,"nextOffset":1339,"note":61,"tick":2568,"time":13.375,"type":"noteOn","velocity":68},{"channel":0,"nextOffset":1343,"note":65,"tick":2568,"time":13.375,"type":"noteOn","velocity":68},{"channel":0,"nextOffset":1347,"note":67,"tick":2568,"time":13.375,"type":"noteOn","velocity":68},{"channel":0,"nextOffset":1351,"note":70,"tick":2568,"time":13.375,"type":"noteOn","velocity":68},{"channel":0,"nextOffset":1355,"note":45,"tick":2592,"time":13.5,"type":"noteOff","velocity":0},{"channel":0,"nextOffset":1359,"note":61,"tick":2616,"time":13.625,"type":"noteOff","velocity":0},{"channel":0,"nextOffset":1363,"note":65,"tick":2616,"time":13.625,"type":"noteOff","velocity":0},{"channel":0,"nextOffset":1367,"note":67,"tick":2616,"time":13.625,"type":"noteOff","velocity":0},{"channel":0,"nextOffset":1371,"note":70,"tick":2616,"time":13.625,"type":"noteOff","velocity":0},{"channel":0,"nextOffset":1375,"note":38,"tick":2640,"time":13.75,"type":"noteOn","velocity":68},{"channel":0,"nextOffset":1379,"note":60,"tick":2640,"time":13.75,"type":"noteOn","velocity":68},{"channel":0,"nextOffset":1383,"note":64,"tick":2640,"time":13.75,"type":"noteOn","velocity":68},{"channel":0,"nextOffset":1387,"note":65,"tick":2640,"time":13.75,"type":"noteOn","velocity":68},{"channel":0,"nextOffset":1391,"note":69,"tick":2640,"time":13.75,"type":"noteOn","velocity":68},{"channel":0,"nextOffset":1395,"note":38,"tick":2688,"time":14,"type":"noteOff","velocity":0},{"channel":0,"nextOffset":1399,"note":50,"tick":2688,"time":14,"type":"noteOn","velocity":68},{"channel":0,"nextOffset":1403,"note":60,"tick":2688,"time":14,"type":"noteOff","velocity":0},{"channel":0,"nextOffset":1407,"note":64,"tick":2688,"time":14,"type":"noteOff","velocity":0},{"channel":0,"nextOffset":1411,"note":65,"tick":2688,"time":14,"type":"noteOff","velocity":0},{"channel":0,"nextOffset":1415,"note":69,"tick":2688,"time":14,"type":"noteOff","velocity":0},{"channel":0,"nextOffset":1419,"note":76,"tick":2688,"time":14,"type":"noteOn","velocity":68},{"channel":0,"nextOffset":1423,"note":76,"tick":2712,"time":14.125,"type":"noteOff","velocity":0},{"channel":0,"nextOffset":1427,"note":77,"tick":2712,"time":14.125,"type":"noteOn","velocity":68},{"channel":0,"nextOffset":1431,"note":38,"tick":2736,"time":14.25,"type":"noteOn","velocity":68},{"channel":0,"nextOffset":1435,"note":50,"tick":2736,"time":14.25,"type":"noteOff","velocity":0},{"channel":0,"nextOffset":1439,"note":77,"tick":2736,"time":14.25,"type":"noteOff","velocity":0},{"channel":0,"nextOffset":1443,"note":79,"tick":2736,"time":14.25,"type":"noteOn","velocity":68},{"channel":0,"nextOffset":1447,"note":77,"tick":2760,"time":14.375,"type":"noteOn","velocity":68},{"channel":0,"nextOffset":1451,"note":79,"tick":2760,"time":14.375,"type":"noteOff","velocity":0},{"channel":0,"nextOffset":1455,"note":38,"tick":2784,"time":14.5,"type":"noteOff","velocity":0},{"channel":0,"nextOffset":1459,"note":45,"tick":2784,"time":14.5,"type":"noteOn","velocity":68},{"channel":0,"nextOffset":1463,"note":76,"tick":2784,"time":14.5,"type":"noteOn","velocity":68},{"channel":0,"nextOffset":1467,"note":77,"tick":2784,"time":14.5,"type":"noteOff","velocity":0},{"channel":0,"nextOffset":1471,"note":72,"tick":2808,"time":14.625,"type":"noteOn","velocity":68},{"channel":0,"nextOffset":1475,"note":76,"tick":2808,"time":14.625,"type":"noteOff","velocity":0},{"channel":0,"nextOffset":1479,"note":38,"tick":2832,"time":14.75,"type":"noteOn","velocity":68},{"channel":0,"nextOffset":1483,"note":45,"tick":2832,"time":14.75,"type":"noteOff","velocity":0},{"channel":0,"nextOffset":1487,"note":69,"tick":2832,"time":14.75,"type":"noteOn","velocity":68},{"channel":0,"nextOffset":1491,"note":72,"tick":2832,"time":14.75,"type":"noteOff","velocity":0},{"channel":0,"nextOffset":1495,"note":67,"tick":2856,"time":14.875,"type":"noteOn","velocity":68},{"channel":0,"nextOffset":1499,"note":69,"tick":2856,"time":14.875,"type":"noteOff","velocity":0},{"channel":0,"nextOffset":1503,"note":38,"tick":2880,"time":15,"type":"noteOff","velocity":0},{"channel":0,"nextOffset":1507,"note":50,"tick":2880,"time":15,"type":"noteOn","velocity":68},{"channel":0,"nextOffset":1511,"note":67,"tick":2880,"time":15,"type":"noteOff","velocity":0},{"channel":0,"nextOffset":1515,"note":69,"tick":2880,"time":15,"type":"noteOn","velocity":68},{"channel":0,"nextOffset":1519,"note":62,"tick":2904,"time":15.125,"type":"noteOn","velocity":68},{"channel":0,"nextOffset":1523,"note":69,"tick":2904,"time":15.125,"type":"noteOff","velocity":0},{"channel":0,"nextOffset":1527,"note":38,"tick":2928,"time":15.25,"type":"noteOn","velocity":68},{"channel":0,"nextOffset":1531,"note":50,"tick":2928,"time":15.25,"type":"noteOff","velocity":0},{"channel":0,"nextOffset":1535,"note":60,"tick":2928,"time":15.25,"type":"noteOn","velocity":68},{"channel":0,"nextOffset":1539,"note":62,"tick":2928,"time":15.25,"type":"noteOff","velocity":0},{"channel":0,"nextOffset":1543,"note":60,"tick":2952,"time":15.375,"type":"noteOff","velocity":0},{"channel":0,"nextOffset":1547,"note":65,"tick":2952,"time":15.375,"type":"noteOn","velocity":68},{"channel":0,"nextOffset":1551,"note":38,"tick":2976,"time":15.5,"type":"noteOff","velocity":0},{"channel":0,"nextOffset":1555,"note":45,"tick":2976,"time":15.5,"type":"noteOn","velocity":68},{"channel":0,"nextOffset":1559,"note":60,"tick":2976,"time":15.5,"type":"noteOn","velocity":68},{"channel":0,"nextOffset":1563,"note":64,"tick":2976,"time":15.5,"type":"noteOn","velocity":68},{"channel":0,"nextOffset":1567,"note":65,"tick":2976,"time":15.5,"type":"noteOff","velocity":0},{"channel":0,"nextOffset":1571,"note":69,"tick":2976,"time":15.5,"type":"noteOn","velocity":68},{"channel":0,"nextOffset":1575,"note":44,"tick":3024,"time":15.75,"type":"noteOn","velocity":68},{"channel":0,"nextOffset":1579,"note":45,"tick":3024,"time":15.75,"type":"noteOff","velocity":0},{"channel":0,"nextOffset":1583,"note":59,"tick":3024,"time":15.75,"type":"noteOn","velocity":68},{"channel":0,"nextOffset":1587,"note":60,"tick":3024,"time":15.75,"type":"noteOff","velocity":0},{"channel":0,"nextOffset":1591,"note":63,"tick":3024,"time":15.75,"type":"noteOn","velocity":68},{"channel":0,"nextOffset":1595,"note":64,"tick":3024,"time":15.75,"type":"noteOff","velocity":0},{"channel":0,"nextOffset":1599,"note":68,"tick":3024,"time":15.75,"type":"noteOn","velocity":68},{"channel":0,"nextOffset":1603,"note":69,"tick":3024,"time":15.75,"type":"noteOff","velocity":0},{"channel":0,"nextOffset":1607,"note":44,"tick":3072,"time":16,"type":"noteOff","velocity":0},{"channel":0,"nextOffset":1611,"note":59,"tick":3072,"time":16,"type":"noteOff","velocity":0},{"channel":0,"nextOffset":1615,"note":63,"tick":3072,"time":16,"type":"noteOff","velocity":0},{"channel":0,"nextOffset":1619,"note":68,"tick":3072,"time":16,"type":"noteOff","velocity":0}],"tempo":500000,"tempoMap":[{"tempo":500000,"time":0}],"ticksPerQuarter":96,"timeSignature":{"clocksPerClick":24,"denominator":4,"numerator":4,"thirtysecondNotesPerBeat":8},"trimmedTicks":27403},"notesRaw":[{"channel":0,"duration":0.1875,"durationBeats":0.5,"durationTicks":480,"endBeat":1,"endTick":960,"endTime":0.375,"note":50,"startBeat":0.5,"startTick":480,"startTime":0.1875,"velocity":68},{"channel":0,"duration":0.375,"durationBeats":1,"durationTicks":960,"endBeat":1,"endTick":960,"endTime":0.375,"note":58,"startBeat":0,"startTick":0,"startTime":0,"velocity":68},{"channel":0,"duration":0.375,"durationBeats":1,"durationTicks":960,"endBeat":1,"endTick":960,"endTime":0.375,"note":62,"startBeat":0,"startTick":0,"startTime":0,"velocity":68},{"channel":0,"duration":0.375,"durationBeats":1,"durationTicks":960,"endBeat":1,"endTick":960,"endTime":0.375,"note":65,"startBeat":0,"startTick":0,"startTime":0,"velocity":68},{"channel":0,"duration":0.375,"durationBeats":1,"durationTicks":960,"endBeat":1,"endTick":960,"endTime":0.375,"note":69,"startBeat":0,"startTick":0,"startTime":0,"velocity":68},{"channel":0,"duration":0.1875,"durationBeats":0.5,"durationTicks":480,"endBeat":1.5,"endTick":1440,"endTime":0.5625,"note":43,"startBeat":1,"startTick":960,"startTime":0.375,"velocity":68},{"channel":0,"duration":0.09375,"durationBeats":0.25,"durationTicks":240,"endBeat":1.75,"endTick":1680,"endTime":0.65625,"note":65,"startBeat":1.5,"startTick":1440,"startTime":0.5625,"velocity":68},{"channel":0,"duration":0.1875,"durationBeats":0.5,"durationTicks":480,"endBeat":2,"endTick":1920,"endTime":0.75,"note":44,"startBeat":1.5,"startTick":1440,"startTime":0.5625,"velocity":68},{"channel":0,"duration":0.09375,"durationBeats":0.25,"durationTicks":240,"endBeat":2,"endTick":1920,"endTime":0.75,"note":69,"startBeat":1.75,"startTick":1680,"startTime":0.65625,"velocity":68},{"channel":0,"duration":0.1875,"durationBeats":0.5,"durationTicks":480,"endBeat":2.5,"endTick":2400,"endTime":0.9375,"note":45,"startBeat":2,"startTick":1920,"startTime":0.75,"velocity":68},{"channel":0,"duration":0.1875,"durationBeats":0.5,"durationTicks":480,"endBeat":2.5,"endTick":2400,"endTime":0.9375,"note":60,"startBeat":2,"startTick":1920,"startTime":0.75,"velocity":68},{"channel":0,"duration":0.1875,"durationBeats":0.5,"durationTicks":480,"endBeat":2.5,"endTick":2400,"endTime":0.9375,"note":64,"startBeat":2,"startTick":1920,"startTime":0.75,"velocity":68},{"channel":0,"duration":0.1875,"durationBeats":0.5,"durationTicks":480,"endBeat":2.5,"endTick":2400,"endTime":0.9375,"note":67,"startBeat":2,"startTick":1920,"startTime":0.75,"velocity":68},{"channel":0,"duration":0.1875,"durationBeats":0.5,"durationTicks":480,"endBeat":2.5,"endTick":2400,"endTime":0.9375,"note":72,"startBeat":2,"startTick":1920,"startTime":0.75,"velocity":68},{"channel":0,"duration":0.09375,"durationBeats":0.25,"durationTicks":240,"endBeat":3,"endTick":2880,"endTime":1.125,"note":45,"startBeat":2.75,"startTick":2640,"startTime":1.03125,"velocity":68},{"channel":0,"duration":0.1875,"durationBeats":0.5,"durationTicks":480,"endBeat":3.25,"endTick":3120,"endTime":1.21875,"note":61,"startBeat":2.75,"startTick":2640,"startTime":1.03125,"velocity":68},{"channel":0,"duration":0.1875,"durationBeats":0.5,"durationTicks":480,"endBeat":3.25,"endTick":3120,"endTime":1.21875,"note":65,"startBeat":2.75,"startTick":2640,"startTime":1.03125,"velocity":68},{"channel":0,"duration":0.1875,"durationBeats":0.5,"durationTicks":480,"endBeat":3.25,"endTick":3120,"endTime":1.21875,"note":67,"startBeat":2.75,"startTick":2640,"startTime":1.03125,"velocity":68},{"channel":0,"duration":0.1875,"durationBeats":0.5,"durationTicks":480,"endBeat":3.25,"endTick":3120,"endTime":1.21875,"note":70,"startBeat":2.75,"startTick":2640,"startTime":1.03125,"velocity":68},{"channel":0,"duration":0.1875,"durationBeats":0.5,"durationTicks":480,"endBeat":4,"endTick":3840,"endTime":1.5,"note":38,"startBeat":3.5,"startTick":3360,"startTime":1.3125,"velocity":68},{"channel":0,"duration":0.1875,"durationBeats":0.5,"durationTicks":480,"endBeat":4,"endTick":3840,"endTime":1.5,"note":60,"startBeat":3.5,"startTick":3360,"startTime":1.3125,"velocity":68},{"channel":0,"duration":0.1875,"durationBeats":0.5,"durationTicks":480,"endBeat":4,"endTick":3840,"endTime":1.5,"note":64,"startBeat":3.5,"startTick":3360,"startTime":1.3125,"velocity":68},{"channel":0,"duration":0.1875,"durationBeats":0.5,"durationTicks":480,"endBeat":4,"endTick":3840,"endTime":1.5,"note":65,"startBeat":3.5,"startTick":3360,"startTime":1.3125,"velocity":68},{"channel":0,"duration":0.1875,"durationBeats":0.5,"durationTicks":480,"endBeat":4,"endTick":3840,"endTime":1.5,"note":69,"startBeat":3.5,"startTick":3360,"startTime":1.3125,"velocity":68},{"channel":0,"duration":0.09375,"durationBeats":0.25,"durationTicks":240,"endBeat":4.25,"endTick":4080,"endTime":1.59375,"note":76,"startBeat":4,"startTick":3840,"startTime":1.5,"velocity":68},{"channel":0,"duration":0.09375,"durationBeats":0.25,"durationTicks":240,"endBeat":4.5,"endTick":4320,"endTime":1.6875,"note":77,"startBeat":4.25,"startTick":4080,"startTime":1.59375,"velocity":68},{"channel":0,"duration":0.09375,"durationBeats":0.25,"durationTicks":240,"endBeat":4.75,"endTick":4560,"endTime":1.78125,"note":76,"startBeat":4.5,"startTick":4320,"startTime":1.6875,"velocity":68},{"channel":0,"duration":0.09375,"durationBeats":0.25,"durationTicks":240,"endBeat":5,"endTick":4800,"endTime":1.875,"note":72,"startBeat":4.75,"startTick":4560,"startTime":1.78125,"velocity":68},{"channel":0,"duration":0.09375,"durationBeats":0.25,"durationTicks":240,"endBeat":5.25,"endTick":5040,"endTime":1.96875,"note":76,"startBeat":5,"startTick":4800,"startTime":1.875,"velocity":68},{"channel":0,"duration":0.09375,"durationBeats":0.25,"durationTicks":240,"endBeat":5.5,"endTick":5280,"endTime":2.0625,"note":72,"startBeat":5.25,"startTick":5040,"startTime":1.96875,"velocity":68},{"channel":0,"duration":0.09375,"durationBeats":0.25,"durationTicks":240,"endBeat":5.75,"endTick":5520,"endTime":2.15625,"note":69,"startBeat":5.5,"startTick":5280,"startTime":2.0625,"velocity":68},{"channel":0,"duration":0.1875,"durationBeats":0.5,"durationTicks":480,"endBeat":6,"endTick":5760,"endTime":2.25,"note":45,"startBeat":5.5,"startTick":5280,"startTime":2.0625,"velocity":68},{"channel":0,"duration":0.09375,"durationBeats":0.25,"durationTicks":240,"endBeat":6,"endTick":5760,"endTime":2.25,"note":67,"startBeat":5.75,"startTick":5520,"startTime":2.15625,"velocity":68},{"channel":0,"duration":0.09375,"durationBeats":0.25,"durationTicks":240,"endBeat":6.25,"endTick":6000,"endTime":2.34375,"note":69,"startBeat":6,"startTick":5760,"startTime":2.25,"velocity":68},{"channel":0,"duration":0.1875,"durationBeats":0.5,"durationTicks":480,"endBeat":6.5,"endTick":6240,"endTime":2.4375,"note":50,"startBeat":6,"startTick":5760,"startTime":2.25,"velocity":68},{"channel":0,"duration":0.09375,"durationBeats":0.25,"durationTicks":240,"endBeat":6.5,"endTick":6240,"endTime":2.4375,"note":62,"startBeat":6.25,"startTick":6000,"startTime":2.34375,"velocity":68},{"channel":0,"duration":0.09375,"durationBeats":0.25,"durationTicks":240,"endBeat":6.75,"endTick":6480,"endTime":2.53125,"note":60,"startBeat":6.5,"startTick":6240,"startTime":2.4375,"velocity":68},{"channel":0,"duration":0.1875,"durationBeats":0.5,"durationTicks":480,"endBeat":7,"endTick":6720,"endTime":2.625,"note":38,"startBeat":6.5,"startTick":6240,"startTime":2.4375,"velocity":68},{"channel":0,"duration":0.09375,"durationBeats":0.25,"durationTicks":240,"endBeat":7,"endTick":6720,"endTime":2.625,"note":65,"startBeat":6.75,"startTick":6480,"startTime":2.53125,"velocity":68},{"channel":0,"duration":0.1875,"durationBeats":0.5,"durationTicks":480,"endBeat":7.5,"endTick":7200,"endTime":2.8125,"note":45,"startBeat":7,"startTick":6720,"startTime":2.625,"velocity":68},{"channel":0,"duration":0.1875,"durationBeats":0.5,"durationTicks":480,"endBeat":7.5,"endTick":7200,"endTime":2.8125,"note":60,"startBeat":7,"startTick":6720,"startTime":2.625,"velocity":68},{"channel":0,"duration":0.1875,"durationBeats":0.5,"durationTicks":480,"endBeat":7.5,"endTick":7200,"endTime":2.8125,"note":64,"startBeat":7,"startTick":6720,"startTime":2.625,"velocity":68},{"channel":0,"duration":0.1875,"durationBeats":0.5,"durationTicks":480,"endBeat":7.5,"endTick":7200,"endTime":2.8125,"note":69,"startBeat":7,"startTick":6720,"startTime":2.625,"velocity":68},{"channel":0,"duration":0.1875,"durationBeats":0.5,"durationTicks":480,"endBeat":8,"endTick":7680,"endTime":3,"note":44,"startBeat":7.5,"startTick":7200,"startTime":2.8125,"velocity":68},{"channel":0,"duration":0.1875,"durationBeats":0.5,"durationTicks":480,"endBeat":8,"endTick":7680,"endTime":3,"note":59,"startBeat":7.5,"startTick":7200,"startTime":2.8125,"velocity":68},{"channel":0,"duration":0.1875,"durationBeats":0.5,"durationTicks":480,"endBeat":8,"endTick":7680,"endTime":3,"note":63,"startBeat":7.5,"startTick":7200,"startTime":2.8125,"velocity":68},{"channel":0,"duration":0.1875,"durationBeats":0.5,"durationTicks":480,"endBeat":8,"endTick":7680,"endTime":3,"note":68,"startBeat":7.5,"startTick":7200,"startTime":2.8125,"velocity":68},{"channel":0,"duration":0.1875,"durationBeats":0.5,"durationTicks":480,"endBeat":8.5,"endTick":8160,"endTime":3.1875,"note":43,"startBeat":8,"startTick":7680,"startTime":3,"velocity":68},{"channel":0,"duration":0.1875,"durationBeats":0.5,"durationTicks":480,"endBeat":9,"endTick":8640,"endTime":3.375,"note":50,"startBeat":8.5,"startTick":8160,"startTime":3.1875,"velocity":68},{"channel":0,"duration":0.375,"durationBeats":1,"durationTicks":960,"endBeat":9,"endTick":8640,"endTime":3.375,"note":58,"startBeat":8,"startTick":7680,"startTime":3,"velocity":68},{"channel":0,"duration":0.375,"durationBeats":1,"durationTicks":960,"endBeat":9,"endTick":8640,"endTime":3.375,"note":62,"startBeat":8,"startTick":7680,"startTime":3,"velocity":68},{"channel":0,"duration":0.375,"durationBeats":1,"durationTicks":960,"endBeat":9,"endTick":8640,"endTime":3.375,"note":65,"startBeat":8,"startTick":7680,"startTime":3,"velocity":68},{"channel":0,"duration":0.375,"durationBeats":1,"durationTicks":960,"endBeat":9,"endTick":8640,"endTime":3.375,"note":69,"startBeat":8,"startTick":7680,"startTime":3,"velocity":68},{"channel":0,"duration":0.1875,"durationBeats":0.5,"durationTicks":480,"endBeat":9.5,"endTick":9120,"endTime":3.5625,"note":43,"startBeat":9,"startTick":8640,"startTime":3.375,"velocity":68},{"channel":0,"duration":0.09375,"durationBeats":0.25,"durationTicks":240,"endBeat":9.75,"endTick":9360,"endTime":3.65625,"note":65,"startBeat":9.5,"startTick":9120,"startTime":3.5625,"velocity":68},{"channel":0,"duration":0.1875,"durationBeats":0.5,"durationTicks":480,"endBeat":10,"endTick":9600,"endTime":3.75,"note":44,"startBeat":9.5,"startTick":9120,"startTime":3.5625,"velocity":68},{"channel":0,"duration":0.09375,"durationBeats":0.25,"durationTicks":240,"endBeat":10,"endTick":9600,"endTime":3.75,"note":69,"startBeat":9.75,"startTick":9360,"startTime":3.65625,"velocity":68},{"channel":0,"duration":0.1875,"durationBeats":0.5,"durationTicks":480,"endBeat":10.5,"endTick":10080,"endTime":3.9375,"note":45,"startBeat":10,"startTick":9600,"startTime":3.75,"velocity":68},{"channel":0,"duration":0.1875,"durationBeats":0.5,"durationTicks":480,"endBeat":10.5,"endTick":10080,"endTime":3.9375,"note":60,"startBeat":10,"startTick":9600,"startTime":3.75,"velocity":68},{"channel":0,"duration":0.1875,"durationBeats":0.5,"durationTicks":480,"endBeat":10.5,"endTick":10080,"endTime":3.9375,"note":64,"startBeat":10,"startTick":9600,"startTime":3.75,"velocity":68},{"channel":0,"duration":0.1875,"durationBeats":0.5,"durationTicks":480,"endBeat":10.5,"endTick":10080,"endTime":3.9375,"note":67,"startBeat":10,"startTick":9600,"startTime":3.75,"velocity":68},{"channel":0,"duration":0.1875,"durationBeats":0.5,"durationTicks":480,"endBeat":10.5,"endTick":10080,"endTime":3.9375,"note":72,"startBeat":10,"startTick":9600,"startTime":3.75,"velocity":68},{"channel":0,"duration":0.09375,"durationBeats":0.25,"durationTicks":240,"endBeat":11,"endTick":10560,"endTime":4.125,"note":45,"startBeat":10.75,"startTick":10320,"startTime":4.03125,"velocity":68},{"channel":0,"duration":0.1875,"durationBeats":0.5,"durationTicks":480,"endBeat":11.25,"endTick":10800,"endTime":4.21875,"note":61,"startBeat":10.75,"startTick":10320,"startTime":4.03125,"velocity":68},{"channel":0,"duration":0.1875,"durationBeats":0.5,"durationTicks":480,"endBeat":11.25,"endTick":10800,"endTime":4.21875,"note":65,"startBeat":10.75,"startTick":10320,"startTime":4.03125,"velocity":68},{"channel":0,"duration":0.1875,"durationBeats":0.5,"durationTicks":480,"endBeat":11.25,"endTick":10800,"endTime":4.21875,"note":67,"startBeat":10.75,"startTick":10320,"startTime":4.03125,"velocity":68},{"channel":0,"duration":0.1875,"durationBeats":0.5,"durationTicks":480,"endBeat":11.25,"endTick":10800,"endTime":4.21875,"note":70,"startBeat":10.75,"startTick":10320,"startTime":4.03125,"velocity":68},{"channel":0,"duration":0.1875,"durationBeats":0.5,"durationTicks":480,"endBeat":12,"endTick":11520,"endTime":4.5,"note":38,"startBeat":11.5,"startTick":11040,"startTime":4.3125,"velocity":68},{"channel":0,"duration":0.1875,"durationBeats":0.5,"durationTicks":480,"endBeat":12,"endTick":11520,"endTime":4.5,"note":60,"startBeat":11.5,"startTick":11040,"startTime":4.3125,"velocity":68},{"channel":0,"duration":0.1875,"durationBeats":0.5,"durationTicks":480,"endBeat":12,"endTick":11520,"endTime":4.5,"note":64,"startBeat":11.5,"startTick":11040,"startTime":4.3125,"velocity":68},{"channel":0,"duration":0.1875,"durationBeats":0.5,"durationTicks":480,"endBeat":12,"endTick":11520,"endTime":4.5,"note":65,"startBeat":11.5,"startTick":11040,"startTime":4.3125,"velocity":68},{"channel":0,"duration":0.1875,"durationBeats":0.5,"durationTicks":480,"endBeat":12,"endTick":11520,"endTime":4.5,"note":69,"startBeat":11.5,"startTick":11040,"startTime":4.3125,"velocity":68},{"channel":0,"duration":0.09375,"durationBeats":0.25,"durationTicks":240,"endBeat":12.25,"endTick":11760,"endTime":4.59375,"note":76,"startBeat":12,"startTick":11520,"startTime":4.5,"velocity":68},{"channel":0,"duration":0.09375,"durationBeats":0.25,"durationTicks":240,"endBeat":12.5,"endTick":12000,"endTime":4.6875,"note":77,"startBeat":12.25,"startTick":11760,"startTime":4.59375,"velocity":68},{"channel":0,"duration":0.09375,"durationBeats":0.25,"durationTicks":240,"endBeat":12.75,"endTick":12240,"endTime":4.78125,"note":79,"startBeat":12.5,"startTick":12000,"startTime":4.6875,"velocity":68},{"channel":0,"duration":0.09375,"durationBeats":0.25,"durationTicks":240,"endBeat":13,"endTick":12480,"endTime":4.875,"note":77,"startBeat":12.75,"startTick":12240,"startTime":4.78125,"velocity":68},{"channel":0,"duration":0.09375,"durationBeats":0.25,"durationTicks":240,"endBeat":13.25,"endTick":12720,"endTime":4.96875,"note":76,"startBeat":13,"startTick":12480,"startTime":4.875,"velocity":68},{"channel":0,"duration":0.09375,"durationBeats":0.25,"durationTicks":240,"endBeat":13.5,"endTick":12960,"endTime":5.0625,"note":72,"startBeat":13.25,"startTick":12720,"startTime":4.96875,"velocity":68},{"channel":0,"duration":0.09375,"durationBeats":0.25,"durationTicks":240,"endBeat":13.75,"endTick":13200,"endTime":5.15625,"note":69,"startBeat":13.5,"startTick":12960,"startTime":5.0625,"velocity":68},{"channel":0,"duration":0.1875,"durationBeats":0.5,"durationTicks":480,"endBeat":14,"endTick":13440,"endTime":5.25,"note":45,"startBeat":13.5,"startTick":12960,"startTime":5.0625,"velocity":68},{"channel":0,"duration":0.09375,"durationBeats":0.25,"durationTicks":240,"endBeat":14,"endTick":13440,"endTime":5.25,"note":67,"startBeat":13.75,"startTick":13200,"startTime":5.15625,"velocity":68},{"channel":0,"duration":0.09375,"durationBeats":0.25,"durationTicks":240,"endBeat":14.25,"endTick":13680,"endTime":5.34375,"note":69,"startBeat":14,"startTick":13440,"startTime":5.25,"velocity":68},{"channel":0,"duration":0.1875,"durationBeats":0.5,"durationTicks":480,"endBeat":14.5,"endTick":13920,"endTime":5.4375,"note":50,"startBeat":14,"startTick":13440,"startTime":5.25,"velocity":68},{"channel":0,"duration":0.09375,"durationBeats":0.25,"durationTicks":240,"endBeat":14.5,"endTick":13920,"endTime":5.4375,"note":62,"startBeat":14.25,"startTick":13680,"startTime":5.34375,"velocity":68},{"channel":0,"duration":0.09375,"durationBeats":0.25,"durationTicks":240,"endBeat":14.75,"endTick":14160,"endTime":5.53125,"note":60,"startBeat":14.5,"startTick":13920,"startTime":5.4375,"velocity":68},{"channel":0,"duration":0.1875,"durationBeats":0.5,"durationTicks":480,"endBeat":15,"endTick":14400,"endTime":5.625,"note":38,"startBeat":14.5,"startTick":13920,"startTime":5.4375,"velocity":68},{"channel":0,"duration":0.09375,"durationBeats":0.25,"durationTicks":240,"endBeat":15,"endTick":14400,"endTime":5.625,"note":65,"startBeat":14.75,"startTick":14160,"startTime":5.53125,"velocity":68},{"channel":0,"duration":0.1875,"durationBeats":0.5,"durationTicks":480,"endBeat":15.5,"endTick":14880,"endTime":5.8125,"note":45,"startBeat":15,"startTick":14400,"startTime":5.625,"velocity":68},{"channel":0,"duration":0.1875,"durationBeats":0.5,"durationTicks":480,"endBeat":15.5,"endTick":14880,"endTime":5.8125,"note":60,"startBeat":15,"startTick":14400,"startTime":5.625,"velocity":68},{"channel":0,"duration":0.1875,"durationBeats":0.5,"durationTicks":480,"endBeat":15.5,"endTick":14880,"endTime":5.8125,"note":64,"startBeat":15,"startTick":14400,"startTime":5.625,"velocity":68},{"channel":0,"duration":0.1875,"durationBeats":0.5,"durationTicks":480,"endBeat":15.5,"endTick":14880,"endTime":5.8125,"note":69,"startBeat":15,"startTick":14400,"startTime":5.625,"velocity":68},{"channel":0,"duration":0.1875,"durationBeats":0.5,"durationTicks":480,"endBeat":16,"endTick":15360,"endTime":6,"note":44,"startBeat":15.5,"startTick":14880,"startTime":5.8125,"velocity":68},{"channel":0,"duration":0.1875,"durationBeats":0.5,"durationTicks":480,"endBeat":16,"endTick":15360,"endTime":6,"note":59,"startBeat":15.5,"startTick":14880,"startTime":5.8125,"velocity":68},{"channel":0,"duration":0.1875,"durationBeats":0.5,"durationTicks":480,"endBeat":16,"endTick":15360,"endTime":6,"note":63,"startBeat":15.5,"startTick":14880,"startTime":5.8125,"velocity":68},{"channel":0,"duration":0.1875,"durationBeats":0.5,"durationTicks":480,"endBeat":16,"endTick":15360,"endTime":6,"note":68,"startBeat":15.5,"startTick":14880,"startTime":5.8125,"velocity":68},{"channel":0,"duration":0.1875,"durationBeats":0.5,"durationTicks":480,"endBeat":16.5,"endTick":15840,"endTime":6.1875,"note":43,"startBeat":16,"startTick":15360,"startTime":6,"velocity":68},{"channel":0,"duration":0.1875,"durationBeats":0.5,"durationTicks":480,"endBeat":17,"endTick":16320,"endTime":6.375,"note":50,"startBeat":16.5,"startTick":15840,"startTime":6.1875,"velocity":68},{"channel":0,"duration":0.375,"durationBeats":1,"durationTicks":960,"endBeat":17,"endTick":16320,"endTime":6.375,"note":58,"startBeat":16,"startTick":15360,"startTime":6,"velocity":68},{"channel":0,"duration":0.375,"durationBeats":1,"durationTicks":960,"endBeat":17,"endTick":16320,"endTime":6.375,"note":62,"startBeat":16,"startTick":15360,"startTime":6,"velocity":68},{"channel":0,"duration":0.375,"durationBeats":1,"durationTicks":960,"endBeat":17,"endTick":16320,"endTime":6.375,"note":65,"startBeat":16,"startTick":15360,"startTime":6,"velocity":68},{"channel":0,"duration":0.375,"durationBeats":1,"durationTicks":960,"endBeat":17,"endTick":16320,"endTime":6.375,"note":69,"startBeat":16,"startTick":15360,"startTime":6,"velocity":68},{"channel":0,"duration":0.1875,"durationBeats":0.5,"durationTicks":480,"endBeat":17.5,"endTick":16800,"endTime":6.5625,"note":43,"startBeat":17,"startTick":16320,"startTime":6.375,"velocity":68},{"channel":0,"duration":0.09375,"durationBeats":0.25,"durationTicks":240,"endBeat":17.75,"endTick":17040,"endTime":6.65625,"note":65,"startBeat":17.5,"startTick":16800,"startTime":6.5625,"velocity":68},{"channel":0,"duration":0.1875,"durationBeats":0.5,"durationTicks":480,"endBeat":18,"endTick":17280,"endTime":6.75,"note":44,"startBeat":17.5,"startTick":16800,"startTime":6.5625,"velocity":68},{"channel":0,"duration":0.09375,"durationBeats":0.25,"durationTicks":240,"endBeat":18,"endTick":17280,"endTime":6.75,"note":69,"startBeat":17.75,"startTick":17040,"startTime":6.65625,"velocity":68},{"channel":0,"duration":0.1875,"durationBeats":0.5,"durationTicks":480,"endBeat":18.5,"endTick":17760,"endTime":6.9375,"note":45,"startBeat":18,"startTick":17280,"startTime":6.75,"velocity":68},{"channel":0,"duration":0.1875,"durationBeats":0.5,"durationTicks":480,"endBeat":18.5,"endTick":17760,"endTime":6.9375,"note":60,"startBeat":18,"startTick":17280,"startTime":6.75,"velocity":68},{"channel":0,"duration":0.1875,"durationBeats":0.5,"durationTicks":480,"endBeat":18.5,"endTick":17760,"endTime":6.9375,"note":64,"startBeat":18,"startTick":17280,"startTime":6.75,"velocity":68},{"channel":0,"duration":0.1875,"durationBeats":0.5,"durationTicks":480,"endBeat":18.5,"endTick":17760,"endTime":6.9375,"note":67,"startBeat":18,"startTick":17280,"startTime":6.75,"velocity":68},{"channel":0,"duration":0.1875,"durationBeats":0.5,"durationTicks":480,"endBeat":18.5,"endTick":17760,"endTime":6.9375,"note":72,"startBeat":18,"startTick":17280,"startTime":6.75,"velocity":68},{"channel":0,"duration":0.09375,"durationBeats":0.25,"durationTicks":240,"endBeat":19,"endTick":18240,"endTime":7.125,"note":45,"startBeat":18.75,"startTick":18000,"startTime":7.03125,"velocity":68},{"channel":0,"duration":0.1875,"durationBeats":0.5,"durationTicks":480,"endBeat":19.25,"endTick":18480,"endTime":7.21875,"note":61,"startBeat":18.75,"startTick":18000,"startTime":7.03125,"velocity":68},{"channel":0,"duration":0.1875,"durationBeats":0.5,"durationTicks":480,"endBeat":19.25,"endTick":18480,"endTime":7.21875,"note":65,"startBeat":18.75,"startTick":18000,"startTime":7.03125,"velocity":68},{"channel":0,"duration":0.1875,"durationBeats":0.5,"durationTicks":480,"endBeat":19.25,"endTick":18480,"endTime":7.21875,"note":67,"startBeat":18.75,"startTick":18000,"startTime":7.03125,"velocity":68},{"channel":0,"duration":0.1875,"durationBeats":0.5,"durationTicks":480,"endBeat":19.25,"endTick":18480,"endTime":7.21875,"note":70,"startBeat":18.75,"startTick":18000,"startTime":7.03125,"velocity":68},{"channel":0,"duration":0.1875,"durationBeats":0.5,"durationTicks":480,"endBeat":20,"endTick":19200,"endTime":7.5,"note":38,"startBeat":19.5,"startTick":18720,"startTime":7.3125,"velocity":68},{"channel":0,"duration":0.1875,"durationBeats":0.5,"durationTicks":480,"endBeat":20,"endTick":19200,"endTime":7.5,"note":60,"startBeat":19.5,"startTick":18720,"startTime":7.3125,"velocity":68},{"channel":0,"duration":0.1875,"durationBeats":0.5,"durationTicks":480,"endBeat":20,"endTick":19200,"endTime":7.5,"note":64,"startBeat":19.5,"startTick":18720,"startTime":7.3125,"velocity":68},{"channel":0,"duration":0.1875,"durationBeats":0.5,"durationTicks":480,"endBeat":20,"endTick":19200,"endTime":7.5,"note":65,"startBeat":19.5,"startTick":18720,"startTime":7.3125,"velocity":68},{"channel":0,"duration":0.1875,"durationBeats":0.5,"durationTicks":480,"endBeat":20,"endTick":19200,"endTime":7.5,"note":69,"startBeat":19.5,"startTick":18720,"startTime":7.3125,"velocity":68},{"channel":0,"duration":0.09375,"durationBeats":0.25,"durationTicks":240,"endBeat":20.25,"endTick":19440,"endTime":7.59375,"note":76,"startBeat":20,"startTick":19200,"startTime":7.5,"velocity":68},{"channel":0,"duration":0.09375,"durationBeats":0.25,"durationTicks":240,"endBeat":20.5,"endTick":19680,"endTime":7.6875,"note":77,"startBeat":20.25,"startTick":19440,"startTime":7.59375,"velocity":68},{"channel":0,"duration":0.09375,"durationBeats":0.25,"durationTicks":240,"endBeat":20.75,"endTick":19920,"endTime":7.78125,"note":76,"startBeat":20.5,"startTick":19680,"startTime":7.6875,"velocity":68},{"channel":0,"duration":0.09375,"durationBeats":0.25,"durationTicks":240,"endBeat":21,"endTick":20160,"endTime":7.875,"note":72,"startBeat":20.75,"startTick":19920,"startTime":7.78125,"velocity":68},{"channel":0,"duration":0.09375,"durationBeats":0.25,"durationTicks":240,"endBeat":21.25,"endTick":20400,"endTime":7.96875,"note":76,"startBeat":21,"startTick":20160,"startTime":7.875,"velocity":68},{"channel":0,"duration":0.1875,"durationBeats":0.5,"durationTicks":480,"endBeat":21.5,"endTick":20640,"endTime":8.0625,"note":38,"startBeat":21,"startTick":20160,"startTime":7.875,"velocity":68},{"channel":0,"duration":0.09375,"durationBeats":0.25,"durationTicks":240,"endBeat":21.5,"endTick":20640,"endTime":8.0625,"note":72,"startBeat":21.25,"startTick":20400,"startTime":7.96875,"velocity":68},{"channel":0,"duration":0.09375,"durationBeats":0.25,"durationTicks":240,"endBeat":21.75,"endTick":20880,"endTime":8.15625,"note":69,"startBeat":21.5,"startTick":20640,"startTime":8.0625,"velocity":68},{"channel":0,"duration":0.1875,"durationBeats":0.5,"durationTicks":480,"endBeat":22,"endTick":21120,"endTime":8.25,"note":45,"startBeat":21.5,"startTick":20640,"startTime":8.0625,"velocity":68},{"channel":0,"duration":0.09375,"durationBeats":0.25,"durationTicks":240,"endBeat":22,"endTick":21120,"endTime":8.25,"note":67,"startBeat":21.75,"startTick":20880,"startTime":8.15625,"velocity":68},{"channel":0,"duration":0.09375,"durationBeats":0.25,"durationTicks":240,"endBeat":22.25,"endTick":21360,"endTime":8.34375,"note":69,"startBeat":22,"startTick":21120,"startTime":8.25,"velocity":68},{"channel":0,"duration":0.1875,"durationBeats":0.5,"durationTicks":480,"endBeat":22.5,"endTick":21600,"endTime":8.4375,"note":50,"startBeat":22,"startTick":21120,"startTime":8.25,"velocity":68},{"channel":0,"duration":0.09375,"durationBeats":0.25,"durationTicks":240,"endBeat":22.5,"endTick":21600,"endTime":8.4375,"note":62,"startBeat":22.25,"startTick":21360,"startTime":8.34375,"velocity":68},{"channel":0,"duration":0.09375,"durationBeats":0.25,"durationTicks":240,"endBeat":22.75,"endTick":21840,"endTime":8.53125,"note":60,"startBeat":22.5,"startTick":21600,"startTime":8.4375,"velocity":68},{"channel":0,"duration":0.1875,"durationBeats":0.5,"durationTicks":480,"endBeat":23,"endTick":22080,"endTime":8.625,"note":38,"startBeat":22.5,"startTick":21600,"startTime":8.4375,"velocity":68},{"channel":0,"duration":0.09375,"durationBeats":0.25,"durationTicks":240,"endBeat":23,"endTick":22080,"endTime":8.625,"note":65,"startBeat":22.75,"startTick":21840,"startTime":8.53125,"velocity":68},{"channel":0,"duration":0.1875,"durationBeats":0.5,"durationTicks":480,"endBeat":23.5,"endTick":22560,"endTime":8.8125,"note":45,"startBeat":23,"startTick":22080,"startTime":8.625,"velocity":68},{"channel":0,"duration":0.1875,"durationBeats":0.5,"durationTicks":480,"endBeat":23.5,"endTick":22560,"endTime":8.8125,"note":60,"startBeat":23,"startTick":22080,"startTime":8.625,"velocity":68},{"channel":0,"duration":0.1875,"durationBeats":0.5,"durationTicks":480,"endBeat":23.5,"endTick":22560,"endTime":8.8125,"note":64,"startBeat":23,"startTick":22080,"startTime":8.625,"velocity":68},{"channel":0,"duration":0.1875,"durationBeats":0.5,"durationTicks":480,"endBeat":23.5,"endTick":22560,"endTime":8.8125,"note":69,"startBeat":23,"startTick":22080,"startTime":8.625,"velocity":68},{"channel":0,"duration":0.1875,"durationBeats":0.5,"durationTicks":480,"endBeat":24,"endTick":23040,"endTime":9,"note":44,"startBeat":23.5,"startTick":22560,"startTime":8.8125,"velocity":68},{"channel":0,"duration":0.1875,"durationBeats":0.5,"durationTicks":480,"endBeat":24,"endTick":23040,"endTime":9,"note":59,"startBeat":23.5,"startTick":22560,"startTime":8.8125,"velocity":68},{"channel":0,"duration":0.1875,"durationBeats":0.5,"durationTicks":480,"endBeat":24,"endTick":23040,"endTime":9,"note":63,"startBeat":23.5,"startTick":22560,"startTime":8.8125,"velocity":68},{"channel":0,"duration":0.1875,"durationBeats":0.5,"durationTicks":480,"endBeat":24,"endTick":23040,"endTime":9,"note":68,"startBeat":23.5,"startTick":22560,"startTime":8.8125,"velocity":68},{"channel":0,"duration":0.1875,"durationBeats":0.5,"durationTicks":480,"endBeat":24.5,"endTick":23520,"endTime":9.1875,"note":43,"startBeat":24,"startTick":23040,"startTime":9,"velocity":68},{"channel":0,"duration":0.375,"durationBeats":1,"durationTicks":960,"endBeat":25,"endTick":24000,"endTime":9.375,"note":58,"startBeat":24,"startTick":23040,"startTime":9,"velocity":68},{"channel":0,"duration":0.375,"durationBeats":1,"durationTicks":960,"endBeat":25,"endTick":24000,"endTime":9.375,"note":62,"startBeat":24,"startTick":23040,"startTime":9,"velocity":68},{"channel":0,"duration":0.375,"durationBeats":1,"durationTicks":960,"endBeat":25,"endTick":24000,"endTime":9.375,"note":65,"startBeat":24,"startTick":23040,"startTime":9,"velocity":68},{"channel":0,"duration":0.375,"durationBeats":1,"durationTicks":960,"endBeat":25,"endTick":24000,"endTime":9.375,"note":69,"startBeat":24,"startTick":23040,"startTime":9,"velocity":68},{"channel":0,"duration":0.1875,"durationBeats":0.5,"durationTicks":480,"endBeat":25.5,"endTick":24480,"endTime":9.5625,"note":43,"startBeat":25,"startTick":24000,"startTime":9.375,"velocity":68},{"channel":0,"duration":0.09375,"durationBeats":0.25,"durationTicks":240,"endBeat":25.75,"endTick":24720,"endTime":9.65625,"note":65,"startBeat":25.5,"startTick":24480,"startTime":9.5625,"velocity":68},{"channel":0,"duration":0.1875,"durationBeats":0.5,"durationTicks":480,"endBeat":26,"endTick":24960,"endTime":9.75,"note":44,"startBeat":25.5,"startTick":24480,"startTime":9.5625,"velocity":68},{"channel":0,"duration":0.09375,"durationBeats":0.25,"durationTicks":240,"endBeat":26,"endTick":24960,"endTime":9.75,"note":69,"startBeat":25.75,"startTick":24720,"startTime":9.65625,"velocity":68},{"channel":0,"duration":0.1875,"durationBeats":0.5,"durationTicks":480,"endBeat":26.5,"endTick":25440,"endTime":9.9375,"note":45,"startBeat":26,"startTick":24960,"startTime":9.75,"velocity":68},{"channel":0,"duration":0.1875,"durationBeats":0.5,"durationTicks":480,"endBeat":26.5,"endTick":25440,"endTime":9.9375,"note":60,"startBeat":26,"startTick":24960,"startTime":9.75,"velocity":68},{"channel":0,"duration":0.1875,"durationBeats":0.5,"durationTicks":480,"endBeat":26.5,"endTick":25440,"endTime":9.9375,"note":64,"startBeat":26,"startTick":24960,"startTime":9.75,"velocity":68},{"channel":0,"duration":0.1875,"durationBeats":0.5,"durationTicks":480,"endBeat":26.5,"endTick":25440,"endTime":9.9375,"note":67,"startBeat":26,"startTick":24960,"startTime":9.75,"velocity":68},{"channel":0,"duration":0.1875,"durationBeats":0.5,"durationTicks":480,"endBeat":26.5,"endTick":25440,"endTime":9.9375,"note":72,"startBeat":26,"startTick":24960,"startTime":9.75,"velocity":68},{"channel":0,"duration":0.09375,"durationBeats":0.25,"durationTicks":240,"endBeat":27,"endTick":25920,"endTime":10.125,"note":45,"startBeat":26.75,"startTick":25680,"startTime":10.03125,"velocity":68},{"channel":0,"duration":0.1875,"durationBeats":0.5,"durationTicks":480,"endBeat":27.25,"endTick":26160,"endTime":10.21875,"note":61,"startBeat":26.75,"startTick":25680,"startTime":10.03125,"velocity":68},{"channel":0,"duration":0.1875,"durationBeats":0.5,"durationTicks":480,"endBeat":27.25,"endTick":26160,"endTime":10.21875,"note":65,"startBeat":26.75,"startTick":25680,"startTime":10.03125,"velocity":68},{"channel":0,"duration":0.1875,"durationBeats":0.5,"durationTicks":480,"endBeat":27.25,"endTick":26160,"endTime":10.21875,"note":67,"startBeat":26.75,"startTick":25680,"startTime":10.03125,"velocity":68},{"channel":0,"duration":0.1875,"durationBeats":0.5,"durationTicks":480,"endBeat":27.25,"endTick":26160,"endTime":10.21875,"note":70,"startBeat":26.75,"startTick":25680,"startTime":10.03125,"velocity":68},{"channel":0,"duration":0.1875,"durationBeats":0.5,"durationTicks":480,"endBeat":28,"endTick":26880,"endTime":10.5,"note":38,"startBeat":27.5,"startTick":26400,"startTime":10.3125,"velocity":68},{"channel":0,"duration":0.1875,"durationBeats":0.5,"durationTicks":480,"endBeat":28,"endTick":26880,"endTime":10.5,"note":60,"startBeat":27.5,"startTick":26400,"startTime":10.3125,"velocity":68},{"channel":0,"duration":0.1875,"durationBeats":0.5,"durationTicks":480,"endBeat":28,"endTick":26880,"endTime":10.5,"note":64,"startBeat":27.5,"startTick":26400,"startTime":10.3125,"velocity":68},{"channel":0,"duration":0.1875,"durationBeats":0.5,"durationTicks":480,"endBeat":28,"endTick":26880,"endTime":10.5,"note":65,"startBeat":27.5,"startTick":26400,"startTime":10.3125,"velocity":68},{"channel":0,"duration":0.1875,"durationBeats":0.5,"durationTicks":480,"endBeat":28,"endTick":26880,"endTime":10.5,"note":69,"startBeat":27.5,"startTick":26400,"startTime":10.3125,"velocity":68},{"channel":0,"duration":0.09375,"durationBeats":0.25,"durationTicks":240,"endBeat":28.25,"endTick":27120,"endTime":10.59375,"note":76,"startBeat":28,"startTick":26880,"startTime":10.5,"velocity":68},{"channel":0,"duration":0.1875,"durationBeats":0.5,"durationTicks":480,"endBeat":28.5,"endTick":27360,"endTime":10.6875,"note":50,"startBeat":28,"startTick":26880,"startTime":10.5,"velocity":68},{"channel":0,"duration":0.09375,"durationBeats":0.25,"durationTicks":240,"endBeat":28.5,"endTick":27360,"endTime":10.6875,"note":77,"startBeat":28.25,"startTick":27120,"startTime":10.59375,"velocity":68},{"channel":0,"duration":0.09375,"durationBeats":0.25,"durationTicks":240,"endBeat":28.75,"endTick":27600,"endTime":10.78125,"note":79,"startBeat":28.5,"startTick":27360,"startTime":10.6875,"velocity":68},{"channel":0,"duration":0.1875,"durationBeats":0.5,"durationTicks":480,"endBeat":29,"endTick":27840,"endTime":10.875,"note":38,"startBeat":28.5,"startTick":27360,"startTime":10.6875,"velocity":68},{"channel":0,"duration":0.09375,"durationBeats":0.25,"durationTicks":240,"endBeat":29,"endTick":27840,"endTime":10.875,"note":77,"startBeat":28.75,"startTick":27600,"startTime":10.78125,"velocity":68},{"channel":0,"duration":0.09375,"durationBeats":0.25,"durationTicks":240,"endBeat":29.25,"endTick":28080,"endTime":10.96875,"note":76,"startBeat":29,"startTick":27840,"startTime":10.875,"velocity":68},{"channel":0,"duration":0.1875,"durationBeats":0.5,"durationTicks":480,"endBeat":29.5,"endTick":28320,"endTime":11.0625,"note":45,"startBeat":29,"startTick":27840,"startTime":10.875,"velocity":68},{"channel":0,"duration":0.09375,"durationBeats":0.25,"durationTicks":240,"endBeat":29.5,"endTick":28320,"endTime":11.0625,"note":72,"startBeat":29.25,"startTick":28080,"startTime":10.96875,"velocity":68},{"channel":0,"duration":0.09375,"durationBeats":0.25,"durationTicks":240,"endBeat":29.75,"endTick":28560,"endTime":11.15625,"note":69,"startBeat":29.5,"startTick":28320,"startTime":11.0625,"velocity":68},{"channel":0,"duration":0.1875,"durationBeats":0.5,"durationTicks":480,"endBeat":30,"endTick":28800,"endTime":11.25,"note":38,"startBeat":29.5,"startTick":28320,"startTime":11.0625,"velocity":68},{"channel":0,"duration":0.09375,"durationBeats":0.25,"durationTicks":240,"endBeat":30,"endTick":28800,"endTime":11.25,"note":67,"startBeat":29.75,"startTick":28560,"startTime":11.15625,"velocity":68},{"channel":0,"duration":0.09375,"durationBeats":0.25,"durationTicks":240,"endBeat":30.25,"endTick":29040,"endTime":11.34375,"note":69,"startBeat":30,"startTick":28800,"startTime":11.25,"velocity":68},{"channel":0,"duration":0.1875,"durationBeats":0.5,"durationTicks":480,"endBeat":30.5,"endTick":29280,"endTime":11.4375,"note":50,"startBeat":30,"startTick":28800,"startTime":11.25,"velocity":68},{"channel":0,"duration":0.09375,"durationBeats":0.25,"durationTicks":240,"endBeat":30.5,"endTick":29280,"endTime":11.4375,"note":62,"startBeat":30.25,"startTick":29040,"startTime":11.34375,"velocity":68},{"channel":0,"duration":0.09375,"durationBeats":0.25,"durationTicks":240,"endBeat":30.75,"endTick":29520,"endTime":11.53125,"note":60,"startBeat":30.5,"startTick":29280,"startTime":11.4375,"velocity":68},{"channel":0,"duration":0.1875,"durationBeats":0.5,"durationTicks":480,"endBeat":31,"endTick":29760,"endTime":11.625,"note":38,"startBeat":30.5,"startTick":29280,"startTime":11.4375,"velocity":68},{"channel":0,"duration":0.09375,"durationBeats":0.25,"durationTicks":240,"endBeat":31,"endTick":29760,"endTime":11.625,"note":65,"startBeat":30.75,"startTick":29520,"startTime":11.53125,"velocity":68},{"channel":0,"duration":0.1875,"durationBeats":0.5,"durationTicks":480,"endBeat":31.5,"endTick":30240,"endTime":11.8125,"note":45,"startBeat":31,"startTick":29760,"startTime":11.625,"velocity":68},{"channel":0,"duration":0.1875,"durationBeats":0.5,"durationTicks":480,"endBeat":31.5,"endTick":30240,"endTime":11.8125,"note":60,"startBeat":31,"startTick":29760,"startTime":11.625,"velocity":68},{"channel":0,"duration":0.1875,"durationBeats":0.5,"durationTicks":480,"endBeat":31.5,"endTick":30240,"endTime":11.8125,"note":64,"startBeat":31,"startTick":29760,"startTime":11.625,"velocity":68},{"channel":0,"duration":0.1875,"durationBeats":0.5,"durationTicks":480,"endBeat":31.5,"endTick":30240,"endTime":11.8125,"note":69,"startBeat":31,"startTick":29760,"startTime":11.625,"velocity":68},{"channel":0,"duration":0.1875,"durationBeats":0.5,"durationTicks":480,"endBeat":32,"endTick":30720,"endTime":12,"note":44,"startBeat":31.5,"startTick":30240,"startTime":11.8125,"velocity":68},{"channel":0,"duration":0.1875,"durationBeats":0.5,"durationTicks":480,"endBeat":32,"endTick":30720,"endTime":12,"note":59,"startBeat":31.5,"startTick":30240,"startTime":11.8125,"velocity":68},{"channel":0,"duration":0.1875,"durationBeats":0.5,"durationTicks":480,"endBeat":32,"endTick":30720,"endTime":12,"note":63,"startBeat":31.5,"startTick":30240,"startTime":11.8125,"velocity":68},{"channel":0,"duration":0.1875,"durationBeats":0.5,"durationTicks":480,"endBeat":32,"endTick":30720,"endTime":12,"note":68,"startBeat":31.5,"startTick":30240,"startTime":11.8125,"velocity":68}],"tempoMap":[{"tempo":500000,"time":0}],"ticksPerQuarter":960}},"playbackRange":{"endTick":57600,"startTick":0},"playbackRangeUserDefined":true,"rowHeight":145,"timeline":{"beatsPerBar":4,"globalBpm":120,"id":"blank","name":"blank"},"tracks":{},"tracksOrder":[]}}